<svg xmlns="http://www.w3.org/2000/svg" viewBox="0 0 48 48" width="50" height="50"><path fill="#cfd8dc" d="M20 5H24V43H20z"/><path fill="#b0bec5" d="M24 5H28V43H24z" transform="rotate(-180 26 24)"/><path fill="#455a64" d="M28 11L25 11 25 10 26 9 28 9zM20 16L23 16 23 15 22 14 20 14zM28 22L25 22 25 21 26 20 28 20zM20 27L23 27 23 26 22 25 20 25zM28 34L25 34 25 33 26 32 28 32zM20 39L23 39 23 38 22 37 20 37z"/><path fill="#cfd8dc" d="M38 5L32 5 35 43 41 43z"/><path fill="#b0bec5" d="M38 5L35 5 38 43 41 43z"/><path fill="#455a64" d="M38 34L40.175 34 40.025 32 39 32 38 33zM37 9L36 10 36 11 38.45 11 38.3 9zM37 39L37 38 36 37 34.4 37 34.55 39zM38 20L37 21 37 22 39.275 22 39.125 20zM36 27L36 26 35 25 33.5 25 33.65 27zM32.825 16L35 16 35 15 34 14 32.675 14z"/><path fill="#cfd8dc" d="M13,5H7c0,0,3,13.047,3,38h6C16,18.047,13,5,13,5z"/><path fill="#b0bec5" d="M13,5h-3c0,0,3,13.047,3,38h3C16,18.047,13,5,13,5z"/><g><path fill="#455a64" d="M8.538 16H11v-1l-1-1H8.314C8.388 14.636 8.463 15.302 8.538 16zM12 27v-1l-1-1H9.327c.045.652.089 1.32.13 2H12zM11 10v1h2.939c-.098-.733-.192-1.397-.28-2H12L11 10zM13 20l-1 1v1h3.101c-.056-.684-.112-1.354-.17-2H13zM13 34h2.801c-.025-.677-.052-1.344-.08-2H14l-1 1V34zM13 38l-1-1H9.894c.017.658.033 1.324.046 2H13V38z"/></g></svg>