<svg xmlns="http://www.w3.org/2000/svg" viewBox="0 0 48 48" width="50" height="50"><path fill="#f3e5f5" d="M29,3c0,9,9,10,8.5,21c-0.3,7.4-6,13.5-13.5,13.5S10.3,31.4,10,24c-0.5-11,9-12,9-21"/><path fill="#9c27b0" d="M24,39c-8.3,0-15-6.7-15-15c0-6.1,2.7-9.4,5.1-12.3C16.2,9.1,18,6.9,18,3h2c0,4.6-2.2,7.3-4.4,10 c-2.3,2.8-4.6,5.6-4.6,11c0,7.2,5.8,13,13,13c7.2,0,13-5.8,13-13c0-5.4-2.3-8.3-4.6-11C30.2,10.3,28,7.6,28,3h2 c0,3.9,1.8,6.1,3.9,8.7C36.3,14.6,39,17.9,39,24C39,32.3,32.3,39,24,39z"/><path fill="#e1bee7" d="M24,37c-6.1,0-11-4.9-11-11c0-4.3,1.5-6.7,3.1-9.2C18,13.7,20,10.5,20,3h2c0,8.1-2.2,11.7-4.2,14.8 C16.3,20.2,15,22.3,15,26c0,5,4,9,9,9c5,0,9-4,9-9c0-3.7-1.3-5.8-2.8-8.1C28.2,14.7,26,11.1,26,3h2c0,7.5,2,10.7,3.9,13.8 c1.6,2.5,3.1,4.9,3.1,9.2C35,32.1,30.1,37,24,37z"/><path fill="#e1bee7" d="M24,35c-3.9,0-7-3.1-7-7c0-1.3,0.5-2.9,1.3-5.1C19.7,18.6,21.9,12.2,22,3l2,0 c-0.1,9.5-2.3,16.1-3.8,20.5c-0.7,2-1.2,3.5-1.2,4.5c0,2.8,2.2,5,5,5s5-2.2,5-5c0-1.7-0.7-3.6-1.5-6.1C26,17.7,24,11.9,24,3h2 c0,8.6,1.9,14.2,3.4,18.3C30.3,23.9,31,26,31,28C31,31.9,27.9,35,24,35z"/><path fill="#e1bee7" d="M21,30c0-1.7,3-13,3-13s3,11.3,3,13s-1.3,3-3,3S21,31.7,21,30z"/><path fill="#ab47bc" d="M22,31c0-1.1,2-7,2-7s2,5.9,2,7s-0.9,2-2,2S22,32.1,22,31z"/><path fill="#5d4037" d="M26.9,36.7C26,36.9,25,37,24,37s-2-0.1-2.9-0.3L19,42l2.7-3.2L21,44l2.2-5.1L24,45l0.8-6.1L27,44 l-0.7-5.2L29,42L26.9,36.7z"/></svg>