<svg xmlns="http://www.w3.org/2000/svg" width="50" height="50" viewBox="0 0 48 48"><g data-name="Flower Doodle"><path fill="#ff738d" d="M12.515,10.805a81.876,81.876,0,0,1,8.275,6.9c-.01,0-1.26.642-1.26.642-1.667,1.085-1.547,1.525-2.187,3.5s-1,2.265-.285,4.113l.642,1.26a77.654,77.654,0,0,1-9.487.072c-1.952-.218-3.575-.382-4.755-1.545A4.334,4.334,0,0,1,3.1,20.364c1.707-2.415,3.658-5.423,3.423-7.3-.216-1.677.3-3.275,2.187-3.495A6.45,6.45,0,0,1,12.515,10.805Z"/><path fill="none" stroke="#ff3d63" stroke-linecap="round" stroke-linejoin="round" stroke-width="2" d="M10.4,23.787a25.847,25.847,0,0,0,6.325-.048"/><path fill="none" stroke="#ff3d63" stroke-linecap="round" stroke-linejoin="round" stroke-width="2" d="M12.872,16.179s4.161,2.3,5.089,3.756"/><circle cx="7.238" cy="23.811" r="1" fill="#ff3d63"/><circle cx="10.685" cy="19.674" r="1" fill="#ff3d63"/><circle cx="10.328" cy="14.3" r="1" fill="#ff3d63"/><path fill="#ff3d63" d="M9.309,9.574A2.044,2.044,0,0,0,8,12a10.492,10.492,0,0,1-2,7c-.92,1.31-2.593,4.431-1,6,1.179,1.161,5.05.787,7,1a35.11,35.11,0,0,0,5.122.076L17.7,27.21a78.969,78.969,0,0,1-9.487.072c-1.95-.213-3.576-.384-4.755-1.545A4.338,4.338,0,0,1,3.1,20.364c1.708-2.41,3.655-5.426,3.423-7.3-.212-1.677.3-3.278,2.187-3.495A2.4,2.4,0,0,1,9.309,9.574Z"/><path fill="#ff738d" d="M7.9,30.845a81.911,81.911,0,0,1,9.114-5.739c-.006.008.221,1.4.221,1.4.517,1.92.973,1.942,2.649,3.16s1.845,1.65,3.823,1.542l1.4-.221a77.62,77.62,0,0,1-2.863,9.045c-.811,1.789-1.468,3.281-2.939,4.045a4.334,4.334,0,0,1-5.22-1.321c-1.77-2.37-4.027-5.155-5.885-5.512-1.662-.312-3.022-1.3-2.648-3.16A6.449,6.449,0,0,1,7.9,30.845Z"/><path fill="none" stroke="#ff3d63" stroke-linecap="round" stroke-linejoin="round" stroke-width="2" d="M19.6,36.868A25.861,25.861,0,0,0,21.5,30.839"/><path fill="none" stroke="#ff3d63" stroke-linecap="round" stroke-linejoin="round" stroke-width="2" d="M13.123,32.166s3.47-3.247,5.144-3.678"/><circle cx="18.641" cy="39.883" r="1" fill="#ff3d63"/><circle cx="15.771" cy="35.326" r="1" fill="#ff3d63"/><circle cx="10.55" cy="34.005" r="1" fill="#ff3d63"/><path fill="#ff3d63" d="M5.74,33.514C6,35,6.21,34.846,7,35c1.854.358,4.877,2.59,6.641,4.959C14.6,41.239,17.015,44.03,19,43c1.469-.762,2-3.977,2.8-5.765a55,55,0,0,0,2.048-6.052l1.257-.2a79.012,79.012,0,0,1-2.863,9.045c-.8,1.788-1.47,3.282-2.939,4.045a4.338,4.338,0,0,1-5.22-1.321c-1.765-2.37-4.031-5.154-5.885-5.512-1.661-.316-3.026-1.3-2.648-3.16A2.39,2.39,0,0,1,5.74,33.514Z"/><path fill="#ff738d" d="M25.536,41.425a81.63,81.63,0,0,1-2.642-10.441c.006.008,1.4.221,1.4.221,1.986.1,2.148-.324,3.823-1.542s2.139-1.245,2.649-3.16l.221-1.4A77.639,77.639,0,0,1,38.7,30.624c1.451,1.324,2.667,2.411,2.939,4.045a4.333,4.333,0,0,1-2.869,4.557c-2.8.95-6.147,2.237-7.06,3.893-.811,1.484-2.169,2.473-3.824,1.542A6.437,6.437,0,0,1,25.536,41.425Z"/><path fill="none" stroke="#ff3d63" stroke-linecap="round" stroke-linejoin="round" stroke-width="2" d="M34.877,32.166a25.813,25.813,0,0,0-5.144-3.678"/><path fill="none" stroke="#ff3d63" stroke-linecap="round" stroke-linejoin="round" stroke-width="2" d="M28.405,36.868s-2.016-4.3-1.909-6.029"/><circle cx="37.45" cy="34.005" r="1" fill="#ff3d63"/><circle cx="32.229" cy="35.326" r="1" fill="#ff3d63"/><circle cx="29.359" cy="39.883" r="1" fill="#ff3d63"/><path fill="#ff3d63" d="M27.406,44.306C29,45,29.609,43.7,30,43c.913-1.652,3.178-3.271,5.977-4.216,1.514-.52,4.39-1.578,4.023-3.784-.271-1.632-2.64-3.5-4.092-4.819a54.8,54.8,0,0,0-5.123-3.818l.2-1.257A79.011,79.011,0,0,1,38.7,30.624c1.452,1.318,2.668,2.413,2.939,4.045a4.337,4.337,0,0,1-2.869,4.557c-2.8.946-6.147,2.241-7.06,3.893C30.9,44.6,29.543,45.6,27.887,44.661A2.371,2.371,0,0,1,27.406,44.306Z"/><path fill="#ff738d" d="M41.047,27.924A81.758,81.758,0,0,1,30.3,27.21c.01,0,.642-1.26.642-1.26.711-1.857.356-2.143-.285-4.113s-.523-2.419-2.187-3.5L27.21,17.7a77.656,77.656,0,0,1,7.633-5.635c1.707-.971,3.117-1.792,4.755-1.545a4.334,4.334,0,0,1,3.447,4.137c.039,2.958.228,6.538,1.521,7.918,1.161,1.23,1.682,2.827.285,4.113A6.446,6.446,0,0,1,41.047,27.924Z"/><path fill="none" stroke="#ff3d63" stroke-linecap="round" stroke-linejoin="round" stroke-width="2" d="M35.128,16.179a25.842,25.842,0,0,0-5.089,3.756"/><path fill="none" stroke="#ff3d63" stroke-linecap="round" stroke-linejoin="round" stroke-width="2" d="M37.6,23.787s-4.717.587-6.325-.048"/><circle cx="37.672" cy="14.3" r="1" fill="#ff3d63"/><circle cx="37.315" cy="19.674" r="1" fill="#ff3d63"/><circle cx="40.762" cy="23.811" r="1" fill="#ff3d63"/><path fill="#ff3d63" d="M44.365,27.036A2.755,2.755,0,0,0,44,24a10.4,10.4,0,0,1-2.239-6.822c-.026-1.6-.55-4.845-2.761-5.178-1.636-.246-3.739,1.612-5.441,2.585a54.956,54.956,0,0,0-5.215,3.692L27.21,17.7a78.962,78.962,0,0,1,7.633-5.635c1.7-.973,3.119-1.791,4.755-1.545a4.338,4.338,0,0,1,3.447,4.137c.035,2.954.232,6.539,1.521,7.918,1.158,1.233,1.686,2.827.285,4.113A2.377,2.377,0,0,1,44.365,27.036Z"/><path fill="#ff738d" d="M33,9a81.81,81.81,0,0,1-4,10c0-.01-1-1-1-1-1.547-1.25-1.928-1-4-1s-2.462-.25-4,1l-1,1a77.619,77.619,0,0,1-3-9c-.4-1.924-.741-3.518,0-5a4.334,4.334,0,0,1,5-2c2.825.877,6.287,1.8,8,1,1.528-.724,3.208-.726,4,1A6.445,6.445,0,0,1,33,9Z"/><path fill="none" stroke="#ff3d63" stroke-linecap="round" stroke-linejoin="round" stroke-width="2" d="M20,11a25.824,25.824,0,0,0,2,6"/><path fill="none" stroke="#ff3d63" stroke-linecap="round" stroke-linejoin="round" stroke-width="2" d="M28,11s-.9,4.667-2,6"/><circle cx="19" cy="8" r="1" fill="#ff3d63"/><circle cx="24" cy="10" r="1" fill="#ff3d63"/><circle cx="29" cy="8" r="1" fill="#ff3d63"/><path fill="#ff3d63" d="M33.18,5.57C32,4,30.73,4.66,30,5a9.908,9.908,0,0,1-7,0c-1.53-.47-5-1-6,1-.74,1.48.6,4.08,1,6a41.763,41.763,0,0,0,1.27,4.3c-.59-.53-1.22-1.09-1.88-1.65A40.941,40.941,0,0,1,16,10c-.4-1.92-.74-3.52,0-5a4.338,4.338,0,0,1,5-2c2.82.88,6.29,1.8,8,1,1.53-.72,3.21-.73,4,1A2.38,2.38,0,0,1,33.18,5.57Z"/><path fill="#ffec96" d="M32,24.008a8,8,0,1,1-12.968-6.28c.016-.008.024-.024.04-.032.048-.032.088-.064.128-.1h.008a7.976,7.976,0,0,1,9.584,0s0-.008.008,0h.008a.4.4,0,0,1,.064.056,1.247,1.247,0,0,1,.16.128A7.984,7.984,0,0,1,32,24.008Z"/><path fill="#ffdb45" d="M24.13,32H24a8,8,0,0,1-4.97-14.27c.02-.01.03-.03.04-.03.05-.04.09-.07.13-.1h.01A7.886,7.886,0,0,1,24,16a7.805,7.805,0,0,1,3.87,1.01,7.8,7.8,0,0,0-4.66,1.59H23.2c-.04.03-.08.06-.13.1-.01,0-.02.02-.04.03A8,8,0,0,0,24.13,32Z"/></g></svg>