<svg xmlns="http://www.w3.org/2000/svg" viewBox="0 0 48 48" width="50" height="50"><path fill="#8BC34A" d="M14,35c0,0-2.3-14,13-14c10,0,17,8,17,8s-7.5,12-19,12C16,41,14,35,14,35z M18,18c0-6.1-6-12-6-12s-7.3,4.3-8,13s5.8,10.7,5.8,10.7S18,26.8,18,18z"/><path fill="#689F38" d="M44,29c0,0-7.5,12-19,12c-6,0-8.9-2.7-10.2-4.5c-2.9,2.5-3.9,4.8-3.9,4.9C10.8,41.8,10.4,42,10,42c-0.1,0-0.3,0-0.4-0.1c-0.5-0.2-0.7-0.8-0.5-1.3c0.1-0.3,2.6-5.8,10.2-9.4C30.3,25.4,44,29,44,29z M11,35c0.1,0,0.2,0,0.3-0.1c0.5-0.2,0.8-0.8,0.6-1.3c-0.5-1.5-0.9-2.9-1.1-4.4C13,28.2,18,24.9,18,18c0-6.1-6-12-6-12s-0.4,1.1-1,3c0,0,0,0,0,0c-0.2,0.5-5.2,13.6-0.9,25.3C10.2,34.7,10.6,35,11,35z"/></svg>