<svg xmlns="http://www.w3.org/2000/svg" viewBox="0 0 48 48" width="50" height="50"><path fill="#689f38" d="M16.976 3c-1.671.09-5.807 3.942-7 6-2.907 5.013-3.943 8.571-5.154 14.24C4.015 27.02 3.976 31.141 3.976 35c0 2.333 0 9 0 9s2.315-4.303 5.32-6.513c1.193-.877 2.235-2.715 2.904-4.014 2.421-4.699 5.776-12.302 5.776-19.473C17.976 10.5 18.245 6.162 16.976 3M27 18.235c1.169-.213 4.686 1.64 5.862 2.795 2.866 2.814 4.191 4.978 5.998 8.497 1.205 2.347 1.938 5.043 2.599 7.572C41.858 38.629 43 43 43 43s-2.336-2.444-4.79-3.404c-.974-.381-2.008-1.416-2.693-2.159-2.477-2.687-5.576-7.944-6.805-12.646-.599-2.294-1.05-4.511-.715-6.79"/><path fill="#6d4c41" d="M13.326,3C19.833,21.5,16.003,44.753,16,45h13.999C30.012,43.968,33.333,22.333,28,3H13.326z"/><path fill="#ffc107" d="M17.917,10c-3.714,0.335-7.227,2.677-9.177,6.117s-2.286,7.895-0.88,11.633c0.461,1.225,0.973,2.42,1.569,3.583c0.758,1.479,1.815,2.745,2.431,2.653c0.949-0.141,1.418-1.28,2.058-2.052c0.833-1.007,2.04-1.304,3.02-2.111C18.041,28.916,19.484,27.3,20,26c1.506-3.798,2-4.912,2-9c0-2.701-1.255-6.721-1.977-6.851L17.917,10z"/><path fill="#ffb300" d="M22.975,7.838c1.044-0.956,2.801-1.028,4.26-0.548c0.991,0.326,1.892,0.396,2.933,0.408c1.114,0.013,2.237,0.096,3.309,0.407c3.874,1.123,6.333,4.895,8.45,8.394c0.343,0.566,0.686,1.133,1.028,1.699c0.441,0.729,0.892,1.484,1.017,2.331c0.125,0.848-0.161,1.821-0.894,2.239c-0.822,0.47-1.832,0.106-2.755-0.085c-2.027-0.421-4.076,0.084-6.115-0.087c-2.032-0.171-3.751-1.254-5.286-2.566C25.683,17.262,19.637,12.808,22.975,7.838C23.191,7.515,22.753,8.041,22.975,7.838z"/><path fill="#ffd740" d="M24,19c0,0,1.187,0.006,2,0c3.804-0.026,7.612,2.77,9.134,6.685c1.847,4.752,0.607,10.537-2.458,14.463c-0.422,0.54-1.093,1.095-1.655,0.739c-0.202-0.127-0.335-0.349-0.477-0.552c-1.127-1.612-3.04-2.256-4.547-3.437c-2.239-1.754-3.525-4.708-3.879-7.698c-0.188-1.586-0.137-3.193,0.061-4.775c0.137-1.092,0.176-2.215,0.495-3.275C22.831,20.629,23.43,19.202,24,19z"/><path fill="#ffa000" d="M20.023,10.149c0,0-0.433,0.169-1.123,0.553c-0.354,0.17-0.754,0.445-1.223,0.708c-0.446,0.315-0.964,0.629-1.472,1.05c-0.536,0.381-1.028,0.894-1.58,1.381c-0.257,0.264-0.493,0.562-0.749,0.849c-0.264,0.28-0.499,0.59-0.715,0.924c-0.214,0.333-0.483,0.636-0.662,1.002c-0.178,0.366-0.361,0.731-0.56,1.092c-0.226,0.348-0.3,0.772-0.456,1.158c-0.119,0.401-0.32,0.776-0.376,1.198l-0.259,1.24c-0.041,0.207-0.095,0.411-0.125,0.619l-0.034,0.633c-0.014,0.842-0.196,1.668-0.087,2.485c0.074,0.811,0.025,1.611,0.135,2.361c0.124,0.747,0.216,1.463,0.299,2.129c0.064,0.67,0.215,1.268,0.328,1.805c0.121,0.535,0.207,1.011,0.283,1.403c0.146,0.786,0.214,1.247,0.214,1.247s-0.224-0.397-0.588-1.114c-0.18-0.359-0.403-0.796-0.638-1.307c-0.241-0.509-0.534-1.08-0.711-1.752c-0.213-0.661-0.441-1.384-0.657-2.157c-0.216-0.773-0.294-1.629-0.421-2.504c-0.164-0.872-0.102-1.806-0.081-2.746l0.024-0.709c0.027-0.236,0.081-0.472,0.12-0.709l0.264-1.426c0.082-0.477,0.316-0.92,0.468-1.378c0.191-0.446,0.3-0.923,0.567-1.329c0.232-0.421,0.476-0.831,0.72-1.231c0.242-0.402,0.574-0.736,0.85-1.095c0.282-0.357,0.566-0.7,0.91-0.973c0.328-0.287,0.634-0.581,0.956-0.835c0.671-0.478,1.301-0.925,1.947-1.227c0.612-0.357,1.233-0.561,1.758-0.772c0.545-0.172,1.014-0.32,1.416-0.393c0.391-0.095,0.717-0.128,0.931-0.154C19.909,10.15,20.023,10.149,20.023,10.149z"/><path fill="#ffa000" d="M20.023,10.149c0,0-0.78,1.431-1.778,3.581c-0.488,1.083-1.054,2.336-1.591,3.705c-0.293,0.673-0.528,1.396-0.807,2.113c-0.295,0.711-0.506,1.466-0.765,2.203c-0.257,0.738-0.473,1.49-0.709,2.223c-0.193,0.745-0.419,1.471-0.62,2.179c-0.175,0.714-0.351,1.405-0.528,2.061c-0.184,0.654-0.291,1.287-0.442,1.864c-0.123,0.581-0.289,1.111-0.373,1.589c-0.092,0.477-0.193,0.893-0.272,1.237c-0.164,0.688-0.276,1.084-0.276,1.084s-0.056-0.402-0.121-1.11c-0.029-0.354-0.07-0.786-0.093-1.281c-0.044-0.497-0.02-1.053-0.004-1.663c0.027-0.608,0.006-1.278,0.109-1.969c0.082-0.694,0.145-1.434,0.279-2.187c0.157-0.747,0.277-1.533,0.478-2.312c0.224-0.772,0.424-1.566,0.675-2.345c0.293-0.764,0.538-1.546,0.868-2.282c0.301-0.747,0.652-1.459,1.006-2.139c0.328-0.692,0.732-1.319,1.091-1.921c0.368-0.598,0.748-1.144,1.114-1.635c0.721-0.99,1.422-1.74,1.924-2.246C19.699,10.398,20.023,10.149,20.023,10.149z"/><path fill="#ffa000" d="M20.023,10.149c0,0,0.062,0.406,0.138,1.114c0.062,0.712,0.191,1.712,0.181,2.939c0.003,0.612,0.025,1.279-0.016,1.981c-0.047,0.701-0.077,1.444-0.167,2.208c-0.13,0.763-0.182,1.563-0.388,2.36c-0.096,0.4-0.193,0.802-0.29,1.207l-0.38,1.206c-0.297,0.791-0.64,1.578-1.052,2.308c-0.385,0.746-0.884,1.404-1.341,2.025c-0.457,0.625-0.939,1.174-1.368,1.703c-0.424,0.535-0.837,1.022-1.191,1.496c-0.714,0.941-1.284,1.765-1.662,2.36c-0.384,0.592-0.624,0.931-0.624,0.931s0.082-0.398,0.262-1.094c0.084-0.351,0.209-0.769,0.392-1.236c0.16-0.478,0.377-1.003,0.653-1.559c0.523-1.124,1.307-2.358,2.089-3.599c0.395-0.621,0.748-1.271,1.087-1.932c0.348-0.658,0.626-1.361,0.876-2.078l0.375-1.08c0.101-0.371,0.201-0.741,0.3-1.108c0.2-0.733,0.356-1.481,0.531-2.194c0.133-0.726,0.281-1.429,0.423-2.096c0.125-0.672,0.244-1.308,0.354-1.894c0.242-1.172,0.404-2.184,0.564-2.875C19.917,10.546,20.023,10.149,20.023,10.149z"/><g><path fill="#ffb300" d="M24,19c0,0,0.166,1.498,0.416,3.744c0.14,1.108,0.305,2.389,0.553,3.73c0.252,1.338,0.584,2.742,1.08,4.04c0.244,0.65,0.541,1.266,0.879,1.826c0.351,0.566,0.708,1.014,1.216,1.563c0.929,1.034,1.83,2.071,2.429,3.124c0.305,0.524,0.514,1.058,0.627,1.545c0.13,0.485,0.114,0.931,0.089,1.276c-0.087,0.698-0.29,1.035-0.269,1.04c0,0-0.006-0.095-0.018-0.274c-0.001-0.176-0.053-0.434-0.114-0.741c-0.143-0.624-0.546-1.394-1.257-2.173c-0.721-0.779-1.699-1.594-2.75-2.558c-0.49-0.442-1.142-1.055-1.583-1.741c-0.468-0.679-0.825-1.424-1.117-2.176c-0.579-1.512-0.831-3.076-0.95-4.525c-0.073-0.724-0.067-1.427-0.061-2.088c0.002-0.661,0.05-1.285,0.107-1.857C23.495,20.463,24,19,24,19z"/><path fill="#ffb300" d="M24,19c0,0,0.196,0.327,0.507,0.909c0.146,0.296,0.346,0.646,0.578,1.025c0.233,0.384,0.47,0.813,0.773,1.278c0.578,0.934,1.291,1.994,2.051,3.148c0.762,1.156,1.591,2.387,2.329,3.72c0.367,0.662,0.72,1.348,1.022,2.047c0.15,0.352,0.292,0.705,0.425,1.055c0.111,0.363,0.22,0.722,0.327,1.076c0.117,0.347,0.181,0.713,0.238,1.066c0.051,0.356,0.135,0.692,0.133,1.04c0.013,0.341,0.026,0.673,0.038,0.994c0.003,0.319-0.064,0.631-0.092,0.924c-0.046,0.293-0.051,0.575-0.128,0.834c-0.078,0.256-0.153,0.499-0.223,0.728c-0.072,0.226-0.13,0.437-0.202,0.626c-0.093,0.182-0.178,0.349-0.255,0.5c-0.311,0.597-0.502,0.917-0.502,0.917s0.036-0.388,0.12-1.029c0.022-0.158,0.047-0.334,0.073-0.525c0.003-0.193,0.007-0.401,0.011-0.623c0.016-0.44,0.029-0.927-0.044-1.455c-0.021-0.527-0.154-1.083-0.274-1.665c-0.04-0.293-0.167-0.583-0.259-0.881c-0.108-0.296-0.167-0.607-0.311-0.908c-0.125-0.303-0.251-0.612-0.38-0.924c-0.158-0.305-0.31-0.616-0.457-0.932c-0.317-0.625-0.648-1.261-1.01-1.892c-0.702-1.267-1.453-2.553-2.096-3.802c-0.334-0.62-0.625-1.238-0.887-1.837c-0.281-0.585-0.492-1.171-0.682-1.71c-0.211-0.525-0.334-1.053-0.454-1.503c-0.135-0.449-0.198-0.843-0.241-1.17C24.037,19.379,24,19,24,19z"/><path fill="#ffb300" d="M24,19c0,0,0.104,0.017,0.3,0.049c0.194,0.034,0.488,0.074,0.848,0.172c0.722,0.185,1.754,0.529,2.886,1.189c0.558,0.337,1.161,0.727,1.726,1.23c0.584,0.482,1.15,1.058,1.663,1.713c0.517,0.651,1.003,1.367,1.403,2.146c0.385,0.83,0.717,1.486,1.015,2.396c0.155,0.43,0.267,0.861,0.359,1.29c0.109,0.427,0.2,0.857,0.25,1.293c0.073,0.431,0.12,0.863,0.118,1.294c0.02,0.429,0.025,0.852-0.01,1.268c-0.015,0.416-0.045,0.824-0.126,1.218c-0.055,0.396-0.144,0.776-0.241,1.143c-0.173,0.738-0.439,1.404-0.709,1.998c-0.541,1.192-1.187,2.065-1.665,2.634c-0.485,0.568-0.798,0.853-0.798,0.853s0.18-0.387,0.461-1.059c0.28-0.671,0.642-1.637,0.924-2.806c0.136-0.586,0.252-1.222,0.326-1.894c0.04-0.336,0.073-0.68,0.07-1.035c0.014-0.353,0.026-0.711,0.003-1.076c0.002-0.365-0.035-0.734-0.085-1.106c-0.031-0.373-0.105-0.746-0.172-1.123c-0.052-0.379-0.144-0.754-0.252-1.128c-0.092-0.38-0.2-0.752-0.339-1.102c-0.191-0.684-0.575-1.538-0.861-2.201c-0.35-0.679-0.68-1.359-1.095-1.961c-0.413-0.601-0.827-1.181-1.283-1.682c-0.447-0.509-0.913-0.956-1.354-1.367c-0.907-0.789-1.753-1.374-2.369-1.757C24.377,19.205,24,19,24,19z"/></g><g><path fill="#fb8c00" d="M23,8c0,0-0.178,0.405-0.148,1.113c0.012,0.703,0.302,1.665,0.989,2.604c0.678,0.945,1.715,1.876,2.944,2.725c0.607,0.436,1.271,0.846,1.958,1.242c0.698,0.381,1.396,0.792,2.13,1.146c0.372,0.189,0.714,0.354,1.1,0.527c0.372,0.183,0.748,0.378,1.103,0.534c0.713,0.332,1.44,0.639,2.132,0.923c0.695,0.29,1.378,0.497,2.034,0.702c0.657,0.199,1.311,0.327,1.936,0.509c0.628,0.173,1.204,0.381,1.684,0.612c0.481,0.229,0.877,0.46,1.189,0.671c0.321,0.193,0.544,0.391,0.706,0.507C42.915,21.935,43,22,43,22s-0.409-0.108-1.123-0.297c-0.712-0.189-1.701-0.394-2.906-0.466c-0.61-0.027-1.303-0.075-2.051-0.174c-0.749-0.089-1.53-0.28-2.31-0.516c-0.791-0.219-1.561-0.535-2.349-0.871c-0.782-0.328-1.525-0.681-2.289-1.1c-1.523-0.785-2.97-1.746-4.226-2.8c-1.231-1.081-2.265-2.284-2.83-3.525c-0.585-1.232-0.632-2.435-0.424-3.178c0.09-0.377,0.234-0.646,0.335-0.819C22.929,8.079,23,8,23,8z"/><path fill="#fb8c00" d="M22.908,8.395c0,0,0.315,0.231,0.843,0.657c0.251,0.234,0.616,0.417,0.975,0.686c0.351,0.268,0.835,0.498,1.294,0.8c0.492,0.269,1.023,0.555,1.592,0.848c0.579,0.28,1.19,0.576,1.821,0.882c1.276,0.601,2.658,1.224,4.032,1.921c1.37,0.698,2.729,1.456,3.937,2.289c0.62,0.388,1.175,0.837,1.704,1.253c0.54,0.399,0.99,0.863,1.423,1.255c0.433,0.395,0.777,0.818,1.098,1.168c0.329,0.341,0.561,0.693,0.765,0.966C42.791,21.675,43,22,43,22s-0.334-0.211-0.886-0.595c-0.276-0.192-0.599-0.433-0.994-0.678c-0.396-0.243-0.817-0.543-1.299-0.837c-0.495-0.279-0.996-0.617-1.561-0.928c-0.562-0.31-1.155-0.638-1.769-0.976c-0.607-0.347-1.272-0.647-1.921-0.998c-0.663-0.335-1.337-0.675-2.011-1.016c-1.35-0.685-2.713-1.401-3.958-2.157c-0.632-0.36-1.215-0.769-1.765-1.16c-0.554-0.384-1.046-0.805-1.49-1.193c-0.43-0.418-0.831-0.766-1.135-1.163c-0.308-0.378-0.595-0.691-0.757-0.986C23.097,8.736,22.908,8.395,22.908,8.395z"/><path fill="#fb8c00" d="M23,8c0,0,0.401,0.112,1.093,0.258c0.338,0.08,0.76,0.138,1.235,0.215c0.48,0.059,1.018,0.105,1.611,0.142c0.601,0.028,1.253,0.057,1.942,0.089c0.698,0.044,1.465,0.08,2.257,0.244c0.789,0.16,1.626,0.369,2.415,0.735c0.4,0.19,0.766,0.366,1.174,0.624l0.511,0.322l0.545,0.402c0.717,0.548,1.294,1.137,1.878,1.734c0.572,0.596,1.077,1.229,1.547,1.848c0.942,1.237,1.698,2.47,2.273,3.564c0.585,1.087,0.979,2.045,1.216,2.728C42.931,21.592,43,22,43,22s-0.23-0.344-0.659-0.905c-0.431-0.563-1.067-1.345-1.828-2.273c-0.772-0.92-1.675-1.981-2.669-3.074c-0.493-0.55-1.038-1.079-1.568-1.629c-0.537-0.53-1.131-1.059-1.694-1.499l-0.417-0.334l-0.502-0.337c-0.265-0.182-0.618-0.368-0.931-0.527c-0.64-0.335-1.311-0.586-1.991-0.78c-0.682-0.184-1.368-0.355-2.047-0.483c-0.677-0.129-1.33-0.274-1.935-0.434c-1.214-0.307-2.181-0.737-2.812-1.108c-0.326-0.164-0.54-0.348-0.704-0.45C23.085,8.058,23,8,23,8z"/></g></svg>