<svg xmlns="http://www.w3.org/2000/svg" width="100" height="100" viewBox="0 0 48 48"><desc>seed</desc><path fill="#E0AC6E" d="M36 19.999L16 6 4 22.999 25 36.999 31 36.999 38.072 25.394z"/><path fill="#5D4037" d="M36.484 35.725c1.26 1.201 2.741 1.631 3.299.953.562-.677-.008-2.203-1.269-3.404s-2.738-1.631-3.299-.952C34.654 32.996 35.225 34.522 36.484 35.725zM30.359 38.434c1.616.77 3.221.751 3.571-.042.355-.794-.673-2.063-2.29-2.828-1.616-.768-3.218-.752-3.57.043C27.715 36.398 28.743 37.665 30.359 38.434zM29.484 31.725c1.26 1.201 2.741 1.631 3.299.953.562-.677-.008-2.203-1.269-3.404s-2.738-1.631-3.299-.952C27.654 28.996 28.225 30.522 29.484 31.725zM40 39.999A3 1.5 0 1 0 40 42.999 3 1.5 0 1 0 40 39.999z"/><path fill="#FFCC80" d="M16 6L18.215 11.653 10 22.999 4 22.999 25 36.999 36 19.999z"/><path fill="#558B2F" d="M28,23c0,3.315-2.684,5.999-6,5.999S16,26.315,16,23c0-3.317,2.684-6.001,6-6.001S28,19.683,28,23"/><g><path fill="#FFF" d="M20.536 19.943c0-.829.655-1.498 1.464-1.498s1.464.669 1.464 1.498c0 .832-1.464 3.002-1.464 3.002S20.536 20.775 20.536 19.943M23.464 25.945c0 .831-.655 1.5-1.464 1.5s-1.464-.669-1.464-1.5 1.464-3 1.464-3S23.464 25.114 23.464 25.945"/><path fill="#FFF" d="M18.732 22.743c-.701-.415-.939-1.329-.536-2.049.403-.719 1.3-.964 2.001-.547C20.896 20.562 22 22.945 22 22.945S19.433 23.156 18.732 22.743M25.268 23.146c.701.415.939 1.331.536 2.049-.403.72-1.3.964-2.001.549C23.103 25.33 22 22.945 22 22.945S24.567 22.731 25.268 23.146"/><path fill="#FFF" d="M25.268 22.743c.701-.415.939-1.329.536-2.049-.403-.719-1.3-.964-2.001-.547C23.103 20.562 22 22.945 22 22.945S24.567 23.156 25.268 22.743M18.732 23.146c-.701.415-.939 1.331-.536 2.049.403.72 1.3.964 2.001.549C20.896 25.33 22 22.945 22 22.945S19.433 22.731 18.732 23.146"/></g><path fill="#FFC107" d="M23.5,23c0,0.828-0.671,1.499-1.5,1.499S20.5,23.828,20.5,23c0-0.83,0.671-1.501,1.5-1.501S23.5,22.17,23.5,23"/></svg>