<svg xmlns="http://www.w3.org/2000/svg" width="100" height="100" viewBox="0 0 48 48"><desc>stem</desc><path fill="#558B2F" d="M22,16v28c0,1.1-0.9,2-2,2s-2-0.9-2-2V16H22z M26,16v28c0,1.1,0.9,2,2,2s2-0.9,2-2V16H26z"/><path fill="#1B5E20" d="M20,5c0,0,3,3.8,3,8.5S21.7,22,20,22s-3-3.8-3-8.5S20,5,20,5z M25,13.5c0,4.7,1.3,8.5,3,8.5s3-3.8,3-8.5S28,5,28,5S25,8.8,25,13.5z"/><path fill="#8BC34A" d="M26,16v28c0,1.1-0.9,2-2,2s-2-0.9-2-2V16H26z M30,16v28c0,1.1,0.9,2,2,2s2-0.9,2-2V16H30z M14,16v28c0,1.1,0.9,2,2,2c1.1,0,2-0.9,2-2V16H14z"/><path fill="#689F38" d="M32,2c0,0,3,3.8,3,8.5S33.7,19,32,19c-1.7,0-3-3.8-3-8.5S32,2,32,2z M13,10.5c0,4.7,1.3,8.5,3,8.5s3-3.8,3-8.5S16,2,16,2S13,5.8,13,10.5z M21,10.5c0,4.7,1.3,8.5,3,8.5s3-3.8,3-8.5S24,2,24,2S21,5.8,21,10.5z"/><path fill="#2E7D32" d="M17,7c0,0.6-0.4,1-1,1c-0.6,0-1-0.4-1-1s1-3,1-3S17,6.4,17,7z M14,7c0,0-1,2.4-1,3s0.4,1,1,1s1-0.4,1-1S14,7,14,7z M18,7c0,0-1,2.4-1,3s0.4,1,1,1s1-0.4,1-1S18,7,18,7z M16,10c0,0-1,2.4-1,3s0.4,1,1,1c0.6,0,1-0.4,1-1S16,10,16,10z M13.4,14.7c0.2,0.9,0.4,1.7,0.7,2.3c0.5,0,1-0.5,1-1c0-0.6-1-3-1-3S13.7,13.9,13.4,14.7z M18,13c0,0-1,2.4-1,3c0,0.5,0.4,0.9,0.9,1c0.3-0.7,0.5-1.5,0.7-2.4C18.4,13.8,18,13,18,13z M16,16c0,0-1,2.4-1,3s0.4,1,1,1c0.6,0,1-0.4,1-1S16,16,16,16z M24,4c0,0-1,2.4-1,3s0.4,1,1,1s1-0.4,1-1S24,4,24,4z M22,7c0,0-1,2.4-1,3s0.4,1,1,1s1-0.4,1-1S22,7,22,7z M26,7c0,0-1,2.4-1,3s0.4,1,1,1s1-0.4,1-1S26,7,26,7z M24,10c0,0-1,2.4-1,3s0.4,1,1,1s1-0.4,1-1S24,10,24,10z M21.4,14.7c0.2,0.9,0.4,1.7,0.7,2.3c0.5,0,1-0.5,1-1c0-0.6-1-3-1-3S21.7,13.9,21.4,14.7z M26,13c0,0-1,2.4-1,3c0,0.5,0.4,0.9,0.9,1c0.3-0.7,0.5-1.5,0.7-2.4C26.4,13.8,26,13,26,13z M24,16c0,0-1,2.4-1,3s0.4,1,1,1s1-0.4,1-1S24,16,24,16z M32,4c0,0-1,2.4-1,3s0.4,1,1,1c0.6,0,1-0.4,1-1S32,4,32,4z M30,7c0,0-1,2.4-1,3s0.4,1,1,1s1-0.4,1-1S30,7,30,7z M34,7c0,0-1,2.4-1,3s0.4,1,1,1s1-0.4,1-1S34,7,34,7z M32,10c0,0-1,2.4-1,3s0.4,1,1,1c0.6,0,1-0.4,1-1S32,10,32,10z M29.4,14.7c0.2,0.9,0.4,1.7,0.7,2.3c0.5,0,1-0.5,1-1c0-0.6-1-3-1-3S29.7,13.9,29.4,14.7z M34,13c0,0-1,2.4-1,3c0,0.5,0.4,0.9,0.9,1c0.3-0.7,0.5-1.5,0.7-2.4C34.4,13.8,34,13,34,13z M32,16c0,0-1,2.4-1,3s0.4,1,1,1c0.6,0,1-0.4,1-1S32,16,32,16z"/><path fill="#558B2F" d="M17,26c0,0.6-0.4,1-1,1c-0.6,0-1-0.4-1-1s1-3,1-3S17,25.4,17,26z M24,23c0,0-1,2.4-1,3s0.4,1,1,1s1-0.4,1-1S24,23,24,23z M32,23c0,0-1,2.4-1,3s0.4,1,1,1c0.6,0,1-0.4,1-1S32,23,32,23z"/></svg>