<svg xmlns="http://www.w3.org/2000/svg" viewBox="0 0 48 48" width="50" height="50"><path fill="#EF6C00" d="M43,6c-0.1-1.1-1-1-1-1s-12.3-0.8-19.1,6c-3.7,3.8-5,7.8-6.2,11.4c-0.7,2.1-1.6,3.9-2.4,5.7C12.1,33,10.5,34.4,9,35c-0.7,0.3-3.4,0.2-4,1.4c-0.3,0.6,0.1,1.3,0.7,2c2.3,2.3,7.2,4.6,13,4.6c0.2,0,0.4,0,0.6,0c4.4-0.1,9.9-0.9,15.7-7c4.7-4.9,5.9-12.3,5.9-18c0-3.1-0.4-5.6-0.9-7C39.1,8.1,43,6.9,43,6z"/><path fill="#BF360C" d="M34,18c-0.4,0-0.7-0.2-0.9-0.5C31.8,15,29,15,29,15c0,0,0,0,0,0c-0.5,0-1-0.4-1-1c0-0.6,0.4-1,1-1c0.2,0,4-0.1,5.9,3.5c0.3,0.5,0.1,1.1-0.4,1.4C34.3,18,34.2,18,34,18z M35.5,25.9c0.5-0.3,0.7-0.9,0.4-1.3c-1.5-3-4.6-3.5-4.7-3.5c-0.6-0.1-1.1,0.3-1.1,0.8c-0.1,0.5,0.3,1.1,0.8,1.1c0,0,2.2,0.4,3.3,2.5c0.2,0.3,0.5,0.5,0.9,0.5C35.2,26,35.3,26,35.5,25.9z M25.4,26.9c0.5-0.2,0.8-0.8,0.5-1.3c-1-2.4-3.7-2.6-3.9-2.6c-0.5,0-1,0.4-1.1,0.9c0,0.5,0.4,1,0.9,1.1c0,0,1.7,0.2,2.2,1.4c0.2,0.4,0.5,0.6,0.9,0.6C25.1,27,25.3,27,25.4,26.9z M28.2,36c0.5-0.1,0.9-0.6,0.8-1.2c-0.4-1.7-1.9-2.6-2.7-2.8c-0.5-0.1-1.1,0.2-1.2,0.7c-0.1,0.5,0.2,1.1,0.7,1.2c0,0,1.1,0.3,1.3,1.2c0.1,0.5,0.5,0.8,1,0.8C28.1,36,28.1,36,28.2,36z M19.2,36c0.5-0.1,0.9-0.6,0.8-1.2c-0.4-1.8-1.9-2.6-2.8-2.8c-0.5-0.1-1.1,0.2-1.2,0.8c-0.1,0.5,0.2,1.1,0.8,1.2c0,0,1,0.2,1.2,1.2c0.1,0.5,0.5,0.8,1,0.8C19.1,36,19.1,36,19.2,36z"/><path fill="#D84315" d="M21,40c-7.8,0.4-9-5-9-5s-0.1-1.4,0.5-3.4c-1.3,2.1-2.4,2.9-3.5,3.4c-0.4,0.2-1.7,0.2-2.6,0.5c-0.6,0.2-1.1,0.5-1.3,0.9C5,36.6,4.9,36.7,5,36.9c0,0.5,0.3,1,0.8,1.5c2.3,2.3,7.2,4.6,13,4.6c0.2,0,0.4,0,0.6,0c1.6,0,3.4-0.2,5.3-0.6c1.6-0.4,3.3-1,5-2c0.7-0.4,1.4-0.9,2.1-1.4s1.4-1.1,2.2-1.8c0.4-0.3,0.7-0.7,1.1-1.1c1.8-1.8,3-4,3.9-6.4c0.3-0.8,0.6-1.6,0.8-2.4s0.4-1.6,0.6-2.4c0.2-0.8,0.3-1.6,0.4-2.4c0.1-1.2,0.2-2.3,0.2-3.4c0-0.4,0-0.7,0-1.1C41.2,30.9,28.8,39.6,21,40z"/></svg>