<svg xmlns="http://www.w3.org/2000/svg" viewBox="0 0 48 48" width="100px" height="100px"><path fill="#d81b60" d="M28,20c-1.7,0-3,0.6-4,0.6S21.5,20,20,20c-5.5,0-9,4-9,9.1s4,9.9,8.4,9.9c-0.2,0-0.3,0-0.4,0 c4,0,5,4,5,4s1-4,5.5-4c-0.1,0-0.3,0-0.4,0c3.9,0,7.8-4.8,7.8-9.9S33.8,20,28,20z"/><path fill="#ad1457" d="M20.8 21.9c0 1.7 1.4 3.2 3.2 3.2s3.2-1.4 3.2-3.2c0-.7-.2-1.3-.6-1.8-1 .2-1.9.4-2.6.4-.7 0-1.6-.3-2.6-.4C21.1 20.6 20.8 21.3 20.8 21.9zM20.1 28H17c-.6 0-1-.4-1-1s.4-1 1-1h3.1c.6 0 1 .4 1 1S20.6 28 20.1 28zM32 29h-4c-.6 0-1-.4-1-1s.4-1 1-1h4c.6 0 1 .4 1 1S32.6 29 32 29zM23 33h-6.6c-.6 0-1-.4-1-1s.4-1 1-1H23c.6 0 1 .4 1 1S23.6 33 23 33zM29 37h-4.3c-.6 0-1-.4-1-1s.4-1 1-1H29c.6 0 1 .4 1 1S29.6 37 29 37z"/><path fill="#4caf50" d="M38.1,7.4c-0.4-0.4,0-0.2,0.1-0.5c0.2-0.4-0.6-0.5-1-0.5c-0.1,0-0.1,0-0.2,0c-1.1-0.1,0.1-0.3,0-0.8 s-1.3-0.4-1.6-0.4c-0.6,0.1-1.3,0.3-1.8,0.6c0.2-0.1,0.5-0.5,0.3-0.7c-0.2-0.2-1,0.1-1.3,0.1c-0.6,0.2-1.1,0.3-1.7,0.6 c-0.4,0.2-0.7,0.6-1.1,0.9c0-0.2,0.1-0.4,0.1-0.6c-0.9-0.2-2.4,1.7-2.3,2.6c0-0.4,0-1.1-0.5-0.7C26.9,8.4,24,11.5,24,18 c0,1.8,0,2.4,0,3.1c0,0.2,0,0.3,0,0.4V23c0.5,0,0.9-0.4,1-0.9c0,0,0,0,0,0c0.2-1.4,0.6-2.9,1.2-4.6c0.4-1.4,1-3,2.6-3.3 c0.4-0.1,1,0.1,1.4-0.3c-0.1-0.1-0.5-1.2-0.6-1.3c0.5,0.1,1,0.9,1.6,1c0.8,0.1,0.9-0.4,1-1c0.3,0.5,1,0.9,1.5,1 c0.6,0.1,1.1-0.4,0.7-1c0.6,0.4,2.8,1.6,2.8,0c0-0.9-0.8-2.2-1.6-2.5c0.6,0,1.5,0.4,2.2,0.3c0.6,0,1-0.4,1.2-1 C39.2,8.6,38.6,8,38.1,7.4z"/><path fill="#388e3c" d="M24,18c0-6.5-2.9-9.6-3.1-10c-0.5-0.4-0.5,0.3-0.5,0.7c0.1-0.9-1.4-2.8-2.3-2.6 c0,0.2,0.1,0.4,0.1,0.6c-0.4-0.3-0.7-0.7-1.1-0.9c-0.6-0.3-1.1-0.4-1.7-0.6c-0.3,0-1.1-0.3-1.3-0.1c-0.2,0.2,0.1,0.6,0.3,0.7 c-0.5-0.3-1.2-0.5-1.8-0.6c-0.3,0-1.5-0.1-1.6,0.4c-0.1,0.5,1.1,0.7,0,0.8c-0.1,0-0.1,0-0.2,0c-0.4,0-1.2,0.1-1,0.5 C9.9,7.2,10.3,7,9.9,7.4C9.4,8,8.8,8.6,9,9.5c0.2,0.6,0.6,1,1.2,1c0.7,0.1,1.6-0.3,2.2-0.3c-0.8,0.3-1.6,1.6-1.6,2.5 c0,1.6,2.2,0.4,2.8,0c-0.4,0.6,0.1,1.1,0.7,1c0.5-0.1,1.2-0.5,1.5-1c0.1,0.6,0.2,1.1,1,1c0.6-0.1,1.1-0.9,1.6-1 c-0.1,0.1-0.5,1.2-0.6,1.3c0.4,0.4,1,0.2,1.4,0.3c1.6,0.3,2.2,1.9,2.6,3.3c0.6,1.8,1,3.3,1.2,4.4c0,0.6,0.4,1,1,1v-2 C24,20.3,24,19.7,24,18z"/></svg>