<svg width="24" height="24" viewBox="0 0 24 24" xmlns="http://www.w3.org/2000/svg"><title>Pumpkin</title><g fill="none" fill-rule="evenodd"><path d="M11.284 9.142S8.207 4.855 11.58 0l2.835 1.94s-2.093 2.654-.167 7.153c1.925 4.5-2.964.05-2.964.05z" fill="#8C6E3D"/><path d="M17.188 23.524c-2.07 0-1.21-3.453-1.21-7.764 0-4.31 1.677-7.805 3.746-7.805 2.07 0 3.746 3.495 3.746 7.805s-4.213 7.764-6.282 7.764zM6.744 23.524c2.07 0 1.21-3.453 1.21-7.764 0-4.31-1.677-7.805-3.747-7.805S.46 11.45.46 15.76s4.215 7.764 6.284 7.764z" stroke="#BB7D17" fill="#F4A11A"/><ellipse stroke="#BB7D17" fill="#F3A11A" cx="8.61" cy="15.111" rx="4.314" ry="8.46"/><ellipse stroke="#BB7D17" fill="#F3A11A" cx="15.321" cy="15.111" rx="4.314" ry="8.46"/><ellipse stroke="#BB7D17" fill="#F4A11A" cx="11.966" cy="14.785" rx="3.835" ry="8.785"/></g></svg>
