<svg width="64" height="64" viewBox="0 0 64 64" xmlns="http://www.w3.org/2000/svg"><title>Pumpkin</title><g transform="translate(1)" fill="none" fill-rule="evenodd"><path d="M29.092 24.38S20.885 12.947 29.88 0l7.56 5.176s-5.582 7.074-.446 19.073c5.135 11.998-7.902.13-7.902.13z" fill="#8C6E3D"/><path d="M44.834 62.73c-5.518 0-3.228-9.208-3.228-20.703s4.473-20.813 9.99-20.813c5.52 0 9.992 9.318 9.992 20.813S50.35 62.73 44.834 62.73zM16.984 62.73c5.517 0 3.227-9.208 3.227-20.703s-4.472-20.813-9.99-20.813S.23 30.532.23 42.027 11.465 62.73 16.983 62.73z" stroke="#CE8B1B" stroke-width="2" fill="#F4A11A"/><ellipse stroke="#CE8B1B" stroke-width="2" fill="#F3A11A" cx="21.96" cy="40.295" rx="11.505" ry="22.559"/><ellipse stroke="#CE8B1B" stroke-width="2" fill="#F3A11A" cx="39.857" cy="40.295" rx="11.505" ry="22.559"/><ellipse stroke="#CE8B1B" stroke-width="2" fill="#F4A11A" cx="30.909" cy="39.427" rx="10.226" ry="23.427"/></g></svg>
