<?xml version="1.0" encoding="utf-8"?>
<!-- Generator: Adobe Illustrator 20.0.0, SVG Export Plug-In . SVG Version: 6.00 Build 0)  -->
<svg version="1.1" xmlns="http://www.w3.org/2000/svg" xmlns:xlink="http://www.w3.org/1999/xlink" x="0px" y="0px"
	 viewBox="0 0 64 64" style="enable-background:new 0 0 64 64;" xml:space="preserve">
<style type="text/css">
	.st0{fill:#22B573;stroke:#184C28;stroke-width:3;stroke-linecap:round;stroke-linejoin:round;stroke-miterlimit:10;}
	.st1{fill:#EE0000;}
	.st2{fill:#9A0601;}
	.st3{fill:none;stroke:#FFFFFF;stroke-linecap:round;stroke-linejoin:round;stroke-miterlimit:10;}
	.st4{fill:#6FAD4C;}
	.st5{fill:#FCAA54;stroke:#8CC63F;stroke-width:3;stroke-linecap:round;stroke-linejoin:round;stroke-miterlimit:10;}
	.st6{fill:none;stroke:#8D5733;stroke-linecap:round;stroke-linejoin:round;stroke-miterlimit:10;}
	.st7{fill:#184C28;}
	.st8{fill:#82C64E;}
	.st9{fill:none;stroke:#497726;stroke-linecap:round;stroke-linejoin:round;stroke-miterlimit:10;}
	.st10{fill:#497726;}
	.st11{opacity:0.2;}
	.st12{fill:#748C8B;}
	.st13{fill:#434D42;}
	.st14{fill:#EFC11E;}
	.st15{fill:#C9292F;}
	.st16{fill:#802D2D;}
	.st17{fill:#C9292F;stroke:#802D2D;stroke-width:2.5473;stroke-miterlimit:10;}
	.st18{opacity:0.4;}
	.st19{fill:none;stroke:#FFFFFF;stroke-width:2.5473;stroke-linecap:round;stroke-linejoin:round;stroke-miterlimit:10;}
	.st20{fill:none;stroke:#006837;stroke-width:2.5473;stroke-linecap:round;stroke-miterlimit:10;}
	.st21{fill:#FFFFFF;}
	.st22{fill:#C9292F;stroke:#FFFFFF;stroke-width:2;stroke-linecap:round;stroke-linejoin:round;stroke-miterlimit:10;}
	.st23{filter:url(#Adobe_OpacityMaskFilter);}
	.st24{opacity:0.8;mask:url(#SVGID_1_);}
	.st25{fill:#00FFFF;}
	.st26{fill:#2E368F;}
	.st27{fill:#5860A5;}
	.st28{fill:#161542;}
	.st29{fill:none;stroke:#434D42;stroke-linecap:round;stroke-linejoin:round;stroke-miterlimit:10;}
	.st30{fill:#54665F;}
	.st31{fill:#54665F;stroke:#434D42;stroke-width:2;stroke-linecap:round;stroke-linejoin:round;stroke-miterlimit:10;}
	.st32{fill:#748C8B;stroke:#434D42;stroke-linecap:round;stroke-linejoin:round;stroke-miterlimit:10;}
	.st33{clip-path:url(#SVGID_3_);}
	.st34{fill:#194C28;}
	.st35{fill:#82C64E;stroke:#184C28;stroke-linejoin:round;stroke-miterlimit:10;}
	.st36{fill:none;stroke:#184C28;stroke-linecap:round;stroke-linejoin:round;stroke-miterlimit:10;}
	.st37{fill:#FCAA54;}
	.st38{fill:#8D5733;}
	.st39{fill:#406D2A;}
	.st40{fill:none;stroke:#8D5733;stroke-linecap:round;stroke-miterlimit:10;}
	.st41{fill:none;stroke:#FFFFFF;stroke-linecap:round;stroke-miterlimit:10;}
	.st42{clip-path:url(#SVGID_5_);}
	.st43{fill:#EE0000;stroke:#9A0601;stroke-linecap:round;stroke-linejoin:round;stroke-miterlimit:10;}
	.st44{fill:#C1272D;}
	.st45{fill:#184C28;stroke:#184C28;stroke-width:3;stroke-linecap:round;stroke-linejoin:round;stroke-miterlimit:10;}
	.st46{fill:none;stroke:#FDD6AD;stroke-linecap:round;stroke-linejoin:round;stroke-miterlimit:10;}
	.st47{fill:none;stroke:#FCAA54;stroke-linecap:round;stroke-linejoin:round;stroke-miterlimit:10;}
	.st48{fill:#9B0D91;}
	.st49{fill:#1B631A;}
	.st50{fill:#22153F;}
	.st51{fill:#95CC63;stroke:#517B39;stroke-width:3;stroke-linecap:round;stroke-linejoin:round;stroke-miterlimit:10;}
	.st52{fill:none;stroke:#517B39;stroke-linecap:round;stroke-linejoin:round;stroke-miterlimit:10;}
	.st53{display:none;}
	.st54{display:inline;fill:none;stroke:#00FFFF;stroke-width:0.1;stroke-miterlimit:10;}
</style>
<g id="Layer_2">
	<g>
		<path class="st12" d="M24.7,56.9C15.9,51.6,2.6,43.7,2.6,32.5c0-12.1,8.4-20.5,22.5-22.7L29,2.4h5.6l4.3,7.4
			C53,11.9,61.4,20.4,61.4,32.5c0,11.3-13.3,19.2-22.1,24.4l-7.2,4.3L24.7,56.9z"/>
		<path class="st14" d="M33.8,60.8c-2.6,1.9-6-1.2-5.3-4c1.1-4.1-0.5-5.8-1.6-9.5c-0.5-1.6-0.6-3.2,0.3-4.7c1.1-1.8,3.4-1.5,4.3-2.6
			c1-1.3,0.3-4.2,0.6-5.8c0.3-1.5,2-2.7,3.4-2.6c2.3,0,4.2-0.3,6.2-1c0.9-0.7,2.1-1.2,3.4-1.2c0.6,0,1.2,0.2,1.7,0.5
			c0.8-0.9,1.6-1.8,2.4-2.8c2.4-2.8,6.9,0.2,6,3.5c-0.1,0.2-0.3,1-0.5,1.9c0.1-0.1,0.2-0.1,0.3-0.1c1.3-0.5,2.5-0.7,3.8-0.1l2.6-0.1
			l-2.8,10L33.8,60.8z"/>
		<path class="st14" d="M15.6,11.8c2.5-1.1,6.5,0.8,5.3,4c-0.6,1.6-1.5,2.7-2.4,4.2c-0.1,0.2-0.2,0.3-0.2,0.5
			c0.7,0.5,1.3,1.2,1.8,2.1c1.7,3.3,0,7.3-3,9c-2.7,1.6-7.2,2-9.6-0.5c-0.5-0.5-0.8-1-1.1-1.6c-0.6-0.1-1.2-0.1-1.8-0.3l-2-1.4
			l1.5-6.4L15.6,11.8z"/>
		<g>
			<g>
				<path class="st21" d="M14.1,30.3C14.1,30.3,14.1,30.3,14.1,30.3c-0.3,0-0.5-0.3-0.5-0.5c0.3-4.5,1.3-8.3,3.1-11.2
					c0.1-0.2,0.4-0.3,0.7-0.2c0.2,0.1,0.3,0.4,0.2,0.7c-1.7,2.8-2.7,6.4-2.9,10.7C14.5,30.1,14.3,30.3,14.1,30.3z"/>
			</g>
			<g>
				<g>
					<path class="st21" d="M5.8,30.3C5.8,30.3,5.7,30.3,5.8,30.3c-0.3,0-0.5-0.3-0.5-0.6c0.4-3.1,1.5-5.8,3.1-8.3
						c0.2-0.2,0.5-0.3,0.7-0.1c0.2,0.2,0.3,0.5,0.1,0.7c-1.6,2.3-2.6,4.9-3,7.8C6.2,30.1,6,30.3,5.8,30.3z"/>
				</g>
			</g>
			<g>
				<path class="st21" d="M26.1,30.4c-0.3,0-0.5-0.2-0.5-0.5c0-10.1,1.5-14.7,2.8-16.8c0.1-0.2,0.4-0.3,0.7-0.2
					c0.2,0.1,0.3,0.4,0.2,0.7c-1.2,2-2.6,6.5-2.6,16.3C26.5,30.2,26.3,30.4,26.1,30.4z"/>
			</g>
			<circle class="st21" cx="26.4" cy="33" r="0.5"/>
			<circle class="st21" cx="14.4" cy="32.9" r="0.5"/>
			<circle class="st21" cx="6.1" cy="32.9" r="0.5"/>
		</g>
		<path class="st13" d="M38.8,7.8C38.4,7.7,38,7.4,38,7l-0.5-3.2c-0.3-1.9-1.9-3.3-3.8-3.3h-3.7c-1.9,0-3.5,1.4-3.8,3.3L25.8,7
			c-0.1,0.4-0.4,0.7-0.8,0.8c-7,1-13,3.7-17.2,7.6c-4.7,4.4-7.2,10.3-7.2,17c0,12.4,13.9,20.6,23.1,26.1c1.8,1.1,3.3,2,4.5,2.8
			c0.4,0.3,0.9,0.5,1.3,0.7c0.5,0.9,1.4,1.5,2.5,1.5c1.1,0,2-0.6,2.5-1.5c0.5-0.2,0.9-0.4,1.3-0.7c1.2-0.8,2.7-1.7,4.5-2.8
			c9.2-5.5,23.1-13.7,23.1-26.1C63.4,19.4,54,9.9,38.8,7.8z M29.2,4.3c0.1-0.5,0.4-0.8,0.8-0.8h3.7c0.4,0,0.8,0.4,0.8,0.8l0.5,3
			c-0.1,0-0.2-0.1-0.4-0.1c-0.2-0.1-0.3-0.1-0.5-0.1C34,7,33.8,6.9,33.6,6.9c-0.1,0-0.3,0-0.4-0.1c-0.4,0-0.8-0.1-1.1-0.1
			c-0.4,0-0.8,0-1.1,0.1c-0.1,0-0.3,0-0.4,0.1c-0.2,0-0.4,0.1-0.7,0.1c-0.2,0-0.3,0.1-0.5,0.1c-0.2,0.1-0.3,0.1-0.5,0.2
			c-0.1,0-0.1,0.1-0.1,0.1L29.2,4.3z M25.8,11.3c1.4-2.2,3.4-3.6,6.2-3.6c0.2,0,0.3,0,0.5,0c0,0,0.1,0,0.1,0c0.2,0,0.4,0,0.5,0.1
			c0,0,0,0,0,0c0.2,0,0.4,0.1,0.5,0.1c0,0,0.1,0,0.1,0c2.7,0.6,5.7,3.1,7,11.7c0,0,0,0,0,0c0.4,2.7,0.6,6.1,0.6,10.2
			c0,11.8-4.5,20.5-7.4,26.2c-0.6,1.2-1.2,2.4-1.7,3.4c0,0.1-0.2,0.4-0.4,0.4c-0.2,0-0.4-0.3-0.4-0.4c-0.5-1-1-2.1-1.7-3.4
			c-3-5.7-7.4-14.4-7.4-26.2c0-3.3,0.1-7,0.6-10.4C24.1,13.7,25.8,11.3,25.8,11.3z M3.6,32.5c0-9.7,5.5-16.2,13.8-19.6
			c-4,3.6-6.9,9.6-6.9,19.5c0,10.6,7.6,17.9,13.7,23C15.6,50.3,3.6,42.7,3.6,32.5z M26.8,56.3C20.3,51,11.4,43.7,11.4,32.4
			c0-11.6,4.2-17.6,9.2-20.6c1.4-0.4,2.9-0.7,4.4-1c-2.3,3.7-3.5,10-3.5,19.1C21.5,42,26,50.8,29,56.6c0.5,0.9,0.9,1.8,1.3,2.5
			c-0.1-0.1-0.3-0.1-0.4-0.2c0,0-0.1,0-0.1-0.1C28.9,58,27.9,57.2,26.8,56.3z M34.2,58.8C34.2,58.8,34.2,58.9,34.2,58.8
			c-0.2,0.2-0.4,0.2-0.5,0.3c0.4-0.8,0.8-1.6,1.3-2.5c3-5.8,7.5-14.6,7.5-26.7c0-9.2-1.1-15.5-3.5-19.1c1.5,0.2,3,0.6,4.4,1
			c5,3,9.1,9,9.1,20.6c0,11.3-8.9,18.6-15.3,23.9C36.1,57.2,35.1,58,34.2,58.8z M39.8,55.4c6.1-5.1,13.7-12.4,13.7-23
			c0-10-2.9-15.9-6.9-19.5c8.3,3.4,13.8,9.9,13.8,19.6C60.4,42.7,48.4,50.3,39.8,55.4z"/>
	</g>
</g>
<g id="Layer_1" class="st53">
</g>
</svg>
