<svg xmlns="http://www.w3.org/2000/svg" viewBox="0 0 48 48" width="48" height="48"><path fill="#512DA8" d="M31.9,10H12.2l3.4-5.1c0.4-0.6,1-0.9,1.7-0.9h9.6c0.7,0,1.3,0.3,1.7,0.9L31.9,10z"/><path fill="#8668C5" d="M12,9H6V7.2C6,6.5,6.5,6,7.2,6h3.6C11.5,6,12,6.5,12,7.2V9z"/><path fill="#5E35B1" d="M38,40H6c-2.2,0-4-1.8-4-4V12c0-2.2,1.8-4,4-4h32c2.2,0,4,1.8,4,4v24C42,38.2,40.2,40,38,40"/><path fill="#512DA8" d="M10,24c0-6.6,5.4-12,12-12s12,5.4,12,12c0,6.6-5.4,12-12,12S10,30.6,10,24z"/><path fill="#B388FF" d="M22 15A9 9 0 1 0 22 33A9 9 0 1 0 22 15Z"/><path fill="#C7A7FF" d="M26.9,20.8c-1.2-1.4-3-2.2-4.8-2.2s-3.6,0.8-4.8,2.2c-0.5,0.5-0.4,1.3,0.1,1.8c0.5,0.5,1.3,0.4,1.8-0.1c1.5-1.7,4.3-1.7,5.8,0c0.3,0.3,0.6,0.4,1,0.4c0.3,0,0.6-0.1,0.9-0.3C27.4,22.2,27.4,21.4,26.9,20.8z"/><path fill="#8668C5" d="M9 9.9A2 1.5 0 1 0 9 12.9A2 1.5 0 1 0 9 9.9Z"/><path fill="#4CAF50" d="M36 26A10 10 0 1 0 36 46A10 10 0 1 0 36 26Z"/><path fill="#FFF" d="M42 34L38 34 38 30 34 30 34 34 30 34 30 38 34 38 34 42 38 42 38 38 42 38z"/></svg>