<?xml version="1.0" encoding="utf-8"?>
<!-- Generator: Adobe Illustrator 20.1.0, SVG Export Plug-In . SVG Version: 6.00 Build 0)  -->
<svg version="1.1" xmlns="http://www.w3.org/2000/svg" xmlns:xlink="http://www.w3.org/1999/xlink" x="0px" y="0px"
	 viewBox="0 0 200 200" style="enable-background:new 0 0 200 200;" xml:space="preserve">
<style type="text/css">
	.st0{fill:#A2CC62;stroke:#2A481D;stroke-width:6;stroke-miterlimit:10;}
	.st1{fill:#AFD048;stroke:#6B9311;stroke-width:3;stroke-linejoin:round;stroke-miterlimit:10;}
	.st2{fill:#E6E6E6;}
	.st3{fill:#164E16;}
	.st4{fill:#999999;}
	.st5{fill:#8BA00D;stroke:#164E16;stroke-width:3;stroke-linejoin:round;stroke-miterlimit:10;}
	.st6{fill:#7C9800;}
	.st7{fill:#4D831C;stroke:#2A481D;stroke-width:3;stroke-linecap:round;stroke-linejoin:round;stroke-miterlimit:10;}
	.st8{fill:#4D831C;stroke:#184C28;stroke-width:3;stroke-linecap:round;stroke-linejoin:round;stroke-miterlimit:10;}
	.st9{fill:#FFBC42;stroke:#E6681E;stroke-width:3;stroke-miterlimit:10;}
	.st10{fill:none;stroke:#FFFFFF;stroke-linecap:round;stroke-miterlimit:10;}
	.st11{clip-path:url(#SVGID_2_);}
	.st12{fill:#F40000;stroke:#7B000E;stroke-width:3;stroke-miterlimit:10;}
	.st13{fill:#F22F2E;}
	.st14{opacity:0.5;fill:#840D0D;}
	.st15{fill:#7DB34C;}
	.st16{fill:#44712A;}
	.st17{fill:#4D831C;}
	.st18{fill:#2A481D;}
	.st19{fill:#AFD048;stroke:#6B9311;stroke-width:3;stroke-miterlimit:10;}
	.st20{fill:none;stroke:#6B9311;stroke-miterlimit:10;}
	.st21{fill:#AFD048;}
	.st22{fill:#F40000;stroke:#BA0D0D;stroke-width:3;stroke-miterlimit:10;}
	.st23{fill:none;stroke:#FFFFFF;stroke-linecap:round;stroke-linejoin:round;stroke-miterlimit:10;}
	.st24{fill:#CDA347;stroke:#A2690C;stroke-width:3;stroke-miterlimit:10;}
	.st25{fill:#A2CC62;}
	.st26{fill:#68664C;stroke:#522B25;stroke-width:3;stroke-linecap:round;stroke-linejoin:round;stroke-miterlimit:10;}
	.st27{fill:#B63E34;stroke:#522B25;stroke-width:3;stroke-miterlimit:10;}
	.st28{fill:#ADD481;}
	.st29{fill:#68664C;}
	.st30{fill:#593156;stroke:#331E31;stroke-width:3;stroke-miterlimit:10;}
	.st31{fill:#22B573;stroke:#184C28;stroke-width:3;stroke-linecap:round;stroke-linejoin:round;stroke-miterlimit:10;}
	.st32{fill:#EE0000;}
	.st33{fill:#9A0601;}
	.st34{fill:#EE0000;stroke:#9A0601;stroke-linecap:round;stroke-linejoin:round;stroke-miterlimit:10;}
	.st35{fill:#FFFFFF;}
	.st36{clip-path:url(#SVGID_4_);}
	.st37{fill:#00FFFF;}
	.st38{fill:#456A0A;}
	.st39{fill:#183300;}
	.st40{fill:#FF2214;}
	.st41{fill:#661900;}
	.st42{fill:#88A501;}
	.st43{fill:#3B6700;}
	.st44{fill:#FC4100;}
	.st45{fill:#9F0500;}
	.st46{fill:none;stroke:#6B9311;stroke-width:3;stroke-linecap:round;stroke-miterlimit:10;}
	.st47{fill:#6B9311;}
	.st48{fill:#593156;}
	.st49{fill:#331E31;}
	.st50{fill:#AFD048;stroke:#6B9311;stroke-width:3;stroke-linecap:round;stroke-linejoin:round;stroke-miterlimit:10;}
	.st51{fill:none;stroke:#6B9311;stroke-linejoin:round;stroke-miterlimit:10;}
	.st52{fill:#B63E34;stroke:#522B25;stroke-miterlimit:10;}
	.st53{fill:none;stroke:#522B25;stroke-miterlimit:10;}
	.st54{fill:none;stroke:#522B25;stroke-width:3;stroke-miterlimit:10;}
	.st55{fill:#7C9800;stroke:#0C4C0C;stroke-width:3;stroke-linecap:round;stroke-linejoin:round;stroke-miterlimit:10;}
	.st56{fill:#F04D02;stroke:#992216;stroke-width:3;stroke-miterlimit:10;}
	.st57{fill:none;stroke:#992216;stroke-width:3;stroke-miterlimit:10;}
	.st58{fill:#B63E34;}
	.st59{fill:#522B25;}
	.st60{fill:none;stroke:#40760E;stroke-width:3;stroke-linecap:round;stroke-linejoin:round;stroke-miterlimit:10;}
	.st61{fill:none;stroke:#40760E;stroke-linecap:round;stroke-linejoin:round;stroke-miterlimit:10;}
	.st62{fill:#A2CC62;stroke:#40760E;stroke-width:3;stroke-linecap:round;stroke-linejoin:round;stroke-miterlimit:10;}
	.st63{fill:#A2CC62;stroke:#40760E;stroke-linecap:round;stroke-linejoin:round;stroke-miterlimit:10;}
	.st64{fill:#9EC161;}
	.st65{fill:#40760E;}
	.st66{fill:#663965;}
	.st67{fill:#9D610B;}
	.st68{fill:none;stroke:#A2690C;stroke-linecap:round;stroke-miterlimit:10;}
	.st69{fill:#6D4E2B;}
	.st70{fill:#CDA347;}
	.st71{fill:#7F500A;}
	.st72{fill:#F40000;stroke:#BA0D0D;stroke-miterlimit:10;}
	.st73{fill:#F40000;stroke:#B63E34;stroke-width:3;stroke-miterlimit:10;}
	.st74{fill:#F40000;stroke:#B63E34;stroke-miterlimit:10;}
	.st75{fill:#F40000;stroke:#990D0D;stroke-width:3;stroke-miterlimit:10;}
	.st76{fill:#F40000;stroke:#990D0D;stroke-miterlimit:10;}
	.st77{fill:#F40000;}
	.st78{fill:#990D0D;}
	.st79{fill:#FF9D00;}
	.st80{fill:#E6681E;}
	.st81{fill:#FFCB00;}
	.st82{fill:#B58B06;}
	.st83{fill:#3A4C09;}
	.st84{fill:#B94850;stroke:#6C0A04;stroke-width:3;stroke-miterlimit:10;}
	.st85{fill:#CE8645;stroke:#CE8645;stroke-width:0.5;stroke-miterlimit:10;}
	.st86{fill:#6C0A04;stroke:#6C0A04;stroke-width:0.5;stroke-miterlimit:10;}
	.st87{fill:none;stroke:#6C0A04;stroke-linecap:round;stroke-miterlimit:10;}
	.st88{fill:#B94850;}
	.st89{fill:#CE8645;}
	.st90{fill:#6C0A04;}
	.st91{fill:#8C4F6F;}
	.st92{fill:#E7C456;}
	.st93{fill:#391A26;}
	.st94{fill:#E7C456;stroke:#AC5E17;stroke-width:3;stroke-miterlimit:10;}
	.st95{fill:#4F250E;stroke:#4F250E;stroke-width:0.5;stroke-miterlimit:10;}
	.st96{fill:none;stroke:#AC5E17;stroke-linecap:round;stroke-miterlimit:10;}
	.st97{fill:#4F250E;}
	.st98{fill:#995116;}
	.st99{fill:#FD801E;stroke:#9E0E00;stroke-width:3;stroke-miterlimit:10;}
	.st100{fill:#FD801E;stroke:#9E0E00;stroke-linecap:round;stroke-miterlimit:10;}
	.st101{opacity:0.8;fill:#FFBC42;}
	.st102{opacity:0.8;fill:#D03400;}
	.st103{fill:none;stroke:#9E0E00;stroke-linecap:round;stroke-miterlimit:10;}
	.st104{fill:#FFBC42;}
	.st105{fill:none;stroke:#9E0E00;stroke-width:3;stroke-miterlimit:10;}
	.st106{fill:#A7C92B;stroke:#264008;stroke-width:3;stroke-linecap:round;stroke-linejoin:round;stroke-miterlimit:10;}
	.st107{fill:#A7C92B;stroke:#264008;stroke-width:3;stroke-miterlimit:10;}
	.st108{fill:#344C00;}
	.st109{fill:#FD801E;}
	.st110{fill:#9E0E00;}
	.st111{fill:#FDAF48;}
	.st112{fill:#D74E1E;}
	.st113{opacity:0.8;fill:#68664C;}
	.st114{fill:#775E49;}
	.st115{fill:#FF7A00;}
	.st116{fill:#FF7A00;stroke:#F44500;stroke-width:3;stroke-miterlimit:10;}
	.st117{fill:none;stroke:#F44500;stroke-linecap:round;stroke-linejoin:round;stroke-miterlimit:10;}
	.st118{fill:#FF7A00;stroke:#F44500;stroke-linecap:round;stroke-linejoin:round;stroke-miterlimit:10;}
	.st119{fill:#F44500;}
	.st120{fill:#F6E600;}
	.st121{fill:#8DCC50;}
	.st122{fill:#A2A121;}
	.st123{fill:#F9EFA7;}
	.st124{fill:#6E905E;}
	.st125{fill:#7B000E;}
	.st126{fill:#F22F2E;stroke:#7B000E;stroke-width:3;stroke-miterlimit:10;}
	.st127{fill:#7DB34C;stroke:#44712A;stroke-width:3;stroke-miterlimit:10;}
	.st128{fill:none;stroke:#44712A;stroke-miterlimit:10;}
	.st129{fill:none;stroke:#7B000E;stroke-linecap:round;stroke-linejoin:round;stroke-miterlimit:10;}
	.st130{fill:none;stroke:#7B000E;stroke-linecap:round;stroke-miterlimit:10;}
	.st131{fill:#FA6200;stroke:#D54300;stroke-width:3;stroke-miterlimit:10;}
	.st132{fill:#FA6200;stroke:#D54300;stroke-linecap:round;stroke-miterlimit:10;}
	.st133{fill:none;stroke:#F44500;stroke-linecap:round;stroke-miterlimit:10;}
	.st134{fill:#164E16;stroke:#071907;stroke-width:3;stroke-miterlimit:10;}
	.st135{fill:none;stroke:#071907;stroke-linecap:round;stroke-linejoin:round;stroke-miterlimit:10;}
	.st136{fill:#071907;}
	.st137{fill:#7DB34C;stroke:#164E16;stroke-width:3;stroke-miterlimit:10;}
	.st138{fill:none;stroke:#164E16;stroke-miterlimit:10;}
	.st139{fill:#8A9D1F;}
	.st140{fill:#6E8517;}
	.st141{opacity:0.1;fill:none;stroke:#EBDE00;stroke-width:3;stroke-miterlimit:10;}
	.st142{opacity:0.25;fill:none;stroke:#EBDE00;stroke-width:3;stroke-miterlimit:10;}
	.st143{opacity:0.4;fill:none;stroke:#EBDE00;stroke-width:3;stroke-miterlimit:10;}
	.st144{opacity:0.55;fill:none;stroke:#EBDE00;stroke-width:3;stroke-miterlimit:10;}
	.st145{opacity:0.7;fill:none;stroke:#EBDE00;stroke-width:3;stroke-miterlimit:10;}
	.st146{opacity:0.85;fill:none;stroke:#EBDE00;stroke-width:3;stroke-miterlimit:10;}
	.st147{fill:none;stroke:#EBDE00;stroke-width:3;stroke-miterlimit:10;}
	.st148{fill:#A7C92B;}
	.st149{fill:#EBDE00;}
	.st150{fill:#AEC939;}
	.st151{fill:#B8CC35;}
	.st152{fill:#C2CF33;}
	.st153{fill:#CCD331;}
	.st154{fill:#D7D631;}
	.st155{fill:#E0D930;}
	.st156{fill:#264008;}
	.st157{fill:none;stroke:#00FFFF;stroke-miterlimit:10;}
	.st158{clip-path:url(#SVGID_6_);}
	.st159{fill:#F22F2E;stroke:#9E0E00;stroke-width:3;stroke-miterlimit:10;}
	.st160{fill:#A7C92B;stroke:#164E16;stroke-width:3;stroke-miterlimit:10;}
	.st161{clip-path:url(#SVGID_8_);}
	.st162{fill:#F9A361;}
	.st163{fill:none;stroke:#992216;stroke-linecap:round;stroke-miterlimit:10;}
	.st164{fill:#0C4C0C;}
	.st165{fill:#F04D02;}
	.st166{fill:#992216;}
	.st167{fill:none;stroke:#7B000E;stroke-width:3;stroke-miterlimit:10;}
	.st168{fill:none;stroke:#164E16;stroke-linecap:round;stroke-miterlimit:10;}
	.st169{fill:#FFBC42;stroke:#9E0E00;stroke-width:3;stroke-miterlimit:10;}
	.st170{fill:#FFBC42;stroke:#9E0E00;stroke-miterlimit:10;}
	.st171{fill:#D03400;}
	.st172{fill:#FFBC42;stroke:#E6681E;stroke-linecap:round;stroke-miterlimit:10;}
	.st173{fill:#184C28;}
	.st174{fill:#FF9D00;stroke:#E6681E;stroke-linecap:round;stroke-miterlimit:10;}
	.st175{fill:#F97306;}
	.st176{fill:#D54300;}
	.st177{fill:#FFD003;}
	.st178{fill:#D17D01;}
	.st179{fill:#FFD003;stroke:#D17D01;stroke-width:3;stroke-miterlimit:10;}
	.st180{fill:none;stroke:#FEA502;stroke-linecap:round;stroke-linejoin:round;stroke-miterlimit:10;}
	.st181{fill:#FEA502;}
	.st182{fill:#8BA00D;}
	.st183{fill:#FAD500;stroke:#E6681E;stroke-width:3;stroke-miterlimit:10;}
	.st184{fill:none;stroke:#E6681E;stroke-linecap:round;stroke-miterlimit:10;}
	.st185{fill:none;stroke:#E6681E;stroke-miterlimit:10;}
	.st186{fill:#A2CC62;stroke:#2A481D;stroke-miterlimit:10;}
	.st187{fill:#FBE000;}
	.st188{fill:#E46900;}
	.st189{fill:#51B505;}
	.st190{fill:#164100;}
</style>
<g id="Layer_1">
	<g>
		<path class="st25" d="M112.4,43.4c-0.7,4.1-2,8.1-3.9,11.8L100,72.5c-1.1,2.4,0.1,5.2,2.5,6.2c4,1.6,8.3,2.4,12.6,2.1
			c2.6-0.1,4.6-2.4,4.4-5L117,56.7c-0.5-4.2-0.4-8.4,0.3-12.5l0,0c1.6-9.6-1.6-19.5-8.7-26.2l-8-7.6c-1-0.9-2.6-0.9-3.5,0.1v0
			c-0.9,1-0.9,2.6,0.1,3.5l8.1,7.7C111.1,27.3,113.8,35.4,112.4,43.4L112.4,43.4z"/>
		<path class="st187" d="M154.2,106.4l0.6,4.2c3.1,21.8-0.1,44.2-10.1,63.9c-6,11.7-11.5,16.9-16.4,16.1c-2.1-0.4-3.8-1.2-5.2-2.5
			c-2.2-2.2-5.9-1.9-7.7,0.7c-3.3,4.6-7.3,6.9-12.3,6c-4.9-0.8-7.9-4.1-9.5-9.3c-1.1-3.5-5.2-4.7-8-2.5c-2.6,2-5.5,2.8-8.8,2.3
			c-4-0.7-6.8-3.1-8.6-6.8c-1.4-2.9-5-3.7-7.7-1.9c-2.1,1.4-4.4,1.9-7,1.4c-5.6-0.9-8.4-10.4-9.3-29c-0.9-19.2,3.4-38.2,12.2-55.2
			l1.8-3.5c5.2-10,15-16.8,26.2-18l0,0c17.4-2,35.1,1,50.9,8.6l0,0C145.5,85.6,152.6,95.3,154.2,106.4z"/>
		<path class="st35" d="M80.3,129c-0.1,0-0.3,0-0.4,0c-0.8-0.2-1.4-1-1.2-1.8c1.2-6.8,2.6-13,3.9-18.6c0.2-0.8,1-1.3,1.9-1.1
			c0.8,0.2,1.3,1,1.1,1.9c-1.3,5.5-2.7,11.7-3.9,18.4C81.6,128.4,81,128.9,80.3,129z"/>
		<path class="st35" d="M87.3,99.3c-0.2,0-0.4,0-0.6-0.1c-0.8-0.3-1.3-1.1-1-1.9c1.1-3.4,2.2-6.4,3.3-9c0.3-0.8,1.2-1.1,2-0.8
			c0.8,0.3,1.1,1.2,0.8,2c-1.1,2.5-2.2,5.4-3.2,8.7C88.5,98.9,87.9,99.3,87.3,99.3z"/>
		<g>
			<path class="st188" d="M100.6,138.6c-0.1,0-0.2,0-0.4,0c-0.8-0.1-1.4-0.9-1.3-1.8c3.4-20.1,4.8-35.9,4.1-46.8
				c-0.1-0.8,0.6-1.6,1.4-1.6c0,0,0,0,0,0c0.8-0.1,1.6,0.6,1.6,1.4c0.7,11.2-0.7,27.2-4.1,47.6C101.8,138.1,101.2,138.6,100.6,138.6
				z"/>
			<path class="st188" d="M66.8,162.1c-0.1,0-0.1,0-0.2,0c-0.9,0-1.5-0.7-1.5-1.6c0.1-4.6,0.6-9.9,1.4-16.1c0.1-0.8,0.9-1.4,1.7-1.3
				c0.8,0.1,1.4,0.9,1.3,1.7c-0.8,6.1-1.3,11.3-1.4,15.8C68.2,161.4,67.5,162,66.8,162.1z"/>
			<path class="st188" d="M121.3,168.1c-0.2,0-0.3,0-0.5,0c-0.8-0.2-1.3-1.1-1.1-1.9c1.4-5.5,2.8-12.1,4.2-20.4
				c2.4-14,3.8-26.1,4.1-35.8c0-0.9,0.7-1.5,1.6-1.5c0.8,0,1.5,0.7,1.5,1.6c-0.4,9.9-1.8,22-4.2,36.2c-1.4,8.3-2.8,15.1-4.2,20.6
				C122.5,167.6,122,168,121.3,168.1z"/>
			<path class="st188" d="M159.3,109.9l-0.6-4.2l0,0c-1.8-12.7-9.8-23.6-21.4-29.1c-16.6-8-35.1-11.1-53.4-9.1
				C71.2,69,60,76.6,54.1,88l-1.8,3.5c-9.3,17.9-13.7,37.8-12.7,57.6c0.8,16.3,2.9,31.6,13.1,33.4c3.8,0.6,7.3-0.1,10.4-2.2
				c0.3-0.2,0.6-0.2,0.6-0.1c0.1,0,0.2,0.1,0.2,0.2c2.4,5.3,6.6,8.5,12,9.5c4.6,0.8,8.8-0.3,12.5-3.2c0.2-0.1,0.3-0.2,0.5-0.1
				c0.1,0,0.2,0.2,0.3,0.3c2.8,8.9,8.7,11.7,13.2,12.5c1.2,0.2,2.5,0.3,3.9,0.2c4-0.3,8.8-2.2,12.9-8.1c0.1-0.1,0.2-0.2,0.3-0.2
				c0.2,0,0.3,0.1,0.4,0.1c2,2,4.6,3.3,7.6,3.8c7.4,1.2,14.3-4.8,21.3-18.5C159,156.3,162.7,133.3,159.3,109.9z M88.1,177.2
				c-1.9,0.2-3.8,0.9-5.4,2.1c-1.6,1.3-3.2,1.7-5.2,1.3c-2.3-0.4-3.9-1.7-5.1-4.1c-0.8-1.7-2-3.2-3.6-4.2c-3.4-2.1-7.7-1.9-10.9,0.3
				c-1.1,0.7-2.1,0.9-3.6,0.7c-0.2,0-4.3-1-5.4-24.7c-0.9-18.2,3.2-36.5,11.7-52.9l1.8-3.5c3.6-7,9.8-12.1,17.1-14.4
				c2-0.6,3.7,1.5,2.8,3.3c-5.2,10.2-9.7,26.9-13.7,50.3c-0.1,0.8,0.3,1.6,1,1.8c0.2,0.1,0.4,0.1,0.6,0.1c0.7,0,1.3-0.6,1.4-1.3
				C74,117.8,78.1,97.5,84,84.6c2.4-5.2,7.7-8.5,13.4-8.4c12.4,0.4,24.6,3.3,35.9,8.7c8.8,4.2,14.9,12.5,16.2,22.1l0.6,4.2
				c3.1,21.5-0.3,42.6-9.7,61.2c-5.7,11.3-9.9,13.4-11.5,13.6c-1.2,0.2-2.2-0.2-2.7-1.3c-2.1-4.1-5.3-3.9-7.2-3.3
				c-0.6,0.2-1.2-0.5-1-1.1c0.6-1.5,1.1-3,1.6-4.4c0.3-0.8-0.1-1.7-0.9-2c-0.8-0.3-1.7,0.1-2,1c-1.7,5.1-3.4,8.7-5.2,11.1
				c0,0,0,0,0,0.1c-3.1,4.3-5.7,4.5-7.8,4.1c-2.1-0.4-4.4-1.4-5.9-6.1c0-0.1-0.1-0.3-0.2-0.4c-1.5-5.8-1.5-14.6-0.1-26.7
				c0.1-0.7-0.3-1.5-1-1.7c-1-0.4-2,0.3-2.1,1.3c-0.8,6.3-1.3,12.8-1.1,18.5c0.1,1.6-1.4,2.7-3,2.4C89.8,177.2,89,177.1,88.1,177.2z
				"/>
		</g>
		<path class="st189" d="M112.4,43.4c-0.7,4.1-2,8.1-3.9,11.8L100,72.5c-1.1,2.4,0.1,5.2,2.5,6.2c4,1.6,8.3,2.4,12.6,2.1
			c2.6-0.1,4.6-2.4,4.4-5L117,56.7c-0.5-4.2-0.4-8.4,0.3-12.5l0,0c1.6-9.6-1.6-19.5-8.7-26.2l-8-7.6c-1-0.9-2.6-0.9-3.5,0.1v0
			c-0.9,1-0.9,2.6,0.1,3.5l8.1,7.7C111.1,27.3,113.8,35.4,112.4,43.4L112.4,43.4z"/>
		<path class="st190" d="M126.2,55.5c-0.4-3.2-0.3-6.5,0.2-9.7c2.1-12.7-2.1-25.7-11.4-34.6l-8-7.6c-4.7-4.5-12.1-4.3-16.6,0.4
			C88.1,6.5,87,9.7,87.2,13c0.2,3,1.7,5.9,3.9,8l7.8,7.4c3.6,3.4,5.3,8.4,4.5,13.3c-0.6,3.3-1.6,6.4-3.1,9.4L92.4,67
			c2-0.1,4.1,0,6.1,0.1c1.1,0,1.9,1.3,1.4,2.3l-1.3,2.6c-0.7,1.7-0.7,3.6,0.1,5.3c0.7,1.5,2.1,2.5,3.6,3.1c4.1,1.6,8.5,2.3,12.8,2.1
			c0,0,0.1,0,0.1,0c1.1-0.1,2.2-0.4,3.1-1.1c1.9-1.3,2.8-3.4,2.6-5.7l-0.4-2.9c-0.1-1.1,0.9-2,2-1.7c1.9,0.6,3.9,1.2,5.8,1.9
			L126.2,55.5z M115.5,56.9l2.4,19c0.1,0.8-0.2,1.7-0.8,2.3c-0.6,0.6-1.4,1-2.2,1.1c-4,0.2-8.2-0.5-11.9-2c-0.8-0.3-1.4-0.9-1.7-1.7
			c-0.3-0.8-0.3-1.6,0-2.4l8.6-17.3c1.9-3.9,3.3-8,4-12.2c1.5-8.5-1.4-17.1-7.6-23.1l-8.1-7.7c-0.2-0.2-0.3-0.4-0.3-0.7
			s0.1-0.5,0.3-0.7c0.2-0.2,0.4-0.3,0.6-0.3c0.3,0,0.5,0.1,0.7,0.3l8,7.6c6.7,6.4,9.8,15.7,8.3,24.8C115.1,48.2,115,52.6,115.5,56.9
			z"/>
		
			<ellipse transform="matrix(0.9975 -7.060424e-02 7.060424e-02 0.9975 -6.7492 5.0873)" class="st35" cx="68.6" cy="98" rx="1.5" ry="1.5"/>
	</g>
</g>
<g id="Layer_2">
</g>
</svg>
