<?xml version="1.0" encoding="utf-8"?>
<!-- Generator: Adobe Illustrator 20.1.0, SVG Export Plug-In . SVG Version: 6.00 Build 0)  -->
<svg version="1.1" xmlns="http://www.w3.org/2000/svg" xmlns:xlink="http://www.w3.org/1999/xlink" x="0px" y="0px"
	 viewBox="0 0 500 500" style="enable-background:new 0 0 500 500;" xml:space="preserve">
<style type="text/css">
	.st0{fill:#4D831C;}
	.st1{fill:#2A481D;}
	.st2{fill:#4D831C;stroke:#2A481D;stroke-width:3;stroke-miterlimit:10;}
	.st3{opacity:0.5;fill:none;stroke:#FFFFFF;stroke-linecap:round;stroke-miterlimit:10;}
	.st4{fill:none;stroke:#FFFFFF;stroke-linecap:round;stroke-miterlimit:10;}
	.st5{fill:#A2CC62;stroke:#2A481D;stroke-width:6;stroke-miterlimit:10;}
	.st6{fill:#AFD048;stroke:#6B9311;stroke-width:3;stroke-linejoin:round;stroke-miterlimit:10;}
	.st7{fill:#E6E6E6;}
	.st8{fill:#164E16;}
	.st9{fill:#999999;}
	.st10{fill:#8BA00D;stroke:#164E16;stroke-width:3;stroke-linejoin:round;stroke-miterlimit:10;}
	.st11{fill:#7C9800;}
	.st12{fill:#4D831C;stroke:#2A481D;stroke-width:3;stroke-linecap:round;stroke-linejoin:round;stroke-miterlimit:10;}
	.st13{fill:#4D831C;stroke:#184C28;stroke-width:3;stroke-linecap:round;stroke-linejoin:round;stroke-miterlimit:10;}
	.st14{fill:#FFBC42;stroke:#E6681E;stroke-width:3;stroke-miterlimit:10;}
	.st15{clip-path:url(#SVGID_2_);}
	.st16{fill:#F40000;stroke:#7B000E;stroke-width:3;stroke-miterlimit:10;}
	.st17{fill:#F22F2E;}
	.st18{opacity:0.5;fill:#840D0D;}
	.st19{fill:#7DB34C;}
	.st20{fill:#44712A;}
	.st21{fill:#AFD048;stroke:#6B9311;stroke-width:3;stroke-miterlimit:10;}
	.st22{fill:none;stroke:#6B9311;stroke-miterlimit:10;}
	.st23{fill:#AFD048;}
	.st24{fill:#F40000;stroke:#BA0D0D;stroke-width:3;stroke-miterlimit:10;}
	.st25{fill:none;stroke:#FFFFFF;stroke-linecap:round;stroke-linejoin:round;stroke-miterlimit:10;}
	.st26{fill:#CDA347;stroke:#A2690C;stroke-width:3;stroke-miterlimit:10;}
	.st27{fill:#A2CC62;}
	.st28{fill:#68664C;stroke:#522B25;stroke-width:3;stroke-linecap:round;stroke-linejoin:round;stroke-miterlimit:10;}
	.st29{fill:#B63E34;stroke:#522B25;stroke-width:3;stroke-miterlimit:10;}
	.st30{fill:#ADD481;}
	.st31{fill:#68664C;}
	.st32{fill:#593156;stroke:#331E31;stroke-width:3;stroke-miterlimit:10;}
	.st33{fill:#22B573;stroke:#184C28;stroke-width:3;stroke-linecap:round;stroke-linejoin:round;stroke-miterlimit:10;}
	.st34{fill:#EE0000;}
	.st35{fill:#9A0601;}
	.st36{fill:#EE0000;stroke:#9A0601;stroke-linecap:round;stroke-linejoin:round;stroke-miterlimit:10;}
	.st37{fill:#FFFFFF;}
	.st38{clip-path:url(#SVGID_4_);}
	.st39{fill:#00FFFF;}
	.st40{fill:#456A0A;}
	.st41{fill:#183300;}
	.st42{fill:#FF2214;}
	.st43{fill:#661900;}
	.st44{fill:#88A501;}
	.st45{fill:#3B6700;}
	.st46{fill:#FC4100;}
	.st47{fill:#9F0500;}
	.st48{fill:none;stroke:#6B9311;stroke-width:3;stroke-linecap:round;stroke-miterlimit:10;}
	.st49{fill:#6B9311;}
	.st50{fill:#593156;}
	.st51{fill:#331E31;}
	.st52{fill:#AFD048;stroke:#6B9311;stroke-width:3;stroke-linecap:round;stroke-linejoin:round;stroke-miterlimit:10;}
	.st53{fill:none;stroke:#6B9311;stroke-linejoin:round;stroke-miterlimit:10;}
	.st54{fill:#B63E34;stroke:#522B25;stroke-miterlimit:10;}
	.st55{fill:none;stroke:#522B25;stroke-miterlimit:10;}
	.st56{fill:none;stroke:#522B25;stroke-width:3;stroke-miterlimit:10;}
	.st57{fill:#7C9800;stroke:#0C4C0C;stroke-width:3;stroke-linecap:round;stroke-linejoin:round;stroke-miterlimit:10;}
	.st58{fill:#F04D02;stroke:#992216;stroke-width:3;stroke-miterlimit:10;}
	.st59{fill:none;stroke:#992216;stroke-width:3;stroke-miterlimit:10;}
	.st60{fill:#B63E34;}
	.st61{fill:#522B25;}
	.st62{fill:none;stroke:#40760E;stroke-width:3;stroke-linecap:round;stroke-linejoin:round;stroke-miterlimit:10;}
	.st63{fill:none;stroke:#40760E;stroke-linecap:round;stroke-linejoin:round;stroke-miterlimit:10;}
	.st64{fill:#A2CC62;stroke:#40760E;stroke-width:3;stroke-linecap:round;stroke-linejoin:round;stroke-miterlimit:10;}
	.st65{fill:#A2CC62;stroke:#40760E;stroke-linecap:round;stroke-linejoin:round;stroke-miterlimit:10;}
	.st66{fill:#9EC161;}
	.st67{fill:#40760E;}
	.st68{fill:#663965;}
	.st69{fill:#9D610B;}
	.st70{fill:none;stroke:#A2690C;stroke-linecap:round;stroke-miterlimit:10;}
	.st71{fill:#6D4E2B;}
	.st72{fill:#CDA347;}
	.st73{fill:#7F500A;}
	.st74{fill:#F40000;stroke:#BA0D0D;stroke-miterlimit:10;}
	.st75{fill:#F40000;stroke:#B63E34;stroke-width:3;stroke-miterlimit:10;}
	.st76{fill:#F40000;stroke:#B63E34;stroke-miterlimit:10;}
	.st77{fill:#F40000;stroke:#990D0D;stroke-width:3;stroke-miterlimit:10;}
	.st78{fill:#F40000;stroke:#990D0D;stroke-miterlimit:10;}
	.st79{fill:#F40000;}
	.st80{fill:#990D0D;}
	.st81{fill:#FF9D00;}
	.st82{fill:#E6681E;}
	.st83{fill:#FFCB00;}
	.st84{fill:#B58B06;}
	.st85{fill:#3A4C09;}
	.st86{fill:#B94850;stroke:#6C0A04;stroke-width:3;stroke-miterlimit:10;}
	.st87{fill:#CE8645;stroke:#CE8645;stroke-width:0.5;stroke-miterlimit:10;}
	.st88{fill:#6C0A04;stroke:#6C0A04;stroke-width:0.5;stroke-miterlimit:10;}
	.st89{fill:none;stroke:#6C0A04;stroke-linecap:round;stroke-miterlimit:10;}
	.st90{fill:#B94850;}
	.st91{fill:#CE8645;}
	.st92{fill:#6C0A04;}
	.st93{fill:#8C4F6F;}
	.st94{fill:#E7C456;}
	.st95{fill:#391A26;}
	.st96{fill:#E7C456;stroke:#AC5E17;stroke-width:3;stroke-miterlimit:10;}
	.st97{fill:#4F250E;stroke:#4F250E;stroke-width:0.5;stroke-miterlimit:10;}
	.st98{fill:none;stroke:#AC5E17;stroke-linecap:round;stroke-miterlimit:10;}
	.st99{fill:#4F250E;}
	.st100{fill:#995116;}
	.st101{fill:#FD801E;stroke:#9E0E00;stroke-width:3;stroke-miterlimit:10;}
	.st102{fill:#FD801E;stroke:#9E0E00;stroke-linecap:round;stroke-miterlimit:10;}
	.st103{opacity:0.8;fill:#FFBC42;}
	.st104{opacity:0.8;fill:#D03400;}
	.st105{fill:none;stroke:#9E0E00;stroke-linecap:round;stroke-miterlimit:10;}
	.st106{fill:#FFBC42;}
	.st107{fill:none;stroke:#9E0E00;stroke-width:3;stroke-miterlimit:10;}
	.st108{fill:#A7C92B;stroke:#264008;stroke-width:3;stroke-linecap:round;stroke-linejoin:round;stroke-miterlimit:10;}
	.st109{fill:#A7C92B;stroke:#264008;stroke-width:3;stroke-miterlimit:10;}
	.st110{fill:#344C00;}
	.st111{fill:#FD801E;}
	.st112{fill:#9E0E00;}
	.st113{fill:#FDAF48;}
	.st114{fill:#D74E1E;}
	.st115{opacity:0.8;fill:#68664C;}
	.st116{fill:#775E49;}
	.st117{fill:#FF7A00;}
	.st118{fill:#FF7A00;stroke:#F44500;stroke-width:3;stroke-miterlimit:10;}
	.st119{fill:none;stroke:#F44500;stroke-linecap:round;stroke-linejoin:round;stroke-miterlimit:10;}
	.st120{fill:#FF7A00;stroke:#F44500;stroke-linecap:round;stroke-linejoin:round;stroke-miterlimit:10;}
	.st121{fill:#F44500;}
	.st122{fill:#F6E600;}
	.st123{fill:#8DCC50;}
	.st124{fill:#A2A121;}
	.st125{fill:#F9EFA7;}
	.st126{fill:#6E905E;}
	.st127{fill:#7B000E;}
	.st128{fill:#F22F2E;stroke:#7B000E;stroke-width:3;stroke-miterlimit:10;}
	.st129{fill:#7DB34C;stroke:#44712A;stroke-width:3;stroke-miterlimit:10;}
	.st130{fill:none;stroke:#44712A;stroke-miterlimit:10;}
	.st131{fill:none;stroke:#7B000E;stroke-linecap:round;stroke-linejoin:round;stroke-miterlimit:10;}
	.st132{fill:none;stroke:#7B000E;stroke-linecap:round;stroke-miterlimit:10;}
	.st133{fill:#FA6200;stroke:#D54300;stroke-width:3;stroke-miterlimit:10;}
	.st134{fill:#FA6200;stroke:#D54300;stroke-linecap:round;stroke-miterlimit:10;}
	.st135{fill:none;stroke:#F44500;stroke-linecap:round;stroke-miterlimit:10;}
	.st136{fill:#164E16;stroke:#071907;stroke-width:3;stroke-miterlimit:10;}
	.st137{fill:none;stroke:#071907;stroke-linecap:round;stroke-linejoin:round;stroke-miterlimit:10;}
	.st138{fill:#071907;}
	.st139{fill:#7DB34C;stroke:#164E16;stroke-width:3;stroke-miterlimit:10;}
	.st140{fill:none;stroke:#164E16;stroke-miterlimit:10;}
	.st141{fill:#8A9D1F;}
	.st142{fill:#6E8517;}
	.st143{opacity:0.1;fill:none;stroke:#EBDE00;stroke-width:3;stroke-miterlimit:10;}
	.st144{opacity:0.25;fill:none;stroke:#EBDE00;stroke-width:3;stroke-miterlimit:10;}
	.st145{opacity:0.4;fill:none;stroke:#EBDE00;stroke-width:3;stroke-miterlimit:10;}
	.st146{opacity:0.55;fill:none;stroke:#EBDE00;stroke-width:3;stroke-miterlimit:10;}
	.st147{opacity:0.7;fill:none;stroke:#EBDE00;stroke-width:3;stroke-miterlimit:10;}
	.st148{opacity:0.85;fill:none;stroke:#EBDE00;stroke-width:3;stroke-miterlimit:10;}
	.st149{fill:none;stroke:#EBDE00;stroke-width:3;stroke-miterlimit:10;}
	.st150{fill:#A7C92B;}
	.st151{fill:#EBDE00;}
	.st152{fill:#AEC939;}
	.st153{fill:#B8CC35;}
	.st154{fill:#C2CF33;}
	.st155{fill:#CCD331;}
	.st156{fill:#D7D631;}
	.st157{fill:#E0D930;}
	.st158{fill:#264008;}
	.st159{fill:none;stroke:#00FFFF;stroke-miterlimit:10;}
	.st160{clip-path:url(#SVGID_6_);}
	.st161{fill:#F22F2E;stroke:#9E0E00;stroke-width:3;stroke-miterlimit:10;}
	.st162{fill:#A7C92B;stroke:#164E16;stroke-width:3;stroke-miterlimit:10;}
	.st163{clip-path:url(#SVGID_8_);}
	.st164{fill:#F9A361;}
	.st165{fill:none;stroke:#992216;stroke-linecap:round;stroke-miterlimit:10;}
	.st166{fill:#0C4C0C;}
	.st167{fill:#F04D02;}
	.st168{fill:#992216;}
	.st169{fill:none;stroke:#7B000E;stroke-width:3;stroke-miterlimit:10;}
	.st170{fill:none;stroke:#164E16;stroke-linecap:round;stroke-miterlimit:10;}
	.st171{fill:#FFBC42;stroke:#9E0E00;stroke-width:3;stroke-miterlimit:10;}
	.st172{fill:#FFBC42;stroke:#9E0E00;stroke-miterlimit:10;}
	.st173{fill:#D03400;}
	.st174{fill:#FFBC42;stroke:#E6681E;stroke-linecap:round;stroke-miterlimit:10;}
	.st175{fill:#184C28;}
	.st176{fill:#FF9D00;stroke:#E6681E;stroke-linecap:round;stroke-miterlimit:10;}
	.st177{fill:#F97306;}
	.st178{fill:#D54300;}
	.st179{fill:#FFD003;}
	.st180{fill:#D17D01;}
	.st181{fill:#FFD003;stroke:#D17D01;stroke-width:3;stroke-miterlimit:10;}
	.st182{fill:none;stroke:#FEA502;stroke-linecap:round;stroke-linejoin:round;stroke-miterlimit:10;}
	.st183{fill:#FEA502;}
	.st184{fill:#8BA00D;}
	.st185{fill:#FAD500;stroke:#E6681E;stroke-width:3;stroke-miterlimit:10;}
	.st186{fill:none;stroke:#E6681E;stroke-linecap:round;stroke-miterlimit:10;}
	.st187{fill:none;stroke:#E6681E;stroke-miterlimit:10;}
	.st188{fill:#A2CC62;stroke:#2A481D;stroke-miterlimit:10;}
	.st189{fill:#FBE000;}
	.st190{fill:#E46900;}
	.st191{fill:#51B505;}
	.st192{fill:#164100;}
	.st193{fill:#BD0408;}
	.st194{fill:#C8040B;stroke:#6C0A04;stroke-width:3;stroke-miterlimit:10;}
	.st195{fill:#A7C08F;}
	.st196{fill:none;stroke:#FFFFFF;stroke-width:3.2158;stroke-linecap:round;stroke-miterlimit:10;}
	.st197{fill:#C8040B;}
	.st198{fill:#D10000;stroke:#7B000E;stroke-width:3;stroke-miterlimit:10;}
	.st199{fill:none;stroke:#7B000E;stroke-miterlimit:10;}
	.st200{fill:none;stroke:#7B000E;stroke-width:1.2609;stroke-miterlimit:10;}
	.st201{fill:#D10000;}
	.st202{opacity:0.7;}
</style>
<g id="Layer_1">
	<g>
		<path class="st201" d="M404.9,303.3l-8.5,0l-21.9-35.9c-21.8-35.8-60.8-57.7-102.7-57.7h-43.8c-41.9,0-80.9,21.9-102.7,57.7
			l-21.9,35.9l-8.4,0c-57.8,0-86.1,71.2-43.5,110.3C93.7,452.2,157.1,486,250,486c92.9,0,156.3-33.9,198.4-72.5
			C491,374.5,462.7,303.3,404.9,303.3z"/>
	</g>
	<g>
		<path class="st127" d="M475.5,339.8c-5.4-13.9-14.5-25.7-26.3-34.2c-12.7-9.2-28-14.1-44.3-14.1h-1.8l-18.4-30.2
			c-11.8-19.3-28.4-35.3-48.1-46.4c-19.7-11.1-42.1-16.9-64.7-16.9h-43.8c-22.6,0-45,5.9-64.7,16.9c-19.7,11.1-36.4,27.1-48.1,46.4
			l-18.4,30.2h-1.8c-16.2,0-31.5,4.9-44.3,14.1c-11.8,8.6-20.9,20.4-26.3,34.3c-11.5,29.5-4.2,61.1,19.1,82.5
			c24.6,22.6,52.8,40.4,83.7,52.9c37,15,78.2,22.6,122.7,22.6c44.5,0,85.7-7.6,122.7-22.6c30.9-12.6,59.1-30.4,83.7-53
			C479.6,400.9,487,369.3,475.5,339.8z M135.5,273.6c19.7-32.3,54.8-52,92.6-52h43.8c37.6,0,73,19.9,92.6,52l14,22.9
			c3,4.9,0.2,11.4-5.4,12.5c-16.6,3.4-31.7,11.7-43.9,24.1c-10.9,11.1-27.3,13.8-41.8,6.7c-11.7-5.7-24.3-8.6-37.5-8.6
			c-13.1,0-25.7,2.9-37.5,8.6c-14.5,7-30.9,4.4-41.8-6.7c-12.1-12.4-27.2-20.7-43.8-24.1c-5.7-1.2-8.4-7.6-5.4-12.5L135.5,273.6z
			 M440.4,404.8c-50.2,46-114.3,69.4-190.4,69.4c-76.1,0-140.2-23.3-190.4-69.4c-19-17.4-19.2-40.6-13-56.5
			c6.3-16.1,22.3-33.3,48.5-33.3h14.2v0c21.2,0,41,8.4,55.8,23.5c13.1,13.4,33.5,16.7,50.8,8.3c10.6-5.2,22.1-7.8,34-7.8
			c11.9,0,23.4,2.6,34,7.8c6.4,3.1,13.2,4.6,19.9,4.6c11.5,0,22.7-4.5,31-12.9c14.8-15.2,34.6-23.5,55.8-23.5v0h14.4
			c26.2,0,42.2,17.2,48.5,33.3C459.6,364.2,459.4,387.4,440.4,404.8z"/>
	</g>
	<g>
		<path class="st0" d="M252.2,238.3c-8.3,0-16.4-1.5-24.1-4.4c-11.1-4.2-16.8-16.6-12.8-27.8l14.7-40c6.9-18.9,10.4-38.6,10.4-58.7
			V94.9c0-12.5-4.7-24.5-13.1-33.7l-17.7-19.3c-2.1-2.3-3.2-5.3-3.1-8.5s1.5-6.1,3.8-8.2c2.2-2,5-3.1,8-3.1c3.3,0,6.5,1.4,8.7,3.8
			l17.7,19.3c12.5,13.6,19.3,31.2,19.3,49.7c0,28.4,5,56.4,14.7,83.1l10.3,28.1c4.1,11.1-1.6,23.6-12.8,27.8l-0.1,0
			C268.5,236.8,260.5,238.3,252.2,238.3C252.2,238.3,252.2,238.3,252.2,238.3z"/>
	</g>
	<g>
		<path class="st1" d="M296.3,200.2c4.2,0.8,8.4,1.8,12.5,3c-0.3-1.3-0.7-2.6-1.2-3.9l-10.2-28c-8.9-24.2-13.8-49.8-13.6-75.7
			c0.2-23.7-8.5-46.4-24.5-63.8L241.9,13c-5.2-5.7-12.2-9.5-19.9-10.4c-9.2-1.1-18.3,1.9-25,8.1c-12.8,11.8-13.7,31.7-1.9,44.5
			l17.7,19.3c5.1,5.6,7.9,12.8,7.9,20.4v12.5c0,17.7-3.1,35.3-9.2,51.9l-14.7,40c-0.3,0.9-0.6,1.7-0.8,2.6c4.1-1,8.3-1.9,12.5-2.5
			c2.4-0.4,4.3,2,3.5,4.3l-0.4,1c-4.8,13.1,1.8,27.8,14.9,32.8c8.2,3.1,16.9,4.7,25.7,4.7c8.7,0,17.3-1.6,25.5-4.6l0.1,0l0,0
			c13-5.1,19.7-19.9,14.9-33v0C291.9,202.2,293.9,199.8,296.3,200.2z M275,230.2L275,230.2c-7.3,2.8-15,4.1-22.8,4.1
			c-7.7,0-15.4-1.4-22.7-4.1c-9.1-3.4-13.8-13.6-10.4-22.8l14.7-40c7.1-19.2,10.7-39.6,10.7-60V94.9c0-13.5-5.1-26.4-14.2-36.4
			l-17.7-19.3C209.6,36,209.8,31,213,28c1.5-1.4,3.4-2.1,5.3-2.1c2.1,0,4.3,0.9,5.8,2.6l17.7,19.3c11.8,12.8,18.3,29.6,18.3,47v0
			c0,28.8,5.1,57.4,15,84.5l10.3,28.1C288.8,216.6,284.1,226.8,275,230.2z"/>
	</g>
	<g class="st202">
		<path class="st37" d="M196.1,372.5c-17.5,0-33.8-6.8-45.9-19.2c-1.5-1.5-1.5-4,0.1-5.5s4-1.5,5.5,0.1
			c10.6,10.9,24.9,16.9,40.4,16.9c8.8,0,17.6-2,25.6-5.9c8.8-4.3,18.4-6.5,28.3-6.5c9.9,0,19.4,2.2,28.3,6.5
			c8,3.9,16.8,5.9,25.6,5.9c2.2,0,3.9,1.7,3.9,3.9s-1.7,3.9-3.9,3.9c-9.9,0-20-2.3-29-6.7c-7.8-3.8-16.2-5.7-24.9-5.7
			c-8.7,0-17.1,1.9-24.9,5.7C216,370.1,206,372.5,196.1,372.5z"/>
	</g>
	<g>
		<path class="st37" d="M66.9,357.8c-0.5,0-0.9-0.1-1.4-0.2c-2-0.7-3-3-2.3-5c0.4-1.1,9.9-25.8,46.2-24.4c2.2,0.1,3.8,1.9,3.8,4
			s-1.9,3.8-4,3.8c-30.4-1.1-38.3,18.5-38.6,19.3C70,356.9,68.5,357.8,66.9,357.8z"/>
	</g>
	<g>
		<circle class="st37" cx="128.9" cy="335.6" r="4"/>
	</g>
</g>
<g id="Layer_2">
</g>
</svg>
