<?xml version="1.0" encoding="utf-8"?>
<!-- Generator: Adobe Illustrator 20.1.0, SVG Export Plug-In . SVG Version: 6.00 Build 0)  -->
<svg version="1.1" xmlns="http://www.w3.org/2000/svg" xmlns:xlink="http://www.w3.org/1999/xlink" x="0px" y="0px"
	 viewBox="0 0 200 200" style="enable-background:new 0 0 200 200;" xml:space="preserve">
<style type="text/css">
	.st0{fill:#4D831C;stroke:#2A481D;stroke-width:3;stroke-miterlimit:10;}
	.st1{opacity:0.5;fill:none;stroke:#FFFFFF;stroke-linecap:round;stroke-miterlimit:10;}
	.st2{fill:none;stroke:#FFFFFF;stroke-linecap:round;stroke-miterlimit:10;}
	.st3{fill:#A2CC62;stroke:#2A481D;stroke-width:6;stroke-miterlimit:10;}
	.st4{fill:#AFD048;stroke:#6B9311;stroke-width:3;stroke-linejoin:round;stroke-miterlimit:10;}
	.st5{fill:#E6E6E6;}
	.st6{fill:#164E16;}
	.st7{fill:#999999;}
	.st8{fill:#8BA00D;stroke:#164E16;stroke-width:3;stroke-linejoin:round;stroke-miterlimit:10;}
	.st9{fill:#7C9800;}
	.st10{fill:#4D831C;stroke:#2A481D;stroke-width:3;stroke-linecap:round;stroke-linejoin:round;stroke-miterlimit:10;}
	.st11{fill:#4D831C;stroke:#184C28;stroke-width:3;stroke-linecap:round;stroke-linejoin:round;stroke-miterlimit:10;}
	.st12{fill:#FFBC42;stroke:#E6681E;stroke-width:3;stroke-miterlimit:10;}
	.st13{clip-path:url(#SVGID_2_);}
	.st14{fill:#F40000;stroke:#7B000E;stroke-width:3;stroke-miterlimit:10;}
	.st15{fill:#F22F2E;}
	.st16{opacity:0.5;fill:#840D0D;}
	.st17{fill:#7DB34C;}
	.st18{fill:#44712A;}
	.st19{fill:#4D831C;}
	.st20{fill:#2A481D;}
	.st21{fill:#AFD048;stroke:#6B9311;stroke-width:3;stroke-miterlimit:10;}
	.st22{fill:none;stroke:#6B9311;stroke-miterlimit:10;}
	.st23{fill:#AFD048;}
	.st24{fill:#F40000;stroke:#BA0D0D;stroke-width:3;stroke-miterlimit:10;}
	.st25{fill:none;stroke:#FFFFFF;stroke-linecap:round;stroke-linejoin:round;stroke-miterlimit:10;}
	.st26{fill:#CDA347;stroke:#A2690C;stroke-width:3;stroke-miterlimit:10;}
	.st27{fill:#A2CC62;}
	.st28{fill:#68664C;stroke:#522B25;stroke-width:3;stroke-linecap:round;stroke-linejoin:round;stroke-miterlimit:10;}
	.st29{fill:#B63E34;stroke:#522B25;stroke-width:3;stroke-miterlimit:10;}
	.st30{fill:#ADD481;}
	.st31{fill:#68664C;}
	.st32{fill:#593156;stroke:#331E31;stroke-width:3;stroke-miterlimit:10;}
	.st33{fill:#22B573;stroke:#184C28;stroke-width:3;stroke-linecap:round;stroke-linejoin:round;stroke-miterlimit:10;}
	.st34{fill:#EE0000;}
	.st35{fill:#9A0601;}
	.st36{fill:#EE0000;stroke:#9A0601;stroke-linecap:round;stroke-linejoin:round;stroke-miterlimit:10;}
	.st37{fill:#FFFFFF;}
	.st38{clip-path:url(#SVGID_4_);}
	.st39{fill:#00FFFF;}
	.st40{fill:#456A0A;}
	.st41{fill:#183300;}
	.st42{fill:#FF2214;}
	.st43{fill:#661900;}
	.st44{fill:#88A501;}
	.st45{fill:#3B6700;}
	.st46{fill:#FC4100;}
	.st47{fill:#9F0500;}
	.st48{fill:none;stroke:#6B9311;stroke-width:3;stroke-linecap:round;stroke-miterlimit:10;}
	.st49{fill:#6B9311;}
	.st50{fill:#593156;}
	.st51{fill:#331E31;}
	.st52{fill:#AFD048;stroke:#6B9311;stroke-width:3;stroke-linecap:round;stroke-linejoin:round;stroke-miterlimit:10;}
	.st53{fill:none;stroke:#6B9311;stroke-linejoin:round;stroke-miterlimit:10;}
	.st54{fill:#B63E34;stroke:#522B25;stroke-miterlimit:10;}
	.st55{fill:none;stroke:#522B25;stroke-miterlimit:10;}
	.st56{fill:none;stroke:#522B25;stroke-width:3;stroke-miterlimit:10;}
	.st57{fill:#7C9800;stroke:#0C4C0C;stroke-width:3;stroke-linecap:round;stroke-linejoin:round;stroke-miterlimit:10;}
	.st58{fill:#F04D02;stroke:#992216;stroke-width:3;stroke-miterlimit:10;}
	.st59{fill:none;stroke:#992216;stroke-width:3;stroke-miterlimit:10;}
	.st60{fill:#B63E34;}
	.st61{fill:#522B25;}
	.st62{fill:none;stroke:#40760E;stroke-width:3;stroke-linecap:round;stroke-linejoin:round;stroke-miterlimit:10;}
	.st63{fill:none;stroke:#40760E;stroke-linecap:round;stroke-linejoin:round;stroke-miterlimit:10;}
	.st64{fill:#A2CC62;stroke:#40760E;stroke-width:3;stroke-linecap:round;stroke-linejoin:round;stroke-miterlimit:10;}
	.st65{fill:#A2CC62;stroke:#40760E;stroke-linecap:round;stroke-linejoin:round;stroke-miterlimit:10;}
	.st66{fill:#9EC161;}
	.st67{fill:#40760E;}
	.st68{fill:#663965;}
	.st69{fill:#9D610B;}
	.st70{fill:none;stroke:#A2690C;stroke-linecap:round;stroke-miterlimit:10;}
	.st71{fill:#6D4E2B;}
	.st72{fill:#CDA347;}
	.st73{fill:#7F500A;}
	.st74{fill:#F40000;stroke:#BA0D0D;stroke-miterlimit:10;}
	.st75{fill:#F40000;stroke:#B63E34;stroke-width:3;stroke-miterlimit:10;}
	.st76{fill:#F40000;stroke:#B63E34;stroke-miterlimit:10;}
	.st77{fill:#F40000;stroke:#990D0D;stroke-width:3;stroke-miterlimit:10;}
	.st78{fill:#F40000;stroke:#990D0D;stroke-miterlimit:10;}
	.st79{fill:#F40000;}
	.st80{fill:#990D0D;}
	.st81{fill:#FF9D00;}
	.st82{fill:#E6681E;}
	.st83{fill:#FFCB00;}
	.st84{fill:#B58B06;}
	.st85{fill:#3A4C09;}
	.st86{fill:#B94850;stroke:#6C0A04;stroke-width:3;stroke-miterlimit:10;}
	.st87{fill:#CE8645;stroke:#CE8645;stroke-width:0.5;stroke-miterlimit:10;}
	.st88{fill:#6C0A04;stroke:#6C0A04;stroke-width:0.5;stroke-miterlimit:10;}
	.st89{fill:none;stroke:#6C0A04;stroke-linecap:round;stroke-miterlimit:10;}
	.st90{fill:#B94850;}
	.st91{fill:#CE8645;}
	.st92{fill:#6C0A04;}
	.st93{fill:#8C4F6F;}
	.st94{fill:#E7C456;}
	.st95{fill:#391A26;}
	.st96{fill:#E7C456;stroke:#AC5E17;stroke-width:3;stroke-miterlimit:10;}
	.st97{fill:#4F250E;stroke:#4F250E;stroke-width:0.5;stroke-miterlimit:10;}
	.st98{fill:none;stroke:#AC5E17;stroke-linecap:round;stroke-miterlimit:10;}
	.st99{fill:#4F250E;}
	.st100{fill:#995116;}
	.st101{fill:#FD801E;stroke:#9E0E00;stroke-width:3;stroke-miterlimit:10;}
	.st102{fill:#FD801E;stroke:#9E0E00;stroke-linecap:round;stroke-miterlimit:10;}
	.st103{opacity:0.8;fill:#FFBC42;}
	.st104{opacity:0.8;fill:#D03400;}
	.st105{fill:none;stroke:#9E0E00;stroke-linecap:round;stroke-miterlimit:10;}
	.st106{fill:#FFBC42;}
	.st107{fill:none;stroke:#9E0E00;stroke-width:3;stroke-miterlimit:10;}
	.st108{fill:#A7C92B;stroke:#264008;stroke-width:3;stroke-linecap:round;stroke-linejoin:round;stroke-miterlimit:10;}
	.st109{fill:#A7C92B;stroke:#264008;stroke-width:3;stroke-miterlimit:10;}
	.st110{fill:#344C00;}
	.st111{fill:#FD801E;}
	.st112{fill:#9E0E00;}
	.st113{fill:#FDAF48;}
	.st114{fill:#D74E1E;}
	.st115{opacity:0.8;fill:#68664C;}
	.st116{fill:#775E49;}
	.st117{fill:#FF7A00;}
	.st118{fill:#FF7A00;stroke:#F44500;stroke-width:3;stroke-miterlimit:10;}
	.st119{fill:none;stroke:#F44500;stroke-linecap:round;stroke-linejoin:round;stroke-miterlimit:10;}
	.st120{fill:#FF7A00;stroke:#F44500;stroke-linecap:round;stroke-linejoin:round;stroke-miterlimit:10;}
	.st121{fill:#F44500;}
	.st122{fill:#F6E600;}
	.st123{fill:#8DCC50;}
	.st124{fill:#A2A121;}
	.st125{fill:#F9EFA7;}
	.st126{fill:#6E905E;}
	.st127{fill:#7B000E;}
	.st128{fill:#F22F2E;stroke:#7B000E;stroke-width:3;stroke-miterlimit:10;}
	.st129{fill:#7DB34C;stroke:#44712A;stroke-width:3;stroke-miterlimit:10;}
	.st130{fill:none;stroke:#44712A;stroke-miterlimit:10;}
	.st131{fill:none;stroke:#7B000E;stroke-linecap:round;stroke-linejoin:round;stroke-miterlimit:10;}
	.st132{fill:none;stroke:#7B000E;stroke-linecap:round;stroke-miterlimit:10;}
	.st133{fill:#FA6200;stroke:#D54300;stroke-width:3;stroke-miterlimit:10;}
	.st134{fill:#FA6200;stroke:#D54300;stroke-linecap:round;stroke-miterlimit:10;}
	.st135{fill:none;stroke:#F44500;stroke-linecap:round;stroke-miterlimit:10;}
	.st136{fill:#164E16;stroke:#071907;stroke-width:3;stroke-miterlimit:10;}
	.st137{fill:none;stroke:#071907;stroke-linecap:round;stroke-linejoin:round;stroke-miterlimit:10;}
	.st138{fill:#071907;}
	.st139{fill:#7DB34C;stroke:#164E16;stroke-width:3;stroke-miterlimit:10;}
	.st140{fill:none;stroke:#164E16;stroke-miterlimit:10;}
	.st141{fill:#8A9D1F;}
	.st142{fill:#6E8517;}
	.st143{opacity:0.1;fill:none;stroke:#EBDE00;stroke-width:3;stroke-miterlimit:10;}
	.st144{opacity:0.25;fill:none;stroke:#EBDE00;stroke-width:3;stroke-miterlimit:10;}
	.st145{opacity:0.4;fill:none;stroke:#EBDE00;stroke-width:3;stroke-miterlimit:10;}
	.st146{opacity:0.55;fill:none;stroke:#EBDE00;stroke-width:3;stroke-miterlimit:10;}
	.st147{opacity:0.7;fill:none;stroke:#EBDE00;stroke-width:3;stroke-miterlimit:10;}
	.st148{opacity:0.85;fill:none;stroke:#EBDE00;stroke-width:3;stroke-miterlimit:10;}
	.st149{fill:none;stroke:#EBDE00;stroke-width:3;stroke-miterlimit:10;}
	.st150{fill:#A7C92B;}
	.st151{fill:#EBDE00;}
	.st152{fill:#AEC939;}
	.st153{fill:#B8CC35;}
	.st154{fill:#C2CF33;}
	.st155{fill:#CCD331;}
	.st156{fill:#D7D631;}
	.st157{fill:#E0D930;}
	.st158{fill:#264008;}
	.st159{fill:none;stroke:#00FFFF;stroke-miterlimit:10;}
	.st160{clip-path:url(#SVGID_6_);}
	.st161{fill:#F22F2E;stroke:#9E0E00;stroke-width:3;stroke-miterlimit:10;}
	.st162{fill:#A7C92B;stroke:#164E16;stroke-width:3;stroke-miterlimit:10;}
	.st163{clip-path:url(#SVGID_8_);}
	.st164{fill:#F9A361;}
	.st165{fill:none;stroke:#992216;stroke-linecap:round;stroke-miterlimit:10;}
	.st166{fill:#0C4C0C;}
	.st167{fill:#F04D02;}
	.st168{fill:#992216;}
	.st169{fill:none;stroke:#7B000E;stroke-width:3;stroke-miterlimit:10;}
	.st170{fill:none;stroke:#164E16;stroke-linecap:round;stroke-miterlimit:10;}
	.st171{fill:#FFBC42;stroke:#9E0E00;stroke-width:3;stroke-miterlimit:10;}
	.st172{fill:#FFBC42;stroke:#9E0E00;stroke-miterlimit:10;}
	.st173{fill:#D03400;}
	.st174{fill:#FFBC42;stroke:#E6681E;stroke-linecap:round;stroke-miterlimit:10;}
	.st175{fill:#184C28;}
	.st176{fill:#FF9D00;stroke:#E6681E;stroke-linecap:round;stroke-miterlimit:10;}
	.st177{fill:#F97306;}
	.st178{fill:#D54300;}
	.st179{fill:#FFD003;}
	.st180{fill:#D17D01;}
	.st181{fill:#FFD003;stroke:#D17D01;stroke-width:3;stroke-miterlimit:10;}
	.st182{fill:none;stroke:#FEA502;stroke-linecap:round;stroke-linejoin:round;stroke-miterlimit:10;}
	.st183{fill:#FEA502;}
	.st184{fill:#8BA00D;}
	.st185{fill:#FAD500;stroke:#E6681E;stroke-width:3;stroke-miterlimit:10;}
	.st186{fill:none;stroke:#E6681E;stroke-linecap:round;stroke-miterlimit:10;}
	.st187{fill:none;stroke:#E6681E;stroke-miterlimit:10;}
	.st188{fill:#A2CC62;stroke:#2A481D;stroke-miterlimit:10;}
	.st189{fill:#FBE000;}
	.st190{fill:#E46900;}
	.st191{fill:#51B505;}
	.st192{fill:#164100;}
	.st193{fill:#BD0408;}
	.st194{fill:#C8040B;stroke:#6C0A04;stroke-width:3;stroke-miterlimit:10;}
	.st195{fill:#A7C08F;}
	.st196{fill:none;stroke:#FFFFFF;stroke-width:3.2158;stroke-linecap:round;stroke-miterlimit:10;}
	.st197{fill:#C8040B;}
</style>
<g id="Layer_1">
	<g>
		<path class="st19" d="M140.3,39.6c3.4-8,10.2-18,22-15.3c14,3.2,13,16.6,11.5,23.6c-0.5,2.5,0.8,5,3.2,6c2.8,1.1,6-0.4,7-3.2
			c10.5-31.7-15.9-42.4-15.9-42.4c-21.3-9.2-38.7,10.9-45.6,20.6L140.3,39.6z"/>
		<path class="st20" d="M124.7,34.3c4.4-6.8,21.5-30.3,41.7-21.6c0.1,0,5.8,2.5,10.2,8.2c5.7,7.4,6.7,16.9,3,28.3
			c0,0.1-0.1,0.2-0.2,0.2c-0.1,0-0.2,0.1-0.4,0c-0.2-0.1-0.3-0.3-0.3-0.5c3.3-15.4-2.4-26.4-15.2-29.3c-1.7-0.4-3.4-0.6-5-0.6
			c-3.8,0-7.3,1.1-10.6,3.2c-7.5,4.8-11.6,14.2-13.6,20.1l8.8,4c1.6-5,4.9-12.7,10-16c2.5-1.6,5.2-2,8.2-1.3
			c2.8,0.6,11.2,2.6,7.9,17.9c-1,4.8,1.6,9.7,6.2,11.5c1.2,0.5,2.5,0.7,3.7,0.7c1.5,0,3-0.3,4.3-1c2.5-1.2,4.4-3.3,5.3-6
			C200.2,17.6,172,4.7,170.1,3.8h0c-13.1-5.7-26.9-2.5-39.9,9.1c-6.7,6-11.4,12.7-13.6,16.1L124.7,34.3z"/>
		<g>
			<path class="st195" d="M148.3,18.8c-0.6,0-1.2-0.3-1.5-0.9c-0.4-0.8,0-1.8,0.8-2.1c5-2.3,10-3,14.9-2c0.9,0.2,1.4,1,1.2,1.9
				c-0.2,0.9-1,1.4-1.9,1.2c-4.2-0.9-8.5-0.3-12.9,1.8C148.8,18.8,148.6,18.8,148.3,18.8z"/>
		</g>
		<g>
			<path class="st197" d="M148,48.9c-0.9-0.7-1.9-1.2-2.9-1.6c-3.3-1.5-6.1-3.8-7.6-7.1c-1.2-2.6-3-4.9-5.5-6.6
				c-2.4-1.7-5.1-2.7-7.8-3c-3.3-0.4-6.5-1.8-8.7-4.3c-0.8-0.9-1.8-1.8-2.8-2.5c-7-5-16.6-4.1-22.6,1.8C82.9,32.6,72,47.2,53.9,75.1
				c-30.7,47.3-47.3,74.5-37.8,81.3c1.5,1.1,3.2,1.5,5,1.3c4.3-0.5,7.7,3.2,6.8,7.4c-2.6,12.5,0.3,22.1,5.8,26
				c8.6,6.1,20.8,3.7,41.2-17.9c10.5-11,25.7-29.4,46.9-56.9c18-23.4,27.2-37.2,31.2-45.8C153.1,70.5,160.7,58,148,48.9z"/>
			<path class="st92" d="M42.6,198.9c-4,0-7.9-1.1-11.6-3.8c-7.6-5.5-10.6-17.3-7.8-31c0.1-0.6-0.1-1-0.3-1.2
				c-0.2-0.2-0.6-0.5-1.2-0.4c-3.1,0.4-5.9-0.4-8.4-2.2c-10-7.1-1.4-24.2,2.3-31.6c6.6-13.2,17.6-30.6,34.2-56.3
				C67,46,78.7,30,86.7,22.1c7.8-7.7,19.9-8.6,28.8-2.3c1.3,1,2.6,2.1,3.6,3.3c1.3,1.5,3.3,2.4,5.6,2.7c3.6,0.4,7.1,1.7,10.1,3.9
				c3.1,2.2,5.5,5.1,7,8.5c1.1,2.4,3.4,3.9,5.2,4.7c1.3,0.6,2.5,1.3,3.7,2.1l0,0c12.8,9.1,9.9,22,6.5,27.8
				c-4.4,9.4-14.2,23.8-31.6,46.5c-20.1,26.2-36,45.4-47.2,57.2C68.8,186.8,55.5,198.9,42.6,198.9z M21.8,152.8
				c3.1,0,6.1,1.3,8.2,3.6c2.4,2.6,3.4,6.2,2.6,9.7c-2.3,11,0.3,18.6,3.9,21.1c2.7,2,11.1,7.9,34.9-17.3
				c11-11.6,26.6-30.6,46.5-56.5c16.9-22,26.7-36.3,30.6-44.9l0.3-0.5c0.8-1.4,4.8-9.1-3.8-15.2c-0.6-0.5-1.3-0.8-2-1.2
				c-4.7-2.1-8.2-5.4-10-9.5c-0.9-1.9-2.2-3.5-3.9-4.7c-1.7-1.2-3.5-1.9-5.6-2.1c-4.7-0.5-8.9-2.6-11.8-5.9c-0.6-0.7-1.3-1.3-2-1.8
				c-5-3.6-12.1-3-16.4,1.3C86,36.4,74.7,51.8,57.9,77.7c-16.5,25.4-27.3,42.6-33.7,55.4c-8.3,16.6-5.6,19.2-5.3,19.4
				c0.6,0.4,1,0.5,1.7,0.4C21,152.9,21.4,152.8,21.8,152.8z"/>
		</g>
		<g>
			<path class="st37" d="M91.2,65.9c-0.3,0-0.7-0.1-1-0.3C89.6,65,89.4,64,90,63.3c4.7-6.1,9.3-11.3,13.7-15.7
				c0.6-0.6,1.7-0.6,2.3,0s0.6,1.7,0,2.3c-4.3,4.3-8.8,9.4-13.4,15.4C92.2,65.6,91.7,65.9,91.2,65.9z"/>
		</g>
		<g>
			<path class="st92" d="M63.6,107.4c-0.3,0-0.6-0.1-0.9-0.2c-0.8-0.5-1-1.5-0.5-2.2c1.7-2.7,3.4-5.5,5.2-8.3c0.5-0.8,1.5-1,2.2-0.5
				c0.8,0.5,1,1.5,0.5,2.2c-1.8,2.8-3.5,5.6-5.2,8.3C64.7,107.1,64.2,107.4,63.6,107.4z"/>
		</g>
		<g>
			<path class="st92" d="M39.6,147.8c-0.3,0-0.5-0.1-0.8-0.2c-0.8-0.4-1.1-1.4-0.7-2.2c4.7-8.8,10.8-19.1,19.8-33.6
				c0.5-0.8,1.5-1,2.2-0.5c0.8,0.5,1,1.5,0.5,2.2c-8.9,14.4-15,24.7-19.7,33.4C40.7,147.5,40.2,147.8,39.6,147.8z"/>
		</g>
		<g>
			<circle class="st37" cx="87.1" cy="70.1" r="1.6"/>
		</g>
	</g>
</g>
<g id="Layer_2">
</g>
</svg>
