<?xml version="1.0" encoding="utf-8"?>
<!-- Generator: Adobe Illustrator 20.0.0, SVG Export Plug-In . SVG Version: 6.00 Build 0)  -->
<svg version="1.1" id="Layer_1" xmlns="http://www.w3.org/2000/svg" xmlns:xlink="http://www.w3.org/1999/xlink" x="0px" y="0px"
	 viewBox="0 0 200 200" style="enable-background:new 0 0 200 200;" xml:space="preserve">
<style type="text/css">
	.st0{fill:#BF793A;stroke:#590000;stroke-width:4;stroke-miterlimit:10;}
	.st1{fill:#528B1C;stroke:#123C08;stroke-width:3;stroke-miterlimit:10;}
	.st2{fill:#BF793A;stroke:#590000;stroke-width:4;stroke-linecap:round;stroke-miterlimit:10;}
	.st3{fill:#FDE270;}
	.st4{fill:#FBDE74;}
	.st5{fill:#F8D96C;}
	.st6{fill:#F5D464;}
	.st7{fill:#F2CF5C;}
	.st8{fill:#EFCA54;}
	.st9{fill:#D50000;}
	.st10{fill:#ED3A00;}
	.st11{fill:#D50000;stroke:#590000;stroke-width:6;stroke-miterlimit:10;}
	.st12{fill:#487E41;}
	.st13{fill:#123C08;}
	.st14{fill:#D50000;stroke:#590000;stroke-width:3;stroke-miterlimit:10;}
	.st15{fill:none;stroke:#FFFFFF;stroke-linecap:round;stroke-miterlimit:10;}
	.st16{fill:#FFFFFF;}
	.st17{fill:#7FC731;stroke:#246901;stroke-width:3;stroke-miterlimit:10;}
	.st18{fill:#7FC731;stroke:#246901;stroke-linecap:round;stroke-miterlimit:10;}
	.st19{fill:none;stroke:#246901;stroke-linecap:round;stroke-miterlimit:10;}
	.st20{fill:#292F37;}
	.st21{fill:#577B1D;}
	.st22{fill:#AD2F26;}
	.st23{fill:#264415;}
	.st24{fill:#539243;}
	.st25{fill:#7F415B;}
	.st26{fill:#246901;}
	.st27{fill:#8A1100;}
	.st28{fill:#5EC865;}
	.st29{fill:#007500;}
	.st30{fill:#FF3D50;}
	.st31{fill:none;stroke:#246901;stroke-linecap:round;stroke-linejoin:round;stroke-miterlimit:10;}
	.st32{fill:none;stroke:#FFFFFF;stroke-linecap:round;stroke-linejoin:round;stroke-miterlimit:10;}
	.st33{fill:#FF3D50;stroke:#CC3248;stroke-miterlimit:10;}
	.st34{fill:none;stroke:#007500;stroke-linecap:round;stroke-linejoin:round;stroke-miterlimit:10;}
	.st35{fill:none;stroke:#264415;stroke-linecap:round;stroke-linejoin:round;stroke-miterlimit:10;}
	.st36{fill:#528B1C;}
	.st37{fill:#20420B;}
	.st38{fill:#314773;}
	.st39{fill:#7389B5;}
	.st40{fill:#528B1C;stroke:#20420B;stroke-linecap:round;stroke-linejoin:round;stroke-miterlimit:10;}
	.st41{fill:none;stroke:#314773;stroke-linejoin:round;stroke-miterlimit:10;}
	.st42{fill:#00FFFF;}
	.st43{fill:#22B473;stroke:#184C28;stroke-width:3;stroke-linecap:round;stroke-linejoin:round;stroke-miterlimit:10;}
	.st44{fill:#2E368E;}
	.st45{fill:#9A0D90;}
	.st46{fill:#161542;}
	.st47{fill:#251749;}
	.st48{fill:none;stroke:#FBA954;stroke-linecap:round;stroke-linejoin:round;stroke-miterlimit:10;}
	.st49{fill:#61303F;}
	.st50{fill:#EEB683;}
	.st51{fill:#1B631A;}
	.st52{fill:#FBA954;}
	.st53{fill:#ECD8A1;}
	.st54{fill:#DC0900;stroke:#184C28;stroke-width:1.7008;stroke-miterlimit:10;}
	.st55{fill:none;stroke:#007500;stroke-width:2;stroke-linecap:round;stroke-miterlimit:10;}
	.st56{fill:#F10A00;stroke:#8A1100;stroke-miterlimit:10;}
	.st57{fill:none;stroke:#007500;stroke-width:3;stroke-linecap:round;stroke-miterlimit:10;}
	.st58{fill:#F10A00;}
	.st59{fill:#7389B5;stroke:#314773;stroke-miterlimit:10;}
	.st60{fill:none;stroke:#314773;stroke-miterlimit:10;}
	.st61{opacity:0.4;fill:#314773;}
	.st62{fill:#7389B5;stroke:#314773;stroke-linecap:round;stroke-linejoin:round;stroke-miterlimit:10;}
	.st63{fill:#8BA3CD;stroke:#314773;stroke-miterlimit:10;}
	.st64{fill:#5A7098;}
	.st65{fill:none;stroke:#FFFFFF;stroke-width:8;stroke-linecap:round;stroke-linejoin:round;stroke-miterlimit:10;}
	.st66{fill:#FF3D50;stroke:#AD2F26;stroke-miterlimit:10;}
	.st67{fill:#FF3D50;stroke:#CC3248;stroke-width:1.058;stroke-miterlimit:10;}
	.st68{fill:#539243;stroke:#246901;stroke-width:3;stroke-linejoin:round;stroke-miterlimit:10;}
	.st69{clip-path:url(#SVGID_2_);}
	.st70{fill:url(#SVGID_3_);}
	.st71{fill:none;stroke:#CC652B;stroke-width:1.4939;stroke-linecap:round;stroke-miterlimit:10;}
	.st72{fill:none;stroke:#CC652B;stroke-width:0.8407;stroke-miterlimit:10;}
	.st73{fill:#F9C153;}
	.st74{fill:#FC7351;stroke:#CC652B;stroke-width:3;stroke-miterlimit:10;}
	.st75{fill:none;stroke:#994A22;stroke-linecap:round;stroke-miterlimit:10;}
	.st76{fill:none;stroke:#F9C153;stroke-width:3;stroke-linecap:round;stroke-miterlimit:10;}
	.st77{opacity:0.8;fill:none;stroke:#F9C153;stroke-width:3;stroke-linecap:round;stroke-miterlimit:10;}
	.st78{opacity:0.6;fill:none;stroke:#F9C153;stroke-width:3;stroke-linecap:round;stroke-miterlimit:10;}
	.st79{opacity:0.4;fill:none;stroke:#F9C153;stroke-width:3;stroke-linecap:round;stroke-miterlimit:10;}
	.st80{opacity:0.2;fill:none;stroke:#F9C153;stroke-width:3;stroke-linecap:round;stroke-miterlimit:10;}
	.st81{fill:none;stroke:#994A22;stroke-width:3;stroke-miterlimit:10;}
	.st82{fill:#7FC731;stroke:#246901;stroke-width:3;stroke-linecap:round;stroke-linejoin:round;stroke-miterlimit:10;}
	.st83{fill:none;stroke:#ADD980;stroke-linecap:round;stroke-linejoin:round;stroke-miterlimit:10;}
	.st84{fill:#ADD980;}
	.st85{fill:#FC7351;}
	.st86{fill:#F8B05C;}
	.st87{fill:#F8A15A;}
	.st88{fill:#F99259;}
	.st89{fill:#F98357;}
	.st90{fill:#994A22;}
	.st91{fill:#7FC731;}
	.st92{fill:#FDE3DD;}
	.st93{fill:#F8B413;stroke:#7A4100;stroke-width:6;stroke-miterlimit:10;}
	.st94{fill:#487E41;stroke:#123C08;stroke-width:3;stroke-linecap:round;stroke-miterlimit:10;}
	.st95{opacity:0.8;fill:none;stroke:#FFFFFF;stroke-linecap:round;stroke-miterlimit:10;}
	.st96{fill:none;stroke:#123C08;stroke-linecap:round;stroke-miterlimit:10;}
	.st97{opacity:0.8;fill:#FFFFFF;}
	.st98{fill:#F8B413;stroke:#7A4100;stroke-miterlimit:10;}
	.st99{opacity:0.7;fill:none;stroke:#FFFFFF;stroke-linecap:round;stroke-miterlimit:10;}
	.st100{fill:none;stroke:#7A4100;stroke-linecap:round;stroke-miterlimit:10;}
	.st101{opacity:0.7;fill:none;stroke:#AD2F26;stroke-width:3;stroke-linecap:round;stroke-miterlimit:10;}
	.st102{opacity:0.5;fill:none;stroke:#AD2F26;stroke-width:3;stroke-linecap:round;stroke-miterlimit:10;}
	.st103{opacity:0.3;fill:none;stroke:#AD2F26;stroke-width:3;stroke-linecap:round;stroke-miterlimit:10;}
	.st104{opacity:0.1;fill:none;stroke:#AD2F26;stroke-width:3;stroke-linecap:round;stroke-miterlimit:10;}
	.st105{opacity:0.7;fill:#FFFFFF;}
	.st106{fill:#DAE5D9;}
	.st107{fill:#F8B413;}
	.st108{fill:#FCE8BB;}
	.st109{fill:#C25729;}
	.st110{fill:#D1722A;}
	.st111{fill:#E08B2C;}
	.st112{fill:#EFA62E;}
	.st113{fill:#7A4100;}
	.st114{fill:none;stroke:#487E41;stroke-width:2;stroke-miterlimit:10;}
	.st115{fill:#D50000;stroke:#590000;stroke-miterlimit:10;}
	.st116{fill:#6BB25F;}
	.st117{fill:#590000;}
	.st118{fill:#7F0603;}
	.st119{fill:#990505;stroke:#590000;stroke-width:3;stroke-miterlimit:10;}
	.st120{fill:none;stroke:#590000;stroke-linecap:round;stroke-miterlimit:10;}
	.st121{fill:#BF793A;stroke:#590000;stroke-width:3;stroke-miterlimit:10;}
	.st122{fill:none;stroke:#590000;stroke-miterlimit:10;}
	.st123{fill:#BF793A;stroke:#590000;stroke-width:3;stroke-linecap:round;stroke-miterlimit:10;}
	.st124{fill:#6EB226;}
	.st125{fill:none;stroke:#123C08;stroke-width:3;stroke-miterlimit:10;}
	.st126{fill:#BF793A;}
</style>
<g>
	<path class="st126" d="M194.4,44c1.8,12.4-34.1,36.3-67.1,40.9c-19.6,2.8-41.2-8.2-43.6-25.2s13.5-33.3,34.9-36.4
		C152.5,18.6,192.7,32.3,194.4,44z"/>
	<path class="st16" d="M121.4,37.3c-0.8,0-1.4-0.6-1.5-1.4c-0.1-0.8,0.5-1.6,1.3-1.7c3.5-0.4,7.1-0.7,10.8-0.8
		c0.8,0,1.6,0.6,1.6,1.5c0,0.8-0.6,1.6-1.5,1.6c-3.6,0.1-7.2,0.4-10.6,0.8C121.5,37.3,121.5,37.3,121.4,37.3z"/>
	<path class="st117" d="M155.6,65.8c-0.6,0-1.2-0.4-1.4-1c-0.3-0.8,0.1-1.7,0.9-2c18.7-7.2,26.8-14.4,26.5-17
		c-0.4-2.6-11-7.2-30-8.9c-0.8-0.1-1.5-0.8-1.4-1.7s0.8-1.4,1.7-1.4c14.5,1.3,31.8,5.2,32.7,11.6c0.9,6.5-14.7,15-28.4,20.3
		C156,65.8,155.8,65.8,155.6,65.8z"/>
	<path class="st117" d="M156.8,56.8c-0.7,0-1.3-0.4-1.5-1.1c-0.2-0.8,0.2-1.7,1-1.9c3.4-1,6.5-2.1,9.2-3.1c0.8-0.3,1.7,0.1,2,0.9
		c0.3,0.8-0.1,1.7-0.9,2c-2.7,1-5.9,2.1-9.4,3.2C157.1,56.8,157,56.8,156.8,56.8z"/>
	<path class="st117" d="M173.9,47.2c-0.2,0-0.4,0-0.6-0.1c-1.7-0.7-5.6-1.3-10.6-1.6c-0.8-0.1-1.5-0.8-1.4-1.6
		c0.1-0.8,0.8-1.5,1.6-1.4c3.8,0.2,8.9,0.7,11.5,1.8c0.8,0.3,1.2,1.2,0.8,2C175.1,46.8,174.5,47.2,173.9,47.2z"/>
	<ellipse transform="matrix(0.9901 -0.1406 0.1406 0.9901 -5.3313 24.5111)" class="st117" cx="170.8" cy="50" rx="1.5" ry="1.5"/>
	<ellipse transform="matrix(0.9901 -0.1406 0.1406 0.9901 -7.5007 20.569)" class="st117" cx="141.8" cy="63.4" rx="2.3" ry="2.3"/>
	<ellipse transform="matrix(0.9901 -0.1406 0.1406 0.9901 -6.0868 18.9428)" class="st117" cx="131" cy="52.5" rx="2.3" ry="2.3"/>
	
		<ellipse transform="matrix(0.9901 -0.1406 0.1406 0.9901 -8.7961 18.6433)" class="st117" cx="127.5" cy="71.6" rx="2.3" ry="2.3"/>
	<path class="st126" d="M111.6,189.4c-11.5,5.1-44.1-23.1-57.5-53.6c-8-18.1-3.2-41.9,12.5-48.8s35.7,4,44.4,23.8
		C124.8,142.3,122.4,184.6,111.6,189.4z"/>
	<path class="st117" d="M105.8,180.7c-6.4,0-17.4-11.5-25.4-22.2c-0.5-0.7-0.4-1.6,0.3-2.1c0.7-0.5,1.6-0.4,2.1,0.3
		c12,16,21.2,21.9,23.5,20.9c2.4-1.1,4-12.5,0.5-31.3c-0.2-0.8,0.4-1.6,1.2-1.8c0.8-0.1,1.6,0.4,1.8,1.2c2.6,14.4,3.6,32-2.3,34.6
		C107,180.6,106.4,180.7,105.8,180.7z"/>
	<path class="st16" d="M61.3,120c-0.7,0-1.3-0.5-1.5-1.2c-0.3-1.5-0.6-3.1-0.8-4.6c-0.1-0.8,0.5-1.6,1.3-1.7
		c0.8-0.1,1.6,0.5,1.7,1.3c0.2,1.4,0.4,2.9,0.7,4.4c0.2,0.8-0.4,1.6-1.2,1.8C61.6,120,61.4,120,61.3,120z"/>
	<path class="st117" d="M198.9,43.4c-2.3-16.2-46.2-29.5-81.1-24.5c-20.2,2.9-35.7,16.4-38.6,32.2c-0.3,1.7-1.6,3-3.3,3.2l-13.5,1.9
		c-3.4,0.5-6.8-0.1-9.9-1.8L27.6,40.7l-6.2,11.4l25.1,13.7c3.1,1.7,5.5,4.4,6.9,7.6l4.3,9.8c0.7,1.7,0.4,3.6-1,4.9
		c-4.7,4.4-8,10.6-9.8,18c-2.4,10.3-1.4,21.8,2.9,31.5c6.4,14.5,17.8,30.1,30.6,41.7c13.5,12.2,22.5,15.2,28,15.2
		c2.1,0,3.7-0.4,4.9-1c10.2-4.5,11.6-24.9,11.7-33.4c0.2-17.6-3.4-36.3-10-51.2c-4.6-10.5-12.3-19.1-21.6-24.1
		c-6.5-3.5-13.2-5-19.6-4.4c-1.9,0.2-3.6-0.9-4.4-2.6l-2.9-6.5c-0.5-1.2,0.2-2.6,1.6-2.8l9.7-1.4c1.6-0.2,3.2,0.6,4,2.1
		c3,5.8,8,10.8,14.8,14.5c7.3,4,15.9,6.2,24.3,6.2c2.3,0,4.6-0.2,6.8-0.5c15.7-2.2,33.8-9,48.4-18.2
		C197.5,57.9,199.6,48.1,198.9,43.4z M67.5,107.6c0.8-0.2,1.3-1.1,1.1-1.9c-2.1-9.1-1.1-13.3,0-13.8c0.8-0.4,3.3,0.4,7.6,5.5
		c3.8,4.7,7.7,11.3,11,18.7c0.3,0.6,0.8,0.9,1.4,0.9c0.3,0,0.6-0.1,0.9-0.3c0.6-0.4,0.8-1.2,0.5-1.9c-3.4-7.6-7.4-14.5-11.4-19.4
		c-0.7-0.8-1.3-1.6-2-2.3c-0.5-0.5,0.1-1.3,0.7-1c4.5,1.8,9.4,5.8,13.6,11.5c0.4,0.6,1.2,0.8,1.8,0.6c1-0.4,1.2-1.6,0.7-2.3
		c-3.6-4.9-7.6-8.6-11.6-10.9c-0.4-0.3-0.2-0.9,0.3-0.8c2.3,0.6,4.7,1.5,7.1,2.7c7.5,4,13.8,11,17.6,19.7
		c6.1,13.8,9.4,31.1,9.2,47.4c-0.2,17.1-4.3,24.3-6.2,25.2h0c-2.4,1.1-10.8-1.5-23.1-12.7c-11.9-10.8-22.5-25.2-28.4-38.6
		c-3.5-8-4.4-17.3-2.4-25.7c0.6-2.7,1.5-5.1,2.6-7.3c0.2-0.5,0.9-0.2,0.8,0.3c-0.3,1.4-0.5,2.9-0.5,4.6c0,0.8,0.4,1.5,1,1.8
		c0.3,0.1,0.4,0.1,0.5,0.1c0.8,0,1.4-0.5,1.5-1.3c0.1-3,0.6-5.6,1.4-7.9c0.2-0.6,1.2-0.5,1.2,0.1c0.2,2.5,0.7,5.2,1.2,7.7
		C65.8,107.3,66.7,107.8,67.5,107.6z M171.4,63.5c-13.6,8.5-30.3,14.8-44.8,16.9c-11.9,1.7-23.9-2.1-31.3-8.8
		c-0.5-0.4,0-1.1,0.6-0.8c4.2,2,9.7,3.5,16.5,4c0,0,0.1,0,0.1,0c0.8,0,1.5-0.6,1.5-1.4c0.1-0.8-0.6-1.6-1.4-1.6
		c-7.5-0.5-14-2.4-18.2-5.3c-0.7-0.5-0.3-1.5,0.5-1.4c0.9,0.2,1.8,0.3,2.8,0.4c2.6,0.3,5.4,0.5,8.5,0.5c4.3,0,8.9-0.3,13.4-1
		c0.8-0.1,1.5-0.9,1.4-1.7c-0.1-0.9-0.9-1.5-1.7-1.4c-7.4,1.1-15.1,1.2-21.2,0.5c-7-0.9-9.1-2.6-9.2-3.4c-0.1-0.9,1.3-3.1,7.4-5.8
		c5.5-2.4,12.9-4.3,20.9-5.5c0.7-0.1,1.3-0.6,1.4-1.3c0.1-1-0.8-1.8-1.7-1.7c-8.3,1.2-16,3.2-21.8,5.7c-0.8,0.3-1.5,0.7-2.2,1
		c-0.7,0.4-1.5-0.5-0.9-1.1c3-3.7,8-7.1,14.4-9.5c0.7-0.3,1.2-1,1-1.8c-0.2-1-1.2-1.5-2-1.1c-5.4,2.1-9.9,4.8-13.2,7.8
		c-0.4,0.4-1.1-0.1-0.8-0.6c5.1-8.5,15.5-15.4,27.9-17.1c4.5-0.6,9.3-1,14.2-1c11.2,0,23.1,1.7,34,4.9c16.4,4.8,22.3,10.7,22.6,12.8
		C190.2,47.3,185.5,54.7,171.4,63.5z"/>
	<path class="st16" d="M72.6,124.1c-0.6,0-1.1-0.3-1.4-0.9c-1.2-2.8-2.3-5.7-3.3-8.6c-0.3-0.8,0.2-1.7,1-1.9c0.8-0.3,1.7,0.2,1.9,1
		c0.9,2.8,2,5.6,3.2,8.3c0.3,0.8,0,1.7-0.8,2C73,124,72.8,124.1,72.6,124.1z"/>
	<path class="st117" d="M96.1,166c-0.5,0-0.9-0.2-1.2-0.6c-1.8-2.4-3.6-5.1-5.6-8.2c-0.5-0.7-0.2-1.7,0.5-2.1
		c0.7-0.5,1.7-0.2,2.1,0.5c1.9,3,3.7,5.7,5.4,8c0.5,0.7,0.4,1.6-0.3,2.1C96.7,165.9,96.4,166,96.1,166z"/>
	<path class="st117" d="M104.4,171.7c-0.1,0-0.1,0-0.2,0c-0.8-0.1-1.4-0.9-1.3-1.7c0.2-1.9-0.3-5.7-1.3-10.6
		c-0.2-0.8,0.3-1.6,1.2-1.8c0.8-0.2,1.6,0.3,1.8,1.2c0.8,3.7,1.7,8.8,1.4,11.6C105.9,171.1,105.2,171.7,104.4,171.7z"/>
	
		<ellipse transform="matrix(0.9153 -0.4027 0.4027 0.9153 -59.3654 54.3081)" class="st117" cx="99.5" cy="168.3" rx="1.5" ry="1.5"/>
	<ellipse transform="matrix(0.9153 -0.4027 0.4027 0.9153 -51.3367 43.9122)" class="st117" cx="78.8" cy="144" rx="2.3" ry="2.3"/>
	
		<ellipse transform="matrix(0.9153 -0.4027 0.4027 0.9153 -45.3374 45.8046)" class="st117" cx="86.3" cy="130.7" rx="2.3" ry="2.3"/>
	<ellipse transform="matrix(0.9153 -0.4027 0.4027 0.9153 -47.6887 38.2028)" class="st16" cx="67" cy="132.5" rx="2.3" ry="2.3"/>
	<path class="st124" d="M73.2,14.9c3.2,6.7-13,26.4-30.8,34.8c-10.6,5-24.7,2.5-29.1-6.7s1.9-21.2,13.4-26.6
		C45.1,7.8,70.2,8.5,73.2,14.9z"/>
	<path class="st36" d="M73.2,14.9c3.2,6.7-13,26.4-30.8,34.8c-10.6,5-24.7,2.5-29.1-6.7L73.2,14.9z"/>
	<path class="st16" d="M30.3,36.6c-0.6,0-1.1-0.3-1.4-0.9c-0.4-0.8,0-1.7,0.7-2l5.9-2.8c0.8-0.4,1.7,0,2,0.7c0.4,0.8,0,1.7-0.7,2
		l-5.9,2.8C30.7,36.5,30.5,36.6,30.3,36.6z"/>
	<path class="st124" d="M26.8,84c-4.4,1.5-15.5-10.1-19.4-21.8c-2.3-7,0.3-15.6,6.3-17.6c6-2,13.1,2.7,15.6,10.3
		C33.3,67,31,82.6,26.8,84z"/>
	<path class="st36" d="M27.2,85.3C22.5,86.9,10.7,74.6,6.5,62C4,54.6,6.8,45.3,13.2,43.2L27.2,85.3z"/>
	<path class="st13" d="M77.4,12.9c-4.9-10.5-34.3-9.3-52.6-0.7c-10.6,5-17.2,14.7-17.4,24.1c-0.1,2.7-0.8,5.4-2.5,7.6
		c-1.1,1.5-2.1,3.2-2.7,5.2c-1.5,4.5-1.5,9.8,0,14.3c2.1,6.4,6.2,13.2,11.1,18.6c3.5,3.8,8.4,8,13.1,8c0.8,0,1.6-0.1,2.3-0.4h0
		c7.3-2.4,9.2-17.3,7.3-29.5c-0.3-2.1,1-4,3-4.5c1.8-0.5,3.6-1.1,5.3-1.9c8.8-4.2,17.9-11.1,24.8-19.2
		C73.6,29.5,80.6,19.8,77.4,12.9z M27.1,55.1c1.8,5.3,2.5,11.8,1.9,17.9c-0.5,5.9-2,8.9-2.7,9.5C23,82.4,13,72.3,9.3,61
		c-2.1-6.3,0.3-13.6,4.9-15.1c0.7-0.2,1.4-0.3,2.1-0.3C20.7,45.6,25.3,49.6,27.1,55.1z M40.4,45.5c-4.3,2-9.1,2.5-13.3,1.8
		c-0.8-0.1-1.5-0.5-2.1-1c-1.6-1.5-3.3-2.6-5.2-3.2c-1-0.4-1.9-1-2.4-2c0,0,0,0,0,0c-3.2-6.8,2-16.2,11.2-20.5
		c9.3-4.4,19.9-5.9,27.9-5.9c6.3,0,11.1,1,12.5,2.2C69.5,21,57.3,37.6,40.4,45.5z"/>
	<circle class="st16" cx="44.6" cy="28.3" r="1.5"/>
	<circle class="st16" cx="15.6" cy="50.4" r="1.5"/>
	<circle class="st16" cx="114.2" cy="37" r="1.5"/>
</g>
</svg>
