<?xml version="1.0" encoding="utf-8"?>
<!-- Generator: Adobe Illustrator 20.1.0, SVG Export Plug-In . SVG Version: 6.00 Build 0)  -->
<svg version="1.1" id="Layer_1" xmlns="http://www.w3.org/2000/svg" xmlns:xlink="http://www.w3.org/1999/xlink" x="0px" y="0px"
	 viewBox="0 0 400 400" style="enable-background:new 0 0 400 400;" xml:space="preserve">
<style type="text/css">
	.st0{fill:#6E8517;}
	.st1{fill:#1B4700;}
	.st2{fill:#00FFFF;}
	.st3{fill:#A2CC62;stroke:#2A481D;stroke-width:6;stroke-miterlimit:10;}
	.st4{fill:#FAD500;stroke:#E6681E;stroke-width:3;stroke-miterlimit:10;}
	.st5{fill:none;stroke:#E6681E;stroke-linecap:round;stroke-miterlimit:10;}
	.st6{fill:none;stroke:#FFFFFF;stroke-linecap:round;stroke-miterlimit:10;}
	.st7{fill:none;stroke:#E6681E;stroke-miterlimit:10;}
	.st8{fill:#E6681E;}
	.st9{fill:#A2CC62;stroke:#2A481D;stroke-miterlimit:10;}
	.st10{fill:#FFFFFF;}
	.st11{fill:#A2CC62;}
	.st12{fill:#FBE000;}
	.st13{fill:#E46900;}
	.st14{fill:#51B505;}
	.st15{fill:#164100;}
	.st16{fill:#4D831C;}
	.st17{fill:#2A481D;}
	.st18{fill:#A7C92B;}
	.st19{fill:#D10000;stroke:#7B000E;stroke-width:3;stroke-miterlimit:10;}
	.st20{fill:none;stroke:#7B000E;stroke-miterlimit:10;}
	.st21{fill:none;stroke:#7B000E;stroke-width:1.2609;stroke-miterlimit:10;}
	.st22{fill:#D10000;}
	.st23{fill:#7B000E;}
	.st24{opacity:0.7;}
	.st25{fill:#4D831C;stroke:#2A481D;stroke-width:3;stroke-miterlimit:10;}
	.st26{opacity:0.5;fill:none;stroke:#FFFFFF;stroke-linecap:round;stroke-miterlimit:10;}
	.st27{fill:#BD0408;}
	.st28{fill:#C8040B;stroke:#6C0A04;stroke-width:3;stroke-miterlimit:10;}
	.st29{fill:none;stroke:#6C0A04;stroke-linecap:round;stroke-miterlimit:10;}
	.st30{fill:#A7C08F;}
	.st31{fill:none;stroke:#FFFFFF;stroke-width:6.4322;stroke-linecap:round;stroke-miterlimit:10;}
	.st32{fill:#C8040B;}
	.st33{fill:#6C0A04;}
	.st34{fill:#F22F2E;stroke:#9E0E00;stroke-width:3;stroke-miterlimit:10;}
	.st35{fill:#A7C92B;stroke:#164E16;stroke-width:3;stroke-miterlimit:10;}
	.st36{fill:none;stroke:#164E16;stroke-miterlimit:10;}
	.st37{fill:#4D831C;stroke:#2A481D;stroke-width:3;stroke-linecap:round;stroke-linejoin:round;stroke-miterlimit:10;}
	.st38{fill:#F22F2E;stroke:#7B000E;stroke-width:3;stroke-miterlimit:10;}
	.st39{fill:none;stroke:#7B000E;stroke-linecap:round;stroke-miterlimit:10;}
	.st40{fill:#F40000;stroke:#7B000E;stroke-width:3;stroke-miterlimit:10;}
	.st41{fill:none;stroke:#FFFFFF;stroke-linecap:round;stroke-linejoin:round;stroke-miterlimit:10;}
	.st42{fill:#F40000;}
	.st43{fill:#7DB34C;stroke:#164E16;stroke-width:3;stroke-miterlimit:10;}
	.st44{fill:#8A9D1F;}
	.st45{fill:#164E16;}
	.st46{fill:none;stroke:#7B000E;stroke-linecap:round;stroke-linejoin:round;stroke-miterlimit:10;}
	.st47{fill:#F6E600;}
	.st48{fill:#8DCC50;}
	.st49{fill:#A2A121;}
	.st50{fill:#F9EFA7;}
	.st51{fill:#7DB34C;}
	.st52{fill:#F22F2E;}
	.st53{fill:#9E0E00;}
	.st54{fill:#6FAB00;stroke:#1B4700;stroke-width:3;stroke-miterlimit:10;}
	.st55{fill:none;stroke:#1B4700;stroke-linecap:round;stroke-miterlimit:10;}
	.st56{fill:#6E8517;stroke:#1B4700;stroke-linecap:round;stroke-miterlimit:10;}
	.st57{fill:#6FAB00;}
</style>
<path class="st57" d="M93.4,371.4l148.4-102c43.9-30.2,80.2-70.1,106.2-116.6c7.5-13.4,14.6-26.1,19.9-35.6
	c5.3-9.5,3.9-21.4-3.7-29.4l-0.4-0.5c-15.4-16.3-34.1-29.1-54.9-37.5l-1.5-0.6c-10.9-4.4-23.4-0.5-30,9.2l-53.4,79.3
	c-8.8,13-18,25.7-27.6,38.1L70.7,337.1c-8.4,10.7-17.9,20.5-28.4,29.2l-11.5,9.4c-3.6,2.9-2,8.8,2.6,9.5h0
	C54.5,388.3,75.9,383.4,93.4,371.4z"/>
<path class="st10" d="M263.3,129c-0.6,0-1.3-0.2-1.8-0.6c-1.5-1-1.9-3-0.9-4.5l13-19.3c1-1.5,3-1.9,4.5-0.9c1.5,1,1.9,3,0.9,4.5
	l-13,19.3C265.4,128.5,264.4,129,263.3,129z"/>
<path class="st1" d="M180.2,265.3c-0.7,0-1.5-0.2-2.1-0.8c-1.4-1.1-1.6-3.2-0.4-4.6c6-7.2,13-13.1,21.1-17.7
	c12.7-7.2,22.4-18.9,27.2-32.7c3-8.7,7.6-16.8,13.5-23.9c6-7.2,13-13.1,21.1-17.7c12.7-7.2,22.4-18.9,27.2-32.7
	c0.6-1.7,2.4-2.6,4.1-2c1.7,0.6,2.6,2.4,2,4.1c-5.3,15.3-16,28.2-30.1,36.2c-7.3,4.2-13.8,9.6-19.3,16.2
	c-5.5,6.5-9.6,13.9-12.4,21.9c-5.3,15.3-16,28.2-30.1,36.2c-7.3,4.2-13.8,9.6-19.3,16.2C182,264.9,181.1,265.3,180.2,265.3z"/>
<path class="st10" d="M236.1,236.3c-0.6,0-1.2-0.2-1.8-0.5c-1.5-1-1.9-3-1-4.5c3.3-5.1,5.9-10.6,7.9-16.3c2.4-6.9,6-13.2,10.7-18.8
	c4.7-5.6,10.3-10.3,16.6-13.9c1.6-0.9,3.5-0.3,4.4,1.2c0.9,1.6,0.3,3.5-1.2,4.4c-5.6,3.2-10.6,7.4-14.8,12.4
	c-4.2,5-7.4,10.7-9.5,16.8c-2.2,6.2-5.1,12.2-8.6,17.7C238.2,235.8,237.2,236.3,236.1,236.3z"/>
<path class="st0" d="M361.7,21.1c-3.1-2-7.1-1.2-9.3,1.7c-7.4,9.7-15.1,19.1-25.3,25.8L312.6,58c-2,1.3-2.4,4.2-0.7,5.9l0.2,0.2
	c9.3,9.9,21,17.3,33.9,21.3v0c2.4,0.8,4.9-0.9,5-3.4l0.7-8.9c1.1-15.1,5.3-29.8,12.2-43.2C365.6,26.9,364.7,23,361.7,21.1
	L361.7,21.1z"/>
<path class="st1" d="M317.9,34.9c-3.9,2.9-8.8,4.1-13.5,3.3C291,35.8,277,41.4,269.2,53l-53.4,79.3c-8.6,12.8-17.8,25.4-27.2,37.5
	L63,331.1c-7.9,10.2-17,19.4-26.9,27.6L25,367.9c-3.9,3.2-6.2,8-5.8,13c0.5,7.2,6,12.8,12.8,13.9c4.7,0.7,9.5,1.1,14.2,1.1
	c18.7,0,37-5.6,52.7-16.4l148.4-102c44.9-30.9,82.7-72.3,109.2-119.9l19.9-35.6c3.7-6.6,5.1-14.1,4.2-21.2c-1.3-10-4.8-16-7.8-19.3
	c-3.5-3.9-5-9.2-4.2-14.3c1.1-7.3,3.8-17.8,9.8-29.6c5.4-10.6,2.1-23.4-7.6-29.9C367,5,362.6,3.7,358,3.7c-7.2,0-14.3,3.3-18.5,9.2
	C332,23.2,323.7,30.5,317.9,34.9z M314.1,61.2c0-0.1,0.1-0.3,0.3-0.5l14.4-9.5c10.7-7,18.8-17,26.1-26.5c0.8-1,1.9-1.5,3-1.5
	c0.7,0,1.3,0.2,1.9,0.6v0c1.5,1,2,3,1.1,4.8c-7.1,13.9-11.3,28.8-12.5,44.4l-0.7,8.9c0,0.3-0.2,0.4-0.3,0.5
	c-0.1,0.1-0.3,0.2-0.5,0.1c-12.4-3.9-23.7-11-32.5-20.5l-0.2-0.2C314.1,61.5,314.1,61.3,314.1,61.2z M78.4,343.1L204,181.7
	c9.7-12.5,19.1-25.5,28-38.6l53.4-79.3c2.4-3.5,6-5.8,10-6.5c0.1,0,0.1,0,0.2,0c5.1-0.8,10.1,1.9,12.3,6.5c0.4,0.7,0.9,1.6,1.8,2.5
	c9.6,10.3,21.8,18.1,35.3,22.2c0.9,0.3,1.7,0.4,2.3,0.4c4.3,0,8.5,1.8,10.8,5.5c1.3,2,2.3,4.6,2.9,7.9c0.5,3.4,0.1,6.9-1.7,10
	L339.5,148c-25.1,44.9-60.8,84.1-103.3,113.3l-148.4,102c-8.4,5.8-17.8,9.7-27.6,11.6c-4.3,0.8-7.1-4.5-3.8-7.5
	C62,362.2,69.5,354.4,78.4,343.1z"/>
<circle class="st10" cx="255.7" cy="137.3" r="3.3"/>
</svg>
