<svg xmlns="http://www.w3.org/2000/svg" viewBox="0 0 48 48" width="48" height="48"><path fill="#795548" d="M19,36c0,3.9,3,7,5,7s5-3.1,5-7s-1-7-5-7S19,32.1,19,36z"/><path fill="#795548" d="M21 21c0 1.7 1 10 3 10s3-8.3 3-10-1.3-3-3-3S21 19.3 21 21zM29 13c0 5-3 3-5 3s-5 2-5-3c0-2.8 2-7 5-7S29 10.2 29 13z"/><path fill="#5d4037" d="M14.3 18.8l6.7 3c0-.3 0-.6 0-.8 0-.5.1-.9.3-1.3l-5.6-2.5-4.8-6.8c-.3-.4-.9-.6-1.4-.2-.5.3-.6.9-.2 1.4L14.3 18.8zM27 21c0 .2 0 .5 0 .8l6.7-3 5.2-7.2c.3-.4.2-1.1-.2-1.4-.4-.3-1.1-.2-1.4.2l-4.8 6.8-5.6 2.5C26.9 20.1 27 20.5 27 21zM21.6 26c-.1-.7-.2-1.4-.3-2h-6.1l-5.8-2.9c-.5-.2-1.1 0-1.3.4-.2.5 0 1.1.4 1.3l6.2 3.1H21.6zM39.9 21.6c-.2-.5-.8-.7-1.3-.4L32.8 24h-6.1c-.1.6-.2 1.3-.3 2h6.9l6.2-3.1C39.9 22.6 40.1 22 39.9 21.6zM22.5 29.2c-.2-.5-.4-1-.5-1.6l-8.7 2.6-4.2 8.4c-.2.5 0 1.1.4 1.3C9.7 40 9.8 40 10 40c.4 0 .7-.2.9-.6l3.8-7.6 6.3-1.9C21.4 29.6 21.9 29.3 22.5 29.2zM34.7 30.2L26 27.6c-.2.6-.3 1.1-.5 1.6.6.2 1.1.4 1.5.8l6.3 1.9 3.8 7.6c.2.4.5.6.9.6.2 0 .3 0 .4-.1.5-.2.7-.8.4-1.3L34.7 30.2zM32.4 10H26c-.6 0-1-.4-1-1s.4-1 1-1h5.6l3.7-3.7c.4-.4 1-.4 1.4 0s.4 1 0 1.4L32.4 10zM22 10h-6.4l-4.3-4.3c-.4-.4-.4-1 0-1.4s1-.4 1.4 0L16.4 8H22c.6 0 1 .4 1 1S22.6 10 22 10z"/><path fill="#4e342e" d="M20.7 30.2c1 .5 2.1.8 3.3.8s2.3-.3 3.3-.8C26.6 29.4 25.5 29 24 29S21.4 29.4 20.7 30.2zM24 35c1.7 0 3.4-.4 4.9-1.2-.1-.7-.3-1.4-.5-2l-.1.1C27 32.6 25.5 33 24 33c-1.5 0-3-.4-4.3-1.1l-.1-.1c-.2.6-.4 1.3-.5 2C20.6 34.6 22.3 35 24 35zM24 37c-1.7 0-3.4-.4-5-1 0 0 0 0 0 0 0 .8.1 1.5.3 2.2 1.5.5 3.1.8 4.7.8s3.1-.3 4.7-.8c.2-.7.3-1.4.3-2.2 0 0 0 0 0 0C27.4 36.6 25.7 37 24 37zM28.2 39.5c-.2.4-.4.8-.7 1.1C26.3 40.9 25.2 41 24 41s-2.3-.1-3.5-.4c1 1.5 2.4 2.4 3.5 2.4C25.3 43 27.1 41.6 28.2 39.5zM24 18c-1.4 0-2.7 1-2.9 2.4 0 0 0 0 0 0 .7 0 1.3-.1 1.9-.2.4-.1.8-.2 1-.2s.6.1 1 .2c.6.1 1.2.2 1.9.2 0 0 0 0 0 0C26.7 19 25.4 18 24 18z"/><path fill="#4e342e" d="M24 16c-.3 0-.7.1-1 .1V19h2v-2.9C24.7 16.1 24.3 16 24 16zM26.1 5.9c0 .3.1.6.1.9C26.6 7.1 27 7.5 27.3 8L28 8c-.1-.5-.2-.9-.4-1.3-.2-.4-.4-.8-.6-1.2-.5-.7-1.2-1.3-2-1.5C25.6 4.5 25.9 5.2 26.1 5.9zM21.9 6.8c0-.3 0-.6.1-.9C22.1 5.2 22.4 4.5 23 4c-.8.2-1.5.8-2 1.5-.2.4-.5.8-.6 1.2C20.2 7.1 20.1 7.5 20 8l.7 0C21 7.5 21.4 7.1 21.9 6.8z"/><path d="M22 12c0 .6-.4 1-1 1s-1-.4-1-1 .4-1 1-1S22 11.4 22 12zM28 12c0 .6-.4 1-1 1s-1-.4-1-1 .4-1 1-1S28 11.4 28 12z"/></svg>