<?xml version="1.0" encoding="utf-8"?>
<!-- Generator: Adobe Illustrator 20.0.0, SVG Export Plug-In . SVG Version: 6.00 Build 0)  -->
<svg version="1.1" id="Layer_1" xmlns="http://www.w3.org/2000/svg" xmlns:xlink="http://www.w3.org/1999/xlink" x="0px" y="0px"
	 viewBox="0 0 200 200" style="enable-background:new 0 0 200 200;" xml:space="preserve">
<style type="text/css">
	.st0{fill:#D50000;stroke:#590000;stroke-width:3;stroke-miterlimit:10;}
	.st1{fill:#7FC731;stroke:#246901;stroke-width:3;stroke-miterlimit:10;}
	.st2{fill:#7FC731;stroke:#246901;stroke-linecap:round;stroke-miterlimit:10;}
	.st3{fill:none;stroke:#246901;stroke-linecap:round;stroke-miterlimit:10;}
	.st4{fill:#292F37;}
	.st5{fill:#577B1D;}
	.st6{fill:#AD2F26;}
	.st7{fill:#264415;}
	.st8{fill:#539243;}
	.st9{fill:#7F415B;}
	.st10{fill:#246901;}
	.st11{fill:#FFFFFF;}
	.st12{fill:#8A1100;}
	.st13{fill:#5EC865;}
	.st14{fill:#007500;}
	.st15{fill:#FF3D50;}
	.st16{fill:none;stroke:#246901;stroke-linecap:round;stroke-linejoin:round;stroke-miterlimit:10;}
	.st17{fill:none;stroke:#FFFFFF;stroke-linecap:round;stroke-linejoin:round;stroke-miterlimit:10;}
	.st18{fill:#FF3D50;stroke:#CC3248;stroke-miterlimit:10;}
	.st19{fill:none;stroke:#007500;stroke-linecap:round;stroke-linejoin:round;stroke-miterlimit:10;}
	.st20{fill:none;stroke:#264415;stroke-linecap:round;stroke-linejoin:round;stroke-miterlimit:10;}
	.st21{fill:#528B1C;}
	.st22{fill:#20420B;}
	.st23{fill:#314773;}
	.st24{fill:#7389B5;}
	.st25{fill:#528B1C;stroke:#20420B;stroke-linecap:round;stroke-linejoin:round;stroke-miterlimit:10;}
	.st26{fill:none;stroke:#314773;stroke-linejoin:round;stroke-miterlimit:10;}
	.st27{fill:#00FFFF;}
	.st28{fill:#22B473;stroke:#184C28;stroke-width:3;stroke-linecap:round;stroke-linejoin:round;stroke-miterlimit:10;}
	.st29{fill:#2E368E;}
	.st30{fill:#9A0D90;}
	.st31{fill:#161542;}
	.st32{fill:#251749;}
	.st33{fill:none;stroke:#FBA954;stroke-linecap:round;stroke-linejoin:round;stroke-miterlimit:10;}
	.st34{fill:#61303F;}
	.st35{fill:#EEB683;}
	.st36{fill:#1B631A;}
	.st37{fill:#FBA954;}
	.st38{fill:#ECD8A1;}
	.st39{fill:#DC0900;stroke:#184C28;stroke-width:1.7008;stroke-miterlimit:10;}
	.st40{fill:none;stroke:#007500;stroke-width:2;stroke-linecap:round;stroke-miterlimit:10;}
	.st41{fill:#F10A00;stroke:#8A1100;stroke-miterlimit:10;}
	.st42{fill:none;stroke:#FFFFFF;stroke-linecap:round;stroke-miterlimit:10;}
	.st43{fill:none;stroke:#007500;stroke-width:3;stroke-linecap:round;stroke-miterlimit:10;}
	.st44{fill:#F10A00;}
	.st45{fill:#7389B5;stroke:#314773;stroke-miterlimit:10;}
	.st46{fill:none;stroke:#314773;stroke-miterlimit:10;}
	.st47{opacity:0.4;fill:#314773;}
	.st48{fill:#7389B5;stroke:#314773;stroke-linecap:round;stroke-linejoin:round;stroke-miterlimit:10;}
	.st49{fill:#8BA3CD;stroke:#314773;stroke-miterlimit:10;}
	.st50{fill:#5A7098;}
	.st51{fill:none;stroke:#FFFFFF;stroke-width:8;stroke-linecap:round;stroke-linejoin:round;stroke-miterlimit:10;}
	.st52{fill:#FF3D50;stroke:#AD2F26;stroke-miterlimit:10;}
	.st53{fill:#FF3D50;stroke:#CC3248;stroke-width:1.058;stroke-miterlimit:10;}
	.st54{fill:#539243;stroke:#246901;stroke-width:3;stroke-linejoin:round;stroke-miterlimit:10;}
	.st55{clip-path:url(#SVGID_2_);}
	.st56{fill:url(#SVGID_3_);}
	.st57{fill:none;stroke:#CC652B;stroke-width:1.4939;stroke-linecap:round;stroke-miterlimit:10;}
	.st58{fill:none;stroke:#CC652B;stroke-width:0.8407;stroke-miterlimit:10;}
	.st59{fill:#F9C153;}
	.st60{fill:#FC7351;stroke:#CC652B;stroke-width:3;stroke-miterlimit:10;}
	.st61{fill:none;stroke:#994A22;stroke-linecap:round;stroke-miterlimit:10;}
	.st62{fill:none;stroke:#F9C153;stroke-width:3;stroke-linecap:round;stroke-miterlimit:10;}
	.st63{opacity:0.8;fill:none;stroke:#F9C153;stroke-width:3;stroke-linecap:round;stroke-miterlimit:10;}
	.st64{opacity:0.6;fill:none;stroke:#F9C153;stroke-width:3;stroke-linecap:round;stroke-miterlimit:10;}
	.st65{opacity:0.4;fill:none;stroke:#F9C153;stroke-width:3;stroke-linecap:round;stroke-miterlimit:10;}
	.st66{opacity:0.2;fill:none;stroke:#F9C153;stroke-width:3;stroke-linecap:round;stroke-miterlimit:10;}
	.st67{fill:none;stroke:#994A22;stroke-width:3;stroke-miterlimit:10;}
	.st68{fill:#7FC731;stroke:#246901;stroke-width:3;stroke-linecap:round;stroke-linejoin:round;stroke-miterlimit:10;}
	.st69{fill:none;stroke:#ADD980;stroke-linecap:round;stroke-linejoin:round;stroke-miterlimit:10;}
	.st70{fill:#FC7351;}
	.st71{fill:#F8B05C;}
	.st72{fill:#F8A15A;}
	.st73{fill:#F99259;}
	.st74{fill:#F98357;}
	.st75{fill:#994A22;}
	.st76{fill:#7FC731;}
	.st77{fill:#ADD980;}
	.st78{fill:#F8B413;stroke:#7A4100;stroke-width:6;stroke-miterlimit:10;}
	.st79{fill:#487E41;stroke:#123C08;stroke-width:3;stroke-linecap:round;stroke-miterlimit:10;}
	.st80{opacity:0.8;fill:none;stroke:#FFFFFF;stroke-linecap:round;stroke-miterlimit:10;}
	.st81{fill:none;stroke:#123C08;stroke-linecap:round;stroke-miterlimit:10;}
	.st82{opacity:0.8;fill:#FFFFFF;}
	.st83{fill:#F8B413;stroke:#7A4100;stroke-miterlimit:10;}
	.st84{opacity:0.7;fill:none;stroke:#FFFFFF;stroke-linecap:round;stroke-miterlimit:10;}
	.st85{fill:none;stroke:#7A4100;stroke-linecap:round;stroke-miterlimit:10;}
	.st86{opacity:0.7;fill:none;stroke:#AD2F26;stroke-width:3;stroke-linecap:round;stroke-miterlimit:10;}
	.st87{opacity:0.5;fill:none;stroke:#AD2F26;stroke-width:3;stroke-linecap:round;stroke-miterlimit:10;}
	.st88{opacity:0.3;fill:none;stroke:#AD2F26;stroke-width:3;stroke-linecap:round;stroke-miterlimit:10;}
	.st89{opacity:0.1;fill:none;stroke:#AD2F26;stroke-width:3;stroke-linecap:round;stroke-miterlimit:10;}
	.st90{opacity:0.7;fill:#FFFFFF;}
	.st91{fill:#487E41;}
	.st92{fill:#123C08;}
	.st93{fill:#DAE5D9;}
	.st94{fill:#F8B413;}
	.st95{fill:#FCE8BB;}
	.st96{fill:#C25729;}
	.st97{fill:#D1722A;}
	.st98{fill:#E08B2C;}
	.st99{fill:#EFA62E;}
	.st100{fill:#7A4100;}
</style>
<g>
	<path class="st91" d="M142.4,135.9c8.1-2.8,15.9-7.4,22.6-13.7c36.3-34.3,30-95.3,25.6-100c-4.4-4.6-65-14.5-101.3,19.9
		c-2.5,2.4-4.8,4.9-6.8,7.5L142.4,135.9z"/>
	<path class="st92" d="M81.1,43.7c1.5-1.8,3.2-3.5,4.9-5.2c20.4-19.3,47-24.7,65.7-25.9c18.8-1.2,38.2,1.7,42.5,6.2
		c4.3,4.5,6,24.1,3.8,42.8c-2.2,18.6-9.2,44.8-29.6,64.1c-6.6,6.3-14.3,11-22.5,14.1l-0.3-10.4c5.8-2.6,11.2-6.2,16.1-10.8
		c17.8-16.8,24.2-40,26.4-56.4c2-14.7,1-27-0.1-33.2c-0.4-2.2-2.1-4-4.3-4.6c-6.1-1.5-18.3-3.1-33.1-2c-16.5,1.3-40,6.3-57.8,23.1
		L81.1,43.7z"/>
	<path class="st93" d="M98.3,53.1c-0.4,0-0.9-0.2-1.2-0.5c-0.6-0.7-0.6-1.7,0.1-2.3c5-4.7,10.8-8.7,17.4-11.9
		c0.8-0.4,1.8-0.1,2.2,0.7c0.4,0.8,0.1,1.8-0.7,2.2c-6.3,3.1-11.8,6.9-16.6,11.3C99.1,53,98.7,53.1,98.3,53.1z"/>
	<path class="st93" d="M139.8,33.8c-0.8,0-1.5-0.6-1.6-1.3c-0.2-0.9,0.4-1.7,1.3-1.9c1.8-0.3,3.6-0.6,5.5-0.8
		c0.9-0.1,1.7,0.5,1.8,1.4c0.1,0.9-0.5,1.7-1.4,1.8c-1.8,0.2-3.6,0.5-5.3,0.8C140,33.7,139.9,33.8,139.8,33.8z"/>
	<path class="st92" d="M157.1,114.7c-0.2-0.9-1.1-1.4-2-1.2c-3.1,0.7-6.2,1.2-9.3,1.4c0.3,1,0.4,2.2,0.2,3.3
		c3.3-0.3,6.5-0.8,9.8-1.5C156.7,116.4,157.3,115.6,157.1,114.7z"/>
	<path class="st92" d="M121.3,69.1c0.9-9.6,3.6-21.6,10.5-32.8c0.5-0.8,0.2-1.8-0.5-2.2c-0.8-0.5-1.8-0.2-2.2,0.5
		c-6.6,10.7-9.5,22-10.7,31.5C119.7,66.7,120.7,67.8,121.3,69.1z"/>
	<path class="st92" d="M175.3,80.9c-0.4-0.8-1.4-1.1-2.2-0.7c-13.2,7-27.1,8.6-37.4,8.5c0.7,1,1.1,2.1,1.2,3.3
		c10.4,0,24.3-1.8,37.7-8.9C175.4,82.7,175.7,81.7,175.3,80.9z"/>
	<path class="st92" d="M178.7,56.6c-0.4-0.9-1.6-1.2-2.4-0.6c-12.4,8.6-21.9,9.9-27.2,9.8c-0.8,0-1.2-1-0.6-1.6l29.6-28
		c0.7-0.7,0.7-1.9-0.1-2.5c-0.6-0.5-1.6-0.4-2.2,0.2l-29.5,27.9c-0.6,0.6-1.6,0.1-1.5-0.7c0-1.1,0.1-2.3,0.3-3.6
		c0.8-5,3.4-13.1,11.1-22.9c0.5-0.6,0.5-1.6,0-2.2c-0.7-0.8-1.9-0.7-2.5,0.1C143,46,141.4,56.6,141.5,62.3c0.1,2.5-1,4.9-2.8,6.6
		l-10.2,9.6c0.9,0.6,1.6,1.5,2.1,2.5l10.2-9.6c1.8-1.7,4.3-2.6,6.8-2.4c0.7,0.1,1.5,0.1,2.4,0.1c6,0,15.7-1.8,28-10.3
		C178.8,58.3,179.1,57.4,178.7,56.6z"/>
	<circle class="st93" cx="166.7" cy="30.5" r="1.6"/>
	<path class="st94" d="M58.8,45.1C80.8,33.5,108,53.4,124.6,73c32.8,38.8,21.7,86.5,12.7,95.5l0,0c-9,9-56.7,20.2-95.5-12.7
		C22.2,139.2,3,112.3,13.9,90c8.2-16.8,27.6-17.4,27.6-17.4S42.5,53.7,58.8,45.1z"/>
	<path class="st95" d="M27.1,118.9c-0.6,0-1.2-0.4-1.5-1c-1-2.1-1.7-4.2-2.3-6.1c-0.2-0.9,0.3-1.8,1.1-2c0.9-0.2,1.8,0.3,2,1.1
		c0.5,1.8,1.2,3.7,2.1,5.7c0.4,0.8,0,1.8-0.8,2.2C27.5,118.8,27.3,118.9,27.1,118.9z"/>
	<path class="st95" d="M23.8,106c-0.9,0-1.6-0.7-1.6-1.6c-0.1-3.4,0.6-6.6,2-9.4c1.7-3.5,4.5-6.3,8.2-8.2c0.8-0.4,1.8-0.1,2.2,0.7
		c0.4,0.8,0.1,1.8-0.7,2.2c-3.1,1.6-5.4,3.9-6.8,6.8c-1.2,2.4-1.7,5-1.6,8C25.4,105.3,24.7,106,23.8,106C23.8,106,23.8,106,23.8,106
		z"/>
	<path class="st95" d="M70.8,77.6c-0.3,0-0.6-0.1-0.8-0.2c-4.1-2.5-8.2-4.5-12.2-6c-0.8-0.3-1.3-1.2-1-2.1c0.3-0.8,1.2-1.3,2.1-1
		c4.2,1.5,8.5,3.6,12.8,6.3c0.8,0.5,1,1.5,0.5,2.2C71.9,77.4,71.4,77.6,70.8,77.6z"/>
	<path class="st96" d="M57.7,166.7c9.4,5.1,18.9,8.2,28,9.8h31.8c9.7-1.8,16.9-5,19.9-8l0,0c0.5-0.5,1-1.1,1.5-1.8H57.7z"/>
	<path class="st97" d="M143.2,156.9H43.2c4.7,3.9,9.6,7.1,14.5,9.8h81.1C140.4,164.4,141.9,161.1,143.2,156.9z"/>
	<path class="st98" d="M145.5,147.2H32.6c3,3.1,6.1,6,9.2,8.6c0.4,0.4,0.9,0.7,1.3,1.1h100.1C144.2,154.1,145,150.8,145.5,147.2z"/>
	<path class="st99" d="M146.6,137.4H24.3c2.6,3.4,5.4,6.7,8.3,9.8h112.9C146,144.1,146.4,140.9,146.6,137.4z"/>
	<circle class="st95" cx="41.9" cy="85.3" r="1.6"/>
	<path class="st100" d="M151.8,137.3c-1.7,0.8-3.6-0.4-3.6-2.3c0.4-18.9-4.8-42.3-22.4-63.1c-9.6-11.3-20.7-20.6-31.4-26.1
		c-2.6-1.3-5.1-2.4-7.6-3.3c-1.7-0.6-2.2-2.8-0.9-4.1c0,0,0,0,0,0c1.3-1.2,2.6-2.3,3.9-3.4c-12.9-4.6-25.1-4.2-35.7,1.4
		c-10.2,5.4-15.7,13.7-18.8,20.9c-1.7,4.1-4.9,7.2-9,8.9c-7.5,3-16,8.7-21.3,19.5c-6.3,12.9-5.4,28,2.6,43.7
		c5.9,11.7,15.8,23.7,27.8,33.8c23.4,19.8,48.3,24.2,65.1,24.3c0.4,0,0.7,0,1.1,0c17.7,0,34.3-4.6,41.9-11.7l0.6-0.6
		c7.1-7.1,11.9-23.2,12.2-40.6C154.9,135.7,153.4,136.5,151.8,137.3z M123.4,74.1c17.6,20.8,21.5,43,21.7,57.9
		c0.2,18-5,31.5-8.8,35.4l-0.1,0.1c-3.8,3.8-17.3,9.1-35.4,8.9c-14.9-0.2-37.1-4-57.9-21.7C23.7,138.4,5,111.9,15.4,90.7
		c1.5-3,3.3-5.5,5.4-7.5c7.2-7.1,17.9-9.3,27.6-6.3c10.5,3.2,22.4,10.6,33,21.2c4.7,4.7,8.8,9.6,12.2,14.8c0.3,0.5,0.8,0.7,1.4,0.7
		c0.4,0,0.7-0.1,1-0.4c0.7-0.5,0.7-1.5,0.3-2.2c-3.6-5.3-7.8-10.4-12.6-15.2C71.8,83.9,58.2,76.1,46.4,73.2
		c-1.9-0.5-3.2-2.4-2.7-4.4c1.2-5.8,5-16.5,15.9-22.3C80.2,35.6,106.9,54.5,123.4,74.1z"/>
</g>
</svg>
