<?xml version="1.0" encoding="utf-8"?>
<!-- Generator: Adobe Illustrator 20.0.0, SVG Export Plug-In . SVG Version: 6.00 Build 0)  -->
<svg version="1.1" id="Layer_1" xmlns="http://www.w3.org/2000/svg" xmlns:xlink="http://www.w3.org/1999/xlink" x="0px" y="0px"
	 viewBox="0 0 500 500" style="enable-background:new 0 0 500 500;" xml:space="preserve">
<style type="text/css">
	.st0{fill:#709638;}
	.st1{display:none;fill:#D1A982;}
	.st2{fill:#ECE8DB;}
	.st3{fill:#5B3A03;}
	.st4{fill:#719E7F;stroke:#667F40;stroke-width:3;stroke-linecap:round;stroke-linejoin:round;stroke-miterlimit:10;}
	.st5{fill:#719E7F;stroke:#667F40;stroke-linecap:round;stroke-linejoin:round;stroke-miterlimit:10;}
	.st6{fill:none;stroke:#667F40;stroke-width:3;stroke-linecap:round;stroke-miterlimit:10;}
	.st7{fill:#4D6261;}
	.st8{fill:#ECE8DB;stroke:#5B3A03;stroke-width:3;stroke-miterlimit:10;}
	.st9{fill:#BCE680;}
	.st10{fill:none;stroke:#F0FDC5;stroke-linecap:round;stroke-linejoin:round;stroke-miterlimit:10;}
	.st11{fill:#8DC70C;}
	.st12{fill:#ECFE78;}
	.st13{fill:#73953B;}
	.st14{fill:#3D710C;}
	.st15{fill:#73953B;stroke:#3D710C;stroke-width:3;stroke-linejoin:round;stroke-miterlimit:10;}
	.st16{fill:#EFE8D7;stroke:#DABB95;stroke-width:3;stroke-linejoin:round;stroke-miterlimit:10;}
	.st17{opacity:0.6;fill:none;stroke:#BF71B0;stroke-width:3;stroke-miterlimit:10;}
	.st18{opacity:0.4;fill:none;stroke:#BF71B0;stroke-width:3;stroke-miterlimit:10;}
	.st19{opacity:0.3;fill:none;stroke:#BF71B0;stroke-width:3;stroke-miterlimit:10;}
	.st20{opacity:0.2;fill:none;stroke:#BF71B0;stroke-width:3;stroke-miterlimit:10;}
	.st21{opacity:0.1;fill:none;stroke:#BF71B0;stroke-width:3;stroke-miterlimit:10;}
	.st22{fill:#77A45B;}
	.st23{fill:none;stroke:#FFFFFF;stroke-linecap:round;stroke-linejoin:round;stroke-miterlimit:10;}
	.st24{fill:#00FFFF;}
	.st25{fill:#E50F4F;}
	.st26{fill:#5A8700;}
	.st27{fill:#9D9F01;}
	.st28{fill:none;stroke:#BFBF04;stroke-linecap:round;stroke-linejoin:round;stroke-miterlimit:10;}
	.st29{fill:none;stroke:#CAD058;stroke-linecap:round;stroke-linejoin:round;stroke-miterlimit:10;}
	.st30{fill:#E21039;stroke:#930019;stroke-width:3;stroke-linejoin:round;stroke-miterlimit:10;}
	.st31{fill:#77A45B;stroke:#3D710C;stroke-linecap:round;stroke-linejoin:round;stroke-miterlimit:10;}
	.st32{fill:none;stroke:#77A45B;stroke-width:3;stroke-miterlimit:10;}
	.st33{opacity:0.5;fill:none;stroke:#FFFFFF;stroke-width:3;stroke-linejoin:round;stroke-miterlimit:10;}
	.st34{opacity:0.7;fill:none;stroke:#FFFFFF;stroke-width:3;stroke-linejoin:round;stroke-miterlimit:10;}
	.st35{opacity:0.9;fill:none;stroke:#FFFFFF;stroke-width:3;stroke-linejoin:round;stroke-miterlimit:10;}
	.st36{opacity:0.3;fill:none;stroke:#FFFFFF;stroke-width:3;stroke-linejoin:round;stroke-miterlimit:10;}
	.st37{opacity:0.2;fill:none;stroke:#FFFFFF;stroke-width:3;stroke-linejoin:round;stroke-miterlimit:10;}
	.st38{fill:#E21039;}
	.st39{fill:#930019;}
	.st40{fill:#F4E5E8;}
	.st41{fill:#DEB2BA;}
	.st42{fill:#C8818D;}
	.st43{fill:#B14D5F;}
	.st44{fill:#FFFFFF;}
	.st45{fill:#EFE8D7;}
	.st46{fill:#8C7662;}
	.st47{fill:#E50F4F;stroke:#930019;stroke-width:3;stroke-linejoin:round;stroke-miterlimit:10;}
	.st48{fill:none;stroke:#E87C94;stroke-width:3;stroke-linejoin:round;stroke-miterlimit:10;}
	.st49{fill:none;stroke:#E64872;stroke-width:3;stroke-linejoin:round;stroke-miterlimit:10;}
	.st50{fill:none;stroke:#EBB2B6;stroke-width:3;stroke-linejoin:round;stroke-miterlimit:10;}
	.st51{fill:none;stroke:#930019;stroke-width:3;stroke-linejoin:round;stroke-miterlimit:10;}
	.st52{fill:#E87C94;}
	.st53{fill:#E64872;}
	.st54{fill:#EBB2B6;}
	.st55{opacity:0.7;fill:none;stroke:#E50F4F;stroke-width:3;stroke-linejoin:round;stroke-miterlimit:10;}
	.st56{opacity:0.6;fill:none;stroke:#E50F4F;stroke-width:3;stroke-linejoin:round;stroke-miterlimit:10;}
	.st57{opacity:0.4;fill:none;stroke:#E50F4F;stroke-width:3;stroke-linejoin:round;stroke-miterlimit:10;}
	.st58{opacity:0.3;fill:none;stroke:#E50F4F;stroke-width:3;stroke-linejoin:round;stroke-miterlimit:10;}
	.st59{opacity:0.2;fill:none;stroke:#E50F4F;stroke-width:3;stroke-linejoin:round;stroke-miterlimit:10;}
	.st60{opacity:0.1;fill:none;stroke:#E50F4F;stroke-width:3;stroke-linejoin:round;stroke-miterlimit:10;}
	.st61{fill:none;stroke:#DABB95;stroke-width:3;stroke-linejoin:round;stroke-miterlimit:10;}
	.st62{fill:#77A45B;stroke:#3D710C;stroke-width:0.9521;stroke-linecap:round;stroke-linejoin:round;stroke-miterlimit:10;}
	.st63{fill:#DABB95;}
	.st64{fill:#E76886;}
	.st65{fill:#E87D94;}
	.st66{fill:#E992A2;}
	.st67{fill:#EBA7AF;}
	.st68{fill:#ECBDBD;}
	.st69{fill:#EDD2CA;}
	.st70{opacity:0.6;fill:#BF71B0;}
	.st71{opacity:0.5;fill:#BF71B0;}
	.st72{opacity:0.4;fill:#BF71B0;}
	.st73{opacity:0.3;fill:#BF71B0;}
	.st74{opacity:0.2;fill:#BF71B0;}
	.st75{fill:#FCD24F;stroke:#BA8822;stroke-width:3;stroke-linejoin:round;stroke-miterlimit:10;}
	.st76{opacity:0.9;fill:none;stroke:#732429;stroke-width:3;stroke-miterlimit:10;}
	.st77{opacity:0.8;fill:none;stroke:#732429;stroke-width:3;stroke-miterlimit:10;}
	.st78{opacity:0.7;fill:none;stroke:#732429;stroke-width:3;stroke-miterlimit:10;}
	.st79{opacity:0.6;fill:none;stroke:#732429;stroke-width:3;stroke-miterlimit:10;}
	.st80{opacity:0.5;fill:none;stroke:#732429;stroke-width:3;stroke-miterlimit:10;}
	.st81{opacity:0.4;fill:none;stroke:#732429;stroke-width:3;stroke-miterlimit:10;}
	.st82{fill:none;stroke:#BA8822;stroke-width:3;stroke-linejoin:round;stroke-miterlimit:10;}
	.st83{fill:#FCD24F;}
	.st84{fill:#BA8822;}
	.st85{fill:#80352F;}
	.st86{fill:#8D4734;}
	.st87{fill:#9B5838;}
	.st88{fill:#A96A3D;}
	.st89{fill:#B77A42;}
	.st90{fill:#C48B47;}
	.st91{fill:#5B774B;}
	.st92{fill:none;stroke:#ECFE78;stroke-linecap:round;stroke-linejoin:round;stroke-miterlimit:10;}
	.st93{fill:none;stroke:#5B774B;stroke-miterlimit:10;}
	.st94{fill:none;stroke:#ECFE78;stroke-linecap:round;stroke-miterlimit:10;}
	.st95{fill:none;stroke:#5B774B;stroke-linejoin:round;stroke-miterlimit:10;}
	.st96{fill:none;stroke:#89A037;stroke-linecap:round;stroke-linejoin:round;stroke-miterlimit:10;}
	.st97{fill:none;stroke:#89A037;stroke-width:3;stroke-linecap:round;stroke-linejoin:round;stroke-miterlimit:10;}
	.st98{fill:none;stroke:#89A037;stroke-width:3.3343;stroke-linecap:round;stroke-linejoin:round;stroke-miterlimit:10;}
	.st99{fill:#F0FDC5;}
	.st100{fill:#839958;}
	.st101{fill:#AA2F66;}
	.st102{fill:#D8CBC5;}
	.st103{fill:#662128;}
	.st104{fill:#BCE680;stroke:#5B774B;stroke-width:3.1491;stroke-miterlimit:10;}
	.st105{fill:#ECE8DB;stroke:#5B3A03;stroke-miterlimit:10;}
	.st106{fill:none;stroke:#00FF00;stroke-miterlimit:10;}
	.st107{fill:none;stroke:#00FF00;stroke-width:1.0757;stroke-miterlimit:10;}
	.st108{clip-path:url(#SVGID_2_);}
	.st109{fill:none;stroke:#000000;stroke-miterlimit:10;}
	.st110{fill:none;stroke:#000000;stroke-width:1.16;stroke-miterlimit:10;}
	.st111{fill:#7AA66D;}
	.st112{fill:#8BC133;}
	.st113{fill:none;stroke:#000000;stroke-width:0.9135;stroke-miterlimit:10;}
	.st114{fill:none;stroke:#000000;stroke-width:5.9645;stroke-miterlimit:10;}
	.st115{fill:none;stroke:#000000;stroke-width:1.9086;stroke-linecap:round;stroke-linejoin:round;stroke-miterlimit:10;}
	.st116{fill:none;stroke:#4D6261;stroke-width:0.9577;stroke-linecap:round;stroke-linejoin:round;stroke-miterlimit:10;}
	.st117{fill:#7AA66D;stroke:#4D6261;stroke-width:0.9577;stroke-miterlimit:10;}
	.st118{fill:none;stroke:#4D6261;stroke-width:0.9577;stroke-miterlimit:10;}
	.st119{fill:#D2DE8F;stroke:#667F40;stroke-width:3;stroke-miterlimit:10;}
	.st120{fill:none;stroke:#FAFAEE;stroke-linecap:round;stroke-miterlimit:10;}
	.st121{fill:#D2DE8F;}
	.st122{fill:none;stroke:#667F40;stroke-width:3;stroke-miterlimit:10;}
	.st123{fill:#77A578;}
	.st124{fill:#719E7F;}
	.st125{fill:#FAFAEE;}
	.st126{fill:#667F40;}
	.st127{fill:#ECE8DB;stroke:#5B3A03;stroke-width:0.9644;stroke-miterlimit:10;}
	.st128{fill:#7AA66D;stroke:#4D6261;stroke-width:3.6;stroke-linecap:round;stroke-linejoin:round;stroke-miterlimit:10;}
	.st129{fill:none;stroke:#D2DE8F;stroke-miterlimit:10;}
	.st130{fill:none;stroke:#4D6261;stroke-width:3.6;stroke-linecap:round;stroke-linejoin:round;stroke-miterlimit:10;}
	.st131{fill:#ECE8DB;stroke:#5B3A03;stroke-linecap:round;stroke-linejoin:round;stroke-miterlimit:10;}
	.st132{fill:#FAD673;}
	.st133{fill:#CE731F;}
	.st134{fill:#D15CD4;}
	.st135{fill:#701975;}
	.st136{fill:#009245;stroke:#006837;stroke-width:3;stroke-miterlimit:10;}
	.st137{fill:#009245;stroke:#006837;stroke-width:3;stroke-linecap:round;stroke-linejoin:round;stroke-miterlimit:10;}
	.st138{fill:none;stroke:#B8CC69;stroke-width:3;stroke-miterlimit:10;}
	.st139{fill:#4E6624;stroke:#314217;stroke-width:3;stroke-miterlimit:10;}
	.st140{fill:none;stroke:#314217;stroke-miterlimit:10;}
	.st141{fill:#4E6624;}
	.st142{fill:#709638;stroke:#3B7000;stroke-width:3;stroke-linecap:round;stroke-linejoin:round;stroke-miterlimit:10;}
	.st143{fill:#709638;stroke:#3B7000;stroke-linecap:round;stroke-linejoin:round;stroke-miterlimit:10;}
	.st144{fill:#92C057;}
	.st145{fill:#3B7000;}
	.st146{fill:#325900;}
</style>
<path class="st0" d="M271,485.6c-0.4,0-0.7,0-1-0.1c-0.3,0-0.9-0.1-1.5-0.2c-5-1-9-4.3-10.9-9.1l-23.9-61.7
	c-22.1-16.7-52.9-28.5-74.5-36c-10.8-3.8-21.9-8.2-33-13.1c-27.5-12.2-83.8-48-71.8-75.2c3.9-8.8,13.6-13.2,28.9-13.2
	c19.4,0,47,6.7,67.4,13.2c-7.2-13.3-20.4-23.9-37.1-29.6c-10.3-3.5-20.9-7.6-31.5-12.3c-25.1-11.1-73.4-42-62.5-66.7
	c3.6-8.1,12.2-12.1,25.8-12.1c20.5,0,51.2,8.9,62.7,12.5c-4.2-13-14.2-23.6-27.4-29c-1.7-0.7-3.8-1.8-6.1-3c-1.4-0.7-3-1.6-3.8-1.9
	c-16-7.1-55.4-30.2-45.8-51.9c3.3-7.4,11.3-11.2,23.8-11.2c12,0,26.8,3.2,38.5,7.1c-6-42.5-7.8-68.8,8.2-74.9c1.9-0.7,3.9-1.1,6-1.1
	c12.7,0,25.3,12.5,50.7,50.9c4.1-7.2,9.1-14.7,14.3-21c10.5-12.9,19.7-19.1,28-19.1c2.3,0,4.5,0.5,6.5,1.4
	c11.7,5.2,12.7,20.1,11.5,31.8c-1.2,11.6-5,25.3-10.4,37.5c-0.3,0.8-1,2.4-1.5,3.9c-0.9,2.4-1.7,4.6-2.5,6.3
	c-6.1,12.9-6.4,27.4-0.7,39.9c4.4-7.6,13.9-23.2,24.5-36.5c13.5-17.1,23.8-24.7,33.6-24.7c2.5,0,4.9,0.5,7.1,1.5
	c10.9,4.8,15.1,18.5,12.6,40.7c-1.1,9.8-3.5,20.6-6.7,31.1c2-4.1,5-7.1,8.9-8.8c2.1-0.9,4.3-1.4,6.6-1.4c8.8,0,17.9,6.6,29.5,21.3
	c7.5,9.5,14.4,20.4,18.6,27.4c3-9,2.4-19.1-2-28.2c-0.7-1.4-1.4-3.4-2.1-5.4c-0.4-1.2-1-2.6-1.2-3.2c-7.6-17.2-17-51.8,1.9-60.1
	c1.9-0.9,4-1.3,6.2-1.3c13.5,0,27.5,18.7,35.4,31.9c20.5-30.7,31.2-40.8,42.2-40.8c1.9,0,3.8,0.3,5.6,1c14.2,5.5,13.1,26.9,8.4,61.5
	c9.4-2.9,20.6-5.1,29.9-5.1c11.2,0,18.5,3.5,21.6,10.4c8.3,18.8-21.9,38.1-39.1,45.7c-0.6,0.3-1.9,1-3,1.5c-1.9,1-3.7,1.9-5.2,2.5
	c-9.3,3.8-16.6,10.8-20.4,19.6c12.3-3.7,33.7-9.4,49.1-9.4c12.1,0,19.9,3.8,23.2,11.2c4.4,9.9-0.9,21.4-15.5,34.3
	c-10.2,9-24.3,17.9-37.5,23.7c-8.9,3.9-17.8,7.4-26.4,10.3c-11.7,3.9-21.2,10.9-27.3,19.6c16.5-5,37.1-9.6,52-9.6
	c13.6,0,22.2,4.1,25.8,12.1c10.7,24.1-36.3,54.3-60.8,65.1c-9.3,4.1-18.6,7.8-27.7,11c-17.7,6.2-43,15.8-61.1,29.4L285.6,473
	c-0.7,5.2-4.1,9.7-9.2,11.7c-1.3,0.5-2.7,0.8-4.1,0.9c-0.4,0-0.8,0.1-1.2,0.1C271.1,485.6,271.1,485.6,271,485.6z M271.6,431.7
	l6.2-16.1c-1.9-10-5.5-21-11-33.6c-2.7,7.8-4.6,15.1-5.9,22L271.6,431.7z M266.2,166.6c-1.5,4.3-3.2,8.6-5,12.6
	c-4.7,10.6-9.8,20.8-15,30.3c-5,9.1-8,18.6-8.9,28c0.2-0.1,0.5-0.2,0.7-0.3c2.2-1,4.6-1.5,7-1.5c1.9,0,3.9,0.3,5.9,0.9
	c5.3-8,12.4-17.8,19.8-26.3c-3-10.5-5-21.1-5.4-29.8C265.1,175.2,265.4,170.5,266.2,166.6z M97.4,95.9C97.4,96,97.4,96,97.4,95.9z
	 M147.4,76.6C147.4,76.6,147.4,76.6,147.4,76.6C147.4,76.6,147.4,76.6,147.4,76.6z"/>
<path class="st0" d="M414.1,102.3c-8.1-3.1-23.9,19-39,42.2c0,0-3.6,5.7-5.7,5.7c-2,0-3.6-3.3-3.6-3.3c-6.8-15.5-24.8-39-32.6-35.6
	c-7.8,3.4-4.4,26.9,3.8,45.5c0.9,1.9,2.3,6.4,3.2,8.3c6.2,13,6.6,28.1,0.6,41.2c-1,2.1-3.3,5.6-6,6.1c-3.7,0.6-7.7-1-9.5-4
	c-11.3-19.5-33-51.9-43.4-47.4c-10.4,4.6-5.1,39.2,5.9,63.9c3.9,8.8,8,17,12.1,24.5c8.8,15.9,11.7,35.1,5.2,52
	c-0.7,1.8-2.1,4.4-5.3,4.7c-3.5,0.3-5.6-1.4-6.9-3.7c-12.8-23.3-38.4-60.4-50.4-55.1c-12,5.3-5.9,45.6,6.8,74.4
	c4.1,9.2,8.4,17.9,12.7,25.9c11.4,20.9,23.5,46.1,27.3,69.6l5.1,2c18.6-14.8,44.4-25.3,66.9-33.1c8.6-3,17.6-6.5,26.8-10.6
	c28.8-12.7,60.4-38.4,55.1-50.4c-5.3-12-49.2-1.8-74.4,6.8c-2.5,0.9-5.2,0.7-7.6-1.9c-2.2-2.4-1.5-5.2-0.8-7.1
	c6.6-16.9,21.6-29.2,38.8-35c8.1-2.7,16.7-6.1,25.5-10c24.7-10.9,51.9-33,47.4-43.4c-4.6-10.4-42.5-1-63.9,5.9
	c-3.3,1.1-7.4-0.4-9.7-3.4c-1.7-2.2-1.1-6.3-0.4-8.5c4.4-13.7,14.8-24.6,28.1-30.1c1.9-0.8,6-3.1,8-4c18.6-8.2,36.8-23.3,33.4-31.1
	c-3.4-7.8-32.6-2.4-48.1,4.4c0,0-3.4,1.4-4.9,0.1c-1.6-1.5-0.7-6.1-0.4-8.1C417.3,139.2,422.1,105.4,414.1,102.3z"/>
<path class="st0" d="M99.6,27.6c9.7-3.7,28.6,22.9,46.8,50.7c0,0,4.3,6.9,6.9,6.8c2.4,0,4.3-4,4.3-4c8.2-18.6,29.8-46.9,39.1-42.7
	c9.3,4.1,5.3,32.3-4.6,54.6c-1,2.3-2.8,7.7-3.9,10c-7.4,15.6-7.9,33.7-0.7,49.4c1.2,2.5,4,6.7,7.3,7.3c4.5,0.7,9.3-1.2,11.4-4.8
	c13.5-23.4,39.6-62.4,52.1-56.9c12.4,5.5,6.1,47.1-7,76.8c-4.7,10.6-9.6,20.5-14.6,29.4c-10.6,19.1-14.1,42.1-6.2,62.5
	c0.9,2.2,2.5,5.3,6.4,5.6c4.2,0.4,6.7-1.7,8.2-4.4c15.4-28,46.1-72.6,60.6-66.2c14.5,6.4,7.1,54.8-8.2,89.3
	c-4.9,11.1-10,21.5-15.2,31.1c-13.6,25.1-28.2,55.3-32.8,83.5l-6.1,2.4c-22.3-17.8-53.4-30.4-80.3-39.8
	c-10.3-3.6-21.1-7.8-32.2-12.8c-34.6-15.3-72.6-46.1-66.2-60.6c6.4-14.5,59.1-2.2,89.3,8.2c3,1,6.3,0.9,9.1-2.3
	c2.6-2.9,1.8-6.3,0.9-8.5c-7.9-20.3-26-35.1-46.6-42c-9.7-3.3-20-7.3-30.6-12c-29.7-13.1-62.4-39.6-56.9-52.1
	c5.5-12.4,51-1.2,76.8,7c4,1.3,8.9-0.5,11.7-4c2.1-2.6,1.3-7.6,0.5-10.3c-5.2-16.5-17.8-29.5-33.8-36.1c-2.3-0.9-7.2-3.7-9.6-4.8
	c-22.3-9.9-44.2-28-40.1-37.3c4.1-9.3,39.1-2.9,57.7,5.3c0,0,4.1,1.7,5.8,0.1c2-1.8,0.8-7.3,0.5-9.7C95.7,71.9,89.9,31.3,99.6,27.6z
	"/>
<path class="st44" d="M395.1,142.6c-0.7,0-1.5-0.2-2.1-0.7c-1.7-1.2-2.1-3.5-0.9-5.1c1.9-2.8,3.7-5.3,5.4-7.5c1.2-1.6,3.5-2,5.2-0.8
	c1.6,1.2,2,3.5,0.8,5.2c-1.6,2.2-3.4,4.6-5.3,7.3C397.4,142,396.3,142.6,395.1,142.6z"/>
<path class="st44" d="M101.9,211.3c-0.4,0-0.8-0.1-1.1-0.2c-6.1-1.9-12.2-3.7-18.2-5.3c-2-0.5-3.2-2.5-2.6-4.5
	c0.5-2,2.5-3.2,4.5-2.6c6.2,1.6,12.4,3.4,18.6,5.4c1.9,0.6,3,2.7,2.4,4.6C104.9,210.3,103.5,211.3,101.9,211.3z"/>
<path class="st44" d="M137.5,317.2c-0.4,0-0.7,0-1.1-0.2c-15.4-4.6-30.8-8-42.4-9.4c-2-0.2-3.5-2.1-3.2-4.1s2.1-3.5,4.1-3.2
	c12,1.4,27.9,5,43.7,9.7c2,0.6,3.1,2.6,2.5,4.6C140.6,316.2,139.1,317.2,137.5,317.2z"/>
<path class="st44" d="M86.8,123.5c-0.5,0-1-0.1-1.5-0.3c-6.1-2.7-14.6-5.2-22.9-6.8c-2-0.4-3.3-2.3-2.9-4.3c0.4-2,2.3-3.3,4.3-2.9
	c8.8,1.7,17.9,4.4,24.5,7.3c1.9,0.8,2.7,3,1.9,4.9C89.6,122.7,88.2,123.5,86.8,123.5z"/>
<path class="st144" d="M396.4,166.1c1.3-3.3-0.4-7.1-3.8-8.4c-0.8-0.3-1.6-0.5-2.4-0.5c-2.7,0-5.1,1.6-6,4.1L271.6,452.1L131.1,89
	c-1.1-2.7-3.7-4.5-6.6-4.5c-0.9,0-1.8,0.2-2.6,0.5c-1.8,0.7-3.2,2-4,3.7c-0.8,1.8-0.9,3.7-0.2,5.5l146.7,379.2
	c0.9,2.4,3.1,4.1,5.6,4.4c0.5,0.1,0.9,0.1,1.4,0.1c2.2,0,4.2-1.1,5.4-2.9c0.7-1,1.2-2.1,1.4-3.3L396.4,166.1z"/>
<circle class="st44" cx="65.9" cy="199" r="4"/>
<circle class="st44" cx="341.2" cy="129.7" r="3.5"/>
<circle class="st44" cx="107.4" cy="48.5" r="3.5"/>
<path class="st146" d="M492.5,225.5c-3.3-7.4-9.6-12.9-17.9-15.6c-4.4-1.5-9.5-2.2-15.4-2.2c-0.8,0-1.7,0-2.5,0
	c6.4-3.8,12.4-8.1,17.4-12.5c20-17.8,17.3-33.3,13.9-40.9c-3.2-7.2-9.4-12.6-17.6-15.1c-4.1-1.3-8.7-1.9-14.1-1.9
	c-5,0-10.9,0.6-16.9,1.7c0.5-4.5,0.9-9,1.1-13.3c0.4-7.9,0.2-14.2-0.7-19.4c-2.5-15.6-11-22-17.8-24.5c-3.1-1.2-6.3-1.8-9.6-1.8
	c0,0,0,0,0,0c-14.3,0-25,10.7-33.6,21.2c-2.8,3.4-5.6,7.1-8.4,11c-0.7-0.9-1.4-1.8-2.1-2.6c-11.5-14.1-22.1-20.7-33.4-20.7
	c0,0,0,0,0,0c-3.7,0-7.3,0.8-10.6,2.2c-7.6,3.4-19.9,13-17.2,39.6c0.7,6.6,2.2,13.8,4.4,20.9c-1.1-1.1-2.2-2.1-3.3-3
	c-7.7-6.6-15.3-10-23.1-10.2c0.5-2.9,0.9-5.8,1.2-8.6c1.1-9.9,1-18.5-0.3-25.7c-3.2-17.1-13.2-23.9-18.8-26.4
	c-3.6-1.6-7.5-2.4-11.5-2.4c0,0,0,0,0,0c-8.7,0-17.2,3.7-26,11.2c-5.1,4.4-10.5,10.2-16.4,17.7c-1.1,1.4-2.3,2.9-3.4,4.4
	c0.4-1.1,0.8-2.2,1.2-3.3c0.4-1.1,1-2.8,1.2-3.3c5.8-13.2,9.9-28.1,11.3-40.8c0.8-7.7,0.6-14.6-0.7-20.4
	c-3.2-14.5-12.2-20.4-17.3-22.7c-3.5-1.5-7.2-2.3-11-2.3c0,0,0,0,0,0c-12,0-23.7,7.4-36.6,23.2c-2.1,2.5-4.1,5.2-6,7.9
	c-4.4-6.3-9-12.6-13.5-18C128.8,17.1,116.8,5,101.5,5c0,0,0,0,0,0c-3.4,0-6.8,0.6-9.9,1.8c-7,2.7-15.8,9.4-18.5,26
	c-1,5.9-1.2,13.3-0.8,22.4c0.3,7,1.1,14.5,1.9,21.8c-9-1.9-17.9-3.1-25.4-3.1c-21.6,0-30.4,9.7-34,17.8c-2.3,5.1-4.9,15.6,2.4,28.4
	c3,5.1,7.4,10.4,13.2,15.5c9.5,8.5,22.6,16.8,35.8,22.6c0.5,0.2,2.1,1.1,3.1,1.6c1.1,0.6,2.1,1.1,3.1,1.6c-9.4-1.8-19-3.1-27.2-3.1
	c-22.8,0-32.1,10.2-35.9,18.7c-2.5,5.7-5.3,17.4,3.8,32.2c3.8,6.2,9.6,12.6,17.1,19.2c12.9,11.4,30.6,22.5,47.3,29.9
	c6.8,3,13.7,5.8,20.5,8.4C93,266.4,88,266,83.3,266c-7.5,0-13.7,0.9-19.1,2.6c-11.9,3.9-17.4,11.5-20,17.2
	c-3.2,7.3-5.1,19.1,4.2,34.1c4.3,6.9,10.7,14.1,19.2,21.5c14.8,13,35,25.8,54.1,34.2c11.4,5,22.8,9.5,33.9,13.4
	c20.1,7,48.3,17.8,69,32.6l22.7,58.7c3.2,8.3,10.3,14.3,19.1,15.9c0.9,0.2,1.8,0.3,2.7,0.4c0.4,0,1.1,0.1,1.8,0.1c0.1,0,0.2,0,0.2,0
	c0,0,0.1,0,0.1,0c0.8,0,1.5-0.1,2-0.1c2.5-0.2,4.9-0.7,7.2-1.6c8.4-3.3,14.3-10.6,15.9-19.1l16.6-43c16.7-11.7,39.4-20.4,55.6-26
	c9.3-3.3,18.9-7,28.5-11.3c16.2-7.2,33.4-18,46-29.1c7.3-6.4,12.9-12.7,16.7-18.8c9.1-14.6,6.2-26.2,3.8-31.8
	c-3.3-7.6-11-16.4-28.6-18.3c13.9-6.3,28.5-15.6,39.2-25c6.5-5.7,11.5-11.4,14.9-16.8C497.6,242,494.9,230.9,492.5,225.5z
	 M236.1,268.1c-0.4-10.7,1.5-18.7,6.4-20.8c0.8-0.3,1.6-0.5,2.5-0.5c2.5,0,5.3,1.2,8.3,3.4c-3.5,5.6-6.9,11.4-10,17
	c-1.1,2-2.5,2.8-4.8,2.6C237.8,269.7,236.9,269.4,236.1,268.1z M162.8,368.1c-10.3-3.6-21.1-7.8-32.2-12.8
	c-34.6-15.3-72.6-46.1-66.2-60.6c2.1-4.7,9.2-6.6,18.8-6.6c19.7,0,50.2,7.8,70.5,14.8c1,0.4,2.1,0.6,3.1,0.6c2,0,4.1-0.8,5.9-2.8
	c2.6-2.9,1.8-6.2,0.9-8.5c-7.9-20.3-26-35.1-46.6-42c-9.7-3.3-20-7.3-30.6-12c-29.7-13.1-62.4-39.6-56.9-52.1
	c1.8-4,7.6-5.5,15.6-5.5c17,0,43.6,7,61.1,12.6c0.9,0.3,1.8,0.4,2.7,0.4c3.3,0,6.8-1.7,8.9-4.5c2.1-2.6,1.3-7.6,0.5-10.3
	c-5.2-16.5-17.8-29.5-33.8-36.1c-2.3-0.9-7.2-3.7-9.6-4.8c-22.3-9.9-44.2-28-40.1-37.3c1.5-3.3,6.7-4.6,13.7-4.6
	c13,0,31.9,4.6,44,9.9c0,0,1.9,0.8,3.6,0.8c0.8,0,1.6-0.2,2.2-0.7c2-1.8,0.8-7.3,0.5-9.7c-3.5-24.5-9.3-65.2,0.4-68.9
	c0.6-0.2,1.3-0.4,2-0.4c10.1,0,27.8,25,44.8,51c0,0,4.3,6.8,6.9,6.8c0,0,0,0,0,0c2.4,0,4.3-4,4.3-4c7.7-17.4,27-43.1,37.1-43.1
	c0.7,0,1.4,0.1,2,0.4c9.3,4.1,5.3,32.3-4.6,54.6c-1,2.3-2.8,7.7-3.9,10c-7.4,15.6-7.9,33.7-0.7,49.4c1.2,2.5,4,6.7,7.3,7.3
	c0.6,0.1,1.3,0.2,1.9,0.2c3.9,0,7.7-1.9,9.5-5c12.7-21.9,36.3-57.4,49.5-57.4c0.9,0,1.8,0.2,2.6,0.5c12.4,5.5,6.1,47.1-7,76.8
	c-4.7,10.6-9.6,20.5-14.6,29.4c-2.9,5.2-5.3,10.7-7,16.4c-0.4,1.3-0.8,2.6-1.3,3.9c-3.5,9.5-4.5,19.5-4.4,26.3
	c0.1,6.4,2,12.6,4.3,18.5c2.4,6.2,6.6,7.9,9.7,8.2c5.2,0.5,9.5-1.8,12.1-6.5c21.5-39.2,48.2-70.1,57.2-66.1c3.9,1.7,7.3,10.8,5,31
	c-2,17.5-7.7,38.2-15.3,55.4c-4.9,11-10.1,21.6-15.5,31.6c-10.5,19.4-22.7,43.5-29.7,67.9L134.6,87.7c-1.6-4.2-5.6-6.9-10.1-6.9
	c-1.4,0-2.7,0.2-4,0.7c-2.7,1-4.8,3-6,5.6c-1.2,2.6-1.3,5.7-0.3,8.4L232,399.9C211.1,386.2,185.6,376.1,162.8,368.1z M272.3,473.9
	c-0.4,0.2-0.9,0.2-1.3,0.2c-1.4,0-2.7-0.8-3.2-2.1L121.2,92.9c-0.7-1.7,0.2-3.7,2.1-4.4c0.4-0.2,0.9-0.2,1.3-0.2
	c1.4,0,2.7,0.8,3.2,2.1l146.7,379.2C275,471.3,274.1,473.2,272.3,473.9z M278.7,460.2l-3.1-8.1l4.4-11.4h0l107.5-278
	c0.4-1.1,1.5-1.7,2.6-1.7c0.4,0,0.7,0.1,1.1,0.2c1.5,0.6,2.3,2.2,1.7,3.6L278.7,460.2z M424.9,277.8c-8.8,3.9-17.4,7.2-25.5,10
	c-17.2,5.8-32.3,18.1-38.8,35c-0.7,1.8-1.4,4.7,0.8,7c1.5,1.7,3.3,2.4,5,2.4c0.9,0,1.8-0.2,2.6-0.5c16.9-5.8,42.3-12.3,58.7-12.3
	c8,0,13.9,1.6,15.7,5.5c5.3,12-26.3,37.7-55.1,50.4c-9.2,4.1-18.2,7.6-26.8,10.6c-18.3,6.4-38.8,14.5-55.8,25.3l94.3-243.8
	c1-2.6,0.9-5.5-0.3-8c-1.1-2.4-3.1-4.2-5.6-5.2c-1.2-0.5-2.5-0.7-3.8-0.7c-4.3,0-8,2.5-9.5,6.4l-94.2,243.7
	c-3.8-13.9-9.9-27.9-16.4-41c5.7-13.1,12.1-25.5,18.1-36.4c5.5-10.1,10.8-20.9,15.7-32.1c15.3-34.7,25.2-88.2,6.5-96.5
	c-7-3.1-16.1,1.2-27.6,13.3c-7.1-22.2-9.2-46.4-0.7-50.2c0.7-0.3,1.4-0.4,2.1-0.4c11,0,30.7,29.6,41.2,47.8c1.5,2.6,4.7,4.2,7.9,4.2
	c0.5,0,1.1,0,1.6-0.1c2.7-0.4,5.1-4,6-6.1c6-13.1,5.6-28.1-0.6-41.2c-0.9-1.9-2.4-6.4-3.2-8.3c-8.2-18.6-11.6-42-3.8-45.5
	c0.5-0.2,1.1-0.3,1.7-0.3c8.4,0,24.5,21.5,30.9,35.9c0,0,1.5,3.3,3.6,3.3c0,0,0,0,0,0c2.2,0,5.7-5.7,5.7-5.7
	c14.2-21.7,28.9-42.5,37.3-42.5c0.6,0,1.1,0.1,1.6,0.3c8.1,3.1,3.2,37,0.3,57.4c-0.3,2-1.2,6.6,0.4,8.1c0.5,0.4,1.2,0.6,1.8,0.6
	c1.5,0,3-0.7,3-0.7c10.1-4.4,25.8-8.3,36.6-8.3c5.8,0,10.2,1.1,11.4,3.8c3.4,7.8-14.8,22.9-33.4,31.1c-1.9,0.9-6.1,3.2-8,4
	c-13.3,5.5-23.8,16.3-28.1,30.1c-0.7,2.2-1.3,6.4,0.4,8.5c1.8,2.3,4.7,3.7,7.5,3.7c0.8,0,1.5-0.1,2.3-0.3
	c14.6-4.7,36.8-10.5,50.9-10.5c6.7,0,11.6,1.3,13,4.6C476.8,244.8,449.6,266.9,424.9,277.8z"/>
</svg>
