<?xml version="1.0" encoding="utf-8"?>
<!-- Generator: Adobe Illustrator 20.0.0, SVG Export Plug-In . SVG Version: 6.00 Build 0)  -->
<svg version="1.1" id="Layer_1" xmlns="http://www.w3.org/2000/svg" xmlns:xlink="http://www.w3.org/1999/xlink" x="0px" y="0px"
	 viewBox="0 0 500 500" style="enable-background:new 0 0 500 500;" xml:space="preserve">
<style type="text/css">
	.st0{fill:#86B068;}
	.st1{fill:#86B068;stroke:#506630;stroke-width:6;stroke-linecap:round;stroke-linejoin:round;stroke-miterlimit:10;}
	.st2{fill:#63B218;}
	.st3{fill:#63B218;stroke:#477B21;stroke-linecap:round;stroke-linejoin:round;stroke-miterlimit:10;}
	.st4{fill:none;stroke:#477B21;stroke-width:6;stroke-miterlimit:10;}
	.st5{fill:none;stroke:#A2D400;stroke-width:3;stroke-linecap:round;stroke-linejoin:round;stroke-miterlimit:10;}
	.st6{fill:#B8CC36;}
	.st7{fill:#658205;}
	.st8{display:none;fill:#D1A982;}
	.st9{fill:#974565;}
	.st10{fill:#5D283D;}
	.st11{fill:#00FFFF;}
	.st12{fill:#86B068;stroke:#506630;stroke-linecap:round;stroke-linejoin:round;stroke-miterlimit:10;}
	.st13{fill:#98B55E;stroke:#006837;stroke-linecap:round;stroke-linejoin:round;stroke-miterlimit:10;}
	.st14{fill:#B9CE6E;stroke:#838226;stroke-width:3;stroke-miterlimit:10;}
	.st15{fill:none;stroke:#718227;stroke-miterlimit:10;}
	.st16{fill:#B9CE6E;stroke:#838226;stroke-miterlimit:10;}
	.st17{fill:#E0E2D0;}
	.st18{fill:none;stroke:#718227;stroke-width:3;stroke-miterlimit:10;}
	.st19{fill:none;stroke:#FFFFFF;stroke-linecap:round;stroke-miterlimit:10;}
	.st20{fill:#C2D66B;}
	.st21{fill:#E6E8D4;}
	.st22{fill:#718227;}
	.st23{fill:#FFFFFF;}
	.st24{fill:#974565;stroke:#5D283D;stroke-miterlimit:10;}
	.st25{fill:none;stroke:#5D283D;stroke-width:3;stroke-miterlimit:10;}
	.st26{fill:none;stroke:#5D283D;stroke-miterlimit:10;}
	.st27{fill:#EDDBCD;}
	.st28{fill:#F4E1D4;}
	.st29{fill:none;stroke:#5D283D;stroke-width:8.1497;stroke-miterlimit:10;}
	.st30{fill:none;stroke:#5D283D;stroke-width:24.449;stroke-miterlimit:10;}
	.st31{fill:none;stroke:#89A037;stroke-width:3;stroke-linecap:round;stroke-linejoin:round;stroke-miterlimit:10;}
	.st32{fill:none;stroke:#89A037;stroke-width:2.4354;stroke-linecap:round;stroke-linejoin:round;stroke-miterlimit:10;}
	.st33{fill:none;stroke:#89A037;stroke-width:2.794;stroke-linecap:round;stroke-linejoin:round;stroke-miterlimit:10;}
	.st34{fill:none;stroke:#89A037;stroke-width:0.7186;stroke-linecap:round;stroke-linejoin:round;stroke-miterlimit:10;}
	.st35{fill:none;stroke:#385100;stroke-linecap:round;stroke-linejoin:round;stroke-miterlimit:10;}
	.st36{fill:none;stroke:#89A037;stroke-width:1.0534;stroke-linecap:round;stroke-linejoin:round;stroke-miterlimit:10;}
	.st37{opacity:0.8;fill:none;stroke:#658205;stroke-width:3;stroke-miterlimit:10;}
	.st38{opacity:0.6;fill:none;stroke:#658205;stroke-width:3;stroke-miterlimit:10;}
	.st39{opacity:0.4;fill:none;stroke:#658205;stroke-width:3;stroke-miterlimit:10;}
	.st40{opacity:0.2;fill:none;stroke:#658205;stroke-width:3;stroke-miterlimit:10;}
	.st41{fill:none;stroke:#D7E68B;stroke-width:3;stroke-linecap:round;stroke-linejoin:round;stroke-miterlimit:10;}
	.st42{fill:#385100;}
	.st43{fill:#769020;}
	.st44{fill:#869F29;}
	.st45{fill:#97AD31;}
	.st46{fill:#A7BB3A;}
	.st47{fill:#D7E68B;}
	.st48{fill:#88B043;stroke:#416F0F;stroke-miterlimit:10;}
	.st49{fill:none;stroke:#416F0F;stroke-width:0.8976;stroke-miterlimit:10;}
	.st50{fill:none;stroke:#416F0F;stroke-miterlimit:10;}
	.st51{fill:#E4F2C4;stroke:#416F0F;stroke-miterlimit:10;}
	.st52{fill:#97BF4B;}
	.st53{opacity:0.8;fill:none;stroke:#E4F2C4;stroke-width:3;stroke-linecap:round;stroke-linejoin:round;stroke-miterlimit:10;}
	.st54{opacity:0.6;fill:none;stroke:#E4F2C4;stroke-width:3;stroke-linecap:round;stroke-linejoin:round;stroke-miterlimit:10;}
	.st55{opacity:0.4;fill:none;stroke:#E4F2C4;stroke-width:3;stroke-linecap:round;stroke-linejoin:round;stroke-miterlimit:10;}
	.st56{opacity:0.2;fill:none;stroke:#E4F2C4;stroke-width:3;stroke-linecap:round;stroke-linejoin:round;stroke-miterlimit:10;}
	.st57{fill:#97BF4B;stroke:#416F0F;stroke-miterlimit:10;}
	.st58{fill:none;stroke:#FFFFFF;stroke-linecap:round;stroke-linejoin:round;stroke-miterlimit:10;}
	.st59{fill:#416F0F;}
	.st60{fill:#E4F2C4;}
	.st61{fill:#D5E7AF;}
	.st62{fill:#C5DD97;}
	.st63{fill:#B7D27F;}
	.st64{fill:#A7C869;}
	.st65{fill:none;stroke:#FFFFFF;stroke-width:7.954;stroke-linecap:round;stroke-linejoin:round;stroke-miterlimit:10;}
	.st66{fill:#A2D400;}
	.st67{fill:none;stroke:#477B21;stroke-linecap:round;stroke-linejoin:round;stroke-miterlimit:10;}
	.st68{fill:none;stroke:#A2D400;stroke-linecap:round;stroke-linejoin:round;stroke-miterlimit:10;}
	.st69{fill:none;stroke:#A4D173;stroke-width:3;stroke-miterlimit:10;}
	.st70{fill:none;stroke:#98CA63;stroke-width:3;stroke-miterlimit:10;}
	.st71{fill:none;stroke:#8CC354;stroke-width:3;stroke-miterlimit:10;}
	.st72{fill:none;stroke:#7FBD44;stroke-width:3;stroke-miterlimit:10;}
	.st73{fill:none;stroke:#72B636;stroke-width:3;stroke-miterlimit:10;}
	.st74{fill:#A4D173;}
	.st75{fill:#98CA63;}
	.st76{fill:#8CC354;}
	.st77{fill:#7FBD44;}
	.st78{fill:#72B636;}
	.st79{fill:#477B21;}
	.st80{fill:none;stroke:#506630;stroke-linecap:round;stroke-linejoin:round;stroke-miterlimit:10;}
	.st81{opacity:0.3;}
	.st82{fill:none;stroke:#506630;stroke-width:3;stroke-linecap:round;stroke-linejoin:round;stroke-miterlimit:10;}
	.st83{opacity:0.75;fill:none;stroke:#C98353;stroke-linejoin:round;stroke-miterlimit:10;}
	.st84{opacity:0.5;fill:none;stroke:#C98353;stroke-linejoin:round;stroke-miterlimit:10;}
	.st85{opacity:0.25;fill:none;stroke:#C98353;stroke-linejoin:round;stroke-miterlimit:10;}
	.st86{fill:#506630;}
	.st87{fill:#719155;}
	.st88{fill:#B78D5C;}
	.st89{fill:#A79861;}
	.st90{fill:#97A466;}
</style>
<g>
	<path class="st0" d="M433.6,207c0,0-0.1,0-0.1,0c8.1-58.5-19.7-97.2-29.6-97.1c-0.9,0-1.8,0.3-2.8,0.8
		c-15.3-46.4-47.8-68-56.2-64.9c-3.2,1.2-5.9,7-8.4,16c-13-21.9-28.8-32.7-34.6-31.1c-3.6,1-10.7,7.7-18.3,18.3
		c-14.3-13.8-27.6-22-32.6-22c-5.1,0-18.7,8.5-33.4,22.7c-7.8-11-15.1-18-18.8-19C192.8,29.3,177,40,164.1,62
		c-2.5-9-5.2-14.8-8.4-16c-8.4-3.1-40.9,18.5-56.2,64.9c-1-0.5-2-0.8-2.8-0.8c-9.9-0.1-37.7,38.6-29.6,97.1c0,0-0.1,0-0.1,0
		c-11.9,4.6-27.4,79.8,44.5,145.5c0,0,27.8,33.1,81.4,47.7v50.4c0,0,29.8,32.9,57.5,32.9c27.3,0,58.7-32.9,58.7-32.9v-50.8
		c52.9-14.7,80.1-47.3,80.1-47.3C461,286.8,445.5,211.6,433.6,207z"/>
</g>
<rect x="-3751.9" y="-365.3" class="st8" width="6576.8" height="1230.5"/>
<g>
	<path class="st86" d="M250.9,410.9c-41,0-77.4-15-100.7-27.7c-25.3-13.7-40.7-27.1-41.3-27.7c-1.6-1.4-1.8-3.9-0.3-5.5
		c1.4-1.6,3.9-1.8,5.5-0.3c0.6,0.5,61.6,53.4,136.9,53.4c2.1,0,3.9,1.7,3.9,3.9S253,410.9,250.9,410.9z"/>
</g>
<g>
	<path class="st86" d="M249.6,410.9c-2.1,0-3.9-1.7-3.9-3.9s1.7-3.9,3.9-3.9c75.4,0,136.3-52.9,136.9-53.4c1.6-1.4,4.1-1.3,5.5,0.3
		c1.4,1.6,1.3,4.1-0.3,5.5c-0.6,0.6-16.1,14.1-41.3,27.7C327,395.8,290.6,410.9,249.6,410.9z"/>
</g>
<g>
	<path class="st87" d="M311.6,422.9c0,0-36.3,10.3-61.4,10.3c-23,0-50.5-7-50.5-7l-0.4-24.4c17.3,5.3,34.4,8,50.9,8.1
		c17.5-0.1,35.7-3.1,54.2-9.1L311.6,422.9z"/>
</g>
<g>
	<g>
		<path class="st88" d="M232.9,298.3h35.4c-3.7-3.3-7.1-5.9-10-7.8h-16C239.6,292.4,236.3,295,232.9,298.3z"/>
	</g>
	<g>
		<path class="st89" d="M276.3,306c-2.8-2.9-5.5-5.5-8-7.8h-35.4c-2.4,2.3-5,4.9-7.6,7.8H276.3z"/>
	</g>
	<g>
		<path class="st90" d="M218.7,313.8h64.5c-2.3-2.8-4.6-5.4-6.9-7.8h-51C223.1,308.4,220.9,311,218.7,313.8z"/>
	</g>
</g>
<g>
	<g>
		<path class="st88" d="M230.8,198.4h39.5c-4.1-3.3-7.9-5.9-11.1-7.8h-17.8C238.2,192.5,234.7,195.1,230.8,198.4z"/>
	</g>
	<g>
		<path class="st89" d="M279.2,206.1c-3.1-2.9-6.1-5.5-8.9-7.8h-39.5c-2.7,2.3-5.5,4.9-8.4,7.8H279.2z"/>
	</g>
	<g>
		<path class="st90" d="M215,213.9h72c-2.6-2.8-5.2-5.4-7.7-7.8h-56.9C219.9,208.5,217.5,211.1,215,213.9z"/>
	</g>
</g>
<g>
	<g>
		<path class="st88" d="M231.7,129.9h37.7c-3.9-3.3-7.5-5.9-10.6-7.8h-17C238.8,124,235.4,126.6,231.7,129.9z"/>
	</g>
	<g>
		<path class="st89" d="M278,137.7c-2.9-2.9-5.8-5.5-8.5-7.8h-37.8c-2.6,2.3-5.3,4.9-8.1,7.8H278z"/>
	</g>
	<g>
		<path class="st90" d="M216.6,145.5h68.8c-2.5-2.8-5-5.4-7.4-7.8h-54.4C221.3,140.1,218.9,142.7,216.6,145.5z"/>
	</g>
</g>
<g>
	<g>
		<path class="st88" d="M230.8,76.5h39.5c-4.1-3.3-7.9-5.9-11.1-7.8h-17.9C238.2,70.7,234.6,73.3,230.8,76.5z"/>
	</g>
	<g>
		<path class="st89" d="M279.3,84.3c-3.1-2.9-6.1-5.5-9-7.8h-39.5c-2.7,2.3-5.5,4.9-8.5,7.8H279.3z"/>
	</g>
	<g>
		<path class="st90" d="M215,92.1h72c-2.6-2.8-5.2-5.4-7.7-7.8h-57C219.9,86.7,217.4,89.3,215,92.1z"/>
	</g>
</g>
<g>
	<g>
		<path class="st88" d="M230.8,38.3h39.5c-4.1-3.3-7.9-5.9-11.1-7.8h-17.9C238.2,32.4,234.6,35,230.8,38.3z"/>
	</g>
	<g>
		<path class="st89" d="M279.3,46.1c-3.1-2.9-6.1-5.5-9-7.8h-39.5c-2.7,2.3-5.5,4.9-8.5,7.8H279.3z"/>
	</g>
	<g>
		<path class="st90" d="M215,53.8h72c-2.6-2.8-5.2-5.4-7.7-7.8h-57C219.9,48.5,217.4,51.1,215,53.8z"/>
	</g>
</g>
<g>
	<path class="st88" d="M154.3,169.8h41.6c-4.4-3.3-8.4-5.9-11.9-7.8h-17.8C162.7,163.9,158.7,166.5,154.3,169.8z"/>
</g>
<g>
	<path class="st89" d="M144.9,177.6h60.3c-3.2-2.9-6.4-5.5-9.4-7.8h-41.6C151.3,172.1,148.1,174.7,144.9,177.6z"/>
</g>
<g>
	<path class="st90" d="M211.9,184c-2.2-2.3-4.5-4.4-6.7-6.4h-60.4c-1.6,1.4-3.2,2.9-4.8,4.5v3.3h71.8V184z"/>
</g>
<g>
	<path class="st88" d="M110.3,121.5c-2.5-3.2-4.8-5.8-6.8-7.8H89.6c-2.1,1.9-4.3,4.5-6.5,7.8H110.3z"/>
</g>
<g>
	<path class="st89" d="M78.5,129.3h37.5c-2-2.9-3.8-5.5-5.6-7.8H83.1C81.5,123.8,80,126.4,78.5,129.3z"/>
</g>
<g>
	<path class="st90" d="M74.8,137.1H121c-1.8-2.8-3.5-5.4-5.1-7.8H78.5C77.2,131.7,76,134.3,74.8,137.1z"/>
</g>
<g>
	<path class="st88" d="M161,109.1h39.3c-4-3.3-7.7-5.9-10.9-7.8h-17.5C168.7,103.2,165,105.8,161,109.1z"/>
</g>
<g>
	<path class="st89" d="M152.4,116.9h56.5c-3-2.9-5.9-5.5-8.6-7.8H161C158.2,111.4,155.3,114,152.4,116.9z"/>
</g>
<g>
	<path class="st90" d="M216.3,124.6c-2.5-2.8-4.9-5.4-7.4-7.8h-56.6c-2.4,2.4-4.9,5-7.4,7.8H216.3z"/>
</g>
<g>
	<rect x="117.3" y="49.3" class="st88" width="51.3" height="7.8"/>
</g>
<g>
	<rect x="117.3" y="57.1" class="st89" width="51.3" height="7.8"/>
</g>
<g>
	<rect x="117.3" y="64.9" class="st90" width="51.3" height="7.8"/>
</g>
<g>
	<rect x="169.9" y="34" class="st88" width="51.3" height="7.8"/>
</g>
<g>
	<rect x="169.9" y="41.7" class="st89" width="51.3" height="7.8"/>
</g>
<g>
	<rect x="169.9" y="49.5" class="st90" width="51.3" height="7.8"/>
</g>
<g>
	<path class="st88" d="M134.9,256.7l31.9-7.8c-4.4-2.3-8.3-4-11.7-5.1l-15,3.7C138.4,249.8,136.6,252.9,134.9,256.7z"/>
</g>
<g>
	<path class="st89" d="M131.3,265.5l45.3-11.1c-3.4-2.1-6.7-4-9.8-5.6l-31.9,7.8C133.6,259.3,132.4,262.3,131.3,265.5z"/>
</g>
<g>
	<path class="st90" d="M128.7,274.2l56.7-13.9c-3-2.1-6-4.1-8.8-5.8l-45.3,11.1C130.4,268.2,129.5,271.1,128.7,274.2z"/>
</g>
<g>
	<path class="st88" d="M59.1,220.7l24.2-5.9c-3.3-2.5-6.1-4.5-8.6-5.9l-12.2,3C61.2,214.2,60.1,217.1,59.1,220.7z"/>
</g>
<g>
	<path class="st89" d="M57.5,229.1l33.4-8.2c-2.7-2.3-5.3-4.3-7.6-6.1l-24.2,5.9C58.5,223.2,57.9,226,57.5,229.1z"/>
</g>
<g>
	<path class="st90" d="M56.8,237.3l41.4-10.2c-2.6-2.2-5-4.3-7.3-6.2l-33.4,8.2C57.2,231.7,56.9,234.4,56.8,237.3z"/>
</g>
<g>
	<path class="st88" d="M305.8,169.8h41.6c-4.4-3.3-8.4-5.9-11.9-7.8h-17.8C314.3,163.9,310.2,166.5,305.8,169.8z"/>
</g>
<g>
	<path class="st89" d="M296.5,177.6h60.3c-3.2-2.9-6.4-5.5-9.4-7.8h-41.6C302.8,172.1,299.7,174.7,296.5,177.6z"/>
</g>
<g>
	<path class="st90" d="M359.9,185.3v-4.9c-1-1-2-1.9-3-2.8h-60.4c-2.6,2.4-5.3,5-8,7.8H359.9z"/>
</g>
<g>
	<path class="st88" d="M390.1,121.5h27.2c-2.2-3.3-4.5-5.9-6.5-7.8H397C394.9,115.7,392.6,118.3,390.1,121.5z"/>
</g>
<g>
	<path class="st89" d="M384.6,129.3H422c-1.5-2.9-3.1-5.5-4.6-7.8h-27.2C388.4,123.8,386.5,126.4,384.6,129.3z"/>
</g>
<g>
	<path class="st90" d="M379.5,137.1h46.2c-1.2-2.8-2.4-5.4-3.6-7.8h-37.5C382.9,131.7,381.2,134.3,379.5,137.1z"/>
</g>
<g>
	<path class="st88" d="M301.5,109.1h39.3c-4-3.3-7.7-5.9-10.9-7.8h-17.5C309.1,103.2,305.4,105.8,301.5,109.1z"/>
</g>
<g>
	<path class="st89" d="M292.8,116.9h56.5c-3-2.9-5.9-5.5-8.6-7.8h-39.3C298.7,111.4,295.8,114,292.8,116.9z"/>
</g>
<g>
	<path class="st90" d="M355.2,124.6v-1.7c-1.9-2.1-3.9-4.1-5.8-6h-56.6c-2.4,2.4-4.9,5-7.4,7.8H355.2z"/>
</g>
<g>
	<rect x="331.4" y="49.3" class="st88" width="51.3" height="7.8"/>
</g>
<g>
	<rect x="331.4" y="57.1" class="st89" width="51.3" height="7.8"/>
</g>
<g>
	<rect x="331.4" y="64.9" class="st90" width="51.3" height="7.8"/>
</g>
<g>
	<rect x="278.8" y="34" class="st88" width="51.3" height="7.8"/>
</g>
<g>
	<rect x="278.8" y="41.7" class="st89" width="51.3" height="7.8"/>
</g>
<g>
	<rect x="278.8" y="49.5" class="st90" width="51.3" height="7.8"/>
</g>
<g>
	<path class="st88" d="M331.7,248.5l31.5,7.7c-1.9-3.9-3.8-7.1-5.7-9.4l-13.9-3.4C340.3,244.4,336.2,246.2,331.7,248.5z"/>
</g>
<g>
	<path class="st89" d="M321.8,254l45.1,11.1c-1.2-3.3-2.4-6.3-3.7-8.9l-31.5-7.7C328.6,250,325.3,251.9,321.8,254z"/>
</g>
<g>
	<path class="st90" d="M312.9,259.8l56.7,13.9c-0.8-3.1-1.7-6-2.7-8.7L321.8,254C318.9,255.8,315.9,257.7,312.9,259.8z"/>
</g>
<g>
	<path class="st88" d="M417.1,214.9l24.3,6c-0.9-3.6-2.1-6.5-3.3-8.8l-12.5-3.1C423.2,210.4,420.3,212.4,417.1,214.9z"/>
</g>
<g>
	<path class="st89" d="M409.5,221l33.5,8.2c-0.4-3.1-1-5.9-1.6-8.4l-24.3-6C414.7,216.7,412.2,218.7,409.5,221z"/>
</g>
<g>
	<path class="st90" d="M402.2,227.2l41.5,10.2c-0.1-2.9-0.4-5.6-0.7-8.2l-33.5-8.2C407.2,222.9,404.7,225,402.2,227.2z"/>
</g>
<g>
	<path class="st23" d="M179.8,255.8c-2.9-15.6-4.4-32.6-4.5-50.7c0-1.9-1.6-3.5-3.5-3.5h0c-1.9,0-3.5,1.6-3.5,3.5
		c0.1,16.6,1.3,32.2,3.7,46.8C174.8,252.8,177.4,254.1,179.8,255.8z"/>
</g>
<g>
	<path class="st23" d="M100.4,188.3c-1.7,0-3.1-1.2-3.4-2.9c-1.6-9.2-2.9-18.7-3.8-28.3c-0.2-1.9,1.2-3.6,3.2-3.8
		c1.9-0.2,3.6,1.2,3.8,3.2c0.8,9.4,2.1,18.7,3.7,27.7c0.3,1.9-0.9,3.7-2.8,4.1C100.8,188.3,100.6,188.3,100.4,188.3z"/>
</g>
<g>
	<path class="st23" d="M125.8,136.4c2,0,3.9,0.2,5.7,0.6c2.4-17.9,6.5-34.2,9.9-45.6c0.6-1.9-0.5-3.8-2.4-4.4
		c-1.9-0.6-3.8,0.5-4.4,2.4c-4.9,16.3-8.3,32.1-10.2,47.1C124.9,136.4,125.4,136.4,125.8,136.4z"/>
</g>
<g>
	<circle class="st23" cx="95.8" cy="130.6" r="3.5"/>
</g>
<g>
	<circle class="st23" cx="172.5" cy="186.2" r="3.5"/>
</g>
<g>
	<circle class="st23" cx="180.2" cy="116.7" r="3.5"/>
</g>
<g>
	<circle class="st23" cx="196.3" cy="48.7" r="3.5"/>
</g>
<g>
	<circle class="st23" cx="251.2" cy="38.7" r="3.5"/>
</g>
<g>
	<circle class="st23" cx="145.7" cy="64.4" r="3.5"/>
</g>
<g>
	<path class="st23" d="M89.7,279.1c-1.3,0-2.5-0.7-3.1-1.9c-8.2-16.2-11.3-27.7-11.4-28.2c-0.5-1.9,0.6-3.8,2.5-4.3
		c1.9-0.5,3.8,0.6,4.3,2.5l0,0c0,0.1,3,11.3,10.9,26.8c0.9,1.7,0.2,3.8-1.5,4.7C90.7,279,90.2,279.1,89.7,279.1z"/>
</g>
<g>
	<path class="st86" d="M136.5,26.7c-14.7,6.9-34.3,24.4-48.9,52.4c-3.3,6.4-7.7,12.1-13,16.9c-1.7,1.5-3.3,3.1-4.9,5
		c-13.4,15.2-27,44.9-27.4,83.5c-0.1,8.9-1.7,17.7-4.5,26.2c-1,3.1-1.9,6.5-2.6,10.2c-2.2,11.8-4.4,36.3,5.9,67.6
		c9.9,30,28.2,57.3,54.5,81.4c0.1,0.1,0.2,0.2,0.4,0.3c1.4,1.2,29.5,25.6,72,42.9c6.9,2.8,11.4,9.6,11.4,17v20.6
		c0,5.6,2,11,5.7,15.2c2.7,3.2,27.8,31,65.1,31c36.4,0,62.9-27.2,65.8-30.3c4-4.3,6.3-10,6.3-15.9v-21.1c0-7.4,4.5-14.2,11.3-17
		c41.8-17.3,69.4-41.2,70.8-42.4c0.1-0.1,0.2-0.2,0.4-0.3c26.3-24,44.6-51.4,54.5-81.4c10.3-31.3,8.1-55.8,5.9-67.6
		c-0.7-3.6-1.5-7-2.6-10.2c-2.8-8.5-4.4-17.3-4.5-26.2c-0.4-38.6-14-68.3-27.4-83.5c-1.6-1.8-3.3-3.5-4.9-5
		c-5.4-4.8-9.7-10.5-13-16.9c-14.5-28-34.3-45.3-48.9-52.4c-8.8-4.2-15.9-4.7-20.7-4.3c-4.7,0.5-9.5-0.8-13.2-3.8
		c-10.7-8.6-22.7-13.4-34.3-10.3c-1.3,0.4-3.4,0.9-6.2,2.4c-5.6,3-12.3,3-17.8-0.2c-7.1-4.1-14.4-6.7-20.9-6.7
		c-6.7,0-14.1,2.8-21.4,7c-5.6,3.2-12.5,3.3-18.2,0.2c-3.1-1.7-5.3-2.3-6.5-2.6C193,5.2,181,10.1,170.2,18.8c-3.7,3-8.3,4.3-13,3.9
		C152.2,22.2,144.9,22.7,136.5,26.7z M403.9,113.9c1.3,0,6.1,3.1,11.8,12.2c3.9,6.2,17.1,30.3,15.3,67.3c-0.3,5.2-3.3,9.9-7.8,12.5
		c-4.2,2.4-9.2,6.3-15.3,11.3c-5.4,4.5-13.5,2.9-17-3.3c-5.9-10.6-12.7-19.6-19.1-26.7c-0.6-0.7-1.2-1.3-1.8-2
		c-5.3-5.8-6.3-14.3-2.4-21.1c6.7-11.6,12.8-21.7,18.2-29.9C398.4,115.4,402.8,113.9,403.9,113.9z M250.9,31c2.7,0,10.3,4.2,20,12
		c4.3,3.5,5.3,9.7,2.4,14.4c-0.7,1.1-1.3,2.2-2,3.2c-2.4,4.1-7.6,5.6-11.8,3.4c-3.5-1.8-6.4-2.7-8.6-2.7c-2.4,0-5.7,1.2-9.5,3.2
		c-4.2,2.3-9.5,0.7-11.9-3.4c-0.6-1-1.2-2.1-1.8-3.1c-2.9-4.7-1.8-10.8,2.4-14.3C240.1,35.4,248.1,31,250.9,31z M281.8,123
		c-3,3.3-7.9,3.9-11.5,1.3c-8.1-5.9-15.1-9.6-19.4-9.6c-4.3,0-11.4,3.7-19.4,9.6c-3.6,2.6-8.6,2-11.5-1.3c-4.8-5.4-9.5-10-12.4-12.6
		c-1.6-1.5-1.7-3.9-0.4-5.5c0.6-0.8,1.2-1.5,1.8-2.2c18.5-21.7,37.4-33.5,41.9-33.5s23.3,11.8,41.9,33.5c0.6,0.7,1.2,1.4,1.8,2.2
		c1.4,1.7,1.2,4.1-0.3,5.5C291.4,113.1,286.6,117.7,281.8,123z M298.6,151c-4.3-5-8.9-9.8-13.5-14.1c-1.5-1.4-1.7-3.8-0.4-5.5
		c0,0,0,0,0,0c16.1-19.6,32.7-29.6,36.2-29.6s20.2,10.1,36.3,29.6c2,2.4,4,5.1,6.1,7.9c3.3,4.6,3.6,10.8,0.7,15.7
		c-1,1.6-2,3.3-3,5.1c-3.2,5.5-10.4,7.1-15.7,3.5c-8-5.5-14.9-8.7-18.8-8.7c-2.5,0-6.1,1.2-10.4,3.5c-4.7,2.5-10.4,1.3-13.7-2.8
		C301.2,154,299.9,152.4,298.6,151z M293.5,156.9c4.8,5.7,4.3,14.2-1.2,19.3c-3.7,3.4-7.4,7.1-10.9,11.2c-0.2,0.2-0.4,0.4-0.5,0.6
		c-3.8,4.3-10.1,5.1-14.9,2c-6.2-4.1-11.5-6.5-15-6.5c-3.5,0-8.8,2.4-15,6.5c-4.8,3.2-11.2,2.3-14.9-2c-0.2-0.2-0.4-0.4-0.5-0.6
		c-3.6-4-7.2-7.7-10.9-11.2c-5.5-5.1-6-13.5-1.2-19.3c0.2-0.3,0.5-0.6,0.7-0.9c18.5-21.7,37.4-33.5,41.9-33.5s23.3,11.8,41.9,33.5
		C293,156.3,293.2,156.6,293.5,156.9z M216.9,131.3C216.9,131.3,216.9,131.3,216.9,131.3c1.4,1.7,1.2,4.1-0.3,5.5
		c-4.6,4.4-9.2,9.2-13.5,14.1c-1.3,1.5-2.5,3-3.8,4.6c-3.3,4.1-9.1,5.3-13.7,2.8c-4.3-2.3-7.9-3.5-10.4-3.5
		c-4.1,0-11.3,3.4-19.7,9.2c-5.2,3.7-12.5,2.1-15.8-3.5c-0.9-1.6-1.9-3.2-2.8-4.7c-2.9-4.9-2.6-11,0.6-15.6c2.3-3.3,4.6-6.3,6.9-9
		c16.1-19.6,32.7-29.6,36.3-29.6S200.8,111.8,216.9,131.3z M127.9,246.9c-3.2-2.5-6.2-5-9.2-7.5c-5-4.2-6.5-11.3-3.5-17.2
		c6-12,13.6-22,20.4-29.8c18.3-20.6,35.8-29.8,39.4-29.8s21.2,9.1,39.4,29.8c0,0,0.1,0.1,0.1,0.1c3.9,4.5,3.6,11.2-0.6,15.4
		c-3.8,3.7-7.4,7.6-10.9,11.7c-6.4,7.5-13.4,16.8-19.4,27.5c-1.6,2.8-5.2,3.9-8,2.2c-12.8-7.5-24.4-12.1-30-11.1
		c-3.9,0.7-7.1,4.2-9.3,7.4C134.4,248.5,130.6,249,127.9,246.9z M209,224.6c18.5-21.7,37.4-33.5,41.9-33.5s23.3,11.8,41.9,33.5
		c4.6,5.3,10.2,12.7,15.7,21.5c2.9,4.7,1.7,10.8-2.7,14.1c-2.3,1.7-4.6,3.5-6.9,5.4c-7.8,6.4-16.3,14.5-24.2,24.2
		c-2.3,2.8-6.4,3.2-9.2,1c-6.2-4.9-11.7-7.8-15.2-7.8c-3.8,0-9.8,3.5-16.5,9.2c-2.8,2.4-7.1,2-9.4-0.9
		c-8.2-10.3-17.2-18.9-25.4-25.6c-1.4-1.2-2.8-2.3-4.3-3.4c-4.2-3.3-5.4-9.2-2.7-13.8C197.8,238.6,204,230.4,209,224.6z
		 M352.1,238.2c-5.2-1-15.5,2.9-27.1,9.4c-2.8,1.6-6.3,0.6-7.9-2.2c-5.8-10-12.4-18.7-18.5-25.9c-3.5-4.1-7.2-8-10.9-11.7
		c-4.2-4.2-4.6-10.9-0.6-15.4c0,0,0.1-0.1,0.1-0.1c18.3-20.6,35.8-29.8,39.4-29.8s21.2,9.1,39.4,29.8c6.7,7.6,14.1,17.4,20,29
		c3,5.9,1.6,13-3.5,17.2c-3.7,3.1-7.7,6.3-11.8,9.6c-2.6,2.1-6.5,1.5-8.4-1.3C359.9,243.4,356.2,239,352.1,238.2z M339,67.2
		c4-16,6.9-17.5,7.2-17.6c1.2-0.4,6.8,0.8,15.2,7.5c4.6,3.6,18.7,16,29.7,38.9c3.3,7,2.4,15.2-2.5,21.2c-2,2.5-4.2,5.4-6.5,8.8
		c-4.4,6.4-13.6,6.7-18.5,0.8c-0.1-0.1-0.2-0.2-0.3-0.3c-6.6-8-15-16.3-23-22.5c-4.7-3.7-7-9.8-5.8-15.7
		C336,80.2,337.5,73.1,339,67.2z M302.8,34.6c1.3-0.3,6.7,1.5,14.4,8.9c2.2,2.1,6.6,6.7,11.6,13.9c2.1,3.1,2.9,7,2,10.7
		c-1.4,6-2.9,13.2-4.4,21.5c-0.5,2.5-2.7,4.4-5.3,4.4l0,0c-3.5,0-8.6,2.4-14.2,6.2c-2.2,1.5-5.1,1.1-6.8-0.9
		c-0.5-0.6-0.9-1.1-1.4-1.7c-5.4-6.3-11.3-12.3-17.2-17.6c-4.8-4.3-5.9-11.4-2.6-16.9c3.5-5.9,7.3-11.4,11.1-16.2
		C296.5,38.6,301.2,35,302.8,34.6z M183.2,43.5c7.8-7.4,13.2-9.2,14.4-8.9c1.6,0.4,6.3,4,12.8,12.3c4,5,7.9,10.8,11.5,17
		c3.3,5.5,2.2,12.6-2.5,16.9c-5.6,5.1-11.3,10.8-16.4,16.9c-0.5,0.5-0.9,1.1-1.4,1.7c-1.7,2-4.6,2.4-6.8,0.9
		c-5.6-3.8-10.7-6.2-14.2-6.2c-0.3,0-0.6,0-0.9,0c-2.7,0.3-5.1-1.5-5.6-4.1c-1.6-8.4-3-15.7-4.5-21.8c-0.9-3.7-0.1-7.6,2-10.7
		C176.7,50.2,181.1,45.6,183.2,43.5z M139.1,57.1c8.4-6.7,14-7.9,15.2-7.5c0.3,0.1,3.1,1.6,7.2,17.6c1.6,6.2,3.1,13.6,4.6,21.9
		c1.1,5.9-1.1,11.9-5.7,15.6c-7.6,6.1-15.7,14.1-22,21.7c-0.3,0.4-0.6,0.8-1,1.2c-4.9,6-14.2,5.6-18.5-0.8c-2.5-3.7-4.9-6.9-7-9.6
		c-4.8-6-5.7-14.2-2.4-21.2C120.4,73.1,134.5,60.7,139.1,57.1z M84.8,126.1c5.7-9.1,10.5-12.2,11.8-12.2c1.1,0,5.5,1.5,18,20.5
		c5.5,8.4,11.8,18.8,18.7,30.7c3.9,6.7,3,15.1-2.2,20.9c-0.4,0.5-0.8,0.9-1.2,1.4c-5.7,6.5-11.9,14.5-17.4,23.8
		c-4.7,7.9-15.2,10-22.4,4.1c-5-4.1-9.2-7.2-12.8-9.3c-4.5-2.6-7.5-7.3-7.7-12.5C67.7,156.4,80.9,132.2,84.8,126.1z M114,349.7
		c-60.8-55.5-54.1-112.5-52.2-123.3c1.9-10.6,5.2-15.2,6.4-15.7c0.1,0,2-0.5,9.3,4.7c5.6,4,12.7,10.1,21,17.2
		c6.2,5.3,13.1,11.2,20.7,17.3c6,4.9,8.6,13,6.5,20.5c-5.7,20-8.5,47.4-2.2,75.8c1,4.5-4.3,7.8-7.9,4.9
		C114.6,350.2,114.1,349.7,114,349.7z M172.4,385.3c-10.2-4.5-19.3-9.3-27.2-13.9c-4.7-2.8-8.2-7.1-10-12.2
		c-6-17.5-8.5-36.6-7.3-55.7c1.5-24.6,8.4-40.9,11.2-46.8c4-8.1,7-10.6,7.8-10.8c1.6-0.3,7.4,1,16.8,5.8c9.8,4.9,20.5,12,30.2,20
		c7.2,6,16.9,15,25.8,26.7c1.9,2.5,1.7,5.9-0.3,8.3c-2.4,2.8-4.7,5.7-7,8.8c-8.9,12-23.5,35.1-29.8,64.6
		C181.7,384.7,176.7,387.2,172.4,385.3z M292.9,405.5c3.1-0.7,6.1,1.6,6.1,4.8v29.6c0,7.5-3.6,14.5-9.6,19
		c-8.8,6.6-23,14.6-39.2,14.6c-16.4,0-30-8-38.4-14.5c-5.7-4.5-9.1-11.3-9.1-18.6v-29.7c0-3.2,3-5.5,6.1-4.8c0,0,18.1,5,41.4,5
		C273.5,410.9,292.9,405.5,292.9,405.5z M250.2,403.1c-18.8-0.1-36.7-3.4-53-8.4c-5.2-1.6-8.2-6.9-7.1-12.2
		c5.9-28.3,19.9-50.6,28.5-62.1c11.1-15,21.4-23.8,27.2-27.5c2.7-1.7,6.1-1.8,8.8-0.2c6.3,3.7,17.8,13.1,29.8,28.7
		c11,14.3,23.9,35.9,27.2,61.5c0.7,5-2.4,9.8-7.3,11.3C287.8,399.5,269.5,403,250.2,403.1z M329.4,384.8c-4.5,2-9.7-0.8-10.5-5.7
		c-4.1-26.2-17.3-48-28.6-62.7c-3.2-4.2-6.7-8.2-10.1-11.9c-2.2-2.4-2.4-6-0.4-8.6c8.4-10.5,17.2-18.7,23.9-24.3
		c9.7-8,20.4-15.1,30.2-20c9.4-4.7,15.2-6.1,16.8-5.8c0.6,0.1,3.9,2.3,8.1,10.4c9.2,17.8,19.4,59.2,2.3,105.7
		c-1.8,5-5.4,9.2-10.1,11.8C344.6,377.5,337.3,381.2,329.4,384.8z M386.5,349.6c-0.1,0.1-2,1.7-5.5,4.4c-3.7,2.8-8.9-0.6-7.7-5.1
		c7.8-30.5,5.2-57.8-0.3-77.3c-2.1-7.5,0.4-15.5,6.5-20.5c8.2-6.6,15.6-13,22.3-18.7c8.3-7.1,15.5-13.2,21-17.2
		c7.3-5.2,9.3-4.7,9.3-4.7c1.2,0.5,4.5,5.1,6.4,15.7C440.6,237.2,447.2,294.1,386.5,349.6z"/>
</g>
</svg>
