<?xml version="1.0" encoding="utf-8"?>
<!-- Generator: Adobe Illustrator 20.0.0, SVG Export Plug-In . SVG Version: 6.00 Build 0)  -->
<svg version="1.1" id="Layer_1" xmlns="http://www.w3.org/2000/svg" xmlns:xlink="http://www.w3.org/1999/xlink" x="0px" y="0px"
	 viewBox="0 0 64 64" style="enable-background:new 0 0 64 64;" xml:space="preserve">
<style type="text/css">
	.st0{fill:#F6E600;stroke:#A2A121;stroke-width:6;stroke-linecap:round;stroke-linejoin:round;stroke-miterlimit:10;}
	.st1{fill:#8DCC50;}
	.st2{fill:#A2A121;}
	.st3{fill:#4D831C;}
	.st4{fill:#2A481D;}
	.st5{fill:#4D831C;stroke:#184C28;stroke-width:3;stroke-linecap:round;stroke-linejoin:round;stroke-miterlimit:10;}
	.st6{display:none;}
	.st7{display:inline;fill:#D1A982;}
	.st8{display:inline;}
	.st9{fill:#AFD048;stroke:#6B9311;stroke-width:3;stroke-miterlimit:10;}
	.st10{fill:none;stroke:#6B9311;stroke-miterlimit:10;}
	.st11{fill:#AFD048;}
	.st12{fill:#F40000;stroke:#BA0D0D;stroke-width:3;stroke-miterlimit:10;}
	.st13{fill:none;stroke:#FFFFFF;stroke-linecap:round;stroke-linejoin:round;stroke-miterlimit:10;}
	.st14{fill:#CDA347;stroke:#A2690C;stroke-width:3;stroke-miterlimit:10;}
	.st15{fill:#A2CC62;}
	.st16{fill:#68664C;stroke:#522B25;stroke-width:3;stroke-linecap:round;stroke-linejoin:round;stroke-miterlimit:10;}
	.st17{fill:#B63E34;stroke:#522B25;stroke-width:3;stroke-miterlimit:10;}
	.st18{fill:#ADD481;}
	.st19{fill:#68664C;}
	.st20{fill:#593156;stroke:#331E31;stroke-width:3;stroke-miterlimit:10;}
	.st21{fill:none;stroke:#FFFFFF;stroke-linecap:round;stroke-miterlimit:10;}
	.st22{fill:#22B573;stroke:#184C28;stroke-width:3;stroke-linecap:round;stroke-linejoin:round;stroke-miterlimit:10;}
	.st23{fill:#EE0000;}
	.st24{fill:#9A0601;}
	.st25{fill:#EE0000;stroke:#9A0601;stroke-linecap:round;stroke-linejoin:round;stroke-miterlimit:10;}
	.st26{fill:#FFFFFF;}
	.st27{clip-path:url(#SVGID_2_);}
	.st28{fill:#00FFFF;}
	.st29{fill:#456A0A;}
	.st30{fill:#183300;}
	.st31{fill:#FF2214;}
	.st32{fill:#661900;}
	.st33{fill:#88A501;}
	.st34{fill:#3B6700;}
	.st35{fill:#FC4100;}
	.st36{fill:#9F0500;}
	.st37{fill:none;stroke:#6B9311;stroke-width:3;stroke-linecap:round;stroke-miterlimit:10;}
	.st38{fill:#6B9311;}
	.st39{fill:#593156;}
	.st40{fill:#331E31;}
	.st41{fill:#AFD048;stroke:#6B9311;stroke-width:3;stroke-linecap:round;stroke-linejoin:round;stroke-miterlimit:10;}
	.st42{fill:none;stroke:#6B9311;stroke-linejoin:round;stroke-miterlimit:10;}
	.st43{fill:#B63E34;stroke:#522B25;stroke-miterlimit:10;}
	.st44{fill:none;stroke:#522B25;stroke-miterlimit:10;}
	.st45{fill:none;stroke:#522B25;stroke-width:3;stroke-miterlimit:10;}
	.st46{fill:#B63E34;}
	.st47{fill:#522B25;}
	.st48{fill:none;stroke:#40760E;stroke-width:3;stroke-linecap:round;stroke-linejoin:round;stroke-miterlimit:10;}
	.st49{fill:none;stroke:#40760E;stroke-linecap:round;stroke-linejoin:round;stroke-miterlimit:10;}
	.st50{fill:#A2CC62;stroke:#40760E;stroke-width:3;stroke-linecap:round;stroke-linejoin:round;stroke-miterlimit:10;}
	.st51{fill:#A2CC62;stroke:#40760E;stroke-linecap:round;stroke-linejoin:round;stroke-miterlimit:10;}
	.st52{fill:#9EC161;}
	.st53{fill:#40760E;}
	.st54{fill:#AFD048;stroke:#6B9311;stroke-width:3;stroke-linejoin:round;stroke-miterlimit:10;}
	.st55{fill:#663965;}
	.st56{fill:#9D610B;}
	.st57{fill:none;stroke:#A2690C;stroke-linecap:round;stroke-miterlimit:10;}
	.st58{fill:#6D4E2B;}
	.st59{fill:#CDA347;}
	.st60{fill:#7F500A;}
	.st61{fill:#F40000;stroke:#BA0D0D;stroke-miterlimit:10;}
	.st62{fill:#F40000;stroke:#B63E34;stroke-width:3;stroke-miterlimit:10;}
	.st63{fill:#F40000;stroke:#B63E34;stroke-miterlimit:10;}
	.st64{fill:#F40000;stroke:#990D0D;stroke-width:3;stroke-miterlimit:10;}
	.st65{fill:#F40000;stroke:#990D0D;stroke-miterlimit:10;}
	.st66{fill:#F40000;}
	.st67{fill:#990D0D;}
	.st68{fill:#FF9D00;}
	.st69{fill:#E6681E;}
	.st70{fill:#FFCB00;}
	.st71{fill:#B58B06;}
	.st72{fill:#3A4C09;}
	.st73{fill:#B94850;stroke:#6C0A04;stroke-width:3;stroke-miterlimit:10;}
	.st74{fill:#CE8645;stroke:#CE8645;stroke-width:0.5;stroke-miterlimit:10;}
	.st75{fill:#6C0A04;stroke:#6C0A04;stroke-width:0.5;stroke-miterlimit:10;}
	.st76{fill:none;stroke:#6C0A04;stroke-linecap:round;stroke-miterlimit:10;}
	.st77{fill:#B94850;}
	.st78{fill:#CE8645;}
	.st79{fill:#6C0A04;}
	.st80{fill:#8C4F6F;}
	.st81{fill:#E7C456;}
	.st82{fill:#391A26;}
	.st83{fill:#E7C456;stroke:#AC5E17;stroke-width:3;stroke-miterlimit:10;}
	.st84{fill:#4F250E;stroke:#4F250E;stroke-width:0.5;stroke-miterlimit:10;}
	.st85{fill:none;stroke:#AC5E17;stroke-linecap:round;stroke-miterlimit:10;}
	.st86{fill:#4F250E;}
	.st87{fill:#995116;}
	.st88{fill:#FD801E;stroke:#9E0E00;stroke-width:3;stroke-miterlimit:10;}
	.st89{fill:#FD801E;stroke:#9E0E00;stroke-linecap:round;stroke-miterlimit:10;}
	.st90{opacity:0.8;fill:#FFBC42;}
	.st91{opacity:0.8;fill:#D03400;}
	.st92{fill:none;stroke:#9E0E00;stroke-linecap:round;stroke-miterlimit:10;}
	.st93{fill:#FFBC42;}
	.st94{fill:none;stroke:#9E0E00;stroke-width:3;stroke-miterlimit:10;}
	.st95{fill:#344C00;}
	.st96{fill:#FD801E;}
	.st97{fill:#9E0E00;}
	.st98{fill:#FDAF48;}
	.st99{fill:#D74E1E;}
	.st100{opacity:0.8;fill:#68664C;}
	.st101{fill:#775E49;}
	.st102{fill:#FF7A00;}
	.st103{fill:#FF7A00;stroke:#F44500;stroke-width:3;stroke-miterlimit:10;}
	.st104{fill:none;stroke:#F44500;stroke-linecap:round;stroke-linejoin:round;stroke-miterlimit:10;}
	.st105{fill:#FF7A00;stroke:#F44500;stroke-linecap:round;stroke-linejoin:round;stroke-miterlimit:10;}
	.st106{fill:#F44500;}
	.st107{fill:#F6E600;stroke:#A2A121;stroke-linecap:round;stroke-linejoin:round;stroke-miterlimit:10;}
	.st108{fill:none;stroke:#F9EE87;stroke-linecap:round;stroke-linejoin:round;stroke-miterlimit:10;}
	.st109{fill:#77B344;}
	.st110{fill:#F6E600;}
	.st111{fill:#F9EE87;}
</style>
<g>
	<path class="st110" d="M50.6,20.6c0.7-1.9,0.4-3.9-0.7-5.5c-0.3,0.4-1.5,0.1-2.8-0.6c-1.2-0.7-2.1-1.6-1.9-2.1
		c-2-0.1-4.1,0.7-5.4,2.5c-8.5,12.2-10.5,22.9-20.1,33.7c-4.5,5-10.7,7-14.9,7.8c-1.6,0.3-1.8,2.5-0.3,3.1c5.3,2,17.4,2.9,27.8-8.7
		C44.8,36.9,50.6,20.6,50.6,20.6z"/>
	<path class="st1" d="M50.3,15.2c0-1.5,0.4-2.9,1.2-4.1c0.9-1.3,1.6-2.3,2.2-3c1.1-1.2,2.3-1.9,3.4-1.9c0.5,0,1.1,0.1,1.7,0.4
		c0.3,0.1,0.6,0.2,0.9,0.2c0.9,0,1.7-0.5,2.1-1.3c0.3-0.6,0.3-1.2,0.1-1.8c-0.2-0.6-0.6-1-1.2-1.3c-0.3-0.1-1.5-0.7-3.2-0.7
		c-2.2,0-5.6,0.9-8.7,5.4c-0.4,0.6-0.8,1.1-1.1,1.7c-1,1.6-1.7,2.7-2.6,3.1l0.4,1.4l3.2,1.9L50.3,15.2z"/>
	<path class="st110" d="M50.6,20.6c0.7-1.9,0.4-3.9-0.7-5.5c-0.3,0.4-1.5,0.1-2.8-0.6c-1.2-0.7-2.1-1.6-1.9-2.1
		c-2-0.1-4.1,0.7-5.4,2.5c-8.5,12.2-10.5,22.9-20.1,33.7c-4.5,5-10.7,7-14.9,7.8c-1.6,0.3-1.8,2.5-0.3,3.1c5.3,2,17.4,2.9,27.8-8.7
		C44.8,36.9,50.6,20.6,50.6,20.6z"/>
	<path class="st110" d="M50.6,20.6c0.7-1.9,0.4-3.9-0.7-5.5c-0.3,0.4-1.5,0.1-2.8-0.6c-1.2-0.7-2.1-1.6-1.9-2.1
		c-2-0.1-4.1,0.7-5.4,2.5c-8.5,12.2-10.5,22.9-20.1,33.7c-4.5,5-10.7,7-14.9,7.8c-1.6,0.3-1.8,2.5-0.3,3.1c5.3,2,17.4,2.9,27.8-8.7
		C44.8,36.9,50.6,20.6,50.6,20.6z"/>
	<path class="st2" d="M52.8,13.9c-0.4-0.6-0.5-1.4-0.1-2c0,0,0,0,0,0c1-1.6,1.7-2.4,2.1-2.8c0.8-0.9,1.6-1.4,2.3-1.4
		c0.3,0,0.7,0.1,1.1,0.3c0.8,0.4,1.6,0.4,2.5,0.2C61.4,8,62,7.6,62.5,7.1c1-1.1,1.2-2.6,0.7-3.9c-0.3-0.9-1-1.7-1.9-2.1
		c-0.4-0.2-1.9-0.8-3.8-0.8c-2.6,0-6.4,1.1-9.9,6.1c-0.4,0.6-0.8,1.2-1.2,1.8c0,0.1-0.1,0.2-0.1,0.2c-0.4,0.6-1,0.9-1.7,0.9
		c-1.6-0.1-4.7,0.3-7.2,3.9c-3.8,5.5-6.4,10.6-8.8,15.6c-3,6.2-5.9,12-11,17.8c-3.8,4.3-9.1,6.1-13,6.8c-2,0.4-3.9,2.3-4,4.3
		c-0.1,2,1.1,3.9,3,4.6c1.3,0.5,4.3,1.4,8.3,1.4c1.6,0,3.4-0.1,5.3-0.5c6.6-1.3,12.4-4.8,17.4-10.4c12.6-14.1,18.5-30.4,18.8-31.2
		C54.8,17.9,53.6,15.2,52.8,13.9z M48.8,15.7c0.6,0.1,1.2,0.5,1.4,1.1c0.4,1.2,0.3,2.4-0.1,3.6c0,0,0,0,0,0
		C50,20.5,44.2,36.8,32,50.5C27.3,55.7,16.3,63.4,4.8,59C4.2,58.8,4,58.3,4,57.9c0-0.4,0.3-0.9,0.9-1c4.4-0.8,10.6-2.8,15.2-8
		c5.5-6.1,8.4-12.2,11.6-18.6c2.4-4.9,4.8-9.9,8.5-15.2c0.8-1.2,2.1-2,3.5-2.2c0.5-0.1,1,0.1,1.3,0.5c0.4,0.5,1.1,1.1,1.8,1.4
		C47.4,15.2,48.2,15.6,48.8,15.7z M60.4,4.8c-0.1,0.3-0.4,0.5-0.7,0.5c-0.1,0-0.2,0-0.3-0.1c-0.8-0.4-1.6-0.5-2.3-0.5
		c-1.6,0-3.1,0.8-4.5,2.3c-0.8,0.8-1.6,2-2.4,3.2c-0.7,1.1-1.2,2.4-1.4,3.7c0,0.4-0.4,0.6-0.8,0.4c-0.2-0.1-0.5-0.2-0.7-0.4
		c-0.2-0.1-0.4-0.3-0.6-0.4c-0.3-0.2-0.3-0.6,0-0.9c1.3-1.1,2.2-3,3.4-4.7c2.7-3.9,5.5-4.8,7.4-4.8C59,3.3,60,3.8,60,3.8
		C60.4,4,60.6,4.4,60.4,4.8z"/>
	<path class="st26" d="M35.3,29.2c-0.1,0-0.2,0-0.2-0.1c-0.2-0.1-0.4-0.4-0.2-0.7c1.9-3.8,4.1-7.9,7-12.2c0.2-0.2,0.5-0.3,0.7-0.1
		c0.2,0.2,0.3,0.5,0.1,0.7c-2.9,4.2-5.1,8.3-7,12.1C35.7,29.1,35.5,29.2,35.3,29.2z"/>
	<path class="st26" d="M17.9,54.8c-0.2,0-0.3-0.1-0.4-0.2c-0.2-0.2-0.1-0.5,0.1-0.7c1.5-1.1,2.9-2.3,4-3.6c1.1-1.2,2.1-2.5,3.1-3.8
		c0.2-0.2,0.5-0.3,0.7-0.1c0.2,0.2,0.3,0.5,0.1,0.7c-1,1.3-2.1,2.6-3.2,3.9c-1.2,1.4-2.7,2.7-4.2,3.8C18.1,54.8,18,54.8,17.9,54.8z"
		/>
	<path class="st111" d="M40.2,34.3c-0.1,0-0.2,0-0.3-0.1c-0.2-0.1-0.3-0.5-0.2-0.7c4.9-8.3,7.7-14.8,7.7-14.9
		c0.1-0.3,0.4-0.4,0.7-0.3c0.3,0.1,0.4,0.4,0.3,0.7c0,0.1-2.8,6.7-7.7,15C40.5,34.2,40.4,34.3,40.2,34.3z"/>
	<path class="st111" d="M30.5,48.6c-0.1,0-0.2,0-0.3-0.1c-0.2-0.2-0.3-0.5-0.1-0.7c1.5-1.9,3.1-4,4.6-6.2c0.2-0.2,0.5-0.3,0.7-0.1
		c0.2,0.2,0.3,0.5,0.1,0.7c-1.5,2.2-3,4.3-4.6,6.2C30.8,48.5,30.6,48.6,30.5,48.6z"/>
	<path class="st111" d="M29.9,46.1c-0.1,0-0.2,0-0.3-0.1c-0.2-0.2-0.3-0.5-0.1-0.7c5.9-7.4,10.3-15.3,13-20.5
		c0.1-0.2,0.4-0.3,0.7-0.2c0.2,0.1,0.3,0.4,0.2,0.7c-2.7,5.3-7.2,13.2-13.1,20.7C30.2,46,30,46.1,29.9,46.1z"/>
	<circle class="st26" cx="33.4" cy="32.6" r="0.5"/>
</g>
</svg>
