<?xml version="1.0" encoding="utf-8"?>
<!-- Generator: Adobe Illustrator 20.0.0, SVG Export Plug-In . SVG Version: 6.00 Build 0)  -->
<svg version="1.1" id="Layer_1" xmlns="http://www.w3.org/2000/svg" xmlns:xlink="http://www.w3.org/1999/xlink" x="0px" y="0px"
	 viewBox="0 0 500 500" style="enable-background:new 0 0 500 500;" xml:space="preserve">
<style type="text/css">
	.st0{fill:#425F05;}
	.st1{fill:#3F8A23;}
	.st2{fill:#6A5129;}
	.st3{fill:#FFEDA1;}
	.st4{fill:#E5D58F;stroke:#CBBE7C;stroke-linecap:round;stroke-miterlimit:10;}
	.st5{fill:#E5D58F;stroke:#CBBE7C;stroke-miterlimit:10;}
	.st6{fill:#D8C38F;}
	.st7{fill:#B29032;}
	.st8{fill:#2E6000;}
	.st9{fill:#74C600;}
	.st10{fill:#C6CC40;}
	.st11{fill:#A6B135;}
	.st12{fill:#C6CC40;stroke:#A6B135;stroke-width:3;stroke-linecap:round;stroke-linejoin:round;stroke-miterlimit:10;}
	.st13{fill:#72621E;}
	.st14{fill:#CBBE7C;}
	.st15{fill:#998E5F;}
	.st16{fill:#F7D63C;}
	.st17{fill:#00FFFF;}
	.st18{clip-path:url(#SVGID_2_);}
	.st19{fill:none;stroke:#CBBE7C;stroke-width:2;stroke-miterlimit:10;}
	.st20{fill:none;stroke:#CBBE7C;stroke-width:2;stroke-linecap:round;stroke-miterlimit:10;}
	.st21{fill:#E1C25F;}
	.st22{fill:#DABF62;}
	.st23{fill:#CEBC5A;}
	.st24{fill:#BEB74F;}
	.st25{fill:#B6B44C;}
	.st26{fill:#998617;}
	.st27{fill:#FFFFFF;}
	.st28{clip-path:url(#SVGID_4_);}
	.st29{fill:none;stroke:#E1C25F;stroke-miterlimit:10;}
	.st30{fill:#C6CC40;stroke:#A6B135;stroke-linecap:round;stroke-miterlimit:10;}
	.st31{fill:#C6CC40;stroke:#A6B135;stroke-linecap:round;stroke-linejoin:round;stroke-miterlimit:10;}
	.st32{fill:none;stroke:#A6B135;stroke-linecap:round;stroke-miterlimit:10;}
	.st33{fill:none;stroke:#E1C25F;stroke-linecap:round;stroke-linejoin:round;stroke-miterlimit:10;}
	.st34{fill:none;stroke:#A6B135;stroke-linecap:round;stroke-linejoin:round;stroke-miterlimit:10;}
	.st35{fill:#E5E54A;}
	.st36{fill:#CCAE58;}
	.st37{fill:#809931;}
	.st38{fill:none;stroke:#CFB04D;stroke-linecap:round;stroke-miterlimit:10;}
	.st39{fill:#E7D572;}
	.st40{fill:#CFB04D;}
	.st41{fill:#E5D58F;}
	.st42{fill:none;stroke:#E1C25F;stroke-width:2;stroke-linecap:round;stroke-linejoin:round;stroke-miterlimit:10;}
	.st43{fill:none;stroke:#E1C25F;stroke-linecap:round;stroke-miterlimit:10;}
	.st44{opacity:0.7;fill:#2E6000;stroke:#2E6000;stroke-linecap:round;stroke-linejoin:round;stroke-miterlimit:10;}
	.st45{fill:none;stroke:#CFB04D;stroke-width:2;stroke-linecap:round;stroke-linejoin:round;stroke-miterlimit:10;}
	.st46{fill:#73AD4E;}
	.st47{fill:#4C8816;}
	.st48{fill:#AC933F;}
	.st49{fill:none;stroke:#B29032;stroke-width:2;stroke-linecap:round;stroke-miterlimit:10;}
	.st50{fill:#D8C38F;stroke:#B29032;stroke-linejoin:round;stroke-miterlimit:10;}
	.st51{fill:#E7D572;stroke:#B29032;stroke-linejoin:round;stroke-miterlimit:10;}
	.st52{fill:#FFEDA1;stroke:#CBBE7C;stroke-linecap:round;stroke-miterlimit:10;}
	.st53{fill:#FFEDA1;stroke:#CBBE7C;stroke-width:0.9424;stroke-linecap:round;stroke-miterlimit:10;}
	.st54{fill:#FFEDA1;stroke:#CBBE7C;stroke-width:0.9424;stroke-miterlimit:10;}
	.st55{fill:none;stroke:#CBBE7C;stroke-width:1.8847;stroke-linecap:round;stroke-miterlimit:10;}
	.st56{fill:#FFEDA1;stroke:#CBBE7C;stroke-miterlimit:10;}
	.st57{fill:none;stroke:#FFFFFF;stroke-width:7;stroke-linecap:round;stroke-miterlimit:10;}
	.st58{fill:#ECE8DB;}
	.st59{fill:#5B3A03;}
	.st60{fill:#ECE8DB;stroke:#5B3A03;stroke-linecap:round;stroke-linejoin:round;stroke-miterlimit:10;}
	.st61{fill:none;stroke:#7A7F16;stroke-width:3;stroke-linecap:round;stroke-linejoin:round;stroke-miterlimit:10;}
	.st62{fill:none;stroke:#7A7F16;stroke-linecap:round;stroke-linejoin:round;stroke-miterlimit:10;}
	.st63{fill:none;stroke:#9FAD1C;stroke-width:3;stroke-linecap:round;stroke-linejoin:round;stroke-miterlimit:10;}
	.st64{fill:none;stroke:#9FAD1C;stroke-linecap:round;stroke-linejoin:round;stroke-miterlimit:10;}
	.st65{fill:#F3E382;stroke:#A72801;stroke-linejoin:round;stroke-miterlimit:10;}
	.st66{clip-path:url(#SVGID_6_);}
	.st67{clip-path:url(#SVGID_8_);}
	.st68{fill:#A72801;}
	.st69{clip-path:url(#SVGID_10_);}
	.st70{clip-path:url(#SVGID_12_);}
	.st71{clip-path:url(#SVGID_14_);}
	.st72{clip-path:url(#SVGID_16_);}
	.st73{clip-path:url(#SVGID_18_);}
	.st74{clip-path:url(#SVGID_20_);}
	.st75{fill:url(#);stroke:#F3E382;stroke-linejoin:round;stroke-miterlimit:10;}
	.st76{clip-path:url(#SVGID_22_);}
	.st77{clip-path:url(#SVGID_24_);}
	.st78{fill:#FFFCEE;}
	.st79{clip-path:url(#SVGID_26_);}
	.st80{fill:#9FAD1C;stroke:#7A7F16;stroke-linecap:round;stroke-linejoin:round;stroke-miterlimit:10;}
	.st81{fill:#7F3701;}
	.st82{fill:#F3E382;}
	.st83{clip-path:url(#SVGID_28_);}
	.st84{clip-path:url(#SVGID_30_);}
	.st85{clip-path:url(#SVGID_32_);}
	.st86{fill:#9FAD1C;}
	.st87{fill:#7A7F16;}
	.st88{fill:none;stroke:#516000;stroke-width:3;stroke-linecap:round;stroke-linejoin:round;stroke-miterlimit:10;}
	.st89{fill:none;stroke:#516000;stroke-linecap:round;stroke-linejoin:round;stroke-miterlimit:10;}
	.st90{fill:#DCB375;stroke:#BB4126;stroke-linejoin:round;stroke-miterlimit:10;}
	.st91{fill:#CC6352;}
	.st92{opacity:0.6;fill:none;stroke:#DCB375;stroke-width:3;stroke-miterlimit:10;}
	.st93{opacity:0.7;fill:none;stroke:#DCB375;stroke-width:3;stroke-miterlimit:10;}
	.st94{opacity:0.8;fill:none;stroke:#DCB375;stroke-width:3;stroke-miterlimit:10;}
	.st95{opacity:0.9;fill:none;stroke:#DCB375;stroke-width:3;stroke-miterlimit:10;}
	.st96{opacity:0.5;fill:none;stroke:#DCB375;stroke-width:3;stroke-miterlimit:10;}
	.st97{opacity:0.4;fill:none;stroke:#DCB375;stroke-width:3;stroke-miterlimit:10;}
	.st98{opacity:0.3;fill:none;stroke:#DCB375;stroke-width:3;stroke-miterlimit:10;}
	.st99{opacity:0.2;fill:none;stroke:#DCB375;stroke-width:3;stroke-miterlimit:10;}
	.st100{opacity:0.1;fill:none;stroke:#DCB375;stroke-width:3;stroke-miterlimit:10;}
	.st101{clip-path:url(#SVGID_34_);}
	.st102{clip-path:url(#SVGID_36_);}
	.st103{fill:#EEA969;}
	.st104{clip-path:url(#SVGID_38_);}
	.st105{clip-path:url(#SVGID_40_);}
	.st106{clip-path:url(#SVGID_42_);}
	.st107{clip-path:url(#SVGID_44_);}
	.st108{clip-path:url(#SVGID_46_);}
	.st109{clip-path:url(#SVGID_48_);}
	.st110{fill:none;stroke:#BB4126;stroke-linejoin:round;stroke-miterlimit:10;}
	.st111{fill:#919C3E;stroke:#516000;stroke-linecap:round;stroke-linejoin:round;stroke-miterlimit:10;}
	.st112{fill:#B23926;}
	.st113{fill:#DCB375;}
	.st114{fill:#D4936B;}
	.st115{fill:#D69B6E;}
	.st116{fill:#D8A372;}
	.st117{fill:#D9AA75;}
	.st118{fill:#D28B67;}
	.st119{fill:#D08363;}
	.st120{fill:#CF7B5F;}
	.st121{fill:#CD735C;}
	.st122{fill:#CC6B58;}
	.st123{fill:#EEA969;stroke:#EEA969;stroke-width:2.968;stroke-miterlimit:10;}
	.st124{fill:#919C3E;}
	.st125{fill:#516000;}
	.st126{fill:#E8F1D7;stroke:#3F8A23;stroke-linecap:round;stroke-linejoin:round;stroke-miterlimit:10;}
	.st127{fill:#6CA647;stroke:#3F8A23;stroke-linecap:round;stroke-linejoin:round;stroke-miterlimit:10;}
	.st128{fill:#E8F1D7;}
	.st129{fill:#7FBF55;}
	.st130{opacity:0.7;fill:none;stroke:#7FBF55;stroke-width:1.0462;stroke-miterlimit:10;}
	.st131{opacity:0.5;fill:none;stroke:#7FBF55;stroke-width:1.0462;stroke-miterlimit:10;}
	.st132{opacity:0.3;fill:none;stroke:#7FBF55;stroke-width:1.0462;stroke-miterlimit:10;}
	.st133{opacity:0.1;fill:none;stroke:#7FBF55;stroke-width:1.0462;stroke-miterlimit:10;}
	.st134{fill:#A0CD80;}
	.st135{fill:#B5D799;}
	.st136{fill:#C9E1B2;}
	.st137{fill:#DEEBCB;}
	.st138{fill:none;stroke:#94A20C;stroke-width:2;stroke-linecap:round;stroke-miterlimit:10;}
	.st139{fill:#EBE38F;stroke:#94A20C;stroke-linecap:round;stroke-miterlimit:10;}
	.st140{fill:#EBE38F;stroke:#94A20C;stroke-linejoin:round;stroke-miterlimit:10;}
	.st141{fill:#EBE38F;}
	.st142{fill:#94A20C;}
	.st143{fill:none;stroke:#FFFFFF;stroke-width:7;stroke-linecap:round;stroke-linejoin:round;stroke-miterlimit:10;}
</style>
<g>
	<path class="st0" d="M257.8,23.9c6.5,5.7,9.7,13.9,9.1,22.3l-0.3,4.8c-0.2,2.7,0.8,5.3,2.7,7.2c0.4,0.4,0.7,0.8,1.1,1.2
		c4.8,5.5,7.1,12.5,6.6,19.7l-0.2,2.7c-0.3,3.8,1.1,7.5,3.6,10.4c0,0,0,0,0,0c4.8,5.5,7.1,12.5,6.6,19.7l-0.2,2.5
		c-0.3,3.8,0.9,7.6,3.4,10.4c4.7,5.3,7.4,12.4,6.8,20l-0.2,2.3c-0.3,3.8,0.9,7.6,3.4,10.4c4.7,5.3,7.3,12.4,6.8,19.9l-0.2,2.7
		c-0.3,3.8,0.9,7.6,3.4,10.4c4.7,5.3,7.4,12.4,6.8,20l-2.8,40c-0.3,3.8,5,4.9,6.3,1.4c1.2-3.1,2.3-6.1,3.4-8.9
		c0.6-1.4,1.2-2.8,2.1-4.1c0.3-0.4,0.5-0.9,0.8-1.3c1.1-1.7,2.4-3.1,3.9-4.5c1.2-1.2,2.8-2.5,5-3.8c2.3-1.3,4.3-2,6-2.5
		c2.4-0.8,4.8-1.2,7.3-1.2l0,0l0,0l16.1-0.1l9.2-0.1c0.3,0,0.6,0,1,0c7.4,0,14.6,3.2,19.7,8.7c0.6,0.6,1.1,1.2,1.6,1.9l2.4,3.1
		c0.1,0.2,0.3,0.4,0.3,0.6l0.5,1.6c0,0.1,0,0.1,0.1,0.2c0.4,1,0.8,1.9,1.1,2.9c22.9,72.5,36,117.6,41.3,142.1
		c2.7,12.4,3.4,20,2.7,26.2c-1.3,10.9-7.9,19.2-18,22.8c-2,0.7-5.2,1.7-9.3,1.7c-6,0-14.8-2.1-22.7-12c-3.3-4.2-6.8-10-11.2-18.7
		c-3.4-6.8-7.4-15.4-12.1-26.2c-1.8-4.1-7.7-3.8-9.1,0.4c-14.8,43.8-27.8,80.8-29.9,86.8c-3.9,11-11.5,19.8-21.6,24.8
		c-5.7,2.8-12.1,4.3-18.5,4.3c-4.8,0-9.5-0.8-14.1-2.4c-10.9-3.8-19.5-11.6-24.2-21.9c-1-2.2-1.8-4.5-2.4-6.9
		c-0.2-0.4-0.3-0.9-0.5-1.4l-16.1-52.6c-2.3-7.5-7.3-13.9-14.1-17.7c-3-1.7-5.9-3.7-8.5-6.1c-3.4-3.1-7.1-7.5-11.2-13l-91.6-118.2
		c-4.6-6-6.4-13.4-5.4-20.4c0.5-3.8-0.6-7.5-2.9-10.5l-1.7-2.2c-4.6-6-6.4-13.4-5.4-20.4c0.5-3.7-0.6-7.5-2.9-10.5l-1.5-1.9
		c-4.6-6-6.4-13.4-5.4-20.4c0.5-3.8-0.6-7.5-2.9-10.5l-1.5-2c-4.6-6-6.4-13.4-5.4-20.4c0.5-3.7-0.6-7.5-2.9-10.5l-1.6-2
		c-4.9-6.4-6.6-14.3-5.2-21.7c0.5-2.7-0.3-5.5-1.9-7.7l-2.8-3.6c-9.1-11.8-7-28.9,4.8-38l0.1-0.1l2.9-2.2c0.1-0.1,0.2-0.2,0.4-0.2
		c5.7-2.8,11.5-3.7,17-3c3.3,0.4,6.6-0.8,8.7-3.4c2.2-2.8,4.9-5.1,8-6.9c1.1-0.6,2.2-1.1,3.4-1.6c2.2-0.9,3.9-2.5,4.9-4.6
		c3-6.4,8.4-11.7,15.6-14.2c2.9-1,6-1.6,9-1.6c3.9,0,7.6,0.8,11,2.3c4.1,1.8,8.9,0.4,11.5-3.2c0,0,7.5-11.6,22.2-11.6
		c5.7,0,11,1.8,15.4,4.8c1.5,1,3.5,1.1,5.1,0.2c0,0,7.3-3.3,13.6-3.3c10.3,0,17.5,7.1,17.5,7.1c1,0.9,2,1.9,2.8,3
		c1,1.3,2.6,2,4.2,1.9C238.5,17.1,248.5,15.7,257.8,23.9z"/>
	<polygon class="st141" points="287.7,469 275.2,453.7 349.2,253.2 375.2,254.1 417.8,404.3 406.8,393.9 362.9,291.7 304.2,464.5 	
		"/>
	<polygon class="st141" points="251,369.8 239.1,372.9 220.9,356.4 210.5,334.5 217,330.4 200.2,302.8 206.7,297.4 190.2,267.6 
		197.7,265.8 180.2,235.6 188.7,234.3 169.6,203.4 178.4,201.4 161.6,169.9 176.8,169.9 166.2,148.8 167.5,136.7 164.7,116.9 
		182.2,133.4 193.3,118.7 200,149.3 211.8,140.8 215.2,170.2 226.3,167.9 228.3,200.8 237.1,200.3 237.9,236.7 246.9,231.8 
		248.4,268.6 258.7,266.3 255.9,305.2 266.7,297.4 269.5,324.7 270.8,333.5 280.4,334.3 279.6,362.6 272.6,378.3 263.6,381.1 	"/>
	<path class="st142" d="M169.5,195c0.7,0.9,1.3,1.8,2,2.7c-1.7,0.2-2.6,0.8-3.4,1.6c-0.2,0.2-0.4,0.4-0.5,0.7l-73-94.2
		c-1.3-1.7-3.8-2-5.5-0.7c-1.7,1.3-2,3.8-0.7,5.5l90.9,117.3c0.7,0.9,1.3,1.9,2,2.7c-1.7,0.2-2.6,0.8-3.4,1.6
		c-0.2,0.2-0.4,0.4-0.5,0.7l-73-94.2c-1.3-1.7-3.8-2-5.5-0.7c-1.7,1.3-2,3.8-0.7,5.5l91,117.4c0.7,0.9,1.3,1.8,2,2.7
		c-1.7,0.2-2.6,0.8-3.4,1.6c-0.2,0.2-0.4,0.4-0.5,0.7l-73-94.2c-1.3-1.7-3.8-2-5.5-0.7c-1.7,1.3-2,3.8-0.7,5.5l91,117.4
		c0.6,0.9,1.3,1.7,1.9,2.5c-1.6,0.2-2.6,0.8-3.4,1.6c-0.2,0.2-0.4,0.4-0.5,0.7l-73-94.2c-1.3-1.7-3.8-2-5.5-0.7
		c-1.7,1.3-2,3.8-0.7,5.5l91,117.4c0.7,1,1.4,2,2.1,2.9c-1.7,0.2-2.7,0.8-3.4,1.6c-0.2,0.2-0.4,0.4-0.5,0.7l-73-94.2
		c-1.3-1.7-3.8-2-5.5-0.7c-1.7,1.3-2,3.8-0.7,5.5L219,359.5c3.3,4.6,6.6,8.6,9.3,11c3.7,3.4,8.3,5.1,12.7,5.1c0.2,0,0.5,0,0.7,0
		c3.9-0.2,7.5,2.4,8.6,6.2l23.1,75.4c0.1,0.4,0.3,0.8,0.5,1.2c0.3,1.4,0.7,2.7,1.3,4c2.1,4.6,6,8,10.9,9.8c2.1,0.8,4.3,1.1,6.4,1.1
		c7.9,0,15.1-5.1,18.1-13.6c3.9-11.1,32.2-91.5,53.5-158.3c9.7,24.4,18.5,45.7,25.9,63c6.6,15.3,11.9,27,16,35
		c5.1,10.2,8,14.5,11.4,14.5c0.5,0,1.1-0.1,1.6-0.3c4.2-1.5,3.9-6.6,1.4-18.4c-1.7-8.2-4.7-20.1-8.9-35.3
		c-7.5-27.1-18.8-64.7-32.7-108.5c0-0.1,0-0.1-0.1-0.2c0-0.1-0.1-0.2-0.1-0.3c-0.1-0.2-0.2-0.4-0.4-0.7c0,0,0,0,0,0c0,0,0,0,0,0
		c-0.2-0.2-0.3-0.4-0.5-0.6c0,0,0,0-0.1-0.1c-0.7-0.6-1.5-0.9-2.5-0.9c0,0,0,0,0,0l-10.5,0.1l-15.4,0.1c-1.6,0-3,1-3.6,2.5
		c-16.7,43.1-44.2,120.3-61.1,168c-1.1,3.1-5.5,3-6.5-0.1l-9.5-30.9c-0.5-1.7,0.4-3.6,2-4.2c5.2-1.9,9.6-6.7,11.1-13
		c0.8-3.5,1.4-8.6,1.6-14.3l10.5-148.1c0.2-2.1-1.5-4-3.6-4.2c-2.1-0.2-4,1.5-4.2,3.6l-8.4,118.9c-0.3-0.1-0.5-0.2-0.8-0.3
		c-1.1-0.3-2.2-0.2-3.7,0.5c0.1-1.2,0.1-2.4,0.2-3.6l10.5-148.1c0.2-2.1-1.5-4-3.6-4.2c-2.2-0.2-4,1.5-4.2,3.6L267.5,294
		c-0.3-0.1-0.5-0.2-0.8-0.3c-1.1-0.3-2.2-0.2-3.7,0.5c0.1-1,0.1-2.1,0.1-3.2l10.5-147.9c0.1-2.1-1.3-4.1-3.4-4.3
		c-2.2-0.3-4.2,1.4-4.3,3.6l-8.4,118.9c-0.3-0.1-0.5-0.2-0.8-0.3c-1.1-0.3-2.2-0.2-3.7,0.5c0.1-1.1,0.1-2.2,0.2-3.4l10.5-147.9
		c0.1-2.1-1.3-4.1-3.4-4.3c-2.2-0.2-4.2,1.4-4.3,3.6l-8.4,118.9c-0.3-0.1-0.5-0.2-0.8-0.3c-1.1-0.3-2.2-0.2-3.7,0.5
		c0.1-1.1,0.1-2.2,0.2-3.3l10.5-148.2c0.2-2.1-1.5-4-3.6-4.2c-2.1-0.2-4,1.5-4.2,3.6l-8.4,118.9c-0.3-0.1-0.5-0.2-0.8-0.3
		c-1.1-0.3-2.2-0.2-3.7,0.5c0.1-1.1,0.1-2.2,0.2-3.4l10.5-148.1c0.2-2.1-1.5-4-3.6-4.2c-2.2-0.2-4,1.5-4.2,3.6l-8.4,118.9
		c-0.3-0.1-0.5-0.2-0.8-0.3c-1.7-0.4-3.6-0.2-6.5,2.7c0-1-0.1-2-0.1-3l-2.9-130c0-2.1-1.8-3.8-4-3.8c-2.1,0-3.8,1.8-3.8,4l2.3,103.6
		c-0.1,0-0.1,0-0.2,0c-1.3-0.2-3.5-0.5-7.2,4.7c-0.3-1.6-0.6-3.3-1-5L183.4,29.9c-0.4-2.4-3-3.8-5.3-2.9c-1.7,0.7-2.6,2.6-2.3,4.4
		l15.6,83.5c-1.4,0.2-2.9,1-4.7,4.2c-2,3.6-6.9,4.2-9.8,1.3c-0.7-0.7-1.3-1.3-2-2c-6.4-6.1-9.6-7.3-11.9-6.7l-24.5-69.9
		c-0.7-2.1-3.1-3.2-5.1-2.3c-2,0.8-2.8,3.1-2.1,5.1l31.2,88.8c0.7,2.1,1.4,4.2,2.2,6.1c-0.2,0.1-0.4,0.3-0.6,0.4l-45.3-80.2
		c-1.2-2.1-4-2.7-6-1c-1.4,1.2-1.7,3.3-0.8,4.9l57.1,101c0.3,0.6,0.6,1.1,0.9,1.6c-7.6-2.7-10.2-1.6-11.7,0
		c-0.2,0.2-0.4,0.4-0.5,0.7l-73-94.2c-1.3-1.7-3.8-2-5.5-0.7c-1.7,1.3-2,3.8-0.7,5.5L169.5,195z M405.1,379.4
		c-10.6-23.5-26.7-62.3-48.3-117.7c-0.9-2.4,0.8-5.1,3.4-5.1l9.2-0.1c1.6,0,3.1,1,3.6,2.6c18,57.2,29.2,95.5,35.3,119.1
		C408.8,380.3,406,381.3,405.1,379.4z M282,449.7l0.5-1.3c12.4-35.1,43.3-122.7,64.1-177.9c0.9-2.4,4.4-2.4,5.3,0
		c2,5.2,4,10.3,6,15.3c1.1,2.8,1.2,5.9,0.3,8.7c-21.5,67.5-50.9,151.4-54.9,162.7c-2.3,6.6-8.5,9.9-14.6,7.7c-2.9-1-5.2-3-6.4-5.7
		C280.9,456.3,280.9,453,282,449.7z M170.1,181.6c-1.8-3,1.4-6.4,4.5-5c6.9,3.2,15.1,7.9,19.8,12.3c2,1.9,3.3,4.3,3.6,6.7
		c0.3,2.2-0.3,4.2-1.6,5.6c-2.9,3.1-8.5,2.6-12.5-1.1c-1.2-1.1-2.6-2.6-3.9-4.2c-0.1-0.2-0.2-0.3-0.3-0.5l-4-5.2
		C173.7,187.5,171.8,184.5,170.1,181.6z M175.7,160.7c-1.2-2.3-2.3-4.8-3.3-7.1c-0.7-1.7,1.2-3.3,2.8-2.3c5,3.3,10.7,7.8,13.8,11.6
		c1.2,1.5,1.9,3.3,1.9,5.1c0,0.9-0.2,2.5-1.5,3.5c-1.3,1.1-2.9,0.9-3.8,0.8c-1.7-0.3-3.3-1.4-4.6-2.9c-0.8-1-1.6-2.2-2.5-3.6
		c-0.1-0.1-0.1-0.3-0.2-0.4L175.7,160.7z M179.4,138.8c-0.1,0.6-0.4,1.6-1.4,2.1c-1.6,0.9-4.1-0.3-5.4-2.6c-0.5-0.9-1-1.9-1.4-3.1
		c0-0.1,0-0.3-0.1-0.4l-1.5-4.3c-0.2-0.7-0.4-1.4-0.6-2.1c-0.5-1.9,1.8-3.2,3.2-1.8c2.6,2.7,5.1,5.8,6.5,8.3
		C179.4,136.2,179.6,137.6,179.4,138.8z M195.6,137.1l0.9,4.7c0,0.1,0.1,0.3,0.1,0.4c0.2,1.5,0.4,2.8,0.4,4c0,1.7-0.5,3.4-1.5,4.6
		c-0.5,0.6-1.5,1.6-2.9,1.6c-1.5,0-2.5-0.9-3-1.5c-1-1.1-1.6-2.8-1.6-4.5v0c-0.1-4.2,1.1-10,2.5-15c0.5-1.8,3.1-1.8,3.6,0
		C194.6,133.2,195.1,135.2,195.6,137.1z M212.1,162l0.1,6.2c0,0.2,0,0.4,0.1,0.6c0,1.8-0.1,3.5-0.3,4.9c-0.3,2.3-1.4,4.3-2.9,5.7
		c-1.3,1.2-2.9,1.7-4.4,1.5c-1.5-0.2-2.9-1.2-3.8-2.7c-1.1-1.7-1.5-4-1.2-6.3v0c0.7-4.6,2.9-10.8,5.3-16.2c1.5-3.2,6.3-2.5,6.7,1
		C211.8,158.4,212,160.2,212.1,162z M225.3,192.1l-0.5,6.7c0,0.2,0,0.4,0,0.6c-0.2,2.1-0.5,4.1-0.9,5.7c-1.3,5.3-5.7,8.8-9.8,7.8
		c-1.9-0.4-3.4-1.8-4.4-3.8c-1.1-2.2-1.4-4.9-0.7-7.6v0c1.5-6.3,5.7-14.7,9.7-21.2c1.8-3,6.3-1.8,6.5,1.6
		C225.3,185.1,225.4,188.6,225.3,192.1z M235.3,224.9l-0.5,6.7c0,0.2,0,0.4,0,0.6c-0.2,2.1-0.5,4.1-0.9,5.7c-0.6,2.7-2.1,5-4.1,6.5
		c-1.8,1.3-3.8,1.8-5.7,1.4c-1.9-0.4-3.4-1.8-4.4-3.8c-1.1-2.2-1.4-4.9-0.7-7.6c1.5-6.3,5.7-14.7,9.7-21.2c1.8-3,6.3-1.8,6.5,1.6
		C235.4,217.9,235.4,221.5,235.3,224.9z M245.4,257.8l-0.5,6.7c0,0.2,0,0.4,0,0.6c-0.2,2.1-0.5,4.1-0.9,5.7
		c-1.3,5.3-5.7,8.8-9.8,7.8c-1.9-0.4-3.4-1.8-4.4-3.8c-1.1-2.2-1.4-4.9-0.7-7.6v0c1.5-6.3,5.7-14.7,9.7-21.2c1.8-3,6.3-1.8,6.5,1.6
		C245.4,250.8,245.4,254.3,245.4,257.8z M255.4,290.6l-0.5,6.7c0,0.2,0,0.4,0,0.6c-0.2,2.1-0.5,4.1-0.9,5.7c-0.6,2.7-2.1,5-4.1,6.5
		c-1.8,1.3-3.8,1.8-5.7,1.4c-1.9-0.4-3.4-1.8-4.4-3.8c-1.1-2.2-1.4-4.9-0.7-7.6c1.5-6.3,5.7-14.7,9.7-21.2c1.8-3,6.3-1.8,6.5,1.6
		C255.4,283.6,255.5,287.2,255.4,290.6z M265.4,323.3L265,330c0,0.2,0,0.4,0,0.6c-0.2,2.1-0.5,4.1-0.9,5.7c-1.3,5.3-5.7,8.8-9.8,7.8
		c-1.9-0.4-3.4-1.8-4.4-3.8c-1.1-2.2-1.4-4.9-0.7-7.6v0c1.5-6.3,5.7-14.7,9.7-21.2c1.8-3,6.3-1.8,6.5,1.6
		C265.5,316.3,265.5,319.9,265.4,323.3z M264.3,377.2c-4.1-1-6.4-6.1-5.1-11.4c1.5-6.3,5.7-14.7,9.7-21.2c1.8-3,6.3-1.8,6.5,1.6
		c0.2,3.3,0.2,6.8,0.1,10.3l-0.5,6.7c0,0.2,0,0.4,0,0.6c-0.2,2.1-0.5,4.1-0.9,5.7C272.8,374.7,268.4,378.2,264.3,377.2z
		 M225.2,354.8c-2-2.8-4-5.8-5.6-8.6c-1.8-3,1.4-6.4,4.5-5c6.9,3.2,15.1,7.9,19.8,12.3c4,3.7,4.9,9.2,2.1,12.3
		c-2.9,3.1-8.5,2.6-12.5-1.1c-1.2-1.1-2.6-2.6-3.9-4.2c-0.1-0.2-0.2-0.3-0.3-0.5L225.2,354.8z M215.2,321.7c-2-2.8-4-5.8-5.6-8.6
		c-1.8-3,1.4-6.4,4.5-5c6.9,3.2,15.1,7.9,19.8,12.3c2,1.9,3.3,4.3,3.6,6.7c0.3,2.2-0.3,4.2-1.6,5.6c-1.3,1.4-3.2,2.1-5.5,2
		c-2.5-0.1-5-1.2-7-3.1c-1.2-1.1-2.6-2.6-3.9-4.2c-0.1-0.2-0.2-0.3-0.3-0.5L215.2,321.7z M205.4,289c-2-2.8-4-5.8-5.6-8.6
		c-1.8-3,1.4-6.4,4.5-5c6.9,3.2,15.1,7.9,19.8,12.3c4,3.7,4.9,9.2,2.1,12.3c-2.9,3.1-8.5,2.6-12.5-1.1c-1.2-1.1-2.6-2.6-3.9-4.2
		c-0.1-0.2-0.2-0.3-0.3-0.5L205.4,289z M195.5,256.1c-2-2.8-4-5.8-5.6-8.7c-1.8-3,1.4-6.4,4.5-5c6.9,3.2,15.1,7.9,19.8,12.3
		c2,1.9,3.3,4.3,3.6,6.7c0.3,2.2-0.3,4.2-1.6,5.6c-1.3,1.4-3.3,2.1-5.5,2c-2.5-0.1-5-1.2-7-3.1c-1.2-1.1-2.6-2.6-3.9-4.2
		c-0.1-0.2-0.2-0.3-0.3-0.5L195.5,256.1z M185.6,223.2c-2-2.8-4-5.8-5.6-8.6c-1.8-3,1.4-6.4,4.5-5c6.9,3.2,15.1,7.9,19.8,12.3v0
		c4,3.7,4.9,9.2,2.1,12.3c-2.9,3.1-8.5,2.6-12.5-1.1c-1.2-1.1-2.6-2.6-3.9-4.2c-0.1-0.2-0.2-0.3-0.3-0.5L185.6,223.2z"/>
	<circle class="st27" cx="192.3" cy="131.7" r="4"/>
	<circle class="st27" cx="205.4" cy="162.4" r="4"/>
	<circle class="st27" cx="215.6" cy="192.9" r="4"/>
	<circle class="st27" cx="225.8" cy="225.5" r="4"/>
	<circle class="st27" cx="235.8" cy="258.7" r="4"/>
	<circle class="st27" cx="245.6" cy="291.5" r="4"/>
	<circle class="st27" cx="339.5" cy="298.4" r="4"/>
	<circle class="st27" cx="255.8" cy="324.1" r="4"/>
	<circle class="st27" cx="265.8" cy="357.2" r="4"/>
	<circle class="st27" cx="171.1" cy="128.3" r="4"/>
	<circle class="st27" cx="175" cy="153.5" r="4"/>
	<circle class="st27" cx="171.8" cy="178.9" r="4"/>
	<circle class="st27" cx="181.8" cy="211.1" r="4"/>
	<circle class="st27" cx="193" cy="245.3" r="4"/>
	<circle class="st27" cx="200.5" cy="276" r="4"/>
	<circle class="st27" cx="211.7" cy="310.3" r="4"/>
	<circle class="st27" cx="222.3" cy="343.7" r="4"/>
	<line class="st143" x1="316.6" y1="360" x2="333.5" y2="313.9"/>
</g>
</svg>
