<?xml version="1.0" encoding="utf-8"?>
<!-- Generator: Adobe Illustrator 20.0.0, SVG Export Plug-In . SVG Version: 6.00 Build 0)  -->
<svg version="1.1" id="Layer_1" xmlns="http://www.w3.org/2000/svg" xmlns:xlink="http://www.w3.org/1999/xlink" x="0px" y="0px"
	 viewBox="0 0 500 500" style="enable-background:new 0 0 500 500;" xml:space="preserve">
<style type="text/css">
	.st0{fill:#8AA77B;}
	.st1{fill:#365219;}
	.st2{fill:#6E9635;}
	.st3{fill:none;stroke:#365219;stroke-linecap:round;stroke-miterlimit:10;}
	.st4{fill:none;stroke:#FFFFFF;stroke-linecap:round;stroke-miterlimit:10;}
	.st5{fill:#90C53E;}
	.st6{fill:#218100;}
	.st7{fill:#5ABC18;}
	.st8{fill:#1C6600;}
	.st9{fill:#5ABC18;stroke:#1C6600;stroke-linecap:round;stroke-linejoin:round;stroke-miterlimit:10;}
	.st10{fill:#00FFFF;}
	.st11{clip-path:url(#SVGID_2_);}
	.st12{fill:none;stroke:#FFFFFF;stroke-linecap:round;stroke-linejoin:round;stroke-miterlimit:10;}
	.st13{fill:#318F00;}
	.st14{fill:#006837;}
	.st15{fill:#FFFFFF;}
	.st16{fill:none;stroke:#218100;stroke-linecap:round;stroke-linejoin:round;stroke-miterlimit:10;}
	.st17{fill:#90C53E;stroke:#218100;stroke-width:3;stroke-miterlimit:10;}
	.st18{fill:#90C53E;stroke:#218100;stroke-miterlimit:10;}
	.st19{fill:#3D7519;}
	.st20{fill:none;stroke:#365219;stroke-width:0.9309;stroke-linecap:round;stroke-miterlimit:10;}
	.st21{fill:none;stroke:#365219;stroke-width:1.1845;stroke-linecap:round;stroke-miterlimit:10;}
	.st22{fill:none;stroke:#365219;stroke-width:3;stroke-linecap:round;stroke-linejoin:round;stroke-miterlimit:10;}
</style>
<path class="st5" d="M83.6,466.2c-11.9,0-33-1.2-40.8-9c-10.3-10.3-10.8-46.4-6.1-75.2c5.1-31.2,18.9-76.2,55.9-113.1
	c6.5-6.5,14.1-12.1,22.5-16.4c-2.8-2.1-5.5-4.4-7.9-6.9c-37-37-50.8-81.9-55.9-113.1c-4.7-28.8-4.2-64.9,6.1-75.2
	c7.8-7.8,28.9-9,40.8-9c20.8,0,92.9,4.2,147.5,58.8c2.5,2.5,4.8,5.1,7,7.9c4.3-8.3,9.8-15.9,16.3-22.3
	c54.6-54.6,126.7-58.8,147.5-58.8c11.9,0,33,1.2,40.8,9c10.3,10.3,10.8,46.4,6.1,75.2c-5.1,31.2-18.9,76.2-55.9,113.1
	c-6.5,6.5-14.2,11.8-23,15.9c2.9,2.3,5.7,4.8,8.4,7.4c37,37,50.8,81.9,55.9,113.1c4.7,28.8,4.2,64.9-6.1,75.2
	c-7.8,7.8-28.9,9-40.8,9c0,0,0,0,0,0c-20.8,0-92.9-4.2-147.5-58.8c-2.7-2.7-5.1-5.5-7.4-8.5c-4.1,8.8-9.4,16.5-15.9,23
	C176.5,461.9,104.4,466.2,83.6,466.2z"/>
<path class="st15" d="M59.7,419.1C59.7,419.1,59.6,419.1,59.7,419.1c-2,0-3.6-1.6-3.6-3.6c0.1-17.7,3-52.8,21.6-88.7
	c0.9-1.8,3.1-2.5,4.9-1.6c1.8,0.9,2.5,3.1,1.6,4.9c-17.9,34.6-20.7,68.3-20.8,85.4C63.3,417.5,61.7,419.1,59.7,419.1z"/>
<path class="st15" d="M120.4,364.6c-0.9,0-1.9-0.4-2.6-1.1c-1.4-1.4-1.4-3.7,0-5.1l13.7-13.7c1.4-1.4,3.7-1.4,5.1,0
	c1.4,1.4,1.4,3.7,0,5.1L123,363.5C122.3,364.2,121.3,364.6,120.4,364.6z"/>
<path class="st15" d="M81.8,403.1c-0.9,0-1.9-0.4-2.6-1.1c-1.4-1.4-1.4-3.7,0-5.1L93.2,383c1.4-1.4,3.7-1.4,5.1,0
	c1.4,1.4,1.4,3.7,0,5.1l-13.9,13.9C83.7,402.8,82.8,403.1,81.8,403.1z"/>
<path class="st15" d="M328.5,84.5c-1.3,0-2.6-0.7-3.2-2c-0.9-1.8-0.2-4,1.6-4.9c35.9-18.6,71-21.5,88.7-21.6c0,0,0,0,0,0
	c2,0,3.6,1.6,3.6,3.6c0,2-1.6,3.6-3.6,3.6c-17,0.1-50.8,2.9-85.4,20.8C329.7,84.4,329.1,84.5,328.5,84.5z"/>
<path class="st15" d="M347.3,137.9c-0.9,0-1.9-0.4-2.6-1.1c-1.4-1.4-1.4-3.7,0-5.1l13.7-13.7c1.4-1.4,3.7-1.4,5.1,0
	c1.4,1.4,1.4,3.7,0,5.1l-13.7,13.7C349.1,137.5,348.2,137.9,347.3,137.9z"/>
<path class="st15" d="M385.6,99.5c-0.9,0-1.9-0.4-2.6-1.1c-1.4-1.4-1.4-3.7,0-5.1L397,79.3c1.4-1.4,3.7-1.4,5.1,0
	c1.4,1.4,1.4,3.7,0,5.1l-13.9,13.9C387.5,99.1,386.6,99.5,385.6,99.5z"/>
<path class="st15" d="M167.3,152.3c-0.9,0-1.9-0.4-2.6-1.1L151,137.5c-1.4-1.4-1.4-3.7,0-5.1c1.4-1.4,3.7-1.4,5.1,0l13.7,13.7
	c1.4,1.4,1.4,3.7,0,5.1C169.2,152,168.3,152.3,167.3,152.3z"/>
<path class="st15" d="M129,113.9c-0.9,0-1.9-0.4-2.6-1.1l-13.9-13.9c-1.4-1.4-1.4-3.7,0-5.1c1.4-1.4,3.7-1.4,5.1,0l13.9,13.9
	c1.4,1.4,1.4,3.7,0,5.1C130.8,113.6,129.9,113.9,129,113.9z"/>
<path class="st15" d="M327.4,312.5c-0.9,0-1.9-0.4-2.6-1.1l-13.9-13.9c-1.4-1.4-1.4-3.7,0-5.1c1.4-1.4,3.7-1.4,5.1,0l13.9,13.9
	c1.4,1.4,1.4,3.7,0,5.1C329.3,312.2,328.3,312.5,327.4,312.5z"/>
<path class="st15" d="M365,350.1c-0.9,0-1.9-0.4-2.6-1.1l-13.7-13.7c-1.4-1.4-1.4-3.7,0-5.1c1.4-1.4,3.7-1.4,5.1,0l13.7,13.7
	c1.4,1.4,1.4,3.7,0,5.1C366.8,349.8,365.9,350.1,365,350.1z"/>
<path class="st15" d="M278.7,187.4c-1.3,0-2.6-0.7-3.2-2c-0.9-1.8-0.2-4,1.6-4.9c15.3-7.9,30.2-9.2,37.8-9.2c0,0,0,0,0,0
	c2,0,3.6,1.6,3.6,3.6c0,2-1.6,3.6-3.6,3.6c-6.9,0-20.5,1.2-34.5,8.4C279.8,187.3,279.2,187.4,278.7,187.4z"/>
<path class="st19" d="M456.1,179.4c8.5-18.7,14.6-38.7,18-59.7c3.5-21.6,3.4-38.5,2.6-48.9c-1.7-23.2-7.5-31.5-11.7-35.8
	C460,30.2,452.9,27,442.4,25c-7.4-1.4-16.4-2.1-26-2.1c-24,0-50.4,4.4-74.2,12.5c-31.6,10.7-58.9,27.4-81,49.5
	c-3.7,3.7-7.2,7.8-10.3,12.1c-21.7-21-48.1-36.8-78.6-47.1c-23.8-8.1-50.2-12.5-74.2-12.5c-36.3,0-45.5,9.2-48.5,12.2
	c-4.2,4.2-10,12.5-11.7,35.8c-0.8,10.4-0.9,27.3,2.6,48.9c3.4,20.9,9.5,41,18,59.7c9.8,21.5,22.8,40.6,38.5,56.9
	c-4.3,3.1-8.4,6.6-12.2,10.3C68,278,54.3,298,43.9,320.6c-8.5,18.7-14.6,38.7-18,59.7c-3.5,21.6-3.4,38.5-2.6,48.9
	c1.7,23.2,7.5,31.5,11.7,35.8c4.9,4.9,12.1,8.1,22.5,10.1c7.4,1.4,16.4,2.1,26,2.1c24,0,50.4-4.4,74.2-12.5
	c31.6-10.7,58.9-27.4,81-49.5c3.7-3.7,7.1-7.8,10.2-12.2c21.7,21,48.2,36.9,78.7,47.3c23.8,8.1,50.2,12.5,74.2,12.5
	c36.3,0,45.5-9.2,48.5-12.2c4.2-4.2,10-12.5,11.7-35.8c0.8-10.4,0.9-27.3-2.6-48.9c-3.4-20.9-9.5-41-18-59.7
	c-9.9-21.5-22.9-40.7-38.6-57.1c4.4-3,8.6-6.5,12.3-10.2C432,222,445.7,202,456.1,179.4z M385.1,262.1
	c64.9,64.9,59.5,163.3,49.8,172.9c-3.1,3.1-15.5,5.8-33.1,5.8c-36.7,0-95.9-11.7-139.8-55.6c-15.8-15.8-22.2-38.4-22-60.5
	c0-2.6,1.2-5.1,3.1-6.8c1.4-1.2,2.9-2.6,4.3-3.9c7.8-7.8,11.8-19.3,11.2-32.4c-0.1-2.1-0.3-4.2-0.7-6.3c-0.3-1.8,1.2-3.4,3-3.3
	c0.4,0,0.9,0,1.3,0c0.6,0,1.1,0,1.7,0c1.7-0.1,3.3,0.6,4.5,1.7l12.1,12.1c1.7,1.7,2.2,4.4,1.1,6.6c-4.8,9.5-8.1,25.2-8.1,41
	c0,14.8,2.8,42.5,21.8,61.5c0.7,0.7,1.6,1.1,2.6,1.1c0.9,0,1.8-0.3,2.4-0.9c1.5-1.4,1.5-3.9,0-5.3c-25.8-26-21.4-75.5-12.6-93.5
	c0.5-1.1,1.9-1.3,2.8-0.5l30.3,30.3c1.7,1.7,2.1,4.1,1.2,6.3c-3,7-5.2,17.7-5.6,28.4c-0.4,11.4,0.9,32.5,14.6,46.2
	c0.7,0.7,1.6,1.1,2.6,1.1c0.9,0,1.8-0.3,2.5-1c1.5-1.4,1.5-3.9,0-5.4c-11.6-11.8-12.7-30.5-12.3-40.7c0.4-10.1,2.4-18.8,4.4-24.3
	c0.4-1.2,2-1.5,2.8-0.6l24.6,24.6c1.7,1.7,2.2,4.3,1.1,6.5c-5.8,11.8-6,31.6,6.3,43.9c3.4,3.4,7,6.4,11.2,9.2c0.6,0.4,1.3,0.6,2,0.6
	c1.3,0,2.5-0.7,3.2-1.9c0.9-1.7,0.3-3.8-1.3-4.9c-3.7-2.5-7-5.2-10-8.2c-9.3-9.3-9.6-25.3-5.4-34.8c0.5-1.1,2-1.4,2.8-0.5l45.2,45.2
	c0.7,0.7,1.6,1.1,2.6,1.1c0.9,0,1.7-0.3,2.4-0.9c1.6-1.4,1.5-3.9,0-5.4l-45.4-45.4c-0.8-0.8-0.6-2.2,0.3-2.7
	c10.4-5.9,25.8-3.9,35.2,5.6c3,3,5.7,6.3,8.3,10c1,1.4,2.8,2.1,4.4,1.4c2.2-0.9,2.9-3.5,1.6-5.4c-2.8-4.2-5.9-7.9-9.2-11.2
	c-11.9-11.9-30.8-14.3-44-6.7c-2.2,1.3-5,0.8-6.8-1l-24.8-24.8c-0.8-0.8-0.6-2.2,0.4-2.8c6.4-3.3,16.4-5.4,26.6-5.4c0,0,0.1,0,0.1,0
	c16,0,30.2,5.1,39,13.8c1.4,1.4,3.6,1.5,5.1,0.2c1.6-1.4,1.6-3.8,0.2-5.3c-13.9-13.9-33.7-16-44.3-16c0,0-0.1,0-0.1,0
	c-11.7,0-22.7,2.4-30.3,6.4c-2.2,1.2-4.9,0.8-6.7-1l-30.2-30.2c-0.8-0.8-0.7-2.1,0.3-2.7c9.2-6,24.1-9.3,40-8.6
	c21.5,0.9,41.2,8.7,54.1,21.6c1.5,1.5,3.9,1.4,5.3-0.1c1.3-1.4,1.1-3.7-0.2-5.1c-14.1-14.1-35.5-22.6-58.8-23.6
	c-17.2-0.7-33.1,2.8-43.6,9.4c-2.2,1.4-5.1,1-7-0.9l-11.1-11.1c-1.2-1.2-1.9-3-1.7-4.7c0.1-0.9,0.1-1.8,0.1-2.8
	c0-1.8,1.6-3.1,3.3-2.8c2.4,0.3,4.9,0.5,7.4,0.5c12,0,22.6-4,29.9-11.3c3-3,5.6-6.1,7.9-9.2c0.5-0.7,1.4-1.2,2.3-1.2h0
	C346.2,237.6,368.8,245.8,385.1,262.1z M233.6,261.2l-2.7,2.7c-4.4-2.8-10.7-4.3-17.6-4.3c-0.1,0-0.2,0-0.2,0
	c-9.4,0-18.2,2.9-24.7,8.1c-1.4,1.1-1.9,3-1.1,4.6c1.1,2.1,3.7,2.6,5.5,1.2c9.9-7.9,25.2-8,32.9-4.2l-11.4,11.4
	c-5.2-2.8-13.6-3.8-21-2.3c-1.9,0.4-3.4,2.3-3,4.2c0.4,2,2.3,3.4,4.4,2.9c5.2-1.2,10.6-0.5,14.1,0.6l-9,9
	c-4.4-2.5-10.1-2.9-15.3-0.7c-1.6,0.7-2.6,2.4-2.2,4.1c0.5,2.3,2.9,3.5,5,2.6c2.3-1,4.8-1.1,7-0.5L183,311.9c-1.5,1.5-1.6,4,0,5.4
	c0.7,0.6,1.6,0.9,2.4,0.9c0.9,0,1.9-0.4,2.6-1.1l8.7-8.7c1.1-1.1,2.8-0.2,2.7,1.3c-0.2,2.3-1,4.6-2.7,6.2c-1.1,1.1-2.4,2.1-3.8,3.1
	c-1.6,1.1-2.2,3.2-1.3,4.9c0.7,1.2,1.9,1.9,3.2,1.9c0.7,0,1.4-0.2,2-0.6c1.9-1.3,3.5-2.6,5-4.1c5.6-5.6,6-14.9,3-20.8l6.1-6.1
	c1.1-1.1,3-0.5,3.2,1.1c0.8,6,0.5,14.2-4,18.9c-1.2,1.3-1.6,3.2-0.6,4.7c0.7,1.1,1.9,1.7,3.1,1.7c0.9,0,1.9-0.4,2.6-1.1
	c9-9,7.3-25.8,4.1-33.5l9-9c1-1,2.8-0.5,3.2,0.9c0.6,2.6,1,5.8,1,9.5c0,5.3-1,15.2-7.4,21.7c-1.5,1.5-1.6,4,0,5.4
	c0.7,0.6,1.6,1,2.5,1c0.9,0,1.9-0.4,2.6-1.1c8.4-8.4,9.7-20.6,9.7-27c0-7-1.4-13.8-3.7-18.1l3.1-3.1c0.6-0.6,1.6-0.7,2.3-0.3
	c1.4,0.9,2.9,1.7,4.3,2.4c2.3,1.1,4,3.1,4.5,5.5c2.7,11.8,1,26.1-8,35.1c-18.2,18.2-42.8,23.1-58,23.1c-7.3,0-12.4-1.1-13.7-2.4
	c-4-4-6.3-44.8,20.7-71.8c6.8-6.8,16.2-10.2,25.6-10.2c2.7,0,5.4,0.3,8.1,0.9c2.4,0.5,4.5,2.2,5.5,4.4c1,2,2.1,4,3.5,5.9
	C234.4,259.5,234.3,260.5,233.6,261.2z M238,233c5,0.2,12.8,1.9,19.1,7.5l0.9,0.9c5.6,6.3,7.3,14,7.5,19.1c0.1,2.4-1.8,4.4-4.3,4.3
	c-5-0.2-12.8-1.9-19.1-7.5l-0.9-0.9c-5.6-6.3-7.3-14-7.5-19.1C233.6,234.9,235.6,232.9,238,233z M308.2,242.9
	c-6.5,6.5-15.7,9.1-24.8,9.1c-3.4,0-6.8-0.4-9.9-1.1c-1.5-0.3-2.7-1.4-3.3-2.9c-0.9-2.5-2.2-5-3.7-7.4c-0.4-0.7-0.4-1.6,0.2-2.2v0
	c1.1-1.1,2.7-1.4,4.2-0.9c4.2,1.6,10,2.6,15.8,2.7c0,0,0,0,0.1,0c6.5,0,18.4-1.2,26.8-9.5c1.4-1.4,1.6-3.7,0.3-5.2
	c-1.4-1.5-3.8-1.6-5.2-0.1c-6.5,6.5-16.5,7.5-21.8,7.5c0,0,0,0,0,0c-3.9,0-7.2-0.5-9.8-1.1c-1.3-0.3-1.7-1.9-0.8-2.9l7.4-7.4
	c1-1,2.5-1.4,3.9-1c3.3,1,7.2,1.6,10.6,1.8c0.5,0,1.1,0,1.6,0c7.9,0,14.5-2.3,18.9-6.4c1.5-1.4,1.8-3.8,0.4-5.3
	c-1.4-1.5-3.8-1.6-5.2-0.1c-4.8,4.8-13.3,5-19.4,4.1c-1.4-0.2-1.9-1.9-0.9-2.9l4.6-4.6c1.1-1.1,2.6-1.4,4-0.9c1.8,0.6,3.9,1,6.1,1
	c0,0,0,0,0,0c5,0,9.4-1.7,12.5-4.8c1.5-1.5,2.8-3,4-4.8c1-1.4,0.9-3.4-0.3-4.7c-1.7-1.7-4.3-1.4-5.6,0.5c-1,1.5-2,2.7-3.2,3.9
	c-1.7,1.7-4.4,2.7-7.4,2.7c0,0,0,0,0,0l0,0c-1,0-1.6-1.3-0.8-2l10.8-10.8c1.4-1.4,1.6-3.7,0.3-5.1c-1.4-1.6-3.8-1.6-5.3-0.1
	L299.9,195c-0.6-2.2-0.5-4.7,0.5-7.1c0.8-1.7,0.1-3.9-1.6-4.8c-1.9-1-4.2-0.2-5,1.7c-2.3,5.3-2,11.1,0.6,15.6l-9,9
	c-1.1-3.4-1.7-8.5-0.7-13.7c0.3-1.7-0.5-3.4-2-4.1c-2.2-1-4.6,0.4-5.1,2.6c-1.5,7.3-0.4,15.5,2.3,20.7l-11.4,11.4
	c-1.5-3.1-2.4-7.4-2.4-12c-0.1-7.4,2-14.6,5.8-19.8c1.1-1.6,1-3.8-0.5-5.1c-1.6-1.4-4-1-5.3,0.7c-9.2,12.7-9.1,31.8-2.9,41.6
	l-1.5,1.5c-0.6,0.6-1.5,0.6-2.2,0.1c-2.8-2.1-5.9-3.7-9-4.9c-1.5-0.6-2.6-1.8-2.9-3.4c-2.3-11.7,0.7-24.5,9.4-33.2
	c18.2-18.2,42.8-23.1,58-23.1c7.3,0,12.4,1.1,13.7,2.4C332.9,175.1,335.2,216,308.2,242.9z M252,186.7c-7.8,7.8-12.3,19-12.3,30.8
	c0,1.7,0.1,3.4,0.3,5.1c0.2,1.7-1.2,3.2-2.9,3.2c-1.1,0-2.1,0-3,0.1c-1.7,0.2-3.4-0.5-4.7-1.7l-9.5-9.5c-1.9-1.9-2.3-5-0.9-7.3
	c6.5-10.5,10-26.3,9.3-43.5c-0.9-23.3-9.5-44.8-23.6-58.9c-1.2-1.2-3.2-1.5-4.6-0.5c-2,1.3-2.2,4-0.6,5.6
	c12.8,12.8,20.7,32.5,21.6,54.1c0.6,15.2-2.4,29.4-7.8,38.7c-1,1.6-3.2,1.9-4.5,0.6l-29.1-29.1c-1.8-1.8-2.3-4.7-1.1-7
	c4-7.6,6.4-18.6,6.4-30.3c0-10.6-2.1-30.3-16-44.3c-1.5-1.5-3.9-1.4-5.3,0.2c-1.3,1.4-1.1,3.7,0.2,5.1c8.7,8.8,13.8,23,13.8,39
	c0,9.4-1.8,18.7-4.7,25.1c-0.8,1.8-3.2,2.3-4.7,0.9l-23.5-23.5c-1.9-1.9-2.3-4.7-1-7c3-5.3,4.5-11.8,4.2-18.5
	c-0.4-9.5-4.4-18.8-11-25.4c-3.3-3.3-7-6.3-11.1-9.2c-1.4-1-3.4-0.9-4.6,0.4c-1.7,1.7-1.4,4.4,0.5,5.6c3.8,2.6,7.1,5.3,10.2,8.3
	c5.3,5.3,8.6,12.8,8.9,20.6c0.2,4.7-0.7,9.2-2.5,13.1c-0.9,1.8-3.2,2.2-4.7,0.8L89.2,84c-1.6-1.6-4.3-1.4-5.6,0.6
	c-1,1.4-0.7,3.4,0.6,4.6l43.9,43.9c1.5,1.5,0.9,4-1.1,4.8c-9.6,3.5-24.2,2.7-33-6.1c-3-3-5.7-6.3-8.3-10c-1-1.4-2.8-2.1-4.4-1.4
	c-2.2,0.9-2.9,3.5-1.6,5.4c2.8,4.2,5.9,7.9,9.2,11.2c7.2,7.2,17.1,10.2,26.3,10.2c6.4,0,12.6-1.4,17.5-3.8c2.3-1.1,5-0.6,6.8,1.2
	l23.2,23.2c1.5,1.5,0.9,4.1-1.1,4.8c-5.5,1.8-13.5,3.4-22.5,3.8c-10.2,0.4-29.1-0.7-40.8-12.5c-1.6-1.6-4.3-1.4-5.6,0.6
	c-1,1.5-0.7,3.4,0.6,4.7c10.9,10.8,27.4,14.6,42.8,14.6c12.5,0,24.2-2.5,31.6-5.6c2.2-1,4.8-0.5,6.6,1.3l29,29
	c1.4,1.4,1,3.9-0.9,4.7c-8,3.5-21,6.2-35.6,6.2c0,0-0.1,0-0.1,0c-13.7,0-39.2-2.6-56.3-19.6c-1.5-1.5-3.9-1.4-5.3,0.1
	c-1.3,1.5-1.1,3.8,0.3,5.2c18.9,18.7,46.4,21.6,61.2,21.6c0,0,0.1,0,0.1,0c15.8,0,31.4-3.2,40.9-8c2.3-1.2,5.1-0.7,6.9,1.1
	l10.4,10.4c1.2,1.2,1.8,2.9,1.7,4.6c-0.1,1-0.1,2.1,0,3.3c0.1,1.8-1.5,3.2-3.3,3c-2.1-0.3-4.3-0.5-6.5-0.5
	c-11.7,0-22.9,4.5-30.7,12.3c-1.4,1.4-2.7,2.8-3.9,4.2c-1.7,2-4.2,3.1-6.8,3.1c-0.3,0-0.5,0-0.8,0c-21.9,0-44.1-6.5-59.7-22
	C49.9,173,55.4,74.6,65.1,65c3.1-3.1,15.5-5.8,33.1-5.8c36.7,0,95.9,11.7,139.8,55.6c15.6,15.6,23.7,36.8,24.4,58.3
	c0.1,2.9-1.2,5.6-3.5,7.4C256.5,182.4,254.2,184.4,252,186.7z M223.4,399.7c-43.9,43.9-103.1,55.6-139.8,55.6
	c-17.6,0-30-2.7-33.1-5.8c-9.6-9.6-15.1-108,49.8-172.9c7-7,15.2-12.5,24-16.4c3.6-1.6,7.8-1.6,11.5-0.1c10.4,4.2,22.1,6.7,34.6,7.1
	c1.8,0.1,2.9,2,2,3.6c-2.1,3.7-3.7,7.4-5.1,11c-1.1,2.9-4,4.8-7.1,4.6c-3.5-0.2-7.1-0.3-10.7-0.1c-23.3,0.9-44.7,9.5-58.8,23.6
	c-1.4,1.4-1.5,3.7-0.2,5.1c1.4,1.5,3.8,1.6,5.3,0.1c12.8-12.8,32.5-20.7,54.1-21.6c4.7-0.2,9.3,0,13.8,0.5c-0.6,2.5-1.1,4.9-1.4,7.1
	c-1.2,7.3-2.2,21.1,0.7,29.1c0.3,0.8,0.1,1.8-0.5,2.4l-1.7,1.7c-2.2,2.2-5.5,2.7-8.3,1.3c-14.4-7.2-40.1-8.9-59.6,0.2
	c-1.6,0.7-2.5,2.5-2,4.1c0.6,2.3,3,3.4,5.1,2.5c18-8.4,41-6.2,53-0.5c1.4,0.7,1.7,2.6,0.6,3.7l-23.5,23.5c-2.2,2.2-5.7,2.7-8.4,1.2
	c-11-5.8-25.7-5.1-37.3,2.6c-1.5,1-2.2,2.9-1.5,4.5c0.9,2.2,3.5,2.9,5.4,1.6c9.2-6.1,21.2-6.8,30-2.3c1.4,0.7,1.6,2.6,0.5,3.7
	l-44.8,44.8c-1.5,1.5-1.6,4,0,5.4c0.7,0.6,1.6,0.9,2.4,0.9c0.9,0,1.9-0.4,2.6-1.1l44.6-44.6c1.2-1.2,3.2-0.8,3.8,0.8
	c1.4,3.6,2.3,7.9,2.3,12.4c0,8.6-2.9,16.4-8,21.5c-3,3-6.2,5.7-10,8.2c-1.6,1.1-2.2,3.2-1.3,4.9c0.7,1.2,1.9,1.9,3.2,1.9
	c0.7,0,1.4-0.2,2-0.6c4.2-2.8,7.9-5.9,11.2-9.2c6.6-6.6,10.2-16,10.1-26.7c0-6-1.2-11.7-3.4-16.4c-1.3-2.8-0.8-6,1.4-8.1l23.2-23.2
	c1.2-1.2,3.3-0.7,3.8,0.9c1.9,5.5,3.7,13.9,4.1,23.4c0.4,10.2-0.7,28.9-12.3,40.7c-1.5,1.5-1.5,4,0,5.4c0.7,0.6,1.6,1,2.5,1
	c0.9,0,1.9-0.4,2.6-1.1c19.5-19.5,16.2-57.2,9.3-74c-1.1-2.6-0.4-5.7,1.6-7.7l2.1-2.1c0.6-0.6,1.6-0.8,2.5-0.5
	c3.5,1.3,8.3,1.9,14.5,1.9c3.6,0,10.9-0.3,19.8-2.2c0.3,3.5,0.5,7.2,0.5,11c0,13.7-2.5,39.1-19.6,56.3c-1.5,1.5-1.5,4,0,5.4
	c0.7,0.6,1.6,0.9,2.4,0.9c0.9,0,1.9-0.4,2.6-1.1c19-19,21.8-46.7,21.8-61.5c0-2.5-0.1-4.9-0.2-7.4c-0.2-3.2,1.8-6,4.8-7.1
	c4.2-1.5,8.5-3.4,12.9-5.8c1.6-0.9,3.5,0.2,3.6,2c0.3,9.8,1.9,19.3,4.6,27.9c0.6,2,1.3,3.9,2,5.8c1.3,3.3,1.3,7,0.1,10.4
	C236.1,383.3,230.8,392.3,223.4,399.7z M399.7,223.4c-7.1,7.1-15.6,12.3-24.8,15.8c-3.6,1.4-7.7,1.2-11.2-0.3
	c-10.3-4.6-21.6-7.5-33.3-8.3c-1.7-0.1-2.8-2-2-3.5c2.1-4.1,3.8-8.2,5.1-12.2c0.7-2.2,2.9-3.5,5.1-3.4c3,0.2,6.1,0.4,9.3,0.4
	c0,0,0.1,0,0.1,0c14.9,0,42.5-2.8,61.4-21.8c1.6-1.6,1.4-4.3-0.6-5.6c-1.5-1-3.4-0.6-4.6,0.6c-16.6,16.5-42.7,20.6-64.2,19.2
	c-1.9-0.1-3.2-1.9-2.9-3.7c0.1-0.3,0.1-0.7,0.2-1c1.3-7.8,2.3-22.7-1.2-30.5l4.9-4.9c1.5-1.5,3.7-1.9,5.6-1.1
	c7.4,3.3,19.4,5.9,32.2,5.9c15.4,0,31.9-3.7,42.8-14.6c1.3-1.2,1.6-3.2,0.6-4.7c-1.3-2-4-2.1-5.6-0.6
	c-11.7,11.7-30.6,12.8-40.8,12.5c-9.2-0.4-17.4-2-22.9-3.9c-1.9-0.6-2.4-3-1-4.4l23.9-23.9c1.6-1.6,3.9-1.9,5.9-0.9
	c4.9,2.5,11.3,4,17.9,4c9.3,0,19.1-2.9,26.3-10.2c3.3-3.3,6.3-7,9.2-11.1c1-1.4,0.9-3.4-0.4-4.6c-1.7-1.7-4.4-1.4-5.6,0.5
	c-2.6,3.8-5.3,7.1-8.3,10.2c-8.9,8.9-23.9,9.6-33.5,5.9c-1.8-0.7-2.2-3-0.9-4.3l44.2-44.2c1.2-1.2,1.5-3.2,0.6-4.6
	c-1.3-2-4-2.2-5.6-0.6l-44.6,44.6c-1.3,1.3-3.4,0.9-4.2-0.6c-4.5-8.9-3.6-20.9,2.9-30.1c1.1-1.6,0.9-3.8-0.6-5.1
	c-1.6-1.3-4-1-5.2,0.7c-8.5,12-9.2,28-2.6,39.5c1.2,2,0.9,4.5-0.8,6.2L346,149c-1.3,1.3-3.5,0.9-4.3-0.8c-2-4.4-3.5-10.1-4.3-16.3
	c-1.4-11.4-0.1-23,3.5-32.6c0.7-1.8-0.1-3.9-1.9-4.7c-1.9-0.9-4.1,0.1-4.9,2c-4.1,10.7-5.5,23.6-4,36.2c1,8.1,3.1,15.4,6.1,20.8
	c1.1,2,0.8,4.4-0.8,6L331,164c-6.3-2.2-15.8-2.5-15.8-2.5c-3.3,0-9.8,0.3-17.7,1.8c-1.9,0.4-3.6-1-3.8-2.9c-0.3-3.4-0.3-7-0.2-10.6
	c0.9-21.5,8.7-41.1,21.5-54c1.2-1.2,1.6-3.2,0.6-4.6c-1.3-2-4-2.2-5.6-0.6c-14.1,14.1-22.8,35.6-23.7,58.9
	c-0.2,4.3-0.1,8.5,0.3,12.5c0.2,2.3-1.2,4.4-3.3,5.2c-3.3,1.2-6.8,2.6-10.2,4.4c-1.6,0.8-3.4-0.3-3.5-2c-0.8-12-3.8-23.6-8.6-34.2
	c-1.8-3.9-1.9-8.5,0-12.4c3.9-8.3,9.2-16,15.8-22.7c43.9-43.9,103.1-55.6,139.8-55.6c17.6,0,30,2.7,33.1,5.8
	C459.2,60.2,464.7,158.5,399.7,223.4z"/>
<circle class="st15" cx="191.2" cy="301.1" r="3.6"/>
<circle class="st15" cx="205.4" cy="287" r="3.6"/>
<circle class="st15" cx="222.3" cy="270.1" r="3.6"/>
<circle class="st15" cx="269.6" cy="222.8" r="3.6"/>
<circle class="st15" cx="242" cy="241.4" r="3.6"/>
<circle class="st15" cx="286.1" cy="206.3" r="3.6"/>
<circle class="st15" cx="300.7" cy="191.7" r="3.6"/>
<path class="st15" d="M174.3,319C174.3,319,174.3,319,174.3,319c-2,0-3.6-1.6-3.6-3.6c0-7.5,1.3-22.5,9.2-37.8
	c0.9-1.8,3.1-2.5,4.9-1.6c1.8,0.9,2.5,3.1,1.6,4.9c-7.2,14-8.3,27.6-8.4,34.5C177.9,317.4,176.3,319,174.3,319z"/>
<path class="st15" d="M255.4,258.7c-0.9,0-1.9-0.4-2.6-1.1l-5.3-5.3c-1.4-1.4-1.4-3.7,0-5.1c1.4-1.4,3.7-1.4,5.1,0l5.3,5.3
	c1.4,1.4,1.4,3.7,0,5.1C257.2,258.3,256.3,258.7,255.4,258.7z"/>
</svg>
