<svg xmlns="http://www.w3.org/2000/svg" viewBox="0 0 48 48" width="48" height="48"><path fill="#42a5f5" d="M29.4,21L29.4,21c0,0-6.7-13.7-9.7-14.9c-1.9-0.7-3.5,6.2-0.8,10.4c2.2,3.6,9.1,5.8,9.1,5.8l0,0 c0.1,0,0.1,0.1,0.2,0.1c0.5,0.2,1.1-0.1,1.3-0.6C29.6,21.6,29.6,21.3,29.4,21z"/><path fill="#5d4037" d="M29.5 31.9C29.5 31.9 29.5 31.9 29.5 31.9c.1-.2.2-.4.2-.6 0 0 0 0 0 0 .2-.6.3-1.2.3-1.8 0-2.7-1.7-5-4-6-3.6-2.2-6.4-.2-8 2.5-.2.3-.4.6-.5 1C13.6 35.4 19.2 41.1 20 42c1.4-5.1 6.9-4.3 9.3-9.8C29.4 32.1 29.5 32 29.5 31.9L29.5 31.9zM35 14c-.2 0-.3 0-.4-.1-.5-.2-.7-.8-.4-1.3l1.2-2.4L40.8 9c.5-.1 1.1.2 1.2.8.1.5-.2 1.1-.8 1.2l-4.5.9-.8 1.6C35.7 13.8 35.4 14 35 14z"/><path fill="#5d4037" d="M33,13c-0.4,0-0.8-0.3-0.9-0.7l-1.3-3.9l6.9-2.3c0.5-0.2,1.1,0.1,1.3,0.6c0.2,0.5-0.1,1.1-0.6,1.3 l-5.1,1.7l0.7,2.1c0.2,0.5-0.1,1.1-0.6,1.3C33.2,13,33.1,13,33,13z"/><path fill="#ffc107" d="M26.8 35.6c.2-.2.4-.3.6-.5-2.1.5-4.3.5-6.3.2-1.1-.2-2.2-.5-3.3-.8-.5-.2-1.1-.4-1.6-.6.1 1.3.4 2.5.8 3.6.1 0 .1 0 .2 0 1.3.1 2.6 0 3.8-.1C23 37 25 36.4 26.8 35.6zM18.7 24.9c.4.5.9 1 1.4 1.5 1.1 1.1 2.3 2 3.6 2.7 1.3.8 2.7 1.3 4.1 1.6.7.1 1.4.2 2 .3 0-.2.1-.3.1-.5-1.9-.6-3.7-1.6-5.1-3-.9-.9-1.7-1.9-2.4-3-.3-.5-.6-1.1-.9-1.7 0 0 0 0 0-.1C20.4 23.1 19.5 23.9 18.7 24.9zM22.8 31.3c-1.2-.6-2.4-1.4-3.5-2.2-.7-.5-1.4-1.1-2-1.7-.5 1.2-.9 2.4-1 3.5.5.3 1 .5 1.5.7 1.4.6 2.9 1.1 4.3 1.5 2.1.5 4.4.7 6.5.4.1-.2.2-.3.3-.5C26.8 32.9 24.7 32.2 22.8 31.3z"/><path fill="#795548" d="M32.8,25.8c-2.1,2.1-4.7,1.3-6.8-0.8c-2.1-2.1-2.8-4.7-0.8-6.8c2.1-2.1,4.7-1.3,6.8,0.8 C34.1,21.1,34.8,23.7,32.8,25.8z"/><path fill="#8d6e63" d="M37.8,18.9c-0.9,2-4.8,1.1-7.4-0.1c-2-0.9-2.9-3.3-2-5.4c0.9-2.1,3.1-2.6,5.2-2.1 C36.1,12,38.7,16.8,37.8,18.9z"/><path fill="#4e342e" d="M32.6,19.6c-0.8-0.2-1.5-0.5-2.2-0.8c-0.8-0.4-1.4-1-1.8-1.7c-0.7-0.1-2.2,0-2.9,0.9 c0.6,1.4,0.8,3.5,2.3,4.1c2.9,1.1,4.8,0.7,5.9,0C33.6,21.2,33.2,20.4,32.6,19.6z"/><path fill="#3e2723" d="M35.4,17.3c-0.5,0.7-2,0.5-3.5-0.6s-2.3-2.6-1.8-3.3c0.5-0.7,2-0.5,3.5,0.6 C35.1,15.1,35.9,16.6,35.4,17.3z"/><path fill="#90caf9" d="M28.6,20.2L28.6,20.2C28.6,20.2,12.2,6,9,6c-2,0-1,7,3,10c3.4,2.5,15.8,6,15.8,6l0,0 c0.1,0,0.2,0.1,0.2,0.1c0.6,0,1-0.4,1-1C29,20.7,28.8,20.4,28.6,20.2z"/></svg>