<?xml version="1.0" encoding="utf-8"?>
<!-- Generator: Adobe Illustrator 20.0.0, SVG Export Plug-In . SVG Version: 6.00 Build 0)  -->
<svg version="1.1" id="Layer_1" xmlns="http://www.w3.org/2000/svg" xmlns:xlink="http://www.w3.org/1999/xlink" x="0px" y="0px"
	 viewBox="0 0 64 64" style="enable-background:new 0 0 64 64;" xml:space="preserve">
<style type="text/css">
	.st0{fill:#5A8700;}
	.st1{fill:#9D9F01;}
	.st2{fill:#BFBF04;}
	.st3{fill:#CAD058;}
	.st4{fill:#FB8F47;}
	.st5{fill:#EDC9AA;}
	.st6{fill:#E9E0D0;}
	.st7{fill:#CF423B;}
	.st8{fill:#52622E;}
	.st9{fill:#8F2B63;}
	.st10{fill:#C19491;}
	.st11{fill:#D6B3B2;}
	.st12{fill:#751D2E;}
	.st13{fill:#5B8C15;}
	.st14{fill:#203F12;}
	.st15{fill:#EDDFDD;stroke:#EDDFDD;stroke-width:2;stroke-linejoin:round;stroke-miterlimit:10;}
	.st16{fill:none;stroke:#EDDFDD;stroke-linecap:round;stroke-linejoin:round;stroke-miterlimit:10;}
	.st17{fill:#63904D;}
	.st18{fill:none;stroke:#C7B299;stroke-linecap:round;stroke-linejoin:round;stroke-miterlimit:10;}
	.st19{fill:#63904D;stroke:#52622E;stroke-width:3;stroke-miterlimit:10;}
	.st20{fill:none;stroke:#52622E;stroke-linecap:round;stroke-linejoin:round;stroke-miterlimit:10;}
	.st21{fill:#8F2B63;stroke:#8F2B63;stroke-width:3;stroke-linecap:round;stroke-miterlimit:10;}
	.st22{fill:none;stroke:#751D2E;stroke-linecap:round;stroke-linejoin:round;stroke-miterlimit:10;}
	.st23{fill:none;stroke:#CC6283;stroke-linecap:round;stroke-linejoin:round;stroke-miterlimit:10;}
	.st24{fill:#6FAD4C;}
	.st25{fill:#00FFFF;}
	.st26{fill:#184C28;}
	.st27{fill:#82C64E;}
	.st28{fill:none;stroke:#497726;stroke-linecap:round;stroke-linejoin:round;stroke-miterlimit:10;}
	.st29{fill:#497726;}
	.st30{opacity:0.2;}
	.st31{fill:#194C28;}
	.st32{fill:#82C64E;stroke:#184C28;stroke-linejoin:round;stroke-miterlimit:10;}
	.st33{fill:none;stroke:#184C28;stroke-linecap:round;stroke-linejoin:round;stroke-miterlimit:10;}
	.st34{fill:none;stroke:#FFFFFF;stroke-linecap:round;stroke-linejoin:round;stroke-miterlimit:10;}
	.st35{fill:#FFFFFF;}
	.st36{fill:#406D2A;}
	.st37{fill:#8F2B63;stroke:#751D2E;stroke-width:3;stroke-linecap:round;stroke-linejoin:round;stroke-miterlimit:10;}
	.st38{fill:none;stroke:#C19491;stroke-linecap:round;stroke-linejoin:round;stroke-miterlimit:10;}
	.st39{fill:none;stroke:#D6B3B2;stroke-linecap:round;stroke-linejoin:round;stroke-miterlimit:10;}
	.st40{fill:none;stroke:#751D2E;stroke-width:3;stroke-linecap:round;stroke-linejoin:round;stroke-miterlimit:10;}
	.st41{fill:none;stroke:#BFBF04;stroke-linecap:round;stroke-linejoin:round;stroke-miterlimit:10;}
	.st42{fill:none;stroke:#CAD058;stroke-linecap:round;stroke-linejoin:round;stroke-miterlimit:10;}
	.st43{fill:none;stroke:#CF423B;stroke-linecap:round;stroke-linejoin:round;stroke-miterlimit:10;}
	.st44{fill:none;stroke:#F26E40;stroke-linecap:round;stroke-linejoin:round;stroke-miterlimit:10;}
	.st45{fill:none;stroke:#EDC9AA;stroke-linecap:round;stroke-linejoin:round;stroke-miterlimit:10;}
	.st46{fill:none;stroke:#E9E0D0;stroke-linecap:round;stroke-linejoin:round;stroke-miterlimit:10;}
	.st47{fill:none;stroke:#CF423B;stroke-width:3;stroke-linecap:round;stroke-linejoin:round;stroke-miterlimit:10;}
	.st48{fill:none;stroke:#253F1C;stroke-width:3;stroke-linecap:round;stroke-linejoin:bevel;stroke-miterlimit:10;}
	.st49{fill:none;stroke:#203F12;stroke-linecap:round;stroke-linejoin:round;stroke-miterlimit:10;}
	.st50{fill:#C2B3B3;}
	.st51{fill:#D0C2C8;stroke:#52622E;stroke-miterlimit:10;}
	.st52{fill:none;stroke:#203F12;stroke-width:3;stroke-miterlimit:10;}
	.st53{fill:none;stroke:#203F12;stroke-linejoin:round;stroke-miterlimit:10;}
	.st54{fill:#D0C2C8;stroke:#C7B299;stroke-linejoin:round;stroke-miterlimit:10;}
	.st55{fill:#69AC19;}
	.st56{fill:#285200;}
	.st57{fill:#E4DAE9;stroke:#C4B3B0;stroke-linejoin:round;stroke-miterlimit:10;}
	.st58{fill:#E4DAE9;stroke:#C4B3B0;stroke-linecap:round;stroke-linejoin:round;stroke-miterlimit:10;}
	.st59{fill:#C4B3B0;}
	.st60{fill:#F26E40;}
	.st61{fill:none;stroke:#8F2C63;stroke-linecap:round;stroke-linejoin:round;stroke-miterlimit:10;}
	.st62{fill:#8F2C63;}
	.st63{fill:#CC6283;}
</style>
<path class="st8" d="M43.9,11.9c-1.9,3.4-4.1,2.9-7.1,3.1c-1.3-2.5-3-4.3-1.2-7.7s6-6.5,8.3-5.2C46.2,3.4,45.8,8.5,43.9,11.9z"/>
<path class="st8" d="M33.4,8c1.7,4.4-0.6,6.1-2.7,9.1c-3.3-0.8-6.4-0.6-8.1-5S21.3,1.4,24.3,0.3S31.7,3.6,33.4,8z"/>
<path class="st9" d="M37.7,54C44.3,51.3,49,44.2,49,37.4c0-8.6-7.6-13.3-17-13.3s-17,4.8-17,13.3c0,6.8,4.9,14,11.6,16.7l5.6,4.9
	L37.7,54z"/>
<path class="st10" d="M48.3,33.1H36.1c-0.3,0-0.5-0.2-0.5-0.5s0.2-0.5,0.5-0.5h12.2V33.1z"/>
<path class="st10" d="M46.1,30.2H33.9c-0.3,0-0.5-0.2-0.5-0.5s0.2-0.5,0.5-0.5h12.2V30.2z"/>
<g>
	<path class="st11" d="M38.5,33.1h-2.4c-0.3,0-0.5-0.2-0.5-0.5s0.2-0.5,0.5-0.5h2.4c0.3,0,0.5,0.2,0.5,0.5S38.7,33.1,38.5,33.1z"/>
</g>
<path class="st12" d="M36.7,23c0.2-6.2,2.7-12.1,4.6-15.8c0,0-0.7-0.5-0.7-0.5c-2.6,3.4-6.2,8.9-7.6,15.2C32,14.5,29,7.8,26.3,3.6
	c0,0-0.7,0.5-0.7,0.5c2,4.8,4,11.1,3.6,18.7c-9.5,0.9-15.7,6.6-15.7,14.7c0,7.5,5.4,15.3,12.5,18.1c1.5,0.6,2.7,1.8,3.3,3.3l1.4,4.1
	c0.2,0.6,0.8,1,1.4,1c0,0,0,0,0,0c0.6,0,1.2-0.4,1.4-1l1.4-4.2c0.6-1.5,1.7-2.8,3.2-3.4c7.1-2.9,12.3-10.5,12.3-18
	C50.5,29.9,45.1,24.4,36.7,23z M41.4,36.1h6.1c0,0.4,0.1,0.9,0.1,1.4c0,0.2,0,0.4,0,0.6h-5.9v1h5.8c-0.1,0.6-0.2,1.3-0.3,1.9h-6.4v1
	h6.1c-0.2,0.6-0.5,1.3-0.8,1.9h-7.2v1h6.7c-0.4,0.7-0.8,1.3-1.2,1.9h-6.2v1h5.4c-1.8,2.1-4,3.9-6.5,4.9c-2.3,0.9-4.1,2.8-4.9,5.2
	l0,0c-0.9-2.3-2.7-4.2-5-5.1c-6.1-2.4-10.6-8.9-10.6-15.3c0-8.2,7.8-11.8,15.5-11.8c6.9,0,13.9,3,15.2,9.5h-5.9V36.1z"/>
<path class="st62" d="M30.7,22.6c0.3,0,0.7,0,1,0c-0.5-8.3-2.7-14.1-6-20.2c-0.1-0.2-0.4-0.3-0.7-0.2c-0.2,0.1-0.3,0.4-0.2,0.7
	C28.1,8.9,30.3,14.6,30.7,22.6z"/>
<path class="st62" d="M35.4,22.8c0.7-7.5,5-14.8,7.6-18c0.2-0.2,0.1-0.5-0.1-0.7c-0.2-0.2-0.5-0.1-0.7,0.1
	c-2.6,3.3-7.1,10.9-7.8,18.6C34.7,22.7,35.1,22.7,35.4,22.8z"/>
<g>
	<path class="st63" d="M41.7,39h-4.1c-0.3,0-0.5-0.2-0.5-0.5s0.2-0.5,0.5-0.5h4.1c0.3,0,0.5,0.2,0.5,0.5S41.9,39,41.7,39z"/>
</g>
<g>
	<path class="st63" d="M40.7,41.9H30.3c-0.3,0-0.5-0.2-0.5-0.5s0.2-0.5,0.5-0.5h10.4c0.3,0,0.5,0.2,0.5,0.5S41,41.9,40.7,41.9z"/>
</g>
<g>
	<path class="st63" d="M38.9,44.8h-3.5c-0.3,0-0.5-0.2-0.5-0.5s0.2-0.5,0.5-0.5h3.5c0.3,0,0.5,0.2,0.5,0.5S39.1,44.8,38.9,44.8z"/>
</g>
<g>
	<path class="st63" d="M38.1,47.7h-0.6c-0.3,0-0.5-0.2-0.5-0.5s0.2-0.5,0.5-0.5h0.6c0.3,0,0.5,0.2,0.5,0.5S38.4,47.7,38.1,47.7z"/>
</g>
<g>
	<path class="st63" d="M41.4,36.1h-9c-0.3,0-0.5-0.2-0.5-0.5s0.2-0.5,0.5-0.5h9c0.3,0,0.5,0.2,0.5,0.5S41.7,36.1,41.4,36.1z"/>
</g>
<g>
	<path class="st11" d="M34.8,30.2h-0.9c-0.3,0-0.5-0.2-0.5-0.5s0.2-0.5,0.5-0.5h0.9c0.3,0,0.5,0.2,0.5,0.5S35.1,30.2,34.8,30.2z"/>
</g>
</svg>
