<?xml version="1.0" encoding="utf-8"?>
<!-- Generator: Adobe Illustrator 20.0.0, SVG Export Plug-In . SVG Version: 6.00 Build 0)  -->
<svg version="1.1" id="Layer_1" xmlns="http://www.w3.org/2000/svg" xmlns:xlink="http://www.w3.org/1999/xlink" x="0px" y="0px"
	 viewBox="0 0 500 500" style="enable-background:new 0 0 500 500;" xml:space="preserve">
<style type="text/css">
	.st0{display:none;fill:#D1A982;}
	.st1{fill:#974565;}
	.st2{fill:#5D283D;}
	.st3{fill:#00FFFF;}
	.st4{fill:#98B55E;}
	.st5{fill:#98B55E;stroke:#006837;stroke-linecap:round;stroke-linejoin:round;stroke-miterlimit:10;}
	.st6{fill:#B9CE6E;stroke:#838226;stroke-width:3;stroke-miterlimit:10;}
	.st7{fill:none;stroke:#718227;stroke-miterlimit:10;}
	.st8{fill:#B9CE6E;stroke:#838226;stroke-miterlimit:10;}
	.st9{fill:#E0E2D0;}
	.st10{fill:none;stroke:#718227;stroke-width:3;stroke-miterlimit:10;}
	.st11{fill:none;stroke:#FFFFFF;stroke-linecap:round;stroke-miterlimit:10;}
	.st12{fill:#C2D66B;}
	.st13{fill:#E6E8D4;}
	.st14{fill:#718227;}
	.st15{fill:#FFFFFF;}
	.st16{fill:#974565;stroke:#5D283D;stroke-miterlimit:10;}
	.st17{fill:none;stroke:#5D283D;stroke-width:3;stroke-miterlimit:10;}
	.st18{fill:none;stroke:#5D283D;stroke-miterlimit:10;}
	.st19{fill:#EDDBCD;}
	.st20{fill:#F4E1D4;}
	.st21{fill:none;stroke:#5D283D;stroke-width:8.1497;stroke-miterlimit:10;}
	.st22{fill:none;stroke:#5D283D;stroke-width:24.449;stroke-miterlimit:10;}
</style>
<rect x="-394.8" y="-366.2" class="st0" width="6576.8" height="1230.5"/>
<g>
	<path class="st12" d="M337.1,289.5c0,128.6-16.8,191.3-87.1,191.3s-87.1-62.7-87.1-191.3S224.1,15,250,15S337.1,160.9,337.1,289.5z
		"/>
	<path class="st13" d="M282.7,217c-4.9,0-8.4,3.5-9,9c0,0-5,40.4-37.7,131.7c0,0-10,21.3-25.4,30.1l-9.4-44.8l-3.9-46.1
		c0,0-16.5-27.8-29.5-74.3c-3.1,22.3-4.9,44.8-4.9,66.9c0,128.6,16.8,191.3,87.1,191.3c49.1,0,72.1-30.7,81.5-93.1
		c-34.6-46.9-38-103.2-39.9-159.6C291.5,228.2,291.3,217,282.7,217z"/>
	<path class="st14" d="M314.2,100.1c-9.4-26.5-19.6-49.5-29.7-66.3C272.1,13,261.1,3.4,250,3.4s-22.1,9.7-34.5,30.5
		c-10.1,16.9-20.3,39.8-29.7,66.3c-21.9,62.1-34.5,131.2-34.5,189.4c0,73,5.4,117.4,18,148.3c15,36.8,41.4,54.7,80.7,54.7
		s65.6-17.9,80.7-54.7c12.7-30.9,18-75.3,18-148.3C348.7,231.3,336.1,162.3,314.2,100.1z M248.7,28.1c0.7-0.6,1.8-0.6,2.6,0
		c7.6,6.5,24.8,32.2,43,85.7c4.8,14.2,9.1,28.7,12.9,43.3c0.5,1.8-1.7,3.2-3.2,2.1c-6.2-4.7-12.8-7.2-19.6-7.2
		c-1.8,0-3.7,0.1-5.6,0.4c-2.2,0.3-4.4-0.9-5.2-3C258.8,114,240,87.7,225.7,70.8c-1.3-1.5-1.5-3.6-0.7-5.4
		C235.3,43.9,243.9,32.2,248.7,28.1z M174.6,289.5c0-53.5,11.3-117.5,31.1-175.7c4.5-13.2,8.9-24.7,13.1-34.6
		c0.6-1.4,2.4-1.6,3.4-0.5c13.6,16.5,30.7,41.2,44.4,73.8c0.6,1.5-0.1,3.2-1.5,3.9c-15.1,6.9-29.8,21.4-42.1,42.2
		c-17.5,29.5-27.5,67.4-27.5,104c-0.1,2.2-1.2,31.5,5.4,68.2c5.1,28.2,15.7,65,37.8,94.3c1.1,1.4-0.1,3.5-1.9,3.2
		C190.6,461,174.6,412.7,174.6,289.5z M267.8,467.4c-9.2,2.1-18.9-1.4-24.5-9c-20.2-27.7-30-62.2-34.8-88.8
		c-6.6-36.5-5.3-66.4-5.3-66.7l0-0.2c0-35.3,9.6-71.8,26.4-100.1c15.9-26.8,36.4-42.8,54.9-42.8c5.9,0,11.7,2.6,17.2,7.5
		c6.9,6.2,11.4,14.6,13.2,23.6c6.8,34.3,10.5,68.2,10.5,98.7C325.4,408.6,310.4,457.8,267.8,467.4z"/>
</g>
<g>
	<g>
		<path class="st15" d="M211.7,165.7c-0.3,0-0.6,0-0.9-0.1c-2.1-0.5-3.4-2.6-2.9-4.7c3.9-16.4,8.5-32.5,13.6-48
			c0.7-2,2.9-3.1,4.9-2.5c2,0.7,3.1,2.9,2.5,4.9c-5,15.2-9.5,31.1-13.4,47.3C215.1,164.5,213.5,165.7,211.7,165.7z"/>
	</g>
	<g>
		<path class="st15" d="M227.8,265.2c-0.3,0-0.6,0-0.9-0.1c-2.1-0.5-3.4-2.6-2.9-4.7c4.1-17,10.6-33.4,18.7-47.3
			c1.1-1.9,3.5-2.5,5.3-1.4c1.9,1.1,2.5,3.5,1.4,5.3c-7.7,13.3-13.9,28.9-17.9,45.2C231.2,264,229.6,265.2,227.8,265.2z"/>
	</g>
	<g>
		<circle class="st15" cx="243.8" cy="67.7" r="3.9"/>
	</g>
	<g>
		<circle class="st15" cx="259.2" cy="196.9" r="3.9"/>
	</g>
</g>
</svg>
