<?xml version="1.0" encoding="utf-8"?>
<!-- Generator: Adobe Illustrator 20.1.0, SVG Export Plug-In . SVG Version: 6.00 Build 0)  -->
<svg version="1.1" id="Layer_1" xmlns="http://www.w3.org/2000/svg" xmlns:xlink="http://www.w3.org/1999/xlink" x="0px" y="0px"
	 viewBox="0 0 400 400" style="enable-background:new 0 0 400 400;" xml:space="preserve">
<style type="text/css">
	.st0{fill:#6FAB00;stroke:#1B4700;stroke-width:5;stroke-miterlimit:10;}
	.st1{fill:#9BB31C;stroke:#2A481D;stroke-width:4;stroke-miterlimit:10;}
	.st2{fill:#6FB228;stroke:#2A481D;stroke-width:4;stroke-linecap:round;stroke-miterlimit:10;}
	.st3{fill:#6E8517;}
	.st4{fill:#1B4700;}
	.st5{fill:#00FFFF;}
	.st6{fill:#A2CC62;stroke:#2A481D;stroke-width:6;stroke-miterlimit:10;}
	.st7{fill:#FAD500;stroke:#E6681E;stroke-width:3;stroke-miterlimit:10;}
	.st8{fill:none;stroke:#E6681E;stroke-linecap:round;stroke-miterlimit:10;}
	.st9{fill:none;stroke:#FFFFFF;stroke-linecap:round;stroke-miterlimit:10;}
	.st10{fill:none;stroke:#E6681E;stroke-miterlimit:10;}
	.st11{fill:#E6681E;}
	.st12{fill:#A2CC62;stroke:#2A481D;stroke-miterlimit:10;}
	.st13{fill:#FFFFFF;}
	.st14{fill:#A2CC62;}
	.st15{fill:#F9C900;}
	.st16{fill:#CE571B;}
	.st17{fill:#9BB31C;}
	.st18{fill:#164100;}
	.st19{fill:#4D831C;}
	.st20{fill:#2A481D;}
	.st21{fill:#A7C92B;}
	.st22{fill:#D10000;stroke:#7B000E;stroke-width:3;stroke-miterlimit:10;}
	.st23{fill:none;stroke:#7B000E;stroke-miterlimit:10;}
	.st24{fill:none;stroke:#7B000E;stroke-width:1.2609;stroke-miterlimit:10;}
	.st25{fill:#D10000;}
	.st26{fill:#7B000E;}
	.st27{opacity:0.7;}
	.st28{fill:#4D831C;stroke:#2A481D;stroke-width:3;stroke-miterlimit:10;}
	.st29{opacity:0.5;fill:none;stroke:#FFFFFF;stroke-linecap:round;stroke-miterlimit:10;}
	.st30{fill:#BD0408;}
	.st31{fill:#C8040B;stroke:#6C0A04;stroke-width:3;stroke-miterlimit:10;}
	.st32{fill:none;stroke:#6C0A04;stroke-linecap:round;stroke-miterlimit:10;}
	.st33{fill:#A7C08F;}
	.st34{fill:none;stroke:#FFFFFF;stroke-width:6.4322;stroke-linecap:round;stroke-miterlimit:10;}
	.st35{fill:#C8040B;}
	.st36{fill:#6C0A04;}
	.st37{fill:#F22F2E;stroke:#9E0E00;stroke-width:3;stroke-miterlimit:10;}
	.st38{fill:#A7C92B;stroke:#164E16;stroke-width:3;stroke-miterlimit:10;}
	.st39{fill:none;stroke:#164E16;stroke-miterlimit:10;}
	.st40{fill:#4D831C;stroke:#2A481D;stroke-width:3;stroke-linecap:round;stroke-linejoin:round;stroke-miterlimit:10;}
	.st41{fill:#F22F2E;stroke:#7B000E;stroke-width:3;stroke-miterlimit:10;}
	.st42{fill:none;stroke:#7B000E;stroke-linecap:round;stroke-miterlimit:10;}
	.st43{fill:#F40000;stroke:#7B000E;stroke-width:3;stroke-miterlimit:10;}
	.st44{fill:#F40000;}
	.st45{fill:#7DB34C;stroke:#164E16;stroke-width:3;stroke-miterlimit:10;}
	.st46{fill:none;stroke:#FFFFFF;stroke-linecap:round;stroke-linejoin:round;stroke-miterlimit:10;}
	.st47{fill:#8A9D1F;}
	.st48{fill:#164E16;}
	.st49{fill:none;stroke:#7B000E;stroke-linecap:round;stroke-linejoin:round;stroke-miterlimit:10;}
	.st50{fill:#F6E600;}
	.st51{fill:#8DCC50;}
	.st52{fill:#A2A121;}
	.st53{fill:#F9EFA7;}
	.st54{fill:#7DB34C;}
	.st55{fill:#F22F2E;}
	.st56{fill:#6FAB00;stroke:#1B4700;stroke-width:3;stroke-miterlimit:10;}
	.st57{fill:none;stroke:#1B4700;stroke-linecap:round;stroke-miterlimit:10;}
	.st58{fill:#6E8517;stroke:#1B4700;stroke-linecap:round;stroke-miterlimit:10;}
	.st59{fill:#6FAB00;}
	.st60{fill:#853323;}
	.st61{fill:#7AB000;}
	.st62{fill:#430000;}
	.st63{fill:#2B0101;}
	.st64{fill:none;stroke:#1B4700;stroke-width:1.5;stroke-linecap:round;stroke-linejoin:round;stroke-miterlimit:10;}
	.st65{fill:none;stroke:#1B4700;stroke-width:3;stroke-linecap:round;stroke-linejoin:round;stroke-miterlimit:10;}
	.st66{fill:#FAB2B3;}
	.st67{fill:none;stroke:#1B4700;stroke-width:18.8546;stroke-linecap:round;stroke-linejoin:round;stroke-miterlimit:10;}
	.st68{fill:none;stroke:#1B4700;stroke-width:2;stroke-linecap:round;stroke-miterlimit:10;}
	.st69{fill:none;stroke:#6FAB00;stroke-linecap:round;stroke-miterlimit:10;}
	.st70{fill:#9E0E00;}
	.st71{clip-path:url(#SVGID_2_);}
	.st72{fill:#6FB228;}
	.st73{fill:#F9C900;stroke:#CE571B;stroke-width:3;stroke-miterlimit:10;}
	.st74{opacity:0.3;fill:none;stroke:#CE571B;stroke-linecap:round;stroke-linejoin:round;stroke-miterlimit:10;}
	.st75{opacity:0.3;fill:#CE571B;}
	.st76{fill:#EAA629;}
	.st77{fill:#853323;stroke:#430000;stroke-width:3;stroke-miterlimit:10;}
	.st78{fill:none;stroke:#430000;stroke-linecap:round;stroke-miterlimit:10;}
	.st79{fill:#8A9D1F;stroke:#1B4700;stroke-miterlimit:10;}
</style>
<g>
	<path class="st60" d="M254.3,292c-102.8,71.7-196.8,74.5-229.1,72.8c-6.9-0.4-12.4-5.9-12.7-12.8c-1.4-33.8,1.2-135.3,70.9-231
		c44.1-60.5,87-48.2,153,17.9C294.9,197.4,313.3,250.9,254.3,292z"/>
	<path class="st47" d="M387.2,54.2c-1.2-4.3-3.9-8-7.8-10.2c-2.3-1.4-15.3-9.1-34.5-9.1c-18.6,0-47.1,7.4-76.9,42.4
		c-15.9,18.7-37.8,29.4-60.1,29.4c-2.7,0-5.5-0.2-8.2-0.5c11.5,8.7,23.7,19.7,36.8,32.8c11.5,11.5,21.4,22.8,29.6,33.9l-0.7-10.4
		c-1.3-18.8,4.5-37.3,16.4-52.1c9.6-11.9,18.1-21.3,24.5-27.1c11.8-10.7,23.4-16.1,34.6-16.1c7,0,14.1,2.1,21.3,6.2
		c2.6,1.5,5.5,2.3,8.5,2.3c6.1,0,11.8-3.3,14.8-8.6C387.7,63.2,388.3,58.6,387.2,54.2z"/>
	<path class="st4" d="M396.5,51.7c-1.8-6.7-6.1-12.4-12-16c-3.5-2.2-18.2-10.5-39.6-10.5c-20.7,0-52.1,8-84.3,45.8
		c-14,16.5-33.3,26-52.7,26c-4,0-8.1-0.4-12.1-1.2l-9.3-1.9c-1.4-0.3-2.9-0.4-4.3-0.4c-0.4,0-0.8,0.1-1.2,0.1
		c9.8,5.6,20.1,13.1,31,22.5c24.3-1.2,47-13.3,63.4-32.5c26.6-31.3,51.4-39,69.6-39c18,0,29.5,7.7,29.5,7.7
		c3.6,2.1,4.8,6.6,2.7,10.2c-1.4,2.4-3.9,3.7-6.5,3.7c-1.3,0-2.5-0.3-3.7-1c-8.7-5-17.4-7.5-26.1-7.5c-13.6,0-27.4,6.1-41.1,18.6
		c-8,7.2-17.3,18-25.5,28.2c-12.6,15.7-19.2,35.3-18.6,55.3c8.6,10.1,15.7,20,21.3,29.7l-1.9-27.6c-1.1-16.4,3.9-32.5,14.3-45.4
		c9.3-11.5,17.4-20.5,23.4-26c10-9,19.4-13.6,28.2-13.6c5.3,0,10.7,1.6,16.5,4.9c4,2.3,8.7,3.6,13.3,3.6c9.5,0,18.4-5.1,23.2-13.4
		C397.4,65.8,398.3,58.6,396.5,51.7z"/>
	<path class="st63" d="M167.5,307.8c-1.1,0-2.1-0.5-2.7-1.5c-1-1.5-0.5-3.5,1-4.4c10.5-6.8,20.9-14.3,31-22.3
		c1.4-1.1,3.4-0.9,4.5,0.5c1.1,1.4,0.9,3.4-0.5,4.5c-10.2,8.1-20.8,15.7-31.5,22.6C168.7,307.7,168.1,307.8,167.5,307.8z"/>
	<path class="st13" d="M81.2,184.3c-0.5,0-1-0.1-1.5-0.4c-1.6-0.8-2.2-2.8-1.4-4.3c7.8-14.9,16.7-29.3,26.6-42.9
		c11.2-15.3,20.3-23.6,29.7-26.8c1.7-0.6,3.5,0.3,4.1,2c0.6,1.7-0.3,3.5-2,4.1c-7.9,2.7-16.4,10.5-26.6,24.5
		c-9.7,13.3-18.4,27.4-26.1,42C83.5,183.7,82.4,184.3,81.2,184.3z"/>
	<path class="st63" d="M243.3,132.1c-44.2-44.2-75.6-62.1-105-59.7c-22.4,1.7-42.9,15.8-62.7,43c-70.5,96.8-74.4,198-72.8,237
		c0.5,11.9,9.9,21.4,21.9,22c3.8,0.2,8.2,0.3,13.2,0.3c42.8,0,128.5-9.7,221.9-74.9c24.5-17.1,38-37.4,40-60.3
		C302.6,208.1,284.1,173,243.3,132.1z M140.7,136.7c-4,6.7-7.7,13.1-9.6,19.8c-3,10.9-9.8,20.5-19.3,26.6
		c-6.3,4.1-11.8,9.3-16.2,15.4c-4.4,6-7.6,12.7-9.6,19.8c-3.1,11.1-10,20.6-19.6,26.9c-6.2,4.1-11.5,9.2-15.9,15.2
		c-3.7,5.1-6.6,10.6-8.5,16.3l-8.5,21.8c-1.9,4.9-9.2,3.1-8.6-2.1c5.8-45.4,22.2-108.9,66.4-169.5c16.3-22.4,32.2-33.8,48.6-35.1
		c1.1-0.1,2.2-0.1,3.3-0.1c9.2,0,19.2,2.9,30.4,9c5.1,2.7,4.3,10.1-1.3,11.6C162.2,114.8,149.8,121.4,140.7,136.7z M259.7,200.4
		c1.5-5.4,8.9-6.1,11.5-1.1c7.3,14.1,10.5,27.1,9.5,38.7c-1.5,17.2-11.9,32.3-31.8,46.2c-63.5,44.3-122.9,61.7-166.4,68.1
		c-5.1,0.7-7.1-6.3-2.5-8.5c14.3-6.7,31.1-15.5,49.9-26.7c1.5-0.9,2-2.9,1.1-4.4c-0.9-1.5-2.9-2-4.4-1.1
		c-46.9,28.1-81.2,40.3-94,44.4c-0.2,0.1-5.5,2.2-9.2-1.4c-3.5-3.5-1.4-8.8-1.3-9.1L48,278.8c1.8-5.2,4.4-10.2,7.7-14.7
		c3.9-5.4,8.7-10,14.3-13.6c10.9-7.2,18.8-17.9,22.3-30.5c1.8-6.4,4.7-12.3,8.6-17.7c4.1-5.6,9.1-10.3,14.8-14
		c10.9-7,18.2-17.8,21.7-30.3c1.7-5.9,4.6-11.9,8.6-17.7c10.3-14.7,22.4-22.7,36-23.6c27.1-2,51.9,24.2,52.2,24.5
		c14.9,14.9,21.7,29.6,21,45c-1,19.9-15.2,41.4-42.4,63.8c-1.4,1.1-1.6,3.2-0.4,4.5s3.1,1.5,4.5,0.4
		C245.2,233.8,255.8,213.8,259.7,200.4z"/>
	<path class="st63" d="M128.3,283.2c-0.9,0-1.8-0.4-2.4-1.1c-1.1-1.4-1-3.4,0.4-4.5c5.1-4.3,9.3-9.5,12.5-15.2
		c6.3-11.4,16.5-20.1,28.8-24.5c6.2-2.2,12-5.6,17-9.9c5.1-4.3,9.3-9.5,12.5-15.2c0.9-1.6,2.8-2.1,4.4-1.3c1.6,0.9,2.1,2.8,1.3,4.4
		c-3.6,6.5-8.3,12.2-14,17c-5.7,4.8-12.1,8.5-19,11.1c-10.8,3.9-19.8,11.5-25.3,21.5c-3.6,6.5-8.3,12.2-14,17
		C129.8,282.9,129,283.2,128.3,283.2z"/>
	<path class="st13" d="M160.9,158.9c-0.5,0-1-0.1-1.5-0.4c-1.6-0.8-2.2-2.8-1.3-4.4c3.1-5.7,7.1-10.9,12.1-15.2
		c4.9-4.3,10.5-7.7,16.6-10c1.7-0.6,3.5,0.2,4.1,1.9c0.6,1.7-0.2,3.5-1.9,4.1c-5.4,2-10.3,5-14.7,8.8c-4.4,3.8-7.9,8.3-10.7,13.4
		C163.1,158.3,162,158.9,160.9,158.9z"/>
	
		<ellipse transform="matrix(0.7071 -0.7071 0.7071 0.7071 -129.0443 109.7176)" class="st13" cx="67.9" cy="210.6" rx="3.7" ry="3.7"/>
	
		<ellipse transform="matrix(0.7071 -0.7071 0.7071 0.7071 -116.3668 145.7822)" class="st13" cx="117.8" cy="213.4" rx="3.7" ry="3.7"/>
	<path class="st63" d="M65.1,295.4c-0.7,0-1.4-0.2-2-0.7c-1.4-1.1-1.6-3.1-0.5-4.5c9.6-11.9,19.7-24.1,30.3-36.3
		c1.2-1.3,3.2-1.5,4.5-0.4c1.3,1.2,1.5,3.2,0.3,4.5c-10.5,12.2-20.6,24.4-30.1,36.2C67,294.9,66.1,295.4,65.1,295.4z"/>
</g>
</svg>
