<?xml version="1.0" encoding="utf-8"?>
<!-- Generator: Adobe Illustrator 20.0.0, SVG Export Plug-In . SVG Version: 6.00 Build 0)  -->
<svg version="1.1" id="Layer_1" xmlns="http://www.w3.org/2000/svg" xmlns:xlink="http://www.w3.org/1999/xlink" x="0px" y="0px"
	 viewBox="0 0 500 500" style="enable-background:new 0 0 500 500;" xml:space="preserve">
<style type="text/css">
	.st0{fill:#292F37;}
	.st1{fill:#577B1D;}
	.st2{fill:#AD2F26;}
	.st3{fill:#264415;}
	.st4{fill:#539243;}
	.st5{fill:#7F415B;}
	.st6{fill:#246901;}
	.st7{fill:#FFFFFF;}
	.st8{fill:#8A1100;}
	.st9{fill:#5EC865;}
	.st10{fill:#007500;}
	.st11{fill:#FF3D50;}
	.st12{fill:none;stroke:#246901;stroke-linecap:round;stroke-linejoin:round;stroke-miterlimit:10;}
	.st13{fill:none;stroke:#FFFFFF;stroke-linecap:round;stroke-linejoin:round;stroke-miterlimit:10;}
	.st14{fill:#FF3D50;stroke:#CC3248;stroke-miterlimit:10;}
	.st15{fill:none;stroke:#007500;stroke-linecap:round;stroke-linejoin:round;stroke-miterlimit:10;}
	.st16{fill:none;stroke:#264415;stroke-linecap:round;stroke-linejoin:round;stroke-miterlimit:10;}
	.st17{fill:#528B1C;}
	.st18{fill:#20420B;}
	.st19{fill:#314773;}
	.st20{fill:#7389B5;}
	.st21{fill:#528B1C;stroke:#20420B;stroke-linecap:round;stroke-linejoin:round;stroke-miterlimit:10;}
	.st22{fill:none;stroke:#314773;stroke-linejoin:round;stroke-miterlimit:10;}
	.st23{fill:#00FFFF;}
	.st24{fill:#22B473;stroke:#184C28;stroke-width:3;stroke-linecap:round;stroke-linejoin:round;stroke-miterlimit:10;}
	.st25{fill:#2E368E;}
	.st26{fill:#9A0D90;}
	.st27{fill:#161542;}
	.st28{fill:#251749;}
	.st29{fill:none;stroke:#FBA954;stroke-linecap:round;stroke-linejoin:round;stroke-miterlimit:10;}
	.st30{fill:#61303F;}
	.st31{fill:#EEB683;}
	.st32{fill:#1B631A;}
	.st33{fill:#FBA954;}
	.st34{fill:#ECD8A1;}
	.st35{fill:#DC0900;stroke:#184C28;stroke-width:1.7008;stroke-miterlimit:10;}
	.st36{fill:none;stroke:#007500;stroke-width:2;stroke-linecap:round;stroke-miterlimit:10;}
	.st37{fill:#F10A00;stroke:#8A1100;stroke-miterlimit:10;}
	.st38{fill:none;stroke:#FFFFFF;stroke-linecap:round;stroke-miterlimit:10;}
	.st39{fill:none;stroke:#007500;stroke-width:3;stroke-linecap:round;stroke-miterlimit:10;}
	.st40{fill:#F10A00;}
	.st41{display:none;fill:#ECD8A1;}
	.st42{fill:#7389B5;stroke:#314773;stroke-miterlimit:10;}
	.st43{fill:none;stroke:#314773;stroke-miterlimit:10;}
	.st44{opacity:0.4;fill:#314773;}
	.st45{fill:#7389B5;stroke:#314773;stroke-linecap:round;stroke-linejoin:round;stroke-miterlimit:10;}
	.st46{fill:#8BA3CD;stroke:#314773;stroke-miterlimit:10;}
	.st47{fill:#5A7098;}
	.st48{fill:none;stroke:#FFFFFF;stroke-width:8;stroke-linecap:round;stroke-linejoin:round;stroke-miterlimit:10;}
	.st49{fill:#FF3D50;stroke:#AD2F26;stroke-miterlimit:10;}
	.st50{fill:#FF3D50;stroke:#CC3248;stroke-width:1.058;stroke-miterlimit:10;}
	.st51{fill:#539243;stroke:#246901;stroke-width:3;stroke-linejoin:round;stroke-miterlimit:10;}
</style>
<path class="st0" d="M11.9,303.3c-7.6,17.5-7.8,36.8-0.7,54.3c7.1,17.5,20.6,31.2,38.2,38.6c7.4,3.1,15.2,4.9,23.2,5.4
	c2.2,0.1,4.1,1.6,4.7,3.8c0.6,2.1,1.3,4.3,2.1,6.4c6.7,17.7,20,31.6,37.5,39.3c13.4,5.9,28.1,7.5,42.4,4.8c2.2-0.4,4.4,0.6,5.5,2.5
	c7.8,13,19.3,22.9,33.2,28.8c8.9,3.7,18.3,5.6,27.7,5.6c9.1,0,18.3-1.8,27-5.3c17.7-7.1,31.7-20.7,39.2-38.1c6-13.9,7.4-29.1,4-43.9
	c-0.5-2.1,0.4-4.3,2.2-5.5c28.1-18.3,39.9-53.9,28.1-84.8c-1.1-2.9-2.4-5.8-3.9-8.5c-1-1.9-0.8-4.3,0.7-5.9
	c18.3-20.1,23.8-48.1,14.3-73.1c-8.1-21.3-26.5-37.4-49-43.1c-2.1-0.5-3.5-2.1-3.8-4.3c-0.7-5.1-2-10.2-3.9-15
	c-6.7-17.6-20-31.6-37.5-39.2c-17.4-7.7-36.8-8.1-54.7-1.3l-1.2,0.5c-3.4,1.4-6.7,3-9.8,4.8c-1.8,1-3.8,1-5.5-0.1
	c-3.4-2.2-7.1-4.1-10.8-5.6c-17.6-7.3-37-7.4-54.7-0.3c-17.7,7.1-31.7,20.7-39.2,38.1c-1.6,3.8-2.9,7.7-3.9,11.6
	c-0.5,2-1.9,3.4-3.9,3.9c-3.5,0.8-7.1,2-10.4,3.3c-17.7,7.1-31.6,20.7-39.2,38.1c-9.7,22.4-6.9,48.7,7.3,68.7
	c1.2,1.7,1.3,3.9,0.2,5.7C15,296.7,13.3,299.9,11.9,303.3z"/>
<polygon class="st1" points="315.9,338.5 383.6,315.7 445.6,264.4 428.5,253.7 471.2,179.6 449.8,171.1 485.4,87 465.5,80.6 
	479.7,26.5 426.3,40 417.8,18.7 333,52.9 321.6,32.9 250.4,77.1 231.9,59.3 186.3,117.7 183.5,162.7 "/>
<path class="st3" d="M248.7,154.7c1.1-10.6,2.8-21.7,4.9-32.9c0.4-2-0.9-4-3-4.4c-2-0.4-4,0.9-4.4,3c-1.9,9.7-3.3,19.3-4.5,28.5
	C245.5,149.4,247.8,151.8,248.7,154.7z"/>
<path class="st3" d="M390.8,256.1c-0.4-2-2.3-3.4-4.4-3c-25.4,4.8-49.6,6.6-70.5,6.9c0.6,2.5,0.3,5.3-0.9,7.5
	c21.5-0.3,46.5-2.1,72.8-7C389.8,260.1,391.2,258.1,390.8,256.1z"/>
<path class="st5" d="M314.7,269.3c5.4-12.6,5.6-26.6,0.5-39.4s-14.8-22.8-27.5-28.2c-6.5-2.8-13.3-4.2-20.3-4.2
	c-1.5,0-3,0.1-4.5,0.2c1.8-9.5,0.9-19.4-2.7-28.7c-5.1-12.8-14.8-22.8-27.5-28.2c-6.5-2.8-13.3-4.2-20.3-4.2
	c-15,0-28.9,6.5-38.5,17.4c-5.2-6.4-11.8-11.4-19.5-14.7c-6.5-2.8-13.3-4.2-20.3-4.2c-20.6,0-39.1,12.2-47.3,31.1
	c-3.4,7.9-4.6,16.1-4,24.2c-1.5-0.1-3.1-0.2-4.6-0.2c-20.6,0-39.1,12.2-47.3,31.1c-9.7,22.6-1.9,48.5,17.4,62.2
	c-6.3,5.1-11.4,11.8-14.7,19.5c-11.2,26.1,0.9,56.4,26.9,67.6c6.5,2.8,13.3,4.2,20.3,4.2c5.1,0,10.1-0.8,14.9-2.2
	c-2.3,21.8,9.6,43.6,30.8,52.8c6.5,2.8,13.3,4.2,20.3,4.2c9.8,0,19.1-2.8,27-7.7c0.6,3.7,1.6,7.4,3,11c5.1,12.8,14.8,22.8,27.5,28.2
	c6.5,2.8,13.3,4.2,20.3,4.2c20.6,0,39.1-12.2,47.3-31.1c7.2-16.8,4.8-35.3-4.8-49.4c16.1-3.4,29.9-14.4,36.6-30
	c5.4-12.6,5.6-26.6,0.5-39.4c-3.1-7.9-8.1-14.7-14.4-20.1C300.7,290,309.6,280.9,314.7,269.3z M153.2,234.6
	c-0.1-0.1-0.2-0.1-0.3-0.2c0.1,0,0.2-0.1,0.4-0.2C153.2,234.4,153.2,234.5,153.2,234.6z"/>
<path class="st3" d="M307.2,350.4c8.4-1.6,27.3-5.8,35.2-7.9c43-11.5,78.2-30.6,104.7-56.9c4.1-4,6.8-9.4,7.2-15.1
	c0.4-5.5-1.1-10.7-4-14.9c-3.1-4.6-2.8-10.7,0.5-15.2c10.1-13.6,19.1-28.7,26.9-45.1c2.8-5.8,3-12.5,0.7-18.5
	c-1.1-2.9-2.8-5.4-4.8-7.6c-3.8-4-4.9-9.8-2.4-14.7c8.6-17.2,16.1-35.5,22.4-54.5c1.6-4.7,1.8-9.7,0.3-14.5
	c-1.2-4.1-3.5-7.6-6.4-10.3c-4-3.7-5.1-9.7-3-14.7c5.1-12,7.1-19.9,7.5-21.4c1.9-7.9-0.4-16.2-6.2-22c-4.4-4.4-10.3-6.8-16.4-6.8
	c-1.9,0-3.7,0.2-5.6,0.7c-1.4,0.4-9,2.3-20.4,7.1c-5,2.1-10.9,1-14.6-2.9c-1.5-1.6-3.2-3-5.1-4.1c-3.6-2.2-7.8-3.3-11.9-3.3
	c-2.5,0-4.9,0.4-7.3,1.2c-19.5,6.4-38.1,14.1-55.6,22.8c-4.9,2.4-10.7,1.3-14.7-2.4c-2.2-2.1-4.7-3.7-7.6-4.8
	c-2.7-1.1-5.6-1.6-8.5-1.6c-3.4,0-6.8,0.8-10,2.2c-16.4,7.8-31.5,16.8-45.2,27c-4.5,3.4-10.6,3.6-15.3,0.4c-2.9-1.9-6.2-3.2-9.7-3.7
	c-1.1-0.1-2.1-0.2-3.2-0.2c-6.1,0-12.1,2.4-16.5,6.8c-21.4,21.4-43.4,60.8-55.1,93.3c3.9,1.2,11.4,3.3,11.4,3.3s8.3-3.2,14.4-5.6
	c7.7-18.7,23.1-48.7,36.4-64.4c4.4-5.2,12.6-4.4,15.9,1.5l3.4,6.1c1.8,3.3,6.3,3.9,9,1.3l0.1-0.1c16.5-16.5,35.4-29.6,55-39.9
	c5.1-2.6,11.3-0.3,13.4,5l3.3,8.1c1.3,3.3,5.4,4.6,8.3,2.6c26.1-17.1,55.7-28.1,69.9-32.9c4.4-1.5,9.1,1.3,9.9,5.9l2,11
	c0.7,3.9,5.1,5.9,8.5,3.8c13.5-8.2,25.2-13.5,33.4-16.7c5.1-2,10.2,3.1,8.2,8.2c-3.2,8.4-8.7,20.4-17.3,34.3
	c-2.1,3.4-0.1,7.8,3.8,8.5l8.6,1.5c5.9,1,9.5,7.2,7.4,12.8c-7.7,21.1-18,44.1-31.6,66.8c-1.8,3-0.5,6.8,2.7,8.1l8.1,3.3
	c5.3,2.1,7.6,8.4,5,13.4c-10.3,19.6-23.3,38.4-39.8,54.9l-0.1,0.1c-2.7,2.7-2,7.2,1.3,9l6.1,3.4c5.9,3.3,6.7,11.4,1.6,15.8
	c-29.8,25.2-77.7,41.4-114.2,48.7L307.2,350.4z"/>
<path class="st3" d="M293.9,206.4c4.8-4.8,7.4-11.4,7.2-18.1c-0.5-16.6-0.1-48,6.6-83.2c0.4-2.2,2.5-3.6,4.7-3
	c2.1,0.5,3.2,2.6,2.9,4.7c-5.1,26.6-6.4,51.1-6.5,68.3c0,6.1,7.4,9.2,11.7,4.9l21-21c4.8-4.8,7.4-11.4,7.2-18.1
	c-0.3-11.4-0.3-29.9,2-52.2c0.2-2.1,2-3.8,4.1-3.7c2.2,0.1,3.9,2.1,3.7,4.3c-1.5,14.7-2.1,27.8-2.1,38.3c0,6.1,7.4,9.2,11.7,4.9
	l44-44c1.5-1.5,3.9-1.7,5.5-0.3c1.7,1.5,1.7,4.1,0.2,5.6l-44.3,44.3c-4.3,4.3-1.2,11.7,4.9,11.7c10.5-0.1,23.7-0.6,38.6-2.1
	c2.4-0.2,4.5,1.7,4.3,4.3c-0.2,1.8-1.7,3.3-3.6,3.5c-16.4,1.7-30.8,2.2-41.8,2.2c-4.1,0-7.7-0.1-10.7-0.2
	c-6.8-0.2-13.3,2.4-18.1,7.2l-21,21c-4.3,4.3-1.2,11.7,4.9,11.7c17.2-0.1,41.8-1.5,68.7-6.6c2.2-0.4,4.3,1.1,4.6,3.3
	c0.3,2.1-1.3,4-3.3,4.4c-28.7,5.5-55,6.7-72.7,6.7c-4,0-7.6-0.1-10.6-0.2c-6.8-0.2-13.3,2.4-18.1,7.2l-1,1c-0.7-1.2-1.4-2.3-2.4-3.3
	c-0.9-0.9-1.8-1.7-2.9-2.4L293.9,206.4z"/>
<path class="st7" d="M375.2,112.4c1,0,2-0.4,2.7-1.1L394,95.2c1.5-1.5,1.5-4,0-5.5c-1.5-1.5-4-1.5-5.5,0l-16.1,16.1
	c-1.5,1.5-1.5,4,0,5.5C373.2,112,374.2,112.4,375.2,112.4z"/>
<path class="st7" d="M322.3,165.3c1,0,2-0.4,2.7-1.1l12.7-12.7c1.5-1.5,1.5-4,0-5.5c-1.5-1.5-4-1.5-5.5,0l-12.7,12.7
	c-1.5,1.5-1.5,4,0,5.5C320.3,164.9,321.3,165.3,322.3,165.3z"/>
<circle class="st7" cx="404.3" cy="80.7" r="4.3"/>
<path class="st7" d="M123.7,158.5c0-0.4,0-0.8-0.2-1.2c-0.6-1.8-2.5-2.8-4.3-2.2c-5.1,1.7-9.5,4.6-13.1,8.6
	c-2.9,3.2-5.1,6.8-6.5,10.8c-0.6,1.8,0.3,3.8,2.1,4.4c1.8,0.6,3.7-0.3,4.4-2.1c1.1-3.1,2.8-6,5.1-8.4c2.9-3.1,6.3-5.4,10.3-6.8
	C122.8,161.2,123.7,159.9,123.7,158.5z"/>
<path class="st7" d="M111.2,250.8c0-0.4-0.2-0.8-0.3-1.1c-0.8-1.7-2.9-2.4-4.6-1.5c-4.8,2.4-8.7,5.9-11.8,10.4
	c-2.4,3.5-4,7.5-4.9,11.6c-0.4,1.8,0.8,3.7,2.7,4.1c1.8,0.4,3.6-0.8,4-2.7c0.6-3.3,1.9-6.3,3.8-9.1c2.4-3.5,5.5-6.3,9.2-8.2
	C110.6,253.6,111.3,252.2,111.2,250.8z"/>
<path class="st7" d="M124.5,248.7c1.8-0.3,3.1-2.1,2.7-4c-0.3-1.9-2.1-3.1-4-2.8s-3.1,2.1-2.7,4S122.6,249.1,124.5,248.7z"/>
<path class="st7" d="M57.4,302.6c1.9-0.1,3.3-1.8,3.2-3.7c-0.1-1.9-1.7-3.3-3.6-3.2s-3.3,1.8-3.2,3.7
	C53.9,301.3,55.6,302.7,57.4,302.6z"/>
<path class="st7" d="M137.4,158.3c1.9-0.1,3.3-1.7,3.3-3.6s-1.7-3.4-3.5-3.3s-3.3,1.7-3.3,3.6C134,156.9,135.6,158.4,137.4,158.3z"
	/>
<path class="st7" d="M210.7,216c1.9-0.2,3.2-2,2.9-3.9c-0.2-1.9-2-3.2-3.8-3c-1.9,0.2-3.2,2-2.9,3.9
	C207.1,214.9,208.8,216.3,210.7,216z"/>
<path class="st7" d="M197.9,160.4c1.9-0.2,3.2-2,2.9-3.9c-0.2-1.9-2-3.2-3.8-3c-1.9,0.2-3.2,2-2.9,3.9S196,160.6,197.9,160.4z"/>
<path class="st7" d="M197.8,216.8c-0.7-1.7-2.8-2.5-4.5-1.8c-4.9,2.1-9.1,5.4-12.3,9.7c0,0,0,0,0,0.1c0,0,0,0,0,0
	c-0.6,0.7-1,1.7-0.8,2.7c0.2,1.9,2,3.2,3.9,3c1.2-0.2,2.1-0.9,2.6-1.8c2.6-3.3,5.7-5.8,9.5-7.4c1.3-0.6,2.1-2,2-3.4
	C198.1,217.6,198,217.2,197.8,216.8z"/>
<path class="st7" d="M60.3,216.8c-0.1-0.4-0.3-0.7-0.5-1.1c-1.1-1.6-3.2-2-4.7-0.9c-4.4,3.1-7.8,7.1-10.2,12
	c-1.9,3.8-3,7.9-3.2,12.2c-0.1,1.9,1.3,3.5,3.2,3.7c1.9,0.1,3.5-1.3,3.6-3.2c0.2-3.3,1-6.5,2.5-9.5c1.9-3.8,4.6-7,8-9.4
	C60.2,219.7,60.7,218.2,60.3,216.8z"/>
<path class="st7" d="M70.6,212c1.9-0.3,3.1-2.1,2.8-4c-0.3-1.9-2.1-3.1-3.9-2.8c-1.9,0.3-3.1,2.1-2.8,4
	C67,211.1,68.7,212.3,70.6,212z"/>
<path class="st31" d="M259.9,329.4l-17.7,0.1c0.1,2.3,0,4.5-0.3,6.8l17.9-0.1c1.9,0,3.4-1.5,3.4-3.4
	C263.4,330.9,261.8,329.4,259.9,329.4z"/>
<path class="st31" d="M238.2,351c-0.6,1.4-1.2,2.8-2,4.2c-0.4,0.7-0.8,1.3-1.1,1.9l15.9,7c0.8,0.4,1.7,0.4,2.4,0.1
	c0.9-0.3,1.7-0.9,2.1-1.9c0.8-1.7,0-3.7-1.7-4.5L238.2,351z"/>
<path class="st31" d="M224.8,176.7l-6.2,16.4c2.2,0.7,4.3,1.6,6.4,2.6l6.3-16.6c0.7-1.8-0.2-3.7-2-4.4
	C227.5,174.1,225.5,175,224.8,176.7z"/>
<path class="st0" d="M134,131.1L134,131.1c-22.2,0-42.2,13.2-50.9,33.5c-3,6.9-4.5,14.2-4.5,21.5c-0.1,0-0.3,0-0.4,0h0h0
	c-22.2,0-42.2,13.2-50.9,33.5c-9.8,22.8-3.1,48.6,14.8,64c-5.1,5-9.3,11-12.2,17.7c-5.9,13.6-6.1,28.7-0.6,42.4
	c5.5,13.8,16,24.6,29.6,30.4c7,3,14.3,4.5,21.9,4.5c3.6,0,7.1-0.4,10.6-1c0,7.1,1.3,14.1,3.9,20.9c5.5,13.8,16,24.6,29.6,30.4
	c7,3,14.3,4.5,21.9,4.5c8.6,0,16.8-2,24.3-5.6c0.6,2.1,1.2,4.3,2.1,6.4c5.5,13.8,16,24.6,29.6,30.4c7,3,14.3,4.5,21.9,4.5
	c22.2,0,42.2-13.2,50.9-33.5c5.9-13.6,6.1-28.7,0.6-42.4c-0.8-2.1-1.8-4.1-2.8-6c15-4.8,27.6-15.9,34-30.9
	c5.9-13.6,6.1-28.7,0.6-42.4c-2.7-6.7-6.6-12.7-11.4-17.7c9.5-5.9,17.3-14.6,21.9-25.3c5.9-13.6,6.1-28.7,0.6-42.4
	c-5.5-13.8-16-24.6-29.6-30.4c-6.9-3-14.3-4.5-21.7-4.5c0.9-8.7-0.3-17.6-3.7-26c-5.5-13.8-16-24.6-29.6-30.4
	c-7-3-14.3-4.5-21.9-4.5h0h0c-14.6,0-28.3,5.7-38.4,15.5c-5-5.2-11.1-9.5-18.1-12.5C148.9,132.6,141.6,131.1,134,131.1 M212.4,140.7
	c6.3,0,12.6,1.2,18.7,3.9c15.1,6.5,25.2,20,27.9,35.1c1.4,7.4-3,14.6-10.1,17.1c-0.8,0.3-1.6,0.6-2.4,0.9c-4.5,1.8-9.6,1.5-13.7-1
	c-2.3-1.4-4.6-2.6-7.2-3.7c-7-3-14.3-4.5-21.9-4.5h0h0c0,0-0.1,0-0.1,0c-7.4,0-13.8-5.1-15.2-12.3c-0.8-3.9-1.9-7.7-3.5-11.4
	c-3.2-7.4,0.1-16.2,7.4-19.6C198.6,142.2,205.5,140.7,212.4,140.7z M203.7,299.3c2.5,0,5-0.2,7.4-0.5c11.6-1.6,22.5,6.2,25,17.7
	c2,9.3,1.3,19.4-2.8,28.8c-7.7,18-25.2,28.7-43.6,28.7c-6.3,0-12.6-1.2-18.7-3.9c-9.9-4.3-17.6-11.5-22.5-20.2
	c-5.5-9.8-2.9-22.3,6-29c7.4-5.6,12.5-12.1,15.8-17.5c3.7-6,10.9-8.7,17.7-6.7C192.7,298.1,198.2,299.3,203.7,299.3z M122.8,228.7
	c6.3,0,12.6,1.2,18.7,3.9c24.1,10.4,35.2,38.3,24.8,62.3c-7.7,18-25.2,28.7-43.6,28.7c-6.3,0-12.6-1.2-18.7-3.9
	c-24.1-10.4-35.2-38.3-24.8-62.3C86.9,239.4,104.4,228.7,122.8,228.7z M203.8,196.4c6.3,0.1,12.6,1.2,18.7,3.9
	c24.1,10.4,35.2,38.3,24.8,62.3c-7.7,18-25.2,28.7-43.6,28.7c-2,0-4-0.2-6-0.5c-10.7-1.8-18.6-10.5-19.9-21.2
	c-0.6-4.7-1.8-9.4-3.6-14c-1.7-4.3-3.9-8.3-6.6-12c-6.3-8.7-6-20.6,0.7-28.9C176,205.5,187.6,196.3,203.8,196.4z M156.3,214.3
	c-3.9,6.6-11.7,10-19.2,8.1c-7.8-1.9-14.3-1.7-14.3-1.7h0h0c-3.3,0-6.5,0.3-9.6,0.8c-6.7,1.2-13.4-1.5-17.4-6.9
	c-9.6-13.1-12.2-30.8-5.3-46.8c7.7-18,25.2-28.7,43.6-28.7c6.3,0,12.6,1.2,18.7,3.9c15.8,6.8,26.1,21.2,28.2,37.2
	c0.9,6.8-2.3,13.5-8.1,17.1C167.8,200.4,161.3,205.8,156.3,214.3z M64.7,197c7-2.4,14.7,1.3,17.2,8.3c0.2,0.6,0.4,1.2,0.7,1.8
	c1.4,3.6,3.2,7,5.3,10.1c3.8,5.7,2.9,13.3-2.1,17.8c-5.8,5.2-10.6,11.8-13.8,19.2c-1.2,2.7-2.1,5.5-2.8,8.2
	c-1.1,4.2-4.1,7.6-8.2,9.2c-1.4,0.5-2.8,1.2-4.2,1.8c-6.1,2.9-13.4,1.1-17.2-4.4c-9.2-13-11.7-30.4-4.9-46.2
	C34.6,222.8,43.2,204.3,64.7,197z M80.8,370.8c-6.8,0-13.7-1.5-20.3-4.6c-22-10.4-32.6-36.2-24.3-59.1c2.6-7,6.6-13,11.6-17.9
	c7.3-7.1,19.4-4,22.9,5.6c5,13.9,15.6,25.8,30.2,32.1c0,0,2.7,1.2,7.4,2.4c11.5,2.9,15.5,17.2,7.2,25.7
	C101.2,369.7,80.8,370.8,80.8,370.8z M181.8,381.2c7.1,1.2,11.4,8.8,8.6,15.5c0,0,0,0.1-0.1,0.1c-7.7,18-25.2,28.7-43.6,28.7
	c-6.3,0-12.6-1.2-18.7-3.9c-13.6-5.9-23.1-17.3-26.8-30.5c-2.3-7.9,1.3-16.2,8.3-20.4c9.7-5.9,17.5-14.7,22.2-25.5l0,0
	c1.1-2.6,5-2.6,5.9,0.1c0.2,0.6,0.4,1.1,0.6,1.7c5.5,13.8,16,24.6,29.6,30.4C167.9,377.4,174.3,379.9,181.8,381.2z M268.2,432.6
	c-7.7,18-25.2,28.7-43.6,28.7c-6.3,0-12.6-1.2-18.7-3.9c-11-4.7-19.3-13.2-24.1-23.3c-2.5-5.3-1.2-11.7,3.1-15.7
	c5.4-5.1,9.8-11.3,12.9-18.4c1.6-3.7,2.7-7.4,3.5-11.3c0.9-4.9,4.4-8.9,9-10.7c0.1,0,0.1,0,0.2-0.1c4.6-1.8,9.8-1.3,13.9,1.6
	c3.2,2.3,6.6,4.2,10.3,5.8c7,3,14.3,4.5,21.9,4.5c0,0,0.1,0,0.1,0c6,0,11.4,3.6,13.3,9.3C273.1,409.8,272.9,421.6,268.2,432.6z
	 M299.9,353.2c-7.7,18-25.2,28.7-43.6,28.7c-6.3,0-12.6-1.2-18.7-3.9c-3.5-1.5-6.7-3.4-9.7-5.6c-1.8-1.3-1.9-3.9-0.3-5.4
	c5.5-5.1,10-11.4,13.1-18.6c5.9-13.6,6.1-28.7,0.6-42.4c-0.2-0.5-0.4-1-0.6-1.5c-1.3-3,1.8-5.9,4.8-4.6c0,0,0.1,0,0.1,0.1
	c7,3,14.3,4.5,21.9,4.5c4,0,7.9-0.4,11.7-1.2c7.3-1.6,15,1.6,18.6,8.1C304.7,323.7,306,339.1,299.9,353.2z M267.4,296.4
	c-6.3,0-12.6-1.2-18.7-3.9c0,0-0.1,0-0.1,0c-4.9-2.1-6.3-8.4-2.8-12.4c3.6-4.2,6.7-9,8.9-14.3c7.4-17.2,5.4-36-3.7-50.9
	c-2.8-4.5-0.3-10.6,4.9-11.9c3.8-1,7.7-1.5,11.6-1.5c6.8,0,13.7,1.5,20.2,4.6c22.2,10.5,32.8,36.6,24.1,59.6
	C304.6,284.9,286.5,296.4,267.4,296.4z"/>
</svg>
