<?xml version="1.0" encoding="utf-8"?>
<!-- Generator: Adobe Illustrator 20.0.0, SVG Export Plug-In . SVG Version: 6.00 Build 0)  -->
<svg version="1.1" id="Layer_1" xmlns="http://www.w3.org/2000/svg" xmlns:xlink="http://www.w3.org/1999/xlink" x="0px" y="0px"
	 viewBox="0 0 64 64" style="enable-background:new 0 0 64 64;" xml:space="preserve">
<style type="text/css">
	.st0{fill:#4D831C;stroke:#184C28;stroke-width:3;stroke-linecap:round;stroke-linejoin:round;stroke-miterlimit:10;}
	.st1{display:none;}
	.st2{display:inline;fill:#D1A982;}
	.st3{display:inline;}
	.st4{fill:#AFD048;stroke:#6B9311;stroke-width:3;stroke-miterlimit:10;}
	.st5{fill:none;stroke:#6B9311;stroke-miterlimit:10;}
	.st6{fill:#AFD048;}
	.st7{fill:#F40000;stroke:#BA0D0D;stroke-width:3;stroke-miterlimit:10;}
	.st8{fill:none;stroke:#FFFFFF;stroke-linecap:round;stroke-linejoin:round;stroke-miterlimit:10;}
	.st9{fill:#CDA347;stroke:#A2690C;stroke-width:3;stroke-miterlimit:10;}
	.st10{fill:#A2CC62;}
	.st11{fill:#68664C;stroke:#522B25;stroke-width:3;stroke-linecap:round;stroke-linejoin:round;stroke-miterlimit:10;}
	.st12{fill:#B63E34;stroke:#522B25;stroke-width:3;stroke-miterlimit:10;}
	.st13{fill:#ADD481;}
	.st14{fill:#68664C;}
	.st15{fill:#593156;stroke:#331E31;stroke-width:3;stroke-miterlimit:10;}
	.st16{fill:none;stroke:#FFFFFF;stroke-linecap:round;stroke-miterlimit:10;}
	.st17{fill:#22B573;stroke:#184C28;stroke-width:3;stroke-linecap:round;stroke-linejoin:round;stroke-miterlimit:10;}
	.st18{fill:#EE0000;}
	.st19{fill:#9A0601;}
	.st20{fill:#EE0000;stroke:#9A0601;stroke-linecap:round;stroke-linejoin:round;stroke-miterlimit:10;}
	.st21{fill:#FFFFFF;}
	.st22{clip-path:url(#SVGID_2_);}
	.st23{fill:#00FFFF;}
	.st24{fill:#456A0A;}
	.st25{fill:#183300;}
	.st26{fill:#FF2214;}
	.st27{fill:#661900;}
	.st28{fill:#88A501;}
	.st29{fill:#3B6700;}
	.st30{fill:#FC4100;}
	.st31{fill:#9F0500;}
	.st32{fill:none;stroke:#6B9311;stroke-width:3;stroke-linecap:round;stroke-miterlimit:10;}
	.st33{fill:#6B9311;}
	.st34{fill:#593156;}
	.st35{fill:#331E31;}
	.st36{fill:#AFD048;stroke:#6B9311;stroke-width:3;stroke-linecap:round;stroke-linejoin:round;stroke-miterlimit:10;}
	.st37{fill:none;stroke:#6B9311;stroke-linejoin:round;stroke-miterlimit:10;}
	.st38{fill:#B63E34;stroke:#522B25;stroke-miterlimit:10;}
	.st39{fill:none;stroke:#522B25;stroke-miterlimit:10;}
	.st40{fill:none;stroke:#522B25;stroke-width:3;stroke-miterlimit:10;}
	.st41{fill:#B63E34;}
	.st42{fill:#522B25;}
	.st43{fill:none;stroke:#40760E;stroke-width:3;stroke-linecap:round;stroke-linejoin:round;stroke-miterlimit:10;}
	.st44{fill:none;stroke:#40760E;stroke-linecap:round;stroke-linejoin:round;stroke-miterlimit:10;}
	.st45{fill:#A2CC62;stroke:#40760E;stroke-width:3;stroke-linecap:round;stroke-linejoin:round;stroke-miterlimit:10;}
	.st46{fill:#A2CC62;stroke:#40760E;stroke-linecap:round;stroke-linejoin:round;stroke-miterlimit:10;}
	.st47{fill:#9EC161;}
	.st48{fill:#40760E;}
	.st49{fill:#AFD048;stroke:#6B9311;stroke-width:3;stroke-linejoin:round;stroke-miterlimit:10;}
	.st50{fill:#663965;}
	.st51{fill:#9D610B;}
	.st52{fill:none;stroke:#A2690C;stroke-linecap:round;stroke-miterlimit:10;}
	.st53{fill:#6D4E2B;}
	.st54{fill:#CDA347;}
	.st55{fill:#7F500A;}
	.st56{fill:#F40000;stroke:#BA0D0D;stroke-miterlimit:10;}
	.st57{fill:#F40000;stroke:#B63E34;stroke-width:3;stroke-miterlimit:10;}
	.st58{fill:#F40000;stroke:#B63E34;stroke-miterlimit:10;}
	.st59{fill:#F40000;stroke:#990D0D;stroke-width:3;stroke-miterlimit:10;}
	.st60{fill:#F40000;stroke:#990D0D;stroke-miterlimit:10;}
	.st61{fill:#F40000;}
	.st62{fill:#990D0D;}
	.st63{fill:#FF9D00;}
	.st64{fill:#E6681E;}
	.st65{fill:#FFCB00;}
	.st66{fill:#B58B06;}
	.st67{fill:#3A4C09;}
	.st68{fill:#B94850;stroke:#6C0A04;stroke-width:3;stroke-miterlimit:10;}
	.st69{fill:#CE8645;stroke:#CE8645;stroke-width:0.5;stroke-miterlimit:10;}
	.st70{fill:#6C0A04;stroke:#6C0A04;stroke-width:0.5;stroke-miterlimit:10;}
	.st71{fill:none;stroke:#6C0A04;stroke-linecap:round;stroke-miterlimit:10;}
	.st72{fill:#B94850;}
	.st73{fill:#CE8645;}
	.st74{fill:#6C0A04;}
	.st75{fill:#8C4F6F;}
	.st76{fill:#E7C456;}
	.st77{fill:#391A26;}
	.st78{fill:#E7C456;stroke:#AC5E17;stroke-width:3;stroke-miterlimit:10;}
	.st79{fill:#4F250E;stroke:#4F250E;stroke-width:0.5;stroke-miterlimit:10;}
	.st80{fill:none;stroke:#AC5E17;stroke-linecap:round;stroke-miterlimit:10;}
	.st81{fill:#4F250E;}
	.st82{fill:#995116;}
	.st83{fill:#FD801E;stroke:#9E0E00;stroke-width:3;stroke-miterlimit:10;}
	.st84{fill:#FD801E;stroke:#9E0E00;stroke-linecap:round;stroke-miterlimit:10;}
	.st85{opacity:0.8;fill:#FFBC42;}
	.st86{opacity:0.8;fill:#D03400;}
	.st87{fill:none;stroke:#9E0E00;stroke-linecap:round;stroke-miterlimit:10;}
	.st88{fill:#FFBC42;}
	.st89{fill:none;stroke:#9E0E00;stroke-width:3;stroke-miterlimit:10;}
	.st90{fill:#344C00;}
	.st91{fill:#FD801E;}
	.st92{fill:#9E0E00;}
	.st93{fill:#FDAF48;}
	.st94{fill:#D74E1E;}
	.st95{opacity:0.8;fill:#68664C;}
	.st96{fill:#775E49;}
</style>
<g class="st1">
	<rect x="-827.5" y="-282.8" class="st2" width="919.6" height="2155.1"/>
	<path class="st3" d="M91.7-282.3v2154.1H-827V-282.3H91.7 M92.7-283.3H-828v2156.1H92.7V-283.3L92.7-283.3z"/>
</g>
<g>
	<path class="st14" d="M36.2,13.1L32.8,2l-3.5,11.1C18.7,12,13.8,6.8,13.8,6.8c2.3,8.4,8.4,16.3,19,16.3s15.5-6.8,19-16.3
		C51.7,6.8,46.4,11.8,36.2,13.1z"/>
	<path class="st41" d="M54.9,34.1C54.9,51.1,44.6,62,32,62S9.1,52.4,9.1,34.1c0-15.7,11.6-23,22.9-23C43.5,11.1,54.9,17.1,54.9,34.1
		z"/>
	<path class="st96" d="M29.9,55.3c-0.4-0.2-0.8-0.3-1.2-0.5c-0.4-0.4-0.9-0.7-1.5-0.9c-0.7-0.2-1.4-0.6-2.1-0.9
		c-1.3-0.8-2.6-1.6-3.8-2.5c-2.7-2-6,0.8-6.2,3.5c4.1,5.2,10,7.8,16.6,7.9c0.5-0.5,0.8-1.1,1-1.7C33.4,58,32,56,29.9,55.3z"/>
	<path class="st96" d="M43.7,13.6c-0.3,0.2-0.6,0.3-0.9,0.6c-0.5,0.4-1.2,0.5-1.8,0.3c-2.7-1.2-6.6,0.2-6.2,3.7
		c0.1,0.5,0.1,1.1,0.2,1.6c-1.4-0.4-2.9-0.2-4,0.7c-1.2-0.3-1.7-0.4-2.9-0.7l0-0.1c-1.4-2.9-6.2-2.6-7.5,0.1c-0.3,0-0.6,0.1-0.9,0.1
		c-0.5-0.3-1-0.5-1.6-0.6c-0.9-0.7-2.2-1.1-3.4-1c-3.4,3.7-5.5,8.9-5.5,15.7c0,6.2,1.2,11.4,3.2,15.5c1.8,0.1,3.6-0.6,4.2-2.2
		c0.2-0.5,0.7-0.9,1.2-1c0,0,1.5-0.4,2.5-2.1c0.5-0.7,1.4-0.9,2.1-0.3c1.1,1,2.9,1.5,4.3,1.2c0.3,0,0.6,0,1,0c1,0,1.8-0.3,2.5-0.8
		c2,1,4.9,0.6,5.9-1.5c0.2-0.3,0.3-0.7,0.5-1.1c2.3,1,5.5,0.2,6-2.7c0.1-0.4,0.2-0.8,0.2-1.3c0.1-0.8,0.8-1.4,1.6-1.5
		c0.2,0,0.5-0.1,0.7-0.2c1.2-0.4,2.5,0.4,2.5,1.7c0,1.7-0.1,3.5-0.3,5.2c-0.1,0.9-0.3,1.7-0.4,2.6c-0.5,2.9,1.5,4.8,3.7,5.3
		c2.7-4.5,4.3-10.2,4.3-16.9C54.9,23.1,50.1,16.8,43.7,13.6z"/>
	<path class="st42" d="M7.6,34.1C7.6,52,17.2,63.5,32,63.5c14.1,0,24.4-12.4,24.4-29.4c0-7.1-1.9-12.9-5.7-17.1
		c-0.8-0.9-1-2.2-0.4-3.3c1.1-2,2.1-4.2,2.9-6.4c0.2-0.7,0-1.4-0.6-1.8c-0.6-0.4-1.4-0.3-1.9,0.2c0,0-3.3,3-9.5,4.8
		c-0.5,0.1-1,0.1-1.5,0l-1.8-0.4c-0.6-0.2-1.1-0.6-1.3-1.2l-2.3-7.3c-0.2-0.6-0.8-1.1-1.5-1.1h0c-0.7,0-1.3,0.4-1.5,1.1l-2.2,7.1
		c-0.2,0.7-0.8,1.2-1.5,1.3c-0.9,0.1-1.7,0.3-2.5,0.5c-0.5,0.1-1,0.1-1.4,0c-5.9-1.8-8.8-4.7-8.8-4.7c-0.5-0.5-1.2-0.6-1.9-0.3
		c-0.6,0.3-0.9,1.1-0.7,1.7c0.6,2.2,1.4,4.2,2.3,6c0.6,1.1,0.4,2.5-0.5,3.4C11.8,18.9,7.6,24.4,7.6,34.1z M47.9,11.8
		c-0.3,0.6-0.6,1.1-0.9,1.6c-0.1,0.1-0.3,0.2-0.4,0.1c-0.4-0.2-0.7-0.5-1.1-0.7c-0.2-0.1-0.2-0.5,0-0.6c0.7-0.3,1.4-0.6,2-0.9
		C47.8,11.2,48,11.5,47.9,11.8z M32.1,9.2L32.5,8c0.1-0.3,0.4-0.3,0.5,0l0.4,1.3c0.1,0.2-0.1,0.4-0.3,0.4l-0.8,0
		C32.2,9.6,32,9.4,32.1,9.2z M17.7,11.4c0.5,0.3,1.1,0.5,1.7,0.8c0.2,0.1,0.2,0.4,0,0.5c-0.3,0.2-0.6,0.4-1,0.5
		c-0.1,0.1-0.3,0-0.4-0.1c-0.3-0.5-0.6-0.9-0.8-1.4C17.3,11.5,17.5,11.3,17.7,11.4z M32,60.5c-13,0-21.4-10.4-21.4-26.4
		c0-14.8,10.7-21.4,21.4-21.4c19.8,0,21.4,16.4,21.4,21.4C53.4,49.4,44.4,60.5,32,60.5z"/>
	<path class="st21" d="M17,24.2c-0.1,0-0.2,0-0.3-0.1c-0.2-0.2-0.3-0.5-0.1-0.7c2.4-3.5,6-5.9,10.5-7c0.3-0.1,0.5,0.1,0.6,0.4
		c0.1,0.3-0.1,0.5-0.4,0.6c-4.2,1-7.6,3.3-9.9,6.6C17.3,24.2,17.1,24.2,17,24.2z"/>
	<circle class="st21" cx="15.4" cy="26.8" r="0.5"/>
	<path class="st96" d="M43.9,39.3v0.4c0,1.3,2,1.3,2,0v-0.4C45.9,38,43.9,38,43.9,39.3z"/>
	<path class="st96" d="M20.9,46.3v1c0,1.3,2,1.3,2,0v-1C22.9,45,20.9,45,20.9,46.3z"/>
	<path class="st96" d="M31.2,17.2v0.7c0,1.3,2,1.3,2,0v-0.7C33.3,15.9,31.2,15.9,31.2,17.2z"/>
</g>
</svg>
