<?xml version="1.0" encoding="utf-8"?>
<!-- Generator: Adobe Illustrator 20.0.0, SVG Export Plug-In . SVG Version: 6.00 Build 0)  -->
<svg version="1.1" id="Layer_1" xmlns="http://www.w3.org/2000/svg" xmlns:xlink="http://www.w3.org/1999/xlink" x="0px" y="0px"
	 viewBox="0 0 500 500" style="enable-background:new 0 0 500 500;" xml:space="preserve">
<style type="text/css">
	.st0{fill:#314773;}
	.st1{fill:#738AB6;}
	.st2{fill:#528C1C;}
	.st3{fill:#20420B;}
	.st4{fill:#528C1C;stroke:#20420B;stroke-linecap:round;stroke-linejoin:round;stroke-miterlimit:10;}
	.st5{fill:none;stroke:#FFFFFF;stroke-linecap:round;stroke-linejoin:round;stroke-miterlimit:10;}
	.st6{fill:#FFFFFF;}
	.st7{fill:none;stroke:#314773;stroke-linejoin:round;stroke-miterlimit:10;}
	.st8{fill:#8B1100;}
	.st9{fill:#00FFFF;}
	.st10{fill:#22B573;stroke:#184C28;stroke-width:3;stroke-linecap:round;stroke-linejoin:round;stroke-miterlimit:10;}
	.st11{fill:#2E368F;}
	.st12{fill:#9B0D91;}
	.st13{fill:#161542;}
	.st14{fill:#251749;}
	.st15{fill:none;stroke:#FCAA54;stroke-linecap:round;stroke-linejoin:round;stroke-miterlimit:10;}
	.st16{fill:#440F43;}
	.st17{fill:#1B631A;}
	.st18{fill:#EFB784;}
	.st19{fill:#FCAA54;}
	.st20{fill:#F20A00;stroke:#8B1100;stroke-miterlimit:10;}
	.st21{fill:none;stroke:#FFFFFF;stroke-linecap:round;stroke-miterlimit:10;}
	.st22{fill:#EDD9A2;}
	.st23{fill:#DD0900;stroke:#184C28;stroke-width:1.7008;stroke-miterlimit:10;}
	.st24{fill:#5EC965;}
	.st25{fill:#007500;}
	.st26{fill:none;stroke:#007500;stroke-width:2;stroke-linecap:round;stroke-miterlimit:10;}
	.st27{fill:none;stroke:#007500;stroke-width:3;stroke-linecap:round;stroke-miterlimit:10;}
	.st28{fill:#F20A00;}
	.st29{fill:#738AB6;stroke:#314773;stroke-miterlimit:10;}
	.st30{fill:none;stroke:#314773;stroke-miterlimit:10;}
	.st31{opacity:0.4;fill:#314773;}
	.st32{fill:#738AB6;stroke:#314773;stroke-linecap:round;stroke-linejoin:round;stroke-miterlimit:10;}
	.st33{fill:#8CA4CE;stroke:#314773;stroke-miterlimit:10;}
	.st34{fill:#5A7099;}
</style>
<path class="st0" d="M348.1,244.5c19.6,12.9,33.9,31.1,41.5,52.8c9.8,27.9,7.2,58.2-7.3,85.3c-14.1,26.4-38,46.5-67.1,56.7
	c-13.4,4.7-27.2,7.1-41.2,7.1c-16.6,0-32.8-3.4-47.4-9.8c-7.4-3.2-15.9-1.7-22,3.6c-4.9,4.3-10.2,8.1-15.9,11.5
	c-12,7.1-25.3,11.9-39.2,14.2c-5.4,0.9-10,4.3-12.8,8.9c-0.7,1.2-1.6,2.3-2.5,3.4c-6.5,7.6-16.7,11.3-26.8,9.3
	c-0.7-0.1-1.3-0.3-2-0.5c-4.3-1.1-8.9-0.6-12.9,1.3c-3.6,1.7-7.6,2.6-11.7,2.6c-7,0-13.7-2.6-18.9-7.3c-3-2.7-5.3-6.1-6.8-9.8
	c-1.7-4.1-5-7.2-8.9-9.1c-6.6-3.2-11.8-9.1-14.2-16.4c-1.8-5.5-1.8-11.3-0.2-16.6c1.6-5.3,0.4-11.1-2.8-15.7
	c-7.8-11-13.7-23.2-17.2-36.1c-6.3-22.9-4.9-46.4,4.1-67.9c4.8-11.4,11.5-21.8,19.9-30.8c6.6-7.1,9.7-16.9,8.2-26.4
	c-1.4-8.7-1.4-17.6-0.3-26.6c1.8-13.7,6.4-27,13.8-39.5c14.7-24.8,38.7-44,67.6-53.9c13.9-4.8,28.3-7.2,42.6-7.2
	c22.5,0,43.9,5.9,61.8,17.2L348.1,244.5z"/>
<path class="st1" d="M120.5,443.4c37.3,3.5,72.9-14.5,88.3-47.3c23.6,24.2,62,33.6,98.5,20.8c48.8-17.1,75.6-67.2,59.9-111.8
	c-15.7-44.7-67.9-67.1-116.6-50c-2.7,0.9-5.3,2-7.8,3.1c8.6-17.7,10.7-37.5,4.3-56.1c-14.3-41.7-65.5-61.8-114.4-45
	S55.9,221.3,70.2,263c2,5.8,4.7,11.1,8,16c-18,8.6-32.6,23-40.6,42.1c-14.3,34.2-2.6,73.2,25.9,98l-2,9.9l-7.4,12.3l19.1,5.4
	l5.4,20.6l18-10.8l17.6,7.4L120.5,443.4z"/>
<path class="st2" d="M479.5,32.4c-0.5-5.7-5-10.2-10.7-10.7c-0.3,0-8.5-0.8-21.6-0.8c-20.7,0-52.4,1.8-86.1,10.4
	c-41.3,10.5-74.8,28.4-99.6,53.2c-20.3,20.3-36.2,47.1-47,78.9c15.1,8.8,26.8,22,32.5,38.7c6.4,18.6,4.3,38.4-4.3,56.1
	c2.5-1.1,5.1-2.2,7.8-3.1c38.9-13.6,80-2.1,102.9,25.7c25-10.4,46.1-24.1,63.2-41.2c30.8-30.8,51.5-76.5,59.6-132.2
	C482.5,66,479.7,33.8,479.5,32.4z"/>
<path class="st2" d="M271.3,229.9c0,0,29.9,2.7,68.8-2.6"/>
<path class="st2" d="M316.3,185c0,0,39.1,3.6,85.9-5.4"/>
<path class="st2" d="M359.6,141.7c0,0,24.6,2.2,58.2-1.3"/>
<path class="st2" d="M271.2,229.8c0,0-2.7-29.9,2.6-68.8"/>
<path class="st2" d="M316.2,184.9c0,0-3.6-39.1,5.4-85.9"/>
<path class="st2" d="M359.5,141.5c0,0-2.2-24.6,1.3-58.2"/>
<line class="st2" x1="193.8" y1="307.5" x2="415.9" y2="85.4"/>
<path class="st3" d="M421.7,140.3c0-2.4-2.1-4.1-4.4-3.9c-16.5,1.7-30.9,2.1-41.2,1.9c-2.9,0-4.3-3.5-2.2-5.5l44.7-44.7
	c1.5-1.5,1.5-4,0-5.6c-1.5-1.5-4-1.5-5.6,0l-44.8,44.8c-2,2-5.5,0.6-5.5-2.2c-0.1-10.2,0.2-24.7,1.9-41.3c0.2-1.9-0.9-3.7-2.6-4.3
	c-2.5-0.8-4.9,0.9-5.2,3.3c-2.2,21.1-2.2,38.5-1.9,48.8c0.2,5.5-1.9,10.8-5.8,14.7L325,170.7c-2,2-5.5,0.6-5.5-2.2
	c-0.2-15.5,0.6-40.8,5.9-68.7c0.4-1.9-0.6-3.8-2.3-4.5c-2.4-1-4.9,0.5-5.4,2.9c-6.3,33.3-6.5,62.3-6,77c0.2,5.5-1.9,10.7-5.8,14.6
	L280,215.7c-2,2-5.5,0.6-5.5-2.2c-0.1-12.3,0.3-30.7,3.2-51.7c0.3-2.1-1-4.2-3.1-4.6c-2.2-0.4-4.3,1.1-4.6,3.3
	c-3.5,25.8-3.6,47.6-3.2,59.6c0.2,5.5-1.9,10.8-5.8,14.7l-14.7,14.7c2.4,1.2,4.5,3,6,5.1l14.3-14.3c3.9-3.9,9.1-6,14.6-5.8
	c3,0.1,6.5,0.2,10.5,0.2c12.4,0,29.4-0.7,48.8-3.3c2-0.3,3.7-2,3.6-4.1c-0.1-2.4-2.2-4.1-4.5-3.8c-20.9,2.9-39.3,3.3-51.7,3.2
	c-2.9,0-4.3-3.5-2.2-5.5l25.9-25.9c3.9-3.9,9.2-6,14.7-5.8c3,0.1,6.5,0.2,10.6,0.2c16,0,39.7-1.1,66-6.1c2-0.4,3.5-2.2,3.4-4.3
	c-0.2-2.3-2.4-3.9-4.7-3.5c-27.8,5.3-53,6.1-68.6,6c-2.9,0-4.3-3.5-2.2-5.5l24.3-24.3c3.9-3.9,9.1-6,14.6-5.8
	c2.9,0.1,6.5,0.2,10.5,0.2c10,0,23.1-0.4,38.1-2C420.1,144.1,421.8,142.4,421.7,140.3z"/>
<path class="st6" d="M381.9,107.6c-1,0-2-0.4-2.8-1.2c-1.5-1.5-1.5-4,0-5.6l14.6-14.6c1.5-1.5,4-1.5,5.6,0s1.5,4,0,5.6l-14.6,14.6
	C383.9,107.2,382.9,107.6,381.9,107.6z"/>
<path class="st6" d="M333.7,155.8c-1,0-2-0.4-2.8-1.2c-1.5-1.5-1.5-4,0-5.6l11.6-11.6c1.5-1.5,4-1.5,5.6,0c1.5,1.5,1.5,4,0,5.6
	l-11.6,11.6C335.7,155.4,334.7,155.8,333.7,155.8z"/>
<path class="st6" d="M296.1,193.3c-1,0-2-0.4-2.8-1.2c-1.5-1.5-1.5-4,0-5.6l6-6c1.5-1.5,4-1.5,5.6,0c1.5,1.5,1.5,4,0,5.6l-6,6
	C298.1,193,297.1,193.3,296.1,193.3z"/>
<circle class="st6" cx="407.1" cy="77.2" r="3.9"/>
<path class="st34" d="M317.2,382l-2.3-0.2c-8.7-0.9-16.5,5.1-18,13.7l-0.4,2.3c-0.6,3.6-5.4,4.6-7.4,1.5l-1.2-1.9
	c-4.7-7.3-14.3-9.7-21.9-5.6l-2,1.1c-3.2,1.7-6.9-1.4-5.8-4.8l0.7-2.2c2.8-8.3-1.3-17.2-9.3-20.6l-2.1-0.9c-3.4-1.4-3.3-6.3,0.2-7.5
	l2.2-0.8c8.2-3,12.7-11.8,10.3-20.1l-0.6-2.2c-1-3.5,2.9-6.5,6-4.5l2,1.2c7.4,4.5,17.1,2.6,22.2-4.5l1.3-1.9c2.2-3,6.8-1.8,7.3,1.9
	l0.3,2.3c1.1,8.6,8.6,15,17.3,14.6l2.3-0.1c3.7-0.2,5.7,4.2,3.1,6.9l-1.6,1.6c-6.1,6.2-6.3,16.1-0.6,22.6l1.5,1.7
	C323,378,320.8,382.3,317.2,382z"/>
<ellipse transform="matrix(0.9438 -0.3306 0.3306 0.9438 -102.8287 114.9297)" class="st0" cx="286.4" cy="359.7" rx="3.9" ry="3.9"/>
<g>
	<path class="st3" d="M194.4,304.9c0.2-0.4,0.4-0.8,0.5-1.1c-0.4,0.2-0.7,0.3-1.1,0.5C194.1,304.5,194.3,304.7,194.4,304.9z"/>
	<path class="st3" d="M447.3,9.2c-21.4,0-54.1,1.9-89,10.7c-43.4,11-78.7,29.9-105,56.3c-23.9,23.9-39.4,53-49.4,82
		c7.6,3.1,14.7,7.2,20.8,12.2c8.9-27.6,23-55.3,45.3-77.5c53.4-53.4,138.5-60,177.3-60c3.7,0,7,0.1,9.9,0.1
		c6.1,0.2,11,5.1,11.2,11.2c1,32-1.3,128.5-59.9,187.1c-18.5,18.5-40.8,31.4-63.7,40.3c6.2,5.5,11.5,11.9,15.8,19.1
		c25.4-10.8,47-25.1,64.6-42.7c77.9-77.9,66.7-211,66.2-216.7c-1-11.3-10-20.3-21.4-21.4C469.6,9.9,460.9,9.2,447.3,9.2"/>
</g>
<path class="st6" d="M90.2,247.4c-2.1,0-3.8-1.6-3.9-3.7c-0.8-12.8,3.4-26.4,12-38.3c1.3-1.8,3.7-2.2,5.5-0.9
	c1.8,1.3,2.2,3.7,0.9,5.5c-7.5,10.4-11.2,22.2-10.5,33.2c0.1,2.2-1.5,4-3.7,4.2C90.4,247.4,90.3,247.4,90.2,247.4z"/>
<path class="st6" d="M217.4,315.8c-0.6,0-1.3-0.2-1.9-0.5c-1.9-1-2.6-3.4-1.6-5.3c5.5-10.4,13.7-19.5,23.7-26.3
	c1.8-1.2,4.2-0.8,5.5,1c1.2,1.8,0.8,4.2-1,5.5c-8.9,6.2-16.3,14.3-21.2,23.6C220.2,315,218.8,315.8,217.4,315.8z"/>
<path class="st6" d="M59.4,334c-0.5,0-1-0.1-1.5-0.3c-2-0.8-3-3.1-2.1-5.2c7.2-17.3,22.5-30.5,41.8-36c2.1-0.6,4.3,0.6,4.9,2.7
	c0.6,2.1-0.6,4.3-2.7,4.9c-17,4.9-30.4,16.3-36.7,31.4C62.4,333.1,61,334,59.4,334z"/>
<circle class="st6" cx="55.2" cy="360.7" r="3.9"/>
<path class="st0" d="M371,303.8c-7.9-22.7-25-40.6-48.1-50.5c-18.8-8.1-39.8-10-60.3-5.6c-5.4,1.1-10.3-3.5-9.3-8.9
	c2.4-12.6,1.7-25.5-2.5-38c-7.3-21.3-23.8-37.9-46.5-46.8c-22.5-8.8-48.4-9.1-72.9-0.6s-44.8,24.5-57.1,45.3
	c-12.4,21-15.2,44.3-7.9,65.5c1.6,4.6,3.6,9,6.1,13.1c-17.6,9.4-31,24-38.6,42.1c-14.3,34.2-3.9,74.8,25.8,101.5
	c0.2,4.2-1.5,8.2-4.7,10.9l-1.6,1.3c-2.5,2.1-3.8,5.5-2.9,8.6c0.9,3.3,3.8,5.7,7.3,5.9l9.2,0.6c3,0.2,5.4,2.7,5.4,5.7l0.1,8.8
	c0,3.3,2,6.5,5.1,7.7c1,0.4,2,0.6,3,0.6c2.2,0,4.4-0.9,6-2.7l5.5-6.1c2.4-2.7,6.5-3,9.3-0.8l6.2,4.8c2.6,2,6.2,2.5,9.1,0.9
	c3.1-1.7,4.7-5,4.1-8.4l-0.4-2.3c-0.5-3.1,0.2-6.3,1.8-9c2.4,0.2,4.8,0.3,7.1,0.3l0-0.1c34.3,0.1,65-17.2,80.5-45.1
	c16.9,15.3,39.9,24,64.1,24c11.4,0,23.1-1.9,34.6-5.9c24.5-8.6,44.5-25.4,56.3-47.4C376.8,351.1,379,326.5,371,303.8z M74,261.7
	c-6.5-19-4-40,7.2-59c11.3-19.2,30.1-34.1,52.8-41.9c11.1-3.8,22.5-5.7,33.7-5.7c11.7,0,23.1,2.1,33.7,6.3c20.5,8.1,35.4,23,42,42
	c4,11.7,4.5,24,1.9,35.8c-1.9,8.8-7.3,16.5-15.1,21.1c-7.8,4.6-14.9,10.2-21.1,16.6c-9.5,9.8-24.5,11.7-36.2,4.6
	c-4.6-2.8-9.4-5.2-14.5-7.4c-24-10-50.1-10.8-73.6-2.3c-0.6,0.2-1.2,0.4-1.8,0.7c-2,0.8-4.3,0-5.3-1.9C76.3,267.8,75,264.8,74,261.7
	z M112.8,457.8c0.1,1-1,1.6-1.8,1l-4.7-3.5c-6.1-4.7-14.8-3.9-20,1.8l-2.5,2.6c-1.2,1.3-3.4,0.5-3.4-1.3l-0.1-4.6
	c-0.1-7.1-5.7-13-12.8-13.5l-6.8-0.5c-1-0.1-1.4-1.3-0.7-1.9h0c5.8-4.7,8.5-12,7.4-19.5c-0.1-0.9-0.6-1.8-1.3-2.4
	c-28-24.4-38-62-24.9-93.6c8.4-20.1,24.8-35.5,46.3-43.2c9.9-3.6,20.2-5.3,30.7-5.3c12.5,0,25.1,2.5,37.1,7.5
	c22.2,9.2,39.7,25.8,49.3,46.6c9.6,20.7,10.3,43.2,1.9,63.3c-12.4,29.7-42.6,48.5-76.9,48.5c-9.2,0-26-3.5-26-3.5
	c-2.2-0.6-4.5,0.8-4.9,3.1c-0.4,2,1,4,2.9,4.5c2.7,0.8,5.5,1.4,8.2,1.9c2.1,0.4,3.4,2.4,3,4.4C112.4,452.8,112.4,455.3,112.8,457.8
	L112.8,457.8z M211.9,324.8c-1.3-2.7-2.6-5.4-4.2-8c-5.5-9.5-4.3-21.4,2.9-29.7c17.8-20.5,41.3-28.3,41.3-28.3
	c10.5-3.7,21.4-5.5,32.1-5.5c12.3,0,24.5,2.4,35.8,7.3c21,9,36.5,25.3,43.7,45.8c7.2,20.6,5.2,43-5.6,63.1
	c-10.9,20.3-29.3,35.8-51.9,43.7c-10.6,3.7-21.4,5.5-32,5.5c-15.4,0-30.1-3.8-42.9-10.7c-10-5.4-15.4-16.8-13-28
	C224.8,348.5,211.9,324.8,211.9,324.8z"/>
<g>
	<path class="st0" d="M294,405.9c-1.4,0-2.7-0.7-3.5-1.9c-6.3-9.7-19.3-13-29.5-7.5c-1.5,0.8-3.4,0.6-4.7-0.5
		c-1.3-1.1-1.8-2.9-1.3-4.5c3.7-11-1.9-23.2-12.6-27.7c-1.6-0.7-2.6-2.2-2.6-4c0-1.7,1.1-3.2,2.7-3.8c10.9-4,17-15.9,13.8-27.1
		c-0.5-1.7,0.1-3.4,1.5-4.5c1.4-1,3.2-1.1,4.7-0.2c9.9,6,23,3.3,29.8-6.1c1-1.4,2.8-2,4.4-1.6s2.9,1.8,3.1,3.5
		c1.5,11.5,11.7,20.1,23.3,19.5c1.7-0.1,3.3,0.9,4,2.5c0.7,1.6,0.4,3.4-0.8,4.6c-8.1,8.3-8.4,21.7-0.7,30.4c1.1,1.3,1.4,3.1,0.6,4.7
		s-2.4,2.4-4.1,2.3c-11.6-1.1-22.2,7-24.2,18.4c-0.3,1.7-1.6,3-3.3,3.4C294.5,405.9,294.2,405.9,294,405.9z M271.6,385.5
		c5.7,0,11.4,1.6,16.3,4.6c2.4,1.5,5.5,0.9,7.1-1.4c3.7-5.2,8.9-9.2,14.9-11.3c2.6-1,4.1-3.8,3.3-6.5c-1.8-6.1-1.6-12.6,0.4-18.6
		c0.9-2.7-0.4-5.5-3-6.6c-5.9-2.4-10.9-6.6-14.3-12c-1.5-2.3-4.6-3.1-7-1.7c-5.5,3.1-11.9,4.4-18.2,3.7c-2.8-0.3-5.3,1.6-5.8,4.4
		c-1.1,6.2-4,12.1-8.5,16.6c-2,2-2,5.2-0.2,7.3c4.2,4.7,6.9,10.7,7.7,17c0.3,2.8,2.8,4.8,5.6,4.7C270.4,385.5,271,385.5,271.6,385.5
		z"/>
</g>
<path class="st34" d="M172.8,246.1l-1.9-1.3c-7.2-4.8-17-3.3-22.3,3.6l-1.4,1.8c-2.3,2.9-6.9,1.5-7.2-2.2l-0.2-2.3
	c-0.7-8.7-8-15.3-16.7-15.3l-2.3,0c-3.7,0-5.5-4.5-2.8-7l1.7-1.6c6.3-6,7-15.8,1.5-22.6l-1.4-1.8c-2.3-2.9,0.1-7.1,3.7-6.6l2.3,0.3
	c8.6,1.2,16.7-4.4,18.6-12.9l0.5-2.2c0.8-3.6,5.6-4.3,7.4-1.2l1.2,2c4.4,7.5,13.9,10.3,21.7,6.5l2.1-1c3.3-1.6,6.9,1.6,5.6,5.1
	l-0.8,2.1c-3.1,8.1,0.6,17.3,8.4,21l2.1,1c3.3,1.6,3,6.4-0.5,7.5l-2.2,0.7c-8.3,2.7-13.1,11.2-11.1,19.7l0.5,2.2
	C179.8,245.3,175.8,248.1,172.8,246.1z"/>
<ellipse transform="matrix(0.152 -0.9884 0.9884 0.152 -77.1353 334.075)" class="st0" cx="156.1" cy="212" rx="3.9" ry="3.9"/>
<g>
	<path class="st0" d="M141,256.3c-1.2-0.7-2.1-1.9-2.2-3.3c-1-11.6-10.9-20.5-22.5-20.4c-1.7,0-3.3-1-3.9-2.6
		c-0.6-1.6-0.3-3.4,1-4.6c8.4-8,9.3-21.3,1.9-30.4c-1.1-1.3-1.2-3.2-0.4-4.7c0.8-1.5,2.5-2.3,4.2-2.1c11.5,1.6,22.5-6.1,24.9-17.4
		c0.4-1.7,1.7-3,3.4-3.2c1.7-0.3,3.4,0.5,4.3,2c5.9,10,18.7,13.8,29.2,8.6c1.5-0.8,3.4-0.5,4.7,0.7c1.3,1.2,1.7,3,1.1,4.6
		c-4.1,10.9,0.9,23.2,11.4,28.2c1.5,0.7,2.5,2.3,2.4,4.1c-0.1,1.7-1.3,3.2-2.9,3.7c-11.1,3.6-17.6,15.2-14.9,26.5
		c0.4,1.7-0.3,3.4-1.7,4.4s-3.3,1-4.7,0.1c-9.7-6.4-22.9-4.3-30,4.9c-1.1,1.4-2.8,1.9-4.5,1.4C141.6,256.5,141.3,256.4,141,256.3z
		 M130.9,227.7c5.1,2.7,9.3,6.8,12.2,11.7c1.4,2.4,4.4,3.4,6.9,2.1c5.7-2.9,12.1-3.9,18.4-3c2.8,0.4,5.4-1.4,6-4.2
		c1.3-6.2,4.5-11.9,9.1-16.2c2-1.9,2.3-5.1,0.5-7.3c-4-4.9-6.5-11-7-17.3c-0.2-2.8-2.6-4.9-5.4-4.8c-6.3,0.1-12.6-1.8-17.8-5.3
		c-2.3-1.6-5.5-1.1-7.2,1.2c-3.9,5-9.2,8.7-15.3,10.7c-2.7,0.8-4.2,3.6-3.6,6.3c1.5,6.2,1.1,12.7-1.2,18.6c-1,2.6,0.2,5.6,2.8,6.8
		C129.9,227.2,130.4,227.5,130.9,227.7z"/>
</g>
</svg>
