<?xml version="1.0" encoding="utf-8"?>
<!-- Generator: Adobe Illustrator 20.0.0, SVG Export Plug-In . SVG Version: 6.00 Build 0)  -->
<svg version="1.1" id="Layer_1" xmlns="http://www.w3.org/2000/svg" xmlns:xlink="http://www.w3.org/1999/xlink" x="0px" y="0px"
	 viewBox="0 0 500 500" style="enable-background:new 0 0 500 500;" xml:space="preserve">
<style type="text/css">
	.st0{fill:#709638;}
	.st1{display:none;fill:#D1A982;}
	.st2{fill:#ECE8DB;}
	.st3{fill:#5B3A03;}
	.st4{fill:#719E7F;stroke:#667F40;stroke-width:3;stroke-linecap:round;stroke-linejoin:round;stroke-miterlimit:10;}
	.st5{fill:#719E7F;stroke:#667F40;stroke-linecap:round;stroke-linejoin:round;stroke-miterlimit:10;}
	.st6{fill:none;stroke:#667F40;stroke-width:3;stroke-linecap:round;stroke-miterlimit:10;}
	.st7{fill:#4D6261;}
	.st8{fill:#ECE8DB;stroke:#5B3A03;stroke-width:3;stroke-miterlimit:10;}
	.st9{fill:#BCE680;}
	.st10{fill:none;stroke:#F0FDC5;stroke-linecap:round;stroke-linejoin:round;stroke-miterlimit:10;}
	.st11{fill:#8DC70C;}
	.st12{fill:#ECFE78;}
	.st13{fill:#73953B;}
	.st14{fill:#3D710C;}
	.st15{fill:#73953B;stroke:#3D710C;stroke-width:3;stroke-linejoin:round;stroke-miterlimit:10;}
	.st16{fill:#EFE8D7;stroke:#DABB95;stroke-width:3;stroke-linejoin:round;stroke-miterlimit:10;}
	.st17{opacity:0.6;fill:none;stroke:#BF71B0;stroke-width:3;stroke-miterlimit:10;}
	.st18{opacity:0.4;fill:none;stroke:#BF71B0;stroke-width:3;stroke-miterlimit:10;}
	.st19{opacity:0.3;fill:none;stroke:#BF71B0;stroke-width:3;stroke-miterlimit:10;}
	.st20{opacity:0.2;fill:none;stroke:#BF71B0;stroke-width:3;stroke-miterlimit:10;}
	.st21{opacity:0.1;fill:none;stroke:#BF71B0;stroke-width:3;stroke-miterlimit:10;}
	.st22{fill:#77A45B;}
	.st23{fill:none;stroke:#FFFFFF;stroke-linecap:round;stroke-linejoin:round;stroke-miterlimit:10;}
	.st24{fill:#00FFFF;}
	.st25{fill:#E50F4F;}
	.st26{fill:#5A8700;}
	.st27{fill:#9D9F01;}
	.st28{fill:none;stroke:#BFBF04;stroke-linecap:round;stroke-linejoin:round;stroke-miterlimit:10;}
	.st29{fill:none;stroke:#CAD058;stroke-linecap:round;stroke-linejoin:round;stroke-miterlimit:10;}
	.st30{fill:#E21039;stroke:#930019;stroke-width:3;stroke-linejoin:round;stroke-miterlimit:10;}
	.st31{fill:#77A45B;stroke:#3D710C;stroke-linecap:round;stroke-linejoin:round;stroke-miterlimit:10;}
	.st32{fill:none;stroke:#77A45B;stroke-width:3;stroke-miterlimit:10;}
	.st33{opacity:0.5;fill:none;stroke:#FFFFFF;stroke-width:3;stroke-linejoin:round;stroke-miterlimit:10;}
	.st34{opacity:0.7;fill:none;stroke:#FFFFFF;stroke-width:3;stroke-linejoin:round;stroke-miterlimit:10;}
	.st35{opacity:0.9;fill:none;stroke:#FFFFFF;stroke-width:3;stroke-linejoin:round;stroke-miterlimit:10;}
	.st36{opacity:0.3;fill:none;stroke:#FFFFFF;stroke-width:3;stroke-linejoin:round;stroke-miterlimit:10;}
	.st37{opacity:0.2;fill:none;stroke:#FFFFFF;stroke-width:3;stroke-linejoin:round;stroke-miterlimit:10;}
	.st38{fill:#E21039;}
	.st39{fill:#930019;}
	.st40{fill:#F4E5E8;}
	.st41{fill:#DEB2BA;}
	.st42{fill:#C8818D;}
	.st43{fill:#B14D5F;}
	.st44{fill:#FFFFFF;}
	.st45{fill:#EFE8D7;}
	.st46{fill:#8C7662;}
	.st47{fill:#E50F4F;stroke:#930019;stroke-width:3;stroke-linejoin:round;stroke-miterlimit:10;}
	.st48{fill:none;stroke:#E87C94;stroke-width:3;stroke-linejoin:round;stroke-miterlimit:10;}
	.st49{fill:none;stroke:#E64872;stroke-width:3;stroke-linejoin:round;stroke-miterlimit:10;}
	.st50{fill:none;stroke:#EBB2B6;stroke-width:3;stroke-linejoin:round;stroke-miterlimit:10;}
	.st51{fill:none;stroke:#930019;stroke-width:3;stroke-linejoin:round;stroke-miterlimit:10;}
	.st52{fill:#E87C94;}
	.st53{fill:#E64872;}
	.st54{fill:#EBB2B6;}
	.st55{opacity:0.7;fill:none;stroke:#E50F4F;stroke-width:3;stroke-linejoin:round;stroke-miterlimit:10;}
	.st56{opacity:0.6;fill:none;stroke:#E50F4F;stroke-width:3;stroke-linejoin:round;stroke-miterlimit:10;}
	.st57{opacity:0.4;fill:none;stroke:#E50F4F;stroke-width:3;stroke-linejoin:round;stroke-miterlimit:10;}
	.st58{opacity:0.3;fill:none;stroke:#E50F4F;stroke-width:3;stroke-linejoin:round;stroke-miterlimit:10;}
	.st59{opacity:0.2;fill:none;stroke:#E50F4F;stroke-width:3;stroke-linejoin:round;stroke-miterlimit:10;}
	.st60{opacity:0.1;fill:none;stroke:#E50F4F;stroke-width:3;stroke-linejoin:round;stroke-miterlimit:10;}
	.st61{fill:none;stroke:#DABB95;stroke-width:3;stroke-linejoin:round;stroke-miterlimit:10;}
	.st62{fill:#77A45B;stroke:#3D710C;stroke-width:0.9521;stroke-linecap:round;stroke-linejoin:round;stroke-miterlimit:10;}
	.st63{fill:#DABB95;}
	.st64{fill:#E76886;}
	.st65{fill:#E87D94;}
	.st66{fill:#E992A2;}
	.st67{fill:#EBA7AF;}
	.st68{fill:#ECBDBD;}
	.st69{fill:#EDD2CA;}
	.st70{opacity:0.6;fill:#BF71B0;}
	.st71{opacity:0.5;fill:#BF71B0;}
	.st72{opacity:0.4;fill:#BF71B0;}
	.st73{opacity:0.3;fill:#BF71B0;}
	.st74{opacity:0.2;fill:#BF71B0;}
	.st75{fill:#FCD24F;stroke:#BA8822;stroke-width:3;stroke-linejoin:round;stroke-miterlimit:10;}
	.st76{opacity:0.9;fill:none;stroke:#732429;stroke-width:3;stroke-miterlimit:10;}
	.st77{opacity:0.8;fill:none;stroke:#732429;stroke-width:3;stroke-miterlimit:10;}
	.st78{opacity:0.7;fill:none;stroke:#732429;stroke-width:3;stroke-miterlimit:10;}
	.st79{opacity:0.6;fill:none;stroke:#732429;stroke-width:3;stroke-miterlimit:10;}
	.st80{opacity:0.5;fill:none;stroke:#732429;stroke-width:3;stroke-miterlimit:10;}
	.st81{opacity:0.4;fill:none;stroke:#732429;stroke-width:3;stroke-miterlimit:10;}
	.st82{fill:none;stroke:#BA8822;stroke-width:3;stroke-linejoin:round;stroke-miterlimit:10;}
	.st83{fill:#FCD24F;}
	.st84{fill:#BA8822;}
	.st85{fill:#80352F;}
	.st86{fill:#8D4734;}
	.st87{fill:#9B5838;}
	.st88{fill:#A96A3D;}
	.st89{fill:#B77A42;}
	.st90{fill:#C48B47;}
	.st91{fill:#5B774B;}
	.st92{fill:none;stroke:#ECFE78;stroke-linecap:round;stroke-linejoin:round;stroke-miterlimit:10;}
	.st93{fill:none;stroke:#5B774B;stroke-miterlimit:10;}
	.st94{fill:none;stroke:#ECFE78;stroke-linecap:round;stroke-miterlimit:10;}
	.st95{fill:none;stroke:#5B774B;stroke-linejoin:round;stroke-miterlimit:10;}
	.st96{fill:none;stroke:#89A037;stroke-linecap:round;stroke-linejoin:round;stroke-miterlimit:10;}
	.st97{fill:none;stroke:#89A037;stroke-width:3;stroke-linecap:round;stroke-linejoin:round;stroke-miterlimit:10;}
	.st98{fill:none;stroke:#89A037;stroke-width:3.3343;stroke-linecap:round;stroke-linejoin:round;stroke-miterlimit:10;}
	.st99{fill:#F0FDC5;}
	.st100{fill:#839958;}
	.st101{fill:#AA2F66;}
	.st102{fill:#D8CBC5;}
	.st103{fill:#662128;}
	.st104{fill:#BCE680;stroke:#5B774B;stroke-width:3.1491;stroke-miterlimit:10;}
	.st105{fill:#ECE8DB;stroke:#5B3A03;stroke-miterlimit:10;}
	.st106{fill:none;stroke:#00FF00;stroke-miterlimit:10;}
	.st107{fill:none;stroke:#00FF00;stroke-width:1.0757;stroke-miterlimit:10;}
	.st108{clip-path:url(#SVGID_2_);}
	.st109{fill:none;stroke:#000000;stroke-miterlimit:10;}
	.st110{fill:none;stroke:#000000;stroke-width:1.16;stroke-miterlimit:10;}
	.st111{fill:#7AA66D;}
	.st112{fill:#8BC133;}
	.st113{fill:none;stroke:#000000;stroke-width:0.9135;stroke-miterlimit:10;}
	.st114{fill:none;stroke:#000000;stroke-width:5.9645;stroke-miterlimit:10;}
	.st115{fill:none;stroke:#000000;stroke-width:1.9086;stroke-linecap:round;stroke-linejoin:round;stroke-miterlimit:10;}
	.st116{fill:none;stroke:#4D6261;stroke-width:0.9577;stroke-linecap:round;stroke-linejoin:round;stroke-miterlimit:10;}
	.st117{fill:#7AA66D;stroke:#4D6261;stroke-width:0.9577;stroke-miterlimit:10;}
	.st118{fill:none;stroke:#4D6261;stroke-width:0.9577;stroke-miterlimit:10;}
	.st119{fill:#D2DE8F;stroke:#667F40;stroke-width:3;stroke-miterlimit:10;}
	.st120{fill:none;stroke:#FAFAEE;stroke-linecap:round;stroke-miterlimit:10;}
	.st121{fill:#D2DE8F;}
	.st122{fill:none;stroke:#667F40;stroke-width:3;stroke-miterlimit:10;}
	.st123{fill:#77A578;}
	.st124{fill:#719E7F;}
	.st125{fill:#FAFAEE;}
	.st126{fill:#667F40;}
	.st127{fill:#ECE8DB;stroke:#5B3A03;stroke-width:0.9644;stroke-miterlimit:10;}
	.st128{fill:#7AA66D;stroke:#4D6261;stroke-width:3.6;stroke-linecap:round;stroke-linejoin:round;stroke-miterlimit:10;}
	.st129{fill:none;stroke:#D2DE8F;stroke-miterlimit:10;}
	.st130{fill:none;stroke:#4D6261;stroke-width:3.6;stroke-linecap:round;stroke-linejoin:round;stroke-miterlimit:10;}
	.st131{fill:#ECE8DB;stroke:#5B3A03;stroke-linecap:round;stroke-linejoin:round;stroke-miterlimit:10;}
	.st132{fill:#FAD673;}
	.st133{fill:#CE731F;}
	.st134{fill:#D15CD4;}
	.st135{fill:#701975;}
	.st136{fill:#009245;stroke:#006837;stroke-width:3;stroke-miterlimit:10;}
	.st137{fill:#009245;stroke:#006837;stroke-width:3;stroke-linecap:round;stroke-linejoin:round;stroke-miterlimit:10;}
	.st138{fill:none;stroke:#B8CC69;stroke-width:3;stroke-miterlimit:10;}
	.st139{fill:#4E6624;stroke:#314217;stroke-width:3;stroke-miterlimit:10;}
	.st140{fill:none;stroke:#314217;stroke-miterlimit:10;}
	.st141{fill:#4E6624;}
	.st142{fill:#709638;stroke:#3B7000;stroke-width:3;stroke-linecap:round;stroke-linejoin:round;stroke-miterlimit:10;}
	.st143{fill:#709638;stroke:#3B7000;stroke-linecap:round;stroke-linejoin:round;stroke-miterlimit:10;}
	.st144{fill:#92C057;}
	.st145{fill:#3B7000;}
	.st146{fill:#325900;}
	.st147{fill:#2A784B;stroke:#1F4130;stroke-width:3;stroke-miterlimit:10;}
	.st148{fill:none;stroke:#1F4130;stroke-linecap:round;stroke-linejoin:round;stroke-miterlimit:10;}
	.st149{fill:#2A784B;stroke:#1F4130;stroke-miterlimit:10;}
	.st150{fill:#D7D8DA;stroke:#1F4130;stroke-linecap:round;stroke-linejoin:round;stroke-miterlimit:10;}
	.st151{fill:none;stroke:#1F4130;stroke-width:3;stroke-miterlimit:10;}
	.st152{fill:#2A784B;}
	.st153{fill:#1F4130;}
	.st154{fill:#D7D8DA;}
</style>
<path class="st152" d="M365.3,113.4c0-63.6-51.6-96.5-115.2-96.5c-63.6,0-115.2,32.8-115.2,96.5c0,26.8,9.1,67.2,24.5,104.9
	c19.6,48.3,25,101.3,16.4,152.8c-1.9,11.4-2.9,23.3-2.9,35.6c0,41.3,34.6,74.8,77.3,74.8c42.7,0,77.3-33.5,77.3-74.8
	c0-12.3-1-24.3-2.9-35.6c-8.7-51.4-3.3-104.4,16.4-152.8C356.2,180.6,365.3,140.2,365.3,113.4z"/>
<path class="st153" d="M250.1,493.2c-49,0-88.9-38.8-88.9-86.4c0-12.7,1-25.3,3.1-37.6c8.4-49.9,3-100.5-15.7-146.5
	c-15.6-38.5-25.3-80.4-25.3-109.3c0-33.8,13.2-61.9,38.2-81.3c22.6-17.5,53.3-26.8,88.6-26.8s66,9.3,88.6,26.8
	c25,19.4,38.2,47.5,38.2,81.3c0,28.9-9.7,70.8-25.3,109.3c-18.7,45.9-24.1,96.6-15.7,146.5c2.1,12.2,3.1,24.9,3.1,37.6
	C339,454.4,299.1,493.2,250.1,493.2z M250.1,28.6c-29.7,0-56.1,7.8-74.4,21.9c-19.4,15-29.2,36.2-29.2,62.9
	c0,25.7,9.3,65.2,23.6,100.6c20.3,49.9,26.2,104.9,17,159.1c-1.8,11-2.8,22.3-2.8,33.7c0,34.8,29.5,63.2,65.7,63.2
	s65.7-28.3,65.7-63.2c0-11.4-0.9-22.8-2.8-33.7c-9.1-54.1-3.2-109.1,17-159.1c14.4-35.3,23.6-74.8,23.6-100.6
	c0-26.7-9.8-47.9-29.2-62.9C306.2,36.4,279.8,28.6,250.1,28.6z"/>
<path class="st154" d="M194.9,459c-32.3-34.8-11.3-89.6-11.3-89.6c14.4-48.2,20.8-95.9,23.1-137.1c7.3,22.5,15.8,45.4,23.5,64.4
	c9.3,22.9,16,46.7,20,71l0.1,0c-0.3-8.9-1.2-19.7-3-33.7c-7.5-58.4-1.3-127,50-224.1c0,0-20.3,128.1,18.9,259.5l10.3,47.4
	l-22.2,44.5L257,483.5L194.9,459z"/>
<path class="st153" d="M376.9,113.4c0-33.8-13.2-61.9-38.2-81.3c-22.6-17.5-53.3-26.8-88.6-26.8s-66,9.3-88.6,26.8
	c-25,19.4-38.2,47.5-38.2,81.3c0,28.9,9.7,70.8,25.3,109.3c18.7,45.9,24.1,96.6,15.7,146.5c-2.1,12.2-3.1,24.9-3.1,37.6
	c0,47.7,39.9,86.4,88.9,86.4c49,0,88.9-38.8,88.9-86.4c0-12.7-1-25.3-3.1-37.6c-8.4-49.9-3-100.5,15.7-146.5
	C367.2,184.2,376.9,142.3,376.9,113.4z M250.1,28.6c10.6,0,20.8,1,30.4,2.9c1.6,0.3,1.4,2.6-0.1,2.7c-22.1,2.3-39.8,7.3-53.5,15.2
	c-3.7,2.1-8.1,2.6-12.2,1.5c-7.9-2.2-16.4-4.3-25.4-6.1c-1.3-0.3-1.5-2-0.4-2.6C205.7,33.3,226.9,28.6,250.1,28.6z M210.8,58
	c1.3,0.3,1.7,1.9,0.8,2.8c-1.3,1.2-2.5,2.5-3.6,3.8c-11.4,12.8-23,33.3-23,87.5c0,15,4.7,38.1,13.9,68.5c0.3,0.9,0.5,1.8,0.8,2.7
	c2,6.5,2.7,13.3,2.3,20c-1.8,24.7-5.1,51.5-10.7,79c-0.1-37.2-7.3-74-21.2-108.3c-14.4-35.3-23.6-74.8-23.6-100.6
	c0-25.3,8.8-45.6,26.3-60.5c2.1-1.8,4.9-2.4,7.6-1.8L210.8,58z M198.7,446c-9-10.8-14.3-24.5-14.3-39.3c0-11.4,0.9-22.8,2.8-33.7
	c0.3-1.5,0.5-3,0.7-4.5c10.8-36.6,16.9-72.9,20.2-105.4c0.3-2.6,3.9-3.1,4.8-0.6c5.4,15,10.4,27.5,13.7,35.7
	c7.2,17.8,12.9,36.4,16.9,55.3c2.3,10.9,3,22.1,1.9,33.2c-0.5,5.3-1.4,11.3-2.7,17.5c-3.4,16.2-15.6,33.8-31,43.8
	C207.5,450.7,201.9,449.9,198.7,446z M250.1,469.9c-12.1,0-23.5-3.2-33.2-8.7c-2.8-1.6-2.9-5.5-0.2-7.3c4.4-2.9,8.7-6.5,12.7-10.7
	c10.3-10.7,17.9-24.3,20.9-37.4c4.5-19.9,5.7-34.4,0.8-72.4c-5.5-42.9-6-102.4,33.9-190c1.2-2.5,5-1.6,4.8,1.2
	c-0.9,12.6-1.6,28.1-1.7,45.7c-0.1,40,3.1,98.4,18.6,159.4c3.8,15.1,6.7,30.5,8.4,45.9l0.6,5.5c0,1.8,0.1,3.7,0.1,5.5
	C315.8,441.6,286.3,469.9,250.1,469.9z M330.1,214c-12.6,31-19.6,63.9-21,97.4c-0.1,1.7-2.5,1.9-2.8,0.2
	c-19.6-107.2-5.5-200-5.3-201.1c0.3-1.9-0.8-3.7-2.6-4.3c-1.8-0.6-3.8,0.2-4.6,1.9c-38.6,73-55.3,135.4-52.7,198.5
	c0.1,1.6-2.2,2-2.7,0.5c-1.4-4-3-7.9-4.6-11.9c-18.9-46.6-41-112-41-143.2c0-41.1,6.3-65.7,21-82.4c15.4-17.4,40.9-26.7,79.6-28.7
	c11.1-0.6,22.1,2.6,30.9,9.4c0,0,0.1,0.1,0.1,0.1c19.4,15,29.2,36.2,29.2,62.9C353.7,139.1,344.4,178.6,330.1,214z"/>
<g>
	<path class="st44" d="M224,109.2c-0.7,0-1.4-0.2-2-0.6c-1.9-1.1-2.5-3.6-1.4-5.5c3-5.1,6.5-9.9,10.4-14.3
		c9.5-10.7,21.1-18.9,34.6-24.3c2-0.8,4.4,0.2,5.2,2.2c0.8,2.1-0.2,4.4-2.2,5.2c-12.3,4.9-22.9,12.4-31.6,22.2
		c-3.5,4-6.7,8.4-9.5,13.1C226.7,108.5,225.3,109.2,224,109.2z"/>
</g>
<circle class="st44" cx="215.2" cy="126.7" r="4"/>
<circle class="st44" cx="172.9" cy="75.6" r="4"/>
<g>
	<path class="st44" d="M162.5,122.5c-2.2,0-4-1.8-4-4c0-9,1.3-17.3,3.9-24.8c0.7-2.1,3-3.2,5.1-2.5c2.1,0.7,3.2,3,2.5,5.1
		c-2.3,6.7-3.5,14.2-3.5,22.2C166.5,120.7,164.7,122.5,162.5,122.5z"/>
</g>
</svg>
