<?xml version="1.0" encoding="utf-8"?>
<!-- Generator: Adobe Illustrator 20.0.0, SVG Export Plug-In . SVG Version: 6.00 Build 0)  -->
<svg version="1.1" id="Layer_1" xmlns="http://www.w3.org/2000/svg" xmlns:xlink="http://www.w3.org/1999/xlink" x="0px" y="0px"
	 viewBox="0 0 250 250" style="enable-background:new 0 0 250 250;" xml:space="preserve">
<style type="text/css">
	.st0{fill:#BFCC5C;}
	.st1{fill:#FFE200;}
	.st2{fill:#DDAA00;}
	.st3{fill:#FFF2B3;}
	.st4{fill:#406A29;}
	.st5{fill:#00FFFF;}
	.st6{clip-path:url(#SVGID_2_);}
	.st7{fill:none;stroke:#CC9600;stroke-width:6;stroke-linecap:round;stroke-miterlimit:10;}
	.st8{fill:none;stroke:#FFF2B3;stroke-linecap:round;stroke-miterlimit:10;}
	.st9{fill:none;stroke:#DDAA00;stroke-linecap:round;stroke-miterlimit:10;}
	.st10{fill:#FFE966;}
	.st11{fill:#FFE200;stroke:#DDAA00;stroke-width:3;stroke-linecap:round;stroke-miterlimit:10;}
	.st12{fill:#BFCC5C;stroke:#406A29;stroke-linecap:round;stroke-miterlimit:10;}
	.st13{fill:none;stroke:#A9B236;stroke-linecap:round;stroke-miterlimit:10;}
	.st14{fill:none;stroke:#406A29;stroke-linecap:round;stroke-miterlimit:10;}
	.st15{fill:#CC9600;}
	.st16{fill:#A9B236;}
	.st17{fill:#7CAB09;}
	.st18{fill:#4E670C;}
	.st19{fill:none;stroke:#C0CC8F;stroke-linecap:round;stroke-miterlimit:10;}
	.st20{fill:#7D8AD7;stroke:#4648A6;stroke-width:3;stroke-miterlimit:10;}
	.st21{opacity:0.6;fill:none;stroke:#CDD6FF;stroke-width:3;stroke-miterlimit:10;}
	.st22{opacity:0.4;fill:none;stroke:#CDD6FF;stroke-width:3;stroke-miterlimit:10;}
	.st23{opacity:0.2;fill:none;stroke:#CDD6FF;stroke-width:3;stroke-miterlimit:10;}
	.st24{fill:#7CAB09;stroke:#76990A;stroke-linecap:round;stroke-miterlimit:10;}
	.st25{fill:none;stroke:#A598D8;stroke-linecap:round;stroke-miterlimit:10;}
	.st26{fill:none;stroke:#2B2A6F;stroke-width:3;stroke-miterlimit:10;}
	.st27{fill:none;stroke:#8A6EDA;stroke-linecap:round;stroke-miterlimit:10;}
	.st28{fill:#E4E5E7;stroke:#2B2A6F;stroke-miterlimit:10;}
	.st29{fill:none;stroke:#C2807D;stroke-linecap:round;stroke-linejoin:round;stroke-miterlimit:10;}
	.st30{fill:#C2807D;stroke:#7C152E;stroke-miterlimit:10;}
	.st31{fill:#E4E5E7;}
	.st32{fill:#A598D8;}
	.st33{fill:#C0CC8F;}
	.st34{fill:#7D8AD7;}
	.st35{fill:#AEB9ED;}
	.st36{fill:#9EA9E5;}
	.st37{fill:#8E9ADD;}
	.st38{fill:#76990A;}
	.st39{fill:#8A6EDA;}
	.st40{fill:#2B2A6F;}
	.st41{fill:#C2807D;}
	.st42{fill:#7C152E;}
</style>
<g>
	<path class="st17" d="M104.3,207.1c-6.2,0-7.6-7.2-8.5-11.6c-0.8-4-1.5-9.4-2.2-16.1c-1.2-12-2-25.2-2-30.6c0-14.2,0.7-27.7,2-37.8
		c1.4-10.8,3.3-20.5,10.7-20.5s9.3,9.7,10.7,20.5c1.3,10.1,2,23.6,2,37.8c0,5.4-0.8,18.6-2,30.6c-0.7,6.7-1.5,12.2-2.2,16.1
		C112,199.9,110.5,207.1,104.3,207.1z"/>
	<path class="st18" d="M110.7,159.5c-1,16.1-3.4,41.6-6.4,41.6c-2.9,0-5.3-24.5-6.3-40.6c-2.7,4.3-6.7,7.9-11.2,10.3
		c0.3,3.1,0.5,6.2,0.9,9.2c0.7,6.9,1.5,12.5,2.3,16.7c0.6,2.9,1.1,5,1.8,6.8c0.6,1.6,1.3,3,2.2,4.2c2.5,3.4,6.2,5.3,10.3,5.3
		c2.1,0,9.2-0.7,12.5-9.5c0.7-1.8,1.2-3.9,1.8-6.8c0.8-4.2,1.6-9.8,2.3-16.7c0.3-2.6,0.5-5.3,0.7-7.9
		C116.9,169.2,113.1,164.8,110.7,159.5z"/>
	<path class="st17" d="M20.5,145.7c-5.6,0-7.7-2.6-8.4-4.8c-2-5.9,4.5-9.5,8.3-11.7c3.5-2,8.4-4.4,14.6-7.2c11-5,23.3-9.9,28.4-11.6
		c21.2-7,40.6-11.6,49.6-11.6c5.4,0,8.7,1.8,9.8,5.3c2.3,7.1-6.3,11.9-16.1,16.6c-9.2,4.4-21.7,9.4-35.2,13.8
		C63.2,137.4,31,145.7,20.5,145.7z"/>
	<path class="st18" d="M17.8,139c-0.9-2.7,21.2-12.6,36.2-18.6c-5.7-0.8-10.6-3.2-14.6-6.8c-2.3,1-4.6,2-6.8,3
		c-6.3,2.9-11.4,5.4-15.1,7.5c-2.5,1.4-4.4,2.7-5.9,3.9c-1.4,1.1-2.4,2.2-3.3,3.4c-2.4,3.4-3.1,7.6-1.8,11.5c0.9,2.7,4,8.9,14.1,8.9
		c6.6,0,19.4-2.6,30.9-5.4c0.9-5.4,3.7-10.3,7.6-14.2c-12.7,3.4-31.5,7.7-38.5,7.7C18.9,139.8,17.9,139.5,17.8,139z"/>
	<path class="st17" d="M111.3,127.6c-2.8,0-6.7-1-17.7-13c-6.7-7.4-14.7-17.4-22.5-28.3C67.9,82,60.8,70.7,54.8,60.3
		c-3.4-5.9-5.9-10.7-7.6-14.4c-1.8-4-4.9-10.7,0.2-14.3c1.1-0.8,2.4-1.2,3.8-1.2c5.6,0,13.8,9.3,21.8,18.4
		c7.7,8.8,15.8,18.7,18.7,22.8c8.3,11.6,15.5,22.9,20.4,31.9c5.2,9.6,9.3,18.6,3.3,22.9C114.2,127.2,112.8,127.6,111.3,127.6z"/>
	<path class="st18" d="M79.3,65.2c-9.8-12-24.8-29-28-29c-0.1,0-0.3,0-0.4,0.1c-2.4,1.7,10.7,24.2,19.3,37.8l-16.4-4
		c-1.4-2.3-2.7-4.7-4.1-7c-3.5-6-6.1-11.1-7.8-14.9c-1.2-2.7-2-4.7-2.5-6.6c-2.5-9.1,2.9-13.8,4.6-15.1c2.1-1.5,4.7-2.3,7.3-2.3
		c5.3,0,9.5,3,14.9,8.3c3.1,3,6.9,7.1,11.4,12.1c1.4,1.6,2.7,3.1,4.1,4.7L79.3,65.2z"/>
	<path class="st17" d="M96.3,127.2c-1.6,0-3.1-0.5-4.3-1.4c-5.9-4.5-1.6-13.4,3.8-22.8c5.1-8.9,12.5-20,21.1-31.4
		c3.1-4.1,11.3-13.8,19.2-22.3c16.5-17.9,19.5-17.9,22.1-17.9c1.5,0,2.8,0.5,4,1.3c5,3.7,1.7,10.4-0.2,14.3
		c-1.8,3.6-4.4,8.4-7.9,14.2c-6.2,10.3-13.6,21.4-16.8,25.7c-8,10.6-16.2,20.5-23.1,27.7C103,126.2,99.1,127.2,96.3,127.2z"/>
	<path class="st18" d="M128.9,66.3c10-11.8,25.9-29.1,29.3-29.1c0.2,0,0.3,0,0.4,0.1c2.2,1.7-9.6,21.2-18.4,34.7l15.6-2.3
		c1.2-1.9,2.3-3.7,3.4-5.6c3.6-6,6.3-10.9,8.2-14.7c1.3-2.6,2.1-4.7,2.6-6.5c0.5-1.7,0.7-3.2,0.8-4.7c0.1-4.2-1.8-8-5-10.5
		c-2.2-1.6-4.8-2.5-7.6-2.5h0c-5.8,0-10.7,2.8-26.5,19.8c-1.5,1.7-3.1,3.3-4.6,5L128.9,66.3z"/>
	<path class="st17" d="M231.3,242c-4.2,0-8.1-2.2-10.3-5.9c-28.6-48.5-67.7-84.4-95.8-106c-10.7-3.9-20.2-7.9-27-11.4
		c-6-3.1-15.1-7.8-12.7-14.9c1-3,3.5-4.7,7.5-5.2c0.3-1.2,0.7-2.4,1.4-3.5c2.1-3.6,6.1-5.8,10.2-5.8c2.1,0,4.2,0.6,6.1,1.7
		c1,0.6,9.7,5.8,22.9,15.5c3.8,1.1,7.6,2.3,11.3,3.5c5.1,1.7,17.5,6.6,28.5,11.5c6.2,2.8,11.1,5.2,14.6,7.2
		c3.8,2.2,10.3,5.8,8.3,11.7c-0.7,2.2-2.8,4.8-8.4,4.8c-2.5,0-6-0.4-10-1.1c25.6,24.8,47,51.6,63.7,80c1.6,2.7,2.1,5.9,1.3,9
		c-0.8,3.1-2.7,5.7-5.5,7.3C235.5,241.4,233.4,242,231.3,242z"/>
	<path class="st33" d="M230.1,232.2c-0.7,0-1.3-0.3-1.7-1c-2.9-4.9-6-9.8-9.2-14.7c-0.6-0.9-0.4-2.1,0.6-2.8
		c0.9-0.6,2.1-0.4,2.8,0.6c3.3,4.9,6.4,9.9,9.3,14.9c0.6,0.9,0.2,2.2-0.7,2.7C230.8,232.1,230.5,232.2,230.1,232.2z"/>
	<path class="st33" d="M211.9,204.7c-0.6,0-1.2-0.3-1.6-0.8c-1.4-1.9-2.8-3.7-4.2-5.6c-0.7-0.9-0.5-2.1,0.4-2.8
		c0.9-0.7,2.1-0.5,2.8,0.4c1.4,1.9,2.8,3.8,4.2,5.6c0.6,0.9,0.5,2.1-0.4,2.8C212.8,204.5,212.3,204.7,211.9,204.7z"/>
	<path class="st33" d="M202.4,192.2c-0.6,0-1.2-0.3-1.5-0.7c-0.5-0.6-1-1.3-1.5-1.9c-0.7-0.9-0.6-2.1,0.3-2.8
		c0.8-0.7,2.1-0.6,2.8,0.3c0.5,0.6,1,1.3,1.5,1.9c0.7,0.9,0.6,2.1-0.3,2.8C203.2,192.1,202.8,192.2,202.4,192.2z"/>
	<path class="st33" d="M181.6,168.5c-0.5,0-1.1-0.2-1.4-0.6c-3.3-3.5-6.8-7-10.2-10.4c-0.8-0.8-0.8-2,0-2.8c0.8-0.8,2-0.8,2.8,0
		c3.5,3.5,7,7,10.3,10.5c0.8,0.8,0.7,2.1-0.1,2.8C182.6,168.3,182.1,168.5,181.6,168.5z"/>
	<path class="st18" d="M159.3,167.7c19.6,19.2,39.9,43.1,56.5,71.4c3.2,5.4,9.1,8.8,15.4,8.8c3.2,0,6.3-0.9,9.1-2.5
		c8.5-5,11.3-16,6.3-24.5c-13.6-23-30.1-45-49.5-65.8c-2-2.1-1.6-5.4,0.6-7.2c2.5-2,3.6-4.4,4.1-5.9c0.7-2,2.2-8.9-5.1-14.9
		c-1.5-1.2-3.4-2.4-5.9-3.9c-3.7-2.1-8.8-4.6-15.1-7.4c-2.6-1.2-5.3-2.3-7.9-3.4c-4.3,3.6-9.5,6-15,6.7c15,6,38.7,16.4,37.8,19.2
		c-0.2,0.5-1.2,0.7-2.8,0.7c-4.5,0-13.9-1.8-23.5-4c-4.5-1-9-2.1-13.1-3.2c1.4,1.5,2.6,3.2,3.7,5c0.5,0.1,1,0.2,1.5,0.4
		c5.2,1.3,9.9,3.9,13.8,7.5c22.1,21,46.4,48.5,66.2,82.1c1.7,2.8,0.7,6.5-2.1,8.2c-1,0.6-2,0.8-3,0.8c-2,0-4-1-5.1-2.9
		c-20.2-34.3-45.6-62.3-68.2-83.1L159.3,167.7z"/>
	<path class="st34" d="M116,37.5c0-0.1-0.1-0.1-0.1-0.2c-6.4-7.3-9.7-16.9-9.7-26.7V9.8c0-1-0.8-1.8-1.8-1.8c-1,0-1.8,0.8-1.8,1.8v1
		c0,8.7-2.5,17.4-7.9,24.3c-0.6,0.8-1.3,1.7-2,2.5c-4.2,4.7-9.4,13-9.4,25c0,19.9,10.1,30.4,10.1,30.4h21.8c0,0,10.1-10.5,10.1-30.4
		C125.4,50.5,120.2,42.2,116,37.5z"/>
	<path class="st34" d="M38.8,76.7c-0.1,0-0.1,0.1-0.2,0.1c-9,3.9-19.1,4-28.4,1l-0.8-0.3c-0.9-0.3-1.9,0.2-2.2,1.1s0.2,1.9,1.1,2.2
		l0.9,0.3c8.3,2.7,15.7,7.8,20.7,15c0.6,0.9,1.2,1.8,1.7,2.7c3.2,5.4,9.5,13,20.9,16.7c18.9,6.1,32.1-0.2,32.1-0.2l6.7-20.7
		c0,0-6.9-12.9-25.8-19C54.1,71.8,44.5,74.2,38.8,76.7z"/>
	<path class="st34" d="M52.2,162.3c0,0.1,0,0.1,0,0.2c0.9,9.7-2.1,19.4-7.8,27.3l-0.5,0.7c-0.6,0.8-0.4,1.9,0.4,2.4
		c0.8,0.6,1.9,0.4,2.4-0.4l0.6-0.8c5.1-7.1,12.3-12.6,20.6-15c1-0.3,2-0.6,3.1-0.8c6.1-1.4,15.3-5,22.3-14.7
		c11.7-16.1,9.7-30.6,9.7-30.6l-17.6-12.8c0,0-14.4,2.6-26.1,18.6C52.3,146.2,51.6,156,52.2,162.3z"/>
	<path class="st34" d="M137.8,175.9c0.1,0,0.1,0,0.2,0c9.5,2.2,17.8,8,23.6,15.9l0.5,0.7c0.6,0.8,1.7,1,2.4,0.4
		c0.8-0.6,1-1.7,0.4-2.4l-0.6-0.8c-5.1-7.1-8.2-15.6-7.9-24.3c0-1.1,0.1-2.1,0.2-3.2c0.6-6.3,0-16-7.1-25.7
		c-11.7-16.1-26.1-18.6-26.1-18.6l-17.6,12.8c0,0-2,14.5,9.7,30.6C122.5,170.9,131.6,174.6,137.8,175.9z"/>
	<path class="st34" d="M177.2,98.7c0-0.1,0.1-0.1,0.1-0.2c5-8.4,13.1-14.5,22.4-17.5l0.8-0.3c0.9-0.3,1.4-1.3,1.1-2.2
		c-0.3-0.9-1.3-1.4-2.2-1.1l-0.9,0.3c-8.3,2.7-17.3,2.9-25.5,0c-1-0.4-2-0.7-3-1.2c-5.8-2.5-15.3-4.9-26.7-1.2
		c-18.9,6.1-25.8,19-25.8,19l6.7,20.7c0,0,13.1,6.4,32.1,0.2C167.7,111.7,174,104.1,177.2,98.7z"/>
	<rect x="88.4" y="76.4" class="st35" width="31.7" height="11.1"/>
	<rect x="86.1" y="65.8" class="st36" width="36.3" height="11.1"/>
	<rect x="86.1" y="55.3" class="st37" width="36.3" height="11.1"/>
	<path class="st38" d="M106.3,148v25.3c0,1.1-0.9,2-2,2c-1.1,0-2-0.9-2-2v-25.1L106.3,148z"/>
	<path class="st33" d="M66.4,121.1l-22.3,7.5c-1,0.3-1.6,1.5-1.3,2.5c0.3,0.8,1.1,1.4,1.9,1.4c0.2,0,0.4,0,0.6-0.1l22.3-7.5
		C67.1,123.7,66.7,122.4,66.4,121.1z"/>
	<path class="st33" d="M81.9,76.5L72.8,64c-0.6-0.9-1.9-1.1-2.8-0.4c-0.9,0.6-1.1,1.9-0.4,2.8l9.3,12.7
		C79.8,78.2,80.9,77.3,81.9,76.5z"/>
	<line class="st17" x1="141.4" y1="59.8" x2="104.4" y2="110.3"/>
	<path class="st38" d="M142.6,58.2c-0.9-0.6-2.1-0.5-2.8,0.4l-14.9,20.3c1.1,0.7,2.2,1.5,3.2,2.4L143,61
		C143.6,60.1,143.5,58.8,142.6,58.2z"/>
	<line class="st17" x1="164" y1="129.9" x2="104.5" y2="110.5"/>
	<path class="st38" d="M164.6,128.1l-22.5-7.3c-0.1,1.3-0.4,2.7-0.8,3.9l22,7.2c0.2,0.1,0.4,0.1,0.6,0.1c0.8,0,1.6-0.5,1.9-1.4
		C166.2,129.5,165.7,128.4,164.6,128.1z"/>
	
		<rect x="61.4" y="96.2" transform="matrix(0.3091 -0.951 0.951 0.3091 -43.3188 143.7506)" class="st35" width="31.7" height="11.1"/>
	
		<rect x="49.1" y="92.9" transform="matrix(0.3091 -0.951 0.951 0.3091 -47.1415 131.9846)" class="st36" width="36.3" height="11.1"/>
	
		<rect x="39.1" y="89.6" transform="matrix(0.3091 -0.951 0.951 0.3091 -50.9645 120.2181)" class="st37" width="36.3" height="11.1"/>
	<path class="st32" d="M106.2,86.1v-33c0-1.1-0.9-2-2-2s-2,0.9-2,2v33L106.2,86.1z"/>
	
		<rect x="82.4" y="117.6" transform="matrix(0.5878 -0.809 0.809 0.5878 -71.6751 126.1779)" class="st35" width="11.1" height="31.7"/>
	
		<rect x="76.3" y="123.8" transform="matrix(0.5878 -0.809 0.809 0.5878 -81.1133 124.6828)" class="st36" width="11.1" height="36.3"/>
	
		<rect x="70.1" y="132.3" transform="matrix(0.5878 -0.809 0.809 0.5878 -90.5515 123.1878)" class="st37" width="11.1" height="36.3"/>
	
		<rect x="105.5" y="127.7" transform="matrix(0.8091 -0.5877 0.5877 0.8091 -55.125 96.7853)" class="st35" width="31.7" height="11.1"/>
	
		<rect x="109.5" y="136.2" transform="matrix(0.8091 -0.5877 0.5877 0.8091 -58.948 102.0465)" class="st36" width="36.3" height="11.1"/>
	
		<rect x="115.6" y="144.7" transform="matrix(0.8091 -0.5877 0.5877 0.8091 -62.7709 107.3081)" class="st37" width="36.3" height="11.1"/>
	
		<rect x="125.6" y="85.2" transform="matrix(0.9511 -0.309 0.309 0.9511 -24.8073 45.469)" class="st35" width="11.1" height="31.7"/>
	
		<rect x="135.6" y="79.7" transform="matrix(0.9511 -0.309 0.309 0.9511 -23.313 48.404)" class="st36" width="11.1" height="36.3"/>
	
		<rect x="145.6" y="76.4" transform="matrix(0.9511 -0.309 0.309 0.9511 -21.8179 51.3372)" class="st37" width="11.1" height="36.3"/>
	<path class="st39" d="M168.2,88.1c-0.3-1-1.5-1.6-2.5-1.3l-39.6,13.3c0.6,1.2,1,2.4,1.4,3.7l39.4-13.2
		C168,90.2,168.5,89.1,168.2,88.1z"/>
	<path class="st39" d="M144.2,161.4l-23.8-33c-1,0.9-2.1,1.7-3.2,2.4l23.8,32.9c0.4,0.5,1,0.8,1.6,0.8c0.4,0,0.8-0.1,1.2-0.4
		C144.6,163.5,144.8,162.2,144.2,161.4z"/>
	<path class="st39" d="M88.3,128.4l-23.7,33.2c-0.6,0.9-0.4,2.1,0.5,2.8c0.4,0.2,0.8,0.4,1.2,0.4c0.6,0,1.2-0.3,1.6-0.8l23.6-33.1
		C90.4,130.1,89.3,129.3,88.3,128.4z"/>
	<path class="st32" d="M82.1,100.3l-30.8-9.9c-1-0.3-2.2,0.2-2.5,1.3c-0.3,1,0.2,2.2,1.3,2.5l30.6,9.8
		C81.1,102.8,81.5,101.5,82.1,100.3z"/>
	<circle class="st31" cx="104.4" cy="110.2" r="22.9"/>
	<path class="st40" d="M207.1,76.5c-1.3-4-5.7-6.3-9.7-4.9l-0.9,0.3c-7.4,2.4-15.1,2.4-21.7,0.1c-0.9-0.3-1.7-0.6-2.6-1
		c-6.9-3-17.8-5.7-30.9-1.4c-1.8,0.6-3.6,1.3-5.2,2c-2.5,1.1-5.2-0.9-5-3.6c0.2-1.7,0.2-3.5,0.2-5.4c0-13.7-5.9-23.3-10.9-28.9
		l-0.1-0.1c-5.3-6.1-8.3-14.2-8.3-22.8V10c0-3.9-2.8-7.4-6.7-7.9c-4.7-0.6-8.7,3.1-8.7,7.6v1c0,7.8-2.4,15.1-6.6,20.7
		c-0.6,0.7-1.2,1.5-1.8,2.1c-5,5.6-10.9,15.2-10.9,28.9c0,2,0.1,4,0.3,5.8c0.3,2.7-2.5,4.7-5,3.6c-1.7-0.7-3.6-1.4-5.5-2.1
		c-13.1-4.2-24-1.6-30.9,1.4l-0.2,0.1c-7.4,3.2-16,3.5-24.2,0.8l-0.8-0.3c-4-1.3-8.4,0.9-9.7,5c-1.3,4,0.9,8.4,5,9.7l0.9,0.3
		c7.4,2.4,13.6,6.9,17.6,12.7c0.5,0.8,1,1.5,1.5,2.3c3.8,6.5,11.1,15.1,24.2,19.3c2,0.6,3.9,1.2,5.8,1.6c2.7,0.6,3.7,3.8,1.9,5.9
		c-1.2,1.4-2.4,2.9-3.6,4.5c-8.1,11.1-8.9,22.3-8.2,29.8l0,0.2c0.7,8-1.6,16.3-6.7,23.3l-0.3,0.4c-2.5,3.4-1.9,8.5,1.5,11
		c1.3,1,2.9,1.5,4.6,1.5c0.5,0,1,0,1.4-0.1c2-0.4,3.8-1.6,5-3.3l0.4-0.5c4.6-6.3,10.8-10.8,17.5-12.8c0.9-0.3,1.8-0.5,2.7-0.7
		c7.3-1.6,17.8-5.9,25.8-17c1.2-1.6,2.2-3.3,3.2-4.9c1.4-2.4,4.8-2.4,6.2,0c0.9,1.6,2,3.2,3.2,4.8c8.1,11.1,18.5,15.4,25.8,17l0.2,0
		c7.9,1.8,15,6.6,20.1,13.6l0.5,0.7c1.5,2.1,3.9,3.2,6.2,3.2c1.6,0,3.2-0.5,4.5-1.5c1.8-1.3,2.9-3.3,3.2-5.5
		c0.2-1.9-0.5-3.9-1.6-5.5l-0.4-0.6c-4.6-6.3-7-13.6-6.8-20.6c0-0.9,0.1-1.8,0.2-2.8c0.7-7.5-0.1-18.7-8.2-29.8
		c-1.3-1.8-2.6-3.4-3.9-4.8c-1.8-2-0.8-5.3,1.9-5.9c1.8-0.4,3.7-0.9,5.6-1.5c13.1-4.2,20.3-12.8,24.1-19.3l0.1-0.2
		c4.1-6.9,10.9-12.2,19.1-14.9l0.8-0.3C206.2,84.9,208.5,80.6,207.1,76.5z M104.4,89.3c11.5,0,20.9,9.4,20.9,20.9
		s-9.4,20.9-20.9,20.9s-20.9-9.4-20.9-20.9S92.8,89.3,104.4,89.3z M97.2,41.4c0.8-0.9,1.6-1.8,2.3-2.8c0.5-0.7,1-1.4,1.5-2.1
		c1.6-2.4,5.2-2.4,6.8,0c1.1,1.6,2.3,3.2,3.6,4.7l0.2,0.2c3.6,4.1,7.9,11,7.9,21c0,9.5-2.5,16.5-4.9,20.9c-1,2-3.2,2.9-5.4,2.5
		c-1.6-0.3-3.2-0.5-4.8-0.5c-1.6,0-3.2,0.2-4.8,0.5c-2.2,0.4-4.4-0.5-5.4-2.5c-2.3-4.4-4.9-11.4-4.9-20.8
		C89.3,52.5,93.6,45.5,97.2,41.4z M79.7,107.3c-0.3,2.2-1.9,4-4.1,4.3c-4.9,0.9-12.4,1.2-21.5-1.8c-9.5-3.1-14.8-9.3-17.6-14
		c-0.6-1-1.3-2.1-1.9-3c-0.5-0.7-1-1.4-1.5-2.1c-1.8-2.3-0.6-5.7,2.2-6.5c1.9-0.5,3.7-1.2,5.5-1.9l0.2-0.1c5-2.2,12.9-4.1,22.5-1
		c9.1,3,15,7.6,18.4,11.1c1.5,1.6,1.8,3.9,0.7,5.8c-0.7,1.3-1.4,2.6-1.8,4.1C80.2,104.1,79.9,105.9,79.7,107.3z M88.6,157.9
		c-5.9,8.1-13.5,11.2-18.8,12.4c-1.2,0.3-2.3,0.6-3.5,0.9c-0.8,0.2-1.7,0.5-2.5,0.8c-2.7,1-5.6-1.1-5.5-4c0.1-2,0-4-0.1-6l0-0.1
		c-0.5-5.4,0.1-13.6,6-21.7c5.6-7.7,11.8-11.9,16.2-14c2-1,4.3-0.5,5.8,1.1c2.2,2.3,4.8,4.3,7.8,5.6c2,0.9,3.2,3,2.9,5.2
		C96.3,142.9,94.3,150.2,88.6,157.9z M150.8,161.8c-0.1,1.2-0.2,2.4-0.2,3.6c0,0.9,0,1.7,0,2.6c0.1,2.9-2.8,5-5.5,4
		c-1.8-0.7-3.7-1.3-5.7-1.7l-0.2,0c-5.3-1.2-12.9-4.3-18.8-12.4c-5.7-7.8-7.7-15.1-8.4-20c-0.3-2.2,0.9-4.2,2.9-5.1
		c2.9-1.4,5.5-3.3,7.6-5.6c1.5-1.6,3.8-2.1,5.8-1.2c4.5,2.2,10.8,6.4,16.4,14.1C150.7,148.2,151.3,156.4,150.8,161.8z M127.8,101.9
		c-0.4-1.5-1.1-2.8-1.9-4.1c-1.1-1.9-0.8-4.3,0.7-5.9c3.5-3.5,9.3-8.1,18.3-11c9.5-3.1,17.5-1.2,22.5,1c1.1,0.5,2.2,0.9,3.3,1.3
		c0.8,0.3,1.6,0.6,2.5,0.8c2.8,0.8,3.9,4.2,2.1,6.5c-1.2,1.5-2.3,3.1-3.3,4.8l-0.1,0.2c-2.8,4.7-8.1,10.9-17.6,14
		c-9.1,2.9-16.5,2.7-21.4,1.8c-2.1-0.4-3.8-2.1-4.1-4.2C128.7,105.6,128.4,103.8,127.8,101.9z"/>
	<path class="st41" d="M101,96.7c-0.6,0-1.1-0.2-1.5-0.7c-0.7-0.8-0.6-2,0.2-2.8c1.3-1.3,3.1-2.7,4.6-2.7c1.6,0,3.5,1.7,4.6,2.7
		c0.7,0.7,0.9,1.8,0.3,2.6c-0.7,1-2.2,1.1-3,0.2c-0.3-0.3-0.6-0.6-0.9-0.8c-0.6-0.5-1.4-0.5-2,0c-0.3,0.2-0.6,0.5-0.9,0.8
		C102,96.5,101.5,96.7,101,96.7z"/>
	<path class="st41" d="M119.9,110.2c-0.4,0-0.8-0.1-1.2-0.4c-0.8-0.6-1-1.7-0.6-2.5c0.2-0.5,0.4-0.9,0.5-1.3c0.2-0.5,0-1.1-0.5-1.4
		c-0.3-0.2-0.8-0.5-1.2-0.7c-0.8-0.4-1.3-1.3-1.2-2.1c0.3-1.4,1.7-2,2.8-1.5c2.4,1.2,3.8,2.3,4.2,3.5c0.5,1.5-0.5,4-1.1,5.3
		C121.4,109.8,120.7,110.2,119.9,110.2z M119.2,105.3"/>
	<path class="st41" d="M113.1,126.1c-0.4,0-0.8,0-1.2,0c-1.1-0.1-2.1-1-2-2.1c0.1-1.1,1-1.9,2.1-1.8c0.4,0,0.8,0,1.2,0
		c0.8,0,1.4-0.6,1.5-1.3c0.1-0.4,0.1-0.7,0.1-1.2c0.1-1.2,1.2-2.1,2.4-1.8c1,0.2,1.6,1.2,1.6,2.2c-0.1,1.8-0.5,4.1-1.7,5.1
		C116.2,125.9,114.5,126.1,113.1,126.1z"/>
	<path class="st41" d="M95.5,126.7c-1.4,0-2.4-0.2-3.1-0.7c-1.3-0.9-1.8-3.4-2-4.9c-0.1-1,0.4-2,1.3-2.3c1.2-0.4,2.4,0.4,2.6,1.6
		c0.1,0.4,0.1,0.8,0.2,1.2c0.2,0.7,0.8,1.2,1.6,1.2c0.3,0,0.7-0.1,1.1-0.1c1.1-0.1,2.2,0.6,2.3,1.7c0.1,1.1-0.6,2.1-1.7,2.2
		C96.9,126.6,96.2,126.7,95.5,126.7z"/>
	<path class="st41" d="M88.5,110.2c-0.7,0-1.4-0.4-1.8-1.1c-0.8-1.6-1.6-3.9-1.1-5.3c0.5-1.5,2.7-2.8,4.1-3.5c0.9-0.4,2-0.2,2.6,0.6
		c0.7,1,0.3,2.4-0.8,2.9c-0.4,0.2-0.7,0.4-1,0.6c-0.6,0.4-0.9,1.2-0.7,1.9c0.1,0.3,0.3,0.7,0.5,1c0.4,0.7,0.3,1.6-0.3,2.2
		C89.6,110,89.1,110.2,88.5,110.2z"/>
	<path class="st41" d="M102,119.3l-1.7-3.4l-3.8-0.6c-2.2-0.3-3-3-1.5-4.5l2.7-2.7l-0.6-3.8c-0.4-2.2,1.9-3.8,3.8-2.8l3.4,1.8
		l3.4-1.8c1.9-1,4.2,0.6,3.8,2.8l-0.6,3.8l2.7,2.7c1.6,1.5,0.7,4.2-1.5,4.5l-3.8,0.6l-1.7,3.4C105.8,121.3,103,121.3,102,119.3z"/>
	<path class="st42" d="M100.2,120.2C100.2,120.2,100.2,120.2,100.2,120.2l-0.6-1.3c-0.4-0.7-1.1-1.3-1.9-1.4l-1.3-0.2
		c-1.6-0.2-3-1.2-3.7-2.6c-0.9-1.8-0.5-3.9,0.9-5.3l1-1c0.6-0.6,0.9-1.5,0.7-2.3l-0.2-1.2c-0.3-1.6,0.2-3.2,1.3-4.3
		c1.5-1.4,3.6-1.7,5.4-0.7l1.3,0.7c0.7,0.4,1.6,0.4,2.3,0l1.2-0.6c1.4-0.7,3.1-0.8,4.5-0.1c1.8,1,2.7,2.9,2.4,4.9l-0.2,1.4
		c-0.1,0.8,0.1,1.6,0.7,2.2l0.9,0.9c1.1,1.1,1.7,2.7,1.4,4.3c-0.4,2-1.9,3.5-3.9,3.8l-1.5,0.2c-0.8,0.1-1.5,0.6-1.9,1.4l-0.6,1.3
		c-0.8,1.6-2.4,2.6-4.2,2.6C102.5,122.8,101,122.2,100.2,120.2z M103.8,118.5c0.2,0.3,0.4,0.4,0.6,0.4c0.2,0,0.4,0,0.6-0.4l1.6-3.2
		c0.4-0.7,1.1-1.3,1.9-1.4l3.5-0.5c0.4-0.1,0.5-0.3,0.5-0.5c0-0.1,0.1-0.4-0.2-0.7l-2.5-2.5c-0.6-0.6-0.9-1.4-0.7-2.2l0.6-3.5
		c0.1-0.4-0.1-0.6-0.3-0.6c-0.1-0.1-0.4-0.2-0.7-0.1l-3.1,1.7c-0.7,0.4-1.6,0.4-2.3,0l-3.1-1.7c-0.3-0.2-0.6,0-0.7,0.1
		c-0.1,0.1-0.3,0.3-0.3,0.6l0.6,3.5c0.1,0.8-0.1,1.7-0.7,2.3l-2.5,2.4c-0.3,0.3-0.2,0.5-0.2,0.7c0,0.1,0.2,0.4,0.5,0.5l3.5,0.5
		c0.8,0.1,1.5,0.6,1.9,1.4L103.8,118.5z"/>
	<circle class="st31" cx="104.4" cy="110.5" r="2.8"/>
	<circle class="st32" cx="44" cy="90.3" r="2"/>
	<circle class="st32" cx="104.2" cy="46.2" r="2"/>
	<circle class="st33" cx="67.2" cy="60" r="2"/>
</g>
</svg>
