<?xml version="1.0" encoding="utf-8"?>
<!-- Generator: Adobe Illustrator 20.1.0, SVG Export Plug-In . SVG Version: 6.00 Build 0)  -->
<svg version="1.1" id="Layer_1" xmlns="http://www.w3.org/2000/svg" xmlns:xlink="http://www.w3.org/1999/xlink" x="0px" y="0px"
	 viewBox="0 0 400 400" style="enable-background:new 0 0 400 400;" xml:space="preserve">
<style type="text/css">
	.st0{fill:#8A9D1F;}
	.st1{fill:#1B4700;}
	.st2{fill:#F40000;}
	.st3{fill:#7DB34C;stroke:#164E16;stroke-width:5;stroke-miterlimit:10;}
	.st4{fill:#F22F2E;stroke:#7B000E;stroke-width:3;stroke-miterlimit:10;}
	.st5{fill:#F9C900;}
	.st6{fill:none;stroke:#1B4700;stroke-width:3;stroke-linejoin:round;stroke-miterlimit:10;}
	.st7{fill:#8A9D1F;stroke:#0D3102;stroke-width:5;stroke-miterlimit:10;}
	.st8{fill:#639D2E;stroke:#164E16;stroke-width:5;stroke-miterlimit:10;}
	.st9{fill:#8A9D1F;stroke:#1B4700;stroke-width:5;stroke-linejoin:round;stroke-miterlimit:10;}
	.st10{fill:#6FB228;stroke:#2A481D;stroke-width:3;stroke-linecap:round;stroke-miterlimit:10;}
	.st11{fill:#A7C92B;stroke:#1B4700;stroke-width:5;stroke-miterlimit:10;}
	.st12{fill:#6FAB00;stroke:#1B4700;stroke-width:5;stroke-miterlimit:10;}
	.st13{fill:#9BB31C;stroke:#2A481D;stroke-width:4;stroke-miterlimit:10;}
	.st14{fill:#6FB228;stroke:#2A481D;stroke-width:4;stroke-linecap:round;stroke-miterlimit:10;}
	.st15{fill:#6E8517;}
	.st16{fill:#00FFFF;}
	.st17{fill:#A2CC62;stroke:#2A481D;stroke-width:6;stroke-miterlimit:10;}
	.st18{fill:#FAD500;stroke:#E6681E;stroke-width:3;stroke-miterlimit:10;}
	.st19{fill:none;stroke:#E6681E;stroke-linecap:round;stroke-miterlimit:10;}
	.st20{fill:none;stroke:#FFFFFF;stroke-linecap:round;stroke-miterlimit:10;}
	.st21{fill:none;stroke:#E6681E;stroke-miterlimit:10;}
	.st22{fill:#E6681E;}
	.st23{fill:#A2CC62;stroke:#2A481D;stroke-miterlimit:10;}
	.st24{fill:#FFFFFF;}
	.st25{fill:#A2CC62;}
	.st26{fill:#CE571B;}
	.st27{fill:#9BB31C;}
	.st28{fill:#164100;}
	.st29{fill:#4D831C;}
	.st30{fill:#2A481D;}
	.st31{fill:#A7C92B;}
	.st32{fill:#D10000;stroke:#7B000E;stroke-width:3;stroke-miterlimit:10;}
	.st33{fill:none;stroke:#7B000E;stroke-miterlimit:10;}
	.st34{fill:none;stroke:#7B000E;stroke-width:1.2609;stroke-miterlimit:10;}
	.st35{fill:#D10000;}
	.st36{fill:#7B000E;}
	.st37{opacity:0.7;}
	.st38{fill:#4D831C;stroke:#2A481D;stroke-width:3;stroke-miterlimit:10;}
	.st39{opacity:0.5;fill:none;stroke:#FFFFFF;stroke-linecap:round;stroke-miterlimit:10;}
	.st40{fill:#BD0408;}
	.st41{fill:#C8040B;stroke:#6C0A04;stroke-width:3;stroke-miterlimit:10;}
	.st42{fill:none;stroke:#6C0A04;stroke-linecap:round;stroke-miterlimit:10;}
	.st43{fill:#A7C08F;}
	.st44{fill:none;stroke:#FFFFFF;stroke-width:6.4322;stroke-linecap:round;stroke-miterlimit:10;}
	.st45{fill:#C8040B;}
	.st46{fill:#6C0A04;}
	.st47{fill:#F22F2E;stroke:#9E0E00;stroke-width:3;stroke-miterlimit:10;}
	.st48{fill:#A7C92B;stroke:#164E16;stroke-width:3;stroke-miterlimit:10;}
	.st49{fill:none;stroke:#164E16;stroke-miterlimit:10;}
	.st50{fill:#4D831C;stroke:#2A481D;stroke-width:3;stroke-linecap:round;stroke-linejoin:round;stroke-miterlimit:10;}
	.st51{fill:none;stroke:#7B000E;stroke-linecap:round;stroke-miterlimit:10;}
	.st52{fill:#F40000;stroke:#7B000E;stroke-width:3;stroke-miterlimit:10;}
	.st53{fill:#7DB34C;stroke:#164E16;stroke-width:3;stroke-miterlimit:10;}
	.st54{fill:none;stroke:#FFFFFF;stroke-linecap:round;stroke-linejoin:round;stroke-miterlimit:10;}
	.st55{fill:#164E16;}
	.st56{fill:none;stroke:#7B000E;stroke-linecap:round;stroke-linejoin:round;stroke-miterlimit:10;}
	.st57{fill:#F6E600;}
	.st58{fill:#8DCC50;}
	.st59{fill:#A2A121;}
	.st60{fill:#F9EFA7;}
	.st61{fill:#7DB34C;}
	.st62{fill:#F22F2E;}
	.st63{fill:#6FAB00;stroke:#1B4700;stroke-width:3;stroke-miterlimit:10;}
	.st64{fill:none;stroke:#1B4700;stroke-linecap:round;stroke-miterlimit:10;}
	.st65{fill:#6E8517;stroke:#1B4700;stroke-linecap:round;stroke-miterlimit:10;}
	.st66{fill:#6FAB00;}
	.st67{fill:#853323;}
	.st68{fill:#7AB000;}
	.st69{fill:#430000;}
	.st70{fill:#2B0101;}
	.st71{fill:none;stroke:#1B4700;stroke-width:1.5;stroke-linecap:round;stroke-linejoin:round;stroke-miterlimit:10;}
	.st72{fill:none;stroke:#1B4700;stroke-width:3;stroke-linecap:round;stroke-linejoin:round;stroke-miterlimit:10;}
	.st73{fill:#FAB2B3;}
	.st74{fill:none;stroke:#1B4700;stroke-width:18.8546;stroke-linecap:round;stroke-linejoin:round;stroke-miterlimit:10;}
	.st75{fill:none;stroke:#1B4700;stroke-width:2;stroke-linecap:round;stroke-miterlimit:10;}
	.st76{fill:none;stroke:#6FAB00;stroke-linecap:round;stroke-miterlimit:10;}
	.st77{fill:#9E0E00;}
	.st78{clip-path:url(#SVGID_2_);}
	.st79{fill:#6FB228;}
	.st80{fill:#F9C900;stroke:#CE571B;stroke-width:3;stroke-miterlimit:10;}
	.st81{opacity:0.3;fill:none;stroke:#CE571B;stroke-linecap:round;stroke-linejoin:round;stroke-miterlimit:10;}
	.st82{opacity:0.3;fill:#CE571B;}
	.st83{fill:#EAA629;}
	.st84{fill:#853323;stroke:#430000;stroke-width:3;stroke-miterlimit:10;}
	.st85{fill:none;stroke:#430000;stroke-linecap:round;stroke-miterlimit:10;}
	.st86{fill:#8A9D1F;stroke:#1B4700;stroke-miterlimit:10;}
	.st87{fill:#F22F2E;stroke:#7B000E;stroke-width:2.5607;stroke-miterlimit:10;}
	.st88{opacity:0.4;}
	.st89{fill:#8A9D1F;stroke:#1B4700;stroke-linejoin:round;stroke-miterlimit:10;}
	.st90{opacity:0.3;fill:#1B4700;}
	.st91{opacity:0.4;fill:#7B000E;}
	.st92{opacity:0.4;fill:none;stroke:#7B000E;stroke-linecap:round;stroke-linejoin:round;stroke-miterlimit:10;}
	.st93{opacity:0.4;fill:none;stroke:#7B000E;stroke-miterlimit:10;}
	.st94{opacity:0.3;fill:none;stroke:#1B4700;stroke-linecap:round;stroke-linejoin:round;stroke-miterlimit:10;}
	.st95{fill:#C01F28;}
	.st96{fill:#698222;}
	.st97{fill:none;stroke:#7B000E;stroke-width:6.1236;stroke-miterlimit:10;}
	.st98{opacity:0.5;fill:#6FB228;stroke:#2A481D;stroke-linecap:round;stroke-miterlimit:10;}
	.st99{opacity:0.5;fill:#2A481D;}
	.st100{fill:#4D7C29;}
	.st101{fill:#9D121E;}
	.st102{fill:#F22F2E;stroke:#7B000E;stroke-miterlimit:10;}
	.st103{fill:#639D2E;}
	.st104{fill:none;stroke:#0D3102;stroke-width:3;stroke-miterlimit:10;}
	.st105{fill:#639D2E;stroke:#164E16;stroke-miterlimit:10;}
	.st106{fill:#0D3102;}
	.st107{fill:none;stroke:#0D3102;stroke-linecap:round;stroke-miterlimit:10;}
	.st108{fill:#8A9D1F;stroke:#0D3102;stroke-miterlimit:10;}
	.st109{fill:#F9C900;stroke:#CE571B;stroke-miterlimit:10;}
	.st110{fill:#F9C900;stroke:#CE571B;stroke-linecap:round;stroke-miterlimit:10;}
	.st111{fill:none;stroke:#CE571B;stroke-linecap:round;stroke-miterlimit:10;}
	.st112{fill:none;stroke:#FFFFFF;stroke-width:6.3779;stroke-linecap:round;stroke-miterlimit:10;}
	.st113{fill:#7DB34C;stroke:#164E16;stroke-linejoin:round;stroke-miterlimit:10;}
	.st114{fill:none;stroke:#1B4700;stroke-linecap:round;stroke-linejoin:round;stroke-miterlimit:10;}
	.st115{fill:none;stroke:#FFFFFF;stroke-width:6.2485;stroke-linecap:round;stroke-miterlimit:10;}
</style>
<path class="st62" d="M66.5,317.6c3.7,1.4,7.6,2.3,11.6,2.5c8.5,0.6,15.8,6.8,18.5,14.9c3.2,9.7,10.2,18.2,20.1,23.1
	c8.7,4.3,18.1,5.1,26.8,3c8.8-2.1,18.2,1.8,23,9.4c3.1,4.9,7.5,9.3,13.2,12.7c12.3,7.4,28.1,7.4,40.4,0c5.7-3.4,10-7.8,13.2-12.7
	c4.9-7.6,14.3-11.5,23-9.4c8.7,2.1,18.2,1.3,26.8-3c9.9-4.9,16.9-13.4,20.1-23.1c2.7-8.1,9.9-14.3,18.5-14.9
	c3.9-0.3,7.8-1.1,11.6-2.5c6.8-2.6,8.9-11.4,4.3-17.1l-36-44.8c-15.4-19.1-36-33.4-59.2-41.2l-1.9-0.6c-26.4-8.8-54.9-8.8-81.3,0
	l-1.9,0.6c-23.3,7.8-43.8,22.1-59.2,41.2l-36,44.8C57.6,306.2,59.7,314.9,66.5,317.6z"/>
<path class="st36" d="M345.1,294.6l-36-44.8c-16.6-20.6-38.5-35.9-63.6-44.2l-1.8-0.6c-28.1-9.4-59.1-9.4-87.2,0l-1.9,0.6
	c-25,8.4-47,23.7-63.6,44.2l-36,44.8c-4.1,5.1-5.5,11.9-3.8,18.3c1.7,6.3,6.1,11.2,12.1,13.4c4.6,1.8,9.4,2.8,14.3,3.1
	c4.5,0.3,8.6,3.7,10.2,8.5c4.2,12.5,13,22.7,24.9,28.5c10.3,5.1,22,6.4,33.2,3.7c4.9-1.2,10.2,1,13,5.3c4.1,6.4,9.6,11.7,16.3,15.7
	c7.6,4.5,16.3,6.8,25,6.8c8.7,0,17.4-2.3,25.1-6.8c6.7-4,12.2-9.3,16.2-15.7c2.8-4.3,8.1-6.5,13-5.4c11.1,2.7,22.9,1.3,33.1-3.7
	c11.9-5.8,20.7-16,24.9-28.5c1.6-4.8,5.7-8.2,10.2-8.5c4.9-0.3,9.7-1.4,14.3-3.1c6-2.3,10.4-7.2,12.1-13.4
	C350.6,306.5,349.2,299.7,345.1,294.6z M330.8,308c-0.2,0.6-0.5,0.8-0.7,0.8c-2.8,1.1-5.8,1.7-8.8,1.9c-12,0.8-22.8,9.3-26.8,21.3
	c-2.6,7.8-8.1,14-15.4,17.6c-6.4,3.1-13.6,3.9-20.5,2.3c-4.3-1-8.8-1-13.1-0.2c-5,1-9.5-3.5-8.2-8.5c2.6-9.7,4-20.4,4-31.5
	c0-17.5-3.5-34.5-10-47.6c-0.9-1.7-3.1-2.3-4.7-1.1c-1.2,0.9-1.5,2.6-0.8,4c6,12.3,9.3,28.2,9.3,44.8c0,18.1-3.9,35.2-10.9,47.9
	c-6.7,12.2-15.4,18.8-24.5,18.8c-9.1,0-17.8-6.7-24.5-18.8c-7-12.7-10.9-29.7-10.9-47.8c0-1.5-1-2.9-2.5-3.2c-2-0.4-3.7,1.1-3.7,3.1
	c0,11.1,1.4,21.8,4,31.5c1.3,4.9-3,9.4-8,8.4c-1.9-0.4-3.8-0.5-5.8-0.5c-2.3,0-4.6,0.3-6.9,0.8c-6.9,1.6-14.2,0.8-20.5-2.3
	c-7.3-3.6-12.8-9.9-15.4-17.6c-4-11.9-14.7-20.5-26.8-21.3c-3-0.2-6-0.9-8.8-1.9c-0.1-0.1-0.5-0.2-0.7-0.8c-0.1-0.3-0.2-1,0.3-1.6
	l36-44.8c14.3-17.8,33.3-31,54.9-38.2l1.9-0.6c24.4-8.2,50.9-8.2,75.3,0l1.8,0.6c21.6,7.2,40.6,20.4,54.9,38.2l36,44.8
	C331,307,330.9,307.7,330.8,308z"/>
<path class="st24" d="M183.3,314.9c-1.7,0-3.1-1.4-3.1-3.1c0-10.3,0.9-20.4,2.5-29.4c0.3-1.7,1.9-2.8,3.6-2.5
	c1.7,0.3,2.8,1.9,2.5,3.6c-1.6,8.6-2.4,18.4-2.4,28.3C186.5,313.5,185.1,314.9,183.3,314.9z"/>
<path class="st36" d="M164.8,285.3c-0.3,0-0.5,0-0.8-0.1c-1.7-0.4-2.7-2.1-2.2-3.8c1.9-7.4,4.5-14.2,7.7-20.1
	c0.8-1.5,2.7-2.1,4.2-1.3c1.5,0.8,2.1,2.7,1.3,4.2c-3,5.5-5.4,11.7-7.2,18.7C167.4,284.3,166.2,285.3,164.8,285.3z"/>
<path class="st36" d="M118.2,301.3c-0.5,0-1.1-0.1-1.5-0.4c-1.5-0.9-2-2.8-1.2-4.3c4.3-7.7,9.6-15.3,15.6-22.7
	c8.4-10.3,17.8-19.4,27.1-26.4c1.4-1,3.3-0.7,4.4,0.6c1,1.4,0.7,3.3-0.6,4.4c-8.9,6.6-17.9,15.4-26,25.3c-5.8,7.1-10.8,14.4-15,21.8
	C120.3,300.7,119.3,301.3,118.2,301.3z"/>
<path class="st24" d="M112,280c-0.7,0-1.5-0.3-2.1-0.8c-1.3-1.2-1.4-3.1-0.2-4.4c3.4-3.8,7.1-7.5,11-11.1c1.3-1.2,3.2-1.1,4.4,0.2
	c1.2,1.3,1.1,3.2-0.2,4.4c-3.7,3.5-7.3,7.1-10.6,10.7C113.7,279.7,112.8,280,112,280z"/>
<path class="st36" d="M289.2,311.7c-1.2,0-2.3-0.7-2.8-1.8c-5.2-10.9-13-22.4-22.6-33.1c-1.1-1.3-1-3.3,0.3-4.4
	c1.3-1.1,3.3-1,4.4,0.3c9.9,11.2,18.1,23.1,23.5,34.6c0.7,1.6,0.1,3.4-1.5,4.2C290.1,311.6,289.6,311.7,289.2,311.7z"/>
<circle class="st36" cx="162.2" cy="295.4" r="3.3"/>
<circle class="st24" cx="103.3" cy="287.5" r="3.3"/>
<path class="st0" d="M277.9,21.2c-1.8-2.5-4.8-3.9-7.8-3.9c-2.1,0-4.2,0.7-5.9,2l-5.2,3.9c-43,32.3-68.7,83.6-68.7,137.4v22.8
	c0,12.5-1.2,24.9-3.7,37.1c-10.4,2.9-16.7,9-16.7,16c0,10,13.2,17.8,30.2,17.8s30.2-7.8,30.2-17.8c0-7-6.5-13.1-16.8-16
	c-2.4-12-3.6-24.2-3.6-36.5v-28c0-44.8,21.4-87.6,57.3-114.5l8.9-6.6c2.1-1.6,3.5-3.9,3.8-6.4C280.1,25.9,279.4,23.3,277.9,21.2z"/>
<path class="st1" d="M290.3,12L290.3,12C285.5,5.6,278,1.8,270,1.8c-5.5,0-10.8,1.7-15.2,5.1l-5.2,3.9
	c-23.1,17.3-42.2,40.2-55.2,66.1c-12.9,25.9-19.8,54.8-19.8,83.8v22.8c0,5.7-0.3,11.5-0.9,17.2c3-0.6,6-1,9-1.4
	c1.9-0.2,3.5,1.4,3.3,3.2c-0.2,2.2-0.5,4.3-0.8,6.5c-0.7,5.1-3.8,9.6-8.3,12.2c-6.5,3.8-10.3,9.2-10.3,15.4
	c0,11.9,14.3,20.9,33.3,20.9s33.3-9,33.3-20.9c0-6.2-3.8-11.6-10.4-15.4c-4.5-2.6-7.6-7.1-8.3-12.2c-0.3-2.1-0.5-4.2-0.7-6.4
	c-0.2-1.9,1.4-3.4,3.3-3.2c3,0.4,6,0.8,9,1.4c-0.5-5.5-0.8-11.1-0.8-16.7v-28c0-19.7,4.7-39.4,13.5-57.1c8.8-17.6,21.8-33.2,37.6-45
	l8.9-6.6c5.4-4,8.9-10,9.9-16.7C296,24,294.3,17.4,290.3,12z M217.8,237.9c1.6-0.5,2.4-2.3,2-4c-0.3-1.1-0.6-2.2-0.9-3.3
	c-0.5-2.1,1.9-3.7,3.6-2.3c2.9,2.3,4.5,5.1,4.5,8.1c0,8.1-12.1,14.7-27,14.7s-27-6.6-27-14.7c0-2.9,1.6-5.7,4.3-8
	c1.7-1.4,4.2,0.1,3.6,2.3c-0.3,1.2-0.6,2.4-1,3.6c-0.5,1.7,0.4,3.6,2.1,4c0.3,0.1,0.6,0.1,0.8,0.1c1.4,0,2.6-0.9,3-2.3
	c4.9-17.2,7.4-35,7.4-52.8v-22.8c0-52.8,25.2-103.2,67.5-134.9l5.2-3.9c1.2-0.9,2.5-1.3,4-1.3c2.1,0,4.1,1,5.3,2.7
	c1.1,1.4,1.5,3.2,1.3,4.9c-0.3,1.8-1.2,3.3-2.6,4.4l-8.9,6.6c-36.6,27.5-58.5,71.2-58.5,117v28c0,17.5,2.4,34.9,7.1,51.8
	C214.2,237.5,216.1,238.5,217.8,237.9z"/>
</svg>
