<?xml version="1.0" encoding="utf-8"?>
<!-- Generator: Adobe Illustrator 20.0.0, SVG Export Plug-In . SVG Version: 6.00 Build 0)  -->
<svg version="1.1" id="Layer_1" xmlns="http://www.w3.org/2000/svg" xmlns:xlink="http://www.w3.org/1999/xlink" x="0px" y="0px"
	 viewBox="0 0 500 500" style="enable-background:new 0 0 500 500;" xml:space="preserve">
<style type="text/css">
	.st0{fill:#BBCB38;stroke:#315302;stroke-width:6;stroke-miterlimit:10;}
	.st1{fill:none;stroke:#BBCB38;stroke-width:3.5;stroke-linecap:round;stroke-miterlimit:10;}
	.st2{fill:#3B792C;stroke:#15540E;stroke-width:6;stroke-miterlimit:10;}
	.st3{fill:none;stroke:#355B00;stroke-width:6;stroke-miterlimit:10;}
	.st4{fill:#94AD34;stroke:#355B00;stroke-linecap:round;stroke-linejoin:round;stroke-miterlimit:10;}
	.st5{fill:#00FFFF;}
	.st6{fill:#95CC63;stroke:#517B39;stroke-width:3;stroke-linecap:round;stroke-linejoin:round;stroke-miterlimit:10;}
	.st7{fill:none;stroke:#517B39;stroke-linecap:round;stroke-linejoin:round;stroke-miterlimit:10;}
	.st8{fill:none;stroke:#FFFFFF;stroke-linecap:round;stroke-linejoin:round;stroke-miterlimit:10;}
	.st9{clip-path:url(#SVGID_2_);}
	.st10{fill:none;stroke:#00FFFF;stroke-width:0.2598;stroke-miterlimit:10;}
	.st11{fill:none;stroke:#355B00;stroke-linecap:round;stroke-linejoin:round;stroke-miterlimit:10;}
	.st12{fill:#94AD34;}
	.st13{fill:#355B00;}
	.st14{fill:#95CC63;stroke:#517B39;stroke-linecap:round;stroke-linejoin:round;stroke-miterlimit:10;}
	.st15{fill:none;stroke:#94AD34;stroke-linecap:round;stroke-linejoin:round;stroke-miterlimit:10;}
	.st16{fill:#FFFFFF;}
	.st17{fill:none;stroke:#94AD34;stroke-width:0.4041;stroke-miterlimit:10;}
	.st18{fill:#94AD34;stroke:#94AD34;stroke-linecap:round;stroke-miterlimit:10;}
	.st19{fill:none;stroke:#94AD34;stroke-miterlimit:10;}
	.st20{fill:none;stroke:#94AD34;stroke-width:0.2579;stroke-miterlimit:10;}
	.st21{fill:none;stroke:#7BB76B;stroke-linecap:round;stroke-linejoin:round;stroke-miterlimit:10;}
	.st22{fill:#7BB76B;stroke:#3B792C;stroke-linecap:round;stroke-linejoin:round;stroke-miterlimit:10;}
	.st23{fill:none;stroke:#3B792C;stroke-linecap:round;stroke-linejoin:round;stroke-miterlimit:10;}
	.st24{fill:none;stroke:#BCEFA5;stroke-linecap:round;stroke-linejoin:round;stroke-miterlimit:10;}
	.st25{fill:#3B792C;}
	.st26{fill:#BCEFA5;}
	.st27{fill:#15540E;}
	.st28{fill:#7BB76B;}
	.st29{fill:none;stroke:#62A580;stroke-miterlimit:10;}
	.st30{fill:none;stroke:#62A580;stroke-linecap:round;stroke-miterlimit:10;}
	.st31{fill:#62A580;}
	.st32{fill:#ACCEA2;stroke:#19402E;stroke-width:6;stroke-linejoin:round;stroke-miterlimit:10;}
	.st33{fill:none;stroke:#769D6E;stroke-linecap:round;stroke-miterlimit:10;}
	.st34{fill:#769D6E;}
	.st35{fill:none;stroke:#ACCEA2;stroke-linecap:round;stroke-miterlimit:10;}
	.st36{fill:none;stroke:#FFFFFF;stroke-linecap:round;stroke-miterlimit:10;}
	.st37{fill:none;stroke:#438763;stroke-linecap:round;stroke-miterlimit:10;}
	.st38{fill:#438763;}
	.st39{fill:#ACCEA2;}
	.st40{fill:#19402E;}
	.st41{fill:#917013;}
	.st42{fill:#EDDC84;}
	.st43{fill:#F4EDAA;}
	.st44{fill:#DBC002;}
	.st45{fill:#463849;}
	.st46{fill:#B28BB8;}
	.st47{fill:#CCBCDF;}
	.st48{fill:#9C5D96;}
	.st49{fill:#BBCB38;}
	.st50{fill:#315302;}
	.st51{fill:none;stroke:#5A7700;stroke-linecap:round;stroke-miterlimit:10;}
	.st52{fill:#5A7700;}
</style>
<path class="st49" d="M430,257.6c-5-6.9-14.6-8.4-21.5-3.5c-1.7,1.3-20,14.6-44.6,38.9C337.8,143.4,289,54.6,289,54.6
	c-6.1-10.8-14.7-19.4-27.4-20c-5-0.2-9.8,0.9-14.1,2.8c-4-7-7.7-11-8.1-11.3c-1.5-1.5-3.9-1.5-5.5-0.1c-1.5,1.5-1.5,3.9,0,5.5
	c0.1,0.1,3.4,3.6,7,9.9c-6.7,5.3-11.2,13.3-11.6,22.5c-0.3,5.8,1.1,11.3,3.6,16c0,0,70.2,109.2,95.7,224.5
	c-54.6-132.5-116.2-204.5-116.2-204.5c-8.2-9.4-18.4-16-30.9-14c-5,0.8-9.4,2.8-13.2,5.6c-5.3-6-9.8-9.2-10.2-9.4
	c-1.8-1.2-4.2-0.7-5.3,1.1c-1.2,1.8-0.7,4.2,1.1,5.4c0.1,0.1,4.1,2.9,8.8,8.3c-5.5,6.6-8.3,15.3-6.8,24.4c0.9,5.7,3.3,10.8,6.8,15
	c0,0,91,92.8,139.4,200.6c-80.9-119.3-156.5-177.5-156.5-177.5c-10-7.5-21.2-11.9-33.1-7.4c-4.7,1.8-8.6,4.7-11.8,8.2
	c-6.4-4.8-11.5-7-11.9-7.1c-2-0.8-4.2,0.2-5,2.1c-0.8,2,0.2,4.2,2.1,5c0.1,0,4.6,2,10.4,6.3c-4,7.6-4.9,16.7-1.7,25.3
	c2.1,5.4,5.5,9.9,9.7,13.3c0,0,108.8,72.6,178.2,168.7c2.3,3.3,5.8,5.4,9.6,6.4c-14.4,21.8-28.2,46.2-40,73.1
	c-3.4,7.8,0.2,16.9,7.9,20.3c2,0.9,4.1,1.3,6.2,1.3c5.9,0,11.6-3.5,14.1-9.3c51-116.6,145.5-186.1,146.4-186.8
	C433.4,274.1,435,264.5,430,257.6z"/>
<path class="st50" d="M254.2,8.1c2.4,2,5.4,3,8.4,3.2c0,0,0,0,0.1,0c13.4,0.7,32.4,6.7,46.7,31.8l0.1,0.2
	c1.8,3.2,38,69.8,64.9,184.2c2.1,9.1,12.8,13.1,20.4,7.6l0,0c8.4-6.1,18.6-8.5,28.9-6.9c10.2,1.6,19.2,7.2,25.3,15.6l0,0
	c12.6,17.3,8.7,41.6-8.6,54.2c-0.9,0.6-90.7,67.4-138.7,177.2c-6.2,14.1-20.1,23.3-35.6,23.3c-5.3,0-10.5-1.1-15.5-3.2
	c-19.7-8.6-28.7-31.5-20.1-51.2c6.7-15.3,14.4-30.6,22.9-45.6c4.8-8.5,4-19-2-26.7C185.3,288.2,92,225.4,91,224.8l-0.8-0.5l-0.7-0.6
	c-7.7-6.1-13.6-14.1-17.1-23.3c-2.1-5.6-3.3-11.5-3.5-17.3c-0.1-3.4-1.2-6.7-3.3-9.3c-5.8-7.4-7.6-17.7-3.9-27
	c2.7-6.7,7.8-12.2,14.6-14.9c6.4-2.6,13.5-1.8,18.1-0.8c3.1,0.7,6.4,0.5,9.5-0.6l0,0c4.9-1.9,10.9-3.3,17.9-3.3
	c5.2,0,9.3-4.3,9.1-9.4c-0.2-4.2,0.5-7.9,1.2-10.7c0.9-3.2,0.5-6.5-0.9-9.5c-4.1-8.4-3.7-18.7,1.9-27.1c4-6,10.3-9.7,17.3-11.6
	c6.8-1.8,13.7,0.7,18,2.8c2.9,1.4,6.1,1.9,9.2,1.4l0.1,0c5-0.8,10.9-1,17.4,0.2c5.2,1,10-2.5,10.8-7.7c0.7-4.5,2-8.1,3.3-10.6
	c1.5-3,1.7-6.4,0.9-9.7c-2.2-9,0.3-18.9,7.4-25.9c5.1-5,11.9-7.7,19.1-7.8C244.5,1.5,250.6,5.2,254.2,8.1z M422.2,273.1
	C422.2,273.1,422.2,273.1,422.2,273.1C422.2,273.1,422.2,273.1,422.2,273.1z M411,271.3C411,271.3,411,271.3,411,271.3L411,271.3
	C411,271.3,411,271.3,411,271.3z"/>
<g>
	<path class="st49" d="M321.7,348c-1,0.2-2,0.2-3,0.2c-7.1,0-13.6-3.9-16.4-10.1c-48.2-108.3-139.9-201.7-139.9-201.7
		c-3.5-4.1-5.9-9.3-6.8-15c-1-6.1,0-12,2.3-17.2c2.4-5.2,1-11.4-3.5-14.9c-0.5-0.4-0.8-0.6-0.8-0.6c-1.8-1.2-2.2-3.6-1.1-5.4
		c0.7-1.1,2-1.7,3.2-1.7c0.7,0,1.5,0.2,2.1,0.7c0.2,0.2,1.8,1.3,4.2,3.4c3.5,3.1,8.5,4,12.8,2.2c2-0.8,4.1-1.4,6.4-1.8
		c1.5-0.2,3-0.4,4.4-0.4c10.5,0,19.3,6.1,26.5,14.4c0,0,44,51.4,90.6,147.3c2.8,5.8,5.2,11.8,7.1,18c4.3,13.8,8.1,28,11.2,42.2
		c1.4,6.6,5.6,12.2,11.2,15.7c3.4,2.1,5.1,6.2,4.4,10.1C335.7,339,332.2,345.8,321.7,348z"/>
</g>
<g>
	<path class="st49" d="M303.2,379.8c-2.2,0.9-4.5,1.3-6.8,1.3c-5.6,0-11-2.5-14.2-7C212.8,277.9,104,205.3,104,205.3
		c-4.2-3.3-7.7-7.9-9.7-13.3c-2.2-5.8-2.5-11.7-1.3-17.3c1.2-5.6-1.3-11.4-6.5-13.9c-0.6-0.3-0.9-0.4-0.9-0.4c-2-0.8-2.9-3-2.1-5
		c0.6-1.5,2-2.4,3.6-2.4c0.5,0,1,0.1,1.4,0.3c0.3,0.1,2.1,0.9,4.8,2.5c4.1,2.3,9.1,2.2,13-0.5c1.8-1.2,3.8-2.2,5.9-3
		c3.3-1.3,6.6-1.8,9.8-1.8c8.3,0,16.2,3.8,23.4,9.2c0,0,54.2,41.7,120,127c4,5.2,7.6,10.6,10.7,16.3c6.8,12.4,13.3,25.3,19.1,38.3
		c2.6,5.9,7.5,10.4,13.5,12.8c4,1.6,6.5,5.5,6.3,9.8C314.6,369.4,312.2,376.2,303.2,379.8z"/>
</g>
<path class="st52" d="M210.8,278.5c-0.4,0-0.9-0.1-1.3-0.2c-3.7-1.4-7.1-3.7-10-6.7c-2.4-2.5-4.2-5.3-5.5-8.4
	c-1-2.6-3.5-4.6-6.4-5.3c-4.9-1.2-9.6-4.1-13.4-8.1c-2.6-2.8-4.6-5.9-5.9-9.3c-1.2-3.1-3.7-5.3-6.9-5.9c-5.1-1-10-3.6-14.2-7.3
	c-3.7-3.3-6.5-7.2-8.3-11.5c-1.1-2.7-3.7-4.5-7-5c-5.9-0.8-11.7-3.3-16.7-7.4c-4.3-3.5-7.7-7.9-9.8-12.6c-0.9-2,0-4.3,2-5.1
	c2-0.9,4.3,0,5.1,2c1.6,3.6,4.2,7,7.6,9.7c3.8,3.1,8.3,5.1,12.7,5.7c6.1,0.8,11,4.4,13.2,9.7c1.3,3.2,3.5,6.2,6.2,8.6
	c3.2,2.8,6.8,4.7,10.6,5.5c5.8,1.2,10.3,5.1,12.6,10.7c1,2.4,2.5,4.7,4.4,6.8c2.7,2.9,6.2,5,9.6,5.8c5.3,1.3,9.7,5.1,11.7,10
	c0.9,2.2,2.2,4.2,3.9,6c2,2.2,4.5,3.8,7,4.7c2,0.7,3.1,3,2.3,5C213.9,277.6,212.4,278.5,210.8,278.5z"/>
<path class="st16" d="M142.5,218.2c-1.5,0-3-0.9-3.6-2.4c-1.1-2.7-3.7-4.5-7-4.9c-5.9-0.8-11.7-3.3-16.7-7.4
	c-4.3-3.5-7.7-7.9-9.8-12.6c-0.9-2,0-4.3,2-5.1c2-0.9,4.3,0,5.1,2c1.6,3.6,4.2,7,7.6,9.7c3.8,3.1,8.3,5.1,12.7,5.7
	c6.1,0.8,11,4.4,13.2,9.7c0.8,2-0.1,4.3-2.1,5.1C143.5,218.2,143,218.2,142.5,218.2z"/>
<path class="st52" d="M244.8,284.1c-1.7,0-3.2-1.1-3.7-2.8c-0.6-2.1-1.8-4.1-3.4-5.9c-1.4-1.5-2.9-2.7-4.6-3.6
	c-4.4-2.2-7.5-6.3-8.9-11.5c-0.7-2.8-2.3-5.5-4.5-7.9c-2.3-2.4-4.9-4.1-7.8-5c-5.3-1.6-9.2-5.4-10.6-10.2c-0.9-3-2.6-5.8-4.9-8.3
	c-2.5-2.6-5.4-4.5-8.6-5.5c-5.6-1.8-9.7-5.8-11.3-11.1c-1.1-3.8-3.5-7.3-6.8-10.3c-3.5-3.1-7.7-5.2-11.9-5.7
	c-2.1-0.3-3.6-2.2-3.4-4.4s2.2-3.6,4.4-3.4c5.7,0.7,11.4,3.5,16.1,7.6c4.3,3.9,7.5,8.7,9,13.8c0.9,2.8,3,4.9,6.2,5.9
	c4.4,1.4,8.5,4,11.9,7.6c3.2,3.3,5.5,7.3,6.7,11.4c0.7,2.3,2.7,4.1,5.5,5c4.1,1.3,8,3.7,11.1,7.1c3.1,3.3,5.3,7.2,6.4,11.3
	c0.6,2.1,1.9,5,4.9,6.5c2.5,1.3,4.8,3.1,6.8,5.3c2.3,2.6,4.1,5.7,5,8.9c0.6,2.1-0.6,4.2-2.6,4.8C245.5,284,245.1,284.1,244.8,284.1z
	"/>
<ellipse transform="matrix(0.935 -0.3547 0.3547 0.935 -54.2106 49.1017)" class="st16" cx="106.8" cy="172.4" rx="3.9" ry="3.9"/>
<ellipse transform="matrix(0.935 -0.3547 0.3547 0.935 -101.8116 116.3828)" class="st52" cx="266.6" cy="335.9" rx="3.9" ry="3.9"/>
<path class="st52" d="M296.5,373.5c-4.3,0-8.5-2.6-11.1-7c0,0-6.2-10.3-13.7-17c-1.6-1.4-1.8-3.9-0.3-5.5c1.4-1.6,3.9-1.8,5.5-0.3
	c8.5,7.5,15,18.4,15.3,18.9c0.9,1.6,3,3.9,5.5,2.9c2-0.8,4.3,0.2,5,2.3c0.8,2-0.2,4.3-2.3,5C299.1,373.2,297.8,373.5,296.5,373.5z"
	/>
<path class="st52" d="M258.9,239.4c-1.9,0-3.6-1.4-3.9-3.3c-0.4-2.7-2-5.1-4.4-6.6c-3.3-2.1-6.2-5.1-8.4-8.6c-1.8-2.9-3-6.1-3.6-9.3
	c-0.5-2.7-2.5-5.2-5.1-6.5c-4.5-2.2-8.6-6-11.5-10.6c-2-3.2-3.3-6.7-3.9-10.3c-0.6-3.3-2.6-5.9-5.5-7.2c-4.8-2.1-9.1-5.6-12.4-10.1
	c-2.9-3.9-4.9-8.4-5.7-13c-0.5-2.9-2.7-5.2-5.8-6.3c-5.6-1.9-10.7-5.6-14.8-10.7c-3.5-4.3-5.9-9.3-7-14.4c-0.4-2.1,0.9-4.2,3-4.6
	c2.1-0.4,4.2,0.9,4.6,3c0.8,3.9,2.7,7.7,5.4,11.1c3.1,3.8,7.1,6.7,11.3,8.2c5.8,2,9.9,6.6,10.9,12.2c0.6,3.4,2.1,6.7,4.3,9.7
	c2.5,3.4,5.7,6,9.2,7.5c5.4,2.3,9.1,7.1,10.1,13c0.4,2.6,1.4,5.2,2.9,7.5c2.1,3.4,5,6.1,8.2,7.7c5,2.4,8.5,7,9.4,12.2
	c0.4,2.3,1.3,4.5,2.6,6.6c1.6,2.5,3.6,4.6,5.9,6.1c4.3,2.7,7.2,7.1,8,12c0.3,2.1-1.1,4.1-3.3,4.4
	C259.3,239.4,259.1,239.4,258.9,239.4z"/>
<path class="st16" d="M203.3,168.4c-1.2,0-2.4-0.5-3.1-1.6c-2.9-3.9-4.9-8.4-5.7-13c-0.5-2.9-2.7-5.2-5.8-6.3
	c-5.6-1.9-10.7-5.6-14.8-10.7c-3.5-4.3-5.9-9.3-7-14.4c-0.4-2.1,0.9-4.2,3-4.6c2.1-0.4,4.2,0.9,4.6,3c0.8,3.9,2.7,7.7,5.4,11.1
	c3.1,3.8,7.1,6.7,11.3,8.2c5.8,2,9.9,6.6,10.9,12.2c0.6,3.4,2.1,6.7,4.3,9.7c1.3,1.7,0.9,4.2-0.8,5.5
	C204.9,168.2,204.1,168.4,203.3,168.4z"/>
<path class="st52" d="M284.8,242.5c-2,0-3.7-1.5-3.9-3.6c-0.2-2.2-0.9-4.4-2.1-6.5c-1-1.8-2.3-3.3-3.8-4.5c-3.8-3.1-6-7.7-6.3-13.1
	c-0.2-2.9-1.1-5.9-2.8-8.6c-1.7-2.8-4-5-6.6-6.5c-4.9-2.7-7.9-7.1-8.3-12.2c-0.3-3.1-1.3-6.3-3.1-9.1c-1.9-3.1-4.4-5.6-7.3-7.2
	c-5.1-2.9-8.3-7.6-8.8-13.1c-0.3-3.9-1.9-7.9-4.5-11.4c-2.8-3.8-6.5-6.6-10.5-8c-4.8-1.7-8.1-6-8.4-10.9c-0.2-4.9-2.3-10-5.8-14.3
	c-1.4-1.7-1.1-4.1,0.6-5.5s4.1-1.1,5.5,0.6c4.5,5.6,7.2,12.3,7.5,18.8c0.1,1.7,1.4,3.3,3.1,3.9c5.4,1.9,10.5,5.7,14.2,10.8
	c3.5,4.7,5.5,10,6,15.4c0.3,2.9,2,5.4,4.8,7c4,2.3,7.5,5.7,10.1,9.9c2.4,3.9,3.9,8.3,4.2,12.6c0.2,2.4,1.8,4.6,4.3,6
	c3.8,2.1,7,5.3,9.4,9.2c2.4,3.8,3.7,8.1,4,12.3c0.1,2.2,0.8,5.3,3.4,7.4c2.2,1.8,4.1,4,5.6,6.6c1.8,3.1,2.8,6.4,3.1,9.7
	c0.2,2.1-1.4,4-3.6,4.2C285.1,242.5,285,242.5,284.8,242.5z"/>
<ellipse transform="matrix(0.9878 -0.1555 0.1555 0.9878 -14.2021 28.0058)" class="st16" cx="171.9" cy="104.8" rx="3.9" ry="3.9"/>
<ellipse transform="matrix(0.9878 -0.1555 0.1555 0.9878 -42.6119 49.3754)" class="st52" cx="294.4" cy="297.1" rx="3.9" ry="3.9"/>
<path class="st52" d="M318.6,340.7c-5.2,0-9.8-3.6-11.6-9.4c0,0-4-11.3-10-19.4c-1.3-1.7-0.9-4.2,0.8-5.5c1.7-1.3,4.2-0.9,5.5,0.8
	c6.7,9.1,10.9,21.1,11.1,21.6c0.6,1.7,2.1,4.4,4.7,4c1.1-0.2,2-0.7,2.6-1.6c0.6-0.9,0.9-1.9,0.7-3c-0.3-2.1,1.1-4.1,3.2-4.5
	c2.1-0.3,4.1,1.1,4.5,3.2c0.5,3.1-0.3,6.2-2.1,8.8s-4.6,4.2-7.7,4.7C319.7,340.6,319.1,340.7,318.6,340.7z"/>
<g>
	<path class="st49" d="M373,302.3c-0.9,15.3-11.5,21.3-19.3,23.6c-4.6,1.3-8.1,5-9.1,9.6c-0.8,3.5-2.2,6.7-4.4,9.7
		c-3.2,4.2-6.6,6.7-9.7,8.3c-4.2,2.1-7.1,6.2-7.5,10.8c-0.7,9.9-7,19-16.9,22.8c-3.1,1.2-6.3,1.8-9.6,1.8c0,0,0,0-0.1,0
		c-4.8,0-9.2,2.3-11.7,6.4c-13.8,22.3-23.8,42.4-30.9,58.6c-2.9,6.7-0.4,14.7,6.1,18c2,1,4.1,1.5,6.2,1.5c5.3,0,10.3-3.1,12.5-8.2
		c51.2-117.1,146-186.8,147-187.5c6.1-4.4,7.5-13,3.1-19.1c-4.4-6.1-13-7.5-19.1-3.1c-0.7,0.5-13.7,10-32.7,27.6
		c-3.2,3-4.8,7.4-4.2,11.7C372.9,297,373.1,299.5,373,302.3z"/>
</g>
<path class="st49" d="M328.8,305.9c1.7,7.6,8.8,13.2,17,13.6c0.3,0,0.6,0,0.9,0c9.8,0,18-7.7,18.5-17.6c0.1-2.3-0.5-4.5-0.9-6.7
	c-26-151-75.3-240.6-75.3-240.6c-6.1-10.8-14.7-19.4-27.4-20c-0.5,0-0.9,0-1.4,0c-1.8,0-3.6,0.2-5.3,0.5c-4.6,0.9-9.3-1.2-12.2-5
	c-1.8-2.4-3.1-3.8-3.3-4c-0.8-0.8-1.8-1.2-2.8-1.2c-1,0-1.9,0.4-2.7,1.1c-1.5,1.5-1.5,3.9,0,5.5c0,0,0.3,0.3,0.7,0.8
	c3.7,4.4,3.8,10.7,0.4,15.3c-3.4,4.6-5.5,10.2-5.8,16.4c-0.3,5.8,1.1,11.3,3.6,16C232.8,80,303.6,190.1,328.8,305.9z"/>
<path class="st52" d="M325.3,256.6c-1.7,0-3.3-1.1-3.8-2.9c-0.6-2-0.8-4-0.7-6c0.1-2.6-0.8-5-2.5-7c-1.8-2.1-3.3-4.7-4.2-7.5
	c-0.7-2,0.5-4.3,2.5-4.9c2-0.7,4.3,0.5,4.9,2.5c0.6,1.8,1.5,3.5,2.7,4.8c3,3.5,4.6,7.8,4.4,12.4c0,1.2,0.1,2.5,0.5,3.7
	c0.6,2.1-0.6,4.2-2.7,4.8C326,256.6,325.7,256.6,325.3,256.6z"/>
<path class="st52" d="M307.2,200.6c-0.1,0-0.1,0-0.2,0c-2.2-0.1-3.8-2-3.7-4.1c0.2-2.8-0.9-5.4-2.9-7.3c-2.8-2.7-5.1-6.2-6.5-10.1
	c-1.2-3.2-1.7-6.6-1.6-9.9c0.1-2.8-1.3-5.6-3.7-7.5c-4-3.1-7.2-7.6-9.1-12.7c-1.3-3.6-1.9-7.2-1.8-10.9c0.1-3.3-1.3-6.3-3.9-8.2
	c-4.3-3-7.8-7.3-10.1-12.4c-2-4.5-3.1-9.2-3-13.9c0.1-2.9-1.5-5.6-4.4-7.3c-5.1-3-9.4-7.7-12.3-13.4c-2.5-4.9-3.9-10.3-3.9-15.5
	c0-2.2,1.7-3.9,3.9-3.9c0,0,0,0,0,0c2.1,0,3.9,1.7,3.9,3.9c0,4,1.1,8.1,3.1,12c2.3,4.4,5.6,8,9.4,10.3c5.3,3.1,8.3,8.4,8.2,14.2
	c-0.1,3.4,0.7,7,2.3,10.4c1.8,3.9,4.4,7.1,7.5,9.3c4.8,3.4,7.5,8.8,7.2,14.8c-0.1,2.6,0.4,5.3,1.3,7.9c1.4,3.8,3.7,7,6.5,9.2
	c4.4,3.4,6.9,8.5,6.8,13.8c-0.1,2.3,0.3,4.7,1.2,7c1,2.8,2.6,5.3,4.6,7.2c3.7,3.5,5.6,8.4,5.3,13.4C311,199,309.2,200.6,307.2,200.6
	z"/>
<path class="st16" d="M283.1,151.5c-1.6,0-3.1-1-3.7-2.6c-1.3-3.6-1.9-7.2-1.8-10.9c0.1-3.3-1.3-6.3-3.9-8.2
	c-4.3-3-7.8-7.3-10.1-12.4c-2-4.5-3.1-9.2-3-13.9c0.1-2.9-1.5-5.6-4.4-7.3c-5.1-3-9.4-7.7-12.3-13.4c-2.5-4.9-3.9-10.3-3.9-15.5
	c0-2.2,1.7-3.9,3.9-3.9c0,0,0,0,0,0c2.1,0,3.9,1.7,3.9,3.9c0,4,1.1,8.1,3.1,12c2.3,4.4,5.6,8,9.4,10.3c5.3,3.1,8.3,8.4,8.2,14.2
	c-0.1,3.4,0.7,7,2.3,10.4c1.8,3.9,4.4,7.1,7.5,9.3c4.8,3.4,7.5,8.8,7.2,14.8c-0.1,2.6,0.4,5.3,1.3,7.9c0.7,2-0.3,4.3-2.3,5
	C284,151.4,283.5,151.5,283.1,151.5z"/>
<path class="st52" d="M331.9,208.8c-0.2,0-0.3,0-0.5,0c-2.1-0.3-3.7-2.2-3.4-4.4c0.3-2.2,0-4.5-0.7-6.8c-0.6-1.9-1.6-3.7-2.8-5.1
	c-3.1-3.8-4.3-8.8-3.5-14.1c0.4-2.9,0.1-6-1-9c-1.1-3.1-2.9-5.7-5.1-7.7c-4.2-3.6-6.3-8.6-5.7-13.6c0.4-3.1,0-6.4-1.2-9.6
	c-1.2-3.4-3.2-6.3-5.6-8.5c-4.4-3.8-6.6-9.2-5.9-14.6c0.5-3.9-0.3-8.1-2.1-12.1c-2-4.3-5-7.8-8.6-10c-4.3-2.6-6.7-7.6-6-12.4
	c0.8-4.8-0.2-10.2-2.7-15.2c-1-1.9-0.2-4.3,1.7-5.3c1.9-1,4.3-0.2,5.3,1.7c3.3,6.4,4.5,13.5,3.5,20c-0.3,1.6,0.7,3.5,2.3,4.4
	c4.9,3,9.1,7.7,11.7,13.4c2.4,5.3,3.4,10.9,2.8,16.3c-0.3,2.9,0.8,5.7,3.3,7.9c3.5,3,6.2,7.1,7.9,11.7c1.6,4.3,2.1,8.9,1.6,13.2
	c-0.3,2.4,0.8,4.9,3,6.8c3.3,2.8,5.8,6.6,7.4,10.9c1.5,4.2,2,8.7,1.4,12.9c-0.3,2.2-0.3,5.3,1.9,7.9c1.8,2.2,3.2,4.8,4.1,7.6
	c1.1,3.3,1.5,6.9,1.1,10.2C335.6,207.4,333.9,208.8,331.9,208.8z"/>
<ellipse transform="matrix(4.842358e-02 -0.9988 0.9988 4.842358e-02 49.2466 579.4523)" class="st52" cx="328.7" cy="263.9" rx="3.9" ry="3.9"/>
<path class="st52" d="M346.5,312c-0.2,0-0.4,0-0.6,0c-5.9-0.3-10.5-5.1-11.2-11.8c0,0-1.6-11.9-5.8-21c-0.9-2-0.1-4.3,1.9-5.2
	c2-0.9,4.3-0.1,5.2,1.9c4.8,10.3,6.4,22.9,6.5,23.4c0.2,1.8,1.2,4.8,3.8,4.9c2.2,0.1,4.1-1.6,4.2-3.8c0.1-2.2,1.9-3.8,4.1-3.7
	c2.2,0.1,3.8,1.9,3.7,4.1C358,307.1,352.8,312,346.5,312z"/>
</svg>
