<?xml version="1.0" encoding="utf-8"?>
<!-- Generator: Adobe Illustrator 20.0.0, SVG Export Plug-In . SVG Version: 6.00 Build 0)  -->
<svg version="1.1" id="Layer_1" xmlns="http://www.w3.org/2000/svg" xmlns:xlink="http://www.w3.org/1999/xlink" x="0px" y="0px"
	 viewBox="0 0 500 500" style="enable-background:new 0 0 500 500;" xml:space="preserve">
<style type="text/css">
	.st0{fill:#4D6261;}
	.st1{fill:#ECE8DB;stroke:#5B3A03;stroke-width:3;stroke-miterlimit:10;}
	.st2{fill:#BCE680;}
	.st3{fill:none;stroke:#F0FDC5;stroke-linecap:round;stroke-linejoin:round;stroke-miterlimit:10;}
	.st4{fill:#8DC70C;}
	.st5{fill:#ECFE78;}
	.st6{fill:#73953B;}
	.st7{fill:#3D710C;}
	.st8{fill:#73953B;stroke:#3D710C;stroke-width:3;stroke-linejoin:round;stroke-miterlimit:10;}
	.st9{fill:#EFE8D7;stroke:#DABB95;stroke-width:3;stroke-linejoin:round;stroke-miterlimit:10;}
	.st10{opacity:0.6;fill:none;stroke:#BF71B0;stroke-width:3;stroke-miterlimit:10;}
	.st11{opacity:0.4;fill:none;stroke:#BF71B0;stroke-width:3;stroke-miterlimit:10;}
	.st12{opacity:0.3;fill:none;stroke:#BF71B0;stroke-width:3;stroke-miterlimit:10;}
	.st13{opacity:0.2;fill:none;stroke:#BF71B0;stroke-width:3;stroke-miterlimit:10;}
	.st14{opacity:0.1;fill:none;stroke:#BF71B0;stroke-width:3;stroke-miterlimit:10;}
	.st15{fill:#77A45B;}
	.st16{fill:none;stroke:#FFFFFF;stroke-linecap:round;stroke-linejoin:round;stroke-miterlimit:10;}
	.st17{fill:#00FFFF;}
	.st18{fill:#E50F4F;}
	.st19{fill:#5A8700;}
	.st20{fill:#9D9F01;}
	.st21{fill:none;stroke:#BFBF04;stroke-linecap:round;stroke-linejoin:round;stroke-miterlimit:10;}
	.st22{fill:none;stroke:#CAD058;stroke-linecap:round;stroke-linejoin:round;stroke-miterlimit:10;}
	.st23{fill:#E21039;stroke:#930019;stroke-width:3;stroke-linejoin:round;stroke-miterlimit:10;}
	.st24{fill:#77A45B;stroke:#3D710C;stroke-linecap:round;stroke-linejoin:round;stroke-miterlimit:10;}
	.st25{fill:none;stroke:#77A45B;stroke-width:3;stroke-miterlimit:10;}
	.st26{opacity:0.5;fill:none;stroke:#FFFFFF;stroke-width:3;stroke-linejoin:round;stroke-miterlimit:10;}
	.st27{opacity:0.7;fill:none;stroke:#FFFFFF;stroke-width:3;stroke-linejoin:round;stroke-miterlimit:10;}
	.st28{opacity:0.9;fill:none;stroke:#FFFFFF;stroke-width:3;stroke-linejoin:round;stroke-miterlimit:10;}
	.st29{opacity:0.3;fill:none;stroke:#FFFFFF;stroke-width:3;stroke-linejoin:round;stroke-miterlimit:10;}
	.st30{opacity:0.2;fill:none;stroke:#FFFFFF;stroke-width:3;stroke-linejoin:round;stroke-miterlimit:10;}
	.st31{fill:#E21039;}
	.st32{fill:#930019;}
	.st33{fill:#F4E5E8;}
	.st34{fill:#DEB2BA;}
	.st35{fill:#C8818D;}
	.st36{fill:#B14D5F;}
	.st37{fill:#FFFFFF;}
	.st38{fill:#EFE8D7;}
	.st39{fill:#DABB95;}
	.st40{fill:#E50F4F;stroke:#930019;stroke-width:3;stroke-linejoin:round;stroke-miterlimit:10;}
	.st41{fill:none;stroke:#E87C94;stroke-width:3;stroke-linejoin:round;stroke-miterlimit:10;}
	.st42{fill:none;stroke:#E64872;stroke-width:3;stroke-linejoin:round;stroke-miterlimit:10;}
	.st43{fill:none;stroke:#EBB2B6;stroke-width:3;stroke-linejoin:round;stroke-miterlimit:10;}
	.st44{fill:none;stroke:#930019;stroke-width:3;stroke-linejoin:round;stroke-miterlimit:10;}
	.st45{fill:#E87C94;}
	.st46{fill:#E64872;}
	.st47{fill:#EBB2B6;}
	.st48{opacity:0.7;fill:none;stroke:#E50F4F;stroke-width:3;stroke-linejoin:round;stroke-miterlimit:10;}
	.st49{opacity:0.6;fill:none;stroke:#E50F4F;stroke-width:3;stroke-linejoin:round;stroke-miterlimit:10;}
	.st50{opacity:0.4;fill:none;stroke:#E50F4F;stroke-width:3;stroke-linejoin:round;stroke-miterlimit:10;}
	.st51{opacity:0.3;fill:none;stroke:#E50F4F;stroke-width:3;stroke-linejoin:round;stroke-miterlimit:10;}
	.st52{opacity:0.2;fill:none;stroke:#E50F4F;stroke-width:3;stroke-linejoin:round;stroke-miterlimit:10;}
	.st53{opacity:0.1;fill:none;stroke:#E50F4F;stroke-width:3;stroke-linejoin:round;stroke-miterlimit:10;}
	.st54{fill:none;stroke:#DABB95;stroke-width:3;stroke-linejoin:round;stroke-miterlimit:10;}
	.st55{fill:#77A45B;stroke:#3D710C;stroke-width:0.9521;stroke-linecap:round;stroke-linejoin:round;stroke-miterlimit:10;}
	.st56{fill:#E76886;}
	.st57{fill:#E87D94;}
	.st58{fill:#E992A2;}
	.st59{fill:#EBA7AF;}
	.st60{fill:#ECBDBD;}
	.st61{fill:#EDD2CA;}
	.st62{opacity:0.6;fill:#BF71B0;}
	.st63{opacity:0.5;fill:#BF71B0;}
	.st64{opacity:0.4;fill:#BF71B0;}
	.st65{opacity:0.3;fill:#BF71B0;}
	.st66{opacity:0.2;fill:#BF71B0;}
	.st67{fill:#FCD24F;stroke:#BA8822;stroke-width:3;stroke-linejoin:round;stroke-miterlimit:10;}
	.st68{opacity:0.9;fill:none;stroke:#732429;stroke-width:3;stroke-miterlimit:10;}
	.st69{opacity:0.8;fill:none;stroke:#732429;stroke-width:3;stroke-miterlimit:10;}
	.st70{opacity:0.7;fill:none;stroke:#732429;stroke-width:3;stroke-miterlimit:10;}
	.st71{opacity:0.6;fill:none;stroke:#732429;stroke-width:3;stroke-miterlimit:10;}
	.st72{opacity:0.5;fill:none;stroke:#732429;stroke-width:3;stroke-miterlimit:10;}
	.st73{opacity:0.4;fill:none;stroke:#732429;stroke-width:3;stroke-miterlimit:10;}
	.st74{fill:none;stroke:#BA8822;stroke-width:3;stroke-linejoin:round;stroke-miterlimit:10;}
	.st75{fill:#FCD24F;}
	.st76{fill:#BA8822;}
	.st77{fill:#80352F;}
	.st78{fill:#8D4734;}
	.st79{fill:#9B5838;}
	.st80{fill:#A96A3D;}
	.st81{fill:#B77A42;}
	.st82{fill:#C48B47;}
	.st83{fill:#5B774B;}
	.st84{fill:none;stroke:#ECFE78;stroke-linecap:round;stroke-linejoin:round;stroke-miterlimit:10;}
	.st85{fill:none;stroke:#5B774B;stroke-miterlimit:10;}
	.st86{fill:none;stroke:#ECFE78;stroke-linecap:round;stroke-miterlimit:10;}
	.st87{fill:none;stroke:#5B774B;stroke-linejoin:round;stroke-miterlimit:10;}
	.st88{fill:none;stroke:#89A037;stroke-linecap:round;stroke-linejoin:round;stroke-miterlimit:10;}
	.st89{fill:none;stroke:#89A037;stroke-width:3;stroke-linecap:round;stroke-linejoin:round;stroke-miterlimit:10;}
	.st90{fill:none;stroke:#89A037;stroke-width:3.3343;stroke-linecap:round;stroke-linejoin:round;stroke-miterlimit:10;}
	.st91{fill:#F0FDC5;}
	.st92{fill:#839958;}
	.st93{fill:#AA2F66;}
	.st94{fill:#D8CBC5;}
	.st95{fill:#662128;}
	.st96{fill:#BCE680;stroke:#5B774B;stroke-width:3.1491;stroke-miterlimit:10;}
	.st97{fill:#ECE8DB;stroke:#5B3A03;stroke-miterlimit:10;}
	.st98{fill:none;stroke:#00FF00;stroke-miterlimit:10;}
	.st99{fill:none;stroke:#00FF00;stroke-width:1.0757;stroke-miterlimit:10;}
	.st100{fill:none;stroke:#000000;stroke-miterlimit:10;}
	.st101{fill:none;stroke:#000000;stroke-width:1.16;stroke-miterlimit:10;}
	.st102{fill:#7AA66D;}
	.st103{fill:#8BC133;}
	.st104{fill:none;stroke:#000000;stroke-width:0.9135;stroke-miterlimit:10;}
	.st105{fill:none;stroke:#000000;stroke-width:5.9645;stroke-miterlimit:10;}
	.st106{fill:none;stroke:#000000;stroke-width:1.9086;stroke-linecap:round;stroke-linejoin:round;stroke-miterlimit:10;}
	.st107{fill:none;stroke:#4D6261;stroke-width:0.9577;stroke-linecap:round;stroke-linejoin:round;stroke-miterlimit:10;}
	.st108{fill:#7AA66D;stroke:#4D6261;stroke-width:0.9577;stroke-miterlimit:10;}
	.st109{fill:none;stroke:#4D6261;stroke-width:0.9577;stroke-miterlimit:10;}
</style>
<path class="st0" d="M250,26.6c28.6,0,53.2,17.4,63.8,42.1c4.8,11.3,15.4,18.7,27.7,19.6c18.7,1.3,36.8,10.2,49.4,26
	c9.7,12.2,14.6,26.7,15,41.2c0.3,11.9,6.7,22.7,17.3,28.1c17.6,9,31.2,25.4,36,46.1c1.3,5.7,1.8,11.4,1.8,17
	c0,76.3-67.2,84.5-67.2,84.5c-3.1,0.5-6.2,0.8-9.3,1c-23.7,18.6-72.2,64.5-72.2,127.2c0,0-28.7,14.2-65.8,14.2
	c-18.6,0-39.2-3.5-59.4-14.2c0-62.8-48.6-108.7-72.3-127.3c-2.9-0.2-5.7-0.5-8.6-1c0,0-67.2-5.1-67.2-85.9
	c0-26.8,15.2-49.9,37.4-61.5c10.7-5.6,17.4-16.3,17.7-28.4c0.4-14.6,5.3-29.1,15.1-41.4c12.6-15.8,30.7-24.6,49.3-25.9
	c12.3-0.9,22.8-8.2,27.7-19.5C196.7,44,221.3,26.6,250,26.6 M250,3c-37.3,0-70.9,22.2-85.5,56.6c-1.3,3-4.1,4.9-7.6,5.2
	c-25.9,1.8-50,14.5-66.1,34.7C78,115.4,71,134.6,70.5,155c-0.1,3.6-1.9,6.4-5,8.1c-30.9,16.1-50.1,47.7-50.1,82.4
	c0,52.1,23.9,79.2,44,92.8c19.2,13,38.4,15.9,43.8,16.5c0.8,0.1,1.6,0.2,2.3,0.3c52.2,43.5,58,87.3,58,104.5
	c0,8.8,4.9,16.8,12.6,20.9c21.3,11.2,45,16.9,70.4,16.9c42.1,0,74.9-15.9,76.3-16.6c8.1-4,13.2-12.2,13.2-21.2
	c0-22.4,7.7-44.8,23-66.7c11.3-16.1,24.4-28.9,34.9-37.7c1.2-0.1,2.3-0.3,3.5-0.5c4.3-0.6,23.8-4,43.5-17.5
	c20-13.8,43.8-40.6,43.8-90.3c0-8.1-0.8-15.4-2.4-22.3c-6.2-26.8-23.8-49.3-48.3-61.8c-3.9-2-4.4-6.1-4.4-7.7
	c-0.5-20.3-7.5-39.4-20.1-55.3c-16.1-20.3-40.3-33-66.2-34.9c-3.6-0.3-6.4-2.2-7.7-5.3C320.8,25.2,287.3,3,250,3L250,3z"/>
<path class="st102" d="M39,245.4c0-26.8,15.2-49.9,37.4-61.5c10.7-5.6,17.4-16.3,17.7-28.4c0.4-14.6,5.3-29.1,15.1-41.4
	c12.6-15.8,30.7-24.6,49.3-25.9c12.3-0.9,22.8-8.2,27.7-19.5C196.7,44,221.3,26.6,250,26.6c28.6,0,53.2,17.4,63.8,42.1
	c4.8,11.3,15.4,18.7,27.7,19.6c18.7,1.3,36.8,10.2,49.4,26c9.7,12.2,14.6,26.7,15,41.2c0.3,11.9,6.7,22.7,17.3,28.1
	c17.6,9,31.2,25.4,36,46.1c1.3,5.7,1.8,11.4,1.8,17c0,76.3-67.2,84.5-67.2,84.5c-26.8,4.5-52.7-4.9-70.4-22.9
	c-12.6,28-40.7,47.5-73.4,47.5s-60.8-19.5-73.4-47.5c-17.8,18-43.6,27.4-70.4,22.9C106.2,331.3,39,326.2,39,245.4z"/>
<path class="st103" d="M110.3,343.7c21.6,17.6,65,59.9,65,115.8c0,4.4,2.4,8.4,6.3,10.4c19.6,10.3,41.4,15.5,64.9,15.5c0,0,0,0,0,0
	c39.4,0,69.8-14.8,71.1-15.4c4-2,6.6-6.1,6.6-10.6c0-55.8,43.3-98.1,64.9-115.7l-9.2-11.2c0,0-29.7-0.6-56.2-22.2
	c0,0-22.4,45.4-73.6,45.4s-73.4-47.5-73.4-47.5s-16.9,21.1-66.5,25.2L110.3,343.7z"/>
<path class="st0" d="M385.5,170.3c-1.3-0.9-1.9-2.6-1.5-4.2c5-18.3-2.7-38.2-19.4-48.1c-16.6-9.8-37.2-7.3-50.8,5.3
	c-1.4,1.3-3.5,1.3-4.9,0.1c-13.8-11.5-33.9-13.3-49.7-3.7c-4.9,3-9,6.8-12.3,11.2c-1.6,2.2-5,2-6.4-0.4
	c-6.5-11.8-18.4-20.3-32.8-22.2c-21-2.7-40.4,9.7-47.1,29.1c-0.6,1.7-2.4,2.8-4.2,2.4c-18.3-3.4-37.4,5.3-46.6,22.1
	c-9.7,17.8-5.9,39.6,8.5,53.1c1.2,1.1,1.5,2.9,0.9,4.3c-8,17.8-3.3,39.2,12.2,51.9c15.3,12.6,36.6,13.2,52.4,2.5
	c1.6-1.1,3.8-0.8,5,0.6c8.4,9.6,20.6,14.9,33.1,14.9c5.6,0,11.3-1.1,16.7-3.3c14.2-5.9,23.7-18.3,26.3-32.5c0.3-1.7,1.8-3,3.5-3.1
	c0,0,0,0,0.1,0c1.9-0.1,3.5,1.2,3.9,3c4.5,19,21.4,32.7,41.5,32.7c0.3,0,0.7,0,1,0c20.6-0.5,37.3-15.2,41-34.7
	c0.3-1.8,1.9-3.2,3.8-3.2c18.1,0.5,35.1-10.7,41.5-28.2C408.1,201.5,401.2,181.2,385.5,170.3z M256.6,234.9c5.5,18-3.4,37-20.7,44.2
	c-16.6,6.9-36,0.5-45.2-14.9l-0.5-0.8c-1-1.7-3.3-2-4.7-0.6l-0.7,0.7c-13.3,13.1-34.1,14-48.5,2.2c-14.2-11.6-17.5-32.1-7.6-47.6
	l0.4-0.6c0.9-1.4,0.5-3.2-0.8-4.1l-0.6-0.4c-15.2-10.6-20-30.9-11.1-47.2c8.6-15.8,27.8-22.9,44.7-16.6l0.9,0.3
	c1.8,0.7,3.7-0.5,4-2.3l0.2-0.9c3.1-19.5,20.9-32.8,40.5-30.3c19.6,2.5,33.4,19.9,31.5,39.5l-0.1,0.9c-0.2,1.9,1.4,3.5,3.3,3.3
	l0.9-0.1c18.9-2,35.8,10.6,39.4,29.2c3.4,17.4-6.2,34.5-22.7,40.8C257.1,230.4,255.9,232.7,256.6,234.9z M394.2,217.5
	c-5.9,16.4-23.3,26.1-40.4,22.4l-0.9-0.2c-1.9-0.4-3.6,1-3.6,2.9l0,0.9c-0.2,19.1-15.3,34.5-34.4,34.9c-0.3,0-0.6,0-0.9,0
	c-18.7,0-34.1-14.5-35.1-33.3l-0.1-0.9c-0.1-1.9-1.9-3.2-3.8-2.7l-0.9,0.2c-1.8,0.5-3.6,0.8-5.3,1c-1.7,0.2-3.3-1.1-3.5-2.8
	c-0.1-0.7-0.2-1.4-0.3-2.2c-0.2-1.4,0.4-2.7,1.6-3.4c16.9-8.9,26.3-27.9,22.6-47.1c-3.8-19.8-20.1-33.9-39.5-35.4
	c-1.8-0.1-3.1-1.9-2.7-3.7c2.1-9,7.8-17.2,16.4-22.3c15-8.9,34.4-5.1,45.5,8.4l0.3,0.3c1.2,1.5,3.6,1.4,4.7-0.1l0.6-0.8
	c10.8-14.5,30.7-18.4,46.2-9.2c15.3,9.1,21.4,28.2,14.3,44.5l-0.3,0.7c-0.6,1.5,0,3.2,1.4,3.9l0.7,0.3
	C392.8,181.8,400.4,200.6,394.2,217.5z"/>
<path class="st0" d="M482.2,224.5c-6.2-26.8-23.8-49.3-48.3-61.8c-3.9-2-4.4-6.1-4.4-7.7c-0.5-20.3-7.5-39.4-20.1-55.3
	c-16.1-20.3-40.3-33-66.2-34.9c-3.6-0.3-6.4-2.2-7.7-5.3C320.8,25.2,287.3,3,250,3c-37.3,0-70.9,22.2-85.5,56.6
	c-1.3,3-4.1,4.9-7.6,5.2c-25.9,1.8-50,14.5-66.1,34.7C78,115.4,71,134.6,70.5,155c-0.1,3.4-2,6.5-5,8.1
	c-30.9,16.1-50.1,47.7-50.1,82.4c0,52.1,23.9,79.2,44,92.8c19.2,13,38.4,15.9,43.8,16.5c0,0,0,0,0,0c1.5,0.2,2.9,0.9,4.1,1.8
	c50.6,43,56.2,86,56.2,102.9c0,8.8,4.9,16.8,12.6,20.9c21.3,11.2,45,16.9,70.4,16.9c42.1,0,74.9-15.9,76.3-16.6
	c8.1-4,13.2-12.2,13.2-21.2c0-22.4,7.7-44.8,23-66.7c10.6-15.2,22.9-27.4,33.1-36.1c1.2-1,2.6-1.7,4.1-1.9c0.4-0.1,0.8-0.1,1.2-0.2
	c4.3-0.6,23.8-4,43.5-17.5c20-13.8,43.8-40.6,43.8-90.3C484.6,238.7,483.8,231.4,482.2,224.5z M312.5,453.3
	c-0.2,3.9-2.7,7.4-6.4,8.9c-10.4,4.1-32.8,11.5-59.6,11.5c-16.8,0-35.3-2.9-53.6-11.3c-3.4-1.6-5.7-4.9-5.9-8.7
	c-2.5-53-39.1-93.2-63.4-114.2c-1.4-1.2-0.6-3.4,1.2-3.5c17.9-1.2,35.1-8,48.9-19.7c0.9-0.8,2.4-0.5,3,0.5
	c5.1,9,11.6,16.8,19.3,23.2c1.3,1.1,2.5,2.2,3.6,3.4c16.5,19.4,23,40.8,23.1,41.2c0.5,1.6,2,2.7,3.6,2.7c0.4,0,0.7-0.1,1.1-0.2
	c2-0.6,3.1-2.7,2.5-4.7c-0.2-0.7-3.6-11.6-11.9-25.2c-1-1.6,0.6-3.5,2.4-2.9c9.3,3.5,19.3,5.4,29.6,5.4c10.3,0,20.4-1.9,29.7-5.4
	c1.8-0.7,3.4,1.3,2.4,2.9c-8.2,13.6-11.7,24.6-11.9,25.3c-0.6,2,0.5,4.1,2.5,4.7c0.4,0.1,0.7,0.2,1.1,0.2c1.6,0,3.1-1,3.6-2.7
	c0-0.2,3.4-11.3,11.5-24.9c5.2-8.7,11.7-16.3,19-23.3c6-5.7,11.2-12.3,15.3-19.7c0.6-1.1,2-1.3,3-0.5c13.7,11.6,30.7,18.4,48.4,19.7
	c1.8,0.1,2.5,2.3,1.2,3.5C351.7,360.4,315.2,400.5,312.5,453.3z M425.5,314.4c-15.8,11-32,13.1-32.2,13.1l-0.2,0
	c-24.5,4.1-49.6-4.1-67.1-21.8l-1.8-1.8c-1-1-2.7-0.7-3.2,0.6l-1.1,2.4c-12.4,27.5-39.8,45.3-69.9,45.3s-57.5-17.8-69.9-45.3
	l-1.1-2.4c-0.6-1.3-2.3-1.6-3.2-0.6l-1.8,1.8c-17.5,17.7-42.6,25.9-67.1,21.8l-0.3,0c-0.2,0-16.3-1.4-32-12.2
	c-21-14.4-31.7-37.9-31.7-69.9c0-24.5,13.5-46.8,35.3-58.1c11.8-6.1,19.5-18.1,19.7-31.3c0.3-14.5,5.2-28.1,14.3-39.5
	c11.4-14.3,28.4-23.2,46.6-24.5c13.7-1,25.6-9.3,30.9-21.8C200,46,223.7,30.4,250,30.4c26.3,0,50,15.6,60.3,39.8
	c5.3,12.5,17.2,20.9,30.9,21.8c18.3,1.3,35.3,10.3,46.7,24.6c8.9,11.2,13.8,24.7,14.2,39c0.3,13.4,7.8,25.5,19.3,31.4
	c17.3,8.8,29.7,24.7,34.1,43.6c1.1,4.9,1.7,10.2,1.7,16.2C457.2,277,446.5,299.8,425.5,314.4z"/>
<ellipse transform="matrix(0.4591 -0.8884 0.8884 0.4591 -65.0952 250.6554)" class="st37" cx="173.3" cy="178.8" rx="6" ry="6"/>
<ellipse transform="matrix(0.4591 -0.8884 0.8884 0.4591 -97.0824 252.8942)" class="st37" cx="159.1" cy="206.2" rx="6" ry="6"/>
<ellipse transform="matrix(0.4591 -0.8884 0.8884 0.4591 -82.9959 224.525)" class="st37" cx="142.9" cy="180.4" rx="6" ry="6"/>
<ellipse transform="matrix(0.8862 -0.4634 0.4634 0.8862 -43.2348 162.7241)" class="st37" cx="309.6" cy="169.4" rx="6" ry="6"/>
<ellipse transform="matrix(0.8862 -0.4634 0.4634 0.8862 -38.7003 148.9191)" class="st37" cx="283.7" cy="153.2" rx="6" ry="6"/>
</svg>
