<?xml version="1.0" encoding="utf-8"?>
<!-- Generator: Adobe Illustrator 20.0.0, SVG Export Plug-In . SVG Version: 6.00 Build 0)  -->
<svg version="1.1" id="Layer_1" xmlns="http://www.w3.org/2000/svg" xmlns:xlink="http://www.w3.org/1999/xlink" x="0px" y="0px"
	 viewBox="0 0 500 500" style="enable-background:new 0 0 500 500;" xml:space="preserve">
<style type="text/css">
	.st0{fill:#8DC70C;}
	.st1{fill:#ECFE78;}
	.st2{fill:#73953B;}
	.st3{fill:#3D710C;}
	.st4{fill:#73953B;stroke:#3D710C;stroke-width:3;stroke-linejoin:round;stroke-miterlimit:10;}
	.st5{fill:#EFE8D7;stroke:#DABB95;stroke-width:3;stroke-linejoin:round;stroke-miterlimit:10;}
	.st6{opacity:0.6;fill:none;stroke:#BF71B0;stroke-width:3;stroke-miterlimit:10;}
	.st7{opacity:0.4;fill:none;stroke:#BF71B0;stroke-width:3;stroke-miterlimit:10;}
	.st8{opacity:0.3;fill:none;stroke:#BF71B0;stroke-width:3;stroke-miterlimit:10;}
	.st9{opacity:0.2;fill:none;stroke:#BF71B0;stroke-width:3;stroke-miterlimit:10;}
	.st10{opacity:0.1;fill:none;stroke:#BF71B0;stroke-width:3;stroke-miterlimit:10;}
	.st11{fill:#77A45B;}
	.st12{fill:none;stroke:#FFFFFF;stroke-linecap:round;stroke-linejoin:round;stroke-miterlimit:10;}
	.st13{fill:#00FFFF;}
	.st14{fill:#E50F4F;}
	.st15{fill:#5A8700;}
	.st16{fill:#9D9F01;}
	.st17{fill:none;stroke:#BFBF04;stroke-linecap:round;stroke-linejoin:round;stroke-miterlimit:10;}
	.st18{fill:none;stroke:#CAD058;stroke-linecap:round;stroke-linejoin:round;stroke-miterlimit:10;}
	.st19{fill:#E21039;stroke:#930019;stroke-width:3;stroke-linejoin:round;stroke-miterlimit:10;}
	.st20{fill:#77A45B;stroke:#3D710C;stroke-linecap:round;stroke-linejoin:round;stroke-miterlimit:10;}
	.st21{fill:none;stroke:#77A45B;stroke-width:3;stroke-miterlimit:10;}
	.st22{opacity:0.5;fill:none;stroke:#FFFFFF;stroke-width:3;stroke-linejoin:round;stroke-miterlimit:10;}
	.st23{opacity:0.7;fill:none;stroke:#FFFFFF;stroke-width:3;stroke-linejoin:round;stroke-miterlimit:10;}
	.st24{opacity:0.9;fill:none;stroke:#FFFFFF;stroke-width:3;stroke-linejoin:round;stroke-miterlimit:10;}
	.st25{opacity:0.3;fill:none;stroke:#FFFFFF;stroke-width:3;stroke-linejoin:round;stroke-miterlimit:10;}
	.st26{opacity:0.2;fill:none;stroke:#FFFFFF;stroke-width:3;stroke-linejoin:round;stroke-miterlimit:10;}
	.st27{fill:#E21039;}
	.st28{fill:#930019;}
	.st29{fill:#F4E5E8;}
	.st30{fill:#DEB2BA;}
	.st31{fill:#C8818D;}
	.st32{fill:#B14D5F;}
	.st33{fill:#FFFFFF;}
	.st34{fill:#EFE8D7;}
	.st35{fill:#DABB95;}
	.st36{fill:#E50F4F;stroke:#930019;stroke-width:3;stroke-linejoin:round;stroke-miterlimit:10;}
	.st37{fill:none;stroke:#E87C94;stroke-width:3;stroke-linejoin:round;stroke-miterlimit:10;}
	.st38{fill:none;stroke:#E64872;stroke-width:3;stroke-linejoin:round;stroke-miterlimit:10;}
	.st39{fill:none;stroke:#EBB2B6;stroke-width:3;stroke-linejoin:round;stroke-miterlimit:10;}
	.st40{fill:none;stroke:#930019;stroke-width:3;stroke-linejoin:round;stroke-miterlimit:10;}
	.st41{fill:#E87C94;}
	.st42{fill:#E64872;}
	.st43{fill:#EBB2B6;}
	.st44{opacity:0.7;fill:none;stroke:#E50F4F;stroke-width:3;stroke-linejoin:round;stroke-miterlimit:10;}
	.st45{opacity:0.6;fill:none;stroke:#E50F4F;stroke-width:3;stroke-linejoin:round;stroke-miterlimit:10;}
	.st46{opacity:0.4;fill:none;stroke:#E50F4F;stroke-width:3;stroke-linejoin:round;stroke-miterlimit:10;}
	.st47{opacity:0.3;fill:none;stroke:#E50F4F;stroke-width:3;stroke-linejoin:round;stroke-miterlimit:10;}
	.st48{opacity:0.2;fill:none;stroke:#E50F4F;stroke-width:3;stroke-linejoin:round;stroke-miterlimit:10;}
	.st49{opacity:0.1;fill:none;stroke:#E50F4F;stroke-width:3;stroke-linejoin:round;stroke-miterlimit:10;}
	.st50{fill:none;stroke:#DABB95;stroke-width:3;stroke-linejoin:round;stroke-miterlimit:10;}
	.st51{fill:#77A45B;stroke:#3D710C;stroke-width:0.9521;stroke-linecap:round;stroke-linejoin:round;stroke-miterlimit:10;}
	.st52{fill:#E76886;}
	.st53{fill:#E87D94;}
	.st54{fill:#E992A2;}
	.st55{fill:#EBA7AF;}
	.st56{fill:#ECBDBD;}
	.st57{fill:#EDD2CA;}
	.st58{opacity:0.6;fill:#BF71B0;}
	.st59{opacity:0.5;fill:#BF71B0;}
	.st60{opacity:0.4;fill:#BF71B0;}
	.st61{opacity:0.3;fill:#BF71B0;}
	.st62{opacity:0.2;fill:#BF71B0;}
	.st63{fill:#FCD24F;stroke:#BA8822;stroke-width:3;stroke-linejoin:round;stroke-miterlimit:10;}
	.st64{opacity:0.9;fill:none;stroke:#732429;stroke-width:3;stroke-miterlimit:10;}
	.st65{opacity:0.8;fill:none;stroke:#732429;stroke-width:3;stroke-miterlimit:10;}
	.st66{opacity:0.7;fill:none;stroke:#732429;stroke-width:3;stroke-miterlimit:10;}
	.st67{opacity:0.6;fill:none;stroke:#732429;stroke-width:3;stroke-miterlimit:10;}
	.st68{opacity:0.5;fill:none;stroke:#732429;stroke-width:3;stroke-miterlimit:10;}
	.st69{opacity:0.4;fill:none;stroke:#732429;stroke-width:3;stroke-miterlimit:10;}
	.st70{fill:none;stroke:#BA8822;stroke-width:3;stroke-linejoin:round;stroke-miterlimit:10;}
	.st71{fill:#FCD24F;}
	.st72{fill:#BA8822;}
	.st73{fill:#80352F;}
	.st74{fill:#8D4734;}
	.st75{fill:#9B5838;}
	.st76{fill:#A96A3D;}
	.st77{fill:#B77A42;}
	.st78{fill:#C48B47;}
	.st79{fill:#BCE680;}
	.st80{fill:#89A037;}
	.st81{fill:none;stroke:#F0FDC5;stroke-linecap:round;stroke-linejoin:round;stroke-miterlimit:10;}
	.st82{fill:none;stroke:#89A037;stroke-miterlimit:10;}
	.st83{fill:none;stroke:#F0FDC5;stroke-linecap:round;stroke-miterlimit:10;}
	.st84{fill:none;stroke:#89A037;stroke-linejoin:round;stroke-miterlimit:10;}
	.st85{fill:#5B774B;}
</style>
<path class="st0" d="M80,463.5c-29.7-7-39.5-33.5-40.5-46.5l-0.4-5.6l149-119.9c-30.1-8.4-51.3-37.1-49.1-69.5
	c2.3-35.4,31.9-63.1,67.3-63.1c1.5,0,3,0,4.5,0.1c34.3,2.3,61,30,63,63.5l41.3-33.2c-33.4-6-57.7-36.3-55.4-70.9
	c2.3-35.4,31.9-63.1,67.3-63.1c1.5,0,3,0.1,4.5,0.1c36.5,2.4,64.4,33.6,63,69.9l52.5-42.2l17.8,20.4l-102.9,98
	c4.2,0.5,8.3,1.4,12.3,2.7c35.4,11.4,55,49.5,43.6,85c-9,28-34.8,46.9-64.3,46.9c0,0,0,0,0,0c-7,0-14-1.1-20.7-3.3
	c-17.2-5.5-31.2-17.4-39.4-33.4c-4.2-8.1-6.6-16.8-7.3-25.7l-42.2,40.2c3.1,0.5,6.1,1.3,9.1,2.2c17.2,5.5,31.2,17.4,39.4,33.4
	s9.7,34.3,4.2,51.5c-9,28-34.8,46.9-64.3,46.9c-7,0-14-1.1-20.7-3.3c-17.2-5.5-31.2-17.4-39.4-33.4c-3.7-7.1-6-14.7-7-22.4l-79.7,76
	L80,463.5z"/>
<g>
	<path class="st1" d="M367.1,250.1c-0.1-0.5-3-11.7-13.4-19.2c4.7-3.5,13.6-8.8,24.5-8.8l0.5-7.1c-15.5-0.2-27.3,8.4-31.7,12.1
		c-10.1-4.1-22.5-3.6-37.1,1.7l-5.4,9.9c17.2-7.8,31.1-9.3,41.4-4.3c11.3,5.4,14.3,17.1,14.4,17.3L367.1,250.1z"/>
	<path class="st1" d="M366.8,283.4c4.3-1.9,11.5-5.6,19-11.5c3.1,6,12.3,19.9,31.3,19.9c0.7,0,3.8-7.2,1.9-7.1
		c-19.3,1.1-26.6-15-27.6-17.6c7-6.7,13.6-15.5,17.6-26.8c0.6-1.8-6-4.2-6.7-2.3c-7.9,22.6-28.4,34.3-37.4,38.5L366.8,283.4z"/>
	<path class="st1" d="M339.5,243.5c-16.4,16.5-14.5,35.8-12.7,44c-8.5,0.3-19.5-1.3-30.7-8.5l-3.8,5.9c7.2,4.6,14.2,7.2,20.7,8.6
		c3.3,6.6,17.4,30.3,50.4,40.1l2-6.8c-24.9-7.4-38.1-23.6-43.6-32.2c9.8,0.5,17.6-1.6,21.5-3c4.4,5.4,16.8,18.2,36.7,19.1l0.3-7.1
		c-21-0.9-32.7-18.1-32.8-18.2c-1-1.5-2.8-2-4.4-1.3c-0.1,0-3.5,1.6-9.1,2.6c-1.5-6.2-3.7-23.8,10.9-38.5L339.5,243.5z"/>
</g>
<g>
	<path class="st1" d="M184.7,217.4c-0.5,0.3-10.7,5.7-15.4,17.6c-4.5-3.7-11.8-11.1-14.5-21.6l-7,1.2c3.6,15,14.8,24.5,19.5,27.8
		c-1.6,10.8,2,22.7,10.6,35.6L189,281c-11.8-14.8-16.5-27.9-14.2-39.1c2.5-12.3,13.1-18.1,13.3-18.2L184.7,217.4z"/>
	<path class="st1" d="M217.1,209.7c-2.9-3.7-8.2-9.8-15.8-15.6c5.1-4.5,16.3-16.7,11.7-35.2c-0.2-0.7-8-2-7.4-0.1
		c5.8,18.4-8.1,29.4-10.3,31c-8.2-5.2-18.3-9.5-30.3-10.6c-1.9-0.2-2.6,6.9-0.6,7c23.9,2.2,40.2,19.2,46.5,26.9L217.1,209.7z"/>
	<path class="st1" d="M239,273.1c0.9-4.9,1.2-9.5,1-13.7c5.6-4.8,25.2-24.2,26.7-58.7l-7.1-0.3c-1.1,25.9-13.7,42.7-20.7,50.1
		c-1.9-9.6-5.8-16.7-8.1-20.2c4.2-5.5,13.6-20.7,9.6-40.2l-6.9,1.4c4.2,20.6-9.6,36.1-9.7,36.3c-1.2,1.3-1.2,3.2-0.1,4.6
		c0.1,0.1,2.4,3.1,4.7,8.2c-5.6,3-22.2,9.4-40-1.2l-3.2,6.3c20,11.9,38.2,5.4,45.7,1.6c2.4,8.2,3.5,19.2-0.8,31.9L239,273.1z"/>
</g>
<g>
	<path class="st1" d="M305.6,112.6c-0.5,0.3-10.7,5.7-15.4,17.6c-4.5-3.7-11.8-11.1-14.5-21.6l-7,1.2c3.6,15,14.8,24.5,19.5,27.8
		c-1.6,10.8,2,22.7,10.6,35.6l10.9,2.9c-11.8-14.8-16.5-27.9-14.2-39.1c2.5-12.3,13.1-18.1,13.3-18.2L305.6,112.6z"/>
	<path class="st1" d="M337.9,104.9c-2.9-3.7-8.2-9.8-15.8-15.6c5.1-4.5,16.3-16.7,11.7-35.2c-0.2-0.7-8-2-7.4-0.1
		c5.8,18.4-8.1,29.4-10.3,31c-8.2-5.2-18.3-9.5-30.3-10.6c-1.9-0.2-2.6,6.9-0.6,7c23.9,2.2,40.2,19.2,46.5,26.9L337.9,104.9z"/>
	<path class="st1" d="M359.8,168.4c0.9-4.9,1.2-9.5,1-13.7c5.6-4.8,25.2-24.2,26.7-58.7l-7.1-0.3c-1.1,25.9-13.7,42.7-20.7,50.1
		c-1.9-9.6-5.8-16.7-8.1-20.2c4.2-5.5,13.6-20.7,9.6-40.2l-6.9,1.4c4.2,20.6-9.6,36.1-9.7,36.3c-1.2,1.3-1.2,3.2-0.1,4.6
		c0.1,0.1,2.4,3.1,4.7,8.2c-5.6,3-22.2,9.4-40-1.2l-3.2,6.3c20,11.9,38.2,5.4,45.7,1.6c2.4,8.2,3.5,19.2-0.8,31.9L359.8,168.4z"/>
</g>
<path class="st1" d="M246.3,361.8c-0.1-0.5-3-11.7-13.4-19.2c4.7-3.5,13.6-8.8,24.5-8.8l0.5-7.1c-15.5-0.2-27.3,8.4-31.7,12.1
	c-10.1-4.1-22.5-3.6-37.1,1.7l-5.4,9.9c17.2-7.8,31.1-9.3,41.4-4.3c11.3,5.4,14.3,17.1,14.4,17.3L246.3,361.8z"/>
<path class="st1" d="M246,395.1c4.3-1.9,11.5-5.6,19-11.5c3.1,6,12.3,19.9,31.3,19.9c0.7,0,3.8-7.2,1.9-7.1
	c-19.3,1.1-26.6-15-27.6-17.6c7-6.7,13.6-15.5,17.6-26.8c0.6-1.8-6-4.2-6.7-2.3c-7.9,22.6-28.4,34.3-37.4,38.5L246,395.1z"/>
<path class="st1" d="M218.7,355.3c-16.4,16.5-14.5,35.8-12.7,44c-8.5,0.3-19.5-1.3-30.7-8.5l-3.8,5.9c7.2,4.6,14.2,7.2,20.7,8.6
	c3.3,6.6,17.4,30.3,50.4,40.1l2-6.8c-24.9-7.4-38.1-23.6-43.6-32.2c9.8,0.5,17.6-1.6,21.5-3c4.4,5.4,16.8,18.2,36.7,19.1l0.3-7.1
	c-21-0.9-32.7-18.1-32.8-18.2c-1-1.5-2.8-2-4.4-1.3c-0.1,0-3.5,1.6-9.1,2.6c-1.5-6.2-3.7-23.8,10.9-38.5L218.7,355.3z"/>
<path class="st85" d="M466,88.9l-4.4-5c-4.2-4.8-10.1-7.2-16-7.2c-4.7,0-9.4,1.5-13.3,4.7l-29.3,23.6c-7.7-32.5-35.9-57.7-70.9-60
	c-1.7-0.1-3.5-0.2-5.2-0.2c0,0,0,0,0,0c-19.8,0-38.7,7.5-53.2,21c-14.6,13.6-23.3,32.1-24.7,52c-1.4,20.8,5.4,40.9,19.2,56.6
	c7.1,8.1,15.5,14.5,24.9,19l-12.2,9.9c-9.4-29.9-36.3-52.5-69.4-54.7c-1.7-0.1-3.5-0.2-5.2-0.2c-19.8,0-38.7,7.5-53.2,21
	c-14.6,13.6-23.3,32.1-24.7,52c-2,30.8,14.1,58.6,39.3,73L36.7,399.7c-5.5,4.4-8.4,11.2-7.9,18.2c0.2,2,1.2,12.4,7.2,24
	c8.6,16.6,22.9,27.7,41.4,32c1.6,0.4,3.3,0.6,4.9,0.6c5.4,0,10.6-2.1,14.6-5.9l62.5-59.6c1,2.4,2,4.8,3.2,7.2
	c9.5,18.6,25.7,32.3,45.6,38.7c7.8,2.5,15.8,3.8,23.9,3.8c16.4,0,32.2-5.1,45.6-14.7c13.7-9.8,23.6-23.5,28.8-39.5
	c6.4-19.9,4.7-41-4.9-59.6c-8.2-16-21.3-28.4-37.5-35.6l15.5-14.7c7.8,22.3,25.6,40.8,49.8,48.5c7.8,2.5,15.8,3.8,23.9,3.8
	c16.4,0,32.2-5.1,45.6-14.7c13.7-9.8,23.6-23.5,28.8-39.5c12.6-39.2-7.5-81.1-45-96.3l81.8-77.9C472.9,110.4,473.5,97.5,466,88.9z
	 M273.6,119.3c0.1-1.7,0.3-3.3,0.6-4.9c0.4-2.2,1.7-4.1,3.7-5.1c0,0,0,0,0,0c5.1-2.7,10.9-3.2,16.4-1.4c5.3,1.7,9.6,5.4,12.2,10.1
	c-3.7,5.7-5.2,12.9-4.1,21c0.2,1,3.1,19,19.1,35.2c0.7,0.7,0.1,1.9-0.9,1.8C274.7,170.2,273.6,119.3,273.6,119.3z M296.5,101
	c-5.3-1.7-10.9-1.8-16.2-0.3c-0.9,0.2-1.7-0.7-1.3-1.5c8.8-17.8,27.1-29.8,47.8-29.8c1.2,0,2.4,0,3.6,0.1c11.5,0.8,22,5.2,30.3,12
	c0.7,0.6,0.3,1.8-0.6,1.8c-1,0.1-2,0.2-3.1,0.4c-10.3,1.8-18.6,9.1-21.9,18.6c-0.6,1.8-2.3,3-4.2,2.9c-1.7,0-3.4,0.1-5.1,0.4
	c-4.2,0.7-8,2.2-11.2,4.2c-1.8,1.1-4.2,0.7-5.6-0.9C305.7,105.4,301.4,102.6,296.5,101z M336.3,175.4c-1.3,0.2-2.6-0.1-3.6-0.9
	c-6.6-5.2-12.1-11.6-16.3-18.9c-5.6-9.7-6.9-17.7-6.9-17.7c-1.9-13,5-22.9,17.5-25.1c3-0.5,6.1-0.4,9.2,0.4c1,0.3,2.1,0.1,2.9-0.5
	c0.9-0.6,1.4-1.5,1.5-2.6c0.9-9.7,8.1-17.7,17.6-19.3c3-0.5,6.1-0.4,8.9,0.3c2.1,0.5,3.9,1.9,5.1,3.7c6.6,10.6,9.5,23.7,7.2,37.3
	c-1.8,10.2-6.6,19.8-13.7,27.3C357.7,167.9,347.4,173.4,336.3,175.4z M200.8,277.4c0.8,0.8,0.1,2.2-1,2.1
	c-27.9-3.4-48.7-28.1-46.8-56.5c0.1-1.7,0.3-3.3,0.6-4.9c0.4-2.2,1.7-4.1,3.7-5.1l0,0c5.1-2.7,10.9-3.2,16.4-1.4
	c4.2,1.3,7.8,3.9,10.4,7.2c1.2,1.5,1.3,3.5,0.5,5.2c-2.7,5.3-3.7,11.6-2.7,18.6C181.8,242.5,184.6,259.6,200.8,277.4z M175.8,204.7
	c-5.4-1.7-11.1-1.8-16.4-0.3c-0.8,0.2-1.5-0.6-1.1-1.4c8.7-17.9,27.1-30,47.9-30c1.2,0,2.4,0,3.6,0.1c11.8,0.8,22.5,5.4,30.9,12.5
	c0.5,0.4,0.2,1.3-0.4,1.3c-1.3,0.1-2.5,0.2-3.8,0.4c-10.8,1.9-19.4,9.8-22.4,20.1c-0.3,1-1.2,1.6-2.2,1.6c-2.2-0.1-4.5,0-6.7,0.4
	c-5,0.9-9.4,2.8-13,5.4c-0.7,0.5-1.8,0.4-2.3-0.3C186.3,210.1,181.5,206.5,175.8,204.7z M216,279c-1.6,0.3-3.2-0.1-4.4-1.1
	c-6.4-5.2-11.7-11.4-15.9-18.6c-5.6-9.7-6.9-17.7-6.9-17.7c-1.9-13,5-22.9,17.5-25.1c3-0.5,6.1-0.4,9.2,0.4c1,0.3,2.1,0.1,2.9-0.5
	c0.9-0.6,1.4-1.5,1.5-2.6c0.9-9.7,8.1-17.7,17.6-19.3c1.4-0.3,2.9-0.4,4.3-0.3c4.7,0.1,8.9,2.8,11.2,7c5.5,10.1,7.8,22.2,5.7,34.7
	c-1.8,10.2-6.6,19.8-13.7,27.3C237.1,271.5,227,276.9,216,279z M255.8,418.7c-0.2,3.2-1.1,6.1-2.6,8.8c-1,1.8-2.7,3.2-4.7,3.8
	c-5.2,1.7-10.7,2.6-16.3,2.6c-7.1,0-14.4-1.4-21.5-4.5c-9.6-4.2-17.8-11.2-23.4-20.1c-6.1-9.6-8.9-20.6-8.3-31.5
	c0.1-1.9,1.1-3.6,2.5-4.7c6.5-4.8,13.7-8.4,21.5-10.7c10.8-3.1,18.8-2.4,18.9-2.4c13.1,1.4,21,10.4,20.1,23c-0.2,3-1.1,6-2.7,8.8
	c-0.5,0.9-0.6,2-0.2,3s1.2,1.7,2.1,2.1C250.5,400,256.5,409,255.8,418.7z M181.9,363c7.6-22,28.3-36,50.5-36
	c5.4,0,10.9,0.8,16.3,2.6c2.1,0.7,4.2,1.5,6.2,2.4c0.9,0.4,1.6,1.2,2,2.2c0.2,0.6,0.4,1.3,0.6,2c1.3,5.6,0.4,11.4-2.6,16.3
	c-2.6,4.2-6.5,7.3-10.9,8.9c-1,0.4-2.2,0.1-2.9-0.6c-4.5-4.3-10.8-7.1-18.2-7.9c0,0-22.2-1.8-40.1,10.7
	C182.2,363.8,181.7,363.5,181.9,363z M265,340.1c0-0.8,0.8-1.2,1.4-0.7c16.2,13.5,23.5,36,16.6,57.3c-3.6,11.2-10.5,20.3-19.4,26.8
	c-0.6,0.5-1.5-0.1-1.4-0.9c0.2-1.1,0.4-2.3,0.5-3.5c0.8-10.7-4.6-20.8-13.6-26.3c-1.1-0.7-1.7-2.1-1.3-3.3c0.6-2,1-4,1.1-6
	c0.3-4.7-0.3-9.1-1.7-12.9c-0.5-1.4,0.1-2.9,1.4-3.6c4.8-2.3,9.1-6,12-10.8C263.8,351.3,265.3,345.8,265,340.1z M377,306.8
	c-0.3,4-1.7,7.8-4,11c-0.3,0.4-0.7,0.7-1.1,0.8c-5.9,2.2-12.1,3.3-18.5,3.3c-7.1,0-14.4-1.4-21.5-4.5c-9.6-4.2-17.8-11.2-23.4-20.1
	c-6.5-10.2-9.2-21.9-8.2-33.4c0.1-0.6,0.4-1.2,0.9-1.6c6.9-5.4,14.6-9.4,23.1-11.8c10.8-3.1,18.8-2.4,18.9-2.4
	c13.1,1.4,21,10.4,20.1,23c-0.2,3-1.1,6-2.7,8.8c-0.5,0.9-0.6,2-0.2,3s1.2,1.7,2.1,2.1C371.7,288.2,377.6,297.2,377,306.8z
	 M303.5,249.9c7.9-21.3,28.3-34.7,50-34.7c5.4,0,10.9,0.8,16.3,2.6c1.6,0.5,3.1,1.1,4.6,1.7c2,0.9,3.6,2.6,4.1,4.8l0,0.1
	c1.3,5.6,0.4,11.4-2.6,16.3c-2.9,4.8-7.5,8.1-12.7,9.4c-4.6-5-11.3-8.2-19.4-9.1c0,0-23.5-1.7-39.1,9.8
	C304,251.3,303.2,250.7,303.5,249.9z M386.2,231.3c0.1-2,2.5-2.9,3.9-1.6c14.5,13.7,20.7,35,14.2,55.2c-3.2,9.9-9,18.2-16.4,24.5
	c-1.6,1.3-4,0.1-3.8-2c0,0,0,0,0-0.1c0.8-10.9-4.8-21.1-14-26.6c-0.9-0.5-1.3-1.7-1-2.7c0.7-2.1,1.1-4.3,1.2-6.5
	c0.3-4.9-0.3-9.4-1.9-13.3c-0.5-1.2,0.1-2.5,1.2-3c5-2.3,9.4-6,12.4-10.9C384.4,240.3,385.8,235.9,386.2,231.3z M338.7,209
	c-1,0.9-2.2,1.6-3.5,2c-17,5.4-31.4,18.3-38.2,36c-0.7,1.7-1.7,3.3-3.1,4.6l-71.6,68.3c-0.8,0.8-1.9,1.3-3,1.6
	c-20.3,4.5-37.7,19.3-44.5,40.5c-0.5,1.5-0.9,2.9-1.2,4.4l-86,81.9c-3.5,3.4-8.7,4.3-13.2,2.3c-14-6.2-20-18-22.6-26
	c-1.5-4.7,0.1-9.9,3.9-13l153.1-123.2c1.2-1,2.8-1.7,4.3-1.8c12.1-1.4,23.5-6.4,32.9-14.6c8.1-7.1,14-16,17.4-25.9
	c0.5-1.5,1.5-2.8,2.7-3.8l73.4-59c1.4-1.1,3-2,4.7-2.5c8.2-2.4,15.9-6.6,22.5-12.5c5.3-4.7,9.7-10.2,13.1-16.2
	c0.9-1.6,2-2.9,3.4-4.1L443,100c1.5-1.2,3.6-1,4.8,0.4v0c1.2,1.4,1.1,3.5-0.2,4.8L338.7,209z"/>
</svg>
