<svg xmlns="http://www.w3.org/2000/svg" viewBox="0 0 48 48" width="48" height="48"><path fill="#455a64" d="M34.4 44.8l-3-2c-.2-.2-.4-.4-.4-.7l-.9-6.6-3.7-2.8 1.2-1.6 4 3c.2.2.4.4.4.7l.9 6.6 2.6 1.8L34.4 44.8zM35.3 33.7l-2-2c-.1-.1-.2-.3-.3-.5l-.8-3.4L27.8 27l.4-2 5 1c.4.1.7.4.8.7l.9 3.7 1.8 1.8L35.3 33.7zM29.4 22.9l-.7-1.9 3.9-1.6-2.4-4c-.2-.3-.2-.7 0-1.1l2-3 1.7 1.1L32.2 15l2.7 4.5c.2.3.2.6.1.8-.1.3-.3.5-.6.6L29.4 22.9zM13.6 44.8l-1.1-1.7 2.6-1.8.9-6.6c0-.3.2-.5.4-.7l4-3 1.2 1.6-3.7 2.8L17 42.1c0 .3-.2.5-.4.7L13.6 44.8zM12.7 33.7l-1.4-1.4 1.8-1.8.9-3.7c.1-.4.4-.7.8-.7l5-1 .4 2-4.4.9L15 31.2c0 .2-.1.3-.3.5L12.7 33.7zM18.6 22.9l-5-2c-.3-.1-.5-.3-.6-.6C13 20 13 19.7 13.1 19.5l2.7-4.5-1.6-2.5 1.7-1.1 2 3c.2.3.2.7 0 1.1l-2.4 4 3.9 1.6L18.6 22.9z"/><path fill="#4db6ac" d="M26 14h-2C24 4.2 38.3 3 38.9 3l.1 2C38.9 5 26 6 26 14zM24 14h-2C22 6 9.1 5 8.9 5l.1-2C9.7 3 24 4.2 24 14z"/><path fill="#00695c" d="M27,20.8c0,1.7-1.4,3-3,3s-3-1.4-3-3V15c0-1.7,1.4-3,3-3s3,1.4,3,3V20.8z"/><path fill="#26a69a" d="M24,42c-6,0-7-22-7-22c0-1.1,4-2,7-2s7,0.9,7,2C31,20,30,42,24,42z"/><path fill="#00897b" d="M23,41.8c0.3,0.1,0.6,0.2,1,0.2s0.7-0.1,1-0.2V18c-0.3,0-0.7,0-1,0s-0.7,0-1,0V41.8z"/></svg>