<?xml version="1.0" encoding="utf-8"?>
<!-- Generator: Adobe Illustrator 20.0.0, SVG Export Plug-In . SVG Version: 6.00 Build 0)  -->
<svg version="1.1" id="Layer_1" xmlns="http://www.w3.org/2000/svg" xmlns:xlink="http://www.w3.org/1999/xlink" x="0px" y="0px"
	 viewBox="0 0 64 64" style="enable-background:new 0 0 64 64;" xml:space="preserve">
<style type="text/css">
	.st0{display:none;fill:#D1A982;}
	.st1{fill:#81AF5B;}
	.st2{fill:#47771E;}
	.st3{fill:#D0A679;}
	.st4{fill:#CDA973;stroke:#A5794A;stroke-width:3;stroke-miterlimit:10;}
	.st5{fill:#E0C9BB;stroke:#68763A;stroke-width:3;stroke-linecap:round;stroke-miterlimit:10;}
	.st6{fill:none;stroke:#C69C6D;stroke-width:3;stroke-miterlimit:10;}
	.st7{fill:none;stroke:#699273;stroke-width:3;stroke-miterlimit:10;}
	.st8{fill:#689946;}
	.st9{fill:none;stroke:#689946;stroke-width:3;stroke-miterlimit:10;}
	.st10{fill:#00FFFF;}
	.st11{fill:#54665F;}
	.st12{fill:#434D42;}
	.st13{fill:#54665F;stroke:#434D42;stroke-width:2;stroke-linecap:round;stroke-linejoin:round;stroke-miterlimit:10;}
	.st14{fill:#748C8B;}
	.st15{fill:#EFC11E;}
	.st16{fill:none;stroke:#434D42;stroke-linecap:round;stroke-linejoin:round;stroke-miterlimit:10;}
	.st17{fill:none;stroke:#FFFFFF;stroke-linecap:round;stroke-linejoin:round;stroke-miterlimit:10;}
	.st18{fill:#748C8B;stroke:#434D42;stroke-linecap:round;stroke-linejoin:round;stroke-miterlimit:10;}
	.st19{fill:#FFFFFF;}
	.st20{fill:#EFFE99;stroke:#3E4A14;stroke-width:3;stroke-miterlimit:10;}
	.st21{clip-path:url(#SVGID_2_);}
	.st22{fill:none;stroke:#3E4A14;stroke-width:3;stroke-miterlimit:10;}
	.st23{fill:none;stroke:#FFFFFF;stroke-linecap:round;stroke-miterlimit:10;}
	.st24{fill:#EFFE99;}
	.st25{fill:#3E4A14;}
	.st26{fill:#F1C06D;}
	.st27{clip-path:url(#SVGID_4_);}
	.st28{clip-path:url(#SVGID_6_);}
	.st29{fill:none;stroke:#E4D9C8;stroke-linecap:round;stroke-linejoin:round;}
	.st30{clip-path:url(#SVGID_8_);}
	.st31{clip-path:url(#SVGID_10_);}
	.st32{clip-path:url(#SVGID_12_);}
	.st33{clip-path:url(#SVGID_14_);}
	.st34{clip-path:url(#SVGID_16_);}
	.st35{fill:#DED1C8;}
	.st36{clip-path:url(#SVGID_18_);}
	.st37{clip-path:url(#SVGID_20_);}
	.st38{clip-path:url(#SVGID_22_);}
	.st39{fill:none;stroke:#C6A06A;stroke-width:2;stroke-miterlimit:10;}
	.st40{fill:#699273;}
	.st41{clip-path:url(#SVGID_24_);}
	.st42{fill:#F2E6D6;}
	.st43{clip-path:url(#SVGID_26_);fill:#F2E6D6;}
	.st44{clip-path:url(#SVGID_28_);fill:#F2E6D6;}
	.st45{fill:#7F613C;}
	.st46{fill:none;stroke:#C8CF80;stroke-width:3;stroke-miterlimit:10;}
	.st47{fill:#CEE5D9;}
	.st48{fill:none;stroke:#86C1A7;stroke-width:3;stroke-linecap:round;stroke-miterlimit:10;}
	.st49{fill:none;stroke:#86C1A7;stroke-linecap:round;stroke-miterlimit:10;}
	.st50{fill:#86C1A7;}
	.st51{fill:#CFE2CF;}
	.st52{fill:#C8CF80;}
	.st53{fill:#86BF95;}
	.st54{fill:none;stroke:#86BF95;stroke-width:3;stroke-linecap:round;stroke-miterlimit:10;}
	.st55{fill:none;stroke:#86BF95;stroke-linecap:round;stroke-miterlimit:10;}
	.st56{fill:#ECEE9A;stroke:#699273;stroke-linecap:round;stroke-miterlimit:10;}
	.st57{fill:none;stroke:#699273;stroke-width:3;stroke-linecap:round;stroke-miterlimit:10;}
	.st58{fill:#C69C6D;}
	.st59{fill:#ECEE9A;}
	.st60{clip-path:url(#SVGID_30_);}
	.st61{fill:#2F7B1D;stroke:#0A4D2C;stroke-width:3;stroke-miterlimit:10;}
	.st62{fill:#2F7B1D;stroke:#0A4D2C;stroke-linecap:round;stroke-miterlimit:10;}
	.st63{fill:#2F7B1D;stroke:#81AF5B;stroke-linecap:round;stroke-miterlimit:10;}
	.st64{fill:#2F7B1D;}
	.st65{fill:#0A4D2C;}
	.st66{fill:#FFE706;}
	.st67{fill:#D3A700;}
	.st68{fill:none;stroke:#D3A700;stroke-linecap:round;stroke-miterlimit:10;}
	.st69{fill:#FA8D1B;stroke:#D2614D;stroke-width:3;stroke-miterlimit:10;}
	.st70{fill:#FA8D1B;stroke:#D2614D;stroke-linecap:round;stroke-miterlimit:10;}
	.st71{fill:#E0C9BB;}
	.st72{fill:#FA8D1B;}
	.st73{fill:#68763A;}
	.st74{fill:#D2614D;}
	.st75{fill:#5D685D;stroke:#4A544B;stroke-width:3;stroke-linecap:round;stroke-miterlimit:10;}
	.st76{fill:none;stroke:#979B83;stroke-linecap:round;stroke-miterlimit:10;}
	.st77{fill:none;stroke:#4A544B;stroke-width:3;stroke-linecap:round;stroke-miterlimit:10;}
	.st78{fill:#F4E400;stroke:#DFBE00;stroke-width:3;stroke-miterlimit:10;}
	.st79{fill:#F4E400;stroke:#DFBE00;stroke-linecap:round;stroke-miterlimit:10;}
	.st80{fill:#FDDC6C;stroke:#0A4D2C;stroke-width:3;stroke-miterlimit:10;}
	.st81{fill:#FDDC6C;stroke:#0A4D2C;stroke-miterlimit:10;}
	.st82{fill:#FDDC6C;stroke:#0A4D2C;stroke-linecap:round;stroke-miterlimit:10;}
	.st83{fill:#FDDC6C;stroke:#FFFFFF;stroke-linecap:round;stroke-miterlimit:10;}
	.st84{fill:#CDA973;}
	.st85{fill:#A5794A;}
	.st86{fill:#FDDC6C;}
	.st87{fill:#B29166;}
	.st88{fill:#7F5B3B;}
	.st89{fill:#F4E400;}
	.st90{fill:#A58500;}
	.st91{fill:#DFBE00;}
	.st92{fill:#5F7755;}
	.st93{fill:#4A544B;}
	.st94{fill:#999E77;}
	.st95{fill:#3E4C37;}
	.st96{fill:#FDCC89;}
	.st97{fill:#FDCC89;stroke:#D0A679;stroke-linecap:round;stroke-miterlimit:10;}
	.st98{fill:#7F6546;}
	.st99{fill:#F3CF47;stroke:#D3A700;stroke-linecap:round;stroke-linejoin:round;stroke-miterlimit:10;}
	.st100{fill:#F3CF47;stroke:#FFFFFF;stroke-linecap:round;stroke-linejoin:round;stroke-miterlimit:10;}
	.st101{fill:none;stroke:#D3A700;stroke-miterlimit:10;}
	.st102{fill:#81AF5B;stroke:#2F7B1D;stroke-width:3;stroke-linecap:round;stroke-linejoin:round;stroke-miterlimit:10;}
	.st103{fill:#F3CF47;}
	.st104{fill:#A57600;}
	.st105{fill:#81AF5B;stroke:#0A4D2C;stroke-width:3;stroke-linecap:round;stroke-miterlimit:10;}
	.st106{fill:#47771E;stroke:#0B4C0B;stroke-width:3;stroke-miterlimit:10;}
	.st107{fill:none;stroke:#81AF5B;stroke-linecap:round;stroke-miterlimit:10;}
	.st108{fill:#81AF5B;stroke:#0B4C0B;stroke-width:3;stroke-miterlimit:10;}
	.st109{fill:#0B4C0B;}
</style>
<rect x="-35.9" y="-493" class="st0" width="2535.7" height="2318.4"/>
<g>
	<path class="st3" d="M52.7,7.3l3.4-2.2c1-0.6,2.1-0.6,2.8,0.1l0.4,0.4c0.7,0.7,0.7,1.8,0.1,2.8l-2.2,3.4L52.7,7.3z"/>
	<path class="st96" d="M24.8,62.3c-5,0-10.1-2.5-15.1-7.5C-3,42,3.1,32.1,7.9,27.2c2.9-2.9,6.3-4.2,9.8-5.5l0.4-0.1
		c9.7-3.6,22.1-16,22.2-16.1c2.1-2.1,4.6-3.2,7.3-3.2c3.4,0,6.9,1.7,10,4.7c5.5,5.5,6.2,12.6,1.6,17.3c-0.8,0.9-13,15.6-16.2,23.2
		c-1.1,2.7-3.5,6.8-5.8,9C33.5,60.3,29.2,62.3,24.8,62.3L24.8,62.3z"/>
	<path class="st19" d="M19.8,26.7c-0.2,0-0.4-0.1-0.5-0.3c-0.1-0.3,0-0.5,0.3-0.6c2.2-0.8,4.7-2.1,7.3-3.8c0.2-0.1,0.5-0.1,0.7,0.2
		s0.1,0.5-0.2,0.7c-2.7,1.7-5.2,3-7.5,3.9C20,26.7,19.9,26.7,19.8,26.7z"/>
	<path class="st19" d="M31.3,20.1c-0.2,0-0.3-0.1-0.4-0.2c-0.2-0.2-0.1-0.5,0.1-0.7c6.5-4.8,11.8-10,12.4-10.6
		c0.2-0.2,0.5-0.2,0.7,0s0.2,0.5,0,0.7c-0.6,0.6-5.9,5.9-12.5,10.7C31.5,20.1,31.4,20.1,31.3,20.1z"/>
	<path class="st98" d="M63.7,15.5c-0.3-2.4-1.4-4.9-3-7.1c0.6-1.3,0.5-2.8-0.4-3.7l-0.4-0.4c-0.9-0.9-2.4-1.1-3.7-0.4
		c-2.7-1.9-5.6-3-8.5-3c-3.1,0-6,1.2-8.4,3.6C39.1,4.6,27,16.7,17.6,20.2l-0.4,0.1C13.5,21.7,10,23,6.9,26.2
		C-2,35-1.3,45.9,8.7,55.9c5.3,5.3,10.7,7.9,16.1,7.9c4.8,0,9.5-2.1,13.5-6.2c2.4-2.4,4.9-6.6,6.1-9.5c3.1-7.3,14.9-21.5,15.9-22.8
		C63,22.7,64.1,19.2,63.7,15.5z M58.1,23.3c0,0-13.1,15.5-16.5,23.6c-1.1,2.7-3.4,6.5-5.4,8.6c-3.3,3.3-7.1,5.3-11.4,5.3
		c-3.3,0-6.8-1.2-10.5-4c1.2,0.4,2.4,0.7,3.7,0.7c0.5,0,1.1,0,1.6-0.1c4.3-0.6,8.1-3.4,10.6-7.7c0.1-0.2,0.1-0.5-0.2-0.7
		c-0.2-0.1-0.5-0.1-0.7,0.2c-2.3,4-5.9,6.7-9.8,7.2c-3.2,0.4-6.3-0.6-8.5-2.8c-2.1-2.1-3.1-4.9-2.8-7.8c0.4-4,3-7.8,7.2-10.6
		c0.2-0.2,0.3-0.5,0.1-0.7c-0.2-0.2-0.5-0.3-0.7-0.1c-4.4,3-7.2,7.1-7.6,11.4c-0.2,1.6,0,3.1,0.5,4.6C1.3,41.7,3.1,34.2,9,28.3
		c2.8-2.8,6-3.9,9.7-5.3C28.8,19.2,41.4,6.6,41.4,6.6c1.9-1.9,4-2.7,6.3-2.7c3.1,0,6.2,1.6,8.9,4.3C61.2,12.8,62.4,19.1,58.1,23.3z"
		/>
	<ellipse transform="matrix(0.7071 -0.7071 0.7071 0.7071 -14.3833 19.6454)" class="st19" cx="16.5" cy="27.2" rx="0.5" ry="0.5"/>
</g>
</svg>
