<?xml version="1.0" encoding="utf-8"?>
<!-- Generator: Adobe Illustrator 20.0.0, SVG Export Plug-In . SVG Version: 6.00 Build 0)  -->
<svg version="1.1" xmlns="http://www.w3.org/2000/svg" xmlns:xlink="http://www.w3.org/1999/xlink" x="0px" y="0px"
	 viewBox="0 0 1000 1000" style="enable-background:new 0 0 1000 1000;" xml:space="preserve">
<style type="text/css">
	.st0{fill:#519900;}
	.st1{fill:#9556DD;stroke:#3F2C73;stroke-width:6;stroke-miterlimit:10;}
	.st2{fill:#38590E;stroke:#38590E;stroke-width:6;stroke-miterlimit:10;}
	.st3{fill:#3F2C73;stroke:#3F2C73;stroke-width:6;stroke-miterlimit:10;}
	.st4{fill:none;stroke:#648551;stroke-miterlimit:10;}
	.st5{fill:#7B9727;stroke:#386100;stroke-width:3;stroke-linecap:round;stroke-linejoin:round;stroke-miterlimit:10;}
	.st6{fill:#7B9727;stroke:#386100;stroke-width:0.745;stroke-linecap:round;stroke-linejoin:round;stroke-miterlimit:10;}
	.st7{fill:#7B9727;stroke:#386100;stroke-width:3;stroke-miterlimit:10;}
	.st8{fill:#618022;stroke:#386100;stroke-width:3;stroke-linejoin:round;stroke-miterlimit:10;}
	.st9{fill:none;stroke:#45210A;stroke-width:3;stroke-linecap:round;stroke-linejoin:round;stroke-miterlimit:10;}
	.st10{fill:#00FFFF;}
	.st11{clip-path:url(#SVGID_2_);}
	.st12{clip-path:url(#SVGID_4_);}
	.st13{clip-path:url(#SVGID_6_);}
	.st14{fill:#D2C6C6;}
	.st15{fill:#D2C6C6;stroke:#534741;stroke-miterlimit:10;}
	.st16{fill:#B28A5C;stroke:#45210A;stroke-width:3;stroke-linecap:round;stroke-linejoin:round;stroke-miterlimit:10;}
	.st17{fill:none;stroke:#87562E;stroke-miterlimit:10;}
	.st18{fill:none;stroke:#87562E;stroke-linecap:round;stroke-linejoin:round;stroke-miterlimit:10;}
	.st19{fill:none;stroke:#FFFFFF;stroke-linecap:round;stroke-linejoin:round;stroke-miterlimit:10;}
	.st20{fill:none;stroke:#45210A;stroke-linecap:round;stroke-linejoin:round;stroke-miterlimit:10;}
	.st21{fill:#45210A;}
	.st22{fill:#FFFFFF;}
	.st23{fill:#488C00;}
	.st24{fill:#488C00;stroke:#006837;stroke-linejoin:round;stroke-miterlimit:10;}
	.st25{fill:#488C00;stroke:#006837;stroke-width:0.899;stroke-linejoin:round;stroke-miterlimit:10;}
	.st26{fill:#FCEE21;}
	.st27{fill:none;stroke:#FFFFFF;stroke-linecap:round;stroke-miterlimit:10;}
	.st28{fill:#FFCADE;}
	.st29{fill:none;stroke:#386100;stroke-width:4;stroke-linejoin:round;stroke-miterlimit:10;}
	.st30{fill:#386100;}
	.st31{fill:none;stroke:#386100;stroke-width:0.25;stroke-linecap:round;stroke-linejoin:round;stroke-miterlimit:10;}
	.st32{fill:none;stroke:#386100;stroke-linecap:round;stroke-linejoin:round;stroke-miterlimit:10;}
	.st33{fill:#519900;stroke:#386100;stroke-linejoin:round;stroke-miterlimit:10;}
	.st34{fill:none;stroke:#95B22F;stroke-linecap:round;stroke-linejoin:round;stroke-miterlimit:10;}
	.st35{fill:#95B22F;}
	.st36{fill:#B28A5C;}
	.st37{fill:#87562E;}
	.st38{fill:#688625;stroke:#386100;stroke-miterlimit:10;}
	.st39{fill:#6F8B29;stroke:#386100;stroke-miterlimit:10;}
	.st40{fill:#75912D;stroke:#386100;stroke-miterlimit:10;}
	.st41{fill:#7B9727;stroke:#386100;stroke-miterlimit:10;}
	.st42{fill:none;stroke:#386100;stroke-miterlimit:10;}
	.st43{fill:#7B9727;}
	.st44{fill:#618022;}
	.st45{fill:#688625;}
	.st46{fill:#6F8B29;}
	.st47{fill:#75912D;}
	.st48{fill:#AB4168;stroke:#5F2940;stroke-width:6;stroke-miterlimit:10;}
	.st49{fill:#AB4168;stroke:#5F2940;stroke-miterlimit:10;}
	.st50{fill:none;stroke:#DADADA;stroke-miterlimit:10;}
	.st51{fill:#688800;}
	.st52{fill:#304B0A;}
	.st53{fill:#779F14;stroke:#38590E;stroke-miterlimit:10;}
	.st54{fill:#648551;}
	.st55{fill:none;stroke:#38590E;stroke-miterlimit:10;}
	.st56{fill:none;stroke:#38590E;stroke-linecap:round;stroke-miterlimit:10;}
	.st57{fill:#38590E;}
	.st58{fill:#779F14;}
	.st59{fill:#9556DD;}
	.st60{fill:#779F14;stroke:#648551;stroke-miterlimit:10;}
	.st61{fill:#648551;stroke:#38590E;stroke-linejoin:round;stroke-miterlimit:10;}
	.st62{fill:none;stroke:#648551;stroke-linecap:round;stroke-miterlimit:10;}
	.st63{fill:#9556DD;stroke:#3F2C73;stroke-width:8;stroke-miterlimit:10;}
	.st64{fill:#3F2C73;}
	.st65{fill:#9A69E8;}
	.st66{fill:#519900;stroke:#386100;stroke-linecap:round;stroke-linejoin:round;stroke-miterlimit:10;}
	.st67{fill:none;stroke:#DAAE67;stroke-linecap:round;stroke-linejoin:round;stroke-miterlimit:10;}
	.st68{fill:#F9ECD9;}
	.st69{fill:#DAAE67;}
	.st70{fill:none;stroke:#FFFFFF;stroke-width:15;stroke-linecap:round;stroke-miterlimit:10;}
</style>
<g id="Layer_1">
	<polygon class="st0" points="344.1,387.7 213.4,403 291.2,487.6 184.6,519.3 64.5,599 158.7,622.1 285.5,613.4 186.5,725.8 
		149,854.6 304.7,796.9 404.6,716.2 435.4,881.5 494,971.8 579.5,850.8 592,711.4 714.9,811.4 845.6,851.7 807.2,723 725.5,617.3 
		835,624 937.8,602.9 781.2,502.9 689,490.5 790.8,406.9 652.5,394.4 639,301.2 594.8,213.8 572.8,80.2 503.6,26.4 420,100.4 
		385.4,237.8 	"/>
	<path class="st35" d="M498.2,544.1c-2.6,0-5-0.6-7.2-1.6l1.2,293.8c0,4.3,3.5,7.7,7.8,7.7h0c4.3,0,7.8-3.5,7.7-7.8l-1.2-294.5
		C504,543.3,501.2,544.1,498.2,544.1z"/>
	<path class="st35" d="M365.8,452.3c-0.1-2.2,0.3-4.3,1.1-6.2l-28.9-9.8c-4.1-1.4-8.5,0.8-9.8,4.9c-1.4,4.1,0.8,8.5,4.9,9.8
		l37.1,12.6C367.6,460.5,366,456.5,365.8,452.3z"/>
	<path class="st35" d="M670.1,441.1c-1.4-4.1-5.8-6.2-9.8-4.9l-25.7,8.7c0.9,2.1,1.4,4.4,1.5,6.8c0.2,3.8-1.1,7.3-3.3,10.2l32.5-11
		C669.3,449.6,671.5,445.2,670.1,441.1z"/>
	<path class="st35" d="M415.1,513.7l-186.8,43.1c-4.2,1-6.8,5.1-5.8,9.3c0.8,3.6,4,6,7.6,6c0.6,0,1.2-0.1,1.8-0.2l190.9-44
		C418.3,524.7,415.4,519.4,415.1,513.7z"/>
	<path class="st35" d="M469.5,543.5c-5.1,0-9.5-2.2-12.7-5.6L283.8,714.6c-3,3.1-3,8,0.1,11c1.5,1.5,3.5,2.2,5.4,2.2
		c2,0,4-0.8,5.5-2.3L473.7,543C472.3,543.3,471,543.5,469.5,543.5z"/>
	<path class="st35" d="M771.4,556.7l-184.1-42c-0.5,5.9-4.4,11-9.6,13.7l190.2,43.4c0.6,0.1,1.2,0.2,1.7,0.2c3.5,0,6.7-2.4,7.6-6
		C778.2,561.8,775.5,557.7,771.4,556.7z"/>
	<path class="st35" d="M715.9,714.6L539.7,535c-3.3,4.5-8.8,7.5-14.4,7.5c0,0-0.1,0-0.1,0l179.6,183c1.5,1.5,3.5,2.3,5.5,2.3
		c2,0,3.9-0.7,5.4-2.2C718.8,722.6,718.9,717.7,715.9,714.6z"/>
	<line class="st0" x1="463.9" y1="908.8" x2="483.7" y2="882.2"/>
	<line class="st0" x1="424.9" y1="841.8" x2="462.8" y2="806.5"/>
	<line class="st0" x1="415.9" y1="756.9" x2="452.9" y2="728.7"/>
	<line class="st0" x1="429" y1="678.6" x2="465.3" y2="652.2"/>
	<line class="st0" x1="536.1" y1="908.8" x2="516.2" y2="882"/>
	<line class="st0" x1="575.1" y1="841.8" x2="537.2" y2="806.5"/>
	<line class="st0" x1="584.1" y1="756.9" x2="547.1" y2="728.7"/>
	<line class="st0" x1="571" y1="678.6" x2="534.7" y2="652.2"/>
	<line class="st0" x1="128.8" y1="566" x2="148.9" y2="571"/>
	<line class="st0" x1="179.4" y1="530.7" x2="213.9" y2="545.5"/>
	<line class="st0" x1="249" y1="509.1" x2="277.4" y2="524.8"/>
	<line class="st0" x1="315.9" y1="501.5" x2="342.8" y2="517.1"/>
	<line class="st0" x1="138.4" y1="607.3" x2="155.2" y2="593.2"/>
	<line class="st0" x1="199.4" y1="616.7" x2="223.8" y2="588.2"/>
	<line class="st0" x1="271.4" y1="605.4" x2="290" y2="578.8"/>
	<line class="st0" x1="334.8" y1="582.7" x2="352.1" y2="556.9"/>
	<line class="st0" x1="180.8" y1="774.3" x2="211.6" y2="770.2"/>
	<line class="st0" x1="200.6" y1="704.1" x2="249.2" y2="706.6"/>
	<line class="st0" x1="252" y1="642.5" x2="295.3" y2="649"/>
	<line class="st0" x1="313.5" y1="600.2" x2="355.1" y2="607.4"/>
	<line class="st0" x1="227.9" y1="823" x2="233" y2="792.1"/>
	<line class="st0" x1="298.7" y1="805.5" x2="297.8" y2="756.9"/>
	<line class="st0" x1="362" y1="756.1" x2="356.9" y2="712.7"/>
	<line class="st0" x1="406.3" y1="696.1" x2="400.5" y2="654.3"/>
	<line class="st0" x1="304" y1="407.9" x2="318.1" y2="424.5"/>
	<line class="st0" x1="293.9" y1="461.2" x2="313" y2="450.9"/>
	<line class="st0" x1="869.6" y1="566" x2="849.5" y2="571"/>
	<line class="st0" x1="818.9" y1="530.7" x2="784.4" y2="545.5"/>
	<line class="st0" x1="749.4" y1="509.1" x2="720.9" y2="524.8"/>
	<line class="st0" x1="682.4" y1="501.5" x2="655.5" y2="517.1"/>
	<line class="st0" x1="860" y1="607.3" x2="843.3" y2="593.3"/>
	<line class="st0" x1="799" y1="616.7" x2="774.5" y2="588.2"/>
	<line class="st0" x1="727" y1="605.4" x2="708.4" y2="578.8"/>
	<line class="st0" x1="663.5" y1="582.7" x2="646.3" y2="556.9"/>
	<line class="st0" x1="694.3" y1="407.9" x2="680.3" y2="424.5"/>
	<line class="st0" x1="704.5" y1="461.2" x2="685.3" y2="450.9"/>
	<path class="st69" d="M454.8,436.9c0.2,0,0.4,0,0.6,0c-1.5-4-3.7-7.7-6.6-11c-6.4-7.3-15.3-11.6-25-12.1c-0.9,0-1.4-0.4-1.7-0.8
		c-0.3-0.3-0.6-0.9-0.5-1.7c0.7-9.7-2.5-19.1-8.9-26.3c-2.8-3.2-7.7-3.5-11-0.7s-3.5,7.7-0.7,11c3.6,4.1,5.4,9.5,5.1,15
		c-0.3,4.8,1.2,9.5,4.4,13.1c3.2,3.6,7.6,5.7,12.4,6c5.5,0.3,10.6,2.8,14.2,6.9c1.9,2.1,3.2,4.6,4.1,7.2
		C444.6,439.5,449.7,436.9,454.8,436.9z"/>
	<circle class="st30" cx="548" cy="172.5" r="11.6"/>
	<circle class="st30" cx="524.7" cy="212.9" r="11.6"/>
	<circle class="st30" cx="431.4" cy="335.5" r="11.6"/>
	<circle class="st30" cx="454.8" cy="375.8" r="11.6"/>
	<circle class="st30" cx="478.1" cy="335.5" r="11.6"/>
	<circle class="st30" cx="574.9" cy="446.6" r="11.6"/>
	<path class="st30" d="M436.6,486.9c-2.4,0-4.7-1.1-6.2-3.1c-7.3-9.6-15.5-18.7-24.4-26.9c-3.1-2.9-3.3-7.8-0.4-11
		c2.9-3.1,7.8-3.3,11-0.4c5.7,5.3,11.1,10.9,16.3,16.7c4.2-14.6,10-28.8,17.3-42.5c1.2-2.3,3.5-3.8,6-4.1c2.6-0.3,5.1,0.7,6.8,2.7
		c10.7,12.6,19.8,26.2,27.3,40.7c4.2-8,8.9-15.7,14-23c1.5-2.1,3.8-3.4,6.4-3.4c0,0,0.1,0,0.1,0c2.6,0,5,1.3,6.4,3.5
		c7.4,11.2,13.9,23.3,19.3,36.1c1.7,3.9-0.2,8.5-4.1,10.2c-3.9,1.7-8.5-0.2-10.2-4.1c-3.4-8.1-7.4-15.9-11.7-23.4
		c-4.9,8.1-9.4,16.5-13.2,25.2c-1.2,2.8-4,4.6-7.1,4.6c0,0,0,0-0.1,0c-3.1,0-5.9-1.9-7.1-4.7c-6.3-15-14.5-29.2-24.4-42.3
		c-6.4,13.9-11.2,28.3-14.3,43c-0.6,3-2.9,5.3-5.9,6C437.8,486.9,437.2,486.9,436.6,486.9z"/>
	<path class="st69" d="M544.7,243.5c-2.8,0-5.5-1.5-6.9-4.1c-4.6-8.6-5.5-18.4-2.6-27.7c1.8-5.7,5-11,9.3-15.1
		c5-4.8,7.4-12.4,6-19.2c-0.8-4.2,1.9-8.3,6.1-9.1c4.2-0.8,8.3,1.9,9.1,6.1c2.4,12.1-1.6,24.9-10.4,33.5c-2.5,2.4-4.3,5.3-5.3,8.6
		c-1.6,5.3-1.1,10.9,1.5,15.7c2,3.8,0.6,8.5-3.2,10.5C547.2,243.2,546,243.5,544.7,243.5z"/>
	<path class="st69" d="M494.5,549.4c-2.7,0-5.3-1.4-6.7-3.9c-2.1-3.7-0.9-8.5,2.8-10.6c4.8-2.8,8.2-7.2,9.6-12.6
		c1.4-5.3,0.6-10.9-2.3-15.6c-2.5-4.2-3.2-9-2-13.7c1.2-4.6,4.2-8.5,8.4-11c4.8-2.8,8.2-7.2,9.6-12.6c1.1-4.2,5.3-6.6,9.5-5.6
		c4.2,1.1,6.6,5.3,5.6,9.5c-2.4,9.4-8.4,17.3-16.8,22.1c-0.7,0.4-1,1-1.1,1.4s-0.1,1.1,0.3,1.8c5,8.3,6.4,18.1,4,27.5
		c-2.4,9.4-8.4,17.3-16.8,22.1C497.2,549.1,495.9,549.4,494.5,549.4z"/>
	<circle class="st68" cx="570.9" cy="295.9" r="7.8"/>
	<circle class="st68" cx="419.8" cy="332.4" r="7.8"/>
	<circle class="st68" cx="456.9" cy="418.2" r="7.8"/>
	<circle class="st68" cx="407.6" cy="450.9" r="7.8"/>
	<circle class="st68" cx="560.9" cy="481.2" r="7.8"/>
	<path class="st30" d="M935.3,557.9c-26.4-18.5-57-36-88.5-50.6c-28.7-13.3-57-23.6-82.5-30.2c1.5-1.2,3.1-2.4,4.6-3.6
		c21.3-16.8,34.7-31,36.2-32.5c11.9-12.7,15.8-30.9,10-47.3c-5.7-16.4-20.2-28.3-37.4-30.7c-17.5-2.5-35.7-3.8-54.2-3.8
		c-17.3,0-34.1,1.1-49.8,3.3c-9.5-58.3-28.8-107.1-44-138.7c-6.6-13.7-10.7-27.8-12.3-42c-3.4-30.9-11.5-76.4-31.1-117.9
		c-5.1-10.7-11.8-23.3-23.8-34.7C546,13.3,524.3,4.8,500,4.8c-24.1,0-46.8,10.7-65.8,30.8c-9.4,10-15.5,20-18,24.4
		c-5.4,8.8-26.8,46.4-45.2,117.2c-4.3,16.5-7.1,39-8.4,66.8c-0.7,15.7-4.8,32-12.2,48.2c-10.7,23.5-18.4,47.1-23.2,70.4
		c-16-2.3-33.2-3.5-50.9-3.5c-18.5,0-36.7,1.3-54.2,3.8c-17.2,2.5-31.6,14.3-37.4,30.7c-5.7,16.4-1.9,34.7,10,47.3
		c1.5,1.6,15,15.7,36.2,32.5c1.5,1.2,3.1,2.4,4.6,3.6c-25.5,6.5-53.8,16.9-82.5,30.2c-31.5,14.6-62.1,32.1-88.5,50.6
		c-15.6,10.9-22.9,30.2-18.6,48.8c4.3,18.5,19.5,32.5,38.3,35.4c1.8,0.3,44.2,6.7,98.7,6.7c9.8,0,19.5-0.2,28.9-0.6
		c-16.2,19.6-31.4,42.7-44.9,67.9c-18.5,34.5-32.8,71.7-41.5,107.4c-4,16.6,1.3,34,13.9,45.5c8.7,7.9,20,12.2,31.4,12.2
		c5.1,0,10.2-0.8,15.2-2.5c5.1-1.8,117.2-40.9,197.3-108.2c2.1,28.7,9.6,61,21.9,94.5c13.9,38,33.4,76.1,56.4,110.1
		c8.5,12.6,22.7,20.3,37.9,20.5c0.2,0,0.5,0,0.7,0c15,0,29-7.2,37.8-19.4c0.8-1.1,20.3-28.4,39.6-68.3
		c23.4-48.6,36.7-94.6,39.5-137.2c80.1,67.1,191.8,106.1,197,107.9c5,1.7,10.1,2.5,15.2,2.5c11.4,0,22.7-4.2,31.4-12.2
		c12.6-11.5,17.9-28.9,13.9-45.5c-8.7-35.7-23.1-72.8-41.5-107.4c-13.5-25.2-28.7-48.2-44.9-67.9c9.4,0.4,19,0.6,28.9,0.6
		c54.5,0,96.9-6.4,98.7-6.7c18.8-2.9,34-16.9,38.3-35.4C958.2,588.1,950.9,568.8,935.3,557.9z M639.5,452.7
		c2.3-8.8,3.9-18.1,4.7-27.8c1-0.4,2-0.7,2.9-1c7.8-2.6,16.7-4.8,26.3-6.4c1-0.2,1.7,1,1,1.8c-2.6,3.1-2.7,7.7,0.1,10.6
		c1.6,1.6,3.6,2.4,5.6,2.4c2.2,0,4.4-0.9,5.9-2.7l4.6-5.4c5.4-6.3,13.1-10.2,21.4-10.5c11.5-0.4,23.2-0.2,34.9,0.6
		c2.6,0.2,3.7,3.5,1.7,5.2c-7.6,6.6-17.4,14.7-28.8,22.7c-9.2,6.4-21.2,7.2-31,1.9c-3.9-2.1-8.9-0.5-10.7,3.6
		c-1.7,3.8,0,8.2,3.6,10.2l4.6,2.5c0.8,0.4,0.8,1.5,0,1.9c-7.5,3.7-15.2,7-23.1,9.7c-10,3.4-21.5,6-34.2,8
		C633.5,471.5,637,462.4,639.5,452.7z M373,382.6c4.2-28.1,13.5-53.3,21.7-71.4c9.2-20.3,15-41.9,16-64.2
		c0.8-18.5,2.7-40.5,6.8-56.2c18.4-70.8,39.6-103.4,39.6-103.4s16.7-31.8,42.9-31.8c27.7,0,37.8,19.6,43.6,31.8
		c16.6,35.4,23.6,75.1,26.5,101.4c0.5,4.2,1.1,8.3,1.9,12.4c-0.2,0-0.4,0-0.6,0c-6.4,0-11.6,5.2-11.6,11.6s5.2,11.6,11.6,11.6
		c2.2,0,4.3-0.6,6.1-1.7c2.5,7.5,5.4,14.9,8.9,22.1c13.8,28.8,33.8,78.5,41.4,137.7c2.6,20.1,2.2,38-0.5,53.9
		c-1.7-0.9-3.6-1.5-5.7-1.5c-6.4,0-11.6,5.2-11.6,11.6s5.2,11.6,11.6,11.6c0,0,0.1,0,0.1,0c-3.2,9.2-7.4,17.6-12.3,25.1
		c-1.5-4.6-5.9-8-11-8c-6.4,0-11.6,5.2-11.6,11.6c0,6.1,4.6,11,10.6,11.6c-24.8,26.1-60.9,37.9-96.8,37.9
		C430,536.5,356.7,490.4,373,382.6z M251.8,414.3c11.7-0.8,23.5-1,34.9-0.6c8.3,0.3,16.1,4.1,21.4,10.5l4.6,5.4
		c1.5,1.8,3.7,2.7,5.9,2.7c2,0,4.1-0.8,5.6-2.4c2.8-2.9,2.7-7.5,0.1-10.6c-0.7-0.8,0-1.9,1-1.8c9.6,1.6,18.5,3.8,26.3,6.4
		c1.4,0.5,2.7,0.9,4.1,1.4c1.6,20.1,6.6,38.5,14.9,54.7c-13-2-24.9-4.7-35.1-8.1c-7.9-2.7-15.7-6-23.1-9.7c-0.8-0.4-0.8-1.5,0-1.9
		l4.6-2.5c3.6-2,5.4-6.4,3.6-10.2c-1.9-4.1-6.8-5.7-10.7-3.6c-9.9,5.3-21.9,4.5-31-1.9c-11.4-8-21.2-16-28.8-22.7
		C248,417.8,249.1,414.5,251.8,414.3z M182.2,602.1c-0.4,0-0.9,0-1.3,0c-0.1,0-0.3,0-0.4,0c-6.6,0-13.1-0.2-19.2-0.4
		c-1.2-0.2-1.6-1.7-0.7-2.6c3.3-2.8,3.7-7.7,0.9-10.9c-2.8-3.3-7.7-3.7-10.9-0.9l-4.6,3.9c-6.5,5.5-14.8,8.4-23.3,8.3
		c-9.9-0.9-17.8-1.7-23.2-2.4c-2-0.8-2.9-3.2-2.1-5.1c7-4.8,14.3-9.4,21.8-14c6.8-2.6,14.2-3.1,21.3-1.3l7,1.8
		c0.6,0.2,1.3,0.2,1.9,0.2c3.6,0,6.8-2.5,7.6-6.2c0.9-4.1-1.9-8.2-6-9.2l-1.1-0.3c-0.9-0.2-1.2-1-1.1-1.8c8.9-4.6,17.9-9,26.9-13.2
		c9.7-2.8,20.1-2.3,29.6,1.8l6.2,2.7c1,0.4,2,0.6,3.1,0.6c3.1,0,6.1-1.9,7.3-5.1c1.5-3.9-0.6-8.3-4.5-10l-4.6-2
		c-1.3-0.5-1.5-2-0.9-3c8.1-3,16.2-5.6,24-8c13.1-2.4,26.6,0.1,38.6,6.3c1.1,0.6,2.3,0.9,3.5,0.9c4.2,0,8.1-3.3,7.8-8.8
		c-0.1-2.6-1.9-4.6-4.3-5.8c-1.1-0.5-1-1.9-0.2-2.5c4.7-0.7,9.4-1.3,14.1-1.9c15.3-1,30.7,2.5,44,10.3c1.2,0.7,2.6,1.1,3.9,1.1
		c2.9,0,5.8-1.7,7.1-4.6c1.4-3.1-0.3-6.1-1.9-8.2c-0.8-0.9-0.2-2.3,0.9-2.5c7.4-0.2,14.6-0.4,21.4-0.4c0.7,0,1.5,0,2.2,0
		c0.4,0,0.7,0,1.1,0c6.2,0,12.1,0.1,17.6,0.2c9.7,10.1,21.2,18.5,34,25.2c-13.6,7.6-38.1,20.8-67.6,33.2c-1.4,0.6-2.8-1-1.9-2.3
		l2.7-4c2.4-3.5,1.7-8.4-1.8-10.9c-3.6-2.5-8.5-1.6-11,2l-2.6,4c-10.4,15.7-26.2,27-44.4,32c-1.1,0.3-2.3,0.6-3.4,0.9
		c-1.3,0.3-2.3-1.1-1.6-2.3l2.7-3.9c2.5-3.6,1.6-8.5-2.1-10.9c-3.6-2.3-8.4-1.2-10.8,2.3l0,0c-9.6,13.6-24.6,22.5-41.1,24.3
		c-4.7,0.5-9.4,1-14.1,1.4c-1.8,0.1-2.9-2-1.7-3.3l3.2-3.8c2.8-3.3,2.4-8.3-1-11.1c-3.3-2.7-8.2-2-11,1.2l-3,3.5
		C206.9,596.5,194.9,602.1,182.2,602.1z M429.2,641c-0.6,1-1.1,1.9-1.7,2.9c-0.1,0.2-0.3,0.4-0.4,0.7c-0.7,1.2-1.4,2.3-2.1,3.5
		c-0.2,0.3-0.4,0.6-0.6,0.9c-0.6,0.9-1.1,1.9-1.7,2.8c-0.2,0.3-0.4,0.7-0.6,1c-0.7,1.2-1.5,2.4-2.2,3.6c-0.1,0.2-0.2,0.3-0.3,0.5
		c-0.7,1-1.3,2.1-2,3.1c-0.2,0.3-0.4,0.7-0.7,1c-0.7,1-1.3,2-2,3.1c-0.1,0.2-0.2,0.3-0.3,0.5c-1.4,2.1-4.7,1.4-5.1-1.2l-1.4-10.3
		c-0.6-4.2-4.5-7.2-8.8-6.6c-4.2,0.6-7.2,4.5-6.6,8.8l0.4,3c2.8,20.5-3.8,41.3-18.2,56.2c-0.1,0.2-0.3,0.3-0.4,0.5
		c-0.9,1-1.9,1.9-2.8,2.8c0,0-0.1,0.1-0.1,0.1c-0.6,0.5-1.1,1.1-1.7,1.6c-1.7,1.5-4.3,0.5-4.6-1.7l-0.7-6.1
		c-0.5-4.3-4.3-7.3-8.6-6.8c-4.3,0.5-7.3,4.4-6.8,8.6c1.7,14.2-4.3,28.2-15.9,36.7c-1.8,1.4-3.7,2.7-5.6,4c-0.1,0.1-0.2,0.2-0.3,0.2
		c-3.7,2.6-7.5,5.2-11.3,7.7c-0.2,0.1-0.4,0.3-0.6,0.4c-1.8,1.2-3.7,2.4-5.5,3.6c0,0,0,0,0,0c-1.8,1.2-4.2-0.1-4.3-2.3l-0.1-7.3
		c-0.1-4.3-3.6-7.7-7.9-7.6c-4.3,0.1-7.7,3.6-7.6,7.9c0.2,13.4-7,25.8-18.8,32.2c-4.8,2.6-9.5,5.1-14.1,7.5c0,0-0.1,0-0.1,0
		c-2.3,1.2-4.6,2.3-6.8,3.5c0,0-0.1,0-0.1,0c-2.3,1.1-4.5,2.2-6.7,3.3c-2,1-4.3-0.7-3.9-2.9l1.2-7.2c0.7-4.2-2.2-8.2-6.4-8.9
		c-4.2-0.7-8.2,2.2-8.9,6.4l-0.2,1.2c-2.3,13.8-11.5,25.4-24.4,30.8c-0.1,0.1-0.3,0.1-0.4,0.2c-0.4,0.2-0.8,0.3-1.2,0.5
		c-0.4,0.2-0.9,0.4-1.3,0.5c-0.4,0.2-0.7,0.3-1.1,0.4c-0.7,0.3-1.4,0.6-2.1,0.9c-0.3,0.1-0.7,0.3-1,0.4c-0.4,0.2-0.8,0.3-1.2,0.5
		c-0.4,0.1-0.7,0.3-1,0.4c-0.4,0.2-0.8,0.3-1.1,0.5c-0.3,0.1-0.6,0.3-1,0.4c-0.6,0.2-1.2,0.5-1.8,0.7c-0.3,0.1-0.6,0.2-0.9,0.4
		c-0.3,0.1-0.7,0.3-1,0.4c-0.3,0.1-0.6,0.2-0.9,0.4c-0.3,0.1-0.6,0.2-1,0.4c-0.3,0.1-0.5,0.2-0.8,0.3c-0.5,0.2-1,0.4-1.5,0.6
		c-0.2,0.1-0.5,0.2-0.7,0.3c-0.3,0.1-0.6,0.2-0.9,0.3c-0.2,0.1-0.4,0.2-0.6,0.2c-0.3,0.1-0.6,0.2-0.9,0.3c-0.2,0.1-0.3,0.1-0.5,0.2
		c-0.4,0.2-0.8,0.3-1.2,0.4c-0.2,0.1-0.3,0.1-0.5,0.2c-0.1,0.1-0.3,0.1-0.4,0.1c-2.1,0.8-4.1-1.1-3.6-3.2c0.1-0.2,0.1-0.4,0.1-0.6
		c0.3-1.1,0.6-2.1,0.8-3.2c0.3-0.9,0.5-1.9,0.8-2.8c0.3-1.2,0.7-2.4,1-3.6c0.2-0.8,0.4-1.6,0.7-2.3c0.4-1.4,0.8-2.7,1.3-4.1
		c0.2-0.6,0.4-1.2,0.6-1.8c0.5-1.5,1-3.1,1.5-4.6c0.1-0.4,0.2-0.7,0.4-1.1c4.9-14.7,17.8-25.3,33.2-27.3c3.9-0.5,7-3.7,7-7.6
		c0.1-4.8-4.1-8.4-8.8-7.8l-10.6,1.4c-2.2,0.3-3.8-1.9-2.9-3.9c4.3-9.4,9-18.6,14-27.5c6.6-12,19.5-19.1,33.2-18.4l4.5,0.2
		c0.1,0,0.3,0,0.4,0c4.2,0,7.7-3.4,7.8-7.8c0-4.2-3.5-7.6-7.7-7.8l-11.6-0.6c-2.2-0.1-3.4-2.5-2.2-4.3c0.1-0.1,0.1-0.2,0.2-0.3
		c7.1-9.9,14.6-19.1,22.3-27.4c8.8-8.1,20.9-11.8,32.8-10l3.3,0.5c0.4,0.1,0.8,0.1,1.2,0.1c4,0,7.5-3.1,7.7-7.3
		c0.3-4.1-2.8-7.6-6.9-8.2l-3.8-0.6c-2.4-0.4-3.2-3.4-1.3-4.9c3.5-2.8,7.1-5.6,10.7-8.3c0,0,0,0,0,0c14.9-11.2,33.7-15.6,52.1-12.5
		c0.4,0.1,0.9,0.1,1.3,0.1c3.9,0,7.4-3,7.7-7.2c0.3-4-2.7-7.6-6.7-8.3l-3.5-0.6c-2.5-0.4-3.2-3.8-1-5.1c22.4-13.5,43.7-24.8,60-32.9
		c0,0,0,0,0,0c0.8-0.4,1.6-0.8,2.4-1.2c0,0,0.1,0,0.1,0c4.9-2.4,9.3-4.5,13.1-6.3c0.1-0.1,0.2-0.1,0.3-0.1c0.5-0.2,1-0.5,1.5-0.7
		c0.1-0.1,0.2-0.1,0.4-0.2c0.5-0.2,0.9-0.4,1.3-0.6c0.1-0.1,0.3-0.1,0.4-0.2c0.4-0.2,0.8-0.4,1.2-0.5c0.1-0.1,0.3-0.1,0.4-0.2
		c0.4-0.2,0.8-0.4,1.2-0.5c0.1,0,0.2-0.1,0.3-0.1c0.9-0.4,1.8-0.8,2.6-1.1c0,0,3.9-1.8,10.8-5.5c7.7,2.6,15.8,4.5,24.1,5.9
		c-0.1,0.3-0.3,0.6-0.4,0.9c-0.1,0.3-0.3,0.6-0.4,0.9c-0.3,0.7-0.7,1.5-1,2.3c-0.2,0.3-0.3,0.7-0.5,1c-0.3,0.8-0.7,1.5-1,2.3
		c-0.2,0.4-0.3,0.7-0.5,1.1c-0.4,0.8-0.7,1.7-1,2.5c-0.1,0.3-0.3,0.6-0.4,0.9c-0.5,1.2-0.9,2.3-1.4,3.5c-0.6,1.6-1.4,3.7-2.4,6.2
		c0,0.1-0.1,0.2-0.1,0.2c-0.5,1.2-1,2.4-1.5,3.8c-0.1,0.2-0.1,0.3-0.2,0.5c-0.2,0.6-0.5,1.1-0.7,1.7c0,0.1-0.1,0.2-0.1,0.4
		c-0.3,0.7-0.6,1.4-0.9,2.2c-0.1,0.2-0.1,0.3-0.2,0.5c-0.3,0.6-0.5,1.2-0.8,1.8c-0.1,0.2-0.2,0.4-0.3,0.6c-0.3,0.8-0.7,1.6-1,2.4
		c0,0.1-0.1,0.1-0.1,0.2c-0.3,0.7-0.6,1.5-1,2.3c-0.1,0.2-0.2,0.5-0.3,0.7c-0.3,0.7-0.6,1.4-0.9,2c-0.1,0.2-0.2,0.4-0.3,0.6
		c-0.4,0.9-0.8,1.7-1.2,2.6c-0.1,0.2-0.2,0.5-0.3,0.7c-0.3,0.7-0.6,1.4-1,2.1c-0.1,0.3-0.2,0.5-0.4,0.8c-0.4,0.9-0.8,1.9-1.3,2.8
		c-0.1,0.1-0.1,0.2-0.2,0.4c-0.4,0.8-0.8,1.7-1.2,2.6c-0.1,0.3-0.3,0.6-0.4,0.9c-0.4,0.8-0.7,1.6-1.1,2.4c-0.1,0.2-0.2,0.5-0.3,0.7
		c-0.5,1-1,2-1.5,3c-0.1,0.3-0.3,0.5-0.4,0.8c-0.4,0.8-0.8,1.6-1.2,2.4c-0.2,0.3-0.3,0.6-0.5,0.9c-0.5,1-1.1,2.1-1.6,3.2
		c-0.1,0.1-0.2,0.3-0.2,0.4c-0.5,0.9-1,1.9-1.5,2.8c-0.2,0.3-0.3,0.7-0.5,1c-0.5,0.9-0.9,1.8-1.4,2.7c-0.1,0.2-0.2,0.5-0.4,0.7
		c-0.6,1.1-1.2,2.2-1.8,3.3c-0.2,0.3-0.3,0.6-0.5,0.9c-0.5,0.9-1,1.8-1.4,2.6c-0.2,0.3-0.4,0.6-0.5,1c-0.6,1.1-1.3,2.3-1.9,3.4
		c-0.1,0.2-0.2,0.3-0.3,0.5c-0.6,1-1.1,2-1.7,3.1C429.6,640.3,429.4,640.7,429.2,641z M563,731l-11.1-8.5c-3.4-2.6-8.3-2-10.9,1.5
		c-2.6,3.4-1.9,8.3,1.5,10.9l0.8,0.6c18.9,14.4,27.9,38.2,23.5,61.5c0,0,0,0.1,0,0.1c-0.5,2.5-1,5-1.5,7.5c0,0,0,0,0,0
		c-0.6,2.5-1.1,5-1.7,7.5c-0.7,3-4.4,4-6.6,1.9l-14-13.1c-3.1-2.9-8.1-3-11,0c-3.1,3.1-3,8.2,0.2,11.1l0.9,0.8
		c15,14,19.7,35.9,11.7,54.9c0,0,0,0.1-0.1,0.1c-2,4.7-4,9.3-6.1,13.7c0,0.1-0.1,0.2-0.1,0.3c-0.6,1.4-1.3,2.7-1.9,4
		c0,0.1-0.1,0.1-0.1,0.2c-1.3,2.7-5,3-6.8,0.6l-6.8-9.1c-2.5-3.4-7.4-4.4-10.9-2c-3.6,2.5-4.4,7.5-1.8,11l0.4,0.6
		c9.3,12.6,10.1,29.6,1.9,42.9c-0.9,1.5-1.8,2.9-2.6,4.2c0,0,0,0,0,0c-0.4,0.6-0.8,1.2-1.2,1.8c0,0.1-0.1,0.1-0.1,0.2
		c-0.3,0.5-0.7,1.1-1,1.6c-0.1,0.1-0.1,0.2-0.2,0.3c-0.3,0.5-0.6,0.9-0.9,1.4c-0.1,0.1-0.1,0.2-0.2,0.3c-0.3,0.4-0.5,0.8-0.8,1.2
		c-0.1,0.1-0.2,0.3-0.3,0.4c-0.2,0.3-0.4,0.7-0.6,1c-0.1,0.1-0.2,0.3-0.3,0.4c-0.2,0.3-0.4,0.5-0.5,0.8c-0.1,0.1-0.1,0.2-0.2,0.3
		c-1.6,2.3-5,2.3-6.6,0c-0.1-0.2-0.2-0.3-0.3-0.5c-1.5-2.2-2.9-4.5-4.3-6.7c0-0.1-0.1-0.2-0.1-0.2c-1.4-2.2-2.7-4.4-4.1-6.6
		c-0.1-0.2-0.2-0.4-0.4-0.6c-7.9-13.3-7-30.1,2.2-42.5c2.6-3.4,1.8-8.3-1.6-10.9c-3.4-2.6-8.3-1.8-10.9,1.6l-6.4,8.6
		c-1.8,2.4-5.5,2-6.8-0.7c-2.1-4.5-4.2-9.1-6.2-13.7c-0.1-0.2-0.2-0.5-0.3-0.7c-0.6-1.4-1.2-2.8-1.8-4.2
		c-7.9-18.8-3.1-40.6,11.8-54.5c3.1-2.9,3.6-7.8,0.8-11c-2.9-3.3-7.9-3.5-11.1-0.6l-13.6,12.7c-2.2,2.1-5.9,1-6.6-1.9
		c-1.2-4.8-2.3-9.6-3.3-14.4c0-0.2-0.1-0.4-0.1-0.7c-4.6-23.3,4.6-47.1,23.5-61.5c3.1-2.4,4.2-6.8,2.2-10.2
		c-2.4-4.1-7.8-5.1-11.4-2.3l-10.9,8.3c-2.8,2.1-6.8-0.1-6.4-3.6c0-0.2,0-0.3,0.1-0.5c0.1-1.2,0.3-2.4,0.5-3.6c0-0.1,0-0.2,0-0.4
		c3.5-25.8,17.4-48.9,38.4-64.3c3.7-2.7,4.3-8.2,1-11.6c-2.7-2.9-7.2-3.1-10.4-0.8l-5.1,3.7c-2.3,1.7-5.3-0.6-4.4-3.3
		c0-0.1,0.1-0.2,0.1-0.2c0.2-0.6,0.4-1.2,0.7-1.8c0.1-0.4,0.3-0.8,0.4-1.2c0.2-0.6,0.4-1.2,0.7-1.8c0.1-0.4,0.3-0.8,0.4-1.2
		c0.2-0.6,0.5-1.2,0.7-1.8c0.1-0.4,0.3-0.8,0.4-1.1c0.2-0.6,0.5-1.2,0.7-1.8c0.1-0.4,0.3-0.7,0.4-1.1c0.2-0.6,0.5-1.2,0.7-1.7
		c0.1-0.4,0.3-0.7,0.4-1.1c0.2-0.6,0.5-1.2,0.7-1.7c0.1-0.3,0.3-0.7,0.4-1c0.2-0.6,0.5-1.2,0.7-1.7c0.1-0.3,0.3-0.7,0.4-1
		c0.2-0.6,0.5-1.1,0.7-1.7c0.1-0.3,0.3-0.7,0.4-1c0.2-0.6,0.5-1.1,0.7-1.6c0.1-0.3,0.3-0.7,0.4-1c0.2-0.5,0.4-1,0.7-1.6
		c0.1-0.3,0.3-0.7,0.4-1c0.2-0.5,0.4-1,0.6-1.5c0.1-0.3,0.3-0.7,0.4-1c0.2-0.5,0.4-1,0.7-1.5c0.1-0.3,0.3-0.6,0.4-1
		c0.2-0.5,0.4-1,0.7-1.5c0.1-0.3,0.3-0.6,0.4-0.9c0.2-0.5,0.4-1,0.7-1.5c0.1-0.3,0.3-0.6,0.4-0.9c0.2-0.5,0.4-1,0.6-1.4
		c0.1-0.3,0.3-0.6,0.4-0.9c0.2-0.5,0.4-0.9,0.6-1.4c0.1-0.3,0.3-0.6,0.4-0.8c0.2-0.4,0.4-0.9,0.6-1.3c0.1-0.3,0.3-0.6,0.4-0.9
		c0.2-0.4,0.4-0.8,0.5-1.2c0.1-0.3,0.3-0.6,0.4-0.9c0.2-0.4,0.3-0.7,0.5-1.1c0.1-0.3,0.3-0.6,0.4-0.9c0.2-0.3,0.3-0.7,0.5-1
		c0.2-0.3,0.3-0.6,0.5-0.9c0.2-0.3,0.3-0.7,0.5-1c0.1-0.3,0.3-0.6,0.4-0.9c0.1-0.3,0.3-0.6,0.4-0.8c0.2-0.3,0.3-0.7,0.5-1
		c0.1-0.2,0.2-0.4,0.3-0.6c0.2-0.4,0.4-0.8,0.6-1.1c0.1-0.2,0.2-0.3,0.2-0.5c0.2-0.4,0.4-0.8,0.6-1.2c0.1-0.1,0.1-0.2,0.2-0.3
		c0.2-0.4,0.4-0.8,0.6-1.2c0,0,0,0,0,0c1.8-3.5,3.3-6.4,4.5-8.5c0,0,0,0,0.1-0.1c0.6-1.1,5.2-10.3,10.9-26.7
		c2.7,0.1,5.4,0.2,8.1,0.2c2.3,0,4.7-0.1,7-0.1c0.9,2.5,1.9,5.2,3.1,8c0,0.1,0.1,0.2,0.1,0.4c0.3,0.6,0.5,1.3,0.8,1.9
		c0.1,0.2,0.2,0.5,0.3,0.7c0.2,0.5,0.5,1.1,0.7,1.6c0.1,0.3,0.3,0.6,0.4,1c0.2,0.5,0.4,1,0.6,1.5c0.2,0.4,0.3,0.8,0.5,1.1
		c0.2,0.5,0.4,0.9,0.6,1.4c0.2,0.4,0.4,0.8,0.6,1.2c0.2,0.5,0.4,0.9,0.6,1.4c0.2,0.4,0.4,0.8,0.6,1.3c0.2,0.5,0.5,1,0.7,1.5
		c0.2,0.4,0.4,0.8,0.6,1.2c0.4,0.8,0.8,1.6,1.2,2.4c0.1,0.1,0.1,0.2,0.2,0.3c0.4,0.7,0.8,1.5,1.2,2.4c2.6,5.2,6.6,13.1,11.2,23.1
		c0,0,0,0.1,0,0.1c0.3,0.7,0.7,1.4,1,2.1c0,0,0,0.1,0,0.1c0.3,0.7,0.7,1.4,1,2.2c0,0.1,0,0.1,0.1,0.2c0.3,0.7,0.7,1.5,1,2.2
		c0,0.1,0.1,0.1,0.1,0.2c0.3,0.7,0.6,1.5,1,2.2c0.1,0.1,0.1,0.3,0.2,0.4c0.3,0.7,0.6,1.4,0.9,2c0.1,0.1,0.1,0.3,0.2,0.4
		c0.3,0.7,0.6,1.4,0.9,2.1c0.1,0.2,0.1,0.3,0.2,0.5c0.3,0.7,0.6,1.4,0.9,2.1c0.1,0.2,0.2,0.4,0.3,0.6c0.3,0.7,0.6,1.3,0.8,2
		c0.1,0.2,0.2,0.4,0.3,0.6c0.3,0.7,0.6,1.4,0.8,2c0.1,0.2,0.2,0.5,0.3,0.7c0.3,0.7,0.6,1.4,0.8,2c0.1,0.3,0.2,0.5,0.3,0.8
		c0.3,0.7,0.5,1.3,0.8,2c0.1,0.3,0.2,0.6,0.4,0.9c0.3,0.6,0.5,1.3,0.8,1.9c0.1,0.3,0.3,0.7,0.4,1c0.2,0.6,0.5,1.3,0.7,1.9
		c0.1,0.3,0.3,0.7,0.4,1c0.2,0.6,0.5,1.3,0.7,1.9c0.1,0.4,0.3,0.7,0.4,1.1c0.2,0.6,0.5,1.3,0.7,1.9c0.1,0.4,0.3,0.8,0.4,1.1
		c0.2,0.6,0.5,1.2,0.7,1.9c0,0.1,0,0.1,0.1,0.2c1,2.6-2.1,4.9-4.4,3.3l-5.1-3.7c-3.2-2.3-7.7-2.1-10.4,0.8c-3.3,3.5-2.7,8.9,1,11.6
		l0.2,0.2c20.9,15.3,34.9,38.4,38.4,64.1c0,0.1,0,0.2,0,0.2c0.2,1.3,0.3,2.6,0.5,3.9c0,0.2,0,0.3,0.1,0.5
		C569.7,730.9,565.8,733.1,563,731z M788.4,731.6c4.8,8.7,9.4,17.6,13.6,26.6c0,0,0,0,0,0c1.3,2.8-1,6-4.1,5.6l-10.2-1.3
		c-4.4-0.6-8.5,2.7-8.7,7.2c-0.3,4.1,2.9,7.7,7,8.2l1.2,0.2c15.7,2,28.8,12.8,33.8,27.8c0.2,0.5,0.3,1,0.5,1.5
		c0.4,1.2,0.8,2.4,1.1,3.6c0.3,0.8,0.5,1.6,0.8,2.4c0.3,1,0.6,2.1,1,3.1c0.5,1.8,1.1,3.6,1.6,5.4c0.2,0.7,0.4,1.3,0.5,2
		c0.3,1.1,0.6,2.2,0.9,3.3c0.7,3.1-2.3,5.7-5.2,4.6c-5.5-2-13.9-5.3-24.3-9.7c-13.1-5.5-22.4-17.3-24.7-31.3
		c-0.7-4.2-4.7-7.1-8.9-6.4c-4.2,0.7-7.1,4.7-6.4,8.9l0.7,4.1c0.5,3.2-2.8,5.6-5.7,4.2c-2-1-4-2-6-3c-0.3-0.1-0.5-0.3-0.8-0.4
		c-2-1-4-2.1-6.1-3.1c-0.1-0.1-0.3-0.1-0.4-0.2c-2.1-1.1-4.1-2.2-6.2-3.3c-0.1,0-0.2-0.1-0.3-0.1c-2.1-1.1-4.2-2.3-6.3-3.4
		c-0.1-0.1-0.3-0.2-0.4-0.2c-11.2-6.2-18.1-18-17.9-30.8c0.1-4.3-3.3-7.8-7.6-7.9c0,0-0.1,0-0.1,0c-4.2,0-7.7,3.4-7.8,7.6l-0.1,4.3
		c-0.1,3-3.4,4.8-6,3.2c-1.9-1.2-3.8-2.5-5.6-3.8c-0.1,0-0.1-0.1-0.2-0.1c-1.8-1.2-3.6-2.4-5.4-3.7c-0.1-0.1-0.2-0.1-0.3-0.2
		c-3.6-2.5-7.2-5.1-10.7-7.7c-0.2-0.1-0.3-0.2-0.5-0.4c-10.8-8.1-16.4-21.3-14.8-34.7c0.5-4.3-2.5-8.1-6.8-8.6
		c-4.3-0.5-8.1,2.5-8.6,6.8l-0.5,4.6c-0.3,2.3-3.1,3.3-4.8,1.7c0,0,0,0-0.1,0c0,0,0,0,0,0c-1.1-1.1-2.3-2.3-3.4-3.4
		c-0.2-0.2-0.5-0.5-0.7-0.7c-14.8-15.5-21.7-36.9-18.7-58.1c0.6-4.2-2.2-8.3-6.4-9c-4.3-0.7-8.4,2.3-9,6.6l-1.1,7.6
		c-0.4,2.7-4,3.6-5.5,1.2c-0.9-1.3-1.7-2.6-2.5-4c0,0,0,0,0,0c-2.5-4-4.9-7.9-7.2-11.8c0,0,0,0,0,0c-6.2-10.4-11.6-20.6-16.4-30.1
		c0,0,0,0,0,0c-1.8-3.5-3.5-7-5-10.3c0,0,0,0,0,0c-1-2.2-2-4.3-3-6.4c0,0,0-0.1-0.1-0.1c-0.5-1-0.9-2-1.4-3c0,0,0,0,0,0
		c-0.9-2-1.8-3.9-2.6-5.8c0-0.1-0.1-0.2-0.1-0.3c-0.8-1.8-1.5-3.6-2.3-5.2c0-0.1-0.1-0.2-0.1-0.3c-0.3-0.7-0.6-1.4-0.9-2.1
		c-0.1-0.2-0.1-0.3-0.2-0.5c-0.6-1.5-1.2-3-1.8-4.4c-0.1-0.2-0.2-0.4-0.2-0.6c-0.2-0.5-0.4-1-0.6-1.4c-0.1-0.2-0.2-0.4-0.2-0.6
		c-0.2-0.6-0.5-1.2-0.7-1.7c-0.1-0.2-0.2-0.4-0.2-0.6c-0.1-0.4-0.3-0.7-0.4-1.1c-0.1-0.3-0.2-0.5-0.3-0.8c-0.1-0.3-0.2-0.5-0.3-0.8
		c-0.8-1.9-1.4-3.6-1.9-5c-0.1-0.2-0.1-0.3-0.2-0.5c-0.4-1-0.8-2-1.2-3c-0.2-0.4-0.3-0.8-0.5-1.2c-0.3-0.8-0.6-1.5-0.9-2.3
		c-0.2-0.4-0.3-0.8-0.5-1.2c-0.3-0.8-0.7-1.5-1-2.2c-0.1-0.3-0.3-0.7-0.4-1c-0.4-0.8-0.7-1.6-1.1-2.4c-0.1-0.2-0.2-0.5-0.3-0.7
		c-0.1-0.3-0.3-0.6-0.4-0.9c8.3-1.4,16.5-3.3,24.2-5.9c6.8,3.6,10.6,5.4,10.6,5.4c0.4,0.2,0.8,0.3,1.2,0.5c0.1,0,0.2,0.1,0.2,0.1
		c0.3,0.2,0.7,0.3,1.1,0.5c0.1,0.1,0.3,0.1,0.4,0.2c0.3,0.1,0.7,0.3,1,0.5c0.2,0.1,0.3,0.1,0.5,0.2c0.3,0.2,0.7,0.3,1,0.5
		c0.2,0.1,0.4,0.2,0.5,0.2c0.4,0.2,0.7,0.3,1.1,0.5c0.2,0.1,0.4,0.2,0.5,0.2c0.4,0.2,0.8,0.4,1.3,0.6c0.2,0.1,0.3,0.2,0.5,0.2
		c0.5,0.2,1,0.5,1.5,0.7c0.1,0,0.2,0.1,0.3,0.1c0.6,0.3,1.3,0.6,2,0.9c0,0,0,0,0,0c2.8,1.3,5.8,2.8,9.1,4.4c0,0,0,0,0,0
		c0.8,0.4,1.6,0.8,2.5,1.2c0,0,0,0,0,0c0.8,0.4,1.7,0.8,2.6,1.3c0,0,0,0,0,0c15.7,7.9,35.8,18.5,56.8,31.2c2.4,1.4,1.7,5.1-1,5.5
		l-4.2,0.7c-4,0.7-7,4.2-6.7,8.3c0.3,4.2,3.8,7.2,7.7,7.2c0.4,0,0.9,0,1.3-0.1l0.3-0.1c19.2-3.3,38.9,1.5,54.5,13.3
		c3.1,2.4,6.2,4.8,9.3,7.2c1.9,1.5,1.1,4.7-1.3,5l-5.1,0.8c-4,0.6-7.1,4.1-6.9,8.2c0.3,4.2,3.7,7.3,7.7,7.3c0.4,0,0.8,0,1.2-0.1
		l5.8-0.9c11-1.7,22,1.5,30.3,8.7c7.9,8.4,15.5,17.6,22.8,27.6c0,0,0.1,0.1,0.1,0.1c1.7,2.5,0,5.8-3,6l-11.2,0.6
		c-4.2,0.2-7.7,3.6-7.7,7.8c0,4.3,3.5,7.8,7.8,7.8c0.1,0,0.3,0,0.4,0l6.9-0.4C769.6,713.3,782,720.1,788.4,731.6z M898.4,597.3
		c-5,0.6-11.7,1.3-19.7,2c-9.3,0.8-18.6-2.1-25.8-8.1l-4.6-3.9c-3.3-2.8-8.2-2.3-10.9,0.9c-2.8,3.3-2.3,8.2,0.9,10.9
		c1,0.9,0.5,2.6-0.9,2.6c-1.6,0-3.2,0.1-4.9,0.1c-0.1,0-0.2,0-0.3,0c-1.6,0-3.1,0.1-4.7,0.1c-0.1,0-0.3,0-0.4,0
		c-1.6,0-3.1,0-4.7,0.1c-0.1,0-0.3,0-0.4,0c-1.7,0-3.3,0-5,0c0,0-0.1,0-0.1,0c-0.1,0-0.2,0-0.2,0c-12.7,0-24.7-5.6-33-15.3l-3-3.5
		c-2.8-3.2-7.7-3.9-11-1.2c-3.4,2.8-3.9,7.8-1,11.1l3.2,3.8c1.2,1.4,0.1,3.5-1.7,3.3c-0.2,0-0.3,0-0.5,0c-2-0.2-4-0.3-6-0.5
		c-0.3,0-0.7-0.1-1-0.1c-2-0.2-4-0.4-6-0.6c-0.2,0-0.4,0-0.7-0.1c-16.5-1.9-31.5-10.7-41-24.3l0,0c-2.4-3.5-7.3-4.6-10.8-2.3
		c-3.7,2.4-4.6,7.4-2.1,10.9l2.7,3.9c0.8,1.1-0.2,2.6-1.6,2.3c-1.1-0.3-2.3-0.6-3.4-0.9c-18.2-4.9-34-16.3-44.4-32l-2.6-4
		c-2.4-3.6-7.4-4.6-11-2c-3.5,2.5-4.1,7.4-1.8,10.9l2.7,4c0.9,1.3-0.5,2.9-1.9,2.3c-0.2-0.1-0.3-0.1-0.5-0.2c-0.8-0.3-1.5-0.7-2.3-1
		c-0.3-0.1-0.6-0.2-0.8-0.4c-1-0.4-2.1-0.9-3.1-1.3c-0.2-0.1-0.3-0.1-0.5-0.2c-0.9-0.4-1.7-0.7-2.6-1.1c-0.3-0.1-0.6-0.3-1-0.4
		c-0.7-0.3-1.4-0.6-2.1-0.9c-0.3-0.2-0.7-0.3-1-0.5c-0.7-0.3-1.4-0.6-2.1-0.9c-0.3-0.1-0.6-0.3-0.9-0.4c-1-0.4-1.9-0.9-2.9-1.3
		c0,0,0,0,0,0c-1-0.4-1.9-0.9-2.9-1.3c-0.3-0.1-0.5-0.3-0.8-0.4c-0.7-0.3-1.4-0.6-2-1c-0.3-0.1-0.6-0.3-0.9-0.4
		c-0.6-0.3-1.3-0.6-1.9-0.9c-0.3-0.1-0.6-0.3-0.9-0.4c-0.7-0.4-1.5-0.7-2.2-1.1c-0.2-0.1-0.3-0.2-0.5-0.2c-0.9-0.4-1.8-0.9-2.6-1.3
		c-0.2-0.1-0.5-0.2-0.7-0.3c-0.6-0.3-1.3-0.6-1.9-0.9c-0.3-0.2-0.6-0.3-0.9-0.5c-0.5-0.3-1.1-0.5-1.6-0.8c-0.3-0.2-0.6-0.3-0.9-0.4
		c-0.6-0.3-1.1-0.6-1.7-0.9c-0.2-0.1-0.5-0.2-0.7-0.4c-0.8-0.4-1.6-0.8-2.3-1.2c-0.2-0.1-0.4-0.2-0.6-0.3c-0.6-0.3-1.2-0.6-1.7-0.9
		c-0.3-0.1-0.6-0.3-0.8-0.4c-0.5-0.2-0.9-0.5-1.4-0.7c-0.3-0.2-0.6-0.3-0.9-0.5c-0.4-0.2-0.9-0.5-1.3-0.7c-0.3-0.2-0.6-0.3-0.9-0.5
		c-0.5-0.3-1-0.5-1.5-0.8c-0.3-0.2-0.6-0.3-0.9-0.5c-0.5-0.3-1-0.5-1.5-0.8c-0.3-0.1-0.5-0.3-0.8-0.4c-0.4-0.2-0.7-0.4-1.1-0.6
		c-0.3-0.2-0.6-0.3-0.9-0.5c-0.3-0.2-0.6-0.3-0.9-0.5c-0.3-0.2-0.6-0.3-0.9-0.5c-0.3-0.2-0.6-0.3-0.8-0.5c-0.6-0.3-1.2-0.7-1.8-1
		c-0.2-0.1-0.4-0.2-0.6-0.3c-0.3-0.2-0.6-0.3-0.9-0.5c-0.2-0.1-0.4-0.2-0.6-0.3c-0.3-0.2-0.6-0.3-0.8-0.5
		c13.1-6.7,24.6-15.3,34.4-25.6c2.5-0.1,5-0.1,7.7-0.1c0.2,0,0.4,0,0.6,0c0.7,0,1.4,0,2.1,0c0.3,0,0.6,0,0.9,0c0.7,0,1.3,0,2,0
		c0.3,0,0.5,0,0.8,0c0.9,0,1.9,0,2.8,0c0,0,0,0,0,0c1.7,0,3.5,0,5.3,0c0.3,0,0.5,0,0.8,0c1.7,0,3.4,0,5.2,0.1c0.3,0,0.7,0,1,0
		c1.8,0,3.5,0.1,5.3,0.1c0.3,0,0.6,0,0.8,0c1.9,0,3.8,0.1,5.7,0.2c0,0,0,0,0,0c1.3,0,2,1.6,1.2,2.6c-1.7,2-3.3,5-1.9,8.2
		c1.3,2.9,4.2,4.6,7.1,4.6c1.3,0,2.7-0.3,3.9-1.1c14.7-8.5,31.8-12,48.6-9.9c0.1,0,0.2,0,0.3,0c2.8,0.4,5.6,0.7,8.4,1.2
		c0,0,0.1,0,0.1,0c1.4,0.2,1.7,2.1,0.4,2.8c-2.3,1.2-4.1,3.2-4.3,5.8c-0.3,5.5,3.7,8.8,7.8,8.8c1.2,0,2.4-0.3,3.5-0.9
		c13.9-7.2,29.7-9.5,44.7-4.9c2.6,0.8,5.3,1.7,8,2.6c0.2,0.1,0.4,0.1,0.6,0.2c1.2,0.4,2.4,0.8,3.7,1.3c0.3,0.1,0.6,0.2,0.9,0.3
		c1.2,0.4,2.5,0.9,3.7,1.3c0,0,0.1,0,0.1,0c1.7,0.6,1.8,3,0.1,3.8l-4.6,2c-3.8,1.7-6,6-4.5,10c1.2,3.2,4.2,5.1,7.3,5.1
		c1,0,2.1-0.2,3.1-0.6l6.2-2.7c11.4-4.9,24.4-4.7,35.7,0.5c0.2,0.1,0.4,0.2,0.6,0.3c3.1,1.5,6.3,3,9.4,4.5c0.1,0.1,0.2,0.1,0.4,0.2
		c3.2,1.6,6.5,3.2,9.7,4.9c1.2,0.6,1,2.4-0.3,2.8l-1.1,0.3c-4.1,1-6.9,5.1-6,9.2c0.8,3.7,4,6.2,7.6,6.2c0.6,0,1.3-0.1,1.9-0.2l7-1.8
		c9.3-2.4,19.1-0.8,27.3,4.2c2.3,1.4,4.6,2.9,6.9,4.3c0.2,0.1,0.5,0.3,0.7,0.4c2.2,1.4,4.4,2.9,6.6,4.3c0.1,0.1,0.2,0.1,0.3,0.2
		C903.1,592.3,902,596.9,898.4,597.3z"/>
	<path class="st69" d="M592.8,351.6c-2.7,0-5.3-1.4-6.7-3.9c-2.1-3.7-0.9-8.5,2.8-10.6c4.8-2.8,8.2-7.2,9.6-12.6
		c1.4-5.3,0.6-10.9-2.3-15.6c-2.5-4.2-3.2-9-2-13.7c1.2-4.6,4.2-8.5,8.4-11c4.8-2.8,8.2-7.2,9.6-12.6c1.1-4.2,5.3-6.6,9.5-5.6
		c4.2,1.1,6.6,5.3,5.6,9.5c-2.4,9.4-8.4,17.3-16.8,22.1c-0.7,0.4-1,1-1.1,1.4s-0.1,1.1,0.3,1.8c5,8.3,6.4,18.1,4,27.5
		s-8.4,17.3-16.8,22.1C595.4,351.3,594.1,351.6,592.8,351.6z"/>
	<path class="st30" d="M626.3,368.1c-5.5,6-10.6,12.4-15.3,19c-1.8,2.5-4.8,3.7-7.8,3.1c-3-0.6-5.4-2.8-6.1-5.8
		c-3.5-14.6-8.8-28.8-15.7-42.5c-9.4,13.5-17.2,27.9-23,43.1c-1.1,2.9-3.8,4.8-6.9,5c-3.1,0.1-6-1.6-7.3-4.4
		c-4.1-8.6-8.8-16.9-14-24.8c-4.1,7.6-7.7,15.6-10.9,23.8c-1.5,4-6,6-10,4.4c-4-1.5-6-6-4.4-10c5-12.9,11.1-25.3,18.1-36.7
		c1.4-2.2,3.7-3.6,6.3-3.7c2.6-0.1,5,1.1,6.6,3.1c5.3,7.2,10.2,14.7,14.7,22.5c7-14.7,15.7-28.6,26-41.6c1.6-2,4.1-3.1,6.7-2.9
		c2.6,0.2,4.9,1.6,6.2,3.9c7.7,13.5,14,27.5,18.7,41.9c4.9-6,10.2-11.8,15.7-17.2L626.3,368.1z"/>
	<path class="st69" d="M562.8,420.2c-1.8,0-3.5-0.6-5-1.8c-7.5-6.2-12-15-12.8-24.7c-0.5-6,0.5-12.1,3-17.5
		c2.8-6.4,2.2-14.3-1.6-20.1c-3.3-5-5.3-10.8-5.8-16.8c-0.4-4.3,2.8-8,7.1-8.4c4.3-0.4,8,2.8,8.4,7.1c0.3,3.5,1.4,6.7,3.3,9.5
		c6.8,10.3,7.9,23.7,2.9,34.9c-1.4,3.1-2,6.5-1.7,9.9c0.5,5.5,3,10.5,7.3,14c3.3,2.7,3.7,7.6,1,10.9
		C567.2,419.3,565,420.2,562.8,420.2z"/>
	<circle class="st68" cx="621.8" cy="349.7" r="7.8"/>
	<path class="st69" d="M433.9,240.1c-0.4-1.1-0.9-2.2-1.5-3.2c-2.7-4.8-7.2-8.2-12.5-9.7c-4.7-1.3-8.6-4.2-11-8.4s-2.9-9-1.6-13.7
		c1.5-5.3,0.8-10.9-1.9-15.7c-2.1-3.7-0.8-8.5,2.9-10.6c3.7-2.1,8.5-0.8,10.6,2.9c4.8,8.4,6,18.2,3.3,27.6c-0.2,0.8,0,1.4,0.2,1.8
		c0.2,0.4,0.6,0.9,1.5,1.1c8.6,2.3,15.8,7.5,20.7,14.8L433.9,240.1z"/>
	<path class="st30" d="M407.7,259.3c5.5,6,10.6,12.4,15.3,19c1.8,2.5,4.8,3.7,7.8,3.1c3-0.6,5.4-2.8,6.1-5.8
		c3.5-14.6,8.8-28.8,15.7-42.5c9.4,13.5,17.2,27.9,23,43.1c1.1,2.9,3.8,4.8,6.9,5c3.1,0.1,6-1.6,7.3-4.4c4.1-8.6,8.8-16.9,14-24.8
		c4.1,7.6,7.7,15.6,10.9,23.8c1.5,4,6,6,10,4.4c4-1.5,6-6,4.4-10c-5-12.9-11.1-25.3-18.1-36.7c-1.4-2.2-3.7-3.6-6.3-3.7
		c-2.6-0.1-5,1.1-6.6,3.1c-5.3,7.2-10.2,14.7-14.7,22.5c-7-14.7-15.7-28.6-26-41.6c-1.6-2-4.1-3.1-6.7-2.9c-2.6,0.2-4.9,1.6-6.2,3.9
		c-7.7,13.5-14,27.5-18.7,41.9c-4.9-6-10.2-11.8-15.7-17.2L407.7,259.3z"/>
	<circle class="st68" cx="484.2" cy="253.6" r="7.8"/>
	<circle class="st68" cx="441.2" cy="221.8" r="7.8"/>
	<path class="st69" d="M463.7,109.9c-3.1,0-6.1-1.9-7.3-5c-2.1-5.6-2.9-11.7-2.1-17.7c0.9-6.9-1.9-14.3-7.2-18.8
		c-4.6-3.9-8.1-8.9-10.2-14.5c-1.5-4,0.5-8.5,4.5-10c4-1.5,8.5,0.5,10,4.5c1.2,3.2,3.2,6,5.8,8.2c9.4,8,14.2,20.5,12.5,32.7
		c-0.5,3.4-0.1,6.8,1.2,10c1.5,4-0.5,8.5-4.5,10C465.6,109.8,464.6,109.9,463.7,109.9z"/>
	<path class="st69" d="M521.1,122.1c1.5-5.8,1.5-12,0.1-17.8c-1.8-7.2,0-14.1,5-19.5c4.1-4.4,7.1-9.8,8.6-15.6
		c1.1-4.2-1.4-8.4-5.6-9.5c-4.2-1.1-8.4,1.4-9.5,5.6c-0.9,3.4-2.5,6.3-4.9,8.8c-8.7,9.3-11.9,21.6-8.8,33.9L521.1,122.1z"/>
	<path class="st30" d="M557.8,107c-10.3,12.8-19,26.7-25.8,41.5c-1.3,2.8-4.2,4.6-7.2,4.5c-3.1-0.1-5.8-2-7-4.9
		c-3.6-8.8-7.7-17.4-12.3-25.7c-4.6,7.3-8.7,15-12.5,23c-1.8,3.9-6.4,5.6-10.3,3.8c-3.9-1.8-5.6-6.4-3.8-10.3
		c5.9-12.6,12.8-24.5,20.5-35.4c1.5-2.1,3.8-3.3,6.3-3.3c0.1,0,0.1,0,0.2,0c2.6,0.1,5,1.4,6.3,3.6c4.8,7.5,9.2,15.4,13.2,23.5
		c8-14.2,17.6-27.5,28.7-39.7L557.8,107z"/>
	<circle class="st68" cx="485.2" cy="120.1" r="7.8"/>
	<circle class="st68" cx="555.7" cy="111.7" r="7.8"/>
	<line class="st70" x1="491.2" y1="713.6" x2="491.2" y2="766.6"/>
	<line class="st70" x1="491.2" y1="814.7" x2="491.2" y2="827.7"/>
	<line class="st70" x1="300.7" y1="696.5" x2="318.4" y2="678.9"/>
	<line class="st70" x1="298.7" y1="539.4" x2="311.5" y2="536.4"/>
</g>
<g id="Layer_2">
</g>
<g id="Layer_3">
</g>
</svg>
