<?xml version="1.0" encoding="utf-8"?>
<!-- Generator: Adobe Illustrator 20.1.0, SVG Export Plug-In . SVG Version: 6.00 Build 0)  -->
<svg version="1.1" id="Layer_1" xmlns="http://www.w3.org/2000/svg" xmlns:xlink="http://www.w3.org/1999/xlink" x="0px" y="0px"
	 viewBox="0 0 400 400" style="enable-background:new 0 0 400 400;" xml:space="preserve">
<style type="text/css">
	.st0{fill:#A7C92B;stroke:#1B4700;stroke-width:5;stroke-miterlimit:10;}
	.st1{fill:#6FAB00;stroke:#1B4700;stroke-width:5;stroke-miterlimit:10;}
	.st2{fill:#9BB31C;stroke:#2A481D;stroke-width:4;stroke-miterlimit:10;}
	.st3{fill:#6FB228;stroke:#2A481D;stroke-width:4;stroke-linecap:round;stroke-miterlimit:10;}
	.st4{fill:#6E8517;}
	.st5{fill:#1B4700;}
	.st6{fill:#00FFFF;}
	.st7{fill:#A2CC62;stroke:#2A481D;stroke-width:6;stroke-miterlimit:10;}
	.st8{fill:#FAD500;stroke:#E6681E;stroke-width:3;stroke-miterlimit:10;}
	.st9{fill:none;stroke:#E6681E;stroke-linecap:round;stroke-miterlimit:10;}
	.st10{fill:none;stroke:#FFFFFF;stroke-linecap:round;stroke-miterlimit:10;}
	.st11{fill:none;stroke:#E6681E;stroke-miterlimit:10;}
	.st12{fill:#E6681E;}
	.st13{fill:#A2CC62;stroke:#2A481D;stroke-miterlimit:10;}
	.st14{fill:#FFFFFF;}
	.st15{fill:#A2CC62;}
	.st16{fill:#F9C900;}
	.st17{fill:#CE571B;}
	.st18{fill:#9BB31C;}
	.st19{fill:#164100;}
	.st20{fill:#4D831C;}
	.st21{fill:#2A481D;}
	.st22{fill:#A7C92B;}
	.st23{fill:#D10000;stroke:#7B000E;stroke-width:3;stroke-miterlimit:10;}
	.st24{fill:none;stroke:#7B000E;stroke-miterlimit:10;}
	.st25{fill:none;stroke:#7B000E;stroke-width:1.2609;stroke-miterlimit:10;}
	.st26{fill:#D10000;}
	.st27{fill:#7B000E;}
	.st28{opacity:0.7;}
	.st29{fill:#4D831C;stroke:#2A481D;stroke-width:3;stroke-miterlimit:10;}
	.st30{opacity:0.5;fill:none;stroke:#FFFFFF;stroke-linecap:round;stroke-miterlimit:10;}
	.st31{fill:#BD0408;}
	.st32{fill:#C8040B;stroke:#6C0A04;stroke-width:3;stroke-miterlimit:10;}
	.st33{fill:none;stroke:#6C0A04;stroke-linecap:round;stroke-miterlimit:10;}
	.st34{fill:#A7C08F;}
	.st35{fill:none;stroke:#FFFFFF;stroke-width:6.4322;stroke-linecap:round;stroke-miterlimit:10;}
	.st36{fill:#C8040B;}
	.st37{fill:#6C0A04;}
	.st38{fill:#F22F2E;stroke:#9E0E00;stroke-width:3;stroke-miterlimit:10;}
	.st39{fill:#A7C92B;stroke:#164E16;stroke-width:3;stroke-miterlimit:10;}
	.st40{fill:none;stroke:#164E16;stroke-miterlimit:10;}
	.st41{fill:#4D831C;stroke:#2A481D;stroke-width:3;stroke-linecap:round;stroke-linejoin:round;stroke-miterlimit:10;}
	.st42{fill:#F22F2E;stroke:#7B000E;stroke-width:3;stroke-miterlimit:10;}
	.st43{fill:none;stroke:#7B000E;stroke-linecap:round;stroke-miterlimit:10;}
	.st44{fill:#F40000;stroke:#7B000E;stroke-width:3;stroke-miterlimit:10;}
	.st45{fill:#F40000;}
	.st46{fill:#7DB34C;stroke:#164E16;stroke-width:3;stroke-miterlimit:10;}
	.st47{fill:none;stroke:#FFFFFF;stroke-linecap:round;stroke-linejoin:round;stroke-miterlimit:10;}
	.st48{fill:#8A9D1F;}
	.st49{fill:#164E16;}
	.st50{fill:none;stroke:#7B000E;stroke-linecap:round;stroke-linejoin:round;stroke-miterlimit:10;}
	.st51{fill:#F6E600;}
	.st52{fill:#8DCC50;}
	.st53{fill:#A2A121;}
	.st54{fill:#F9EFA7;}
	.st55{fill:#7DB34C;}
	.st56{fill:#F22F2E;}
	.st57{fill:#6FAB00;stroke:#1B4700;stroke-width:3;stroke-miterlimit:10;}
	.st58{fill:none;stroke:#1B4700;stroke-linecap:round;stroke-miterlimit:10;}
	.st59{fill:#6E8517;stroke:#1B4700;stroke-linecap:round;stroke-miterlimit:10;}
	.st60{fill:#6FAB00;}
	.st61{fill:#853323;}
	.st62{fill:#7AB000;}
	.st63{fill:#430000;}
	.st64{fill:#2B0101;}
	.st65{fill:none;stroke:#1B4700;stroke-width:1.5;stroke-linecap:round;stroke-linejoin:round;stroke-miterlimit:10;}
	.st66{fill:none;stroke:#1B4700;stroke-width:3;stroke-linecap:round;stroke-linejoin:round;stroke-miterlimit:10;}
	.st67{fill:#FAB2B3;}
	.st68{fill:none;stroke:#1B4700;stroke-width:18.8546;stroke-linecap:round;stroke-linejoin:round;stroke-miterlimit:10;}
	.st69{fill:none;stroke:#1B4700;stroke-width:2;stroke-linecap:round;stroke-miterlimit:10;}
	.st70{fill:none;stroke:#6FAB00;stroke-linecap:round;stroke-miterlimit:10;}
	.st71{fill:#9E0E00;}
	.st72{clip-path:url(#SVGID_2_);}
	.st73{fill:#6FB228;}
	.st74{fill:#F9C900;stroke:#CE571B;stroke-width:3;stroke-miterlimit:10;}
	.st75{opacity:0.3;fill:none;stroke:#CE571B;stroke-linecap:round;stroke-linejoin:round;stroke-miterlimit:10;}
	.st76{opacity:0.3;fill:#CE571B;}
	.st77{fill:#EAA629;}
	.st78{fill:#853323;stroke:#430000;stroke-width:3;stroke-miterlimit:10;}
	.st79{fill:none;stroke:#430000;stroke-linecap:round;stroke-miterlimit:10;}
	.st80{fill:#8A9D1F;stroke:#1B4700;stroke-miterlimit:10;}
	.st81{fill:#F22F2E;stroke:#7B000E;stroke-width:2.5607;stroke-miterlimit:10;}
	.st82{opacity:0.4;}
	.st83{fill:#8A9D1F;stroke:#1B4700;stroke-linejoin:round;stroke-miterlimit:10;}
	.st84{opacity:0.3;fill:#1B4700;}
	.st85{opacity:0.4;fill:#7B000E;}
	.st86{opacity:0.4;fill:none;stroke:#7B000E;stroke-linecap:round;stroke-linejoin:round;stroke-miterlimit:10;}
	.st87{opacity:0.4;fill:none;stroke:#7B000E;stroke-miterlimit:10;}
	.st88{opacity:0.3;fill:none;stroke:#1B4700;stroke-linecap:round;stroke-linejoin:round;stroke-miterlimit:10;}
	.st89{fill:#C01F28;}
	.st90{fill:#698222;}
	.st91{fill:none;stroke:#7B000E;stroke-width:6.1236;stroke-miterlimit:10;}
</style>
<path class="st56" d="M385.3,250.5c-8.5-54.6-62.8-80.9-123.4-71.5c-16.9,2.6-32.4,7.8-45.9,15c-17.9-21.3-46.9-35.6-80.8-39.7
	C74.4,147,21,175.1,14.3,229.9s36,115.7,96.8,123.1c27.9,3.4,54.7-5.1,76.2-20.5c23.9,30.7,63.9,50.7,105.3,44.2
	C353.2,367.3,393.7,305.1,385.3,250.5z"/>
<path class="st27" d="M394.3,249.1c-4.5-28.6-21.1-52.2-46.8-66.4c-24-13.2-54.9-17.8-87.1-12.8c-7.1,1.1-14,2.6-20.7,4.6
	c-13.1,3.8-27.3,1.6-38.6-6.1c-17.8-12.2-40-20.2-64.8-23.2c-32.2-3.9-63,1.6-86.6,15.6c-25.3,15-41.1,39.1-44.6,67.9
	c-3.5,29.1,5.5,60.5,24.9,86c20.2,26.7,48.6,43.5,79.9,47.3c20.3,2.5,41-0.8,60.2-9.3c9.2-4.1,20-2.6,27.6,4
	c9.6,8.2,20.3,15.1,31.9,20.2c15.2,6.7,31.4,10.2,47.4,10.2c5.7,0,11.4-0.4,17-1.3c31.1-4.8,59-22.6,78.3-49.9
	C390.8,309.7,398.8,278.1,394.3,249.1z M112.2,343.9c-26.3-3-50.3-17.5-67.5-40.2c-16.5-21.8-24.3-48.3-21.3-72.7
	c2.8-23.3,15.2-42.1,35.7-54.3c20.1-12,46.8-17.2,75-13.2c28.1,4,49.3,16.2,62,25.6c7.1,5.2,7.4,15.7,0.8,21.5
	c-2.4,2-4.6,4.2-6.7,6.4c-17.8,18.8-25.2,42-21.2,67.1c1.4,8.9,4.1,17.5,7.8,25.7c3.9,8.5,0.5,18.6-7.9,22.8
	C155.8,339.2,135.3,346.5,112.2,343.9z M357.3,325.3c-16.5,23.3-39.9,38.3-66.1,42.4c-18,2.8-36.7,0.2-54.1-7.5
	c-16.6-7.3-31.3-18.8-42.5-33.3l-3.8-4.9c-8-11.6-13.5-24.8-15.7-38.8c-3.6-23.2,3.2-44.7,19.6-62c5.8-6.1,12.6-11.5,20.2-16.1
	c0,0,0,0,0-0.1l5.4-2.9c12.9-6.9,27.4-11.6,43-14.1c28.1-4.4,54.9-0.6,75.4,10.7c20.9,11.5,33.9,29.9,37.5,53.1
	C380,276.2,373.1,303,357.3,325.3z"/>
<path class="st89" d="M320.8,322.7c-0.4,0-0.8-0.1-1.2-0.3c-1.5-0.7-2.2-2.5-1.6-4c8.5-19.1,12.2-42,10.2-62.8
	c-0.2-1.7,1.1-3.2,2.7-3.3c1.7-0.2,3.2,1.1,3.3,2.7c2.1,21.9-1.7,45.9-10.7,65.9C323.1,322,322,322.7,320.8,322.7z"/>
<path class="st89" d="M338.9,322.7c-0.6,0-1.1-0.1-1.6-0.5c-1.4-0.9-1.9-2.8-1-4.2c5.9-9.4,10.1-19.7,12.6-30.5
	c0.4-1.6,2-2.7,3.7-2.3c1.6,0.4,2.7,2,2.3,3.7c-2.6,11.5-7.1,22.4-13.4,32.4C340.9,322.2,339.9,322.7,338.9,322.7z"/>
<path class="st48" d="M312.8,45c-0.5,2.4-1.9,4.4-3.8,5.8c-22.9,16.8-36,41.2-38.9,72.6l0,0.4c-1.9,20.3,7.4,40,24.1,51.5l25.3,17.5
	l0,0c-31,24.1-72.2,30.5-109,16.9l0,0l22.5-29.1c8.1-10.4,12.4-23.3,12.1-36.4c-0.7-31.9,7.5-78.3,53-109.6c1.9-1.3,4.3-1.9,6.6-1.6
	l0,0c5.5,0.7,9.3,5.9,8.2,11.3L312.8,45z"/>
<path class="st14" d="M249.7,244.4c-5.1,0-10.3-0.3-15.4-0.8c-1.7-0.2-2.9-1.7-2.7-3.4c0.2-1.7,1.7-2.9,3.4-2.7
	c4.9,0.5,9.8,0.8,14.8,0.8c14.9,0,29.6-2.5,43.8-7.3c1.6-0.5,3.3,0.3,3.9,1.9c0.5,1.6-0.3,3.3-1.9,3.9
	C280.7,241.8,265.3,244.4,249.7,244.4z"/>
<path class="st48" d="M221.6,36.4c-1.1,2.1-3,3.7-5.2,4.6c-26.6,9.9-45.8,29.8-57.2,59.3l-0.2,0.4c-7.3,19-3.8,40.5,9.2,56.1
	l19.6,23.7l0,0c-36.4,14.8-77.8,9.7-109.5-13.3l0,0l29.6-21.9c10.6-7.8,18.3-19,21.6-31.8c8-30.9,28.5-73.4,80.7-91
	c2.2-0.7,4.7-0.6,6.8,0.3l0,0c5.1,2.1,7.3,8.2,4.8,13.1L221.6,36.4z"/>
<path class="st5" d="M176.5,155.4c6.2,2.5,12,5.3,17.5,8.6L180,147c-9.4-11.4-12-27.1-6.7-40.9l0.1-0.4c9.9-25.5,25.6-42,48.3-50.5
	c5.9-2.2,10.7-6.5,13.5-12l0.2-0.4c3.1-6.1,3.6-13.4,1.2-19.8s-7.4-11.7-13.7-14.4C217.3,6.3,211,6.1,205.3,8
	c-26.3,8.9-48,24.3-64.3,45.8c-12,15.8-20.9,34.6-26.4,55.9c-2.4,9.2-8,17.5-15.9,23.3l-22.2,16.4c6.1-1.8,12.5-3.1,19-4
	c2.3-0.3,3.5,2.6,1.6,4l-20.7,15.3c-0.8,0.6-1.2,1.5-1.2,2.5c0,1,0.5,1.9,1.3,2.5c16,11.6,34.8,19,54.5,21.4c4.7,0.6,9.3,0.8,14,0.8
	c15,0,29.9-2.9,43.9-8.5c0.6-0.3,1.2-0.7,1.6-1.2c0.7-1.2,0.6-2.6-0.2-3.6L174,158.9C172.5,157.1,174.4,154.6,176.5,155.4z
	 M176.9,181.1c-29.7,9-61.5,5.1-88.2-10.7c-2.5-1.5-2.7-5.1-0.4-6.8l21.3-15.8c11.2-8.3,19.3-20.2,22.7-33.5
	c8.1-31.1,28.3-71.8,78.8-88.9c1.5-0.5,3.1-0.4,4.6,0.2c1.8,0.8,3.2,2.3,3.7,4.2c0.5,1.6,0.2,3.4-0.6,4.9l-0.1,0.2c0,0,0,0,0,0
	c-0.7,1.4-2,2.5-3.6,3.1c-27.5,10.2-47.3,30.8-59,61.1l-0.1,0.3c-7.7,20-4,42.7,9.7,59.2l13.1,15.8
	C180.8,176.9,179.8,180.3,176.9,181.1z"/>
<path class="st14" d="M60.6,251.1C60.6,251.1,60.6,251.1,60.6,251.1c-1.8-0.1-3.1-1.5-3.1-3.2c0.1-3.7,0.4-7.5,0.8-11.1
	c1.7-14,5.7-26.5,11.8-37.3c0.8-1.5,2.7-2,4.2-1.1c1.5,0.8,2,2.7,1.1,4.2c-5.7,10-9.4,21.8-11,35c-0.4,3.5-0.7,7-0.8,10.6
	C63.6,249.8,62.3,251.1,60.6,251.1z"/>
<circle class="st14" cx="222.8" cy="238.7" r="3.1"/>
<circle class="st89" cx="288.9" cy="350.8" r="3.4"/>
<ellipse transform="matrix(0.9999 -1.587701e-02 1.587701e-02 0.9999 -2.3588 4.1109)" class="st90" cx="257.7" cy="150.6" rx="3.1" ry="3.1"/>
<circle class="st89" cx="61.5" cy="263.7" r="3.1"/>
<path class="st89" d="M70.8,302.5c-1.2,0-2.3-0.7-2.8-1.8c-3.1-7-5.6-14.6-7.3-22.5c-0.4-1.7,0.7-3.3,2.3-3.6
	c1.7-0.4,3.3,0.7,3.6,2.3c1.6,7.5,3.9,14.7,6.9,21.3c0.7,1.5,0,3.4-1.5,4C71.7,302.4,71.2,302.5,70.8,302.5z"/>
<path class="st90" d="M160.8,75.2c-0.6,0-1.2-0.2-1.7-0.5c-1.4-0.9-1.8-2.9-0.8-4.3c3.9-5.7,8.2-11.1,13-15.9c1.2-1.2,3.1-1.2,4.3,0
	c1.2,1.2,1.2,3.1,0,4.3c-4.5,4.6-8.6,9.6-12.3,15.1C162.8,74.7,161.8,75.2,160.8,75.2z"/>
<path class="st90" d="M139.5,130.9c-0.2,0-0.3,0-0.5,0c-1.7-0.3-2.8-1.9-2.5-3.5c2.6-15.8,7.3-30.3,13.8-43.4
	c0.8-1.5,2.6-2.1,4.1-1.4c1.5,0.8,2.1,2.6,1.4,4.1c-6.3,12.5-10.8,26.5-13.3,41.6C142.3,129.8,141,130.9,139.5,130.9z"/>
<path class="st90" d="M257.2,136.7C257.1,136.7,257.1,136.7,257.2,136.7c-1.8-0.1-3.1-1.5-3.1-3.2c0.2-5.9,0.7-11.7,1.6-17.4
	c0.3-1.7,1.8-2.8,3.5-2.5c1.7,0.3,2.8,1.8,2.5,3.5c-0.9,5.4-1.4,11-1.5,16.6C260.2,135.4,258.8,136.7,257.2,136.7z"/>
<path class="st90" d="M261.8,105.6c-0.3,0-0.5,0-0.8-0.1c-1.6-0.5-2.6-2.1-2.1-3.8c0.8-3,1.8-6,2.8-8.9c0.6-1.6,2.3-2.4,3.9-1.8
	c1.6,0.6,2.4,2.3,1.8,3.9c-1,2.8-1.9,5.6-2.7,8.4C264.4,104.7,263.2,105.6,261.8,105.6z"/>
<path class="st5" d="M314.4,170.8c0,0-11.6-8-11.6-8c-12.2-8.4-18.9-22.8-17.6-37.6l0-0.4c2.5-27.2,13.2-47.4,32.7-61.7
	c5.1-3.7,8.6-9.1,9.8-15.2l0.1-0.5c1.3-6.8-0.2-13.8-4.2-19.4c-4-5.6-10.3-9.3-17.1-10.1c-6.1-0.7-12.2,0.7-17.1,4.2
	c-22.9,15.7-39.5,36.5-49.4,61.6c-7.2,18.5-10.7,39-10.2,60.9c0.2,9.5-3,19-8.9,26.7l-3.1,4.1c3.8,0.8,7.6,1,11.4,0.8
	c1.4-0.1,2.3,1.5,1.4,2.6c0,0,0,0,0,0L208.1,208c-0.6,0.8-0.8,1.8-0.5,2.7c0.3,0.9,1,1.7,1.9,2c12.9,4.8,26.6,7.2,40.4,7.2
	c6,0,12-0.5,17.9-1.4c19.5-3,38.1-11.1,53.7-23.2c0.8-0.6,1.2-1.5,1.2-2.5s-0.5-1.9-1.3-2.4l-25.3-17.5c-0.7-0.5-1.4-1-2-1.5
	c-1.3-1-0.5-3.1,1.2-2.9C299.7,169,306.9,169.8,314.4,170.8z M307,197.8c-25,15.2-54.7,19.8-83.1,12.9c-4.1-1-5.7-5.9-3.2-9.2
	l14.6-18.9c8.5-11,13.1-24.6,12.8-38.4c-0.7-32.2,7.7-76.8,51.6-107c1.3-0.9,2.9-1.3,4.5-1.1c2,0.2,3.7,1.3,4.7,3.1
	c0.9,1.4,1.1,3.2,0.8,4.8l-0.1,0.3c-0.3,1.6-1.2,3-2.6,4C283.5,65.7,270,90.9,267,123.2l0,0.4c-2,21.3,7.8,42.2,25.4,54.3l14.8,10.2
	C310.6,190.5,310.5,195.7,307,197.8z"/>
</svg>
