<svg xmlns="http://www.w3.org/2000/svg" width="48" height="48" viewBox="0 0 48 48"><path fill="#455A64" d="M33.906,27.118C33.474,23.776,31.156,12,20,12c0,0-3.554,0.003-6.196,3.727c-0.079-0.094-0.144-0.178-0.244-0.287C13.545,15.423,12,13.813,12,11.5C12,9.288,14.432,7,18.5,7c4.5,0,5.635,1.928,5.654,1.975c0.262,0.785,1.114,1.214,1.897,0.948c0.786-0.262,1.21-1.111,0.948-1.897C26.945,7.861,25,4,18.5,4C12.554,4,9,7.813,9,11.5c0,3.58,2.34,5.961,2.439,6.061c0.34,0.339,0.643,0.617,0.929,0.87c-0.746,1.905-1.261,4.381-1.35,7.583L11,26v16c0,0,0,0,2,0s2,0,2,0v-5c0,0,1-9,4-9s3,4,3,4v10c0,0,0,0,2,0s2,0,2,0V32c0,0,0-1.999,2-1.999S30,32,30,32v10c0,0,0,0,2,0s2,0,2,0V32v-4v-0.999L33.906,27.118z"/><path fill="#455A64" d="M32.22 15A6.5 6.5 0 1 0 32.22 28A6.5 6.5 0 1 0 32.22 15Z"/><path fill="#37474F" d="M38.307 19.236c.496-1.729 1.035-4.369.413-6.236l-3.591 2.693C36.589 16.426 37.731 17.691 38.307 19.236zM29.481 15.611L26 13c-.575 1.725-.158 4.108.301 5.825C26.941 17.409 28.073 16.267 29.481 15.611z"/><g><path fill="#FFEB3B" d="M36.72 19c0 0 .292 3-1.5 3-.827 0-1.499 0-1.499 0s-.334-3 1.499-3C36.048 19 36.72 19 36.72 19zM27.72 19.002c0 0-.374 2.998 1.5 2.998.828 0 1.5.002 1.5.002S31.096 19 29.22 19C28.392 19 27.72 19.002 27.72 19.002z"/></g><g><path fill="#263238" d="M26 42c0 1.104-.896 2-2 2l0 0c-1.104 0-2-.896-2-2H26zM15 42c0 1.104-.896 2-2 2l0 0c-1.104 0-2-.896-2-2H15zM34 42c0 1.104-.896 2-2 2l0 0c-1.104 0-2-.896-2-2H34zM32.22 28c-2.236 0-4.209-1.13-5.378-2.851-.16-.235-.301-.485-.43-.742-.026-.054-.053-.108-.078-.163-.241-.516-.416-1.069-.515-1.648-.012-.069-.022-.138-.032-.208-.039-.292-.067-.587-.067-.889 0-.953.215-1.853.583-2.668-.001-.002-.001-.005-.002-.007 0-.001.001-.001.001-.002-.209-.789-.409-1.719-.509-2.66-.002-.013-.004-.026-.005-.039-.098-.952-.091-1.914.114-2.754-.578-.302-1.199-.56-1.863-.77-.562 1.931-.262 4.268.169 6.105-.312.875-.488 1.813-.488 2.795 0 4.688 3.813 8.5 8.5 8.5.61 0 1.206-.068 1.78-.191v-2.062C33.434 27.908 32.838 28 32.22 28z"/><path fill="#263238" d="M32.72,24c0,0-0.542,0.75-1,0l-1-0.998v-1L33.721,22v1L32.72,24z"/></g></svg>