<?xml version="1.0" encoding="utf-8"?>
<!-- Generator: Adobe Illustrator 20.0.0, SVG Export Plug-In . SVG Version: 6.00 Build 0)  -->
<svg version="1.1" id="Layer_1" xmlns="http://www.w3.org/2000/svg" xmlns:xlink="http://www.w3.org/1999/xlink" x="0px" y="0px"
	 viewBox="0 0 200 200" style="enable-background:new 0 0 200 200;" xml:space="preserve">
<style type="text/css">
	.st0{fill:#A9C500;stroke:#2B6000;stroke-width:3;stroke-miterlimit:10;}
	.st1{fill:#A0CB39;}
	.st2{fill:#A9C500;}
	.st3{fill:#2B6000;}
	.st4{fill:#A0CB39;stroke:#4B823B;stroke-width:3;stroke-linejoin:round;stroke-miterlimit:10;}
	.st5{fill:#4B823B;}
	.st6{fill:#90C400;}
	.st7{fill:#90C400;stroke:#2B6000;stroke-width:3;stroke-linecap:round;stroke-miterlimit:10;}
	.st8{fill:#90C400;stroke:#2B6000;stroke-linecap:round;stroke-linejoin:round;stroke-miterlimit:10;}
	.st9{fill:#68AB19;}
	.st10{fill:#074004;}
	.st11{fill:#94466D;stroke:#311538;stroke-width:3;stroke-miterlimit:10;}
	.st12{fill:#00FFFF;}
	.st13{fill:none;stroke:#311538;stroke-linecap:round;stroke-miterlimit:10;}
	.st14{fill:#F08A06;stroke:#DA5C00;stroke-width:3;stroke-miterlimit:10;}
	.st15{fill:none;stroke:#DA5C00;stroke-linecap:round;stroke-miterlimit:10;}
	.st16{fill:none;stroke:#FFFFFF;stroke-linecap:round;stroke-miterlimit:10;}
	.st17{fill:#FFFFFF;}
	.st18{fill:none;stroke:#074004;stroke-width:3;stroke-miterlimit:10;}
	.st19{fill:none;stroke:#A9C500;stroke-width:3;stroke-linecap:round;stroke-linejoin:round;stroke-miterlimit:10;}
	.st20{fill:#F08A06;}
	.st21{fill:#DA5C00;}
	.st22{fill:#94466D;}
	.st23{fill:#311538;}
	.st24{fill:#8DA54A;}
	.st25{fill:#3B6014;}
	.st26{fill:none;stroke:#F08A06;stroke-linecap:round;stroke-miterlimit:10;}
	.st27{display:none;fill:none;stroke:#FFFFFF;stroke-linecap:round;stroke-miterlimit:10;}
	.st28{display:none;fill:#FFFFFF;}
	.st29{fill:none;stroke:#311538;stroke-width:3;stroke-miterlimit:10;}
	.st30{fill:#105409;}
	.st31{fill:#F5DABD;stroke:#B9722E;stroke-width:3;stroke-miterlimit:10;}
	.st32{fill:none;stroke:#B9722E;stroke-linecap:round;stroke-miterlimit:10;}
	.st33{fill:#3A7800;}
	.st34{fill:#A9C500;stroke:#2B6000;stroke-width:3;stroke-linecap:round;stroke-miterlimit:10;}
	.st35{fill:#A9C500;stroke:#2B6000;stroke-linecap:round;stroke-linejoin:round;stroke-miterlimit:10;}
	.st36{fill:#A9C500;stroke:#2B6000;stroke-width:9.5263;stroke-miterlimit:10;}
	.st37{fill:none;stroke:#B9722E;stroke-width:0.9785;stroke-linecap:round;stroke-miterlimit:10;}
	.st38{fill:#F5DABD;}
	.st39{fill:#B9722E;}
	.st40{fill:#E5C074;}
	.st41{fill:#E5C074;stroke:#52340E;stroke-width:3;stroke-miterlimit:10;}
	.st42{fill:none;stroke:#A0CB39;stroke-width:4;stroke-miterlimit:10;}
	.st43{fill:none;stroke:#52340E;stroke-linecap:round;stroke-linejoin:round;stroke-miterlimit:10;}
	.st44{fill:none;stroke:#52340E;stroke-linejoin:round;stroke-miterlimit:10;}
	.st45{fill:#52340E;}
	.st46{fill:#A0CB39;stroke:#4B823B;stroke-linejoin:round;stroke-miterlimit:10;}
	.st47{fill:none;stroke:#2B6000;stroke-linecap:round;stroke-linejoin:round;stroke-miterlimit:10;}
	.st48{fill:#A9C500;stroke:#2B6000;stroke-miterlimit:10;}
	.st49{fill:#FFFFFF;stroke:#E3EA9D;stroke-miterlimit:10;}
	.st50{fill:#A9C500;stroke:#2B6000;stroke-linecap:round;stroke-miterlimit:10;}
	.st51{fill:#FFFFFF;stroke:#2B6000;stroke-linecap:round;stroke-linejoin:round;stroke-miterlimit:10;}
	.st52{fill:none;stroke:#E3EA9D;stroke-miterlimit:10;}
	.st53{fill:none;stroke:#2B6000;stroke-width:3;stroke-miterlimit:10;}
	.st54{fill:#E3EA9D;}
</style>
<path class="st2" d="M74.6,193.4h57.5c14.9-11.8,24.8-34.1,24.8-67.1c0-37.8-9-86.1-22.8-116.4H72.6C58.8,40.1,49.8,88.5,49.8,126.3
	C49.8,159.2,59.7,181.6,74.6,193.4z"/>
<path class="st3" d="M132.1,198.2H74.6c-1.1,0-2.1-0.4-3-1C54.4,183.5,45,158.4,45,126.3c0-39.7,9.6-88.4,23.2-118.4
	c0.8-1.7,2.5-2.8,4.4-2.8h61.5c1.9,0,3.6,1.1,4.4,2.8c13.7,30,23.2,78.7,23.2,118.4c0,32.1-9.5,57.3-26.6,70.9
	C134.3,197.8,133.2,198.2,132.1,198.2z M76.3,188.6h54.1c14-12,21.7-34.1,21.7-62.3c0-37.2-8.6-82.5-21.1-111.6H75.7
	C63.2,43.8,54.6,89,54.6,126.3C54.6,154.5,62.3,176.6,76.3,188.6z"/>
<line class="st17" x1="106.5" y1="11.7" x2="117.1" y2="139.9"/>
<line class="st17" x1="100.1" y1="11.7" x2="89.6" y2="139.9"/>
<line class="st2" x1="47.3" y1="48.2" x2="42.5" y2="51.4"/>
<line class="st2" x1="26.1" y1="62.1" x2="31" y2="58.9"/>
<line class="st2" x1="32.5" y1="41.3" x2="33.2" y2="45.6"/>
<line class="st2" x1="25.7" y1="45.7" x2="29.4" y2="48.1"/>
<line class="st17" x1="51" y1="77.6" x2="38.2" y2="57.7"/>
<polygon class="st2" points="45.1,67.7 48.4,51.9 48,47.6 44.2,43.7 32,40.7 28.6,41.1 26.1,44.2 23.2,55.6 24.2,60.3 28.4,64.5 "/>
<polygon class="st2" points="153.8,32.6 150.5,16.8 150.9,12.5 154.7,8.6 166.9,5.5 170.2,6 172.8,9.1 175.7,20.5 174.7,25.2 
	170.5,29.4 "/>
<g>
	<path class="st54" d="M109.5,190.7c-0.1-0.1-11.4-12.6-19.5-40.7c-13.7-47-8.4-100.9-1.5-137.7c0.2-0.9-3-1.5-3.2-0.6
		c-12.6,67.6-6.1,113.2,1.6,139.5c8.4,28.7,19.7,41.2,20.2,41.7L109.5,190.7z"/>
	<path class="st54" d="M97.4,190.7c-0.1-0.1-11.5-13.8-18.8-42.4c-12.1-48-3.4-100.4,6-135.9c0.2-0.9-2.9-1.7-3.1-0.8
		c-9.6,36-18.4,89.1-6,137.8c7.4,29.3,18.9,42.9,19.4,43.4L97.4,190.7z"/>
	<path class="st54" d="M86.5,190.7c-0.1-0.1-11.7-13.8-18.2-42.5C57.4,100.3,69,47.9,80.6,12.5c0.3-0.8-2.8-1.8-3-1
		c-11.8,35.9-23.4,89-12.3,137.8c6.7,29.3,18.3,43,18.8,43.6L86.5,190.7z"/>
	<path class="st54" d="M129.1,11.5c11.8,35.9,23.4,89,12.3,137.8c-6.7,29.3-18.3,43-18.8,43.6l-2.4-2.1c0.1-0.1,11.7-13.8,18.2-42.5
		c10.8-48-0.7-100.3-12.3-135.8L129.1,11.5z"/>
	<g>
		<path class="st54" d="M125.2,11.6c9.6,36,18.4,89.1,6,137.8c-4.6,18-10.7,30.1-14.8,36.9c-0.6-0.8-1.3-1.8-2.1-2.8
			c4-6.8,9.6-18.4,13.9-35.1c12.1-48,3.4-100.4-6-135.9L125.2,11.6z"/>
	</g>
	<g>
		<path class="st54" d="M121.4,11.7c7,37.3,12.3,91.8-1.6,139.5c-3.1,10.7-6.7,19.2-9.9,25.6c-0.6-1.1-1.3-2.2-2-3.3
			c2.9-6.1,6.1-13.8,8.9-23.4c7.6-26,13.9-70.9,1.5-137.7L121.4,11.7z"/>
	</g>
	<path class="st54" d="M98.6,11.6l-9,109.5c0.7,3.7,1.5,7.3,2.3,10.7l9.6-117.2c0-0.1,0.2-0.1,0.2,0v146.4c0.5,1.2,1.1,2.4,1.6,3.5
		c0.5-1.1,1.1-2.3,1.6-3.5V14.5c0-0.1,0.2-0.1,0.2,0l9.7,117.3c0.8-3.4,1.6-7,2.3-10.7l-9-109.5H98.6z"/>
</g>
<path class="st3" d="M177.1,18.8l-1.9-8.9c-0.7-3.5-3.9-6.1-7.5-6.1c-0.5,0-1.1,0.1-1.6,0.2l-8.5,1.8c-2.7,0.6-5.3,2.1-6.9,4.3
	c-1.8,2.5-2.4,5.5-1.8,8.5l3.1,14.5l-1.7,2.7c-0.5,0.7-1.6,0.6-1.8-0.3c-3-10.2-6.3-19.6-10-27.6c-0.8-1.7-2.5-2.8-4.4-2.8l-61.5,0
	c-1.9,0-3.6,1.1-4.4,2.8c-7.6,16.6-13.9,38.9-18,62.3c-0.2,0.9-1.3,1.1-1.8,0.4l-1.5-2.4l3.1-14.5c0.6-3,0-6-1.8-8.5
	c-1.6-2.3-4.2-3.8-6.9-4.3l-8.5-1.8c-0.5-0.1-1-0.2-1.6-0.2c-3.6,0-6.8,2.6-7.5,6.1l-1.9,8.9c-1.2,5.8,2.5,11.6,8.4,12.8l13.8,2.9
	l4.3,6.6c0.5,0.8,0.7,1.8,0.6,2.8C46.3,95,45,111.3,45,126.3c0,32.1,9.5,57.4,26.7,71c0.8,0.7,1.9,1,2.9,1h57.5c1.1,0,2.1-0.3,2.9-1
	c17.2-13.6,26.7-38.8,26.7-71c0-26.3-4.2-56.6-11-82.8c-0.3-1.1-0.1-2.2,0.5-3.2l3.8-5.9l13.8-2.9C174.6,30.3,178.3,24.6,177.1,18.8
	z M44.1,63.9l-4.5-7c-0.4-0.7-1.3-1-2-0.7c-0.9,0.4-1.2,1.5-0.7,2.3l4.3,6.7c0.1,0.2,0,0.4-0.3,0.4l-10.1-2.1
	c-0.9-0.2-1.7-0.5-2.4-1l3.5-2.3c0.7-0.4,1-1.3,0.7-2c-0.4-0.9-1.5-1.2-2.3-0.7L26,60.3c-0.4-0.6-0.7-1.2-0.9-1.9
	c-0.5-1.5,0.8-3,2.3-2.9l0.9,0.1c0,0,0.1,0,0.1,0c1,0,1.8-0.9,1.6-1.9c-0.1-0.7-0.8-1.2-1.5-1.3l-0.6-0.1c-1.3-0.1-2.3-1.4-2-2.7
	l0.4-1.7l2.2,1.5c0.3,0.2,0.6,0.3,0.9,0.3c0.6,0,1.2-0.3,1.5-0.9c0.3-0.7,0-1.6-0.6-2.1l-3.1-2c0.7-1.5,2.2-2.5,3.9-2.5l0.7,3.7
	c0.1,0.8,0.8,1.3,1.6,1.3c0.1,0,0.2,0,0.3,0c0.9-0.2,1.4-1,1.2-1.9l-0.5-2.6l1.7,0.4c1.3,0.3,2.1,1.6,1.7,2.9l-0.2,0.6
	c-0.3,0.8,0,1.6,0.7,2c0.3,0.1,0.5,0.2,0.8,0.2c0.7,0,1.3-0.4,1.5-1.1l0.3-0.9c0.5-1.5,2.4-2,3.5-1c0.5,0.5,1,1,1.4,1.6l-4.1,2.7
	c-0.7,0.4-1,1.3-0.7,2.1c0.3,0.6,0.9,0.9,1.5,0.9c0.3,0,0.6-0.1,0.9-0.3l3.5-2.3c0.1,0.8,0.1,1.7-0.1,2.6l-2.2,10.8
	C44.5,64,44.2,64.1,44.1,63.9z M114.8,15.5c2.6,15.6,4.7,34,5,53.5c0,0.3-0.5,0.3-0.5,0L112,15.8c-0.1-0.6,0.4-1.1,1-1.1h0.8
	C114.3,14.7,114.7,15,114.8,15.5z M102,13.3h2.7c2.1,0,3.9,1.6,4.2,3.7l10.2,74.6c0,0.3,0.1,0.7,0,1c-1.3,19.1-4.7,38.6-11.3,57
	c-1.1,3.2-2.3,6.2-3.5,9c-0.3,0.8-1.5,0.8-1.8,0c-1.2-2.8-2.4-5.8-3.5-9c-6.7-18.6-10.1-38.2-11.3-57.3c0-0.3,0-0.7,0-1L97.8,17
	C98.1,14.9,99.9,13.3,102,13.3z M94.7,15.8l-7.2,52.8c0,0.3-0.5,0.3-0.5,0c0.3-19.3,2.4-37.6,5-53.1c0.1-0.5,0.5-0.8,1-0.8h0.8
	C94.3,14.7,94.8,15.2,94.7,15.8z M77.4,188.6c-0.7,0-1.5-0.3-2-0.8c-13.5-12.2-20.9-33.9-20.9-61.6c0-36.5,8.3-80.7,20.4-109.8
	c0.5-1.1,1.5-1.8,2.7-1.8l5.8,0c2.8,0,5,2.5,4.5,5.3c-5.6,36.7-8,86.6,8,131c6.5,18,14,29.6,18.9,36c0.5,0.7,0,1.6-0.8,1.6H77.4z
	 M129.2,188.6h-8c-0.6,0-1.1-0.3-1.5-0.7c-3.1-3.6-8.5-11-14.1-22.4c-0.3-0.5-0.3-1.2,0-1.7c1.8-3.8,3.5-8.1,5.2-12.8
	c16-44.4,13.6-94.3,8-131c-0.4-2.8,1.7-5.3,4.5-5.3l5.7,0c1.2,0,2.3,0.7,2.7,1.8c12.1,29.1,20.4,73.3,20.4,109.8
	c0,27.7-7.4,49.4-20.9,61.6C130.7,188.3,130,188.6,129.2,188.6z M173.8,23.3c-0.2,0.7-0.5,1.3-0.9,1.9l-4.2-2.7
	c-0.8-0.5-1.9-0.2-2.3,0.7c-0.3,0.7,0,1.6,0.7,2l3.5,2.3c-0.7,0.4-1.5,0.8-2.4,1L158,30.5c-0.2,0-0.4-0.2-0.3-0.4l4.3-6.7
	c0.5-0.8,0.2-1.9-0.7-2.3c-0.7-0.3-1.6,0-2,0.7l-4.5,7c-0.1,0.2-0.4,0.1-0.5-0.1l-2.2-10.8c-0.2-0.9-0.2-1.8-0.1-2.6l3.5,2.3
	c0.3,0.2,0.6,0.3,0.9,0.3c0.6,0,1.2-0.3,1.5-0.9c0.3-0.7,0-1.6-0.7-2.1l-4.1-2.7c0.4-0.6,0.9-1.1,1.4-1.6c1.2-1,3-0.5,3.5,1l0.3,0.9
	c0.2,0.7,0.8,1.1,1.5,1.1c0.3,0,0.5-0.1,0.8-0.2c0.7-0.4,1-1.3,0.7-2l-0.2-0.6c-0.4-1.3,0.3-2.6,1.7-2.9l1.7-0.4l-0.5,2.6
	c-0.2,0.9,0.4,1.7,1.3,1.9c0.1,0,0.2,0,0.3,0c0.8,0,1.4-0.5,1.6-1.3l0.7-3.7c1.7,0.1,3.1,1,3.9,2.5l-3.1,2c-0.7,0.4-1,1.3-0.6,2.1
	c0.3,0.6,0.9,0.9,1.5,0.9c0.3,0,0.6-0.1,0.9-0.3l2.2-1.5l0.4,1.7c0.3,1.3-0.7,2.6-2,2.7l-0.6,0.1c-0.7,0.1-1.4,0.6-1.5,1.3
	c-0.2,1.1,0.6,1.9,1.6,1.9c0,0,0.1,0,0.1,0l0.9-0.1C173,20.3,174.3,21.8,173.8,23.3z"/>
</svg>
