<?xml version="1.0" encoding="utf-8"?>
<!-- Generator: Adobe Illustrator 20.0.0, SVG Export Plug-In . SVG Version: 6.00 Build 0)  -->
<svg version="1.1" id="Layer_1" xmlns="http://www.w3.org/2000/svg" xmlns:xlink="http://www.w3.org/1999/xlink" x="0px" y="0px"
	 viewBox="0 0 200 200" style="enable-background:new 0 0 200 200;" xml:space="preserve">
<style type="text/css">
	.st0{fill:#A0CB39;}
	.st1{fill:#A9C500;}
	.st2{fill:#2B6000;}
	.st3{fill:#A0CB39;stroke:#4B823B;stroke-width:3;stroke-linejoin:round;stroke-miterlimit:10;}
	.st4{fill:#4B823B;}
	.st5{fill:#90C400;}
	.st6{fill:#90C400;stroke:#2B6000;stroke-width:3;stroke-linecap:round;stroke-miterlimit:10;}
	.st7{fill:#90C400;stroke:#2B6000;stroke-linecap:round;stroke-linejoin:round;stroke-miterlimit:10;}
	.st8{fill:#68AB19;}
	.st9{fill:#074004;}
	.st10{fill:#94466D;stroke:#311538;stroke-width:3;stroke-miterlimit:10;}
	.st11{fill:#00FFFF;}
	.st12{fill:none;stroke:#311538;stroke-linecap:round;stroke-miterlimit:10;}
	.st13{fill:#F08A06;stroke:#DA5C00;stroke-width:3;stroke-miterlimit:10;}
	.st14{fill:none;stroke:#DA5C00;stroke-linecap:round;stroke-miterlimit:10;}
	.st15{fill:none;stroke:#FFFFFF;stroke-linecap:round;stroke-miterlimit:10;}
	.st16{fill:#FFFFFF;}
	.st17{fill:none;stroke:#074004;stroke-width:3;stroke-miterlimit:10;}
	.st18{fill:none;stroke:#A9C500;stroke-width:3;stroke-linecap:round;stroke-linejoin:round;stroke-miterlimit:10;}
	.st19{fill:#F08A06;}
	.st20{fill:#DA5C00;}
	.st21{fill:#94466D;}
	.st22{fill:#311538;}
	.st23{fill:#8DA54A;}
	.st24{fill:#3B6014;}
	.st25{fill:none;stroke:#F08A06;stroke-linecap:round;stroke-miterlimit:10;}
	.st26{display:none;fill:none;stroke:#FFFFFF;stroke-linecap:round;stroke-miterlimit:10;}
	.st27{display:none;fill:#FFFFFF;}
	.st28{fill:none;stroke:#311538;stroke-width:3;stroke-miterlimit:10;}
	.st29{fill:#105409;}
	.st30{fill:#F5DABD;stroke:#B9722E;stroke-width:3;stroke-miterlimit:10;}
	.st31{fill:none;stroke:#B9722E;stroke-linecap:round;stroke-miterlimit:10;}
	.st32{fill:#3A7800;}
	.st33{fill:#A9C500;stroke:#2B6000;stroke-width:3;stroke-miterlimit:10;}
	.st34{fill:#A9C500;stroke:#2B6000;stroke-width:3;stroke-linecap:round;stroke-miterlimit:10;}
	.st35{fill:#A9C500;stroke:#2B6000;stroke-linecap:round;stroke-linejoin:round;stroke-miterlimit:10;}
	.st36{fill:#A9C500;stroke:#2B6000;stroke-width:9.5263;stroke-miterlimit:10;}
	.st37{fill:none;stroke:#B9722E;stroke-width:0.9785;stroke-linecap:round;stroke-miterlimit:10;}
	.st38{fill:#F5DABD;}
	.st39{fill:#B9722E;}
	.st40{fill:#E5C074;}
	.st41{fill:#E5C074;stroke:#52340E;stroke-width:3;stroke-miterlimit:10;}
	.st42{fill:none;stroke:#A0CB39;stroke-width:4;stroke-miterlimit:10;}
	.st43{fill:none;stroke:#52340E;stroke-linecap:round;stroke-linejoin:round;stroke-miterlimit:10;}
	.st44{fill:none;stroke:#52340E;stroke-linejoin:round;stroke-miterlimit:10;}
	.st45{fill:#52340E;}
	.st46{fill:#A0CB39;stroke:#4B823B;stroke-linejoin:round;stroke-miterlimit:10;}
	.st47{fill:none;stroke:#2B6000;stroke-linecap:round;stroke-linejoin:round;stroke-miterlimit:10;}
</style>
<path class="st40" d="M117.8,65.9L117.8,65.9c-17.3,4.6-31.6,0-31.6,0c-40.1,21.9-40,73.6-40,73.6c0,34,24.4,54.8,54.6,54.8
	s54.6-20.8,54.6-54.8C155.3,139.5,154.7,93.8,117.8,65.9z"/>
<g>
	<path class="st45" d="M84,61.8c-42.1,23-42.5,75.5-42.5,77.7c0,17.5,6,32.6,17.4,43.5c10.7,10.3,25.6,16,41.8,16s31.1-5.7,41.8-16
		c11.4-10.9,17.4-26,17.4-43.6c0-7.9-1.9-50-43-77.3l-0.6-1.8L84,61.8z M113.1,71c12,8.4,23.3,21,28.3,31.9c-1.6,0-3.2-0.5-4.6-1.4
		c-1.7-1.1-3.9-0.8-5.4,0.6c-1.2,1.1-2.7,1.7-4.3,1.7c-1.1,0-2.2-0.3-3.2-0.9c-1.5-1-3.5-1-4.9-0.1c-0.7,0.4-1.5,0.6-2.3,0.6
		c-0.9,0-1.7-0.4-2.6-0.8c-2.2-1.1-3.9,0.2-4.5,0.9c-1.7,2-4.7,2.7-7.2,1.5c-0.8-0.4-1.7-0.1-2.1,0.7c-0.4,0.8-0.1,1.7,0.7,2.1
		c1.3,0.6,2.7,1,4,1c2.7,0,5.2-1.2,6.9-3.2c0.3-0.3,0.6-0.2,0.7-0.1c1.1,0.5,2.4,1.1,3.9,1.1c1.4,0,2.7-0.4,3.9-1.1
		c0.5-0.3,1.2-0.3,1.7,0.1c1.5,0.9,3.1,1.4,4.9,1.4c2.4,0,4.7-0.9,6.4-2.6c0.4-0.4,1.1-0.5,1.5-0.2c2.3,1.5,5,2.1,7.7,1.8
		c6.4,15.1,7.7,28.4,7.9,32.4c-0.4,0.9-1.1,1.6-2,2c-1,0.5-2.1,0.6-3.1,0.4c-1.7-0.4-3.3-0.2-4.7,0.7c-0.7,0.5-1.5,0.8-2.3,1
		c-2.2,0.5-4.4,0-6.3-1.3c-2-1.5-4.9-1.2-6.8,0.7c-1.1,1.1-2.5,1.9-4.1,2.3c-3.2,0.8-6.5-0.3-8.5-2.8c-1.6-2-3.9-1.4-5.1-0.4
		c-0.6,0.5-1.3,0.9-2.1,1.1c-0.8,0.2-1.4,1-1.2,1.9c0.2,0.8,1,1.4,1.9,1.2c1.3-0.3,2.4-0.9,3.4-1.7c0.4-0.3,0.6-0.1,0.7,0
		c2.2,2.7,5.5,4.2,8.9,4.2c0.9,0,1.8-0.1,2.7-0.3c2.1-0.5,4-1.6,5.6-3.1c0.7-0.7,1.8-1.1,2.8-0.4c2.5,1.8,5.7,2.5,8.8,1.8
		c1.2-0.3,2.3-0.7,3.3-1.4c0.8-0.5,1.6-0.4,2.2-0.3c1.8,0.4,3.6,0.2,5.3-0.6c0.2-0.1,0.4-0.2,0.5-0.3c-1.4,27.8-21.5,46.9-49.8,46.9
		c-18,0-32.7-7.8-41.4-20.6c0.2,0,0.4,0,0.6,0c1,0,1.9-0.1,2.8-0.4c2.4-0.7,4.7-0.2,6.1,1.2c2.2,2.1,5.1,3.3,8.1,3.3
		c2.1,0,4.2-0.6,6-1.7c1.7-1,3.9-1.2,6.1-0.4c2,0.7,4.4,0.5,6.3-0.5c0,0,1.1-0.5,2.5,0.2c3.8,1.9,8.3,0.9,11-2.3
		c0.3-0.3,0.6-0.2,0.7-0.1c1.1,0.5,2.4,1.1,3.9,1.1c1.4,0,2.7-0.4,3.9-1.1c0.7-0.4,1-1.4,0.5-2.1c-0.4-0.7-1.4-1-2.1-0.5
		c-0.7,0.4-1.5,0.6-2.3,0.6c-0.9,0-1.7-0.4-2.6-0.8c-2.2-1.1-3.9,0.2-4.5,0.9c-1.7,2-4.7,2.7-7.2,1.5c-2.8-1.4-5.1-0.3-5.3-0.1
		c-1.2,0.6-2.6,0.7-3.9,0.3c-3.2-1.1-6.3-0.9-8.8,0.7c-1.3,0.8-2.9,1.2-4.4,1.2c-2.2,0-4.3-0.8-5.9-2.4c-2.2-2.2-5.6-2.9-9.1-1.9
		c-0.7,0.2-1.3,0.3-2,0.3c-1,0-1.9-0.2-2.8-0.5c-4.1-7.4-6.3-16.2-6.3-25.9c0-0.2,0.1-7.2,2.1-16.9c1.9,0.3,3.7,1.3,5,2.9
		c1.6,1.8,4,2.6,6.3,1.9c0.4-0.1,0.8-0.2,1.2-0.2c1.6-0.1,3.2,0.4,4.4,1.4c0.7,0.8,2.5,1.9,4.6,0.8c0.5-0.2,1-0.4,1.6-0.4
		c1-0.1,1.9,0.1,2.7,0.6c0.7,0.4,1.5,0.6,2.3,0.6c1.1,0,2.1-0.4,3-1.2c1-0.9,2.2-1.5,3.6-1.6c1.3-0.1,2.6,0.2,3.7,0.9
		c0.7,0.5,1.7,0.3,2.1-0.5c0.5-0.7,0.3-1.7-0.5-2.1c-1.7-1.1-3.6-1.6-5.7-1.4c-2.1,0.2-3.9,1-5.5,2.4c-0.4,0.4-1,0.5-1.5,0.2
		c-1.4-0.8-3-1.2-4.6-1.1c-1,0.1-2,0.3-2.8,0.8c-0.1,0.1-0.5,0.3-0.9-0.1c-0.1-0.1-0.1-0.1-0.2-0.2c-1.9-1.7-4.3-2.5-6.8-2.3
		c-0.6,0-1.2,0.2-1.8,0.3c-1.2,0.3-2.3,0-3.1-0.9c-1.8-2.1-4.1-3.5-6.7-3.9C57.4,104,66.2,83,86.9,70.9L113.1,71z"/>
	<circle class="st45" cx="85.8" cy="145.1" r="1.6"/>
	<circle class="st45" cx="125.8" cy="123.4" r="1.6"/>
	<circle class="st45" cx="76.4" cy="151.4" r="1.6"/>
	<circle class="st45" cx="70.2" cy="142" r="1.6"/>
	
		<ellipse transform="matrix(0.5966 -0.8026 0.8026 0.5966 -52.2212 104.3829)" class="st45" cx="77.7" cy="104.1" rx="1.6" ry="1.6"/>
	<ellipse transform="matrix(0.5966 -0.8026 0.8026 0.5966 -43.007 100.3262)" class="st45" cx="78.3" cy="92.9" rx="1.6" ry="1.6"/>
	
		<ellipse transform="matrix(0.5966 -0.8026 0.8026 0.5966 -38.9521 109.5381)" class="st45" cx="89.5" cy="93.5" rx="1.6" ry="1.6"/>
</g>
<path class="st1" d="M114.3,72.9c0-0.3-0.6-29.7,13.5-56.9l-8.1-4.2c-6.5,12.5-10.7,25.2-13.3,35.8L104.6,8h-9.1l-1.9,39.6
	C91,37,86.8,24.3,80.3,11.8L72.2,16c14.1,27.3,13.5,56.6,13.5,56.9C85.7,72.9,100.3,70.1,114.3,72.9z"/>
<path class="st29" d="M134.5,13.9c-0.6-1.8-1.8-3.3-3.5-4.1L123,5.5c-1.7-0.9-3.6-1-5.4-0.5c-1.8,0.6-3.3,1.8-4.1,3.5
	c-0.6,1.1-1.1,2.2-1.7,3.3l-0.2-4.1c-0.2-3.8-3.3-6.7-7-6.7h-9.1c-3.8,0-6.9,2.9-7,6.7l-0.2,4.1c-0.5-1.1-1.1-2.2-1.7-3.3
	c-0.9-1.7-2.3-2.9-4.1-3.5c-1.8-0.6-3.7-0.4-5.4,0.5L69,9.7c-1.7,0.9-2.9,2.3-3.5,4.1c-0.6,1.8-0.4,3.7,0.5,5.4
	c8.8,17.1,11.5,35.3,12.3,44.7l0.1,1.3c1.7-1.1,3.4-2.2,5.3-3.2c0.6,6.6,0.5,10.8,0.5,10.9c0,0.5,0.2,0.9,0.5,1.2
	c0.3,0.2,0.6,0.4,1,0.4c0.1,0,0.2,0,0.3,0c0.1,0,14.5-2.8,28,0c0.5,0.1,0.9,0,1.3-0.3c0.4-0.3,0.6-0.7,0.5-1.2
	c0-0.4-0.1-4.7,0.6-11.1l0.6,0.4c1.6,1.1,3.1,2.2,4.6,3.3l0.1-1.5c0.8-9.3,3.4-27.6,12.3-44.7C134.9,17.6,135.1,15.7,134.5,13.9z
	 M112.8,71.1c-10.8-1.8-21.4-0.6-25.6,0c-0.1-6.8-1.4-31.3-13-54.5l5.4-2.8C84.8,24.1,89,35.6,92.1,48c0.2,0.7,0.9,1.2,1.6,1.1
	c0.8-0.1,1.3-0.7,1.4-1.4l1.8-38.1h6.2l1.8,38.1c0,0.8,0.6,1.4,1.4,1.4c0.8,0.1,1.4-0.4,1.6-1.1c3.1-12.4,7.3-23.8,12.5-34.1
	l5.4,2.8C114.1,39.9,112.9,64.2,112.8,71.1z"/>
</svg>
