<?xml version="1.0" encoding="utf-8"?>
<!-- Generator: Adobe Illustrator 20.0.0, SVG Export Plug-In . SVG Version: 6.00 Build 0)  -->
<svg version="1.1" id="Layer_1" xmlns="http://www.w3.org/2000/svg" xmlns:xlink="http://www.w3.org/1999/xlink" x="0px" y="0px"
	 viewBox="0 0 500 500" style="enable-background:new 0 0 500 500;" xml:space="preserve">
<style type="text/css">
	.st0{fill:#D1A982;}
	.st1{fill:#998004;stroke:#998004;stroke-width:6;stroke-linejoin:round;stroke-miterlimit:10;}
	.st2{fill:none;stroke:#7CA440;stroke-width:2;stroke-linecap:round;stroke-linejoin:round;stroke-miterlimit:10;}
	.st3{fill:#00FFFF;}
	.st4{clip-path:url(#SVGID_2_);}
	.st5{clip-path:url(#SVGID_4_);}
	.st6{clip-path:url(#SVGID_6_);}
	.st7{fill:#DCCB0D;}
	.st8{fill:#E0E6FF;}
	.st9{fill:#E5C403;}
	.st10{fill:#998004;}
	.st11{fill:none;stroke:#528B16;stroke-linecap:round;stroke-miterlimit:10;}
	.st12{fill:#EEF2FF;stroke:#AFADA7;stroke-miterlimit:10;}
	.st13{fill:#E5C403;stroke:#998004;stroke-miterlimit:10;}
	.st14{opacity:0.4;fill:none;stroke:#7CA440;stroke-miterlimit:10;}
	.st15{opacity:0.3;fill:none;stroke:#7CA440;stroke-miterlimit:10;}
	.st16{opacity:0.2;fill:none;stroke:#7CA440;stroke-miterlimit:10;}
	.st17{opacity:0.1;fill:none;stroke:#7CA440;stroke-miterlimit:10;}
	.st18{fill:#528B16;}
	.st19{fill:none;stroke:#FFFFFF;stroke-linecap:round;stroke-miterlimit:10;}
	.st20{fill:#FFFFFF;}
	.st21{fill:#7C710D;}
	.st22{fill:#7CA440;}
	.st23{fill:#BBB630;}
	.st24{fill:#C5B92E;}
	.st25{fill:#CFBD2D;}
	.st26{fill:#DAC02C;}
	.st27{fill:#EEF2FF;}
	.st28{fill:#AFADA7;}
	.st29{fill:#5ABC18;}
	.st30{fill:#1C6600;}
	.st31{fill:#5ABC18;stroke:#1C6600;stroke-linecap:round;stroke-linejoin:round;stroke-miterlimit:10;}
	.st32{fill:none;stroke:#FFFFFF;stroke-linecap:round;stroke-linejoin:round;stroke-miterlimit:10;}
	.st33{fill:#7FBA19;}
	.st34{fill:#426807;}
</style>
<path class="st21" d="M231.6,439.5c-2.7-3.9-7.7-5.3-11.9-3.3l-13.5,6.3c-4.1,1.9-8.7,2.9-13.2,2.9c-12,0-23.1-7-28.2-17.9
	c-6.2-13.2-2.3-28.6,8.6-37.3c3-2.4,3.8-6.5,2.4-10.1c-1.6-4-2.4-8.4-2.2-12.9c0.4-8.3,3.9-15.9,10-21.5c6.1-5.6,14.1-8.5,22.3-8.2
	c2.2,0.1,4.4,0.4,6.5,1c3.3,0.8,6.8-0.4,8.9-3c0,0,0.1-0.1,0.1-0.1c2.4-3,2.6-7.1,0.4-10.3c-4.8-7-6.8-15.9-4.7-24.8
	c0.3-1.4,0.7-2.7,1.2-4c2.1-5.4,1-11.6-2.6-16.2c-8.9-11.4-17.3-22.8-25.2-34.1c-0.1-0.2-0.2-0.3-0.3-0.5c-0.7-1-1.7-1.8-2.8-2.2
	l-0.1,0c-2.5-0.9-5.3,0-7,2.1c-6.1,8.1-14.8,13.5-24.8,15.2c-2.3,0.4-4.5,0.6-6.8,0.6c-7,0-13.8-1.9-19.9-5.5
	c-5.1-3-11.4-3.2-16.3,0c-6.5,4.1-13.7,6.2-21.2,6.2c-2.6,0-5.3-0.3-7.9-0.8c-9.5-1.9-17.5-6.8-23.3-14.2c-3.4-4.3-8.8-6.5-14.2-5.8
	c-1.8,0.2-3.6,0.4-5.4,0.4c-7.8,0-15.3-2.4-21.8-7c-11.1-7.9-16.9-20.7-15.8-35c0.9-12.8,7.2-27.1,19-43.7
	c6-8.4,16.4-21.2,27.8-32.2c1.3-1.3,2.6-2.5,3.9-3.7c3.7-3.3,5.2-8.3,3.9-13.1c-0.3-1.1-0.6-2.2-0.8-3.4c-4.8-21.7-0.9-44.1,11-62.9
	C80,21.7,98.5,8.7,120.3,3.8c21.4-4.8,43.4-1,62.1,10.6c8.1,5,15.1,11.3,20.9,18.5c3.1,3.8,8.1,5.6,12.9,4.6l0.1,0
	c15.2-3.2,33.5-5,50.3-5h0.6c21.2,0.1,37,3.2,48.1,9.6c13,7.4,20.4,19.6,20.4,33.4c0,10-4,19-11,26.1c-5.5,5.5-8,13.1-7.1,20.8
	c0.8,6.9-0.3,13.8-3.3,20.4c-4.7,10.5-13.1,17.9-23.9,21.6c-4.1,1.4-6.8,5.2-6.9,9.5c-0.4,10.3-4.5,19.7-11.5,27.1
	c-6.2,6.6-14.3,9.4-20.3,10.6c-3.6,0.7-5.3,5-3.1,8c5.3,7.4,10.8,14.7,16.5,22c3.7,4.8,9.7,7.2,15.7,6.4c0.7-0.1,1.4-0.2,2.1-0.2
	c0.1,0,0.2,0,0.3,0c11.7-0.7,22.2,4.9,28,14c1.2,1.8,3.4,2.6,5.4,2c13.2-4.1,28.1,1,35.7,13.3c9,14.6,4.6,33.8-10,42.8l0,0
	c-2.6,1.6-3,5.2-0.8,7.4c42.2,41.3,89.7,79.6,141.6,114.1h0c6.9,4.6,11.6,11.6,13.3,19.8c1.6,8.2,0,16.5-4.6,23.4
	c-5.8,8.7-15.5,13.9-25.9,13.9c-6.2,0-12.1-1.8-17.2-5.2c-21.6-14.4-43.1-29.8-63.9-46c-1.9-1.5-4.3-2.2-6.8-2
	c-7.9,0.7-18.3,1.3-30.8,1.3c-6,0-12.1-0.1-18.3-0.4c-5-0.2-9.3,3.3-10.1,8.2l-0.9,6c-2.3,15.3-15.3,26.4-30.7,26.4
	c-1.6,0-3.1-0.1-4.7-0.3c-8.3-1.3-15.5-5.6-20.4-12.3c-2.9-4-4.8-8.5-5.6-13.3c-0.6-3.5-3.2-6.2-6.5-7.3
	C240.6,450.1,234.9,444.2,231.6,439.5z M302.7,457.7L302.7,457.7C302.7,457.7,302.7,457.7,302.7,457.7z M271.7,453
	C271.7,453,271.7,453,271.7,453L271.7,453z M193.2,379.1C193.2,379.1,193.2,379.1,193.2,379.1L193.2,379.1z M243.9,322.6
	C244,322.6,244,322.6,243.9,322.6L243.9,322.6z M143,217.5L143,217.5L143,217.5z M87.5,216.3L87.5,216.3L87.5,216.3z M95.1,147.2
	C95.1,147.2,95.1,147.2,95.1,147.2z M216,84.1C216,84.1,216,84.1,216,84.1C216,84.1,216,84.1,216,84.1z"/>
<path class="st22" d="M470.2,460.6c-66.4-44.2-119.5-90.1-161.6-133.4c-4.3-4.5-3.5-11.8,1.8-15.1l19.4-12.1c3.5-2.2,4.9-6.8,3-10.4
	c-2.1-4-7.2-5.3-11-3l-27.1,16.8l-1.9-25.4c-0.3-4.3-4.1-7.5-8.3-7.2c-4.3,0.3-7.5,4-7.2,8.3l0.6,8.9c0.2,2.1-2.5,3.2-3.9,1.6
	c-45.1-52.1-73.9-98.2-90.8-129.7c-2-3.7-6.4-5.4-10.2-3.6c-4.1,1.9-5.8,6.8-3.6,10.8c17.7,32.9,48.1,81.6,96.1,136.4l-16.3-3.8
	c-4.4-1-8.7,1.8-9.5,6.3c-0.7,4.1,2.1,8,6.2,8.9l38,9c22.3,23.9,47.9,48.8,77.2,73.9c3.7,3.1,1.5,9.2-3.3,9.3
	c-13.7,0.4-31.4,0.1-52-2.2c-4.8-0.5-9.2-3-12.1-6.9l-18.4-24.9c-2.6-3.5-7.6-4.2-11.1-1.5c-3.4,2.6-3.8,7.6-1.3,11L273,396
	c1.2,1.6-0.2,3.9-2.2,3.5c-6.5-1.3-13.1-2.9-19.8-4.6c-5.5-1.5-8.6-7.3-6.7-12.7l8.9-24.7c1.5-4-0.6-8.5-4.7-10
	c-4-1.5-8.5,0.6-10,4.7l-8.1,22.4c-1.2,3.4-5.7,4.3-8.2,1.6l-11.6-12.6c-2.9-3.1-7.8-3.7-11-0.9c-3.3,2.9-3.6,7.9-0.7,11.2
	l14.2,15.5c2.2,2.4,1.5,6.3-1.5,7.7l-22,10.3c-3.9,1.8-5.6,6.5-3.8,10.4c1.3,2.8,4.1,4.5,7.1,4.5c1.1,0,2.2-0.2,3.3-0.7l34.6-16.2
	c8.3,2.6,16.4,4.8,24.3,6.7c2.1,0.5,2.3,3.5,0.2,4.2h0c-3.9,1.4-6.3,5.5-5.2,9.5c1.2,4.4,5.8,6.8,10.1,5.3l24.1-8.3l-4.8,31.3
	c-0.6,4.2,2.1,8.4,6.3,9.1c0.5,0.1,0.9,0.1,1.4,0.1c3.8,0,7.1-2.8,7.7-6.6l5.6-36.4c17.7,2.2,33.5,2.9,46.8,2.9
	c21.5,0,36.3-1.9,41.3-2.7c22.4,17.8,46.7,35.7,73.1,53.2c1.3,0.9,2.8,1.3,4.3,1.3c2.5,0,5-1.2,6.5-3.5
	C474.8,467.8,473.8,463,470.2,460.6z"/>
<path class="st18" d="M199.8,420.1c-1.5,0-2.9-0.9-3.6-2.3c-0.9-2,0-4.3,2-5.1l30.7-13.5c0.9-0.4,1.8-0.4,2.7-0.1l0,0
	c7,2.2,14.1,4.3,21.2,6.1c2,0.5,3.4,2.4,3.1,4.4c-0.4,2.3-2.6,3.8-4.8,3.2c-5.7-1.5-11.5-3.1-17.2-4.8c-2.1-0.6-4.4-0.5-6.4,0.4
	l-26.2,11.5C200.8,420,200.3,420.1,199.8,420.1z"/>
<path class="st18" d="M433,455.6c-0.8,0-1.6-0.2-2.3-0.7c-15.9-11.4-31.5-23.1-39.5-29.2c-2.7-2-6-2.9-9.3-2.6
	c-4.6,0.5-11.4,1.2-20.1,1.5c-15.4,0.7-39.8,0.6-68.9-3.4c-2.1-0.3-3.6-2.3-3.3-4.4c0.3-2.1,2.3-3.6,4.4-3.3c54.5,7.6,93,1.1,93.3,1
	l0,0c1.1-0.2,2.2,0.1,3.1,0.8l0,0c0.2,0.2,22.1,17.1,44.7,33.2c1.7,1.2,2.3,3.5,1.2,5.2C435.7,454.9,434.4,455.6,433,455.6z"/>
<path class="st9" d="M147.6,104.1c18.5-9.5,31.2-21.9,38.1-30c3.8-4.5,4.6-10.9,1.8-16c-9.8-17.7-28.6-29-49.1-29
	c-4.7,0-9.4,0.6-14.2,1.8C96.8,38,78.7,65,82.8,93.1c0.8,5.5,2.4,10.7,4.5,15.5c2.6,5.7,8.8,9,15.1,8.1
	C114.7,114.8,134,111.1,147.6,104.1z"/>
<path class="st23" d="M188.2,59.3c-1.5,2.3-16.2,23.7-44.4,38.1c-18.5,9.5-47.2,13-55.2,13.9c0,0,0,0,0,0.1
	c2.2,4.1,6.7,6.3,11.3,5.7c12.1-1.7,33.1-5.5,47.7-12.9c19.9-10.2,33.1-23.9,39.6-31.8c2.8-3.4,3.3-8.1,1.4-12.1
	C188.5,59.9,188.4,59.6,188.2,59.3z"/>
<path class="st24" d="M143.9,97.4C172.7,82.7,187,60.9,188,59.3l0.1-0.1c-1.3-2.5-2.8-5-4.5-7.2l-2.1,3l-0.1,0.1
	c-0.1,0.2-13.8,21.4-41.2,35.4c-19.6,10-51.7,12.9-53.1,13l-1.8,0.1c0.9,2.6,2,5.2,3.3,7.6C94.1,110.7,124.1,107.6,143.9,97.4z"/>
<path class="st25" d="M181.6,55l2.1-3.1c-1.6-2.2-3.4-4.2-5.2-6.1l-3.3,4.9l-0.1,0.1c-0.1,0.2-12.7,19.7-38,32.7
	c-18.1,9.3-47.7,11.9-49.1,12l-4.7,0.3c0.1,0.5,0.2,1.1,0.3,1.6c0.5,2.1,1,4.1,1.7,6.1l3.2-0.2l0.1,0c1.3-0.1,32.2-2.7,52-12.9
	C167.3,76.8,180.6,56.5,181.6,55z"/>
<path class="st26" d="M172.9,40.9l-2.9,4.3l-0.1,0.1c-0.1,0.2-12.1,18.8-36.3,31.2C116.3,85.3,88,87.9,86.7,88l-4.4,0.2
	c0.1,2.6,0.5,5.2,1,7.7l3.9-0.2l0.1,0c1.2-0.1,30.8-2.6,49.8-12.3c25.7-13.1,38.4-32.5,39.3-33.9l2.3-3.3
	C176.9,44.3,174.9,42.5,172.9,40.9z"/>
<circle class="st18" cx="282.9" cy="424.7" r="3.9"/>
<circle class="st18" cx="295.4" cy="302.4" r="3.9"/>
<path class="st18" d="M324.8,367.4c-1,0-1.9-0.4-2.7-1.1c-24.3-23-47.1-47.2-67.9-71.9c-1.4-1.6-1.2-4.1,0.5-5.5
	c1.6-1.4,4.1-1.2,5.5,0.5c20.6,24.4,43.3,48.4,67.3,71.2c1.6,1.5,1.6,3.9,0.1,5.5C326.8,367,325.8,367.4,324.8,367.4z"/>
<ellipse transform="matrix(0.5075 -0.8617 0.8617 0.5075 5.9267 116.4386)" class="st20" cx="104.8" cy="53" rx="3.9" ry="3.9"/>
<ellipse transform="matrix(0.5075 -0.8617 0.8617 0.5075 -9.544 116.2383)" class="st20" cx="96.9" cy="66.5" rx="3.9" ry="3.9"/>
<polygon class="st27" points="201.4,74.7 200.2,81.4 190.3,85.4 187.8,96.2 173.5,101.2 168.2,115.1 154.8,113.8 144.3,125.4 
	130.8,122.6 120.7,149.7 111.1,125.8 100.1,131.2 93.4,126.4 75.1,136.5 47,168 33.1,189.9 30.4,205 33.3,212.4 45.5,214.3 
	56.2,204.8 80.4,180.8 77.4,217.2 80.6,228.5 88.6,235.5 102.9,229.6 112.5,208 120.9,182.9 131.6,217.8 142.8,233.4 150.1,234 
	159.6,229.2 167.4,189.7 181.9,206.9 194.7,217.6 206.9,218.2 213.6,207.7 207,167 233.6,183.4 252.5,182.9 256.1,169.9 
	236.3,128.9 264.3,139.4 287.4,135.9 290.5,122 260.6,94.6 283,89.6 305,84.2 309.4,76.2 301.9,64.2 260.5,60 219.7,64.6 "/>
<ellipse transform="matrix(0.5075 -0.8617 0.8617 0.5075 -1.9798 129.5622)" class="st20" cx="112.3" cy="66.5" rx="3.9" ry="3.9"/>
<path class="st28" d="M73.3,192c0.3-0.5,0.7-0.9,1-1.4c-0.2,0-0.3,0-0.5,0c-3.4,0-5.2-2.3-5.7-4.9c-0.4,0.6-0.8,1.2-1.2,1.7
	c-7.4,10.4-14.1,17.3-19.9,20.7c-6.3,3.6-9.1,1.5-10,0.9c-6.1-4.3-2.1-17.5,10.6-35.3c4.8-6.8,10.6-13.9,16.6-20.2
	c-3,0-5.9-1.9-6.4-4.6c-6.6,7.2-12.6,14.7-16.5,20.3c-20.5,28.8-16,41-8.7,46.2c2,1.4,4.7,2.6,8.2,2.6c2.9,0,6.3-0.8,10.2-3.1
	C57.7,211,65.2,203.3,73.3,192L73.3,192z"/>
<path class="st28" d="M109.6,130.8c0.8,0.2,4.3,4.4,5.1,21.1c0.6,13.5-0.7,30.2-3.6,44.6c-2.7,13.3-6.3,23-10.8,28.8
	c-3.3,4.3-6.8,6-10.6,5.2c-8.9-1.8-11.4-16.2-6.7-39.5c-0.9,0.8-2.2,1.4-3.8,1.4c-1.8,0-3.1-0.6-4.1-1.6
	c-3.2,16.7-5.3,43.7,13.1,47.4c1,0.2,2.1,0.3,3.3,0.3c4.4,0,9.9-1.8,15-8.4c5.2-6.7,9.4-17.5,12.3-32c0.2-0.9,0.4-1.8,0.5-2.8
	c0.3-1.5,2.5-1.5,2.7,0c0,0,0,0.1,0,0.1c2.6,15,6.5,26.2,11.6,33.2c5.2,7.2,10.9,9.1,15.3,9.1c1,0,2,0,2.8-0.2
	c14.9-3.4,16.8-21.3,15.9-35.3c-0.2-3.1,3.9-4.4,5.5-1.8c3.8,5.9,8.8,12.2,15,16.8c5,3.7,9.3,5,12.9,5c2.9,0,5.3-0.8,7.2-1.8
	c4.3-2.2,9.6-7.2,9-18.3c-0.4-7.4-2.9-15.5-5.7-22.4c-1-2.5,2.1-4.7,4.1-2.9c7.2,6.3,17.1,12.5,28.3,12.3c4.2-0.1,8.1-1.4,11.5-4.7
	c3.4-3.4,7-9.7,3.3-20c-3.3-8.9-9.5-17.2-15.1-23.4c-1.8-2,0.3-4.9,2.8-4c7.3,2.9,17,5.7,28.1,6.4c8.1,0.5,15.5-2.5,18.4-10.2
	c5.6-14.8-6.8-25.7-17.8-32c-2.9-1.7-1.7-6,1.6-6.1c15.2-0.5,35.6-4,35.6-19.7c0-8.9-7.8-19.5-45.1-19.6c-0.2,0-0.4,0-0.6,0
	c-15.1,0-32,1.7-45.5,4.5c-23.1,4.9-25.7,10.7-25.8,14.7c0,0.4,0,0.9,0.1,1.3c0.3,1.7-0.8,3.3-2.4,3.7c-3.6,1-6,2.8-7.1,5.4
	c-0.4,0.9-0.6,1.8-0.7,2.8c-0.2,4.5-4.1,7.9-8.6,8.2c-2.6,0.1-4.6,0.9-6.1,2.5c-1.2,1.2-1.9,2.6-2.3,4.3c-1,4.9-5.7,8-10.6,7
	c-2.2-0.5-4.2-0.3-5.9,0.6c-1.6,0.8-2.9,2.2-3.8,4.1c-2.1,4.5-7.3,6.4-11.8,4.4c-1.6-0.7-3.3-0.9-4.9-0.6c-1.2,0.2-2.4,0.7-3.4,1.5
	c3.2,0.7,4.6,3.7,4.3,6.5c0.2-0.2,0.3-0.3,0.4-0.3c0,0,0,0,0.1,0c1,0,5.7,3.1,12.4,18.6c5.5,12.8,10.4,29.3,13,44.3v0
	c4.1,23.9,1.3,39.1-7.5,40.6c-3.8,0.7-7.3-1.2-10.5-5.8c-4.4-6.1-7.8-16.2-10.2-30c0-0.2-0.1-0.5-0.1-0.7c-4.1-0.6-5.6-4.9-4.4-8.1
	l0.9-47.4l-5.5-1.5c-1.9-7.9-5-12.2-9.4-13.1c-0.5-0.1-1.1-0.1-1.6-0.1L109.6,130.8z M204.7,213.5c-8,4.1-19.6-6.6-31-28.8
	c-7-13.5-13.3-29.8-16.8-43.5c-4.4-17.4-2.5-22.9-1.7-23.4c0.1,0,0.1,0,0.3,0c1.4,0,7.1,2.3,17.9,15c9.1,10.8,18.8,25.3,25.8,38.8
	C210.6,193.7,212.7,209.4,204.7,213.5z M251.4,167c1.8,5.3,1.4,9.2-1.4,11.9c-6.4,6.3-20.4-0.2-37.5-17.4
	c-10.7-10.7-21.4-24.3-28.6-36.2c-8.9-14.7-8.5-20.3-7.9-20.9c0.1-0.1,0.5-0.3,1.3-0.3c2.4,0,8.3,1.4,19.6,8.3
	c11.9,7.3,25.3,18.1,36,28.8C242.7,151.3,248.9,159.9,251.4,167z M285.8,130.1c-3.7,8.3-18.3,7.5-40.1-2.2
	c-13.4-6-27.8-14.5-38.4-22.9c-13.2-10.3-14.7-15.6-14.3-16.4c0.3-0.8,5.2-3.1,21.2-0.4c2,0.6,4.3,1.1,6.8,1.7
	c2,0.4,4.1,0.8,6.3,1.2c10.1,2.7,20.7,6.4,30.1,10.5C279.2,111.4,289.5,121.8,285.8,130.1z M267.1,86.9c-12.3,0-26.3-1.3-38.2-3.4
	c-4.4-1.2-8.7-2.1-12.8-2.8c-0.1,0-0.1,0-0.2,0c-8.5-2.4-11.8-4.6-12.6-5.6c1.1-1.3,6.4-4.6,21.5-7.6c12.8-2.5,28.6-4,42.4-3.9
	c18.1,0.1,37.4,3.2,37.4,11.8C304.5,84,285.1,87,267.1,86.9z"/>
<path class="st20" d="M78.4,194c0.3,0.1,0.5,0.1,0.8,0.1c1.8,0,3.4-1.3,3.8-3.1c2-10.1,5.1-20.9,8.8-30.7c1.8-3.9,3.5-7.7,4.8-11.4
	c0,0,0-0.1,0-0.1c7.2-15.5,12.1-18.1,13-18c2.3,0.5,4.5-1.2,4.7-3.6c0.1-2-1.5-3.8-3.5-4.1c-2.6-0.4-5.2,0.5-7.7,2.5
	c-1.9,1.5-4.6,1.3-6.5-0.1c0,0,0,0,0,0c-4.7-3.3-15.2-2-38.5,23.2c-1.4,1.5-1.5,4-0.1,5.5c1.6,1.6,4.1,1.6,5.6-0.1
	c16.1-17.5,26.1-22.5,28.4-22.2c0.4,1,0.6,5.2-2.6,14.1c-1.6,3.5-3.1,7.2-4.6,11C80,167,73.6,178.1,67,187.3c-1.2,1.7-1,4.2,0.7,5.5
	c0.7,0.6,1.6,0.8,2.4,0.8c1.2,0,2.4-0.6,3.2-1.6c0.1-0.2,0.2-0.3,0.3-0.5c0.5-0.8,1.7-0.7,2.1,0.2C76.1,192.7,76.9,193.6,78.4,194z"
	/>
<path class="st20" d="M135.5,121.3c-0.6-1.9-2.7-3-4.7-2.5c-4.5,1-7.7,5.7-9.7,14.4c-0.2,1.1-1.5,1.7-2.5,1.2
	c-0.8-0.4-1.7-0.5-2.6-0.3c-1.4,0.3-2.6,1.5-2.9,2.9c-0.6,2.6,1.3,4.8,3.8,4.8c0.2,0,0.3,0,0.5,0c1.2-0.2,2.2,0.7,2.1,1.9
	c-0.1,1.3-0.2,2.6-0.3,3.9c-1,14.5,0.1,32.4,2.8,47.9c0.3,1.9,2,3.2,3.8,3.2c0.2,0,0.4,0,0.7-0.1c2.1-0.4,3.5-2.4,3.2-4.5
	c-2.6-14.9-3.6-32.1-2.7-46c1.1-17.2,4.7-21.5,5.5-21.6C134.8,126,136.3,123.6,135.5,121.3z"/>
<circle class="st20" cx="77" cy="204.8" r="3.9"/>
</svg>
