<?xml version="1.0" encoding="utf-8"?>
<!-- Generator: Adobe Illustrator 20.0.0, SVG Export Plug-In . SVG Version: 6.00 Build 0)  -->
<svg version="1.1" id="Layer_1" xmlns="http://www.w3.org/2000/svg" xmlns:xlink="http://www.w3.org/1999/xlink" x="0px" y="0px"
	 viewBox="0 0 500 500" style="enable-background:new 0 0 500 500;" xml:space="preserve">
<style type="text/css">
	.st0{fill:#E1C7B2;}
	.st1{opacity:0.5;fill:none;stroke:#D2A284;stroke-width:3;stroke-miterlimit:10;}
	.st2{fill:#F2CFAA;}
	.st3{fill:#EDB283;}
	.st4{fill:#DFC8B2;}
	.st5{opacity:0.5;fill:none;stroke:#B08269;stroke-width:3;stroke-miterlimit:10;}
	.st6{fill:#00FFFF;}
	.st7{opacity:0.9;fill:none;stroke:#DB7745;stroke-width:3;stroke-miterlimit:10;}
	.st8{opacity:0.5;fill:none;stroke:#DB7745;stroke-width:3;stroke-miterlimit:10;}
	.st9{opacity:0.3;fill:none;stroke:#DB7745;stroke-width:3;stroke-miterlimit:10;}
	.st10{opacity:0.7;fill:none;stroke:#DB7745;stroke-width:3;stroke-miterlimit:10;}
	.st11{fill:#E2AC88;}
	.st12{fill:#B08269;}
	.st13{fill:none;stroke:#B98A71;stroke-width:3;stroke-miterlimit:10;}
	.st14{fill:none;stroke:#C39377;stroke-width:3;stroke-miterlimit:10;}
	.st15{fill:none;stroke:#CD9B7E;stroke-width:3;stroke-miterlimit:10;}
	.st16{fill:none;stroke:#D7A484;stroke-width:3;stroke-miterlimit:10;}
	.st17{fill:none;stroke:#7C5B4F;stroke-miterlimit:10;}
	.st18{fill:#7C5B4F;}
	.st19{fill:#C6A58F;}
	.st20{fill:#B98A71;}
	.st21{fill:#C39377;}
	.st22{fill:#CD9B7E;}
	.st23{fill:#D7A484;}
	.st24{fill:#FFEFDC;stroke:#5E3E27;stroke-miterlimit:10;}
	.st25{opacity:0.2;fill:none;stroke:#D0A672;stroke-width:3;stroke-miterlimit:10;}
	.st26{opacity:0.4;fill:none;stroke:#D0A672;stroke-width:3;stroke-miterlimit:10;}
	.st27{opacity:0.6;fill:none;stroke:#D0A672;stroke-width:3;stroke-miterlimit:10;}
	.st28{fill:#5E3E27;}
	.st29{fill:none;stroke:#5E3E27;stroke-miterlimit:10;}
	.st30{fill:#FFEFDC;}
	.st31{fill:#F5E0C8;}
	.st32{fill:#EBD2B4;}
	.st33{fill:#E2C39E;}
	.st34{opacity:0.6;fill:none;stroke:#DB7745;stroke-width:3;stroke-miterlimit:10;}
	.st35{fill:none;stroke:#863B2B;stroke-linecap:round;stroke-miterlimit:10;}
	.st36{fill:#863B2B;}
	.st37{fill:none;stroke:#863B2B;stroke-miterlimit:10;}
	.st38{fill:#DB7D51;}
	.st39{fill:#E29468;}
	.st40{fill:#E6A074;}
	.st41{fill:#DE895D;}
	.st42{fill:#E29A71;}
	.st43{fill:#D2A284;}
	.st44{opacity:0.7;fill:none;stroke:#E1C7B2;stroke-width:3;stroke-miterlimit:10;}
	.st45{opacity:0.9;fill:none;stroke:#CA9464;stroke-width:3;stroke-miterlimit:10;}
	.st46{opacity:0.6;fill:none;stroke:#CA9464;stroke-width:3;stroke-miterlimit:10;}
	.st47{opacity:0.3;fill:none;stroke:#CA9464;stroke-width:3;stroke-miterlimit:10;}
	.st48{fill:#5F362D;}
	.st49{fill:#D9B49D;}
	.st50{fill:#DCBCA5;}
	.st51{fill:#CA956A;}
	.st52{fill:#CC9A74;}
	.st53{fill:#CF9E7D;}
	.st54{clip-path:url(#SVGID_2_);}
	.st55{fill:#FFC841;}
	.st56{fill:#C56C00;}
	.st57{fill:#FFC841;stroke:#C56C00;stroke-linecap:round;stroke-linejoin:round;stroke-miterlimit:10;}
	.st58{fill:#FFC841;stroke:#C56C00;stroke-miterlimit:10;}
	.st59{fill:none;stroke:#FFE197;stroke-linecap:round;stroke-miterlimit:10;}
	.st60{fill:none;stroke:#C56C00;stroke-linecap:round;stroke-miterlimit:10;}
	.st61{fill:#F6DB90;}
	.st62{opacity:0.3;fill:none;stroke:#C56C00;stroke-width:3;stroke-linecap:round;stroke-linejoin:round;stroke-miterlimit:10;}
	.st63{fill:#FFE197;}
	.st64{fill:#ECAB3D;}
</style>
<path class="st55" d="M252.7,484.2c-8.4,0-17-1.5-25.4-4.6c-12.2-4.4-20.7-15.8-21.5-29c-6.5-102.8-24.2-232.7-54.3-295.9
	c-52.1-2.5-70.5-15.6-75.3-20.2c-0.4-0.3-0.9-0.7-1.4-1.1c-11.5-10-17.2-21-17.3-33.9c-0.2-4,0-20.1,15.5-37.3
	c27.8-30.8,86.5-46.4,174.6-46.4c48.5,0,88.9,4.8,120.1,14.4c25,7.7,44.3,18.4,57.3,31.9c17,17.6,17.6,34.1,17.6,37.1
	c0,25.5-19.7,41.9-50.1,41.9c-9.8,0-19.4-2.9-27.4-8.2c-3.1,4-4.7,6.5-4.7,6.5c-35.1,55.3-55.4,197.2-62.6,311.6
	c-0.8,12.8-8.8,24-20.4,28.6C269.4,482.6,261.2,484.2,252.7,484.2z"/>
<path class="st63" d="M312.1,190.4c-0.3,0-0.7,0-1-0.1c-2.1-0.5-3.3-2.7-2.8-4.8c5.5-20.9,12.1-38.6,20-54.1c1-1.9,3.3-2.7,5.2-1.7
	c1.9,1,2.7,3.3,1.7,5.2c-7.7,14.9-14.1,32.1-19.4,52.5C315.5,189.2,313.9,190.4,312.1,190.4z"/>
<path class="st63" d="M300.5,247c-0.2,0-0.4,0-0.7-0.1c-2.1-0.4-3.5-2.4-3.2-4.5c2.1-12.2,4.6-26.6,7.9-41c0.5-2.1,2.6-3.4,4.7-3
	c2.1,0.5,3.4,2.6,3,4.7c-3.2,14.3-5.7,28.6-7.8,40.6C304,245.7,302.3,247,300.5,247z"/>
<path class="st63" d="M203.3,248.1c-1.9,0-3.5-1.3-3.8-3.2c-2.5-15-5.7-32.7-9.8-49.6c-0.5-2.1,0.8-4.2,2.9-4.7
	c2.1-0.5,4.2,0.8,4.7,2.9c4.2,17.2,7.4,35,9.9,50.1c0.4,2.1-1.1,4.1-3.2,4.5C203.7,248,203.5,248.1,203.3,248.1z"/>
<path class="st63" d="M285.7,279c-0.1,0-0.3,0-0.4,0c-2.1-0.2-3.7-2.2-3.4-4.3c4.5-41.1,9.9-75.4,15.8-102c0.5-2.1,2.5-3.4,4.7-3
	c2.1,0.5,3.4,2.6,3,4.7c-5.9,26.3-11.2,60.3-15.7,101.1C289.3,277.5,287.6,279,285.7,279z"/>
<path class="st63" d="M207.7,209.6c-1.9,0-3.5-1.4-3.8-3.3c-0.4-2.4-0.7-4.8-1.1-7.1c-2.6-16.9-5-32.8-10.2-48.9
	c-0.7-2,0.5-4.2,2.5-4.9c2-0.7,4.2,0.5,4.9,2.5c5.4,16.7,8,33.7,10.5,50.1c0.4,2.4,0.7,4.7,1.1,7.1c0.3,2.1-1.1,4.1-3.3,4.4
	C208.1,209.6,207.9,209.6,207.7,209.6z"/>
<path class="st63" d="M279.3,245.6c-0.1,0-0.3,0-0.4,0c-2.1-0.2-3.7-2.1-3.5-4.3c0.4-3.8,0.7-7.7,1.1-11.7c0.5-5.6,1.1-11.2,1.6-17
	c0.2-2.1,2.1-3.7,4.3-3.5c2.1,0.2,3.7,2.1,3.5,4.3c-0.6,5.7-1.1,11.3-1.6,16.9c-0.4,3.9-0.7,7.8-1.1,11.7
	C283,244.1,281.3,245.6,279.3,245.6z"/>
<path class="st63" d="M225.3,277.2c-2,0-3.7-1.5-3.9-3.6c-1-12.7-2.1-24.8-3.2-36.1c-0.2-2.1,1.3-4,3.5-4.3c2.1-0.2,4,1.3,4.3,3.5
	c1.1,11.3,2.2,23.5,3.2,36.2c0.2,2.1-1.4,4-3.6,4.2C225.5,277.2,225.4,277.2,225.3,277.2z"/>
<path class="st63" d="M268.7,241c-0.1,0-0.2,0-0.2,0c-2.1-0.1-3.8-2-3.7-4.1c2.1-34.5,4.5-62.6,7.1-83.8c0.3-2.1,2.2-3.6,4.3-3.4
	c2.1,0.3,3.7,2.2,3.4,4.3c-2.6,21-5,49-7,83.3C272.5,239.4,270.8,241,268.7,241z"/>
<path class="st63" d="M266.7,278.9c-0.1,0-0.1,0-0.2,0c-2.1-0.1-3.8-1.9-3.7-4.1c0.3-6.3,0.6-12.5,1-18.7c0.1-2.1,1.9-3.8,4.1-3.7
	c2.1,0.1,3.8,2,3.7,4.1c-0.3,6.2-0.7,12.4-1,18.7C270.5,277.3,268.8,278.9,266.7,278.9z"/>
<path class="st63" d="M235.1,246c-2,0-3.8-1.6-3.9-3.7c-0.3-4.4-0.5-8.9-0.7-13.5c-0.1-2.1,1.5-4,3.7-4.1c2.2-0.1,4,1.5,4.1,3.7
	c0.2,4.5,0.5,9,0.7,13.4c0.1,2.1-1.5,4-3.7,4.1C235.3,246,235.2,246,235.1,246z"/>
<path class="st63" d="M232.8,203.4c-2,0-3.8-1.6-3.9-3.7c-0.9-14.5-2.2-33.6-5-52.6c-0.3-2.1,1.2-4.1,3.3-4.4
	c2.1-0.3,4.1,1.2,4.4,3.3c2.8,19.3,4.2,38.6,5.1,53.2c0.1,2.1-1.5,4-3.7,4.1C233,203.4,232.9,203.4,232.8,203.4z"/>
<path class="st63" d="M259.1,183.4c0,0-0.1,0-0.1,0c-2.2-0.1-3.8-1.9-3.8-4c0.6-20.5,1.5-37.3,2.8-53.1c0.2-2.1,2.1-3.7,4.2-3.6
	c2.1,0.2,3.7,2.1,3.6,4.2c-1.3,15.6-2.2,32.4-2.8,52.7C263,181.8,261.2,183.4,259.1,183.4z"/>
<path class="st63" d="M257.8,257C257.8,257,257.8,257,257.8,257c-2.2,0-3.9-1.8-3.9-4c0.2-9.8,0.3-19.8,0.5-29.5
	c0.1-8.6,0.2-17.3,0.4-26c0-2.2,1.8-3.8,4-3.8c2.2,0,3.9,1.8,3.8,4c-0.2,8.7-0.3,17.3-0.4,26c-0.1,9.7-0.3,19.8-0.5,29.6
	C261.7,255.3,259.9,257,257.8,257z"/>
<path class="st63" d="M246.2,279.4c-2.1,0-3.9-1.7-3.9-3.8c-0.3-14-0.5-27.5-0.8-39.9c0-2.2,1.7-3.9,3.8-4c2.1-0.1,3.9,1.7,4,3.8
	c0.3,12.5,0.6,25.9,0.8,39.9C250.1,277.6,248.4,279.4,246.2,279.4C246.2,279.4,246.2,279.4,246.2,279.4z"/>
<path class="st63" d="M244.8,215.9c-2.1,0-3.8-1.7-3.9-3.8c-0.4-15.3-0.9-29.2-1.3-41.3c-0.1-2.2,1.6-4,3.7-4c2.1-0.1,4,1.6,4,3.7
	c0.5,12.1,0.9,26,1.3,41.4c0.1,2.2-1.6,3.9-3.8,4C244.8,215.9,244.8,215.9,244.8,215.9z"/>
<path class="st63" d="M157.2,103.3c-3,0-5.9,0.6-8.6,1.8c14,16.8,24.8,37.4,33.3,62.9c0.5,1.6,2.1,2.7,3.7,2.7
	c0.4,0,0.8-0.1,1.2-0.2c2-0.7,3.1-2.9,2.5-4.9C181,140.6,170.6,120.2,157.2,103.3z"/>
<path class="st63" d="M180.2,104.5c-2.2,0.3-4.5,0.5-6.8,0.5c-0.7,0-1.4,0-2.1-0.1c4.5,6.9,8.7,14.4,12.4,22.6
	c0.7,1.4,2.1,2.3,3.5,2.3c0.5,0,1.1-0.1,1.6-0.4c2-0.9,2.8-3.2,1.9-5.2C187.5,117.3,184,110.7,180.2,104.5z"/>
<path class="st63" d="M211,132.1c-0.3-1-4.8-16.7-13.4-33.8c-2.2,1.3-4.6,2.5-7,3.5c8.3,16.8,12.8,32.3,12.9,32.5
	c5.2,18.1,9.9,45.4,14,81.1c0.2,2,1.9,3.4,3.9,3.4c0.1,0,0.3,0,0.5,0c2.1-0.2,3.7-2.2,3.4-4.3C221.1,178.3,216.3,150.6,211,132.1z"
	/>
<path class="st63" d="M214.4,81.1c-0.1,0.2-0.3,0.4-0.4,0.6c-1.4,2.4-3.1,4.7-4.9,6.9c4.7,11.8,8.5,24.7,11.5,39.2
	c0.4,1.8,2,3.1,3.8,3.1c0.3,0,0.5,0,0.8-0.1c2.1-0.4,3.5-2.5,3-4.6C224.6,109.4,220.1,94.6,214.4,81.1z"/>
<path class="st63" d="M327.2,105c-1.3,0-2.6-0.1-3.9-0.2c-8.8,14.2-13.5,26-13.9,26.9c-0.8,2,0.2,4.3,2.2,5c0.5,0.2,1,0.3,1.4,0.3
	c1.6,0,3-0.9,3.6-2.5c0.1-0.2,5.7-14.2,16-29.9C330.9,104.9,329.1,105,327.2,105z"/>
<path class="st63" d="M304.9,99.3c-10.6,21-17.9,46.6-22.7,79.4c-0.3,2.1,1.2,4.1,3.3,4.4c0.2,0,0.4,0,0.6,0c1.9,0,3.6-1.4,3.8-3.3
	c4.7-32.1,11.8-57,22.1-77.3C309.5,101.6,307.2,100.6,304.9,99.3z"/>
<path class="st63" d="M291.7,88.6c-1.2-1.4-2.6-2.6-4.1-3.5c-8.2,21.5-12.5,46.2-12.7,47.4c-0.4,2.1,1.1,4.1,3.2,4.5
	c0.2,0,0.4,0.1,0.7,0.1c1.9,0,3.5-1.3,3.8-3.2c0-0.3,4-22.7,11.2-42.9C293.1,90.2,292.4,89.4,291.7,88.6z"/>
<path class="st63" d="M266.4,84.8c-1.2,0.6-2.5,1.2-3.8,1.7c-1,6.6-1.9,13.4-2.7,20.4c-0.2,2.1,1.3,4.1,3.4,4.3c0.2,0,0.3,0,0.4,0
	c2,0,3.6-1.5,3.9-3.5c1-8.5,2.1-16.9,3.4-24.8C269.5,83.4,267.9,84,266.4,84.8z"/>
<path class="st63" d="M241,87.5c-3-0.8-5.8-2.1-8.4-3.6c3.3,21.7,5.1,49.3,5.2,49.6c0.5,7.2,0.9,15.9,1.4,25.9
	c0.1,2.1,1.8,3.7,3.9,3.7c0.1,0,0.1,0,0.2,0c2.1-0.1,3.8-1.9,3.7-4.1c-0.4-10.1-0.9-18.8-1.4-26C245.4,131.7,243.9,108.3,241,87.5z"
	/>
<circle class="st61" cx="212.5" cy="227.8" r="4.1"/>
<circle class="st61" cx="209.5" cy="262.6" r="4.1"/>
<circle class="st56" cx="101.7" cy="101.2" r="8.1"/>
<circle class="st56" cx="277" cy="280.7" r="8.1"/>
<circle class="st56" cx="272.2" cy="313.7" r="8.1"/>
<path class="st64" d="M430.5,95.4c-2.1-12.1-16.2-50.8-112.1-63.7c-21.5-2.2-45.3-3.4-71.1-3.4c-24.9,0-47.7,1-68.4,3.1
	C87.8,43.4,72.2,78.8,69.6,93.1c0.4-0.4,0.7-0.8,1.1-1.2C104,57,195.6,51.8,247.3,51.8C371.5,51.8,415.2,77.7,430.5,95.4z"/>
<path class="st56" d="M433.4,54C401.4,20.9,338.9,4.1,247.6,4.1C156,4.1,94.4,21,64.3,54.4c-17.9,19.9-18.8,39-18.5,45.5
	c0.2,16.1,7.4,30.3,21.4,42.4c0.6,0.5,1.1,0.9,1.6,1.3c3.6,3.2,10.3,7.8,21.6,12.1c10.7,4,23.6,7,38.4,8.8c9.6,1.2,17.7,7.7,21,16.7
	c11.5,31.7,21.6,76,29.7,130.3c9.1,60.7,13.3,118,14.6,139.8c1.1,17.8,12.6,33.2,29.2,39.2c9.7,3.5,19.5,5.3,29.4,5.3
	c9.9,0,19.6-1.8,28.8-5.4c15.8-6.2,26.7-21.4,27.8-38.7c1.5-23.3,6-84.4,15.8-147.9c10.7-69.1,23-110.8,33.7-136
	c4.5-10.5,15.4-16.7,26.7-15.5c2.3,0.3,4.6,0.4,6.9,0.4c17.2,0,32-4.5,42.8-13.1c12.2-9.7,19-24,19-40.4C454.3,94,453,74.3,433.4,54
	z M73.1,98.7c0-8.6,2.9-16.7,11.5-26c17.1-18.7,59.1-41.3,163-41.3c103.7,0,147.4,22.4,165.8,41.1C427.1,86.5,427,98.5,427,99
	c0,0,0,0.1,0,0.1c0,16.8-12.6,26.4-34.5,26.4c-4,0-7.9-0.7-11.5-2c-6.8-2.4-8.6-11.3-3.4-16.3c1.9-1.8,3.8-3.6,5.9-5.5
	c1.4-1.2,1.8-3.3,0.9-4.9c-1.3-2.2-4.2-2.6-6-1c-7.1,6.3-12.9,12.4-17.6,17.7c0,0,0,0,0,0c-8.5,9.7-13.1,16.8-13.5,17.5
	c-46.2,72.8-61.4,262.5-65,318.9c-0.4,6.8-4.6,12.7-10.5,15c-15.4,6-29.7,3.3-38.9-0.1c-6.4-2.3-10.8-8.3-11.3-15.3
	c-1.5-23.7-6.1-85.9-16.1-150.4c-12.5-80.2-28.9-136.7-48.8-168.1c-0.2-0.4-1.9-2.9-4.8-6.8c-5.8-7.7,0.9-18.6,10.3-16.6
	c0.1,0,0.2,0,0.3,0.1c3.6,0.8,7.4,1.2,11.1,1.2c18,0,34.8-9.7,44-25.2c0.9-1.5,2.4-2,3.2-2.1c1.5-0.2,3.2,0.2,4.4,1.3
	c7.1,6.3,16.2,9.7,25.6,9.7c6.2,0,12.4-1.5,17.8-4.4c7.3-3.8,15.8-2.7,20.5,2.9c9.6,11.3,23.6,17.8,38.5,17.8c5.9,0,11.8-1,17.3-3.1
	c2.1-0.8,3.1-3.1,2.2-5.2c-0.8-1.9-3.1-2.7-5.1-2c-4.6,1.7-9.5,2.5-14.5,2.5c-12.5,0-24.4-5.5-32.5-15c-7.1-8.3-19.5-10.3-30.1-4.7
	c-4.4,2.3-9.2,3.5-14.2,3.5c-7.5,0-14.8-2.8-20.4-7.8c-3-2.6-6.9-3.8-10.7-3.2c-3.7,0.6-6.8,2.7-8.7,5.9
	c-7.7,13.2-22,21.3-37.3,21.3c-3.2,0-6.3-0.3-9.4-1c-10.9-2.5-21.9,1.7-28,10.5c-6.8,9.9-17.6,16-28.4,16c-8.3,0-17.6-1.5-22.5-5
	C78,116.6,73.1,106.9,73.1,98.7z M107.2,136.6c-1.3-0.3-1-2.2,0.3-2.2h0c9.1,0,18.1-3.3,25.5-9.3c3.2-2.6,7.9-1.9,10.4,1.3
	c4.2,5.3,6.4,8.7,6.5,8.8c0.1,0.2,0.2,0.3,0.3,0.5c2,3.1-0.5,7.2-4.2,6.9C129.1,141.5,116.5,139.1,107.2,136.6z"/>
</svg>
