<?xml version="1.0" encoding="utf-8"?>
<!-- Generator: Adobe Illustrator 20.0.0, SVG Export Plug-In . SVG Version: 6.00 Build 0)  -->
<svg version="1.1" id="Layer_1" xmlns="http://www.w3.org/2000/svg" xmlns:xlink="http://www.w3.org/1999/xlink" x="0px" y="0px"
	 viewBox="0 0 64 64" style="enable-background:new 0 0 64 64;" xml:space="preserve">
<style type="text/css">
	.st0{fill:#88A501;}
	.st1{fill:none;stroke:#88A501;stroke-width:3;stroke-linecap:round;stroke-linejoin:round;stroke-miterlimit:10;}
	.st2{fill:none;stroke:#3B6700;stroke-width:3;stroke-linecap:round;stroke-linejoin:round;stroke-miterlimit:10;}
	.st3{fill:#FC4100;stroke:#9F0500;stroke-width:3;stroke-miterlimit:10;}
	.st4{fill:none;stroke:#FFFFFF;stroke-linecap:round;stroke-miterlimit:10;}
	.st5{fill:#FFFFFF;}
	.st6{fill:#22B573;stroke:#006837;stroke-linecap:round;stroke-linejoin:round;stroke-miterlimit:10;}
	.st7{fill:none;stroke:#006837;stroke-linecap:round;stroke-linejoin:round;stroke-miterlimit:10;}
	.st8{fill:#22B573;stroke:#184C28;stroke-width:3;stroke-linecap:round;stroke-linejoin:round;stroke-miterlimit:10;}
	.st9{fill:#EE0000;}
	.st10{fill:#9A0601;}
	.st11{fill:none;stroke:#FFFFFF;stroke-linecap:round;stroke-linejoin:round;stroke-miterlimit:10;}
	.st12{fill:#EE0000;stroke:#9A0601;stroke-linecap:round;stroke-linejoin:round;stroke-miterlimit:10;}
	.st13{clip-path:url(#SVGID_2_);}
	.st14{fill:#00FFFF;}
	.st15{fill:#9F0500;}
	.st16{fill:#3B6700;}
	.st17{fill:#FC4100;}
</style>
<path class="st0" d="M31.9,27.4V16.9c4.5-1.3,9.4-2.6,14.5-3.6v11.2h3V12.7C53.1,12,57,11.5,61,11.1c0.8-0.1,1.4-0.8,1.4-1.6
	c-0.1-0.8-0.8-1.4-1.6-1.4C29.8,11,3.1,24.8,2.9,24.9c-0.7,0.4-1,1.3-0.6,2c0.3,0.5,0.8,0.8,1.3,0.8c0.2,0,0.5-0.1,0.7-0.2
	c0.1,0,3.4-1.8,9-4.1v9.4h3V22.2c3.6-1.4,7.8-3,12.6-4.5v9.6H31.9z"/>
<path class="st16" d="M11.2,39.3c-2.6,0-5-1.3-7-3.9c-0.4-0.5-0.4-1.3,0-1.8c0.4-0.5,1.1-0.7,1.8-0.5c0.1,0,1.3,0.5,3.1,0.3
	c0.4-0.1,0.7-0.4,0.7-0.8c0-1,0-2.1-0.1-3c0-0.7,0.3-1.3,1-1.5c0.6-0.2,1.3,0,1.7,0.5c0.5,0.6,1.2,1.5,1.9,2.2
	c0.3,0.3,0.7,0.3,1.1,0.1c1.4-1.1,2.2-2.3,2.2-2.3c0.3-0.5,0.9-0.8,1.6-0.7c0.6,0.1,1.1,0.6,1.2,1.2c0.7,4.3-1.4,8-5.5,9.7
	C13.5,39.1,12.3,39.3,11.2,39.3z"/>
<path class="st16" d="M29.2,33.5c-3.3,0-5.9-1.7-7.7-5.1c-0.3-0.6-0.2-1.3,0.3-1.8s1.2-0.5,1.8-0.2c0.1,0,1.1,0.6,2.8,0.8
	c0.5,0,1-0.3,1.1-0.9c0.1-0.9,0.3-2,0.4-2.8c0.1-0.7,0.6-1.2,1.2-1.3c0.7-0.1,1.3,0.2,1.6,0.8c0.3,0.7,0.9,1.5,1.4,2.2
	c0.3,0.5,0.9,0.6,1.4,0.3c1.5-0.8,2.3-1.8,2.3-1.8c0.4-0.5,1.1-0.7,1.7-0.5c0.6,0.2,1,0.8,1,1.4c0,4.4-2.7,7.7-7,8.6
	C30.6,33.4,29.9,33.5,29.2,33.5z"/>
<path class="st16" d="M47.7,28.2c-3.9,0-6.7-2.1-8.2-6.1c-0.2-0.6,0-1.3,0.5-1.7s1.3-0.4,1.8,0c0,0,1.1,0.8,2.8,1.1
	c0.5,0.1,0.9-0.2,1-0.6c0.3-0.9,0.6-2,0.8-2.8c0.1-0.6,0.7-1.1,1.4-1.2c0.7,0,1.3,0.4,1.5,1c0.3,0.7,0.7,1.7,1.1,2.5
	c0.2,0.4,0.7,0.6,1.2,0.4c1.6-0.6,2.6-1.6,2.6-1.6c0.5-0.4,1.1-0.5,1.7-0.2c0.6,0.3,0.9,0.9,0.8,1.5c-0.6,4.4-3.6,7.3-8,7.7
	C48.3,28.2,48,28.2,47.7,28.2z"/>
<path class="st17" d="M49.1,23.9c-4.7,0-8.7,2.5-9.8,6.7c-1.7-1.1-3.8-1.7-6.2-1.7c-4.7,0-8.7,2.5-9.8,6.7c-1.7-1.1-3.8-1.7-6.2-1.7
	c-5.6,0-10.1,3.5-10.1,9.1c0,5.6,4.5,10.1,10.1,10.1c4.6,0,8.4-3,9.7-7.2c1.7,1.4,3.9,2.2,6.3,2.2c4.6,0,8.4-3,9.7-7.2
	c1.7,1.4,3.9,2.2,6.3,2.2c5.6,0,10.1-4.5,10.1-10.1C59.2,27.4,54.7,23.9,49.1,23.9z"/>
<path class="st5" d="M43.5,31.2c-0.1,0-0.2,0-0.2-0.1C43,31,42.9,30.7,43,30.5c0.6-1.1,1.5-1.9,2.8-2.5c0.3-0.1,0.5,0,0.7,0.3
	c0.1,0.3,0,0.5-0.3,0.7c-1.1,0.5-1.9,1.1-2.3,2C43.8,31.1,43.6,31.2,43.5,31.2z"/>
<circle class="st5" cx="48.5" cy="27.6" r="0.5"/>
<path class="st5" d="M10.9,43.5c-0.3,0-0.5-0.2-0.5-0.5c0-3,1.8-4.4,3.4-5c0.3-0.1,0.5,0,0.7,0.3c0.1,0.3,0,0.5-0.3,0.7
	c-1.8,0.8-2.8,2.2-2.8,4.1C11.4,43.3,11.2,43.5,10.9,43.5z"/>
<circle class="st5" cx="16.5" cy="37.6" r="0.5"/>
<path class="st15" d="M49.1,22.4c-4.4,0-8.1,1.9-10.1,5.1c-0.3,0.5-1,0.8-1.6,0.6c-1.3-0.5-2.8-0.7-4.3-0.7c-4.4,0-8.1,1.9-10.1,5.1
	c-0.3,0.5-1,0.8-1.6,0.6c-1.3-0.5-2.8-0.7-4.3-0.7c-6.5,0-11.3,4.2-11.6,10.1C5.1,48.7,10,54.2,16.2,54.6c4.4,0.3,8.4-1.8,10.7-5.3
	c0.4-0.6,1.1-0.8,1.7-0.5c1.4,0.6,2.9,0.9,4.5,0.9c4.1,0,7.7-2.1,9.8-5.4c0.4-0.6,1.1-0.8,1.7-0.5c1.8,0.8,3.8,1.1,5.9,0.8
	c5.4-0.6,9.7-5,10.2-10.4C61.3,27.4,56.2,22.4,49.1,22.4z M33.1,46.5c-4.7,0-8.5-3.8-8.5-8.5c0-4.4,3.5-7.5,8.5-7.5s8.5,3.1,8.5,7.5
	C41.6,42.7,37.8,46.5,33.1,46.5z M25.5,43.7c0.2,0.2,0.3,0.6,0.2,0.9l-0.3,0.9c-1.2,4.1-5.2,6.7-9.6,6c-4.1-0.6-7.3-4.3-7.3-8.5
	c0-4.5,3.5-7.7,8.6-7.7c2,0,3.9,0.5,5.4,1.5l0.8,0.5c0.2,0.1,0.4,0.4,0.4,0.7C23.7,39,23.9,41.3,25.5,43.7z M40.7,32.8
	c-0.2-0.3-0.3-0.6-0.2-1l0.2-0.8c0.9-3.4,4.2-5.6,8.4-5.6c5.4,0,9.1,3.5,8.6,8.5c-0.4,4-3.5,7.3-7.5,7.7c-2.4,0.3-4.6-0.3-6.5-1.8
	L43,39.2c-0.3-0.2-0.4-0.5-0.4-0.9C42.6,37.3,42.5,34.9,40.7,32.8z"/>
<path class="st5" d="M26.9,38.5c-0.3,0-0.5-0.2-0.5-0.5c0-3,1.8-4.4,3.4-5c0.3-0.1,0.5,0,0.7,0.3c0.1,0.3,0,0.5-0.3,0.7
	c-1.8,0.8-2.8,2.2-2.8,4.1C27.4,38.3,27.2,38.5,26.9,38.5z"/>
<circle class="st5" cx="32.5" cy="32.6" r="0.5"/>
</svg>
