<?xml version="1.0" encoding="utf-8"?>
<!-- Generator: Adobe Illustrator 20.0.0, SVG Export Plug-In . SVG Version: 6.00 Build 0)  -->
<svg version="1.1" id="Layer_1" xmlns="http://www.w3.org/2000/svg" xmlns:xlink="http://www.w3.org/1999/xlink" x="0px" y="0px"
	 viewBox="0 0 1000 1000" style="enable-background:new 0 0 1000 1000;" xml:space="preserve">
<style type="text/css">
	.st0{fill:#77A45B;}
	.st1{fill:#3D710C;}
	.st2{fill:#00FFFF;}
	.st3{fill:#E50F4F;}
	.st4{fill:#5A8700;}
	.st5{fill:#9D9F01;}
	.st6{fill:none;stroke:#BFBF04;stroke-linecap:round;stroke-linejoin:round;stroke-miterlimit:10;}
	.st7{fill:none;stroke:#CAD058;stroke-linecap:round;stroke-linejoin:round;stroke-miterlimit:10;}
	.st8{fill:#E21039;stroke:#930019;stroke-width:3;stroke-linejoin:round;stroke-miterlimit:10;}
	.st9{fill:none;stroke:#FFFFFF;stroke-linecap:round;stroke-linejoin:round;stroke-miterlimit:10;}
	.st10{fill:#77A45B;stroke:#3D710C;stroke-linecap:round;stroke-linejoin:round;stroke-miterlimit:10;}
	.st11{fill:none;stroke:#77A45B;stroke-width:3;stroke-miterlimit:10;}
	.st12{opacity:0.5;fill:none;stroke:#FFFFFF;stroke-width:3;stroke-linejoin:round;stroke-miterlimit:10;}
	.st13{opacity:0.7;fill:none;stroke:#FFFFFF;stroke-width:3;stroke-linejoin:round;stroke-miterlimit:10;}
	.st14{opacity:0.9;fill:none;stroke:#FFFFFF;stroke-width:3;stroke-linejoin:round;stroke-miterlimit:10;}
	.st15{opacity:0.3;fill:none;stroke:#FFFFFF;stroke-width:3;stroke-linejoin:round;stroke-miterlimit:10;}
	.st16{opacity:0.2;fill:none;stroke:#FFFFFF;stroke-width:3;stroke-linejoin:round;stroke-miterlimit:10;}
	.st17{fill:#E21039;}
	.st18{fill:#930019;}
	.st19{fill:#F4E5E8;}
	.st20{fill:#DEB2BA;}
	.st21{fill:#C8818D;}
	.st22{fill:#B14D5F;}
	.st23{fill:#FFFFFF;}
</style>
<path class="st17" d="M421,739.9c-89.6-35.4-155.9-101.9-156.3-203.6c-0.4-101.4,75.2-186.9,174.9-205.2
	c156-28.6,295.6,54.7,295.6,204.2c0,102.5-66.8,166.6-157.2,204.9L502.5,814L421,739.9z"/>
<path class="st18" d="M457.4,810.2c-4.9-22.3-21.1-40.4-44.5-49.7C303.5,717.3,243,637.7,242.6,536.4c-0.2-54,19.4-106.7,55.3-148.3
	c35.3-41,84.3-68.9,137.8-78.7c46.1-8.4,91-7.9,133.3,1.5c41.8,9.3,79.8,27.5,109.9,52.6c24.7,20.6,44.1,45.5,57.4,74
	c13.9,29.8,21,62.7,21,97.9c0,53.7-16.8,101-49.8,140.7c-28.5,34.2-69.2,62.7-120.9,84.6c-23.3,9.9-39.4,27.9-44.1,49.6L457.4,810.2
	z M500,347.7c-18.5,0-37.4,1.7-56.3,5.2c-43.7,8-83.5,30.8-112.2,64.1c-28.9,33.5-44.7,75.9-44.5,119.2c0.2,43.1,13.5,81,39.6,112.7
	c24.2,29.4,58.7,53.1,102.7,70.4c35.8,14.2,62.1,43.4,70.8,78.5c8.6-34.6,33.7-62.9,69.5-78c45.1-19.1,80.1-43.4,104.1-72.1
	c26.3-31.5,39.6-69.3,39.6-112.4c0-56.2-21.6-103.9-62.5-137.9c-24.7-20.6-56.2-35.6-91.2-43.4C540.5,349.8,520.5,347.7,500,347.7z"
	/>
<path class="st0" d="M528.1,361.7c0.6-3.6,9.6-58.7-12.8-123.1c17.5-34.3,31.5-61.5,3.6-106.5c-32.5-52.3-101-98.4-136.6-76.4
	s-24.7,104,7.7,156.3c25.7,41.5,55.9,43.6,89.4,43.7c17.2,52.5,10.3,103,9.8,106C489.3,361.7,510.5,373.7,528.1,361.7z"/>
<path class="st1" d="M556.6,108.7c-16.2-26.1-39.4-50.8-65.3-69.7c-20.9-15.2-53-33.3-87.5-33.3c-16.6,0-31.7,4.1-44.8,12.3
	c-17.7,11-30.7,28.7-37.4,51.3c-5,16.6-6.7,35.6-5,56.6c2.9,37.5,16,77.3,35.9,109.4c17,27.4,37.8,45.5,63.5,55.4
	c9.6,3.7,19,5.9,28.3,7.2c0.5,3.4,1,6.6,1.3,9.7c12.3-1.9,24.5-3.2,36.6-3.8c3.5,32.2-0.2,56.3-0.2,56.6c-0.5,3.1,0.9,6.1,3.6,7.6
	c0.7,0.4,11.4,6.3,24.6,6.3c7,0,14.7-1.6,22-6.6c1.7-1.1,2.8-2.9,3.1-4.9c0.6-3.7,4.1-25.9,1.5-57.5c10.9,1.2,21.6,3,32.2,5.4
	c1.7,0.4,3.5,0.8,5.2,1.2c-1.1-20.1-4.2-44-11.3-69.6c6.9-14.4,12.9-29.8,15.2-47.4C581.9,166.3,574.8,138.1,556.6,108.7z
	 M521.3,357.1c-8.8,4.4-18.6,2-24.1,0c1.5-15.3,4-58.7-10.7-103.8c-1-3-3.8-5.1-7-5.1c-34.1-0.1-60.1-3-83.2-40.2
	c-15.5-24.9-26-57.1-28.3-86.2c-2.3-29.5,4.3-51.4,18.2-59.9c13.9-8.6,36.4-4.8,61.8,10.3c25,14.9,49.2,38.7,64.6,63.6
	c25.7,41.4,13.3,65.7-3.9,99.3c-0.9,1.8-1.1,3.9-0.4,5.8C527.4,295.7,523,344.2,521.3,357.1z"/>
<path class="st19" d="M521.9,937.7l4.3-26.4h-52.3l4.3,26.4c1.7,10.7,11,18.6,21.9,18.6C510.9,956.3,520.1,948.4,521.9,937.7z"/>
<polygon class="st20" points="533.5,866.3 466.5,866.3 473.8,911.3 526.2,911.3 "/>
<polygon class="st21" points="540.8,821.3 459.2,821.3 466.5,866.3 533.5,866.3 "/>
<path class="st22" d="M507.9,776.3c-3.4,6.9-6,14.1-7.9,21.6c-1.9-7.5-4.5-14.7-7.9-21.6H438c9.8,9.2,16.6,20.9,19.4,33.9l1.8,11.1
	h81.6l1.8-11c2.8-12.9,9.7-24.6,19.7-34H507.9z"/>
<g>
	<g>
		<g>
			<path class="st23" d="M357.9,475.4c-1.3,0-2.7-0.4-3.9-1.1c-3.5-2.1-4.6-6.7-2.4-10.1c16.4-26.7,42-47.9,72-59.5
				c3.8-1.5,8.1,0.4,9.6,4.2c1.5,3.8-0.4,8.1-4.2,9.5c-27,10.5-50,29.5-64.8,53.5C362.8,474.2,360.4,475.4,357.9,475.4z"/>
		</g>
		<g>
			<circle class="st23" cx="343.4" cy="501.3" r="7.4"/>
		</g>
	</g>
</g>
</svg>
