<?xml version="1.0" encoding="utf-8"?>
<!-- Generator: Adobe Illustrator 20.0.0, SVG Export Plug-In . SVG Version: 6.00 Build 0)  -->
<svg version="1.1" id="Layer_1" xmlns="http://www.w3.org/2000/svg" xmlns:xlink="http://www.w3.org/1999/xlink" x="0px" y="0px"
	 viewBox="0 0 64 64" style="enable-background:new 0 0 64 64;" xml:space="preserve">
<style type="text/css">
	.st0{fill:#4D831C;stroke:#2A481D;stroke-width:3;stroke-linecap:round;stroke-linejoin:round;stroke-miterlimit:10;}
	.st1{fill:#7DB34C;}
	.st2{fill:#44712A;}
	.st3{fill:none;stroke:#FFFFFF;stroke-linecap:round;stroke-miterlimit:10;}
	.st4{fill:#4D831C;}
	.st5{fill:#2A481D;}
	.st6{fill:#4D831C;stroke:#184C28;stroke-width:3;stroke-linecap:round;stroke-linejoin:round;stroke-miterlimit:10;}
	.st7{display:none;}
	.st8{display:inline;fill:#D1A982;}
	.st9{display:inline;}
	.st10{fill:#AFD048;stroke:#6B9311;stroke-width:3;stroke-miterlimit:10;}
	.st11{fill:none;stroke:#6B9311;stroke-miterlimit:10;}
	.st12{fill:#AFD048;}
	.st13{fill:#F40000;stroke:#BA0D0D;stroke-width:3;stroke-miterlimit:10;}
	.st14{fill:none;stroke:#FFFFFF;stroke-linecap:round;stroke-linejoin:round;stroke-miterlimit:10;}
	.st15{fill:#CDA347;stroke:#A2690C;stroke-width:3;stroke-miterlimit:10;}
	.st16{fill:#A2CC62;}
	.st17{fill:#68664C;stroke:#522B25;stroke-width:3;stroke-linecap:round;stroke-linejoin:round;stroke-miterlimit:10;}
	.st18{fill:#B63E34;stroke:#522B25;stroke-width:3;stroke-miterlimit:10;}
	.st19{fill:#ADD481;}
	.st20{fill:#68664C;}
	.st21{fill:#593156;stroke:#331E31;stroke-width:3;stroke-miterlimit:10;}
	.st22{fill:#22B573;stroke:#184C28;stroke-width:3;stroke-linecap:round;stroke-linejoin:round;stroke-miterlimit:10;}
	.st23{fill:#EE0000;}
	.st24{fill:#9A0601;}
	.st25{fill:#EE0000;stroke:#9A0601;stroke-linecap:round;stroke-linejoin:round;stroke-miterlimit:10;}
	.st26{fill:#FFFFFF;}
	.st27{clip-path:url(#SVGID_2_);}
	.st28{fill:#00FFFF;}
	.st29{fill:#456A0A;}
	.st30{fill:#183300;}
	.st31{fill:#FF2214;}
	.st32{fill:#661900;}
	.st33{fill:#88A501;}
	.st34{fill:#3B6700;}
	.st35{fill:#FC4100;}
	.st36{fill:#9F0500;}
	.st37{fill:none;stroke:#6B9311;stroke-width:3;stroke-linecap:round;stroke-miterlimit:10;}
	.st38{fill:#6B9311;}
	.st39{fill:#593156;}
	.st40{fill:#331E31;}
	.st41{fill:#AFD048;stroke:#6B9311;stroke-width:3;stroke-linecap:round;stroke-linejoin:round;stroke-miterlimit:10;}
	.st42{fill:none;stroke:#6B9311;stroke-linejoin:round;stroke-miterlimit:10;}
	.st43{fill:#B63E34;stroke:#522B25;stroke-miterlimit:10;}
	.st44{fill:none;stroke:#522B25;stroke-miterlimit:10;}
	.st45{fill:none;stroke:#522B25;stroke-width:3;stroke-miterlimit:10;}
	.st46{fill:#B63E34;}
	.st47{fill:#522B25;}
	.st48{fill:none;stroke:#40760E;stroke-width:3;stroke-linecap:round;stroke-linejoin:round;stroke-miterlimit:10;}
	.st49{fill:none;stroke:#40760E;stroke-linecap:round;stroke-linejoin:round;stroke-miterlimit:10;}
	.st50{fill:#A2CC62;stroke:#40760E;stroke-width:3;stroke-linecap:round;stroke-linejoin:round;stroke-miterlimit:10;}
	.st51{fill:#A2CC62;stroke:#40760E;stroke-linecap:round;stroke-linejoin:round;stroke-miterlimit:10;}
	.st52{fill:#9EC161;}
	.st53{fill:#40760E;}
	.st54{fill:#AFD048;stroke:#6B9311;stroke-width:3;stroke-linejoin:round;stroke-miterlimit:10;}
	.st55{fill:#663965;}
	.st56{fill:#9D610B;}
	.st57{fill:none;stroke:#A2690C;stroke-linecap:round;stroke-miterlimit:10;}
	.st58{fill:#6D4E2B;}
	.st59{fill:#CDA347;}
	.st60{fill:#7F500A;}
	.st61{fill:#F40000;stroke:#BA0D0D;stroke-miterlimit:10;}
	.st62{fill:#F40000;stroke:#B63E34;stroke-width:3;stroke-miterlimit:10;}
	.st63{fill:#F40000;stroke:#B63E34;stroke-miterlimit:10;}
	.st64{fill:#F40000;stroke:#990D0D;stroke-width:3;stroke-miterlimit:10;}
	.st65{fill:#F40000;stroke:#990D0D;stroke-miterlimit:10;}
	.st66{fill:#F40000;}
	.st67{fill:#990D0D;}
	.st68{fill:#FF9D00;}
	.st69{fill:#E6681E;}
	.st70{fill:#FFCB00;}
	.st71{fill:#B58B06;}
	.st72{fill:#3A4C09;}
	.st73{fill:#B94850;stroke:#6C0A04;stroke-width:3;stroke-miterlimit:10;}
	.st74{fill:#CE8645;stroke:#CE8645;stroke-width:0.5;stroke-miterlimit:10;}
	.st75{fill:#6C0A04;stroke:#6C0A04;stroke-width:0.5;stroke-miterlimit:10;}
	.st76{fill:none;stroke:#6C0A04;stroke-linecap:round;stroke-miterlimit:10;}
	.st77{fill:#B94850;}
	.st78{fill:#CE8645;}
	.st79{fill:#6C0A04;}
	.st80{fill:#8C4F6F;}
	.st81{fill:#E7C456;}
	.st82{fill:#391A26;}
	.st83{fill:#E7C456;stroke:#AC5E17;stroke-width:3;stroke-miterlimit:10;}
	.st84{fill:#4F250E;stroke:#4F250E;stroke-width:0.5;stroke-miterlimit:10;}
	.st85{fill:none;stroke:#AC5E17;stroke-linecap:round;stroke-miterlimit:10;}
	.st86{fill:#4F250E;}
	.st87{fill:#995116;}
	.st88{fill:#FD801E;stroke:#9E0E00;stroke-width:3;stroke-miterlimit:10;}
	.st89{fill:#FD801E;stroke:#9E0E00;stroke-linecap:round;stroke-miterlimit:10;}
	.st90{opacity:0.8;fill:#FFBC42;}
	.st91{opacity:0.8;fill:#D03400;}
	.st92{fill:none;stroke:#9E0E00;stroke-linecap:round;stroke-miterlimit:10;}
	.st93{fill:#FFBC42;}
	.st94{fill:none;stroke:#9E0E00;stroke-width:3;stroke-miterlimit:10;}
	.st95{fill:#344C00;}
	.st96{fill:#FD801E;}
	.st97{fill:#9E0E00;}
	.st98{fill:#FDAF48;}
	.st99{fill:#D74E1E;}
	.st100{opacity:0.8;fill:#68664C;}
	.st101{fill:#775E49;}
	.st102{fill:#FF7A00;}
	.st103{fill:#FF7A00;stroke:#F44500;stroke-width:3;stroke-miterlimit:10;}
	.st104{fill:none;stroke:#F44500;stroke-linecap:round;stroke-linejoin:round;stroke-miterlimit:10;}
	.st105{fill:#FF7A00;stroke:#F44500;stroke-linecap:round;stroke-linejoin:round;stroke-miterlimit:10;}
	.st106{fill:#F44500;}
	.st107{fill:#F6E600;}
	.st108{fill:#8DCC50;}
	.st109{fill:#A2A121;}
	.st110{fill:#F9EFA7;}
	.st111{fill:#6E905E;}
	.st112{fill:#F22F2E;}
	.st113{fill:#7B000E;}
	.st114{fill:#F22F2E;stroke:#7B000E;stroke-width:3;stroke-miterlimit:10;}
	.st115{fill:#7DB34C;stroke:#44712A;stroke-width:3;stroke-miterlimit:10;}
	.st116{fill:none;stroke:#44712A;stroke-miterlimit:10;}
	.st117{fill:none;stroke:#7B000E;stroke-linecap:round;stroke-linejoin:round;stroke-miterlimit:10;}
	.st118{fill:none;stroke:#7B000E;stroke-linecap:round;stroke-miterlimit:10;}
</style>
<g>
	<g>
		<path class="st4" d="M46.3,21l-11.2-6.1c0,0,7.1-7,10.1-12.6c2.4-0.7,5.5,0.9,6.2,3.4C48.4,11.2,46.3,21,46.3,21z"/>
		<path class="st5" d="M45.2,18.6c0.8-3.1,2.3-8.9,4.4-13c-0.3-0.5-0.8-1-1.5-1.4c-0.6-0.3-1.3-0.5-1.9-0.5c-2.3,4-6.2,8.3-8.4,10.6
			l-3-1.6c2-2.1,6.6-7.1,8.9-11.3c0.2-0.4,0.5-0.7,1-0.8c1.5-0.5,3.3-0.2,4.9,0.6c1.6,0.9,2.8,2.3,3.3,3.9c0.1,0.4,0.1,0.9-0.1,1.2
			c-2.3,4.2-4,11-4.7,13.7L45.2,18.6z"/>
	</g>
	<path class="st112" d="M17.7,58.9c5.1,2.8,11,3.6,16.7,2.4c8.6-1.8,18.3-5.7,24.7-17.3c4-7.3-4.1-19.3-18-26.8S12.7,9.4,8.8,16.7
		C1.3,30.5,3.9,40.6,7.5,48.2C9.6,52.7,13.2,56.5,17.7,58.9L17.7,58.9z"/>
	<path class="st113" d="M22.9,62.7c-2.1-0.5-4.1-1.3-6-2.3l0,0C12.1,57.7,8.3,53.8,6,48.9c-3.3-7-6.8-18,1.4-32.9
		c2.2-4.1,7.1-6.2,13.9-6.1c6.4,0.1,13.7,2.2,20.6,6c6.9,3.8,12.7,8.8,16.2,14c3.7,5.6,4.6,10.9,2.4,15c-7,12.8-18,16.4-25.7,18.1
		C30.8,63.8,26.7,63.7,22.9,62.7z M18.5,57.5c4.7,2.6,10.3,3.4,15.6,2.2c7.7-1.6,17.3-5,23.6-16.5c1.6-3,0.8-7.1-2.2-11.6
		c-3.2-4.9-8.6-9.5-15.1-13C33.8,15.1,27,13.1,21.2,13c-5.5-0.1-9.4,1.5-11,4.4C2.8,31,5.6,40.6,8.9,47.5
		C10.9,51.8,14.3,55.2,18.5,57.5L18.5,57.5z"/>
	<g>
		<path class="st113" d="M38.3,42.4c-0.1,0-0.1,0-0.2-0.1c-0.2-0.2-0.3-0.5-0.2-0.7c1.4-2.1,2.7-4.4,4-6.8c1.4-2.5,2.2-5.2,2.5-7.8
			c0-0.3,0.3-0.5,0.6-0.5c0.3,0,0.5,0.3,0.5,0.6c-0.3,2.7-1.2,5.6-2.6,8.2c-1.3,2.4-2.7,4.7-4.1,6.9C38.7,42.3,38.5,42.4,38.3,42.4z
			"/>
	</g>
	<g>
		<path class="st26" d="M13.8,45.6c-0.1,0-0.3-0.1-0.4-0.3c-0.8-1.6-1.4-3.3-1.8-5c-0.1-0.3,0.1-0.6,0.4-0.7
			c0.3-0.1,0.6,0.1,0.7,0.4c0.4,1.6,1,3.2,1.7,4.8c0.1,0.3,0,0.6-0.3,0.7C14,45.6,13.9,45.6,13.8,45.6z"/>
	</g>
	<g>
		<path class="st26" d="M11.6,30.8c-0.3-0.1-0.4-0.3-0.4-0.6c0.6-3.4,1.9-6.8,4-10.1c0.2-0.3,0.5-0.3,0.7-0.2
			c0.3,0.2,0.3,0.5,0.2,0.7c-2,3.1-3.3,6.4-3.8,9.7C12.2,30.7,12,30.9,11.6,30.8C11.7,30.9,11.6,30.9,11.6,30.8z"/>
	</g>
	<g>
		<path class="st113" d="M48.8,39.1c0,0-0.1,0-0.1,0c-0.3-0.1-0.4-0.5-0.2-0.7c0.9-1.6,1.4-3.3,1.5-5.1c0-0.3,0.3-0.5,0.6-0.5
			c0.3,0,0.5,0.3,0.5,0.6c-0.2,2-0.7,3.8-1.6,5.6C49.3,39,49,39.1,48.8,39.1z"/>
	</g>
	<g>
		<path class="st26" d="M45.9,36.1C45.8,36.1,45.8,36.1,45.9,36.1c-0.4-0.2-0.5-0.5-0.4-0.7c0.6-1.3,1-2.8,1.3-4.2
			c0-0.3,0.3-0.5,0.6-0.4c0.3,0.1,0.5,0.3,0.4,0.6c-0.2,1.5-0.7,3-1.4,4.5C46.4,36.1,46.1,36.2,45.9,36.1z"/>
	</g>
	<g>
		
			<ellipse transform="matrix(0.4784 -0.8782 0.8782 0.4784 -10.6914 59.2564)" class="st26" cx="44.5" cy="38.6" rx="0.7" ry="0.7"/>
	</g>
	<g>
		
			<ellipse transform="matrix(0.4784 -0.8782 0.8782 0.4784 -23.1927 27.3708)" class="st26" cx="11.4" cy="33.2" rx="0.7" ry="0.7"/>
	</g>
</g>
</svg>
