<?xml version="1.0" encoding="utf-8"?>
<!-- Generator: Adobe Illustrator 20.0.0, SVG Export Plug-In . SVG Version: 6.00 Build 0)  -->
<svg version="1.1" id="Layer_1" xmlns="http://www.w3.org/2000/svg" xmlns:xlink="http://www.w3.org/1999/xlink" x="0px" y="0px"
	 viewBox="0 0 64 64" style="enable-background:new 0 0 64 64;" xml:space="preserve">
<style type="text/css">
	.st0{fill:#4D831C;stroke:#184C28;stroke-width:3;stroke-linecap:round;stroke-linejoin:round;stroke-miterlimit:10;}
	.st1{display:none;}
	.st2{display:inline;fill:#D1A982;}
	.st3{display:inline;}
	.st4{fill:#AFD048;stroke:#6B9311;stroke-width:3;stroke-miterlimit:10;}
	.st5{fill:none;stroke:#6B9311;stroke-miterlimit:10;}
	.st6{fill:#AFD048;}
	.st7{fill:#F40000;stroke:#BA0D0D;stroke-width:3;stroke-miterlimit:10;}
	.st8{fill:none;stroke:#FFFFFF;stroke-linecap:round;stroke-linejoin:round;stroke-miterlimit:10;}
	.st9{fill:#CDA347;stroke:#A2690C;stroke-width:3;stroke-miterlimit:10;}
	.st10{fill:#A2CC62;}
	.st11{fill:#68664C;stroke:#522B25;stroke-width:3;stroke-linecap:round;stroke-linejoin:round;stroke-miterlimit:10;}
	.st12{fill:#B63E34;stroke:#522B25;stroke-width:3;stroke-miterlimit:10;}
	.st13{fill:#ADD481;}
	.st14{fill:#68664C;}
	.st15{fill:#593156;stroke:#331E31;stroke-width:3;stroke-miterlimit:10;}
	.st16{fill:none;stroke:#FFFFFF;stroke-linecap:round;stroke-miterlimit:10;}
	.st17{fill:#22B573;stroke:#184C28;stroke-width:3;stroke-linecap:round;stroke-linejoin:round;stroke-miterlimit:10;}
	.st18{fill:#EE0000;}
	.st19{fill:#9A0601;}
	.st20{fill:#EE0000;stroke:#9A0601;stroke-linecap:round;stroke-linejoin:round;stroke-miterlimit:10;}
	.st21{fill:#FFFFFF;}
	.st22{clip-path:url(#SVGID_2_);}
	.st23{fill:#00FFFF;}
	.st24{fill:#456A0A;}
	.st25{fill:#183300;}
	.st26{fill:#FF2214;}
	.st27{fill:#661900;}
	.st28{fill:#88A501;}
	.st29{fill:#3B6700;}
	.st30{fill:#FC4100;}
	.st31{fill:#9F0500;}
	.st32{fill:none;stroke:#6B9311;stroke-width:3;stroke-linecap:round;stroke-miterlimit:10;}
	.st33{fill:#6B9311;}
	.st34{fill:#593156;}
	.st35{fill:#331E31;}
	.st36{fill:#AFD048;stroke:#6B9311;stroke-width:3;stroke-linecap:round;stroke-linejoin:round;stroke-miterlimit:10;}
	.st37{fill:none;stroke:#6B9311;stroke-linejoin:round;stroke-miterlimit:10;}
	.st38{fill:#B63E34;stroke:#522B25;stroke-miterlimit:10;}
	.st39{fill:none;stroke:#522B25;stroke-miterlimit:10;}
	.st40{fill:none;stroke:#522B25;stroke-width:3;stroke-miterlimit:10;}
	.st41{fill:#B63E34;}
	.st42{fill:#522B25;}
	.st43{fill:none;stroke:#40760E;stroke-width:3;stroke-linecap:round;stroke-linejoin:round;stroke-miterlimit:10;}
	.st44{fill:none;stroke:#40760E;stroke-linecap:round;stroke-linejoin:round;stroke-miterlimit:10;}
	.st45{fill:#A2CC62;stroke:#40760E;stroke-width:3;stroke-linecap:round;stroke-linejoin:round;stroke-miterlimit:10;}
	.st46{fill:#A2CC62;stroke:#40760E;stroke-linecap:round;stroke-linejoin:round;stroke-miterlimit:10;}
	.st47{fill:#9EC161;}
	.st48{fill:#40760E;}
	.st49{fill:#AFD048;stroke:#6B9311;stroke-width:3;stroke-linejoin:round;stroke-miterlimit:10;}
	.st50{fill:#663965;}
	.st51{fill:#9D610B;}
	.st52{fill:none;stroke:#A2690C;stroke-linecap:round;stroke-miterlimit:10;}
	.st53{fill:#6D4E2B;}
	.st54{fill:#CDA347;}
	.st55{fill:#7F500A;}
	.st56{fill:#F40000;stroke:#BA0D0D;stroke-miterlimit:10;}
	.st57{fill:#F40000;stroke:#B63E34;stroke-width:3;stroke-miterlimit:10;}
	.st58{fill:#F40000;stroke:#B63E34;stroke-miterlimit:10;}
	.st59{fill:#F40000;stroke:#990D0D;stroke-width:3;stroke-miterlimit:10;}
	.st60{fill:#F40000;stroke:#990D0D;stroke-miterlimit:10;}
	.st61{fill:#F40000;}
	.st62{fill:#990D0D;}
	.st63{fill:#FF9D00;}
	.st64{fill:#E6681E;}
	.st65{fill:#FFCB00;}
	.st66{fill:#B58B06;}
	.st67{fill:#3A4C09;}
	.st68{fill:#B94850;stroke:#6C0A04;stroke-width:3;stroke-miterlimit:10;}
	.st69{fill:#CE8645;stroke:#CE8645;stroke-width:0.5;stroke-miterlimit:10;}
	.st70{fill:#6C0A04;stroke:#6C0A04;stroke-width:0.5;stroke-miterlimit:10;}
	.st71{fill:none;stroke:#6C0A04;stroke-linecap:round;stroke-miterlimit:10;}
	.st72{fill:#B94850;}
	.st73{fill:#CE8645;}
	.st74{fill:#6C0A04;}
	.st75{fill:#8C4F6F;}
	.st76{fill:#E7C456;}
	.st77{fill:#391A26;}
	.st78{fill:#E7C456;stroke:#AC5E17;stroke-width:3;stroke-miterlimit:10;}
	.st79{fill:#4F250E;stroke:#4F250E;stroke-width:0.5;stroke-miterlimit:10;}
	.st80{fill:none;stroke:#AC5E17;stroke-linecap:round;stroke-miterlimit:10;}
	.st81{fill:#4F250E;}
	.st82{fill:#995116;}
	.st83{fill:#FD801E;stroke:#9E0E00;stroke-width:3;stroke-miterlimit:10;}
	.st84{fill:#FD801E;stroke:#9E0E00;stroke-linecap:round;stroke-miterlimit:10;}
	.st85{opacity:0.8;fill:#FFBC42;}
	.st86{opacity:0.8;fill:#D03400;}
	.st87{fill:none;stroke:#9E0E00;stroke-linecap:round;stroke-miterlimit:10;}
	.st88{fill:#FFBC42;}
	.st89{fill:none;stroke:#9E0E00;stroke-width:3;stroke-miterlimit:10;}
	.st90{fill:#184C28;}
	.st91{fill:#FD801E;}
	.st92{fill:#9E0E00;}
	.st93{fill:#FDAF48;}
	.st94{fill:#D74E1E;}
</style>
<g class="st1">
	<rect x="-353.4" y="-282.8" class="st2" width="919.6" height="2155.1"/>
	<path class="st3" d="M565.7-282.3v2154.1h-918.6V-282.3H565.7 M566.7-283.3h-920.6v2156.1h920.6V-283.3L566.7-283.3z"/>
</g>
<g>
	<path class="st41" d="M32,17.7C10.9,15.1,2.1,23.5,2.1,36.9C2.1,53,13.8,57.1,32,56.1c1.5-0.1,2.9-0.2,4.3-0.3
		c4.9,1,8.7,0.3,11.5-1.7c8.5-2.2,14.2-6.7,14.2-17.2c0-6.8-3.3-11.6-11.5-15L43,18.4L32,17.7z"/>
	<path class="st14" d="M47,20.3c2.1-1.8,3.8-4.1,5-6.7c0,0-6.1,2.3-13.9,2.7l-3.1-8.5l-4.3,8.1c-8-1.4-13.4-4.6-13.4-4.6
		c0.5,2.3,1.6,4.5,3.3,6.5c-3.3,0.7-6.4,1.8-9.4,3.5c-2.1,1.2-0.6,4.3,1.6,3.8c1-0.2,2-0.4,3.1-0.5c0.1,0.8,0.7,1.5,1.5,1.8
		c0.1,2.8,0.1,5.6,0.2,8.4c0,1.9,3,3,3.9,1c1.5-3.4,3.6-5.9,6.4-7.4c0.6,0.3,1.2,0.3,1.8-0.1c1.2-0.7,2.5-1.3,3.7-1.7
		c0.1,1,0.8,1.9,2,1.8c1.4-0.1,2.8-0.3,4.2-0.7c1.5-0.1,2.9-0.2,4.4-0.1c3.2,1.2,5.5,3.6,6.5,8.2c0.4,1.9,3.6,2,4,0
		c0.3-1.8,0.2-3.6,0.4-5.4c0.7-0.2,1.3-0.5,2-0.7c0.4,0.2,0.7,0.4,1.1,0.6l2.5,0.3l-6-7.2L47,20.3z"/>
	<circle class="st21" cx="19.2" cy="22.9" r="0.5"/>
	<path class="st21" d="M31.9,23.1c-0.1-0.3-0.4-0.4-0.7-0.3c-3,1-5,2.4-6.4,4.7c0,0,0,0,0,0c0,0,0,0,0,0c0,0,0,0,0,0
		c0,0.1-0.1,0.2-0.1,0.3c0,0.3,0.2,0.5,0.5,0.5c0.2,0,0.3-0.1,0.4-0.2c0,0,0,0,0,0c1.4-2.4,3.4-3.5,5.8-4.3
		C31.8,23.7,31.9,23.4,31.9,23.1z"/>
	<path class="st21" d="M7.6,33.2c0,0-0.1,0-0.1,0c-0.3-0.1-0.5-0.3-0.4-0.6c1-4.8,3.8-7.8,8.6-9.4c0.3-0.1,0.6,0.1,0.7,0.3
		c0.1,0.3-0.1,0.6-0.3,0.7c-4.5,1.5-7,4.2-7.9,8.6C8.1,33,7.9,33.2,7.6,33.2z"/>
	<path class="st14" d="M30.5,29.9c-1,0-1,2.1,0,2.1C34.5,32,34.5,29.9,30.5,29.9z"/>
	<path class="st14" d="M45.5,34.7c-2,0-2,2.1,0,2.1C46.5,36.8,46.5,34.7,45.5,34.7z"/>
	<path class="st14" d="M53.5,42c-1,0-1,2.1,0,2.1S54.5,42,53.5,42z"/>
	<path class="st14" d="M12.5,29.7c-2,0-2,2.1,0,2.1C13.5,31.8,13.5,29.7,12.5,29.7z"/>
	<path class="st14" d="M17.5,41.8c-1,0-1,2.1,0,2.1S18.5,41.8,17.5,41.8z"/>
	<path class="st42" d="M51.3,20.5c-0.2-0.2-0.3-0.4-0.5-0.6c-0.3-0.3-0.3-0.9,0-1.3c1-1.3,1.9-2.7,2.6-4.3c0.3-0.6,0.1-1.2-0.3-1.7
		c-0.4-0.5-1.1-0.6-1.7-0.4c-0.1,0-4.6,1.7-10.7,2.4c-0.9,0.1-1.8-0.4-2.2-1.3l-2.2-5.9c-0.2-0.6-0.7-1-1.4-1
		c-0.6,0-1.2,0.3-1.5,0.8l-3,5.7c-0.4,0.8-1.4,1.3-2.3,1C22.1,12.3,18.1,10,18,10c-0.5-0.3-1.2-0.3-1.7,0.1c-0.5,0.4-0.7,1-0.6,1.6
		c0.2,1.1,0.6,2.2,1.1,3.3c0.3,0.7,0,1.5-0.8,1.7c-3.7,0.9-6.9,2.4-9.3,4.6c-4.1,3.7-6.2,8.9-6.2,15.6c0,6.4,1.8,11.4,5.5,14.8
		c4.3,4.1,11.1,6,21,6c1.6,0,3.3-0.1,5.1-0.2c0.8,0,1.5-0.1,2.3-0.1c1-0.1,2.1-0.1,3.1,0.1c4,0.6,7.4,0.1,10.1-1.5
		c0.7-0.4,1.4-0.7,2.1-0.9c9.4-2.9,13.8-8.7,13.8-18.3c0-7.6-3.8-12.7-11.9-16.2C51.5,20.7,51.4,20.6,51.3,20.5z M47.1,51.9
		c-2.6,2.2-6.3,2.8-10.8,1.8c-11.5-2.3-16.1-7.3-16.1-17.1c0-14.4,7-16.3,16.1-17.1c0.9-0.1,1.8-0.1,2.7-0.1c3.9,0,6.8,0.9,8.9,2.8
		c3,2.7,4.4,7.4,4.4,14.4C52.2,43.8,50.4,49.1,47.1,51.9z M47.3,17.4c-0.3-0.1-0.6-0.3-0.9-0.4c-0.1,0-0.1-0.2,0-0.3
		c0.7-0.1,1.3-0.3,1.9-0.4c0.1,0,0.2,0.1,0.1,0.2c-0.2,0.3-0.4,0.5-0.6,0.8C47.7,17.4,47.5,17.5,47.3,17.4z M32.6,15.4l1.5-2.9
		c0.2-0.3,0.7-0.3,0.8,0.1l1,2.7c0.1,0.3-0.1,0.6-0.4,0.6l-2.5,0.2C32.7,16.1,32.5,15.8,32.6,15.4z M20.6,14.6l2.1,0.8
		c0.2,0.1,0.2,0.4-0.1,0.4l-1.4,0.1c-0.2,0-0.3-0.1-0.4-0.2l-0.5-0.7C20.2,14.7,20.4,14.5,20.6,14.6z M8.1,49.5
		c-3-2.9-4.5-7-4.5-12.6c0-5.8,1.7-10.3,5.2-13.3c3.6-3.2,9-4.8,16-4.8c0.8,0,1.7,0,2.6,0.1c0.7,0,0.9,1,0.2,1.3
		c-5.1,2-8.5,6.2-8.5,16.5c0,8.4,3.4,13.5,11.1,16.5c0.8,0.3,0.6,1.6-0.3,1.6C14.9,55.1,8.1,49.5,8.1,49.5z M51.1,51.4
		c-0.8,0.3-1.5-0.6-1.1-1.3c2.1-3.1,3.2-7.7,3.2-13.5c0-4.5-0.6-8-1.8-10.8c-0.3-0.8,0.5-1.5,1.2-1.1c5.3,2.9,7.7,6.7,7.7,12.2
		C60.4,44.3,57.6,48.8,51.1,51.4z"/>
</g>
</svg>
