<?xml version="1.0" encoding="utf-8"?>
<!-- Generator: Adobe Illustrator 20.1.0, SVG Export Plug-In . SVG Version: 6.00 Build 0)  -->
<svg version="1.1" id="Layer_1" xmlns="http://www.w3.org/2000/svg" xmlns:xlink="http://www.w3.org/1999/xlink" x="0px" y="0px"
	 viewBox="0 0 400 400" style="enable-background:new 0 0 400 400;" xml:space="preserve">
<style type="text/css">
	.st0{fill:#6E8517;}
	.st1{fill:#1B4700;}
	.st2{fill:#00FFFF;}
	.st3{fill:#A2CC62;stroke:#2A481D;stroke-width:6;stroke-miterlimit:10;}
	.st4{fill:#FAD500;stroke:#E6681E;stroke-width:3;stroke-miterlimit:10;}
	.st5{fill:none;stroke:#E6681E;stroke-linecap:round;stroke-miterlimit:10;}
	.st6{fill:none;stroke:#FFFFFF;stroke-linecap:round;stroke-miterlimit:10;}
	.st7{fill:none;stroke:#E6681E;stroke-miterlimit:10;}
	.st8{fill:#E6681E;}
	.st9{fill:#A2CC62;stroke:#2A481D;stroke-miterlimit:10;}
	.st10{fill:#FFFFFF;}
	.st11{fill:#A2CC62;}
	.st12{fill:#FBE000;}
	.st13{fill:#E46900;}
	.st14{fill:#51B505;}
	.st15{fill:#164100;}
	.st16{fill:#4D831C;}
	.st17{fill:#2A481D;}
	.st18{fill:#A7C92B;}
	.st19{fill:#D10000;stroke:#7B000E;stroke-width:3;stroke-miterlimit:10;}
	.st20{fill:none;stroke:#7B000E;stroke-miterlimit:10;}
	.st21{fill:none;stroke:#7B000E;stroke-width:1.2609;stroke-miterlimit:10;}
	.st22{fill:#D10000;}
	.st23{fill:#7B000E;}
	.st24{opacity:0.7;}
	.st25{fill:#4D831C;stroke:#2A481D;stroke-width:3;stroke-miterlimit:10;}
	.st26{opacity:0.5;fill:none;stroke:#FFFFFF;stroke-linecap:round;stroke-miterlimit:10;}
	.st27{fill:#BD0408;}
	.st28{fill:#C8040B;stroke:#6C0A04;stroke-width:3;stroke-miterlimit:10;}
	.st29{fill:none;stroke:#6C0A04;stroke-linecap:round;stroke-miterlimit:10;}
	.st30{fill:#A7C08F;}
	.st31{fill:none;stroke:#FFFFFF;stroke-width:6.4322;stroke-linecap:round;stroke-miterlimit:10;}
	.st32{fill:#C8040B;}
	.st33{fill:#6C0A04;}
	.st34{fill:#F22F2E;stroke:#9E0E00;stroke-width:3;stroke-miterlimit:10;}
	.st35{fill:#A7C92B;stroke:#164E16;stroke-width:3;stroke-miterlimit:10;}
	.st36{fill:none;stroke:#164E16;stroke-miterlimit:10;}
	.st37{fill:#4D831C;stroke:#2A481D;stroke-width:3;stroke-linecap:round;stroke-linejoin:round;stroke-miterlimit:10;}
	.st38{fill:#F22F2E;stroke:#7B000E;stroke-width:3;stroke-miterlimit:10;}
	.st39{fill:none;stroke:#7B000E;stroke-linecap:round;stroke-miterlimit:10;}
	.st40{fill:#F40000;stroke:#7B000E;stroke-width:3;stroke-miterlimit:10;}
	.st41{fill:#F40000;}
	.st42{fill:#7DB34C;stroke:#164E16;stroke-width:3;stroke-miterlimit:10;}
	.st43{fill:none;stroke:#FFFFFF;stroke-linecap:round;stroke-linejoin:round;stroke-miterlimit:10;}
	.st44{fill:#8A9D1F;}
	.st45{fill:#164E16;}
	.st46{fill:none;stroke:#7B000E;stroke-linecap:round;stroke-linejoin:round;stroke-miterlimit:10;}
	.st47{fill:#F6E600;}
	.st48{fill:#8DCC50;}
	.st49{fill:#A2A121;}
	.st50{fill:#F9EFA7;}
	.st51{fill:#7DB34C;}
	.st52{fill:#F22F2E;}
	.st53{fill:#9E0E00;}
	.st54{fill:#6FAB00;stroke:#1B4700;stroke-width:3;stroke-miterlimit:10;}
	.st55{fill:none;stroke:#1B4700;stroke-linecap:round;stroke-miterlimit:10;}
	.st56{fill:#6E8517;stroke:#1B4700;stroke-linecap:round;stroke-miterlimit:10;}
	.st57{fill:#6FAB00;}
	.st58{fill:#853323;}
	.st59{fill:#7AB000;}
	.st60{fill:#430000;}
	.st61{fill:none;stroke:#1B4700;stroke-width:1.5;stroke-linecap:round;stroke-linejoin:round;stroke-miterlimit:10;}
	.st62{fill:none;stroke:#1B4700;stroke-width:3;stroke-linecap:round;stroke-linejoin:round;stroke-miterlimit:10;}
	.st63{fill:#FAB2B3;}
	.st64{fill:none;stroke:#1B4700;stroke-width:18.8546;stroke-linecap:round;stroke-linejoin:round;stroke-miterlimit:10;}
	.st65{fill:none;stroke:#1B4700;stroke-width:2;stroke-linecap:round;stroke-miterlimit:10;}
	.st66{fill:none;stroke:#6FAB00;stroke-linecap:round;stroke-miterlimit:10;}
</style>
<path class="st52" d="M299.2,171.5c-39.5,124.8-109.3,189.6-157.8,216.9c-4.6,1.8-7.6-4.9-3.1-7.1l1.6-0.8
	c77.6-61.5,101.2-152.3,108.8-176C170.6,298.5,117.5,323,64,337.7c-4.9,0.6-6.2-6.6-1.3-7.7l1.7-0.4
	c99.5-45.2,179.3-179.9,179.3-179.9L299.2,171.5z"/>
<path class="st53" d="M276.3,174.2c-7.8,23.3-30.6,86.1-68.1,142.7c-0.8,1.2,0.9,2.5,1.9,1.4c27.4-32,56-77.3,77.3-140.6l20.7-3.3
	c-18.2,57.3-44.1,107.1-77.2,148c-32.2,39.9-64,62.4-84.9,74.1l-0.6,0.3l-0.6,0.2c-1.6,0.6-3.3,0.9-5,0.9c-5.8,0-11.2-3.9-12.8-10.3
	c-1.5-5.9,1.6-12.1,7-14.8l0.7-0.4c31.4-25.2,60.9-64.7,87.5-117.6l1.4-2.8c1.7-3.4-2.7-6.4-5.3-3.7c-16.4,17.6-33.7,33.3-52,47
	c-40.9,30.8-77,44.8-100.1,51.2l-0.6,0.2l-0.7,0.1c-5.9,0.8-11.7-2.5-13.9-8.1c-3.1-8.2,1.5-16.3,9.5-18l0.7-0.2
	c95.3-43.9,173.4-174.4,174.2-175.7l16,9.5c-0.8,1.4-20.7,34.7-53.1,74.2c-17.3,21-34.7,39.5-51.9,55.4c-1.1,1,0.3,2.6,1.5,1.8
	c35.6-25.4,76-64.5,113-124.5L276.3,174.2z"/>
<path class="st10" d="M144.2,289.4c-0.8,0-1.7-0.3-2.3-1c-1.1-1.3-1-3.2,0.2-4.4c1.5-1.3,3-2.7,4.4-4c1.3-1.2,3.2-1.1,4.4,0.2
	c1.2,1.3,1.1,3.2-0.2,4.4c-1.5,1.4-3,2.7-4.5,4.1C145.7,289.1,144.9,289.4,144.2,289.4z"/>
<path class="st10" d="M159,275.4c-0.8,0-1.6-0.3-2.2-0.9c-1.2-1.2-1.2-3.2,0-4.4c4.5-4.5,9-9.1,13.4-13.6c1.2-1.2,3.1-1.3,4.4-0.1
	c1.2,1.2,1.3,3.1,0.1,4.4c-4.4,4.6-8.9,9.2-13.5,13.8C160.5,275.1,159.8,275.4,159,275.4z"/>
<path class="st10" d="M193,238.9c-0.7,0-1.4-0.2-2-0.7c-1.3-1.1-1.5-3.1-0.3-4.4c4-4.7,8.1-9.5,11.9-14.4c1.1-1.3,3-1.5,4.4-0.5
	c1.3,1.1,1.5,3,0.5,4.4c-3.9,4.9-8,9.8-12.1,14.5C194.8,238.5,193.9,238.9,193,238.9z"/>
<path class="st10" d="M226,196.8c-0.6,0-1.3-0.2-1.8-0.6c-1.4-1-1.7-2.9-0.7-4.3c3.1-4.3,6.1-8.7,9-13c1-1.4,2.9-1.8,4.3-0.8
	c1.4,1,1.8,2.9,0.8,4.3c-2.9,4.4-6,8.8-9.1,13.2C227.9,196.3,227,196.8,226,196.8z"/>
<path class="st10" d="M224.4,293.4c-0.5,0-1.1-0.1-1.5-0.4c-1.5-0.9-2-2.8-1.1-4.2c1.8-3.1,3.6-6.3,5.4-9.6c0.8-1.5,2.7-2.1,4.2-1.2
	c1.5,0.8,2.1,2.7,1.2,4.2c-1.8,3.3-3.6,6.6-5.4,9.7C226.6,292.9,225.5,293.4,224.4,293.4z"/>
<path class="st10" d="M239.6,265.1c-0.5,0-0.9-0.1-1.4-0.3c-1.5-0.8-2.2-2.6-1.4-4.2c1.2-2.4,2.3-4.7,3.5-7c2.6-5.4,5.2-11,7.8-16.5
	c0.7-1.6,2.5-2.3,4.1-1.5c1.6,0.7,2.3,2.5,1.5,4.1c-2.5,5.6-5.2,11.2-7.8,16.7c-1.1,2.3-2.3,4.7-3.5,7.1
	C241.9,264.5,240.8,265.1,239.6,265.1z"/>
<path class="st10" d="M260.2,220c-0.4,0-0.8-0.1-1.2-0.2c-1.6-0.7-2.3-2.5-1.7-4.1c1.1-2.7,2.2-5.3,3.2-7.8c0.6-1.6,2.4-2.4,4-1.7
	c1.6,0.6,2.4,2.4,1.7,4c-1,2.6-2.1,5.2-3.2,7.9C262.6,219.3,261.4,220,260.2,220z"/>
<ellipse transform="matrix(0.9979 -6.523528e-02 6.523528e-02 0.9979 -12.8756 14.6276)" class="st10" cx="217.6" cy="204.5" rx="3.1" ry="3.1"/>
<polygon class="st57" points="249.7,169.4 282.2,178.4 300.6,174.2 323.9,50 316.7,13 299.6,13 287.4,76.5 238.2,158.6 "/>
<path class="st1" d="M332.1,23c-0.1-3.4-1-6.8-2.7-9.9c-0.2-0.3-0.3-0.6-0.4-0.7l-0.1-0.2l-0.2-0.4c-0.9-1.4-1.9-2.7-3.1-3.8
	c-1.1-1.1-2.4-2.1-3.8-3l-0.2-0.1l-0.2-0.1c-0.7-0.4-1.3-0.7-2-1c-1.4-0.6-2.9-1.1-4.5-1.4c-1-0.2-2-0.4-3-0.4l0,0l0,0l-0.5,0
	l-0.6,0c-0.3,0-0.5,0-0.8,0c-0.9,0-1.7,0.1-2.6,0.2c-1.3,0.2-2.5,0.5-3.8,0.9c-0.4,0.1-0.7,0.2-1,0.4c-2.1,0.8-4.1,2-5.9,3.4
	l-0.1,0.1L296.4,7l-0.2,0.2L296,7.3c-4.5,4-7.2,9.6-7.4,15.5c-0.8,6.4-5.7,38.6-30.8,89.6c-2.4,4.9-5.4,9.5-8.9,13.6
	c-3.6,4.2-7.1,8.9-10.4,13.9l-3,4.5l-5.7,7.6l0,0c-1,1.4-0.8,3.4,0.5,4.5l9.8,9c5,4.6,10.8,8.1,17.2,10.4l13.1,4.8
	c0.4,0.1,0.8,0.2,1.2,0.2c0.7,0,1.4-0.2,1.9-0.6c1-0.7,2.3-0.8,3.5-0.3c3.4,1.2,6.9,2.1,10.5,2.6l15.9,2.3c0.2,0,0.3,0,0.5,0
	c1.7,0,3.2-1.3,3.5-3c0,0,0,0,0,0c0.4-3,0.8-6.1,1.6-9l1.2-4.5c1.6-6.2,2.8-12.2,3.6-18c0.3-2.1,0.8-4.4,1.6-7.1
	C335,74.9,333,33.2,332.1,23z M254,150.4c3.2-4.7,6.3-8.8,9.1-12.2c4.5-5.2,8.3-11,11.3-17.2c10.6-21.5,17.8-40,22.7-54.9
	c0.5-1.4,2.6-1,2.4,0.5c-0.5,4.4-1.2,9.2-2,14.3c-0.5,3-1.3,5.8-2.4,8.6c-5.6,14.1-12.9,30.3-22.5,48.4c-1.1,2.1-2.1,4.2-3,6.4
	c-1.6,3.7-3.5,7.7-5.9,12l-4.6,7.6c-1.5,2.6-4.9,3.4-7.4,1.8c-0.2-0.1-0.4-0.3-0.6-0.4c-2.5-1.6-3.3-4.8-1.8-7.4L254,150.4z
	 M282.6,175.1c-3.3-0.9-5.1-4.4-4-7.6l2.5-7.1c2.2-6.1,4.5-11.3,6.7-15.6c2.1-4.1,3.7-8.3,4.9-12.7c5-18,10.6-47.3,10.6-47.3
	c0,0,0.8-2.6,2.1-14.5c3.2-30,1.9-46.1,1.9-46.4c0,0,0,0,0,0c0,0,0,0,0-0.1c-0.1-1,0.3-2,1.1-2.6c0,0,0,0,0,0
	c0.3-0.2,0.5-0.4,0.9-0.5c0.1,0,0.2-0.1,0.3-0.1c0.1,0,0.2-0.1,0.4-0.1c0,0,0.1,0,0.1,0c0.1,0,0.2,0,0.3,0c0,0,0,0,0,0
	c0.1,0,0.2,0,0.3,0c0,0,0,0,0,0c0.1,0,0.1,0,0.2,0.1c0.3,0,0.6,0.1,0.8,0.2c0.1,0,0.2,0.1,0.3,0.2c0.2,0.1,0.4,0.3,0.5,0.4
	c0.2,0.2,0.3,0.4,0.5,0.6c0,0.1,0.1,0.1,0.1,0.2c0.3,0.5,0.5,1.1,0.4,1.7c0,0,0,0.1,0,0.1c0.6,5.8,3.7,45.6-16.1,114.5
	c-0.9,3.2-1.7,6.5-2.1,9.8c-0.6,4.6-1.6,9.9-3.2,15.7l-2.1,7.2c-0.9,3.1-4.1,4.9-7.2,4C282.7,175.1,282.7,175.1,282.6,175.1z"/>
</svg>
