<?xml version="1.0" encoding="utf-8"?>
<!-- Generator: Adobe Illustrator 20.0.0, SVG Export Plug-In . SVG Version: 6.00 Build 0)  -->
<svg version="1.1" id="Layer_1" xmlns="http://www.w3.org/2000/svg" xmlns:xlink="http://www.w3.org/1999/xlink" x="0px" y="0px"
	 viewBox="0 0 200 200" style="enable-background:new 0 0 200 200;" xml:space="preserve">
<style type="text/css">
	.st0{fill:#A0CB39;}
	.st1{fill:#A9C500;}
	.st2{fill:#2B6000;}
	.st3{fill:#A0CB39;stroke:#4B823B;stroke-width:3;stroke-linejoin:round;stroke-miterlimit:10;}
	.st4{fill:#4B823B;}
	.st5{fill:#90C400;}
	.st6{fill:#90C400;stroke:#2B6000;stroke-width:3;stroke-linecap:round;stroke-miterlimit:10;}
	.st7{fill:#90C400;stroke:#2B6000;stroke-linecap:round;stroke-linejoin:round;stroke-miterlimit:10;}
	.st8{fill:#68AB19;}
	.st9{fill:#074004;}
	.st10{fill:#94466D;stroke:#311538;stroke-width:3;stroke-miterlimit:10;}
	.st11{fill:#00FFFF;}
	.st12{fill:none;stroke:#311538;stroke-linecap:round;stroke-miterlimit:10;}
	.st13{fill:#F08A06;stroke:#DA5C00;stroke-width:3;stroke-miterlimit:10;}
	.st14{fill:none;stroke:#DA5C00;stroke-linecap:round;stroke-miterlimit:10;}
	.st15{fill:none;stroke:#FFFFFF;stroke-linecap:round;stroke-miterlimit:10;}
	.st16{fill:#FFFFFF;}
	.st17{fill:none;stroke:#074004;stroke-width:3;stroke-miterlimit:10;}
	.st18{fill:none;stroke:#A9C500;stroke-width:3;stroke-linecap:round;stroke-linejoin:round;stroke-miterlimit:10;}
	.st19{fill:#F08A06;}
	.st20{fill:#DA5C00;}
	.st21{fill:#94466D;}
	.st22{fill:#311538;}
	.st23{fill:#8DA54A;}
	.st24{fill:#3B6014;}
	.st25{fill:none;stroke:#F08A06;stroke-linecap:round;stroke-miterlimit:10;}
	.st26{display:none;fill:none;stroke:#FFFFFF;stroke-linecap:round;stroke-miterlimit:10;}
	.st27{display:none;fill:#FFFFFF;}
	.st28{fill:none;stroke:#311538;stroke-width:3;stroke-miterlimit:10;}
	.st29{fill:#105409;}
	.st30{fill:#F5DABD;stroke:#B9722E;stroke-width:3;stroke-miterlimit:10;}
	.st31{fill:none;stroke:#B9722E;stroke-linecap:round;stroke-miterlimit:10;}
	.st32{fill:#3A7800;}
	.st33{fill:#A9C500;stroke:#2B6000;stroke-width:3;stroke-miterlimit:10;}
	.st34{fill:#A9C500;stroke:#2B6000;stroke-width:3;stroke-linecap:round;stroke-miterlimit:10;}
	.st35{fill:#A9C500;stroke:#2B6000;stroke-linecap:round;stroke-linejoin:round;stroke-miterlimit:10;}
	.st36{fill:#A9C500;stroke:#2B6000;stroke-width:9.5263;stroke-miterlimit:10;}
	.st37{fill:none;stroke:#B9722E;stroke-width:0.9785;stroke-linecap:round;stroke-miterlimit:10;}
	.st38{fill:#F5DABD;}
	.st39{fill:#B9722E;}
	.st40{fill:#E5C074;}
	.st41{fill:#E5C074;stroke:#52340E;stroke-width:3;stroke-miterlimit:10;}
	.st42{fill:none;stroke:#A0CB39;stroke-width:4;stroke-miterlimit:10;}
	.st43{fill:none;stroke:#52340E;stroke-linecap:round;stroke-linejoin:round;stroke-miterlimit:10;}
	.st44{fill:none;stroke:#52340E;stroke-linejoin:round;stroke-miterlimit:10;}
	.st45{fill:#52340E;}
	.st46{fill:#A0CB39;stroke:#4B823B;stroke-linejoin:round;stroke-miterlimit:10;}
	.st47{fill:none;stroke:#2B6000;stroke-linecap:round;stroke-linejoin:round;stroke-miterlimit:10;}
</style>
<polygon class="st0" points="99.1,192 109.7,192 113.9,147.3 128.3,95 143.1,91.2 155.1,65 129.3,66.1 104,109.6 99.1,84 119,72.9 
	121.8,46.1 93.9,56.4 94.9,33 68.1,5.9 59.5,37.9 70.8,60.6 45,70.2 59.4,87.7 83,89.2 91.8,132.8 "/>
<path class="st29" d="M116.2,185.4c0-44,12.2-77.4,16.2-86.6l1.4-0.2c8.5-1,16.1-6.4,19.6-14.3l5.7-12.6c1.4-3,1-6.6-1-9.2
	c-1.8-2.4-4.5-3.8-7.5-3.8c-0.3,0-0.7,0-1,0.1l-13.8,1.5c-4,0.4-7.8,1.9-11,4.1l2.4-10.8c0.2-0.7,0.3-1.5,0.3-2.3c0-5-4-9.1-9-9.3
	c-0.1,0-0.1,0-0.2,0c-0.2,0-0.3,0-0.5,0c-0.9,0-1.8,0.2-2.6,0.5l-13,4.2c-0.9,0.3-1.8,0.6-2.7,1l0-0.2c2.3-10.9-1.3-22.3-9.4-29.8
	L75.3,4c-1.7-1.6-4-2.5-6.3-2.5c-0.9,0-1.9,0.1-2.8,0.4c-3.2,1-5.6,3.6-6.3,6.9l-4.3,19.8c-2.3,10.9,1.3,22.3,9.4,29.8l0.5,0.5
	c-2,0.1-3.9,0.5-5.8,1l-13.2,4.1c-3.2,1-5.6,3.6-6.3,6.8s0.4,6.6,2.8,8.9l10.3,9.3c4.5,4.1,10.4,6.4,16.5,6.4c2.4,0,4.9-0.4,7.2-1.1
	l2.8-0.9c9.5,45.6,11.6,92,11.6,92.5c0.3,7.7,6.6,12.5,12.3,12.5C103.8,198.5,116.2,199.1,116.2,185.4z M100.8,185.6
	c-0.1-0.7-2.4-52.8-13.4-101.5c-0.2-1.1-1.2-1.8-2.2-1.8c-0.2,0-0.4,0-0.7,0.1l-10.1,3.1c-1.5,0.5-3,0.7-4.5,0.7
	c-1.6,0-3.2-0.3-4.7-0.7l3.8-2.3c0.7-0.4,1-1.2,0.7-1.9c-0.4-0.9-1.4-1.2-2.2-0.8l-4.9,3c-0.5,0.3-1,0.3-1.5,0
	c-0.5-0.4-1-0.8-1.5-1.2l-1-0.9l3.6-1.1c0.7-0.2,1.3-0.9,1.1-1.7c-0.1-1-1.1-1.6-2-1.3l-4.4,1.4c-0.6,0.2-1.4,0-1.9-0.4l-5.8-5.3
	l7.5-2.3c0.6-0.2,1.4,0,1.9,0.4l3.4,3.1c0.3,0.3,0.7,0.4,1,0.4c0.4,0,0.9-0.2,1.2-0.6c0.5-0.6,0.4-1.6-0.2-2.2l-2.8-2.5l1.2-0.4
	c0.6-0.2,1.2-0.3,1.9-0.4c0.5-0.1,1,0.2,1.3,0.6l3.2,4.8c0.3,0.4,0.8,0.7,1.3,0.7c0.3,0,0.7-0.1,1-0.4c0.6-0.5,0.7-1.5,0.2-2.1
	L69,68.3c3,0.4,6,1.7,8.3,3.8l6.5,5.9c0.2,0.2,0.5,0.3,0.7,0.3c0.7,0,1.3-0.6,1.1-1.4c-1.4-5.5-2.9-11-4.5-16.2l-9.8-9
	c-3.6-3.4-6-7.8-6.8-12.6l6.3,3.5c0.2,0.1,0.5,0.2,0.7,0.2c0.6,0,1.2-0.3,1.4-0.9c0.3-0.7-0.1-1.6-0.8-2l-6.1-3.3
	c-1.2-0.7-2-2-1.9-3.4c0.1-0.8,0.2-1.7,0.4-2.5l0.6-2.7l4.5,4.1c0.3,0.3,0.7,0.4,1,0.4c0.5,0,1.1-0.3,1.4-0.8
	c0.3-0.6,0.1-1.4-0.4-1.9l-4.2-3.9c-0.9-0.9-1.4-2.2-1.1-3.4L69,10.8l8.7,8.1c0.9,0.9,1.3,2.2,1.1,3.4l-1.2,5.6
	c-0.2,0.8,0.3,1.7,1.2,1.9c0.1,0,0.2,0,0.3,0c0.7,0,1.3-0.5,1.5-1.2l1.3-5.9l2,1.9c0.6,0.6,1.2,1.2,1.7,1.8c0.9,1.1,1.1,2.6,0.4,3.9
	l-3,6.2c-0.4,0.7-0.2,1.7,0.5,2.1c0.2,0.1,0.5,0.2,0.8,0.2c0.6,0,1.1-0.3,1.4-0.9l3.2-6.5c2,4.4,2.7,9.3,1.6,14.2l-3.1,14.3
	c1.3,4.5,2.6,9,3.8,13.6c0.1,0.5,0.6,0.8,1.1,0.8c0.5,0,0.9-0.3,1-0.8l1.5-6.8c0.7-3.1,2.3-5.8,4.6-7.9l0.1,4.5
	c0,0.8,0.7,1.5,1.5,1.5h0c0.8,0,1.5-0.7,1.5-1.5l-0.1-4.9c0-1.1,0.6-2.1,1.6-2.5c0.3-0.1,0.6-0.2,0.9-0.3l1.2-0.4l-0.8,3.7
	c-0.2,0.8,0.3,1.8,1.2,1.9c0.1,0,0.2,0,0.3,0c0.7,0,1.3-0.5,1.5-1.2l0.9-4c0.2-0.9,0.9-1.7,1.8-2l7.1-2.3l-1.6,7.3
	c-0.2,0.9-0.9,1.7-1.8,2l-3.9,1.2c-0.7,0.2-1.3,1-1.1,1.7c0.1,0.8,0.8,1.3,1.5,1.3c0.2,0,0.3,0,0.5-0.1l3.7-1.2l-0.3,1.3
	c-0.1,0.3-0.1,0.6-0.2,0.9c-0.3,1-1.3,1.8-2.4,1.8l-4.8,0.3c-0.8,0.1-1.5,0.8-1.4,1.6c0.1,0.8,0.7,1.4,1.5,1.4c0,0,0.1,0,0.1,0
	l4.5-0.3c-1.9,2.5-4.4,4.3-7.5,5.3l-10.2,3.3c-1.1,0.4-1.8,1.5-1.5,2.6c4.8,21,8,42.6,10.1,60.5c0,0.4,0.6,0.4,0.7,0
	c4.5-28.1,12.4-46.2,14.9-51.4h0l5.7-12.6c1.3-2.9,3.5-5.3,6.1-6.8l-0.8,4.4c-0.2,0.8,0.4,1.6,1.2,1.8c0.1,0,0.2,0,0.3,0
	c0.7,0,1.4-0.5,1.5-1.3l0.8-4.5c0.2-1.3,1.2-2.2,2.5-2.4c0.2,0,0.4-0.1,0.6-0.1l1.3-0.1l-1.5,3.4c-0.3,0.7-0.1,1.6,0.6,2
	c0.2,0.1,0.5,0.2,0.8,0.2c0.6,0,1.2-0.3,1.4-0.9l1.6-3.6c0.4-1,1.3-1.6,2.4-1.7l7.2-0.8l-3,6.6c-0.4,1-1.3,1.6-2.4,1.7l-3.8,0.4
	c-0.8,0.1-1.5,0.8-1.5,1.6c0,0.9,0.7,1.5,1.5,1.5c0.1,0,0.1,0,0.2,0l3.8-0.4l-0.5,1.2c-0.1,0.2-0.2,0.3-0.2,0.5
	c-0.6,1.1-1.8,1.8-3.1,1.6l-4.6-0.6c-0.9-0.1-1.8,0.6-1.7,1.6c0,0.8,0.7,1.4,1.4,1.5l4.4,0.6c-2.3,2-5.2,3.4-8.4,3.7l-4.6,0.5
	c0,0-2.1,0.2-3,2.3c-0.2,0.4-18.2,36.6-18.2,93.2c0,1.7-1.3,3.5-3,3.5C103.9,188.9,101.1,189.2,100.8,185.6z M112.5,82.7l-2,4.4
	c-0.9,1.9-2.5,5.5-4.5,10.7c-0.8-4-1.5-7.9-2.4-11.7l4.1-1.3C109.5,84.2,111.1,83.5,112.5,82.7z"/>
</svg>
