<?xml version="1.0" encoding="utf-8"?>
<!-- Generator: Adobe Illustrator 20.0.0, SVG Export Plug-In . SVG Version: 6.00 Build 0)  -->
<svg version="1.1" id="Layer_1" xmlns="http://www.w3.org/2000/svg" xmlns:xlink="http://www.w3.org/1999/xlink" x="0px" y="0px"
	 viewBox="0 0 500 500" style="enable-background:new 0 0 500 500;" xml:space="preserve">
<style type="text/css">
	.st0{fill:#6C371E;}
	.st1{fill:#DDE5D8;stroke:#6C371E;stroke-miterlimit:10;}
	.st2{fill:#FFF3CD;}
	.st3{fill:#46312E;}
	.st4{fill:#D2C3A9;stroke:#46312E;stroke-linejoin:round;stroke-miterlimit:10;}
	.st5{fill:#F6E8C7;stroke:#46312E;stroke-linejoin:round;stroke-miterlimit:10;}
	.st6{fill:#F5E9D8;}
	.st7{fill:#54331D;}
	.st8{fill:#F2EAD7;}
	.st9{fill:#F7F3E7;}
	.st10{fill:#5C3A30;}
	.st11{fill:#EEEBDB;}
	.st12{fill:#E1C7B2;}
	.st13{opacity:0.5;fill:none;stroke:#D2A284;stroke-width:3;stroke-miterlimit:10;}
	.st14{fill:#F2CFAA;}
	.st15{fill:#EDB283;}
	.st16{fill:#DFC8B2;}
	.st17{opacity:0.5;fill:none;stroke:#B08269;stroke-width:3;stroke-miterlimit:10;}
	.st18{fill:#00FFFF;}
	.st19{opacity:0.9;fill:none;stroke:#DB7745;stroke-width:3;stroke-miterlimit:10;}
	.st20{opacity:0.5;fill:none;stroke:#DB7745;stroke-width:3;stroke-miterlimit:10;}
	.st21{opacity:0.3;fill:none;stroke:#DB7745;stroke-width:3;stroke-miterlimit:10;}
	.st22{opacity:0.7;fill:none;stroke:#DB7745;stroke-width:3;stroke-miterlimit:10;}
	.st23{fill:#F4E3B9;}
	.st24{fill:#EECA92;}
	.st25{fill:#D4AA76;}
	.st26{fill:#B68A56;}
	.st27{fill:#946541;}
	.st28{fill:#E2AC88;}
	.st29{fill:#B08269;}
	.st30{fill:none;stroke:#B98A71;stroke-width:3;stroke-miterlimit:10;}
	.st31{fill:none;stroke:#C39377;stroke-width:3;stroke-miterlimit:10;}
	.st32{fill:none;stroke:#CD9B7E;stroke-width:3;stroke-miterlimit:10;}
	.st33{fill:none;stroke:#D7A484;stroke-width:3;stroke-miterlimit:10;}
	.st34{fill:none;stroke:#7C5B4F;stroke-miterlimit:10;}
	.st35{fill:#7C5B4F;}
	.st36{fill:#C6A58F;}
	.st37{fill:#B98A71;}
	.st38{fill:#C39377;}
	.st39{fill:#CD9B7E;}
	.st40{fill:#D7A484;}
	.st41{fill:#FFEFDC;stroke:#5E3E27;stroke-miterlimit:10;}
	.st42{opacity:0.2;fill:none;stroke:#D0A672;stroke-width:3;stroke-miterlimit:10;}
	.st43{opacity:0.4;fill:none;stroke:#D0A672;stroke-width:3;stroke-miterlimit:10;}
	.st44{opacity:0.6;fill:none;stroke:#D0A672;stroke-width:3;stroke-miterlimit:10;}
	.st45{fill:#5E3E27;}
	.st46{fill:none;stroke:#5E3E27;stroke-miterlimit:10;}
	.st47{fill:#FFEFDC;}
	.st48{fill:#F5E0C8;}
	.st49{fill:#EBD2B4;}
	.st50{fill:#E2C39E;}
	.st51{opacity:0.6;fill:none;stroke:#DB7745;stroke-width:3;stroke-miterlimit:10;}
	.st52{fill:none;stroke:#863B2B;stroke-linecap:round;stroke-miterlimit:10;}
	.st53{fill:#863B2B;}
	.st54{fill:none;stroke:#863B2B;stroke-miterlimit:10;}
	.st55{fill:#DB7D51;}
	.st56{fill:#E29468;}
	.st57{fill:#E6A074;}
	.st58{fill:#DE895D;}
	.st59{fill:#E29A71;}
	.st60{fill:#D2A284;}
	.st61{opacity:0.7;fill:none;stroke:#E1C7B2;stroke-width:3;stroke-miterlimit:10;}
	.st62{opacity:0.9;fill:none;stroke:#CA9464;stroke-width:3;stroke-miterlimit:10;}
	.st63{opacity:0.6;fill:none;stroke:#CA9464;stroke-width:3;stroke-miterlimit:10;}
	.st64{opacity:0.3;fill:none;stroke:#CA9464;stroke-width:3;stroke-miterlimit:10;}
	.st65{fill:#5F362D;}
	.st66{fill:#D9B49D;}
	.st67{fill:#DCBCA5;}
	.st68{fill:#CA956A;}
	.st69{fill:#CC9A74;}
	.st70{fill:#CF9E7D;}
	.st71{clip-path:url(#SVGID_2_);}
	.st72{fill:#FFC841;}
	.st73{fill:#C56C00;}
	.st74{fill:#FFC841;stroke:#C56C00;stroke-linecap:round;stroke-linejoin:round;stroke-miterlimit:10;}
	.st75{fill:#FFC841;stroke:#C56C00;stroke-miterlimit:10;}
	.st76{fill:none;stroke:#FFE197;stroke-linecap:round;stroke-miterlimit:10;}
	.st77{fill:none;stroke:#C56C00;stroke-linecap:round;stroke-miterlimit:10;}
	.st78{fill:#F6DB90;}
	.st79{opacity:0.3;fill:none;stroke:#C56C00;stroke-width:3;stroke-linecap:round;stroke-linejoin:round;stroke-miterlimit:10;}
	.st80{fill:#FFE197;}
	.st81{fill:#ECAB3D;}
	.st82{opacity:0.5;}
	.st83{fill:none;stroke:#94734A;stroke-linecap:round;stroke-miterlimit:10;}
	.st84{fill:#B2895B;}
	.st85{opacity:0.7;fill:none;stroke:#745432;stroke-width:3;stroke-miterlimit:10;}
	.st86{fill:#3F2F21;}
	.st87{fill:none;stroke:#3F2F21;stroke-miterlimit:10;}
	.st88{fill:#745432;}
	.st89{fill:#94734A;}
	.st90{fill:#866441;}
	.st91{fill:#F7F3E7;stroke:#5C3A30;stroke-miterlimit:10;}
	.st92{fill:#978578;stroke:#5C3A30;stroke-miterlimit:10;}
	.st93{fill:none;stroke:#986A3D;stroke-width:3.1036;stroke-miterlimit:10;}
	.st94{fill:none;stroke:#AE8650;stroke-width:3;stroke-miterlimit:10;}
	.st95{fill:none;stroke:#E7C382;stroke-width:3;stroke-miterlimit:10;}
	.st96{fill:none;stroke:#F9E1B8;stroke-width:3;stroke-miterlimit:10;}
	.st97{fill:none;stroke:#665A52;stroke-miterlimit:10;}
	.st98{fill:none;stroke:#5C3A30;stroke-miterlimit:10;}
	.st99{opacity:0.8;fill:none;stroke:#F9E1B8;stroke-width:3;stroke-miterlimit:10;}
	.st100{opacity:0.6;fill:none;stroke:#F9E1B8;stroke-width:3;stroke-miterlimit:10;}
	.st101{opacity:0.4;fill:none;stroke:#F9E1B8;stroke-width:3;stroke-miterlimit:10;}
	.st102{opacity:0.2;fill:none;stroke:#F9E1B8;stroke-width:3;stroke-miterlimit:10;}
	.st103{fill:#978578;}
	.st104{fill:#7F7169;}
	.st105{fill:#EDC995;}
	.st106{fill:#EECFA3;}
	.st107{fill:#EFD6B0;}
	.st108{fill:#EFDCBD;}
	.st109{fill:#F1E4CA;}
	.st110{fill:#F8E0BA;}
	.st111{fill:#998276;stroke:#54331D;stroke-linecap:round;stroke-linejoin:round;stroke-miterlimit:10;}
	.st112{fill:#F5E9D8;stroke:#54331D;stroke-linecap:round;stroke-linejoin:round;stroke-miterlimit:10;}
	.st113{fill:none;stroke:#D9C2AB;stroke-linecap:round;stroke-linejoin:round;stroke-miterlimit:10;}
	.st114{fill:#C3A693;stroke:#54331D;stroke-linecap:round;stroke-linejoin:round;stroke-miterlimit:10;}
	.st115{fill:#C3A693;stroke:#54331D;stroke-linejoin:round;stroke-miterlimit:10;}
	.st116{fill:#AF9F88;stroke:#3F2F21;stroke-width:1.0635;stroke-linejoin:round;stroke-miterlimit:10;}
	.st117{fill:#C3A693;stroke:#54331D;stroke-width:1.0635;stroke-linejoin:round;stroke-miterlimit:10;}
	.st118{opacity:0.4;fill:none;stroke:#998276;stroke-width:3;stroke-linecap:round;stroke-linejoin:round;stroke-miterlimit:10;}
	.st119{fill:#998276;}
	.st120{fill:#D9C2AB;}
	.st121{fill:#CFC0B2;}
	.st122{fill:#BEA897;}
	.st123{fill:#C3A693;}
	.st124{fill:#998276;stroke:#54331D;stroke-width:15.94;stroke-linecap:round;stroke-linejoin:round;stroke-miterlimit:10;}
	.st125{fill:#F5E9D8;stroke:#54331D;stroke-width:15.94;stroke-linecap:round;stroke-linejoin:round;stroke-miterlimit:10;}
	.st126{fill:none;stroke:#D9C2AB;stroke-width:15.94;stroke-linecap:round;stroke-linejoin:round;stroke-miterlimit:10;}
	.st127{fill:#AF9F88;stroke:#3F2F21;stroke-width:16.9526;stroke-linejoin:round;stroke-miterlimit:10;}
	
		.st128{opacity:0.4;fill:none;stroke:#998276;stroke-width:47.82;stroke-linecap:round;stroke-linejoin:round;stroke-miterlimit:10;}
	.st129{fill:#C3A693;stroke:#54331D;stroke-width:15.94;stroke-linejoin:round;stroke-miterlimit:10;}
	.st130{fill:#C3A693;stroke:#54331D;stroke-width:15.94;stroke-linecap:round;stroke-linejoin:round;stroke-miterlimit:10;}
	.st131{fill:#C3A693;stroke:#54331D;stroke-width:16.9526;stroke-linejoin:round;stroke-miterlimit:10;}
	.st132{fill:#D4A38C;}
	.st133{fill:#C45923;}
	.st134{fill:#E5825C;}
	.st135{fill:#C8947C;}
	.st136{fill:#CC7953;}
	.st137{fill:#BE8667;}
	.st138{fill:#992B11;}
	.st139{fill:#EAE9E2;}
	.st140{fill:#414B67;}
	.st141{fill:#CCCBC6;}
	.st142{fill:#ADB2BA;}
	.st143{fill:#9BA0AA;}
	.st144{fill:#52607F;}
	.st145{fill:#14131B;}
	.st146{fill:#FBEEC6;}
	.st147{fill:#B68C28;}
	.st148{fill:#DEBB7D;}
	.st149{fill:#C8A97D;}
	.st150{fill:#BA946D;}
	.st151{fill:#F3D705;}
	.st152{fill:#7F4308;}
	.st153{clip-path:url(#SVGID_4_);}
	.st154{fill:#FFF3CD;stroke:#46312E;stroke-linejoin:round;stroke-miterlimit:10;}
	.st155{opacity:0.6;fill:none;stroke:#46312E;stroke-width:2;stroke-linejoin:round;stroke-miterlimit:10;}
	.st156{opacity:0.2;fill:none;stroke:#46312E;stroke-width:2;stroke-linejoin:round;stroke-miterlimit:10;}
	.st157{opacity:0.1;fill:none;stroke:#46312E;stroke-width:2;stroke-linejoin:round;stroke-miterlimit:10;}
	.st158{opacity:0.5;fill:none;stroke:#46312E;stroke-width:2;stroke-linejoin:round;stroke-miterlimit:10;}
	.st159{opacity:0.9;fill:none;stroke:#7F4F2E;stroke-width:3;stroke-linejoin:round;stroke-miterlimit:10;}
	.st160{opacity:0.7;fill:none;stroke:#996039;stroke-width:3;stroke-linejoin:round;stroke-miterlimit:10;}
	.st161{opacity:0.5;fill:none;stroke:#B27044;stroke-width:3;stroke-linejoin:round;stroke-miterlimit:10;}
	.st162{opacity:0.3;fill:none;stroke:#CC7C50;stroke-width:3;stroke-linejoin:round;stroke-miterlimit:10;}
	.st163{opacity:0.1;fill:none;stroke:#E5895C;stroke-width:3;stroke-linejoin:round;stroke-miterlimit:10;}
	.st164{fill:#F6E8C7;}
	.st165{fill:#8C7A6C;}
	.st166{fill:#D2C3A9;}
	.st167{fill:#E3D6B9;}
	.st168{fill:#9E8D7C;}
	.st169{fill:#8B5F41;}
	.st170{fill:#B78C68;}
	.st171{fill:#D7B18B;}
	.st172{fill:#EFCEAA;}
	.st173{fill:#FBE7C4;}
	.st174{clip-path:url(#SVGID_6_);}
	.st175{clip-path:url(#SVGID_8_);}
	.st176{clip-path:url(#SVGID_10_);}
	.st177{clip-path:url(#SVGID_12_);}
	.st178{fill:#ECCB95;}
	.st179{opacity:0.9;fill:none;stroke:#BA7741;stroke-width:3;stroke-miterlimit:10;}
	.st180{opacity:0.6;fill:none;stroke:#BA7741;stroke-width:3;stroke-miterlimit:10;}
	.st181{opacity:0.3;fill:none;stroke:#BA7741;stroke-width:3;stroke-miterlimit:10;}
	.st182{opacity:0.1;fill:none;stroke:#BA7741;stroke-width:3;stroke-miterlimit:10;}
	.st183{opacity:0.4;fill:none;stroke:#6C371E;stroke-width:3;stroke-miterlimit:10;}
	.st184{opacity:0.9;fill:none;stroke:#BA7741;stroke-width:2.0286;stroke-miterlimit:10;}
	.st185{opacity:0.6;fill:none;stroke:#BA7741;stroke-width:2.0286;stroke-miterlimit:10;}
	.st186{opacity:0.3;fill:none;stroke:#BA7741;stroke-width:2.0286;stroke-miterlimit:10;}
	.st187{opacity:0.1;fill:none;stroke:#BA7741;stroke-width:2.0286;stroke-miterlimit:10;}
	.st188{fill:#DDE5D8;}
	.st189{fill:#BA7741;}
	.st190{opacity:0.7;fill:none;stroke:#6C371E;stroke-width:1.5717;stroke-miterlimit:10;}
	.st191{opacity:0.5;fill:none;stroke:#6C371E;stroke-width:1.5717;stroke-miterlimit:10;}
	.st192{opacity:0.3;fill:none;stroke:#6C371E;stroke-width:1.5717;stroke-miterlimit:10;}
	.st193{opacity:0.1;fill:none;stroke:#6C371E;stroke-width:1.5717;stroke-miterlimit:10;}
	.st194{fill:#DDE5D8;stroke:#6C371E;stroke-width:0.8389;stroke-miterlimit:10;}
	.st195{fill:#CC7E4A;}
	.st196{opacity:0.7;fill:none;stroke:#6C371E;stroke-width:1.2504;stroke-miterlimit:10;}
	.st197{opacity:0.5;fill:none;stroke:#6C371E;stroke-width:1.2504;stroke-miterlimit:10;}
	.st198{opacity:0.3;fill:none;stroke:#6C371E;stroke-width:1.2504;stroke-miterlimit:10;}
	.st199{opacity:0.1;fill:none;stroke:#6C371E;stroke-width:1.2504;stroke-miterlimit:10;}
	.st200{fill:#DDE5D8;stroke:#6C371E;stroke-linejoin:round;stroke-miterlimit:10;}
	.st201{opacity:0.7;fill:none;stroke:#6C371E;stroke-width:2.0975;stroke-miterlimit:10;}
	.st202{opacity:0.5;fill:none;stroke:#6C371E;stroke-width:2.0975;stroke-miterlimit:10;}
	.st203{opacity:0.3;fill:none;stroke:#6C371E;stroke-width:2.0975;stroke-miterlimit:10;}
	.st204{opacity:0.1;fill:none;stroke:#6C371E;stroke-width:2.0975;stroke-miterlimit:10;}
	.st205{fill:#AF9F8F;}
	.st206{fill:#BE7F4E;}
	.st207{fill:#CD9867;}
	.st208{fill:#DCB17F;}
	.st209{fill:#E6C290;}
	.st210{fill:#A2643A;}
	.st211{fill:#B17142;}
	.st212{fill:#824A2D;}
	.st213{fill:#925733;}
	.st214{fill:#884C2E;}
	.st215{fill:#9B5A38;}
	.st216{fill:#AE6942;}
	.st217{fill:#C0774B;}
	.st218{fill:#916345;}
	.st219{fill:#AB815D;}
	.st220{fill:#C59F74;}
	.st221{fill:#DEBB8C;}
</style>
<g>
	<path class="st188" d="M243,447.3c0,0,11,18.5,28.1,20.7c5.8,0.7,10.8-0.1,14.9-1.7c9-3.5,14.3-12.9,13.5-22.5
		c-2-22.7-2.8-78.5,19.1-149.5c11.3-36.6,20-88.2,12.7-144.9c-4.1-31.5-51.1-27.6-50.4,4.2c1.1,49.7-3.1,98.8-13.4,136.6
		C243.7,377.7,243,447.3,243,447.3z"/>
	<path class="st205" d="M328.6,192.5c-6.8,0.5-13.8,0.6-20.8,0.5c-9-0.2-18.1-1-27.2-2.2l1.3,25.9c8.5,1,16.9,1.6,25.3,1.8
		c6.3,0.1,12.6,0.1,18.9-0.3c1.4-0.1,2.9-0.2,4.3-0.3L328.6,192.5z"/>
	<path class="st178" d="M327.2,192.3c-6,0.3-12.1,0.4-18.2,0.3c-62-1.4-106.5-25.5-108.3-26.5l-0.9-0.5l-0.6-0.9
		c-9.3-13.9-14-28.8-14-44.4c0-24.9,12.3-48.5,34.6-66.4c21.8-17.6,51.3-28.3,82.9-29.9c3-0.2,6-0.2,8.9-0.2
		c33.5,0.1,65,10,88.8,28.1c24.1,18.3,37.3,42.8,37.3,68.9c0,16.2-4.9,31.6-14.2,44.5l-0.6,0.8l-0.9,0.5
		C392.5,181.9,360.6,190.6,327.2,192.3C327.2,192.3,327.2,192.3,327.2,192.3z"/>
	<path class="st206" d="M405.3,55.9c-1.6-1.4-3.3-2.7-5-4c-15.5-11.8-34.4-20.2-55-24.6c-21-1.5-41.9-1.8-62.5-1.1
		c-24,4.2-45.9,13.7-63.1,27.6c-0.1,0.1-0.3,0.2-0.4,0.3L220,58c59.6-9.7,121.7-9,184.5,2.3L405.3,55.9z"/>
	<path class="st207" d="M428.3,83.8c-4.3-8.1-10.1-15.7-17.2-22.7C344,48.8,278,48,214.2,58.6c-7.3,6.7-13.3,14.1-17.9,22l1.5,7
		c73.6-15.4,150.6-14.5,229.1,2.6L428.3,83.8z"/>
	<path class="st208" d="M434.2,117.3l2.3-9.8c-1-5.8-2.7-11.4-5-16.9C349.7,72.9,269.3,72,192.3,88.2c-2.5,5.4-4.4,11.1-5.6,16.8
		l2.3,9.9C267.6,97.1,350.1,97.9,434.2,117.3z"/>
	<path class="st209" d="M434.2,142.8c-84.1-19.5-166.6-20.3-245.2-2.3l-5.7-24.8c82.3-18.8,168.7-18,256.6,2.4L434.2,142.8z"/>
	<path class="st188" d="M299,448c-119.4-148.8-92.9-305-92.9-305l-48.7,14.8c0,0-26.5,156.2,92.9,305L299,448z"/>
	<path class="st205" d="M191.9,225.6c-5.9,0.3-11.9,0.3-17.9,0c-7.3-0.4-14.8-1.2-22.2-2.5l4.3-25.1c6.4,1.1,12.8,1.8,19.1,2.1
		c9.6,0.5,19.1,0,28.4-1.3l3.7,25.2C202.3,224.8,197.1,225.3,191.9,225.6z"/>
	<path class="st178" d="M193,196c-5.6,0.3-11.3,0.3-17,0c-39.9-2-68.1-17.3-69.3-17.9l-0.9-0.5l-0.6-0.9c-6.4-9.5-9.7-20.1-9.7-30.8
		c0-17.2,8.5-33.6,23.9-46c15-12.1,35.2-19.4,56.8-20.5c2-0.1,4.1-0.2,6.1-0.2c47.8,0.1,86.7,30.1,86.6,67c0,11.3-3.4,21.9-9.8,30.9
		l-0.6,0.8l-0.9,0.5C237.5,188.8,215.7,194.8,193,196C193,196,193,196,193,196z"/>
	<path class="st206" d="M246,100.8c-9-7.5-20.2-13.5-32.8-17.2c-19.8-1.8-39.4-2.1-58.8-0.9c-13.1,3.4-25,9.1-34.7,16.9l0.7,4.2
		c40.3-6.6,82.3-6.1,124.8,1.5L246,100.8z"/>
	<path class="st207" d="M261.7,119.3c-2.6-4.6-6-9-9.8-13c-46.9-8.8-93.2-9.4-137.8-1.6c-4,3.9-7.3,8.1-10.1,12.5l1.4,6.7
		c49.7-10.4,101.9-9.8,154.9,1.7L261.7,119.3z"/>
	<path class="st208" d="M265.3,143.9c-56.9-13.2-112.6-13.7-165.8-1.6l-3.8-16.8c55.7-12.7,114.1-12.2,173.5,1.6L265.3,143.9z"/>
	<path class="st209" d="M265.2,161.1c-56.9-13.2-112.7-13.7-165.8-1.6l-3.8-16.8c55.7-12.7,114.1-12.2,173.5,1.6L265.2,161.1z"/>
	
		<ellipse transform="matrix(0.4239 -0.9057 0.9057 0.4239 -21.5481 214.9537)" class="st188" cx="158.2" cy="124.4" rx="4.2" ry="4.2"/>
	
		<ellipse transform="matrix(0.9502 -0.3115 0.3115 0.9502 -25.3406 69.8932)" class="st188" cx="206.1" cy="114.3" rx="4.2" ry="4.2"/>
	
		<ellipse transform="matrix(0.9502 -0.3115 0.3115 0.9502 -22.1297 61.4454)" class="st188" cx="181.3" cy="100" rx="4.2" ry="4.2"/>
	
		<ellipse transform="matrix(0.4239 -0.9057 0.9057 0.4239 -1.5762 199.6307)" class="st188" cx="156.1" cy="101.1" rx="4.2" ry="4.2"/>
	
		<ellipse transform="matrix(0.4239 -0.9057 0.9057 0.4239 -24.7963 189.876)" class="st188" cx="136.9" cy="114.4" rx="4.2" ry="4.2"/>
	<path class="st188" d="M251,444.7c112.2-96.2,114.3-218.9,114.3-218.9l35,18.3c0,0-2.2,122.7-114.3,218.9L251,444.7z"/>
	<path class="st205" d="M381.7,286.6c-10.1,0.5-20,0-29.7-1.7l4.3-25.1c12.4,2.1,25.4,2,38.6-0.3l4.4,25.1
		C393.4,285.6,387.5,286.3,381.7,286.6z"/>
	<path class="st189" d="M382.4,264.7c-22.9,1.2-44.5-3.5-64.4-14l-0.9-0.5l-0.6-0.8c-5.1-7.1-7.7-15.6-7.7-24.5
		c0-27.6,27.9-50.6,63.4-52.5c1.6-0.1,3.2-0.1,4.8-0.1c18,0,34.9,5.4,47.7,15.1c13.1,10,20.4,23.4,20.3,37.7
		c0,8.2-2.5,16.4-7.3,23.8c-0.7,1.6-2.6,2.4-6,4c-2.4,1.1-6.2,2.7-11.1,4.3C412.1,260.1,398.4,263.8,382.4,264.7z"/>
	<path class="st210" d="M441.1,222.3c-41.1-9.5-84.3-9.3-128.4,0.8l-3-13c46.1-10.5,91.3-10.8,134.4-0.8L441.1,222.3z"/>
	<path class="st211" d="M441,235.7c-41.1-9.5-84.3-9.3-128.4,0.8l-3-13c46.1-10.5,91.3-10.8,134.4-0.8L441,235.7z"/>
	<path class="st212" d="M425.7,188.2c-0.3-0.2-0.6-0.5-0.9-0.7c-6.3-4.8-13.6-8.5-21.5-11.1c-17.9-1.4-36.1-1.2-54.5,0.7
		c-8.1,2.8-15.3,6.9-21.3,11.8l0.8,4.5c32.9-5.8,65.5-6.1,96.7-0.9L425.7,188.2z"/>
	<path class="st213" d="M437.9,201.4c-1.8-2.8-3.9-5.5-6.4-8c-35.5-6.5-72.4-6.2-109.9,0.9c-2.5,2.7-4.6,5.5-6.4,8.5l1.3,6.2
		c41.1-8.8,81.5-9.1,120-0.9L437.9,201.4z"/>
	
		<ellipse transform="matrix(0.4239 -0.9057 0.9057 0.4239 14.9453 453.0064)" class="st188" cx="363.6" cy="214.8" rx="4.2" ry="4.2"/>
	
		<ellipse transform="matrix(0.9502 -0.3115 0.3115 0.9502 -43.2649 138.3714)" class="st188" cx="411.5" cy="204.6" rx="4.2" ry="4.2"/>
	
		<ellipse transform="matrix(0.4239 -0.9057 0.9057 0.4239 34.9172 437.6833)" class="st188" cx="361.5" cy="191.4" rx="4.2" ry="4.2"/>
	
		<ellipse transform="matrix(0.4239 -0.9057 0.9057 0.4239 11.6972 427.9287)" class="st188" cx="342.2" cy="204.8" rx="4.2" ry="4.2"/>
	<path class="st188" d="M272.8,437.1C151.2,353.6,120,238.4,120,238.4l-22.4,17.2c0,0,27.5,115.4,152.8,198.8L272.8,437.1z"/>
	<path class="st205" d="M100.5,263.1l0.1,2.2c1.8,5.6,4.6,13.3,8.6,22.6c9.8-1,19.2-3.3,28.1-6.7c-4.4-8.9-7.8-16.8-10.4-23.3
		C118.6,261,109.8,262.7,100.5,263.1z"/>
	<path class="st195" d="M103.3,269.2c-20.6,1.1-35.6-3.9-36.2-4.1l-0.8-0.3l-0.6-0.6c-5-5.2-8.3-11.4-9.4-18
		c-2-11.2,1.8-22.7,10.7-32.3c8.7-9.4,21.2-15.9,35.3-18.4c2.9-0.5,5.8-0.8,8.7-1c26.5-1.4,48.4,12.4,52,32.8c1.2,7,0.3,14-2.7,20.3
		l-0.3,0.7l-0.6,0.5C143.3,261.2,124.4,268.1,103.3,269.2C103.3,269.2,103.3,269.2,103.3,269.2z"/>
	<path class="st214" d="M67.6,217.8c23.7-8.4,49.3-12.6,75.9-12.7l0-3.8c-5.3-3-11.4-5.1-18-6.2c-14.8,1.1-29.1,3.4-43,7
		c-5.9,3.1-11.1,7-15.3,11.7c-0.2,0.2-0.4,0.5-0.6,0.7L67.6,217.8z"/>
	<path class="st215" d="M149,205c-30.4-0.4-59.5,4.4-86.5,14.5c-1.6,2.3-2.9,4.7-3.9,7.2l2,4.9c29-11.7,60.7-17.1,94.2-15.8l0.2-5.1
		C153.2,208.6,151.2,206.7,149,205z"/>
	<path class="st216" d="M56.6,233c-0.2,1.1-0.4,2.2-0.6,3.3l3,7.1c30.9-13.1,64.8-18.9,100.7-17.1l0.4-7.9c-0.5-1-1-1.9-1.5-2.8
		C122.4,214.1,88.1,220,56.6,233z"/>
	<path class="st217" d="M161.7,236.8l0.5-10.6c-37.6-1.9-73,4.2-105.4,17.9l4.2,9.8C91.8,240.8,125.7,235,161.7,236.8z"/>
	
		<ellipse transform="matrix(0.6249 -0.7807 0.7807 0.6249 -116.8258 170.0968)" class="st188" cx="118.6" cy="206.6" rx="4.2" ry="4.2"/>
	<ellipse transform="matrix(0.99 -0.1407 0.1407 0.99 -28.9593 15.4002)" class="st188" cx="94.4" cy="212.5" rx="4.2" ry="4.2"/>
	<ellipse transform="matrix(0.99 -0.1407 0.1407 0.99 -31.737 13.7178)" class="st188" cx="81.1" cy="231.3" rx="4.2" ry="4.2"/>
	<path class="st188" d="M223.8,324c-8.3,0-16.5-0.5-24.5-1.4c4.8,38.6,16.4,82.4,39.7,128.6c4.6,9.1,13.9,15,24.1,15h0
		c16.2,0,26.5-16.9,19.5-31.5c-19.3-39.8-29.4-78.3-34.2-112.4C242.1,323,230,324,223.8,324z"/>
	<path class="st205" d="M233.4,352.9c-10.2,0.5-21.8,0.2-32.8-1.6l4.3-25.1c15.1,2.6,32.1,1.5,42.1-0.3l4.4,25.1
		C246.3,351.9,240.2,352.6,233.4,352.9z"/>
	<path class="st178" d="M234.1,331.8c-31.5,1.6-61.1-5.1-87.9-19.9l-0.7-0.4l-0.5-0.7c-6.3-9.2-9.5-20.2-9.3-31.6
		c0.4-17.2,9.1-33.5,24.5-45.8c15.1-12,35.4-19.2,57.1-20.4c2.8-0.1,5.7-0.2,8.6-0.1c23.5,0.5,45.6,8,62,21
		c16.7,13.3,25.7,30.7,25.3,49.1c-0.2,10.9-3.9,21.7-10.6,31.1l-0.5,0.7l-0.8,0.4C300.3,315.9,272.9,329.8,234.1,331.8z"/>
	<path class="st218" d="M290,235.6c-0.7-0.6-1.4-1.2-2.1-1.7c-10.7-8.5-23.8-14.6-38.1-18c-16.8-1.2-33.9-1.3-51.1-0.4
		c-14.5,3.2-27.8,9.3-38.5,17.8c-0.2,0.1-0.3,0.3-0.5,0.4l0.6,3.7c44.1-6.8,87.5-6.3,129,1.4L290,235.6z"/>
	<path class="st219" d="M305.8,254.3c-3-5.2-6.8-10.1-11.4-14.6c-45-8.7-91.8-9.2-139.5-1.6c-4.7,4.5-8.6,9.5-11.6,14.7l1,5.3
		c55.1-10.7,109-10,160.2,1.9L305.8,254.3z"/>
	<path class="st220" d="M140.4,258.4c-1.5,3.3-2.6,6.8-3.4,10.3l1.7,8.2c59.1-12.2,116.8-11.4,171.4,2.4l2.1-8.1
		c-0.7-3.6-1.8-7.1-3.2-10.5C255,247.9,198.3,247.1,140.4,258.4z"/>
	<path class="st221" d="M313.2,279.6c-56.7-14.2-116.3-15-177.4-2.6c0,0.7-0.1,1.4-0.1,2.2c0,1,0,2,0,3l2.6,12.5
		c59.1-12.2,116.8-11.4,171.4,2.4l3.5-14c0,0,0,0,0,0C313.3,281.9,313.3,280.7,313.2,279.6z"/>
	<path class="st0" d="M328.6,457.6c54.7-56.9,78.6-118.4,89-160.4c2.7-10.7,10.2-19.6,20.4-23.9c4.5-1.9,7.3-3.4,8-3.8
		c3.6-1.9,6.6-4.7,8.9-8.1c7.4-11,11.4-23.5,11.4-36.2c0-12.6-3.7-24.7-10.7-35.5c-6.5-10-7.6-22.5-3.3-33.6
		c4.3-11.1,6.5-23.1,6.6-35.4c0-16.9-4.3-33.2-12.7-48.4c-7.8-14.1-18.9-26.7-32.9-37.4C385.8,14.1,349.7,2.6,311.6,2.5
		c-3.4,0-6.7,0.1-10.1,0.3C258,5,219,22.2,193.6,49.2c-4.8,5.1-11.4,8.3-18.4,8.9l0,0c-26.1,1.4-50.6,10.3-69.1,25.2
		c-20.4,16.5-31.7,38.7-31.8,62.5c0,6.3,0.8,12.6,2.4,18.7c2,7.9-1.4,16.2-8.4,20.3c-6.6,3.9-12.5,8.6-17.5,14.1
		c-13.5,14.6-19.4,33.3-16.3,51.2c2,11,7.2,21.2,15.3,29.5c2.9,3,6.5,5.2,10.4,6.5v0c0.6,0.2,2.9,0.9,6.5,1.8
		c10,2.4,18.5,9.2,22.8,18.5c6.4,14,15.1,30.5,26.7,48.3c22.1,34,49.1,64.6,80.6,91.1c8.3,7,15,15.8,19.6,25.6
		c2.1,4.6,5.2,8.8,9,12.4c9.7,9.2,23.9,14.3,37.9,13.6c33.8-1.8,48.6-17.2,54.3-25.9C320.9,466.5,324.5,461.8,328.6,457.6z
		 M206.9,344c-0.9-4.7,2.9-9,7.7-8.7c6.5,0.4,13,0.4,19.7,0.1c1.2-0.1,2.3-0.1,3.4-0.2c4.6-0.3,8.8,2.8,9.7,7.4
		c6.3,32.6,16.7,64.1,31.3,94.1c2.7,5.6,2.4,12.1-0.9,17.3c-3.2,5.2-8.6,8.1-14.7,8.1c-8.6,0-16.4-4.9-20.3-12.7
		C225.6,415.4,213.6,380,206.9,344z M193.7,360.7c-0.2-0.3-0.4-0.6-0.6-1c-1.2-2.9-2.4-5.8-3.6-8.7c-1.9-4.8-3.7-9.6-5.5-14.4
		c-1-2.8,1.5-5.6,4.4-5c1.8,0.4,3.7,0.8,5.5,1.1c1.6,0.3,2.8,1.5,3.1,3.1c1.6,10.3,3.7,20.5,6.2,30.6c0.4,1.8-1.8,2.9-3,1.6
		C197.8,365.6,195.7,363.1,193.7,360.7z M156.9,313.4c-7-3.3-12.5-9.2-15-16.6c-1.9-5.6-2.8-11.5-2.7-17.6
		c0.7-33.6,35.1-60.5,78.3-62.7c2.7-0.1,5.5-0.2,8.3-0.1c47.1,1,84.6,30.8,83.9,66.5c0,1.2-0.1,2.3-0.2,3.5
		c-1.4,14.9-11.7,27.4-25.9,32.2c-11.7,4-29.1,8.6-49.7,9.6C211.1,329.5,184.2,326.4,156.9,313.4z M382.1,260.4
		c-15.6,0.8-33.6-1.1-52.1-8.7c-8.5-3.5-14.9-11-16.5-20.1c-0.4-2.2-0.6-4.4-0.6-6.7c0-25.6,26.3-46.5,59.4-48.3
		c1.5-0.1,3-0.1,4.6-0.1c35.3,0.1,63.9,21.8,63.8,48.6c0,0.1,0,0.2,0,0.2c-0.1,12.2-8,23-19.5,27.1
		C412.1,255.8,398.4,259.6,382.1,260.4z M286.3,432.9c-0.3-0.5-0.5-1.1-0.8-1.6c-2.7-5.7-1.8-12.5,2.4-17.2
		c36.1-40.9,55.7-82.8,66.2-113.6c2.8-8.3,5.1-16.2,7-23.4c1.3-4.8,5.7-8.2,10.7-8.1c3.5,0.1,7.1,0.1,10.7-0.1
		c0.8,0,1.5-0.1,2.3-0.1c4.3-0.3,7.8,3.6,6.9,7.9c-2.2,11.1-5.6,24.5-10.6,39.4c-12,35.2-36.2,85.3-84.2,131.2
		c-2.9,2.8-7.8,0.8-7.9-3.2C289,440.3,288.1,436.5,286.3,432.9z M306.8,320.9c-5.8,24.2-9.3,47.1-10.9,65.6
		c-0.3,3.5-1.6,6.8-3.8,9.6c-2.5,3.1-5.1,6.2-7.7,9.3c-3.1,3.6-9,2.6-10.7-1.9c-5.9-15.5-10.8-31.3-14.6-47.4
		c-0.7-3.1-0.8-6.3-0.2-9.5c0.4-2,0.8-4,1.2-6c1-5.2,5-9.4,10.2-10.7c20.2-5,32.9-11.6,33-11.7l0,0
		C305.1,317.2,307.3,318.9,306.8,320.9z M290.1,231.2c-0.8-0.6-1.5-1.2-2.3-1.8c-3.1-2.3-4.9-6.1-4.6-9.9c0.5-5.5,0.8-11.2,1.1-16.9
		c0.2-4,3.7-7,7.6-6.7c5.5,0.5,11.1,0.8,16.9,1l0,0c2.1,0,3.3,2.3,2.3,4.1c-4.3,7.4-6.7,15.5-6.7,23.9c0,9.8,2.9,19.1,8.5,27l0,0
		c0.8,1.1,1.8,2,2.9,2.6l0,0c0.3,0.2,0.6,0.3,0.9,0.5c3.7,1.9,5.7,6.1,4.8,10.2c-0.7,3.2-1.4,6.3-2.1,9.2c-0.5,2.1-3.6,2-3.9-0.2
		C311.1,246.5,290.1,231.2,290.1,231.2z M194.3,213c-8.1,2.1-15.9,5.1-22.9,8.9c-2.7,1.5-6,0.2-7.2-2.7c-0.6-1.5-1.4-3-2.2-4.5
		c-1.7-2.9-2.7-6.2-2.8-9.6c0-0.2,0-0.3,0-0.5c-0.1-3.2,2.7-5.6,5.8-5.3c3.5,0.4,7.1,0.7,10.7,0.9c5.8,0.3,11.7,0.3,17.4,0
		c0.4,0,0.8,0,1.3-0.1c2.9-0.2,5.4,2,5.5,4.9c0,0,0,0.1,0,0.1C200.3,208.8,197.9,212.1,194.3,213z M192.8,191.7
		c-5.7,0.3-11.2,0.3-16.6,0c-23.3-1.2-42.7-7.1-54.6-11.7c-10.6-4.1-18.5-13.2-20.8-24.3c-0.7-3.2-1-6.5-1-9.9
		c0.1-33.1,33.9-60.1,76.7-62.3c1.9-0.1,3.9-0.2,5.9-0.1c45.6,0.1,82.4,28.2,82.4,62.7c0,5.3-0.8,10.4-2.4,15.3
		c-2.6,7.9-8.6,14.3-16.2,17.7C227.6,187.3,209.5,190.9,192.8,191.7z M273.2,146.2c0.1-19.4-9.7-37.6-27.4-51.1
		c-8.5-6.4-18.3-11.5-29-14.9c-6.2-2-8.2-9.9-3.6-14.6c20.6-21.2,52.9-35.5,89.7-37.5c2.9-0.1,5.8-0.2,8.7-0.2
		c67.4,0.1,121.9,41.6,121.8,92.7c0,10.1-2,19.9-6,29c-3.5,8.1-10.1,14.6-18.2,18.2l-0.4,0.2c-4.5,2-9.5,2.5-14.4,1.6
		c-5.6-1.1-11.5-1.7-17.4-1.7c-1.7,0-3.4,0-5,0.1l0,0l0,0c-17.9,0.9-34.6,7-47,17l0,0c-2.5,2-5.6,3.1-8.8,3.2c-2.4,0-4.7,0-7-0.1
		c-13-0.3-25.2-1.6-36.4-3.5c-5.8-1-8.8-7.4-6-12.5C270,166.4,273.1,157.7,273.2,146.2z M138,255c-1,2.1-2.8,3.8-5,4.6
		c-10.5,4-20.8,5.7-29.9,6.2c-11.1,0.6-20.5-0.7-26.7-1.9c-6.5-1.3-12.1-5.6-14.7-11.7c-0.9-2.1-1.6-4.3-2-6.6
		c-3.7-21,15.7-42,43.3-46.9c2.8-0.5,5.6-0.8,8.3-0.9c0,0,31.9-1.9,46,25.3c1.7,3.3,0.9,7.3-1.9,9.7
		C145.6,241.2,140.3,250.3,138,255z M211.5,396c3,9,6.3,18,9.9,26.9c1.6,4-3.2,7.5-6.5,4.8c-66.9-55.8-97.7-118.3-110-150.4
		c-0.9-2.3,0.7-4.8,3.1-5c4.1-0.4,10.2-1.2,16.5-2.8c1.7-0.5,3.6,0.4,4.3,2c0.6,1.4,1.3,2.9,2,4.3c0.9,1.9,1.4,3.9,1.5,5.9
		c0.2,5.3,1.7,17.3,10.1,31.3c0.4,0.7,1.4,1.6,2.2,1.9l0,0c2.5,1.4,5.1,2.7,7.6,4c2,1,3.8,2.5,5,4.4c7.4,11.5,16.4,24,27,36.9
		c0,0,6.6,8.4,19.2,21.8C207,386.1,209.8,390.8,211.5,396z"/>
	
		<ellipse transform="matrix(0.4239 -0.9057 0.9057 0.4239 -74.9176 349.4748)" class="st188" cx="237.2" cy="233.6" rx="4.2" ry="4.2"/>
	
		<ellipse transform="matrix(0.9502 -0.3115 0.3115 0.9502 -66.5255 71.1238)" class="st188" cx="189.3" cy="243.8" rx="4.2" ry="4.2"/>
	
		<ellipse transform="matrix(0.4239 -0.9057 0.9057 0.4239 -94.8895 364.7978)" class="st188" cx="239.3" cy="257" rx="4.2" ry="4.2"/>
	
		<ellipse transform="matrix(0.4239 -0.9057 0.9057 0.4239 -71.6695 374.5525)" class="st188" cx="258.6" cy="243.6" rx="4.2" ry="4.2"/>
	
		<ellipse transform="matrix(0.9377 -0.3475 0.3475 0.9377 -7.1369 119.4748)" class="st188" cx="329.5" cy="79.6" rx="4.2" ry="4.2"/>
	
		<ellipse transform="matrix(0.389 -0.9212 0.9212 0.389 108.4933 287.9304)" class="st188" cx="271.3" cy="62.2" rx="4.2" ry="4.2"/>
	
		<ellipse transform="matrix(0.389 -0.9212 0.9212 0.389 142.0475 308.3338)" class="st188" cx="303.5" cy="47.1" rx="4.2" ry="4.2"/>
	<ellipse transform="matrix(0.9377 -0.3475 0.3475 0.9377 3.1324 119.405)" class="st188" cx="334.4" cy="51" rx="4.2" ry="4.2"/>
	
		<ellipse transform="matrix(0.9377 -0.3475 0.3475 0.9377 -1.9001 128.363)" class="st188" cx="356.9" cy="69.5" rx="4.2" ry="4.2"/>
</g>
</svg>
