<?xml version="1.0" encoding="utf-8"?>
<!-- Generator: Adobe Illustrator 20.1.0, SVG Export Plug-In . SVG Version: 6.00 Build 0)  -->
<svg version="1.1" id="Layer_1" xmlns="http://www.w3.org/2000/svg" xmlns:xlink="http://www.w3.org/1999/xlink" x="0px" y="0px"
	 viewBox="0 0 500 500" style="enable-background:new 0 0 500 500;" xml:space="preserve">
<style type="text/css">
	.st0{fill:#9EC44F;stroke:#386200;stroke-width:6;stroke-linecap:round;stroke-linejoin:round;stroke-miterlimit:10;}
	.st1{fill:#9EC44F;stroke:#386200;stroke-width:7;stroke-linecap:round;stroke-linejoin:round;stroke-miterlimit:10;}
	.st2{fill:none;stroke:#386200;stroke-width:8;stroke-linecap:round;stroke-linejoin:round;stroke-miterlimit:10;}
	.st3{fill:none;stroke:#9EC44F;stroke-width:2;stroke-linecap:round;stroke-linejoin:round;stroke-miterlimit:10;}
	.st4{fill:#9EC44F;stroke:#386200;stroke-linecap:round;stroke-linejoin:round;stroke-miterlimit:10;}
	.st5{fill:#998004;}
	.st6{fill:#E5C403;}
	.st7{fill:none;stroke:#998004;stroke-width:8;stroke-linecap:round;stroke-linejoin:round;stroke-miterlimit:10;}
	.st8{fill:none;stroke:#7CA440;stroke-width:2;stroke-linecap:round;stroke-linejoin:round;stroke-miterlimit:10;}
	.st9{fill:none;stroke:#528B16;stroke-linecap:round;stroke-miterlimit:10;}
	.st10{fill:#528B16;}
	.st11{fill:#00FFFF;}
	.st12{fill:#7CAB09;}
	.st13{fill:#4E670C;}
	.st14{fill:none;stroke:#C0CC8F;stroke-linecap:round;stroke-miterlimit:10;}
	.st15{fill:#7D8AD7;stroke:#4648A6;stroke-width:3;stroke-miterlimit:10;}
	.st16{opacity:0.6;fill:none;stroke:#CDD6FF;stroke-width:3;stroke-miterlimit:10;}
	.st17{opacity:0.4;fill:none;stroke:#CDD6FF;stroke-width:3;stroke-miterlimit:10;}
	.st18{opacity:0.2;fill:none;stroke:#CDD6FF;stroke-width:3;stroke-miterlimit:10;}
	.st19{fill:#7CAB09;stroke:#76990A;stroke-linecap:round;stroke-miterlimit:10;}
	.st20{fill:none;stroke:#A598D8;stroke-linecap:round;stroke-miterlimit:10;}
	.st21{fill:none;stroke:#2B2A6F;stroke-width:3;stroke-miterlimit:10;}
	.st22{fill:none;stroke:#8A6EDA;stroke-linecap:round;stroke-miterlimit:10;}
	.st23{fill:#E4E5E7;stroke:#2B2A6F;stroke-miterlimit:10;}
	.st24{fill:none;stroke:#C2807D;stroke-linecap:round;stroke-linejoin:round;stroke-miterlimit:10;}
	.st25{fill:#C2807D;stroke:#7C152E;stroke-miterlimit:10;}
	.st26{fill:#E4E5E7;}
	.st27{fill:#A598D8;}
	.st28{fill:#C0CC8F;}
	.st29{fill:#7D8AD7;}
	.st30{fill:#AEB9ED;}
	.st31{fill:#9EA9E5;}
	.st32{fill:#8E9ADD;}
	.st33{fill:#76990A;}
	.st34{fill:#8A6EDA;}
	.st35{fill:#2B2A6F;}
	.st36{fill:#C2807D;}
	.st37{fill:#7C152E;}
	.st38{fill:none;stroke:#34500C;stroke-width:6;stroke-linecap:round;stroke-linejoin:round;stroke-miterlimit:10;}
	.st39{fill:#7E9E5B;stroke:#34500C;stroke-miterlimit:10;}
	.st40{fill:#FE8600;stroke:#F15A24;stroke-width:3;stroke-miterlimit:10;}
	.st41{fill:#FE8600;}
	.st42{fill:none;stroke:#F15A24;stroke-miterlimit:10;}
	.st43{fill:none;stroke:#F15A24;stroke-linecap:round;stroke-miterlimit:10;}
	.st44{opacity:0.8;fill:none;stroke:#F15A24;stroke-width:3;stroke-miterlimit:10;}
	.st45{opacity:0.6;fill:none;stroke:#F15A24;stroke-width:3;stroke-miterlimit:10;}
	.st46{opacity:0.4;fill:none;stroke:#F15A24;stroke-width:3;stroke-miterlimit:10;}
	.st47{opacity:0.2;fill:none;stroke:#F15A24;stroke-width:3;stroke-miterlimit:10;}
	.st48{fill:#F15A24;}
	.st49{fill:#9CAD23;stroke:#34500C;stroke-miterlimit:10;}
	.st50{opacity:0.4;fill:none;stroke:#34500C;stroke-linecap:round;stroke-miterlimit:10;}
	.st51{fill:none;stroke:#9CAD23;stroke-width:2;stroke-linecap:round;stroke-linejoin:round;stroke-miterlimit:10;}
	.st52{fill:none;stroke:#34500C;stroke-linecap:round;stroke-linejoin:round;stroke-miterlimit:10;}
	.st53{fill:none;stroke:#7CAB09;stroke-width:2;stroke-linecap:round;stroke-miterlimit:10;}
	.st54{fill:none;stroke:#7D9959;stroke-linecap:round;stroke-miterlimit:10;}
	.st55{fill:#7CAB09;stroke:#4E670C;stroke-miterlimit:10;}
	.st56{fill:none;stroke:#7CAB09;stroke-linecap:round;stroke-miterlimit:10;}
	.st57{fill:none;stroke:#34500C;stroke-linecap:round;stroke-miterlimit:10;}
	.st58{opacity:0.4;fill:#34500C;}
	.st59{fill:#34500C;}
	.st60{fill:none;stroke:#34500C;stroke-width:8;stroke-linecap:round;stroke-linejoin:round;stroke-miterlimit:10;}
	.st61{fill:none;stroke:#34500C;stroke-width:9;stroke-linecap:round;stroke-linejoin:round;stroke-miterlimit:10;}
	.st62{fill:#7E9E5B;}
	.st63{fill:none;stroke:#34500C;stroke-width:3;stroke-linecap:round;stroke-linejoin:round;stroke-miterlimit:10;}
	.st64{fill:none;stroke:#9DB269;stroke-width:2;stroke-linecap:round;stroke-linejoin:round;stroke-miterlimit:10;}
	.st65{fill:none;stroke:#34500C;stroke-width:5;stroke-linecap:round;stroke-linejoin:round;stroke-miterlimit:10;}
	.st66{fill:none;stroke:#D8DFC4;stroke-linecap:round;stroke-linejoin:round;stroke-miterlimit:10;}
	.st67{fill:none;stroke:#DDB907;stroke-width:6;stroke-linecap:round;stroke-miterlimit:10;}
	.st68{fill:none;stroke:#FFE200;stroke-miterlimit:10;}
	.st69{fill:none;stroke:#EDC107;stroke-miterlimit:10;}
	.st70{fill:none;stroke:#EFAE0C;stroke-miterlimit:10;}
	.st71{fill:none;stroke:#FFF8CE;stroke-linecap:round;stroke-miterlimit:10;}
	.st72{fill:#F46C29;}
	.st73{fill:#F77426;}
	.st74{fill:#F97D25;}
	.st75{fill:#EF4B18;}
	.st76{fill:#F3672A;}
	.st77{fill:#9CAD23;}
	.st78{fill:#7D9959;}
	.st79{fill:#9DB269;}
	.st80{fill:#D8DFC4;}
	.st81{fill:#DDB907;}
	.st82{fill:#FFE200;}
	.st83{fill:#EDC107;}
	.st84{fill:#EFAE0C;}
	.st85{fill:#FFF8CE;}
	.st86{clip-path:url(#SVGID_2_);}
	.st87{clip-path:url(#SVGID_4_);}
	.st88{fill:#998004;stroke:#998004;stroke-width:6;stroke-linejoin:round;stroke-miterlimit:10;}
	.st89{fill:#EEF2FF;stroke:#AFADA7;stroke-miterlimit:10;}
	.st90{fill:#E5C403;stroke:#998004;stroke-miterlimit:10;}
	.st91{opacity:0.4;fill:none;stroke:#7CA440;stroke-miterlimit:10;}
	.st92{opacity:0.3;fill:none;stroke:#7CA440;stroke-miterlimit:10;}
	.st93{opacity:0.2;fill:none;stroke:#7CA440;stroke-miterlimit:10;}
	.st94{opacity:0.1;fill:none;stroke:#7CA440;stroke-miterlimit:10;}
	.st95{fill:none;stroke:#FFFFFF;stroke-linecap:round;stroke-miterlimit:10;}
	.st96{fill:#FFFFFF;}
	.st97{fill:#EEF2FF;}
	.st98{fill:#AFADA7;}
	.st99{fill:none;stroke:#AFADA7;stroke-linecap:round;stroke-miterlimit:10;}
	.st100{fill:#7CA440;}
	.st101{fill:#BEA123;}
	.st102{fill:none;stroke:#FFFFFF;stroke-width:7.709;stroke-linecap:round;stroke-miterlimit:10;}
	.st103{fill:#9EC44F;stroke:#386200;stroke-miterlimit:10;}
	.st104{fill:none;stroke:#90AD49;stroke-miterlimit:10;}
	.st105{fill:#386200;}
	.st106{fill:#EEF2FF;stroke:#386200;stroke-miterlimit:10;}
	.st107{fill:none;stroke:#386200;stroke-width:3;stroke-miterlimit:10;}
	.st108{fill:#9EC44F;}
	.st109{fill:#90AD49;}
	.st110{fill:#D8E6BB;}
</style>
<g>
	<path class="st105" d="M32.9,76.1C32.9,76.1,32.9,76.1,32.9,76.1L32.9,76.1z"/>
	<path class="st105" d="M441,448.8C441,448.9,441,448.9,441,448.8C441,448.9,441,448.9,441,448.8C441,448.9,441,448.9,441,448.8z"/>
	<path class="st108" d="M450.6,440.4c-54.2-181.4-11-317.4-11-317.4s-44.1,71-46,186.4c-32.3-104.7-25.8-180.1-25.8-180.1
		s-45.4,130.6,30.8,296.3c-17.2-15.5-39.8-37.4-64.6-65.4c-25.8-29.2-56.9-68.3-87.6-116.6c35-26.2,60.4-74.7,66.3-143.4
		c0,0,0-0.1,0-0.1c0.6-6.6,4.5-12.5,10.6-15.1l2.3-1c4.2-1.8,6.2-6.8,4.4-11s-6.8-6.2-11-4.4l-2.6,1.1c-5.9,2.6-12.6,1.5-17.7-2.4
		C268.2,44,231,28.8,190,25.3c-41-3.5-80.2,5.2-114.3,22.9c-5.7,3-12.5,2.8-17.9-0.7L55.5,46c-3.9-2.5-9.1-1.4-11.6,2.4
		c-2.5,3.9-1.4,9.1,2.4,11.6l1.8,1.2c5.7,3.7,8.8,10.2,8.2,16.9l0,0.1c-9.7,113.2,42.3,181.4,113.2,187.4
		c22.4,1.9,44.1-2.6,63.5-13.4c31.3,49.3,63,89.2,89.4,118.9c43.5,49.1,79.6,79.2,93.9,90.5c1.6,2.6,3.9,4.8,6.6,6.4l0,0
		c5.4,3.2,11.8,3.5,17.3,1.4c0.1,0,0.1-0.1,0.2-0.1c0.1-0.1,0.3-0.1,0.4-0.2c4.9-2,8.9-5.8,11-11.1l0.3-0.9
		C454.1,451.7,453.6,445.5,450.6,440.4z"/>
	<path class="st105" d="M466.5,131.5c4.3-13.5-2.1-28.2-15.1-34.1c-12.9-6-28.2-1.4-35.7,10.7c-0.5,0.7-6.1,9.9-13.4,26.3
		c-2.5,5.6-11,3.5-10.5-2.7v0c0.9-11.7-6.3-22.7-17.7-25.8c-12.4-3.4-25.1,3.4-29.2,15.4c-0.6,1.7-14.3,41.8-14.8,105.2
		c-0.2,26.9,2,54.1,6.6,81.3c1.1,6.4-7.1,10.1-11.2,5c-12.9-16-26.5-34.1-40.3-54.2c-4.4-6.4-3.9-14.9,1.1-20.8
		c0.8-0.9,1.5-1.8,2.3-2.8c23.8-29.6,39.4-69.7,45.7-116.5c1-7.2,4.3-13.9,9.6-18.8c9.7-8.9,13.2-23.4,7.7-36.1
		c-5.4-12.4-18-20.1-31.4-19.2c0,0-0.1,0-0.1,0c-7.1,0.5-14.2-1.1-20.1-5C267.7,18,230.7,5.2,192,1.8c-11.8-1-23.7-1.1-35.5-0.3
		c-26.9,1.8-52.9,8.2-77.5,19c-6.4,2.8-13.6,3.2-20.4,1.5c-3.2-0.8-6.5-1.1-9.9-0.9c-10,0.7-19.2,6.1-24.6,14.4
		c-7.6,11.6-6.6,26.5,1.4,36.9c4.5,5.8,6.5,13.1,6.2,20.5c-1.9,52,8.7,97.3,31.1,131.9c24.4,37.7,61.5,60.5,104.5,64.2
		c7.1,0.6,14.2,0.7,21.2,0.2l0,0c8.1-0.5,16-1.8,23.6-3.7c6.9-1.7,14.2,1,18.2,6.8c26.1,38.2,51.8,70,73.8,94.8
		c30.2,34.1,57.1,59.4,76,75.9c4.7,4.1,9,8.8,12.4,14c3.9,6.1,9.3,11.3,15.7,15.1c8.6,5.2,18.3,7.3,27.6,6.7
		c14.3-1,27.9-8.3,36.4-21l0.5-0.8c8-12,10.2-26.8,6-40.7c-27.5-89.8-29.4-167.8-26.2-217.5C456.2,164.9,466.5,131.8,466.5,131.5z
		 M358.4,227c0.1-12.3,0.7-23.9,1.7-34.5c0.3-3.4,5.2-3.4,5.5,0c0.9,9.3,2.2,19.4,3.9,30.4c3.1,20.2,8,44.6,15.7,71.9
		c2.8,9.9,4.3,20.1,4.5,30.4c0.4,20.7,2.1,42.8,5.7,66.2c0.6,3.7-4.7,5.1-6,1.6C364.1,326.6,358.2,268.2,358.4,227z M187,264.8
		C187,264.8,187,264.8,187,264.8C187,264.8,187,264.8,187,264.8c-5.7,0.4-11.6,0.3-17.4-0.2c-35.3-3-65.8-21.9-86-53.1
		c-21.7-33.6-30.8-79.7-26.2-133.2l0-0.1c0.6-7.1-2.7-14-8.7-17.9l-1.8-1.2c-3.4-2.2-4.3-6.8-2.1-10.2c1.3-2,3.3-3.2,5.7-3.3
		c1.6-0.1,3.2,0.3,4.5,1.2l2.4,1.6c3.3,2.2,7.2,3.2,11.2,2.9c0,0,0,0,0,0c2.7-0.2,5.3-0.9,7.7-2.2C102,35.7,129.5,28,158.2,26
		c10.5-0.7,21.2-0.6,31.7,0.3c39.3,3.4,76.7,17.8,108.2,41.7c3.7,2.8,8.3,4.3,12.8,3.9c0,0,0,0,0,0c2.1-0.1,4.1-0.6,5.9-1.4l2.6-1.1
		c0.8-0.3,1.6-0.5,2.4-0.6c3.1-0.2,6,1.6,7.2,4.4c1.6,3.7-0.1,8-3.8,9.7l-2.3,1c-6.3,2.7-10.7,8.9-11.3,16l0,0.1
		c-4.2,49-18.8,90.4-42.2,119.6C247.6,247,219,262.6,187,264.8z M322.3,371.2c-24.4-27.6-53.5-63.9-82.5-108.2
		c-1.6-2.5-0.9-5.9,1.6-7.4c1.5-0.9,3-1.9,4.4-2.9c2.5-1.7,5.8-0.9,7.5,1.5c28.4,43.4,56.8,79,80.7,105.9
		c16,18.1,31.1,33.6,44.4,46.5c8.2,8,15,17.4,19.9,27.7c0.9,1.8,1.8,3.7,2.7,5.5c1.8,3.6-2.7,7-5.7,4.4
		C377.1,428.3,351.4,404,322.3,371.2z M446.2,459.1l-0.5,0.8c-4.6,6.8-13.8,8.9-20.8,4.7c-3.4-2-5.9-5.3-7-9c0,0,0,0,0,0
		c-29.6-102.1-21.1-186.5-8.9-239.3c2.8-12,6-23.1,9.2-33.3c1-3.2,5.8-2.1,5.4,1.2c-1.1,9.3-2.2,19.5-2.9,30.5
		c-3.6,52.8-1.8,135.7,27.4,231.2C449.5,450.4,448.8,455.3,446.2,459.1z"/>
	<path class="st109" d="M165.8,130.3c-0.4,0-0.8,0-1.3,0c-2.2-0.2-4.2-1.2-5.6-2.9c-1.4-1.7-2.1-3.8-1.9-6s1.2-4.2,2.9-5.6
		c1.7-1.4,3.8-2.1,6-1.9c2.2,0.2,4.2,1.2,5.6,2.9c1.4,1.7,2.1,3.8,1.9,6C173,126.8,169.7,130,165.8,130.3z M165.2,121.9
		c-0.1,0-0.2,0.1-0.2,0.1c0,0.1,0.1,0.2,0.1,0.2c0.1,0,0.2-0.1,0.2-0.1C165.4,122,165.3,121.9,165.2,121.9
		C165.2,121.9,165.2,121.9,165.2,121.9z"/>
	<path class="st109" d="M165.7,130.3c-1.5,0.1-3-0.2-4.3-0.9c-1.9-1-3.4-2.7-4.1-4.8c-1.4-4.3,1-8.9,5.3-10.3
		c2.1-0.7,4.3-0.5,6.3,0.5c1.9,1,3.4,2.7,4.1,4.8l0,0c1.4,4.3-1,8.9-5.3,10.3C167.1,130.1,166.4,130.2,165.7,130.3z M165.2,121.9
		C165.2,121.9,165.2,121.9,165.2,121.9c-0.1,0-0.2,0.1-0.1,0.2c0,0.1,0.1,0.1,0.2,0.1c0.1,0,0.1-0.1,0.1-0.2
		C165.3,121.9,165.3,121.9,165.2,121.9z"/>
	<path class="st110" d="M107.9,68.3c-1.3,0.1-2.6-0.4-3.5-1.5c-3.1-4-6-7.7-7.2-9.4c-1.3-1.8-0.9-4.3,0.8-5.6
		c1.8-1.3,4.3-0.9,5.6,0.8c1.2,1.6,4.2,5.4,7.1,9.2c1.4,1.8,1,4.3-0.7,5.7C109.4,67.9,108.7,68.2,107.9,68.3z"/>
	<path class="st109" d="M289.6,147.3c-0.5,0-1,0-1.5-0.2c-38.9-13-80.2-21.4-122.7-25c-31.6-2.7-63.2-2.7-94,0.1c0,0-0.1,0-0.1,0
		c-2.2,0.1-4.1-1.5-4.3-3.7c-0.2-2.2,1.4-4.2,3.7-4.4c31.2-2.8,63.3-2.8,95.4-0.1c43.1,3.7,85,12.2,124.6,25.4
		c2.1,0.7,3.2,3,2.5,5.1C292.6,146.1,291.1,147.2,289.6,147.3z"/>
	<path class="st109" d="M164.6,126.7l-1.5-1c-0.3-0.2-35-23.1-88.7-54.3c-1.9-1.1-2.6-3.6-1.5-5.5c1.1-1.9,3.6-2.6,5.5-1.5
		C126,92.1,158.7,113.2,166,118c9.9-2.7,61.1-16.7,125.2-36.2c2.1-0.6,4.4,0.6,5,2.7c0.6,2.1-0.6,4.4-2.7,5
		c-71.3,21.7-126.6,36.6-127.2,36.7L164.6,126.7z"/>
	<path class="st109" d="M261.4,210.2c-1.6,0.1-3.2-0.8-3.9-2.3c-26.7-56.4-84.9-78.7-92.6-81.5c-7.3,1.1-56.4,9.3-84.6,37.1
		c-1.6,1.6-4.1,1.5-5.7,0c-1.6-1.6-1.5-4.1,0-5.7c32.3-31.8,87.8-39.2,90.1-39.5l0.9-0.1l0.9,0.3c2.8,0.9,68.3,22.6,98.3,86
		c1,2,0.1,4.4-1.9,5.4C262.4,210.1,261.9,210.2,261.4,210.2z"/>
	<path class="st109" d="M213.5,248.8c-2.2,0.1-4.1-1.5-4.3-3.7c-3.2-35.6-9.1-65.4-17-86.3c-7.8-20.4-17.2-31.6-27.2-32.5
		c-18.6-1.6-40.2,31.6-57.8,88.8c-0.7,2.1-2.9,3.3-5,2.7c-2.1-0.7-3.3-2.9-2.7-5c26.2-84.9,52.7-95.6,66.2-94.4
		c25.8,2.2,44.6,48.2,51.6,126.1C217.4,246.7,215.8,248.6,213.5,248.8C213.5,248.8,213.5,248.8,213.5,248.8z"/>
	<path class="st109" d="M167,124.8c-1.2,0.1-2.4,0.1-3.5,0c-19.8-1.7-35.3-28.3-44.8-77.1c-0.4-2.2,1-4.3,3.2-4.7
		c2.2-0.4,4.3,1,4.7,3.2c8.5,43.6,22.2,69.3,37.6,70.6c7.8,0.7,28.6-5,52.1-71.6c0.7-2.1,3-3.2,5.1-2.5c2.1,0.7,3.2,3,2.5,5.1
		C202.4,108.6,181.7,123.8,167,124.8z"/>
	<path class="st109" d="M154.7,250.5c-0.2,0-0.4,0-0.6,0c-2.2-0.2-3.9-2.1-3.7-4.4l17.6-206c0.2-2.2,2.1-3.9,4.4-3.7
		c2.2,0.2,3.9,2.1,3.7,4.4l-17.6,206C158.2,248.9,156.6,250.4,154.7,250.5z"/>
	<polygon class="st97" points="152.1,100.9 160.4,79.2 176.4,80 178.9,106 202.5,103.9 207.3,119.6 185.5,130.3 193.9,153 
		179.8,162.1 163.8,142.2 143.8,158.2 131.8,147.7 143.8,129.1 122.7,112.9 129,98.3 	"/>
	<path class="st105" d="M212,111c-1.1-4.8-3.5-8.2-7-10.2c-4-2.2-9.2-2.5-16.1-1c-0.6,0.1-1.2,0.3-1.8,0.4c-2.2,0.6-4.3-1.2-4-3.5
		c0.1-0.6,0.1-1.3,0.2-1.9c0.6-7-0.5-12.1-3.2-15.7c-2.5-3.2-6.2-5-11-5.4c-7.3-0.6-16.3,2.1-17.7,18.5c-0.1,0.6-0.1,1.2-0.1,1.8
		c-0.1,2.3-2.5,3.7-4.6,2.8c-0.6-0.3-1.1-0.5-1.7-0.8c-15.1-6.4-21.7,0.3-24.6,7c-2.8,6.7-3.1,16.1,12.1,22.5
		c0.6,0.3,1.2,0.5,1.8,0.7c2.2,0.8,2.8,3.5,1.2,5.2c-0.4,0.5-0.9,0.9-1.3,1.4c-10.8,12.4-6.4,20.8-0.9,25.5
		c2.8,2.5,6.5,4.5,10.9,4.2c4.2-0.3,9-2.7,14.2-8.7c0.4-0.5,0.8-0.9,1.1-1.4c1.4-1.8,4.2-1.6,5.3,0.5c0.3,0.5,0.6,1.1,0.9,1.6
		c3.6,6,7.5,9.5,11.9,10.8c1.5,0.4,3,0.6,4.5,0.5c2.5-0.2,5-1,7.6-2.6c4.2-2.5,6.7-5.8,7.5-9.8c0.9-4.5-0.4-9.6-4.1-15.6
		c-0.3-0.5-0.7-1.1-1-1.6c-1.3-1.9-0.2-4.4,2.1-4.9c0.6-0.1,1.2-0.2,1.8-0.4c6.8-1.6,11.4-4.2,14-8C212.5,119.8,213.1,115.7,212,111
		z M159.4,92.9c0.8-9.3,3.9-11,6.7-11.2c0.8-0.1,1.5,0,2.2,0.1c3.4,0.3,4.7,1.5,5.3,2.3c1.5,1.9,2,5.4,1.6,10.2v0
		c-0.5,5.4-2,10.5-4.3,14.1c-1.7,2.7-3.7,4.3-5.3,4.1c-1.6-0.1-3.3-2-4.5-5C159.7,103.6,159,98.3,159.4,92.9z M135.7,118.1
		c-10.9-4.6-9-9-7.8-12c0.8-1.9,1.9-4.5,5.6-4.7c2-0.1,4.6,0.4,8.4,2c10.7,4.5,15.6,11.7,14.4,14.7c-0.6,1.5-2.9,2.5-6.1,2.8
		C145.9,121.2,140.7,120.2,135.7,118.1z M159.6,135.7c-1,4.1-3.6,8.8-7.1,12.9c-7.8,9-11.4,5.8-13.8,3.7c-2.4-2.1-6-5.2,1.7-14.2
		c3.6-4.1,7.8-7.3,11.7-8.9c1.4-0.6,2.7-0.9,3.8-0.9c1.3-0.1,2.3,0.1,2.9,0.7C160,130,160.3,132.5,159.6,135.7z M164.7,126.2
		c-2.3-0.2-4-2.2-3.8-4.5c0.2-2.3,2.2-4,4.5-3.8c2.3,0.2,4,2.2,3.8,4.5C169,124.7,167,126.4,164.7,126.2z M189.6,151.9
		c-0.2,1.1-0.8,2.7-3.8,4.4c-2.9,1.8-4.7,1.6-5.7,1.3c-2.3-0.7-4.8-3.2-7.3-7.3c-6-9.9-5.8-18.7-3-20.4c2.8-1.7,10.7,2.2,16.6,12.1
		C189,146.2,190,149.6,189.6,151.9z M203.6,118.6c-1.4,2-4.5,3.6-9.2,4.7c-11.3,2.6-19.6-0.3-20.3-3.5s5.4-9.5,16.7-12.1
		c1.7-0.4,3.3-0.6,4.6-0.7c2.4-0.2,4.3,0.1,5.6,0.9c0.9,0.5,2.3,1.6,3.1,5C204.9,116.1,204.2,117.7,203.6,118.6z"/>
	
		<ellipse transform="matrix(8.514622e-02 -0.9964 0.9964 8.514622e-02 31.1829 185.5599)" class="st110" cx="116.6" cy="75.8" rx="4.2" ry="4.2"/>
	<path class="st110" d="M77.1,142.6c-1.4,0.1-2.9-0.6-3.7-1.9c-1.2-1.9-0.6-4.4,1.3-5.5c5.7-3.5,12-6.6,18.9-9.3
		c2.1-0.8,4.4,0.2,5.2,2.3c0.8,2.1-0.2,4.4-2.3,5.2c-6.4,2.5-12.4,5.4-17.6,8.6C78.3,142.4,77.7,142.6,77.1,142.6z"/>
	<path class="st110" d="M344.8,396.2c-1.2,0.1-2.3-0.3-3.2-1.2l-1.1-1.2c-1.5-1.6-1.5-4.2,0.2-5.7c1.6-1.5,4.2-1.5,5.7,0.2l1.1,1.2
		c1.5,1.6,1.5,4.2-0.2,5.7C346.6,395.8,345.7,396.1,344.8,396.2z"/>
	<path class="st110" d="M332.7,383.1c-1.2,0.1-2.4-0.4-3.3-1.3c-7.3-8-14.6-16.4-21.7-24.7c-1.4-1.7-1.2-4.2,0.5-5.7
		c1.7-1.4,4.2-1.2,5.7,0.5c7,8.3,14.3,16.5,21.5,24.5c1.5,1.6,1.4,4.2-0.3,5.7C334.4,382.7,333.6,383,332.7,383.1z"/>
	<path class="st110" d="M431.7,452.3c-1.8,0.1-3.6-1-4.1-2.9c-11.5-38.2-18.4-78.9-20.5-120.8c-0.1-2.2,1.6-4.1,3.8-4.2
		c2.2-0.1,4.1,1.6,4.2,3.8c2.1,41.3,8.8,81.3,20.1,118.9c0.6,2.1-0.6,4.4-2.7,5C432.3,452.2,432,452.3,431.7,452.3z"/>
</g>
</svg>
