<?xml version="1.0" encoding="utf-8"?>
<!-- Generator: Adobe Illustrator 20.0.0, SVG Export Plug-In . SVG Version: 6.00 Build 0)  -->
<svg version="1.1" id="Layer_1" xmlns="http://www.w3.org/2000/svg" xmlns:xlink="http://www.w3.org/1999/xlink" x="0px" y="0px"
	 viewBox="0 0 500 500" style="enable-background:new 0 0 500 500;" xml:space="preserve">
<style type="text/css">
	.st0{fill:#C6CC40;}
	.st1{fill:#A6B135;}
	.st2{fill:#C6CC40;stroke:#A6B135;stroke-width:3;stroke-linecap:round;stroke-linejoin:round;stroke-miterlimit:10;}
	.st3{fill:#72621E;}
	.st4{fill:#CBBE7C;}
	.st5{fill:#998E5F;}
	.st6{fill:#F7D63C;}
	.st7{fill:#00FFFF;}
	.st8{clip-path:url(#SVGID_2_);}
	.st9{fill:none;stroke:#CBBE7C;stroke-width:2;stroke-miterlimit:10;}
	.st10{fill:#E5D58F;stroke:#CBBE7C;stroke-miterlimit:10;}
	.st11{fill:none;stroke:#CBBE7C;stroke-width:2;stroke-linecap:round;stroke-miterlimit:10;}
	.st12{fill:#E1C25F;}
	.st13{fill:#DABF62;}
	.st14{fill:#CEBC5A;}
	.st15{fill:#BEB74F;}
	.st16{fill:#B6B44C;}
	.st17{fill:#998617;}
	.st18{fill:#FFFFFF;}
	.st19{clip-path:url(#SVGID_4_);}
	.st20{fill:none;stroke:#E1C25F;stroke-miterlimit:10;}
	.st21{fill:#C6CC40;stroke:#A6B135;stroke-linecap:round;stroke-miterlimit:10;}
	.st22{fill:#C6CC40;stroke:#A6B135;stroke-linecap:round;stroke-linejoin:round;stroke-miterlimit:10;}
	.st23{fill:none;stroke:#A6B135;stroke-linecap:round;stroke-miterlimit:10;}
	.st24{fill:none;stroke:#E1C25F;stroke-linecap:round;stroke-linejoin:round;stroke-miterlimit:10;}
	.st25{fill:none;stroke:#A6B135;stroke-linecap:round;stroke-linejoin:round;stroke-miterlimit:10;}
	.st26{fill:#E5E54A;}
	.st27{fill:#CCAE58;}
	.st28{fill:#809931;}
</style>
<path class="st0" d="M348.8,172.2l-26.7-44.6L303.7,81l-6.4,1.2c-19.2,106.2-57.4,187.1-90.2,240.8l-24.8-35.4l-20-42.5l-27.7,134.8
	l44.1,75.3v23.1h58.9v-29.7l40.5-25.1l27.2-104l10.3-130.7l35.9,25.6L348.8,172.2z"/>
<path class="st6" d="M182.2,287.5l24.8,35.4c32.8-53.7,71-134.6,90.2-240.8c-4.6-27.4-12.1-45.3-23-47.3
	c-29.9-5.4-77.2,109.8-108,218.7L182.2,287.5z"/>
<g>
	<path class="st26" d="M197.8,338.1c-17.8-22.2-29.2-45.3-35.1-59.1c-0.8-1.8-7.2,1-6.4,2.8c6.2,14.5,18.5,39.1,37.6,62.5
		L197.8,338.1z"/>
</g>
<g>
	<path class="st26" d="M184,358.8c-13.9-18.6-23.3-37.1-28.7-49.1c-0.8-1.8-7.2,1.1-6.4,2.9c5.7,12.6,15.7,32.2,30.6,51.8L184,358.8
		z"/>
</g>
<path class="st27" d="M290.5,108c0-5.5,0-10.8-0.1-15.8l4.5,0.8c0,0.3,0.1,0.5,0.1,0.8c0.8-3.8,1.5-7.7,2.2-11.6
	c0.6,3.3,1.1,6.7,1.6,10.1c0.8-1.9,1.8-3.7,3.1-5.4c-0.7-4.6-1.4-8.9-2.3-13c-5.4-26.8-13.5-40.8-24.8-42.9s-23.7,8.3-38.2,31.5
	c-12.1,19.4-25.1,47.1-38.6,82.1c-13.3,34.5-26.1,73.8-36.9,112.5c1.2,0.9,2.2,1.9,3.2,2.9c0.8-2.8,1.6-5.6,2.4-8.5
	c0,0,1.2,3.6,3.8,9.7c1.3-0.6,2.8-0.9,4.3-0.6l3,0.5c4,0.7,6.5,4.6,5.6,8.5c-0.7,3-1.4,6-2.1,9c-0.2,1-0.7,1.9-1.2,2.6
	c2.2,4.1,4.6,8.5,7.3,13.1l12.8,2.3c3.8,0.7,6.4,4.4,5.6,8.2c-0.9,4.4-1.7,8.8-2.5,13.1c1.2,1.6,2.5,3.2,3.8,4.8
	c1.6-2.6,3.1-5.2,4.7-7.9c1-5.2,2-10.4,3.1-15.7l5.4,1c1.3-2.4,2.6-4.7,3.9-7.2l-0.8-0.1c-3.9-0.7-6.4-4.4-5.6-8.2
	c0.6-3,1.2-6.1,1.8-9.1c0.7-3.7,4.4-6.2,8.1-5.5l7.7,1.4c1.2-2.5,2.5-5.1,3.7-7.6c-0.8,0.1-1.6,0.1-2.4,0l-7.2-1.3
	c-3.9-0.7-6.4-4.4-5.6-8.3c0.6-3,1.2-6.1,1.9-9.1c0.8-3.7,4.4-6.2,8.1-5.5l6.7,1.2c3.5,0.6,5.9,3.8,5.7,7.3
	c4.2-9.4,8.4-19.3,12.4-29.6c0.3-1.9,0.6-3.9,0.9-5.8l1.3,0.2c1.1-2.8,2.1-5.5,3.1-8.4c-1.7-1.5-2.7-3.8-2.3-6.3
	c0.5-3.1,0.9-6.2,1.3-9.2c0.6-3.9,4.3-6.6,8.2-5.9l0.3,0c0.8-2.5,1.6-4.9,2.4-7.5l-2.1-0.4c-3.7-0.7-6.2-4.1-5.7-7.9
	c0.1-0.5,0.1-1,0.2-1.5c0.5-3.9,4.3-6.6,8.2-5.9l4,0.7c5-16.8,9.6-34.4,13.6-52.8L290.5,108z M277,80.3c0.3-3.2,0.6-6.3,0.9-9.2
	c0-0.1,0-0.1,0-0.2c0.2-2.3,3.6-2.3,3.8,0c0.1,0.7,0.1,1.5,0.2,2.2c0.2,2.4,0.3,5,0.4,7.7c0,1-0.9,1.8-1.9,1.7l-2.1-0.4
	C277.5,81.9,276.9,81.2,277,80.3z M263.4,77.6c0.9-3.4,1.7-6.6,2.5-9.4c0.7-2.6,4.6-1.9,4.4,0.8c-0.3,3-0.6,6.2-0.9,9.7
	c-0.1,0.9-1,1.6-1.9,1.4l-2.8-0.5C263.7,79.5,263.2,78.5,263.4,77.6z M250.5,75.1c1-2.5,2.1-4.8,3.1-7c0.3-0.7,0.6-1.4,0.9-2
	c1-2.1,4.2-0.9,3.5,1.3c0,0.1,0,0.1-0.1,0.2c-0.8,2.8-1.6,5.8-2.4,9c-0.2,0.8-1,1.3-1.9,1.2l-2.1-0.4
	C250.7,77.1,250.1,76,250.5,75.1z M248.6,84.6l2.2,0.4c1.3,0.2,2.2,1.6,1.9,2.9c-0.8,3.4-1.7,6.9-2.6,10.5c-0.3,1.2-1.5,2-2.7,1.8
	l-3.6-0.6c-1.4-0.3-2.3-1.8-1.8-3.1c1.3-3.6,2.7-7.1,4-10.3C246.4,85,247.5,84.4,248.6,84.6z M234.6,145.2l-3.4-0.6
	c-2.8-0.5-4.5-3.3-3.6-6c0.6-2,1.3-4,1.9-5.9c0.7-2.2,3-3.6,5.3-3.2l2.8,0.5c2.6,0.5,4.3,3,3.7,5.6c-0.5,2-0.9,4-1.4,6
	C239.4,144.1,237,145.7,234.6,145.2z M235.7,160.7c-0.1,0.5-0.2,1-0.3,1.5c-0.8,3.7-4.4,6-8.1,5.4l-0.5-0.1
	c-4.1-0.7-6.7-4.9-5.5-8.9c0.1-0.5,0.3-1,0.4-1.5c1-3.4,4.4-5.5,7.9-4.9l0.4,0.1C234,153,236.6,156.8,235.7,160.7z M240.8,122.7
	l-3.4-0.6c-2.2-0.4-3.5-2.7-2.8-4.8c0.9-2.7,1.8-5.4,2.8-7.9c0.6-1.7,2.3-2.7,4.1-2.4l2.6,0.5c2,0.4,3.4,2.4,2.9,4.4
	c-0.6,2.6-1.3,5.3-1.9,8.1C244.6,121.8,242.7,123,240.8,122.7z M239.5,72.9c1.3-2.2,2.5-4.3,3.7-6.2c0.6-0.9,1.1-1.8,1.7-2.7
	c0,0,0.5-0.6,1.1-0.3c0.7,0.4,0.5,1.1,0.5,1.1c-1.3,3-2.7,6.1-4.1,9.5c-0.3,0.7-1,1.1-1.8,1C239.5,75.1,239,73.9,239.5,72.9z
	 M228.5,93.7c1.7-3.5,3.5-6.9,5.2-10.2c0.5-0.9,1.5-1.4,2.5-1.2c1.5,0.3,2.3,1.8,1.8,3.2c-1.3,3.3-2.6,6.7-3.9,10.3
	c-0.4,1.1-1.5,1.7-2.6,1.5l-1.2-0.2C228.6,96.8,227.8,95.1,228.5,93.7z M219,114.2c1.2-2.7,2.3-5.3,3.5-7.8c0.7-1.5,2.3-2.3,3.9-2
	c2.2,0.4,3.5,2.7,2.8,4.8c-0.9,2.6-1.8,5.2-2.7,7.9c-0.6,1.7-2.3,2.7-4.1,2.4l-0.8-0.1C219.4,118.8,218.1,116.3,219,114.2z
	 M210.2,135.1c0.8-2,1.6-3.9,2.4-5.9c0.8-2,3-3.2,5.2-2.8c2.8,0.5,4.5,3.3,3.6,6c-0.6,1.9-1.3,3.9-1.9,5.9c-0.7,2.2-3,3.6-5.3,3.2
	l-0.5-0.1C210.8,140.9,209.1,137.8,210.2,135.1z M202,156.3c0.5-1.4,1.1-2.8,1.6-4.2c1-2.5,3.6-4,6.2-3.5c3.3,0.6,5.3,3.9,4.3,7.1
	c-0.4,1.4-0.8,2.8-1.3,4.2c-0.8,2.7-3.5,4.4-6.3,3.9l-0.3-0.1C202.8,163.2,200.7,159.6,202,156.3z M191.6,185.3
	c1.2-3.4,2.4-6.8,3.6-10.2c1-2.9,4.1-4.7,7.1-4.1c3.7,0.7,6,4.4,5,8c-1,3.4-1.9,6.8-2.9,10.2c-0.9,3.2-4,5.1-7.2,4.5l-0.6-0.1
	C192.6,192.9,190.3,188.9,191.6,185.3z M182,214.5c0.9-3,1.9-6,2.9-9c1.1-3.3,4.5-5.3,7.9-4.7l0.4,0.1c4,0.7,6.6,4.8,5.5,8.7
	c-0.8,3-1.6,6-2.4,9c-0.9,3.5-4.4,5.8-8,5.1l-0.9-0.2C183.2,222.8,180.7,218.5,182,214.5z M180.5,253.8l-2.2-0.4
	c-4.1-0.7-6.6-4.8-5.5-8.8c0.9-3,1.8-6,2.7-9c1-3.4,4.4-5.5,8-4.9l1.8,0.3c4,0.7,6.5,4.7,5.5,8.6c-0.8,3-1.5,6-2.3,9
	C187.6,252.2,184.1,254.5,180.5,253.8z M211.7,274.6c-0.6,3-1.2,6.1-1.8,9.1c-0.7,3.7-4.4,6.2-8.1,5.5l-7.1-1.3
	c-3.9-0.7-6.5-4.6-5.6-8.5c0.7-3,1.4-6.1,2.2-9.1c0.9-3.6,4.4-5.9,8.1-5.3l6.8,1.2C210,267,212.5,270.8,211.7,274.6z M217.9,244.2
	c-0.6,3-1.2,6.1-1.9,9.1c-0.8,3.7-4.4,6.2-8.1,5.5l-6-1.1c-4-0.7-6.5-4.7-5.6-8.6c0.8-3,1.5-6.1,2.3-9.1c0.9-3.6,4.4-5.8,8-5.1
	l5.5,1C216.2,236.6,218.7,240.3,217.9,244.2z M224.2,213.8c-0.6,3-1.3,6-1.9,9.1c-0.8,3.7-4.4,6.1-8.1,5.5l-4.5-0.8
	c-4-0.7-6.6-4.7-5.5-8.7c0.8-3,1.6-6.1,2.4-9.1c0.9-3.5,4.4-5.7,8-5l3.9,0.7C222.5,206.2,225,209.9,224.2,213.8z M220.7,198
	l-2.6-0.5c-4.1-0.7-6.6-4.8-5.5-8.8c0.9-3,1.7-6,2.6-9c1-3.5,4.4-5.6,8-5l2,0.4c3.9,0.7,6.4,4.5,5.6,8.4c-0.7,3-1.3,6-2,9.1
	C228,196.2,224.4,198.6,220.7,198z M250.8,218.2c-0.5,3.1-0.9,6.1-1.4,9.2c-0.6,3.9-4.3,6.5-8.2,5.8l-5.6-1
	c-3.9-0.7-6.4-4.5-5.6-8.3c0.6-3.1,1.3-6.1,1.9-9.1c0.8-3.7,4.4-6.1,8.1-5.4l5.1,0.9C248.9,210.9,251.4,214.4,250.8,218.2z
	 M255.4,187.4c-0.4,3.1-0.9,6.1-1.3,9.2c-0.6,3.9-4.3,6.6-8.2,5.9l-3.8-0.7c-3.9-0.7-6.4-4.5-5.6-8.4c0.7-3.1,1.3-6.1,2-9.1
	c0.8-3.7,4.4-6.1,8.1-5.4l3.1,0.6C253.4,180.2,255.9,183.7,255.4,187.4z M258.7,163.7C258.7,163.7,258.7,163.7,258.7,163.7
	c-0.1,1-0.3,1.9-0.4,2.8c-0.5,3.6-3.9,6-7.4,5.4l-2.8-0.5c-3.6-0.6-5.9-4.1-5.1-7.7c0.2-0.9,0.4-1.8,0.6-2.7c0,0,0,0,0-0.1
	c0.7-3.3,4-5.5,7.3-4.9l2.6,0.5C256.9,157.1,259.2,160.3,258.7,163.7z M262.1,138.9c-0.3,2-0.5,4-0.8,6.1c-0.4,2.6-2.8,4.5-5.5,4
	l-4.4-0.8c-2.6-0.5-4.3-3.1-3.7-5.7c0.5-2,0.9-4.1,1.4-6c0.6-2.4,2.9-4,5.4-3.6l3.8,0.7C260.8,134.2,262.4,136.5,262.1,138.9z
	 M265.2,114.8c-0.3,2.7-0.7,5.4-1,8.2c-0.3,2.1-2.2,3.5-4.2,3.1l-4.3-0.8c-2-0.4-3.4-2.4-2.9-4.4c0.7-2.8,1.3-5.5,1.9-8.1
	c0.4-1.9,2.3-3.1,4.2-2.7l3.4,0.6C264.2,111.1,265.5,112.9,265.2,114.8z M268.1,90.4c-0.4,3.4-0.8,7-1.2,10.8
	c-0.2,1.3-1.4,2.3-2.8,2l-4.4-0.8c-1.3-0.2-2.2-1.6-1.9-2.9c0.9-3.7,1.8-7.3,2.6-10.6c0.3-1.2,1.5-2,2.7-1.7l3,0.5
	C267.4,88,268.2,89.1,268.1,90.4z M281.6,148.3c-0.1,2.8-2.7,4.9-5.5,4.4l-3.4-0.6c-2.5-0.4-4.1-2.8-3.8-5.2
	c0.3-2.1,0.5-4.1,0.8-6.1c0.4-2.6,2.8-4.5,5.5-4l2.8,0.5c2.3,0.4,3.9,2.5,3.8,4.8C281.8,144.1,281.7,146.2,281.6,148.3z
	 M282.4,125.9c-0.1,2.2-2.1,3.9-4.3,3.5l-3.4-0.6c-1.9-0.3-3.2-2.1-3-4c0.4-2.8,0.7-5.5,1-8.2c0.3-2.1,2.2-3.5,4.2-3.1l2.6,0.5
	c1.7,0.3,3,1.8,3,3.6C282.6,120.3,282.5,123.1,282.4,125.9z M280,106.1l-3.6-0.6c-1.2-0.2-2.1-1.4-1.9-2.6c0.4-3.7,0.9-7.3,1.2-10.8
	c0.2-1.4,1.4-2.3,2.8-2l2.2,0.4c1.1,0.2,1.9,1.1,1.9,2.3c0.1,3.5,0.1,7.2,0.1,11.1C282.7,105.2,281.4,106.3,280,106.1z M289.6,72.6
	c0,0,0-0.9,0.7-0.9s1.1,0.7,1.1,0.7c0.2,1,0.4,2.1,0.7,3.2c0.6,3,1.2,6.1,1.7,9.4l-2.3-0.4c-0.7-0.1-1.3-0.8-1.3-1.5
	C290,79.3,289.8,75.8,289.6,72.6z"/>
<g>
	<path class="st26" d="M161.1,419.4c-0.8,0-1.7-0.3-2.3-0.9c-1.4-1.3-1.5-3.5-0.3-4.9c16.9-18.7,75.1-88.9,115.1-206.3
		c0.6-1.8,2.6-2.8,4.4-2.2c1.8,0.6,2.8,2.6,2.2,4.4c-40.5,118.7-99.4,189.8-116.5,208.8C163,419,162,419.4,161.1,419.4z"/>
</g>
<g>
	<path class="st26" d="M180.5,434.3c-0.8,0-1.7-0.3-2.3-0.9c-1.4-1.3-1.6-3.5-0.3-4.9c14.9-16.6,53.3-63.5,88.4-140
		c0.8-1.8,2.9-2.5,4.6-1.7c1.8,0.8,2.5,2.9,1.7,4.6c-35.5,77.4-74.5,124.9-89.6,141.8C182.4,433.9,181.5,434.3,180.5,434.3z"/>
</g>
<g>
	<path class="st26" d="M203.9,485.3c-1.9,0-3.5-1.6-3.5-3.5l-0.2-44.7l0.9-1c10.4-11.7,37.6-44.6,65.7-96c0.9-1.7,3.1-2.3,4.8-1.4
		c1.7,0.9,2.3,3.1,1.4,4.8c-26.9,49-52.4,81-65.7,96.3l0.2,42C207.4,483.7,205.9,485.3,203.9,485.3
		C203.9,485.3,203.9,485.3,203.9,485.3z"/>
</g>
<g>
	<path class="st26" d="M232.6,440.3c-0.8,0-1.6-0.3-2.2-0.8c-1.5-1.2-1.7-3.4-0.5-4.9c7.2-8.6,18.4-23,31.2-42.2
		c1.1-1.6,3.2-2,4.9-1c1.6,1.1,2,3.2,1,4.9c-13,19.5-24.4,34-31.6,42.8C234.6,439.8,233.6,440.3,232.6,440.3z"/>
</g>
<circle class="st6" cx="271.7" cy="50.3" r="2.1"/>
<circle class="st6" cx="259.7" cy="51.4" r="2.1"/>
<circle class="st6" cx="282.3" cy="56.1" r="2.1"/>
<circle class="st18" cx="204.2" cy="237.5" r="3.5"/>
<circle class="st18" cx="195.8" cy="268.6" r="3.5"/>
<circle class="st18" cx="236.5" cy="212.5" r="3.5"/>
<circle class="st18" cx="242.8" cy="182.1" r="3.5"/>
<circle class="st18" cx="247.9" cy="158.7" r="3.5"/>
<circle class="st18" cx="252.7" cy="136" r="3.5"/>
<circle class="st18" cx="257.7" cy="113" r="3.5"/>
<circle class="st18" cx="263.4" cy="89.9" r="3.5"/>
<circle class="st18" cx="267.8" cy="69.2" r="3.5"/>
<circle class="st18" cx="272" cy="50.6" r="3.5"/>
<circle class="st18" cx="276" cy="116.5" r="3.5"/>
<circle class="st18" cx="211.4" cy="207.9" r="3.5"/>
<circle class="st18" cx="219.8" cy="178" r="3.5"/>
<circle class="st18" cx="226.6" cy="155" r="3.5"/>
<circle class="st18" cx="233" cy="132.7" r="3.5"/>
<circle class="st18" cx="240.1" cy="109.9" r="3.5"/>
<circle class="st18" cx="248" cy="87" r="3.5"/>
<path class="st28" d="M374.2,236.5c-6.9-58.5-30.9-108.7-47.6-137.4c-2.9-5-4.8-10.4-5.7-16.1c-0.7-4.6-1.5-8.9-2.3-13
	c-2.9-14.3-6.5-25.5-11.1-34.2c-9-17.1-20.9-22.5-29.3-24c-2-0.4-4.1-0.6-6.2-0.6c0,0,0,0,0,0c-11.2,0-22.2,5.3-32.6,15.6
	c-7,7-14,16.4-21.5,28.8c-12.5,20.9-25.8,49.6-39.4,85.4c-24.5,64.4-47.6,145.4-58.8,206.9c-4.6,25.4,0.5,51.8,15.2,73
	c7.2,10.5,16.2,19.2,26.5,26c5.8,3.8,9.2,10.2,9.2,17.1v15.3c0,4.5,2.6,8.6,6.7,10.6c0.9,0.4,15.4,7,33.9,7c9.7,0,20.5-1.8,31.1-7.3
	c3.8-2,6.1-6,6.1-10.3v-9.8c0-7.7,4.3-14.6,11.1-18.2c25.2-13.5,44-38,49.3-67.8c8.3-45.9,14.2-104.1,16.5-159.5
	c0.2-4.8,6.1-6.8,9.2-3.2c11.2,13.1,18,23.6,18.2,23.8c2.2,3.4,5.9,5.3,9.8,5.3c1.7,0,3.5-0.4,5.2-1.2
	C372.4,246.6,374.8,241.5,374.2,236.5z M272.1,34.7c0.7,0,1.4,0.1,2.1,0.2c7.8,1.4,13.9,11,18.4,26.4c1.8,6.3,2.1,12.9,1,19.3
	l-0.2,0.9c-18.1,100.5-53.8,177.7-82.3,226.9c-2.2,3.8-7.5,4-10,0.4c-1-1.5-2-2.9-3-4.3c-18.8-28.2-27.6-53.8-27.7-54.1v0
	c-1.2-3.5-1.3-7.2-0.2-10.7C200.3,137.6,243.4,34.7,272.1,34.7z M146.4,354.2c4.3-23.8,10.5-50.9,18-79.4c1-3.7,6-4.1,7.6-0.7
	c4.6,9.6,11.1,21.7,19.6,34.5c1.9,2.9,3.9,5.6,5.8,8.3c2.9,4,3.1,9.3,0.4,13.4c-17.7,27.9-33.4,47.4-42.5,58c-2.1,2.4-6,1.6-7-1.5
	C145.1,376.4,144.4,365.3,146.4,354.2z M223.4,472.2c-10.3,2.7-20.5,1.2-27.4-0.5c-1.1-0.3-1.9-1.3-1.9-2.5v-5.6
	c0-1.6,1.5-2.8,3-2.5c0,0,0.1,0,0.1,0c5.7,1,11.5,1.5,17.2,1.5c2.7,0,5.5-0.1,8.1-0.4c1.5-0.1,2.7,1,2.7,2.5v4.9
	C225.3,470.9,224.5,471.9,223.4,472.2z M282.3,378.8c-6.8,37.5-42.7,62.4-80.2,55.7c-16.8-3-31.6-12-41.9-25.1
	c-3.5-4.5-3.3-10.8,0.4-15.1c10.5-12.1,30.2-36.6,52.2-73.3c24.8-41.3,56.5-105.2,77.5-188.4c1.2-4.9,8.4-4.3,8.7,0.8
	C304.3,214.9,294.7,309.6,282.3,378.8z M329.9,182.3c-2.2-2-3.4-4.8-3.4-7.7c0-3.5,0-7-0.1-10.4c0-1.1,0-2.1,0-3.2
	c0-2.2,3-2.8,3.9-0.8c3.1,7.6,6,15.7,8.7,24.2c0.8,2.5-2.2,4.3-4.1,2.5C333.3,185.4,331.6,183.8,329.9,182.3z"/>
<path class="st27" d="M274.4,40.3c-0.2,0-0.5,0-0.7-0.1c-2.1-0.4-3.5-2.4-3.1-4.5l5.6-31c0.4-2.1,2.4-3.5,4.5-3.1
	c2.1,0.4,3.5,2.4,3.1,4.5l-5.6,31C277.8,39,276.2,40.3,274.4,40.3z"/>
<path class="st27" d="M263.4,42.2c-1.7,0-3.3-1.1-3.8-2.9L251.9,10c-0.5-2.1,0.7-4.2,2.8-4.7c2.1-0.5,4.2,0.7,4.7,2.8l7.8,29.3
	c0.5,2.1-0.7,4.2-2.8,4.7C264.1,42.2,263.7,42.2,263.4,42.2z"/>
<path class="st27" d="M283.8,46.3c-0.8,0-1.6-0.2-2.2-0.7c-1.8-1.2-2.2-3.7-0.9-5.4l17.5-24.8c1.2-1.8,3.7-2.2,5.4-0.9
	c1.8,1.2,2.2,3.7,0.9,5.4L287,44.7C286.2,45.8,285,46.3,283.8,46.3z"/>
</svg>
