<?xml version="1.0" encoding="utf-8"?>
<!-- Generator: Adobe Illustrator 20.0.0, SVG Export Plug-In . SVG Version: 6.00 Build 0)  -->
<svg version="1.1" id="Layer_1" xmlns="http://www.w3.org/2000/svg" xmlns:xlink="http://www.w3.org/1999/xlink" x="0px" y="0px"
	 viewBox="0 0 500 500" style="enable-background:new 0 0 500 500;" xml:space="preserve">
<style type="text/css">
	.st0{fill:#582C2C;}
	.st1{fill:#965446;stroke:#582C2C;stroke-width:6;stroke-miterlimit:10;}
	.st2{fill:#80B256;stroke:#2D592D;stroke-width:6;stroke-linejoin:round;stroke-miterlimit:10;}
	.st3{fill:#00FFFF;}
	.st4{fill:#965446;}
	.st5{fill:none;stroke:#589958;stroke-width:3;stroke-linecap:round;stroke-linejoin:round;stroke-miterlimit:10;}
	.st6{fill:none;stroke:#22B573;stroke-linecap:round;stroke-miterlimit:10;}
	.st7{fill:none;stroke:#528B4D;stroke-linecap:round;stroke-miterlimit:10;}
	.st8{fill:none;stroke:#97CC64;stroke-linecap:round;stroke-miterlimit:10;}
	.st9{fill:#80B256;}
	.st10{fill:none;stroke:#589958;stroke-linecap:round;stroke-linejoin:round;stroke-miterlimit:10;}
	.st11{fill:none;stroke:#FFFFFF;stroke-linecap:round;stroke-linejoin:round;stroke-miterlimit:10;}
	.st12{fill:#306231;}
	.st13{fill:none;stroke:#C6CE97;stroke-linecap:round;stroke-linejoin:round;stroke-miterlimit:10;}
	.st14{fill:#FFFFFF;}
	.st15{fill:none;stroke:#519151;stroke-linecap:round;stroke-linejoin:round;stroke-miterlimit:10;}
	.st16{fill:#ECEAEF;}
	.st17{fill:none;stroke:#965446;stroke-width:3;stroke-linecap:round;stroke-miterlimit:10;}
	.st18{fill:#ECEAEF;stroke:#666566;stroke-miterlimit:10;}
	.st19{fill:none;stroke:#FFFFFF;stroke-linecap:round;stroke-miterlimit:10;}
	.st20{fill:none;stroke:#91868A;stroke-linecap:round;stroke-miterlimit:10;}
	.st21{fill:none;stroke:#965446;stroke-width:2;stroke-linecap:round;stroke-miterlimit:10;}
	.st22{fill:#91868A;}
	.st23{fill:#965446;stroke:#582C2C;stroke-miterlimit:10;}
	.st24{fill:#2D592D;}
	.st25{fill:#589958;}
	.st26{fill:#97CC64;}
	.st27{fill:#C6CE97;}
	.st28{fill:none;stroke:#91868A;stroke-width:7.7984;stroke-linecap:round;stroke-miterlimit:10;}
</style>
<path class="st0" d="M416.6,202.9c1.8,17.3-10.3,32.9-27.6,35l-2,0.2c-7.6,0.9-14.5,5-19,11.2l-69.3,96.8
	c-7.7,10.7-13.5,22.6-17.1,35.3l-26.2,90c-4.4,15.1-18.4,25.6-34.1,25.6c-3.4,0-6.7-0.5-10-1.4c-18.8-5.5-29.6-25.2-24.1-44
	l22.7-78.2c3.6-12.5,2.1-25.9-4.3-37.2l-15-26.4c-1.6-2.9-2.8-6-3.5-9.2l-2.5-11.7c-1.1-5.1-5.7-8.7-10.9-8.6
	c-13.7,0.3-31.1-3.4-49.7-17.8c-3.7-2.9-7.7-5.4-11.9-7.4c-22.6-10.9-41.7-30.5-53.5-55.4c-11.6-24.6-14.7-51.5-8.9-75.9
	C55.9,98,72.1,77.1,94.2,66.8c7.6-3.6,15.7-5.9,24-6.8c6-0.7,11.7-3.2,16.1-7.2c11.4-10.5,25.2-17.5,39.9-20
	c14.8-2.6,30.1-0.6,44.3,5.5c5.5,2.4,11.7,2.8,17.6,1.4c8.2-1.9,16.5-2.5,24.9-1.6c24.3,2.4,46.5,16.6,61,38.9
	c6.6,10.1,11.4,21.5,14.3,33.7c1.9,7.7,12.6,8.3,15.4,0.9l32.5-85.6c7-18.3,27.5-27.5,45.8-20.6l0,0c18.3,7,27.5,27.5,20.6,45.8
	L404.8,172c-1.6,4.1-0.5,8.8,2.8,11.8C411.3,187.2,415.6,193.2,416.6,202.9z M248,284.1L248,284.1c1.6,2.8,5.6,3,7.5,0.4l15-21
	c1.6-2.3-1.1-5.2-3.5-3.7c-4.6,2.9-9.1,5-13.3,6.5c-5.1,1.8-8,7.2-6.9,12.5L248,284.1z M176.4,233.2
	C176.4,233.2,176.4,233.2,176.4,233.2L176.4,233.2z M233.8,223.3C233.8,223.3,233.8,223.3,233.8,223.3
	C233.8,223.3,233.8,223.3,233.8,223.3z M387.2,221.8L387.2,221.8C387.2,221.8,387.2,221.8,387.2,221.8z"/>
<path class="st4" d="M239,242.3c28.5-4.9,41.4-38.5,46.6-58c0.6-2.2-1.8-3.9-3.7-2.6c-8.7,5.7-26.7,17.1-39.4,21.7
	c-7.2,2.6-15.4-1.1-19.2-8.2v0c-8.1-13-21-30.6-26.9-38.5c-1.3-1.8-4.1-1.3-4.8,0.8c-7.1,21.9-11.6,45.3-11.6,45.3
	c-1.1,7.7-7.5,13.9-15.1,14.3c-15.1,0.9-35-3.8-44.9-6.4c-2.2-0.6-3.9,1.9-2.6,3.7c5.5,8,13.2,17.5,22.6,25.2
	c13.4,11,27,15.3,40.3,13c6.8-1.2,11.9-3.7,15.2-5.7c2.4-1.5,5.6-0.2,6.2,2.6l10.4,48.8l26.1,45.9c2.7,4.7,3.3,10.3,1.8,15.4
	l-28.7,98.6c-1.8,6.2,1.8,12.7,8,14.5c1.1,0.3,2.2,0.5,3.3,0.5c5.1,0,9.7-3.3,11.2-8.4l30.3-104.1c1.7-5.9,4.4-11.5,8-16.5
	l85.8-119.8c3.3-4.6,8.3-7.5,13.9-8.2l15.5-1.8c4.1-0.5,7.4-4,7.1-8.2c-0.2-4.5-4.3-7.9-8.7-7.3l-7.7,0.9c-3.8,0.4-6.7-3.3-5.4-6.9
	l57.1-150.3c2.3-6-0.7-12.8-6.8-15.1c-6-2.3-12.8,0.7-15.1,6.8l-62.3,163.9c-1.7,4.5-4,8.8-6.8,12.7L255,327.7
	c-2.2,3-6.8,2.8-8.6-0.5l-19.7-34.6l-9.8-45.9c-0.6-3,2-5.6,5-4.9C226.1,242.8,232,243.5,239,242.3z"/>
<g>
	<path class="st16" d="M259.8,61.2c-8.6-0.8-17,0.5-24.9,3.5c-5.7,2.2-12.2,1.5-17.5-1.6c-11.7-6.8-24.9-9.7-38.1-7.4
		c-13.3,2.3-24.7,9.5-33.4,19.8c-4,4.7-9.8,7.6-15.9,7.4c-8.5-0.3-16.8,1.3-24.7,5c-32.7,15.4-43.6,61-24.3,101.9
		c5.6,11.8,13,21.9,21.6,29.9c3.3,3.1,8.3-1.1,5.8-4.8c-0.4-0.6-0.8-1.2-1.1-1.8c-1.9-2.9-1.8-6.8,0.4-9.5c2.2-2.7,5.7-3.7,9-2.5
		c11.2,4.2,28.5,9,47.8,7.9c4-0.2,7.3-3.4,7.8-7.4c2.7-18.4,9.4-40,13.1-51.2c1-2.9,3.5-5.1,6.5-5.7c3-0.6,6.1,0.6,8.1,3
		c7.5,9.2,21.3,27.2,30.2,43.7v0c2,3.7,6.2,5.6,10,4.4c17.2-5.4,32.2-16,41.8-23.9c2.6-2.2,6.2-2.5,9.2-0.7c2.9,1.8,4.4,5.1,3.6,8.5
		c-1,4.6-2.4,10.1-4.4,16.1c-1.3,4,3.9,6.9,6.6,3.6c10.8-13.2,18.2-30.8,20.2-50.5C321.4,104.1,295.8,64.7,259.8,61.2z"/>
</g>
<path class="st14" d="M146.2,127.5c-0.3,0-0.6,0-0.9-0.1c-2.1-0.5-3.4-2.6-2.9-4.7c2.5-10.7,7-20.4,13-27.9c1.3-1.7,3.8-2,5.5-0.6
	c1.7,1.3,2,3.8,0.6,5.5c-5.3,6.7-9.3,15.2-11.6,24.8C149.6,126.3,148,127.5,146.2,127.5z"/>
<path class="st14" d="M109,118.1c-1.1,0-2.2-0.5-3-1.4c-1.4-1.7-1.1-4.1,0.5-5.5c4.9-4.1,10.6-6.9,17-8.4c2.1-0.5,4.2,0.8,4.7,2.9
	c0.5,2.1-0.8,4.2-2.9,4.7c-5.2,1.2-9.9,3.5-13.9,6.8C110.8,117.8,109.9,118.1,109,118.1z"/>
<path class="st14" d="M94.7,154c-2.1,0-3.8-1.7-3.9-3.8c-0.1-1.6,0-3.2,0-4.8c0.1-2.2,1.9-3.8,4.1-3.7c2.2,0.1,3.8,1.9,3.7,4.1
	c-0.1,1.4-0.1,2.8,0,4.2c0.1,2.2-1.6,4-3.8,4C94.8,154,94.7,154,94.7,154z"/>
<path class="st22" d="M263.2,141.6c-1.9,0-3.5-1.3-3.8-3.2c-1.4-8.1-3.6-16-6.4-23.5c-0.8-2,0.2-4.3,2.2-5c2-0.8,4.3,0.2,5,2.2
	c3,8,5.3,16.4,6.8,25c0.4,2.1-1.1,4.1-3.2,4.5C263.6,141.5,263.4,141.6,263.2,141.6z"/>
<circle class="st22" cx="248.9" cy="97.1" r="4"/>
<circle class="st22" cx="376.4" cy="140.7" r="4"/>
<circle class="st14" cx="98.7" cy="127.9" r="4"/>
<circle class="st14" cx="106.5" cy="184.6" r="4"/>
<circle class="st14" cx="177.5" cy="81.2" r="4"/>
<circle class="st14" cx="157" cy="171.6" r="4"/>
<circle class="st14" cx="240" cy="182.5" r="4"/>
<circle class="st14" cx="144.1" cy="137.7" r="4"/>
<path class="st14" d="M256.3,179.7c-1.3,0-2.6-0.7-3.4-1.9c-1.1-1.9-0.5-4.2,1.4-5.3c1.8-1.1,3.7-2.3,5.6-3.5
	c1.8-1.2,4.2-0.7,5.4,1.1c1.2,1.8,0.7,4.2-1.1,5.4c-2,1.3-3.9,2.5-5.9,3.7C257.7,179.5,257,179.7,256.3,179.7z"/>
<path class="st14" d="M225.9,166.9c-1.2,0-2.4-0.6-3.2-1.7c-3-4.2-6.2-8.7-9.6-13.1c-1.3-1.7-1-4.2,0.7-5.5c1.7-1.3,4.2-1,5.5,0.7
	c3.5,4.6,6.8,9.1,9.8,13.4c1.2,1.8,0.8,4.2-1,5.4C227.5,166.6,226.7,166.9,225.9,166.9z"/>
<path class="st14" d="M149,203.7c-7.6,0-16.6-2.9-17-3c-2-0.7-3.2-2.9-2.5-4.9c0.7-2,2.9-3.2,4.9-2.5c0.1,0,8.3,2.7,14.6,2.7
	c2.2,0,3.9,1.7,3.9,3.9S151.1,203.7,149,203.7z"/>
<path class="st22" d="M228.6,430.3c-0.4,0-0.7-0.1-1.1-0.2c-2.1-0.6-3.3-2.8-2.7-4.8l5.2-17.7c0.6-2.1,2.8-3.3,4.8-2.7
	c2.1,0.6,3.3,2.8,2.7,4.8l-5.2,17.7C231.8,429.2,230.3,430.3,228.6,430.3z"/>
<path class="st22" d="M382.1,129.8c-0.5,0-0.9-0.1-1.4-0.3c-2-0.8-3-3-2.3-5l4.8-12.6c0.8-2,3-3,5-2.3c2,0.8,3,3,2.3,5l-4.8,12.6
	C385.1,128.9,383.6,129.8,382.1,129.8z"/>
<path class="st22" d="M395.9,93.5c-0.5,0-0.9-0.1-1.4-0.3c-2-0.8-3-3-2.3-5l5.6-14.8c0.8-2,3-3,5-2.3c2,0.8,3,3,2.3,5l-5.6,14.8
	C398.9,92.5,397.4,93.5,395.9,93.5z"/>
</svg>
