<?xml version="1.0" encoding="utf-8"?>
<!-- Generator: Adobe Illustrator 20.0.0, SVG Export Plug-In . SVG Version: 6.00 Build 0)  -->
<svg version="1.1" id="Layer_1" xmlns="http://www.w3.org/2000/svg" xmlns:xlink="http://www.w3.org/1999/xlink" x="0px" y="0px"
	 viewBox="0 0 500 500" style="enable-background:new 0 0 500 500;" xml:space="preserve">
<style type="text/css">
	.st0{fill:#EEEBDB;}
	.st1{fill:#E1C7B2;}
	.st2{opacity:0.5;fill:none;stroke:#D2A284;stroke-width:3;stroke-miterlimit:10;}
	.st3{fill:#F2CFAA;}
	.st4{fill:#EDB283;}
	.st5{fill:#DFC8B2;}
	.st6{opacity:0.5;fill:none;stroke:#B08269;stroke-width:3;stroke-miterlimit:10;}
	.st7{fill:#00FFFF;}
	.st8{opacity:0.9;fill:none;stroke:#DB7745;stroke-width:3;stroke-miterlimit:10;}
	.st9{opacity:0.5;fill:none;stroke:#DB7745;stroke-width:3;stroke-miterlimit:10;}
	.st10{opacity:0.3;fill:none;stroke:#DB7745;stroke-width:3;stroke-miterlimit:10;}
	.st11{opacity:0.7;fill:none;stroke:#DB7745;stroke-width:3;stroke-miterlimit:10;}
	.st12{fill:#E2AC88;}
	.st13{fill:#B08269;}
	.st14{fill:none;stroke:#B98A71;stroke-width:3;stroke-miterlimit:10;}
	.st15{fill:none;stroke:#C39377;stroke-width:3;stroke-miterlimit:10;}
	.st16{fill:none;stroke:#CD9B7E;stroke-width:3;stroke-miterlimit:10;}
	.st17{fill:none;stroke:#D7A484;stroke-width:3;stroke-miterlimit:10;}
	.st18{fill:none;stroke:#7C5B4F;stroke-miterlimit:10;}
	.st19{fill:#7C5B4F;}
	.st20{fill:#C6A58F;}
	.st21{fill:#B98A71;}
	.st22{fill:#C39377;}
	.st23{fill:#CD9B7E;}
	.st24{fill:#D7A484;}
	.st25{fill:#FFEFDC;stroke:#5E3E27;stroke-miterlimit:10;}
	.st26{opacity:0.2;fill:none;stroke:#D0A672;stroke-width:3;stroke-miterlimit:10;}
	.st27{opacity:0.4;fill:none;stroke:#D0A672;stroke-width:3;stroke-miterlimit:10;}
	.st28{opacity:0.6;fill:none;stroke:#D0A672;stroke-width:3;stroke-miterlimit:10;}
	.st29{fill:#5E3E27;}
	.st30{fill:none;stroke:#5E3E27;stroke-miterlimit:10;}
	.st31{fill:#FFEFDC;}
	.st32{fill:#F5E0C8;}
	.st33{fill:#EBD2B4;}
	.st34{fill:#E2C39E;}
	.st35{opacity:0.6;fill:none;stroke:#DB7745;stroke-width:3;stroke-miterlimit:10;}
	.st36{fill:none;stroke:#863B2B;stroke-linecap:round;stroke-miterlimit:10;}
	.st37{fill:#863B2B;}
	.st38{fill:none;stroke:#863B2B;stroke-miterlimit:10;}
	.st39{fill:#DB7D51;}
	.st40{fill:#E29468;}
	.st41{fill:#E6A074;}
	.st42{fill:#DE895D;}
	.st43{fill:#E29A71;}
	.st44{fill:#D2A284;}
	.st45{opacity:0.7;fill:none;stroke:#E1C7B2;stroke-width:3;stroke-miterlimit:10;}
	.st46{opacity:0.9;fill:none;stroke:#CA9464;stroke-width:3;stroke-miterlimit:10;}
	.st47{opacity:0.6;fill:none;stroke:#CA9464;stroke-width:3;stroke-miterlimit:10;}
	.st48{opacity:0.3;fill:none;stroke:#CA9464;stroke-width:3;stroke-miterlimit:10;}
	.st49{fill:#5F362D;}
	.st50{fill:#D9B49D;}
	.st51{fill:#DCBCA5;}
	.st52{fill:#CA956A;}
	.st53{fill:#CC9A74;}
	.st54{fill:#CF9E7D;}
	.st55{clip-path:url(#SVGID_2_);}
	.st56{fill:#FFC841;}
	.st57{fill:#C56C00;}
	.st58{fill:#FFC841;stroke:#C56C00;stroke-linecap:round;stroke-linejoin:round;stroke-miterlimit:10;}
	.st59{fill:#FFC841;stroke:#C56C00;stroke-miterlimit:10;}
	.st60{fill:none;stroke:#FFE197;stroke-linecap:round;stroke-miterlimit:10;}
	.st61{fill:none;stroke:#C56C00;stroke-linecap:round;stroke-miterlimit:10;}
	.st62{fill:#F6DB90;}
	.st63{opacity:0.3;fill:none;stroke:#C56C00;stroke-width:3;stroke-linecap:round;stroke-linejoin:round;stroke-miterlimit:10;}
	.st64{fill:#FFE197;}
	.st65{fill:#ECAB3D;}
	.st66{opacity:0.5;}
	.st67{fill:none;stroke:#94734A;stroke-linecap:round;stroke-miterlimit:10;}
	.st68{fill:#B2895B;}
	.st69{opacity:0.7;fill:none;stroke:#745432;stroke-width:3;stroke-miterlimit:10;}
	.st70{fill:#3F2F21;}
	.st71{fill:none;stroke:#3F2F21;stroke-miterlimit:10;}
	.st72{fill:#745432;}
	.st73{fill:#94734A;}
	.st74{fill:#866441;}
</style>
<g>
	<polygon class="st1" points="249.7,480 318,455.7 318,218.7 175.8,218.7 175.8,449.1 	"/>
	<path class="st50" d="M253.1,278c-25.1,0-50.7-3-76.5-8.9l7.3-31.7c45.1,10.4,89.4,10.7,131.4,1.1l7.3,31.7
		C299.9,275.4,276.7,278,253.1,278z"/>
	<path class="st44" d="M253.2,248.9c-60.2,0-108.7-17.2-132.2-27.5c-10.1-4.4-18.1-11.8-22.6-20.9c-6.9-14-10.4-28.8-10.4-43.8
		c0-68.2,72.4-123.7,161.4-123.7s161.4,55.5,161.4,123.7c0,15.8-3.5,30.7-10.4,44.4c-4.3,8.4-11.5,15.4-20.4,19.6
		C340.3,239.4,297.7,248.9,253.2,248.9C253.2,248.9,253.2,248.9,253.2,248.9z"/>
	<path class="st51" d="M400.2,201c3.4-6.7,6-13.7,7.7-20.9l-0.5-1c-59.5,28.2-124.3,39.1-192.4,32.3
		c-56.4-5.6-100.8-22.2-122.3-31.6l-1.2,2.8c1.7,6.1,4,12.1,6.9,17.9c4.5,9.1,12.5,16.6,22.6,20.9c9.3,4.1,22.5,9.2,38.8,13.9
		c15.9,3.5,33.4,6.5,52,8.4c14.3,1.4,28.5,2.1,42.5,2.1c27.4,0,54.2-2.8,80.3-8.2c15.5-4.4,30.6-10.1,45.2-17.1
		C388.7,216.4,396,209.4,400.2,201z"/>
	<path class="st52" d="M377,81c-21.2-21-51.1-36.7-85.4-43.8C265.2,35.4,239,35,213.1,36c-35.4,6.2-66.3,21.4-88.6,42.3
		C206.1,63.8,290.8,64.7,377,81z"/>
	<path class="st53" d="M403,119c-5.9-14.2-15-27.2-26.7-38.6C290.7,64.9,206.5,64,125.1,77.7c-12.3,11.4-22.1,24.5-28.5,38.8
		C194.9,94.5,298,95.4,403,119z"/>
	<path class="st54" d="M406.3,152.3c-107.6-24.7-213-25.5-313.4-2.5c0,0,1-27.3,4.2-34.3c98.4-20.8,201-20,305.6,2.6L406.3,152.3z"
		/>
	<path class="st29" d="M421.4,94.7c-10.1-18-24.2-34.1-42.2-47.7C344.2,20.4,298,5.8,249.3,5.8c-48.7,0-94.9,14.7-129.9,41.3
		c-17.9,13.6-32.1,29.6-42.2,47.7c-10.9,19.5-16.4,40.3-16.4,61.9c0,19.3,4.5,38.1,13.2,55.8c7.3,14.9,20.2,26.9,36.1,33.8
		c8.3,3.6,19.2,7.9,32.1,12.1c12.9,4.1,21.5,16.3,21.2,29.9c-1.2,52.9-4.3,100.5-6.3,127.7c-2.7,36.2,22.2,68.6,58,75.2
		c11.3,2.1,22.8,3.1,34.2,3.1c12.1,0,24.3-1.2,36.1-3.6c16.8-3.4,31.8-12.7,42.3-26.4c10.4-13.6,15.5-30.4,14.5-47.4
		c-1.6-27.3-4.1-75.1-5.5-128.1c-0.4-13.5,8.2-25.5,20.9-29.9c11.5-3.9,22.8-8.5,33.8-13.7c14.3-6.8,26-18.1,33-31.9
		c8.9-17.5,13.4-36.5,13.4-56.6C437.8,135,432.3,114.2,421.4,94.7z M279,458.8c-10.5,2.1-20.5,2.9-29.7,2.9c-10.5,0-20-1.1-28.2-2.6
		c-19.3-3.6-32.9-21.1-31.4-40.7c2.5-32.9,6-89.1,6.7-149.6c0.1-10.1,8.9-17.9,19-16.7c12,1.4,24.6,2.2,37.8,2.2
		c10.7,0,21.3-0.6,31.7-1.6c9.9-1,18.6,6.7,18.8,16.6c1.2,60.4,4.1,116.7,6,149.5C310.8,437.9,297.7,455,279,458.8z M395.4,198.5
		c-3.8,7.5-10.3,13.5-17.9,17.2c-25,11.9-49.7,19.2-73.4,23.4c-17.6,3.1-34.7,4.4-50.9,4.4c-21.1,0-40.8-2.2-58.4-5.4
		c-32.2-5.9-57.5-15.4-71.6-21.6c-8.5-3.7-15.8-10-19.9-18.4c-6.4-12.9-9.9-26.8-9.9-41.4c0-65.3,69.8-118.3,155.9-118.3
		c86.1,0,155.9,53,155.9,118.3C405.2,171.3,401.9,185.6,395.4,198.5z"/>
	<ellipse transform="matrix(0.3132 -0.9497 0.9497 0.3132 4.6288 221.582)" class="st29" cx="155.5" cy="107.6" rx="9.1" ry="9.1"/>
	<ellipse transform="matrix(0.3132 -0.9497 0.9497 0.3132 41.7808 229.8141)" class="st29" cx="179.8" cy="86" rx="9.1" ry="9.1"/>
	
		<ellipse transform="matrix(0.3132 -0.9497 0.9497 0.3132 16.2016 258.0139)" class="st29" cx="186.5" cy="117.8" rx="9.1" ry="9.1"/>
	
		<ellipse transform="matrix(0.3132 -0.9497 0.9497 0.3132 -250.1536 501.6827)" class="st29" cx="221.8" cy="423.8" rx="9.1" ry="9.1"/>
</g>
</svg>
