<?xml version="1.0" encoding="utf-8"?>
<!-- Generator: Adobe Illustrator 20.1.0, SVG Export Plug-In . SVG Version: 6.00 Build 0)  -->
<svg version="1.1" id="Layer_1" xmlns="http://www.w3.org/2000/svg" xmlns:xlink="http://www.w3.org/1999/xlink" x="0px" y="0px"
	 viewBox="0 0 400 400" style="enable-background:new 0 0 400 400;" xml:space="preserve">
<style type="text/css">
	.st0{fill:#8A9D1F;stroke:#0D3102;stroke-width:5;stroke-miterlimit:10;}
	.st1{fill:#639D2E;stroke:#164E16;stroke-width:5;stroke-miterlimit:10;}
	.st2{fill:#8A9D1F;stroke:#1B4700;stroke-width:5;stroke-linejoin:round;stroke-miterlimit:10;}
	.st3{fill:#6FB228;stroke:#2A481D;stroke-width:3;stroke-linecap:round;stroke-miterlimit:10;}
	.st4{fill:#A7C92B;stroke:#1B4700;stroke-width:5;stroke-miterlimit:10;}
	.st5{fill:#6FAB00;stroke:#1B4700;stroke-width:5;stroke-miterlimit:10;}
	.st6{fill:#9BB31C;stroke:#2A481D;stroke-width:4;stroke-miterlimit:10;}
	.st7{fill:#6FB228;stroke:#2A481D;stroke-width:4;stroke-linecap:round;stroke-miterlimit:10;}
	.st8{fill:#6E8517;}
	.st9{fill:#1B4700;}
	.st10{fill:#00FFFF;}
	.st11{fill:#A2CC62;stroke:#2A481D;stroke-width:6;stroke-miterlimit:10;}
	.st12{fill:#FAD500;stroke:#E6681E;stroke-width:3;stroke-miterlimit:10;}
	.st13{fill:none;stroke:#E6681E;stroke-linecap:round;stroke-miterlimit:10;}
	.st14{fill:none;stroke:#FFFFFF;stroke-linecap:round;stroke-miterlimit:10;}
	.st15{fill:none;stroke:#E6681E;stroke-miterlimit:10;}
	.st16{fill:#E6681E;}
	.st17{fill:#A2CC62;stroke:#2A481D;stroke-miterlimit:10;}
	.st18{fill:#FFFFFF;}
	.st19{fill:#A2CC62;}
	.st20{fill:#F9C900;}
	.st21{fill:#CE571B;}
	.st22{fill:#9BB31C;}
	.st23{fill:#164100;}
	.st24{fill:#4D831C;}
	.st25{fill:#2A481D;}
	.st26{fill:#A7C92B;}
	.st27{fill:#D10000;stroke:#7B000E;stroke-width:3;stroke-miterlimit:10;}
	.st28{fill:none;stroke:#7B000E;stroke-miterlimit:10;}
	.st29{fill:none;stroke:#7B000E;stroke-width:1.2609;stroke-miterlimit:10;}
	.st30{fill:#D10000;}
	.st31{fill:#7B000E;}
	.st32{opacity:0.7;}
	.st33{fill:#4D831C;stroke:#2A481D;stroke-width:3;stroke-miterlimit:10;}
	.st34{opacity:0.5;fill:none;stroke:#FFFFFF;stroke-linecap:round;stroke-miterlimit:10;}
	.st35{fill:#BD0408;}
	.st36{fill:#C8040B;stroke:#6C0A04;stroke-width:3;stroke-miterlimit:10;}
	.st37{fill:none;stroke:#6C0A04;stroke-linecap:round;stroke-miterlimit:10;}
	.st38{fill:#A7C08F;}
	.st39{fill:none;stroke:#FFFFFF;stroke-width:6.4322;stroke-linecap:round;stroke-miterlimit:10;}
	.st40{fill:#C8040B;}
	.st41{fill:#6C0A04;}
	.st42{fill:#F22F2E;stroke:#9E0E00;stroke-width:3;stroke-miterlimit:10;}
	.st43{fill:#A7C92B;stroke:#164E16;stroke-width:3;stroke-miterlimit:10;}
	.st44{fill:none;stroke:#164E16;stroke-miterlimit:10;}
	.st45{fill:#4D831C;stroke:#2A481D;stroke-width:3;stroke-linecap:round;stroke-linejoin:round;stroke-miterlimit:10;}
	.st46{fill:#F22F2E;stroke:#7B000E;stroke-width:3;stroke-miterlimit:10;}
	.st47{fill:none;stroke:#7B000E;stroke-linecap:round;stroke-miterlimit:10;}
	.st48{fill:#F40000;stroke:#7B000E;stroke-width:3;stroke-miterlimit:10;}
	.st49{fill:#F40000;}
	.st50{fill:#7DB34C;stroke:#164E16;stroke-width:3;stroke-miterlimit:10;}
	.st51{fill:none;stroke:#FFFFFF;stroke-linecap:round;stroke-linejoin:round;stroke-miterlimit:10;}
	.st52{fill:#8A9D1F;}
	.st53{fill:#164E16;}
	.st54{fill:none;stroke:#7B000E;stroke-linecap:round;stroke-linejoin:round;stroke-miterlimit:10;}
	.st55{fill:#F6E600;}
	.st56{fill:#8DCC50;}
	.st57{fill:#A2A121;}
	.st58{fill:#F9EFA7;}
	.st59{fill:#7DB34C;}
	.st60{fill:#F22F2E;}
	.st61{fill:#6FAB00;stroke:#1B4700;stroke-width:3;stroke-miterlimit:10;}
	.st62{fill:none;stroke:#1B4700;stroke-linecap:round;stroke-miterlimit:10;}
	.st63{fill:#6E8517;stroke:#1B4700;stroke-linecap:round;stroke-miterlimit:10;}
	.st64{fill:#6FAB00;}
	.st65{fill:#853323;}
	.st66{fill:#7AB000;}
	.st67{fill:#430000;}
	.st68{fill:#2B0101;}
	.st69{fill:none;stroke:#1B4700;stroke-width:1.5;stroke-linecap:round;stroke-linejoin:round;stroke-miterlimit:10;}
	.st70{fill:none;stroke:#1B4700;stroke-width:3;stroke-linecap:round;stroke-linejoin:round;stroke-miterlimit:10;}
	.st71{fill:#FAB2B3;}
	.st72{fill:none;stroke:#1B4700;stroke-width:18.8546;stroke-linecap:round;stroke-linejoin:round;stroke-miterlimit:10;}
	.st73{fill:none;stroke:#1B4700;stroke-width:2;stroke-linecap:round;stroke-miterlimit:10;}
	.st74{fill:none;stroke:#6FAB00;stroke-linecap:round;stroke-miterlimit:10;}
	.st75{fill:#9E0E00;}
	.st76{clip-path:url(#SVGID_2_);}
	.st77{fill:#6FB228;}
	.st78{fill:#F9C900;stroke:#CE571B;stroke-width:3;stroke-miterlimit:10;}
	.st79{opacity:0.3;fill:none;stroke:#CE571B;stroke-linecap:round;stroke-linejoin:round;stroke-miterlimit:10;}
	.st80{opacity:0.3;fill:#CE571B;}
	.st81{fill:#EAA629;}
	.st82{fill:#853323;stroke:#430000;stroke-width:3;stroke-miterlimit:10;}
	.st83{fill:none;stroke:#430000;stroke-linecap:round;stroke-miterlimit:10;}
	.st84{fill:#8A9D1F;stroke:#1B4700;stroke-miterlimit:10;}
	.st85{fill:#F22F2E;stroke:#7B000E;stroke-width:2.5607;stroke-miterlimit:10;}
	.st86{opacity:0.4;}
	.st87{fill:#8A9D1F;stroke:#1B4700;stroke-linejoin:round;stroke-miterlimit:10;}
	.st88{opacity:0.3;fill:#1B4700;}
	.st89{opacity:0.4;fill:#7B000E;}
	.st90{opacity:0.4;fill:none;stroke:#7B000E;stroke-linecap:round;stroke-linejoin:round;stroke-miterlimit:10;}
	.st91{opacity:0.4;fill:none;stroke:#7B000E;stroke-miterlimit:10;}
	.st92{opacity:0.3;fill:none;stroke:#1B4700;stroke-linecap:round;stroke-linejoin:round;stroke-miterlimit:10;}
	.st93{fill:#C01F28;}
	.st94{fill:#698222;}
	.st95{fill:none;stroke:#7B000E;stroke-width:6.1236;stroke-miterlimit:10;}
	.st96{opacity:0.5;fill:#6FB228;stroke:#2A481D;stroke-linecap:round;stroke-miterlimit:10;}
	.st97{opacity:0.5;fill:#2A481D;}
	.st98{fill:#4D7C29;}
	.st99{fill:#9D121E;}
	.st100{fill:#F22F2E;stroke:#7B000E;stroke-miterlimit:10;}
	.st101{fill:#639D2E;}
	.st102{fill:none;stroke:#0D3102;stroke-width:3;stroke-miterlimit:10;}
	.st103{fill:#639D2E;stroke:#164E16;stroke-miterlimit:10;}
	.st104{fill:#0D3102;}
	.st105{fill:none;stroke:#0D3102;stroke-linecap:round;stroke-miterlimit:10;}
	.st106{fill:#8A9D1F;stroke:#0D3102;stroke-miterlimit:10;}
</style>
<path class="st52" d="M289.1,82l19.2-21.2c16.1-17.7,39.9-26.6,63.6-23.6c5.6,0.7,10.8-3.7,10.6-9.7c-0.1-4.7-4-8.6-8.7-9.1
	c-29.7-3.5-59.4,7.6-79.6,29.7l-19.2,21.2l0.1,0.4C277,76.2,282.4,81,289.1,82L289.1,82z"/>
<path class="st64" d="M259.5,29.8c-9.8-1.5-19.7,1.9-26.4,9.2L178,98.1c-5.6,6.1-11.1,12.3-16.3,18.7
	c-20.9,25.6-37.6,54.3-51.1,84.4L93.6,239c-7.5,16.7-16.1,32.9-25.8,48.4l-52.9,84.8c-4.6,7.4,2.7,16.6,11,13.6L74,368.5
	c62-22.2,114.3-65.4,147.8-122.1l0,0c14.6-24.6,31.8-47.5,51.5-68.2l51.3-53.7c7.3-7.7,10-18.7,7.1-28.9l-0.3-1.1
	c-3-10.6-11.6-18.6-22.4-20.9l-2.7-0.6c-10.3-2.2-18.7-9.8-22-19.8l-1-3.1C279.8,39.3,270.6,31.5,259.5,29.8L259.5,29.8z"/>
<path class="st9" d="M108.4,302.5L108.4,302.5c-1.3-1.2-1.4-3.1-0.2-4.4c22.6-25.3,42.1-53.2,58-83.2l0.9-1.7
	c16.6-31.3,37.2-60.5,61-86.8l21-23.1c1.2-1.3,3.2-1.4,4.5-0.2c1.3,1.2,1.4,3.2,0.2,4.5l-21,23.1c-23.5,25.9-43.7,54.6-60.1,85.5
	l-0.9,1.7c-16.1,30.4-35.9,58.8-58.9,84.4C111.7,303.6,109.7,303.7,108.4,302.5z"/>
<path class="st18" d="M212.5,184.3c-0.6,0-1.3-0.2-1.8-0.6c-1.4-1-1.8-3-0.8-4.4c5.7-8.1,11.7-16.1,17.9-23.7
	c1.1-1.3,3.1-1.6,4.4-0.5c1.3,1.1,1.6,3.1,0.5,4.4c-6.1,7.5-12.1,15.4-17.7,23.4C214.5,183.8,213.5,184.3,212.5,184.3z"/>
<path class="st52" d="M289.1,82l19.2-21.2c16.1-17.7,39.9-26.6,63.6-23.6c5.6,0.7,10.8-3.7,10.6-9.7c-0.1-4.7-4-8.6-8.7-9.1
	c-29.7-3.5-59.4,7.6-79.6,29.7l-19.2,21.2l0.1,0.4C277,76.2,282.4,81,289.1,82L289.1,82z"/>
<path class="st9" d="M398.3,27.1c-0.3-12.4-10.1-22.9-22.6-24.3c-30.3-3.6-60.7,5.9-83.5,25.5c-3.6,3.1-9,3.2-12.7,0.2
	c-5.3-4.2-11.6-7-18.5-8.1c-12.9-2-25.9,2.5-34.8,12.1L171,91.7c-5.7,6.2-11.3,12.6-16.7,19.2c-20.1,24.7-37.7,53.8-52.4,86.5
	L85,235.1c-7.3,16.2-15.8,32.2-25.2,47.3L7.1,366.7c-4.3,6.9-4,15.8,1.1,22.1c3.7,4.5,8.9,6.9,14.4,6.9c2.1,0,4.3-0.4,6.4-1.1
	l48.1-17.3c63.9-22.9,118.2-67.7,152.7-126.2c14.2-24,31.1-46.3,50.2-66.5l51.3-53.7c9.6-10.1,13.2-24.6,9.4-38l-0.3-1.1
	c-1.7-6-4.8-11.4-8.9-15.8c-4.4-4.8-3.5-12.3,2.1-15.6c10.8-6.3,23.6-9,36.3-7.5c7.3,0.9,14.6-1.5,20-6.4
	C395.5,41.5,398.5,34.4,398.3,27.1z M296.6,50.2c19.4-21.4,48.1-32.1,76.9-28.7c3.2,0.4,5.8,3.1,5.9,6.1c0.1,1.9-0.7,3.6-2,4.8
	c-1.4,1.3-3.2,1.8-5,1.6c-24.7-3.1-49.6,6.1-66.3,24.6l-16.1,17.7c-1.3,1.4-3.4,1.8-5,0.8c-1.9-1-3.5-2.5-4.7-4.2
	c-1.1-1.6-0.9-3.7,0.4-5.1L296.6,50.2z M317.8,117.9l-51.3,53.8c-20.2,21.2-37.9,44.7-52.8,69.9c-32.3,54.7-83.1,96.6-142.8,118
	l-33.9,12.2c-4.5,1.6-8.5-3.4-6-7.4l44.9-71.9c9.9-15.8,18.8-32.5,26.4-49.5l16.9-37.7c14-31.3,30.8-59,49.9-82.3
	c5.1-6.2,10.4-12.4,15.9-18.2L240,45.4c3.9-4.2,9.3-6.5,14.9-6.5c3,0,6,0.6,8.8,2c5.1,2.4,8.9,7,10.7,12.4l0.9,2.7
	c0.2,0.5,0.3,1,0.5,1.4c1.1,2.8,0.4,6-1.6,8.2l-1.4,1.6c-0.7,0.8-1,1.9-0.7,3l0.1,0.4c2.1,7.7,8.6,13.4,16.5,14.6l0,0
	c1,0.2,2.1-0.2,2.8-1l0.7-0.8c2.1-2.4,5.5-3.2,8.5-2.3c1.2,0.4,2.4,0.7,3.7,1l2.7,0.6c7.3,1.6,13.2,7.1,15.3,14.3l0.3,1.1
	C324.6,105.1,322.8,112.7,317.8,117.9z"/>
<path class="st18" d="M204.1,110.2c-0.8,0-1.5-0.3-2.1-0.8c-1.3-1.2-1.3-3.2-0.2-4.5l31.7-34c1.2-1.3,3.2-1.3,4.5-0.2
	c1.3,1.2,1.3,3.2,0.2,4.5l-31.7,34C205.8,109.8,205,110.2,204.1,110.2z"/>
<path class="st18" d="M172.4,147.3c-0.6,0-1.3-0.2-1.9-0.6c-1.4-1-1.7-3-0.7-4.4c2.9-3.9,5.9-7.8,8.9-11.5c1.1-1.4,3.1-1.6,4.4-0.5
	c1.3,1.1,1.6,3.1,0.5,4.4c-3,3.6-5.9,7.4-8.7,11.3C174.3,146.9,173.4,147.3,172.4,147.3z"/>
<path class="st18" d="M139.9,201.2c-0.5,0-0.9-0.1-1.4-0.3c-1.6-0.8-2.2-2.7-1.4-4.2c4.5-9.2,9.3-18.1,14.4-26.5
	c0.9-1.5,2.8-2,4.3-1.1c1.5,0.9,2,2.8,1.1,4.3c-4.9,8.3-9.7,17.1-14.1,26.1C142.2,200.6,141.1,201.2,139.9,201.2z"/>
<ellipse transform="matrix(0.9988 -4.843469e-02 4.843469e-02 0.9988 -6.8381 11.787)" class="st18" cx="239.8" cy="147" rx="3.2" ry="3.2"/>
</svg>
