<?xml version="1.0" encoding="utf-8"?>
<!-- Generator: Adobe Illustrator 20.0.0, SVG Export Plug-In . SVG Version: 6.00 Build 0)  -->
<svg version="1.1" id="Layer_1" xmlns="http://www.w3.org/2000/svg" xmlns:xlink="http://www.w3.org/1999/xlink" x="0px" y="0px"
	 viewBox="0 0 64 64" style="enable-background:new 0 0 64 64;" xml:space="preserve">
<style type="text/css">
	.st0{fill:none;stroke:#C69C6D;stroke-width:3;stroke-miterlimit:10;}
	.st1{fill:none;stroke:#699273;stroke-width:3;stroke-miterlimit:10;}
	.st2{fill:#689946;}
	.st3{fill:none;stroke:#689946;stroke-width:3;stroke-miterlimit:10;}
	.st4{fill:#00FFFF;}
	.st5{fill:#54665F;}
	.st6{fill:#434D42;}
	.st7{fill:#54665F;stroke:#434D42;stroke-width:2;stroke-linecap:round;stroke-linejoin:round;stroke-miterlimit:10;}
	.st8{fill:#748C8B;}
	.st9{fill:#EFC11E;}
	.st10{fill:none;stroke:#434D42;stroke-linecap:round;stroke-linejoin:round;stroke-miterlimit:10;}
	.st11{fill:none;stroke:#FFFFFF;stroke-linecap:round;stroke-linejoin:round;stroke-miterlimit:10;}
	.st12{fill:#748C8B;stroke:#434D42;stroke-linecap:round;stroke-linejoin:round;stroke-miterlimit:10;}
	.st13{fill:#FFFFFF;}
	.st14{fill:#EFFE99;stroke:#3E4A14;stroke-width:3;stroke-miterlimit:10;}
	.st15{clip-path:url(#SVGID_2_);}
	.st16{fill:none;stroke:#3E4A14;stroke-width:3;stroke-miterlimit:10;}
	.st17{fill:none;stroke:#FFFFFF;stroke-linecap:round;stroke-miterlimit:10;}
	.st18{fill:#EFFE99;}
	.st19{fill:#3E4A14;}
	.st20{fill:#F1C06D;}
	.st21{clip-path:url(#SVGID_4_);}
	.st22{clip-path:url(#SVGID_6_);}
	.st23{fill:none;stroke:#E4D9C8;stroke-linecap:round;stroke-linejoin:round;}
	.st24{clip-path:url(#SVGID_8_);}
	.st25{clip-path:url(#SVGID_10_);}
	.st26{clip-path:url(#SVGID_12_);}
	.st27{clip-path:url(#SVGID_14_);}
	.st28{clip-path:url(#SVGID_16_);}
	.st29{fill:#DED1C8;}
	.st30{clip-path:url(#SVGID_18_);}
	.st31{clip-path:url(#SVGID_20_);}
	.st32{clip-path:url(#SVGID_22_);}
	.st33{fill:none;stroke:#C6A06A;stroke-width:2;stroke-miterlimit:10;}
	.st34{fill:#699273;}
	.st35{clip-path:url(#SVGID_24_);}
	.st36{fill:#E4D9C8;}
	.st37{clip-path:url(#SVGID_26_);fill:#E4D9C8;}
	.st38{clip-path:url(#SVGID_28_);fill:#E4D9C8;}
	.st39{fill:#C6A06A;}
	.st40{fill:none;stroke:#C8CF80;stroke-width:3;stroke-miterlimit:10;}
	.st41{fill:#CEE5D9;}
	.st42{fill:none;stroke:#86C1A7;stroke-width:3;stroke-linecap:round;stroke-miterlimit:10;}
	.st43{fill:none;stroke:#86C1A7;stroke-linecap:round;stroke-miterlimit:10;}
	.st44{fill:#86C1A7;}
	.st45{fill:#CFE2CF;}
	.st46{fill:#C8CF80;}
	.st47{fill:#86BF95;}
	.st48{fill:none;stroke:#86BF95;stroke-width:3;stroke-linecap:round;stroke-miterlimit:10;}
	.st49{fill:none;stroke:#86BF95;stroke-linecap:round;stroke-miterlimit:10;}
	.st50{fill:#ECEE9A;stroke:#699273;stroke-linecap:round;stroke-miterlimit:10;}
	.st51{fill:none;stroke:#699273;stroke-width:3;stroke-linecap:round;stroke-miterlimit:10;}
	.st52{fill:#C69C6D;}
	.st53{fill:#ECEE9A;}
	.st54{clip-path:url(#SVGID_30_);}
	.st55{fill:#2F7B1D;stroke:#0A4D2C;stroke-width:3;stroke-miterlimit:10;}
	.st56{fill:#2F7B1D;stroke:#0A4D2C;stroke-linecap:round;stroke-miterlimit:10;}
	.st57{fill:#2F7B1D;stroke:#81AF5B;stroke-linecap:round;stroke-miterlimit:10;}
	.st58{fill:#81AF5B;}
	.st59{fill:#2F7B1D;}
	.st60{fill:#0A4D2C;}
	.st61{fill:#FDDC6C;}
	.st62{fill:#FFCF00;}
	.st63{fill:#81AF5B;stroke:#0A4E2C;stroke-width:3;stroke-miterlimit:10;}
	.st64{fill:#FA8D1B;}
</style>
<g>
	<path class="st59" d="M22.1,58.7c-4.8,4.2-11.8,4.5-16.3,0s-4.2-11.5,0-16.3C16.2,30.6,31.5,16.7,41.9,6.2
		C49-0.9,56.5,2.6,59.2,5.3c1.9,1.9,4.5,11.9-0.9,17.3C47.8,33,34.7,47.6,22.1,58.7z"/>
	<g>
		<path class="st13" d="M33.3,20.8c-0.1,0-0.3,0-0.4-0.1c-0.2-0.2-0.2-0.5,0-0.7c4.3-4.1,8.3-8,11.7-11.5c0.7-0.7,1.4-1.3,2.1-1.8
			c0.2-0.2,0.5-0.1,0.7,0.1c0.2,0.2,0.1,0.5-0.1,0.7c-0.7,0.5-1.3,1-2,1.6c-3.5,3.5-7.5,7.3-11.7,11.4
			C33.6,20.7,33.4,20.8,33.3,20.8z"/>
	</g>
	<path class="st60" d="M60.3,4.2c-1.8-1.8-5.2-3.7-9.2-3.7c0,0,0,0,0,0c-3.7,0-7.1,1.6-10.2,4.7c-3.5,3.5-7.5,7.3-11.7,11.4
		c-8.2,7.9-17.5,16.9-24.5,24.8c-4.9,5.6-4.9,13.5,0.1,18.4c2.5,2.5,5.7,3.7,9,3.7c3.3,0,6.6-1.2,9.4-3.6c8.7-7.6,17.7-17,25.6-25.3
		c3.8-3.9,7.3-7.6,10.6-10.9C65.5,17.5,62.6,6.6,60.3,4.2z M57.2,21.5c-3.3,3.3-6.9,7-10.6,10.9C38.6,40.7,29.6,50,21.1,57.6
		c-3,2.7-7,3.5-10.3,2.4c0.9-0.5,1.9-1.2,3-2.3c1.4-1.3,2.2-2.1,2.9-2.7c1.9-1.8,2-1.9,6.9-6.8c0.2-0.2,0.2-0.5,0-0.7
		c-0.2-0.2-0.5-0.2-0.7,0c-4.8,4.9-4.9,5-6.8,6.8c-0.7,0.6-1.5,1.4-2.9,2.7c-4.5,4.3-6,2.7-7.3,1.4c-1.2-1.2-2-3.2,2.5-7.9
		c4.7-4.9,8.1-8.4,14.5-14.7c0.2-0.2,0.2-0.5,0-0.7c-0.2-0.2-0.5-0.2-0.7,0c-6.4,6.3-9.8,9.8-14.5,14.8c-1.4,1.4-2.4,2.8-3,3.9
		c-1-3.4-0.2-7.3,2.4-10.3c6.9-7.8,16.2-16.8,24.3-24.6c4.2-4.1,8.2-7.9,11.7-11.4c2.5-2.5,5.2-3.8,8.1-3.8c0,0,0,0,0,0
		c1.6,0,3.1,0.4,4.3,1c1.7-0.5,2.5,0.3,2.9,0.7c0.5,0.5,0.9,1.5,0.8,2.9C60.2,11.4,60.9,17.7,57.2,21.5z"/>
	<path class="st58" d="M40,31.2c-0.1,0-0.3-0.1-0.4-0.2c-0.2-0.2-0.2-0.5,0-0.7c4.9-4.3,10-9.4,15.1-15.3c5.6-6.4,3.4-9.1,3.1-9.4
		c-0.3-0.4-0.7-0.7-1.4-0.7c0,0,0,0-0.1,0c-1.1,0-3.2,0.8-7.1,4.6c-2.8,2.7-3.5,3.4-5.3,5.2c-1,1-2.2,2.2-4.3,4.2
		c-0.2,0.2-0.5,0.2-0.7,0c-0.2-0.2-0.2-0.5,0-0.7c2.1-2,3.3-3.3,4.3-4.2c1.9-1.8,2.5-2.5,5.3-5.2c3.4-3.3,6-4.9,7.9-4.9
		c1.2,0,1.8,0.7,2.2,1c0.5,0.6,3,3.8-3.1,10.8c-5.2,5.9-10.3,11.1-15.2,15.4C40.2,31.2,40.1,31.2,40,31.2z"/>
	<g>
		<ellipse transform="matrix(0.7071 -0.7071 0.7071 0.7071 -12.1962 28.6012)" class="st58" cx="28.4" cy="29" rx="0.7" ry="0.7"/>
	</g>
	<g>
		
			<ellipse transform="matrix(0.7071 -0.7071 0.7071 0.7071 -14.5688 34.3292)" class="st58" cx="34.2" cy="34.8" rx="0.7" ry="0.7"/>
	</g>
	<g>
		<ellipse transform="matrix(0.7071 -0.7071 0.7071 0.7071 -5.8382 35.513)" class="st58" cx="39.9" cy="24.8" rx="0.7" ry="0.7"/>
	</g>
	<g>
		<ellipse transform="matrix(0.7071 -0.7071 0.7071 0.7071 -6.9026 28.427)" class="st13" cx="30.9" cy="22.5" rx="0.7" ry="0.7"/>
	</g>
	<g>
		
			<ellipse transform="matrix(0.7071 -0.7071 0.7071 0.7071 -20.5358 35.2582)" class="st58" cx="32.3" cy="42.4" rx="0.7" ry="0.7"/>
	</g>
	<g>
		
			<ellipse transform="matrix(0.7071 -0.7071 0.7071 0.7071 -25.0243 26.8309)" class="st58" cx="19.9" cy="43.6" rx="0.7" ry="0.7"/>
	</g>
	<g>
		<ellipse transform="matrix(0.7071 -0.7071 0.7071 0.7071 -28.3516 19.8942)" class="st58" cx="9.8" cy="44.2" rx="0.7" ry="0.7"/>
	</g>
	<g>
		
			<ellipse transform="matrix(0.7071 -0.7071 0.7071 0.7071 -17.9273 23.8913)" class="st58" cx="19.9" cy="33.6" rx="0.7" ry="0.7"/>
	</g>
	<g>
		<ellipse transform="matrix(0.7071 -0.7071 0.7071 0.7071 9.109 40.2345)" class="st58" cx="53.1" cy="9.1" rx="0.7" ry="0.7"/>
	</g>
	<g>
		<ellipse transform="matrix(0.7071 -0.7071 0.7071 0.7071 1.7968 40.1453)" class="st58" cx="49.4" cy="17.9" rx="0.7" ry="0.7"/>
	</g>
	<g>
		<ellipse transform="matrix(0.7071 -0.7071 0.7071 0.7071 -3.7857 42.9773)" class="st58" cx="50" cy="26.1" rx="0.7" ry="0.7"/>
	</g>
</g>
</svg>
