<?xml version="1.0" encoding="utf-8"?>
<!-- Generator: Adobe Illustrator 20.0.0, SVG Export Plug-In . SVG Version: 6.00 Build 0)  -->
<svg version="1.1" id="Layer_1" xmlns="http://www.w3.org/2000/svg" xmlns:xlink="http://www.w3.org/1999/xlink" x="0px" y="0px"
	 viewBox="0 0 500 500" style="enable-background:new 0 0 500 500;" xml:space="preserve">
<style type="text/css">
	.st0{fill:#FFBC00;}
	.st1{fill:#FFBC00;stroke:#FFBC00;stroke-width:6;stroke-miterlimit:10;}
	.st2{fill:#B8CC36;stroke:#385100;stroke-width:6;stroke-linejoin:round;stroke-miterlimit:10;}
	.st3{fill:none;stroke:#B8CC36;stroke-linecap:round;stroke-miterlimit:10;}
	.st4{fill:#B8CC36;stroke:#385100;stroke-miterlimit:10;}
	.st5{fill:none;stroke:#385100;stroke-linecap:round;stroke-miterlimit:10;}
	.st6{fill:#B8CC36;stroke:#385100;stroke-linecap:round;stroke-miterlimit:10;}
	.st7{fill:#FFEB00;}
	.st8{fill:#86B068;}
	.st9{fill:#86B068;stroke:#506630;stroke-width:6;stroke-linecap:round;stroke-linejoin:round;stroke-miterlimit:10;}
	.st10{fill:#63B218;}
	.st11{fill:#63B218;stroke:#477B21;stroke-linecap:round;stroke-linejoin:round;stroke-miterlimit:10;}
	.st12{fill:none;stroke:#477B21;stroke-width:6;stroke-miterlimit:10;}
	.st13{fill:none;stroke:#A2D400;stroke-width:3;stroke-linecap:round;stroke-linejoin:round;stroke-miterlimit:10;}
	.st14{fill:#B8CC36;}
	.st15{fill:#658205;}
	.st16{display:none;fill:#D1A982;}
	.st17{fill:#974565;}
	.st18{fill:#5D283D;}
	.st19{fill:#00FFFF;}
	.st20{fill:#86B068;stroke:#506630;stroke-linecap:round;stroke-linejoin:round;stroke-miterlimit:10;}
	.st21{fill:#98B55E;stroke:#006837;stroke-linecap:round;stroke-linejoin:round;stroke-miterlimit:10;}
	.st22{fill:#B9CE6E;stroke:#838226;stroke-width:3;stroke-miterlimit:10;}
	.st23{fill:none;stroke:#718227;stroke-miterlimit:10;}
	.st24{fill:#B9CE6E;stroke:#838226;stroke-miterlimit:10;}
	.st25{fill:#E0E2D0;}
	.st26{fill:none;stroke:#718227;stroke-width:3;stroke-miterlimit:10;}
	.st27{fill:none;stroke:#FFFFFF;stroke-linecap:round;stroke-miterlimit:10;}
	.st28{fill:#C2D66B;}
	.st29{fill:#E6E8D4;}
	.st30{fill:#718227;}
	.st31{fill:#FFFFFF;}
	.st32{fill:#974565;stroke:#5D283D;stroke-miterlimit:10;}
	.st33{fill:none;stroke:#5D283D;stroke-width:3;stroke-miterlimit:10;}
	.st34{fill:none;stroke:#5D283D;stroke-miterlimit:10;}
	.st35{fill:#EDDBCD;}
	.st36{fill:#F4E1D4;}
	.st37{fill:none;stroke:#5D283D;stroke-width:8.1497;stroke-miterlimit:10;}
	.st38{fill:none;stroke:#5D283D;stroke-width:24.449;stroke-miterlimit:10;}
	.st39{fill:none;stroke:#89A037;stroke-width:3;stroke-linecap:round;stroke-linejoin:round;stroke-miterlimit:10;}
	.st40{fill:none;stroke:#89A037;stroke-width:2.4354;stroke-linecap:round;stroke-linejoin:round;stroke-miterlimit:10;}
	.st41{fill:none;stroke:#89A037;stroke-width:2.794;stroke-linecap:round;stroke-linejoin:round;stroke-miterlimit:10;}
	.st42{fill:none;stroke:#89A037;stroke-width:0.7186;stroke-linecap:round;stroke-linejoin:round;stroke-miterlimit:10;}
	.st43{fill:none;stroke:#385100;stroke-linecap:round;stroke-linejoin:round;stroke-miterlimit:10;}
	.st44{fill:none;stroke:#89A037;stroke-width:1.0534;stroke-linecap:round;stroke-linejoin:round;stroke-miterlimit:10;}
	.st45{opacity:0.8;fill:none;stroke:#658205;stroke-width:3;stroke-miterlimit:10;}
	.st46{opacity:0.6;fill:none;stroke:#658205;stroke-width:3;stroke-miterlimit:10;}
	.st47{opacity:0.4;fill:none;stroke:#658205;stroke-width:3;stroke-miterlimit:10;}
	.st48{opacity:0.2;fill:none;stroke:#658205;stroke-width:3;stroke-miterlimit:10;}
	.st49{fill:none;stroke:#D7E68B;stroke-width:3;stroke-linecap:round;stroke-linejoin:round;stroke-miterlimit:10;}
	.st50{fill:#385100;}
	.st51{fill:#769020;}
	.st52{fill:#869F29;}
	.st53{fill:#97AD31;}
	.st54{fill:#A7BB3A;}
	.st55{fill:#D7E68B;}
	.st56{fill:#88B043;stroke:#416F0F;stroke-miterlimit:10;}
	.st57{fill:none;stroke:#416F0F;stroke-width:0.8976;stroke-miterlimit:10;}
	.st58{fill:none;stroke:#416F0F;stroke-miterlimit:10;}
	.st59{fill:#E4F2C4;stroke:#416F0F;stroke-miterlimit:10;}
	.st60{fill:#97BF4B;}
	.st61{opacity:0.8;fill:none;stroke:#E4F2C4;stroke-width:3;stroke-linecap:round;stroke-linejoin:round;stroke-miterlimit:10;}
	.st62{opacity:0.6;fill:none;stroke:#E4F2C4;stroke-width:3;stroke-linecap:round;stroke-linejoin:round;stroke-miterlimit:10;}
	.st63{opacity:0.4;fill:none;stroke:#E4F2C4;stroke-width:3;stroke-linecap:round;stroke-linejoin:round;stroke-miterlimit:10;}
	.st64{opacity:0.2;fill:none;stroke:#E4F2C4;stroke-width:3;stroke-linecap:round;stroke-linejoin:round;stroke-miterlimit:10;}
	.st65{fill:#97BF4B;stroke:#416F0F;stroke-miterlimit:10;}
	.st66{fill:none;stroke:#FFFFFF;stroke-linecap:round;stroke-linejoin:round;stroke-miterlimit:10;}
	.st67{fill:#416F0F;}
	.st68{fill:#E4F2C4;}
	.st69{fill:#D5E7AF;}
	.st70{fill:#C5DD97;}
	.st71{fill:#B7D27F;}
	.st72{fill:#A7C869;}
	.st73{fill:none;stroke:#FFFFFF;stroke-width:7.954;stroke-linecap:round;stroke-linejoin:round;stroke-miterlimit:10;}
	.st74{fill:#A2D400;}
	.st75{fill:none;stroke:#477B21;stroke-linecap:round;stroke-linejoin:round;stroke-miterlimit:10;}
	.st76{fill:none;stroke:#A2D400;stroke-linecap:round;stroke-linejoin:round;stroke-miterlimit:10;}
	.st77{fill:none;stroke:#A4D173;stroke-width:3;stroke-miterlimit:10;}
	.st78{fill:none;stroke:#98CA63;stroke-width:3;stroke-miterlimit:10;}
	.st79{fill:none;stroke:#8CC354;stroke-width:3;stroke-miterlimit:10;}
	.st80{fill:none;stroke:#7FBD44;stroke-width:3;stroke-miterlimit:10;}
	.st81{fill:none;stroke:#72B636;stroke-width:3;stroke-miterlimit:10;}
	.st82{fill:#A4D173;}
	.st83{fill:#98CA63;}
	.st84{fill:#8CC354;}
	.st85{fill:#7FBD44;}
	.st86{fill:#72B636;}
	.st87{fill:#477B21;}
	.st88{fill:none;stroke:#506630;stroke-linecap:round;stroke-linejoin:round;stroke-miterlimit:10;}
	.st89{opacity:0.3;}
	.st90{fill:none;stroke:#506630;stroke-width:3;stroke-linecap:round;stroke-linejoin:round;stroke-miterlimit:10;}
	.st91{opacity:0.75;fill:none;stroke:#C98353;stroke-linejoin:round;stroke-miterlimit:10;}
	.st92{opacity:0.5;fill:none;stroke:#C98353;stroke-linejoin:round;stroke-miterlimit:10;}
	.st93{opacity:0.25;fill:none;stroke:#C98353;stroke-linejoin:round;stroke-miterlimit:10;}
	.st94{fill:#506630;}
	.st95{fill:#719155;}
	.st96{fill:#B78D5C;}
	.st97{fill:#A79861;}
	.st98{fill:#97A466;}
	.st99{fill:none;stroke:#FFBC00;stroke-linecap:round;stroke-miterlimit:10;}
	.st100{fill:#8F5B09;stroke:#462816;stroke-miterlimit:10;}
	.st101{fill:none;stroke:#462816;stroke-linecap:round;stroke-miterlimit:10;}
	.st102{fill:#8F5B09;}
	.st103{fill:#462816;}
	.st104{fill:#3E661B;}
	.st105{fill:none;stroke:#93BF54;stroke-width:3;stroke-linecap:round;stroke-linejoin:round;stroke-miterlimit:10;}
	.st106{fill:none;stroke:#6EA729;stroke-width:3;stroke-linecap:round;stroke-linejoin:round;stroke-miterlimit:10;}
	.st107{fill:none;stroke:#477C1F;stroke-width:3;stroke-linecap:round;stroke-linejoin:round;stroke-miterlimit:10;}
	.st108{fill:none;stroke:#93BF54;stroke-linecap:round;stroke-linejoin:round;stroke-miterlimit:10;}
	.st109{fill:none;stroke:#6EA729;stroke-linecap:round;stroke-linejoin:round;stroke-miterlimit:10;}
	.st110{fill:none;stroke:#477C1F;stroke-linecap:round;stroke-linejoin:round;stroke-miterlimit:10;}
	.st111{opacity:0.9;fill:none;stroke:#E4EDCA;stroke-width:3;stroke-linecap:round;stroke-linejoin:round;stroke-miterlimit:10;}
	.st112{fill:none;stroke:#E4EDCA;stroke-width:3;stroke-linecap:round;stroke-linejoin:round;stroke-miterlimit:10;}
	.st113{opacity:0.7;fill:none;stroke:#E4EDCA;stroke-width:3;stroke-linecap:round;stroke-linejoin:round;stroke-miterlimit:10;}
	.st114{opacity:0.5;fill:none;stroke:#E4EDCA;stroke-width:3;stroke-linecap:round;stroke-linejoin:round;stroke-miterlimit:10;}
	.st115{opacity:0.3;fill:none;stroke:#E4EDCA;stroke-width:3;stroke-linecap:round;stroke-linejoin:round;stroke-miterlimit:10;}
	.st116{opacity:0.1;fill:none;stroke:#E4EDCA;stroke-width:3;stroke-linecap:round;stroke-linejoin:round;stroke-miterlimit:10;}
	.st117{fill:none;stroke:#6EA729;stroke-miterlimit:10;}
	.st118{fill:#FCFCFC;}
	.st119{fill:#76B900;}
	.st120{fill:#285600;}
	.st121{fill:none;stroke:#457E00;stroke-miterlimit:10;}
	.st122{fill:none;stroke:#457E00;stroke-linecap:round;stroke-miterlimit:10;}
	.st123{fill:none;stroke:#B2E5A0;stroke-linecap:round;stroke-miterlimit:10;}
	.st124{fill:#76B900;stroke:#457E00;stroke-linecap:round;stroke-miterlimit:10;}
	.st125{opacity:0.75;fill:none;stroke:#457E00;stroke-width:3;stroke-miterlimit:10;}
	.st126{opacity:0.5;fill:none;stroke:#457E00;stroke-width:3;stroke-miterlimit:10;}
	.st127{opacity:0.25;fill:none;stroke:#457E00;stroke-width:3;stroke-miterlimit:10;}
	.st128{fill:none;stroke:#FFFFFF;stroke-width:7.7724;stroke-linecap:round;stroke-miterlimit:10;}
	.st129{fill:none;stroke:#6EA729;stroke-width:7.7724;stroke-miterlimit:10;}
	.st130{fill:#B2E5A0;}
	.st131{fill:#457E00;}
	.st132{fill:#538C17;}
	.st133{fill:#609A1A;}
	.st134{fill:#6CA81E;}
	.st135{fill:#214911;}
	.st136{fill:#93BF54;}
	.st137{fill:#6EA729;}
	.st138{fill:#477C1F;}
	.st139{opacity:0.15;fill:#CAD5B0;}
	.st140{opacity:0.3;fill:#CAD5B0;}
	.st141{opacity:0.55;fill:#CAD5B0;}
	.st142{opacity:0.7;fill:#CAD5B0;}
	.st143{opacity:0.85;fill:#CAD5B0;}
	.st144{fill:#CAD5B0;}
	.st145{fill:none;stroke:#FFFFFF;stroke-width:7.7371;stroke-linecap:round;stroke-linejoin:round;stroke-miterlimit:10;}
</style>
<rect x="-5070.9" y="-365.3" class="st16" width="6576.8" height="1230.5"/>
<path class="st135" d="M468.3,141.6c-3.2-2.4-7.1-3.4-11-2.8c-1.7,0.3-3.3,0.8-4.8,1.6c0.4-1.4,0.8-2.7,1.2-4.1
	c0.8-3.2-0.7-6.5-3.6-7.9c-1.8-0.9-3.8-0.9-5.6-0.1c0.4-1.8,0.8-3.5,1.1-5.4c0.7-3.8-0.2-7.7-2.5-10.8s-5.6-5.3-9.4-5.9
	c-3.8-0.7-7.7,0.2-10.8,2.5c-3.2,2.2-5.3,5.6-5.9,9.4c-0.4,2.2-0.9,4.3-1.6,6.4c-8,6.3-14,14.2-18,23.4c-2.8,3.3-5.4,6.9-7.5,10.7
	c-3.5,6.3-6,13-7.3,20c-1.1,1.1-2.3,2.2-3.5,3.2c1.1-4.3,1.7-8.7,1.9-13.2c0.2-4.2,1.1-8.4,2.8-12.4c1.6-4,3.9-7.6,6.7-10.7
	c6.1-6.8,10.7-14.6,13.7-23.2c1.3-3.7,1-7.6-0.7-11.1c-1.7-3.5-4.6-6.1-8.3-7.4c-3.7-1.3-7.6-1-11.1,0.7c-3.5,1.7-6.1,4.6-7.4,8.3
	c-1.7,4.9-4.3,9.4-7.9,13.3c1.8-7.5,5.5-14.4,10.8-20.2c2.5-2.7,2.4-6.9-0.1-9.5c-1.3-1.3-3.1-2.1-5-2.1c-1.9,0-3.7,0.8-4.9,2.2
	c-1.3,1.4-2.5,2.8-3.6,4.3c0.4-4,0.5-8,0.3-12.1c-0.2-3.9-2-7.4-4.9-10c-2.9-2.6-6.6-3.8-10.5-3.6c-6.4,0.4-11.6,4.9-13.1,10.8
	c-0.2,0-0.4,0-0.7,0c-1.8,0.2-3.4,1.1-4.6,2.6c-6.4,8.1-10.5,17.4-12.2,27.3c-0.8-6-0.2-12,1.7-17.6c2.6-7.6-1.5-15.8-9.1-18.4
	c-4.2-1.4-8.7-0.8-12.3,1.4c-0.3-1.9-0.7-3.9-1.2-5.8c-0.5-1.8-1.6-3.2-3.2-4.2c-0.9-0.5-2-0.8-3-0.9c-3.3-6.1-10.5-9.1-17.3-6.9
	c-7.3,2.4-11.4,10.1-9.5,17.6c1.2,4.6,1.6,9.2,1.2,13.7c0-2.4-0.2-4.9-0.5-7.3c-0.5-3.8-2.4-7.3-5.4-9.7c-3-2.4-6.8-3.5-10.7-3
	c-3.8,0.5-7.3,2.4-9.7,5.4c-2.4,3-3.5,6.8-3,10.7c0.7,5.6,0.1,11.2-1.7,16.7c-0.1,0.5-0.3,0.9-0.4,1.4c-3.8-8.8-4.8-18.3-2.9-27.7
	c0.7-3.5-1.4-7-4.8-8c-1.5-0.4-3.1-0.4-4.5,0.3c-0.3-0.6-0.5-1.1-0.8-1.7c-3.4-7-11.6-10.2-18.6-7.4c-3.8,1.5-6.7,4.5-8.1,8.3
	c-0.3,0.9-0.6,1.7-0.7,2.6c-0.7-0.6-1.6-1-2.5-1.2c-1.8-0.4-3.8-0.1-5.3,0.9c-3,2-3.9,6-2.1,9.2c5.4,9.4,7.3,20,5.7,30.6
	c-0.7-1.3-1.4-2.6-2.2-3.9c-2.9-4.9-4.8-10.2-5.4-15.8c-0.9-7.9-8.1-13.7-16.1-12.8c-6.1,0.7-10.9,5.1-12.4,10.7
	c-1.1-1.8-2.4-3.6-3.8-5.4c-1.1-1.5-2.9-2.4-4.7-2.6c-1.9-0.2-3.7,0.4-5.2,1.7c-2.7,2.4-3.1,6.5-0.8,9.4c6.7,8.6,10.1,19,9.9,29.9
	c0,1.1,0,2.3,0,3.4c-1.5-14.6-7.4-28-17.3-39c-2.7-2.9-6.3-4.6-10.3-4.8c-4-0.1-7.7,1.3-10.6,4.1c-5.5,5.4-5.8,14.4-0.6,20.2
	c6.1,6.8,9.6,15.2,10,24.3c0.3,5.9,1.4,11.7,3.2,17.3c0-0.1-0.1-0.1-0.1-0.2c-1.9-3.9-3.1-7.9-3.5-12.2c-1-9.3-3.9-18-8.4-26.1
	c-3.9-6.8-12.3-9.6-19.1-6.3c-3.7,1.8-6.4,4.9-7.6,8.8c-0.5,1.5-0.7,3.1-0.6,4.7c-0.4-0.3-0.7-0.6-1.1-0.9c-2.6-2.1-6.3-2.1-8.8,0
	c-0.3,0.3-0.6,0.5-0.8,0.8c0-0.1-0.1-0.3-0.1-0.4c-1.5-7.8-9.1-13-16.9-11.5c-3.8,0.7-7.1,2.9-9.3,6.1c-2.2,3.2-3,7.1-2.3,10.9
	c0.6,3,1.3,5.9,2.2,8.7c-2.3-0.3-4.6,0.5-6.1,2.2c-0.5,0.6-0.9,1.3-1.2,2c-3.3-0.2-6.6,0.7-9.3,2.6c-3.2,2.2-5.3,5.6-5.9,9.6
	c-0.6,3.8,0.3,7.8,2.5,10.9c2.4,3.4,4.2,7.2,5.4,11.3c2.2,7.2,5.6,14,10.1,20.1c4.5,6.1,10,11.4,16.2,15.6
	c7.6,5.2,13,12.5,15.6,21.3c2.2,7.2,5.6,14,10.1,20.1c4.5,6.1,10,11.4,16.2,15.6c7.6,5.2,13,12.5,15.6,21.3
	c2.2,7.2,5.6,14,10.1,20.1c4.5,6.1,10,11.4,16.2,15.6c7.5,5.1,13,12.7,15.7,21.3c2.2,7.2,5.6,14,10.1,20.1
	c4.5,6.1,10,11.4,16.2,15.6c2.7,1.9,5.2,4,7.4,6.5c1.4,3.1,4.2,7.8,6.2,11.3c0.9,1.5,1.9,3.2,2.1,3.7l5.9,13.3
	c6,13.5,18,23.4,32.2,26.4c3.8,0.8,7.8,1.2,11.9,1.2c7.1,0,15-2.6,23.5-7.9c8.9-5.5,15.8-14,19.3-24.1l3.1-8.9l0-0.1
	c2.6-8.8,8.1-16.2,15.7-21.3c6.3-4.2,11.7-9.5,16.2-15.6c4.5-6.1,7.9-12.9,10.1-20.1c2.6-8.7,8.2-16.2,15.7-21.3
	c6.2-4.2,11.7-9.5,16.2-15.6c4.5-6.1,7.9-12.9,10.1-20.1c2.6-8.7,8.2-16.2,15.7-21.3c6.3-4.2,11.7-9.5,16.2-15.6s7.9-12.9,10.1-20.1
	c2.6-8.7,8.2-16.2,15.7-21.3c6.3-4.2,11.7-9.5,16.2-15.6c4.5-6.1,7.9-12.9,10.1-20.1c1.2-4,3-7.8,5.4-11.2
	C475.8,155.2,474.5,146.4,468.3,141.6z M438,164.6c-1.2,4.1-3.1,7.9-5.7,11.3c-2.5,3.5-5.6,6.4-9.1,8.8c-2.6,1.8-5.1,3.7-7.5,5.8
	c1.2-3.3,2.8-6.4,4.8-9.4c2.9-4.3,6.4-8,10.5-11.1c2.6-1.9,5-4,7.2-6.2C438.2,164.1,438.1,164.4,438,164.6z M354,134.1
	c-0.3,5.1-1.4,10.1-3.4,14.9c-1,2.4-2.2,4.6-3.5,6.7c-0.1-3.8,0.3-7.7,1.4-11.4c1.2-4.1,3-8,5.5-11.4c0.1-0.1,0.1-0.2,0.2-0.3
	C354.1,133.1,354.1,133.6,354,134.1z M151.3,134c0.3,2.5,0.7,4.9,1.3,7.3C152,138.9,151.5,136.5,151.3,134z M169.8,148.5
	c-1.1-2.1-2-4.4-2.8-6.7c-1.6-4.9-2.4-10-2.3-15.1c0-0.1,0-0.2,0-0.3c2.1,3.6,3.6,7.5,4.5,11.6C169.8,141.5,170.1,145,169.8,148.5z
	 M86,140.9c-1.9-1.9-3.6-3.9-5-6.2C82.9,136.6,84.5,138.7,86,140.9z"/>
<path class="st135" d="M340.5,96.1c-5.6,7.4-9,15.9-9.9,25c0.7-1.1,1.4-2.2,2.1-3.2C337.4,111.3,340,103.9,340.5,96.1z"/>
<path class="st136" d="M247,424.4c-5.7,0-10.7-4.3-11.4-10.1c-0.9-7.2-0.5-14.4,1.1-21.5c2.2-9.6,1-19.4-3.4-28.2
	c-3.2-6.5-5.3-13.4-6.1-20.6c-0.9-7.2-0.5-14.4,1.1-21.5c2.2-9.6,1-19.4-3.4-28.2c-3.2-6.5-5.3-13.4-6.1-20.6
	c-0.9-7.2-0.5-14.4,1.1-21.5c2.2-9.6,1-19.4-3.4-28.2c-3.2-6.5-5.3-13.4-6.1-20.6c-0.9-7.2-0.5-14.4,1.1-21.5
	c2.2-9.6,1-19.4-3.4-28.2c-3.2-6.5-5.3-13.4-6.1-20.6c-0.9-7.2-0.5-14.4,1.1-21.5c2.2-9.6,1-19.4-3.4-28.2
	c-2.8-5.7-0.5-12.6,5.2-15.4c5.7-2.8,12.6-0.5,15.4,5.2c6.8,13.6,8.5,28.7,5.2,43.5c-1,4.5-1.3,9.1-0.7,13.7c0.5,4.6,1.9,9,3.9,13.1
	c6.8,13.6,8.5,28.7,5.2,43.5c-1,4.5-1.2,9.1-0.7,13.7c0.5,4.6,1.9,9,3.9,13.1c6.8,13.6,8.5,28.7,5.2,43.5c-1,4.5-1.3,9.1-0.7,13.7
	c0.5,4.6,1.9,9,3.9,13.1c6.8,13.6,8.5,28.7,5.2,43.5c-1,4.5-1.3,9.1-0.7,13.7c0.5,4.6,1.9,9,3.9,13.1c6.8,13.6,8.5,28.7,5.2,43.5
	c-1,4.5-1.3,9.1-0.7,13.7c0.8,6.3-3.8,12-10.1,12.8C247.9,424.4,247.4,424.4,247,424.4z"/>
<path class="st136" d="M257.1,424.4c-1,0-2.1-0.1-3.1-0.4c-6.1-1.7-9.7-8.1-7.9-14.2c2-7,5.1-13.5,9.3-19.4c5.7-8,8.4-17.5,7.8-27.4
	c-0.5-7.2,0.3-14.4,2.3-21.4c2-7,5.1-13.5,9.3-19.4c5.7-8,8.4-17.5,7.8-27.4c-0.5-7.2,0.3-14.4,2.3-21.4c2-7,5.1-13.5,9.3-19.4
	c5.7-8,8.4-17.5,7.8-27.4c-0.5-7.2,0.3-14.4,2.3-21.4c2-7,5.1-13.5,9.3-19.4c5.7-8,8.4-17.5,7.8-27.4c-0.5-7.2,0.3-14.4,2.3-21.4
	c2-7,5.1-13.5,9.3-19.4c5.7-8,8.4-17.5,7.8-27.4c-0.4-6.3,4.4-11.8,10.7-12.2c6.3-0.4,11.8,4.4,12.2,10.7c1,15.2-3.2,29.8-12,42.2
	c-2.7,3.7-4.6,7.9-5.9,12.3c-1.3,4.5-1.8,9-1.5,13.6c1,15.2-3.2,29.8-12,42.2c-2.7,3.7-4.6,7.9-5.9,12.3c-1.3,4.5-1.8,9-1.5,13.6
	c1,15.2-3.2,29.8-12,42.2c-2.7,3.7-4.6,7.9-5.9,12.3c-1.3,4.5-1.8,9-1.5,13.6c1,15.2-3.2,29.8-12,42.2c-2.7,3.7-4.6,7.9-5.9,12.3
	c-1.3,4.5-1.8,9-1.5,13.6c1,15.2-3.2,29.8-12,42.2c-2.7,3.7-4.6,7.9-5.9,12.3C266.7,421.1,262.1,424.4,257.1,424.4z"/>
<path class="st136" d="M250.2,424.4c-0.3,0-0.6,0-1,0c-6.3-0.5-11-6.1-10.5-12.4c0.6-7.2,2.4-14.2,5.4-20.8c4.1-9,4.9-18.8,2.3-28.4
	c-1.9-7-2.5-14.2-1.9-21.4c0.6-7.2,2.4-14.2,5.4-20.8c4.1-9,4.9-18.8,2.3-28.4c-1.9-7-2.5-14.2-1.9-21.4c0.6-7.2,2.4-14.2,5.4-20.8
	c4.1-9,4.9-18.8,2.3-28.4c-1.9-7-2.5-14.2-1.9-21.4s2.4-14.2,5.4-20.8c4.1-9,4.9-18.8,2.3-28.4c-1.9-7-2.5-14.2-1.9-21.4
	c0.6-7.2,2.4-14.2,5.4-20.8c4.1-9,4.9-18.8,2.3-28.4c-1.6-6.1,2-12.4,8.2-14.1c6.1-1.6,12.4,2,14.1,8.2c3.9,14.7,2.7,29.8-3.6,43.7
	c-1.9,4.2-3,8.6-3.4,13.3c-0.4,4.6,0,9.2,1.2,13.6c3.9,14.7,2.7,29.8-3.6,43.7c-1.9,4.2-3,8.6-3.4,13.3c-0.4,4.6,0,9.2,1.2,13.6
	c3.9,14.7,2.7,29.8-3.6,43.7c-1.9,4.2-3,8.6-3.4,13.3c-0.4,4.6,0,9.2,1.2,13.6c3.9,14.7,2.7,29.8-3.6,43.7c-1.9,4.2-3,8.6-3.4,13.3
	c-0.4,4.6,0,9.2,1.2,13.6c3.9,14.7,2.7,29.8-3.6,43.7c-1.9,4.2-3,8.6-3.4,13.3C261.1,419.8,256.1,424.4,250.2,424.4z"/>
<path class="st136" d="M264.1,424.4c-1.9,0-3.8-0.5-5.6-1.5c-5.5-3.1-7.5-10.1-4.4-15.7c3.5-6.3,8.1-12,13.5-16.7
	c7.4-6.5,12.2-15.1,13.9-24.8c1.2-7.1,3.6-13.9,7.2-20.3c3.5-6.3,8.1-12,13.5-16.7c7.4-6.5,12.2-15.1,13.9-24.8
	c1.2-7.1,3.6-13.9,7.2-20.3c3.5-6.3,8.1-12,13.5-16.7c7.4-6.5,12.2-15.1,13.9-24.8c1.2-7.1,3.6-13.9,7.2-20.3
	c3.5-6.3,8.1-12,13.5-16.7c7.4-6.5,12.2-15.1,13.9-24.8c1.2-7.1,3.6-13.9,7.2-20.3c3.5-6.3,8.1-12,13.5-16.7
	c7.4-6.5,12.2-15.1,13.9-24.8c1.1-6.3,7-10.5,13.3-9.4c6.3,1.1,10.5,7,9.4,13.3c-2.6,15-10,28.2-21.4,38.3c-3.5,3-6.3,6.6-8.6,10.6
	s-3.8,8.4-4.6,12.9c-2.6,15-10,28.2-21.4,38.3c-3.4,3-6.3,6.6-8.6,10.6s-3.8,8.4-4.6,12.9c-2.6,15-10,28.2-21.4,38.3
	c-3.4,3-6.3,6.6-8.6,10.6c-2.3,4-3.8,8.4-4.6,12.9c-2.6,15-10,28.2-21.4,38.3c-3.5,3-6.3,6.6-8.6,10.6c-2.3,4-3.8,8.4-4.6,12.9
	c-2.6,15-10,28.2-21.4,38.3c-3.5,3-6.3,6.6-8.6,10.6C272,422.3,268.1,424.4,264.1,424.4z"/>
<path class="st136" d="M236.6,424.4c-4.3,0-8.4-2.4-10.3-6.5c-3.2-6.5-5.2-13.5-6-20.6c-1.1-9.8-5.4-18.7-12.5-25.6
	c-5.2-5.1-9.4-10.9-12.6-17.4c-3.2-6.5-5.2-13.5-6-20.6c-1.1-9.8-5.4-18.7-12.5-25.6c-5.2-5.1-9.4-10.9-12.6-17.5
	c-3.2-6.5-5.2-13.5-6-20.6c-1.1-9.8-5.4-18.7-12.5-25.6c-5.2-5.1-9.4-10.9-12.6-17.5c-3.2-6.5-5.2-13.5-6-20.6
	c-1.1-9.8-5.4-18.7-12.5-25.6c-5.2-5.1-9.4-10.9-12.6-17.5c-3.2-6.5-5.2-13.5-6-20.6c-0.7-5.9-2.5-11.4-5.4-16.5
	c-3.2-5.5-1.3-12.5,4.2-15.7c5.5-3.2,12.5-1.3,15.7,4.2c4.5,7.8,7.3,16.4,8.4,25.4c0.5,4.6,1.8,9,3.8,13.1c2,4.2,4.7,7.9,8,11.1
	c10.9,10.7,17.5,24.3,19.2,39.4c0.5,4.6,1.8,9,3.8,13.1c2,4.2,4.7,7.9,8,11.1c10.9,10.7,17.5,24.3,19.2,39.4c0.5,4.6,1.8,9,3.8,13.1
	c2,4.2,4.7,7.9,8,11.1c10.9,10.7,17.5,24.3,19.2,39.4c0.5,4.6,1.8,9,3.8,13.1c2,4.2,4.7,7.9,8,11.1c10.9,10.7,17.5,24.3,19.2,39.4
	c0.5,4.6,1.8,9,3.8,13.1c2.8,5.7,0.4,12.6-5.3,15.4C240.1,424,238.3,424.4,236.6,424.4z"/>
<path class="st137" d="M239.5,424.4c-5.4,0-10.2-3.8-11.3-9.2c-0.9-4.5-2.6-8.8-4.9-12.8c-7.8-13-10.8-27.9-8.7-43
	c0.6-4.5,0.5-9.1-0.4-13.7c-0.9-4.5-2.6-8.8-4.9-12.8c-7.8-13-10.8-27.9-8.7-43c0.6-4.5,0.5-9.1-0.4-13.7c-0.9-4.5-2.6-8.8-4.9-12.8
	c-7.8-13-10.8-27.9-8.7-43c0.6-4.5,0.5-9.1-0.4-13.7c-0.9-4.5-2.6-8.8-4.9-12.8c-7.8-13-10.8-27.9-8.7-43c0.6-4.5,0.5-9.1-0.4-13.7
	c-0.9-4.5-2.6-8.8-4.9-12.8c-4.9-8.1-7.9-16.9-8.9-26.2c-0.7-6.3,3.8-12,10.1-12.7c6.3-0.7,12,3.8,12.7,10.1c0.7,6,2.6,11.7,5.8,17
	c3.7,6.2,6.3,12.9,7.8,20c1.4,7.1,1.7,14.4,0.6,21.5c-1.4,9.8,0.6,19.4,5.6,27.9c3.7,6.2,6.3,12.9,7.8,20c1.4,7.1,1.7,14.3,0.6,21.5
	c-1.4,9.8,0.6,19.4,5.6,27.9c3.7,6.2,6.3,12.9,7.8,20c1.4,7.1,1.7,14.3,0.6,21.5c-1.4,9.8,0.6,19.4,5.6,27.9
	c3.7,6.2,6.3,12.9,7.8,20.1c1.4,7.1,1.7,14.3,0.6,21.5c-1.4,9.8,0.6,19.4,5.6,27.9c3.7,6.2,6.3,12.9,7.8,20c1.3,6.2-2.8,12.3-9,13.6
	C241,424.3,240.3,424.4,239.5,424.4z"/>
<path class="st137" d="M232.6,424.4c-4,0-7.8-2.1-10-5.7c-2.3-4-5.3-7.5-8.8-10.5c-11.6-9.9-19.2-23-22-37.9
	c-0.8-4.5-2.4-8.8-4.8-12.8c-2.3-4-5.3-7.5-8.8-10.5c-11.6-9.9-19.2-23-22-37.9c-0.8-4.5-2.4-8.8-4.8-12.8c-2.3-4-5.3-7.5-8.8-10.5
	c-11.6-9.9-19.2-23-22-37.9c-0.8-4.5-2.4-8.8-4.8-12.8c-2.3-4-5.3-7.5-8.8-10.5c-11.6-9.9-19.2-23-22-37.9
	c-0.8-4.5-2.4-8.8-4.8-12.8c-2.3-4-5.3-7.5-8.8-10.5c-11.6-9.9-19.2-23-22-37.9c-1.2-6.2,3-12.3,9.2-13.4c6.2-1.2,12.3,3,13.4,9.2
	c1.8,9.7,6.7,18.2,14.3,24.6c5.5,4.7,10.1,10.2,13.8,16.5c3.6,6.3,6.2,13.1,7.5,20.2c1.8,9.7,6.7,18.2,14.3,24.6
	c5.5,4.7,10.1,10.2,13.8,16.5c3.6,6.3,6.2,13.1,7.5,20.2c1.8,9.7,6.7,18.2,14.3,24.6c5.5,4.7,10.1,10.2,13.8,16.5
	c3.6,6.3,6.2,13.1,7.5,20.2c1.8,9.7,6.7,18.2,14.3,24.6c5.5,4.7,10.1,10.2,13.8,16.5c3.6,6.3,6.2,13.1,7.5,20.2
	c1.8,9.7,6.7,18.2,14.3,24.6c5.5,4.7,10.1,10.2,13.8,16.5c3.2,5.5,1.3,12.5-4.2,15.7C236.6,423.9,234.6,424.4,232.6,424.4z"/>
<path class="st137" d="M276.4,424.4c-2.4,0-4.8-0.7-6.8-2.2c-5.1-3.8-6.2-11-2.5-16.1c2.7-3.7,4.8-7.8,6.1-12.2
	c4.4-14.6,13.4-26.8,26-35.3c3.8-2.6,7.1-5.8,9.8-9.5c2.7-3.7,4.8-7.8,6.1-12.2c4.4-14.6,13.4-26.8,26-35.3c3.8-2.6,7.1-5.8,9.8-9.5
	c2.7-3.7,4.8-7.8,6.1-12.2c4.4-14.6,13.4-26.8,26-35.3c3.8-2.6,7.1-5.8,9.8-9.5c2.7-3.7,4.8-7.8,6.1-12.2
	c4.4-14.6,13.4-26.8,26-35.3c3.8-2.6,7.1-5.8,9.8-9.5c2.7-3.7,4.8-7.8,6.1-12.2c2.1-6.8,5.2-13.2,9.2-18.9c3.7-5.2,10.8-6.4,16-2.8
	c5.2,3.7,6.4,10.8,2.8,16c-2.6,3.7-4.6,7.9-6,12.3c-2.1,6.9-5.3,13.4-9.6,19.2c-4.3,5.9-9.5,10.9-15.5,14.9
	c-8.2,5.5-14,13.5-16.8,22.9c-2.1,6.9-5.3,13.4-9.6,19.2c-4.3,5.9-9.5,10.9-15.5,14.9c-8.2,5.5-14,13.5-16.8,22.9
	c-2.1,6.9-5.3,13.4-9.6,19.2c-4.3,5.9-9.5,10.9-15.5,14.9c-8.2,5.5-14,13.5-16.8,22.9c-2.1,6.9-5.3,13.4-9.6,19.2
	c-4.3,5.8-9.5,10.9-15.5,14.9c-8.2,5.5-14,13.5-16.8,22.9c-2.1,6.9-5.3,13.4-9.6,19.2C283.4,422.8,279.9,424.4,276.4,424.4z"/>
<path class="st138" d="M249.2,424.4c-4.5,0-8.8-2.7-10.6-7.1c-2.8-6.7-4.4-13.8-4.8-21c-0.5-9.9-4.3-18.9-10.9-26.3
	c-4.8-5.4-8.7-11.5-11.5-18.2c-2.8-6.7-4.4-13.8-4.8-21c-0.5-9.9-4.3-18.9-10.9-26.3c-4.8-5.4-8.7-11.5-11.5-18.2
	c-2.8-6.7-4.4-13.8-4.8-21c-0.5-9.9-4.3-18.9-10.9-26.3c-4.8-5.4-8.7-11.5-11.5-18.2c-2.8-6.7-4.4-13.8-4.8-21
	c-0.5-9.9-4.3-18.9-10.9-26.3c-4.8-5.4-8.7-11.5-11.5-18.2c-2.8-6.7-4.4-13.8-4.8-21c-0.5-9.9-4.3-18.9-10.9-26.3
	c-4.3-4.7-3.9-12,0.8-16.2c4.7-4.3,12-3.9,16.2,0.8c10.2,11.3,16,25.3,16.8,40.5c0.2,4.6,1.3,9.1,3,13.3c1.8,4.3,4.2,8.2,7.3,11.6
	c10.2,11.3,16,25.3,16.8,40.5c0.2,4.6,1.3,9.1,3,13.3c1.8,4.3,4.2,8.2,7.3,11.6c10.2,11.3,16,25.3,16.8,40.5c0.2,4.6,1.3,9.1,3,13.3
	c1.8,4.3,4.2,8.2,7.3,11.6c10.2,11.3,16,25.3,16.8,40.5c0.2,4.6,1.3,9.1,3,13.3c1.8,4.3,4.2,8.2,7.3,11.6
	c10.2,11.3,16,25.3,16.8,40.5c0.2,4.6,1.3,9.1,3,13.3c2.4,5.9-0.4,12.6-6.2,15C252.1,424.1,250.6,424.4,249.2,424.4z"/>
<path class="st138" d="M262.9,424.4c-1.5,0-2.9-0.3-4.4-0.9c-5.9-2.4-8.7-9.1-6.3-15c2.8-6.7,6.6-12.9,11.4-18.2
	c6.6-7.4,10.3-16.5,10.8-26.3c0.3-7.2,1.9-14.3,4.7-21c2.8-6.7,6.6-12.9,11.4-18.2c6.6-7.4,10.3-16.5,10.8-26.3
	c0.3-7.2,1.9-14.3,4.7-21c2.8-6.7,6.6-12.9,11.4-18.2c6.6-7.4,10.3-16.5,10.8-26.3c0.3-7.2,1.9-14.3,4.7-21
	c2.8-6.7,6.6-12.9,11.4-18.2c6.6-7.4,10.3-16.5,10.8-26.3c0.3-7.2,1.9-14.3,4.7-21c2.8-6.7,6.6-12.8,11.4-18.2
	c3.8-4.3,6.7-9.1,8.5-14.4c2.1-6,8.6-9.2,14.6-7.1c6,2.1,9.2,8.6,7.1,14.6c-2.8,8.2-7.2,15.7-13.1,22.2c-3.1,3.4-5.5,7.3-7.3,11.6
	c-1.8,4.3-2.8,8.8-3,13.4c-0.7,15.2-6.5,29.2-16.6,40.6c-3.1,3.4-5.5,7.3-7.3,11.6c-1.8,4.3-2.8,8.8-3,13.4
	c-0.7,15.2-6.5,29.2-16.6,40.6c-3.1,3.4-5.5,7.3-7.3,11.6c-1.8,4.3-2.8,8.8-3,13.4c-0.7,15.2-6.5,29.2-16.6,40.6
	c-3.1,3.4-5.5,7.3-7.3,11.6s-2.8,8.8-3,13.4c-0.7,15.2-6.5,29.2-16.6,40.6c-3.1,3.4-5.5,7.3-7.3,11.6
	C271.8,421.7,267.5,424.4,262.9,424.4z"/>
<path class="st138" d="M256.4,424.4c-6.2,0-11.3-4.9-11.5-11.2c-0.2-7.3,0.8-14.4,3-21.3c3-9.4,2.7-19.2-0.8-28.4
	c-2.6-6.7-4-13.8-4.3-21.1c-0.2-7.3,0.8-14.4,3-21.3c3-9.4,2.8-19.2-0.8-28.4c-2.6-6.7-4-13.8-4.3-21.1c-0.2-7.3,0.8-14.4,3-21.3
	c3-9.4,2.8-19.2-0.8-28.4c-2.6-6.7-4-13.8-4.3-21.1c-0.2-7.3,0.8-14.4,3-21.3c3-9.4,2.8-19.2-0.8-28.4c-2.6-6.7-4-13.8-4.3-21.1
	c-0.2-7.3,0.8-14.4,3-21.3c1.9-5.9,2.5-12,1.8-18c-0.7-6.3,3.8-12,10.1-12.8c6.3-0.8,12,3.8,12.8,10.1c1.1,9.4,0.2,18.7-2.7,27.8
	c-1.4,4.4-2.1,8.9-1.9,13.5c0.1,4.6,1,9.1,2.7,13.4c5.5,14.2,5.9,29.3,1.3,43.8c-1.4,4.4-2.1,8.9-1.9,13.5c0.1,4.6,1,9.1,2.7,13.4
	c5.5,14.2,5.9,29.3,1.3,43.8c-1.4,4.4-2.1,8.9-1.9,13.5c0.1,4.6,1,9.1,2.7,13.4c5.5,14.2,5.9,29.3,1.3,43.8
	c-1.4,4.4-2.1,8.9-1.9,13.6c0.1,4.6,1,9.1,2.7,13.4c5.5,14.2,5.9,29.3,1.3,43.8c-1.4,4.4-2.1,8.9-1.9,13.6
	c0.2,6.4-4.8,11.6-11.2,11.8C256.6,424.4,256.5,424.4,256.4,424.4z"/>
<path class="st138" d="M223.9,424.4c-3.5,0-7-1.6-9.3-4.7c-4.3-5.9-7.5-12.3-9.6-19.2c-2.8-9.5-8.7-17.4-16.8-22.9
	c-6-4-11.2-9.1-15.5-14.9c-4.3-5.9-7.5-12.3-9.6-19.2c-2.8-9.5-8.7-17.4-16.8-22.9c-6-4.1-11.2-9.1-15.5-14.9
	c-4.3-5.9-7.5-12.3-9.6-19.2c-2.8-9.5-8.7-17.4-16.8-22.9c-6-4-11.2-9.1-15.5-14.9c-4.3-5.9-7.5-12.3-9.6-19.2
	c-2.8-9.5-8.7-17.4-16.8-22.9c-6-4-11.2-9.1-15.5-14.9c-4.3-5.9-7.5-12.3-9.6-19.2c-1.3-4.5-3.4-8.6-6-12.4
	c-3.7-5.2-2.5-12.4,2.7-16c5.2-3.7,12.4-2.5,16,2.7c4.1,5.8,7.2,12.2,9.3,19c1.3,4.4,3.4,8.5,6.1,12.2c2.7,3.7,6.1,6.9,9.8,9.5
	c12.6,8.5,21.6,20.8,26,35.3c1.3,4.4,3.4,8.5,6.1,12.2c2.7,3.7,6.1,6.9,9.8,9.5c12.6,8.5,21.6,20.8,26,35.3
	c1.3,4.4,3.4,8.5,6.1,12.2c2.7,3.7,6.1,6.9,9.8,9.5c12.6,8.5,21.6,20.8,26,35.3c1.3,4.4,3.4,8.5,6.1,12.2s6.1,6.9,9.8,9.5
	c12.6,8.5,21.6,20.8,26,35.3c1.3,4.4,3.4,8.5,6.1,12.2c3.8,5.1,2.7,12.3-2.5,16.1C228.6,423.7,226.2,424.4,223.9,424.4z"/>
<path class="st137" d="M247.1,424.4c-0.8,0-1.6-0.1-2.4-0.2c-6.2-1.3-10.2-7.4-8.9-13.6c1-4.5,1.1-9.1,0.5-13.7
	c-2-15.1,1.1-29.9,9-42.9c2.4-3.9,4.1-8.2,5-12.7c1-4.5,1.1-9.1,0.5-13.7c-2-15.1,1.1-29.9,9-42.9c2.4-3.9,4.1-8.2,5-12.7
	c1-4.5,1.1-9.1,0.5-13.7c-2-15.1,1.1-29.9,9-42.9c2.4-3.9,4.1-8.2,5-12.7c1-4.5,1.1-9.1,0.5-13.7c-2-15.1,1.1-29.9,9-42.9
	c2.4-3.9,4.1-8.2,5-12.7c1-4.5,1.1-9.1,0.5-13.7c-1.4-10.1-0.4-20,2.8-29.6c2-6,8.6-9.3,14.6-7.2c6,2,9.3,8.6,7.2,14.6
	c-2.1,6.2-2.7,12.6-1.8,19.2c1,7.2,0.7,14.4-0.8,21.5c-1.5,7.1-4.2,13.8-7.9,20c-5.2,8.4-7.2,18-5.9,27.8c1,7.1,0.7,14.4-0.8,21.5
	c-1.5,7.1-4.2,13.8-7.9,20c-5.2,8.4-7.2,18-5.9,27.8c1,7.1,0.7,14.4-0.8,21.5c-1.5,7.1-4.2,13.8-7.9,20c-5.2,8.4-7.2,18-5.9,27.8
	c1,7.2,0.7,14.4-0.8,21.5c-1.5,7.1-4.2,13.8-7.9,20c-5.2,8.4-7.2,18-5.9,27.8c1,7.1,0.7,14.4-0.8,21.5
	C257.2,420.7,252.5,424.4,247.1,424.4z"/>
<path class="st136" d="M247,416.7c-1.2,0-2.3-0.5-3.1-1.5c-3.8-5.1-6.7-10.8-8.6-16.8c-3.4-11.1-10.4-20.4-20.1-26.9
	c-5.3-3.5-9.9-7.9-13.7-13c-3.8-5.1-6.7-10.8-8.6-16.8c-3.4-11.1-10.4-20.4-20.1-26.9c-5.3-3.5-9.9-7.9-13.7-13
	c-3.8-5.1-6.7-10.8-8.6-16.8c-3.4-11.1-10.4-20.4-20.1-26.9c-5.3-3.5-9.9-7.9-13.7-13c-3.8-5.1-6.7-10.8-8.6-16.8
	c-3.4-11.1-10.4-20.4-20.1-26.9c-5.3-3.5-9.9-7.9-13.7-13c-3.8-5.1-6.7-10.8-8.6-16.8c-3.4-11.1-10.4-20.4-20.1-26.9
	c-1.8-1.2-2.2-3.6-1.1-5.3c1.2-1.8,3.6-2.2,5.3-1.1c11.2,7.5,19.2,18.2,23.1,31c1.6,5.2,4.1,10.1,7.4,14.5
	c3.3,4.4,7.3,8.2,11.8,11.2c11.2,7.5,19.2,18.2,23.1,31c1.6,5.2,4.1,10.1,7.4,14.5c3.3,4.4,7.3,8.2,11.8,11.2
	c11.2,7.5,19.2,18.2,23.1,31c1.6,5.2,4.1,10.1,7.4,14.5c3.3,4.4,7.3,8.2,11.8,11.2c11.2,7.5,19.2,18.2,23.1,31
	c1.6,5.2,4.1,10.1,7.4,14.5c3.3,4.4,7.3,8.2,11.8,11.2c11.2,7.5,19.2,18.2,23.1,31c1.6,5.2,4.1,10.1,7.4,14.5
	c1.3,1.7,0.9,4.1-0.8,5.4C248.6,416.5,247.8,416.7,247,416.7z"/>
<path class="st136" d="M249.6,416.7c-1.6,0-3.1-1-3.6-2.6c-2-6.1-3-12.3-2.8-18.7c0.2-11.7-3.4-22.7-10.6-31.9
	c-3.9-5-6.9-10.6-8.9-16.7c-2-6.1-3-12.3-2.8-18.7c0.2-11.7-3.4-22.7-10.6-31.9c-3.9-5-6.9-10.6-8.9-16.7c-2-6.1-3-12.3-2.8-18.7
	c0.2-11.7-3.4-22.7-10.6-31.9c-3.9-5-6.9-10.6-8.9-16.7c-2-6.1-3-12.3-2.8-18.7c0.2-11.7-3.4-22.7-10.6-31.9
	c-3.9-5-6.9-10.6-8.9-16.7c-2-6.1-3-12.3-2.8-18.7c0.2-11.7-3.4-22.7-10.6-31.9c-1.3-1.7-1-4.1,0.7-5.4c1.7-1.3,4.1-1,5.4,0.7
	c8.3,10.6,12.5,23.3,12.2,36.7c-0.1,5.5,0.7,10.9,2.4,16.1c1.7,5.2,4.3,10.1,7.7,14.4c8.3,10.6,12.5,23.3,12.2,36.7
	c-0.1,5.5,0.7,10.9,2.4,16.1c1.7,5.2,4.3,10.1,7.7,14.4c8.3,10.6,12.5,23.3,12.2,36.7c-0.1,5.5,0.7,10.9,2.4,16.1
	c1.7,5.2,4.3,10.1,7.7,14.4c8.3,10.6,12.5,23.3,12.2,36.7c-0.1,5.5,0.7,10.9,2.4,16.1c1.7,5.2,4.3,10.1,7.7,14.4
	c8.3,10.6,12.5,23.3,12.2,36.7c-0.1,5.5,0.7,10.9,2.4,16.1c0.7,2-0.4,4.2-2.4,4.8C250.4,416.6,250,416.7,249.6,416.7z"/>
<path class="st136" d="M257.4,416.7c-0.7,0-1.5-0.2-2.1-0.6c-1.8-1.2-2.2-3.6-1.1-5.3c3.5-5.3,7.9-9.9,13-13.7
	c9.3-7,15.8-16.6,18.7-27.9c1.6-6.1,4.1-11.9,7.7-17.3c3.5-5.3,7.9-9.9,13-13.7c9.3-7,15.8-16.6,18.7-27.9c1.6-6.1,4.1-12,7.7-17.3
	c3.5-5.3,7.9-9.9,13-13.7c9.3-7,15.8-16.6,18.7-27.9c1.6-6.1,4.1-12,7.7-17.3c3.5-5.3,7.9-9.9,13-13.7c9.4-7,15.8-16.6,18.7-27.9
	c1.6-6.1,4.1-12,7.7-17.3c3.5-5.3,7.9-9.9,13-13.7c9.3-7,15.8-16.6,18.7-27.9c0.5-2.1,2.6-3.3,4.7-2.8c2.1,0.5,3.3,2.6,2.8,4.7
	c-3.3,13-10.7,24.2-21.5,32.2c-4.4,3.3-8.2,7.2-11.2,11.8c-3.1,4.6-5.3,9.6-6.6,14.9c-3.3,13-10.7,24.2-21.5,32.2
	c-4.4,3.3-8.2,7.2-11.2,11.8c-3.1,4.6-5.3,9.6-6.6,14.9c-3.3,13-10.7,24.2-21.5,32.2c-4.4,3.3-8.2,7.2-11.2,11.8
	c-3.1,4.6-5.3,9.6-6.6,14.9c-3.3,13-10.7,24.2-21.5,32.2c-4.4,3.3-8.2,7.2-11.2,11.8c-3.1,4.6-5.3,9.6-6.6,14.9
	c-3.3,13-10.7,24.2-21.5,32.2c-4.4,3.3-8.2,7.2-11.2,11.8C259.9,416.1,258.7,416.7,257.4,416.7z"/>
<path class="st137" d="M239.1,416.7c-0.7,0-1.4-0.2-2.1-0.6c-1.8-1.2-2.3-3.5-1.1-5.3c3-4.6,5.2-9.6,6.5-15
	c3.1-13.1,10.5-24.3,21.1-32.4c4.3-3.3,8.1-7.3,11.1-11.9c3-4.6,5.2-9.6,6.5-15c3.1-13.1,10.5-24.3,21.1-32.4
	c4.3-3.3,8.1-7.3,11.1-11.9c3-4.6,5.2-9.6,6.5-15c3.1-13.1,10.5-24.3,21.1-32.4c4.3-3.3,8.1-7.3,11.1-11.9c3-4.6,5.2-9.6,6.5-15
	c3.1-13.1,10.5-24.3,21.1-32.4c4.3-3.3,8.1-7.3,11.1-11.9c3-4.6,5.2-9.6,6.5-15c3.1-13.1,10.5-24.3,21.1-32.4c1.7-1.3,4.1-1,5.4,0.7
	c1.3,1.7,1,4.1-0.7,5.4c-9.3,7.1-15.6,16.8-18.3,28.1c-1.5,6.2-4,12-7.5,17.3c-3.5,5.3-7.8,10-12.8,13.9
	c-9.3,7.1-15.6,16.8-18.3,28.1c-1.5,6.2-4,12-7.5,17.3c-3.5,5.3-7.8,10-12.8,13.9c-9.3,7.1-15.6,16.8-18.3,28.1
	c-1.5,6.2-4,12-7.5,17.3c-3.5,5.3-7.8,10-12.8,13.9c-9.3,7.1-15.6,16.8-18.3,28.1c-1.5,6.2-4,12-7.5,17.3s-7.8,10-12.8,13.9
	c-9.3,7.1-15.6,16.8-18.3,28.1c-1.5,6.2-4,12-7.5,17.3C241.6,416.1,240.4,416.7,239.1,416.7z"/>
<path class="st137" d="M233,416.7c-0.4,0-0.8-0.1-1.2-0.2c-2-0.7-3.1-2.9-2.4-4.9c1.8-5.2,2.6-10.6,2.5-16.1
	c-0.2-13.4,4.1-26.1,12.4-36.7c3.4-4.3,6-9.1,7.8-14.3c1.8-5.2,2.6-10.6,2.5-16.1c-0.2-13.4,4.1-26.1,12.4-36.7
	c3.4-4.3,6-9.1,7.8-14.3c1.8-5.2,2.6-10.6,2.5-16.1c-0.2-13.4,4.1-26.1,12.4-36.7c3.4-4.3,6-9.1,7.8-14.3c1.8-5.2,2.6-10.6,2.5-16.1
	c-0.2-13.4,4.1-26.1,12.4-36.7c3.4-4.3,6-9.1,7.8-14.3c1.8-5.2,2.6-10.6,2.5-16.1c-0.2-13.4,4.1-26.1,12.4-36.7
	c1.3-1.7,3.7-1.9,5.4-0.6c1.7,1.3,1.9,3.7,0.6,5.4c-7.2,9.2-10.9,20.2-10.8,31.8c0.1,6.3-0.9,12.6-2.9,18.7c-2,6-5.1,11.6-9,16.6
	c-7.2,9.2-10.9,20.2-10.8,31.8c0.1,6.3-0.9,12.6-2.9,18.7c-2,6-5.1,11.6-9,16.6c-7.2,9.2-10.9,20.2-10.8,31.8
	c0.1,6.3-0.9,12.6-2.9,18.7c-2,6-5.1,11.6-9,16.6c-7.2,9.2-10.9,20.2-10.8,31.8c0.1,6.3-0.9,12.6-2.9,18.7c-2,6-5.1,11.6-9,16.6
	c-7.2,9.2-10.9,20.2-10.8,31.8c0.1,6.3-0.9,12.6-2.9,18.7C236.1,415.7,234.6,416.7,233,416.7z"/>
<path class="st137" d="M278.1,416.7c-1.9,0-3.5-1.4-3.8-3.3c-0.8-5.5-2.5-10.7-5-15.5c-6.3-11.9-8.2-25.1-5.6-38.3
	c1.1-5.4,1.2-10.8,0.4-16.3c-0.8-5.4-2.5-10.7-5-15.5c-6.3-11.9-8.2-25.1-5.6-38.3c1.1-5.4,1.2-10.8,0.4-16.3
	c-0.8-5.5-2.5-10.7-5-15.5c-6.3-11.9-8.2-25.1-5.6-38.3c1.1-5.4,1.2-10.8,0.4-16.3c-0.8-5.4-2.5-10.7-5-15.5
	c-6.3-11.9-8.2-25.1-5.6-38.3c1.1-5.4,1.2-10.8,0.4-16.3c-0.8-5.4-2.5-10.7-5-15.5c-6.3-11.9-8.2-25.1-5.6-38.3
	c0.4-2.1,2.4-3.4,4.5-3c2.1,0.4,3.4,2.4,3,4.5c-2.3,11.4-0.6,22.9,4.8,33.2c3,5.6,4.9,11.7,5.8,18c0.9,6.3,0.8,12.7-0.5,18.9
	c-2.3,11.4-0.6,22.9,4.8,33.2c3,5.6,4.9,11.7,5.8,18s0.8,12.7-0.5,18.9c-2.3,11.4-0.6,22.9,4.8,33.2c3,5.6,4.9,11.7,5.8,18
	c0.9,6.3,0.8,12.7-0.5,18.9c-2.3,11.4-0.6,22.9,4.8,33.2c3,5.6,4.9,11.7,5.8,18c0.9,6.3,0.8,12.7-0.5,18.9
	c-2.3,11.4-0.6,22.9,4.8,33.2c3,5.6,4.9,11.7,5.8,18c0.3,2.1-1.1,4-3.2,4.3C278.5,416.7,278.3,416.7,278.1,416.7z"/>
<path class="st138" d="M249.4,416.7c-1.8,0-3.4-1.3-3.8-3.1c-1.1-6.3-1.2-12.6-0.2-18.9c1.9-11.5-0.2-22.9-6-33
	c-3.2-5.5-5.3-11.5-6.5-17.7c-1.1-6.3-1.2-12.6-0.2-18.9c1.9-11.5-0.2-22.9-6-33c-3.2-5.5-5.3-11.5-6.5-17.7
	c-1.1-6.3-1.2-12.6-0.2-18.9c1.9-11.5-0.2-22.9-6-33c-3.2-5.5-5.3-11.5-6.5-17.7c-1.1-6.3-1.2-12.6-0.2-18.9c1.9-11.5-0.2-22.9-6-33
	c-3.2-5.5-5.3-11.5-6.5-17.7c-1.1-6.3-1.2-12.6-0.2-18.9c1.9-11.5-0.2-22.9-6-33c-1.1-1.8-0.4-4.2,1.4-5.2c1.8-1.1,4.2-0.4,5.2,1.4
	c6.7,11.6,9.1,24.8,7,38.1c-0.9,5.4-0.8,10.9,0.2,16.3c1,5.4,2.9,10.6,5.6,15.3c6.7,11.6,9.1,24.8,7,38.1
	c-0.9,5.4-0.8,10.9,0.2,16.3c1,5.4,2.9,10.6,5.6,15.3c6.7,11.6,9.1,24.8,7,38.1c-0.9,5.4-0.8,10.9,0.2,16.3s2.9,10.6,5.6,15.3
	c6.7,11.6,9.1,24.8,7,38.1c-0.9,5.4-0.8,10.9,0.2,16.3c1,5.4,2.9,10.6,5.6,15.3c6.7,11.7,9.1,24.8,7,38.1
	c-0.9,5.4-0.8,10.9,0.2,16.3c0.4,2.1-1,4.1-3.1,4.5C249.8,416.7,249.6,416.7,249.4,416.7z"/>
<path class="st138" d="M263,416.7c-0.1,0-0.2,0-0.3,0c-2.1-0.2-3.7-2-3.5-4.1c0.5-6.4,2.1-12.5,4.7-18.3c4.8-10.6,5.7-22.2,2.7-33.5
	c-1.6-6.1-2.2-12.5-1.7-18.8c0.5-6.4,2.1-12.5,4.7-18.3c4.8-10.6,5.7-22.2,2.7-33.5c-1.6-6.1-2.2-12.5-1.7-18.8
	c0.5-6.4,2.1-12.5,4.7-18.3c4.8-10.6,5.7-22.2,2.7-33.5c-1.6-6.1-2.2-12.5-1.7-18.8c0.5-6.4,2.1-12.5,4.7-18.3
	c4.8-10.6,5.7-22.2,2.7-33.5c-1.6-6.1-2.2-12.5-1.7-18.8c0.5-6.4,2.1-12.5,4.7-18.3c4.8-10.6,5.7-22.2,2.7-33.5
	c-0.5-2,0.7-4.1,2.7-4.7c2.1-0.5,4.1,0.7,4.7,2.7c3.5,13,2.4,26.3-3.1,38.6c-2.2,5-3.6,10.3-4,15.8c-0.4,5.5,0,10.9,1.5,16.2
	c3.5,13,2.4,26.3-3.1,38.6c-2.2,5-3.6,10.3-4,15.8c-0.4,5.5,0,10.9,1.5,16.2c3.5,13,2.4,26.3-3.1,38.6c-2.2,5-3.6,10.3-4,15.8
	c-0.4,5.5,0,10.9,1.5,16.2c3.5,13,2.4,26.3-3.1,38.6c-2.2,5-3.6,10.3-4,15.8c-0.4,5.5,0,10.9,1.5,16.2c3.5,13,2.4,26.3-3.1,38.6
	c-2.2,5-3.6,10.3-4,15.8C266.7,415.2,265,416.7,263,416.7z"/>
<path class="st138" d="M255.7,416.7c-1.3,0-2.5-0.6-3.3-1.8c-3.4-5.4-5.8-11.3-7.1-17.5c-2.5-11.4-8.6-21.3-17.7-28.5
	c-5-4-9.2-8.7-12.5-14.1c-3.4-5.4-5.8-11.3-7.1-17.5c-2.5-11.4-8.6-21.3-17.7-28.5c-5-4-9.2-8.7-12.5-14.1
	c-3.4-5.4-5.8-11.3-7.1-17.5c-2.5-11.4-8.6-21.3-17.7-28.5c-5-4-9.2-8.7-12.5-14.1c-3.4-5.4-5.8-11.3-7.1-17.5
	c-2.5-11.4-8.6-21.3-17.7-28.5c-5-4-9.2-8.7-12.5-14.1c-3.4-5.4-5.8-11.3-7.1-17.5c-2.5-11.4-8.6-21.3-17.7-28.5
	c-1.7-1.3-1.9-3.7-0.6-5.4c1.3-1.7,3.7-1.9,5.4-0.6c10.5,8.4,17.6,19.8,20.4,32.9c1.2,5.3,3.2,10.4,6.1,15.1
	c2.9,4.7,6.5,8.8,10.8,12.2c10.5,8.4,17.6,19.8,20.4,32.9c1.2,5.3,3.2,10.4,6.1,15.1c2.9,4.7,6.5,8.8,10.8,12.2
	c10.5,8.4,17.6,19.8,20.4,32.9c1.2,5.3,3.2,10.4,6.1,15.1c2.9,4.7,6.5,8.8,10.8,12.2c10.5,8.4,17.6,19.8,20.4,32.9
	c1.2,5.3,3.2,10.4,6.1,15.1c2.9,4.7,6.5,8.8,10.8,12.2c10.5,8.4,17.6,19.8,20.4,32.9c1.2,5.3,3.2,10.4,6.1,15.1
	c1.1,1.8,0.6,4.2-1.2,5.3C257.1,416.5,256.4,416.7,255.7,416.7z"/>
<path class="st138" d="M257.3,416.7c-0.7,0-1.4-0.2-2.1-0.6c-1.8-1.1-2.3-3.5-1.1-5.3c3.5-5.4,7.8-10.1,12.8-13.9
	c9.2-7.1,15.5-16.9,18.2-28.2c1.5-6.2,3.9-12,7.4-17.4c3.5-5.4,7.8-10,12.8-13.9c9.2-7.1,15.5-16.9,18.2-28.2
	c1.5-6.2,3.9-12,7.4-17.4c3.5-5.4,7.8-10,12.8-13.9c9.2-7.1,15.5-16.9,18.2-28.2c1.5-6.2,3.9-12,7.4-17.4s7.8-10,12.8-13.9
	c9.2-7.1,15.5-16.9,18.2-28.2c1.5-6.2,3.9-12,7.4-17.4c3.5-5.4,7.8-10,12.8-13.9c1.7-1.3,4.1-1,5.4,0.7c1.3,1.7,1,4.1-0.7,5.4
	c-4.3,3.3-8,7.4-11,12c-3,4.6-5.1,9.7-6.4,15c-3.1,13.1-10.3,24.3-21,32.5c-4.3,3.3-8,7.4-11,12s-5.1,9.7-6.4,15
	c-3.1,13.1-10.3,24.3-21,32.5c-4.3,3.3-8,7.4-11,12c-3,4.6-5.1,9.7-6.4,15c-3.1,13.1-10.3,24.3-21,32.5c-4.3,3.3-8,7.4-11,12
	c-3,4.6-5.1,9.7-6.4,15c-3.1,13.1-10.3,24.3-21,32.5c-4.3,3.3-8,7.4-11,12C259.8,416.1,258.6,416.7,257.3,416.7z"/>
<path class="st137" d="M247.3,416.7c-0.5,0-1-0.1-1.5-0.3c-2-0.8-2.9-3.1-2.1-5c2.1-5.1,3.4-10.4,3.7-15.9
	c0.8-13.4,5.9-25.8,15-35.7c3.7-4,6.6-8.7,8.8-13.7c2.1-5.1,3.4-10.4,3.7-15.9c0.8-13.4,5.9-25.8,15-35.7c3.7-4,6.6-8.7,8.8-13.7
	c2.1-5.1,3.4-10.4,3.7-15.9c0.8-13.4,5.9-25.8,15-35.7c3.7-4,6.6-8.7,8.8-13.7c2.1-5.1,3.4-10.4,3.7-15.9c0.8-13.4,5.9-25.8,15-35.7
	c3.7-4,6.6-8.7,8.8-13.7c2.1-5.1,3.4-10.4,3.7-15.9c0.8-13.4,5.9-25.8,15-35.7c1.4-1.6,3.9-1.7,5.4-0.3c1.6,1.4,1.7,3.9,0.3,5.4
	c-7.8,8.6-12.3,19.3-13,31c-0.4,6.3-1.8,12.5-4.3,18.4c-2.5,5.9-5.9,11.2-10.2,15.9c-7.8,8.6-12.3,19.3-13,31
	c-0.4,6.3-1.8,12.5-4.3,18.4s-5.9,11.2-10.2,15.9c-7.8,8.6-12.3,19.3-13,31c-0.4,6.3-1.8,12.5-4.3,18.4c-2.5,5.9-5.9,11.2-10.2,15.9
	c-7.8,8.6-12.3,19.3-13,31c-0.4,6.3-1.8,12.5-4.3,18.4c-2.5,5.9-5.9,11.2-10.2,15.9c-7.8,8.6-12.3,19.3-13,31
	c-0.4,6.3-1.8,12.5-4.3,18.4C250.2,415.8,248.8,416.7,247.3,416.7z"/>
<path class="st139" d="M125,296c1.6,3.3,3.6,6.5,5.8,9.6c3.8,5.2,8.3,9.7,13.4,13.5h211.9c5.1-3.8,9.6-8.3,13.4-13.5
	c2.2-3,4.2-6.2,5.8-9.6H125z"/>
<path class="st140" d="M144.2,319c0.7,0.5,1.3,1,2,1.4c7.7,5.2,13.4,12.8,16.4,21.6h175c3-8.8,8.7-16.3,16.4-21.6
	c0.7-0.5,1.4-1,2-1.5H144.2z"/>
<path class="st141" d="M162.6,342c0.2,0.4,0.3,0.9,0.4,1.4c2.1,6.9,5.3,13.4,9.6,19.2c0.6,0.8,1.2,1.6,1.9,2.4h151.1
	c0.6-0.8,1.3-1.6,1.9-2.4c4.3-5.9,7.5-12.3,9.6-19.2c0.1-0.5,0.3-0.9,0.4-1.4H162.6z"/>
<path class="st142" d="M174.6,365c3.9,4.8,8.5,9,13.6,12.5c3.1,2.1,5.9,4.6,8.3,7.3c0.4,0.9,1,2,1.6,3.2h103.3
	c2.9-4.1,6.5-7.6,10.8-10.5c5.1-3.5,9.7-7.7,13.6-12.5H174.6z"/>
<path class="st143" d="M198,388.1c2.7,5,6.8,11.7,7,12.4l4.7,10.6h81.8c0.2-0.6,0.4-1.1,0.6-1.7l3.1-8.9c1.4-4.5,3.4-8.7,6-12.4H198
	z"/>
<path class="st144" d="M209.7,411.1l1.1,2.5c3.9,8.8,10.6,16.1,18.9,20.6h40.6c1.3-0.7,2.6-1.4,3.8-2.2c7.9-4.9,14-12.2,17.4-20.8
	H209.7z"/>
<path class="st144" d="M209.7,433.1l1.1,2.5c3.9,8.8,10.6,16.1,18.9,20.6h40.6c1.3-0.7,2.6-1.4,3.8-2.2c7.9-4.9,14-12.2,17.4-20.8
	H209.7z"/>
<path class="st135" d="M269.3,42.8c-5.2,1.6-9.7,4.4-13.5,7.9c-1.4,1.3-3.1,2.1-5,2.3c-0.7,0-1.5,0.1-2.2,0.2
	c-1.6,0.2-3.2,0.5-4.7,0.9c-1.9,0.5-3.8,0.4-5.6-0.4c-0.2-0.1-0.5-0.2-0.7-0.3c-0.9-0.4-1.6-0.9-2.3-1.6c-10.2-9.6-25.3-13-38.8-7.5
	c-4.1,1.7-7.8,4-11,7c-1.6,1.5-3.5,2.6-5.5,3.5c-1.4,0.6-2.7,1.3-4,2.2c-0.3,0.2-0.7,0.5-1,0.7c-2.6,1.9-5.8,2.9-9,3.3
	c-0.2,0-0.3,0-0.5,0.1c-2.6,0.3-5.2,0.9-7.6,1.7c-2.7,0.9-5.5,1.3-8.4,1c-0.1,0-0.2,0-0.3,0c-3.8-0.4-7.5,0-11.1,1.1
	c-2.5,0.8-5.2,0.7-7.8,0.2c-2-0.4-4.1-0.7-6.1-0.7c-9.9-0.4-19.5,3.4-26.6,10.3c-2.3,2.2-4.2,4.6-5.8,7.1c-1.6,2.6-4,4.5-6.7,5.8
	c-0.1,0-0.2,0.1-0.3,0.1c0,0,0,0-0.1,0c-3.8,1.8-8.1,2.2-12.1,0.9c-5.7-1.9-12-2.5-18.3-1.3c-9.6,1.8-17.9,7.2-23.4,15.2
	c-2.7,3.9-4.5,8.1-5.5,12.6c-0.8,3.3-2.8,6.2-5.6,8.2c0,0,0,0,0,0c-8,5.6-13.5,14.4-15,24.3c-1.5,9.5,0.7,19.1,6.2,26.9
	c1,1.5,1.8,3.2,2.4,5c2.9,9.6,7.4,18.7,13.4,26.8c6,8.2,13.3,15.2,21.6,20.8c3.4,2.3,5.7,5.5,6.9,9.4c2.9,9.6,7.4,18.7,13.4,26.8
	c6,8.2,13.3,15.2,21.6,20.8c3.4,2.3,5.7,5.5,6.9,9.4c2.9,9.6,7.4,18.7,13.4,26.8c4.8,6.5,10.4,12.3,16.7,17.3
	c6.1,4.8,10.9,11.1,13.6,18.4c2.9,7.6,6.9,14.7,11.6,21.4c4.1,5.8,11.6,12.6,17,17.1c4.4,3.7,8.1,8.2,10.7,13.3
	c2.3,4.4,5.1,10.1,7.7,15.9c8.9,19.9,26.7,34.5,47.7,39c5.3,1.1,10.8,1.7,16.5,1.7c11.2,0,23-3.7,35-11.1
	c22.3-13.6,31.9-45.4,31.9-45.4c1.2-3.8,3.5-7.3,6.8-9.5c8.4-5.7,15.7-12.7,21.7-20.9c6-8.2,10.5-17.3,13.4-27
	c1.1-3.8,3.6-7.1,6.9-9.3c8.3-5.7,15.6-12.7,21.6-20.8c6-8.2,10.5-17.3,13.4-27c1.1-3.8,3.6-7.1,6.9-9.3
	c8.3-5.7,15.6-12.7,21.6-20.8c6-8.2,10.5-17.3,13.4-27c1.1-3.8,3.6-7.1,6.9-9.3c8.3-5.7,15.6-12.7,21.6-20.8
	c6-8.2,10.5-17.2,13.4-26.8c0.5-1.8,1.3-3.5,2.4-5c11.3-16.3,8-38.3-7.6-50.2c-2.3-1.8-4.9-3.3-7.6-4.4c-1.8-0.8-3.5-1.9-4.7-3.5
	l-0.2-0.3c-1.2-1.5-2.1-3.2-2.6-5c-1.1-4.1-2.9-8-5.5-11.6c-5.6-8-14-13.2-23.6-14.9c-3.3-0.6-6.6-0.7-9.9-0.4
	c-9.4,0.9-18.7-0.9-27.1-5.1c-1.4-0.7-2.8-1.3-4.2-1.9c-6.5-2.6-12.4-6.5-17-11.7c-1-1.1-2.1-2.2-3.2-3.2c-7.3-6.4-16.7-9.6-26.4-9
	c-5.6,0.4-10.8,2-15.5,4.5c-4.2,2.4-9.2,2.9-13.8,1.4l-0.4-0.1c-0.6-0.2-1.3-0.4-2-0.6c-2.6-0.8-5-2.1-7-4.1
	C304.9,48.4,289.6,36.6,269.3,42.8z M468.8,160.1c-2.5,3.7-4.5,7.7-5.8,12.1c-2.1,6.9-5.3,13.4-9.6,19.2
	c-4.3,5.9-9.5,10.9-15.5,14.9c-8.1,5.5-14,13.6-16.8,22.9c-2.1,6.9-5.3,13.4-9.6,19.2c-4.3,5.9-9.5,10.9-15.5,14.9
	c-8.1,5.5-14,13.6-16.8,22.9c-2.1,6.9-5.3,13.4-9.6,19.2c-4.3,5.9-9.5,10.9-15.5,14.9c-8.1,5.5-14,13.6-16.8,22.9
	c-2.1,6.9-5.3,13.4-9.6,19.2c-4.3,5.8-9.5,10.9-15.5,14.9c-8.2,5.5-14,13.5-16.8,22.9l-3.1,8.9c-3.2,9.4-9.6,17.4-18,22.6
	c-6.4,3.9-14.3,7.4-21.9,7.4c-4.1,0-7.9-0.4-11.3-1.1c-13.4-2.8-24.5-12.1-30.1-24.7l-5.8-13.1c-0.3-0.9-6.5-11-8.6-15.6
	c-2.4-2.7-5.2-5.2-8.3-7.3c-6-4-11.2-9.1-15.5-14.9c-4.3-5.9-7.5-12.3-9.6-19.2c-2.8-9.4-8.8-17.4-16.8-22.9
	c-6-4.1-11.2-9.1-15.5-14.9c-4.3-5.9-7.5-12.3-9.6-19.2c-2.8-9.5-8.7-17.4-16.8-22.9c-6-4-11.2-9.1-15.5-14.9
	c-4.3-5.9-7.5-12.3-9.6-19.2c-2.8-9.5-8.7-17.4-16.8-22.9c-6-4-11.2-9.1-15.5-14.9c-4.3-5.9-7.5-12.3-9.6-19.2
	c-1.3-4.4-3.3-8.4-5.8-12.1c-3.6-5.2-2.6-12.7,2.6-16.3c3.1-2.2,7-2.6,10.3-1.4c-0.4-1.2-0.2-2.6,0.8-3.6c1.3-1.5,3.6-1.7,5.2-0.5
	c1.7,1.1,3.2,2.3,4.8,3.6c-2.5-5.2-4.3-10.7-5.4-16.5c-1.2-6.2,3-12.3,9.2-13.4c6.2-1.2,12.2,2.9,13.4,9.1
	c1.8,9.5,6.5,18.2,13.9,24.4c3.4,2.8,6.4,6,9.1,9.5c-2.7-10.5-8.7-19.7-17.2-26.5c-1.9-1.5-2-4.3-0.1-6c1.4-1.2,3.5-1.1,5,0.1
	c4.3,3.4,8,7.4,11,11.7c-0.9-2.7-2.1-5.3-3.5-7.8c-3.3-5.8-1.1-13.2,5-16.1c5.5-2.7,12.2-0.2,15.2,5.1c4.4,7.7,7.1,16.1,8.1,24.9
	c0.5,4.6,1.8,9,3.8,13.1c2,4.2,4.7,7.9,8,11.1c10.9,10.7,17.5,24.3,19.2,39.4c0.5,4.6,1.8,9,3.8,13.1c1.4,2.8,3.1,5.5,5.1,7.9
	c-0.6-1.2-1.2-2.5-1.7-3.8c-2.8-6.7-4.4-13.8-4.8-21c-0.5-9.8-4.3-19-10.9-26.3c-4.8-5.4-8.7-11.5-11.5-18.2
	c-2.8-6.7-4.4-13.8-4.8-21c-0.5-9.8-4.2-18.9-10.8-26.2c-4.1-4.6-4-11.8,0.5-16.1c4.7-4.6,12.2-4.3,16.5,0.6
	c10.2,11.3,16,25.3,16.8,40.5c0.2,4.6,1.3,9.1,3,13.3c1.8,4.3,4.2,8.2,7.3,11.6c10.2,11.3,16,25.3,16.8,40.5c0.2,4.6,1.3,9.1,3,13.3
	c0.7,1.8,1.6,3.5,2.6,5.1c-0.7-1.6-1.3-3.2-1.9-4.9c-2-6.1-3-12.3-2.8-18.7c0.2-11.7-3.4-22.7-10.6-31.9c-3.9-5-6.9-10.6-8.9-16.7
	c-2-6.1-3-12.3-2.8-18.7c0.2-11.6-3.4-22.6-10.5-31.8c-1.2-1.6-1.1-4,0.4-5.4c1.7-1.5,4.2-1.2,5.6,0.5c8.3,10.6,12.5,23.3,12.2,36.7
	c-0.1,5.5,0.7,10.9,2.4,16.1c1.7,5.2,4.3,10.1,7.7,14.4c0,0.1,0.1,0.1,0.1,0.2c0.1-2,0.3-4.1,0.6-6.1c0.6-4.5,0.5-9.1-0.4-13.7
	c-0.9-4.5-2.6-8.8-4.9-12.8c-4.9-8.1-7.9-16.9-8.9-26.2c-0.7-6.3,3.8-12,10.1-12.7c6.3-0.7,12,3.8,12.7,10.1c0.7,6,2.6,11.7,5.8,17
	c3.3,5.5,5.7,11.4,7.2,17.6c-0.5-4.8-0.4-9.7,0.4-14.5c1.9-11.5-0.2-22.8-6-32.9c-1-1.8-0.6-4.1,1.1-5.2c1.9-1.2,4.3-0.6,5.4,1.3
	c6.7,11.6,9.1,24.8,7,38.1c-0.8,5.1-0.8,10.3,0,15.4c-0.8-7.1-0.4-14.2,1.1-21.1c2.2-9.6,1-19.4-3.4-28.2c-2.9-6-0.3-13.2,6-15.8
	c5.7-2.3,12.1,0.5,14.8,5.9c0.9,1.9,1.7,3.7,2.4,5.6c0.6-2,2.7-3.3,4.8-2.7c1.9,0.6,3,2.6,2.7,4.6c-2.2,11.4-0.6,22.8,4.8,33.1
	c0.7,1.4,1.4,2.9,2,4.3c0.5-3.2,1.3-6.4,2.3-9.6c1.9-5.9,2.5-12,1.8-18c-0.7-6.3,3.8-12,10.1-12.8c6.3-0.8,12,3.8,12.8,10.1
	c1.1,9.4,0.2,18.7-2.7,27.8c-1.4,4.4-2.1,8.9-1.9,13.5c0.1,4.3,0.9,8.5,2.3,12.4c-0.5-4-0.5-8.1-0.2-12.2c0.6-7.2,2.4-14.2,5.4-20.8
	c4-9,4.9-18.7,2.3-28.3c-1.5-5.9,1.7-12.1,7.5-14c6.1-2,12.6,1.4,14.5,7.3c0.1-0.1,0.3-0.1,0.4-0.2c2.1-0.5,4.1,0.7,4.7,2.7
	c1,3.8,1.6,7.6,1.9,11.5c2.7-4.6,8.3-6.8,13.6-5.1c6,2,9.3,8.6,7.2,14.6c-2.1,6.2-2.7,12.6-1.8,19.2c1,7.2,0.7,14.4-0.8,21.5
	c-1.5,7.1-4.2,13.8-7.9,20c-3.3,5.3-5.3,11.2-6,17.2c2.1-6.3,5.3-12.2,9.5-17.6c3.4-4.3,6-9.1,7.8-14.3c1.8-5.2,2.6-10.6,2.5-16.1
	c-0.2-13.4,4.1-26.1,12.4-36.7c1.3-1.7,3.7-1.9,5.4-0.6c0,0,0,0,0,0c-0.1-6.1,4.6-11.3,10.7-11.7c6.3-0.4,11.8,4.4,12.2,10.7
	c1,15.2-3.2,29.8-12,42.2c-2.7,3.7-4.6,7.9-5.9,12.3c-1.3,4.5-1.8,9-1.5,13.6c0.2,2.4,0.2,4.9,0.1,7.3c0.1-0.2,0.3-0.3,0.4-0.5
	c3.7-4,6.6-8.7,8.8-13.7c2.1-5.1,3.4-10.4,3.7-15.9c0.8-13.4,5.9-25.8,15-35.7c1.5-1.6,4-1.7,5.6-0.1c1.4,1.5,1.4,3.9,0,5.4
	c-7.8,8.6-12.2,19.3-12.9,30.9c0,0.8-0.1,1.6-0.2,2.4c2-3.2,4.2-6.2,6.7-9c3.8-4.3,6.7-9.1,8.5-14.4c2.1-6,8.6-9.2,14.6-7.1
	c6,2.1,9.2,8.6,7.1,14.6c-2.8,8.2-7.2,15.7-13.1,22.2c-3.1,3.4-5.5,7.3-7.3,11.6c-1.8,4.3-2.8,8.8-3,13.4c-0.4,8-2.2,15.7-5.3,22.9
	c2.1-2.1,4.3-4.2,6.7-6c2.1-1.6,4.1-3.4,5.9-5.4c1.2-7,3.6-13.7,7.1-19.9c2.1-3.8,4.6-7.3,7.5-10.6c3.8-9.1,9.9-17,17.9-23.2
	c0.9-2.5,1.6-5,2.1-7.7c1.1-6.3,7-10.5,13.3-9.4c6.3,1.1,10.5,7,9.4,13.3c-2.4,13.8-8.8,26-18.7,35.7c0.7,0.2,1.3,0.7,1.8,1.3
	c0.2,0.3,0.4,0.6,0.5,0.9c8.5-6.9,14.4-16.1,17.1-26.7c0.6-2.3,3.1-3.6,5.4-2.5c1.6,0.8,2.5,2.7,2,4.4c-3.3,13-10.7,24.1-21.5,32.1
	c-4.4,3.3-8.2,7.2-11.2,11.8c-3.1,4.6-5.3,9.6-6.6,14.9c-0.8,3.1-1.8,6-3,8.9c4.4-6.2,10-11.6,16.5-16c3.8-2.6,7.1-5.8,9.8-9.5
	c2.7-3.7,4.8-7.8,6.1-12.2c2.1-6.8,5.2-13.2,9.2-18.9c3.8-5.3,11.2-6.5,16.4-2.5C471.5,147.8,472.3,155,468.8,160.1z"/>
<g>
	<path class="st145" d="M134.3,137c0.9,6.8,1.9,13.6,5.7,20c3.5,5.8,7.7,11.1,11.3,16.7"/>
	<path class="st145" d="M198.8,122.6c-0.3,6.3-0.2,12.6,2.1,18.9c1.5,4.2,3.4,8.2,5.2,12.2"/>
	<path class="st145" d="M95.9,146.2c4.8,11,5.8,22.8,14,32.1c4.7,5.3,10.5,9.4,15.2,14.5"/>
	<circle class="st31" cx="160.7" cy="197.4" r="3.8"/>
</g>
</svg>
