<?xml version="1.0" encoding="utf-8"?>
<!-- Generator: Adobe Illustrator 20.1.0, SVG Export Plug-In . SVG Version: 6.00 Build 0)  -->
<svg version="1.1" id="Layer_1" xmlns="http://www.w3.org/2000/svg" xmlns:xlink="http://www.w3.org/1999/xlink" x="0px" y="0px"
	 viewBox="0 0 250 250" style="enable-background:new 0 0 250 250;" xml:space="preserve">
<style type="text/css">
	.st0{fill:none;stroke:#34500C;stroke-width:8;stroke-linecap:round;stroke-linejoin:round;stroke-miterlimit:10;}
	.st1{fill:none;stroke:#34500C;stroke-width:9;stroke-linecap:round;stroke-linejoin:round;stroke-miterlimit:10;}
	.st2{fill:#7E9E5B;}
	.st3{fill:#34500C;}
	.st4{fill:none;stroke:#34500C;stroke-width:3;stroke-linecap:round;stroke-linejoin:round;stroke-miterlimit:10;}
	.st5{fill:none;stroke:#1E6625;stroke-width:6;stroke-linecap:round;stroke-linejoin:round;stroke-miterlimit:10;}
	.st6{fill:none;stroke:#662B5B;stroke-width:6;stroke-linecap:round;stroke-linejoin:round;stroke-miterlimit:10;}
	.st7{fill:#419608;}
	.st8{opacity:0.6;fill:#419608;stroke:#1E6625;stroke-linecap:round;stroke-linejoin:round;stroke-miterlimit:10;}
	.st9{fill:none;stroke:#C2807D;stroke-linecap:round;stroke-linejoin:round;stroke-miterlimit:10;}
	.st10{fill:none;stroke:#34500C;stroke-width:6;stroke-linecap:round;stroke-linejoin:round;stroke-miterlimit:10;}
	.st11{fill:#7E9E5B;stroke:#34500C;stroke-miterlimit:10;}
	.st12{fill:#BFCC5C;}
	.st13{fill:#FFE200;}
	.st14{fill:#DDAA00;}
	.st15{fill:#FFF2B3;}
	.st16{fill:#406A29;}
	.st17{fill:#00FFFF;}
	.st18{clip-path:url(#SVGID_2_);}
	.st19{fill:none;stroke:#CC9600;stroke-width:6;stroke-linecap:round;stroke-miterlimit:10;}
	.st20{fill:none;stroke:#FFF2B3;stroke-linecap:round;stroke-miterlimit:10;}
	.st21{fill:none;stroke:#DDAA00;stroke-linecap:round;stroke-miterlimit:10;}
	.st22{fill:#FFE966;}
	.st23{fill:#FFE200;stroke:#DDAA00;stroke-width:3;stroke-linecap:round;stroke-miterlimit:10;}
	.st24{fill:#BFCC5C;stroke:#406A29;stroke-linecap:round;stroke-miterlimit:10;}
	.st25{fill:none;stroke:#A9B236;stroke-linecap:round;stroke-miterlimit:10;}
	.st26{fill:none;stroke:#406A29;stroke-linecap:round;stroke-miterlimit:10;}
	.st27{fill:#CC9600;}
	.st28{fill:#A9B236;}
	.st29{fill:#7CAB09;}
	.st30{fill:#4E670C;}
	.st31{fill:none;stroke:#C0CC8F;stroke-linecap:round;stroke-miterlimit:10;}
	.st32{fill:#7D8AD7;stroke:#4648A6;stroke-width:3;stroke-miterlimit:10;}
	.st33{opacity:0.6;fill:none;stroke:#CDD6FF;stroke-width:3;stroke-miterlimit:10;}
	.st34{opacity:0.4;fill:none;stroke:#CDD6FF;stroke-width:3;stroke-miterlimit:10;}
	.st35{opacity:0.2;fill:none;stroke:#CDD6FF;stroke-width:3;stroke-miterlimit:10;}
	.st36{fill:#7CAB09;stroke:#76990A;stroke-linecap:round;stroke-miterlimit:10;}
	.st37{fill:none;stroke:#A598D8;stroke-linecap:round;stroke-miterlimit:10;}
	.st38{fill:none;stroke:#2B2A6F;stroke-width:3;stroke-miterlimit:10;}
	.st39{fill:none;stroke:#8A6EDA;stroke-linecap:round;stroke-miterlimit:10;}
	.st40{fill:#E4E5E7;stroke:#2B2A6F;stroke-miterlimit:10;}
	.st41{fill:#C2807D;stroke:#7C152E;stroke-miterlimit:10;}
	.st42{fill:#E4E5E7;}
	.st43{fill:#A598D8;}
	.st44{fill:#C0CC8F;}
	.st45{fill:#7D8AD7;}
	.st46{fill:#AEB9ED;}
	.st47{fill:#9EA9E5;}
	.st48{fill:#8E9ADD;}
	.st49{fill:#76990A;}
	.st50{fill:#8A6EDA;}
	.st51{fill:#2B2A6F;}
	.st52{fill:#C2807D;}
	.st53{fill:#7C152E;}
	.st54{fill:#FE8600;stroke:#F15A24;stroke-width:3;stroke-miterlimit:10;}
	.st55{fill:#FE8600;}
	.st56{fill:none;stroke:#F15A24;stroke-miterlimit:10;}
	.st57{fill:none;stroke:#F15A24;stroke-linecap:round;stroke-miterlimit:10;}
	.st58{opacity:0.8;fill:none;stroke:#F15A24;stroke-width:3;stroke-miterlimit:10;}
	.st59{opacity:0.6;fill:none;stroke:#F15A24;stroke-width:3;stroke-miterlimit:10;}
	.st60{opacity:0.4;fill:none;stroke:#F15A24;stroke-width:3;stroke-miterlimit:10;}
	.st61{opacity:0.2;fill:none;stroke:#F15A24;stroke-width:3;stroke-miterlimit:10;}
	.st62{fill:#F15A24;}
	.st63{fill:#9CAD23;stroke:#34500C;stroke-miterlimit:10;}
	.st64{opacity:0.4;fill:none;stroke:#34500C;stroke-linecap:round;stroke-miterlimit:10;}
	.st65{fill:none;stroke:#9CAD23;stroke-width:2;stroke-linecap:round;stroke-linejoin:round;stroke-miterlimit:10;}
	.st66{fill:none;stroke:#34500C;stroke-linecap:round;stroke-linejoin:round;stroke-miterlimit:10;}
	.st67{fill:none;stroke:#7CAB09;stroke-width:2;stroke-linecap:round;stroke-miterlimit:10;}
	.st68{fill:none;stroke:#7D9959;stroke-linecap:round;stroke-miterlimit:10;}
	.st69{fill:#7CAB09;stroke:#4E670C;stroke-miterlimit:10;}
	.st70{fill:none;stroke:#7CAB09;stroke-linecap:round;stroke-miterlimit:10;}
	.st71{fill:none;stroke:#34500C;stroke-linecap:round;stroke-miterlimit:10;}
	.st72{opacity:0.4;fill:#34500C;}
	.st73{fill:#F46C29;}
	.st74{fill:#F77426;}
	.st75{fill:#F97D25;}
	.st76{fill:#EF4B18;}
	.st77{fill:#F3672A;}
	.st78{fill:#9CAD23;}
	.st79{fill:#7D9959;}
	.st80{fill:none;stroke:#935A4E;stroke-width:2;stroke-linecap:round;stroke-miterlimit:10;}
	.st81{fill:none;stroke:#663D1F;stroke-linecap:round;stroke-miterlimit:10;}
	.st82{fill:none;stroke:#935A4E;stroke-linecap:round;stroke-miterlimit:10;}
	.st83{fill:#663D1F;}
	.st84{clip-path:url(#SVGID_4_);}
	.st85{fill:#B8CE5D;stroke:#416F30;stroke-linecap:round;stroke-linejoin:round;stroke-miterlimit:10;}
	.st86{fill:none;stroke:#416F30;stroke-width:6;stroke-linecap:round;stroke-miterlimit:10;}
	.st87{fill:none;stroke:#406F30;stroke-width:5;stroke-linecap:round;stroke-miterlimit:10;}
	.st88{fill:#B8CE5D;}
	.st89{fill:#416F30;}
	.st90{fill:#90B74B;}
	.st91{fill:none;stroke:#5E8A3B;stroke-linecap:round;stroke-miterlimit:10;}
	.st92{opacity:0.7;fill:none;stroke:#FFFFFF;stroke-linecap:round;stroke-miterlimit:10;}
	.st93{fill:none;stroke:#6F2D49;stroke-width:6;stroke-linecap:round;stroke-linejoin:round;stroke-miterlimit:10;}
	.st94{fill:none;stroke:#BF6FAA;stroke-linecap:round;stroke-linejoin:round;stroke-miterlimit:10;}
	.st95{fill:none;stroke:#B8CE5D;stroke-linecap:round;stroke-miterlimit:10;}
	.st96{opacity:0.7;fill:#FFFFFF;}
	.st97{fill:#6F2D49;}
	.st98{fill:#BF6FAA;}
	.st99{fill:#5E8A3B;}
	.st100{fill:#1E6625;}
	.st101{fill:#662B5B;}
	.st102{fill:#935A4E;}
	.st103{fill:none;stroke:#9DB269;stroke-width:2;stroke-linecap:round;stroke-linejoin:round;stroke-miterlimit:10;}
	.st104{fill:none;stroke:#34500C;stroke-width:5;stroke-linecap:round;stroke-linejoin:round;stroke-miterlimit:10;}
	.st105{fill:none;stroke:#D8DFC4;stroke-linecap:round;stroke-linejoin:round;stroke-miterlimit:10;}
	.st106{fill:none;stroke:#DDB907;stroke-width:6;stroke-linecap:round;stroke-miterlimit:10;}
	.st107{fill:none;stroke:#FFE200;stroke-miterlimit:10;}
	.st108{fill:none;stroke:#EDC107;stroke-miterlimit:10;}
	.st109{fill:none;stroke:#EFAE0C;stroke-miterlimit:10;}
	.st110{fill:none;stroke:#FFF8CE;stroke-linecap:round;stroke-miterlimit:10;}
	.st111{fill:#9DB269;}
	.st112{fill:#D8DFC4;}
	.st113{fill:#DDB907;}
	.st114{fill:#EDC107;}
	.st115{fill:#EFAE0C;}
	.st116{fill:#FFF8CE;}
</style>
<path class="st3" d="M224.8,207.1c3.2-8.6,4.3-20.1,3.6-35.3c-0.1-2.4-1-4.7-2.4-6.6c-0.6-0.8-0.7-1.9-0.2-2.8
	c1.1-2,1.6-4.4,1.3-6.8c-0.6-5.4-1.4-11-2.3-16.9c-0.5-2.9-2-5.6-4.4-7.4l-0.9-0.7c2-2.6,2.8-6.1,2.1-9.5c-0.9-4-1.9-8-3-12
	c-0.9-3.2-3-5.8-5.9-7.3l0,0c-1.1-0.8-1.4-2.2-0.8-3.4c1.3-2.7,1.6-5.9,0.5-8.9c-13.9-39.2-33.4-69.9-34.2-71.2
	c-2.1-3.4-5.8-5.3-9.7-5.3c-0.6,0-1.3,0.1-1.9,0.2c-4.6,0.8-8.2,4.2-9.3,8.7c-0.3,1.5-8.6,36.9-8.7,78.5c0,3.6,1.6,6.8,4.3,9
	c0.5,0.4,0.6,1.2,0.3,1.8v0c-0.5,0.8-1.6,0.8-2.1,0.1C117.9,71,88.7,50.3,86.8,49c-7.8-5.5-18.6-3.6-24.1,4.2S59.1,71.9,67,77.3
	c0.6,0.4,51.8,36.8,93.5,107.6c1.2,2,2.1,4.1,2.9,6.3c3.3,9.4,6.9,16.8,11,22.3c0.8,1.1,1.7,2.1,2.5,3.1c2.5,2.8,4.5,5.9,6,9.3
	c1.8,4.1,3.6,8.3,5.2,12.6c2.4,6,8.1,9.7,14.3,9.7c1.7,0,3.4-0.3,5.1-0.9c7.2-2.5,11.4-10.1,10-17.7l-0.2-1.3
	c-0.8-4.3,0.2-8.7,2.8-12.2C221.8,213.7,223.4,210.7,224.8,207.1z"/>
<path class="st2" d="M162.8,96.4l2.5-3.8c1.1-1.7,3-2.6,4.8-2.6c1.1,0,2.2,0.3,3.2,0.9c2.7,1.7,3.4,5.3,1.7,8l-12.7,19
	c-0.9,1.4-1.4,3.1-1.3,4.8c0.1,1.8,0.3,3.6,0.5,5.4c0.1,1.3,1.8,1.6,2.5,0.6l3.5-5.3c1.1-1.7,3-2.6,4.8-2.6c1.1,0,2.2,0.3,3.2,0.9
	c2.7,1.7,3.4,5.3,1.7,8l-10.1,15.5c0,0.3,0,0.6,0,0.9c2.3,3.3,4.6,6.7,6.8,10.3c0.4-0.6,0.7-1,0.7-1c1.1-1.7,3-2.6,4.8-2.6
	c1.1,0,2.2,0.3,3.2,0.9c2.7,1.7,3.4,5.3,1.7,8l-3.6,5.4c7.7,12.8,15.2,26.7,22.2,41.8c1.3,2.9,5.3,3.5,7.4,1.1
	c5.1-6,7.4-17.2,6.9-33.9c-0.1-2.4-1.2-4.7-3.2-6.1l-14.2-10.9c-2.5-1.9-3-5.6-1.1-8.1c1.1-1.5,2.9-2.3,4.6-2.3
	c1.2,0,2.5,0.4,3.5,1.2l5.5,4.2c1.3,1,3.1-0.1,2.9-1.6c-0.3-2.6-0.7-5.2-1.1-8c-0.4-2.7-1.8-5.1-4-6.8l-14.7-11.2
	c-2.5-1.9-3-5.6-1.1-8.1c1.1-1.5,2.9-2.3,4.6-2.3c1.2,0,2.5,0.4,3.5,1.2l5,3.8c1,0.8,2.4-0.1,2.1-1.4c-0.4-1.8-0.9-3.5-1.3-5.2
	c-0.4-1.7-1.4-3.1-2.8-4.1l-18.3-13.8c-2.5-1.9-3-5.6-1.1-8.1c1.1-1.5,2.9-2.3,4.6-2.3c1.2,0,2.5,0.4,3.5,1.2l3.6,2.8
	c1.1,0.9,2.7-0.3,2.2-1.6c-9.8-26.4-22-48.4-27.9-58.5c-1.2-2.1-4.4-1.6-4.9,0.8c-2.2,11.4-6.4,36.3-6.9,64.4
	C160.2,97,162,97.6,162.8,96.4z"/>
<path class="st111" d="M192.6,188.6c3.4,6.5,6.8,13.3,10,20.3c0.3,0.7,1.3,0.4,1.2-0.4L187,110.1c-0.4-2.1-2.4-3.5-4.4-3.1
	c-2.1,0.4-3.5,2.3-3.1,4.4L192.6,188.6z"/>
<path class="st111" d="M202.4,236.6c-1.5,0-3-0.9-3.6-2.4C155.2,124.4,75.5,66.9,74.7,66.3c-1.7-1.2-2.1-3.6-0.9-5.4
	c1.2-1.7,3.6-2.1,5.4-0.9C80,60.6,100,75,125.8,103.3c23.8,26.1,56.9,69.6,80.1,128c0.8,2-0.2,4.2-2.2,5
	C203.3,236.5,202.8,236.6,202.4,236.6z"/>
<path class="st112" d="M143.6,138.6c-0.6,0-1.2-0.3-1.5-0.8c-3.7-4.9-7.5-9.7-11.3-14.4c-0.7-0.8-0.6-2,0.3-2.7
	c0.8-0.7,2-0.6,2.7,0.3c3.9,4.7,7.7,9.6,11.4,14.5c0.6,0.8,0.5,2.1-0.4,2.7C144.4,138.5,144,138.6,143.6,138.6z"/>
<path class="st112" d="M153.9,152.9c-0.6,0-1.2-0.3-1.6-0.8c-1-1.5-2-2.9-3.1-4.4c-0.6-0.9-0.4-2.1,0.5-2.7c0.9-0.6,2.1-0.4,2.7,0.5
	c1,1.4,2.1,2.9,3.1,4.4c0.6,0.9,0.4,2.1-0.5,2.7C154.6,152.8,154.2,152.9,153.9,152.9z"/>
<path class="st113" d="M26.3,96.6c-1.5-1-2.8-2.4-3.7-4.1c-1.8-3.3-1.8-7-0.4-10.2c0.8-1.7,0.1-3.6-1.5-4.6
	c-2.9-1.8-4.9-4.9-5.3-8.6c-0.3-3.6,1-6.9,3.3-9.3c1.2-1.2,1.4-3.1,0.4-4.5c-1.9-2.8-2.5-6.3-1.5-9.7c1.1-3.5,3.6-6.2,6.8-7.4
	c1.7-0.7,2.8-2.5,2.4-4.3c-0.8-3.4,0-7.1,2.3-9.9c2.3-2.8,5.6-4.2,8.9-4.2c1.7,0,3.2-1.2,3.5-2.9c0.6-3.3,2.7-6.2,5.8-7.9
	c3.3-1.8,7-1.8,10.2-0.4c1.7,0.8,3.6,0.1,4.6-1.5c1.8-2.9,4.9-4.9,8.6-5.3c3.6-0.3,6.9,1,9.3,3.3c1.2,1.2,3.1,1.4,4.5,0.4
	C87.5,3.6,91.1,3,94.5,4c3.5,1.1,6.2,3.6,7.4,6.8c0.7,1.7,2.5,2.8,4.3,2.4c3.4-0.8,7.1,0,9.9,2.3c2.8,2.3,4.2,5.6,4.2,8.9
	c0,1.7,1.2,3.2,2.9,3.5c3.3,0.6,6.2,2.7,7.9,5.8c1.8,3.3,1.8,7,0.4,10.2c-0.8,1.7-0.1,3.6,1.5,4.6c2.9,1.8,4.9,4.9,5.3,8.6
	c0.3,3.6-1,6.9-3.3,9.3c-1.2,1.2-1.4,3.1-0.4,4.5c1.9,2.8,2.5,6.3,1.5,9.7c-1.1,3.5-3.6,6.2-6.8,7.4c-1.7,0.7-2.8,2.5-2.4,4.3
	c0.8,3.4,0,7.1-2.3,9.9c-2.3,2.8-5.6,4.2-8.9,4.2c0,0,0,0,0,0c-1.7,0-3.1,1.2-3.4,2.8c-0.6,3.3-2.7,6.3-5.8,8
	c-1.7,0.9-3.6,1.4-5.5,1.4c-1.6,0-3.2-0.3-4.7-1c-1.7-0.8-3.7-0.1-4.7,1.5c-1.8,2.9-4.9,4.9-8.6,5.3c-0.4,0-0.8,0.1-1.1,0.1
	c-3.1,0-6-1.2-8.1-3.3c-1.2-1.2-3.2-1.5-4.6-0.5c-1.9,1.3-4.1,2-6.4,2c-1.1,0-2.2-0.2-3.3-0.5c-3.5-1.1-6.2-3.6-7.4-6.8
	c-0.7-1.7-2.4-2.8-4.2-2.4c-0.9,0.2-1.8,0.3-2.6,0.3c-2.6,0-5.2-0.9-7.3-2.6c-2.8-2.3-4.2-5.6-4.2-9c0-1.7-1.1-3.1-2.8-3.4
	C29.4,98.1,27.8,97.6,26.3,96.6z"/>
<path class="st13" d="M120.4,68l0.2-2c0-0.5-0.3-0.9-0.8-1l-12-1.1c-1.1-0.1-1.1-1.7,0-1.8l18.1-1.8c0.7-0.1,1.1-0.6,1.1-1.3
	l-0.1-1.5c-0.1-0.7-0.6-1.1-1.3-1.1l-20.7,2c-1.1,0.1-1.4-1.5-0.4-1.8l14-4.3c0.5-0.1,0.7-0.6,0.6-1.1l-0.6-2
	c-0.1-0.5-0.6-0.7-1.1-0.6L103.6,53c-1.1,0.3-1.7-1.2-0.7-1.7l18-9.7c0.6-0.3,0.8-1,0.5-1.6l-0.7-1.3c-0.3-0.6-1-0.8-1.6-0.5
	L100.8,48c-1,0.5-1.9-0.8-1-1.5l11.2-9.4c0.4-0.3,0.4-0.9,0.1-1.3l-1.3-1.6c-0.3-0.4-0.9-0.4-1.3-0.1l-9.3,7.8
	c-0.9,0.7-2-0.4-1.3-1.3l11.6-14.1c0.4-0.5,0.3-1.3-0.2-1.7l-1.1-0.9c-0.5-0.4-1.3-0.3-1.7,0.2l-13.2,16c-0.7,0.9-2,0-1.5-1
	l6.8-12.9c0.2-0.4,0.1-1-0.4-1.2l-1.8-1c-0.4-0.2-1-0.1-1.2,0.4l-6.7,12.6c-0.5,1-2,0.4-1.7-0.7l5.8-19.6c0.2-0.6-0.2-1.3-0.8-1.5
	l-1.4-0.4c-0.6-0.2-1.3,0.2-1.5,0.8l-5.9,19.9c-0.3,1.1-1.9,0.8-1.8-0.3l1.3-14.5c0-0.5-0.3-0.9-0.8-1l-2-0.2c-0.5,0-0.9,0.3-1,0.8
	l-1.1,12c-0.1,1.1-1.7,1.1-1.8,0l-1.8-18.1c-0.1-0.7-0.6-1.1-1.3-1.1l-1.5,0.1c-0.7,0.1-1.1,0.6-1.1,1.3l2,20.7
	c0.1,1.1-1.5,1.4-1.8,0.4l-4.3-14c-0.1-0.5-0.6-0.7-1.1-0.6l-2,0.6c-0.5,0.1-0.7,0.6-0.6,1.1l4.2,13.7c0.3,1.1-1.2,1.7-1.7,0.7
	l-10.3-19l-3.4,1.8l10.4,19.3c0.5,1-0.8,1.9-1.5,1l-9.4-11.2c-0.3-0.4-0.9-0.4-1.3-0.1l-1.6,1.3c-0.4,0.3-0.4,0.9-0.1,1.3l7.8,9.3
	c0.7,0.9-0.4,2-1.3,1.3L40.3,30.5c-0.5-0.4-1.3-0.3-1.7,0.2l-0.9,1.1c-0.4,0.5-0.3,1.3,0.2,1.7l16,13.2c0.9,0.7,0,2-1,1.5L40,41.4
	c-0.4-0.2-1-0.1-1.2,0.4l-1,1.8c-0.2,0.4-0.1,1,0.4,1.2l12.6,6.7c1,0.5,0.4,2-0.7,1.7L29.4,47l-1.1,3.7l21,6.3
	c1.1,0.3,0.8,1.9-0.3,1.8l-14.5-1.3c-0.5,0-0.9,0.3-1,0.8l-0.2,2c0,0.5,0.3,0.9,0.8,1l12,1.1c1.1,0.1,1.1,1.7,0,1.8L28,65.9
	c-0.7,0.1-1.1,0.6-1.1,1.3l0.1,1.5c0.1,0.7,0.6,1.1,1.3,1.1l20.7-2c1.1-0.1,1.4,1.5,0.4,1.8l-14,4.3c-0.5,0.1-0.7,0.6-0.6,1.1l0.6,2
	c0.1,0.5,0.6,0.7,1.1,0.6l13.7-4.2c1.1-0.3,1.7,1.2,0.7,1.7l-18,9.7c-0.6,0.3-0.8,1-0.5,1.6l0.7,1.3c0.3,0.6,1,0.8,1.6,0.5L53,78.3
	c1-0.5,1.9,0.8,1,1.5l-11.2,9.4c-0.4,0.3-0.4,0.9-0.1,1.3L44,92c0.3,0.4,0.9,0.4,1.3,0.1l9.3-7.8c0.9-0.7,2,0.4,1.3,1.3L44.3,99.7
	c-0.4,0.5-0.3,1.3,0.2,1.7l1.1,0.9c0.5,0.4,1.3,0.3,1.7-0.2l13.2-16c0.7-0.9,2,0,1.5,1l-6.8,12.9c-0.2,0.4-0.1,1,0.4,1.2l1.8,1
	c0.4,0.2,1,0.1,1.2-0.4l6.7-12.6c0.5-1,2-0.4,1.7,0.7l-5.8,19.6c-0.2,0.6,0.2,1.3,0.8,1.5l1.4,0.4c0.6,0.2,1.3-0.2,1.5-0.8l5.9-19.9
	c0.3-1.1,1.9-0.8,1.8,0.3l-1.3,14.5c0,0.5,0.3,0.9,0.8,1l2,0.2c0.5,0,0.9-0.3,1-0.8l1.1-12c0.1-1.1,1.7-1.1,1.8,0l1.8,18.1
	c0.1,0.7,0.6,1.1,1.3,1.1l1.5-0.1c0.7-0.1,1.1-0.6,1.1-1.3l-2-20.7c-0.1-1.1,1.5-1.4,1.8-0.4l4.3,14c0.1,0.5,0.6,0.7,1.1,0.6l2-0.6
	c0.5-0.1,0.7-0.6,0.6-1.1l-4.2-13.7c-0.3-1.1,1.2-1.7,1.7-0.7l9.7,18c0.3,0.6,1,0.8,1.6,0.5l1.3-0.7c0.6-0.3,0.8-1,0.5-1.6L92,87.1
	c-0.5-1,0.8-1.9,1.5-1l9.4,11.2c0.3,0.4,0.9,0.4,1.3,0.1l1.6-1.3c0.4-0.3,0.4-0.9,0.1-1.3l-7.8-9.3c-0.7-0.9,0.4-2,1.3-1.3
	l14.1,11.6c0.5,0.4,1.3,0.3,1.7-0.2l0.9-1.1c0.4-0.5,0.3-1.3-0.2-1.7l-16-13.2c-0.9-0.7,0-2,1-1.5l12.9,6.8c0.4,0.2,1,0.1,1.2-0.4
	l1-1.8c0.2-0.4,0.1-1-0.4-1.2L103,74.8c-1-0.5-0.4-2,0.7-1.7l19.6,5.8c0.6,0.2,1.3-0.2,1.5-0.8l0.4-1.4c0.2-0.6-0.2-1.3-0.8-1.5
	l-19.9-5.9c-1.1-0.3-0.8-1.9,0.3-1.8l14.5,1.3C119.9,68.9,120.3,68.5,120.4,68z"/>
<path class="st114" d="M102.4,63.6l0-1.4c0-0.7-0.6-1.2-1.2-1.2L92,61.1c-1.1,0-1.5-1.5-0.4-2l8.4-3.5c0.6-0.3,0.9-1,0.6-1.6
	l-0.6-1.3c-0.3-0.6-1-0.9-1.6-0.6l-8.9,3.7c-1,0.4-1.9-0.9-1.1-1.7l6.8-7c0.4-0.4,0.4-1.1,0-1.6l-1.2-1.2c-0.4-0.4-1.1-0.4-1.6,0
	L86.1,51c-0.8,0.8-2.1-0.1-1.7-1.1l3.5-8.6c0.2-0.6,0-1.2-0.6-1.4l-1.5-0.6c-0.6-0.2-1.2,0-1.4,0.6l-3.7,9.1c-0.4,1-2,0.7-2-0.4
	l-0.1-9.8c0-0.6-0.5-1.1-1.1-1.1l-1.7,0c-0.6,0-1.1,0.5-1.1,1.1l0.1,9.2c0,1.1-1.5,1.5-2,0.4l-3.6-8.5c-0.2-0.6-0.9-0.8-1.4-0.6
	L66.3,40c-0.6,0.2-0.8,0.9-0.6,1.4l3.8,9c0.4,1-0.9,1.9-1.7,1.1l-7-6.8c-0.4-0.4-1.1-0.4-1.6,0L58.1,46c-0.4,0.4-0.4,1.1,0,1.6
	l6.6,6.5c0.8,0.8-0.1,2.1-1.1,1.7L55,52.1c-0.5-0.2-1.2,0-1.4,0.6L53,54.3c-0.2,0.5,0,1.2,0.6,1.4l9.1,3.7c1,0.4,0.7,2-0.4,2
	l-9.8,0.1c-0.6,0-1.1,0.5-1,1.1l0,1.7c0,0.6,0.5,1.1,1.1,1l9.3-0.1c1.1,0,1.5,1.5,0.4,2l-8.6,3.6c-0.5,0.2-0.8,0.8-0.6,1.4l0.7,1.6
	c0.2,0.5,0.8,0.8,1.4,0.6l9.1-3.8c1-0.4,1.9,0.9,1.1,1.7l-6.8,7c-0.4,0.4-0.4,1.1,0,1.6l1.2,1.1c0.4,0.4,1.1,0.4,1.6,0l6.5-6.6
	c0.8-0.8,2.1,0.1,1.7,1.1L65.9,85c-0.2,0.6,0,1.2,0.6,1.4L68,87c0.6,0.2,1.2,0,1.4-0.6l3.7-9.1c0.4-1,2-0.7,2,0.4l0.1,9.8
	c0,0.6,0.5,1.1,1.1,1.1l1.6,0c0.6,0,1.1-0.5,1.1-1.1L79,78.3c0-1.1,1.5-1.5,2-0.4l3.6,8.5c0.2,0.6,0.9,0.8,1.4,0.6l1.5-0.6
	c0.6-0.2,0.8-0.9,0.6-1.4l-3.8-9c-0.4-1,0.9-1.9,1.7-1.1l7,6.8c0.4,0.4,1.1,0.4,1.6,0l1.1-1.2c0.4-0.4,0.4-1.1,0-1.6l-6.6-6.5
	c-0.8-0.8,0.1-2.1,1.1-1.7l8.4,3.5c0.6,0.3,1.3,0,1.6-0.7l0.5-1.3c0.3-0.6,0-1.3-0.7-1.6l-9-3.7c-1-0.4-0.7-2,0.4-2l9.7-0.1
	C101.9,64.8,102.4,64.2,102.4,63.6z"/>
<path class="st115" d="M76.9,70.7c-3.8,0-7.1-2.9-7.5-6.8c-0.4-4.1,2.6-7.8,6.7-8.2c4.1-0.4,7.8,2.6,8.2,6.7s-2.6,7.8-6.7,8.2
	C77.4,70.6,77.1,70.7,76.9,70.7z M76.9,59.5c-0.1,0-0.2,0-0.4,0c-2,0.2-3.5,2-3.3,4c0.2,2,2,3.5,4,3.3c2-0.2,3.5-2,3.3-4
	C80.4,60.9,78.8,59.5,76.9,59.5z"/>
<path class="st116" d="M73.1,25.5c-1,0-1.8-0.7-1.9-1.7l-0.3-3.1c-0.1-1.1,0.7-2,1.7-2.1c1.1-0.1,2,0.7,2.1,1.7l0.3,3.1
	c0.1,1.1-0.7,2-1.7,2.1C73.2,25.5,73.1,25.5,73.1,25.5z"/>
<path class="st116" d="M32.3,69.4c-1,0-1.8-0.7-1.9-1.7c-0.1-1.1,0.7-2,1.7-2.1l8.2-0.8c1.1-0.1,2,0.7,2.1,1.7
	c0.1,1.1-0.7,2-1.7,2.1l-8.2,0.8C32.4,69.4,32.4,69.4,32.3,69.4z"/>
<path class="st116" d="M47.6,41c-0.4,0-0.9-0.1-1.2-0.4l-1.3-1.1c-0.8-0.7-0.9-1.9-0.3-2.7c0.7-0.8,1.9-0.9,2.7-0.3l1.3,1.1
	c0.8,0.7,0.9,1.9,0.3,2.7C48.8,40.7,48.2,41,47.6,41z"/>
<path class="st116" d="M54.2,23.2c-0.7,0-1.3-0.4-1.7-1l-1.2-2.2c-0.5-0.9-0.2-2.1,0.8-2.6c0.9-0.5,2.1-0.2,2.6,0.8l1.2,2.2
	c0.5,0.9,0.2,2.1-0.8,2.6C54.9,23.1,54.5,23.2,54.2,23.2z"/>
<path class="st116" d="M48,56.5c-0.2,0-0.4,0-0.5-0.1l-2.6-0.8c-1-0.3-1.6-1.4-1.3-2.4c0.3-1,1.4-1.6,2.4-1.3l2.6,0.8
	c1,0.3,1.6,1.4,1.3,2.4C49.6,55.9,48.8,56.5,48,56.5z"/>
<path class="st116" d="M34.5,52.5c-0.2,0-0.4,0-0.5-0.1l-5.7-1.7c-1-0.3-1.6-1.4-1.3-2.4c0.3-1,1.4-1.6,2.4-1.3l5.7,1.7
	c1,0.3,1.6,1.4,1.3,2.4C36.1,51.9,35.3,52.5,34.5,52.5z"/>
<path class="st116" d="M77.7,72.6c-1,0-1.8-0.7-1.9-1.7c-0.1-1.1,0.7-2,1.7-2.1c1.2-0.1,2.3-0.6,3.2-1.4c0.8-0.7,2-0.7,2.7,0.1
	c0.7,0.8,0.7,2-0.1,2.7c-1.5,1.4-3.4,2.2-5.5,2.4C77.8,72.6,77.7,72.6,77.7,72.6z"/>
<path class="st116" d="M84.5,64.9c-1,0-1.9-0.8-1.9-1.9c0-0.1,0-0.2,0-0.3c-0.1-1.1,0.7-2,1.7-2.1c1.1-0.1,2,0.7,2.1,1.7
	c0,0.2,0,0.4,0,0.5C86.4,63.9,85.6,64.8,84.5,64.9C84.5,64.9,84.5,64.9,84.5,64.9z"/>
<path class="st112" d="M166.5,82.9c-0.4,0-0.8-0.1-1.1-0.3c-0.9-0.6-1.1-1.8-0.5-2.7l7-10.3c0.6-0.9,1.8-1.1,2.7-0.5
	c0.9,0.6,1.1,1.8,0.5,2.7l-7,10.3C167.7,82.6,167.1,82.9,166.5,82.9z"/>
<path class="st112" d="M174.7,86.7c-0.4,0-0.8-0.1-1.1-0.3c-0.9-0.6-1.1-1.8-0.5-2.7l1.1-1.6c0.6-0.9,1.8-1.1,2.7-0.5
	c0.9,0.6,1.1,1.8,0.5,2.7l-1.1,1.6C176,86.4,175.3,86.7,174.7,86.7z"/>
<path class="st112" d="M168.7,66.4c-0.4,0-0.8-0.1-1.1-0.3c-0.9-0.6-1.1-1.8-0.5-2.7l3.2-4.6c0.6-0.9,1.8-1.1,2.7-0.5
	c0.9,0.6,1.1,1.8,0.5,2.7l-3.2,4.6C169.9,66.1,169.3,66.4,168.7,66.4z"/>
</svg>
