<?xml version="1.0" encoding="UTF-8"?>
<svg xmlns="http://www.w3.org/2000/svg" xmlns:xlink="http://www.w3.org/1999/xlink" viewBox="0 0 48 48" version="1.1" width="96px" height="96px">
<g id="surface1">
<path style=" fill:#9FA8DA;" d="M 12 13 L 12 38 C 12 40.210938 13.789063 42 16 42 L 32 42 C 34.210938 42 36 40.210938 36 38 L 36 13 Z "/>
<path style=" fill:#7986CB;" d="M 23 15 L 25 15 L 25 38 L 23 38 Z "/>
<path style=" fill:#7986CB;" d="M 29 15 L 31 15 L 31 38 L 29 38 Z "/>
<path style=" fill:#7986CB;" d="M 17 15 L 19 15 L 19 38 L 17 38 Z "/>
<path style=" fill:#5C6BC0;" d="M 10 11 L 38 11 L 38 15 L 10 15 Z "/>
<path style=" fill:#5C6BC0;" d="M 21.800781 13.027344 C 21.308594 12.492188 21 11.785156 21 11 C 21 9.34375 22.34375 8 24 8 C 25.65625 8 27 9.34375 27 11 C 27 11.785156 26.691406 12.492188 26.199219 13.027344 L 28.5625 13.027344 C 28.839844 12.40625 29 11.722656 29 11 C 29 8.238281 26.761719 6 24 6 C 21.238281 6 19 8.238281 19 11 C 19 11.722656 19.160156 12.40625 19.4375 13.027344 Z "/>
</g>
</svg>
