<?xml version="1.0" encoding="utf-8"?>
<!-- Generator: Adobe Illustrator 20.1.0, SVG Export Plug-In . SVG Version: 6.00 Build 0)  -->
<svg version="1.1" id="Layer_1" xmlns="http://www.w3.org/2000/svg" xmlns:xlink="http://www.w3.org/1999/xlink" x="0px" y="0px"
	 viewBox="0 0 400 400" style="enable-background:new 0 0 400 400;" xml:space="preserve">
<style type="text/css">
	.st0{fill:#4D831C;stroke:#2A481D;stroke-width:4;stroke-linecap:round;stroke-linejoin:round;stroke-miterlimit:10;}
	.st1{fill:#F22F2E;stroke:#7B000E;stroke-width:5;stroke-miterlimit:10;}
	.st2{fill:#F22F2E;stroke:#7B000E;stroke-width:3;stroke-miterlimit:10;}
	.st3{fill:none;stroke:#FFFFFF;stroke-linecap:round;stroke-miterlimit:10;}
	.st4{fill:none;stroke:#7B000E;stroke-linecap:round;stroke-linejoin:round;stroke-miterlimit:10;}
	.st5{fill:#4D831C;}
	.st6{fill:#2A481D;}
	.st7{fill:#8A9D1F;}
	.st8{fill:#1B4700;}
	.st9{fill:#F40000;}
	.st10{fill:#7DB34C;stroke:#164E16;stroke-width:5;stroke-miterlimit:10;}
	.st11{fill:#F9C900;}
	.st12{fill:none;stroke:#1B4700;stroke-width:3;stroke-linejoin:round;stroke-miterlimit:10;}
	.st13{fill:#8A9D1F;stroke:#0D3102;stroke-width:5;stroke-miterlimit:10;}
	.st14{fill:#639D2E;stroke:#164E16;stroke-width:5;stroke-miterlimit:10;}
	.st15{fill:#8A9D1F;stroke:#1B4700;stroke-width:5;stroke-linejoin:round;stroke-miterlimit:10;}
	.st16{fill:#6FB228;stroke:#2A481D;stroke-width:3;stroke-linecap:round;stroke-miterlimit:10;}
	.st17{fill:#A7C92B;stroke:#1B4700;stroke-width:5;stroke-miterlimit:10;}
	.st18{fill:#6FAB00;stroke:#1B4700;stroke-width:5;stroke-miterlimit:10;}
	.st19{fill:#9BB31C;stroke:#2A481D;stroke-width:4;stroke-miterlimit:10;}
	.st20{fill:#6FB228;stroke:#2A481D;stroke-width:4;stroke-linecap:round;stroke-miterlimit:10;}
	.st21{fill:#6E8517;}
	.st22{fill:#00FFFF;}
	.st23{fill:#A2CC62;stroke:#2A481D;stroke-width:6;stroke-miterlimit:10;}
	.st24{fill:#FAD500;stroke:#E6681E;stroke-width:3;stroke-miterlimit:10;}
	.st25{fill:none;stroke:#E6681E;stroke-linecap:round;stroke-miterlimit:10;}
	.st26{fill:none;stroke:#E6681E;stroke-miterlimit:10;}
	.st27{fill:#E6681E;}
	.st28{fill:#A2CC62;}
	.st29{fill:none;stroke:#2A481D;stroke-miterlimit:10;}
	.st30{fill:#FFFFFF;}
	.st31{fill:#A7C92B;}
	.st32{fill:#D10000;stroke:#7B000E;stroke-width:3;stroke-miterlimit:10;}
	.st33{fill:none;stroke:#7B000E;stroke-miterlimit:10;}
	.st34{fill:none;stroke:#7B000E;stroke-width:1.2609;stroke-miterlimit:10;}
	.st35{fill:#D10000;}
	.st36{fill:#7B000E;}
	.st37{opacity:0.7;}
	.st38{fill:#4D831C;stroke:#2A481D;stroke-width:3;stroke-miterlimit:10;}
	.st39{opacity:0.5;fill:none;stroke:#FFFFFF;stroke-linecap:round;stroke-miterlimit:10;}
	.st40{fill:#BD0408;}
	.st41{fill:#C8040B;stroke:#6C0A04;stroke-width:3;stroke-miterlimit:10;}
	.st42{fill:none;stroke:#6C0A04;stroke-linecap:round;stroke-miterlimit:10;}
	.st43{fill:#A7C08F;}
	.st44{fill:none;stroke:#FFFFFF;stroke-width:6.4322;stroke-linecap:round;stroke-miterlimit:10;}
	.st45{fill:#C8040B;}
	.st46{fill:#6C0A04;}
	.st47{fill:#F22F2E;stroke:#9E0E00;stroke-width:3;stroke-miterlimit:10;}
	.st48{fill:#A7C92B;stroke:#164E16;stroke-width:3;stroke-miterlimit:10;}
	.st49{fill:none;stroke:#164E16;stroke-miterlimit:10;}
	.st50{fill:#4D831C;stroke:#2A481D;stroke-width:3;stroke-linecap:round;stroke-linejoin:round;stroke-miterlimit:10;}
	.st51{fill:none;stroke:#7B000E;stroke-linecap:round;stroke-miterlimit:10;}
	.st52{fill:#F40000;stroke:#7B000E;stroke-width:3;stroke-miterlimit:10;}
	.st53{fill:#7DB34C;stroke:#164E16;stroke-width:3;stroke-miterlimit:10;}
	.st54{fill:none;stroke:#FFFFFF;stroke-linecap:round;stroke-linejoin:round;stroke-miterlimit:10;}
	.st55{fill:#164E16;}
	.st56{fill:#F22F2E;stroke:#7B000E;stroke-miterlimit:10;}
	.st57{fill:#F6E600;}
	.st58{fill:#8DCC50;}
	.st59{fill:#A2A121;}
	.st60{fill:#F9EFA7;}
	.st61{fill:#7DB34C;}
	.st62{fill:#F22F2E;}
	.st63{fill:#6FAB00;stroke:#1B4700;stroke-width:3;stroke-miterlimit:10;}
	.st64{fill:none;stroke:#1B4700;stroke-linecap:round;stroke-miterlimit:10;}
	.st65{fill:#6E8517;stroke:#1B4700;stroke-linecap:round;stroke-miterlimit:10;}
	.st66{fill:#6FAB00;}
	.st67{fill:#853323;}
	.st68{fill:#7AB000;}
	.st69{fill:#430000;}
	.st70{fill:#2B0101;}
	.st71{fill:none;stroke:#1B4700;stroke-width:1.5;stroke-linecap:round;stroke-linejoin:round;stroke-miterlimit:10;}
	.st72{fill:none;stroke:#1B4700;stroke-width:3;stroke-linecap:round;stroke-linejoin:round;stroke-miterlimit:10;}
	.st73{fill:#FAB2B3;}
	.st74{fill:none;stroke:#1B4700;stroke-width:18.8546;stroke-linecap:round;stroke-linejoin:round;stroke-miterlimit:10;}
	.st75{fill:none;stroke:#1B4700;stroke-width:2;stroke-linecap:round;stroke-miterlimit:10;}
	.st76{fill:none;stroke:#6FAB00;stroke-linecap:round;stroke-miterlimit:10;}
	.st77{fill:#9E0E00;}
	.st78{clip-path:url(#SVGID_2_);}
	.st79{fill:#6FB228;}
	.st80{fill:#F9C900;stroke:#CE571B;stroke-width:3;stroke-miterlimit:10;}
	.st81{opacity:0.3;fill:none;stroke:#CE571B;stroke-linecap:round;stroke-linejoin:round;stroke-miterlimit:10;}
	.st82{fill:#9BB31C;}
	.st83{opacity:0.3;fill:#CE571B;}
	.st84{fill:#CE571B;}
	.st85{fill:#EAA629;}
	.st86{fill:#853323;stroke:#430000;stroke-width:3;stroke-miterlimit:10;}
	.st87{fill:none;stroke:#430000;stroke-linecap:round;stroke-miterlimit:10;}
	.st88{fill:#8A9D1F;stroke:#1B4700;stroke-miterlimit:10;}
	.st89{fill:#F22F2E;stroke:#7B000E;stroke-width:2.5607;stroke-miterlimit:10;}
	.st90{opacity:0.4;}
	.st91{fill:#8A9D1F;stroke:#1B4700;stroke-linejoin:round;stroke-miterlimit:10;}
	.st92{opacity:0.3;fill:#1B4700;}
	.st93{opacity:0.4;fill:#7B000E;}
	.st94{opacity:0.4;fill:none;stroke:#7B000E;stroke-linecap:round;stroke-linejoin:round;stroke-miterlimit:10;}
	.st95{opacity:0.4;fill:none;stroke:#7B000E;stroke-miterlimit:10;}
	.st96{opacity:0.3;fill:none;stroke:#1B4700;stroke-linecap:round;stroke-linejoin:round;stroke-miterlimit:10;}
	.st97{fill:#C01F28;}
	.st98{fill:#698222;}
	.st99{fill:none;stroke:#7B000E;stroke-width:6.1236;stroke-miterlimit:10;}
	.st100{opacity:0.5;fill:#6FB228;stroke:#2A481D;stroke-linecap:round;stroke-miterlimit:10;}
	.st101{opacity:0.5;fill:#2A481D;}
	.st102{fill:#4D7C29;}
	.st103{fill:#9D121E;}
	.st104{fill:#639D2E;}
	.st105{fill:none;stroke:#0D3102;stroke-width:3;stroke-miterlimit:10;}
	.st106{fill:#639D2E;stroke:#164E16;stroke-miterlimit:10;}
	.st107{fill:#0D3102;}
	.st108{fill:none;stroke:#0D3102;stroke-linecap:round;stroke-miterlimit:10;}
	.st109{fill:#8A9D1F;stroke:#0D3102;stroke-miterlimit:10;}
	.st110{fill:#F9C900;stroke:#CE571B;stroke-miterlimit:10;}
	.st111{fill:#F9C900;stroke:#CE571B;stroke-linecap:round;stroke-miterlimit:10;}
	.st112{fill:none;stroke:#CE571B;stroke-linecap:round;stroke-miterlimit:10;}
	.st113{fill:none;stroke:#FFFFFF;stroke-width:6.3779;stroke-linecap:round;stroke-miterlimit:10;}
	.st114{fill:#7DB34C;stroke:#164E16;stroke-linejoin:round;stroke-miterlimit:10;}
	.st115{fill:none;stroke:#1B4700;stroke-linecap:round;stroke-linejoin:round;stroke-miterlimit:10;}
	.st116{fill:none;stroke:#FFFFFF;stroke-width:6.2485;stroke-linecap:round;stroke-miterlimit:10;}
	.st117{fill:#164100;}
</style>
<g>
	<polygon class="st62" points="152.3,285.7 161.2,336 187.5,339.9 328.3,278.7 389.4,210.8 374,155.8 286.6,90.5 237.3,93.9 
		199.9,140.3 152.3,64.4 96.7,71.2 15.5,145.5 15.5,188.2 	"/>
	<path class="st30" d="M79.8,129.5c-1,0-1.9-0.5-2.5-1.3c-1-1.4-0.7-3.3,0.7-4.3c5-3.5,9.4-7.8,13.1-12.6c1.1-1.4,3-1.6,4.4-0.5
		c1.4,1.1,1.6,3,0.5,4.4c-4.1,5.3-9,10-14.4,13.9C81,129.3,80.4,129.5,79.8,129.5z"/>
	<path class="st30" d="M46.1,171.1c0,0-0.1,0-0.1,0c-1.7-0.1-3.1-1.5-3-3.2c0.3-7.3,3.1-14.4,7.9-19.9c1.1-1.3,3.1-1.4,4.4-0.3
		c1.3,1.1,1.4,3.1,0.3,4.4c-3.9,4.4-6.1,10.2-6.3,16.1C49.1,169.8,47.7,171.1,46.1,171.1z"/>
	<path class="st36" d="M381.3,151.8c-9.8-15-25.7-24.9-37.3-30.6c-2.7-1.3-5.1-3.2-6.9-5.6c-8.2-10.6-21.3-24.4-36.8-30.4
		c-34-13-62.1-9.9-77.3,8.6c-5.1,6.3-10,12.7-14.7,19.5c-2.8,4-8.8,3.7-11.1-0.5c-9.1-16.5-19.5-31.9-31.1-46.1
		c-13.2-16-39.4-18.5-70.2-6.7c-14.2,5.5-26.4,18.5-34.2,28.4c-2.4,3.1-5.5,5.6-9.1,7.4c-10.9,5.3-25.8,14.6-34.8,28.4
		c-17.9,27.3-20.5,53.5-7,69.9c27.9,34.1,63.8,62.4,106.5,84.1c7.2,3.7,14.4,7,21.3,10c4.9,2.1,7.9,7.1,7.5,12.4
		c-0.3,4.5-0.5,8.7-0.6,12.6c-0.4,10.9,4.2,21.1,12.6,28c6.3,5.2,14,7.9,21.9,7.9c2.6,0,5.3-0.3,7.9-0.9c21.7-5,55.3-14.9,91.4-33.3
		c43.5-22.1,80-50.9,108.5-85.7v0C403.1,210.5,400.7,181.6,381.3,151.8z M178.4,221.8c12.5-44.5,32.4-83.6,59-116.1
		c5.2-6.4,13.9-9.6,24.9-9.6c9.1,0,19.7,2.2,31.3,6.6c12.2,4.7,23.3,17.3,28.8,24.4c3.6,4.6,8.1,8.3,13.4,10.9
		c7.8,3.8,22,12,29.9,24c14.5,22.2,17.5,43.4,7.8,55.2c-26.8,32.7-61.3,59.9-102.5,80.9c-34.5,17.6-66.5,27-87.2,31.8
		c-4.9,1.1-9.9,0-13.8-3.2c-3.9-3.2-6-7.9-5.8-12.9C164.8,292.4,167.9,259.1,178.4,221.8z M173.1,217.4c-0.4,1.3-2.2,1.4-2.7,0.2
		c0,0,0,0,0,0c-2.4-5.4-5.7-10.2-9.8-14.4c-4.1-4.2-8.9-7.6-14.3-10.1c-8-3.7-14.4-10.2-18-18.3c-2.4-5.4-5.7-10.2-9.8-14.4
		c-3.5-3.5-7.4-6.5-11.7-8.8c-1.3-0.7-3-0.4-3.9,0.7c-1.3,1.6-0.7,3.8,0.9,4.7c3.8,2,7.2,4.6,10.3,7.7c3.6,3.7,6.5,7.9,8.6,12.6
		c4.2,9.5,11.7,17.1,21.1,21.4c4.6,2.2,8.8,5.1,12.4,8.8c3.7,3.8,6.6,8.1,8.7,12.9c0.5,1.1,1.1,2.2,1.7,3.3c2,3.9,2.7,8.3,1.7,12.6
		c-2.5,10.6-4.4,20.8-5.9,30.4c-0.8,5.3-6.4,8.5-11.4,6.4c-8.1-3.4-16.6-7.3-25.2-11.6c-40.4-20.5-74.2-47.2-100.5-79.3
		c-7.8-9.5-4.6-28.3,8.2-47.9c7-10.8,20.2-18.3,27.4-21.9c6.2-3,11.4-7.3,15.6-12.7c5.1-6.6,15.3-18.3,26.1-22.4
		c22.6-8.7,41.4-8.3,49.1,1.1c15.9,19.4,29.3,41.2,40.2,65.1c3.4,7.6,3.4,16.3-0.1,23.9c-3.4,7.5-6.5,15.2-9.6,23
		C178,200.5,174.7,211.8,173.1,217.4z"/>
	<path class="st30" d="M221.1,179.8c-0.5,0-1-0.1-1.5-0.4c-1.5-0.8-2.1-2.7-1.3-4.2c6-11.2,12.8-22,20-32.1c1-1.4,2.9-1.7,4.3-0.7
		c1.4,1,1.7,2.9,0.7,4.3c-7.1,9.8-13.7,20.4-19.6,31.4C223.3,179.2,222.2,179.8,221.1,179.8z"/>
	<path class="st36" d="M214.6,276.7c-0.4,0-0.7-0.1-1.1-0.2c-1.6-0.6-2.4-2.4-1.8-4c1.8-4.6,4.2-8.9,7.3-12.8
		c3.7-4.6,8-8.6,13.1-11.6c7.6-4.6,13.2-11.8,15.9-20.2c1.8-5.6,4.5-10.8,8.2-15.4c3.7-4.6,8-8.6,13.1-11.6
		c7.6-4.6,13.2-11.8,15.9-20.2c0.5-1.6,2.3-2.5,3.9-2c1.6,0.5,2.5,2.3,2,3.9c-3.1,9.9-9.7,18.2-18.5,23.6
		c-4.4,2.7-8.2,6.1-11.4,10.1c-3.2,4.1-5.6,8.6-7.1,13.5c-3.1,9.9-9.7,18.2-18.6,23.6c-4.4,2.7-8.2,6.1-11.4,10.1
		c-2.7,3.4-4.8,7.2-6.3,11.2C217,276,215.8,276.7,214.6,276.7z"/>
	<path class="st30" d="M269.6,226.7c-0.7,0-1.3-0.2-1.9-0.7c-1.4-1.1-1.6-3-0.5-4.4c3.7-4.6,8-8.6,13.1-11.6
		c4.1-2.5,7.6-5.7,10.5-9.7c1-1.4,3-1.7,4.3-0.7c1.4,1,1.7,3,0.7,4.3c-3.4,4.6-7.5,8.4-12.3,11.3c-4.4,2.7-8.2,6.1-11.4,10.1
		C271.5,226.3,270.5,226.7,269.6,226.7z"/>
	
		<ellipse transform="matrix(0.6702 -0.7422 0.7422 0.6702 -71.8668 222.0642)" class="st30" cx="213.9" cy="191.9" rx="3.7" ry="3.7"/>
	<path class="st36" d="M306.9,162.7c-0.7,0-1.4-0.2-2-0.7c-1.3-1.1-1.5-3-0.4-4.4l9-10.9c1.1-1.3,3.1-1.5,4.4-0.4
		c1.3,1.1,1.5,3,0.4,4.4l-9,10.9C308.7,162.3,307.8,162.7,306.9,162.7z"/>
	<path class="st36" d="M186.3,309.8c-0.7,0-1.4-0.2-2-0.7c-1.3-1.1-1.5-3-0.4-4.4l9-10.9c1.1-1.3,3.1-1.5,4.4-0.4
		c1.3,1.1,1.5,3,0.4,4.4l-9,10.9C188,309.4,187.2,309.8,186.3,309.8z"/>
	<g>
		<path class="st82" d="M344.6,142c-11.3-4-20.9-11.9-27-22.1c6.2-3.5,21.5-13,32.5-26c6.1,0.1,12.3,5.3,13.6,11.1
			C353.2,118.3,346.9,135.2,344.6,142z"/>
	</g>
	<path class="st6" d="M347.6,142.6c0.8-2.4,2.1-6,3.9-10.2c1-2.3,3.8-3.2,5.9-1.8c2.1,1.4,4.3,3,6.4,4.7c3-6.8,7.2-14.8,12.6-21.4
		c2.1-2.6,3.2-5.9,2.9-9.2c-1.5-15.2-16.7-27.7-32-26.2c-3.3,0.3-6.4,2-8.5,4.6c-5.5,6.6-12.5,12.4-18.5,16.6c2,1.8,3.9,3.6,5.8,5.5
		c1.7,1.8,1.4,4.7-0.7,6.1c-3.7,2.5-6.9,4.5-9.1,5.7c-1.7,1-2.2,3.1-1.2,4.8c3,5,6.7,9.4,11,13c6.2,5.1,13,8.3,17,9.8
		C344.9,145.4,347,144.5,347.6,142.6z M338.5,135.9c-5.2-2.9-9.9-6.7-13.8-11.3c-1.6-1.9-1.1-4.7,0.9-6c6.6-4.3,15.6-10.7,23.3-18.9
		c1.8-1.9,4.6-2.2,6.7-0.7c0.6,0.4,1.2,0.9,1.8,1.4c1.8,1.8,2.1,4.6,0.6,6.7c-6.4,9.1-11,19.3-13.9,26.6
		C343.3,136.1,340.7,137.1,338.5,135.9z"/>
	
		<ellipse transform="matrix(0.6702 -0.7422 0.7422 0.6702 -80.1684 92.8151)" class="st30" cx="64.4" cy="136.6" rx="3.7" ry="3.7"/>
	<g>
		<path class="st82" d="M54.5,115c-2.2-6.6-8.6-23.9-19.2-37.4c1.3-5.8,7.5-11,13.6-11.1c11.3,13.3,26.9,22.8,32.9,26.2
			C76.8,104.1,66.7,112.5,54.5,115z"/>
	</g>
	<path class="st6" d="M74,108.6c4.2-3.7,7.7-8.3,10.1-13.5c0.9-2.1,0.1-4.5-1.8-5.6c-2.1-1.2-5-2.9-8.3-5.2c-2.4-1.6-2.7-5-0.7-7
		c1.7-1.7,3.5-3.3,5.3-4.9c-6.1-4.3-13.2-10.1-18.7-16.8c-2.1-2.6-5.2-4.2-8.5-4.5c-7.1-0.7-14.7,1.8-20.8,6.7
		c-6.3,5.1-10.3,12.3-11,19.8c-0.3,3.2,0.8,6.4,2.8,8.9c5.4,6.6,9.7,14.7,12.7,21.6c2-1.5,4-2.9,6-4.2c2.4-1.5,5.6-0.5,6.7,2.1
		c1.5,3.6,2.7,6.8,3.4,9c0.7,2.2,3,3.4,5.2,2.8C60.7,116.7,67.5,114.2,74,108.6z M55.6,108.8c-2.9-7.6-8-19.3-15.3-29.7
		c-1.1-1.5-1-3.6,0.2-5c1.1-1.3,2.4-2.4,3.9-3.2c1.7-0.9,3.7-0.5,5,0.8c8.8,9.3,19.2,16.6,26.1,20.8c1.3,0.8,1.7,2.5,0.9,3.8
		c-4,6.4-10.1,11.3-17.1,14C57.7,111,56.1,110.2,55.6,108.8z"/>
</g>
</svg>
