<?xml version="1.0" encoding="utf-8"?>
<!-- Generator: Adobe Illustrator 20.1.0, SVG Export Plug-In . SVG Version: 6.00 Build 0)  -->
<svg version="1.1" id="Layer_1" xmlns="http://www.w3.org/2000/svg" xmlns:xlink="http://www.w3.org/1999/xlink" x="0px" y="0px"
	 viewBox="0 0 400 400" style="enable-background:new 0 0 400 400;" xml:space="preserve">
<style type="text/css">
	.st0{fill:#8A9D1F;stroke:#1B4700;stroke-width:5;stroke-linejoin:round;stroke-miterlimit:10;}
	.st1{fill:#6FB228;stroke:#2A481D;stroke-width:3;stroke-linecap:round;stroke-miterlimit:10;}
	.st2{fill:#A7C92B;stroke:#1B4700;stroke-width:5;stroke-miterlimit:10;}
	.st3{fill:#6FAB00;stroke:#1B4700;stroke-width:5;stroke-miterlimit:10;}
	.st4{fill:#9BB31C;stroke:#2A481D;stroke-width:4;stroke-miterlimit:10;}
	.st5{fill:#6FB228;stroke:#2A481D;stroke-width:4;stroke-linecap:round;stroke-miterlimit:10;}
	.st6{fill:#6E8517;}
	.st7{fill:#1B4700;}
	.st8{fill:#00FFFF;}
	.st9{fill:#A2CC62;stroke:#2A481D;stroke-width:6;stroke-miterlimit:10;}
	.st10{fill:#FAD500;stroke:#E6681E;stroke-width:3;stroke-miterlimit:10;}
	.st11{fill:none;stroke:#E6681E;stroke-linecap:round;stroke-miterlimit:10;}
	.st12{fill:none;stroke:#FFFFFF;stroke-linecap:round;stroke-miterlimit:10;}
	.st13{fill:none;stroke:#E6681E;stroke-miterlimit:10;}
	.st14{fill:#E6681E;}
	.st15{fill:#A2CC62;stroke:#2A481D;stroke-miterlimit:10;}
	.st16{fill:#FFFFFF;}
	.st17{fill:#A2CC62;}
	.st18{fill:#F9C900;}
	.st19{fill:#CE571B;}
	.st20{fill:#9BB31C;}
	.st21{fill:#164100;}
	.st22{fill:#4D831C;}
	.st23{fill:#2A481D;}
	.st24{fill:#A7C92B;}
	.st25{fill:#D10000;stroke:#7B000E;stroke-width:3;stroke-miterlimit:10;}
	.st26{fill:none;stroke:#7B000E;stroke-miterlimit:10;}
	.st27{fill:none;stroke:#7B000E;stroke-width:1.2609;stroke-miterlimit:10;}
	.st28{fill:#D10000;}
	.st29{fill:#7B000E;}
	.st30{opacity:0.7;}
	.st31{fill:#4D831C;stroke:#2A481D;stroke-width:3;stroke-miterlimit:10;}
	.st32{opacity:0.5;fill:none;stroke:#FFFFFF;stroke-linecap:round;stroke-miterlimit:10;}
	.st33{fill:#BD0408;}
	.st34{fill:#C8040B;stroke:#6C0A04;stroke-width:3;stroke-miterlimit:10;}
	.st35{fill:none;stroke:#6C0A04;stroke-linecap:round;stroke-miterlimit:10;}
	.st36{fill:#A7C08F;}
	.st37{fill:none;stroke:#FFFFFF;stroke-width:6.4322;stroke-linecap:round;stroke-miterlimit:10;}
	.st38{fill:#C8040B;}
	.st39{fill:#6C0A04;}
	.st40{fill:#F22F2E;stroke:#9E0E00;stroke-width:3;stroke-miterlimit:10;}
	.st41{fill:#A7C92B;stroke:#164E16;stroke-width:3;stroke-miterlimit:10;}
	.st42{fill:none;stroke:#164E16;stroke-miterlimit:10;}
	.st43{fill:#4D831C;stroke:#2A481D;stroke-width:3;stroke-linecap:round;stroke-linejoin:round;stroke-miterlimit:10;}
	.st44{fill:#F22F2E;stroke:#7B000E;stroke-width:3;stroke-miterlimit:10;}
	.st45{fill:none;stroke:#7B000E;stroke-linecap:round;stroke-miterlimit:10;}
	.st46{fill:#F40000;stroke:#7B000E;stroke-width:3;stroke-miterlimit:10;}
	.st47{fill:#F40000;}
	.st48{fill:#7DB34C;stroke:#164E16;stroke-width:3;stroke-miterlimit:10;}
	.st49{fill:none;stroke:#FFFFFF;stroke-linecap:round;stroke-linejoin:round;stroke-miterlimit:10;}
	.st50{fill:#8A9D1F;}
	.st51{fill:#164E16;}
	.st52{fill:none;stroke:#7B000E;stroke-linecap:round;stroke-linejoin:round;stroke-miterlimit:10;}
	.st53{fill:#F6E600;}
	.st54{fill:#8DCC50;}
	.st55{fill:#A2A121;}
	.st56{fill:#F9EFA7;}
	.st57{fill:#7DB34C;}
	.st58{fill:#F22F2E;}
	.st59{fill:#6FAB00;stroke:#1B4700;stroke-width:3;stroke-miterlimit:10;}
	.st60{fill:none;stroke:#1B4700;stroke-linecap:round;stroke-miterlimit:10;}
	.st61{fill:#6E8517;stroke:#1B4700;stroke-linecap:round;stroke-miterlimit:10;}
	.st62{fill:#6FAB00;}
	.st63{fill:#853323;}
	.st64{fill:#7AB000;}
	.st65{fill:#430000;}
	.st66{fill:#2B0101;}
	.st67{fill:none;stroke:#1B4700;stroke-width:1.5;stroke-linecap:round;stroke-linejoin:round;stroke-miterlimit:10;}
	.st68{fill:none;stroke:#1B4700;stroke-width:3;stroke-linecap:round;stroke-linejoin:round;stroke-miterlimit:10;}
	.st69{fill:#FAB2B3;}
	.st70{fill:none;stroke:#1B4700;stroke-width:18.8546;stroke-linecap:round;stroke-linejoin:round;stroke-miterlimit:10;}
	.st71{fill:none;stroke:#1B4700;stroke-width:2;stroke-linecap:round;stroke-miterlimit:10;}
	.st72{fill:none;stroke:#6FAB00;stroke-linecap:round;stroke-miterlimit:10;}
	.st73{fill:#9E0E00;}
	.st74{clip-path:url(#SVGID_2_);}
	.st75{fill:#6FB228;}
	.st76{fill:#F9C900;stroke:#CE571B;stroke-width:3;stroke-miterlimit:10;}
	.st77{opacity:0.3;fill:none;stroke:#CE571B;stroke-linecap:round;stroke-linejoin:round;stroke-miterlimit:10;}
	.st78{opacity:0.3;fill:#CE571B;}
	.st79{fill:#EAA629;}
	.st80{fill:#853323;stroke:#430000;stroke-width:3;stroke-miterlimit:10;}
	.st81{fill:none;stroke:#430000;stroke-linecap:round;stroke-miterlimit:10;}
	.st82{fill:#8A9D1F;stroke:#1B4700;stroke-miterlimit:10;}
	.st83{fill:#F22F2E;stroke:#7B000E;stroke-width:2.5607;stroke-miterlimit:10;}
	.st84{opacity:0.4;}
	.st85{fill:#8A9D1F;stroke:#1B4700;stroke-linejoin:round;stroke-miterlimit:10;}
	.st86{opacity:0.3;fill:#1B4700;}
	.st87{opacity:0.4;fill:#7B000E;}
	.st88{opacity:0.4;fill:none;stroke:#7B000E;stroke-linecap:round;stroke-linejoin:round;stroke-miterlimit:10;}
	.st89{opacity:0.4;fill:none;stroke:#7B000E;stroke-miterlimit:10;}
	.st90{opacity:0.3;fill:none;stroke:#1B4700;stroke-linecap:round;stroke-linejoin:round;stroke-miterlimit:10;}
	.st91{fill:#C01F28;}
	.st92{fill:#698222;}
	.st93{fill:none;stroke:#7B000E;stroke-width:6.1236;stroke-miterlimit:10;}
	.st94{opacity:0.5;fill:#6FB228;stroke:#2A481D;stroke-linecap:round;stroke-miterlimit:10;}
	.st95{opacity:0.5;fill:#2A481D;}
	.st96{fill:#4D7C29;}
	.st97{fill:#9D121E;}
	.st98{fill:#F22F2E;stroke:#7B000E;stroke-miterlimit:10;}
</style>
<path class="st58" d="M100.5,73.4c0.6,0.1,1.2,0.2,1.8,0.4C144,81.9,179,110,195.9,149l0.4,1c7.4,17.1,2.3,36.7-12.3,47.9
	c-26.8,20.5-61.1,31.8-90.5,38.1c-27.3,5.9-53.1-14.7-53-42.6c0.1-28.8,3.2-65.2,15.3-95.5C62.8,79.9,81.6,69.7,100.5,73.4z"/>
<path class="st29" d="M84,246.3c-12.1,0-23.8-4.1-33.4-11.9c-12.5-10.1-19.6-25.1-19.5-41.2c0.1-39.4,5.5-72.7,15.9-99
	c8.7-22,32-34.7,55.3-30.1l0,0l1.8,0.4c44.7,8.7,82.2,38.9,100.4,80.7l0.4,1c9.1,21,2.8,45.3-15.2,59.1
	c-23.6,18-55.3,31.4-94.2,39.8C91.6,245.9,87.8,246.3,84,246.3z M92.8,82c-12.3,0-23.7,7.5-28.4,19.2C55,125,49.9,156.8,49.8,193.4
	c0,10.3,4.6,20,12.6,26.5c8.2,6.6,18.7,9.1,29.1,6.9c36.2-7.8,65.4-20.1,86.8-36.4c11.2-8.6,15.1-23.6,9.4-36.7l-0.4-1
	c-15.7-36.1-48.1-62.2-86.8-69.8l-1.8-0.4C96.7,82.2,94.7,82,92.8,82z"/>
<path class="st58" d="M211,252.7c0.5-0.4,1-0.7,1.5-1.1c33.8-25.7,78.1-33.2,118.4-19.9l1,0.3c17.7,5.8,29,22.7,27.6,41
	c-2.5,33.6-16.9,66.8-31.7,93c-13.7,24.3-46.3,29.9-67.1,11.3c-21.5-19.2-46.6-45.7-61.2-74.9C190.8,285.2,195.7,264.3,211,252.7z"
	/>
<path class="st29" d="M289.5,397.7c-12.9,0-25.3-4.7-35.1-13.5c-29.4-26.3-50.7-52.4-63.4-77.7c-10.6-21.2-4.7-47,14.2-61.3l1.5-1.1
	c36.3-27.6,83.8-35.6,127-21.3l1,0.3c21.7,7.1,35.7,28,34,50.6c-2.2,29.6-13.3,62.2-32.9,96.9c-8,14.2-21.8,23.8-37.7,26.4
	C295.3,397.5,292.4,397.7,289.5,397.7z M290.5,234.6c-25.8,0-51.3,8.4-72.4,24.4l-1.5,1.1c-11.7,8.9-15.4,24.9-8.8,38
	c11.5,22.8,31.9,47.8,59.1,72.1c7.7,6.9,18,9.9,28.2,8.2c10.4-1.7,19.3-7.9,24.5-17.1c18.2-32.3,28.5-62.2,30.5-89
	c1.1-14-7.7-27-21.2-31.4l-1-0.3C315.7,236.5,303.1,234.6,290.5,234.6z"/>
<path class="st16" d="M74.2,156.5c-0.1,0-0.3,0-0.4,0c-1.7-0.2-2.9-1.8-2.7-3.5c1.4-11.2,3.5-21.6,6.1-30.8c0.5-1.7,2.2-2.6,3.9-2.2
	c1.7,0.5,2.6,2.2,2.2,3.9c-2.5,9-4.5,19-5.9,29.9C77,155.4,75.7,156.5,74.2,156.5z"/>
<path class="st16" d="M238.5,310c-1,0-2-0.5-2.6-1.3c-5.5-7.8-7.3-17.6-5-26.9c0.4-1.7,2.1-2.7,3.8-2.3c1.7,0.4,2.7,2.1,2.3,3.8
	c-1.8,7.5-0.4,15.5,4.1,21.8c1,1.4,0.6,3.4-0.8,4.4C239.8,309.8,239.2,310,238.5,310z"/>
<path class="st16" d="M260.1,336.3c-0.8,0-1.7-0.3-2.3-1c-4.3-4.6-8.3-9.2-12-13.7c-1.1-1.3-0.9-3.3,0.4-4.4
	c1.3-1.1,3.3-0.9,4.4,0.4c3.6,4.4,7.6,8.9,11.7,13.4c1.2,1.3,1.1,3.2-0.1,4.4C261.7,336,260.9,336.3,260.1,336.3z"/>
<path class="st50" d="M187,151.1c-2-3.7-5.4-6.6-9.9-7.7c-4.6-1.1-9.2,0-12.7,2.6c-2.3,1.7-5.4,1.4-7.1-0.9c-2-2.6-4.9-4.6-8.3-5.4
	c-2.2-0.6-4.5-0.6-6.6-0.1c-2.2,0.5-4.3-0.6-5.2-2.6c-1-2.2-2.4-4.1-4.4-5.7c-1.9-1.5-4-2.5-6.3-3c-2.3-0.5-3.9-2.4-4-4.7
	c-0.1-1.6-0.4-3.3-1-4.9c-1.5-3.8-4.3-6.6-7.7-8.2c-2.6-1.2-3.7-4.1-2.5-6.7c1.6-3.6,1.8-7.7,0.3-11.7c-1.8-4.5-5.4-7.6-9.6-9
	c0,0,47.8,9.9,85.3-36.8l24.3-36.9l16.8,14.2c8.3,18.7,27.2,66.9,41.4,142.5c11,58.9,56.8,73.6,56.8,73.6c-4.1-1-8.6-0.3-12.3,2.2
	c-3.9,2.7-6.2,6.9-6.5,11.4c-0.2,2.8-2.6,4.7-5.4,4.6c-3.3-0.2-6.6,0.6-9.6,2.6c-1.9,1.3-3.4,3-4.5,4.9c-1.1,1.9-3.3,2.8-5.4,2.1
	c-2.2-0.7-4.7-0.9-7.2-0.5c-2.4,0.4-4.5,1.4-6.4,2.7c-1.9,1.4-4.4,1.4-6.2-0.1c-1.3-1-2.7-1.9-4.4-2.5c-3.8-1.4-7.8-1.2-11.2,0.3
	c-2.6,1.1-5.5,0-6.7-2.6c-1.6-3.6-4.6-6.5-8.6-8c-4.5-1.7-9.3-1.1-13.1,1.2c0,0,39.6-29.2,29.2-88.2c-9.9-56.1-23.7-99.4-32.8-124.2
	C215.6,45.6,165.1,100.5,187,151.1z"/>
<path class="st7" d="M327.5,236.7c-0.2-0.1-11.4-3.8-23.9-14.8c-2.2-1.9-0.6-5.6,2.3-5.2c4.8,0.5,9.6,1.3,14.3,2.4
	c-11.7-7.7-29.2-24.1-35.2-55.9c-14.6-77.9-34.5-128-42.4-146C237.3,5.2,227.1,0,211.1,2.1c-6.5,0.6-12.7,5.1-17,10.5l-19,23.9
	c-19.7,24.6-42.5,30.6-56.6,31.7c4.6,1.4,9.1,3.1,13.4,5c2.7,1.1,2.3,5.1-0.6,5.7c-0.4,0.1-0.8,0.2-1.1,0.2
	c-15.9,3.3-27.5,1-27.6,0.9c-1.8-0.4-3.7,1-3.8,3c-0.1,1.4,1,2.7,2.3,3.1c5.1,1.7,8.7,6.5,8.4,12.5c-0.1,1.3-0.5,2.6-1,3.8
	c-1.9,4.1-0.2,8.8,3.8,10.8c1.3,0.6,2.5,1.4,3.5,2.4c2.2,2.3,3.4,5.1,3.5,8.1c0.1,3.7,2.7,6.8,6.3,7.6c1.5,0.3,2.9,0.9,4.2,1.7
	c2,1.3,3.5,3.1,4.4,5.2c1.5,3.4,5,5.2,8.7,4.4c1.5-0.3,3.1-0.3,4.6-0.1c2.9,0.6,5.5,2.1,7.3,4.4c2.8,3.6,7.8,4.2,11.5,1.5
	c2.9-2.2,6.6-2.9,10.1-2c3.4,0.8,6.2,3.1,7.8,6.1c0.6,1.1,1.6,1.7,2.8,1.7c0.5,0,0.9-0.1,1.4-0.3c1.5-0.7,2.2-2.6,1.5-4.1
	c-0.1-0.2-5-11.3-5.1-28c0-2.9,3.7-4.2,5.4-1.8c2.8,3.9,5.4,8,7.8,12.2c-1.6-10.2-1.7-25.6,6.2-43c2-4.3,8.2-3.9,9.5,0.6
	c6.6,22.4,13.6,50.3,19.3,82.5c5.5,31-5.2,51.9-13.8,63.2c4.1-2.5,8.3-4.7,12.6-6.7c2.6-1.2,5.3,1.7,3.9,4.2
	c-0.2,0.4-0.4,0.7-0.6,1.1c-8.2,14-17.7,21.2-17.8,21.3c-1.4,1-1.7,3-0.6,4.4c1,1.3,2.8,1.5,4.2,0.7c4.7-2.7,10.6-2.1,14.9,2.1
	c0.9,0.9,1.6,2.1,2.1,3.3c1.9,4.2,6.4,6,10.7,4.3c1.3-0.5,2.6-0.9,3.9-1c3.3-0.2,6.2,0.8,8.6,2.7c1.5,1.3,3.3,1.9,5.2,1.9
	c1.7,0,3.4-0.5,4.8-1.6c1.2-0.9,2.6-1.6,4.1-2c2.2-0.6,4.5-0.5,6.7,0.2c3.5,1.1,7.2-0.3,9.1-3.5c1.5-2.6,3.9-4.5,7-5.5
	c1.4-0.4,2.8-0.5,4.2-0.4c4.5,0.2,8.3-3,8.6-7.4c0.4-4.6,3.3-8.6,7.8-10.4c2.3-0.9,4.9-0.9,7.4-0.4c1.6,0.3,3.1-0.6,3.6-2.2
	C330,238.9,329.1,237.2,327.5,236.7z M201.8,57.8c-20,24.9-23.7,49.2-23.4,65.2c0.1,5.9,0.8,11.1,1.6,15.4c0.2,1.2-0.9,2.3-2.1,2
	c0,0,0,0,0,0c-5.3-1.3-10.9-0.2-15.3,3.1c-1,0.7-2.1,0.6-2.8-0.3c-2.5-3.3-6-5.5-10-6.5c-1.4-0.3-2.9-0.5-4.3-0.5
	c-1.2,0-2.5,0.1-3.7,0.4c-0.7,0.1-1.3-0.1-1.7-0.7c-0.7-1.4-1.4-2.8-2.4-4c-2.8-3.5-6.4-5.7-10.6-6.5c-0.9-0.2-1.5-0.9-1.5-1.8
	c-0.1-2-0.5-4-1.2-6c-1.7-4.4-5-7.9-9.2-9.9c-1.1-0.5-1.5-1.6-1-2.6c2-4.5,2.1-9.5,0.3-14.1c-0.2-0.5-0.4-0.9-0.6-1.4
	c-0.6-1.1,0.2-2.4,1.5-2.5c4.5-0.1,9.9-0.6,15.8-1.8c15.7-3.2,38.6-12.2,58.5-37.1l13.1-16.4c1.2-1.5,3.6-1.2,4.4,0.6l0,0
	c0.5,1.1,1,2.4,1.5,3.8c2.1,5.4,1.2,11.5-2.4,16L201.8,57.8z M312.5,239.4c-4.6,3.1-7.4,8.1-7.9,13.7c-0.1,1.2-1.1,1.7-2.1,1.7
	c-4.1-0.3-8.1,0.8-11.6,3.2c-2.2,1.5-4,3.5-5.4,5.9c-0.4,0.6-1,0.9-1.7,0.7c-1.5-0.4-3-0.8-4.5-0.9c-4.5-0.2-8.5,1-11.9,3.6
	c-0.8,0.6-1.6,0.5-2.3,0c-1.6-1.3-3.4-2.3-5.3-3c-2.1-0.8-4.2-1.1-6.3-1.1c-2.4,0-4.9,0.5-7.2,1.5c-1.1,0.5-2.1,0.1-2.6-1
	c-2-4.5-5.7-7.9-10.3-9.6c-0.5-0.2-0.9-0.3-1.4-0.4c-1.2-0.3-1.7-1.8-0.9-2.8c2.9-3.4,6.2-7.8,9.2-13c8.1-13.8,16.6-36.9,11.1-68.4
	c-12.3-70-31-120.6-38.5-139.1c-1.4-3.5,0.2-7.3,3.7-8.8c3.5-1.5,7.4,0.1,8.9,3.5c7.6,17.3,26.9,65.8,41.2,141.8
	c5.9,31.3,21.5,50.3,33.6,60.7c4.4,3.8,8.7,6.8,12.4,9c1.1,0.7,1.1,2.2,0,2.9C312.6,239.3,312.5,239.3,312.5,239.4z"/>
<path class="st92" d="M242.7,100.5c-1.4,0-2.6-0.9-3-2.3c-2.6-9.4-5.5-18.8-8.4-28c-0.5-1.6,0.4-3.4,2-3.9c1.6-0.5,3.4,0.4,3.9,2
	c3,9.2,5.8,18.7,8.5,28.2c0.5,1.7-0.5,3.4-2.2,3.9C243.2,100.5,243,100.5,242.7,100.5z"/>
<path class="st92" d="M250.5,130.3c-1.4,0-2.7-1-3-2.4c-0.9-3.5-1.8-7.2-2.7-10.8c-0.4-1.7,0.6-3.4,2.3-3.8c1.7-0.4,3.4,0.6,3.8,2.3
	c0.9,3.6,1.8,7.3,2.7,10.9c0.4,1.7-0.6,3.4-2.3,3.8C251,130.3,250.7,130.3,250.5,130.3z"/>
<circle class="st16" cx="84.7" cy="109.3" r="3.1"/>
<circle class="st92" cx="254.7" cy="145.7" r="3.1"/>
</svg>
