<svg xmlns="http://www.w3.org/2000/svg" viewBox="0 0 48 48" width="48" height="48"><path fill="#ef9a9a" d="M35.018 34.126c-2.546-.192-6.051 1.718-7.434 2.939-2.035-.094-4.119-.123-5.881.17-1.252-.665-3.652-1.256-5.101-1.347-.31-.441-.68-.838-1.041-1.227-.752-.807-1.401-1.504-1.401-2.388l-8.832-2.847C5.113 30.292 5 31.276 5 32.274 5 40.997 11.889 46 23.9 46c4.289 0 9.829-1.611 12.547-5.225.687-.953 2.086-3.07 1.053-5.153C37.166 35.002 36.465 34.239 35.018 34.126zM39.006 6.987c-1.39-2.409-4.498-4.6-9.373-4.002-4.736-2.198-8.342-.257-9.879 1.35-1.332.178-2.902 1.274-2.911 1.281-1.67 1.233-2.328 2.48-2.67 4.769-.169 1.031.114 2.004.775 2.669.761.768 1.979 1.008 3.311.674 1.281-.281 2.183-.706 3.177-1.243.911-.493 1.772-.959 2.779-1.18 3.076-.678 7.137-.188 8.914 2.007.41.578.605 1.227.482 1.558-.367.925-2.058 1.4-3.177 1.715l-.304.087c-2.162.519-4.22.928-6.129 1.294l-1.074.214c-3.256.644-6.946 1.375-10.097 2.869l.429.903 0 .001 3.779 5.711c0 0 .551 1.048.921 1.048 1.862 0 4.3-.47 6.254-1.61 1.763.149 6.246-.408 8.326-1.726 2.135.065 4.613-.855 6.431-2.422 1.312-1.13 2.14-2.499 2.375-3.906C42.949 17.832 43 14.899 43 14.537 43 10.033 40.722 7.642 39.006 6.987z"/><path fill="#e98888" d="M34.76 12.15l-.04-.05-.04-.05c-1.56-1.92-4.4-3.03-7.79-3.03-1.07 0-2.11.11-3.1.33-1.29.28-2.31.84-3.31 1.38-.94.51-1.64.82-2.65 1.04l-.03.01-.03.01c-.23.06-.45.09-.65.09s-1.87.057-2.95-1.5c-.17 1.04.12 2.01.78 2.67.53.55 1.3.82 2.17.82.36 0 .75-.04 1.14-.14 1.28-.28 2.18-.71 3.18-1.25.91-.49 1.77-.95 2.77-1.18.85-.18 1.76-.28 2.68-.28 2.45 0 4.95.7 6.24 2.29.41.58.6 1.23.48 1.56-.37.92-2.06 1.4-3.18 1.71l-.3.09c-2.16.52-4.22.93-6.13 1.3l-1.07.21c-3.26.64-6.95 1.37-10.1 2.87l.857 2.013 2.023-1.033c2.46-.87 5.16-1.4 7.61-1.89l1.06-.21c1.93-.37 4.02-.79 6.22-1.31l.04-.01.04-.02.3-.08c1.49-.42 3.76-1.06 4.51-2.94C36.03 14.11 35.07 12.59 34.76 12.15zM37.5 35.62c-.958 2.07-1.809 2.893-2.65 3.95C32.479 42.547 27.57 44 23.9 44 17.59 44 7 42.48 7 32.27l.083-.77L5.33 29.43C5.11 30.29 5 31.28 5 32.27 5 41 11.89 46 23.9 46c4.29 0 9.83-1.61 12.55-5.22C37.13 39.82 38.53 37.71 37.5 35.62z"/><path fill="#e67a7a" d="M13.152,20.9c-4.191,0.301-6.373,2.483-7.262,4.485c-0.911,2.052-0.962,2.64-0.804,5.389 c3.934,2.501,9.189,2.138,9.189,2.138c2-1.297,3.376-2.9,3.718-4.201C17.021,24.047,13.152,20.9,13.152,20.9z"/><path fill="#e57373" d="M29.43 42.67c-.19.15-.41.22-.63.22-.27 0-.53-.11-.72-.33-.44-.52-.97-2.07-1.27-3.54-.14-.71-.23-1.41-.23-1.95v-.04c.33.01.67.02 1 .04.21-.19.48-.4.79-.61.13.16.21.38.21.61 0 .47.08 1.05.2 1.63.25 1.16.65 2.31.84 2.58C29.92 41.72 29.85 42.35 29.43 42.67zM22.68 37.1c.04.22 0 .46-.13.67-.19.3-.39.83-.56 1.42-.35 1.19-.62 2.63-.62 2.99 0 .55-.45 1-1 1s-1-.45-1-1c0-.56.29-2.16.71-3.56.21-.7.45-1.34.7-1.79.35.13.66.26.92.4C22.02 37.18 22.34 37.14 22.68 37.1zM17.59 36c-.03.29-.2.56-.46.73-.37.23-.8.58-1.24.95-.94.81-1.86 1.76-2.03 2.06-.19.33-.54.53-.9.53-.15 0-.3-.03-.44-.11-.47-.24-.69-.79-.47-1.27.24-.52 1.22-1.54 2.22-2.43.61-.55 1.22-1.04 1.7-1.35.22.25.44.51.63.78C16.89 35.91 17.23 35.95 17.59 36zM25.21 27.101v.01c-.38.02-.72.01-1-.01-.28.17-.58.32-.88.46-.08-.14-.12-.29-.12-.46 0-1.83-.5-4.76-.66-5.24-.17-.52.12-1.08.64-1.25.53-.17 1.09.11 1.26.64C24.68 21.951 25.21 25.071 25.21 27.101zM33.54 25.341c-.34.04-.67.05-1 .04-.26.16-.55.32-.88.46h-.01c-.07-.14-.11-.29-.11-.46 0-1.64-.84-4.56-1.06-5.01-.24-.5-.03-1.1.46-1.34.5-.24 1.1-.04 1.34.46C32.66 20.251 33.53 23.421 33.54 25.341zM42.03 18.311c-.19.28-.41.54-.68.74-.06.32-.14.64-.26.96-.21-.05-.4-.17-.54-.36-.76-.99-2.89-2.21-3.62-2.39-.54-.13-.86-.68-.73-1.21.13-.54.67-.87 1.21-.73C38.51 15.591 40.94 16.981 42.03 18.311zM39.87 7.452c-.1.2-.27.37-.5.46-.47.2-2.25 1.84-2.68 2.39-.2.25-.49.38-.78.38-.22 0-.44-.07-.62-.21-.44-.35-.51-.98-.17-1.41.37-.46 2.24-2.35 3.32-2.92.22.28.41.56.57.84C39.28 7.092 39.58 7.242 39.87 7.452zM30.6 3.232c-.33 1.28-.46 3.49-.38 3.99.08.54-.29 1.05-.84 1.14-.05.01-.1.01-.15.01-.48 0-.91-.35-.99-.85-.13-.85.05-3.33.43-4.79.01-.05.03-.09.04-.13.3.11.61.24.92.38.34-.04.67-.07.99-.08C30.64 3.012 30.63 3.122 30.6 3.232zM22.62 9.162c-.19.14-.4.21-.62.21-.3 0-.59-.13-.79-.38-.31-.41-2.17-3.34-2.42-4.4.32-.12.64-.22.96-.26.21-.22.46-.45.75-.66.11.12.19.28.23.46.15.56 1.67 3.13 2.06 3.62C23.13 8.192 23.05 8.822 22.62 9.162zM14.78 22.53c0 0-7.197 1.262-7.71 9.24-.761-.323-1.34-.59-1.98-1-.16-2.74-.11-3.33.8-5.38.89-2.01 3.07-4.19 7.26-4.49C13.15 20.9 13.87 21.49 14.78 22.53z"/></svg>