<?xml version="1.0" encoding="utf-8"?>
<!-- Generator: Adobe Illustrator 20.1.0, SVG Export Plug-In . SVG Version: 6.00 Build 0)  -->
<svg version="1.1" id="Layer_1" xmlns="http://www.w3.org/2000/svg" xmlns:xlink="http://www.w3.org/1999/xlink" x="0px" y="0px"
	 viewBox="0 0 500 500" style="enable-background:new 0 0 500 500;" xml:space="preserve">
<style type="text/css">
	.st0{fill:none;stroke:#93BF54;stroke-width:4;stroke-linecap:round;stroke-miterlimit:10;}
	.st1{fill:#FFBC00;}
	.st2{fill:#FFBC00;stroke:#FFBC00;stroke-width:6;stroke-miterlimit:10;}
	.st3{fill:#B8CC36;stroke:#385100;stroke-width:6;stroke-linejoin:round;stroke-miterlimit:10;}
	.st4{fill:none;stroke:#B8CC36;stroke-linecap:round;stroke-miterlimit:10;}
	.st5{fill:#B8CC36;stroke:#385100;stroke-miterlimit:10;}
	.st6{fill:none;stroke:#385100;stroke-linecap:round;stroke-miterlimit:10;}
	.st7{fill:#B8CC36;stroke:#385100;stroke-linecap:round;stroke-miterlimit:10;}
	.st8{fill:#FFEB00;}
	.st9{fill:#86B068;}
	.st10{fill:#86B068;stroke:#506630;stroke-width:6;stroke-linecap:round;stroke-linejoin:round;stroke-miterlimit:10;}
	.st11{fill:#63B218;}
	.st12{fill:#63B218;stroke:#477B21;stroke-linecap:round;stroke-linejoin:round;stroke-miterlimit:10;}
	.st13{fill:none;stroke:#477B21;stroke-width:6;stroke-miterlimit:10;}
	.st14{fill:none;stroke:#A2D400;stroke-width:3;stroke-linecap:round;stroke-linejoin:round;stroke-miterlimit:10;}
	.st15{fill:#B8CC36;}
	.st16{fill:#658205;}
	.st17{display:none;fill:#D1A982;}
	.st18{fill:#974565;}
	.st19{fill:#5D283D;}
	.st20{fill:#00FFFF;}
	.st21{fill:#86B068;stroke:#506630;stroke-linecap:round;stroke-linejoin:round;stroke-miterlimit:10;}
	.st22{fill:#98B55E;stroke:#006837;stroke-linecap:round;stroke-linejoin:round;stroke-miterlimit:10;}
	.st23{fill:#B9CE6E;stroke:#838226;stroke-width:3;stroke-miterlimit:10;}
	.st24{fill:none;stroke:#718227;stroke-miterlimit:10;}
	.st25{fill:#B9CE6E;stroke:#838226;stroke-miterlimit:10;}
	.st26{fill:#E0E2D0;}
	.st27{fill:none;stroke:#718227;stroke-width:3;stroke-miterlimit:10;}
	.st28{fill:none;stroke:#FFFFFF;stroke-linecap:round;stroke-miterlimit:10;}
	.st29{fill:#C2D66B;}
	.st30{fill:#E6E8D4;}
	.st31{fill:#718227;}
	.st32{fill:#FFFFFF;}
	.st33{fill:#974565;stroke:#5D283D;stroke-miterlimit:10;}
	.st34{fill:none;stroke:#5D283D;stroke-width:3;stroke-miterlimit:10;}
	.st35{fill:none;stroke:#5D283D;stroke-miterlimit:10;}
	.st36{fill:#EDDBCD;}
	.st37{fill:#F4E1D4;}
	.st38{fill:none;stroke:#5D283D;stroke-width:8.1497;stroke-miterlimit:10;}
	.st39{fill:none;stroke:#5D283D;stroke-width:24.449;stroke-miterlimit:10;}
	.st40{fill:none;stroke:#89A037;stroke-width:3;stroke-linecap:round;stroke-linejoin:round;stroke-miterlimit:10;}
	.st41{fill:none;stroke:#89A037;stroke-width:2.4354;stroke-linecap:round;stroke-linejoin:round;stroke-miterlimit:10;}
	.st42{fill:none;stroke:#89A037;stroke-width:2.794;stroke-linecap:round;stroke-linejoin:round;stroke-miterlimit:10;}
	.st43{fill:none;stroke:#89A037;stroke-width:0.7186;stroke-linecap:round;stroke-linejoin:round;stroke-miterlimit:10;}
	.st44{fill:none;stroke:#385100;stroke-linecap:round;stroke-linejoin:round;stroke-miterlimit:10;}
	.st45{fill:none;stroke:#89A037;stroke-width:1.0534;stroke-linecap:round;stroke-linejoin:round;stroke-miterlimit:10;}
	.st46{opacity:0.8;fill:none;stroke:#658205;stroke-width:3;stroke-miterlimit:10;}
	.st47{opacity:0.6;fill:none;stroke:#658205;stroke-width:3;stroke-miterlimit:10;}
	.st48{opacity:0.4;fill:none;stroke:#658205;stroke-width:3;stroke-miterlimit:10;}
	.st49{opacity:0.2;fill:none;stroke:#658205;stroke-width:3;stroke-miterlimit:10;}
	.st50{fill:none;stroke:#D7E68B;stroke-width:3;stroke-linecap:round;stroke-linejoin:round;stroke-miterlimit:10;}
	.st51{fill:#385100;}
	.st52{fill:#769020;}
	.st53{fill:#869F29;}
	.st54{fill:#97AD31;}
	.st55{fill:#A7BB3A;}
	.st56{fill:#D7E68B;}
	.st57{fill:#88B043;stroke:#416F0F;stroke-miterlimit:10;}
	.st58{fill:none;stroke:#416F0F;stroke-width:0.8976;stroke-miterlimit:10;}
	.st59{fill:none;stroke:#416F0F;stroke-miterlimit:10;}
	.st60{fill:#E4F2C4;stroke:#416F0F;stroke-miterlimit:10;}
	.st61{fill:#97BF4B;}
	.st62{opacity:0.8;fill:none;stroke:#E4F2C4;stroke-width:3;stroke-linecap:round;stroke-linejoin:round;stroke-miterlimit:10;}
	.st63{opacity:0.6;fill:none;stroke:#E4F2C4;stroke-width:3;stroke-linecap:round;stroke-linejoin:round;stroke-miterlimit:10;}
	.st64{opacity:0.4;fill:none;stroke:#E4F2C4;stroke-width:3;stroke-linecap:round;stroke-linejoin:round;stroke-miterlimit:10;}
	.st65{opacity:0.2;fill:none;stroke:#E4F2C4;stroke-width:3;stroke-linecap:round;stroke-linejoin:round;stroke-miterlimit:10;}
	.st66{fill:#97BF4B;stroke:#416F0F;stroke-miterlimit:10;}
	.st67{fill:none;stroke:#FFFFFF;stroke-linecap:round;stroke-linejoin:round;stroke-miterlimit:10;}
	.st68{fill:#416F0F;}
	.st69{fill:#E4F2C4;}
	.st70{fill:#D5E7AF;}
	.st71{fill:#C5DD97;}
	.st72{fill:#B7D27F;}
	.st73{fill:#A7C869;}
	.st74{fill:none;stroke:#FFFFFF;stroke-width:7.954;stroke-linecap:round;stroke-linejoin:round;stroke-miterlimit:10;}
	.st75{fill:#A2D400;}
	.st76{fill:none;stroke:#477B21;stroke-linecap:round;stroke-linejoin:round;stroke-miterlimit:10;}
	.st77{fill:none;stroke:#A2D400;stroke-linecap:round;stroke-linejoin:round;stroke-miterlimit:10;}
	.st78{fill:none;stroke:#A4D173;stroke-width:3;stroke-miterlimit:10;}
	.st79{fill:none;stroke:#98CA63;stroke-width:3;stroke-miterlimit:10;}
	.st80{fill:none;stroke:#8CC354;stroke-width:3;stroke-miterlimit:10;}
	.st81{fill:none;stroke:#7FBD44;stroke-width:3;stroke-miterlimit:10;}
	.st82{fill:none;stroke:#72B636;stroke-width:3;stroke-miterlimit:10;}
	.st83{fill:#A4D173;}
	.st84{fill:#98CA63;}
	.st85{fill:#8CC354;}
	.st86{fill:#7FBD44;}
	.st87{fill:#72B636;}
	.st88{fill:#477B21;}
	.st89{fill:none;stroke:#506630;stroke-linecap:round;stroke-linejoin:round;stroke-miterlimit:10;}
	.st90{opacity:0.3;}
	.st91{fill:none;stroke:#506630;stroke-width:3;stroke-linecap:round;stroke-linejoin:round;stroke-miterlimit:10;}
	.st92{opacity:0.75;fill:none;stroke:#C98353;stroke-linejoin:round;stroke-miterlimit:10;}
	.st93{opacity:0.5;fill:none;stroke:#C98353;stroke-linejoin:round;stroke-miterlimit:10;}
	.st94{opacity:0.25;fill:none;stroke:#C98353;stroke-linejoin:round;stroke-miterlimit:10;}
	.st95{fill:#506630;}
	.st96{fill:#719155;}
	.st97{fill:#B78D5C;}
	.st98{fill:#A79861;}
	.st99{fill:#97A466;}
	.st100{fill:none;stroke:#FFBC00;stroke-linecap:round;stroke-miterlimit:10;}
	.st101{fill:#8F5B09;stroke:#462816;stroke-miterlimit:10;}
	.st102{fill:none;stroke:#462816;stroke-linecap:round;stroke-miterlimit:10;}
	.st103{fill:#8F5B09;}
	.st104{fill:#462816;}
	.st105{fill:#3E661B;}
	.st106{fill:none;stroke:#93BF54;stroke-width:3;stroke-linecap:round;stroke-linejoin:round;stroke-miterlimit:10;}
	.st107{fill:none;stroke:#6EA729;stroke-width:3;stroke-linecap:round;stroke-linejoin:round;stroke-miterlimit:10;}
	.st108{fill:none;stroke:#477C1F;stroke-width:3;stroke-linecap:round;stroke-linejoin:round;stroke-miterlimit:10;}
	.st109{fill:none;stroke:#93BF54;stroke-linecap:round;stroke-linejoin:round;stroke-miterlimit:10;}
	.st110{fill:none;stroke:#6EA729;stroke-linecap:round;stroke-linejoin:round;stroke-miterlimit:10;}
	.st111{fill:none;stroke:#477C1F;stroke-linecap:round;stroke-linejoin:round;stroke-miterlimit:10;}
	.st112{opacity:0.9;fill:none;stroke:#E4EDCA;stroke-width:3;stroke-linecap:round;stroke-linejoin:round;stroke-miterlimit:10;}
	.st113{fill:none;stroke:#E4EDCA;stroke-width:3;stroke-linecap:round;stroke-linejoin:round;stroke-miterlimit:10;}
	.st114{opacity:0.7;fill:none;stroke:#E4EDCA;stroke-width:3;stroke-linecap:round;stroke-linejoin:round;stroke-miterlimit:10;}
	.st115{opacity:0.5;fill:none;stroke:#E4EDCA;stroke-width:3;stroke-linecap:round;stroke-linejoin:round;stroke-miterlimit:10;}
	.st116{opacity:0.3;fill:none;stroke:#E4EDCA;stroke-width:3;stroke-linecap:round;stroke-linejoin:round;stroke-miterlimit:10;}
	.st117{opacity:0.1;fill:none;stroke:#E4EDCA;stroke-width:3;stroke-linecap:round;stroke-linejoin:round;stroke-miterlimit:10;}
	.st118{fill:none;stroke:#6EA729;stroke-miterlimit:10;}
	.st119{fill:#FCFCFC;}
	.st120{fill:#76B900;}
	.st121{fill:#285600;}
	.st122{fill:none;stroke:#457E00;stroke-miterlimit:10;}
	.st123{fill:none;stroke:#457E00;stroke-linecap:round;stroke-miterlimit:10;}
	.st124{fill:none;stroke:#B2E5A0;stroke-linecap:round;stroke-miterlimit:10;}
	.st125{fill:#76B900;stroke:#457E00;stroke-linecap:round;stroke-miterlimit:10;}
	.st126{opacity:0.75;fill:none;stroke:#457E00;stroke-width:3;stroke-miterlimit:10;}
	.st127{opacity:0.5;fill:none;stroke:#457E00;stroke-width:3;stroke-miterlimit:10;}
	.st128{opacity:0.25;fill:none;stroke:#457E00;stroke-width:3;stroke-miterlimit:10;}
	.st129{fill:none;stroke:#FFFFFF;stroke-width:7.7724;stroke-linecap:round;stroke-miterlimit:10;}
	.st130{fill:none;stroke:#6EA729;stroke-width:7.7724;stroke-miterlimit:10;}
	.st131{fill:#B2E5A0;}
	.st132{fill:#457E00;}
	.st133{fill:#538C17;}
	.st134{fill:#609A1A;}
	.st135{fill:#6CA81E;}
	.st136{fill:#214911;}
	.st137{fill:#93BF54;}
	.st138{fill:#6EA729;}
	.st139{fill:#477C1F;}
	.st140{opacity:0.15;fill:#CAD5B0;}
	.st141{opacity:0.3;fill:#CAD5B0;}
	.st142{opacity:0.55;fill:#CAD5B0;}
	.st143{opacity:0.7;fill:#CAD5B0;}
	.st144{opacity:0.85;fill:#CAD5B0;}
	.st145{fill:#CAD5B0;}
	.st146{fill:none;stroke:#FFFFFF;stroke-width:7.7371;stroke-linecap:round;stroke-linejoin:round;stroke-miterlimit:10;}
	.st147{fill:#661322;}
	.st148{fill:none;stroke:#9B1847;stroke-width:0.25;stroke-miterlimit:10;}
	.st149{fill:#93BF54;stroke:#661322;stroke-width:4;stroke-miterlimit:10;}
	.st150{opacity:0.8;fill:none;stroke:#FFFFFF;stroke-linecap:round;stroke-miterlimit:10;}
	.st151{fill:#EC5700;stroke:#661322;stroke-width:5;stroke-miterlimit:10;}
	.st152{fill:#FFACEA;stroke:#661322;stroke-width:5;stroke-miterlimit:10;}
	.st153{fill:#ED7EC5;stroke:#9B1847;stroke-miterlimit:10;}
	.st154{fill:#ED5F00;stroke:#9B1847;stroke-miterlimit:10;}
	.st155{opacity:0.8;fill:#FFFFFF;}
	.st156{fill:none;stroke:#9B1847;stroke-miterlimit:10;}
	.st157{opacity:0.8;fill:none;stroke:#285600;stroke-linecap:round;stroke-miterlimit:10;}
	.st158{opacity:0.7;fill:none;stroke:#FFFFFF;stroke-linecap:round;stroke-miterlimit:10;}
	.st159{opacity:0.7;fill:#FFFFFF;}
	.st160{fill:#EC5700;}
	.st161{fill:#FFACEA;}
	.st162{fill:#ED7EC5;}
	.st163{fill:#9B1847;}
	.st164{fill:#ED5F00;}
	.st165{fill:#FADFCD;}
	.st166{fill:#3E6A19;}
	.st167{fill:#E9F2DE;}
	.st168{fill:#F9D9EE;}
</style>
<g>
	<path class="st147" d="M387,130.7c7.6,13.2,3.7,24,1.4,28.5c-2.5,4.9-10.1,15.5-28.2,15.5c-1.6,0-3.3-0.1-5-0.3
		c-1-0.1-2.1-0.2-3.2-0.4c-4.6-0.7-8.4,3.5-7.4,8c0.2,1,0.4,2,0.6,3.1c2.3,15-5.4,23.6-9.1,27c-2.9,2.6-9.3,6.9-18.7,6.9
		c-2.6,0-5.1-0.3-7.4-0.8c-5.2-1.1-9.6,4.1-7.5,9c11.4,26.8,24.5,57.2,39.3,90c1.8,4,7.7,3.1,8.2-1.2c0-0.1,0-0.1,0-0.2
		c2.6-20.3,5.5-36.6,8.8-48.4c2.4-8.9,8.1-29.7,25.2-29.7c17,0,22.7,20.8,25.2,29.7c3.2,11.8,6.2,28.1,8.8,48.4
		c4.9,38.5,7.8,86.1,7.8,127.6c0,15.9-3,28.7-9,38c-7.3,11.4-18.9,17.6-32.8,17.6c-6,0-20.2-1.5-30.4-14.4c-1.1-1.4-2.1-2.8-3-4.4
		c-1-1.7-2-3.6-2.9-5.6c-42.3-85.3-77.7-164.9-103.6-226.2c-2.1-5-8.9-5.4-11.7-0.8c-0.6,1.1-1.4,2.1-2.2,3.2
		c-7.6,10.2-17.5,11.8-22.1,12c-0.3,0-0.6,0-0.9,0c-5.1,0-14.9-1.5-23-11.6c-1.2-1.5-2.3-3.1-3.2-4.5c-2.4-3.8-7.9-4.1-10.7-0.5
		c-0.7,0.8-1.3,1.7-2,2.4c-9.2,10.6-18.6,13.2-25.6,13.2c-3.9,0-7.1-0.8-9.1-1.5c-3.2-1.1-8.7-3.8-13.1-9.8
		c-3.8-5.2-5.6-10.9-6.3-15.6c-0.7-4.5-5.7-7-9.7-4.8l-0.1,0c-7,3.7-13.2,5.1-18.4,5.1c-9.1,0-15.3-4.1-18.2-6.5
		c-4.6-3.9-14.4-15.1-7.4-35.8c0.7-2.1,1.6-4.4,2.7-6.6c1.9-4-0.7-8.7-5-9.3c-7-1-15.9-4.3-20.9-14.4c-2.6-5.2-7.4-18.8,6.9-34.6
		c6.5-7.2,16.6-14.4,30.1-21.4c13.1-6.8,27.9-12.7,40.6-16.2c2.1-0.6,4.1-1.1,6-1.5c6.9-1.5,12.3-7,13.4-14
		c0.9-5.3,2.1-10.4,3.4-15.1c7.9-26.9,23.1-46,42.8-53.8s43.8-4.3,68.1,9.9c4.2,2.5,8.6,5.4,12.9,8.6c5.6,4.3,13.3,4.5,19.3,0.9
		c1.7-1,3.5-2,5.4-3c11.6-6.2,26.5-12,40.7-16c14.6-4.1,26.9-5.8,36.6-5c21.2,1.7,27.2,14.9,28.8,20.5c1.3,4.5,2.7,14.7-5.7,25
		c-2.8,3.5-1.4,8.7,2.8,10.3c2.5,1,4.8,2,6.9,3.2c19.3,10.3,19.8,25.2,19.2,31.2c-0.7,5.9-4.5,20.4-25.6,26.1
		c-0.2,0.1-0.5,0.1-0.7,0.2c-4.4,1.1-6.4,6.2-3.9,10C385.7,128.6,386.4,129.6,387,130.7z"/>
	<path class="st137" d="M410.1,443.3c0,25.6-8.7,40.2-26.2,40.2c-17.3,0-26.2-14.5-26.2-40.2c0-81.5,11.7-190.1,26.2-190.1
		S410.1,361.9,410.1,443.3z"/>
	<path class="st160" d="M270.4,62.5c6.3,15.9-14.7,39.1-46.9,51.9s-63.4,10.3-69.7-5.6c-6.3-15.9,1.6-72.2,33.8-85
		S264.1,46.6,270.4,62.5z"/>
	<g>
		<path class="st161" d="M264.9,179.1c10.8,27.2,9.7,41.9,2.3,44.9c-7.4,2.9-18.3-7-29.1-34.2c-10.8-27.2-17.4-61.4-10-64.3
			C235.5,122.5,254.1,151.9,264.9,179.1z"/>
	</g>
	<path class="st161" d="M95.5,147.3c-24,12.5-37.6,12.8-41,6.3c-3.4-6.5,4.7-17.5,28.7-29.9s54.8-21.8,58.2-15.2
		C144.7,114.9,119.5,134.8,95.5,147.3z"/>
	<g>
		<path class="st161" d="M221.3,201.6c1,28.4-5.4,41.6-13.9,41.8c-8.4,0.3-15.7-12.4-16.7-40.8s4.5-70,12.9-70.3
			C212.1,132.1,220.4,173.2,221.3,201.6z"/>
	</g>
	<path class="st161" d="M168.7,207c-9.7,27.6-20.6,37.9-28.5,35.1c-8-2.8-10-17.6-0.3-45.2c9.7-27.6,30.3-65.5,38.2-62.7
		C186,136.9,178.4,179.4,168.7,207z"/>
	<path class="st161" d="M119.6,191.3c-18.9,22.3-32.7,28-39.2,22.6c-6.4-5.5-3.1-20,15.9-42.3s51.7-50.3,58.1-44.9
		C160.9,132.1,138.6,169,119.6,191.3z"/>
	<path class="st161" d="M339.3,50.5c26-7.4,36.2-16.5,34.2-23.5c-2-7.1-15.4-9.5-41.4-2.1s-54.8,21.7-52.8,28.8
		C281.3,60.7,313.3,57.9,339.3,50.5z"/>
	<g>
		<path class="st161" d="M284.4,176.6c18.8,21.4,32.5,26.5,38.8,20.9s3-19.8-15.8-41.1c-18.8-21.4-51.3-47.9-57.6-42.3
			C243.4,119.7,265.6,155.2,284.4,176.6z"/>
	</g>
	<path class="st161" d="M326.4,144.4c26,13.4,40.9,13.5,44.8,6c3.9-7.5-4.8-19.7-30.8-33.1c-26-13.4-66.9-26.9-70.8-19.4
		C265.8,105.3,300.4,130.9,326.4,144.4z"/>
	<path class="st161" d="M352.1,99.6c29.1,3.3,43-2.1,44-10.5c0.9-8.4-11.5-16.7-40.6-19.9c-29.1-3.3-72.1-1.2-73.1,7.2
		C281.5,84.8,323,96.4,352.1,99.6z"/>
	<path class="st162" d="M95.5,147.3c-24,12.5-37.6,12.8-41,6.3c-3.4-6.5,4.7-17.5,28.7-29.9s54.8-21.8,58.2-15.2
		C144.7,114.9,119.5,134.8,95.5,147.3z"/>
	<path class="st163" d="M63.8,161.7c-7.8,0-11.2-3.3-12.8-6.3c-3-5.7-3-17.8,30.4-35.2c12-6.2,26.1-11.9,37.6-15
		c15-4.1,23.2-3.7,25.8,1.5c2.7,5.1-1.7,12.1-13.6,22c-9.2,7.6-21.9,15.9-33.9,22.1l0,0C81.4,159,70.8,161.7,63.8,161.7z
		 M135.3,110.1c-2.9,0-8.1,0.7-16.5,3.1c-10.7,3.2-23,8.2-33.8,13.8c-23.1,12-28.8,21.4-27.1,24.7c1.7,3.4,12.7,4,35.8-8l0,0
		c10.8-5.6,22-12.8,30.7-19.8c6.9-5.5,10.4-9.3,12-11.7C137.1,111.4,136.5,110.1,135.3,110.1C135.3,110.1,135.3,110.1,135.3,110.1z"
		/>
	<g>
		<path class="st162" d="M221.3,201.6c1,28.4-5.4,41.6-13.9,41.8c-8.4,0.3-15.7-12.4-16.7-40.8s4.5-70,12.9-70.3
			C212.1,132.1,220.4,173.2,221.3,201.6z"/>
	</g>
	<g>
		<path class="st162" d="M264.9,179.1c10.8,27.2,9.7,41.9,2.3,44.9c-7.4,2.9-18.3-7-29.1-34.2c-10.8-27.2-17.4-61.4-10-64.3
			C235.5,122.5,254.1,151.9,264.9,179.1z"/>
	</g>
	<g>
		<path class="st163" d="M207.2,247.4c-3.6,0-9.8-1.7-14.4-11.9c-3.4-7.6-5.4-18.6-5.9-32.6c-0.5-14.5,0.6-32.3,3-46.5
			c2.1-12.8,5.6-27.6,13.7-27.8c8.1-0.3,12.6,14.2,15.5,26.8c3.3,14,5.6,31.7,6.1,46.1c0.5,14-0.8,25.1-3.6,32.9
			c-4,10.9-10.5,12.8-14,12.9C207.5,247.4,207.3,247.4,207.2,247.4z M205.1,138.2c-0.6-1-2-0.9-2.5,0.1c-4.2,8.1-8.9,36.4-8,64.3
			c0.4,12.8,2.2,23.1,5.2,29.7c1.2,2.8,3.8,7.3,7.3,7.3c0,0,0.1,0,0.1,0c3.6-0.1,5.9-5,7-7.8c2.5-6.8,3.6-17.2,3.2-30
			C216.5,173.9,209.8,146,205.1,138.2z"/>
	</g>
	<path class="st162" d="M168.7,207c-9.7,27.6-20.6,37.9-28.5,35.1c-8-2.8-10-17.6-0.3-45.2c9.7-27.6,30.3-65.5,38.2-62.7
		C186,136.9,178.4,179.4,168.7,207z"/>
	<path class="st163" d="M142.8,246.4c-1.5,0-2.8-0.3-3.9-0.7c-16.3-5.7-7.3-37-2.7-50.1c4.9-14,12.6-30.7,20.1-43.4
		c12.8-21.9,19.1-23.1,23.1-21.6c4,1.4,8.2,6.3,4.5,31.3c-2.2,14.6-6.6,32.4-11.5,46.4c-4.8,13.6-10,23.7-15.6,30.2
		C151.4,244.6,146.6,246.4,142.8,246.4z M177.2,140.4c-0.2-1.1-1.5-1.6-2.4-0.8c-2.6,2.4-7,7.8-13.1,18.7
		c-6.9,12.2-13.7,27.1-18.2,39.9c-8.8,25.1-7.2,38.4-2,40.3c3.4,1.2,7.3-2.6,9.4-5c4.9-5.6,9.8-15.2,14.2-27.7l0,0
		c4.5-12.8,8.5-28.7,10.7-42.5C177.8,150.8,177.7,143.9,177.2,140.4z"/>
	<path class="st162" d="M119.6,191.3c-18.9,22.3-32.7,28-39.2,22.6c-6.4-5.5-3.1-20,15.9-42.3s51.7-50.3,58.1-44.9
		C160.9,132.1,138.6,169,119.6,191.3z"/>
	<path class="st163" d="M86,219.7c-3.1,0-5.8-1-8.1-2.9c-9.3-7.9-3.7-25.3,15.4-47.8c9.6-11.3,22.8-24.1,34.3-33.4
		c19.8-15.9,26-14.7,29.3-12c3.3,2.8,5.4,8.8-7,30.9c-7.2,12.9-17.7,27.9-27.3,39.3l0,0C108.2,210.8,95.4,219.7,86,219.7z
		 M151.4,132.1c0.3-1.1-0.9-2.1-1.9-1.6c-3.3,1.3-9.3,4.8-19,12.7c-10.8,8.9-22.5,20.4-31.3,30.8c-17.2,20.3-20.5,33.3-16.3,36.9
		c4.2,3.6,16.5-1.8,33.7-22.1l0,0c8.8-10.4,18.2-23.8,25.2-35.9C148.2,142.1,150.6,135.6,151.4,132.1z"/>
	<path class="st162" d="M339.3,50.5c26-7.4,36.2-16.5,34.2-23.5c-2-7.1-15.4-9.5-41.4-2.1s-54.8,21.7-52.8,28.8
		C281.3,60.7,313.3,57.9,339.3,50.5z"/>
	<path class="st163" d="M293.6,61.6c-11,0-16.8-2.2-18.1-6.9c-1.6-5.5,4.1-11.5,17.8-18.8c10.6-5.6,24.6-11.1,37.7-14.8
		c36.1-10.2,44.5-1.4,46.2,4.8c1.8,6.2-0.7,18.1-36.9,28.3c-13,3.7-27.9,6.4-39.8,7.1C298,61.5,295.7,61.6,293.6,61.6z M284.7,50.8
		c-0.8,0.8-0.4,2.2,0.7,2.4c7.4,1.5,28.3,0.5,52.8-6.5l0,0c25-7.1,32.5-15.1,31.5-18.7c-1-3.6-11.7-6.5-36.7,0.6
		C308.6,35.6,290.3,45.6,284.7,50.8z"/>
	<g>
		<path class="st162" d="M284.4,176.6c18.8,21.4,32.5,26.5,38.8,20.9s3-19.8-15.8-41.1c-18.8-21.4-51.3-47.9-57.6-42.3
			C243.4,119.7,265.6,155.2,284.4,176.6z"/>
	</g>
	<g>
		<path class="st163" d="M317.3,203.5c-2.8,0-6.3-0.8-10.5-2.8c-7.5-3.7-16-11-25.3-21.5l0,0c-9.6-10.9-20-25.3-27.2-37.8
			c-6.5-11.2-13.2-24.8-7.1-30.2c6.1-5.4,18.7,3,29,10.9c11.4,8.7,24.5,20.9,34,31.8c9.3,10.5,15.4,19.9,18.1,27.8
			c3.8,11,0,16.5-2.6,18.8C324.2,201.8,321.5,203.5,317.3,203.5z M254.6,117.7c-1.1-0.4-2.1,0.5-1.9,1.6
			c1.9,8.9,16.2,33.8,34.6,54.7l0,0c8.5,9.6,16.4,16.4,22.9,19.7c2.7,1.4,7.7,3.3,10.4,0.9c4.1-3.6,0.8-16.3-16.2-35.7
			C286,138,263.2,120.7,254.6,117.7z"/>
	</g>
	<path class="st162" d="M326.4,144.4c26,13.4,40.9,13.5,44.8,6c3.9-7.5-4.8-19.7-30.8-33.1c-26-13.4-66.9-26.9-70.8-19.4
		C265.8,105.3,300.4,130.9,326.4,144.4z"/>
	<path class="st163" d="M360.2,159.3c-1.1,0-2.3-0.1-3.5-0.2c-8.5-0.9-19.3-4.6-32.1-11.2c-13.2-6.8-28.6-16.8-40.2-25.9
		c-19.9-15.7-20.2-22.1-18.2-25.9c2-3.8,7.3-7.2,31.7-0.1c14.2,4.2,31.2,11,44.4,17.8c12.8,6.6,22.1,13.2,27.7,19.7
		c7.4,8.5,6.7,14.9,4.7,18.7C372.9,155.5,369,159.3,360.2,159.3z M275.7,99.5c-1.1,0-1.8,1.3-1.2,2.2c2,2.9,6.7,8,16.7,15.6
		c11.1,8.5,24.9,17.3,37,23.6l0,0c11.7,6.1,21.9,9.7,29.3,10.4c3.1,0.3,8.6,0.4,10.3-2.8c1.6-3.2-1.6-7.6-3.7-10
		c-4.9-5.6-13.7-11.8-25.4-17.9c-12.1-6.3-27.3-12.4-40.6-16.6C286.1,100.4,279.2,99.5,275.7,99.5z"/>
	<path class="st162" d="M352.1,99.6c29.1,3.3,43-2.1,44-10.5c0.9-8.4-11.5-16.7-40.6-19.9c-29.1-3.3-72.1-1.2-73.1,7.2
		C281.5,84.8,323,96.4,352.1,99.6z"/>
	<path class="st163" d="M368,104.5c-4.9,0-10.4-0.3-16.3-1c-14.8-1.7-32.7-5.4-46.8-9.8c-24.2-7.6-26.7-13.4-26.3-17.7
		c0.5-4.3,4.3-9.4,29.5-11.4c14.7-1.2,33.1-0.9,47.8,0.8c14.3,1.6,25.4,4.5,32.9,8.5c10,5.3,11.5,11.5,11.1,15.7
		c-0.5,4.2-3.3,9.9-14.3,12.9C380.8,103.8,374.9,104.5,368,104.5z M288.7,75.9c-1.1,0.4-1.2,1.9-0.3,2.5c2.9,2,9.2,5.1,21.1,8.6
		c13.4,4,29.4,7.3,43,8.8c13.1,1.5,23.9,1.2,31.1-0.7c3-0.8,8.2-2.7,8.6-6.3c0.4-3.5-4.2-6.6-7-8c-6.6-3.5-17-6.1-30.2-7.6
		c-13.5-1.5-29.9-1.9-43.8-0.9C298.7,73,292,74.6,288.7,75.9z"/>
	<path class="st164" d="M270.4,62.5c6.3,15.9-14.7,39.1-46.9,51.9s-63.4,10.3-69.7-5.6c-6.3-15.9,1.6-72.2,33.8-85
		S264.1,46.6,270.4,62.5z"/>
	
		<ellipse transform="matrix(0.8143 -0.5805 0.5805 0.8143 -19.7797 146.8044)" class="st147" cx="219.5" cy="104.3" rx="3.9" ry="3.9"/>
	<ellipse transform="matrix(0.5301 -0.848 0.848 0.5301 45.2885 252.9851)" class="st147" cx="250.9" cy="85.6" rx="3.9" ry="3.9"/>
	
		<ellipse transform="matrix(0.9744 -0.2247 0.2247 0.9744 -20.5157 44.1852)" class="st147" cx="183.9" cy="112.2" rx="3.9" ry="3.9"/>
	<ellipse transform="matrix(0.6854 -0.7282 0.7282 0.6854 4.2388 202.158)" class="st147" cx="236.1" cy="96.2" rx="3.9" ry="3.9"/>
	
		<ellipse transform="matrix(0.9995 -3.029654e-02 3.029654e-02 0.9995 -3.3082 5.085)" class="st147" cx="166.1" cy="111.7" rx="3.9" ry="3.9"/>
	
		<ellipse transform="matrix(0.3544 -0.9351 0.9351 0.3544 101.7182 293.5219)" class="st147" cx="263.4" cy="73.1" rx="3.9" ry="3.9"/>
	
		<ellipse transform="matrix(0.9119 -0.4105 0.4105 0.9119 -27.2505 92.5503)" class="st147" cx="201.9" cy="109.7" rx="3.9" ry="3.9"/>
	
		<ellipse transform="matrix(0.8778 -0.4791 0.4791 0.8778 -20.6791 110.3998)" class="st147" cx="206" cy="95.7" rx="3.9" ry="3.9"/>
	
		<ellipse transform="matrix(0.7492 -0.6623 0.6623 0.7492 -3.3878 169.7024)" class="st147" cx="222.4" cy="89.3" rx="3.9" ry="3.9"/>
	
		<ellipse transform="matrix(0.5831 -0.8124 0.8124 0.5831 33.8082 226.1604)" class="st147" cx="237.3" cy="80.1" rx="3.9" ry="3.9"/>
	
		<ellipse transform="matrix(0.3878 -0.9218 0.9218 0.3878 89.6977 272.2953)" class="st147" cx="249.8" cy="68.6" rx="3.9" ry="3.9"/>
	
		<ellipse transform="matrix(0.1731 -0.9849 0.9849 0.1731 160.0259 301.3258)" class="st147" cx="259.5" cy="55.4" rx="3.9" ry="3.9"/>
	
		<ellipse transform="matrix(0.1741 -0.9847 0.9847 0.1741 34.3428 232.3988)" class="st147" cx="155.7" cy="95.7" rx="3.9" ry="3.9"/>
	
		<ellipse transform="matrix(0.9988 -4.933001e-02 4.933001e-02 0.9988 -4.6752 8.5919)" class="st147" cx="171.7" cy="99" rx="3.9" ry="3.9"/>
	<ellipse transform="matrix(0.9628 -0.2702 0.2702 0.9628 -19.736 54.6771)" class="st147" cx="188.7" cy="99" rx="3.9" ry="3.9"/>
	
		<ellipse transform="matrix(0.8442 -0.5361 0.5361 0.8442 -11.8023 123.848)" class="st147" cx="207.1" cy="82.2" rx="3.9" ry="3.9"/>
	<ellipse transform="matrix(0.6766 -0.7363 0.7363 0.6766 16.4207 187.7916)" class="st147" cx="222" cy="75.2" rx="3.9" ry="3.9"/>
	
		<ellipse transform="matrix(0.4629 -0.8864 0.8864 0.4629 68.207 243.2593)" class="st147" cx="234.8" cy="65.3" rx="3.9" ry="3.9"/>
	
		<ellipse transform="matrix(0.2178 -0.976 0.976 0.2178 139.3688 280.5522)" class="st147" cx="244.7" cy="53.3" rx="3.9" ry="3.9"/>
	
		<ellipse transform="matrix(0.9991 -4.217800e-02 4.217800e-02 0.9991 -1.4626 10.6201)" class="st147" cx="250.9" cy="40" rx="3.9" ry="3.9"/>
	<ellipse transform="matrix(0.2179 -0.976 0.976 0.2179 44.7373 221.1503)" class="st147" cx="160.4" cy="82.7" rx="3.9" ry="3.9"/>
	
		<ellipse transform="matrix(0.9991 -4.220200e-02 4.220200e-02 0.9991 -3.4769 7.4702)" class="st165" cx="175.2" cy="86.1" rx="3.9" ry="3.9"/>
	
		<ellipse transform="matrix(0.9542 -0.2993 0.2993 0.9542 -16.9594 61.1544)" class="st147" cx="191.1" cy="85.9" rx="3.9" ry="3.9"/>
	<ellipse transform="matrix(0.8329 -0.5534 0.5534 0.8329 -4.6048 124.6876)" class="st147" cx="204.2" cy="70" rx="3.9" ry="3.9"/>
	
		<ellipse transform="matrix(0.5934 -0.8049 0.8049 0.5934 38.897 201.3409)" class="st147" cx="218.7" cy="62.2" rx="3.9" ry="3.9"/>
	
		<ellipse transform="matrix(0.2823 -0.9593 0.9593 0.2823 116.2097 257.1883)" class="st147" cx="230" cy="50.9" rx="3.9" ry="3.9"/>
	
		<ellipse transform="matrix(0.998 -6.275176e-02 6.275176e-02 0.998 -1.8934 14.9208)" class="st147" cx="236.6" cy="37.6" rx="3.9" ry="3.9"/>
	<ellipse transform="matrix(0.4448 -0.8956 0.8956 0.4448 29.2003 179.1278)" class="st147" cx="159.1" cy="66" rx="3.9" ry="3.9"/>
	<ellipse transform="matrix(0.1115 -0.9938 0.9938 0.1115 81.6561 235.361)" class="st147" cx="172.5" cy="72" rx="3.9" ry="3.9"/>
	<ellipse transform="matrix(0.972 -0.2351 0.2351 0.972 -11.9809 46.2849)" class="st165" cx="188.1" cy="73.4" rx="3.9" ry="3.9"/>
	<ellipse transform="matrix(0.8128 -0.5826 0.5826 0.8128 3.9477 127.937)" class="st147" cx="201" cy="57.8" rx="3.9" ry="3.9"/>
	
		<ellipse transform="matrix(0.5055 -0.8628 0.8628 0.5055 61.0959 208.3825)" class="st147" cx="212.3" cy="50.9" rx="3.9" ry="3.9"/>
	<ellipse transform="matrix(0.1109 -0.9938 0.9938 0.1109 154.8928 255.1157)" class="st147" cx="220" cy="41" rx="3.9" ry="3.9"/>
	<ellipse transform="matrix(0.953 -0.3029 0.3029 0.953 1.43 68.8778)" class="st147" cx="222.8" cy="29.8" rx="3.9" ry="3.9"/>
	<ellipse transform="matrix(0.593 -0.8052 0.8052 0.593 25.2489 154.9908)" class="st147" cx="165.9" cy="52.5" rx="3.9" ry="3.9"/>
	
		<ellipse transform="matrix(0.2143 -0.9768 0.9768 0.2143 80.6465 217.6891)" class="st165" cx="175.6" cy="58.7" rx="3.9" ry="3.9"/>
	<ellipse transform="matrix(0.9795 -0.2016 0.2016 0.9795 -8.3551 39.1534)" class="st147" cx="188" cy="60.6" rx="3.9" ry="3.9"/>
	
		<ellipse transform="matrix(0.4166 -0.9091 0.9091 0.4166 81.0528 209.1476)" class="st147" cx="203.5" cy="41.4" rx="3.9" ry="3.9"/>
	<ellipse transform="matrix(0.9374 -0.3482 0.3482 0.9374 2.2097 74.2511)" class="st147" cx="207.7" cy="31" rx="3.9" ry="3.9"/>
	<ellipse transform="matrix(0.9374 -0.3482 0.3482 0.9374 -1.6856 63.277)" class="st147" cx="175.2" cy="36.3" rx="3.9" ry="3.9"/>
	<ellipse transform="matrix(0.4168 -0.909 0.909 0.4168 97.962 196.8798)" class="st147" cx="202.4" cy="22.1" rx="3.9" ry="3.9"/>
	<ellipse transform="matrix(0.4168 -0.909 0.909 0.4168 64.1789 190.4478)" class="st147" cx="180.5" cy="45.2" rx="3.9" ry="3.9"/>
	
		<ellipse transform="matrix(0.9374 -0.3482 0.3482 0.9374 -4.4493 69.8791)" class="st147" cx="192.2" cy="47.3" rx="3.9" ry="3.9"/>
	
		<ellipse transform="matrix(0.6363 -0.7715 0.7715 0.6363 43.6793 159.9473)" class="st147" cx="191.5" cy="33.7" rx="3.9" ry="3.9"/>
	<path class="st163" d="M184.6,126.5c-17.1,0-30.2-5.6-34.4-16.2c-3.8-9.5-2.8-28.9,2.3-46.2c3.8-12.9,13.2-35.7,33.6-43.8
		c20.4-8.1,42.9,2.1,54.5,8.8c15.6,9.1,29.6,22.6,33.4,32l0,0c3.6,9.1,0.2,20.2-9.7,31.1c-9.2,10.2-23.2,19.4-39.3,25.8
		C210.6,123.7,196.6,126.5,184.6,126.5z M202.7,25c-4.7,0-9.3,0.8-13.6,2.5c-17.3,6.9-25.6,27.3-29,38.8c-5,17.1-5.3,34.3-2.6,41.1
		c5.4,13.6,35,15.2,64.7,3.4c15-6,28-14.4,36.4-23.8c7.7-8.5,10.7-16.9,8.3-23.1l0,0C262,51.7,230.5,25,202.7,25z"/>
	<path class="st137" d="M369.2,473.1c4.3,5,9.7,6.6,14.7,6.6c14.8,0,22.3-12.2,22.3-36.3c0-39.1-2.7-84.6-7.2-121.6
		c-5.7-46.6-12.2-62.3-15.1-64.5c-2.9,2.1-9.4,17.9-15.1,64.5c-3.2,26.1-5.4,56.3-6.5,85.5c-32.2-67.2-59.3-129-80.1-178.3
		c-3,4.5-6.9,6.8-9.8,7.9c-2.5,1-5.1,1.5-7.8,1.5c-1.3,0-2.6-0.1-3.8-0.4L369.2,473.1z"/>
	<path class="st121" d="M260,237.8c-1.7-0.4-3,1.3-2.4,2.8c25.9,61.4,61.5,141.6,104.1,227.5c0.7,1.6,1.4,3,2.2,4.3
		c0.5,0.8,1,1.6,1.6,2.3c4.3,5.7,10.5,8.7,18.3,8.7c17.6,0,26.2-14.5,26.2-40.2c0-81.5-11.7-190.1-26.2-190.1
		c-10.7,0-19.9,59.2-24,123c-0.3,4-5.7,5.1-7.4,1.4c-26.1-55.8-48.5-106.9-66.3-149.1c-0.7-1.6-2.8-1.7-3.7-0.3
		c-1,1.6-2.1,2.9-3.2,4c19.7,46.7,45.1,104.4,74.9,167.2c2.7,5.6,3.9,11.8,3.8,18c-0.1,5.1-0.2,10.1-0.3,15.1c0,2.4-3.3,3.1-4.3,1
		C317.7,360,287.7,292,265.1,238.4C263.3,238.4,261.5,238.2,260,237.8z M397,468.9c-3,4.7-7.2,6.9-13.2,6.9
		c-5.9,0-10.1-2.2-13.1-6.9c-3.5-5.5-5.4-14.3-5.4-25.5c0-37.4,2.5-81.2,6.7-117.3c2.9-24.9,5.9-40.5,8.4-50.3
		c0.9-3.5,5.8-3.5,6.7,0c2.5,9.7,5.5,25.4,8.4,50.3c4.2,36.1,6.7,79.9,6.7,117.3C402.4,454.6,400.5,463.4,397,468.9z"/>
	<path class="st166" d="M377.9,429.7c-0.1,0-0.1,0-0.2,0c-2.1-0.1-3.8-1.9-3.7-4l1.6-37.8c0.1-2.1,1.9-3.8,4-3.7
		c2.1,0.1,3.8,1.9,3.7,4l-1.6,37.8C381.7,428.1,380,429.7,377.9,429.7z"/>
	<path class="st167" d="M380.3,374.7c-0.1,0-0.1,0-0.2,0c-2.1-0.1-3.8-1.9-3.7-4l0.6-15c0.1-2.1,1.9-3.8,4-3.7
		c2.1,0.1,3.8,1.9,3.7,4l-0.6,15C384,373.1,382.3,374.7,380.3,374.7z"/>
	
		<ellipse transform="matrix(4.249958e-02 -0.9991 0.9991 4.249958e-02 31.0044 702.0342)" class="st167" cx="381.8" cy="334.8" rx="3.9" ry="3.9"/>
	<path class="st168" d="M86.2,140.9c-1.4,0-2.8-0.8-3.4-2.1c-1-1.9-0.2-4.2,1.7-5.2l22.9-11.9c1.9-1,4.2-0.2,5.2,1.7
		c1,1.9,0.2,4.2-1.7,5.2L88,140.5C87.5,140.8,86.9,140.9,86.2,140.9z"/>
	<path class="st168" d="M101,193c-0.9,0-1.8-0.3-2.5-0.9c-1.6-1.4-1.8-3.8-0.4-5.5l19.2-22.4c1.4-1.6,3.8-1.8,5.5-0.4
		c1.6,1.4,1.8,3.8,0.4,5.5l-19.2,22.4C103.1,192.5,102.1,193,101,193z"/>
	<path class="st168" d="M130.1,158.6c-0.9,0-1.8-0.3-2.5-0.9c-1.6-1.4-1.8-3.8-0.4-5.5l3.6-4.2c1.4-1.6,3.8-1.8,5.5-0.4
		c1.6,1.4,1.8,3.8,0.4,5.5l-3.6,4.2C132.3,158.1,131.2,158.6,130.1,158.6z"/>
	<g>
		<path class="st168" d="M206,210.5c-2.1,0-3.8-1.6-3.9-3.7l-0.8-19.1c-0.1-2.1,1.6-3.9,3.7-4c2.1-0.1,3.9,1.6,4,3.7l0.8,19.1
			c0.1,2.1-1.6,3.9-3.7,4C206.1,210.5,206.1,210.5,206,210.5z"/>
	</g>
	<circle class="st168" cx="74.5" cy="143.2" r="3.9"/>
	<g>
		<path class="st163" d="M264.5,228.3c-9.8,0-20.5-13.2-30-37.2c-5.4-13.6-9.9-29.3-12.1-42c-3.6-21.5,0.7-25.9,4.2-27.3
			c3.5-1.4,9.7-1.2,21.8,17c7.2,10.7,14.7,25.3,20.1,38.9h0c10.9,27.4,10.9,45.6,0.1,49.9C267.3,228.1,265.9,228.3,264.5,228.3z
			 M231.3,130.3c-0.8-0.7-2.1-0.2-2.3,0.9c-0.4,2.9-0.5,8.7,1.4,18.8c2.2,11.9,6.3,25.9,11.2,38.3c4.9,12.3,10.1,21.7,15.1,27.2
			c3.5,3.9,6.8,5.7,9,4.8c2.2-0.9,3.3-4.4,3.2-9.6c-0.1-7.4-2.8-17.9-7.7-30.2c-4.9-12.4-11.5-25.4-18.1-35.6
			C237.6,136.3,233.6,132.1,231.3,130.3z"/>
	</g>
	<path class="st167" d="M327.3,382.5c-1.5,0-2.9-0.8-3.5-2.2c-7.2-15.4-14.4-31.1-21.5-46.8c-0.9-1.9,0-4.2,1.9-5.1
		c2-0.9,4.2,0,5.1,1.9c7.1,15.7,14.3,31.4,21.5,46.8c0.9,1.9,0.1,4.2-1.9,5.2C328.4,382.4,327.8,382.5,327.3,382.5z"/>
	<path class="st167" d="M297.8,318c-1.5,0-2.9-0.9-3.5-2.3c-1.7-3.7-3.3-7.4-4.9-11.1c-0.9-2,0-4.2,2-5.1c2-0.9,4.2,0,5.1,2
		c1.6,3.6,3.2,7.3,4.9,11c0.9,2,0,4.2-2,5.1C298.9,317.9,298.3,318,297.8,318z"/>
</g>
</svg>
