<?xml version="1.0" encoding="utf-8"?>
<!-- Generator: Adobe Illustrator 20.1.0, SVG Export Plug-In . SVG Version: 6.00 Build 0)  -->
<svg version="1.1" id="Layer_1" xmlns="http://www.w3.org/2000/svg" xmlns:xlink="http://www.w3.org/1999/xlink" x="0px" y="0px"
	 viewBox="0 0 400 400" style="enable-background:new 0 0 400 400;" xml:space="preserve">
<style type="text/css">
	.st0{fill:#6FB228;stroke:#2A481D;stroke-width:3;stroke-linecap:round;stroke-miterlimit:10;}
	.st1{fill:#A7C92B;stroke:#1B4700;stroke-width:5;stroke-miterlimit:10;}
	.st2{fill:#6FAB00;stroke:#1B4700;stroke-width:5;stroke-miterlimit:10;}
	.st3{fill:#9BB31C;stroke:#2A481D;stroke-width:4;stroke-miterlimit:10;}
	.st4{fill:#6FB228;stroke:#2A481D;stroke-width:4;stroke-linecap:round;stroke-miterlimit:10;}
	.st5{fill:#6E8517;}
	.st6{fill:#1B4700;}
	.st7{fill:#00FFFF;}
	.st8{fill:#A2CC62;stroke:#2A481D;stroke-width:6;stroke-miterlimit:10;}
	.st9{fill:#FAD500;stroke:#E6681E;stroke-width:3;stroke-miterlimit:10;}
	.st10{fill:none;stroke:#E6681E;stroke-linecap:round;stroke-miterlimit:10;}
	.st11{fill:none;stroke:#FFFFFF;stroke-linecap:round;stroke-miterlimit:10;}
	.st12{fill:none;stroke:#E6681E;stroke-miterlimit:10;}
	.st13{fill:#E6681E;}
	.st14{fill:#A2CC62;stroke:#2A481D;stroke-miterlimit:10;}
	.st15{fill:#FFFFFF;}
	.st16{fill:#A2CC62;}
	.st17{fill:#F9C900;}
	.st18{fill:#CE571B;}
	.st19{fill:#9BB31C;}
	.st20{fill:#164100;}
	.st21{fill:#4D831C;}
	.st22{fill:#2A481D;}
	.st23{fill:#A7C92B;}
	.st24{fill:#D10000;stroke:#7B000E;stroke-width:3;stroke-miterlimit:10;}
	.st25{fill:none;stroke:#7B000E;stroke-miterlimit:10;}
	.st26{fill:none;stroke:#7B000E;stroke-width:1.2609;stroke-miterlimit:10;}
	.st27{fill:#D10000;}
	.st28{fill:#7B000E;}
	.st29{opacity:0.7;}
	.st30{fill:#4D831C;stroke:#2A481D;stroke-width:3;stroke-miterlimit:10;}
	.st31{opacity:0.5;fill:none;stroke:#FFFFFF;stroke-linecap:round;stroke-miterlimit:10;}
	.st32{fill:#BD0408;}
	.st33{fill:#C8040B;stroke:#6C0A04;stroke-width:3;stroke-miterlimit:10;}
	.st34{fill:none;stroke:#6C0A04;stroke-linecap:round;stroke-miterlimit:10;}
	.st35{fill:#A7C08F;}
	.st36{fill:none;stroke:#FFFFFF;stroke-width:6.4322;stroke-linecap:round;stroke-miterlimit:10;}
	.st37{fill:#C8040B;}
	.st38{fill:#6C0A04;}
	.st39{fill:#F22F2E;stroke:#9E0E00;stroke-width:3;stroke-miterlimit:10;}
	.st40{fill:#A7C92B;stroke:#164E16;stroke-width:3;stroke-miterlimit:10;}
	.st41{fill:none;stroke:#164E16;stroke-miterlimit:10;}
	.st42{fill:#4D831C;stroke:#2A481D;stroke-width:3;stroke-linecap:round;stroke-linejoin:round;stroke-miterlimit:10;}
	.st43{fill:#F22F2E;stroke:#7B000E;stroke-width:3;stroke-miterlimit:10;}
	.st44{fill:none;stroke:#7B000E;stroke-linecap:round;stroke-miterlimit:10;}
	.st45{fill:#F40000;stroke:#7B000E;stroke-width:3;stroke-miterlimit:10;}
	.st46{fill:#F40000;}
	.st47{fill:#7DB34C;stroke:#164E16;stroke-width:3;stroke-miterlimit:10;}
	.st48{fill:none;stroke:#FFFFFF;stroke-linecap:round;stroke-linejoin:round;stroke-miterlimit:10;}
	.st49{fill:#8A9D1F;}
	.st50{fill:#164E16;}
	.st51{fill:none;stroke:#7B000E;stroke-linecap:round;stroke-linejoin:round;stroke-miterlimit:10;}
	.st52{fill:#F6E600;}
	.st53{fill:#8DCC50;}
	.st54{fill:#A2A121;}
	.st55{fill:#F9EFA7;}
	.st56{fill:#7DB34C;}
	.st57{fill:#F22F2E;}
	.st58{fill:#6FAB00;stroke:#1B4700;stroke-width:3;stroke-miterlimit:10;}
	.st59{fill:none;stroke:#1B4700;stroke-linecap:round;stroke-miterlimit:10;}
	.st60{fill:#6E8517;stroke:#1B4700;stroke-linecap:round;stroke-miterlimit:10;}
	.st61{fill:#6FAB00;}
	.st62{fill:#853323;}
	.st63{fill:#7AB000;}
	.st64{fill:#430000;}
	.st65{fill:#2B0101;}
	.st66{fill:none;stroke:#1B4700;stroke-width:1.5;stroke-linecap:round;stroke-linejoin:round;stroke-miterlimit:10;}
	.st67{fill:none;stroke:#1B4700;stroke-width:3;stroke-linecap:round;stroke-linejoin:round;stroke-miterlimit:10;}
	.st68{fill:#FAB2B3;}
	.st69{fill:none;stroke:#1B4700;stroke-width:18.8546;stroke-linecap:round;stroke-linejoin:round;stroke-miterlimit:10;}
	.st70{fill:none;stroke:#1B4700;stroke-width:2;stroke-linecap:round;stroke-miterlimit:10;}
	.st71{fill:none;stroke:#6FAB00;stroke-linecap:round;stroke-miterlimit:10;}
	.st72{fill:#9E0E00;}
	.st73{clip-path:url(#SVGID_2_);}
	.st74{fill:#6FB228;}
	.st75{fill:#F9C900;stroke:#CE571B;stroke-width:3;stroke-miterlimit:10;}
	.st76{opacity:0.3;fill:none;stroke:#CE571B;stroke-linecap:round;stroke-linejoin:round;stroke-miterlimit:10;}
	.st77{opacity:0.3;fill:#CE571B;}
	.st78{fill:#EAA629;}
	.st79{fill:#853323;stroke:#430000;stroke-width:3;stroke-miterlimit:10;}
	.st80{fill:none;stroke:#430000;stroke-linecap:round;stroke-miterlimit:10;}
	.st81{fill:#8A9D1F;stroke:#1B4700;stroke-miterlimit:10;}
	.st82{fill:#F22F2E;stroke:#7B000E;stroke-width:2.5607;stroke-miterlimit:10;}
	.st83{opacity:0.4;}
	.st84{fill:#8A9D1F;stroke:#1B4700;stroke-linejoin:round;stroke-miterlimit:10;}
	.st85{opacity:0.3;fill:#1B4700;}
	.st86{opacity:0.4;fill:#7B000E;}
	.st87{opacity:0.4;fill:none;stroke:#7B000E;stroke-linecap:round;stroke-linejoin:round;stroke-miterlimit:10;}
	.st88{opacity:0.4;fill:none;stroke:#7B000E;stroke-miterlimit:10;}
	.st89{opacity:0.3;fill:none;stroke:#1B4700;stroke-linecap:round;stroke-linejoin:round;stroke-miterlimit:10;}
	.st90{fill:#C01F28;}
	.st91{fill:#698222;}
	.st92{fill:none;stroke:#7B000E;stroke-width:6.1236;stroke-miterlimit:10;}
	.st93{opacity:0.5;fill:#6FB228;stroke:#2A481D;stroke-linecap:round;stroke-miterlimit:10;}
	.st94{opacity:0.5;fill:#2A481D;}
	.st95{fill:#4D7C29;}
	.st96{fill:#9D121E;}
</style>
<path class="st74" d="M111.9,386.1l2.7,1.1c5.4,2.3,11.6-0.3,13.9-5.6c41.8-95.1,95.4-159.5,95.4-159.5l-70-29.5
	c0,0-8.6,82.9-47.7,179.6C104,377.6,106.5,383.8,111.9,386.1z"/>
<path class="st22" d="M191.8,249.5c-19.6,28.3-47.6,73-71.9,128.3c-0.3,0.7-1.1,1-1.7,0.8l-2.7-1.1c-0.6-0.3-0.9-1-0.6-1.7
	c22.4-55.3,34.8-105.7,41.5-139.5c-3.1-1.6-6.2-3.2-9.2-5c-2.6-2-5.2-4-7.8-6c-6.1,32.7-18.5,85.8-41.8,143.5
	c-4.1,10.1,0.7,21.8,10.7,26.1l2.7,1.1c2.5,1.1,5.1,1.6,7.7,1.6c7.7,0,15.2-4.5,18.5-12c25.6-58.2,55.9-105,75-132
	C205.3,252.5,198.5,251.2,191.8,249.5z"/>
<path class="st95" d="M159.1,281.2c-0.4,0-0.8-0.1-1.2-0.2c-1.6-0.7-2.3-2.5-1.7-4.1l24.9-59c0.7-1.6,2.5-2.3,4.1-1.7
	c1.6,0.7,2.3,2.5,1.7,4.1l-24.9,59C161.4,280.5,160.3,281.2,159.1,281.2z"/>
<path class="st57" d="M123.7,207.9L123.7,207.9c26.3,32.4,66.8,49.7,108.3,46.4l1.8-0.1c18.9-1.5,35.2-14.1,41.4-32
	c32.2-93.7,17.1-172.5,5.6-199.8c-3.8-9.2-14.3-13.6-23.5-10.1C229.8,22.8,163.1,66.4,118.1,156
	C109.6,172.9,111.8,193.2,123.7,207.9z"/>
<path class="st28" d="M222,264.1c-40.8,0-79.6-18.3-105.5-50.3v0c-14.2-17.5-16.9-41.9-6.7-62C155.5,60.6,224.1,14.9,253.9,3.5
	c14.1-5.4,29.7,1.3,35.5,15.2c12.5,29.7,27.4,111-5.4,206.5c-7.4,21.5-26.8,36.5-49.5,38.3l-1.8,0.1
	C229.2,263.9,225.6,264.1,222,264.1z M131,202c24.3,30,61.8,46,100.3,43l1.8-0.1c15.2-1.2,28.3-11.3,33.2-25.7
	c13.6-39.5,20-81.5,18.7-121.4c-1.1-33-7.4-58.7-12.8-71.7c-1.9-4.5-7-6.7-11.5-5c-13.1,5-35.7,18.2-60.1,40.4
	c-29.5,26.8-55.1,61-74.1,98.8C119.6,173.8,121.4,190.2,131,202L131,202z"/>
<path class="st15" d="M211.8,85.5c-0.8,0-1.7-0.3-2.3-1c-1.2-1.3-1.1-3.2,0.1-4.4c8.4-8,17.1-15.3,25.9-21.7c1.4-1,3.3-0.7,4.4,0.7
	c1,1.4,0.7,3.3-0.7,4.4c-8.6,6.2-17.1,13.4-25.3,21.1C213.4,85.2,212.6,85.5,211.8,85.5z"/>
<path class="st15" d="M191.4,106.9c-0.7,0-1.5-0.2-2-0.8c-1.3-1.1-1.5-3.1-0.3-4.4c2.4-2.8,4.8-5.5,7.3-8.1c1.2-1.3,3.2-1.3,4.4-0.2
	c1.3,1.2,1.3,3.2,0.2,4.4c-2.4,2.6-4.8,5.3-7.1,8C193.1,106.6,192.2,106.9,191.4,106.9z"/>
<path class="st96" d="M210.8,219.7c-0.6,0-1.2-0.2-1.7-0.5c-1.4-1-1.8-2.9-0.9-4.3c3.9-5.9,6.9-12.3,8.9-19.2
	c2.4-8.2,3.3-16.6,2.7-25c-1.2-16.1,3.5-32.1,13.2-45c5.1-6.7,8.9-14.3,11.3-22.4c0.5-1.7,2.2-2.6,3.9-2.1c1.7,0.5,2.6,2.2,2.1,3.9
	c-2.6,8.9-6.7,17.1-12.3,24.4c-8.8,11.7-13.1,26.2-12,40.7c0.7,9.2-0.3,18.3-2.9,27.2c-2.2,7.4-5.5,14.5-9.7,20.9
	C212.8,219.2,211.8,219.7,210.8,219.7z"/>
<ellipse transform="matrix(0.3888 -0.9213 0.9213 0.3888 -173.0771 319.1771)" class="st95" cx="154" cy="290" rx="3.2" ry="3.2"/>
</svg>
