<?xml version="1.0" encoding="utf-8"?>
<!-- Generator: Adobe Illustrator 20.1.0, SVG Export Plug-In . SVG Version: 6.00 Build 0)  -->
<svg version="1.1" id="Layer_1" xmlns="http://www.w3.org/2000/svg" xmlns:xlink="http://www.w3.org/1999/xlink" x="0px" y="0px"
	 viewBox="0 0 400 400" style="enable-background:new 0 0 400 400;" xml:space="preserve">
<style type="text/css">
	.st0{fill:#8A9D1F;}
	.st1{fill:#F9C900;}
	.st2{fill:none;stroke:#1B4700;stroke-width:3;stroke-linejoin:round;stroke-miterlimit:10;}
	.st3{fill:#8A9D1F;stroke:#0D3102;stroke-width:5;stroke-miterlimit:10;}
	.st4{fill:#639D2E;stroke:#164E16;stroke-width:5;stroke-miterlimit:10;}
	.st5{fill:#8A9D1F;stroke:#1B4700;stroke-width:5;stroke-linejoin:round;stroke-miterlimit:10;}
	.st6{fill:#6FB228;stroke:#2A481D;stroke-width:3;stroke-linecap:round;stroke-miterlimit:10;}
	.st7{fill:#A7C92B;stroke:#1B4700;stroke-width:5;stroke-miterlimit:10;}
	.st8{fill:#6FAB00;stroke:#1B4700;stroke-width:5;stroke-miterlimit:10;}
	.st9{fill:#9BB31C;stroke:#2A481D;stroke-width:4;stroke-miterlimit:10;}
	.st10{fill:#6FB228;stroke:#2A481D;stroke-width:4;stroke-linecap:round;stroke-miterlimit:10;}
	.st11{fill:#6E8517;}
	.st12{fill:#1B4700;}
	.st13{fill:#00FFFF;}
	.st14{fill:#A2CC62;stroke:#2A481D;stroke-width:6;stroke-miterlimit:10;}
	.st15{fill:#FAD500;stroke:#E6681E;stroke-width:3;stroke-miterlimit:10;}
	.st16{fill:none;stroke:#E6681E;stroke-linecap:round;stroke-miterlimit:10;}
	.st17{fill:none;stroke:#FFFFFF;stroke-linecap:round;stroke-miterlimit:10;}
	.st18{fill:none;stroke:#E6681E;stroke-miterlimit:10;}
	.st19{fill:#E6681E;}
	.st20{fill:#A2CC62;stroke:#2A481D;stroke-miterlimit:10;}
	.st21{fill:#FFFFFF;}
	.st22{fill:#A2CC62;}
	.st23{fill:#CE571B;}
	.st24{fill:#9BB31C;}
	.st25{fill:#164100;}
	.st26{fill:#4D831C;}
	.st27{fill:#2A481D;}
	.st28{fill:#A7C92B;}
	.st29{fill:#D10000;stroke:#7B000E;stroke-width:3;stroke-miterlimit:10;}
	.st30{fill:none;stroke:#7B000E;stroke-miterlimit:10;}
	.st31{fill:none;stroke:#7B000E;stroke-width:1.2609;stroke-miterlimit:10;}
	.st32{fill:#D10000;}
	.st33{fill:#7B000E;}
	.st34{opacity:0.7;}
	.st35{fill:#4D831C;stroke:#2A481D;stroke-width:3;stroke-miterlimit:10;}
	.st36{opacity:0.5;fill:none;stroke:#FFFFFF;stroke-linecap:round;stroke-miterlimit:10;}
	.st37{fill:#BD0408;}
	.st38{fill:#C8040B;stroke:#6C0A04;stroke-width:3;stroke-miterlimit:10;}
	.st39{fill:none;stroke:#6C0A04;stroke-linecap:round;stroke-miterlimit:10;}
	.st40{fill:#A7C08F;}
	.st41{fill:none;stroke:#FFFFFF;stroke-width:6.4322;stroke-linecap:round;stroke-miterlimit:10;}
	.st42{fill:#C8040B;}
	.st43{fill:#6C0A04;}
	.st44{fill:#F22F2E;stroke:#9E0E00;stroke-width:3;stroke-miterlimit:10;}
	.st45{fill:#A7C92B;stroke:#164E16;stroke-width:3;stroke-miterlimit:10;}
	.st46{fill:none;stroke:#164E16;stroke-miterlimit:10;}
	.st47{fill:#4D831C;stroke:#2A481D;stroke-width:3;stroke-linecap:round;stroke-linejoin:round;stroke-miterlimit:10;}
	.st48{fill:#F22F2E;stroke:#7B000E;stroke-width:3;stroke-miterlimit:10;}
	.st49{fill:none;stroke:#7B000E;stroke-linecap:round;stroke-miterlimit:10;}
	.st50{fill:#F40000;stroke:#7B000E;stroke-width:3;stroke-miterlimit:10;}
	.st51{fill:#F40000;}
	.st52{fill:#7DB34C;stroke:#164E16;stroke-width:3;stroke-miterlimit:10;}
	.st53{fill:none;stroke:#FFFFFF;stroke-linecap:round;stroke-linejoin:round;stroke-miterlimit:10;}
	.st54{fill:#164E16;}
	.st55{fill:none;stroke:#7B000E;stroke-linecap:round;stroke-linejoin:round;stroke-miterlimit:10;}
	.st56{fill:#F6E600;}
	.st57{fill:#8DCC50;}
	.st58{fill:#A2A121;}
	.st59{fill:#F9EFA7;}
	.st60{fill:#7DB34C;}
	.st61{fill:#F22F2E;}
	.st62{fill:#6FAB00;stroke:#1B4700;stroke-width:3;stroke-miterlimit:10;}
	.st63{fill:none;stroke:#1B4700;stroke-linecap:round;stroke-miterlimit:10;}
	.st64{fill:#6E8517;stroke:#1B4700;stroke-linecap:round;stroke-miterlimit:10;}
	.st65{fill:#6FAB00;}
	.st66{fill:#853323;}
	.st67{fill:#7AB000;}
	.st68{fill:#430000;}
	.st69{fill:#2B0101;}
	.st70{fill:none;stroke:#1B4700;stroke-width:1.5;stroke-linecap:round;stroke-linejoin:round;stroke-miterlimit:10;}
	.st71{fill:none;stroke:#1B4700;stroke-width:3;stroke-linecap:round;stroke-linejoin:round;stroke-miterlimit:10;}
	.st72{fill:#FAB2B3;}
	.st73{fill:none;stroke:#1B4700;stroke-width:18.8546;stroke-linecap:round;stroke-linejoin:round;stroke-miterlimit:10;}
	.st74{fill:none;stroke:#1B4700;stroke-width:2;stroke-linecap:round;stroke-miterlimit:10;}
	.st75{fill:none;stroke:#6FAB00;stroke-linecap:round;stroke-miterlimit:10;}
	.st76{fill:#9E0E00;}
	.st77{clip-path:url(#SVGID_2_);}
	.st78{fill:#6FB228;}
	.st79{fill:#F9C900;stroke:#CE571B;stroke-width:3;stroke-miterlimit:10;}
	.st80{opacity:0.3;fill:none;stroke:#CE571B;stroke-linecap:round;stroke-linejoin:round;stroke-miterlimit:10;}
	.st81{opacity:0.3;fill:#CE571B;}
	.st82{fill:#EAA629;}
	.st83{fill:#853323;stroke:#430000;stroke-width:3;stroke-miterlimit:10;}
	.st84{fill:none;stroke:#430000;stroke-linecap:round;stroke-miterlimit:10;}
	.st85{fill:#8A9D1F;stroke:#1B4700;stroke-miterlimit:10;}
	.st86{fill:#F22F2E;stroke:#7B000E;stroke-width:2.5607;stroke-miterlimit:10;}
	.st87{opacity:0.4;}
	.st88{fill:#8A9D1F;stroke:#1B4700;stroke-linejoin:round;stroke-miterlimit:10;}
	.st89{opacity:0.3;fill:#1B4700;}
	.st90{opacity:0.4;fill:#7B000E;}
	.st91{opacity:0.4;fill:none;stroke:#7B000E;stroke-linecap:round;stroke-linejoin:round;stroke-miterlimit:10;}
	.st92{opacity:0.4;fill:none;stroke:#7B000E;stroke-miterlimit:10;}
	.st93{opacity:0.3;fill:none;stroke:#1B4700;stroke-linecap:round;stroke-linejoin:round;stroke-miterlimit:10;}
	.st94{fill:#C01F28;}
	.st95{fill:#698222;}
	.st96{fill:none;stroke:#7B000E;stroke-width:6.1236;stroke-miterlimit:10;}
	.st97{opacity:0.5;fill:#6FB228;stroke:#2A481D;stroke-linecap:round;stroke-miterlimit:10;}
	.st98{opacity:0.5;fill:#2A481D;}
	.st99{fill:#4D7C29;}
	.st100{fill:#9D121E;}
	.st101{fill:#F22F2E;stroke:#7B000E;stroke-miterlimit:10;}
	.st102{fill:#639D2E;}
	.st103{fill:none;stroke:#0D3102;stroke-width:3;stroke-miterlimit:10;}
	.st104{fill:#639D2E;stroke:#164E16;stroke-miterlimit:10;}
	.st105{fill:#0D3102;}
	.st106{fill:none;stroke:#0D3102;stroke-linecap:round;stroke-miterlimit:10;}
	.st107{fill:#8A9D1F;stroke:#0D3102;stroke-miterlimit:10;}
	.st108{fill:#F9C900;stroke:#CE571B;stroke-miterlimit:10;}
	.st109{fill:#F9C900;stroke:#CE571B;stroke-linecap:round;stroke-miterlimit:10;}
	.st110{fill:none;stroke:#CE571B;stroke-linecap:round;stroke-miterlimit:10;}
	.st111{fill:none;stroke:#FFFFFF;stroke-width:6.3779;stroke-linecap:round;stroke-miterlimit:10;}
</style>
<polygon class="st0" points="188.6,92.4 245.5,133.3 276.6,71.9 330.1,45.3 381.3,45 390.4,29 376.4,13.1 298.6,16.9 "/>
<polygon class="st1" points="18.2,383.1 96.5,350.3 216.6,259.3 253.6,205.3 257.9,145.2 229.4,104 154.7,87.6 86.2,138.6 
	31.6,270.2 "/>
<path class="st12" d="M203.6,92.7c13-3.8,24.8-10.9,34.2-20.7c21.8-22.9,58.4-50.1,108.6-50.1c8.8,0,17.8,0.8,26.8,2.5
	c1.4,0.3,2.7,1,3.6,2.2c1,1.3,1.4,2.9,1.2,4.5c-0.3,1.6-1.2,3.1-2.5,4l-0.5,0.3c-1.2,0.8-2.7,1.1-4.2,0.9
	c-6.2-0.9-12.4-1.4-18.5-1.4c-29.3,0-57.1,10.8-82.7,32.2l-0.4,0.3c-15.8,13.2-25.2,32.3-26.6,52.3c8.6,10,15,21.3,19.1,34
	c1.7-6,2-12.3,0.8-18.6c-3.7-19.8,3.6-40.1,19-53l0.4-0.3C303.8,63.4,327.5,54,352.2,54c5.1,0,10.4,0.4,15.7,1.2
	c1.3,0.2,2.6,0.3,3.9,0.3c5,0,9.8-1.5,13.9-4.2l0.5-0.3c5.7-3.9,9.7-10,10.7-16.9c1.1-6.8-0.8-13.9-5-19.3
	c-3.8-4.8-9.2-8.1-15.2-9.2c-10.1-1.9-20.3-2.8-30.2-2.8c-57,0-98,30.5-122.4,56c-9,9.5-21.2,15.6-34.2,17.3l-7.3,0.9
	c-7.7,1-14.8,4.1-20.6,8.8L203.6,92.7z"/>
<path class="st21" d="M103,179.2c-0.5,0-1-0.1-1.5-0.4c-1.5-0.8-2.1-2.8-1.3-4.3c2.8-5.1,5.7-10.3,8.7-15.3
	c3.6-6.1,7.4-12.1,11.4-18c1.5-2.3,3.2-4.5,4.8-6.6c1.1-1.4,3.1-1.6,4.5-0.5c1.4,1.1,1.6,3.1,0.5,4.5c-1.6,1.9-3.1,4-4.5,6.1
	c-3.9,5.8-7.6,11.8-11.2,17.8c-2.9,4.9-5.8,10-8.6,15.1C105.2,178.6,104.1,179.2,103,179.2z"/>
<path class="st1" d="M108,199.7c-2.6,3.1-5.1,6.4-7.3,10c-4.7,7.5-8.1,15.5-10.2,23.6"/>
<path class="st23" d="M90.5,236.4c-0.3,0-0.5,0-0.8-0.1c-1.7-0.4-2.7-2.2-2.3-3.9c2.2-8.6,5.8-16.9,10.5-24.5
	c2.3-3.6,4.8-7.1,7.6-10.4c1.1-1.3,3.1-1.5,4.5-0.4c1.3,1.1,1.5,3.1,0.4,4.5c-2.5,3-4.9,6.2-7,9.6c-4.4,7.1-7.7,14.7-9.8,22.7
	C93.2,235.5,91.9,236.4,90.5,236.4z"/>
<path class="st23" d="M248.9,112.8c-8.9-15.2-23.6-26-40.7-29.9c-4.1-0.9-8.2-1.9-12.3-2.9c-7.3-1.8-14.8-2.7-22.3-2.7
	c-12.9,0-25.7,2.7-38,8.1c-16.8,7.3-31.7,20-43.1,36.6c-46.1,67.1-66.1,133.8-74.7,181.3c-1.1,5.9-2.5,11.8-4.2,17.6
	c-0.2,0.6-0.4,1.3-0.5,1.9L13,323l-0.1,0.3L2,370.2c-1.6,6.9,0,14,4.4,19.5c4.4,5.5,11,8.7,18,8.7c4.1,0,8.1-1.1,11.6-3.2l41.5-24.4
	l0.2-0.1l0.2-0.1c0.5-0.3,1-0.7,1.6-1c4.9-3.2,9.9-6.3,15.2-9c43-22.4,101.1-61.5,151.7-125.9c12.4-15.8,20-33.7,21.9-51.9
	c2.2-21.1-2.2-41.4-12.9-59.1C253.1,120,251.1,116.4,248.9,112.8z M165.9,96.8c4.4-0.5,6.3,5.3,2.5,7.6c-5.6,3.5-10.4,8.1-14.2,13.6
	c-3.6,5.2-6.1,11.1-7.4,17.3l-1.5,7.4c-1.7,8.3-4.8,16.1-9.3,23.3c-0.9,1.5-1.9,2.9-2.9,4.3c-0.8,1.1-0.9,2.6-0.1,3.7
	c1.3,1.9,4,1.9,5.3,0.1c1.1-1.5,2.2-3.1,3.2-4.8c4.9-7.9,8.3-16.4,10.1-25.4l1.5-7.4c1.1-5.4,3.3-10.5,6.4-15
	c7.3-10.7,19.3-17.4,32.3-18.1c21.4-1.1,40.6,14.5,43.4,36.3c2.2,17-6.6,33.6-21.6,42l-6,3.3c-16.3,8.9-28.8,23.4-35.2,40.9
	c-3.4,9.2-8.4,17.7-14.8,25.2c-6.5,7.5-14.1,13.7-22.7,18.4c-16.3,8.9-28.8,23.4-35.2,40.9c-3.4,9.2-8.4,17.7-14.8,25.2
	c-5.4,6.3-11.7,11.7-18.6,16l-23,13.5c-7.5,4.4-16.6-2.3-14.6-10.8l6-25.9c2.1-7.9,5.4-15.5,9.8-22.6c5.2-8.4,11.8-15.7,19.6-21.6
	c8.2-6.3,15.2-14.3,20.2-23.4c0.8-1.3,0.5-3.1-0.7-4.1c-1.6-1.3-3.9-0.8-4.9,0.9c-4.7,8.3-10.8,16.1-18.6,21.5
	c-6.2,4.3-11.1,9.4-14.8,14c-2.1,2.6-6.2,0.6-5.5-2.6c9.9-45,29.8-102.2,69.8-159.7c8.6-12.4,20.5-22.3,34.4-28.2
	C152,99.2,159.5,97.5,165.9,96.8z M105.6,312.6c5.8-16,17.3-29.3,32.2-37.5c9.3-5.1,17.5-11.8,24.5-19.8c7-8.1,12.3-17.2,16-27.1
	c5.9-16,17.3-29.3,32.3-37.5l6.6-3.7c11.7-6.5,19.8-17.4,23.1-29.7c1.1-4.3,7.1-4.1,8,0.2c1.4,7,1.8,14.3,1.1,22.1
	c-1.4,15.1-7.4,29.4-16.7,41.4c-43.2,55.6-92,91.7-132.2,114.6c-2.8,1.6-6-1.7-4.2-4.4C99.5,326.4,102.9,320.2,105.6,312.6z"/>
<path class="st21" d="M192,122.2c0.8,1.4,0.3,3.2-1,4.1c-7.4,4.9-14.2,13.8-18.5,24.4c-0.5,1.2-1.7,2-3,2c-0.6,0-1.2-0.2-1.7-0.5
	c-1.3-0.8-1.8-2.5-1.2-4c4.8-11.9,12.3-21.6,20.8-27.3C189,120,191.1,120.5,192,122.2L192,122.2z"/>
<path class="st23" d="M187.3,234.7c-0.4,0-0.7-0.1-1.1-0.2c-1.7-0.6-2.5-2.4-1.9-4.1c5.3-14.5,15.8-26.6,29.4-34.1
	c1.5-0.8,3.5-0.3,4.3,1.3c0.8,1.5,0.3,3.5-1.3,4.3c-12.3,6.7-21.7,17.6-26.5,30.7C189.8,233.9,188.6,234.7,187.3,234.7z"/>
<path class="st23" d="M61.4,346.5c-1.1,0-2.1-0.5-2.7-1.5c-0.9-1.5-0.5-3.5,1-4.4c5.6-3.5,11-8.1,15.5-13.4
	c5.5-6.3,9.7-13.5,12.5-21.3c0.6-1.7,2.4-2.5,4.1-1.9c1.7,0.6,2.5,2.4,1.9,4.1c-3.1,8.5-7.7,16.3-13.7,23.2
	c-4.9,5.7-10.8,10.8-16.9,14.6C62.5,346.4,62,346.5,61.4,346.5z"/>
<circle class="st23" cx="121.9" cy="186.6" r="3.2"/>
</svg>
