<?xml version="1.0" encoding="utf-8"?>
<!-- Generator: Adobe Illustrator 20.0.0, SVG Export Plug-In . SVG Version: 6.00 Build 0)  -->
<svg version="1.1" id="Layer_1" xmlns="http://www.w3.org/2000/svg" xmlns:xlink="http://www.w3.org/1999/xlink" x="0px" y="0px"
	 viewBox="0 0 200 200" style="enable-background:new 0 0 200 200;" xml:space="preserve">
<style type="text/css">
	.st0{fill:#D7E2BD;}
	.st1{fill:#D7E2BD;stroke:#366D00;stroke-width:3;stroke-linecap:round;stroke-linejoin:round;stroke-miterlimit:10;}
	.st2{fill:none;stroke:#105409;stroke-width:20;stroke-miterlimit:10;}
	.st3{fill:none;stroke:#8ACF0D;stroke-width:3;stroke-linecap:round;stroke-linejoin:round;stroke-miterlimit:10;}
	.st4{fill:#A9C500;stroke:#2B6000;stroke-width:3;stroke-miterlimit:10;}
	.st5{fill:#A0CB39;}
	.st6{fill:#A9C500;}
	.st7{fill:#2B6000;}
	.st8{fill:#A0CB39;stroke:#4B823B;stroke-width:3;stroke-linejoin:round;stroke-miterlimit:10;}
	.st9{fill:#4B823B;}
	.st10{fill:#90C400;}
	.st11{fill:#90C400;stroke:#2B6000;stroke-width:3;stroke-linecap:round;stroke-miterlimit:10;}
	.st12{fill:#90C400;stroke:#2B6000;stroke-linecap:round;stroke-linejoin:round;stroke-miterlimit:10;}
	.st13{fill:#68AB19;}
	.st14{fill:#074004;}
	.st15{fill:#94466D;stroke:#311538;stroke-width:3;stroke-miterlimit:10;}
	.st16{fill:#00FFFF;}
	.st17{fill:none;stroke:#311538;stroke-linecap:round;stroke-miterlimit:10;}
	.st18{fill:#F08A06;stroke:#DA5C00;stroke-width:3;stroke-miterlimit:10;}
	.st19{fill:none;stroke:#DA5C00;stroke-linecap:round;stroke-miterlimit:10;}
	.st20{fill:none;stroke:#FFFFFF;stroke-linecap:round;stroke-miterlimit:10;}
	.st21{fill:#FFFFFF;}
	.st22{fill:none;stroke:#074004;stroke-width:3;stroke-miterlimit:10;}
	.st23{fill:none;stroke:#A9C500;stroke-width:3;stroke-linecap:round;stroke-linejoin:round;stroke-miterlimit:10;}
	.st24{fill:#F08A06;}
	.st25{fill:#DA5C00;}
	.st26{fill:#94466D;}
	.st27{fill:#311538;}
	.st28{fill:#8DA54A;}
	.st29{fill:#3B6014;}
	.st30{fill:none;stroke:#F08A06;stroke-linecap:round;stroke-miterlimit:10;}
	.st31{fill:none;stroke:#311538;stroke-width:3;stroke-miterlimit:10;}
	.st32{fill:#105409;}
	.st33{fill:#F5DABD;stroke:#B9722E;stroke-width:3;stroke-miterlimit:10;}
	.st34{fill:none;stroke:#B9722E;stroke-linecap:round;stroke-miterlimit:10;}
	.st35{fill:#3A7800;}
	.st36{fill:#A9C500;stroke:#2B6000;stroke-width:3;stroke-linecap:round;stroke-miterlimit:10;}
	.st37{fill:#A9C500;stroke:#2B6000;stroke-linecap:round;stroke-linejoin:round;stroke-miterlimit:10;}
	.st38{fill:#A9C500;stroke:#2B6000;stroke-width:9.5263;stroke-miterlimit:10;}
	.st39{fill:none;stroke:#B9722E;stroke-width:0.9785;stroke-linecap:round;stroke-miterlimit:10;}
	.st40{fill:#F5DABD;}
	.st41{fill:#B9722E;}
	.st42{fill:#E5C074;}
	.st43{fill:#E5C074;stroke:#52340E;stroke-width:3;stroke-miterlimit:10;}
	.st44{fill:none;stroke:#A0CB39;stroke-width:4;stroke-miterlimit:10;}
	.st45{fill:none;stroke:#52340E;stroke-linecap:round;stroke-linejoin:round;stroke-miterlimit:10;}
	.st46{fill:none;stroke:#52340E;stroke-linejoin:round;stroke-miterlimit:10;}
	.st47{fill:#52340E;}
	.st48{fill:#A0CB39;stroke:#4B823B;stroke-linejoin:round;stroke-miterlimit:10;}
	.st49{fill:none;stroke:#2B6000;stroke-linecap:round;stroke-linejoin:round;stroke-miterlimit:10;}
	.st50{fill:#A9C500;stroke:#2B6000;stroke-miterlimit:10;}
	.st51{fill:#FFFFFF;stroke:#E3EA9D;stroke-miterlimit:10;}
	.st52{fill:#A9C500;stroke:#2B6000;stroke-linecap:round;stroke-miterlimit:10;}
	.st53{fill:#FFFFFF;stroke:#2B6000;stroke-linecap:round;stroke-linejoin:round;stroke-miterlimit:10;}
	.st54{fill:none;stroke:#E3EA9D;stroke-miterlimit:10;}
	.st55{fill:none;stroke:#2B6000;stroke-width:3;stroke-miterlimit:10;}
	.st56{fill:#E3EA9D;}
	.st57{fill:none;stroke:#A9C500;stroke-linecap:round;stroke-linejoin:round;stroke-miterlimit:10;}
	.st58{fill:none;stroke:#438700;stroke-linecap:round;stroke-linejoin:round;stroke-miterlimit:10;}
	.st59{fill:#9ACC11;stroke:#105409;stroke-width:2;stroke-miterlimit:10;}
	.st60{fill:#65B200;}
	.st61{fill:none;stroke:#438700;stroke-width:3.3722;stroke-linecap:round;stroke-linejoin:round;stroke-miterlimit:10;}
	.st62{fill:#D7E2BD;stroke:#366D00;stroke-miterlimit:10;}
	.st63{fill:none;stroke:#F4FFD7;stroke-linecap:round;stroke-linejoin:round;stroke-miterlimit:10;}
	.st64{fill:#D7E2BD;stroke:#366D00;stroke-linecap:round;stroke-linejoin:round;stroke-miterlimit:10;}
	.st65{fill:#D7E2BD;stroke:#366D00;stroke-width:3;stroke-miterlimit:10;}
	.st66{fill:none;stroke:#366D00;stroke-width:3;stroke-linecap:round;stroke-miterlimit:10;}
	.st67{fill:#F4FFD7;}
	.st68{fill:#366D00;}
	.st69{fill:#D7E2BD;stroke:#366D00;stroke-width:2.387;stroke-linecap:round;stroke-linejoin:round;stroke-miterlimit:10;}
	.st70{fill:none;stroke:#F4FFD7;stroke-width:0.7957;stroke-linecap:round;stroke-linejoin:round;stroke-miterlimit:10;}
	.st71{fill:#D7E2BD;stroke:#366D00;stroke-width:0.7957;stroke-linecap:round;stroke-linejoin:round;stroke-miterlimit:10;}
	.st72{fill:none;stroke:#366D00;stroke-width:2.387;stroke-linecap:round;stroke-miterlimit:10;}
	.st73{fill:#529900;}
</style>
<path class="st0" d="M172.8,141.6c0-7.7-1.3-18.2-5-26.7c-0.9,0.6-1.8,1.2-2.8,1.9c-2.9-14.1-10.8-25.9-20.1-34.7
	c-1.6,1.9-3.2,3.7-4.9,5.4c-11.6-9.5-27.7-14-40-14c-11.5,0-27.3,3.7-38.2,12.9c-1.5-1.6-2.9-3.2-4.4-4.9
	c-9.6,9.2-16.9,22.1-19.7,36.7c-1.6-1.1-3.2-2.1-4.8-3.3c-3.7,8.5-5.7,18.9-5.7,26.6c0,54.5,72.8,52,72.8,52
	S172.8,197.5,172.8,141.6z"/>
<path class="st67" d="M134.3,97.9c0.6-0.8,1.3-1.5,2-2.1c-11-8.4-24.2-13.5-36.3-13.5c-13.2,0-25.1,5-34.6,12.7
	c0.8,0.7,1.6,1.4,2.4,2.1C76.6,90,87.7,85.5,100,85.5C112.9,85.5,124.7,90.4,134.3,97.9z"/>
<path class="st67" d="M128.9,102.9c0.8-0.6,1.6-1.2,2.4-1.8c-9.6-7.1-21-11.5-31.4-11.5c-10,0-20.4,3.8-29.2,10.3
	c0.8,0.7,1.5,1.4,2.3,2.1c8.2-5.9,17.8-9.3,26.9-9.3C110.6,92.7,120.6,96.7,128.9,102.9z"/>
<path class="st67" d="M123.1,107.4c0.8-0.6,1.6-1.2,2.4-1.8c-8.1-5.4-17.2-8.7-25.4-8.7c-8.1,0-16.5,2.8-23.8,7.8
	c0.9,0.7,1.8,1.3,2.7,1.9c6.6-4.2,14-6.6,21.1-6.6C108.3,100,116.2,102.8,123.1,107.4z"/>
<path class="st67" d="M117.1,112c-5.3-3-11.1-4.8-17.1-4.8c-4.8,0-9.9,1.4-14.6,3.8c-1-0.7-1.9-1.5-2.9-2.2c5.2-3,11.1-4.8,17.5-4.8
	c6.3,0,13.2,2.3,19.5,6.1L117.1,112z"/>
<path class="st67" d="M88.9,113.7c3.4-1.5,7.2-2.4,11.1-2.4c4.1,0,8.7,1.3,13.2,3.5c-1,0.7-2,1.4-2.9,2c-3.5-1.6-7-2.5-10.3-2.5
	c-2.5,0-5.2,0.5-7.8,1.4L88.9,113.7z"/>
<path class="st67" d="M99.6,121.7l-2.9-2.9c1.1-0.2,2.2-0.3,3.4-0.3c2,0,4.1,0.4,6.3,1.1c-1.1,0.8-2.1,1.6-3.2,2.4L99.6,121.7z"/>
<path class="st67" d="M94.3,127.9c1-0.6,2.1-1.2,3.1-1.8c-15.2-9.1-31.6-20.8-45.5-35.4c-0.6,0.8-1.3,1.7-1.9,2.6
	C63.7,107.4,79.5,118.9,94.3,127.9z"/>
<path class="st67" d="M85,132.3c1.1-0.5,2.1-1.1,3.2-1.6c-14.2-9.1-28.7-20.5-41.1-34.2c-0.6,0.9-1.1,1.9-1.6,2.9
	C57.4,112.4,71.4,123.4,85,132.3z"/>
<path class="st67" d="M75.7,136.3c1.1-0.5,2.1-1,3.2-1.5c-12.7-8.9-25.4-19.6-36.1-32.2c-0.5,1-0.9,2.1-1.4,3.2
	C51.7,117.7,63.6,127.8,75.7,136.3z"/>
<path class="st67" d="M39.1,109.3c-0.4,1.2-0.8,2.3-1.1,3.5c8.4,10.1,18,18.9,27.9,26.7c0.3,0.1,0.5,0.2,0.8,0.3c1-0.4,2-0.9,3-1.3
	C58.8,130.2,48.2,120.5,39.1,109.3z"/>
<path class="st67" d="M76,144.4c20.7-9.3,52.3-26.4,76.6-52c-0.6-0.9-1.3-1.7-1.9-2.5c-25,26.5-58,43.8-78.4,52.8
	C73.5,143.2,74.8,143.8,76,144.4z"/>
<path class="st67" d="M87.7,148.9c21.1-10.4,48.6-27.1,69.7-50.7c-0.5-1-1.1-1.9-1.7-2.8c-21.7,24.6-50.5,41.6-71.8,51.9
	C85.1,147.9,86.4,148.4,87.7,148.9z"/>
<path class="st67" d="M99.4,153c20.2-11,43.9-26.9,62.1-48.4c-0.5-1.1-0.9-2.1-1.4-3.1c-18.8,22.5-43.8,39-64.5,50.1
	C96.8,152.1,98.1,152.5,99.4,153z"/>
<path class="st67" d="M163.8,108c-11.4,14.4-25.4,26.4-39.5,36.2c4.7-2.1,9.5-4.3,14.3-6.8c9.4-7.6,18.5-16.2,26.4-25.9
	C164.6,110.4,164.2,109.2,163.8,108z"/>
<path class="st67" d="M93,155.2c-19.2-6.8-40.8-16.9-62.8-32.1c0,0,0,0,0,0c-0.4,1.1-0.7,2.1-1,3.1c20.5,14,40.6,23.7,58.7,30.4
	C89.6,156.2,91.3,155.7,93,155.2z"/>
<path class="st67" d="M73.7,160.3c1.7-0.4,3.4-0.8,5.1-1.2c-15.7-6.6-32.6-15.4-49.7-27.3c-0.3-0.2-0.7-0.3-1.1-0.3
	c-0.2,1-0.3,2-0.4,3c0,0,0,0,0,0C43.4,145.5,59,153.9,73.7,160.3z"/>
<path class="st67" d="M59.5,163c1.7-0.3,3.4-0.6,5.2-0.9c-11.5-5.6-23.5-12.5-35.6-21c-0.6-0.4-1.3-0.4-1.8,0c0,0.1,0,0.3,0,0.4
	c0,0.7,0,1.4,0.1,2.1C38.2,151.3,49,157.6,59.5,163z"/>
<path class="st67" d="M45.5,164.7c1.6-0.1,3.4-0.3,5.3-0.5c-7.2-4-14.4-8.6-21.8-13.7c-0.3-0.2-0.8-0.3-1.1-0.3c0,0.2,0,0.3,0.1,0.5
	c0.1,0.3,0.1,0.7,0.2,1c0.2,0.8,0.3,1.5,0.5,2.3C34.3,157.9,40,161.5,45.5,164.7z"/>
<path class="st67" d="M170.9,126.7c-0.3-1-0.6-2.1-0.9-3.1c-68.1,46.6-131.7,45.3-132.4,45.3c0,0,0,0,0,0c-0.6,0-1.1,0.3-1.4,0.8
	c0.6,0.8,1.3,1.6,2,2.3c0.2,0,0.3,0,0.5,0c4.2,0,19.1-0.4,40.4-5.2C101.6,161.8,135.5,150.8,170.9,126.7z"/>
<path class="st67" d="M172,131.6c-0.1,0-0.2,0.1-0.3,0.2c-55.3,38.4-108,45.1-126.8,46.2c1.3,1,2.7,2,4.2,2.9
	c7.2-0.6,17.5-1.9,30.1-4.7c22.7-5.1,57.3-16.4,93.3-41.2C172.3,133.9,172.2,132.7,172,131.6z"/>
<path class="st67" d="M171.7,141.1c-44.8,31.2-88,41.4-112.7,44.8c2,0.8,4,1.6,6.2,2.3c4.3-0.7,9-1.6,14.1-2.7
	c22.8-5.1,57.5-16.4,93.5-41.3c0-0.9,0.1-1.7,0.1-2.6c0-0.3,0-0.5,0-0.8C172.4,140.8,172,140.9,171.7,141.1z"/>
<path class="st67" d="M78.8,191.7c2.8,0.5,5.6,0.9,8.6,1.2c22.1-5.8,52.3-16.9,83.8-38.3c0.4-1.4,0.7-2.8,0.9-4.3
	c-0.1,0-0.3,0.1-0.4,0.2C137.2,174.5,103.7,186.1,78.8,191.7z"/>
<path class="st67" d="M116.5,192.8c15-5.9,31.6-13.9,48.7-24.9c1.2-1.9,2.4-3.8,3.3-5.9c-22.3,15.1-44.1,25-63.3,31.6
	C109.1,193.5,112.9,193.2,116.5,192.8z"/>
<path class="st68" d="M103.3,198.3c10.3,0,40.4-1.6,59.1-19.3c10-9.5,15.1-22.1,15.1-37.4c0-3.5-0.3-15.1-4.4-26
	c-0.1-0.4-0.1-0.7,0.2-1c4.2-4.5,10.3-11.9,15.6-21.5c1.2-2.2,0.7-5-1.4-6.4c-2.3-1.6-5.4-0.7-6.7,1.7c-4.1,7.5-8.8,13.6-12.4,17.8
	c-0.5,0.6-1.4,0.4-1.7-0.3c-4.3-11.2-11.1-19.8-17-25.7c-0.3-0.3-0.4-0.9-0.1-1.3c6.6-9.6,16.2-26.2,22.1-48.6
	c0.6-2.4-0.6-4.9-2.9-5.8c-2.6-1-5.4,0.6-6.1,3.2c-6.9,26.4-19.6,44.7-24.8,51.3c-0.3,0.4-0.9,0.5-1.3,0.2c-6.9-4.2-14.3-7-21.2-8.6
	c-0.6-0.1-0.9-0.7-0.7-1.3c5-14.6,11.6-37.3,13.9-60.6c0.3-2.6-1.6-4.9-4.2-5.1c-2.6-0.3-4.9,1.6-5.1,4.2
	c-2.3,23.6-9.6,47.2-14.5,61.2c-1.6-0.1-3.2-0.2-4.7-0.2c-2.4,0-5.1,0.2-7.8,0.5C87.3,55.4,80,31.7,77.6,7.9
	c-0.3-2.6-2.6-4.5-5.1-4.2C69.9,4,68,6.3,68.3,8.8c2.4,23.6,9.2,46.7,14.2,61.3c0.2,0.5-0.1,1.1-0.7,1.3c-6.2,1.7-12.5,4.2-18.2,7.9
	c-0.4,0.3-1,0.2-1.3-0.2c-5.1-6.6-17.8-24.7-24.8-51.2c-0.6-2.4-2.9-4.1-5.3-3.7c-2.8,0.4-4.5,3.2-3.8,5.8
	C34.5,53.5,44.7,70.6,51.3,80c0.3,0.4,0.2,0.9-0.1,1.2c-7,7.6-12.4,16.8-15.7,26.9c-0.2,0.7-1.1,0.9-1.7,0.4
	c-3.8-4.1-9.6-11-14.5-20c-1.2-2.1-3.8-3.2-6-2.2c-2.6,1.1-3.6,4.1-2.3,6.6c5.5,10.1,12,17.8,16.2,22.3c0.3,0.3,0.3,0.6,0.2,1
	c-3,8-4.9,17.7-4.9,25.5c0,14.7,4.4,27.6,14.7,36.4C51.7,190.4,71.3,198.3,103.3,198.3z M143.9,90.8c0.8-0.9,2.2-0.9,3,0
	c5.6,6.6,11.3,15.6,13.6,26.9l0.5,2.3c0.2,0.8-0.2,1.6-0.9,2.1c-21.5,14-42.4,23.3-60.9,29.4c-8.1-2.8-16.7-6.4-25.8-10.7
	c-0.8-0.4-0.8-1.5,0-1.8C95.4,129.1,122.8,113.4,143.9,90.8z M37.4,124.1c19.3,12.7,37.8,21.7,54.2,28c0.9,0.3,0.8,1.6-0.1,1.9
	c-24.4,7.3-43.6,9.2-52.7,9.6c-0.8,0-1.5-0.3-1.8-1c-3.4-6-5.1-13-5.1-21c0-5,0.9-10.8,2.4-16.4C34.7,123.9,36.2,123.4,37.4,124.1z
	 M41.2,168.3c-0.6-0.6-0.2-1.7,0.6-1.7c7.2-0.5,18.6-1.7,32.8-4.9c21.7-4.9,54.2-15.4,88.4-37.9c1.2-0.8,2.7-0.2,3,1.2
	c1.8,7.4,1.9,14.2,1.9,16.7c0,12.6-4.1,22.9-12.2,30.6c-19.3,18.3-55.3,16.7-55.6,16.7C100.2,188.9,62.5,189.4,41.2,168.3z
	 M67.7,138.1c-8.1-4.1-16.4-8.8-25-14.2c-0.7-0.4-1-1.3-0.9-2.1l0.5-2.6c2-10.5,6.5-20.3,13-28.4c0.8-1,2.2-1,3-0.1
	c11.5,12.4,25,22.7,38.4,31.2c0.6,0.4,0.6,1.3,0,1.7C86.6,129.5,76.6,134.3,67.7,138.1z M136.6,93.8c-10.6,10.4-22.5,19.1-34.4,26.4
	c-0.6,0.4-1.5,0.4-2.1,0C88,112.8,75.8,103.8,65,93.1c-0.9-0.9-0.7-2.4,0.4-3.1c5.4-3.3,20.5-11.8,34.6-11.8c15.8,0,31,9,36.3,12.5
	C137.4,91.4,137.5,93,136.6,93.8z"/>
<path class="st73" d="M51.2,2.4c0.6,0,1.2,0.4,1.5,1l2.2,4.7c0.2,0.4,0.5,0.7,0.8,0.9l0.2,0.1c1,0.5,2.2-0.4,2-1.5l-0.4-2.4
	c-0.1-0.8,0.3-1.6,1-1.9c1-0.3,1.9,0.3,2.1,1.2l1.4,7.4c0.1,0.5,0.4,1,0.8,1.2c6.7,4.2,11.2,8.2,11.5,8.4C75,22,75,23,74.5,23.7
	c-0.2,0.2-0.5,0.4-0.7,0.5c-0.5,0.2-1.1,0.1-1.5-0.3c-0.1-0.1-8.4-7.2-18.9-12.6c-0.3-0.2-0.6-0.4-0.7-0.7l-2.8-5.8
	C49.3,3.8,49.9,2.4,51.2,2.4z"/>
<path class="st73" d="M141.6,26.2c0.6,0.1,1.1,0.7,1.2,1.3l1.1,5.1c0.1,0.4,0.3,0.8,0.6,1l0.1,0.1c0.9,0.8,2.3,0.2,2.3-1l0.1-2.5
	c0-0.8,0.6-1.5,1.4-1.6c1-0.1,1.8,0.7,1.8,1.7l-0.4,7.5c0,0.5,0.2,1,0.5,1.4c5.5,5.7,9,10.5,9.2,10.8c0.5,0.7,0.3,1.7-0.4,2.2
	c-0.2,0.2-0.5,0.3-0.8,0.3c-0.5,0-1.1-0.2-1.4-0.7c-0.1-0.1-6.4-9-15.5-16.6c-0.3-0.2-0.5-0.5-0.5-0.9l-1.3-6.2
	C139.5,27.1,140.4,25.9,141.6,26.2z"/>
<path class="st73" d="M188.4,22.7c-0.6,0-1.2,0.3-1.5,0.9l-2.5,4.6c-0.2,0.4-0.5,0.7-0.9,0.8l-0.2,0.1c-1.1,0.5-2.2-0.5-1.9-1.6
	l0.6-2.4c0.2-0.8-0.2-1.6-0.9-1.9c-0.9-0.4-1.9,0.2-2.2,1.1l-1.7,7.3c-0.1,0.5-0.5,0.9-0.9,1.2c-6.9,3.9-11.6,7.6-11.9,7.8
	c-0.7,0.5-0.8,1.5-0.3,2.2c0.2,0.2,0.4,0.4,0.7,0.5c0.5,0.2,1.1,0.1,1.5-0.2c0.1-0.1,8.7-6.8,19.5-11.5c0.3-0.1,0.6-0.4,0.8-0.7
	l3.1-5.6C190.2,24.2,189.7,22.8,188.4,22.7z"/>
<path class="st73" d="M154.5,62.1c0.4-0.1,5.8-2.1,13.3-3.7c0.3-0.1,0.6-0.3,0.7-0.6l2-5.2c0.3-0.7,1.1-1.2,1.8-1.1
	c1,0.2,1.5,1.2,1.2,2.1l-0.4,1c-0.5,1.3,0.5,2.6,1.9,2.4c0.2,0,0.5-0.1,0.7-0.1c0.3,0,0.5-0.2,0.6-0.4l5.5-7.5
	c0.5-0.6,1.3-0.9,2-0.6c0.9,0.5,1.2,1.6,0.6,2.4l-2,2.7c-0.9,1.2,0,2.9,1.5,2.9l0,0c0,0,0,0,0.1,0l5.8-3c0.7-0.4,1.6-0.2,2.1,0.4
	c0.6,0.8,0.3,1.9-0.5,2.4l-6.2,3.2c-0.2,0.1-0.5,0.2-0.7,0.2c-14.2,0.1-28.7,5.3-28.8,5.4c-0.7,0.3-1.4,0-1.8-0.6
	c-0.1-0.1-0.1-0.2-0.2-0.4C153.2,63.3,153.6,62.4,154.5,62.1z"/>
<path class="st73" d="M122.5,25.4c0.3-0.3,4.6-4.2,10.9-8.5c0.3-0.2,0.4-0.5,0.4-0.8l-0.1-5.5c0-0.8,0.5-1.5,1.3-1.7
	c1-0.2,1.9,0.6,1.9,1.5l0,1.1c0,1.4,1.5,2.2,2.7,1.5c0.2-0.1,0.4-0.2,0.6-0.4c0.2-0.1,0.4-0.3,0.4-0.6l2.2-9.1
	c0.2-0.8,0.9-1.4,1.7-1.3c1,0.1,1.7,1,1.4,2l-0.8,3.2c-0.3,1.4,1.1,2.7,2.5,2.1v0c0,0,0,0,0.1,0l4.2-5c0.5-0.6,1.4-0.8,2.1-0.4
	c0.9,0.5,1,1.7,0.4,2.4l-4.5,5.4c-0.2,0.2-0.4,0.3-0.6,0.4c-13.1,5.5-24.4,15.9-24.5,16c-0.5,0.5-1.3,0.6-1.9,0.2
	c-0.1-0.1-0.2-0.2-0.3-0.3C121.8,27,121.9,26,122.5,25.4z"/>
<path class="st73" d="M41.2,50.3c-0.5-0.3-8.1-5.6-18.4-10.1c-0.3-0.1-0.5-0.4-0.6-0.7l-1.2-9.5c-0.1-0.8-0.7-1.4-1.5-1.5
	c-1,0-1.8,0.8-1.6,1.8l0.7,5.6c0.2,1.2-1,2.2-2.2,1.8c-0.4-0.1-0.7-0.3-1.1-0.4c-0.3-0.1-0.5-0.4-0.6-0.7l-2.3-12
	c-0.1-0.8-0.8-1.4-1.6-1.4c-1,0-1.7,0.9-1.5,1.9l1.6,8.3c0.2,1.2-0.9,2.3-2.1,2l0,0c-0.1,0-0.2-0.1-0.4-0.1l-2.9-5.3
	c-0.4-0.7-1.2-1.1-2-0.8c-1,0.3-1.3,1.4-0.9,2.3l3.3,6c0.2,0.4,0.6,0.7,1,0.8c16.3,3.8,32.3,14.7,32.4,14.9c0.2,0.1,0.3,0.2,0.5,0.2
	c0.6,0.2,1.3-0.1,1.7-0.6C42.2,51.8,42,50.8,41.2,50.3z"/>
<path class="st73" d="M80,41.2c0.2-0.5,4.3-8.9,11-17.8c0.2-0.3,0.2-0.6,0.1-0.9l-3.6-8.9c-0.3-0.7-0.1-1.6,0.6-2
	c0.9-0.5,1.9-0.1,2.3,0.7l2.1,5.2c0.5,1.2,2,1.4,2.8,0.5c0.2-0.3,0.5-0.6,0.7-0.9c0.2-0.3,0.3-0.6,0.2-0.9L92.4,4.5
	c-0.3-0.8,0-1.6,0.7-2c0.9-0.5,2,0,2.3,0.9l2.7,8c0.4,1.2,1.9,1.5,2.8,0.7l0,0c0.1-0.1,0.2-0.2,0.3-0.3l-0.1-6
	c0-0.8,0.5-1.5,1.3-1.7c1-0.2,1.9,0.6,1.9,1.6l0.1,6.8c0,0.4-0.2,0.9-0.5,1.2C91.5,25,83,42.4,82.9,42.5c-0.1,0.2-0.2,0.3-0.3,0.5
	c-0.5,0.4-1.2,0.6-1.8,0.3C80,42.9,79.7,41.9,80,41.2z"/>
</svg>
