<?xml version="1.0" encoding="utf-8"?>
<!-- Generator: Adobe Illustrator 20.1.0, SVG Export Plug-In . SVG Version: 6.00 Build 0)  -->
<svg version="1.1" id="Layer_1" xmlns="http://www.w3.org/2000/svg" xmlns:xlink="http://www.w3.org/1999/xlink" x="0px" y="0px"
	 viewBox="0 0 400 400" style="enable-background:new 0 0 400 400;" xml:space="preserve">
<style type="text/css">
	.st0{fill:#6FB228;stroke:#2A481D;stroke-width:4;stroke-linecap:round;stroke-miterlimit:10;}
	.st1{fill:#6E8517;}
	.st2{fill:#1B4700;}
	.st3{fill:#00FFFF;}
	.st4{fill:#A2CC62;stroke:#2A481D;stroke-width:6;stroke-miterlimit:10;}
	.st5{fill:#FAD500;stroke:#E6681E;stroke-width:3;stroke-miterlimit:10;}
	.st6{fill:none;stroke:#E6681E;stroke-linecap:round;stroke-miterlimit:10;}
	.st7{fill:none;stroke:#FFFFFF;stroke-linecap:round;stroke-miterlimit:10;}
	.st8{fill:none;stroke:#E6681E;stroke-miterlimit:10;}
	.st9{fill:#E6681E;}
	.st10{fill:#A2CC62;stroke:#2A481D;stroke-miterlimit:10;}
	.st11{fill:#FFFFFF;}
	.st12{fill:#A2CC62;}
	.st13{fill:#FBE000;}
	.st14{fill:#E46900;}
	.st15{fill:#51B505;}
	.st16{fill:#164100;}
	.st17{fill:#4D831C;}
	.st18{fill:#2A481D;}
	.st19{fill:#A7C92B;}
	.st20{fill:#D10000;stroke:#7B000E;stroke-width:3;stroke-miterlimit:10;}
	.st21{fill:none;stroke:#7B000E;stroke-miterlimit:10;}
	.st22{fill:none;stroke:#7B000E;stroke-width:1.2609;stroke-miterlimit:10;}
	.st23{fill:#D10000;}
	.st24{fill:#7B000E;}
	.st25{opacity:0.7;}
	.st26{fill:#4D831C;stroke:#2A481D;stroke-width:3;stroke-miterlimit:10;}
	.st27{opacity:0.5;fill:none;stroke:#FFFFFF;stroke-linecap:round;stroke-miterlimit:10;}
	.st28{fill:#BD0408;}
	.st29{fill:#C8040B;stroke:#6C0A04;stroke-width:3;stroke-miterlimit:10;}
	.st30{fill:none;stroke:#6C0A04;stroke-linecap:round;stroke-miterlimit:10;}
	.st31{fill:#A7C08F;}
	.st32{fill:none;stroke:#FFFFFF;stroke-width:6.4322;stroke-linecap:round;stroke-miterlimit:10;}
	.st33{fill:#C8040B;}
	.st34{fill:#6C0A04;}
	.st35{fill:#F22F2E;stroke:#9E0E00;stroke-width:3;stroke-miterlimit:10;}
	.st36{fill:#A7C92B;stroke:#164E16;stroke-width:3;stroke-miterlimit:10;}
	.st37{fill:none;stroke:#164E16;stroke-miterlimit:10;}
	.st38{fill:#4D831C;stroke:#2A481D;stroke-width:3;stroke-linecap:round;stroke-linejoin:round;stroke-miterlimit:10;}
	.st39{fill:#F22F2E;stroke:#7B000E;stroke-width:3;stroke-miterlimit:10;}
	.st40{fill:none;stroke:#7B000E;stroke-linecap:round;stroke-miterlimit:10;}
	.st41{fill:#F40000;stroke:#7B000E;stroke-width:3;stroke-miterlimit:10;}
	.st42{fill:#F40000;}
	.st43{fill:#7DB34C;stroke:#164E16;stroke-width:3;stroke-miterlimit:10;}
	.st44{fill:none;stroke:#FFFFFF;stroke-linecap:round;stroke-linejoin:round;stroke-miterlimit:10;}
	.st45{fill:#8A9D1F;}
	.st46{fill:#164E16;}
	.st47{fill:none;stroke:#7B000E;stroke-linecap:round;stroke-linejoin:round;stroke-miterlimit:10;}
	.st48{fill:#F6E600;}
	.st49{fill:#8DCC50;}
	.st50{fill:#A2A121;}
	.st51{fill:#F9EFA7;}
	.st52{fill:#7DB34C;}
	.st53{fill:#F22F2E;}
	.st54{fill:#9E0E00;}
	.st55{fill:#6FAB00;stroke:#1B4700;stroke-width:3;stroke-miterlimit:10;}
	.st56{fill:none;stroke:#1B4700;stroke-linecap:round;stroke-miterlimit:10;}
	.st57{fill:#6E8517;stroke:#1B4700;stroke-linecap:round;stroke-miterlimit:10;}
	.st58{fill:#6FAB00;}
	.st59{fill:#853323;}
	.st60{fill:#7AB000;}
	.st61{fill:#430000;}
	.st62{fill:none;stroke:#1B4700;stroke-width:1.5;stroke-linecap:round;stroke-linejoin:round;stroke-miterlimit:10;}
	.st63{fill:none;stroke:#1B4700;stroke-width:3;stroke-linecap:round;stroke-linejoin:round;stroke-miterlimit:10;}
	.st64{fill:#FAB2B3;}
	.st65{fill:none;stroke:#1B4700;stroke-width:18.8546;stroke-linecap:round;stroke-linejoin:round;stroke-miterlimit:10;}
	.st66{fill:none;stroke:#1B4700;stroke-width:2;stroke-linecap:round;stroke-miterlimit:10;}
	.st67{fill:none;stroke:#6FAB00;stroke-linecap:round;stroke-miterlimit:10;}
	.st68{fill:#6FB228;}
</style>
<path class="st53" d="M216.6,73l57,26c25.4,11.6,35.3,42.5,21.3,66.6c-36,61.7-110.7,169.7-216.6,220.5c-17.3,8.3-35.4-9.8-26.8-27
	c27.4-54.8,72-152.1,100.1-255.4C159.1,75.6,190.1,61,216.6,73z"/>
<path class="st24" d="M69.3,397.6c-7.7,0-15.2-3.1-21-8.9c-8.9-9.1-11-22.4-5.3-33.8c24.9-49.8,71-149.1,99.4-253.6
	c4.4-16.1,15.6-29.5,30.7-36.5c15-7.1,32.3-7.1,47.4-0.3l57,26c14.5,6.6,25.7,19.2,30.5,34.4c4.8,15.2,3,31.8-5,45.5
	c-35.8,61.4-112.1,172.2-220.7,224.2C78.1,396.6,73.7,397.6,69.3,397.6z M197,78.2c-5.5,0-10.9,1.2-16,3.6
	c-10.1,4.7-17.5,13.6-20.5,24.4C131.7,212.3,85.1,312.8,59.8,363.3c-3.1,6.3,0.6,10.9,1.9,12.1c1.3,1.3,5.9,5.3,12.4,2.1
	C178.2,327.7,252,220.4,286.7,160.8c5.4-9.3,6.6-20,3.3-30.3c-3.2-10.2-10.6-18.5-20.4-22.9l-57-26C207.7,79.4,202.4,78.2,197,78.2z
	"/>
<path class="st11" d="M154.4,213c-0.4,0-0.9-0.1-1.3-0.3c-1.6-0.7-2.3-2.6-1.6-4.1c4.6-10.4,9-20.9,13.2-31.1
	c0.7-1.6,2.5-2.4,4.1-1.7c1.6,0.7,2.4,2.5,1.7,4.1c-4.2,10.3-8.7,20.8-13.3,31.2C156.8,212.3,155.6,213,154.4,213z"/>
<path class="st11" d="M142,240.4c-0.4,0-0.9-0.1-1.3-0.3c-1.6-0.7-2.3-2.6-1.5-4.2c1.8-3.8,3.5-7.6,5.2-11.4
	c0.7-1.6,2.6-2.3,4.2-1.6s2.3,2.6,1.6,4.2c-1.8,3.8-3.5,7.7-5.3,11.4C144.3,239.7,143.2,240.4,142,240.4z"/>
<path class="st68" d="M267.1,107.9c-19.3-1.4-37.6-9.7-51.4-23.4l5.2-2c11.5-4.4,21.2-12.5,27.2-22.9c21-36.4,45.5-41.1,64.5-41.1
	c4.6,0,9.6,0.3,15.7,0.9c2.3,0.2,9,1.7,11.4,2.3c5.4,1.1,8.9,6.2,7.8,11.6c-0.9,4.6-5,7.9-9.6,7.9c-0.6,0-1.3-0.1-1.9-0.2
	c-0.3-0.1-8.9-2-12-2.4c-3.4-0.4-6.6-0.6-9.6-0.6c-11.8,0-21.8,3.1-30.5,9.5C265.8,60.9,258.9,85.7,267.1,107.9z"/>
<path class="st18" d="M343,6.4c-2.4-0.6-9.7-2.2-13.1-2.5c-33.2-3.4-67.8,0-95.4,47.9c-3.1,5.4-7.6,9.9-13,13.1l8.5,3.9
	c2.2,1,2.4,4,0.4,5.4c-3.3,2.2-6.8,4.1-10.5,5.5l-5.3,2c-2.1,0.8-2.7,3.5-1.1,5c14.3,14.3,33.4,23,53.6,24.4
	c2.2,0.2,3.8-2.1,3.1-4.1v0c-2-5.3-3-10.9-3.2-16.4c-0.1-2.3,2.3-3.8,4.4-2.9l6.3,2.8c0.7,0.3,1.3,0.6,2,1
	c-0.8-12.2,4.1-24.1,13.7-31.2c7.5-5.6,16.4-7.4,28.9-5.9c1.4,0.2,6.6,1.2,10.5,2.1l0.3,0.1c13.8,2.7,27.3-6.3,30-20.1
	C365.6,22.6,356.7,9.2,343,6.4z M250.8,61.2c9.1-15.2,18.7-25.9,30-32.1c9.1-5,19.2-7.4,31.7-7.4c4.5,0,9.4,0.3,15.4,0.9
	c1.9,0.2,7.8,1.4,11,2.2l0.1,0l0.1,0c3.6,0.7,6,4.2,5.3,7.9c-0.6,3.1-3.4,5.4-6.6,5.4c-0.4,0-0.8,0-1.2-0.1c-1.3-0.3-9.2-2-12.3-2.4
	c-3.5-0.4-6.8-0.6-10-0.6c-12.5,0-23.1,3.3-32.3,10.1c-16.9,12.5-24.6,34.3-20.3,55.4c0.4,1.8-1.3,3.5-3.1,3.1
	c-12.3-2.3-23.9-7.5-33.8-15.3c-1.5-1.2-1.3-3.6,0.5-4.5C231.4,80.8,243.4,73.5,250.8,61.2z"/>
<path class="st11" d="M234.5,125.8c-0.4,0-0.8-0.1-1.2-0.2c-6.7-2.7-13.2-6.1-19.2-10.1c-1.4-1-1.8-2.9-0.9-4.4
	c1-1.4,2.9-1.8,4.4-0.9c5.7,3.8,11.8,7,18.1,9.5c1.6,0.6,2.4,2.5,1.7,4.1C236.9,125,235.7,125.8,234.5,125.8z"/>
<circle class="st11" cx="201.9" cy="102.1" r="3.1"/>
</svg>
