<?xml version="1.0" encoding="utf-8"?>
<!-- Generator: Adobe Illustrator 20.0.0, SVG Export Plug-In . SVG Version: 6.00 Build 0)  -->
<svg version="1.1" id="Layer_1" xmlns="http://www.w3.org/2000/svg" xmlns:xlink="http://www.w3.org/1999/xlink" x="0px" y="0px"
	 viewBox="0 0 250 250" style="enable-background:new 0 0 250 250;" xml:space="preserve">
<style type="text/css">
	.st0{fill:#56A569;}
	.st1{fill:#336648;}
	.st2{fill:#56A569;stroke:#4F994B;stroke-linecap:round;stroke-miterlimit:10;}
	.st3{fill:none;stroke:#37714F;stroke-linecap:round;stroke-miterlimit:10;}
	.st4{fill:#79B85A;}
	.st5{fill:#006838;}
	.st6{fill:#BDDAAE;}
	.st7{fill:#5A9923;}
	.st8{fill:#3A6617;}
	.st9{fill:#6DB035;}
	.st10{fill:#00ADEE;}
	.st11{fill:#CF8969;}
	.st12{fill:#4E921F;}
	.st13{fill:none;stroke:#4E921F;stroke-width:3;stroke-miterlimit:10;}
	.st14{fill:none;stroke:#65B228;stroke-width:2;stroke-linecap:round;stroke-miterlimit:10;}
	.st15{opacity:0.5;fill:none;stroke:#70BF2C;stroke-miterlimit:10;}
	.st16{fill:#CF8969;stroke:#603813;stroke-width:3;stroke-miterlimit:10;}
	.st17{fill:#CF8969;stroke:#603813;stroke-linecap:round;stroke-miterlimit:10;}
	.st18{fill:none;stroke:#FFFFFF;stroke-linecap:round;stroke-miterlimit:10;}
	.st19{fill:#CF8969;stroke:#603813;stroke-miterlimit:10;}
	.st20{fill:#FFFFFF;}
	.st21{fill:#66A528;}
	.st22{fill:#70BF2C;}
	.st23{fill:#603813;}
	.st24{fill:none;stroke:#79B85A;stroke-width:1.0061;stroke-miterlimit:10;}
	.st25{fill:none;stroke:#006838;stroke-linecap:round;stroke-linejoin:round;stroke-miterlimit:10;}
	.st26{fill:#E1CD83;}
	.st27{fill:#665B3D;}
	.st28{fill:none;stroke:#E57863;stroke-miterlimit:10;}
	.st29{opacity:0.8;fill:none;stroke:#E57863;stroke-miterlimit:10;}
	.st30{opacity:0.6;fill:none;stroke:#E57863;stroke-miterlimit:10;}
	.st31{opacity:0.4;fill:none;stroke:#E57863;stroke-miterlimit:10;}
	.st32{opacity:0.2;fill:none;stroke:#E57863;stroke-miterlimit:10;}
	.st33{opacity:0.5;fill:none;stroke:#FFFFFF;stroke-linecap:round;stroke-miterlimit:10;}
	.st34{opacity:0.4;fill:none;stroke:#FFFFFF;stroke-linecap:round;stroke-miterlimit:10;}
	.st35{fill:#E37866;}
	.st36{fill:#E2896C;}
	.st37{fill:#E19A74;}
	.st38{fill:#E2AB7A;}
	.st39{fill:#E1BB81;}
	.st40{fill:#E57863;}
	.st41{fill:#E1CD83;stroke:#5A4A42;stroke-width:3;stroke-miterlimit:10;}
	.st42{fill:#56A569;stroke:#37714F;stroke-linecap:round;stroke-miterlimit:10;}
	.st43{opacity:0.3;fill:none;stroke:#FFFFFF;stroke-linecap:round;stroke-miterlimit:10;}
	.st44{fill:none;stroke:#4F994B;stroke-linecap:round;stroke-miterlimit:10;}
	.st45{fill:#EFD8C3;stroke:#583706;stroke-width:3;stroke-linecap:round;stroke-miterlimit:10;}
	.st46{fill:#EFD8C3;}
	.st47{fill:#583706;}
	.st48{fill:none;stroke:#583706;stroke-linecap:round;stroke-miterlimit:10;}
	.st49{opacity:0.3;fill:#FFFFFF;}
	.st50{fill:none;stroke:#37714F;stroke-width:3.9551;stroke-linecap:round;stroke-miterlimit:10;}
	.st51{fill:#8BBF97;}
	.st52{fill:#4F994B;}
	.st53{fill:#81B68A;}
</style>
<g>
	<path class="st0" d="M147.9,202.5l-3.5-47.7l5.9-6.7c8.4-4,23.2-12.5,35.5-26.5c17.5-20,23.1-43.6,23.3-44.6l2.5-10.7L201.2,70
		c-1,0.4-23.5,9-41.1,29c-7.2,8.2-12.3,16.9-15.9,24.5v-12.8c0.1-2.2,0.3-25.9-14.7-53.1C114.6,30.8,90.8,15.6,89.8,15L81,9.4
		l-0.3,10.4c0,1.2-0.6,29.5,14.1,56.7c10.3,19.1,25.5,32.3,33.5,38.4v28.4c-1-2.2-2.2-4.3-3.5-6.5c-9.2-14.9-22.9-22.9-23.5-23.2
		l-9.5-5.5l0.6,11c0,0.7,1.1,16.5,10.2,31.4c5.6,9.1,12.8,15.6,18.2,19.7l7.1,11.4l-2.5,16.7L147.9,202.5z"/>
</g>
<g>
	<path class="st51" d="M131.6,104C131.5,104,131.5,104,131.6,104c-1.2,0-2-1-2-2.1l1.2-32.1c0-1.1,1-2,2-1.9c1.1,0,1.9,1,1.9,2
		l-1.2,32.1C133.5,103.2,132.6,104,131.6,104z"/>
</g>
<g>
	<path class="st51" d="M121.3,85.4C121.3,85.4,121.2,85.4,121.3,85.4c-1.2,0-2-1-2-2.1l1.2-32.1c0-1.1,1-1.9,2-1.9
		c1.1,0,1.9,1,1.9,2l-1.2,32.1C123.2,84.6,122.3,85.4,121.3,85.4z"/>
</g>
<g>
	<path class="st51" d="M111,66.5C111,66.5,111,66.5,111,66.5c-1.2,0-2-1-2-2.1l1.2-31.7c0-1.1,0.9-2,2-1.9c1.1,0,1.9,1,1.9,2
		L113,64.6C113,65.6,112.1,66.5,111,66.5z"/>
</g>
<g>
	<path class="st51" d="M103.4,27l-0.7,18.8c0,1.1-0.9,1.9-2,1.9c0,0,0,0-0.1,0c-1.1,0-1.9-1-1.9-2l0.7-19.2L103.4,27z"/>
</g>
<g>
	<path class="st51" d="M154.5,133c-0.1,0-0.2,0-0.3,0c-1.1-0.2-1.8-1.2-1.7-2.2l4-26.9c0.2-1.1,1.2-1.8,2.2-1.7
		c1.1,0.2,1.8,1.2,1.7,2.2l-4,26.9C156.3,132.3,155.5,133,154.5,133z"/>
</g>
<g>
	<path class="st51" d="M166.6,119.5c-0.1,0-0.2,0-0.3,0c-1.1-0.2-1.8-1.2-1.7-2.2l3.9-25.8c0.2-1.1,1.2-1.8,2.2-1.7
		c1.1,0.2,1.8,1.2,1.7,2.2l-3.9,25.8C168.4,118.8,167.5,119.5,166.6,119.5z"/>
</g>
<g>
	<path class="st51" d="M178.7,105.5c-0.1,0-0.2,0-0.3,0c-1.1-0.2-1.8-1.2-1.7-2.2l3.6-24.3c0.2-1.1,1.2-1.8,2.2-1.7
		c1.1,0.2,1.8,1.2,1.7,2.2l-3.6,24.3C180.5,104.8,179.6,105.5,178.7,105.5z"/>
</g>
<g>
	<circle class="st51" cx="106" cy="131.1" r="2"/>
</g>
<g>
	<path class="st1" d="M131,201.6l3.3-21.3l-8.9-14.3c-4.5-3.2-12-9.6-17.6-18.7c-5.6-9.1-7.9-18.7-8.8-24.1c-0.3-1.8,1.7-3,3.2-2
		c4.5,3.2,12,9.6,17.6,18.7c5.4,8.8,7.7,18.1,8.7,23.6l5.8,9.3v-60.9c-7-5-23.4-18.2-34.3-38.3C89.2,53.6,87.1,32.5,86.7,23.9
		c-0.1-1.7,1.8-2.7,3.2-1.7c6.9,4.9,23.1,17.9,34.3,38.4c14.9,26.9,14,50.2,14,50.2v36l5.7-6.5c2.4-7.6,8.5-23.4,20.6-37.3
		c12.4-14.2,27.7-22.4,34.7-25.6c1.6-0.7,3.3,0.8,2.8,2.4c-2.3,7.5-8.4,23.7-20.8,37.8c-12.4,14.1-27.6,22.3-34.7,25.6l-8.4,9.5
		l3.8,51.3l12,1.3l-3.3-44.9c-0.2-2.3,0.6-4.6,2.1-6.3h0c0.7-0.8,1.6-1.5,2.5-2c9.1-4.6,23-13.2,34.9-26.7
		c18.5-21.2,24.4-46.1,24.6-47.2l3.6-15.9c0.5-2.4-1.8-4.4-4-3.5l-15.3,5.7c-1,0.4-25,9.5-43.5,30.6c-0.5,0.6-1,1.2-1.5,1.8
		c-1.7,2-4.9,1.1-5.3-1.5c-1.7-10.4-5.5-25-14.2-40.6C119,26.6,94,10.6,93,9.9L79.8,1.7c-2-1.3-4.6,0.1-4.7,2.5l-0.4,15.5
		c0,1.3-0.6,31.1,14.8,59.6c9.6,17.8,23.3,30.7,32.1,37.9c0.5,0.4,0.7,0.9,0.7,1.5c0,1.8-2.1,2.6-3.4,1.4
		c-7.5-7.4-14.3-11.4-14.7-11.7l-14.2-8.2c-2.1-1.2-4.7,0.4-4.6,2.8l1,16.3c0,0.7,1.2,18,11.1,34.2c4.3,7,9.5,12.6,14.3,16.9
		c3.2,2.8,6,6,8.2,9.6l0,0c1.2,1.9,1.6,3.7,1.3,5.3l-2.3,15.3L131,201.6z"/>
</g>
<path class="st52" d="M141.8,197l-1.7-41.6c-0.1-3,0.9-5.8,2.9-8.1l49.5-56.2c0.7-0.7,0.8-1.9,0.1-2.6c-0.8-1-2.2-1-3-0.1
	l-47.4,53.8c-0.9,1-2.6,0.4-2.7-0.9l-1.1-27.3c-0.1-2.2-0.7-4.3-1.7-6.2l-37-67.6c-0.5-0.9-1.5-1.3-2.4-1c-1.2,0.4-1.7,1.8-1.1,2.8
	l36.3,66.3c1.2,2.2,1.8,4.8,1.8,7.3l-1.6,50.9c0,1-1.3,1.4-1.9,0.5l-19.3-30.9c-0.6-0.9-1.8-1.2-2.7-0.6c-0.9,0.6-1.2,1.8-0.6,2.7
	l22.3,35.8c1.2,1.9,1.8,4.2,1.7,6.4l-0.5,16.4L141.8,197z"/>
<g>
	<path class="st46" d="M130.3,201.5c-14.1,0.3-24.9,1.1-32.3,3.5c-1.2-2.6-2.8-5.1-4.8-7.2c2.5-2.3,5.2-5.7,8.1-10
		c6-8.8,1.4-14.5-4-17c-5.4-2.6-13-2.5-15.7,7.8c-1.5,5.8-2.4,10.4-2.5,14c-3.5,0.3-7.5,1.7-11.9,4.5C47,209.6,36.7,218.3,41,229.2
		c4.2,10.9,18.8,10.8,41.2,5.9c5.3-1.2,9.1-3,12-5.3c6.6,4.6,17,8.4,30.4,12.3c21.9,6.2,30.4-5,32-16.3S153.1,200.9,130.3,201.5z"/>
	<path class="st20" d="M70.5,207.3c-0.8,0-1.5-0.4-1.8-1.2l-2.9-6.6c-0.4-1,0-2.2,1-2.6c1-0.4,2.2,0,2.6,1l2.9,6.6
		c0.4,1,0,2.2-1,2.6C71,207.3,70.7,207.3,70.5,207.3z"/>
	<path class="st20" d="M61.4,217c-0.8,0-1.5-0.4-1.8-1.2l-4.3-9.9c-0.4-1,0-2.2,1-2.6c1-0.4,2.2,0,2.6,1l4.3,9.9c0.4,1,0,2.2-1,2.6
		C61.9,217,61.6,217,61.4,217z"/>
	<path class="st47" d="M156.6,204.8c-5.7-6.4-14.6-9.6-26.4-9.3c-10.4,0.2-18.1,0.7-24.1,1.6c-1.7,0.2-2.9-1.7-1.9-3.1
		c0.7-0.9,1.4-1.9,2.1-3c4.4-6.5,4.2-11.7,3.3-15c-1.2-4.6-4.7-8.4-9.7-10.7c-5.2-2.4-10.4-2.6-14.8-0.6c-3.1,1.4-7.2,4.7-9.1,12.2
		c-0.4,1.7-0.8,3.2-1.1,4.6c-0.8,3.5-3.2,6.4-6.5,8c-1.4,0.7-2.7,1.4-4.1,2.3c-19.4,12.1-35,23.4-28.7,39.5
		c6.4,16.3,26.8,14.2,48,9.6c2.3-0.5,4.5-1.1,6.4-1.9c2.9-1.1,6.1-1,8.9,0.3c6.1,2.9,13.9,5.6,24.2,8.5c4.7,1.3,9.1,2,13.1,2
		c5.8,0,10.9-1.4,15.1-4.2c6.1-4,10.1-10.7,11.3-19C163.7,218.2,161.6,210.4,156.6,204.8z M90.1,175.5c0.4-0.2,0.9-0.3,1.4-0.3
		c1,0,2.1,0.3,3.3,0.9c1.8,0.8,3,2,3.4,3.1c0.3,1-0.1,2.3-0.9,3.9l-0.7-0.3c-1-0.5-2.2,0-2.6,0.9c-0.5,1,0,2.2,0.9,2.6l0.2,0.1
		c-0.6,0.9-1.2,1.7-1.8,2.5l-2.5-1.2c-1-0.5-2.2,0-2.6,0.9c-0.5,1,0,2.2,0.9,2.6l1.5,0.7c-0.5,0.5-0.9,1-1.4,1.4l-0.6,0.5
		c-1.5,1.3-2.2,1.4-2.5,1.4c0,0-0.1,0-0.4-0.1c-0.3-0.1-0.6-0.6-0.7-1.8l0-0.9c0-2.3,0.5-5.4,1.6-10l3.1,1.5
		c0.3,0.1,0.6,0.2,0.8,0.2c0.7,0,1.5-0.4,1.8-1.1c0.5-1,0-2.2-0.9-2.6l-3.7-1.8C88.2,177.4,89,176,90.1,175.5z M52.9,231
		c0.1,0.4-0.3,0.7-0.7,0.6c-3.6-1-5-2.8-5.7-4.6c-0.7-1.8-0.8-3.6,0.3-5.8c0.4-0.8,1.5-0.7,1.8,0.1l1.9,4.3c0.3,0.7,1.1,1.2,1.8,1.2
		c0.4,0,0.8-0.1,1.2-0.4c0.8-0.5,1-1.6,0.6-2.5l-2.6-5.9c-0.6-1.3-0.4-2.3,0.3-2.8c3.8-3.4,9.7-7.7,18.6-13.3
		c2.4-1.5,4.7-2.5,6.8-3.1c1-0.3,2,0.3,2.4,1.2l4.5,10.2c0.3,0.7,1.1,1.2,1.8,1.2c0.4,0,0.8-0.1,1.2-0.4c0.8-0.5,1-1.6,0.6-2.5
		l-3.6-8.3c-0.5-1.1-0.1-1.6,0.4-1.4c0.4,0.1,0.8,0.3,1.3,0.3c0.5,0.1,0.9,0.3,1.3,0.6l2,2.1c1.4,1.5,2.7,3.4,3.7,5.5l0.1,0.2
		c0.4,0.9,0.1,1.9-0.6,2.5c-2.1,1.7-3.3,3.7-3.7,6.3c-0.3,2.5,0.2,4.8,1.8,7c0.5,0.8,0.4,1.8-0.4,2.3c-2,1.4-4.2,2.2-5.5,2.7
		c-0.8,0.3-1.7-0.1-2-0.9L77.7,217c-0.4-0.9-1.5-1.5-2.5-1.2c-1.1,0.4-1.7,1.6-1.2,2.7l4.1,9.4c0.4,1-0.2,2.1-1.2,2.3
		c-1.7,0.3-3.2,0.6-4.7,0.9c-0.9,0.2-1.8-0.3-2.2-1.2l-2-4.7c-0.4-0.9-1.5-1.5-2.5-1.2c-1.1,0.4-1.7,1.6-1.2,2.7l1.2,2.7
		c0.6,1.3-0.3,2.7-1.7,2.8c-1.7,0.1-3.2,0.2-4.6,0.2c-0.8,0-1.6-0.5-1.9-1.3l-0.6-1.3c-0.4-1-1.6-1.5-2.6-1.2
		c-0.6,0.2-1.1,0.7-1.2,1.4C52.8,230.4,52.8,230.7,52.9,231z M150.8,225.1c-0.4,2.8-1.7,7.9-6,10.7c-0.7,0.4-1.4,0.8-2.2,1.1
		c-1.1,0.4-2.3-0.6-2.2-1.8l2.3-16.2c0.1-1-0.4-2-1.4-2.3c-1.2-0.4-2.4,0.4-2.5,1.6l-2.6,18.2c-0.1,0.8-0.9,1.5-1.7,1.4
		c-2.5-0.1-5.3-0.6-8.2-1.5c-3.3-0.9-6.2-1.8-9-2.7c-0.8-0.2-1.2-1-1.1-1.8L118,219c0.1-1-0.4-2-1.4-2.3c-1.2-0.4-2.4,0.4-2.5,1.6
		l-1.6,11.6c-0.1,1-1.2,1.7-2.2,1.3c-1.8-0.7-3.4-1.3-4.9-2c-0.7-0.3-1-1-0.9-1.7l0.4-3.1c0.1-1-0.4-2-1.4-2.3
		c-1.2-0.4-2.4,0.4-2.5,1.6l-0.1,0.6c-0.2,1.2-1.5,1.8-2.5,1.1c-4.5-2.9-6.5-5.8-6.1-8.6c0.4-2.7,2.7-4.7,6.6-6.1l0.8-0.3
		c0.3-0.1,0.5-0.2,0.8-0.2c1.1-0.3,2.2,0.6,2.1,1.8l0,0c-0.1,0.8,0.2,1.6,0.8,2c0.4,0.2,0.8,0.3,1.1,0.3c1,0,1.8-0.7,2-1.7l0.4-2.6
		c0.1-0.7,0.7-1.3,1.4-1.4c1.7-0.2,3.4-0.4,5.2-0.6c1-0.1,1.9,0.8,1.8,1.8l-0.2,1.4c-0.1,0.9,0.3,1.8,1.1,2.1
		c0.3,0.1,0.6,0.2,0.9,0.2c1,0,1.8-0.7,2-1.7l0.4-3c0.1-0.8,0.7-1.4,1.5-1.4c1.7-0.1,3.4-0.2,5.1-0.2c1,0,1.8,0.9,1.7,1.9l-1.1,7.8
		c-0.1,0.9,0.3,1.8,1.1,2.1c0.3,0.1,0.6,0.2,0.9,0.2c1,0,1.8-0.7,2-1.7l1.3-9c0.1-0.8,0.9-1.4,1.7-1.4c6.5,0.3,11.4,2.1,14.3,5.3
		C151.3,216.7,151.2,222.2,150.8,225.1z"/>
	<circle class="st47" cx="63.6" cy="220.2" r="2"/>
	<circle class="st20" cx="72.7" cy="210.5" r="2"/>
	<circle class="st47" cx="103.6" cy="218.6" r="2"/>
	<path class="st47" d="M126.7,232.4c-0.1,0-0.2,0-0.3,0c-1.1-0.2-1.8-1.2-1.7-2.2l0.7-4.6c0.2-1.1,1.1-1.8,2.2-1.7
		c1.1,0.2,1.8,1.2,1.7,2.2l-0.7,4.6C128.6,231.7,127.7,232.4,126.7,232.4z"/>
</g>
<g>
	<path class="st53" d="M135.9,159.4C135.9,159.4,135.9,159.4,135.9,159.4c-1,0-1.8-0.9-1.8-1.8l0-0.1c0-1,0.8-1.7,1.8-1.7
		c1,0,1.8,0.9,1.7,1.8l0,0.1C137.6,158.6,136.9,159.4,135.9,159.4z"/>
</g>
<g>
	<path class="st53" d="M135.6,190C135.6,190,135.6,190,135.6,190c-1,0-1.8-0.8-1.8-1.8l0.2-25.1c0-1,0.8-1.8,1.8-1.8
		c1,0,1.8,0.8,1.8,1.8l-0.2,25.1C137.3,189.2,136.6,190,135.6,190z"/>
</g>
</svg>
