<svg xmlns="http://www.w3.org/2000/svg" xmlns:xlink="http://www.w3.org/1999/xlink" viewBox="0 0 48 48" version="1.1" width="100" height="100" fill="000000">
<g id="surface1">
<path style=" fill:#2E7D32;" d="M 30 11.5 C 30 14.539063 27.539063 17 24.5 17 C 21.460938 17 19 14.539063 19 11.5 C 19 8.460938 21.460938 6 24.5 6 C 27.539063 6 30 8.460938 30 11.5 Z "/>
<path style=" fill:#2E7D32;" d="M 41 16.5 C 41 18.984375 38.984375 21 36.5 21 C 34.015625 21 32 18.984375 32 16.5 C 32 14.015625 34.015625 12 36.5 12 C 38.984375 12 41 14.015625 41 16.5 Z "/>
<path style=" fill:#388E3C;" d="M 22 14 C 22 16.761719 19.761719 19 17 19 C 14.238281 19 12 16.761719 12 14 C 12 11.238281 14.238281 9 17 9 C 19.761719 9 22 11.238281 22 14 Z "/>
<path style=" fill:#388E3C;" d="M 12 19.5 C 12 21.433594 10.433594 23 8.5 23 C 6.566406 23 5 21.433594 5 19.5 C 5 17.566406 6.566406 16 8.5 16 C 10.433594 16 12 17.566406 12 19.5 Z "/>
<path style=" fill:#388E3C;" d="M 43 19.5 C 43 21.433594 41.433594 23 39.5 23 C 37.566406 23 36 21.433594 36 19.5 C 36 17.566406 37.566406 16 39.5 16 C 41.433594 16 43 17.566406 43 19.5 Z "/>
<path style=" fill:#388E3C;" d="M 35 14 C 35 16.761719 32.761719 19 30 19 C 27.238281 19 25 16.761719 25 14 C 25 11.238281 27.238281 9 30 9 C 32.761719 9 35 11.238281 35 14 Z "/>
<path style=" fill:#4CAF50;" d="M 26 19 C 26 21.761719 23.761719 24 21 24 C 18.238281 24 16 21.761719 16 19 C 16 16.238281 18.238281 14 21 14 C 23.761719 14 26 16.238281 26 19 Z "/>
<path style=" fill:#4CAF50;" d="M 18 17 C 18 19.761719 15.761719 22 13 22 C 10.238281 22 8 19.761719 8 17 C 8 14.238281 10.238281 12 13 12 C 15.761719 12 18 14.238281 18 17 Z "/>
<path style=" fill:#4CAF50;" d="M 38 20 C 38 22.210938 36.210938 24 34 24 C 31.789063 24 30 22.210938 30 20 C 30 17.789063 31.789063 16 34 16 C 36.210938 16 38 17.789063 38 20 Z "/>
<path style=" fill:#9CCC65;" d="M 31 19.5 C 31 21.433594 29.433594 23 27.5 23 C 25.566406 23 24 21.433594 24 19.5 C 24 17.566406 25.566406 16 27.5 16 C 29.433594 16 31 17.566406 31 19.5 Z "/>
<path style=" fill:#9CCC65;" d="M 18 18.5 C 18 19.878906 16.878906 21 15.5 21 C 14.121094 21 13 19.878906 13 18.5 C 13 17.121094 14.121094 16 15.5 16 C 16.878906 16 18 17.121094 18 18.5 Z "/>
<path style=" fill:#795548;" d="M 5 20 L 43 20 L 43 42 L 5 42 Z "/>
<path style=" fill:#4E342E;" d="M 5 26 L 43 26 L 43 28 L 5 28 Z "/>
<path style=" fill:#4E342E;" d="M 5 34 L 43 34 L 43 36 L 5 36 Z "/>
<path style=" fill:#8D6E63;" d="M 9 20 L 13 20 L 13 42 L 9 42 Z "/>
<path style=" fill:#8D6E63;" d="M 35 20 L 39 20 L 39 42 L 35 42 Z "/>
<path style=" fill:#6D4C41;" d="M 7 20 L 9 20 L 9 42 L 7 42 Z "/>
<path style=" fill:#6D4C41;" d="M 33 20 L 35 20 L 35 42 L 33 42 Z "/>
<path style=" fill:#3E2723;" d="M 7 26 L 9 26 L 9 28 L 7 28 Z "/>
<path style=" fill:#3E2723;" d="M 7 34 L 9 34 L 9 36 L 7 36 Z "/>
<path style=" fill:#3E2723;" d="M 33 26 L 35 26 L 35 28 L 33 28 Z "/>
<path style=" fill:#3E2723;" d="M 33 34 L 35 34 L 35 36 L 33 36 Z "/>
</g>
</svg>