<svg xmlns="http://www.w3.org/2000/svg" viewBox="0 0 48 48" width="144" height="144"><path fill="#3e2723" d="M32 34L16 34 15 18 33 18z"/><path fill="#3f51b5" d="M29,33L29,33l-5,1l-5-1c0,0-11,1.986-11,13h32C40,35.025,29,33,29,33"/><path fill="#ff9800" d="M24 39L19 33 19 27 29 27 29 33z"/><path fill="#4caf50" d="M30,33.254V42H18v-8.748c-0.945,0.28-2.445,0.823-4,1.791V42v2v2h20v-2v-2v-6.941C32.444,34.086,30.944,33.536,30,33.254z"/><path fill="#1b5e20" d="M15,44c0-0.553,0.447-1,1-1c0.552,0,1,0.447,1,1s-0.448,1-1,1C15.447,45,15,44.553,15,44z M32,45c0.552,0,1-0.447,1-1s-0.448-1-1-1c-0.553,0-1,0.447-1,1S31.447,45,32,45z"/><path fill="#ce8b05" d="M24 13A17 5.5 0 1 0 24 24A17 5.5 0 1 0 24 13Z"/><path fill="#fbc02d" d="M28,3c-2,0-2,2-4,2s-2-2-4-2s-6,6.029-6,11v0.059C16.808,13.396,20.257,13,24,13c3.742,0,7.191,0.396,10,1.059V14C34,9.029,30,3,28,3z"/><path fill="#ffb74d" d="M24,15c-4.716,0-7.609,0.906-9,1.499V23c0,4.971,4.028,9,9,9c4.971,0,9-4.029,9-9v-6.501C31.609,15.906,28.716,15,24,15z"/><path fill="#795548" d="M24 15c-7 0-10 2-10 2l0 0-3.747 4.731C9.981 24.408 10 26.766 10 28l6 6V21l10.051-5.935C25.407 15.026 24.73 15 24 15zM37.747 21.731L34 17c0 0-1.551-1.024-4.998-1.606L32 19v15l6-6C38 26.766 38.019 24.408 37.747 21.731z"/><path fill="#ed9f21" d="M14.422,11C14.158,12.004,14,13.023,14,14c0,0,4-1,10-1s10,1,10,1c0-0.977-0.159-1.996-0.423-3c0,0-5.577-1-9.577-1S14.422,11,14.422,11z"/><path fill="#784719" d="M27,23c0-0.551,0.448-1,1-1s1,0.449,1,1s-0.448,1-1,1S27,23.551,27,23 M19,23c0,0.551,0.448,1,1,1s1-0.449,1-1s-0.448-1-1-1S19,22.449,19,23"/></svg>