<svg xmlns="http://www.w3.org/2000/svg" viewBox="0 0 48 48" width="48" height="48"><path fill="#9fa8da" d="M44,29H30V18.029l7-4.546l7,4.546V29z"/><path fill="#0d47a1" d="M39,24h-4v-4h4V24z"/><path fill="#b71c1c" d="M45 17.56L45 21 37 14.44 29 21 29 17.56 37 11z"/><path fill="#9fa8da" d="M18,29H4V18.029l7-4.546l7,4.546V29z"/><path fill="#0d47a1" d="M13,20H9v4h4V20z"/><path fill="#b71c1c" d="M19 17.56L19 21 11 14.44 3 21 3 17.56 11 11z"/><path fill="#e8eaf6" d="M33,31H15V15.571l9-6l9,6V31z"/><path fill="#1565c0" d="M27,18h-6v6h6V18z"/><path fill="#9fa8da" d="M33 18H34V20H33zM14 18H15V20H14z"/><path fill="#d32f2f" d="M34 14.2L34 19 24 10.8 14 19 14 14.2 24 6z"/><path fill="#8bc34a" d="M34.5,27C22.793,27,11.754,27.535,2,28.477V43h44V27.176C42.255,27.062,38.416,27,34.5,27z"/><path fill="#689f38" d="M18.688 27.338C11.93 28.534 6.153 30.466 2 32.891v6.101c6.106-5.784 13.729-9.952 22.202-11.846C22.34 27.197 20.501 27.26 18.688 27.338zM39.379 43c1.637-8.041 3.51-13.562 5.523-15.849-.35-.01-.706-.016-1.057-.024-3.131 2.26-6.019 7.818-8.489 15.873H39.379zM26.579 43c4.07-8.157 8.84-13.753 14.012-15.948-.455-.007-.917-.009-1.374-.015C32.511 29.231 26.39 34.864 21.325 43H26.579zM12.608 43c6.085-8.142 13.693-13.821 22.115-15.998C34.648 27.002 34.575 27 34.5 27c-.556 0-1.103.007-1.656.009C22.392 29.2 13.026 34.899 5.728 43H12.608z"/></svg>