<?xml version="1.0" encoding="utf-8"?>
<!-- Generator: Adobe Illustrator 20.0.0, SVG Export Plug-In . SVG Version: 6.00 Build 0)  -->
<svg version="1.1" id="Layer_1" xmlns="http://www.w3.org/2000/svg" xmlns:xlink="http://www.w3.org/1999/xlink" x="0px" y="0px"
	 viewBox="0 0 64 64" style="enable-background:new 0 0 64 64;" xml:space="preserve">
<style type="text/css">
	.st0{fill:#EEE1C2;}
	.st1{fill:#7F5B4C;}
	.st2{fill:#FFFFFF;}
	.st3{fill:#F8C899;}
</style>
<g>
	<g>
		<path class="st0" d="M27.4,12.3c-0.3,4.2-3.4,7.6-7.3,9.2C8.7,26.3,3.6,33.4,3.6,42c0,11,12.7,17,28.4,17s28.4-6,28.4-17
			c0-9.1-4.2-15.1-17.9-20.8c-3.3-1.4-6-4.1-6.4-7.8l-1-11.9h-5.6l-0.6,3.6L27.4,12.3z"/>
	</g>
	<path class="st1" d="M61.9,42c0-10.3-5.3-16.6-18.8-22.2c-1.5-0.6-5-2.5-5.4-6.5L36.5,0.6C36.5,0.3,36.3,0,36,0h-6.8
		c-0.4,0-0.7,0.3-0.7,0.7V4c0,0.3-0.2,0.5-0.5,0.5h-0.6c-0.4,0-0.7,0.3-0.8,0.7L26,12.1c-0.3,4-3.5,6.7-6.4,7.9
		C8,25,2.1,32.3,2.1,42c0,9.4,8.7,16.2,22.3,18l-0.6,2.3c-0.1,0.3,0.1,0.5,0.4,0.6h0.1c0.2,0,0.4-0.1,0.5-0.4l0.6-2.4
		c0.3,0,0.6,0.1,0.9,0.1l-0.5,2.6c-0.1,0.3,0.1,0.5,0.4,0.6h0.1c0.2,0,0.4-0.2,0.5-0.4l0.5-2.7c0.3,0,0.5,0,0.8,0.1l-0.3,2.8
		c0,0.3,0.2,0.5,0.4,0.6c0,0,0,0,0.1,0c0.2,0,0.5-0.2,0.5-0.4l0.4-2.8c0.3,0,0.6,0,0.8,0l-0.2,2.9c0,0.3,0.2,0.5,0.5,0.5
		s0.5-0.2,0.5-0.5l0.2-2.9c0.2,0,0.4,0,0.7,0v2.9c0,0.3,0.2,0.5,0.5,0.5s0.5-0.2,0.5-0.5v-2.9c0.3,0,0.6,0,0.8,0l0.2,2.9
		c0,0.3,0.2,0.5,0.5,0.5s0.5-0.3,0.5-0.5l-0.2-2.9c0.2,0,0.5,0,0.7,0l0.4,2.8c0,0.3,0.2,0.4,0.5,0.4c0,0,0,0,0.1,0
		c0.3,0,0.5-0.3,0.4-0.6l-0.3-2.8c0.3,0,0.6,0,0.9-0.1l0.5,2.7c0,0.2,0.3,0.4,0.5,0.4h0.1c0.3-0.1,0.4-0.3,0.4-0.6L38,60.2
		c0.3,0,0.5-0.1,0.8-0.1l0.6,2.5c0.1,0.2,0.3,0.4,0.5,0.4H40c0.3-0.1,0.4-0.3,0.4-0.6L39.8,60C53.3,58.2,61.9,51.4,61.9,42z M5.1,42
		c0-8.3,5.2-14.8,15.6-19.1c4.7-2,7.9-6,8.2-10.5l0.4-4.2c0-0.4,0.4-0.7,0.8-0.7h0.6c0,1.9,0,5.2-0.5,10.1c0,0-0.7,5.7-6.5,11.9
		c-2.7,2.9-5.7,7.5-5.3,13.4c0.4,4.8,3,9.4,7.9,13.8c0.2,0.2,0.1,0.5-0.2,0.5C14.9,56,5.1,51.1,5.1,42z M32.3,58
		c-0.8,0-1.8-0.2-2.7-0.4c-0.6-0.1-1.3-0.4-1.8-0.8c-5.3-4.4-8.1-9.1-8.5-14c-0.5-5.5,2.5-9.9,5-12.6c6-6.5,6.7-12.2,6.7-12.5
		c0.5-5.7,0.5-9.2,0.4-10.9V3.7c0-0.4,0.3-0.7,0.7-0.7h0.1c-0.2,2.8-0.7,15,5.3,24.6c8.3,13.3,4.1,23.2-0.2,28.7
		c-0.5,0.7-1.3,1-2.1,1.2C34.4,57.8,33.5,58,32.3,58z M38.6,57.1c-0.2,0-0.4-0.2-0.2-0.4c6.6-8.6,6.7-19.2,0.2-29.7
		c-5.9-9.3-5.3-21.4-5.1-24c0.2,0,0.4,0.2,0.5,0.5l0.9,10c0.4,3.9,3.1,7.3,7.3,9c14.1,5.8,17,11.8,17,19.4
		C58.9,50.9,49.5,55.7,38.6,57.1z"/>
	<g>
		<g>
			<path class="st2" d="M22.5,42.1c-0.3,0-0.5-0.2-0.5-0.5c0-3.3,1.5-6.6,4.3-9.4c1.1-1.1,2.2-2.3,3.1-3.5c0.2-0.2,0.5-0.3,0.7-0.1
				c0.2,0.2,0.3,0.5,0.1,0.7c-0.9,1.2-2,2.4-3.2,3.6c-2.6,2.6-4,5.6-4,8.6C23,41.9,22.8,42.1,22.5,42.1L22.5,42.1z"/>
		</g>
		<g>
			<path class="st2" d="M9,42.9c-0.3,0-0.5-0.2-0.5-0.5c-0.3-6.2,2.7-11.1,9.4-15.2c0.2-0.1,0.5-0.1,0.7,0.2
				c0.1,0.2,0.1,0.5-0.2,0.7c-6.3,3.9-9.3,8.6-8.9,14.3C9.6,42.6,9.3,42.8,9,42.9C9.1,42.9,9,42.9,9,42.9z"/>
		</g>
		<g>
			<path class="st2" d="M47.3,40.7c-0.2,0-0.5-0.2-0.5-0.4c-0.5-3.7-1.9-7.5-4.3-11.2c-0.2-0.2-0.1-0.5,0.1-0.7
				c0.2-0.1,0.5-0.1,0.7,0.1c2.4,3.8,4,7.8,4.5,11.6C47.8,40.4,47.6,40.6,47.3,40.7L47.3,40.7z"/>
		</g>
		<g>
			<circle class="st2" cx="41.1" cy="26.3" r="0.5"/>
		</g>
		<g>
			<circle class="st2" cx="21.6" cy="25.8" r="0.5"/>
		</g>
		<g>
			<circle class="st2" cx="31.5" cy="26.6" r="0.5"/>
		</g>
	</g>
	<g>
		<g>
			<path class="st3" d="M53.9,43L53.9,43c-0.3,0-0.5-0.3-0.5-0.5c0.3-4.8-0.7-8.7-7-13c-0.2-0.2-0.3-0.5-0.1-0.7s0.5-0.3,0.7-0.1
				c6.6,4.6,7.8,8.7,7.4,13.8C54.4,42.8,54.1,43,53.9,43z"/>
		</g>
		<g>
			<path class="st3" d="M14.7,47c-0.2,0-0.4-0.1-0.5-0.3C10.5,37.1,17.9,31,18,30.9c0.2-0.2,0.5-0.1,0.7,0.1s0.1,0.5-0.1,0.7
				c-0.3,0.2-6.9,5.7-3.4,14.6c0.1,0.3,0,0.5-0.3,0.6C14.8,47,14.7,47,14.7,47z"/>
		</g>
		<g>
			<path class="st3" d="M37.7,45.4C37.7,45.4,37.6,45.4,37.7,45.4c-0.3,0-0.5-0.3-0.5-0.6c1.3-9-3.2-13.4-3.3-13.5
				c-0.2-0.2-0.2-0.5,0-0.7s0.5-0.2,0.7,0s5,4.8,3.6,14.4C38.1,45.3,37.9,45.4,37.7,45.4z"/>
		</g>
		<g>
			<path class="st3" d="M29.9,50.8c-0.2,0-0.4-0.1-0.5-0.3c-4-9.9-0.1-15,0.1-15.2s0.5-0.3,0.7-0.1s0.3,0.5,0.1,0.7
				c0,0-3.7,4.9,0.1,14.2c0.1,0.3,0,0.5-0.3,0.7C30,50.7,29.9,50.8,29.9,50.8z"/>
		</g>
		<g>
			<path class="st3" d="M46.2,52.9c-0.1,0-0.3-0.1-0.4-0.2c-0.2-0.2-0.2-0.5,0-0.7c5.8-5.4,4.2-12.1,4.2-12.2
				c-0.1-0.3,0.1-0.5,0.4-0.6c0.3-0.1,0.5,0.1,0.6,0.4c0.1,0.3,1.7,7.3-4.5,13.2C46.4,52.9,46.3,52.9,46.2,52.9z"/>
		</g>
		<g>
			<path class="st3" d="M33.4,55.1c-0.3,0-0.5-0.2-0.5-0.5V43.9c0-0.3,0.2-0.5,0.5-0.5s0.5,0.2,0.5,0.5v10.7
				C33.9,54.9,33.7,55.1,33.4,55.1z"/>
		</g>
		<g>
			<path class="st3" d="M17.3,52.8L17.3,52.8c-3.8-0.7-6-4-6.1-4.2s-0.1-0.5,0.2-0.7c0.2-0.1,0.5-0.1,0.7,0.2c0,0,2,3.1,5.4,3.7
				c0.3,0,0.5,0.3,0.4,0.6C17.8,52.6,17.6,52.8,17.3,52.8z"/>
		</g>
	</g>
</g>
</svg>
