<?xml version="1.0" encoding="utf-8"?>
<!-- Generator: Adobe Illustrator 20.1.0, SVG Export Plug-In . SVG Version: 6.00 Build 0)  -->
<svg version="1.1" id="Layer_1" xmlns="http://www.w3.org/2000/svg" xmlns:xlink="http://www.w3.org/1999/xlink" x="0px" y="0px"
	 viewBox="0 0 500 500" style="enable-background:new 0 0 500 500;" xml:space="preserve">
<style type="text/css">
	.st0{fill:#FDE270;}
	.st1{fill:#7D692F;}
	.st2{fill:#595C13;}
	.st3{fill:#BF793A;stroke:#590000;stroke-width:4;stroke-miterlimit:10;}
	.st4{fill:#528B1C;stroke:#123C08;stroke-width:3;stroke-miterlimit:10;}
	.st5{fill:#BF793A;stroke:#590000;stroke-width:4;stroke-linecap:round;stroke-miterlimit:10;}
	.st6{fill:#FBDE74;}
	.st7{fill:#F8D96C;}
	.st8{fill:#F5D464;}
	.st9{fill:#F2CF5C;}
	.st10{fill:#EFCA54;}
	.st11{fill:#D50000;}
	.st12{fill:#ED3A00;}
	.st13{fill:#D50000;stroke:#590000;stroke-width:6;stroke-miterlimit:10;}
	.st14{fill:#487E41;}
	.st15{fill:#123C08;}
	.st16{fill:#D50000;stroke:#590000;stroke-width:3;stroke-miterlimit:10;}
	.st17{fill:none;stroke:#FFFFFF;stroke-linecap:round;stroke-miterlimit:10;}
	.st18{fill:#FFFFFF;}
	.st19{fill:#7FC731;stroke:#246901;stroke-width:3;stroke-miterlimit:10;}
	.st20{fill:#7FC731;stroke:#246901;stroke-linecap:round;stroke-miterlimit:10;}
	.st21{fill:none;stroke:#246901;stroke-linecap:round;stroke-miterlimit:10;}
	.st22{fill:#292F37;}
	.st23{fill:#577B1D;}
	.st24{fill:#AD2F26;}
	.st25{fill:#264415;}
	.st26{fill:#539243;}
	.st27{fill:#7F415B;}
	.st28{fill:#246901;}
	.st29{fill:#8A1100;}
	.st30{fill:#5EC865;}
	.st31{fill:#007500;}
	.st32{fill:#FF3D50;}
	.st33{fill:none;stroke:#246901;stroke-linecap:round;stroke-linejoin:round;stroke-miterlimit:10;}
	.st34{fill:none;stroke:#FFFFFF;stroke-linecap:round;stroke-linejoin:round;stroke-miterlimit:10;}
	.st35{fill:#FF3D50;stroke:#CC3248;stroke-miterlimit:10;}
	.st36{fill:none;stroke:#007500;stroke-linecap:round;stroke-linejoin:round;stroke-miterlimit:10;}
	.st37{fill:none;stroke:#264415;stroke-linecap:round;stroke-linejoin:round;stroke-miterlimit:10;}
	.st38{fill:#528B1C;}
	.st39{fill:#20420B;}
	.st40{fill:#314773;}
	.st41{fill:#7389B5;}
	.st42{fill:#528B1C;stroke:#20420B;stroke-linecap:round;stroke-linejoin:round;stroke-miterlimit:10;}
	.st43{fill:none;stroke:#314773;stroke-linejoin:round;stroke-miterlimit:10;}
	.st44{fill:#00FFFF;}
	.st45{fill:#22B473;stroke:#184C28;stroke-width:3;stroke-linecap:round;stroke-linejoin:round;stroke-miterlimit:10;}
	.st46{fill:#2E368E;}
	.st47{fill:#9A0D90;}
	.st48{fill:#161542;}
	.st49{fill:#251749;}
	.st50{fill:none;stroke:#FBA954;stroke-linecap:round;stroke-linejoin:round;stroke-miterlimit:10;}
	.st51{fill:#61303F;}
	.st52{fill:#EEB683;}
	.st53{fill:#1B631A;}
	.st54{fill:#FBA954;}
	.st55{fill:#ECD8A1;}
	.st56{fill:#DC0900;stroke:#184C28;stroke-width:1.7008;stroke-miterlimit:10;}
	.st57{fill:none;stroke:#007500;stroke-width:2;stroke-linecap:round;stroke-miterlimit:10;}
	.st58{fill:#F10A00;stroke:#8A1100;stroke-miterlimit:10;}
	.st59{fill:none;stroke:#007500;stroke-width:3;stroke-linecap:round;stroke-miterlimit:10;}
	.st60{fill:#F10A00;}
	.st61{fill:#7389B5;stroke:#314773;stroke-miterlimit:10;}
	.st62{fill:none;stroke:#314773;stroke-miterlimit:10;}
	.st63{opacity:0.4;fill:#314773;}
	.st64{fill:#7389B5;stroke:#314773;stroke-linecap:round;stroke-linejoin:round;stroke-miterlimit:10;}
	.st65{fill:#8BA3CD;stroke:#314773;stroke-miterlimit:10;}
	.st66{fill:#5A7098;}
	.st67{fill:none;stroke:#FFFFFF;stroke-width:8;stroke-linecap:round;stroke-linejoin:round;stroke-miterlimit:10;}
	.st68{fill:#FF3D50;stroke:#AD2F26;stroke-miterlimit:10;}
	.st69{fill:#FF3D50;stroke:#CC3248;stroke-width:1.058;stroke-miterlimit:10;}
	.st70{fill:#539243;stroke:#246901;stroke-width:3;stroke-linejoin:round;stroke-miterlimit:10;}
	.st71{clip-path:url(#SVGID_2_);}
	.st72{fill:url(#SVGID_3_);}
	.st73{fill:none;stroke:#CC652B;stroke-width:1.4939;stroke-linecap:round;stroke-miterlimit:10;}
	.st74{fill:none;stroke:#CC652B;stroke-width:0.8407;stroke-miterlimit:10;}
	.st75{fill:#F9C153;}
	.st76{fill:#FC7351;stroke:#CC652B;stroke-width:3;stroke-miterlimit:10;}
	.st77{fill:none;stroke:#994A22;stroke-linecap:round;stroke-miterlimit:10;}
	.st78{fill:none;stroke:#F9C153;stroke-width:3;stroke-linecap:round;stroke-miterlimit:10;}
	.st79{opacity:0.8;fill:none;stroke:#F9C153;stroke-width:3;stroke-linecap:round;stroke-miterlimit:10;}
	.st80{opacity:0.6;fill:none;stroke:#F9C153;stroke-width:3;stroke-linecap:round;stroke-miterlimit:10;}
	.st81{opacity:0.4;fill:none;stroke:#F9C153;stroke-width:3;stroke-linecap:round;stroke-miterlimit:10;}
	.st82{opacity:0.2;fill:none;stroke:#F9C153;stroke-width:3;stroke-linecap:round;stroke-miterlimit:10;}
	.st83{fill:none;stroke:#994A22;stroke-width:3;stroke-miterlimit:10;}
	.st84{fill:#7FC731;stroke:#246901;stroke-width:3;stroke-linecap:round;stroke-linejoin:round;stroke-miterlimit:10;}
	.st85{fill:none;stroke:#ADD980;stroke-linecap:round;stroke-linejoin:round;stroke-miterlimit:10;}
	.st86{fill:#ADD980;}
	.st87{fill:#FC7351;}
	.st88{fill:#F8B05C;}
	.st89{fill:#F8A15A;}
	.st90{fill:#F99259;}
	.st91{fill:#F98357;}
	.st92{fill:#994A22;}
	.st93{fill:#7FC731;}
	.st94{fill:#FDE3DD;}
	.st95{fill:#BD0000;}
	.st96{fill:#E19D36;}
	.st97{fill:#DA842E;}
	.st98{fill:#D46A28;}
	.st99{fill:#CE4F22;}
	.st100{fill:#C52E19;}
	.st101{fill:#661F28;}
	.st102{fill:#83C300;}
	.st103{fill:#486600;}
	.st104{fill:#E6F2CD;}
	.st105{fill:#F8B413;stroke:#7A4100;stroke-width:6;stroke-miterlimit:10;}
	.st106{fill:#487E41;stroke:#123C08;stroke-width:3;stroke-linecap:round;stroke-miterlimit:10;}
	.st107{opacity:0.8;fill:none;stroke:#FFFFFF;stroke-linecap:round;stroke-miterlimit:10;}
	.st108{fill:none;stroke:#123C08;stroke-linecap:round;stroke-miterlimit:10;}
	.st109{opacity:0.8;fill:#FFFFFF;}
	.st110{fill:#F8B413;stroke:#7A4100;stroke-miterlimit:10;}
	.st111{opacity:0.7;fill:none;stroke:#FFFFFF;stroke-linecap:round;stroke-miterlimit:10;}
	.st112{fill:none;stroke:#7A4100;stroke-linecap:round;stroke-miterlimit:10;}
	.st113{opacity:0.7;fill:none;stroke:#AD2F26;stroke-width:3;stroke-linecap:round;stroke-miterlimit:10;}
	.st114{opacity:0.5;fill:none;stroke:#AD2F26;stroke-width:3;stroke-linecap:round;stroke-miterlimit:10;}
	.st115{opacity:0.3;fill:none;stroke:#AD2F26;stroke-width:3;stroke-linecap:round;stroke-miterlimit:10;}
	.st116{opacity:0.1;fill:none;stroke:#AD2F26;stroke-width:3;stroke-linecap:round;stroke-miterlimit:10;}
	.st117{opacity:0.7;fill:#FFFFFF;}
	.st118{fill:#DAE5D9;}
	.st119{fill:#F8B413;}
	.st120{fill:#FCE8BB;}
	.st121{fill:#C25729;}
	.st122{fill:#D1722A;}
	.st123{fill:#E08B2C;}
	.st124{fill:#EFA62E;}
	.st125{fill:#7A4100;}
	.st126{fill:none;stroke:#487E41;stroke-width:2;stroke-miterlimit:10;}
	.st127{fill:#D50000;stroke:#590000;stroke-miterlimit:10;}
	.st128{fill:#6BB25F;}
	.st129{fill:#590000;}
	.st130{fill:#7F0603;}
	.st131{fill:#BF793A;stroke:#590000;stroke-width:3;stroke-miterlimit:10;}
	.st132{fill:none;stroke:#590000;stroke-linecap:round;stroke-miterlimit:10;}
	.st133{fill:none;stroke:#590000;stroke-miterlimit:10;}
	.st134{fill:#BF793A;stroke:#590000;stroke-width:3;stroke-linecap:round;stroke-miterlimit:10;}
	.st135{fill:#6EB226;}
	.st136{fill:none;stroke:#123C08;stroke-width:3;stroke-miterlimit:10;}
	.st137{fill:#BF793A;}
	.st138{fill:#970231;stroke:#590000;stroke-width:3;stroke-miterlimit:10;}
	.st139{fill:#AF96CB;}
	.st140{fill:#9C325F;}
	.st141{opacity:0.5;fill:#AF96CB;}
	.st142{fill:none;stroke:#590000;stroke-width:3;stroke-miterlimit:10;}
	.st143{fill:#D23841;}
	.st144{fill:none;stroke:#9C325F;stroke-miterlimit:10;}
	.st145{fill:#5A9800;stroke:#225A00;stroke-width:3;stroke-linecap:round;stroke-linejoin:round;stroke-miterlimit:10;}
	.st146{opacity:0.4;fill:none;stroke:#FFFFFF;stroke-linecap:round;stroke-linejoin:round;stroke-miterlimit:10;}
	.st147{fill:none;stroke:#225A00;stroke-linecap:round;stroke-linejoin:round;stroke-miterlimit:10;}
	.st148{opacity:0.4;fill:#FFFFFF;}
	.st149{fill:#970231;}
	.st150{opacity:0.5;}
	.st151{fill:#DFB3C1;}
	.st152{fill:#5A9800;}
	.st153{fill:#9DC06B;}
	.st154{fill:#225A00;}
	.st155{fill:none;stroke:#9DC06B;stroke-width:3;stroke-miterlimit:10;}
	.st156{fill:none;stroke:#9DC06B;stroke-linecap:round;stroke-miterlimit:10;}
	.st157{fill:none;stroke:#9DC06B;stroke-width:3;stroke-linecap:round;stroke-linejoin:round;stroke-miterlimit:10;}
	.st158{fill:#FFFFFF;stroke:#9DC06B;stroke-linecap:round;stroke-miterlimit:10;}
	.st159{fill:#00FFFF;stroke:#000000;stroke-width:3;stroke-miterlimit:10;}
	.st160{fill:none;stroke:#000000;stroke-miterlimit:10;}
	.st161{fill:#B8B54B;stroke:#595C13;stroke-width:3;stroke-miterlimit:10;}
	.st162{fill:#FDE270;stroke:#595C13;stroke-linecap:round;stroke-miterlimit:10;}
	.st163{fill:#B26A39;}
	.st164{fill:#B8B54B;}
	.st165{fill:none;stroke:#595C13;stroke-linecap:round;stroke-miterlimit:10;}
	.st166{fill:#D1A362;}
	.st167{clip-path:url(#SVGID_5_);}
	.st168{clip-path:url(#SVGID_9_);}
	.st169{clip-path:url(#SVGID_10_);}
	.st170{clip-path:url(#SVGID_11_);}
	.st171{fill:#D0C785;}
	.st172{clip-path:url(#SVGID_13_);}
	.st173{clip-path:url(#SVGID_16_);}
	.st174{clip-path:url(#SVGID_17_);}
	.st175{clip-path:url(#SVGID_19_);}
	.st176{clip-path:url(#SVGID_23_);}
	.st177{clip-path:url(#SVGID_24_);}
	.st178{clip-path:url(#SVGID_25_);}
	.st179{clip-path:url(#SVGID_27_);}
	.st180{clip-path:url(#SVGID_30_);}
	.st181{clip-path:url(#SVGID_31_);}
	.st182{clip-path:url(#SVGID_33_);}
	.st183{clip-path:url(#SVGID_35_);}
	.st184{clip-path:url(#SVGID_37_);}
	.st185{fill:#B28E56;}
	.st186{fill:#885C0B;}
	.st187{fill:#737C00;}
	.st188{fill:none;stroke:#595C13;stroke-width:3;stroke-miterlimit:10;}
	.st189{fill:#C7493F;}
	.st190{fill:#992623;}
	.st191{fill:#521D0C;}
	.st192{fill:#E73123;}
	.st193{fill:#F5BA6B;}
	.st194{fill:#EF915B;}
	.st195{fill:#8E1A00;}
	.st196{fill:#442105;}
	.st197{fill:#B47E22;}
	.st198{fill:#BE4228;}
	.st199{fill:#D3954B;}
	.st200{fill:#CD8143;}
	.st201{fill:#C76C3C;}
	.st202{fill:#C25735;}
	.st203{fill:#7F2A1C;}
	.st204{fill:#A7BB41;}
	.st205{fill:#677F08;}
	.st206{fill:#C9DC85;}
	.st207{fill:#E1CA56;}
	.st208{fill:#E1CA56;stroke:#7D692F;stroke-width:3;stroke-miterlimit:10;}
	.st209{fill:#CC8F66;}
	.st210{fill:none;stroke:#7D692F;stroke-linecap:round;stroke-miterlimit:10;}
	.st211{fill:#9F9A2F;}
	.st212{fill:#CC2825;}
	.st213{fill:#C37B2C;}
	.st214{fill:#7F0701;}
	.st215{fill:#75AD45;}
	.st216{fill:#5A7099;}
</style>
<g id="Layer_1_6_">
	<path class="st192" d="M456.1,250.7c0,149.2-67.1,234-207.3,234S41.5,361.3,41.5,250.7S108.6,84.2,248.8,84.2
		S456.1,140.1,456.1,250.7z"/>
	<path class="st18" d="M202,166.7c-0.1,0-0.3,0-0.4,0c-15.9-1.7-31.6-4.3-46.7-7.7c-2.1-0.5-3.4-2.5-2.9-4.6s2.5-3.4,4.6-2.9
		c14.9,3.3,30.3,5.8,45.9,7.5c2.1,0.2,3.7,2.1,3.4,4.3C205.6,165.2,203.9,166.7,202,166.7z"/>
	<path class="st18" d="M249.9,169.2c-9.6,0-19.3-0.3-28.8-0.9c-2.1-0.1-3.8-2-3.6-4.1c0.1-2.1,2-3.8,4.1-3.6
		c9.3,0.6,18.8,0.9,28.3,0.9c2.1,0,3.9,1.7,3.9,3.9S252.1,169.2,249.9,169.2z"/>
	<circle class="st18" cx="136.9" cy="150.7" r="4.2"/>
	<path class="st195" d="M248.8,72.7c-145.2,0-218.9,59.9-218.9,178.1c0,60.9,19.5,121.3,53.5,165.6c40.2,52.4,97.4,80.1,165.4,80.1
		c72.3,0,127.8-21.9,165-65.1c35.7-41.5,53.9-102.3,53.9-180.5C467.7,132.6,394,72.7,248.8,72.7z M294.3,464.2
		c5.9-4.8,11.6-10.6,16.9-17.4c1.1-1.4,1.2-3.5,0-4.9c-1.7-1.9-4.5-1.8-6,0.1c-16.3,20.8-35.2,31.3-56.4,31.3
		c-21.1,0-40.1-10.5-56.4-31.3c-1.3-1.7-3.7-2-5.4-0.7s-2,3.7-0.7,5.4c4.5,5.7,9.1,10.7,14,15c2.3,2,0.3,5.8-2.7,5
		c-95-25.4-144.5-121.2-144.5-216c0-52.4,15.3-90.2,46.8-115.7c32.1-26,82.2-39.2,148.9-39.2S365.6,109,397.7,135
		c31.5,25.5,46.8,63.4,46.8,115.7c0,128.2-49.7,201.5-147.9,218.6C293.7,469.8,292,466.1,294.3,464.2z"/>
	<path class="st196" d="M265.8,72.9c2.7,0.1,5.3,0.2,8,0.3c-7.6-32.3-27.4-55.8-57.5-67.8c-2.8-1.1-5.7-1.7-8.6-1.7
		c-5.4,0-10.9,1.9-15.3,5.7c-3.3,2.9-5.7,6.7-7,10.9l-7.5,23.5c-1.9,6-1.5,12.6,1.5,18.1c3.2,5.8,8.5,9.9,15,11.4
		c0.5,0.1,2.4,0.7,5.1,1.9c4.9-0.6,10-1,15.1-1.4c6.1-0.4,12,2.4,15.3,7.6c5,7.9,8.3,18.4,7.7,32.1c2.5,0.1,5.1,0.2,7.7,0.3
		c0.8-18.3-4.6-31.5-12-41l0,0c-0.1-0.2-0.3-0.3-0.4-0.5c-0.1-0.1-0.1-0.1-0.2-0.2c-0.4-0.6-0.9-1.1-1.4-1.6l-0.1-0.1l0,0
		c-8.7-10-19.4-15.3-25.8-17.8c-3-1.2-4.6-4.5-3.6-7.7l3.6-11.3c1.2-3.7,5.3-5.4,8.7-3.6c19.7,10,29.9,25.9,35,41.5l0,0
		c5.6,17.1,5,34,4.1,42.4c2.6-0.1,5.2-0.2,7.8-0.3c0.7-7.4,1-19.6-1.6-33.1v-0.1C258.7,76.5,261.8,72.8,265.8,72.9z"/>
	<g>
		<path class="st197" d="M245.2,113.9c-0.7,0-1.4,0-2.2-0.1C243.8,113.9,244.5,113.9,245.2,113.9z"/>
		<path class="st197" d="M253.3,113.9c1.6-16.3,2.3-63.9-40.6-84.6c-2.7-1.3-5.9,0.1-6.8,2.9l-4.5,14c-0.8,2.5,0.5,5.1,3,6.1
			c11.8,4.4,42.8,19.9,40.9,61.7c1.2,0,2.3,0,3.5,0c2.8,0,5.6-0.1,8.4-0.2l0,0C255.9,113.8,254.6,113.9,253.3,113.9z"/>
	</g>
	<path class="st195" d="M248.8,117.8c-16.4,0-32.3-1.9-44.8-5.3c-2.1-0.6-3.3-2.7-2.7-4.8c0.6-2.1,2.7-3.3,4.8-2.7
		c11.8,3.2,27,5,42.7,5c15.4,0,30.3-1.7,42.1-4.8c2.1-0.6,4.2,0.7,4.7,2.7c0.6,2.1-0.7,4.2-2.7,4.7
		C280.5,116,264.9,117.8,248.8,117.8z"/>
</g>
</svg>
