<?xml version="1.0" encoding="utf-8"?>
<!-- Generator: Adobe Illustrator 20.0.0, SVG Export Plug-In . SVG Version: 6.00 Build 0)  -->
<svg version="1.1" id="Layer_1" xmlns="http://www.w3.org/2000/svg" xmlns:xlink="http://www.w3.org/1999/xlink" x="0px" y="0px"
	 viewBox="0 0 500 500" style="enable-background:new 0 0 500 500;" xml:space="preserve">
<style type="text/css">
	.st0{fill:#D1A982;}
	.st1{fill:#C6F7F6;}
	.st2{fill:#293333;}
	.st3{fill:#509950;}
	.st4{fill:#E5D1B1;stroke:#725B4F;stroke-miterlimit:10;}
	.st5{fill:#E5D1B1;}
	.st6{fill:#725B4F;}
	.st7{fill:#316131;}
	.st8{fill:#417F41;}
	.st9{fill:none;stroke:#FFFFFF;stroke-linecap:round;stroke-linejoin:round;stroke-miterlimit:10;}
	.st10{fill:#00FFFF;}
	.st11{fill:#5DB25D;}
	.st12{fill:none;stroke:#5DB25D;stroke-linecap:round;stroke-linejoin:round;stroke-miterlimit:10;}
	.st13{fill:none;stroke:#529952;stroke-linecap:round;stroke-linejoin:round;stroke-miterlimit:10;}
	.st14{fill:#529952;}
	.st15{fill:#FFFFFF;}
	.st16{fill:#498C49;}
	.st17{fill:#497F49;}
	.st18{fill:#DBE8DB;}
	.st19{fill:#DBE5DB;}
	.st20{fill:#75CB76;}
	.st21{fill:#5E9F5F;}
	.st22{fill:#57A357;}
	.st23{fill:#9BE085;}
	.st24{fill:#74B56F;}
	.st25{fill:#38271D;}
	.st26{opacity:0.5;fill:none;stroke:#7F513E;stroke-width:3;stroke-miterlimit:10;}
	.st27{opacity:0.4;fill:none;stroke:#7F513E;stroke-width:3;stroke-miterlimit:10;}
	.st28{opacity:0.3;fill:none;stroke:#7F513E;stroke-width:3;stroke-miterlimit:10;}
	.st29{opacity:0.2;fill:none;stroke:#7F513E;stroke-width:3;stroke-miterlimit:10;}
	.st30{opacity:0.1;fill:none;stroke:#7F513E;stroke-width:3;stroke-miterlimit:10;}
	.st31{fill:none;stroke:#725B4F;stroke-miterlimit:10;}
	.st32{fill:none;stroke:#FFFFFF;stroke-linecap:round;stroke-miterlimit:10;}
	.st33{fill:#B1917A;}
	.st34{fill:#BB9E85;}
	.st35{fill:#C5AB91;}
	.st36{fill:#D0B79C;}
	.st37{fill:#DAC4A7;}
	.st38{fill:#447F44;}
	.st39{fill:none;stroke:#447F44;stroke-linecap:round;stroke-linejoin:round;stroke-miterlimit:10;}
	.st40{fill:#FCEE21;}
	.st41{fill:#58A558;}
</style>
<g>
	<path class="st41" d="M388.7,235.6c-5.4-4-12.6-5.9-19.6-5.9v0.2h-0.4c-7.9,0-21,2.1-38.1,12.8c-12.5,7.9-24.1,18.3-32.4,29.6
		c-19.8,26.6-11.6,47.3-4.4,65.6c1.3,3.4,2.7,6.8,3.9,10.3l2.2,6.3l6.6,0.4c3.5,0.2,6.9,0.6,10.1,0.9c5.8,0.6,11.4,1.1,16.9,1.1
		c19.5,0,33.2-7.2,45.8-24.2c10.6-14.3,18.8-33.3,21.7-50.8C404.5,260.6,400.2,244.2,388.7,235.6z"/>
	<path class="st41" d="M288.8,416.9c-4.6,16.8-8,33.8-9.7,50.5l0,0.1c-0.5,3.3-3.7,9.5-12.4,9.5c-3.1,0-6.1-1.4-8.4-3.8
		c-2.4-2.5-3.7-5.7-3.6-8.9c0-0.1,0-0.5,0.1-1.2c1.6-23.3,8.6-145-7.1-251l-0.4-2.9l13-2.2l0.6,2.9c9.7,52.9,16.1,112.2,18.2,168.6
		c1.4-2.9,2.9-5.7,4.4-8.6L288.8,416.9z"/>
	<path class="st1" d="M351.1,162.6c-15.1-5.6-34.3-10.6-51.3-13.5c-3.2-0.5-6.2-1-9.1-1.4c2.4-1.6,5-3.3,7.6-5.1
		c14.1-9.9,29.2-22.8,40.4-34.4c18.7-19.3,18.2-25.9,15.6-29.5c-1.5-2.1-3.9-3.1-7.3-3.1c-13.4,0-47.8,18-71.5,34.8
		c-2.6,1.9-5.1,3.7-7.4,5.5c0.6-2.8,1.2-5.8,1.7-9c2.9-17,4.5-36.7,4.3-52.9c-0.4-26.9-5.4-31.2-9.8-31.9c-0.4-0.1-0.7-0.1-1.1-0.1
		c-4.2,0-10.1,3.1-19,27.7c-5.5,15-10.4,33.9-13.3,50.5c-0.4,2.2-0.9,5.3-1.4,8.9c-2-3-3.8-5.6-5.1-7.5
		c-14.1-20-46.2-57.3-59.7-57.3c-1.6,0-2.9,0.4-4.1,1.2c-3.6,2.6-6.3,8.6,5,33c6.8,14.6,16.7,31.8,26.7,45.8c1.8,2.6,3.6,5,5.4,7.3
		c-3.6-0.8-6.7-1.3-9-1.7c-15.7-2.7-34.4-4.3-49.8-4.3c-15.5,0-33.4,1.1-34.9,9.8c-0.7,4.4,1.6,10.5,26.8,19.8
		c15.1,5.6,34.3,10.6,51.3,13.5c3.2,0.5,6.2,1,9.1,1.4c-2.4,1.6-5,3.3-7.6,5.1c-14.1,9.9-29.2,22.8-40.4,34.4
		c-18.7,19.3-18.2,25.9-15.6,29.5c1.5,2.1,3.9,3.1,7.3,3.1c13.4,0,47.8-18,71.5-34.8c1.9-1.3,4.5-3.2,7.4-5.4
		c-0.6,2.8-1.2,5.8-1.7,8.9c-2.9,17-4.5,36.7-4.3,52.9c0.4,26.9,5.4,31.2,9.8,31.9c0.4,0.1,0.7,0.1,1.1,0.1c4.2,0,10.1-3.1,19-27.7
		c5.5-15,10.4-33.9,13.3-50.5c0.5-3.2,1-6.2,1.4-9.1c1.6,2.4,3.3,4.9,5.1,7.6c14.1,20,46.2,57.3,59.7,57.3c1.6,0,2.9-0.4,4.1-1.2
		c3.6-2.6,6.3-8.6-5-33c-6.8-14.6-16.7-31.8-26.7-45.8c-1.9-2.6-3.7-5.1-5.5-7.4c2.8,0.6,5.8,1.2,9,1.7c15.7,2.7,34.4,4.3,49.8,4.3
		c15.5,0,33.4-1.1,34.9-9.8C378.7,178.1,376.3,171.9,351.1,162.6z"/>
	<path class="st40" d="M241,188.2c-16.1,0-29.1-13.1-29.1-29.1C211.9,143,225,130,241,130c16.1,0,29.1,13.1,29.1,29.1
		C270.1,175.2,257.1,188.2,241,188.2z"/>
	<path class="st2" d="M396.5,225c-7.7-5.7-17.2-8.7-27.7-8.7c-11.4,0-24.3,3.7-37,10.4c-2.6-5.2-5.4-10.5-8.3-15.7
		c6.7,0.4,13.4,0.7,19.5,0.7c10.5,0,19.3-0.7,26.1-2c5.1-1,9.3-2.4,12.9-4.2c11.2-5.8,14.2-14.8,15.1-19.8c1.2-7,0.5-20.3-17.2-31.2
		c-5.5-3.4-13-6.8-22.1-10.2c-6.7-2.5-14.1-4.8-21.7-7c6-5.2,11.6-10.6,16.6-15.7c6.8-7,12-13.3,15.5-18.7
		c11.3-17.5,6.1-29.7,2-35.5c-3-4.2-10-11.3-23.2-11.3c-6.2,0-17.1,1.4-40.7,13.2c-4.4,2.2-8.9,4.6-13.4,7.1
		c0.5-7.9,0.8-15.7,0.7-22.8c-0.1-9.8-0.9-17.9-2.3-24.2C287,9.1,274.7,4.3,267.7,3.1c-1.4-0.2-2.9-0.1-4.4-0.1h0
		c-10.9,0-20.1,6-27.4,18.3c-3.3,5.6-6.6,12.8-9.9,21.8c-2.3,6.4-4.6,13.5-6.7,20.8c-4.3-4.9-8.7-9.7-13-14
		c-17.7-17.8-29.7-25-41.6-25c-5.6,0-10.9,1.7-15.3,4.8c-5.8,4.1-14.7,13.9-9.9,34.2c1.5,6.3,4.3,14,8.4,22.8
		c3,6.5,6.5,13.3,10.4,20.3c-6.7-0.4-13.4-0.7-19.5-0.7c-10.5,0-19.3,0.7-26.1,2c-5.1,1-9.3,2.4-12.9,4.2
		c-11.2,5.8-14.2,14.8-15.1,19.8c-1.2,7-0.5,20.3,17.2,31.2c5.5,3.4,13,6.8,22.1,10.2c6.7,2.5,14.1,4.8,21.7,7
		c-6,5.2-11.6,10.6-16.6,15.7c-6.8,7-12,13.3-15.5,18.7c-11.3,17.5-6.1,29.7-2,35.5c3,4.2,10,11.3,23.2,11.3
		c6.2,0,17.1-1.4,40.7-13.2c4.4-2.2,8.9-4.6,13.4-7.1c-0.5,7.9-0.8,15.7-0.7,22.8c0.1,9.8,0.9,17.9,2.3,24.2
		c4.4,20.3,16.7,25.4,23.7,26.5c1.4,0.2,2.9,0.4,4.4,0.4c6.4,0,12.2-2.1,17.4-6.4c3.2,72.5-0.5,136.4-1.6,152.9
		c-0.1,1.1-0.1,1.4-0.1,1.9c-0.3,8.7,3.2,17.3,9.4,23.7c6.1,6.3,14.5,9.9,23,9.9c18.7,0,30.5-13.5,32.5-26.9l0.1-0.6l0.1-0.6
		c3.3-33.4,12.8-66.8,28.3-99.4c1.9,0.1,3.9,0.2,5.9,0.2c23.5,0,41.5-9.4,56.5-29.6c12-16.2,20.8-36.8,24-56.6
		C420,248.4,405.6,231.7,396.5,225z M374.3,181.6c0,0.1,0,0.3,0,0.4c-1.5,8.6-46.8,8.1-80.3,2.3c-10-1.7-17.8-3.7-23.8-5.8
		c-1-0.4-1.4-1.6-0.9-2.5c3-4.9,4.7-10.7,4.7-16.9c0-2.2-0.2-4.3-0.6-6.3c-0.2-1.1,0.6-2,1.7-2c6.4,0,14.3,0.7,24.3,2.4
		C332.3,158.8,374.3,172.9,374.3,181.6z M260.6,214.1c-1-1.4-2-2.8-2.9-4.2c-0.9-1.3-1.3-2.9-1.1-4.5c0.6-5.7,0.8-10.7,0.6-15.2
		c-0.1-1.4,0.6-2.7,1.8-3.5c0.7-0.4,1.3-0.9,1.9-1.4c1.1-0.9,2.6-1.1,3.9-0.6c4.7,1.9,9.8,3.4,14.9,4.6c1.6,0.4,3,1.3,3.9,2.6
		c0.9,1.2,1.8,2.5,2.7,3.8c19.6,27.7,39.7,68.4,32.6,73.4c-0.5,0.4-1.1,0.5-1.9,0.5C307.5,269.8,278.9,239.9,260.6,214.1z
		 M273.8,116.5c1.3-1,2.6-1.9,4.1-3c23.8-16.9,57.1-34,69.3-34.1c2,0,3.4,0.5,4.1,1.5c5.1,7.1-27.4,38.8-55.1,58.4
		c-1.5,1.1-3,2.1-4.5,3.1c-1.3,0.9-2.9,1.3-4.5,1.1c-5.6-0.6-10.5-0.7-14.9-0.6c-1.4,0.1-2.7-0.6-3.5-1.8c-0.5-0.8-1-1.5-1.5-2.2
		c-0.9-1.1-1.1-2.6-0.6-3.9c1.9-4.6,3.3-9.7,4.5-14.7C271.5,118.9,272.5,117.5,273.8,116.5z M234.9,100.8c5.6-32.9,19.8-75,28.4-75
		c0.1,0,0.3,0,0.4,0c8.6,1.5,8.1,46.8,2.3,80.3c-1.7,9.9-3.7,17.7-5.8,23.6c-0.4,1-1.6,1.4-2.5,0.9c-4.9-2.9-10.7-4.6-16.8-4.6
		c-2.2,0-4.4,0.2-6.5,0.6c-1.1,0.2-2-0.6-2.1-1.7C232.5,118.7,233.2,110.7,234.9,100.8z M241,133.9c13.9,0,25.2,11.3,25.2,25.2
		S255,184.3,241,184.3s-25.2-11.3-25.2-25.2S227.1,133.9,241,133.9z M163,48.8c0.5-0.4,1.1-0.5,1.9-0.5c9.7,0,38.3,29.8,56.6,55.6
		c1,1.4,2,2.8,2.9,4.2c0.9,1.3,1.3,3,1.1,4.6c-0.6,5.8-0.8,10.9-0.6,15.4c0.1,1.4-0.6,2.7-1.8,3.5c-0.7,0.5-1.4,0.9-2,1.4
		c-1.1,0.8-2.6,1.1-3.9,0.6c-4.6-1.8-9.5-3.2-14.5-4.4c-1.6-0.4-3-1.3-3.9-2.6c-1-1.4-2.1-2.8-3.1-4.3
		C175.9,94.4,155.9,53.8,163,48.8z M108.3,137c0-0.1,0-0.3,0-0.4c1.5-8.6,46.8-8.1,80.3-2.3c9.6,1.6,17.2,3.5,23.1,5.6
		c1,0.4,1.5,1.6,0.9,2.5c-2.9,4.9-4.6,10.7-4.6,16.8c0,2.3,0.2,4.5,0.7,6.7c0.2,1.1-0.6,2.1-1.7,2.1c-6.3,0-14.1-0.7-23.7-2.4
		C150.3,159.8,108.3,145.6,108.3,137z M208.2,201.5c-1.3,1-2.6,1.9-4.1,2.9c-23.8,16.9-57.1,34-69.3,34c-2,0-3.4-0.5-4.1-1.5
		c-5.1-7.1,27.4-38.8,55.1-58.4c1.3-0.9,2.6-1.8,3.8-2.6c1.4-0.9,3-1.3,4.6-1.1c5.9,0.6,11.1,0.9,15.7,0.7c1.4-0.1,2.7,0.6,3.5,1.8
		c0.4,0.6,0.8,1.2,1.3,1.8c0.9,1.1,1.1,2.6,0.6,3.9c-1.8,4.6-3.3,9.6-4.5,14.6C210.5,199.2,209.5,200.6,208.2,201.5z M247.1,217.2
		c-5.6,32.9-19.8,75-28.4,75c-0.1,0-0.3,0-0.4,0c-8.6-1.5-8.1-46.8-2.3-80.3c1.7-9.8,3.6-17.5,5.7-23.5c0.4-1,1.6-1.4,2.5-0.9
		c4.9,2.9,10.7,4.6,16.9,4.6c2.2,0,4.4-0.2,6.4-0.6c1.1-0.2,2.1,0.6,2.1,1.7C249.5,199.5,248.8,207.4,247.1,217.2z M278.2,451.6
		c-1,5.1-1.5,10.3-2,15.6c0,0-1.1,7-9.5,7c-4.8,0-9.2-4.7-9.1-9.6c0-1.5,9.3-123.2-4.8-236c0.7-3.2,1.3-6.3,1.8-9.4
		c1.9,2.6,3.8,5.3,5.9,8c9.6,57.8,14.4,116.5,15.6,164.6c0.6-1.5,1-2.9,2-4.4V451.6z M304.5,339.1c0.1-0.2,0.2-0.5,0.4-0.7
		c-7.6-19.6-16.3-36.3,1.4-60.1c0.8-1.1,1.6-2.1,2.5-3.1c4.6,2.4,7.1,2.4,8.5,2.4c2.3,0,4.5-0.7,6.3-2c6.9-4.9,4.5-14.6,3.8-17.9
		c0-0.1-0.1-0.3-0.1-0.4c13.7-10.5,29.2-17.7,41.7-17.7c5.3,0,10,1.3,13.7,4.1c18,13.4,8.5,56.6-11.2,83
		c-12.3,16.5-24.3,20.2-37.8,20.2c-6.2,0-12.6-0.8-19.6-1.4c-0.1,0.2-0.3,0.5-0.4,0.7L304.5,339.1z"/>
	<g>
		<path class="st15" d="M212.9,123c-1.2,0-2.5-0.6-3.2-1.7l-15.7-21.7c-1.3-1.8-0.9-4.3,0.9-5.6c1.8-1.3,4.3-0.9,5.6,0.9l15.7,21.7
			c1.3,1.8,0.9,4.3-0.9,5.6C214.5,122.7,213.7,123,212.9,123z"/>
	</g>
	<circle class="st15" cx="187.7" cy="83.4" r="4.5"/>
	<g>
		<path class="st15" d="M198.7,156.6c-0.2,0-0.4,0-0.6-0.1l-26.4-4.2c-2.2-0.3-3.7-2.4-3.3-4.6c0.3-2.2,2.4-3.7,4.6-3.3l26.4,4.2
			c2.2,0.3,3.7,2.4,3.3,4.6C202.4,155.2,200.7,156.6,198.7,156.6z"/>
	</g>
	<g>
		<path class="st15" d="M248.4,118.7c-0.2,0-0.4,0-0.6-0.1c-2.2-0.3-3.7-2.4-3.3-4.6l4.2-26.4c0.3-2.2,2.4-3.7,4.6-3.3
			c2.2,0.3,3.7,2.4,3.3,4.6l-4.2,26.4C252,117.3,250.3,118.7,248.4,118.7z"/>
	</g>
	<g>
		<path class="st15" d="M227.5,163.1c-2.2,0-4-1.8-4-4c0-9.6,7.8-17.5,17.5-17.5c2.2,0,4,1.8,4,4s-1.8,4-4,4c-5.2,0-9.5,4.2-9.5,9.5
			C231.5,161.3,229.8,163.1,227.5,163.1z"/>
	</g>
	<path class="st38" d="M335.5,296.9c-15.3,17.9-40.5,51.2-59.3,94.7c0.3,8.5,1.1,35-0.1,75.8c0-0.2,0.1-0.3,0.1-0.3
		c6.8-69.3,37.1-124.6,57.8-155c0.9-1.3,2.1-2.2,3.5-2.8c5.1-2,15.5-4.9,28.1-2.5c2.2,0.4,4.3-1.1,4.6-3.3c0.3-2.1-1.3-4-3.4-4.4
		c-7.6-1.4-14.5-1.1-20.2-0.2c-1.2,0.2-1.9-1.2-1.2-2.1c3.3-3.8,8.6-9.3,13.9-13.3c1.5-1.1,2.1-3.1,1.4-4.8c-1-2.2-3.8-2.9-5.7-1.6
		C354.9,277.1,344.4,285.4,335.5,296.9z"/>
</g>
</svg>
