<?xml version="1.0" encoding="utf-8"?>
<!-- Generator: Adobe Illustrator 20.0.0, SVG Export Plug-In . SVG Version: 6.00 Build 0)  -->
<svg version="1.1" id="Layer_1" xmlns="http://www.w3.org/2000/svg" xmlns:xlink="http://www.w3.org/1999/xlink" x="0px" y="0px"
	 viewBox="0 0 500 500" style="enable-background:new 0 0 500 500;" xml:space="preserve">
<style type="text/css">
	.st0{fill:#D1A982;}
	.st1{fill:#E5D1B1;stroke:#725B4F;stroke-miterlimit:10;}
	.st2{fill:#E5D1B1;}
	.st3{fill:#725B4F;}
	.st4{fill:#316131;}
	.st5{fill:#417F41;}
	.st6{fill:none;stroke:#FFFFFF;stroke-linecap:round;stroke-linejoin:round;stroke-miterlimit:10;}
	.st7{fill:#00FFFF;}
	.st8{fill:#5DB25D;}
	.st9{fill:none;stroke:#5DB25D;stroke-linecap:round;stroke-linejoin:round;stroke-miterlimit:10;}
	.st10{fill:none;stroke:#529952;stroke-linecap:round;stroke-linejoin:round;stroke-miterlimit:10;}
	.st11{fill:#529952;}
	.st12{fill:#FFFFFF;}
	.st13{fill:#498C49;}
	.st14{fill:#497F49;}
	.st15{fill:#DBE8DB;}
	.st16{fill:#DBE5DB;}
	.st17{fill:#75CB76;}
	.st18{fill:#5E9F5F;}
	.st19{fill:#57A357;}
	.st20{fill:#9BE085;}
	.st21{fill:#74B56F;}
	.st22{fill:#38271D;}
	.st23{opacity:0.5;fill:none;stroke:#7F513E;stroke-width:3;stroke-miterlimit:10;}
	.st24{opacity:0.4;fill:none;stroke:#7F513E;stroke-width:3;stroke-miterlimit:10;}
	.st25{opacity:0.3;fill:none;stroke:#7F513E;stroke-width:3;stroke-miterlimit:10;}
	.st26{opacity:0.2;fill:none;stroke:#7F513E;stroke-width:3;stroke-miterlimit:10;}
	.st27{opacity:0.1;fill:none;stroke:#7F513E;stroke-width:3;stroke-miterlimit:10;}
	.st28{fill:none;stroke:#725B4F;stroke-miterlimit:10;}
	.st29{fill:none;stroke:#FFFFFF;stroke-linecap:round;stroke-miterlimit:10;}
	.st30{fill:#B1917A;}
	.st31{fill:#BB9E85;}
	.st32{fill:#C5AB91;}
	.st33{fill:#D0B79C;}
	.st34{fill:#DAC4A7;}
</style>
<g>
	<path class="st2" d="M250.9,486.9c-14.2,0-28.4-2.8-42.2-8.3c-15.9-6.4-26.1-22.3-25.4-39.6c1.2-28.9,3.7-101.9,2.4-175.6
		c-45.3-2.3-86.5-7.1-116.9-13.5c-16-3.4-28-17.2-29.1-33.5c-0.3-3.9-0.4-7.8-0.4-11.6c0-51.4,22.1-99.7,62.1-135.9
		c39.7-36,92.5-55.8,148.6-55.8c56.1,0,108.8,19.8,148.6,55.8c40.1,36.2,62.1,84.5,62.1,135.9c0,3.9-0.1,7.8-0.4,11.6
		c-1.1,16.3-13.1,30-29.1,33.5c-30.5,6.5-71.9,11.3-117.3,13.6c-1.4,72.6,1.4,146.4,2.7,175.7c0.8,17.2-9.4,33.1-25.2,39.7
		C278.4,484.2,264.8,486.9,250.9,486.9C251,486.9,251,486.9,250.9,486.9z"/>
	<circle class="st22" cx="251.8" cy="409" r="7.8"/>
	<circle class="st22" cx="275.1" cy="377.8" r="7.8"/>
	<circle class="st22" cx="244" cy="354.5" r="7.8"/>
	<circle class="st22" cx="275.1" cy="331.2" r="7.8"/>
	<circle class="st22" cx="251.8" cy="300" r="7.8"/>
	<rect x="146.7" y="27.4" class="st30" width="206.6" height="23.3"/>
	<rect x="106" y="50.8" class="st31" width="287.9" height="23.3"/>
	<rect x="82.7" y="74.1" class="st32" width="334.6" height="23.3"/>
	<rect x="67.1" y="97.5" class="st33" width="365.7" height="23.3"/>
	<rect x="55.5" y="120.8" class="st34" width="389.1" height="23.3"/>
	<path class="st3" d="M454.9,124.7c-11.4-24.3-27.6-46.1-48.2-64.8c-20.5-18.5-44.3-33-70.7-43.2C308.7,6.3,279.8,1,250,1
		s-58.7,5.3-86,15.7c-26.5,10.1-50.2,24.6-70.7,43.2c-20.6,18.7-36.9,40.5-48.2,64.8C33.2,150,27.2,177,27.2,204.8
		c0,3.7,0.1,7.4,0.3,11.1c0.7,10.9,4.6,21.4,11.7,29.7c7.1,8.2,16.4,13.8,27,16.1c27.3,5.8,61.6,10.2,100.4,12.7
		c4,0.3,7.2,3.6,7.2,7.7c0.7,66.8-1.6,130.1-2.6,156.4c-0.9,22.4,12.3,43,33,51.3c15.3,6.1,31,9.2,46.7,9.2c15.4,0,30.6-3,45-9
		c20.5-8.5,33.7-29.2,32.7-51.4c-1.2-26.7-3.6-90.5-3-156.5c0-4.1,3.2-7.4,7.3-7.7c39-2.6,73.4-6.9,100.8-12.8
		c10.6-2.3,20-7.8,27-16.1c7.1-8.3,11-18.8,11.7-29.7c0.2-3.7,0.3-7.4,0.3-11.1C472.8,177,466.8,150,454.9,124.7z M72,235.1
		c-9.4-2-16.5-10.1-17.1-19.7c-0.2-3.5-0.4-7.1-0.4-10.6c0-97.3,87.7-176.5,195.5-176.5s195.5,79.2,195.5,176.5
		c0,3.5-0.1,7.1-0.4,10.6c-0.6,9.6-7.7,17.7-17.1,19.7c-44.1,9.4-108.9,14.8-178,14.8S116,244.5,72,235.1z M287,468.4
		c-12.7,5.3-24.9,7.2-36,7.2c-15,0-28.2-3.6-38-7.5c-11.6-4.6-18.9-16.2-18.3-28.7c1.3-32.5,3.7-103,2.4-174.9
		c-0.1-4.4,3.5-7.9,7.9-7.7c14.7,0.5,29.8,0.8,45.1,0.8c15.2,0,30.1-0.3,44.7-0.8c4.4-0.2,7.9,3.4,7.9,7.8
		c-1.3,71.2,1.3,142.6,2.8,175.1C305.9,452.2,298.5,463.7,287,468.4z"/>
	<path class="st12" d="M120.2,113.7c-0.9,0-1.9-0.3-2.6-1c-1.6-1.5-1.7-3.9-0.2-5.5c18.2-19.5,41.7-34.9,67.9-44.4
		c2-0.7,4.3,0.3,5,2.3c0.7,2-0.3,4.3-2.3,5c-25.1,9.1-47.5,23.7-64.9,42.4C122.3,113.3,121.2,113.7,120.2,113.7z"/>
	<circle class="st12" cx="104.1" cy="133.2" r="3.9"/>
</g>
</svg>
