<?xml version="1.0" encoding="utf-8"?>
<!-- Generator: Adobe Illustrator 20.1.0, SVG Export Plug-In . SVG Version: 6.00 Build 0)  -->
<svg version="1.1" id="Layer_1" xmlns="http://www.w3.org/2000/svg" xmlns:xlink="http://www.w3.org/1999/xlink" x="0px" y="0px"
	 viewBox="0 0 500 500" style="enable-background:new 0 0 500 500;" xml:space="preserve">
<style type="text/css">
	.st0{fill:#998004;}
	.st1{fill:#E5C403;}
	.st2{fill:none;stroke:#998004;stroke-width:8;stroke-linecap:round;stroke-linejoin:round;stroke-miterlimit:10;}
	.st3{fill:none;stroke:#7CA440;stroke-width:2;stroke-linecap:round;stroke-linejoin:round;stroke-miterlimit:10;}
	.st4{fill:none;stroke:#528B16;stroke-linecap:round;stroke-miterlimit:10;}
	.st5{fill:#528B16;}
	.st6{fill:#00FFFF;}
	.st7{fill:#7CAB09;}
	.st8{fill:#4E670C;}
	.st9{fill:none;stroke:#C0CC8F;stroke-linecap:round;stroke-miterlimit:10;}
	.st10{fill:#7D8AD7;stroke:#4648A6;stroke-width:3;stroke-miterlimit:10;}
	.st11{opacity:0.6;fill:none;stroke:#CDD6FF;stroke-width:3;stroke-miterlimit:10;}
	.st12{opacity:0.4;fill:none;stroke:#CDD6FF;stroke-width:3;stroke-miterlimit:10;}
	.st13{opacity:0.2;fill:none;stroke:#CDD6FF;stroke-width:3;stroke-miterlimit:10;}
	.st14{fill:#7CAB09;stroke:#76990A;stroke-linecap:round;stroke-miterlimit:10;}
	.st15{fill:none;stroke:#A598D8;stroke-linecap:round;stroke-miterlimit:10;}
	.st16{fill:none;stroke:#2B2A6F;stroke-width:3;stroke-miterlimit:10;}
	.st17{fill:none;stroke:#8A6EDA;stroke-linecap:round;stroke-miterlimit:10;}
	.st18{fill:#E4E5E7;stroke:#2B2A6F;stroke-miterlimit:10;}
	.st19{fill:none;stroke:#C2807D;stroke-linecap:round;stroke-linejoin:round;stroke-miterlimit:10;}
	.st20{fill:#C2807D;stroke:#7C152E;stroke-miterlimit:10;}
	.st21{fill:#E4E5E7;}
	.st22{fill:#A598D8;}
	.st23{fill:#C0CC8F;}
	.st24{fill:#7D8AD7;}
	.st25{fill:#AEB9ED;}
	.st26{fill:#9EA9E5;}
	.st27{fill:#8E9ADD;}
	.st28{fill:#76990A;}
	.st29{fill:#8A6EDA;}
	.st30{fill:#2B2A6F;}
	.st31{fill:#C2807D;}
	.st32{fill:#7C152E;}
	.st33{fill:none;stroke:#34500C;stroke-width:6;stroke-linecap:round;stroke-linejoin:round;stroke-miterlimit:10;}
	.st34{fill:#7E9E5B;stroke:#34500C;stroke-miterlimit:10;}
	.st35{fill:#FE8600;stroke:#F15A24;stroke-width:3;stroke-miterlimit:10;}
	.st36{fill:#FE8600;}
	.st37{fill:none;stroke:#F15A24;stroke-miterlimit:10;}
	.st38{fill:none;stroke:#F15A24;stroke-linecap:round;stroke-miterlimit:10;}
	.st39{opacity:0.8;fill:none;stroke:#F15A24;stroke-width:3;stroke-miterlimit:10;}
	.st40{opacity:0.6;fill:none;stroke:#F15A24;stroke-width:3;stroke-miterlimit:10;}
	.st41{opacity:0.4;fill:none;stroke:#F15A24;stroke-width:3;stroke-miterlimit:10;}
	.st42{opacity:0.2;fill:none;stroke:#F15A24;stroke-width:3;stroke-miterlimit:10;}
	.st43{fill:#F15A24;}
	.st44{fill:#9CAD23;stroke:#34500C;stroke-miterlimit:10;}
	.st45{opacity:0.4;fill:none;stroke:#34500C;stroke-linecap:round;stroke-miterlimit:10;}
	.st46{fill:none;stroke:#9CAD23;stroke-width:2;stroke-linecap:round;stroke-linejoin:round;stroke-miterlimit:10;}
	.st47{fill:none;stroke:#34500C;stroke-linecap:round;stroke-linejoin:round;stroke-miterlimit:10;}
	.st48{fill:none;stroke:#7CAB09;stroke-width:2;stroke-linecap:round;stroke-miterlimit:10;}
	.st49{fill:none;stroke:#7D9959;stroke-linecap:round;stroke-miterlimit:10;}
	.st50{fill:#7CAB09;stroke:#4E670C;stroke-miterlimit:10;}
	.st51{fill:none;stroke:#7CAB09;stroke-linecap:round;stroke-miterlimit:10;}
	.st52{fill:none;stroke:#34500C;stroke-linecap:round;stroke-miterlimit:10;}
	.st53{opacity:0.4;fill:#34500C;}
	.st54{fill:#34500C;}
	.st55{fill:none;stroke:#34500C;stroke-width:8;stroke-linecap:round;stroke-linejoin:round;stroke-miterlimit:10;}
	.st56{fill:none;stroke:#34500C;stroke-width:9;stroke-linecap:round;stroke-linejoin:round;stroke-miterlimit:10;}
	.st57{fill:#7E9E5B;}
	.st58{fill:none;stroke:#34500C;stroke-width:3;stroke-linecap:round;stroke-linejoin:round;stroke-miterlimit:10;}
	.st59{fill:none;stroke:#9DB269;stroke-width:2;stroke-linecap:round;stroke-linejoin:round;stroke-miterlimit:10;}
	.st60{fill:none;stroke:#34500C;stroke-width:5;stroke-linecap:round;stroke-linejoin:round;stroke-miterlimit:10;}
	.st61{fill:none;stroke:#D8DFC4;stroke-linecap:round;stroke-linejoin:round;stroke-miterlimit:10;}
	.st62{fill:none;stroke:#DDB907;stroke-width:6;stroke-linecap:round;stroke-miterlimit:10;}
	.st63{fill:none;stroke:#FFE200;stroke-miterlimit:10;}
	.st64{fill:none;stroke:#EDC107;stroke-miterlimit:10;}
	.st65{fill:none;stroke:#EFAE0C;stroke-miterlimit:10;}
	.st66{fill:none;stroke:#FFF8CE;stroke-linecap:round;stroke-miterlimit:10;}
	.st67{fill:#F46C29;}
	.st68{fill:#F77426;}
	.st69{fill:#F97D25;}
	.st70{fill:#EF4B18;}
	.st71{fill:#F3672A;}
	.st72{fill:#9CAD23;}
	.st73{fill:#7D9959;}
	.st74{fill:#9DB269;}
	.st75{fill:#D8DFC4;}
	.st76{fill:#DDB907;}
	.st77{fill:#FFE200;}
	.st78{fill:#EDC107;}
	.st79{fill:#EFAE0C;}
	.st80{fill:#FFF8CE;}
	.st81{clip-path:url(#SVGID_2_);}
	.st82{clip-path:url(#SVGID_4_);}
	.st83{fill:#998004;stroke:#998004;stroke-width:6;stroke-linejoin:round;stroke-miterlimit:10;}
	.st84{fill:#EEF2FF;stroke:#AFADA7;stroke-miterlimit:10;}
	.st85{fill:#E5C403;stroke:#998004;stroke-miterlimit:10;}
	.st86{opacity:0.4;fill:none;stroke:#7CA440;stroke-miterlimit:10;}
	.st87{opacity:0.3;fill:none;stroke:#7CA440;stroke-miterlimit:10;}
	.st88{opacity:0.2;fill:none;stroke:#7CA440;stroke-miterlimit:10;}
	.st89{opacity:0.1;fill:none;stroke:#7CA440;stroke-miterlimit:10;}
	.st90{fill:none;stroke:#FFFFFF;stroke-linecap:round;stroke-miterlimit:10;}
	.st91{fill:#FFFFFF;}
	.st92{fill:#EEF2FF;}
	.st93{fill:#AFADA7;}
	.st94{fill:none;stroke:#AFADA7;stroke-linecap:round;stroke-miterlimit:10;}
	.st95{fill:#7CA440;}
	.st96{fill:#BEA123;}
	.st97{fill:none;stroke:#FFFFFF;stroke-width:7.709;stroke-linecap:round;stroke-miterlimit:10;}
</style>
<path class="st0" d="M440.6,231.5c-4-2.6-5.3-7.9-3.1-12.1l6.5-12.6c7.9-15.1,2-33.7-13.1-41.6c-12.1-6.3-26.6-3.8-35.8,5.3
	c-3.5,3.4-8.7,4.6-13.2,2.9c-11-4.2-23.9-1.8-32.8,7.1c-7.2,7.3-10.1,17.2-8.6,26.6c0.7,4.3-1.1,8.6-4.4,11.3
	c-6.7,5.5-10.9,13.6-11.4,22.2c-0.1,2.5-3.1,3.7-4.9,2c0,0,0,0-0.1-0.1c-1.2-1.1-2.4-2.2-3.5-3.3c-2.3-2.2-3-5.6-1.8-8.5
	c0.8-1.9,1.7-4.2,2.4-6.6c2.2-7.6,2.3-15,0.2-22.2c-0.2-0.9-0.5-1.6-0.7-2.4c-1.4-4.4-0.5-9.2,2.5-12.7c1.1-1.3,2.3-2.8,3.4-4.5
	c5.3-8,7.6-17.7,7-28.8c-0.7-11.1-4-20.5-10.4-27.7c-1.5-1.7-3-3.1-4.3-4.3c-3.5-3.1-5.1-7.9-4.1-12.4c0.4-1.7,0.6-3.6,0.8-5.5
	c0.6-9.5-2.1-18.9-8.2-28c-8.7-13.1-19.3-18.3-28.5-20.1c-4.6-0.9-8.3-4.3-9.8-8.7l0-0.1c-3.7-11.1-11.5-19.7-23.3-25.6
	c-7.3-3.6-14.2-5.4-21.3-5.4c-4.8,0-9.1,0.8-13.1,2.1c-4.5,1.5-9.4,0.6-12.9-2.5c-6.4-5.7-15.9-10.7-29.6-10.7c-1.3,0-2.5,0-3.9,0.1
	c-9.9,0.6-18.5,3.3-25.3,8.4c-3.1,2.3-5.4,4.5-7.1,6.3c-3.1,3.4-7.8,4.9-12.3,4c-2.9-0.6-5.6-0.8-7.9-0.8c-8.8,0-17.1,2.7-25.5,8.2
	c-9.9,6.5-15.2,14.2-18,21.4c-0.9,2.3-1.5,4.6-2,6.6c-1,4.7-4.3,8.5-8.9,10.1c-8.9,3-18.7,9.7-25.7,23.7c-4.5,9.1-6.2,17.9-5.3,26.5
	c0.3,3.2,1,6.1,1.8,8.4c1.5,4.4,0.4,9.3-2.7,12.8c-1.1,1.3-2.2,2.7-3.2,4.2c-5.3,8-7.6,17.6-6.9,28.7c0.6,9.3,3.1,17.4,7.6,24.1
	c2.3,3.4,4.8,6.1,7,8c3.5,3.2,5.2,8,4.2,12.7c-0.7,3.4-1.1,7.6-0.7,11.7c0.7,7.3,3.4,14.6,8.1,21.7c8.6,13.1,19.3,18.3,28.5,20.1
	c4.6,0.9,8.4,4.3,9.9,8.8l0,0.1c3.7,11.1,11.5,19.7,23.3,25.6c7.3,3.6,14.2,5.4,21.3,5.4c4.7,0,9.1-0.8,13-2
	c4.5-1.5,9.4-0.6,12.9,2.5c6.4,5.7,15.9,10.6,29.6,10.6c1.3,0,2.5,0,3.9-0.1c8.1-0.5,15.2-2.4,21.3-5.8c4.1-2.4,7.7-5.7,10.4-8.7
	c3.2-3.5,7.9-5.2,12.6-4.3c3.1,0.6,5.9,0.9,8.3,0.9c8.8,0,17.1-2.7,25.5-8.2c2.1-1.4,4-2.9,5.7-4.3c5.3-4.6,13.1-4.5,18.2,0.3
	c4.1,3.9,8.1,8,12.3,12.1c2.7,2.7,3.2,6.9,1.4,10.3c-1.9,3.4-3.1,7.2-3.6,11.3c-1.2,10.7,3.2,20.8,10.9,27.2
	c2.6,2.1,3.7,5.6,2.8,8.8c-3.5,12.4,1,26.3,12.3,33.9c5.3,3.6,11.4,5.4,17.3,5.4c7.7,0,15.2-2.8,21-8.2c0.5-0.5,1-0.9,1.4-1.4
	c3.6-3.8,9.8-3.5,13,0.7c20.3,26.5,40.5,55.9,60.2,88.5c5.8,9.6,16,14.8,26.4,14.8c5.5,0,11.1-1.5,16.1-4.6
	c14.5-8.9,18.7-28.2,9.9-42.8c-10.6-17.4-21.6-34.4-32.9-50.9c-7.3-10.6-10.7-23.4-9.7-36.2c0.6-8,1.1-17.3,1.2-27.8
	c0.1-7.7,5.9-14.2,13.6-15l0.9-0.1c16.9-1.9,29.1-17.1,27.3-34c-1.5-13.4-11.3-23.8-23.7-26.7c-3.6-0.8-6.3-3.6-7.1-7.2
	c-1.5-6.9-5.3-13.1-11-17.5C441.7,232.3,441.2,231.9,440.6,231.5z"/>
<g>
	<path class="st95" d="M464.1,460.4c-16.2-26.7-32.8-51.5-49.5-74.3c1.4-7.4,6.4-36.7,4-78.3c-0.3-4.9,3.3-9.2,8.2-9.7l27.2-3
		c4.1-0.4,7.3-3.9,7.1-8c-0.2-4.5-4.2-7.8-8.5-7.3l-27.7,3c-1.7,0.2-3-1.5-2.3-3.1l7.8-19.8c1.4-3.6,0.1-7.9-3.4-9.8
		c-4.2-2.3-9.2-0.3-10.9,3.9l-0.6,1.6c-0.6,1.6-3,1.4-3.3-0.3c-1.4-7.4-3.1-14.9-5.1-22.7c-0.5-2-0.3-4.1,0.7-5.9l15.8-30.4
		c1.9-3.7,0.8-8.5-2.9-10.6c-3.8-2.1-8.6-0.7-10.6,3.2l-10.5,20.2c-1.8,3.4-6.4,4.1-9.1,1.4L376.6,197c-2.8-2.8-7.2-3.2-10.3-0.8
		c-3.7,2.9-4,8.3-0.7,11.6l11.1,11.1c3.1,3,1.8,8.2-2.3,9.5l-20.8,6.5c-3.9,1.2-6.4,5.3-5.4,9.3c0.9,3.6,4.1,5.9,7.5,5.9
		c0.8,0,1.5-0.1,2.3-0.4l26.3-8.2c4.6-1.4,9.5,1.4,10.5,6.1c1.6,7.2,2.9,14.2,4.1,21.1c0.3,2-2,3.4-3.6,2.1l-12.6-10.2
		c-3.3-2.6-8.2-2.4-10.9,0.8c-2.8,3.3-2.4,8.3,1,11l29.7,23.9c2.8,31.5,1.1,57-0.7,72.4c-38.3-50.2-76.7-90.6-112.1-122.7
		c-2.4-2.2-5.7-2.9-8.7-2.1c-2.5,0.7-5.2,1-8,1l-0.1,0c-2.6,0-3.8,3.2-1.9,4.9c20.7,18.3,42.6,39.5,65.1,64c3.2,3.5,0.4,9-4.3,8.5
		l-7.6-0.9c-4.2-0.5-8.1,2.5-8.5,6.8c-0.5,4.2,2.5,8.1,6.8,8.5l16.7,1.9c3.8,0.4,5.8,4.8,3.6,7.9l-12.9,18.9
		c-2.3,3.3-1.8,7.9,1.3,10.5c1.5,1.2,3.2,1.8,4.9,1.8c2.5,0,4.9-1.2,6.4-3.4l16.7-24.4c1.9-2.8,6-3,8.1-0.4
		c28.2,34.2,56.7,73.6,84.2,118.9c1.5,2.4,4,3.7,6.6,3.7c1.6,0,3.3-0.5,4.7-1.6C465.4,468.3,466.1,463.8,464.1,460.4z"/>
</g>
<path class="st5" d="M401.3,235.3c1.3,5.4,2.7,10.8,3.8,16.2c0.4,1.8,2,3.1,3.8,3.1c0.3,0,0.6,0,0.9-0.1c2.1-0.5,3.3-2.6,2.9-4.7
	c-1-4.7-2.1-9.5-3.3-14.2c-1-4-0.5-8.1,1.2-11.8l11-22.5c0.9-1.9,0.3-4.2-1.5-5.3c-1.9-1.1-4.4-0.3-5.3,1.7l-12.4,25.2
	c-1.8,3.6-2.3,7.8-1.3,11.7C401.2,234.8,401.3,235,401.3,235.3z"/>
<path class="st5" d="M411.8,391.2c5,7.1,17.1,24.6,28.7,42.4c0.7,1.1,2,1.7,3.2,1.7c0.7,0,1.5-0.2,2.1-0.6c1.8-1.2,2.3-3.6,1.1-5.3
	c-10.7-16.3-21.7-32.4-27.4-40.5c-1.8-2.6-2.6-5.8-2-8.9c0.7-4.5,1.7-11.3,2.4-20c1.3-15.2,2.3-39.3-0.5-68.3
	c-0.2-2.1-2.1-3.7-4.2-3.5c-2.1,0.2-3.7,2.1-3.5,4.2c4.3,44.6-0.5,78.2-2.2,88.8c0,0.1,0,0.3-0.1,0.4c-0.5,3.2,0.2,6.4,2,9
	C411.5,390.9,411.7,391,411.8,391.2z"/>
<ellipse transform="matrix(4.190614e-02 -0.9991 0.9991 4.190614e-02 123.8815 692.9749)" class="st5" cx="423.3" cy="281.9" rx="3.9" ry="3.9"/>
<ellipse transform="matrix(4.190614e-02 -0.9991 0.9991 4.190614e-02 -13.5436 669.5219)" class="st5" cx="342.3" cy="341.8" rx="3.9" ry="3.9"/>
<path class="st5" d="M384.7,354.3c-1.1,0-2.3-0.5-3-1.4c-14.3-17.9-29.3-35.3-44.6-51.8c-1.4-1.6-1.4-4,0.2-5.4
	c1.6-1.4,4-1.4,5.4,0.2c15.4,16.6,30.5,34.1,44.9,52.2c1.3,1.7,1.1,4.1-0.6,5.4C386.4,354,385.5,354.3,384.7,354.3z"/>
<path class="st92" d="M118.8,150.7c-12.3,0-31.9-5.6-47.8-13.5c-19.9-10-25.3-19.4-18.7-32.6c2.6-5.2,6.7-11.1,16-11.1
	c5.5,0,12.5,2.1,21.2,6.5c11.1,5.6,22.8,13.6,31.3,21.4c10.7,9.9,14.7,17.7,11.8,23.5C130.7,148.8,126.1,150.7,118.8,150.7
	C118.8,150.7,118.8,150.7,118.8,150.7z"/>
<path class="st92" d="M272.6,233.4c-5.5,0-12.5-2.1-21.2-6.5c-11.1-5.6-22.8-13.6-31.3-21.4c-10.7-9.9-14.7-17.7-11.8-23.5
	c1.9-3.9,6.6-5.9,13.9-5.9c12.3,0,31.9,5.6,47.8,13.5c19.9,10,25.3,19.4,18.7,32.6C286.1,227.5,282,233.4,272.6,233.4
	C272.6,233.4,272.6,233.4,272.6,233.4z"/>
<path class="st92" d="M120.8,284.2c-2.9,0-5.7-0.8-9.2-2.5c-3.6-1.8-7.9-4.5-9.7-10c-2.1-6.3-0.3-14.9,5.8-27
	c9.3-18.6,28.6-44.3,40.5-44.3c1.3,0,2.6,0.3,3.7,0.8c2.1,1.1,3.6,3,4.6,5.7c2.2,6.6,0.4,17.3-1.6,25.1
	c-2.5,10.1-6.6,21.2-11.3,30.6C136.1,277.5,129.1,284.2,120.8,284.2C120.8,284.2,120.8,284.2,120.8,284.2z"/>
<path class="st92" d="M192.7,126.5c-1.3,0-2.6-0.3-3.7-0.8c-2.1-1.1-3.6-3-4.6-5.7c-2.2-6.6-0.4-17.3,1.6-25.1
	c2.5-10.1,6.6-21.2,11.3-30.6c7.5-14.9,14.5-21.6,22.7-21.6c2.9,0,5.7,0.8,9.2,2.5c3.6,1.8,7.9,4.5,9.7,10c2.1,6.3,0.3,14.9-5.8,27
	C223.9,100.8,204.7,126.5,192.7,126.5C192.7,126.5,192.7,126.5,192.7,126.5z"/>
<path class="st92" d="M65.2,190.7c-22.4,0-26-9.7-26.6-19.1c-0.3-4.2,0-9.6,3.9-14.1c4.5-5,12.8-7.7,26.1-8.5
	c2.5-0.2,5.2-0.2,7.9-0.2c14.2,0,51.1,3.1,51.9,17.5c0.2,2.5-0.8,4.9-2.8,7.2c-6.4,7.2-28.5,15.5-54.5,17.1
	C69.1,190.6,67.1,190.7,65.2,190.7C65.2,190.7,65.2,190.7,65.2,190.7z"/>
<path class="st92" d="M264.4,178c-14.2,0-51.1-3.1-51.9-17.5c-0.2-2.5,0.8-4.9,2.8-7.2c6.4-7.2,28.5-15.5,54.5-17.1
	c2.1-0.1,4.1-0.2,5.9-0.2c22.4,0,26,9.7,26.6,19.1c0.3,4.2,0,9.6-3.9,14.1c-4.5,5-12.8,7.7-26.1,8.5C269.7,178,267.1,178,264.4,178
	C264.4,178,264.4,178,264.4,178z"/>
<path class="st92" d="M176.3,295.3c-13,0-19.1-9-20.3-30.1c-0.7-12.4,0.3-26.5,2.9-37.8c3.2-14.2,8-21.6,14.4-22c0.2,0,0.3,0,0.5,0
	c6.2,0,11.8,6.9,16.5,20.4c3.8,10.9,6.5,24.7,7.2,36.9c1.3,22.2-4.2,31.6-18.9,32.5C177.8,295.3,177.1,295.3,176.3,295.3z"/>
<path class="st92" d="M167.1,121.5c-6.2,0-11.8-6.9-16.5-20.4c-3.8-10.9-6.5-24.7-7.2-36.9c-1.3-22.2,4.2-31.6,18.9-32.5
	c0.8,0,1.5-0.1,2.3-0.1c13,0,19.1,9,20.3,30.1c0.7,12.4-0.3,26.5-2.9,37.8c-3.2,14.2-8,21.6-14.4,22
	C167.4,121.5,167.2,121.5,167.1,121.5C167.1,121.5,167.1,121.5,167.1,121.5z"/>
<path class="st92" d="M74.7,245.2c-7.6,0-11.6-4.7-14.4-8.8c-2.2-3.3-4.6-7.9-3.5-13.5c1.3-6.5,7.2-13,18.5-20.5
	c14.5-9.6,37-19.7,50-19.7c4.8,0,8.2,1.4,10,4.2c1.3,2,1.7,4.4,1.1,7.2c-1.4,6.8-8.4,15.2-13.9,21c-7.2,7.5-16.4,15.1-25.1,20.8
	C88,242.2,80.7,245.2,74.7,245.2C74.7,245.2,74.7,245.2,74.7,245.2z"/>
<path class="st92" d="M215.4,144.1c-4.8,0-8.2-1.4-10-4.2c-1.3-2-1.7-4.4-1.1-7.2c1.4-6.8,8.4-15.2,13.9-21
	c7.2-7.5,16.4-15.1,25.1-20.8c9.6-6.3,16.9-9.3,22.9-9.3c7.6,0,11.6,4.7,14.4,8.8c2.2,3.3,4.6,7.9,3.5,13.5
	c-1.3,6.5-7.2,13-18.5,20.5C250.9,134,228.4,144.1,215.4,144.1C215.4,144.1,215.4,144.1,215.4,144.1z"/>
<path class="st92" d="M232.8,277.3c-7.6,0-14.8-5.8-23.4-18.8c-11.3-17.1-27.4-52.2-15.6-60c1.4-0.9,3-1.4,4.8-1.4
	c12.5,0,33.8,23.4,44.3,39.3c12.2,18.6,12.4,29.4,0.5,37.2C240.8,275.3,237.2,277.3,232.8,277.3
	C232.8,277.3,232.8,277.3,232.8,277.3z"/>
<path class="st92" d="M142.3,129.8c-12.5,0-33.8-23.4-44.3-39.3C85.7,72,85.6,61.2,97.5,53.3c2.6-1.7,6.2-3.7,10.6-3.7
	c7.6,0,14.8,5.8,23.4,18.8c11.3,17.1,27.4,52.2,15.6,60C145.7,129.4,144.1,129.8,142.3,129.8C142.3,129.8,142.3,129.8,142.3,129.8z"
	/>
<path class="st93" d="M272.5,181.7c14.4-0.9,23.6-4,28.8-9.8c4.9-5.6,5.1-12.3,4.9-16.8c-0.3-4.6-1.3-11.3-7-16.3
	c-5-4.4-12.5-6.4-23.4-6.4c-1.9,0-4,0.1-6.2,0.2c-0.8,0-1.6,0.1-2.4,0.2c-2.2,0.2-3.2-2.7-1.3-3.9c0.6-0.4,1.2-0.8,1.7-1.1
	c12.4-8.2,18.6-15.2,20.2-22.9c1.4-7.1-1.6-12.7-4-16.4c-3-4.5-8.1-10.5-17.6-10.5c-6.8,0-14.7,3.2-25,9.9c-1,0.7-2,1.4-3,2.1
	c-1.8,1.3-4.1-0.8-3.1-2.7c0.6-1,1.1-2.1,1.6-3.1c6.6-13.3,8.5-22.5,6-30c-2.3-6.8-7.7-10.2-11.7-12.2c-2.5-1.3-6.4-3-11-3
	c-12.7,0-20.7,12.7-26.2,23.7c-0.4,0.7-0.7,1.4-1.1,2.2c-1,2-3.9,1.4-4-0.8c0-0.8-0.1-1.6-0.1-2.4c-0.7-12.2-3-20.5-7.2-25.9
	c-4-5.3-9.6-7.8-17-7.8c-0.8,0-1.6,0-2.5,0.1c-5.1,0.3-12.5,1.5-17.5,8.6c-4.2,5.9-5.8,14.8-5,28c0,0.8,0.1,1.5,0.2,2.3
	c0.2,2.2-2.7,3.1-3.9,1.3c-0.4-0.6-0.7-1.1-1.1-1.7c-9.4-14.2-17.6-20.6-26.6-20.6c-5.5,0-9.9,2.5-12.7,4.4
	c-4.2,2.8-9.9,7.5-10.5,16c-0.5,7.1,2.6,15.5,9.9,26.5c0.4,0.6,0.8,1.3,1.3,1.9c1.2,1.8-0.8,4.1-2.7,3.1c-0.7-0.4-1.4-0.7-2.1-1.1
	c-9.5-4.7-16.8-6.9-23-6.9c-11.6,0-16.7,7.5-19.5,13.2c-2.3,4.6-4.9,11.6-1.3,19.4c3,6.6,10,12.4,21.8,18.4c0.1,0,0.2,0.1,0.3,0.1
	c2.1,1,1.5,4.2-0.9,4.3l-0.2,0c-14.5,0.8-23.6,4-28.8,9.8c-4.9,5.6-5.1,12.3-4.9,16.8c0.3,4.6,1.3,11.3,7,16.3
	c5,4.4,12.5,6.4,23.4,6.4c1.9,0,4-0.1,6.2-0.2c0.8,0,1.6-0.1,2.4-0.2c2.2-0.2,3.2,2.7,1.3,3.9c-0.6,0.4-1.2,0.8-1.8,1.2
	c-12.4,8.2-18.6,15.2-20.2,22.9c-1.4,7.1,1.6,12.7,4,16.4c3,4.5,8.1,10.5,17.6,10.5c6.8,0,14.7-3.2,25-9.9c1-0.7,2.1-1.4,3.1-2.1
	c1.8-1.3,4.1,0.8,3.1,2.7c-0.6,1.1-1.1,2.2-1.7,3.2c-6.6,13.3-8.5,22.5-6,30c2.3,6.8,7.7,10.2,11.7,12.2c2.5,1.3,6.4,3,11,3
	c12.7,0,20.7-12.7,26.2-23.7c0.3-0.7,0.7-1.3,1-2c0.9-2,3.9-1.4,4,0.8c0,0.8,0.1,1.6,0.1,2.3c0.7,12.2,3,20.5,7.2,25.9
	c4,5.3,9.6,7.8,17,7.8c0.8,0,1.6,0,2.5-0.1c5.1-0.3,12.5-1.5,17.5-8.6c4.2-5.9,5.8-14.8,5-28c0-0.8-0.1-1.6-0.2-2.4
	c-0.2-2.2,2.7-3.2,3.9-1.3c0.4,0.6,0.8,1.2,1.2,1.8c9.4,14.2,17.6,20.6,26.6,20.6c5.5,0,9.9-2.5,12.7-4.4c4.2-2.8,9.9-7.5,10.5-16
	c0.5-7.1-2.6-15.5-9.9-26.5c-0.4-0.6-0.8-1.3-1.3-1.9c-1.2-1.8,0.8-4.1,2.7-3.1c0.7,0.4,1.4,0.7,2.1,1.1c9.5,4.7,16.8,6.9,23,6.9
	c11.6,0,16.7-7.5,19.5-13.2c2.3-4.6,4.9-11.6,1.3-19.4c-3-6.6-10-12.4-21.8-18.4c-0.1,0-0.2-0.1-0.2-0.1c-2.2-1.1-1.5-4.3,0.9-4.4
	C272.4,181.7,272.4,181.7,272.5,181.7z M245.4,94.1c9.5-6.3,16-8.6,20.7-8.6c5.4,0,8.5,3.1,11.1,7.1c4.9,7.5,6.3,15.2-14,28.6
	c-15.7,10.4-36.8,19.1-47.9,19.1c-3.3,0-5.7-0.8-6.8-2.5C203.6,130.3,225.1,107.5,245.4,94.1z M200.8,66c7.5-15,13.6-19.5,19.3-19.5
	c2.6,0,5,0.9,7.5,2.1c8,4,13.1,10,2.2,31.8c-10.1,20.1-28.1,42.2-37.1,42.2c-0.7,0-1.4-0.1-2-0.4C182.7,118.2,189.9,87.7,200.8,66z
	 M162.5,35.5c0.7,0,1.4-0.1,2-0.1c8.4,0,15.2,3.9,16.5,26.5c1.4,24.3-4.3,55.2-13.7,55.7c-0.1,0-0.2,0-0.3,0
	c-9.2,0-18.5-29.6-19.9-53.7C145.7,39.6,153.1,36,162.5,35.5z M99.6,56.6c2.7-1.8,5.4-3.1,8.5-3.1c5.3,0,11.6,4.1,20.2,17.1
	c13.4,20.3,24.1,49.8,16.7,54.7c-0.7,0.5-1.6,0.7-2.6,0.7c-9.2,0-29-19.2-41.1-37.5C87.8,68.1,92.2,61.5,99.6,56.6z M55.7,106.3
	c2.5-5,5.7-9,12.6-9c4.6,0,10.8,1.8,19.5,6.1c21.8,10.9,45.6,31.3,41.4,39.7c-1.3,2.6-5.1,3.7-10.5,3.7c-11.9,0-31.1-5.6-46.1-13.1
	C50.9,122.9,51.5,114.7,55.7,106.3z M70.9,186.6c-2,0.1-3.9,0.2-5.7,0.2c-19.2,0-22.2-6.9-22.7-15.5c-0.6-9.3,2.1-17.1,26.4-18.5
	c2.5-0.1,5.1-0.2,7.6-0.2c22.7,0,47.6,5.5,48.1,13.9C125.2,175.8,95.2,185.2,70.9,186.6z M95.5,232.7c-9.5,6.3-16,8.6-20.7,8.6
	c-5.4,0-8.5-3.1-11.1-7.1c-4.9-7.5-6.3-15.2,14-28.6c15.7-10.4,36.8-19.1,47.9-19.1c3.3,0,5.7,0.8,6.8,2.5
	C137.2,196.5,115.8,219.3,95.5,232.7z M140.1,260.9c-7.5,15-13.6,19.5-19.3,19.5c-2.6,0-5-0.9-7.5-2.1c-8-4-13.1-10-2.2-31.8
	c10.1-20.1,28.1-42.2,37.1-42.2c0.7,0,1.4,0.1,2,0.4C158.2,208.6,151,239.1,140.1,260.9z M178.4,291.4c-0.7,0-1.4,0.1-2,0.1
	c-8.4,0-15.2-3.9-16.5-26.5c-1.4-24.3,4.3-55.2,13.7-55.7c0.1,0,0.2,0,0.3,0c9.2,0,18.5,29.6,19.9,53.7
	C195.1,287.2,187.7,290.8,178.4,291.4z M241.3,270.3c-2.7,1.8-5.4,3.1-8.5,3.1c-5.3,0-11.6-4.1-20.2-17.1
	c-13.4-20.3-24.1-49.8-16.7-54.7c0.7-0.5,1.6-0.7,2.6-0.7c9.2,0,29,19.2,41.1,37.5C253.1,258.7,248.8,265.4,241.3,270.3z
	 M285.2,220.6c-2.5,5-5.7,9-12.6,9c-4.6,0-10.8-1.8-19.5-6.1c-21.8-10.9-45.6-31.3-41.4-39.7c1.3-2.6,5.1-3.7,10.5-3.7
	c11.9,0,31.1,5.6,46.1,13.1C290,204,289.4,212.2,285.2,220.6z M272,174c-2.5,0.1-5.1,0.2-7.6,0.2c-22.7,0-47.6-5.5-48.1-13.9
	c-0.6-9.3,29.4-18.7,53.7-20.1c2-0.1,3.9-0.2,5.7-0.2c19.2,0,22.2,6.9,22.7,15.5C299,164.8,296.3,172.5,272,174z"/>
<path class="st93" d="M171.1,114.9c0,0,0.1,0,0.1,0l-2.8-44c-0.1-2.1-2-3.8-4.1-3.6c-2.1,0.1-3.7,2-3.6,4.1l2.8,44.2
	C166,115.1,168.6,114.9,171.1,114.9z"/>
<path class="st93" d="M171.1,209.7c-0.5,0-1.1,0-1.6,0l2.9,46.3c0.1,2,1.8,3.6,3.8,3.6c0.1,0,0.2,0,0.2,0c2.1-0.1,3.7-2,3.6-4.1
	l-2.9-46.2C175.1,209.5,173.1,209.7,171.1,209.7z"/>
<path class="st93" d="M123.7,162.5l-45.8,2.9c-2.1,0.1-3.7,2-3.6,4.1c0.1,2,1.8,3.6,3.8,3.6c0.1,0,0.2,0,0.2,0l46.3-2.9
	C124.1,167.6,123.8,165.1,123.7,162.5z"/>
<path class="st93" d="M262.5,153.7l-44.6,2.8c0.3,1.9,0.5,3.8,0.6,5.7c0,0.6,0,1.3,0,2l44.5-2.8c2.1-0.1,3.7-2,3.6-4.1
	C266.5,155.2,264.6,153.6,262.5,153.7z"/>
<path class="st93" d="M140.8,125.8c2-1.6,4.1-3.1,6.4-4.4l-15.3-23c-1.2-1.8-3.6-2.3-5.3-1.1c-1.8,1.2-2.3,3.6-1.1,5.3L140.8,125.8z
	"/>
<path class="st93" d="M224.8,238.3l-25.3-38.1c-2.1,1.5-4.3,2.9-6.6,4l25.5,38.4c0.7,1.1,2,1.7,3.2,1.7c0.7,0,1.5-0.2,2.1-0.6
	C225.5,242.5,226,240.1,224.8,238.3z"/>
<path class="st93" d="M130.3,185.4l-39,25.9c-1.8,1.2-2.3,3.6-1.1,5.3c0.7,1.1,2,1.7,3.2,1.7c0.7,0,1.5-0.2,2.1-0.6l39.1-26
	C133,189.8,131.5,187.7,130.3,185.4z"/>
<path class="st93" d="M250.7,110.1c-1.2-1.8-3.6-2.3-5.3-1.1l-37,24.6c1.5,2,2.9,4.2,4.1,6.5l37.2-24.7
	C251.4,114.2,251.9,111.8,250.7,110.1z"/>
<path class="st93" d="M129.9,139l-15.9-7.9c-1.9-0.9-4.2-0.2-5.2,1.7c-0.9,1.9-0.2,4.2,1.7,5.2l16,7.9
	C127.5,143.5,128.6,141.2,129.9,139z"/>
<path class="st93" d="M255,201.1L214.5,181c-1,2.4-2.3,4.7-3.6,6.8l40.7,20.2c0.6,0.3,1.1,0.4,1.7,0.4c1.4,0,2.8-0.8,3.5-2.1
	C257.7,204.3,256.9,202,255,201.1z"/>
<path class="st91" d="M100.8,132.7c-0.6,0-1.2-0.1-1.7-0.4l-13.3-6.6c-1.9-0.9-2.7-3.3-1.7-5.2c0.9-1.9,3.3-2.7,5.2-1.7l13.3,6.6
	c1.9,0.9,2.7,3.3,1.7,5.2C103.6,131.9,102.2,132.7,100.8,132.7z"/>
<path class="st93" d="M146.6,202.7l-20.8,41.8c-0.9,1.9-0.2,4.2,1.7,5.2c0.6,0.3,1.1,0.4,1.7,0.4c1.4,0,2.8-0.8,3.5-2.1l20.7-41.7
	C151.1,205.2,148.8,204.1,146.6,202.7z"/>
<path class="st93" d="M195.4,121.7L215,82.2c0.9-1.9,0.2-4.2-1.7-5.2c-1.9-0.9-4.2-0.2-5.2,1.7l-19.6,39.4
	C190.9,119.2,193.2,120.4,195.4,121.7z"/>
<ellipse transform="matrix(0.998 -6.291332e-02 6.291332e-02 0.998 -9.9419 11.0451)" class="st1" cx="170.4" cy="163.4" rx="50.1" ry="50.1"/>
<path class="st0" d="M170.4,217.4c-28.2,0-52-22-53.8-50.6c-1.9-29.7,20.8-55.4,50.5-57.3c29.7-1.9,55.4,20.8,57.3,50.5
	c0.9,14.4-3.8,28.3-13.4,39.1c-9.5,10.8-22.7,17.3-37.1,18.2C172.7,217.3,171.5,217.4,170.4,217.4z M124.2,166.3
	c1.6,25.5,23.6,44.8,49.1,43.3c12.3-0.8,23.6-6.3,31.8-15.6c8.2-9.3,12.2-21.2,11.5-33.5s-6.3-23.6-15.6-31.8s-21.2-12.2-33.5-11.5
	C142,118.8,122.6,140.8,124.2,166.3z"/>
<ellipse transform="matrix(0.998 -6.291332e-02 6.291332e-02 0.998 -7.7721 10.8396)" class="st96" cx="168.2" cy="128.8" rx="3.9" ry="3.9"/>
<ellipse transform="matrix(0.998 -6.291332e-02 6.291332e-02 0.998 -12.1227 11.2516)" class="st0" cx="172.6" cy="198.1" rx="3.9" ry="3.9"/>
<ellipse transform="matrix(0.9659 -0.2589 0.2589 0.9659 -31.2069 47.5034)" class="st0" cx="164.7" cy="142.2" rx="3.9" ry="3.9"/>
<ellipse transform="matrix(0.9659 -0.2589 0.2589 0.9659 -41.8309 51.9065)" class="st0" cx="176.1" cy="184.7" rx="3.9" ry="3.9"/>
<ellipse transform="matrix(0.6292 -0.7772 0.7772 0.6292 -59.449 174.6341)" class="st0" cx="153.3" cy="149.6" rx="3.9" ry="3.9"/>
<ellipse transform="matrix(0.6292 -0.7772 0.7772 0.6292 -68.2937 211.5061)" class="st0" cx="187.5" cy="177.3" rx="3.9" ry="3.9"/>
<ellipse transform="matrix(5.220899e-02 -0.9986 0.9986 5.220899e-02 -21.4224 302.0867)" class="st0" cx="148.4" cy="162.3" rx="3.9" ry="3.9"/>
<ellipse transform="matrix(5.220899e-02 -0.9986 0.9986 5.220899e-02 17.9584 348.1779)" class="st0" cx="192.4" cy="164.6" rx="3.9" ry="3.9"/>
<ellipse transform="matrix(0.8386 -0.5447 0.5447 0.8386 -71.0616 111.0996)" class="st0" cx="152" cy="175.5" rx="3.9" ry="3.9"/>
<ellipse transform="matrix(0.8386 -0.5447 0.5447 0.8386 -52.0354 127.3433)" class="st0" cx="188.9" cy="151.5" rx="3.9" ry="3.9"/>
<ellipse transform="matrix(0.3582 -0.9336 0.9336 0.3582 -67.5122 269.8495)" class="st0" cx="162.5" cy="184" rx="3.9" ry="3.9"/>
<ellipse transform="matrix(0.3582 -0.9336 0.9336 0.3582 -19.0077 258.1948)" class="st0" cx="178.3" cy="142.9" rx="3.9" ry="3.9"/>
<ellipse transform="matrix(0.998 -6.291332e-02 6.291332e-02 0.998 -10.1534 8.8703)" class="st96" cx="135.8" cy="165.7" rx="3.9" ry="3.9"/>
<ellipse transform="matrix(0.998 -6.291332e-02 6.291332e-02 0.998 -9.7413 13.2209)" class="st0" cx="205.1" cy="161.3" rx="3.9" ry="3.9"/>
<ellipse transform="matrix(0.6612 -0.7502 0.7502 0.6612 -56.5082 155.9195)" class="st96" cx="144.4" cy="140.5" rx="3.9" ry="3.9"/>
<ellipse transform="matrix(0.6612 -0.7502 0.7502 0.6612 -73.3019 210.5445)" class="st0" cx="196.5" cy="186.4" rx="3.9" ry="3.9"/>
<ellipse transform="matrix(0.6612 -0.7502 0.7502 0.6612 -92.2175 174.8351)" class="st0" cx="147.5" cy="189.5" rx="3.9" ry="3.9"/>
<ellipse transform="matrix(0.6612 -0.7502 0.7502 0.6612 -37.5926 191.6289)" class="st0" cx="193.4" cy="137.4" rx="3.9" ry="3.9"/>
<ellipse transform="matrix(0.898 -0.44 0.44 0.898 -42.3926 81.7705)" class="st0" cx="155.1" cy="132.3" rx="3.9" ry="3.9"/>
<ellipse transform="matrix(0.898 -0.44 0.44 0.898 -25.8126 61.2927)" class="st91" cx="119.3" cy="86.3" rx="3.9" ry="3.9"/>
<ellipse transform="matrix(0.898 -0.44 0.44 0.898 -66.7098 101.5753)" class="st0" cx="185.7" cy="194.7" rx="3.9" ry="3.9"/>
<ellipse transform="matrix(0.898 -0.44 0.44 0.898 -64.4536 79.5143)" class="st0" cx="139.2" cy="178.8" rx="3.9" ry="3.9"/>
<ellipse transform="matrix(0.898 -0.44 0.44 0.898 -44.6488 103.8316)" class="st0" cx="201.6" cy="148.2" rx="3.9" ry="3.9"/>
<ellipse transform="matrix(0.3238 -0.9461 0.9461 0.3238 -51.0065 233.1093)" class="st0" cx="137.6" cy="152.2" rx="3.9" ry="3.9"/>
<ellipse transform="matrix(0.3238 -0.9461 0.9461 0.3238 -27.8587 310.4584)" class="st0" cx="203.3" cy="174.7" rx="3.9" ry="3.9"/>
<ellipse transform="matrix(0.3238 -0.9461 0.9461 0.3238 -78.1072 283.3578)" class="st0" cx="159.2" cy="196.3" rx="3.9" ry="3.9"/>
<ellipse transform="matrix(0.3238 -0.9461 0.9461 0.3238 -0.758 260.2099)" class="st0" cx="181.7" cy="130.6" rx="3.9" ry="3.9"/>
<ellipse transform="matrix(0.9985 -5.554543e-02 5.554543e-02 0.9985 -9.2929 9.7582)" class="st0" cx="170.9" cy="172.1" rx="3.9" ry="3.9"/>
<ellipse transform="matrix(0.9985 -5.554543e-02 5.554543e-02 0.9985 -8.3321 9.6779)" class="st96" cx="169.9" cy="154.7" rx="3.9" ry="3.9"/>
<ellipse transform="matrix(0.9985 -5.554543e-02 5.554543e-02 0.9985 -8.7724 10.1985)" class="st0" cx="179.1" cy="162.9" rx="3.9" ry="3.9"/>
<ellipse transform="matrix(0.9985 -5.554543e-02 5.554543e-02 0.9985 -8.8527 9.2377)" class="st96" cx="161.8" cy="163.9" rx="3.9" ry="3.9"/>
</svg>
