<?xml version="1.0" encoding="utf-8"?>
<!-- Generator: Adobe Illustrator 20.0.0, SVG Export Plug-In . SVG Version: 6.00 Build 0)  -->
<svg version="1.1" id="Layer_1" xmlns="http://www.w3.org/2000/svg" xmlns:xlink="http://www.w3.org/1999/xlink" x="0px" y="0px"
	 viewBox="0 0 250 250" style="enable-background:new 0 0 250 250;" xml:space="preserve">
<style type="text/css">
	.st0{fill:#79B85A;}
	.st1{fill:#006838;}
	.st2{fill:#BDDAAE;}
	.st3{fill:#5A9923;}
	.st4{fill:#3A6617;}
	.st5{fill:#6DB035;}
	.st6{fill:#00ADEE;}
	.st7{fill:#CF8969;}
	.st8{fill:#4E921F;}
	.st9{fill:none;stroke:#4E921F;stroke-width:3;stroke-miterlimit:10;}
	.st10{fill:none;stroke:#65B228;stroke-width:2;stroke-linecap:round;stroke-miterlimit:10;}
	.st11{opacity:0.5;fill:none;stroke:#70BF2C;stroke-miterlimit:10;}
	.st12{fill:#CF8969;stroke:#603813;stroke-width:3;stroke-miterlimit:10;}
	.st13{fill:#CF8969;stroke:#603813;stroke-linecap:round;stroke-miterlimit:10;}
	.st14{fill:none;stroke:#FFFFFF;stroke-linecap:round;stroke-miterlimit:10;}
	.st15{fill:#CF8969;stroke:#603813;stroke-miterlimit:10;}
	.st16{fill:#FFFFFF;}
	.st17{fill:#66A528;}
	.st18{fill:#70BF2C;}
	.st19{fill:#603813;}
	.st20{fill:none;stroke:#79B85A;stroke-width:1.0061;stroke-miterlimit:10;}
	.st21{fill:none;stroke:#006838;stroke-linecap:round;stroke-linejoin:round;stroke-miterlimit:10;}
	.st22{fill:#E1CD83;}
	.st23{fill:#665B3D;}
	.st24{fill:none;stroke:#E57863;stroke-miterlimit:10;}
	.st25{opacity:0.8;fill:none;stroke:#E57863;stroke-miterlimit:10;}
	.st26{opacity:0.6;fill:none;stroke:#E57863;stroke-miterlimit:10;}
	.st27{opacity:0.4;fill:none;stroke:#E57863;stroke-miterlimit:10;}
	.st28{opacity:0.2;fill:none;stroke:#E57863;stroke-miterlimit:10;}
	.st29{opacity:0.5;fill:none;stroke:#FFFFFF;stroke-linecap:round;stroke-miterlimit:10;}
	.st30{opacity:0.4;fill:none;stroke:#FFFFFF;stroke-linecap:round;stroke-miterlimit:10;}
	.st31{fill:#E37866;}
	.st32{fill:#E2896C;}
	.st33{fill:#E19A74;}
	.st34{fill:#E2AB7A;}
	.st35{fill:#E1BB81;}
	.st36{fill:#E57863;}
</style>
<g>
	<g>
		<path class="st0" d="M150.5,185.2l-6.3-80.1c-7.7-3.1-19.7-8.8-31.7-17.6C93.4,73.6,81.8,57.3,81.3,56.6c-1.5-2.1-1.4-4.8,0.1-6.9
			c1.1-1.5,2.9-2.4,4.7-2.4c0.6,0,1.2,0.1,1.8,0.3c0.8,0.3,19.8,6.4,38.9,20.3c5.9,4.3,11.1,8.9,15.5,13.1l-0.5-6.5
			c-0.2-2.1,0.5-4.1,1.8-5.7c1.4-1.6,3.3-2.6,5.3-2.7c0.1,0,0.1,0,0.2,0c0.1,0,0.3,0,0.4,0c4.1,0,7.6,3.2,7.9,7.2l1,13l5.6-71.1
			c0.3-4,3.7-7.2,7.8-7.2c0.2,0,0.4,0,0.6,0c2.1,0.2,4,1.1,5.4,2.7c1.4,1.6,2,3.6,1.8,5.7l-3.8,47.6c2.7-2.4,5.7-4.9,9-7.3
			c15-11,30-15.8,30.7-16c0.6-0.2,1.2-0.3,1.8-0.3c1.8,0,3.6,0.9,4.7,2.4c1.5,2,1.5,4.8,0.1,6.9c-0.4,0.5-9.5,13.4-24.5,24.4
			c-8.8,6.4-17.6,10.7-23.5,13.3l-2.2,27.8c5.2-5.2,11.6-10.9,18.9-16.3c21.2-15.5,42.3-22.3,43.2-22.6c0.6-0.2,1.2-0.3,1.8-0.3
			c1.8,0,3.6,0.9,4.7,2.4c1.5,2,1.5,4.8,0.1,6.9c-0.5,0.8-13.4,18.8-34.6,34.3c-14,10.2-28.1,16.7-36,19.9l-3.7,46.4L150.5,185.2z"
			/>
	</g>
	<path class="st1" d="M156.3,183.9l-6.2-78.8c-0.2-2.5-1.8-4.6-4.1-5.6c-7.1-2.9-18.6-8.4-30.1-16.8c-12.8-9.4-22.2-19.9-26.7-25.5
		c-0.9-1.2,0.3-2.8,1.7-2.3c6.7,2.6,19.6,8.4,32.4,17.7c10.5,7.7,18.7,16.2,23.8,22.1c0.7,0.8,2.1,0.3,2-0.9l-1.6-19.8
		c-0.1-1.1,0.7-2,1.8-2.1c0,0,0.1,0,0.1,0c1,0,1.9,0.8,2,1.8l8.8,111.1l11.3,7.4l4-48.7c8.9-3.8,21.4-10,33.9-19.2
		c22-16,35.4-34.9,35.9-35.7c2.9-4.1,2.9-9.6-0.1-13.7c-2.3-3.1-5.8-4.8-9.5-4.8c-1.2,0-2.4,0.2-3.5,0.5
		c-0.9,0.3-22.9,7.4-44.9,23.4c-1.8,1.3-3.5,2.6-5.1,3.9c-1.3,1-3.1,0-3-1.6l0.2-2.5c0.1-1.7,1.1-3.1,2.6-3.8
		c5.6-2.7,12.3-6.4,19-11.3c15.8-11.5,25.5-25.1,25.9-25.7c2.9-4.1,2.9-9.6-0.1-13.7c-2.3-3.1-5.8-4.8-9.5-4.8
		c-1.2,0-2.4,0.2-3.5,0.5c-0.6,0.2-13.7,4.4-27.8,13.7c-1.3,0.8-3-0.1-2.8-1.7l2.4-30.3c0.3-3.6-0.8-7.2-3.2-10
		c-2.4-2.8-5.7-4.5-9.4-4.8c-0.4,0-0.7,0-1.1,0h0c-7.1,0-13.1,5.6-13.7,12.6l-3.4,43.2c-0.1,1.5-1.5,2.7-3.1,2.4
		c-0.7-0.1-1.4-0.2-2.2-0.2c-0.2,0-0.4,0-0.7,0c-1,0-2,0.2-3,0.5c-2.4,0.7-4.6,2-6.3,3.9c-0.4,0.4-0.7,0.9-1.1,1.3
		c-0.9,1.2-2.6,1.4-3.7,0.5c-1.4-1.1-2.9-2.3-4.4-3.4C110.4,48.7,90.5,42.3,89.7,42c-1.2-0.4-2.4-0.5-3.5-0.5
		c-3.7,0-7.2,1.7-9.5,4.8c-3,4.1-3,9.6-0.1,13.7C77,60.7,89.2,77.8,109,92.3c8,5.8,15.9,10.3,22.7,13.7c4.3,2.1,7.2,6.3,7.5,11.1
		l5.4,68.2L156.3,183.9z M202.5,114.9c-13.2,9.7-26.5,15.8-34.3,19c-2.3,0.9-3.9,3.1-4.1,5.6l-0.8,9.9c-0.1,1.1-1.7,1.1-1.8,0
		l-1-12.4c0-0.5,0-1.1,0-1.6l9.4-119.7c0.1-1,1-1.8,2-1.8c0,0,0.1,0,0.1,0c1.1,0.1,1.9,1,1.8,2.1L169,76.5c-0.1,1.1,1.3,1.7,2,0.9
		c4-4.5,9.9-10.4,17.3-15.8c9.3-6.8,18.6-11.1,24.1-13.3c1.4-0.6,2.7,1.1,1.7,2.3c-3.8,4.5-10.7,12.1-20,18.9
		c-8.2,6-16.3,10-21.9,12.4c-2.3,1-3.8,3.1-4,5.6l-3.2,40.8c-0.1,1.1,1.3,1.7,2,0.9c5.6-6.6,15-16.5,27.3-25.4
		c14.7-10.7,29.5-17.2,36.8-20c1.4-0.5,2.6,1.1,1.7,2.3C227.8,92.1,217.1,104.2,202.5,114.9z"/>
	<g>
		<path class="st2" d="M221.9,94.1c-0.6,0-1.2-0.3-1.6-0.8c-0.6-0.9-0.5-2.1,0.4-2.7l1.1-0.8c0.9-0.6,2.1-0.5,2.7,0.4
			s0.5,2.1-0.4,2.7l-1.1,0.8C222.7,93.9,222.3,94.1,221.9,94.1z"/>
	</g>
	<g>
		<path class="st2" d="M209.1,103.4c-0.6,0-1.2-0.3-1.6-0.8c-0.6-0.9-0.4-2.1,0.4-2.7l1.7-1.3c0.9-0.6,2.1-0.4,2.7,0.4
			c0.6,0.9,0.4,2.1-0.4,2.7l-1.7,1.3C209.9,103.3,209.5,103.4,209.1,103.4z"/>
	</g>
	<g>
		<path class="st2" d="M184.6,121.4c-0.6,0-1.2-0.3-1.6-0.8c-0.6-0.9-0.4-2.1,0.4-2.7l17.1-12.5c0.9-0.6,2.1-0.4,2.7,0.4
			c0.6,0.9,0.4,2.1-0.4,2.7L185.8,121C185.4,121.2,185,121.4,184.6,121.4z"/>
	</g>
	<g>
		<path class="st2" d="M174.3,128.9c-0.6,0-1.2-0.3-1.6-0.8c-0.6-0.9-0.4-2.1,0.4-2.7l1.4-1c0.9-0.6,2.1-0.4,2.7,0.4
			c0.6,0.9,0.4,2.1-0.4,2.7l-1.4,1C175.1,128.8,174.7,128.9,174.3,128.9z"/>
	</g>
	<g>
		<path class="st2" d="M139.5,94.2c-0.4,0-0.8-0.1-1.2-0.4l-1.1-0.8c-0.9-0.6-1.1-1.9-0.4-2.7c0.6-0.9,1.9-1.1,2.7-0.4l1.1,0.8
			c0.9,0.6,1.1,1.9,0.4,2.7C140.7,93.9,140.1,94.2,139.5,94.2z"/>
	</g>
	<g>
		<path class="st2" d="M132,88.7c-0.4,0-0.8-0.1-1.2-0.4L119,79.7c-0.9-0.6-1.1-1.9-0.4-2.7c0.6-0.9,1.9-1.1,2.7-0.4l11.8,8.6
			c0.9,0.6,1.1,1.9,0.4,2.7C133.2,88.4,132.6,88.7,132,88.7z"/>
	</g>
	<g>
		<path class="st2" d="M113.3,75c-0.4,0-0.8-0.1-1.2-0.4l-7.8-5.7c-0.9-0.6-1.1-1.9-0.4-2.7c0.6-0.9,1.9-1.1,2.7-0.4l7.8,5.7
			c0.9,0.6,1.1,1.9,0.4,2.7C114.5,74.8,113.9,75,113.3,75z"/>
	</g>
	<g>
		<path class="st2" d="M99.6,65c-0.4,0-0.8-0.1-1.2-0.4L97.6,64c-0.9-0.6-1.1-1.9-0.4-2.7c0.6-0.9,1.9-1.1,2.7-0.4l0.9,0.6
			c0.9,0.6,1.1,1.9,0.4,2.7C100.8,64.7,100.2,65,99.6,65z"/>
	</g>
	<g>
		<path class="st2" d="M154.1,157.2c-1,0-1.9-0.8-1.9-1.8l-2.7-34.3c-0.1-1.1,0.7-2,1.8-2.1c1.1-0.1,2,0.7,2.1,1.8l2.7,34.3
			c0.1,1.1-0.7,2-1.8,2.1C154.2,157.2,154.1,157.2,154.1,157.2z"/>
	</g>
	<g>
		<path class="st2" d="M167.4,49c-0.1,0-0.1,0-0.2,0c-1.1-0.1-1.9-1-1.8-2.1l1.6-19.5c0.1-1.1,1-1.9,2.1-1.8c1.1,0.1,1.9,1,1.8,2.1
			l-1.6,19.5C169.3,48.3,168.4,49,167.4,49z"/>
	</g>
	<g>
		<path class="st2" d="M179.8,75.6c-0.6,0-1.2-0.3-1.6-0.8c-0.6-0.9-0.4-2.1,0.4-2.7l15-10.9c0.9-0.6,2.1-0.4,2.7,0.4
			c0.6,0.9,0.4,2.1-0.4,2.7l-15,10.9C180.6,75.5,180.2,75.6,179.8,75.6z"/>
	</g>
	<g>
		<path class="st2" d="M199.7,61.1c-0.6,0-1.2-0.3-1.6-0.8c-0.6-0.9-0.4-2.1,0.4-2.7l1-0.7c0.9-0.6,2.1-0.4,2.7,0.4
			c0.6,0.9,0.4,2.1-0.4,2.7l-1,0.7C200.5,61,200.1,61.1,199.7,61.1z"/>
	</g>
</g>
<g>
	<g>
		<path class="st22" d="M48.1,202c-4.3-10.1-1.9-18.3,0.1-19.2c1.9-0.9,9.7,2.5,14.7,12.1c5.8-2.3,12.2-4.4,19.3-6.1
			c10.5-2.5,18.3-2,23.9-0.1c6.9,2.3,14.2,2.7,21.4,2c8-0.8,15.3-0.8,21.8-0.2c2.7-8.8,8.5-13.2,10.4-12.8c1.9,0.3,5.8,6.4,5.4,15.6
			c9.2,2.6,14.7,6.3,15.4,9.1c1.5,6.4-18.5,29.7-59.1,39.2c-10.5,2.5-18.3,2-23.9,0.1c-6.9-2.3-14.2-2.7-21.4-2
			c-31.1,3.2-51.7-6.2-53-11.7C22.1,223.7,30.6,212.1,48.1,202z"/>
	</g>
	<g>
		<path class="st16" d="M73.8,210.3c1.1-0.2,1.9-1.2,1.7-2.3L73,191c-0.2-1.1-1.2-1.9-2.3-1.7c-1.1,0.2-1.9,1.2-1.7,2.3l2.4,17
			C71.6,209.7,72.7,210.5,73.8,210.3z"/>
	</g>
	<g>
		<path class="st16" d="M90.8,192.3l1.3,9.2c0.2,1.1-0.6,2.1-1.7,2.3c-1.1,0.2-2.1-0.6-2.3-1.7l-1.4-9.9L90.8,192.3z"/>
	</g>
	<g>
		<path class="st23" d="M101.1,227.6c1.1-0.2,1.9-1.2,1.7-2.3l-0.8-5.4c-0.2-1.1-1.2-1.9-2.3-1.7c-1.1,0.2-1.9,1.2-1.7,2.3l0.8,5.4
			C99,227,100,227.8,101.1,227.6z"/>
	</g>
	<g>
		<path class="st23" d="M82.7,224.8c1.1-0.2,1.9-1.2,1.7-2.3l-2-13.9c-0.2-1.1-1.2-1.9-2.3-1.7c-1.1,0.2-1.9,1.2-1.7,2.3l2,13.9
			C80.5,224.2,81.6,224.9,82.7,224.8z"/>
	</g>
	<g>
		
			<rect x="156.3" y="171.9" transform="matrix(0.1938 -0.981 0.981 0.1938 -50.7394 302.2223)" class="st31" width="4.4" height="20.2"/>
	</g>
	<g>
		
			<rect x="156.3" y="176.3" transform="matrix(0.1938 -0.981 0.981 0.1938 -55.1364 305.8356)" class="st32" width="4.4" height="20.2"/>
	</g>
	<g>
		
			<rect x="156.3" y="180.8" transform="matrix(0.1938 -0.981 0.981 0.1938 -59.5244 309.4415)" class="st33" width="4.4" height="20.2"/>
	</g>
	<g>
		
			<rect x="156.3" y="185.3" transform="matrix(0.1938 -0.981 0.981 0.1938 -63.9023 313.0726)" class="st34" width="4.4" height="20.2"/>
	</g>
	<g>
		
			<rect x="153.8" y="191.9" transform="matrix(0.1938 -0.981 0.981 0.1938 -69.8479 313.7755)" class="st35" width="4.4" height="15.1"/>
	</g>
	<g>
		<path class="st36" d="M45.6,190.7l10.1-4.2c-1.3-0.9-2.3-2.1-2.9-3.5l-7,2.9C46.1,187.5,46.1,189.2,45.6,190.7z"/>
	</g>
	<g>
		
			<rect x="41.6" y="188.4" transform="matrix(0.9222 -0.3868 0.3868 0.9222 -69.6831 34.8434)" class="st32" width="20.2" height="4.4"/>
	</g>
	<g>
		
			<rect x="42.5" y="192.8" transform="matrix(0.9222 -0.3868 0.3868 0.9222 -71.3081 35.5318)" class="st33" width="20.2" height="4.4"/>
	</g>
	<g>
		
			<rect x="43.4" y="197.1" transform="matrix(0.9222 -0.3868 0.3868 0.9222 -72.9386 36.2137)" class="st34" width="20.2" height="4.4"/>
	</g>
	<g>
		
			<rect x="49.3" y="200.5" transform="matrix(0.9222 -0.3868 0.3868 0.9222 -73.9921 37.7502)" class="st35" width="15.1" height="4.4"/>
	</g>
	<g>
		<path class="st23" d="M17.2,229.4c2.4,10.3,27.5,19.6,59.5,16.3c7.1-0.7,13.4-0.2,18.8,1.7c5.9,2,12.8,2.4,20.7,1.3
			c2.1-0.3,4.3-0.7,6.6-1.2c41-9.6,66.5-34.5,63.6-46.5c-1.3-5.4-7.7-9.2-13.6-11.5c-1-0.4-1.8-1.3-1.9-2.4
			c-1.2-8.1-5.1-14.5-10.1-15.4c-4.9-0.9-10.8,3.7-14.6,10.8c-0.6,1-1.7,1.6-2.8,1.6c-5.4-0.2-10.9,0-16.4,0.6
			c-7.1,0.7-13.4,0.2-18.8-1.7c-7.5-2.5-16.6-2.6-27.3-0.1c-4.5,1.1-9,2.3-13.3,3.8c-1.2,0.4-2.6,0-3.4-1c-5.8-7-13.4-10.8-18.5-8.5
			c-5.2,2.4-7.2,11-5.3,20.1c0.2,1.2-0.2,2.5-1.3,3.2C26,209.3,15.2,221,17.2,229.4z M62.1,203.6c-0.8,1.5-2.4,2.3-3,2.6
			c-2.1,1-6.1,1.8-8.8-4.1c-0.7-1.4-1.2-2.8-1.6-4.2c-0.2-0.7,0.1-1.5,0.8-1.8l2.6-1.3c1.1-0.5,1.5-1.9,0.8-3
			c-0.6-0.8-1.7-1-2.6-0.6l-0.4,0.2c-1.1,0.5-2.3-0.3-2.2-1.5c0.1-1.6,0.3-3,0.6-3.9c0.3-0.9,1.3-1.4,2.2-1c2.3,0.9,6,3.5,9.1,8.4
			c0.5,0.8,0.2,1.8-0.6,2.2l-4.5,2.1c-0.9,0.5-1.5,1.5-1.1,2.5c0.3,1,1.3,1.5,2.2,1.3c0.2,0,0.4-0.1,0.6-0.2l4.2-2
			c1-0.5,2.2,0.3,2.2,1.4C62.8,201.9,62.6,202.8,62.1,203.6z M162.4,197.9c-0.5,1.6-1.4,3.9-3.2,4.8c-1.5,0.8-3.3,0.6-3.9,0.5
			c-0.7-0.1-2.3-0.5-3.5-1.8c-1.4-1.4-1.9-3.7-1.3-6.6l0,0c1.4-7.8,5.3-12.6,7.7-14.3c0.7-0.6,1.8-0.4,2.3,0.4
			c1.1,1.7,2.4,5,2.7,9.4c0.1,1-0.9,1.8-1.8,1.6l-6-1.1c-1.2-0.2-2.3,0.6-2.4,1.8c-0.1,1.1,0.7,2,1.8,2.2l6.6,1.2
			C162.1,196.1,162.6,197,162.4,197.9z M155.6,207.3c0.7,0.1,1.6,0.1,2.4-0.1c0.9-0.1,1.9-0.4,2.9-0.9c1.5-0.7,3.2-2.1,4.5-4.7
			c0.5-1,1.6-1.4,2.6-1c1.9,0.7,3.4,1.5,4.5,2.1c1,0.6,1.4,1.9,0.7,2.9c-2.3,3.5-7.4,8.8-15.5,14.2c-0.6,0.4-1.5,0-1.6-0.7l-0.2-1.3
			c-0.2-1.2-1.4-2-2.6-1.6c-1,0.3-1.5,1.3-1.4,2.3l0.4,3.1c0.1,0.8-0.3,1.7-1,2.1c-2.8,1.6-5.9,3.1-9.3,4.6
			c-1.3,0.6-2.7-0.2-2.9-1.6l-2.7-18.8c-0.2-1.2-1.4-2-2.6-1.6c-1,0.3-1.5,1.3-1.4,2.3l2.9,20.6c0.1,1-0.4,1.9-1.3,2.2
			c-3,1.1-6.2,2.1-9.5,3c-1.2,0.3-2.4-0.5-2.6-1.7l-2.7-18.9c-0.2-1.2-1.4-2-2.6-1.6c-1,0.3-1.5,1.3-1.4,2.3
			c0.5,3.5,2.1,14.9,2.8,19.5c0.2,1.1-0.6,2.1-1.7,2.3c-3.7,0.7-7.1,0.9-10.2,0.7c-0.9-0.1-1.7-0.7-1.8-1.7l-0.4-2.9
			c-0.2-1.3-1.6-2.2-2.9-1.5c-0.8,0.4-1.2,1.3-1.1,2.2v0c0.2,1.4-1,2.5-2.4,2.2c-5.1-1.2-10.7-2-10.7-2c-0.5,0-0.9-0.4-1-0.9
			l-0.4-2.8c-0.2-1.2-1.4-2-2.6-1.6c-1,0.3-1.5,1.3-1.4,2.3l0.1,0.5c0.2,1.2-0.7,2.3-1.9,2.4c-1.4,0.1-2.7,0.2-4.1,0.3
			c-1.9,0.2-3.7,0.3-5.5,0.4c-1.1,0.1-2-0.7-2.2-1.8l-0.9-6.1c-0.2-1.2-1.4-2-2.6-1.6c-1,0.3-1.5,1.3-1.4,2.3l0.7,5
			c0.2,1.3-0.8,2.4-2.1,2.4c-3-0.1-5.8-0.2-8.4-0.5c-0.9-0.1-1.7-0.8-1.8-1.8l-2.2-15.3c-0.2-1.2-1.4-2-2.6-1.6
			c-1,0.3-1.5,1.3-1.4,2.3l1.8,12.7c0.2,1.4-1.1,2.6-2.5,2.3c-6.3-1.4-10.7-3.2-13.3-4.7c-1-0.6-1.4-1.9-0.7-2.9
			c2.4-3.5,7.9-9.5,17.8-15.7c0.7-0.5,1.7-0.4,2.4,0.1c2.2,1.7,4.7,2.1,7,1.8c0.6-0.1,1.1-0.2,1.7-0.4c0.6-0.2,1.3,0.2,1.3,0.8
			l1.1,8c0.2,1.2,1.4,2,2.6,1.6c1-0.3,1.5-1.3,1.3-3l-1.4-9.5c-0.1-0.6,0.1-1.1,0.4-1.6c0.3-0.4,0.6-0.8,0.9-1.3
			c0.7-1.2,1.2-2.8,1.1-4.9c0-0.5,0.2-0.9,0.7-1.1c2.3-0.9,4.5-1.6,6.9-2.4c1.2-0.4,2.4,0.4,2.6,1.7l0.4,3.1c0.2,1.2,1.4,2,2.6,1.6
			c1-0.3,1.5-1.3,1.4-2.3l-0.7-5c-0.1-0.5,0.3-1,0.8-1.1c0.7-0.2,1.4-0.4,2.2-0.5c3.1-0.7,6-1.2,8.6-1.4c1.1-0.1,2,0.7,2.2,1.7
			l2.6,18.3c0.2,1.2,1.4,2,2.6,1.6c1-0.3,1.5-1.3,1.4-2.3c-0.4-3.1-1.7-12.2-2.4-16.8c-0.2-1.4,1-2.5,2.4-2.3
			c1.1,0.2,2.1,0.5,3.1,0.8c2.2,0.8,4.6,1.4,7,1.8c0.9,0.2,1.6,0.8,1.7,1.7l0.3,2.1c0.2,1.2,1.4,2,2.6,1.6c1-0.3,1.5-1.3,1.4-2.3
			l0,0c-0.2-1.2,0.8-2.4,2.1-2.3c2.9,0.1,5.8,0,8.9-0.3c5.5-0.6,10.9-0.7,16.1-0.5c1,0,1.9,0.8,2,1.9c0.3,3,1.5,4.9,2.6,6.1
			c0.1,0.1,0.3,0.3,0.4,0.4c0.6,0.5,0.9,1.2,1,1.9l0.7,4.6c0.2,1.2,1.4,2,2.6,1.6c1-0.3,1.5-1.3,1.4-2.3l-0.3-2
			C154.4,207.8,155,207.2,155.6,207.3z"/>
	</g>
	<g>
		<ellipse transform="matrix(0.99 -0.1413 0.1413 0.99 -29.7393 12.6975)" class="st16" cx="74.5" cy="215.7" rx="2" ry="2"/>
	</g>
	<g>
		<ellipse transform="matrix(0.99 -0.1413 0.1413 0.99 -28.0731 18.4953)" class="st23" cx="116.2" cy="206.9" rx="2" ry="2"/>
	</g>
</g>
</svg>
