<svg xmlns="http://www.w3.org/2000/svg" width="48" height="48" viewBox="0 0 48 48"><path fill="#388E3C" d="M20,42.986C20,26.007,27.264,11.928,29,9c-0.852,2.774-3,8-3,34.014L20,42.986z"/><path fill="#388E3C" d="M24,42.975C24,29.27,34.963,13.556,38,11c-1.684,2.342-8,12.291-8,32.025L24,42.975z"/><path fill="#388E3C" d="M19,43c0-17-5.631-25.871-7-28c1.765,1.823,13,16.016,13,28H19z"/><g><path fill="#8BC34A" d="M29 43c0-13.638 11.218-24.641 13-26-1.431 1.717-7 11-7 26H29zM14 43c0-15.034-6.457-24.327-8-26 1.877 1.3 14 12.746 14 26H14z"/></g><g><path fill="#4CAF50" d="M19.428 22.989c.372 1.44.668 2.895.917 4.356 2.538 4.838 4.652 10.449 4.655 15.647l2-.017c-.25-3.555-.745-7.176-1.516-10.682-.777-3.517-1.833-6.964-3.214-10.265-1.376-3.3-3.074-6.455-5.105-9.354C15.124 9.794 12.796 7.09 10 5c2.458 2.462 4.324 5.409 5.879 8.447C17.42 16.501 18.587 19.713 19.428 22.989zM21.001 43c0 .008-.001.017-.001.024L24 43H21.001z"/></g></svg>