<?xml version="1.0" encoding="utf-8"?>
<!-- Generator: Adobe Illustrator 20.0.0, SVG Export Plug-In . SVG Version: 6.00 Build 0)  -->
<svg version="1.1" id="Layer_1" xmlns="http://www.w3.org/2000/svg" xmlns:xlink="http://www.w3.org/1999/xlink" x="0px" y="0px"
	 viewBox="0 0 64 64" style="enable-background:new 0 0 64 64;" xml:space="preserve">
<style type="text/css">
	.st0{display:none;}
	.st1{display:inline;fill:#D1A982;}
	.st2{display:inline;}
	.st3{fill:#AFD048;stroke:#6B9311;stroke-width:3;stroke-miterlimit:10;}
	.st4{fill:none;stroke:#6B9311;stroke-miterlimit:10;}
	.st5{fill:#AFD048;}
	.st6{fill:#F40000;stroke:#BA0D0D;stroke-width:3;stroke-miterlimit:10;}
	.st7{fill:none;stroke:#FFFFFF;stroke-linecap:round;stroke-linejoin:round;stroke-miterlimit:10;}
	.st8{fill:#CDA347;stroke:#A2690C;stroke-width:3;stroke-miterlimit:10;}
	.st9{fill:#A2CC62;}
	.st10{fill:#68664C;stroke:#522B25;stroke-width:3;stroke-linecap:round;stroke-linejoin:round;stroke-miterlimit:10;}
	.st11{fill:#B63E34;stroke:#522B25;stroke-width:3;stroke-miterlimit:10;}
	.st12{fill:#ADD481;}
	.st13{fill:#68664C;}
	.st14{fill:#593156;stroke:#331E31;stroke-width:3;stroke-miterlimit:10;}
	.st15{fill:none;stroke:#FFFFFF;stroke-linecap:round;stroke-miterlimit:10;}
	.st16{fill:#22B573;stroke:#184C28;stroke-width:3;stroke-linecap:round;stroke-linejoin:round;stroke-miterlimit:10;}
	.st17{fill:#EE0000;}
	.st18{fill:#9A0601;}
	.st19{fill:#EE0000;stroke:#9A0601;stroke-linecap:round;stroke-linejoin:round;stroke-miterlimit:10;}
	.st20{fill:#FFFFFF;}
	.st21{clip-path:url(#SVGID_2_);}
	.st22{fill:#00FFFF;}
	.st23{fill:#456A0A;}
	.st24{fill:#183300;}
	.st25{fill:#FF2214;}
	.st26{fill:#661900;}
	.st27{fill:#88A501;}
	.st28{fill:#3B6700;}
	.st29{fill:#FC4100;}
	.st30{fill:#9F0500;}
	.st31{fill:none;stroke:#6B9311;stroke-width:3;stroke-linecap:round;stroke-miterlimit:10;}
	.st32{fill:#6B9311;}
	.st33{fill:#593156;}
	.st34{fill:#331E31;}
	.st35{fill:#AFD048;stroke:#6B9311;stroke-width:3;stroke-linecap:round;stroke-linejoin:round;stroke-miterlimit:10;}
	.st36{fill:none;stroke:#6B9311;stroke-linejoin:round;stroke-miterlimit:10;}
	.st37{fill:#B63E34;stroke:#522B25;stroke-miterlimit:10;}
	.st38{fill:none;stroke:#522B25;stroke-miterlimit:10;}
	.st39{fill:none;stroke:#522B25;stroke-width:3;stroke-miterlimit:10;}
	.st40{fill:#B63E34;}
	.st41{fill:#522B25;}
	.st42{fill:none;stroke:#40760E;stroke-width:3;stroke-linecap:round;stroke-linejoin:round;stroke-miterlimit:10;}
	.st43{fill:none;stroke:#40760E;stroke-linecap:round;stroke-linejoin:round;stroke-miterlimit:10;}
	.st44{fill:#A2CC62;stroke:#40760E;stroke-width:3;stroke-linecap:round;stroke-linejoin:round;stroke-miterlimit:10;}
	.st45{fill:#A2CC62;stroke:#40760E;stroke-linecap:round;stroke-linejoin:round;stroke-miterlimit:10;}
	.st46{fill:#9EC161;}
	.st47{fill:#40760E;}
	.st48{fill:#AFD048;stroke:#6B9311;stroke-width:3;stroke-linejoin:round;stroke-miterlimit:10;}
	.st49{fill:#663965;}
	.st50{fill:#9D610B;}
	.st51{fill:none;stroke:#A2690C;stroke-linecap:round;stroke-miterlimit:10;}
	.st52{fill:#6D4E2B;}
	.st53{fill:#CDA347;}
	.st54{fill:#7F500A;}
	.st55{fill:#F40000;stroke:#BA0D0D;stroke-miterlimit:10;}
	.st56{fill:#F40000;stroke:#B63E34;stroke-width:3;stroke-miterlimit:10;}
	.st57{fill:#F40000;stroke:#B63E34;stroke-miterlimit:10;}
	.st58{fill:#F40000;stroke:#990D0D;stroke-width:3;stroke-miterlimit:10;}
	.st59{fill:#F40000;stroke:#990D0D;stroke-miterlimit:10;}
	.st60{fill:#F40000;}
	.st61{fill:#990D0D;}
	.st62{fill:#FF9D00;}
	.st63{fill:#E6681E;}
	.st64{fill:#FFCB00;}
	.st65{fill:#B58B06;}
	.st66{fill:#3A4C09;}
	.st67{fill:#B94850;stroke:#6C0A04;stroke-width:3;stroke-miterlimit:10;}
	.st68{fill:#CE8645;stroke:#CE8645;stroke-width:0.5;stroke-miterlimit:10;}
	.st69{fill:#6C0A04;stroke:#6C0A04;stroke-width:0.5;stroke-miterlimit:10;}
	.st70{fill:none;stroke:#6C0A04;stroke-linecap:round;stroke-miterlimit:10;}
	.st71{fill:#B94850;}
	.st72{fill:#CE8645;}
	.st73{fill:#6C0A04;}
	.st74{fill:#8C4F6F;}
	.st75{fill:#E7C456;}
	.st76{fill:#391A26;}
	.st77{fill:#E7C456;stroke:#AC5E17;stroke-width:3;stroke-miterlimit:10;}
	.st78{fill:#4F250E;stroke:#4F250E;stroke-width:0.5;stroke-miterlimit:10;}
	.st79{fill:none;stroke:#AC5E17;stroke-linecap:round;stroke-miterlimit:10;}
	.st80{fill:#4F250E;}
	.st81{fill:#995116;}
</style>
<g class="st0">
	<rect x="-838.4" y="-1325.8" class="st1" width="919.6" height="2155.1"/>
	<path class="st2" d="M80.7-1325.3V828.8h-918.6v-2154.1H80.7 M81.7-1326.3h-920.6V829.8H81.7V-1326.3L81.7-1326.3z"/>
</g>
<path class="st5" d="M38.7,8.6L38.7,8.6c-0.8,1.4-2.6,2-4,1.2l-1-0.6l1.4,9.7l-5.9,0.9l-1.9-13c-0.3-2.2,1.2-4.3,3.5-4.7l0,0
	c1.2-0.2,2.4,0,3.5,0.6l3.4,1.9C39,5.3,39.5,7.1,38.7,8.6z"/>
<path class="st32" d="M40.4,5.9c-0.3-1.1-1.1-2.1-2.1-2.7l-3.4-1.9c-1.3-0.7-2.9-1-4.4-0.8c-1.5,0.2-2.8,1-3.7,2.2
	c-0.9,1.2-1.3,2.7-1,4.2l1.4,9.4c0.9-0.4,1.8-0.8,2.9-0.9l-1.3-8.9c0.8,0,1.6,0.2,2.3,0.6l0.8,0.5l1.1,7.7c1.2,0.1,2.2,0.4,3.1,0.8
	l-0.7-4.5c0.6,0.1,1.2,0,1.9-0.1c1.1-0.3,2.1-1.1,2.7-2.1C40.6,8.2,40.8,7,40.4,5.9z M37.4,7.8c-0.4,0.7-1.3,1-2,0.6l-2.8-1.5
	l-1-0.6c-0.9-0.5-1.8-0.7-2.8-0.7c0.1-0.4,0.2-0.7,0.5-1c0.4-0.6,1-0.9,1.7-1c0.2,0,0.4,0,0.6,0c0.7,0,1.3,0.2,1.9,0.5l3.4,1.9
	c0.3,0.2,0.6,0.5,0.7,0.9C37.7,7.1,37.6,7.5,37.4,7.8z"/>
<path class="st32" d="M44.3,15c-2.5,0-4.7,0.8-6.2,2.7c-1.5-2-3.7-2.7-6.1-2.7c-2.5,0-5.1,1-6.2,2.8c-2.3-2.9-6.1-2.8-6.1-2.8
	c-5.1,0-11.5,4.4-11.5,20.5s7.4,26.5,12.5,26.5c0,0,4.8,0.3,7.4-2.6c1.4,1.7,2.2,2.6,3.9,2.6c1.6,0,2.9-1.2,4.4-3.5
	c1.8,2,4,3.5,6.8,3.5c5.1,0,12.5-10.4,12.5-26.5S49.3,15,44.3,15z"/>
<path class="st20" d="M13.4,26.3c0,0-0.1,0-0.1,0c-0.3-0.1-0.4-0.4-0.3-0.6c0.9-3.1,2.3-5.3,4.1-6.4c0.2-0.1,0.5-0.1,0.7,0.2
	s0.1,0.5-0.2,0.7c-1.6,1-2.8,3-3.6,5.8C13.8,26.2,13.6,26.3,13.4,26.3z"/>
<path class="st66" d="M44.3,13.5c-2.5,0-4.6,0.7-6.1,2c-1.5-1.3-3.6-2-6.1-2c-2.4,0-4.7,0.8-6.3,2.1c-2.6-2.1-5.8-2.1-6-2.1
	c-3,0-13,1.6-13,22c0,17.3,8.1,28,13.9,28h0c0,0,0.2,0,0.4,0c1.2,0,4.4-0.2,6.8-1.9c1.1,1.2,2.2,1.9,4.1,1.9c2,0,3.5-1.2,4.6-2.7
	c2,1.8,4.2,2.7,6.6,2.7c5.8,0,14-10.6,14-28C57.3,15.1,47.3,13.5,44.3,13.5z M32,60.4c-4,0-8.3-10.3-8.3-26.8
	c0-11.6,2.7-17.2,8.3-17.2c5.5,0,8.3,5.8,8.3,17.2C40.3,50.2,36,60.4,32,60.4z M20.7,60.4c-3.9,0-11-9.5-11-25c0-17.6,7.6-19,10-19
	c0,0,0,0,0,0c0.1,0,3.1,0,4.9,2.2l0.7,0.8c-1.7,3-2.6,7.7-2.6,14.1c0,10.7,1.8,19.6,4.6,24.3L27,58.3C25,60.6,20.9,60.4,20.7,60.4z
	 M43.3,60.4c-2.1,0-3.9-1-5.7-3L37.2,57c2.5-4.9,4.1-13.3,4.1-23.4c0-6.4-0.9-11.2-2.7-14.2l0.7-0.9c1.1-1.4,2.8-2.1,5-2.1
	c2.3,0,10,1.4,10,19C54.3,50.9,47.1,60.4,43.3,60.4z"/>
<path class="st20" d="M44.8,27.4c-0.2,0-0.5-0.2-0.5-0.4c-0.3-2.7-0.9-5.1-1.6-7.2c-0.1-0.3,0-0.5,0.3-0.6c0.3-0.1,0.5,0,0.6,0.3
	c0.8,2.1,1.3,4.6,1.7,7.4C45.3,27.1,45.1,27.3,44.8,27.4C44.8,27.4,44.8,27.4,44.8,27.4z"/>
<path class="st20" d="M26.2,30.6C26.2,30.6,26.2,30.6,26.2,30.6c-0.3,0-0.5-0.3-0.5-0.5c0.2-4.1,1-7.2,2.1-9.1
	c0.1-0.2,0.5-0.3,0.7-0.2c0.2,0.1,0.3,0.4,0.2,0.7c-1.1,1.8-1.7,4.7-2,8.7C26.7,30.4,26.5,30.6,26.2,30.6z"/>
<circle class="st20" cx="29.8" cy="19.1" r="0.5"/>
<circle class="st20" cx="19.3" cy="18.6" r="0.5"/>
</svg>
