<?xml version="1.0" encoding="utf-8"?>
<!-- Generator: Adobe Illustrator 20.0.0, SVG Export Plug-In . SVG Version: 6.00 Build 0)  -->
<svg version="1.1" id="Layer_1" xmlns="http://www.w3.org/2000/svg" xmlns:xlink="http://www.w3.org/1999/xlink" x="0px" y="0px"
	 viewBox="0 0 64 64" style="enable-background:new 0 0 64 64;" xml:space="preserve">
<style type="text/css">
	.st0{fill:#4D831C;stroke:#2A481D;stroke-width:3;stroke-linecap:round;stroke-linejoin:round;stroke-miterlimit:10;}
	.st1{fill:#F22F2E;}
	.st2{opacity:0.5;fill:#840D0D;}
	.st3{fill:#7DB34C;}
	.st4{fill:#44712A;}
	.st5{fill:none;stroke:#FFFFFF;stroke-linecap:round;stroke-miterlimit:10;}
	.st6{fill:#4D831C;}
	.st7{fill:#2A481D;}
	.st8{fill:#4D831C;stroke:#184C28;stroke-width:3;stroke-linecap:round;stroke-linejoin:round;stroke-miterlimit:10;}
	.st9{display:none;}
	.st10{display:inline;fill:#D1A982;}
	.st11{display:inline;}
	.st12{fill:#AFD048;stroke:#6B9311;stroke-width:3;stroke-miterlimit:10;}
	.st13{fill:none;stroke:#6B9311;stroke-miterlimit:10;}
	.st14{fill:#AFD048;}
	.st15{fill:#F40000;stroke:#BA0D0D;stroke-width:3;stroke-miterlimit:10;}
	.st16{fill:none;stroke:#FFFFFF;stroke-linecap:round;stroke-linejoin:round;stroke-miterlimit:10;}
	.st17{fill:#CDA347;stroke:#A2690C;stroke-width:3;stroke-miterlimit:10;}
	.st18{fill:#A2CC62;}
	.st19{fill:#68664C;stroke:#522B25;stroke-width:3;stroke-linecap:round;stroke-linejoin:round;stroke-miterlimit:10;}
	.st20{fill:#B63E34;stroke:#522B25;stroke-width:3;stroke-miterlimit:10;}
	.st21{fill:#ADD481;}
	.st22{fill:#68664C;}
	.st23{fill:#593156;stroke:#331E31;stroke-width:3;stroke-miterlimit:10;}
	.st24{fill:#22B573;stroke:#184C28;stroke-width:3;stroke-linecap:round;stroke-linejoin:round;stroke-miterlimit:10;}
	.st25{fill:#EE0000;}
	.st26{fill:#9A0601;}
	.st27{fill:#EE0000;stroke:#9A0601;stroke-linecap:round;stroke-linejoin:round;stroke-miterlimit:10;}
	.st28{fill:#FFFFFF;}
	.st29{clip-path:url(#SVGID_2_);}
	.st30{fill:#00FFFF;}
	.st31{fill:#456A0A;}
	.st32{fill:#183300;}
	.st33{fill:#FF2214;}
	.st34{fill:#661900;}
	.st35{fill:#88A501;}
	.st36{fill:#3B6700;}
	.st37{fill:#FC4100;}
	.st38{fill:#9F0500;}
	.st39{fill:none;stroke:#6B9311;stroke-width:3;stroke-linecap:round;stroke-miterlimit:10;}
	.st40{fill:#6B9311;}
	.st41{fill:#593156;}
	.st42{fill:#331E31;}
	.st43{fill:#AFD048;stroke:#6B9311;stroke-width:3;stroke-linecap:round;stroke-linejoin:round;stroke-miterlimit:10;}
	.st44{fill:none;stroke:#6B9311;stroke-linejoin:round;stroke-miterlimit:10;}
	.st45{fill:#B63E34;stroke:#522B25;stroke-miterlimit:10;}
	.st46{fill:none;stroke:#522B25;stroke-miterlimit:10;}
	.st47{fill:none;stroke:#522B25;stroke-width:3;stroke-miterlimit:10;}
	.st48{fill:#B63E34;}
	.st49{fill:#522B25;}
	.st50{fill:none;stroke:#40760E;stroke-width:3;stroke-linecap:round;stroke-linejoin:round;stroke-miterlimit:10;}
	.st51{fill:none;stroke:#40760E;stroke-linecap:round;stroke-linejoin:round;stroke-miterlimit:10;}
	.st52{fill:#A2CC62;stroke:#40760E;stroke-width:3;stroke-linecap:round;stroke-linejoin:round;stroke-miterlimit:10;}
	.st53{fill:#A2CC62;stroke:#40760E;stroke-linecap:round;stroke-linejoin:round;stroke-miterlimit:10;}
	.st54{fill:#9EC161;}
	.st55{fill:#40760E;}
	.st56{fill:#AFD048;stroke:#6B9311;stroke-width:3;stroke-linejoin:round;stroke-miterlimit:10;}
	.st57{fill:#663965;}
	.st58{fill:#9D610B;}
	.st59{fill:none;stroke:#A2690C;stroke-linecap:round;stroke-miterlimit:10;}
	.st60{fill:#6D4E2B;}
	.st61{fill:#CDA347;}
	.st62{fill:#7F500A;}
	.st63{fill:#F40000;stroke:#BA0D0D;stroke-miterlimit:10;}
	.st64{fill:#F40000;stroke:#B63E34;stroke-width:3;stroke-miterlimit:10;}
	.st65{fill:#F40000;stroke:#B63E34;stroke-miterlimit:10;}
	.st66{fill:#F40000;stroke:#990D0D;stroke-width:3;stroke-miterlimit:10;}
	.st67{fill:#F40000;stroke:#990D0D;stroke-miterlimit:10;}
	.st68{fill:#F40000;}
	.st69{fill:#990D0D;}
	.st70{fill:#FF9D00;}
	.st71{fill:#E6681E;}
	.st72{fill:#FFCB00;}
	.st73{fill:#B58B06;}
	.st74{fill:#3A4C09;}
	.st75{fill:#B94850;stroke:#6C0A04;stroke-width:3;stroke-miterlimit:10;}
	.st76{fill:#CE8645;stroke:#CE8645;stroke-width:0.5;stroke-miterlimit:10;}
	.st77{fill:#6C0A04;stroke:#6C0A04;stroke-width:0.5;stroke-miterlimit:10;}
	.st78{fill:none;stroke:#6C0A04;stroke-linecap:round;stroke-miterlimit:10;}
	.st79{fill:#B94850;}
	.st80{fill:#CE8645;}
	.st81{fill:#6C0A04;}
	.st82{fill:#8C4F6F;}
	.st83{fill:#E7C456;}
	.st84{fill:#391A26;}
	.st85{fill:#E7C456;stroke:#AC5E17;stroke-width:3;stroke-miterlimit:10;}
	.st86{fill:#4F250E;stroke:#4F250E;stroke-width:0.5;stroke-miterlimit:10;}
	.st87{fill:none;stroke:#AC5E17;stroke-linecap:round;stroke-miterlimit:10;}
	.st88{fill:#4F250E;}
	.st89{fill:#995116;}
	.st90{fill:#FD801E;stroke:#9E0E00;stroke-width:3;stroke-miterlimit:10;}
	.st91{fill:#FD801E;stroke:#9E0E00;stroke-linecap:round;stroke-miterlimit:10;}
	.st92{opacity:0.8;fill:#FFBC42;}
	.st93{opacity:0.8;fill:#D03400;}
	.st94{fill:none;stroke:#9E0E00;stroke-linecap:round;stroke-miterlimit:10;}
	.st95{fill:#FFBC42;}
	.st96{fill:none;stroke:#9E0E00;stroke-width:3;stroke-miterlimit:10;}
	.st97{fill:#A7C92B;stroke:#264008;stroke-width:3;stroke-linecap:round;stroke-linejoin:round;stroke-miterlimit:10;}
	.st98{fill:#A7C92B;stroke:#264008;stroke-width:3;stroke-miterlimit:10;}
	.st99{fill:#344C00;}
	.st100{fill:#FD801E;}
	.st101{fill:#9E0E00;}
	.st102{fill:#FDAF48;}
	.st103{fill:#D74E1E;}
	.st104{opacity:0.8;fill:#68664C;}
	.st105{fill:#775E49;}
	.st106{fill:#FF7A00;}
	.st107{fill:#FF7A00;stroke:#F44500;stroke-width:3;stroke-miterlimit:10;}
	.st108{fill:none;stroke:#F44500;stroke-linecap:round;stroke-linejoin:round;stroke-miterlimit:10;}
	.st109{fill:#FF7A00;stroke:#F44500;stroke-linecap:round;stroke-linejoin:round;stroke-miterlimit:10;}
	.st110{fill:#F44500;}
	.st111{fill:#F6E600;}
	.st112{fill:#8DCC50;}
	.st113{fill:#A2A121;}
	.st114{fill:#F9EFA7;}
	.st115{fill:#6E905E;}
	.st116{fill:#7B000E;}
	.st117{fill:#F22F2E;stroke:#7B000E;stroke-width:3;stroke-miterlimit:10;}
	.st118{fill:#7DB34C;stroke:#44712A;stroke-width:3;stroke-miterlimit:10;}
	.st119{fill:none;stroke:#44712A;stroke-miterlimit:10;}
	.st120{fill:none;stroke:#7B000E;stroke-linecap:round;stroke-linejoin:round;stroke-miterlimit:10;}
	.st121{fill:none;stroke:#7B000E;stroke-linecap:round;stroke-miterlimit:10;}
	.st122{fill:#164E16;stroke:#071907;stroke-width:3;stroke-miterlimit:10;}
	.st123{fill:none;stroke:#071907;stroke-linecap:round;stroke-linejoin:round;stroke-miterlimit:10;}
	.st124{fill:#164E16;}
	.st125{fill:#071907;}
	.st126{fill:#F40000;stroke:#7B000E;stroke-width:3;stroke-miterlimit:10;}
	.st127{fill:#7DB34C;stroke:#164E16;stroke-width:3;stroke-miterlimit:10;}
	.st128{fill:none;stroke:#164E16;stroke-miterlimit:10;}
	.st129{fill:#8A9D1F;}
	.st130{fill:#6E8517;}
	.st131{fill:#7C9800;}
	.st132{opacity:0.1;fill:none;stroke:#EBDE00;stroke-width:3;stroke-miterlimit:10;}
	.st133{opacity:0.25;fill:none;stroke:#EBDE00;stroke-width:3;stroke-miterlimit:10;}
	.st134{opacity:0.4;fill:none;stroke:#EBDE00;stroke-width:3;stroke-miterlimit:10;}
	.st135{opacity:0.55;fill:none;stroke:#EBDE00;stroke-width:3;stroke-miterlimit:10;}
	.st136{opacity:0.7;fill:none;stroke:#EBDE00;stroke-width:3;stroke-miterlimit:10;}
	.st137{opacity:0.85;fill:none;stroke:#EBDE00;stroke-width:3;stroke-miterlimit:10;}
	.st138{fill:none;stroke:#EBDE00;stroke-width:3;stroke-miterlimit:10;}
	.st139{fill:#A7C92B;}
	.st140{fill:#EBDE00;}
	.st141{fill:#AEC939;}
	.st142{fill:#B8CC35;}
	.st143{fill:#C2CF33;}
	.st144{fill:#CCD331;}
	.st145{fill:#D7D631;}
	.st146{fill:#E0D930;}
	.st147{fill:#264008;}
</style>
<path class="st129" d="M50.1,25.2c1.3-2.8,0.4-6.2-2.3-7.7c-3-1.7-6.7-0.5-8.1,2.6c0,0-9.5,26.8-31.1,39.1c-1.5,0.9-0.5,3.2,1.2,2.7
	C22.5,58,39.5,48.4,50.1,25.2z"/>
<path class="st28" d="M36.2,37.2c-0.1,0-0.2,0-0.3-0.1c-0.2-0.1-0.3-0.5-0.2-0.7c0.4-0.7,0.9-1.4,1.3-2c0.1-0.2,0.4-0.3,0.7-0.2
	c0.2,0.1,0.3,0.4,0.2,0.7c-0.4,0.7-0.8,1.4-1.3,2.1C36.5,37.1,36.3,37.2,36.2,37.2z"/>
<path class="st28" d="M38.8,32.9c-0.1,0-0.2,0-0.2-0.1c-0.2-0.1-0.3-0.4-0.2-0.7c1.9-3.3,3.2-6.1,4-7.8c0.1-0.2,0.4-0.4,0.7-0.2
	c0.3,0.1,0.4,0.4,0.2,0.7c-0.8,1.8-2.2,4.6-4,7.9C39.1,32.8,38.9,32.9,38.8,32.9z"/>
<path class="st130" d="M50.7,22.8c0-0.4,0-0.7-0.1-1.1c-0.6-4.4,0.3-8.8,2.1-12.8l2-4.4c0.3-0.7,0-1.6-0.7-1.9v0
	c-0.7-0.3-1.6,0-1.9,0.7l-2,4.4c-1.8,4-4.6,7.6-8.4,10.1c-0.3,0.2-0.5,0.4-0.8,0.6"/>
<ellipse transform="matrix(2.375112e-02 -0.9997 0.9997 2.375112e-02 -7.5561 73.1101)" class="st28" cx="33.7" cy="40.4" rx="0.5" ry="0.5"/>
<path class="st124" d="M38.3,19.7C38.3,19.9,28.9,46,8.1,57.8c-1.3,0.8-2,2.5-1.4,3.9c0.5,1.1,1.5,1.7,2.7,1.7c0.3,0,0.6,0,0.9-0.1
	c12.8-4,30.2-13.8,41.2-37.5c0.3-0.7,0.5-1.5,0.6-2.3c0.1-1,0.1-2,0-3c-0.3-3.5,0.4-7.3,2.1-11l2-4.3c0.6-1.3,0.3-2.9-0.9-3.7
	c-1.5-1.1-3.6-0.5-4.4,1.1l-2,4.4c-1.8,4-4.6,7.3-7.8,9.4C39.3,17.7,38.3,19.7,38.3,19.7z M43.8,18.1c2.3-2.1,5.3-6.7,7.4-10.1
	c0.2-0.3,0.6-0.1,0.5,0.2c-1.2,3.8-2.6,9.1-2.7,12.3c0,0.4-0.4,0.7-0.8,0.5c-0.4-0.2-0.9-0.4-1.4-0.4c-0.4,0-0.7-0.1-1.1-0.3
	c-0.3-0.2-0.6-0.4-0.9-0.6c-0.3-0.3-0.6-0.5-0.9-0.6C43.6,18.8,43.5,18.3,43.8,18.1z M13,59.3c-0.5,0.2-0.8-0.5-0.4-0.7
	c19.3-12.8,27.9-36.1,28.5-37.8c0.1-0.3,0.3-0.5,0.5-0.8c0.2-0.3,0.5-0.4,0.8-0.3c0,0,0,0,0,0c0.6,0,1.2,0.3,1.7,0.8
	c0.3,0.3,0.7,0.6,1.2,0.8c0.5,0.2,0.9,0.3,1.4,0.3c0.6,0,1.2,0.3,1.6,0.7c0.1,0.1,0.2,0.2,0.4,0.3c0.3,0.2,0.4,0.6,0.4,1
	c-0.1,0.4-0.2,0.7-0.3,1.1C39.3,45.2,24.7,54.8,13,59.3z"/>
</svg>
