<?xml version="1.0" encoding="utf-8"?>
<!-- Generator: Adobe Illustrator 20.0.0, SVG Export Plug-In . SVG Version: 6.00 Build 0)  -->
<svg version="1.1" xmlns="http://www.w3.org/2000/svg" xmlns:xlink="http://www.w3.org/1999/xlink" x="0px" y="0px"
	 viewBox="0 0 250 250" style="enable-background:new 0 0 250 250;" xml:space="preserve">
<style type="text/css">
	.st0{fill:#7C9800;}
	.st1{fill:#164E16;}
	.st2{fill:#4D831C;stroke:#2A481D;stroke-width:3;stroke-linecap:round;stroke-linejoin:round;stroke-miterlimit:10;}
	.st3{fill:#F22F2E;}
	.st4{opacity:0.5;fill:#840D0D;}
	.st5{fill:#7DB34C;}
	.st6{fill:#44712A;}
	.st7{fill:none;stroke:#FFFFFF;stroke-linecap:round;stroke-miterlimit:10;}
	.st8{fill:#4D831C;}
	.st9{fill:#2A481D;}
	.st10{fill:#4D831C;stroke:#184C28;stroke-width:3;stroke-linecap:round;stroke-linejoin:round;stroke-miterlimit:10;}
	.st11{fill:#AFD048;stroke:#6B9311;stroke-width:3;stroke-miterlimit:10;}
	.st12{fill:none;stroke:#6B9311;stroke-miterlimit:10;}
	.st13{fill:#AFD048;}
	.st14{fill:#F40000;stroke:#BA0D0D;stroke-width:3;stroke-miterlimit:10;}
	.st15{fill:none;stroke:#FFFFFF;stroke-linecap:round;stroke-linejoin:round;stroke-miterlimit:10;}
	.st16{fill:#CDA347;stroke:#A2690C;stroke-width:3;stroke-miterlimit:10;}
	.st17{fill:#A2CC62;}
	.st18{fill:#68664C;stroke:#522B25;stroke-width:3;stroke-linecap:round;stroke-linejoin:round;stroke-miterlimit:10;}
	.st19{fill:#B63E34;stroke:#522B25;stroke-width:3;stroke-miterlimit:10;}
	.st20{fill:#ADD481;}
	.st21{fill:#68664C;}
	.st22{fill:#593156;stroke:#331E31;stroke-width:3;stroke-miterlimit:10;}
	.st23{fill:#22B573;stroke:#184C28;stroke-width:3;stroke-linecap:round;stroke-linejoin:round;stroke-miterlimit:10;}
	.st24{fill:#EE0000;}
	.st25{fill:#9A0601;}
	.st26{fill:#EE0000;stroke:#9A0601;stroke-linecap:round;stroke-linejoin:round;stroke-miterlimit:10;}
	.st27{fill:#FFFFFF;}
	.st28{clip-path:url(#SVGID_2_);}
	.st29{fill:#00FFFF;}
	.st30{fill:#456A0A;}
	.st31{fill:#183300;}
	.st32{fill:#FF2214;}
	.st33{fill:#661900;}
	.st34{fill:#88A501;}
	.st35{fill:#3B6700;}
	.st36{fill:#FC4100;}
	.st37{fill:#9F0500;}
	.st38{fill:none;stroke:#6B9311;stroke-width:3;stroke-linecap:round;stroke-miterlimit:10;}
	.st39{fill:#6B9311;}
	.st40{fill:#593156;}
	.st41{fill:#331E31;}
	.st42{fill:#AFD048;stroke:#6B9311;stroke-width:3;stroke-linecap:round;stroke-linejoin:round;stroke-miterlimit:10;}
	.st43{fill:none;stroke:#6B9311;stroke-linejoin:round;stroke-miterlimit:10;}
	.st44{fill:#B63E34;stroke:#522B25;stroke-miterlimit:10;}
	.st45{fill:none;stroke:#522B25;stroke-miterlimit:10;}
	.st46{fill:none;stroke:#522B25;stroke-width:3;stroke-miterlimit:10;}
	.st47{fill:#7C9800;stroke:#0C4C0C;stroke-width:3;stroke-linecap:round;stroke-linejoin:round;stroke-miterlimit:10;}
	.st48{fill:#F04D02;stroke:#992216;stroke-width:3;stroke-miterlimit:10;}
	.st49{fill:none;stroke:#992216;stroke-width:3;stroke-miterlimit:10;}
	.st50{fill:#B63E34;}
	.st51{fill:#522B25;}
	.st52{fill:none;stroke:#40760E;stroke-width:3;stroke-linecap:round;stroke-linejoin:round;stroke-miterlimit:10;}
	.st53{fill:none;stroke:#40760E;stroke-linecap:round;stroke-linejoin:round;stroke-miterlimit:10;}
	.st54{fill:#A2CC62;stroke:#40760E;stroke-width:3;stroke-linecap:round;stroke-linejoin:round;stroke-miterlimit:10;}
	.st55{fill:#A2CC62;stroke:#40760E;stroke-linecap:round;stroke-linejoin:round;stroke-miterlimit:10;}
	.st56{fill:#9EC161;}
	.st57{fill:#40760E;}
	.st58{fill:#AFD048;stroke:#6B9311;stroke-width:3;stroke-linejoin:round;stroke-miterlimit:10;}
	.st59{fill:#663965;}
	.st60{fill:#9D610B;}
	.st61{fill:none;stroke:#A2690C;stroke-linecap:round;stroke-miterlimit:10;}
	.st62{fill:#6D4E2B;}
	.st63{fill:#CDA347;}
	.st64{fill:#7F500A;}
	.st65{fill:#F40000;stroke:#BA0D0D;stroke-miterlimit:10;}
	.st66{fill:#F40000;stroke:#B63E34;stroke-width:3;stroke-miterlimit:10;}
	.st67{fill:#F40000;stroke:#B63E34;stroke-miterlimit:10;}
	.st68{fill:#F40000;stroke:#990D0D;stroke-width:3;stroke-miterlimit:10;}
	.st69{fill:#F40000;stroke:#990D0D;stroke-miterlimit:10;}
	.st70{fill:#F40000;}
	.st71{fill:#990D0D;}
	.st72{fill:#FF9D00;}
	.st73{fill:#E6681E;}
	.st74{fill:#FFCB00;}
	.st75{fill:#B58B06;}
	.st76{fill:#3A4C09;}
	.st77{fill:#B94850;stroke:#6C0A04;stroke-width:3;stroke-miterlimit:10;}
	.st78{fill:#CE8645;stroke:#CE8645;stroke-width:0.5;stroke-miterlimit:10;}
	.st79{fill:#6C0A04;stroke:#6C0A04;stroke-width:0.5;stroke-miterlimit:10;}
	.st80{fill:none;stroke:#6C0A04;stroke-linecap:round;stroke-miterlimit:10;}
	.st81{fill:#B94850;}
	.st82{fill:#CE8645;}
	.st83{fill:#6C0A04;}
	.st84{fill:#8C4F6F;}
	.st85{fill:#E7C456;}
	.st86{fill:#391A26;}
	.st87{fill:#E7C456;stroke:#AC5E17;stroke-width:3;stroke-miterlimit:10;}
	.st88{fill:#4F250E;stroke:#4F250E;stroke-width:0.5;stroke-miterlimit:10;}
	.st89{fill:none;stroke:#AC5E17;stroke-linecap:round;stroke-miterlimit:10;}
	.st90{fill:#4F250E;}
	.st91{fill:#995116;}
	.st92{fill:#FD801E;stroke:#9E0E00;stroke-width:3;stroke-miterlimit:10;}
	.st93{fill:#FD801E;stroke:#9E0E00;stroke-linecap:round;stroke-miterlimit:10;}
	.st94{opacity:0.8;fill:#FFBC42;}
	.st95{opacity:0.8;fill:#D03400;}
	.st96{fill:none;stroke:#9E0E00;stroke-linecap:round;stroke-miterlimit:10;}
	.st97{fill:#FFBC42;}
	.st98{fill:none;stroke:#9E0E00;stroke-width:3;stroke-miterlimit:10;}
	.st99{fill:#A7C92B;stroke:#264008;stroke-width:3;stroke-linecap:round;stroke-linejoin:round;stroke-miterlimit:10;}
	.st100{fill:#A7C92B;stroke:#264008;stroke-width:3;stroke-miterlimit:10;}
	.st101{fill:#344C00;}
	.st102{fill:#FD801E;}
	.st103{fill:#9E0E00;}
	.st104{fill:#FDAF48;}
	.st105{fill:#D74E1E;}
	.st106{opacity:0.8;fill:#68664C;}
	.st107{fill:#775E49;}
	.st108{fill:#FF7A00;}
	.st109{fill:#FF7A00;stroke:#F44500;stroke-width:3;stroke-miterlimit:10;}
	.st110{fill:none;stroke:#F44500;stroke-linecap:round;stroke-linejoin:round;stroke-miterlimit:10;}
	.st111{fill:#FF7A00;stroke:#F44500;stroke-linecap:round;stroke-linejoin:round;stroke-miterlimit:10;}
	.st112{fill:#F44500;}
	.st113{fill:#F6E600;}
	.st114{fill:#8DCC50;}
	.st115{fill:#A2A121;}
	.st116{fill:#F9EFA7;}
	.st117{fill:#6E905E;}
	.st118{fill:#7B000E;}
	.st119{fill:#F22F2E;stroke:#7B000E;stroke-width:3;stroke-miterlimit:10;}
	.st120{fill:#7DB34C;stroke:#44712A;stroke-width:3;stroke-miterlimit:10;}
	.st121{fill:none;stroke:#44712A;stroke-miterlimit:10;}
	.st122{fill:none;stroke:#7B000E;stroke-linecap:round;stroke-linejoin:round;stroke-miterlimit:10;}
	.st123{fill:none;stroke:#7B000E;stroke-linecap:round;stroke-miterlimit:10;}
	.st124{fill:#164E16;stroke:#071907;stroke-width:3;stroke-miterlimit:10;}
	.st125{fill:none;stroke:#071907;stroke-linecap:round;stroke-linejoin:round;stroke-miterlimit:10;}
	.st126{fill:#071907;}
	.st127{fill:#F40000;stroke:#7B000E;stroke-width:3;stroke-miterlimit:10;}
	.st128{fill:#7DB34C;stroke:#164E16;stroke-width:3;stroke-miterlimit:10;}
	.st129{fill:none;stroke:#164E16;stroke-miterlimit:10;}
	.st130{fill:#8A9D1F;}
	.st131{fill:#6E8517;}
	.st132{opacity:0.1;fill:none;stroke:#EBDE00;stroke-width:3;stroke-miterlimit:10;}
	.st133{opacity:0.25;fill:none;stroke:#EBDE00;stroke-width:3;stroke-miterlimit:10;}
	.st134{opacity:0.4;fill:none;stroke:#EBDE00;stroke-width:3;stroke-miterlimit:10;}
	.st135{opacity:0.55;fill:none;stroke:#EBDE00;stroke-width:3;stroke-miterlimit:10;}
	.st136{opacity:0.7;fill:none;stroke:#EBDE00;stroke-width:3;stroke-miterlimit:10;}
	.st137{opacity:0.85;fill:none;stroke:#EBDE00;stroke-width:3;stroke-miterlimit:10;}
	.st138{fill:none;stroke:#EBDE00;stroke-width:3;stroke-miterlimit:10;}
	.st139{fill:#A7C92B;}
	.st140{fill:#EBDE00;}
	.st141{fill:#AEC939;}
	.st142{fill:#B8CC35;}
	.st143{fill:#C2CF33;}
	.st144{fill:#CCD331;}
	.st145{fill:#D7D631;}
	.st146{fill:#E0D930;}
	.st147{fill:#264008;}
	.st148{fill:none;stroke:#00FFFF;stroke-miterlimit:10;}
	.st149{clip-path:url(#SVGID_4_);}
	.st150{fill:#F22F2E;stroke:#9E0E00;stroke-width:3;stroke-miterlimit:10;}
	.st151{fill:#A7C92B;stroke:#164E16;stroke-width:3;stroke-miterlimit:10;}
	.st152{clip-path:url(#SVGID_6_);}
	.st153{fill:#F9A361;}
	.st154{fill:none;stroke:#992216;stroke-linecap:round;stroke-miterlimit:10;}
	.st155{fill:#0C4C0C;}
	.st156{fill:#F04D02;}
	.st157{fill:#992216;}
</style>
<g id="Layer_1">
	<g>
		<path class="st139" d="M195.1,60.6c-5.3-2.5-10.6-4-15.8-4.8c6.7-9.3,12.1-20.3,16.4-32c0,0-22.6,21.4-58.6,25.8L125,6.9l-12.3,43
			c-37.3-4-58.4-26.1-58.4-26.1C57.4,35.2,63.1,46.9,71,57c-3.9,0.8-7.9,1.8-12,3.3C29.3,71.1,9.3,95.5,9.3,131.4
			c0,70.3,62.3,111.7,115.7,111.7c53.4,0,115.7-46.4,115.7-111.7C240.7,94.4,221.7,73.1,195.1,60.6z"/>
		<g>
			<path class="st140" d="M235.4,100.8c-7.5-19-22.1-31.7-40.2-40.3c-15.6-7.4-31.8-6.6-44.7-3.6c-15.5,3.6-31.7,4.4-47.1,0.7
				C91.8,54.9,76.5,54,59,60.3C29.3,71.1,9.3,95.5,9.3,131.4c0,7.2,0.7,14.1,1.9,20.8L235.4,100.8z"/>
		</g>
		<g>
			<path class="st141" d="M27.7,192.1c34.4-13.9,118.5-44.2,212.6-51.8c0.3-2.9,0.4-5.9,0.4-8.8c0-1-0.1-2-0.1-3
				c-97.6,7.7-184.9,39.6-219,53.5C23.5,185.5,25.5,188.9,27.7,192.1z"/>
			<path class="st142" d="M21.6,182c32.4-13.3,120.5-46,219-53.4c-0.1-4.1-0.5-8-1-11.7c-100.4,7.6-190.1,41-222.9,54.5
				C18.2,175,19.8,178.6,21.6,182z"/>
			<path class="st143" d="M16.7,171.4c30.7-12.8,121.4-47.1,222.9-54.4c-0.6-4.1-1.5-7.9-2.7-11.6C135.6,113.1,45.1,147,13,160.2
				C14.1,164.1,15.3,167.8,16.7,171.4z"/>
			<path class="st144" d="M13.1,160.4c29.8-12.4,121.4-47.4,223.9-54.8c-1.3-4.1-2.9-7.9-4.7-11.4C132,102,42.8,135.4,10.6,148.7
				C11.2,152.7,12,156.6,13.1,160.4z"/>
			<path class="st145" d="M10.6,148.8c30-12.5,120.3-46.9,221.7-54.5c-2.1-4-4.5-7.8-7.3-11.2c-96.8,8.4-182.7,40.1-215.6,53.5
				C9.6,140.7,10,144.8,10.6,148.8z"/>
			<path class="st146" d="M214.2,72.3c-90.7,9.1-170.7,37.9-204.6,51.6c-0.2,2.5-0.3,5-0.3,7.5c0,1.8,0.1,3.5,0.1,5.2
				c31.1-12.8,117.8-45.3,215.7-53.5C221.9,79.2,218.2,75.6,214.2,72.3z"/>
			<path class="st140" d="M9.6,124C42,110.9,122.7,81.4,214.3,72.4c-4.8-3.9-10-7.2-15.7-10.1c-81.2,9.9-152.2,34.5-186.8,48.1
				C10.7,114.8,10,119.3,9.6,124z"/>
		</g>
		<g>
			<g>
				<path class="st0" d="M93.1,128.8C93.1,128.8,93.1,128.8,93.1,128.8C93.1,128.8,93.1,128.8,93.1,128.8c0.1-0.4,0.1-0.7,0.1-1.1
					c0.7-4.6,7.5-3.1,7.7,1c0.2,4,0.4,8.1,0.6,12.1c0,0,0,0.6,0.5,0.7c0.6,0,0.7-0.5,0.7-0.5c1.5-3.5,6.1-1.7,7.2,0.9
					c0.4,1,0.7,1.9,1.1,2.9c0.2,0.6,0.7,1,1.3,1c0.1,0,0.3,0,0.4,0c2,0.2,3.9-0.9,4.5-2.8c1-3.2,1.7-6.6,2.3-10.4
					c0.6-3.8,7-3.7,7.6,0c4.9,30.3,2.6,59.6-7.5,88.7c-1.6,4.7-9.2,2.7-7.6-2.1c7.3-21,10.5-42.2,9.5-63.9c0,0,0-0.4-0.4-0.4
					c-0.4-0.1-0.5,0.3-0.5,0.3c-0.3,0.7-0.6,1.4-1,2.1c-1,2.1-4.7,2.7-6.2,0.8c-0.1-0.2-0.2-0.3-0.4-0.5c-0.1,0.1-0.1,0.3-0.2,0.4
					c-1.6,4.1-7.5,3.5-7.7-1c0,0,0-0.5-0.4-0.5c-0.5-0.1-0.5,0.4-0.5,0.4c-0.8,1.9-1.6,3.8-2.4,5.7c-0.6,1.3-1.6,1.9-2.6,1.9
					c0.1,1.8,0.2,3.5,0.4,5.3c0.3,3.3-4.6,5.3-6.7,2.8l-2.6-3c0,0-0.4-0.4-0.6-0.3c-0.1,0.1,0,0.3,0.1,0.6c1.9,2.9,4,5.6,6.5,7.7
					c3.8,3.3-1.8,8.9-5.5,5.5c-4.3-3.8-7.8-8.6-10.6-14.1c-0.8-1.5-1.7-3-2.7-4.3c-0.3-0.4-0.6-0.9-0.7-1.5c-0.4-1.9-0.7-3.7-1-5.6
					c-5.1-17.5-4-38,3.1-51.9c2.1-4,8.3-1.2,7.2,3c-0.6,2.1-1.1,4.3-1.5,6.4c-0.3,1.3,1.2,2.2,2.2,1.4l0,0c2.4-1.7,6,0.6,5.9,3.4
					c-0.1,2.9-0.4,5.8-0.6,8.8c0,0,0,0.5,0.4,0.5C93.1,129.3,93.1,128.8,93.1,128.8z"/>
			</g>
			<path class="st0" d="M152.7,166.1c0.1-0.9,0.1-1.9,0.2-2.8c0.3-4.3,6.6-5.5,7.7-1c0.8,3.4,1.6,6.7,2.4,10.1
				c0.4,1.5,2.6,1.4,2.8-0.1c0.4-2.6,0.8-5.3,1.1-7.9c0.2-1.8,1.4-3.2,2.9-3.7c2.1-0.7,3.8-2.4,4.1-4.6c0.3-2.6,0.7-5.2,1.1-7.8
				c0.6-3.9,6.7-3.5,7.6,0c6.6,26,7,51.8,1.2,77.6c-3,1.8-6.2,3.5-9.3,5.1c4.5-16.6,6.2-33,5.3-49.6c-0.1-1.8-1.6-3.3-3.4-3.1
				c-0.1,0-0.3,0-0.4,0c-1.7-0.1-3.3,1-3.6,2.7c-1,5.7-2.2,11.3-3.7,16.9c-1,3.7-6.7,3.8-7.6,0c-0.4-1.6-0.8-3.2-1.1-4.8
				c-0.3-1.1-1.9-1.1-2.1,0.1c-1.7,10.4-4.2,20.7-8.4,30.7c-0.5,1.2-1.4,2-2.3,2.4c-0.7,5-1.6,9.9-2.5,14.9c0,0,0,0-0.1,0.1
				c-2.2,0.4-4.4,0.8-6.5,1.1c-0.8-0.8-1.2-2-0.9-3.4c4.6-24.1,6.7-48.2,6.4-72.7c0-5.1,7.5-5,7.8,0c0,0,0.1,0.7,0.7,0.7
				C152.6,166.7,152.7,166.1,152.7,166.1z"/>
			<g>
				<path class="st0" d="M136.9,62.7c-2.5-4.4-9.3-0.4-6.8,4c12.5,21.4,19.3,44.4,20.4,69.1c0.2,5,8.1,5.1,7.8,0
					C157.2,109.8,150,85.3,136.9,62.7z"/>
			</g>
			<g>
				<path class="st0" d="M216.5,126.1c-8.2-28.3-33-68.4-66.1-70.2c-5-0.3-5,7.6,0,7.8c29.1,1.6,51.4,39.9,58.5,64.4
					C210.3,133,217.9,131,216.5,126.1z"/>
			</g>
			<g>
				<path class="st0" d="M195.4,117.8c-1-3-2.2-5.1-4.7-7.1c-0.9-0.7-2-1-3.1-1c-1.6,0.1-3.1-0.7-4.2-1.9c-0.5-0.5-1-1-1.5-1.5
					c-0.9-0.9-2-1.2-3-1.1c-2.1,0.2-4-0.9-4.7-2.9c-1.5-4.5-3.5-8.8-6.7-12.7c-3.2-3.9-8.7,1.7-5.5,5.5c8,9.7,7.4,23.8,12,35.1
					c1.6,4,7.4,3.6,7.7-1l0.7-9.7c0.4,0.7,0.8,1.4,1.1,2.1c0.8,1.7,2.8,2.2,4.5,1.7c1.3-0.4,2.7-0.8,4.1-0.9
					C194.2,122.4,196.3,120.6,195.4,117.8z"/>
			</g>
			<path class="st0" d="M211.4,182.7c2-8.8,3.1-17.7,3.8-26.6c0.4-5-7.5-5-7.8,0c-1.6,20.3-10.1,38.9-11.9,58.9
				c-0.1,1,0.2,1.7,0.6,2.3c2.7-2.1,5.3-4.2,7.8-6.5C205.5,201.3,209.3,192.2,211.4,182.7z"/>
			<path class="st0" d="M237.2,106.1c-2.3-1.4-5.9,0.6-6,3.5c0,0.5,0,1-0.1,1.5c-0.1,1.7-2.5,2.1-3,0.4c-1.8-5.9-4-11.7-6.6-17.4
				c-2.1-4.6-8.9-0.6-6.8,4c7.8,17,11.5,35,11.1,53.8c-0.1,4.4,6.8,5.4,7.7,1c2-9,3.4-18,4.3-27.1c0.4,0-0.2,0,0.2,0
				c0.5,1.8,1.5,2.7,2.6,2.9C240.4,120.2,239.2,112.8,237.2,106.1z"/>
			<g>
				<path class="st0" d="M129.3,64.2c-9.1,15.4-14.9,32.1-17,49.9c-0.6,5-8.4,5-7.8,0c1.2-9.9,3.4-19.5,6.6-28.8
					c-1.6-0.4-3.1-1.7-3.1-3.7c0-0.8,0-1.7-0.1-2.5c-0.1-2.8-3.5-4-5.4-1.9c-1.5,1.7-3,3.5-4.5,5.3c-1.4,1.7-3.5,1.5-5,0.3
					c-1.2-0.9-2.8-0.6-3.7,0.6c-1.1,1.5-2.3,3-3.4,4.5c-1.8,2.5-6.4,2.7-7.2-0.9c-0.8-3.6,0-6.6,0.9-9.7c0.5-1.6-1.3-3-2.8-2.2
					c-8.1,4.5-14.2,11.6-17.7,20.8c-1.8,4.7-9.4,2.6-7.6-2.1c5.8-15.3,17.1-25.9,32.9-30.3c2.5-0.7,4.9,1.3,5,3.8
					c0.1,1.1-0.1,2.2-0.3,3.3c2.7-3.6,5.3-7.1,8-10.7L129.3,64.2z"/>
			</g>
			<path class="st0" d="M131,242.9c-0.6-1.1-1.6-1.9-3.2-1.9c-3,0-5.8-1-8.2-2.7c-10.5-13.2-16.8-28.3-19.1-45
				c-0.6-4.3-8.3-3.3-7.7,1c0,0.3,0.1,0.7,0.1,1l0,0c0,0.1,0,0.2,0.1,0.3c0.9,6.6,2.7,15.1,5.5,23.3c0.6,1.6-1.5,2.8-2.6,1.5
				c-3.9-4.4-7.4-9.2-10.4-14.5c-2.1-3.7-8.9-1.2-7.2,3c0.2,0.4,0.5,1.5,1,3c0.5,1.5-1.4,2.7-2.5,1.6c-0.8-0.7-1.5-1.5-2.2-2.2
				c-3.8-3.9-10.2,2.7-4.2,6.8c1.7,3.2,3.2,5.9,4.9,9.2c0.4,6.2,5.2,5.8,7.2,3.3c2.1,1.4,4.4,2.3,6.6,2.2c1.3,0,2.8-0.7,3.4-1.9
				c0.3-0.7,0.5-1.3,0.6-2c4.8,4.8,10,9.1,15.8,12.7c5.4,0.8,10.8,1.2,16.1,1.2C127,243.1,129,243,131,242.9z"/>
			<g>
				<path class="st0" d="M73.9,187.3C62.8,174,56.7,158,55.8,140.7c-0.3-5-8.1-5.1-7.8,0c1,19.5,8,37.1,20.4,52.2
					C71.5,196.8,77.1,191.2,73.9,187.3z"/>
			</g>
			<g>
				<path class="st0" d="M23.9,105.1c2-5,4.5-9.9,7.8-14.5c0.6-0.8,1.4-1.4,2.2-1.6c2-0.6,3.7-2.1,4.5-4.1c1.7-4.5,3.9-8.7,6.7-12.6
					c2.9-4,9.8-0.1,6.8,4c-8.7,11.9-10.6,28-14.1,42c-1.2,4.7-7.2,3-7.7-1c-0.1-0.4-0.1-0.9-0.1-1.3c0,0,0.1-0.5-0.5-0.6
					c-0.6-0.1-0.6,0.5-0.6,0.5c-2.4,9.2-3.1,19-3.4,28.9c-0.1,4.3-6.9,5.5-7.7,1c-1-5.8-1.7-11.5-2.2-17.3c-0.2,1.2-0.4,2.3-0.5,3.5
					c-0.5,5-8.4,5-7.8,0c1.1-10.3,3.8-19.6,8.4-28.9c1.7-3.5,7.5-1.8,7.3,2c0,0-0.1,0.6,0.4,0.7C23.7,105.7,23.9,105.1,23.9,105.1z"
					/>
			</g>
			<path class="st0" d="M53.2,209c-0.5-0.4-0.9-0.8-1.4-1.1c2.5-0.5,4.7-2.8,2.6-5.5c-3.3-4.3-6-8.7-8.1-13.3
				c-0.7-1.5-0.2-3.3,1.2-4.1c1.9-1.2,3.1-4.1,1.3-6.4c-5.2-6.4-8.2-13.4-9.1-21.6c-0.6-4.9-7.7-5.2-7.8,0
				c-0.1,5.7,0.3,11.2,1.3,16.6c0.3,1.4-1.6,2.2-2.5,1c-0.4-0.6-0.9-1.3-1.3-1.9c-2.4-3.7-8.2-1.4-7.2,3c1.8,7.6,4.8,14.5,8.8,20.8
				c5.7,7.4,12.3,14.1,19.5,19.8C54,217.4,56.8,211.7,53.2,209z"/>
			<g>
				<path class="st0" d="M53.5,110.9c-5,0-5.1,7.8,0,7.8C58.5,118.8,58.5,110.9,53.5,110.9z"/>
			</g>
			<g>
				<path class="st0" d="M129.4,102.8c-5,0-5.1,7.8,0,7.8C134.4,110.7,134.5,102.8,129.4,102.8z"/>
			</g>
			<g>
				<path class="st0" d="M164.9,214.3c-5.1,0-5.1,7.8,0,7.8C170,222.1,170,214.3,164.9,214.3z"/>
			</g>
			<g>
				<path class="st0" d="M198.9,141.6c-5.1,0-5.1,7.8,0,7.8C203.9,149.5,203.9,141.6,198.9,141.6z"/>
			</g>
			<g>
				<path class="st0" d="M111.6,175.5c-5.1,0-5.1,7.8,0,7.8C116.7,183.4,116.7,175.5,111.6,175.5z"/>
			</g>
			<g>
				<path class="st0" d="M140.7,142.4c-5.1,0-5.1,7.8,0,7.8C145.8,150.3,145.8,142.4,140.7,142.4z"/>
			</g>
		</g>
		<path class="st147" d="M197.6,55.2C197.6,55.2,197.6,55.2,197.6,55.2L197.6,55.2c-4.5-2.1-6.3-7.4-4.1-11.8
			c2.8-5.4,5.3-11.3,7.7-17.6c0.9-2.6,0-5.4-2.3-6.9c-2.3-1.5-5.3-1.2-7.3,0.6c-0.2,0.2-16,14.9-41.8,21.7
			c-4.7,1.2-9.5-1.6-10.8-6.3l-8.4-29.6c-0.7-2.5-3-4.3-5.7-4.3h0c-2.6,0-4.9,1.7-5.7,4.3l-8.7,30.1c-1.3,4.6-6,7.4-10.7,6.3
			c-26.4-6.5-41.3-21.8-41.5-22c-1.9-2-4.8-2.4-7.2-1.1c-2.3,1.3-3.5,4.1-2.8,6.7c0,0,2.8,9.5,7.8,19.5c2.2,4.4,0.4,9.9-4.2,11.8
			c-2,0.8-4.2,1.9-6.5,3.1c0,0,0,0,0,0c-27.1,14-42.3,39.5-42.3,71.7c0,33.8,14.2,64.6,39.9,86.7C66.1,237.7,95.9,249,125,249
			c57.4,0,121.6-50.3,121.6-117.6C246.6,96.3,230.1,70.6,197.6,55.2z M179.4,44.8c-0.6,1-1.2,2-1.8,2.9c-0.6,1-1.7,1.5-2.9,1.4
			c-1.5-0.1-2.9-0.2-4.4-0.2c-1.3,0-1.6-1.7-0.4-2.2c2.8-1.2,5.4-2.4,7.8-3.7C178.8,42.4,180.1,43.7,179.4,44.8z M122.8,36
			c0.6-2.2,3.8-2.2,4.4,0l4.3,15.2c0.1,0.2,0.1,0.4,0.2,0.6c0.4,1-0.2,2.2-1.3,2.3c-3.7,0.2-7.3,0.2-10.8,0
			c-1.1-0.1-1.8-1.1-1.4-2.1c0.1-0.2,0.1-0.3,0.2-0.5L122.8,36z M71.7,43.4c2.7,1.4,5.6,2.9,8.8,4.2c1.1,0.5,0.9,2.2-0.4,2.2
			c-1.6,0.1-3.1,0.3-4.7,0.5c-1.2,0.1-2.3-0.4-3-1.3c-0.9-1.2-1.7-2.5-2.5-3.7C69.3,44.1,70.5,42.8,71.7,43.4z M125,237.2
			c-67.8,0-109.8-54.9-109.8-105.8c0-28.9,13.6-50.8,38.5-62.5c1.1-0.5,2.2-1,3.3-1.5c0.2-0.1,0.4-0.2,0.6-0.2
			c1.1-0.5,2.3-0.9,3.5-1.4c0,0,0,0,0,0c0.9-0.3,1.9-0.7,2.8-0.9c2.7-0.9,5.5-1.6,8.4-2.1c0.1,0,0.1,0,0.2-0.1
			c4.4-0.9,8.9-1.3,13.3-1.3c5.4,0,10.9,0.7,16.3,2c15.3,3.7,32.1,3.5,49.9-0.7c9.3-2.2,18-2.6,26.2-1.3c0.2,0.1,0.5,0.1,0.7,0.2
			c3.8,0.6,7.2,1.6,10.5,2.8c0.1,0,0.3,0.1,0.4,0.1c1,0.4,2.1,0.9,3.1,1.3c0,0,0,0,0,0c0,0,0,0,0,0c1,0.5,2,1,3,1.5c0,0,0,0,0,0
			c26.4,13.5,39.2,34.5,39.2,64.1C234.8,192,176.9,237.2,125,237.2z"/>
	</g>
	<g>
		<g>
			<path class="st27" d="M45.9,90.3c-0.6,0-1.1-0.2-1.5-0.7c-0.7-0.8-0.6-2.1,0.2-2.8c5.5-4.7,12.2-8.4,19.8-11.2
				c11.5-4.2,23.2-4.9,34.5-2.1c1.1,0.3,1.7,1.3,1.5,2.4s-1.3,1.7-2.4,1.5c-10.5-2.6-21.4-1.9-32.2,2c-7.2,2.6-13.4,6.1-18.6,10.5
				C46.8,90.1,46.3,90.3,45.9,90.3z"/>
		</g>
		<g>
			<circle class="st27" cx="37" cy="97.6" r="2"/>
		</g>
	</g>
</g>
<g id="Layer_2">
</g>
</svg>
