<?xml version="1.0" encoding="utf-8"?>
<!-- Generator: Adobe Illustrator 20.0.0, SVG Export Plug-In . SVG Version: 6.00 Build 0)  -->
<svg version="1.1" id="Layer_1" xmlns="http://www.w3.org/2000/svg" xmlns:xlink="http://www.w3.org/1999/xlink" x="0px" y="0px"
	 viewBox="0 0 268.9 268.9" style="enable-background:new 0 0 268.9 268.9;" xml:space="preserve">
<style type="text/css">
	.st0{fill:#7DB34C;}
	.st1{fill:#44712A;}
	.st2{fill:none;stroke:#FFFFFF;stroke-linecap:round;stroke-miterlimit:10;}
	.st3{fill:#4D831C;}
	.st4{fill:#2A481D;}
	.st5{fill:#4D831C;stroke:#184C28;stroke-width:3;stroke-linecap:round;stroke-linejoin:round;stroke-miterlimit:10;}
	.st6{display:none;}
	.st7{display:inline;fill:#D1A982;}
	.st8{display:inline;}
	.st9{fill:#AFD048;stroke:#6B9311;stroke-width:3;stroke-miterlimit:10;}
	.st10{fill:none;stroke:#6B9311;stroke-miterlimit:10;}
	.st11{fill:#AFD048;}
	.st12{fill:#F40000;stroke:#BA0D0D;stroke-width:3;stroke-miterlimit:10;}
	.st13{fill:none;stroke:#FFFFFF;stroke-linecap:round;stroke-linejoin:round;stroke-miterlimit:10;}
	.st14{fill:#CDA347;stroke:#A2690C;stroke-width:3;stroke-miterlimit:10;}
	.st15{fill:#A2CC62;}
	.st16{fill:#68664C;stroke:#522B25;stroke-width:3;stroke-linecap:round;stroke-linejoin:round;stroke-miterlimit:10;}
	.st17{fill:#B63E34;stroke:#522B25;stroke-width:3;stroke-miterlimit:10;}
	.st18{fill:#ADD481;}
	.st19{fill:#68664C;}
	.st20{fill:#593156;stroke:#331E31;stroke-width:3;stroke-miterlimit:10;}
	.st21{fill:#22B573;stroke:#184C28;stroke-width:3;stroke-linecap:round;stroke-linejoin:round;stroke-miterlimit:10;}
	.st22{fill:#EE0000;}
	.st23{fill:#9A0601;}
	.st24{fill:#EE0000;stroke:#9A0601;stroke-linecap:round;stroke-linejoin:round;stroke-miterlimit:10;}
	.st25{fill:#FFFFFF;}
	.st26{clip-path:url(#SVGID_2_);}
	.st27{fill:#00FFFF;}
	.st28{fill:#456A0A;}
	.st29{fill:#183300;}
	.st30{fill:#FF2214;}
	.st31{fill:#661900;}
	.st32{fill:#88A501;}
	.st33{fill:#3B6700;}
	.st34{fill:#FC4100;}
	.st35{fill:#9F0500;}
	.st36{fill:none;stroke:#6B9311;stroke-width:3;stroke-linecap:round;stroke-miterlimit:10;}
	.st37{fill:#6B9311;}
	.st38{fill:#593156;}
	.st39{fill:#331E31;}
	.st40{fill:#AFD048;stroke:#6B9311;stroke-width:3;stroke-linecap:round;stroke-linejoin:round;stroke-miterlimit:10;}
	.st41{fill:none;stroke:#6B9311;stroke-linejoin:round;stroke-miterlimit:10;}
	.st42{fill:#B63E34;stroke:#522B25;stroke-miterlimit:10;}
	.st43{fill:none;stroke:#522B25;stroke-miterlimit:10;}
	.st44{fill:none;stroke:#522B25;stroke-width:3;stroke-miterlimit:10;}
	.st45{fill:#B63E34;}
	.st46{fill:#522B25;}
	.st47{fill:none;stroke:#40760E;stroke-width:3;stroke-linecap:round;stroke-linejoin:round;stroke-miterlimit:10;}
	.st48{fill:none;stroke:#40760E;stroke-linecap:round;stroke-linejoin:round;stroke-miterlimit:10;}
	.st49{fill:#A2CC62;stroke:#40760E;stroke-width:3;stroke-linecap:round;stroke-linejoin:round;stroke-miterlimit:10;}
	.st50{fill:#A2CC62;stroke:#40760E;stroke-linecap:round;stroke-linejoin:round;stroke-miterlimit:10;}
	.st51{fill:#9EC161;}
	.st52{fill:#40760E;}
	.st53{fill:#AFD048;stroke:#6B9311;stroke-width:3;stroke-linejoin:round;stroke-miterlimit:10;}
	.st54{fill:#663965;}
	.st55{fill:#9D610B;}
	.st56{fill:none;stroke:#A2690C;stroke-linecap:round;stroke-miterlimit:10;}
	.st57{fill:#6D4E2B;}
	.st58{fill:#CDA347;}
	.st59{fill:#7F500A;}
	.st60{fill:#F40000;stroke:#BA0D0D;stroke-miterlimit:10;}
	.st61{fill:#F40000;stroke:#B63E34;stroke-width:3;stroke-miterlimit:10;}
	.st62{fill:#F40000;stroke:#B63E34;stroke-miterlimit:10;}
	.st63{fill:#F40000;stroke:#990D0D;stroke-width:3;stroke-miterlimit:10;}
	.st64{fill:#F40000;stroke:#990D0D;stroke-miterlimit:10;}
	.st65{fill:#F40000;}
	.st66{fill:#990D0D;}
	.st67{fill:#FF9D00;}
	.st68{fill:#E6681E;}
	.st69{fill:#FFCB00;}
	.st70{fill:#B58B06;}
	.st71{fill:#3A4C09;}
	.st72{fill:#B94850;stroke:#6C0A04;stroke-width:3;stroke-miterlimit:10;}
	.st73{fill:#CE8645;stroke:#CE8645;stroke-width:0.5;stroke-miterlimit:10;}
	.st74{fill:#6C0A04;stroke:#6C0A04;stroke-width:0.5;stroke-miterlimit:10;}
	.st75{fill:none;stroke:#6C0A04;stroke-linecap:round;stroke-miterlimit:10;}
	.st76{fill:#B94850;}
	.st77{fill:#CE8645;}
	.st78{fill:#6C0A04;}
	.st79{fill:#8C4F6F;}
	.st80{fill:#E7C456;}
	.st81{fill:#391A26;}
	.st82{fill:#E7C456;stroke:#AC5E17;stroke-width:3;stroke-miterlimit:10;}
	.st83{fill:#4F250E;stroke:#4F250E;stroke-width:0.5;stroke-miterlimit:10;}
	.st84{fill:none;stroke:#AC5E17;stroke-linecap:round;stroke-miterlimit:10;}
	.st85{fill:#4F250E;}
	.st86{fill:#995116;}
	.st87{fill:#FD801E;stroke:#9E0E00;stroke-width:3;stroke-miterlimit:10;}
	.st88{fill:#FD801E;stroke:#9E0E00;stroke-linecap:round;stroke-miterlimit:10;}
	.st89{opacity:0.8;fill:#FFBC42;}
	.st90{opacity:0.8;fill:#D03400;}
	.st91{fill:none;stroke:#9E0E00;stroke-linecap:round;stroke-miterlimit:10;}
	.st92{fill:#FFBC42;}
	.st93{fill:none;stroke:#9E0E00;stroke-width:3;stroke-miterlimit:10;}
	.st94{fill:#344C00;}
	.st95{fill:#FD801E;}
	.st96{fill:#9E0E00;}
	.st97{fill:#FDAF48;}
	.st98{fill:#D74E1E;}
	.st99{opacity:0.8;fill:#68664C;}
	.st100{fill:#775E49;}
	.st101{fill:#FF7A00;}
	.st102{fill:#FF7A00;stroke:#F44500;stroke-width:3;stroke-miterlimit:10;}
	.st103{fill:none;stroke:#F44500;stroke-linecap:round;stroke-linejoin:round;stroke-miterlimit:10;}
	.st104{fill:#FF7A00;stroke:#F44500;stroke-linecap:round;stroke-linejoin:round;stroke-miterlimit:10;}
	.st105{fill:#F44500;}
	.st106{fill:#F6E600;}
	.st107{fill:#8DCC50;}
	.st108{fill:#A2A121;}
	.st109{fill:#F9EFA7;}
	.st110{fill:#6E905E;}
	.st111{fill:#F22F2E;}
	.st112{fill:#7B000E;}
	.st113{fill:#F22F2E;stroke:#7B000E;stroke-width:3;stroke-miterlimit:10;}
	.st114{fill:#7DB34C;stroke:#44712A;stroke-width:3;stroke-miterlimit:10;}
	.st115{fill:none;stroke:#44712A;stroke-miterlimit:10;}
</style>
<g class="st6">
	<rect x="-480.9" y="-2028.3" class="st7" width="919.6" height="2155.1"/>
	<path class="st8" d="M438.3-2027.8V126.4h-918.6v-2154.1H438.3 M439.3-2028.8h-920.6V127.4h920.6V-2028.8L439.3-2028.8z"/>
</g>
<g>
	<path class="st0" d="M151.3,43c-15.6,0-30,7.1-39.5,19.4c-39.4,51.5-66.9,103-89,144.5l-3.7,7c-5.7,10.7-5.7,22.4,0.1,32.1
		c5.7,9.5,16,15.3,26.9,15.3c8.2,0,16.1-3.3,22.6-9.4l3.8-3.5c35-32.8,78.6-73.7,118.3-125.5c9.8-12.8,12.8-29.7,7.9-45.1L151.3,43z
		"/>
	<g>
		<path class="st25" d="M85.2,172.4c-0.4,0-0.7-0.1-1-0.3c-1-0.6-1.3-1.9-0.8-2.9c2.2-3.8,4.4-7.6,6.6-11.4c0.6-1,1.9-1.3,2.9-0.7
			c1,0.6,1.3,1.9,0.7,2.9c-2.2,3.8-4.4,7.5-6.6,11.3C86.6,172.1,85.9,172.4,85.2,172.4z"/>
	</g>
	<path class="st25" d="M108.1,134.5c-0.4,0-0.8-0.1-1.1-0.3c-1-0.6-1.3-1.9-0.6-2.9c4-6.2,8-12.3,11.9-18c0.7-1,2-1.2,2.9-0.6
		c1,0.7,1.2,2,0.6,2.9c-3.9,5.7-7.8,11.7-11.8,17.9C109.4,134.2,108.8,134.5,108.1,134.5z"/>
	<path class="st110" d="M165.8,70.4c0,0,18.8,13.7,33.4,9.4l-6.1-19.3l11.3-20L226,27.6l19.4,4.7l9.7-14.1L230.9,6.2L206.4,14
		l-31,29.3L151.3,43C151.3,43,149.7,57.5,165.8,70.4z"/>
	<path class="st25" d="M68.8,173.1c-0.3,0-0.7-0.1-1-0.3c-1-0.6-1.4-1.9-0.8-2.9c18.6-32.8,35.3-59.1,52.4-82.5
		c0.7-0.9,2-1.1,2.9-0.5c0.9,0.7,1.1,2,0.5,2.9c-17,23.3-33.5,49.4-52.1,82.1C70.2,172.7,69.5,173.1,68.8,173.1z"/>
	<path class="st1" d="M260.2,18.9c-0.1-0.8-0.2-1.6-0.5-2.3c-0.8-2.6-2.2-4.9-4.1-6.8c-1.1-1.1-2.3-2.2-3.8-3
		c-2.2-1.3-10.2-5.5-22-5.5c-4.7,0-10.3,0.7-16.5,2.8c-10.3,3.5-22,11-33.7,25.8l-2.1,2.7c-2.9,3.6-7.1,5.8-11.3,5.8
		c-0.9,0-1.8-0.1-2.6-0.3c-1.5-0.4-3.1-0.6-4.7-0.9c-0.5-0.1-1-0.1-1.6-0.2c-1.1-0.1-2.2-0.3-3.3-0.3l-1.4-0.1c-0.5,0-1,0-1.5,0
		c-1,0-2.1,0-3.1,0.1c0,0,0,0.1,0,0.1c-16.4,0.9-31.3,8.6-41.4,21.7c-39.8,51.9-68.6,105.9-89.6,145.3l-3.7,7
		c-6.8,12.7-6.7,26.7,0.2,38.3c6.8,11.3,19.2,18.4,32.3,18.4c9.9,0,19.2-3.9,26.9-11.1l3.8-3.5c35.2-33,79-74,119-126.3
		c10.9-14.3,14.3-33,9.1-50.3l0,0l0,0c-0.1-0.2-0.1-0.4-0.1-0.5l0,0l-0.2-0.6c-0.3-1-0.7-2-1.1-3c-0.2-0.5-0.3-0.9-0.5-1.4
		c-0.6-1.4-1.2-2.7-1.9-4c-2.1-4-1.4-9.4,1.8-13.5c0.6-0.8,1.2-1.5,1.8-2.2c1.7-2.1,3.2-3.9,4.4-5.4c0.8-1,1.5-1.8,2.1-2.4
		c0.6-0.6,1-1.1,1.3-1.4c2-2,4-3.6,6-4.8c3.2-2.1,6.4-3.1,9.3-3.1c2.6,0,5.3,0.8,8.3,2.3c0.6,0.3,1.2,0.6,1.9,0.8
		c1.9,0.7,4,1.1,6,1.1c2.3,0,4.6-0.5,6.7-1.4c3.5-1.5,6.4-4.1,8.2-7.6c1-2,1.7-4.1,1.9-6.3C260.5,21.7,260.4,20.3,260.2,18.9z
		 M166.5,72.7c7.4,5.6,15.4,8.3,20.7,9.5c4,1,7.1,4.3,7.3,8.4c0.5,9.8-2.4,19.9-8.8,28.3c-40.8,53.3-86.6,95.7-121.4,128.3
		c-5.8,5.4-12.2,7.7-18.3,7.7c-17.3,0-31.9-18.5-21.4-38.2c22-41.1,50.8-96.5,92.2-150.6c6.3-8.2,14.9-13.5,24.2-15.7
		c4.3-1,8.8,0.9,10.9,4.9C154.4,60.2,159,67.1,166.5,72.7z M247.4,23.5c-0.8,1.4-2.2,2.3-3.8,2.3c-0.7,0-1.4-0.2-2-0.5
		c-4.7-2.5-9.4-3.8-14.1-3.8c-1,0-2,0.1-3,0.2c-3,0.4-6.1,1.2-9.1,2.7c-1,0.5-2,1-3,1.6c-3,1.8-6,4.1-8.9,7c-2,1.9-6.2,7-10.6,12.6
		c-6,7.7-7.6,18.4-3,27c0,0.1,0.1,0.2,0.1,0.3c1.4,2.7-1.2,6-4.2,5.1c-5.2-1.5-11-4.4-16.6-8.7c-5.3-4.1-9.5-8.6-12.3-13
		c-1.6-2.6,0.4-6,3.4-5.6c1.7,0.2,3.8,0.3,6.1,0.3c8.1,0,15.9-4,21.1-10.5l2.2-2.7c1.9-2.4,3.8-4.6,5.7-6.5
		c11.2-11.8,21.9-16,30.5-17c1.4-0.2,2.8-0.2,4.1-0.2c9.6,0,15.7,3.8,15.7,3.8C247.7,18.9,248.5,21.4,247.4,23.5z"/>
	
		<ellipse transform="matrix(0.6081 -0.7939 0.7939 0.6081 -31.2735 141.6792)" class="st25" cx="127.9" cy="102.5" rx="2.8" ry="2.8"/>
</g>
</svg>
