<svg xmlns="http://www.w3.org/2000/svg" width="144" height="144" viewBox="0 0 48 48"><path fill="#FFC107" d="M39.332 17.596L36.5 14.771 9 42.174 11.832 45z"/><path fill="#B0BEC5" d="M28 17c0 0-5.901-11.215-15-11 9.259-4.243 18.712 6.715 23 11H28zM23.713 31.299l-1.414 1.415-5.006-5.006c-.391-.392-.391-1.024 0-1.415l0 0c.39-.39 1.023-.391 1.414 0L23.713 31.299z"/><g><path fill="#546E7A" d="M20.516 29.547H24.516V33.547H20.516z" transform="rotate(44.992 22.517 31.55)"/><path fill="#546E7A" d="M33.133 16.961H37.133V20.961H33.133z" transform="rotate(45.001 35.133 18.96)"/></g></svg>