<svg xmlns="http://www.w3.org/2000/svg" width="48" height="48" viewBox="0 0 48 48"><path fill="#F9A825" d="M21.293 15.803C21.242 16.881 21.154 22.008 21 23h4c0-2.999-.435-6.369-.725-7.523-.293-1.141-.632-2.265-1.028-3.366C22.452 9.918 21.439 7.77 20 6c.857 2.105 1.168 4.32 1.288 6.513C21.344 13.611 21.341 14.71 21.293 15.803zM19 23c0-9.18-5.682-12.275-6.737-12.797C11.204 9.686 10.114 9.271 9 9.001c1.952 1.171 6 3.833 6 13.999H19zM38 7c-2.107 1.193-4.054 2.756-5.703 4.706C31.478 12.687 29 16.751 29 22.999h4C33 11.706 36.305 8.713 38 7zM29.106 28c.69 7.338 4.886 13.311 5.08 13.582l1.628-1.162c-.045-.062-3.163-5.695-3.721-12.42H29.106zM15.907 28c-.558 6.725-3.677 12.358-3.721 12.42l1.628 1.162c.194-.271 4.39-6.244 5.081-13.582H15.907zM24.062 28c.406 7.549 2.881 15.819 2.958 16.197l1.961-.393C28.963 43.714 27.316 35.4 27.04 28H24.062zM20.96 28c-.276 7.396-1.922 15.714-1.94 15.805l1.961.393c.076-.378 2.551-8.648 2.958-16.197H20.96zM34 26c0-.553-.447-1-1-1H15c-.553 0-1 .447-1 1l0 0c0 .553.447 1 1 1h18C33.553 27 34 26.553 34 26L34 26z"/><g><path fill="#D88A19" d="M18.926 28c-.511 7.815-3.785 14.482-3.821 14.555l1.789.894c.156-.311 4.395-7.183 5.021-15.448H18.926zM16.557 8.622c.626 1.034 1.043 2.164 1.308 3.317.265 1.154.376 2.336.387 3.518.003.394-.005 1.218-.023 2.187C18.696 19.146 19 20.907 19 23h2c.154-.992.242-6.119.293-7.197.006-.143.005-.287.01-.43-.029-.137-.057-.262-.085-.362-.366-1.308-.848-2.59-1.486-3.788-.637-1.197-1.434-2.311-2.4-3.232C16.368 7.08 15.238 6.324 14 6 15.103 6.632 15.927 7.599 16.557 8.622zM25 23h.5H26h3.5c0 0 0 0 0-.001H29c0-1.486.143-2.845.368-4.072-.003-1.586.03-3.146.103-3.784.147-1.306.451-2.62.894-3.908.441-1.289 1.02-2.554 1.71-3.77C32.77 6.252 33.562 5.073 34.5 4c-1.166.829-2.233 1.811-3.23 2.871-.993 1.065-1.905 2.229-2.704 3.489s-1.483 2.622-2.009 4.071c-.292.794-.583 2.714-.786 4.611-.065-1.635-.118-3.264-.154-3.905-.072-1.282-.079-2.566.014-3.846.094-1.278.285-2.554.65-3.791C26.645 6.267 27.182 5.06 28 4c-1.057.822-1.931 1.912-2.635 3.098-.708 1.188-1.253 2.475-1.694 3.791-.128.38-.253.849-.375 1.369.374 1.055.699 2.129.979 3.219C24.565 16.631 25 20.001 25 23zM14.811 28c-.954 5.393-5.402 9.191-5.452 9.233l1.281 1.536c.235-.196 5.258-4.471 6.196-10.77H14.811zM33.189 28h-2.025c.938 6.299 5.961 10.573 6.195 10.77l1.282-1.536C38.591 37.191 34.143 33.393 33.189 28zM26.084 28c.627 8.266 4.866 15.138 5.021 15.448l1.789-.894c-.036-.072-3.31-6.739-3.821-14.555H26.084zM23 28H25V44H23z"/></g><g><path fill="#C47814" d="M34 24c0 .553-.447 1-1 1H15c-.553 0-1-.447-1-1l0 0c0-.553.447-1 1-1h18C33.553 23 34 23.447 34 24L34 24zM34 28c0 .553-.447 1-1 1H15c-.553 0-1-.447-1-1l0 0c0-.553.447-1 1-1h18C33.553 27 34 27.447 34 28L34 28z"/></g></svg>