<svg xmlns="http://www.w3.org/2000/svg" xmlns:xlink="http://www.w3.org/1999/xlink" width="64" height="64" version="1.1" viewBox="0 0 48 48"><g id="surface1027379"><path fill="#F9A825" fill-opacity="1" fill-rule="nonzero" stroke="none" d="M 21.292969 15.804688 C 21.242188 16.882812 21.152344 22.007812 21 23 L 25 23 C 25 20 24.566406 16.632812 24.273438 15.476562 C 23.980469 14.335938 23.644531 13.210938 23.246094 12.109375 C 22.453125 9.917969 21.4375 7.769531 20 6 C 20.855469 8.105469 21.167969 10.320312 21.289062 12.511719 C 21.34375 13.609375 21.339844 14.710938 21.292969 15.804688 Z M 19 23 C 19 13.820312 13.316406 10.726562 12.261719 10.203125 C 11.203125 9.6875 10.113281 9.269531 9 9 C 10.953125 10.171875 15 12.835938 15 23 Z M 38 7 C 35.894531 8.191406 33.945312 9.757812 32.296875 11.707031 C 31.476562 12.6875 29 16.75 29 23 L 33 23 C 33 11.707031 36.304688 8.714844 38 7 Z M 29.105469 28 C 29.796875 35.339844 33.992188 41.3125 34.1875 41.582031 L 35.8125 40.421875 C 35.769531 40.359375 32.652344 34.726562 32.09375 28 Z M 15.90625 28 C 15.347656 34.726562 12.230469 40.359375 12.1875 40.421875 L 13.8125 41.582031 C 14.007812 41.3125 18.203125 35.339844 18.894531 28 Z M 24.0625 28 C 24.46875 35.550781 26.941406 43.820312 27.019531 44.195312 L 28.980469 43.804688 C 28.964844 43.714844 27.316406 35.398438 27.039062 28 Z M 20.960938 28 C 20.683594 35.394531 19.039062 43.714844 19.019531 43.804688 L 20.980469 44.199219 C 21.058594 43.820312 23.53125 35.550781 23.9375 28 Z M 34 26 C 34 25.445312 33.554688 25 33 25 L 15 25 C 14.445312 25 14 25.445312 14 26 C 14 26.554688 14.445312 27 15 27 L 33 27 C 33.554688 27 34 26.554688 34 26 Z M 34 26"/><path fill="#D88A19" fill-opacity="1" fill-rule="nonzero" stroke="none" d="M 18.925781 28 C 18.414062 35.816406 15.140625 42.480469 15.105469 42.554688 L 16.894531 43.449219 C 17.050781 43.136719 21.289062 36.265625 21.914062 28 Z M 16.558594 8.621094 C 17.183594 9.65625 17.601562 10.785156 17.863281 11.9375 C 18.128906 13.09375 18.242188 14.273438 18.253906 15.457031 C 18.253906 15.851562 18.246094 16.675781 18.230469 17.644531 C 18.695312 19.144531 19 20.90625 19 23 L 21 23 C 21.152344 22.007812 21.242188 16.882812 21.292969 15.804688 C 21.300781 15.660156 21.296875 15.515625 21.304688 15.371094 C 21.273438 15.234375 21.246094 15.109375 21.21875 15.011719 C 20.851562 13.703125 20.371094 12.421875 19.730469 11.222656 C 19.09375 10.027344 18.296875 8.910156 17.332031 7.992188 C 16.367188 7.078125 15.238281 6.324219 14 6 C 15.101562 6.632812 15.925781 7.597656 16.558594 8.621094 Z M 25 23 L 29.5 23 L 29 23 C 29 21.511719 29.144531 20.152344 29.367188 18.925781 C 29.363281 17.339844 29.398438 15.78125 29.472656 15.144531 C 29.617188 13.835938 29.921875 12.523438 30.363281 11.234375 C 30.804688 9.945312 31.386719 8.679688 32.074219 7.464844 C 32.769531 6.253906 33.5625 5.074219 34.5 4 C 33.335938 4.828125 32.265625 5.8125 31.269531 6.871094 C 30.277344 7.9375 29.363281 9.101562 28.566406 10.359375 C 27.765625 11.621094 27.082031 12.980469 26.558594 14.429688 C 26.265625 15.226562 25.972656 17.144531 25.769531 19.042969 C 25.707031 17.40625 25.652344 15.777344 25.617188 15.136719 C 25.546875 13.855469 25.539062 12.570312 25.632812 11.289062 C 25.726562 10.011719 25.914062 8.738281 26.28125 7.5 C 26.644531 6.265625 27.183594 5.058594 28 4 C 26.941406 4.820312 26.070312 5.910156 25.363281 7.097656 C 24.65625 8.285156 24.113281 9.574219 23.671875 10.890625 C 23.542969 11.269531 23.417969 11.738281 23.296875 12.257812 C 23.671875 13.3125 23.996094 14.386719 24.273438 15.476562 C 24.566406 16.632812 25 20 25 23 Z M 14.8125 28 C 13.855469 33.394531 9.410156 37.191406 9.359375 37.234375 L 10.640625 38.769531 C 10.875 38.574219 15.898438 34.296875 16.835938 28 Z M 33.1875 28 L 31.164062 28 C 32.101562 34.300781 37.125 38.574219 37.359375 38.769531 L 38.640625 37.234375 C 38.589844 37.191406 34.144531 33.394531 33.1875 28 Z M 26.085938 28 C 26.710938 36.265625 30.949219 43.136719 31.105469 43.449219 L 32.894531 42.554688 C 32.859375 42.480469 29.585938 35.816406 29.074219 28 Z M 23 28 L 25 28 L 25 44 L 23 44 Z M 23 28"/><path fill="#C47814" fill-opacity="1" fill-rule="nonzero" stroke="none" d="M 34 24 C 34 24.554688 33.554688 25 33 25 L 15 25 C 14.445312 25 14 24.554688 14 24 C 14 23.445312 14.445312 23 15 23 L 33 23 C 33.554688 23 34 23.445312 34 24 Z M 34 28 C 34 28.554688 33.554688 29 33 29 L 15 29 C 14.445312 29 14 28.554688 14 28 C 14 27.445312 14.445312 27 15 27 L 33 27 C 33.554688 27 34 27.445312 34 28 Z M 34 28"/><path fill="#43A047" fill-opacity="1" fill-rule="nonzero" stroke="none" d="M 48 38 C 48 43.5 43.5 48 38 48 C 32.5 48 28 43.5 28 38 C 28 32.5 32.5 28 38 28 C 43.5 28 48 32.5 48 38"/><path fill="#FFF" fill-opacity="1" fill-rule="nonzero" stroke="none" d="M 44 36 L 40 36 L 40 32 L 36 32 L 36 36 L 32 36 L 32 40 L 36 40 L 36 44 L 40 44 L 40 40 L 44 40 Z M 44 36"/></g></svg>