<?xml version="1.0" encoding="utf-8"?>
<!-- Generator: Adobe Illustrator 20.0.0, SVG Export Plug-In . SVG Version: 6.00 Build 0)  -->
<svg version="1.1" xmlns="http://www.w3.org/2000/svg" xmlns:xlink="http://www.w3.org/1999/xlink" x="0px" y="0px"
	 viewBox="0 0 1000 1000" style="enable-background:new 0 0 1000 1000;" xml:space="preserve">
<style type="text/css">
	.st0{fill:none;stroke:#45210A;stroke-width:3;stroke-linecap:round;stroke-linejoin:round;stroke-miterlimit:10;}
	.st1{fill:#00FFFF;}
	.st2{clip-path:url(#SVGID_2_);}
	.st3{clip-path:url(#SVGID_4_);}
	.st4{clip-path:url(#SVGID_6_);}
	.st5{fill:#D2C6C6;}
	.st6{fill:#D2C6C6;stroke:#534741;stroke-miterlimit:10;}
	.st7{fill:#B28A5C;stroke:#45210A;stroke-width:3;stroke-linecap:round;stroke-linejoin:round;stroke-miterlimit:10;}
	.st8{fill:none;stroke:#87562E;stroke-miterlimit:10;}
	.st9{fill:none;stroke:#87562E;stroke-linecap:round;stroke-linejoin:round;stroke-miterlimit:10;}
	.st10{fill:none;stroke:#FFFFFF;stroke-linecap:round;stroke-linejoin:round;stroke-miterlimit:10;}
	.st11{fill:none;stroke:#45210A;stroke-linecap:round;stroke-linejoin:round;stroke-miterlimit:10;}
	.st12{fill:#45210A;}
	.st13{fill:#FFFFFF;}
	.st14{fill:#488C00;}
	.st15{fill:#488C00;stroke:#006837;stroke-linejoin:round;stroke-miterlimit:10;}
	.st16{fill:#488C00;stroke:#006837;stroke-width:0.899;stroke-linejoin:round;stroke-miterlimit:10;}
	.st17{fill:#FCEE21;}
	.st18{fill:none;stroke:#FFFFFF;stroke-linecap:round;stroke-miterlimit:10;}
	.st19{fill:#FFCADE;}
	.st20{fill:none;stroke:#386100;stroke-width:4;stroke-linejoin:round;stroke-miterlimit:10;}
	.st21{fill:#519900;}
	.st22{fill:#386100;}
	.st23{fill:none;stroke:#386100;stroke-width:0.25;stroke-linecap:round;stroke-linejoin:round;stroke-miterlimit:10;}
	.st24{fill:none;stroke:#386100;stroke-linecap:round;stroke-linejoin:round;stroke-miterlimit:10;}
	.st25{fill:#519900;stroke:#386100;stroke-linejoin:round;stroke-miterlimit:10;}
	.st26{fill:none;stroke:#95B22F;stroke-linecap:round;stroke-linejoin:round;stroke-miterlimit:10;}
	.st27{fill:#95B22F;}
</style>
<g id="Layer_1">
	<g>
		<g>
			<path class="st21" d="M500,629.3c-3.8-0.1-6.9-2.9-7.5-6.6l0,0c0-0.3-5-32.2-19-68.8c-35-91.5-53.5-175.2-53.5-242
				c0-69.4,19.9-139.3,36.6-185.7c18-50.2,35.8-83.5,36.6-84.9c1.4-2.5,4-4.1,6.9-4.1c0,0,0.1,0,0.1,0c2.9,0,5.6,1.7,6.9,4.3
				c44.4,88.4,73.1,194.5,73.1,270.4c0,111-50.9,235.6-53.6,242.1c-0.5,1.4-9.8,26.1-18.6,69.1c-0.7,3.6-3.9,6.2-7.6,6.2
				C500.1,629.3,500.1,629.3,500,629.3z"/>
		</g>
	</g>
	<g>
		<g>
			<path class="st21" d="M510.6,641c-1.7,0-3.4-0.6-4.8-1.7c-3-2.4-3.8-6.5-2-9.8c0.2-0.4,14.4-27,24.5-62.1
				c25.4-88.3,58.7-161.5,96.4-211.6c39.2-52,93.5-93.2,132.2-118.5c41.8-27.4,74-42.4,75.3-43c1-0.5,2.2-0.7,3.3-0.7
				c1.7,0,3.4,0.6,4.8,1.6c2.3,1.8,3.4,4.7,2.9,7.6c-16.6,91.3-55,187-97.8,243.9c-62.6,83.2-171,147.8-176.8,151.2
				c-1.2,0.8-22.1,14-52.8,41.2C514.3,640.4,512.5,641,510.6,641z"/>
		</g>
	</g>
	<g>
		<g>
			<path class="st21" d="M627.6,653.9c-22.4,0-42.5-1.2-53.8-2.4c-0.6,0-5.4-0.4-13.6-0.4c-7.8,0-20.6,0.3-37,1.8
				c-0.2,0-0.5,0-0.7,0c-3.5,0-6.6-2.3-7.5-5.8c-1-3.6,0.8-7.5,4.2-9.1c0.2-0.1,20.8-9.9,42.7-26.8c55.6-42.8,109.2-72.6,155.1-86.3
				c30.7-9.2,66.3-13.8,105.9-13.8c52.7,0,93.3,8.2,95,8.5c2.9,0.6,5.1,2.7,5.9,5.5c0.8,2.8,0,5.8-2.2,7.8
				c-51.6,48.6-118.6,90-170.7,105.6C708.8,651.2,660.6,653.9,627.6,653.9C627.6,653.9,627.6,653.9,627.6,653.9z"/>
		</g>
	</g>
	<g>
		<path class="st21" d="M669.1,676.5c-44.3-14.9-100.4-12.6-113.8-12.1c-18.9,0.8-34.1-1.9-34.1-1.9c18.7,10.9,28.4,18.9,28.4,18.9
			c10.1,8.8,53.7,44.1,98,59c33.8,11.3,84.7,14,128.9,7.7C776.5,748.1,727.6,696.1,669.1,676.5z"/>
	</g>
	<g>
		<g>
			<path class="st21" d="M489.6,641c-1.8,0-3.7-0.7-5.2-2c-30.8-27.2-51.6-40.4-52.8-41.2c-5.8-3.4-114.2-68.1-176.8-151.2
				C212,389.8,173.6,294.1,157,202.8c-0.5-2.9,0.6-5.8,2.9-7.6c1.4-1.1,3.1-1.6,4.8-1.6c1.1,0,2.2,0.2,3.3,0.7
				c1.3,0.6,33.5,15.6,75.3,43c38.7,25.3,93,66.5,132.2,118.5c37.7,50.1,71.1,123.2,96.4,211.6c10.2,35.3,24.4,61.9,24.5,62.1
				c1.8,3.3,1,7.5-2,9.8C493.1,640.5,491.3,641,489.6,641z"/>
		</g>
	</g>
	<g>
		<g>
			<path class="st21" d="M372.6,653.9c-33,0-81.2-2.6-123.4-15.3C197.1,623,130,581.6,78.5,533c-2.1-2-2.9-5-2.2-7.8
				c0.8-2.8,3.1-4.9,5.9-5.5c1.7-0.3,42.2-8.5,95-8.5c39.6,0,75.3,4.6,105.9,13.8c45.9,13.7,99.6,43.6,155.1,86.3
				c21.9,16.9,42.5,26.7,42.7,26.8c3.4,1.6,5.2,5.4,4.2,9.1c-0.9,3.4-4,5.8-7.5,5.8c-0.2,0-0.5,0-0.7,0c-16.4-1.5-29.1-1.8-37-1.8
				c-8.2,0-13,0.3-13.6,0.4C415.1,652.6,395,653.9,372.6,653.9z"/>
		</g>
	</g>
	<g>
		<path class="st21" d="M331.2,676.5c44.3-14.9,100.4-12.6,113.8-12.1c18.9,0.8,34.1-1.9,34.1-1.9c-18.7,10.9-28.4,18.9-28.4,18.9
			c-10.1,8.8-53.7,44.1-98,59c-33.8,11.3-84.7,14-128.9,7.7C223.7,748.1,272.6,696.1,331.2,676.5z"/>
	</g>
	<g>
		<path class="st22" d="M759.8,668.8c0.1,0,0.1,0,0.2-0.1c56.5-16.9,128.4-61.2,183.3-112.9c10.7-10.1,14.9-25.1,10.9-39.3
			c0,0,0-0.1,0-0.1c-4-14-15.4-24.6-29.8-27.6c-3.6-0.7-70.1-14.1-145.3-7.2c-8.5,0.8-13.8-8.9-8.7-15.7c0.1-0.1,0.1-0.2,0.2-0.3
			c45.6-60.5,86.2-161.5,103.7-257.3c2.6-14.5-3-29.1-14.6-38c-11.5-8.9-26.9-10.7-40.2-4.8c-0.1,0.1-0.3,0.1-0.4,0.2
			c-3.8,1.8-38.6,18.2-81.8,46.7c-48.1,31.8-88.2,66-119.5,102.1c-2.2,2.5-6.2,1-6.2-2.3c0-0.1,0-0.3,0-0.4
			c0-80.4-30-192.1-76.4-284.5c-6.6-13.2-19.8-21.5-34.5-21.7c-0.2,0-0.3,0-0.5,0h-0.1c-14.5,0-27.8,7.9-34.6,20.7
			c-2.1,3.9-21.1,39.9-39.6,92c-24.7,69.6-37.3,134.7-37.3,193.5c0,0,0,0.1,0,0.1c0,3.3-4,4.8-6.2,2.3
			c-31.3-35.9-71.3-70.1-119.2-101.8c-43.4-28.7-78-45-81.8-46.7c-0.1-0.1-0.2-0.1-0.4-0.2c-13.3-6-28.7-4.1-40.1,4.7
			c-11.7,9-17.3,23.6-14.7,38.1c17.4,95.7,58.1,196.7,103.7,257.2c0,0.1,0.1,0.1,0.1,0.2c5.2,6.8-0.2,16.5-8.7,15.7
			c-72.3-6.6-136.1,5.5-145.1,7.3c-0.1,0-0.1,0-0.2,0c-14.3,3-25.7,13.6-29.8,27.6c0,0,0,0.1,0,0.1c-4,14.1,0.2,29.2,10.9,39.3
			c54.8,51.7,126.8,96,183.3,112.9c0,0,0.1,0,0.1,0c5.1,1.5,6.3,8.2,2,11.4c-26.4,19.3-44,37.6-47.2,41c-10.1,10.7-13.3,26-8.5,39.9
			c4.9,13.9,16.9,23.9,31.5,26c17.3,2.5,35.4,3.7,53.9,3.7c35,0,68-4.6,93.1-13c31.2-10.5,61.2-29.1,82.2-44c7-5,16.8-0.7,17.8,7.9
			c6.5,55.6,20.4,133.7,49.6,225.5c5.2,16.4,20.2,27.4,37.4,27.4c4,0,8-0.6,11.8-1.8c0,0,0.1,0,0.1,0c10-3.2,18.2-10.1,23-19.4
			c4.8-9.3,5.7-20,2.5-29.9c-24.3-76.3-37.2-142-44.1-191.7c-1.3-9.6,9.4-16.4,17.4-10.9c20,13.4,45.6,28.2,72.1,37.1
			c25.1,8.4,58.1,13.1,93.1,13.1c18.5,0,36.6-1.3,53.8-3.7c14.6-2.1,26.7-12,31.5-25.9c4.9-13.9,1.6-29.2-8.5-39.9
			c-3.2-3.4-20.8-21.6-47.2-40.9C753.5,677.1,754.6,670.4,759.8,668.8z M699.4,730c-4.1,1.9-5.8,6.8-3.6,10.8l0.8,1.4
			c-5.2-0.5-10.2-1.1-15.1-1.9c-6.5-1-12.1-5.3-14.7-11.4l-1.7-4.1c-1.7-4-6.3-5.8-10.2-4.1c-4,1.7-5.8,6.3-4.1,10.2l1.1,2.6
			c-0.6-0.2-1.1-0.4-1.7-0.5c-3.8-1.3-7.7-2.7-11.5-4.3c-5.2-2.1-9.1-6.5-10.8-11.8l-1.4-4.3c-1.3-4.1-5.5-6.6-9.6-5.4
			c-3.3,1-5.5,3.9-5.7,7.2c0,0.4-0.4,0.6-0.8,0.4c-30.6-17.5-54.3-38-55.7-39.2c0,0-0.1-0.1-0.1-0.1c-0.1-0.1-1.5-1.2-4-3.1
			c1.6,0,3.3-0.1,5-0.1c24-1,46.8-0.2,67,2.3c0.4,0,0.6,0.5,0.4,0.8c-1.8,2.6-2,6.1-0.1,8.9c1.6,2.4,4.4,3.6,7.1,3.4
			c1.3-0.1,2.6-0.5,3.7-1.3l4.9-3.3c4.5-3.1,10.2-4.1,15.5-2.7c4.4,1.1,8.6,2.3,12.5,3.6c0.3,0.1,0.6,0.2,0.8,0.3l-1.4,0.7
			c-3.6,1.9-5.4,6.3-3.8,10c1.3,3,4.2,4.8,7.2,4.8c1.2,0,2.4-0.3,3.6-0.9l4.8-2.5c5.5-2.9,12.1-2.9,17.6,0c4.3,2.2,8.4,4.6,12.4,7
			c0.4,0.2,0.3,0.8-0.1,0.9h0c-3.8,1.7-5.9,6.1-4.4,10c1.2,3.2,4.2,5,7.3,5c1.1,0,2.1-0.2,3.1-0.7l0.4-0.2c6.3-2.8,13.6-2,19.1,2.2
			c10.1,7.6,18.7,15,25.1,20.7c0.3,0.3,0.1,0.9-0.3,0.9c-10.6,0.9-21.3,1.4-31.8,1.3c-7,0-13.4-3.9-16.7-10v0
			C707.6,730,703.1,728.3,699.4,730z M347,733.6l1.1-2.6c1.7-4-0.2-8.5-4.1-10.2c-4-1.7-8.5,0.2-10.2,4.1l-1.7,4.1
			c-2.6,6.1-8.1,10.4-14.7,11.4c-4.9,0.7-9.9,1.4-15.1,1.9l0.8-1.4c2.1-3.9,0.5-8.9-3.6-10.8c-3.8-1.7-8.3,0-10.2,3.6v0
			c-3.3,6.1-9.7,10-16.7,10c-10.5,0.1-21.2-0.4-31.8-1.3c-0.5,0-0.6-0.6-0.3-0.9c6.4-5.8,14.9-13.1,25.1-20.7
			c5.5-4.1,12.8-5,19.1-2.2l0.4,0.2c1,0.5,2.1,0.7,3.1,0.7c3.1,0,6.1-1.9,7.3-5c1.5-3.9-0.6-8.3-4.4-10c-0.4-0.2-0.4-0.7-0.1-0.9
			c4-2.4,8.2-4.8,12.4-7c5.5-2.9,12.1-2.9,17.6,0l4.8,2.5c1.1,0.6,2.4,0.9,3.6,0.9c3,0,5.9-1.8,7.2-4.8c1.6-3.8-0.2-8.1-3.8-10
			l-1.4-0.7c0.3-0.1,0.6-0.2,0.8-0.3c3.9-1.3,8.1-2.5,12.5-3.6c5.3-1.4,11-0.4,15.5,2.7l4.9,3.3c1.1,0.8,2.4,1.2,3.7,1.3
			c2.7,0.2,5.5-1,7.1-3.4c1.9-2.8,1.7-6.3-0.1-8.9c-0.2-0.3,0-0.8,0.4-0.8c20.2-2.5,43-3.3,67-2.3c1.7,0.1,3.4,0.1,5,0.1
			c-2.5,1.9-3.8,3-4,3.1c0,0-0.1,0.1-0.1,0.1c-1.4,1.2-25.1,21.7-55.7,39.2c-0.3,0.2-0.8,0-0.8-0.4c-0.1-3.3-2.3-6.2-5.7-7.2
			c-4.1-1.2-8.4,1.4-9.6,5.4l-1.4,4.3c-1.7,5.3-5.6,9.7-10.8,11.8c-3.8,1.6-7.6,3-11.5,4.3C348.1,733.2,347.5,733.4,347,733.6z
			 M180.9,531.1l-6.1-10.1c0.6-1.1,0.5-0.9,1.1-2c9.4,0,19.1,0.3,29,0.9c14,0.9,26.4,9.5,32.4,22.2l0.7,1.6c1.3,2.8,4.1,4.5,7.1,4.5
			c1.3,0,2.6-0.3,3.9-1c3.6-2,4.8-6.6,3.1-10.3l-4.6-9.8c-0.5-1,0.4-2.1,1.5-1.9c10.2,1.9,20.4,4.3,30.4,7.2c0.1,0,0.2,0.1,0.4,0.1
			c9.4,2.8,16.9,9.8,20.5,18.8l4,10c1.2,3,4.1,4.9,7.2,4.9c1,0,2.1-0.2,3.1-0.7c3.9-1.7,5.6-6.4,4-10.3l-2.6-6.5
			c-0.5-1.1,0.7-2.2,1.8-1.7c5.4,2.4,10.8,5,16,7.6c15.4,7.7,27.1,21.2,32.8,37.5v0c1.1,3.2,4.1,5.2,7.4,5.2c0.9,0,1.9-0.2,2.8-0.5
			c4-1.5,5.9-6.1,4.5-10.1l-0.9-2.7c-0.4-1.2,0.9-2.3,2-1.6c24.1,15.4,42.3,29.4,49.7,35.1c22.9,17.6,44.2,27.6,44.2,27.6
			c-16-1.4-28.8-1.8-37.7-1.8c-9.3,0-14.3,0.4-14.3,0.4c-8.4,0.9-28.1,2.4-53.1,2.4c-2.4,0-4.8,0-7.2,0c-1.3,0-1.8-1.6-0.8-2.4
			l3.5-2.7c3.4-2.6,4.3-7.5,1.8-10.9c-2.6-3.6-7.6-4.3-11.1-1.6l-0.9,0.7c-13.7,10.6-31,15.5-48.3,13.5c-6.1-0.7-12.2-1.6-18.4-2.5
			c-1.2-0.2-1.5-1.7-0.5-2.4l6.9-4.8c3.6-2.5,4.4-7.5,1.8-11c-2.5-3.4-7.5-4-11-1.6l-9.2,6.4c-8,5.6-18.2,7.3-27.6,4.5
			c-0.1,0-0.1,0-0.2,0c-9.3-2.8-19-6.4-29-10.7c-1-0.4-1.1-1.8-0.2-2.4l8.6-5.4c3.7-2.3,4.8-7.3,2.3-10.9c-2.4-3.5-7.3-4.4-10.9-2.1
			h0c-12.1,7.6-27.3,7.8-39.7,0.8c-8.1-4.6-16.2-9.6-24.2-14.8c-0.9-0.6-0.8-1.9,0.1-2.3l9.3-4.5c3.7-1.8,5.6-6.2,4.1-10.1
			c-1.7-4.2-6.6-6-10.6-4.1c-12.4,6-27.1,4.5-38-3.9c-13.1-10.1-25.7-20.7-37.5-31.6c-0.8-0.8-0.4-2.1,0.7-2.3
			c6.4-1.2,24.1-4.2,48.2-6.1c13.7-1.1,26.8,5.6,33.9,17.4l0.7,1.2c1.5,2.4,4,3.8,6.7,3.8c1.7,0,3.3-0.5,4.8-1.7
			C182.3,539,183,534.5,180.9,531.1z M165.7,202.7c5.6,2.7,19.4,9.6,37.8,20.3c15.3,8.9,25,25,25.7,42.6c0,0,0,0,0,0
			c0.2,4.2,3.6,7.5,7.8,7.5c0.1,0,0.2,0,0.3,0c4.3-0.2,7.6-3.9,7.5-8.2l-0.6-13.4c-0.1-1.3,1.4-2.1,2.5-1.4
			c7.8,5.3,15.9,11,24.1,17.2c11.7,8.7,18.2,22.8,17.2,37.4v0c-0.3,4.3,3,8,7.3,8.3c0.2,0,0.3,0,0.5,0c4.1,0,7.5-3.2,7.8-7.3
			l0.5-8.3c0.1-1.3,1.6-2,2.6-1.1c5.3,4.7,10.6,9.5,15.9,14.5c10.9,10.4,16,25.5,13.5,40.3l-0.1,0.8c-0.5,3,0.6,6,3.1,7.8
			c1.4,1,3.1,1.5,4.6,1.5c3.8,0,7.1-2.7,7.7-6.5l1.2-7.2c0.3-1.8,2.5-2.4,3.7-1c3.9,4.7,7.7,9.4,11.3,14.3c0.6,0.8,1.2,1.5,1.7,2.3
			c8.8,11.9,11.9,27,8.4,41.3l-0.7,3.1c-1,4.2,1.4,8.6,5.6,9.7c0.6,0.2,1.3,0.2,1.9,0.2c3.5,0,6.7-2.4,7.6-6l1-4
			c0.5-2.1,3.3-2.4,4.3-0.6c2.6,4.6,5.1,9.2,7.5,13.9c7.2,13.8,9,29.8,4.8,44.8v0c-0.8,3.1,0.2,6.5,2.8,8.3c1.5,1.1,3.1,1.5,4.7,1.5
			c3.4,0,6.6-2.3,7.5-5.7c0.4-1.4,2.4-1.6,3-0.2c2.4,5.7,4.7,11.4,6.9,16.9c5.3,13.4,5.1,28.4-0.6,41.7l-0.3,0.6
			c-1.4,3.5-0.4,7.6,2.8,9.7c1.4,0.9,2.9,1.3,4.3,1.3c3.1,0,6-1.8,7.2-4.8l0.6-1.5c0.6-1.4,2.5-1.3,3,0.1
			c5.4,16.5,9.1,29.3,11.1,36.2c7.5,26.1,17.1,47.3,22,57.4c0.4,1,0.8,1.9,1.4,2.8c0.9,1.9,1.6,3.1,1.8,3.4c0,0,0,0,0,0
			c-32.5-28.7-53.8-41.9-53.8-41.9c-6.7-4-19.5-11.9-35.6-23c-1.2-0.8-0.7-2.7,0.7-2.9l1-0.1c4.1-0.5,7.4-4.1,7.1-8.2
			c-0.3-4.5-4.3-7.8-8.7-7.3h0c-14.5,1.9-29.1-2.2-40.6-11.2c-4.5-3.6-9.2-7.2-13.8-11.1c-1.2-0.9-0.5-2.8,1-2.8l3.5,0c0,0,0,0,0,0
			c4.5,0,8-3.7,7.8-8.3c-0.2-4.2-3.9-7.3-8-7.3l-1.8,0c-15.9,0-31.3-6.3-42.7-17.4c-4-3.8-7.9-7.8-11.7-11.7c-1-1-0.2-2.7,1.2-2.7
			l7.9,0.3c0.1,0,0.2,0,0.3,0c4.5,0,8.2-3.9,7.8-8.6c-0.4-3.9-3.8-6.9-7.8-7l-3.7-0.1c-15.1-0.4-29.1-7.7-38.2-19.7
			c-0.1-0.1-0.1-0.1-0.1-0.2c-4.1-5.5-8.2-11.3-12.2-17.4c-0.7-1.1,0.2-2.6,1.5-2.4l8.8,1c0.3,0,0.6,0,0.9,0c4.3,0,8-3.6,7.8-8.2
			c-0.2-3.9-3.4-7-7.2-7.4c-15.3-1.7-28.6-11-35.6-24.7c-3-5.9-5.9-12-8.8-18.2c-0.5-1.2,0.5-2.5,1.8-2.2l6.9,1.5
			c0.5,0.1,1.1,0.2,1.6,0.2c4.1,0,7.7-3.2,7.8-7.7c0.1-3.8-2.7-7-6.4-7.8l0,0c-13.1-2.8-23.9-12-28.7-24.5
			c-3.7-9.6-7.1-19.4-10.4-29.2c-0.4-1.2,0.8-2.4,2-2l10.8,3.5c0.8,0.3,1.6,0.4,2.4,0.4c3.4,0,6.6-2.3,7.5-5.8
			c1.1-4-1.4-8.2-5.4-9.5h0c-15.4-5-27-17.6-31.1-33.2c-3.8-14.7-7.1-29.4-9.8-43.9C163.2,203.1,164.5,202.1,165.7,202.7z
			 M449.6,304.4L449.6,304.4c-14.3-13.3-21.2-32.7-18.4-52c0.6-4.2,1.2-8.3,1.9-12.4c0.4-2.6,3.5-3.6,5.4-1.8l10.9,10.6
			c1.5,1.5,3.5,2.2,5.4,2.2c2.2,0,4.4-0.9,5.9-2.7c2.7-3.2,2.3-8-0.7-10.9l-0.4-0.4c-14-13.5-19.4-33.6-14.3-52.4
			c0.7-2.8,1.5-5.5,2.3-8.3c0.7-2.5,4-3.2,5.6-1.1l9.1,11.3c1.5,1.9,3.8,2.9,6.1,2.9c2,0,4.1-0.8,5.6-2.4c2.8-2.9,2.8-7.4,0.3-10.5
			v0c-12.3-15.3-15.7-35.9-8.9-54.3c0.2-0.6,0.4-1.1,0.6-1.7c0.9-2.5,4.3-2.8,5.7-0.6l3.3,5.3c1.5,2.4,4,3.7,6.6,3.7
			c1.9,0,3.8-0.7,5.3-2.1c2.8-2.6,3.2-6.8,1.2-10c-8.1-13-9.2-29.2-2.9-43.1c4.7-10.4,8.5-18.3,11-23.1c1.2-2.4,4.6-2.3,5.7,0
			c4.1,8.3,8,16.8,11.8,25.4c5.7,13,5.1,28-1.7,40.5l-0.3,0.5c-2,3.7-1,8.5,2.7,10.7c1.3,0.8,2.6,1.1,4,1.1c2.8,0,5.4-1.5,6.8-4.1
			l1.4-2.5c1.3-2.4,4.9-2.2,5.8,0.5c0.2,0.6,0.5,1.3,0.7,1.9c6.3,17.5,3.5,37-7.6,52l-0.1,0.1c-2.5,3.3-2.1,8.1,1.1,10.8
			c1.5,1.2,3.3,1.8,5,1.8c2.4,0,4.8-1.1,6.3-3.2l6.7-9.1c1.6-2.2,5-1.5,5.7,1.1c0.8,2.9,1.6,5.8,2.4,8.8c4.8,18-0.1,37.2-13,50.6v0
			c-3,3.2-3.1,8.3,0.1,11.3c1.5,1.4,3.4,2.1,5.3,2.1c2.1,0,4.1-0.8,5.6-2.4l8.4-8.8c1.8-1.9,5-0.9,5.5,1.7c0.7,4.3,1.4,8.6,2.1,12.9
			c2.7,18.5-3.4,37.1-16.6,50.3c-2.9,2.9-3.3,7.8-0.6,10.9c1.6,1.8,3.7,2.7,5.9,2.7c2,0,4-0.8,5.5-2.3l7.9-7.9
			c0.9-0.9,2.5-0.3,2.5,1c0,1,0,2,0,2.9c0,6-0.2,12-0.4,18.1c-0.7,14.4-7,28-17.6,37.8l-6.5,6c-3.1,2.9-3.6,7.7-0.9,10.9
			c1.6,1.9,3.8,2.8,6,2.8c1.9,0,3.8-0.7,5.3-2.1l5.4-5c1.2-1.1,3.2-0.1,2.9,1.6c-1,6.7-2.2,13.3-3.4,19.9
			c-2.2,11.6-8.4,22-17.5,29.4l-12,9.8c-3.3,2.7-4.1,7.7-1.4,11.1c1.5,1.9,3.8,3,6.1,3c1.7,0,3.5-0.6,4.9-1.8l7.6-6.2
			c0.9-0.7,2.2,0.1,1.9,1.2c-1.4,5.5-2.8,10.8-4.3,16c-4.2,15.3-13.8,28.5-26.9,37.4l-1.7,1.2c-3.9,2.6-5.1,7.3-2.9,10.9
			c1.5,2.4,4.1,3.8,6.7,3.8c1.5,0,3-0.4,4.4-1.3l1.4-1c1.4-0.9,3.2,0.4,2.6,2c-5.4,15.5-10,27.2-12.7,33.7c0,0-9.7,24.9-18.9,70.1
			c0,0,0,0.1-0.1,0.1c0,0,0-0.1,0-0.1c-0.5-3.2-5.6-34.3-19.4-70.1c-2.6-6.7-7.2-18.8-12.6-34.6c-0.5-1.6,1.2-2.9,2.6-2.1l3.5,2.2
			c1.3,0.8,2.7,1.2,4.2,1.2c2.7,0,5.3-1.4,6.7-3.9c2.1-3.7,0.8-8.4-2.8-10.7l-2-1.2c-14-8.8-24.2-22.5-28.6-38.5
			c-1.5-5.2-2.9-10.6-4.3-16.1c-0.3-1.1,1-1.9,1.9-1.2l9.6,7.3c1.4,1.1,3.1,1.6,4.7,1.6c2.3,0,4.6-1,6.2-3c2.6-3.4,1.7-8.5-1.7-11.1
			l-12.5-9.6c-9.7-7.4-16.3-18.2-18.6-30.2c-1.3-6.8-2.5-13.6-3.5-20.5c-0.2-1.6,1.7-2.7,2.9-1.6l7.6,6.5c1.5,1.3,3.3,1.9,5.1,1.9
			c2.3,0,4.5-1,6.1-2.9c2.7-3.3,2.1-8.2-1.2-11l-6.8-5.9c-11.4-9.8-18.3-23.9-19-39c-0.3-5.7-0.4-11.4-0.4-17.1c0-1.3,0-2.6,0-3.9
			c0-1.3,1.5-1.9,2.4-1l10,9.3c1.5,1.4,3.4,2.1,5.3,2.1c2.2,0,4.4-0.9,6-2.8C453.2,312.1,452.7,307.3,449.6,304.4z M588.8,465.4
			L588.8,465.4c-4.1-15-2.4-31,4.8-44.8c2.4-4.7,4.9-9.3,7.5-13.9c1-1.9,3.8-1.5,4.3,0.6l1,4c0.9,3.6,4,6,7.6,6
			c0.6,0,1.3-0.1,1.9-0.2c4.2-1.1,6.6-5.5,5.6-9.7l-0.7-3.1c-3.4-14.3-0.3-29.5,8.4-41.3c0.6-0.8,1.2-1.6,1.7-2.3
			c3.6-4.8,7.4-9.6,11.3-14.3c1.2-1.4,3.4-0.8,3.7,1l1.2,7.2c0.6,3.8,3.9,6.5,7.7,6.5c1.5,0,3.1-0.5,4.6-1.5
			c2.4-1.7,3.6-4.8,3.1-7.8l-0.1-0.8c-2.5-14.8,2.6-29.9,13.5-40.3c5.2-5,10.5-9.8,15.9-14.5c1-0.9,2.5-0.2,2.6,1.1l0.5,8.3
			c0.3,4.1,3.7,7.3,7.8,7.3c0.2,0,0.3,0,0.5,0c4.3-0.3,7.6-4,7.3-8.3v0c-0.9-14.6,5.5-28.7,17.2-37.4c8.2-6.1,16.3-11.8,24.1-17.2
			c1.1-0.7,2.5,0.1,2.5,1.4l-0.6,13.4c-0.2,4.3,3.1,8,7.5,8.2c0.1,0,0.2,0,0.3,0c4.2,0,7.6-3.3,7.8-7.5c0,0,0,0,0,0
			C770,248,779.7,231.9,795,223c18.4-10.6,32.1-17.5,37.8-20.3c1.2-0.6,2.5,0.4,2.2,1.7c-2.7,14.5-6,29.2-9.8,43.9
			c-4,15.6-15.7,28.2-31.1,33.2h0c-4,1.3-6.5,5.4-5.4,9.5c0.9,3.6,4.1,5.8,7.5,5.8c0.8,0,1.6-0.1,2.4-0.4l10.8-3.5
			c1.2-0.4,2.4,0.8,2,2c-3.3,9.9-6.8,19.7-10.4,29.2c-4.8,12.5-15.6,21.8-28.7,24.5l0,0c-3.7,0.8-6.5,4-6.4,7.8
			c0.1,4.5,3.7,7.7,7.8,7.7c0.5,0,1.1-0.1,1.6-0.2l6.9-1.5c1.3-0.3,2.3,1,1.8,2.2c-2.9,6.2-5.8,12.3-8.8,18.2
			c-6.9,13.7-20.3,23-35.6,24.7c-3.9,0.4-7,3.5-7.2,7.4c-0.2,4.6,3.5,8.2,7.8,8.2c0.3,0,0.6,0,0.9,0l8.8-1c1.3-0.1,2.2,1.3,1.5,2.4
			c-4,6.1-8.1,12-12.2,17.4c0,0.1-0.1,0.1-0.1,0.2c-9.1,12-23.2,19.2-38.2,19.7l-3.7,0.1c-4,0.2-7.4,3.1-7.8,7
			c-0.4,4.7,3.2,8.6,7.8,8.6c0.1,0,0.2,0,0.3,0l7.9-0.3c1.4-0.1,2.2,1.7,1.2,2.7c-3.8,4-7.8,7.9-11.7,11.7
			c-11.4,11.1-26.7,17.4-42.7,17.4l-1.8,0c-4.2,0-7.8,3.2-8,7.3c-0.3,4.5,3.3,8.3,7.8,8.3c0,0,0,0,0,0l3.5,0c1.5,0,2.2,1.9,1,2.8
			c-4.7,3.8-9.3,7.5-13.8,11.1c-11.5,9-26.1,13-40.6,11.2c-4.4-0.5-8.5,2.8-8.7,7.3c-0.2,4.2,3,7.7,7.1,8.2l1,0.1
			c1.4,0.2,1.9,2.1,0.7,2.9c-16.1,11.1-28.9,19-35.6,23c0,0-21.3,13.2-53.8,41.9c0,0-0.1,0,0,0c0.2-0.4,0.8-1.5,1.8-3.4
			c0.5-0.9,1-1.8,1.4-2.7c4.9-10.1,14.5-31.3,22-57.4c2-6.9,5.7-19.7,11.1-36.2c0.5-1.4,2.4-1.5,3-0.1l0.6,1.5
			c1.2,3,4.1,4.8,7.2,4.8c1.5,0,3-0.4,4.3-1.3c3.1-2.1,4.2-6.2,2.8-9.7l-0.3-0.6c-5.7-13.3-5.9-28.3-0.6-41.7
			c2.2-5.5,4.5-11.2,6.9-16.9c0.6-1.4,2.6-1.2,3,0.2c1,3.5,4.1,5.7,7.5,5.7c1.6,0,3.2-0.5,4.7-1.5
			C588.6,471.8,589.7,468.5,588.8,465.4z M819.6,541.4c1.5,1.1,3.1,1.7,4.8,1.7c2.6,0,5.2-1.3,6.7-3.8l0.7-1.2
			c7.1-11.7,20.2-18.5,33.9-17.4c24,1.9,41.8,4.9,48.2,6.1c1.1,0.2,1.5,1.5,0.7,2.3c-11.7,10.9-24.4,21.6-37.5,31.6
			c-10.9,8.4-25.6,9.9-38,3.9c-4-2-8.9-0.1-10.6,4.1c-1.6,3.8,0.3,8.2,4.1,10.1l9.3,4.5c0.9,0.5,1,1.8,0.1,2.3
			c-8.1,5.2-16.2,10.2-24.2,14.8c-12.4,7.1-27.6,6.8-39.7-0.8l0,0c-3.6-2.3-8.5-1.5-10.9,2.1c-2.5,3.7-1.4,8.6,2.3,10.9l8.6,5.4
			c0.9,0.6,0.8,1.9-0.2,2.4c-10,4.3-19.7,7.9-29,10.7c-0.1,0-0.1,0-0.2,0c-9.4,2.8-19.6,1.1-27.6-4.5l-9.2-6.4
			c-3.5-2.4-8.4-1.9-11,1.6c-2.6,3.5-1.8,8.5,1.8,11l6.9,4.8c1,0.7,0.6,2.2-0.5,2.4c-6.1,1-12.3,1.8-18.4,2.5
			c-17.2,2-34.5-2.9-48.3-13.5l-0.9-0.7c-3.5-2.7-8.5-2-11.1,1.6c-2.5,3.5-1.6,8.3,1.8,10.9l3.5,2.7c1,0.8,0.5,2.4-0.8,2.4
			c-2.4,0-4.9,0-7.2,0c-25,0-44.6-1.5-53.1-2.4c0,0-5-0.4-14.3-0.4c-8.9,0-21.6,0.4-37.7,1.8c0,0,21.2-10,44.2-27.6
			c7.4-5.7,25.6-19.7,49.7-35.1c1.1-0.7,2.4,0.4,2,1.6l-0.9,2.7c-1.4,4,0.5,8.6,4.5,10.1c0.9,0.4,1.9,0.5,2.8,0.5
			c3.2,0,6.2-2,7.4-5.2v0c5.7-16.3,17.4-29.8,32.8-37.5c5.3-2.6,10.6-5.2,16-7.6c1.1-0.5,2.2,0.6,1.8,1.7l-2.6,6.5
			c-1.6,4,0.1,8.6,4,10.3c1,0.5,2.1,0.7,3.1,0.7c3.1,0,6-1.8,7.2-4.9l4-10c3.7-9,11.2-16,20.5-18.8c0.1,0,0.2-0.1,0.4-0.1
			c10-3,20.2-5.4,30.4-7.2c1.1-0.2,1.9,0.9,1.5,1.9l-4.6,9.8c-1.7,3.7-0.5,8.3,3.1,10.3c1.2,0.7,2.6,1,3.9,1c2.9,0,5.8-1.7,7.1-4.5
			l0.7-1.6c5.9-12.7,18.3-21.3,32.4-22.2c9.9-0.6,19.7-0.9,29-0.9c0.6,1.1,0.5,0.9,1.1,2l-6.1,10.1
			C815.7,534.5,816.4,539,819.6,541.4z"/>
	</g>
	<g>
		<path class="st27" d="M811.7,560.8c-1.2-4.1-5.5-6.5-9.7-5.3l-278.6,80.7c-2.6,0.8-4.7-2.2-3-4.4L756.3,321
			c2.6-3.4,1.9-8.3-1.5-10.9c-3.4-2.6-8.3-1.9-10.9,1.5L512,617.2c-1.8,2.4-5.6,1.1-5.6-1.9V214.7c0-4.2-3.1-7.8-7.3-8.1
			c-4.5-0.3-8.3,3.3-8.3,7.8v399.3c0,3-3.8,4.2-5.6,1.9l-229.1-304c-2.6-3.4-7.5-4.1-10.9-1.5c-3.4,2.6-4.1,7.5-1.5,10.9l234.4,311
			c1.6,2.2-0.4,5.2-3.1,4.4l-272.5-81.6c-4.1-1.2-8.5,1.1-9.7,5.2c-1.2,4.1,1.1,8.5,5.2,9.7l272.5,81.6c2.9,0.9,2.9,4.9,0.1,5.8
			l-158.4,53.1c-4.1,1.4-6.3,5.8-4.9,9.9c1.1,3.3,4.1,5.3,7.4,5.3c0.8,0,1.7-0.1,2.5-0.4L479,670.7c5.9-2,12,2.2,12.3,8.5
			c0.6,14.2,2,33.5,4.8,57.3c10.3,88.8,32.1,169.2,48.6,221c1.1,3.3,4.1,5.4,7.4,5.4c0.8,0,1.6-0.1,2.4-0.4c4.1-1.3,6.4-5.7,5.1-9.8
			c-29.4-92.5-42.3-169.4-47.9-217.6c-2.6-22-3.9-40.2-4.6-53.9c-0.3-6.5,6-11.4,12.2-9.4l158.1,50.5c4.3,1.4,8.8-1.1,9.9-5.5
			c1-4-1.5-8.2-5.5-9.4l-156.1-49.9c-2.9-0.9-2.8-5,0.1-5.8l280.6-81.2C810.5,569.3,812.9,565,811.7,560.8z"/>
	</g>
	<g>
		<path class="st13" d="M490.8,248.9c-4.1,0-7.5-3.4-7.5-7.5v-7c0-4.1,3.4-7.5,7.5-7.5s7.5,3.4,7.5,7.5v7
			C498.3,245.6,495,248.9,490.8,248.9z"/>
	</g>
	<g>
		<path class="st13" d="M490.1,383.3c-4.1,0-7.5-3.4-7.5-7.5v-96c0-4.1,3.4-7.5,7.5-7.5s7.5,3.4,7.5,7.5v96
			C497.6,380,494.3,383.3,490.1,383.3z"/>
	</g>
	<g>
		<path class="st13" d="M287.6,361.8c-2.3,0-4.5-1-6-3L259,328.9c-2.5-3.3-1.8-8,1.5-10.5c3.3-2.5,8-1.8,10.5,1.5l22.6,29.9
			c2.5,3.3,1.8,8-1.5,10.5C290.8,361.3,289.2,361.8,287.6,361.8z"/>
	</g>
	<g>
		<path class="st13" d="M704.4,371.3c-1.5,0-3-0.4-4.3-1.4c-3.4-2.4-4.2-7.1-1.8-10.5l17.5-24.8c2.4-3.4,7.1-4.2,10.5-1.8
			s4.2,7.1,1.8,10.5l-17.5,24.8C709.1,370.2,706.8,371.3,704.4,371.3z"/>
	</g>
	<g>
		<path class="st13" d="M280.3,585.2c-0.6,0-1.3-0.1-1.9-0.3l-11-2.9c-4-1.1-6.4-5.2-5.3-9.2c1.1-4,5.2-6.4,9.2-5.3l11,2.9
			c4,1.1,6.4,5.2,5.3,9.2C286.7,582.9,283.6,585.2,280.3,585.2z"/>
	</g>
	<g>
		<path class="st13" d="M716.8,588.1c-3.3,0-6.3-2.1-7.2-5.4c-1.1-4,1.2-8.1,5.2-9.3l10.2-2.9c4-1.1,8.1,1.2,9.3,5.2
			c1.1,4-1.2,8.1-5.2,9.3l-10.2,2.9C718.2,588,717.5,588.1,716.8,588.1z"/>
	</g>
</g>
<g id="Layer_2">
</g>
<g id="Layer_3">
</g>
</svg>
