<?xml version="1.0" encoding="utf-8"?>
<!-- Generator: Adobe Illustrator 20.0.0, SVG Export Plug-In . SVG Version: 6.00 Build 0)  -->
<svg version="1.1" id="Layer_1" xmlns="http://www.w3.org/2000/svg" xmlns:xlink="http://www.w3.org/1999/xlink" x="0px" y="0px"
	 viewBox="0 0 500 500" style="enable-background:new 0 0 500 500;" xml:space="preserve">
<style type="text/css">
	.st0{fill:none;stroke:#C69C6D;stroke-width:3;stroke-miterlimit:10;}
	.st1{fill:none;stroke:#699273;stroke-width:3;stroke-miterlimit:10;}
	.st2{fill:#689946;}
	.st3{fill:none;stroke:#689946;stroke-width:3;stroke-miterlimit:10;}
	.st4{fill:#00FFFF;}
	.st5{fill:#54665F;}
	.st6{fill:#434D42;}
	.st7{fill:#54665F;stroke:#434D42;stroke-width:2;stroke-linecap:round;stroke-linejoin:round;stroke-miterlimit:10;}
	.st8{fill:#748C8B;}
	.st9{fill:#EFC11E;}
	.st10{fill:none;stroke:#434D42;stroke-linecap:round;stroke-linejoin:round;stroke-miterlimit:10;}
	.st11{fill:none;stroke:#FFFFFF;stroke-linecap:round;stroke-linejoin:round;stroke-miterlimit:10;}
	.st12{fill:#748C8B;stroke:#434D42;stroke-linecap:round;stroke-linejoin:round;stroke-miterlimit:10;}
	.st13{fill:#FFFFFF;}
	.st14{fill:#EFFE99;stroke:#3E4A14;stroke-width:3;stroke-miterlimit:10;}
	.st15{clip-path:url(#SVGID_2_);}
	.st16{fill:none;stroke:#3E4A14;stroke-width:3;stroke-miterlimit:10;}
	.st17{fill:none;stroke:#FFFFFF;stroke-linecap:round;stroke-miterlimit:10;}
	.st18{fill:#EFFE99;}
	.st19{fill:#3E4A14;}
	.st20{fill:#F1C06D;}
	.st21{clip-path:url(#SVGID_4_);}
	.st22{clip-path:url(#SVGID_6_);}
	.st23{fill:none;stroke:#E4D9C8;stroke-linecap:round;stroke-linejoin:round;}
	.st24{clip-path:url(#SVGID_8_);}
	.st25{clip-path:url(#SVGID_10_);}
	.st26{clip-path:url(#SVGID_12_);}
	.st27{clip-path:url(#SVGID_14_);}
	.st28{clip-path:url(#SVGID_16_);}
	.st29{fill:#DED1C8;}
	.st30{clip-path:url(#SVGID_18_);}
	.st31{clip-path:url(#SVGID_20_);}
	.st32{clip-path:url(#SVGID_22_);}
	.st33{fill:none;stroke:#C6A06A;stroke-width:2;stroke-miterlimit:10;}
	.st34{fill:#699273;}
	.st35{clip-path:url(#SVGID_24_);}
	.st36{fill:#E4D9C8;}
	.st37{clip-path:url(#SVGID_26_);fill:#E4D9C8;}
	.st38{clip-path:url(#SVGID_28_);fill:#E4D9C8;}
	.st39{fill:#C6A06A;}
	.st40{fill:none;stroke:#C8CF80;stroke-width:3;stroke-miterlimit:10;}
	.st41{fill:#CEE5D9;}
	.st42{fill:none;stroke:#86C1A7;stroke-width:3;stroke-linecap:round;stroke-miterlimit:10;}
	.st43{fill:none;stroke:#86C1A7;stroke-linecap:round;stroke-miterlimit:10;}
	.st44{fill:#86C1A7;}
	.st45{fill:#CFE2CF;}
	.st46{fill:#C8CF80;}
	.st47{fill:#86BF95;}
	.st48{fill:none;stroke:#86BF95;stroke-width:3;stroke-linecap:round;stroke-miterlimit:10;}
	.st49{fill:none;stroke:#86BF95;stroke-linecap:round;stroke-miterlimit:10;}
	.st50{fill:#ECEE9A;stroke:#699273;stroke-linecap:round;stroke-miterlimit:10;}
	.st51{fill:none;stroke:#699273;stroke-width:3;stroke-linecap:round;stroke-miterlimit:10;}
	.st52{fill:#C69C6D;}
	.st53{fill:#ECEE9A;}
	.st54{clip-path:url(#SVGID_30_);}
	.st55{fill:#2F7B1D;stroke:#0A4D2C;stroke-width:3;stroke-miterlimit:10;}
	.st56{fill:#2F7B1D;stroke:#0A4D2C;stroke-linecap:round;stroke-miterlimit:10;}
	.st57{fill:#2F7B1D;stroke:#81AF5B;stroke-linecap:round;stroke-miterlimit:10;}
	.st58{fill:#81AF5B;}
	.st59{fill:#0A4E2C;}
	.st60{fill:#FDDC6C;}
	.st61{fill:#FFCF00;}
	.st62{fill:#81AF5B;stroke:#0A4E2C;stroke-width:3;stroke-miterlimit:10;}
</style>
<path class="st45" d="M109.2,409.1c65.5,63.3,165.9,68.2,243.7-7.2c71.1-68.9,117.7-169,60.3-246.7c-6.4-8.7-16.4-10.2-25.9-18.9
	c-8.5-9.8-9.7-19.8-18.1-26.5c-75.9-59.8-177.3-15.6-248,53c-77.8,75.4-76.5,175.4-15.3,242.9L109.2,409.1z"/>
<path class="st46" d="M401.9,137.2c13.3-9.1,35-28.4,43.7-55.4l1.4-4.3c1-3.2-0.6-6.6-3.8-7.8l-4.3-1.6c-0.3-0.1-24.9-9.7-41.2-34.1
	c-1.8-2.7-5.5-3.6-8.3-2l-8.3,4.7c-3.1,1.8-4.1,5.9-2.2,8.9c11.4,17.4,26.1,28.7,37,35.4c2.9,1.8,3.9,5.5,2.2,8.5
	c-8.6,14.8-23.9,26.5-31.8,31.5L401.9,137.2z"/>
<path class="st13" d="M204.9,148.2c-1.3,0-2.5-0.7-3.2-1.8c-1-1.8-0.4-4,1.3-5c33.3-19.4,66.1-28.5,94.1-26.2c2,0.2,3.5,2,3.4,4
	c-0.2,2-2.1,3.5-4,3.4c-26.6-2.3-57.9,6.5-89.8,25.2C206.2,148.1,205.5,148.2,204.9,148.2z"/>
<g>
	<path class="st47" d="M110.5,377.9c-1.5,0-2.9-0.9-3.5-2.5c-0.4-1-8.7-25.5-5.7-61.7c2.8-33.3,16.2-83.1,64.4-131.3
		c1.4-1.4,3.8-1.4,5.2,0s1.4,3.8,0,5.2c-46.5,46.5-59.5,94.4-62.3,126.4c-3,34.7,5.2,58.8,5.3,59c0.7,1.9-0.4,4-2.3,4.7
		C111.4,377.9,111,377.9,110.5,377.9z"/>
</g>
<g>
	<path class="st47" d="M123.8,378.2c-0.2,0-0.4,0-0.6-0.1c-2-0.3-3.3-2.2-3-4.3c0.1-0.8,14.1-79.3,69-134.2c1.4-1.4,3.8-1.4,5.2,0
		c1.4,1.4,1.4,3.8,0,5.2c-53.2,53.2-66.9,129.4-67,130.2C127.1,377,125.6,378.2,123.8,378.2z"/>
</g>
<g>
	<path class="st47" d="M190.7,417c-27.4,0-45.2-6.1-46-6.4c-1.9-0.7-2.9-2.8-2.3-4.7c0.7-1.9,2.8-2.9,4.7-2.3
		c0.2,0.1,24.3,8.3,59,5.3c32-2.7,79.9-15.7,126.4-62.3c1.4-1.4,3.8-1.4,5.2,0s1.4,3.8,0,5.2c-48.2,48.2-98,61.7-131.3,64.4
		C200.9,416.8,195.7,417,190.7,417z"/>
</g>
<g>
	<path class="st47" d="M144,398c-1.8,0-3.3-1.3-3.6-3.1c-0.3-2,1-3.9,3-4.3c0.8-0.1,77-13.8,130.2-67c1.4-1.4,3.8-1.4,5.2,0
		s1.4,3.8,0,5.2c-54.9,54.9-133.4,68.9-134.2,69C144.4,397.9,144.2,398,144,398z"/>
</g>
<g>
	<path class="st47" d="M136.6,386.4c-0.9,0-1.9-0.4-2.6-1.1c-1.4-1.4-1.4-3.8,0-5.2l93-93c1.4-1.4,3.8-1.4,5.2,0s1.4,3.8,0,5.2
		l-93,93C138.5,386,137.5,386.4,136.6,386.4z"/>
</g>
<g>
	<path class="st47" d="M219.5,434.6c-5.7,0-9.4-0.3-9.9-0.3c-2-0.2-3.5-1.9-3.4-4c0.2-2,1.9-3.5,4-3.4c0.4,0,37.7,2.8,60.7-10.2
		c1.8-1,4-0.4,5,1.4c1,1.8,0.4,4-1.4,5C257,433,232.9,434.6,219.5,434.6z"/>
</g>
<g>
	<path class="st47" d="M237.1,387.8c-1.5,0-3-1-3.5-2.5c-0.6-1.9,0.4-4,2.3-4.7c24.4-8.1,41-24.5,41.2-24.7c1.4-1.4,3.8-1.4,5.2,0
		s1.4,3.8,0,5.2c-0.7,0.7-18,17.8-44,26.4C237.9,387.7,237.5,387.8,237.1,387.8z"/>
</g>
<g>
	<path class="st47" d="M187,364.7c-1.1,0-2.2-0.5-2.9-1.4c-1.2-1.6-0.9-3.9,0.7-5.2c8.3-6.3,20.7-17.7,20.8-17.8
		c1.5-1.4,3.8-1.3,5.2,0.2c1.4,1.5,1.3,3.8-0.2,5.2c-0.5,0.5-12.8,11.7-21.3,18.3C188.6,364.5,187.8,364.7,187,364.7z"/>
</g>
<g>
	<path class="st47" d="M94.5,271.1c-0.2,0-0.5,0-0.7-0.1c-2-0.4-3.3-2.3-2.9-4.3c0.3-1.4,7.2-35.4,26.2-59.9
		c1.2-1.6,3.6-1.9,5.2-0.6c1.6,1.2,1.9,3.6,0.6,5.2c-18,23.1-24.8,56.5-24.8,56.9C97.8,269.9,96.2,271.1,94.5,271.1z"/>
</g>
<g>
	<path class="st47" d="M124.4,311c-0.4,0-0.8-0.1-1.2-0.2c-1.9-0.6-3-2.7-2.3-4.7c8.5-25.6,19.9-45.9,20.4-46.7c1-1.8,3.3-2.4,5-1.4
		c1.8,1,2.4,3.2,1.4,5c-0.1,0.2-11.5,20.5-19.8,45.4C127.4,310,126,311,124.4,311z"/>
</g>
<g>
	<path class="st47" d="M182.4,301.5c-0.8,0-1.6-0.2-2.2-0.8c-1.6-1.2-1.9-3.5-0.7-5.2c6.5-8.6,17.8-20.8,18.3-21.3
		c1.4-1.5,3.7-1.6,5.2-0.2c1.5,1.4,1.6,3.7,0.2,5.2c-0.1,0.1-11.5,12.5-17.8,20.8C184.6,301,183.5,301.5,182.4,301.5z"/>
</g>
<circle class="st47" cx="125.3" cy="393.5" r="3.7"/>
<circle class="st13" cx="321.9" cy="126.5" r="3.7"/>
<path class="st47" d="M225,469.2c-44.1,0-87.4-17.2-123.3-51.8l-3.6-3.7c-69.3-76.4-62.8-182.6,15.6-258.6
	C182.2,88.9,292,35,376.3,101.5c6.5,5.1,9.8,11.4,12.7,17c1.9,3.7,3.8,7.2,6.5,10.5c3.2,2.9,6.7,4.8,10.3,6.8
	c5.5,3.1,11.7,6.6,16.6,13.2c64,86.7,6.9,194.9-61.5,261.2C320.3,449.5,272.2,469.2,225,469.2z M117.2,401.6
	c65.1,62.8,158.9,59.8,228.2-7.3c62-60.1,114.7-156.9,59.1-232.2c-2.1-2.9-5.3-4.7-9.7-7.1c-4.3-2.4-9.6-5.4-14.8-10.3l-0.9-0.9
	c-4.7-5.4-7.5-10.8-9.8-15.2c-2.3-4.5-4-7.7-6.8-9.9C289.5,61.2,191.1,111,129.1,171c-69.3,67.2-75.4,160.8-14.8,227.6L117.2,401.6z
	"/>
</svg>
