<?xml version="1.0" encoding="utf-8"?>
<!-- Generator: Adobe Illustrator 20.0.0, SVG Export Plug-In . SVG Version: 6.00 Build 0)  -->
<svg version="1.1" xmlns="http://www.w3.org/2000/svg" xmlns:xlink="http://www.w3.org/1999/xlink" x="0px" y="0px"
	 viewBox="0 0 1000 1000" style="enable-background:new 0 0 1000 1000;" xml:space="preserve">
<style type="text/css">
	.st0{fill:#7B9727;stroke:#386100;stroke-width:3;stroke-linecap:round;stroke-linejoin:round;stroke-miterlimit:10;}
	.st1{fill:#7B9727;stroke:#386100;stroke-width:0.745;stroke-linecap:round;stroke-linejoin:round;stroke-miterlimit:10;}
	.st2{fill:#7B9727;stroke:#386100;stroke-width:3;stroke-miterlimit:10;}
	.st3{fill:#618022;stroke:#386100;stroke-width:3;stroke-linejoin:round;stroke-miterlimit:10;}
	.st4{fill:none;stroke:#45210A;stroke-width:3;stroke-linecap:round;stroke-linejoin:round;stroke-miterlimit:10;}
	.st5{fill:#00FFFF;}
	.st6{clip-path:url(#SVGID_2_);}
	.st7{clip-path:url(#SVGID_4_);}
	.st8{clip-path:url(#SVGID_6_);}
	.st9{fill:#D2C6C6;}
	.st10{fill:#D2C6C6;stroke:#534741;stroke-miterlimit:10;}
	.st11{fill:#B28A5C;stroke:#45210A;stroke-width:3;stroke-linecap:round;stroke-linejoin:round;stroke-miterlimit:10;}
	.st12{fill:none;stroke:#87562E;stroke-miterlimit:10;}
	.st13{fill:none;stroke:#87562E;stroke-linecap:round;stroke-linejoin:round;stroke-miterlimit:10;}
	.st14{fill:none;stroke:#FFFFFF;stroke-linecap:round;stroke-linejoin:round;stroke-miterlimit:10;}
	.st15{fill:none;stroke:#45210A;stroke-linecap:round;stroke-linejoin:round;stroke-miterlimit:10;}
	.st16{fill:#45210A;}
	.st17{fill:#FFFFFF;}
	.st18{fill:#488C00;}
	.st19{fill:#488C00;stroke:#006837;stroke-linejoin:round;stroke-miterlimit:10;}
	.st20{fill:#488C00;stroke:#006837;stroke-width:0.899;stroke-linejoin:round;stroke-miterlimit:10;}
	.st21{fill:#FCEE21;}
	.st22{fill:none;stroke:#FFFFFF;stroke-linecap:round;stroke-miterlimit:10;}
	.st23{fill:#FFCADE;}
	.st24{fill:none;stroke:#386100;stroke-width:4;stroke-linejoin:round;stroke-miterlimit:10;}
	.st25{fill:#519900;}
	.st26{fill:#386100;}
	.st27{fill:none;stroke:#386100;stroke-width:0.25;stroke-linecap:round;stroke-linejoin:round;stroke-miterlimit:10;}
	.st28{fill:none;stroke:#386100;stroke-linecap:round;stroke-linejoin:round;stroke-miterlimit:10;}
	.st29{fill:#519900;stroke:#386100;stroke-linejoin:round;stroke-miterlimit:10;}
	.st30{fill:none;stroke:#95B22F;stroke-linecap:round;stroke-linejoin:round;stroke-miterlimit:10;}
	.st31{fill:#95B22F;}
	.st32{fill:#B28A5C;}
	.st33{fill:#87562E;}
	.st34{fill:#688625;stroke:#386100;stroke-miterlimit:10;}
	.st35{fill:#6F8B29;stroke:#386100;stroke-miterlimit:10;}
	.st36{fill:#75912D;stroke:#386100;stroke-miterlimit:10;}
	.st37{fill:#7B9727;stroke:#386100;stroke-miterlimit:10;}
	.st38{fill:none;stroke:#386100;stroke-miterlimit:10;}
	.st39{fill:#7B9727;}
	.st40{fill:#618022;}
	.st41{fill:#688625;}
	.st42{fill:#6F8B29;}
	.st43{fill:#75912D;}
</style>
<g id="Layer_1">
	<line class="st39" x1="616.2" y1="133.1" x2="244" y2="381"/>
	<path class="st39" d="M844.7,306.1C826.3,191.7,739.6,127.8,610,116.5V44.7c0,0-22.7-11.3-43.4-11.3c-20.7,0-43.4,11.3-43.4,11.3
		v71.9c-127.8,11.4-210.2,73.8-233,189.5c0,0-40.7,236.7,151.3,552.3c30.4,50,81.4,108.2,125.9,108.2c44.5,0,97.2-57.5,125.9-108.2
		C875.2,537.5,844.7,306.1,844.7,306.1z"/>
	<path class="st40" d="M844.7,306.1C826.3,191.7,739.6,127.8,610,116.5V44.7c0,0-22.7-11.3-43.4-11.3c-20.7,0-43.4,11.3-43.4,11.3
		v14.8c-91.5-31.6-190.6,15.4-190.6,15.4l17.1,17.2c0,0-57.8,22.7-91.1,48.3c0,0,22.4,22.4,36.5,25.5c0,0-59.7,19-90,53.7
		c0,0,18.3,13.4,37.4,16.5c0,0-40.1,16.3-69.2,50.9c0,0,20.5,19.5,37.9,21.1c-27,27.2-43.9,54.9-43.9,54.9s13.5,13.6,27.2,16.6
		c0,0-28.4,29-41.2,61.7c0,0,34-0.5,72.9-14.2c-2.6,13.8,4.8,31.5,4.8,31.5c22.1-0.6,47.8-10.5,60.1-15.9
		c11.2,99.5,47.2,246.2,150.3,415.7c30.4,50,81.4,108.2,125.9,108.2c44.5,0,97.2-57.5,125.9-108.2
		C875.2,537.5,844.7,306.1,844.7,306.1z"/>
	<path class="st41" d="M410.3,763c10.4,73.1,110.4,125.3,124.3,122.5c5.6-1.1,20.4-16.9,35.3-38.9c14.8,22,29.6,37.7,35.3,38.9
		c13.9,2.8,112.6-41.6,124.3-122.5l-21.4-1.5l-28.9,10.2l-47-56.9l-65.1,49.5l-62.6-49.5l-46,55.1L410.3,763z"/>
	<path class="st42" d="M331.3,617.7c5.8,19.6,13.2,38.7,18.1,58.6c2.7,10.9,5.1,21.8,7.7,32.7c33.8,36.2,87.2,64.8,97.1,62.7
		c7.4-1.5,30.8-28.5,49.1-61.5c25.3,30.5,55.7,54.1,63.7,54c7.9,0,37.9-23.5,63-53.9c18.4,33,41.7,59.9,49.1,61.4
		c8.5,1.7,48.7-18.9,81.3-47.5c0.4-1.1,0.8-2.3,1.4-3.4c16.6-31.3,27.4-65.3,34.7-99.9l-19.8-19.6l-30.5,15.6l-42.2-40.2l-67.6,48.6
		l-71.8-55.7l-67.2,55.7L433,577.4l-40.6,40l-54-21.8L331.3,617.7z"/>
	<path class="st43" d="M292.7,455.4c4.5,34.9,12.1,75.1,24.3,119.5c31.4,25.9,67.4,44,75.3,42.4c6.3-1.3,24.1-20.9,40.6-47.1
		c25.5,31,56.5,55.1,64.5,55c8.5,0,43.1-27.6,69.2-61.7c26.3,34.1,61.2,61.7,69.8,61.7c8,0,38.6-24.1,63.9-55
		c16.5,26.1,34.2,45.7,40.5,47c7.6,1.5,40.6-14.8,70.8-38.8c12.2-43.5,20.3-82.9,25.6-117.2l-29.5-0.7l-42.2,17.7l-31.7-28.1
		l-45.7,35.4l-60.7-36.1l-52.9,36.7l-61.3-46.4L445,485.7L399.3,449l-32,29.4L292.7,455.4z"/>
	<path class="st17" d="M439.3,313.2c-3.6,1.6-7.1,3.8-10.2,6.4c-9.6,7.8-15.5,18.8-16.8,31.1c-0.3,2.5,0.1,10,8.7,26.3
		c2,3.8,0.5,8.4-3.2,10.4c-1.1,0.6-2.4,0.9-3.6,0.9c-2.8,0-5.5-1.5-6.8-4.1c-7.8-14.7-11.3-26.5-10.4-35.1
		c1.7-16.4,9.6-31.1,22.4-41.5c4.2-3.4,8.8-6.3,13.6-8.5L439.3,313.2z"/>
	<path class="st26" d="M687.8,478C687.8,478,687.8,478,687.8,478L687.8,478z"/>
	<path class="st39" d="M697.2,134.1c-62.4-24.4-93.9-9.1-93.9-9.1c-14.2,4.2-26.8,11.3-37.3,20.4c-13.4-11.8-30-20.5-48.9-23.5
		c-40.1-6.3-80.3,12.5-80.3,12.5S252.2,184,290.3,434.6c31.8,26.6,68.9,45.4,77,43.8c4.6-0.9,15.4-11.7,27.3-27.7
		c2.9-0.8,5.7-2.3,8-4.2c18.1,22.6,36.2,38.7,42.3,39.3c8,0.8,41.5-20.3,70-48.8c24.5,28.2,52.2,49.4,59.7,49.4
		c6.7,0,29.7-17.2,51.9-41.2c26.4,24.3,54.4,41.3,61.7,40.6c6.4-0.7,25.8-18.3,44.6-42.5c13.9,20,27.4,34.1,32.7,35.2
		c7.9,1.6,43.8-16.4,75.2-42.3C840.8,436.1,900.6,219.8,697.2,134.1z"/>
	<path class="st17" d="M446.7,219.2c-0.4,0-0.9,0-1.3-0.1c-4.2-0.7-7-4.7-6.3-8.9c2.8-16.2,11.8-30.4,25.3-39.8
		c10.4-7.3,22.7-11.2,35.3-11.2c3.6,0,7.2,0.3,10.7,0.9c4.2,0.7,7,4.7,6.3,8.9c-0.7,4.2-4.7,7-8.9,6.3c-12.2-2.1-24.5,0.7-34.5,7.7
		c-10.1,7.1-16.8,17.7-18.9,29.8C453.7,216.5,450.4,219.2,446.7,219.2z"/>
	<g>
		<path class="st17" d="M580.1,247.2c-3.3,0-6.4-2.2-7.4-5.5c-4.7-15.8-2.9-32.4,4.9-46.9c7.8-14.5,20.8-25,36.6-29.7
			c4.1-1.2,8.4,1.1,9.6,5.2c1.2,4.1-1.1,8.4-5.2,9.6c-11.8,3.5-21.6,11.4-27.5,22.2c-5.9,10.8-7.2,23.3-3.7,35.1
			c1.2,4.1-1.1,8.4-5.2,9.6C581.5,247.1,580.8,247.2,580.1,247.2z"/>
	</g>
	<circle class="st17" cx="571.6" cy="340.2" r="7.7"/>
	<circle class="st17" cx="314.4" cy="342.5" r="7.7"/>
	<circle class="st17" cx="335.9" cy="492.5" r="7.7"/>
	<circle class="st17" cx="509.1" cy="481" r="7.7"/>
	<circle class="st17" cx="446.2" cy="247.1" r="7.7"/>
	<circle class="st17" cx="354.4" cy="301.3" r="7.7"/>
	<path class="st26" d="M300.1,143.2C300.1,143.2,300.2,143.2,300.1,143.2C300.2,143.2,300.1,143.2,300.1,143.2z"/>
	<path class="st26" d="M186.5,233.1c2.5,3.5,1.7,8.3-1.6,11c-9.9,7.7-20,17.1-29.3,28c-7.9,9.4-7.1,23.3,1.8,31.7
		c1.1,1.1,3.5,3.3,6.9,6c4.6,3.7,5.3,10.4,1.7,15c-11.4,14.7-17.9,25.4-18.4,26.2c-5.5,9.1-4.2,20.8,3.3,28.3l0.1,0.1
		c4.2,4.2,4.8,10.9,1.4,15.8c-7.5,10.8-15,23.7-20.4,37.2c-2.1,5.3-2.4,11.3-0.4,16.7c3.4,9.5,12.5,15.5,22.1,15.3
		c1,0,18-0.3,41.8-5.1c5.8-1.2,11.7,2,13.9,7.5c0.1,0.3,0.2,0.5,0.3,0.7c3.7,8.8,12.4,14.5,22,14.2c8.7-0.2,17.6-1.6,26.3-3.6
		c7.6-1.7,15.1,3.4,16.3,11.1c7.8,46.8,19.7,94.5,35.6,142.3c26.6,80.2,64.2,160.5,111.8,238.8c18.1,29.8,40,57.3,61.6,77.7
		c29.4,27.6,57.7,41.6,84.1,41.6c61.6,0,120.8-75.4,146-119.9c42.2-74.5,76.6-150.4,102.1-225.6c20.5-60.4,35.5-120.5,44.5-178.7
		c15.4-100.1,7.9-159.9,7.5-162.4c0-0.2-0.1-0.4-0.1-0.6c-10-62-38.3-111.8-84.2-148C747,125.8,701,106.8,646.1,97.7
		c-7.5-1.2-13-7.7-13-15.3V44.7c0-8.8-5-16.8-12.8-20.7c-2.8-1.4-28.3-13.7-53.7-13.7c-25.4,0-50.9,12.3-53.7,13.8
		c-0.8,0.4-1.6,0.9-2.4,1.4c-4.5,3-9.9,4.1-15.2,3.3C408.1,14.2,326.6,52.1,322.8,54c-6.8,3.2-11.6,9.5-12.9,16.9
		c-0.4,2.1-0.4,4.1-0.2,6.1c0.4,4.2-1.9,8.2-5.7,10c-19,9.2-41.7,21.4-58.9,34.6c-3.9,3-7,7.1-8.4,11.8c-2.6,8.4-0.2,17.3,5.8,23.3
		c0,0,0,0,0,0c2.2,2.2,1.6,5.8-1.1,7.2c-18.3,9.8-38.4,23.1-53.2,39.8c-3.2,3.6-5.4,8.1-6,12.9C182.1,216.7,181,225.3,186.5,233.1z
		 M764,485.9c0.5,0.2,1.4,0.3,2.6,0.3c4,0,12.5-1.7,31.4-11.9c2.3-1.2,4.5-2.5,6.8-3.8c3.3-1.9,7.4,0.9,6.7,4.6
		c-6,34.4-14.1,69.5-24.3,104.9c-1.6,5.5-5.2,10.3-10.1,13.3c-10.3,6.3-19.2,10.8-25.6,13.5c-5.7,2.4-12.2,1.1-16.5-3.3
		c-4.8-4.9-11.2-12.5-18.1-22.1c-4.3-6-4.4-14.1-0.1-20.1c13.9-19.6,27.1-44.2,27.1-67.3c0-7.5-0.8-14.8-2.3-21.8
		c-0.3-1.7,1.7-2.7,2.8-1.5C749,475.3,756.1,482.1,764,485.9z M659.1,633c0,12.3-5.3,38.9-41.1,79.6c-16.4,18.6-32.5,32.3-42.5,39.1
		c-5.2,3.6-12,3.6-17.2,0c-10-6.8-26.2-20.4-42.7-38.9c-36.1-40.5-41.5-67.1-41.5-79.4c0,0,0-0.1,0-0.1c0-5,5.5-8,9.8-5.4
		c8.2,5,11.7,5.1,13.4,5.1h0.1c2.3,0,8.3,0,26.4-14.4c11.3-9,23.6-20.7,34.6-33.1c1-1.1,2.1-2.3,3.2-3.6c2.6-3.1,7.4-3.1,10.1,0
		c1.2,1.4,2.4,2.7,3.5,3.9c11.1,12.3,23.5,24,34.8,32.9c17.8,14,23.9,14.3,26.3,14.3h0.1c1.6,0,5.1,0,13.5-5.2c4-2.4,9.1,0.3,9.1,5
		C659.1,632.9,659.1,632.9,659.1,633z M567,772c2.3,0,8.3,0,26.4-14.4c0,0,13.9-11.7,27.4-25.5c4.1-4.2,11-3.5,14.2,1.4
		c6.3,9.7,13.1,18.8,19.6,26.5c14.9,17.7,20.8,18.9,23,19.3c0.7,0.1,1.5,0.2,2.3,0.2c6.3,0,16.4-3.8,28-9.8c2.6-1.3,5.4,1.4,4.1,4
		c-9.3,19-19.2,38-29.5,56.9c-0.6,1-1.3,2-2.2,2.8c-4.4,3.8-9.3,7.7-14.7,11.8c-19.8,14.9-38.3,25-49.5,29.7
		c-5.8,2.4-12.5,1.1-16.8-3.4c-8.4-8.7-21.5-25.2-33.9-46.7c-14.7-25.4-21.5-45.1-24.1-59.6c-0.5-2.8,2.7-4.8,5-3.2
		C551.8,766.1,560.4,771.5,567,772z M518.9,738.9c3.2,3.1,5.1,7.3,5.2,11.8c0.4,30.5,17.6,64.6,28.9,83.8c2.4,4.1,4.9,8.1,7.5,12
		c-7.7,11-14.8,19.5-20.1,25c-4.3,4.5-11,5.8-16.8,3.4c-11.1-4.7-29.6-14.8-49.5-29.7c-10.9-8.2-19.7-15.9-26.9-23.1
		c-0.6-0.6-1.1-1.3-1.6-2.1c-9.1-15.8-17.5-31.3-25.4-46.6c-1.4-2.7,1.5-5.6,4.2-4.2c10.2,5.4,21.5,10.3,28.8,10.3
		c0.9,0,1.7-0.1,2.4-0.2c2.2-0.5,8.1-1.6,23-19.3c6.5-7.7,13.2-16.8,19.5-26.4c3.2-4.9,10.2-5.5,14.3-1.2
		C514.4,734.5,516.6,736.7,518.9,738.9z M372.2,178.3c10.2-8.1,21.3-15.4,33.3-21.7c3-1.6,6.1,1.9,4.2,4.6
		c-8.1,12.2-13.6,26.1-16.2,40.9c-5.1,29.3,10.9,64.8,24.4,88.2c-2.8,2.5-5.8,5-9.1,7.5c-19.4,15.5-37.7,26.2-48.7,31.2
		c-5.6,2.6-12.2,1.5-16.6-2.8c-7.7-7.5-19.6-21.4-31.7-39.9c-3.9-6-4.9-13.6-2.5-20.3C329.9,207.5,372.2,178.3,372.2,178.3z
		 M761.1,341.9c3.8,2.6,6,7,5.8,11.6c-0.7,14.4-7,39.2-33.1,75.6c-14.5,20.2-29.2,35.5-38.4,43.3c-4.7,4-11.4,4.7-16.8,1.8
		c-7-3.8-16.9-10.2-28.1-18.9c-7.1-5.5-8.4-15.8-2.9-22.9c16.3-20.7,34.7-50.1,34.6-77.4c0-2.9-0.1-5.8-0.4-8.6
		c2.8-3.1,6.3-7.3,10.6-13.4c3.8-5.4,7.6-11.3,11.3-17.7c3-5.1,9.7-6.5,14.5-3.2L761.1,341.9z M666.8,354.8
		C666.8,354.8,666.8,354.8,666.8,354.8c0.1,12.2-5.1,38.9-41.1,79.8c-16.5,18.7-32.6,32.3-42.6,39.2c-5.1,3.5-11.9,3.5-17,0
		c-10-6.8-26.2-20.4-42.8-39c-34.4-38.6-40.9-64.6-41.5-77.6c4.2-0.8,11.1-3.2,22.5-9.4c12.7-6.9,26.8-16.3,39.9-26.5
		c4.4-3.4,9.5-7.6,14.8-12.4c4-3.6,10.1-3.8,14.3-0.5c9.3,7.2,18.4,13.2,25.7,17.7c14.1,8.7,29.3,16.4,42.7,21.8
		C655.4,353.4,662.7,354.7,666.8,354.8z M446.2,573.8c-36.1-40.5-41.5-67.1-41.5-79.4c0-7,0.8-13.8,2.2-20.4
		c0.8-3.6,5.3-4.9,7.9-2.2c1.5,1.6,3.1,3.1,4.6,4.6c16.6,16.1,22.6,16.7,24.8,17c0.4,0,0.8,0.1,1.4,0.1c3.1,0,10-1.3,26.3-11.7
		c12.2-7.8,25.6-18.2,37.9-29.3c0,0,0,0,0,0c2.6-2.4,6.7-2.2,9.1,0.3c3.4,3.6,6.8,7,10.3,10.4c1.7,1.6,2.4,4,1.8,6.2
		c-1.9,8.1-2.9,16.5-2.9,25.1c0.1,20,10,41,21.7,58.9c4.1,6.2,3.6,14.4-1.4,20l-0.1,0.1c-16.5,18.7-32.6,32.3-42.6,39.2
		c-5.1,3.5-11.8,3.5-17,0C478.9,606,462.7,592.4,446.2,573.8z M386.5,473.1c1.7-1.9,4.9-0.4,4.4,2.2c-1.1,6.3-1.7,12.7-1.7,19.3
		c0.1,22.9,13.2,47.3,27.1,66.7c4.3,6,4.3,14.1-0.1,20.1c-6.9,9.6-13.3,17.2-18.1,22.1c-4.3,4.4-10.8,5.7-16.4,3.4
		c-7.3-3.1-17.9-8.5-30.1-16.2c-4.8-3-8.3-7.7-9.8-13.1c-10-35.1-16.9-67.1-21.7-95.7c-1.2-6.9,6.2-12.1,12.4-8.7
		c14.1,7.9,26.7,13.1,34.1,13.1c0.8,0,1.6-0.2,2.3-0.2C373.8,485.9,381.1,479,386.5,473.1z M501.6,432.9c1.6,2,1.4,4.9-0.5,6.6l0,0
		c-18.3,16.9-35.8,28.8-46.4,34.5c-5.5,3-12.1,2.3-16.9-1.7c-9.2-7.8-23.9-23-38.5-43.2c-31.7-44-34.3-71-33.1-83.2l0,0
		c0.2-1.7,1.2-3.3,2.8-4c15.7-7.5,35-20.7,47.6-30.5c0.3-0.3,0.7-0.5,1-0.8c4.5-3.6,11.1-2.6,14.4,2.2c6.6,9.5,13.6,18.5,20.3,26
		c6,6.8,10.6,11,14.1,13.8c0,1,0,2,0,3C466.5,382.9,485.1,412.3,501.6,432.9z M344.8,347.2c3.4,1.4,5.6,4.6,5.9,8.2
		c2,31.5,23.7,65.8,37.5,84.6l0,0c1.4,1.9,1.4,4.5,0,6.3c-5.7,7.6-10.9,13.7-15,17.9c-4.3,4.4-10.8,5.8-16.5,3.4
		c-12.6-5.4-34.7-17.7-56.6-35.3c-1.5-1.2-2.4-2.9-2.6-4.8c-6.9-73.4,0-117.9,0.4-120.2c0,0,0-0.1,0-0.1c0-0.2,0.1-0.4,0.1-0.6
		c0.8-3.8,5.8-4.9,8-1.7c5.3,7.4,10.7,14.5,16.2,20.8C322.1,326,335.1,343.1,344.8,347.2z M455,604.4c3.6,3.6,5.4,8.8,4.7,13.9
		c-0.7,5-1.1,10.1-1,15.3c0.1,23.5,13.8,48.5,28.1,68.2c4.3,5.9,4.6,13.8,0.7,19.9c-10.4,16.4-20.6,29-27.6,36.2
		c-4.3,4.4-10.9,5.8-16.6,3.4c-9.2-3.9-23.4-11.6-38.6-22c-1.5-1-2.6-2.4-3.4-4c-20.2-42.8-36-83.4-48.3-121
		c-0.7-2.1,1.5-3.9,3.4-2.8c1.1,0.6,2.2,1.2,3.3,1.8c18.9,10.3,27.5,11.9,31.5,11.9c1.3,0,2.1-0.2,2.6-0.3c2.2-0.5,8.1-1.6,23-19.3
		c3.6-4.2,7.2-8.9,10.8-13.8c3.2-4.4,9.7-4.9,13.6-1.1L455,604.4z M574.7,494c2.3,0,8.3,0,26.4-14.4c5.8-4.6,11.9-10,18-15.8
		c4.5-4.4,11.7-4.7,16.6-0.7c8.6,7,17.5,13.5,25.7,18.7c16.3,10.4,23.2,11.7,26.3,11.7c0.6,0,1.1,0,1.5-0.1c2.3-0.2,8.2-0.9,24.8-17
		c1.9-1.9,3.9-3.9,5.9-6c2-2.1,5.5-1.2,6.2,1.6c1.7,7,2.7,14.4,2.7,22c0,12.3-5.3,38.9-41.1,79.6c-16.5,18.7-32.6,32.3-42.6,39.2
		c-5.1,3.5-11.8,3.5-17,0c-10-6.8-26.2-20.4-42.8-39c-36.1-40.5-41.5-67.1-41.5-79.4c0-2.7,0.1-5.4,0.3-8c0.3-4,4.9-6,8.1-3.7
		C558.4,487.4,567.7,493.4,574.7,494z M803.2,453.5c-10.8,6.7-20.2,11.4-26.9,14.3c-5.7,2.4-12.2,1.1-16.5-3.3
		c-4-4.2-9.2-10.2-14.8-17.7c-1.5-2-1.5-4.7,0-6.7l0-0.1c13.6-18.6,34.8-52.4,37.2-83.6c0.4-4.7,3-9,7-11.6
		c4.4-2.9,11-8.5,20.6-19.3c1.2-1.4,2.4-2.8,3.7-4.2c3.2-3.7,9.2-1.6,9.5,3.2c0.9,19.2,1.3,55.6-4.7,105.5
		C817.1,439.7,811.5,448.4,803.2,453.5z M722.4,296.7c-3.5-3.1-4.6-8.1-2.7-12.3c11-24.6,24.4-64,15.6-93.9c-1.2-4.1-2.7-8.1-4.3-12
		c-1.2-2.8,2.2-5.3,4.5-3.4c6.4,5.3,12.8,10.6,19.2,15.7c28.4,22.4,48.3,51.5,59.6,87c2.5,7.9,1,16.4-4.1,22.9
		c-8.9,11.4-17.2,20.5-23.2,26c-4.6,4.2-11.3,5.2-16.9,2.5C759.3,323.9,741.3,312.8,722.4,296.7L722.4,296.7z M675.9,139.9
		c21.7,11.8,37.5,31.3,44.5,55c3.5,11.8,5.9,38.9-17,87.9c-14.7,31.4-31.5,53.3-36.6,56.6c0,0,0,0,0,0c-6.2,0-32.1-9.2-61.4-27.5
		c-46-28.7-58.7-52.7-62.2-64.5c-14.5-48.9,13.5-100.5,62.4-114.9C629.2,125.4,654.2,128.1,675.9,139.9z M531,70.7
		c0-6.4,4.7-11.8,11-12.7c6.2-0.9,12.9-1.5,16.6-1.5c3.8,0,10.9,0.6,17.2,1.6c6.3,0.9,11,6.3,11,12.7v45.7c-0.1,0.5-0.1,1-0.3,1.6
		c-0.9,3.7-3.5,6.7-6.8,8.5c-2.3,1.3-4.5,2.6-6.7,4c-4.2,2.7-9.7,2.8-13.9,0c-6.2-4.1-13-7.6-20.1-10.4c-4.9-1.9-8.1-6.6-8.1-11.9
		V70.7z M543.8,139.4c5.5,3,6.9,10.2,3.1,15.1c-20.8,26.6-28.9,62.5-18.6,97.3c3.4,11.4,10.2,22.1,18.6,31.9
		c4.2,4.9,3.6,12.4-1.3,16.6c-2.8,2.5-5.9,5-9.1,7.5c-19.5,15.5-37.8,26.1-48.7,31.1c-5.7,2.6-12.3,1.4-16.7-2.9
		c-8.6-8.4-22.2-24.6-35.3-45.8c-28.4-46.1-29.1-73.3-27-85.4c4.3-24.3,17.7-45.6,37.9-59.8c15.7-11.1,34.1-16.8,53-16.8
		c5.3,0,10.7,0.5,16.1,1.4C525.8,131.4,535.3,134.8,543.8,139.4z M238.3,407.4c-6.1-3.7-13.5-4.2-20.3-1.9
		c-3.4,1.2-6.8,2.3-10.2,3.3c-3.2,0.9-5.7-2.9-3.5-5.4c4-4.7,6.7-7.5,6.8-7.6c5.9-6,8.1-14.8,5.6-22.9c-1.9-6.4-6.5-11.6-12.4-14.3
		c-2.3-1-2.9-4-1.4-5.9c6.5-8.3,14.7-18.2,24.3-27.9c5.7-5.8,8.4-14.1,6.5-22c-2.3-9.8-10.6-16.9-20.5-17.8l0,0
		c-1.8-0.2-2.5-2.4-1.1-3.5c19.9-15.9,38.8-23.9,39.1-23.9c9.6-3.9,15.4-13.7,14.3-24c-0.9-8.2-6.1-15.1-13.3-18.4
		c-1.7-0.8-1.8-3-0.3-4c24.2-14.8,49.8-23.1,50.1-23.2c10-3.2,16.6-12.6,16.1-23.1c-0.5-10.4-7.8-19.2-18-21.5l0,0
		c-0.9-0.3-1.1-1.6-0.2-2.1c27.8-15.6,57.8-27.4,58.2-27.6c7.3-2.8,12.6-9.2,14.2-16.8c0.6-2.9,0.7-5.9,0.1-8.8
		c-0.3-1.8,0.7-3.5,2.4-4c31.7-9.4,82.2-19.1,130.6-5.8c5.9,1.6,10,7.1,10,13.2v7.4c0,7.3-5.8,13.4-13.1,13.7
		c-17.7,0.9-33.3,4.6-33.3,4.6c-42.1,9.6-77.8,26-106.6,49c-41.4,33.1-68.3,79.7-79.9,138.4l0,0.2c0,0,0,0,0,0l0,0c0,0,0,0,0,0.1
		c-0.5,2.8-6.8,42.1-1.9,109.1c0.3,4.7-2.4,9-6.8,10.8c-7.1,2.8-13.9,5.1-20.3,6.8c-2.3,0.6-4.7-1-5-3.4
		C247.2,413.4,238.3,407.4,238.3,407.4z M567.4,943.5c-13.8,0-32.4-10.3-52.4-29.1c-11.8-11.1-23.7-24.8-34.9-40
		c-1.7-2.4,1.1-5.4,3.6-3.8c8.1,5.2,16.1,9.9,23.6,13.7c15.3,7.7,22.5,9.1,26.1,9.1c1.3,0,2.1-0.2,2.7-0.3c2.2-0.5,8.1-1.6,23-19.3
		c1.3-1.6,2.6-3.2,3.9-4.8c3.5-4.3,10-4.3,13.5,0c1.3,1.7,2.6,3.3,3.9,4.8c14.9,17.7,20.8,18.9,23,19.3c0.6,0.1,1.4,0.3,2.7,0.3
		c3.6,0,10.8-1.4,26.1-9.1c5.4-2.7,11-5.9,16.7-9.3c2.5-1.5,5.2,1.5,3.5,3.9C624.1,916.8,590.2,943.5,567.4,943.5z M692,590.8
		c3.9-3.9,10.3-3.4,13.6,1c3.6,4.9,7.2,9.5,10.7,13.7c14.9,17.7,20.8,18.9,23,19.3c0.5,0.1,1.3,0.3,2.6,0.3
		c3.8,0,11.9-1.5,29.5-10.8c0.4-0.2,0.9-0.5,1.3-0.7c1.9-1,4.1,0.8,3.4,2.8c-1.6,4.8-3.2,9.6-4.8,14.4
		c-12,35.3-26.1,70.7-42.1,106.1c-0.8,1.7-2,3.2-3.5,4.2c-14.2,9.5-27.2,16.4-35.8,20.1c-5.7,2.4-12.3,1.1-16.6-3.4
		c-7-7.2-17.2-19.8-27.6-36.1c-3.9-6.2-3.6-14.1,0.7-20c14.3-19.8,28.2-45.1,28.1-68.8c0-2.5-0.1-4.9-0.3-7.3
		c-0.7-10.1,3-20,10.2-27.2L692,590.8z"/>
	<circle class="st17" cx="311.7" cy="342.1" r="7.7"/>
</g>
<g id="Layer_2">
</g>
<g id="Layer_3">
</g>
</svg>
