<svg xmlns="http://www.w3.org/2000/svg" width="48" height="48" viewBox="0 0 48 48"><path fill="#2196F3" d="M37.891,11.663c0.919,0.613,2.16,0.364,2.773-0.555s0.364-2.161-0.555-2.773c-0.919-0.613-4.387-0.419-4.387-0.419S36.972,11.051,37.891,11.663z"/><path fill="#4CAF50" d="M37.5,21H10v3h27.5c0.827,0,1.5,0.673,1.5,1.5S38.327,27,37.5,27H10v3h27.5c2.481,0,4.5-2.019,4.5-4.5S39.981,21,37.5,21z"/><path fill="#4CAF50" d="M38,33H10.5C9.673,33,9,32.327,9,31.5S9.673,30,10.5,30H38v-3H10.5C8.019,27,6,29.019,6,31.5S8.019,36,10.5,36H38V33z"/><path fill="#4CAF50" d="M37.5 33H10v3h27.5c.827 0 1.5.673 1.5 1.5S38.327 39 37.5 39H6v3h31.5c2.481 0 4.5-2.019 4.5-4.5S39.981 33 37.5 33zM9 19.5c0-.176-3-.171-3 0 0 2.481 2.019 4.5 4.5 4.5H38v-3H10.5C9.673 21 9 20.327 9 19.5z"/><path fill="#4CAF50" d="M9,19.437H6c0-5.107,4.173-6.213,10.491-7.887c1.644-0.436,9.91-2.885,11.98-3.506l0.863,2.873c-2.118,0.636-10.409,3.092-12.075,3.533C10.459,16.252,9,16.879,9,19.437z"/><path fill="#37474F" d="M33.423 9.619L26.992 12.563 25.577 7.766 32.573 6.744z"/><path fill="#2E7D32" d="M27.275,13.521c0.156,0.528-0.146,1.085-0.675,1.242l-0.96,0.282c-0.529,0.158-1.086-0.146-1.242-0.676l-1.982-6.712c-0.156-0.531,0.146-1.088,0.676-1.243l0.959-0.284c0.529-0.155,1.085,0.148,1.242,0.676L27.275,13.521z"/></svg>