<?xml version="1.0" encoding="utf-8"?>
<!-- Generator: Adobe Illustrator 20.0.0, SVG Export Plug-In . SVG Version: 6.00 Build 0)  -->
<svg version="1.1" id="Layer_1" xmlns="http://www.w3.org/2000/svg" xmlns:xlink="http://www.w3.org/1999/xlink" x="0px" y="0px"
	 viewBox="0 0 1000 1000" style="enable-background:new 0 0 1000 1000;" xml:space="preserve">
<style type="text/css">
	.st0{display:none;fill:#D1A982;}
	.st1{fill:#ECE8DB;}
	.st2{fill:#5B3A03;}
	.st3{fill:#719E7F;stroke:#667F40;stroke-width:3;stroke-linecap:round;stroke-linejoin:round;stroke-miterlimit:10;}
	.st4{fill:#719E7F;stroke:#667F40;stroke-linecap:round;stroke-linejoin:round;stroke-miterlimit:10;}
	.st5{fill:none;stroke:#667F40;stroke-width:3;stroke-linecap:round;stroke-miterlimit:10;}
	.st6{fill:#4D6261;}
	.st7{fill:#ECE8DB;stroke:#5B3A03;stroke-width:3;stroke-miterlimit:10;}
	.st8{fill:#BCE680;}
	.st9{fill:none;stroke:#F0FDC5;stroke-linecap:round;stroke-linejoin:round;stroke-miterlimit:10;}
	.st10{fill:#8DC70C;}
	.st11{fill:#ECFE78;}
	.st12{fill:#73953B;}
	.st13{fill:#3D710C;}
	.st14{fill:#73953B;stroke:#3D710C;stroke-width:3;stroke-linejoin:round;stroke-miterlimit:10;}
	.st15{fill:#EFE8D7;stroke:#DABB95;stroke-width:3;stroke-linejoin:round;stroke-miterlimit:10;}
	.st16{opacity:0.6;fill:none;stroke:#BF71B0;stroke-width:3;stroke-miterlimit:10;}
	.st17{opacity:0.4;fill:none;stroke:#BF71B0;stroke-width:3;stroke-miterlimit:10;}
	.st18{opacity:0.3;fill:none;stroke:#BF71B0;stroke-width:3;stroke-miterlimit:10;}
	.st19{opacity:0.2;fill:none;stroke:#BF71B0;stroke-width:3;stroke-miterlimit:10;}
	.st20{opacity:0.1;fill:none;stroke:#BF71B0;stroke-width:3;stroke-miterlimit:10;}
	.st21{fill:#77A45B;}
	.st22{fill:none;stroke:#FFFFFF;stroke-linecap:round;stroke-linejoin:round;stroke-miterlimit:10;}
	.st23{fill:#00FFFF;}
	.st24{fill:#E50F4F;}
	.st25{fill:#5A8700;}
	.st26{fill:#9D9F01;}
	.st27{fill:none;stroke:#BFBF04;stroke-linecap:round;stroke-linejoin:round;stroke-miterlimit:10;}
	.st28{fill:none;stroke:#CAD058;stroke-linecap:round;stroke-linejoin:round;stroke-miterlimit:10;}
	.st29{fill:#E21039;stroke:#930019;stroke-width:3;stroke-linejoin:round;stroke-miterlimit:10;}
	.st30{fill:#77A45B;stroke:#3D710C;stroke-linecap:round;stroke-linejoin:round;stroke-miterlimit:10;}
	.st31{fill:none;stroke:#77A45B;stroke-width:3;stroke-miterlimit:10;}
	.st32{opacity:0.5;fill:none;stroke:#FFFFFF;stroke-width:3;stroke-linejoin:round;stroke-miterlimit:10;}
	.st33{opacity:0.7;fill:none;stroke:#FFFFFF;stroke-width:3;stroke-linejoin:round;stroke-miterlimit:10;}
	.st34{opacity:0.9;fill:none;stroke:#FFFFFF;stroke-width:3;stroke-linejoin:round;stroke-miterlimit:10;}
	.st35{opacity:0.3;fill:none;stroke:#FFFFFF;stroke-width:3;stroke-linejoin:round;stroke-miterlimit:10;}
	.st36{opacity:0.2;fill:none;stroke:#FFFFFF;stroke-width:3;stroke-linejoin:round;stroke-miterlimit:10;}
	.st37{fill:#E21039;}
	.st38{fill:#930019;}
	.st39{fill:#F4E5E8;}
	.st40{fill:#DEB2BA;}
	.st41{fill:#C8818D;}
	.st42{fill:#B14D5F;}
	.st43{fill:#FFFFFF;}
	.st44{fill:#EFE8D7;}
	.st45{fill:#8C7662;}
	.st46{fill:#E50F4F;stroke:#930019;stroke-width:3;stroke-linejoin:round;stroke-miterlimit:10;}
	.st47{fill:none;stroke:#E87C94;stroke-width:3;stroke-linejoin:round;stroke-miterlimit:10;}
	.st48{fill:none;stroke:#E64872;stroke-width:3;stroke-linejoin:round;stroke-miterlimit:10;}
	.st49{fill:none;stroke:#EBB2B6;stroke-width:3;stroke-linejoin:round;stroke-miterlimit:10;}
	.st50{fill:none;stroke:#930019;stroke-width:3;stroke-linejoin:round;stroke-miterlimit:10;}
	.st51{fill:#E87C94;}
	.st52{fill:#E64872;}
	.st53{fill:#EBB2B6;}
	.st54{opacity:0.7;fill:none;stroke:#E50F4F;stroke-width:3;stroke-linejoin:round;stroke-miterlimit:10;}
	.st55{opacity:0.6;fill:none;stroke:#E50F4F;stroke-width:3;stroke-linejoin:round;stroke-miterlimit:10;}
	.st56{opacity:0.4;fill:none;stroke:#E50F4F;stroke-width:3;stroke-linejoin:round;stroke-miterlimit:10;}
	.st57{opacity:0.3;fill:none;stroke:#E50F4F;stroke-width:3;stroke-linejoin:round;stroke-miterlimit:10;}
	.st58{opacity:0.2;fill:none;stroke:#E50F4F;stroke-width:3;stroke-linejoin:round;stroke-miterlimit:10;}
	.st59{opacity:0.1;fill:none;stroke:#E50F4F;stroke-width:3;stroke-linejoin:round;stroke-miterlimit:10;}
	.st60{fill:none;stroke:#DABB95;stroke-width:3;stroke-linejoin:round;stroke-miterlimit:10;}
	.st61{fill:#77A45B;stroke:#3D710C;stroke-width:0.9521;stroke-linecap:round;stroke-linejoin:round;stroke-miterlimit:10;}
	.st62{fill:#DABB95;}
	.st63{fill:#E76886;}
	.st64{fill:#E87D94;}
	.st65{fill:#E992A2;}
	.st66{fill:#EBA7AF;}
	.st67{fill:#ECBDBD;}
	.st68{fill:#EDD2CA;}
	.st69{opacity:0.6;fill:#BF71B0;}
	.st70{opacity:0.5;fill:#BF71B0;}
	.st71{opacity:0.4;fill:#BF71B0;}
	.st72{opacity:0.3;fill:#BF71B0;}
	.st73{opacity:0.2;fill:#BF71B0;}
	.st74{fill:#FCD24F;stroke:#BA8822;stroke-width:3;stroke-linejoin:round;stroke-miterlimit:10;}
	.st75{opacity:0.9;fill:none;stroke:#732429;stroke-width:3;stroke-miterlimit:10;}
	.st76{opacity:0.8;fill:none;stroke:#732429;stroke-width:3;stroke-miterlimit:10;}
	.st77{opacity:0.7;fill:none;stroke:#732429;stroke-width:3;stroke-miterlimit:10;}
	.st78{opacity:0.6;fill:none;stroke:#732429;stroke-width:3;stroke-miterlimit:10;}
	.st79{opacity:0.5;fill:none;stroke:#732429;stroke-width:3;stroke-miterlimit:10;}
	.st80{opacity:0.4;fill:none;stroke:#732429;stroke-width:3;stroke-miterlimit:10;}
	.st81{fill:none;stroke:#BA8822;stroke-width:3;stroke-linejoin:round;stroke-miterlimit:10;}
	.st82{fill:#FCD24F;}
	.st83{fill:#BA8822;}
	.st84{fill:#80352F;}
	.st85{fill:#8D4734;}
	.st86{fill:#9B5838;}
	.st87{fill:#A96A3D;}
	.st88{fill:#B77A42;}
	.st89{fill:#C48B47;}
	.st90{fill:#5B774B;}
	.st91{fill:none;stroke:#ECFE78;stroke-linecap:round;stroke-linejoin:round;stroke-miterlimit:10;}
	.st92{fill:none;stroke:#5B774B;stroke-miterlimit:10;}
	.st93{fill:none;stroke:#ECFE78;stroke-linecap:round;stroke-miterlimit:10;}
	.st94{fill:none;stroke:#5B774B;stroke-linejoin:round;stroke-miterlimit:10;}
	.st95{fill:none;stroke:#89A037;stroke-linecap:round;stroke-linejoin:round;stroke-miterlimit:10;}
	.st96{fill:none;stroke:#89A037;stroke-width:3;stroke-linecap:round;stroke-linejoin:round;stroke-miterlimit:10;}
	.st97{fill:none;stroke:#89A037;stroke-width:3.3343;stroke-linecap:round;stroke-linejoin:round;stroke-miterlimit:10;}
	.st98{fill:#F0FDC5;}
	.st99{fill:#839958;}
	.st100{fill:#AA2F66;}
	.st101{fill:#D8CBC5;}
	.st102{fill:#662128;}
	.st103{fill:#BCE680;stroke:#5B774B;stroke-width:3.1491;stroke-miterlimit:10;}
	.st104{fill:#ECE8DB;stroke:#5B3A03;stroke-miterlimit:10;}
	.st105{fill:none;stroke:#00FF00;stroke-miterlimit:10;}
	.st106{fill:none;stroke:#00FF00;stroke-width:1.0757;stroke-miterlimit:10;}
	.st107{clip-path:url(#SVGID_2_);}
	.st108{fill:none;stroke:#000000;stroke-miterlimit:10;}
	.st109{fill:none;stroke:#000000;stroke-width:1.16;stroke-miterlimit:10;}
	.st110{fill:#7AA66D;}
	.st111{fill:#8BC133;}
	.st112{fill:none;stroke:#000000;stroke-width:0.9135;stroke-miterlimit:10;}
	.st113{fill:none;stroke:#000000;stroke-width:5.9645;stroke-miterlimit:10;}
	.st114{fill:none;stroke:#000000;stroke-width:1.9086;stroke-linecap:round;stroke-linejoin:round;stroke-miterlimit:10;}
	.st115{fill:none;stroke:#4D6261;stroke-width:0.9577;stroke-linecap:round;stroke-linejoin:round;stroke-miterlimit:10;}
	.st116{fill:#7AA66D;stroke:#4D6261;stroke-width:0.9577;stroke-miterlimit:10;}
	.st117{fill:none;stroke:#4D6261;stroke-width:0.9577;stroke-miterlimit:10;}
	.st118{fill:#D2DE8F;stroke:#667F40;stroke-width:3;stroke-miterlimit:10;}
	.st119{fill:none;stroke:#FAFAEE;stroke-linecap:round;stroke-miterlimit:10;}
	.st120{fill:#D2DE8F;}
	.st121{fill:none;stroke:#667F40;stroke-width:3;stroke-miterlimit:10;}
	.st122{fill:#77A578;}
	.st123{fill:#719E7F;}
	.st124{fill:#FAFAEE;}
	.st125{fill:#667F40;}
	.st126{fill:#ECE8DB;stroke:#5B3A03;stroke-width:0.9644;stroke-miterlimit:10;}
	.st127{fill:#7AA66D;stroke:#4D6261;stroke-width:3.6;stroke-linecap:round;stroke-linejoin:round;stroke-miterlimit:10;}
	.st128{fill:none;stroke:#D2DE8F;stroke-miterlimit:10;}
	.st129{fill:none;stroke:#4D6261;stroke-width:3.6;stroke-linecap:round;stroke-linejoin:round;stroke-miterlimit:10;}
	.st130{fill:#ECE8DB;stroke:#5B3A03;stroke-linecap:round;stroke-linejoin:round;stroke-miterlimit:10;}
	.st131{fill:#FAD673;}
	.st132{fill:#CE731F;}
	.st133{fill:#D15CD4;}
	.st134{fill:#701975;}
</style>
<rect x="-1498.5" y="-356" class="st0" width="5227.9" height="4725.2"/>
<g>
	<path class="st44" d="M411.1,689c-22.9-52.6-49.8-167-49.8-240.1c0-119.4,52.4-165.8,117.1-165.8s117.1,46.5,117.1,165.8
		c0,73.1-26.1,188.6-49.8,240.1l-67.4,145.6L411.1,689z"/>
	<path class="st45" d="M478.5,977.2c-11.2,0-20.7-8.1-22.5-19.1l-21.6-135.3c-4.4-25.2-20.1-69.4-44.1-124.7
		c-24.4-56-51.7-174.4-51.7-249.1c0-61.5,13.2-109.2,39.3-141.9c24.4-30.6,59.2-46.7,100.6-46.7c41.4,0,76.2,16.1,100.6,46.7
		c26.1,32.6,39.3,80.4,39.3,141.9c0,78.2-27.4,196.3-51.8,249.6c-18.5,40.3-39.3,94.3-43.9,124.1l-21.6,135.5
		C499.1,969.1,489.6,977.2,478.5,977.2z M478.5,305.8c-27.5,0-49.4,10-65,29.6c-19.5,24.4-29.3,62.5-29.3,113.5
		c0,68.2,25.7,180.2,47.9,231c25,57.4,40.6,101.4,46.5,130.9c6.8-36.6,29.1-93,46.7-131.3c22.1-48,47.7-159.2,47.7-230.6
		c0-50.9-9.9-89.1-29.3-113.5C527.8,315.8,505.9,305.8,478.5,305.8z"/>
	<path class="st43" d="M424.8,414.9c-0.4,0-0.8,0-1.2-0.1c-4.1-0.6-7-4.5-6.3-8.7c4.8-31,15.9-52,32.8-62.4
		c3.6-2.2,8.2-1.1,10.4,2.5c2.2,3.6,1.1,8.2-2.5,10.4c-13,8-21.7,25.4-25.8,51.8C431.7,412.2,428.5,414.9,424.8,414.9z"/>
	<circle class="st43" cx="423.2" cy="441.1" r="7.6"/>
	<path class="st21" d="M463.4,305.1c-0.3-3-4.7-49,17.3-100.9c-12.6-29.2-22.7-52.5,2.8-88.1c29.7-41.4,88.8-75.7,116.9-55.6
		s14.7,87.2-14.9,128.6c-23.5,32.8-48.5,33-76.2,31.2c-17.1,42.4-14.1,84.5-13.9,87C495.4,307.2,477.4,317.6,463.4,305.1z"/>
	<path class="st13" d="M658.5,73.1c-4.8-21.1-15.8-38.3-31.6-49.6C613.7,14,597.5,9,580,9c-29.7,0-57.5,14-75.5,25.7
		c-22.4,14.6-43,34-57.9,54.8c-17.9,25-25.8,49.8-24.1,75.8c0.9,14.5,4.8,27.6,9.4,39.5c-8.9,26.3-12.5,50.7-13.8,69.4
		c12-6.2,25.1-10.3,39.2-12.4c-3.2,24-1.7,40.9-1.4,43.9c0.2,1.9,1.1,3.6,2.5,4.9c7,6.2,14.5,8.1,21.3,8.1c10.6,0,19.1-4.8,19.6-5.1
		c2.6-1.5,4.1-4.4,3.8-7.3c0-0.3-1.6-18.8,2.5-43.7c13.1,2.4,25.2,6.7,36.4,12.7c0.4-3.2,0.9-6.7,1.6-10.3
		c9.5-1.2,20.2-3.8,31.4-8.8c18.4-8.4,34-21.7,47.7-40.9c19-26.5,32.5-60.1,37.2-92.2C662.3,105,661.9,88.1,658.5,73.1z
		 M470.6,301.1c-0.7-11.3-1.4-50.7,17-94c0.8-1.9,0.8-4.1,0-6c-12.6-29.2-20.9-48.6,2.1-80.7c14-19.5,35-37.7,56.3-48.5
		c21.3-10.9,39.5-12.8,50-5.3c10.5,7.5,14.6,25.4,11.1,49.1c-3.4,23.6-13.8,49.4-27.8,68.9c-20.7,28.9-41,29.9-69.6,28
		c-3.3-0.2-6.3,1.7-7.5,4.7c-14.4,35.9-15,71.5-14.7,84.9C483.4,303.7,476.6,304.9,470.6,301.1z"/>
</g>
</svg>
