<?xml version="1.0" encoding="utf-8"?>
<!-- Generator: Adobe Illustrator 20.0.0, SVG Export Plug-In . SVG Version: 6.00 Build 0)  -->
<svg version="1.1" xmlns="http://www.w3.org/2000/svg" xmlns:xlink="http://www.w3.org/1999/xlink" x="0px" y="0px"
	 viewBox="0 0 1000 1000" style="enable-background:new 0 0 1000 1000;" xml:space="preserve">
<style type="text/css">
	.st0{fill:#9556DD;stroke:#3F2C73;stroke-width:6;stroke-miterlimit:10;}
	.st1{fill:#38590E;stroke:#38590E;stroke-width:6;stroke-miterlimit:10;}
	.st2{fill:#3F2C73;stroke:#3F2C73;stroke-width:6;stroke-miterlimit:10;}
	.st3{fill:none;stroke:#648551;stroke-miterlimit:10;}
	.st4{fill:#7B9727;stroke:#386100;stroke-width:3;stroke-linecap:round;stroke-linejoin:round;stroke-miterlimit:10;}
	.st5{fill:#7B9727;stroke:#386100;stroke-width:0.745;stroke-linecap:round;stroke-linejoin:round;stroke-miterlimit:10;}
	.st6{fill:#7B9727;stroke:#386100;stroke-width:3;stroke-miterlimit:10;}
	.st7{fill:#618022;stroke:#386100;stroke-width:3;stroke-linejoin:round;stroke-miterlimit:10;}
	.st8{fill:none;stroke:#45210A;stroke-width:3;stroke-linecap:round;stroke-linejoin:round;stroke-miterlimit:10;}
	.st9{fill:#00FFFF;}
	.st10{clip-path:url(#SVGID_2_);}
	.st11{clip-path:url(#SVGID_4_);}
	.st12{clip-path:url(#SVGID_6_);}
	.st13{fill:#D2C6C6;}
	.st14{fill:#D2C6C6;stroke:#534741;stroke-miterlimit:10;}
	.st15{fill:#B28A5C;stroke:#45210A;stroke-width:3;stroke-linecap:round;stroke-linejoin:round;stroke-miterlimit:10;}
	.st16{fill:none;stroke:#87562E;stroke-miterlimit:10;}
	.st17{fill:none;stroke:#87562E;stroke-linecap:round;stroke-linejoin:round;stroke-miterlimit:10;}
	.st18{fill:none;stroke:#FFFFFF;stroke-linecap:round;stroke-linejoin:round;stroke-miterlimit:10;}
	.st19{fill:none;stroke:#45210A;stroke-linecap:round;stroke-linejoin:round;stroke-miterlimit:10;}
	.st20{fill:#45210A;}
	.st21{fill:#FFFFFF;}
	.st22{fill:#488C00;}
	.st23{fill:#488C00;stroke:#006837;stroke-linejoin:round;stroke-miterlimit:10;}
	.st24{fill:#488C00;stroke:#006837;stroke-width:0.899;stroke-linejoin:round;stroke-miterlimit:10;}
	.st25{fill:#FCEE21;}
	.st26{fill:none;stroke:#FFFFFF;stroke-linecap:round;stroke-miterlimit:10;}
	.st27{fill:#FFCADE;}
	.st28{fill:none;stroke:#386100;stroke-width:4;stroke-linejoin:round;stroke-miterlimit:10;}
	.st29{fill:#519900;}
	.st30{fill:#386100;}
	.st31{fill:none;stroke:#386100;stroke-width:0.25;stroke-linecap:round;stroke-linejoin:round;stroke-miterlimit:10;}
	.st32{fill:none;stroke:#386100;stroke-linecap:round;stroke-linejoin:round;stroke-miterlimit:10;}
	.st33{fill:#519900;stroke:#386100;stroke-linejoin:round;stroke-miterlimit:10;}
	.st34{fill:none;stroke:#95B22F;stroke-linecap:round;stroke-linejoin:round;stroke-miterlimit:10;}
	.st35{fill:#95B22F;}
	.st36{fill:#B28A5C;}
	.st37{fill:#87562E;}
	.st38{fill:#688625;stroke:#386100;stroke-miterlimit:10;}
	.st39{fill:#6F8B29;stroke:#386100;stroke-miterlimit:10;}
	.st40{fill:#75912D;stroke:#386100;stroke-miterlimit:10;}
	.st41{fill:#7B9727;stroke:#386100;stroke-miterlimit:10;}
	.st42{fill:none;stroke:#386100;stroke-miterlimit:10;}
	.st43{fill:#7B9727;}
	.st44{fill:#618022;}
	.st45{fill:#688625;}
	.st46{fill:#6F8B29;}
	.st47{fill:#75912D;}
	.st48{fill:#AB4168;stroke:#5F2940;stroke-width:6;stroke-miterlimit:10;}
	.st49{fill:#AB4168;stroke:#5F2940;stroke-miterlimit:10;}
	.st50{fill:none;stroke:#DADADA;stroke-miterlimit:10;}
	.st51{fill:#688800;}
	.st52{fill:#304B0A;}
	.st53{fill:#779F14;stroke:#38590E;stroke-miterlimit:10;}
	.st54{fill:#648551;}
	.st55{fill:none;stroke:#38590E;stroke-miterlimit:10;}
	.st56{fill:none;stroke:#38590E;stroke-linecap:round;stroke-miterlimit:10;}
	.st57{fill:#38590E;}
	.st58{fill:#779F14;}
	.st59{fill:#9556DD;}
	.st60{fill:#779F14;stroke:#648551;stroke-miterlimit:10;}
	.st61{fill:#648551;stroke:#38590E;stroke-linejoin:round;stroke-miterlimit:10;}
	.st62{fill:none;stroke:#648551;stroke-linecap:round;stroke-miterlimit:10;}
	.st63{fill:#9556DD;stroke:#3F2C73;stroke-width:8;stroke-miterlimit:10;}
	.st64{fill:#3F2C73;}
	.st65{fill:#9A69E8;}
</style>
<g id="Layer_1">
	<g>
		<path class="st59" d="M803.3,479.8c-13.3,3-26.2,7.1-38.5,11.6l3-4.7c1.6-2.5,1.7-5.7,0.2-8.3c-1.5-2.6-4.2-4.1-7.3-4
			c-34.7,1.6-60.4,14.7-75.8,25.4c-10.7,7.4-21.9,17.8-26.7,26.8l-25.6,1.3c28.4-64.1,47.8-122.6,61.1-174.3l38.5-28.9
			c5,2.1,11.9,3.8,20.7,4.4c24.1,1.7,59.8-4.3,92.1-28.4c2.4-1.8,3.6-4.7,3.1-7.7c-0.5-2.9-2.6-5.4-5.4-6.3l-3-1c2.9-1.5,5.4-3,7-4
			c10.9-7.1,17.6-16,14.7-33.7c-1.7-10.1-0.7-17.8,1.2-22.8c3.2-8.5,3.6-18-0.2-26.3c-2.5-5.5-6.9-11-14.4-14.7
			c-16.3-8.2-31.5,7.6-31.5,7.6c-9.3,10-17.7,20.6-25.3,31.2l-0.1-5.6c-0.1-3-1.8-5.7-4.5-7c-2.7-1.3-5.9-1-8.3,0.8
			c-27.9,20.8-41.8,46.1-48.5,63.6c-4.7,12.2-8.1,27-7.1,37.1l-22.9,17.2c12.8-55.2,18.5-101.6,21.2-137.4c0.4-0.1,0.8-0.2,1.2-0.4
			c25.5-10.9,43.5-67.8,50.1-92.1c6.3-2.7,11.6-10.2,14-20.6c3.4-14.6-1-26.8-10.3-29c-0.4-0.1-1.5-0.3-1.9-0.3l0,0
			c-8.9-0.6-16.9,8.1-20.1,21.7c-2.3,9.9-1,18.6,3,23.9c-7.6,28-21.6,65.3-35.8,78l0.6-58.9c5.5-3.9,8.8-12.4,8.4-22.9
			c-0.5-13.5-7-23.4-15.7-24c-0.3,0-1,0-1.3,0c-5.3,0.2-9.8,3.8-12.5,9.9c-1.9,4.3-2.8,9.7-2.5,15.4c0.4,8.8,3.4,15.7,7.7,19.9
			l-0.6,61.6c-22.4-16-32.7-56.5-36.3-74.7c4.6-5,6.8-13.8,5.4-24.2c-1.5-11.5-7.6-23.5-17.8-24.2c-0.8-0.1-1.7,0-2.5,0.1
			c-9.7,1.3-15.3,13.3-13.3,28.6c1.2,9.3,5.5,18.8,12.4,22.5c4.1,21.1,16.6,70,46.9,87.8c1.9,1.1,3.8,1.9,5.7,2.5
			c-4.9,57.6-21.3,142.9-63.2,248.5l-13.9-26.2c5-8.8,8-23.4,8.8-36.2c1.1-18.7-1-47.5-17.7-78c-1.4-2.6-4.3-4.2-7.2-4.1
			c-3,0.1-5.7,1.8-7,4.5l-2.5,5c-2.5-12.8-5.7-26-10-38.9c0,0-7.2-20.7-25.5-20c-8.4,0.3-14.6,3.5-19.2,7.4
			c-6.9,5.9-10.5,14.7-11.1,23.8c-0.3,5.2-2.7,12.7-8.4,21.2c-10,14.9-7.6,25.8-0.7,36.8c1,1.6,2.7,4,4.7,6.6l-3.1-0.4
			c-3.1-0.4-5.9,1-7.5,3.5c-1.7,2.5-1.8,5.7-0.4,8.3c16.7,30.5,39.8,47.8,56.2,56.9c11,6.1,24.7,11.4,34.7,12.1
			c0.8,0.1,1.5-0.1,2.3-0.1l19.6,37.1c-42,100.8-106.8,218.7-205.9,348.1l23.9,18.3c77.9-101.6,133.2-196.7,172.5-282.3l33.4-1.7
			c5.4,8.6,17.7,18.3,29.4,24.9c13.5,7.7,34.3,16.4,60.8,18.3c5.4,0.4,11.1,0.5,17,0.2c3-0.1,5.6-1.9,6.9-4.6c1.3-2.7,0.9-5.9-1-8.2
			l-1.9-2.5c3.3,0.4,6.2,0.6,8.1,0.6c13,0.2,23.6-3.3,31.1-19.7c4.3-9.3,9.4-15.2,13.7-18.2c7.5-5.2,13.1-12.9,14.6-21.9
			c1-6,0.4-13-3.7-20.3C824.8,475.2,803.3,479.8,803.3,479.8z"/>
		<path class="st64" d="M900.5,295.2c-2.9,3.9-5.1,8.3-6.3,12.9c-3.1,12.1-10.3,23-20.7,30.8c-51.4,38.3-103.9,39.2-124.1,37.8
			c-2.1-0.1-4.2-0.3-6.3-0.6c-6-0.2-7.5,5.7-7.5,5.7c-2.2,8.1-4.6,16.3-7,24.5c-3.4,11.3,5.9,22.5,17.6,21.2c4-0.4,8.1-0.7,12.3-0.9
			l0.1,0c8.1-0.3,16,1.1,23.3,4c4.9,2,10.1,3.2,15.4,3.2c18.3,0.1,61.4,3.7,78.1,34.1c8.8,16,12,33.7,9.1,51.5
			c-2.9,17.3-11.5,33.1-24.6,45.4c-4.2,3.9-7.4,8.6-9.3,14c-8.3,23.1-25.4,31.4-35.3,34.3c-4.9,1.4-9.4,3.9-13.3,7.3
			c-9.3,8-21.2,12.9-33.9,13.5c-7.5,0.3-15.1,0.2-22.5-0.3c-36-2.5-64-14.7-81.1-24.4c-3.6-2.1-8.2-4.8-13.1-8.2
			c-42.7,85.8-96.6,171.4-160.5,254.8l-29.1,38L361.8,817l29.1-38c72.9-95.2,132.4-191.3,177.1-286.4c6.9-14.6,1.3-32-12.9-39.8
			l-0.2-0.1c-21.9-12.2-52.8-35.2-75-75.7c-6.5-12-8.4-25.5-5.7-38.3c0.8-3.9,0.9-7.9,0.4-11.9c-1.3-10.3-1.9-31.6,10.5-49.5
			c2.9-4.2,4.8-9,5.8-14c3.6-17.9,12.6-33.7,26.1-45.3c13.6-11.7,30.5-18.3,48.7-19c37-1.4,63,25.1,72.4,52l0.2,0.7
			c0.4,1.2,0.8,2.4,1.2,3.6l0.1,0c3.9,2.2,8.8-0.2,9.6-4.6c1.3-7.1,2.5-13.9,3.5-20.4c1.4-8.9-1-18.1-6.8-25.1
			c-8.9-10.9-16.7-23.9-23.3-39.1c-5-11.6-8.8-23.2-11.7-33.5c-1.1-4.1-2.8-7.9-5.1-11.5c-6.6-10.2-11.1-22.3-12.8-35.5
			c-5.6-42.1,17.9-77.5,54.5-82.3c4-0.5,8.1-0.7,12.1-0.4c12,0.8,23,5.1,32.4,12c4.8,3.5,10.7,5,16.5,4.6c0.8-0.1,1.6-0.1,2.5-0.1
			c2.1-0.1,4.5,0,6.5,0.1c0.2,0,0.4,0,0.6,0c6.2,0.5,12.2-1.3,17.2-5.1c12.2-9.2,26.9-13.8,41.8-12.7c2.9,0.2,6.5,0.7,9.3,1.4
			c20.4,4.7,36.9,19.8,44.3,40.4c5,14,5.7,29.9,1.9,46c-3.4,14.6-9.9,27.3-18.7,37.1l0,0.1c-1.6,5.1,2.9,10.1,8.2,8.9
			c14.8-3.4,31.2-2.3,47.1,5.7c16.3,8.2,28.9,21.1,36.4,37.5c7.5,16.2,9.1,34.4,4.9,52.2c-1.2,5.2-1.3,10.7-0.3,16
			C915,271,906.4,287.3,900.5,295.2z M733.9,602.4C734,602.4,734,602.4,733.9,602.4L733.9,602.4z M850.3,572.5
			C850.3,572.5,850.3,572.5,850.3,572.5C850.3,572.5,850.3,572.5,850.3,572.5z M907.3,242.2C907.3,242.2,907.3,242.2,907.3,242.2
			C907.3,242.2,907.3,242.2,907.3,242.2z M908.4,238C908.4,238,908.4,238,908.4,238L908.4,238z"/>
		<path class="st57" d="M640.4,762.4c27.9-59.2,10.8-122.4-8.5-131.4c-2.3-1.1-4.8-1.7-7.6-1.9l0,0c-18.8-1.3-63,19.7-90.5,63.7
			c-19.4-49.6-59.6-77.8-78.5-79.1c-2.4-0.2-4.6,0-6.7,0.6c-17.4,4.6-28.4,37.1-30.4,43.5c-2.9,9.1-5.5,20.9-6.4,34.5
			c-16.7-31.3-31-61.4-43.5-90.5c23.5-16.3,53.5-57.5,71.1-117.2c9-30.5,5.3-56.7,0.6-73.2c-2.3-8.1-11-35-26.5-39.5l-1.7-0.5
			l-2.4-0.2l0,0c-16.6-1.2-52.5,21.6-71.7,62.6c-9.4-14.9-20.9-26.4-32.2-34.9c-6.9-37.4-10.6-71-12.1-99.9
			c18.5-4.6,46.5-18,76.6-49.1c16.2-16.7,22.7-34.9,25.2-47.2c1.7-8.1,4.6-28.1-5-37.4c-3.7-3.6-8.7-5.5-15.7-5.9l0,0
			c-10.7-0.7-30.9,2.1-50.6,14.7c-2.1-12.3-5.9-22.5-9.7-29.6c-3.9-7.3-14.5-24.5-27.8-25.4l0,0l0,0c-14.7-1-37.6,21.5-46.1,53.2
			c-17.1-14.9-36.6-21.6-50.1-22.6c-7.8-0.5-13.4,0.8-17.8,4.1c-10.5,8.2-9.8,28.3-9,36.6c1.2,12.5,5.7,31.3,20,49.7
			c30.5,39.2,61.4,55,78.7,59.4c1.1,24.3,3.7,51.7,8.4,81.7c-1.8-0.4-3.7-0.8-5.2-0.9c-3.9-0.3-7.3,0.2-10.3,1.6
			c-14.8,6.5-20.1,34.2-21.4,42.5c-2.2,14.5-2.8,35.8,4.9,59.8c-10.7-3.6-21.8-5.9-33.1-6.7l0,0c-27.7-1.9-62,5.7-69.2,21.5
			c-7.9,17.2,16.1,69.7,68.2,93.5c40.4,18.4,73.4,24,94,25.4c7.8,0.5,26.5,1.2,41.7-2.7c14.9,34.3,32.5,70.2,53.1,107.4
			c-16.6-6.3-31.8-9-43.2-9.8l0,0c-17.2-1.2-48.9,0.5-58.2,14.7c-9.9,15,3.6,46.5,6.4,52.7c8.2,18,24.4,43.7,55,63.8
			c60.9,40,109.5,48.8,133,50.4c7.7,0.5,13.9,0.4,19,0c12.6,16.8,25.5,33.7,39.4,50.8c2.7,3.4,6.7,5.3,10.7,5.6
			c3.7,0.3,7.4-0.8,10.5-3.3c6.5-5.2,7.5-14.7,2.3-21.2c-11.1-13.8-21.8-27.5-32.1-41C563.1,872.4,606.5,834.3,640.4,762.4z"/>
		<path class="st54" d="M555.4,950.5c-4-0.3-7.9-2.2-10.7-5.6C185.6,500.3,268.7,178.8,272.4,165.4c2.2-8,10.4-12.8,18.5-10.5
			c8,2.2,12.7,10.5,10.6,18.5c-0.9,3.2-81.8,321.1,266.7,752.6c5.2,6.5,4.2,16-2.3,21.2C562.8,949.7,559.1,950.7,555.4,950.5z"/>
		<g>
			<path class="st54" d="M270.3,292.7c-15.1-1.1-49-17.3-80.5-57.8c-13.1-16.9-17.2-34.1-18.3-45.6c-0.2-2.4-2-23.3,5.9-29.5
				c2.7-2.1,6.6-2.9,12.3-2.5c15.5,1.1,39.8,10.4,57.4,33.1c20.9,26.9,29.8,49.8,33.6,64.3c2,7.7,3.1,15.1,3.1,21.2
				c0,7.5-1.5,12.2-4.8,14.8C276.9,292.2,274,292.9,270.3,292.7z"/>
		</g>
		<path class="st58" d="M182.3,166.1c4-3.1,36.4,0.7,58.5,29.2c37.5,48.2,37.3,85.9,33.3,89"/>
		<g>
			<path class="st58" d="M277.7,292.8c-3.5-0.2-6.1-1.3-8-3.1c-3.1-3-4-7.7-3.1-15.4c0.8-6.1,2.7-13.3,5.6-20.8
				c5.4-14.1,16.8-35.9,40-59.9c22.1-22.8,49.3-27.5,61.9-26.6c5,0.4,8.4,1.5,10.7,3.7c7.3,7,3.2,27.7,2.7,30
				c-2.4,11.3-8.3,28-23.2,43.3C327.9,281.7,292.5,293.9,277.7,292.8z"/>
		</g>
		<path class="st54" d="M379.3,176.5c3.6,3.5,4.4,36.1-20.6,62c-42.4,43.9-79.8,49-83.4,45.5"/>
		<g>
			<path class="st58" d="M274.3,291.8c-4.3-0.3-8-3.3-12.2-9.8c-3.3-5.2-6.5-11.9-9.1-19.6c-4.9-14.3-10.2-38.3-7.9-71.6
				c1.5-21.3,10-36.9,16.8-46.2c1.4-1.9,14.1-18.7,24.1-18c10.1,0.7,20.2,19.1,21.4,21.2c5.4,10.2,11.6,26.8,10.1,48.1
				c-2.4,34-11.1,57-17.9,70.3C287.3,290.1,277.8,292.1,274.3,291.8L274.3,291.8z"/>
		</g>
		<path class="st54" d="M285.5,134.6c5,0.4,26.6,24.8,24.1,60.8c-4.3,60.9-29.6,88.8-34.7,88.5"/>
		<g>
			<path class="st58" d="M345.4,601.9c-16.5-1.2-62.8-35.1-94.7-108.4c-12-27.4-11.6-52.2-9.1-68.2c1.8-11.6,7.3-32.3,16.7-36.4
				c1.9-0.8,4-1.1,6.6-0.9c7,0.5,20.6,5.1,35.9,16.6c11.9,8.9,28.4,24.8,39.3,50c19.4,44.5,23.6,79.1,23.8,100.3
				c0.1,18.7-3.2,42-13,46.3C349.2,601.8,347.4,602.1,345.4,601.9z"/>
		</g>
		<path class="st54" d="M261.4,396.2c6.7-2.9,50.6,13.9,71.3,61.5c35.1,80.6,21.5,133.1,14.8,136.1"/>
		<g>
			<path class="st54" d="M299.1,609.6c-19.9-1.4-52-6.8-91.3-24.7c-27.2-12.4-43.5-31.1-52.4-44.7c-6.4-9.8-16.2-28.9-11.9-38.2
				c4.9-10.7,34.2-18.8,61.4-16.9c15,1,29.6,4.8,43.4,11.1c44.1,20.1,70.4,43.1,84.7,58.7c12.6,13.8,25.6,33.4,21.2,43.1
				C348.8,609.9,317,610.9,299.1,609.6z"/>
		</g>
		<path class="st58" d="M150.8,505.3c3-6.6,46.9-23.4,94.2-1.9c80,36.5,105,84.7,101.9,91.3"/>
		<g>
			<path class="st58" d="M348.1,601.8c-0.8-0.1-1.5-0.2-2.2-0.4c-13.1-3.9-17.7-38.2-18.5-45c-2.4-21.3-2.5-56.2,10.9-101.8
				c8.2-27.9,23.9-46.4,35.6-57c12.8-11.6,27.2-19.2,35-18.7c0.8,0.1,1.6,0.2,2.4,0.4c8.6,2.5,16.8,18.9,21.1,34.1
				c4.4,15.6,7.9,40.1-0.6,68.8c-13.5,45.7-32,74.6-45.2,90.9C375.5,586.8,358.7,602.5,348.1,601.8z"/>
		</g>
		<path class="st54" d="M409.1,387c7,2.1,29.8,43.2,15.1,93c-24.9,84.3-69.1,115.8-76.1,113.8"/>
		<g>
			<path class="st54" d="M486.9,886.2c-22.8-1.6-69.8-10.1-129.2-49.1c-29-19.1-44.3-43.4-52.1-60.5c-7.2-15.9-12.5-36.7-7-45
				c6-9.1,30.8-12.5,51-11.1c17.1,1.2,42.9,6.2,69.3,23.5c47.3,31.1,73.4,62.1,87,82.7c9.1,13.7,13.7,24.3,15.9,30.8
				c5.1,15,2,19.8,0.9,21.4C517.6,886.7,500.4,887.2,486.9,886.2z"/>
		</g>
		<path class="st57" d="M513.7,824.1c-0.4-0.6-0.8-1.2-1.1-1.8c-3.1-4.7-6.9-10-11.4-15.7c-3.8,3.8-8.5,6.8-13.6,8.6
			c5.2,6.4,9.6,12.6,13.2,18.3C504.3,829.5,508.8,826.2,513.7,824.1z"/>
		<path class="st58" d="M305.2,736c4.7-7.1,58.4-18.7,109.2,14.7c86,56.5,106.2,116.7,101.5,123.8"/>
		<g>
			<path class="st58" d="M518.3,881.8c-1.5-0.1-2.9-0.5-4.1-1c-3-1.4-7.3-4.9-10.2-19.1c-1.4-6.8-3-18.3-2.3-35
				c1-24.9,7.1-65.1,30.7-115.2c14-29.7,34.4-47.8,49.2-57.8c18.1-12.3,34.2-17.2,42.2-16.7c1.8,0.1,3.3,0.5,4.7,1.2
				c9,4.3,15.4,24.8,17.5,42.1c2.3,18.6,1.9,47.3-12.9,78.7C590.7,849.2,534.6,882.9,518.3,881.8z"/>
		</g>
		<path class="st54" d="M625.1,645.4c7.7,3.6,26.7,55.2,0.8,110.2c-43.8,93.1-100.6,121.6-108.3,118"/>
		<g>
			<path class="st58" d="M515.5,881.5c-9.8-0.7-26.9-15.2-42.6-36c-14.7-19.5-35-53.7-48.7-105.6c-8.8-33.5-4-61.9,1.6-79.8
				c5.2-16.6,15.2-35.7,24.9-38.2c1.3-0.3,2.7-0.5,4.2-0.3c9.3,0.6,25.2,10.4,38.8,23.7c12.8,12.6,29.8,34.3,38.3,66.3
				c14.4,54.7,13.1,95.3,9.5,119.7c-2.4,16.3-6.1,27.2-8.8,33.5c-6.2,14.6-11.8,16-13.6,16.5C517.9,881.5,516.7,881.6,515.5,881.5z"
				/>
		</g>
		<path class="st54" d="M452.7,629.6c8.2-2.2,56,25.1,71.5,83.9c26.2,99.5,1.1,157.8-7.2,160"/>
		<path class="st65" d="M744.4,307.3c0,0,26-66.1,72-115.5c0,0,15.2-15.8,31.5-7.6c7.5,3.8,11.9,9.2,14.4,14.7
			c3.8,8.3,3.4,17.8,0.2,26.3c-1.9,4.9-2.8,12.7-1.2,22.8c2.9,17.7-3.8,26.6-14.7,33.7C836.2,288.6,797.4,308.3,744.4,307.3z"/>
		<path class="st58" d="M840.2,294.3c-48.8,36.4-103.4,28-108.4,21.2c-5.1-6.9,2.4-61.5,51.2-97.9l1.5,58.6L840.2,294.3z"/>
		<path class="st65" d="M610.7,401.8c0,0,3.8-70.9-17.5-135c0,0-7.2-20.7-25.5-20c-8.4,0.3-14.6,3.5-19.2,7.4
			c-6.9,5.9-10.5,14.7-11.1,23.8c-0.3,5.2-2.7,12.7-8.4,21.2c-10,14.9-7.6,25.8-0.7,36.8C534.9,346.7,562,380.7,610.7,401.8z"/>
		<path class="st58" d="M528.9,350.2c29.3,53.4,82.4,68.4,89.8,64.4c7.5-4.1,23.4-56.9-5.9-110.3l-25.7,52.6L528.9,350.2z"/>
		<path class="st65" d="M678.9,534.9c0,0,58.6-40.1,124.5-55.1c0,0,21.4-4.6,30.4,11.4c4.1,7.3,4.7,14.3,3.7,20.3
			c-1.5,9-7.1,16.6-14.6,21.9c-4.3,3-9.5,8.9-13.7,18.2c-7.5,16.3-18.1,19.9-31.1,19.7C765.4,571,722.3,565.5,678.9,534.9z"/>
		<path class="st58" d="M765.5,578c-60.9,2.7-101.3-34.8-101.6-43.3c-0.4-8.5,36.5-49.5,97.3-52.3l-31.6,49.3L765.5,578z"/>
		<path class="st54" d="M710,95.3l-4.7,64.3c0,0-0.6,5.2-3.5,6.4c-3.1,1.2-7.6-2.6-7.6-2.6c-7.9-7.5-14.6-16.9-19.7-32.1
			c-6.5-19.5-11.7-40-11.7-40.2l-7.4,1.1c0,0,6.6,63.6,36.3,91c8.6,7.9,13.1,19.4,11.7,31c-6.6,54.2-22.6,127.5-56.5,215.6
			c-1.9,4.8-8.6,5.3-11,0.7l-4-7.6c-2.2-4.2-2.4-9.1-0.7-13.4c0.4-1.1,0.9-2.4,1.3-3.7c1.8-5.5,4.1-14.6,4.9-27.2
			c1.1-18.7-1-47.5-17.7-78c-3.1-5.7-11.3-5.5-14.2,0.3l-19.5,39.9c-2.3,4.6-7.2,7.3-12.3,6.7l-43.9-5c-6.4-0.7-11.1,6-8.1,11.7l0,0
			c16.7,30.5,39.8,47.8,56.2,56.9c11,6.1,20,9.1,25.5,10.5c0,0,1.4,0.4,3.4,0.8c4.7,1,8.7,3.9,10.9,8.1l9.1,16.8
			c4.7,8.7,5.2,19,1.2,28.1c-20.4,47.2-45.8,98-77.2,151.8c4-1.3,8.2-1.9,12.4-1.6c6.7,0.5,12.6,2.8,17.4,6.5
			c14.4-26,27.3-51.4,39-76c3.4-7.3,10.6-12.1,18.6-12.5l9.2-0.5c6.3-0.3,12.3,2.1,16.7,6.5c0.5,0.5,0.9,1,1.5,1.5
			c4.1,4,11.3,10.1,22.3,16.3c13.6,7.7,34.3,16.4,60.8,18.3c5.4,0.4,11.1,0.5,17,0.2l0,0c6.5-0.4,9.9-7.8,5.9-12.9l-28.1-36.2
			c-2.6-3.3-2.8-7.9-0.5-11.5l24.8-38.7c3.5-5.4-0.7-12.6-7.1-12.2c-34.7,1.6-60.4,14.7-75.8,25.4c-10.3,7.2-17,13.9-20.7,18.3
			c-0.3,0.3-0.6,0.7-0.9,1c-3.9,4.8-9.6,7.7-15.8,8l-5.1,0.3c-4.5,0.2-7.6-4.3-5.8-8.5c24.1-55.7,41.5-107,54-153.2
			c2.2-7.9,6.9-14.9,13.5-19.9l17.7-13.3c5.7-4.3,12.8-6,19.8-4.6c0.3,0.1,0.6,0.1,1,0.2c2.5,0.4,5.7,0.9,9.6,1.2
			c4.9,0.3,11,0.4,18-0.1c18.7-1.5,46.9-7.6,74.8-28.4l0.2-0.2c5.1-3.8,3.8-11.8-2.3-13.7l-43-14c-4.5-1.5-7.7-5.7-7.8-10.4
			l-1.2-45.2c-0.2-6.4-7.4-9.9-12.5-6.1l-0.2,0.2c-27.9,20.8-41.8,46.1-48.5,63.6c-4.5,11.8-6.2,21-6.9,26.8c0,0,0,0.1,0,0.1
			c-0.8,7-4.3,13.3-9.9,17.5c-4.5,3.4-10.7-0.6-9.6-6.1c8.5-40,13.4-75,16.1-104.1c0.9-9.3,5.4-17.7,12.3-24
			C749.4,169,761,134,761,134c8.6-22.9,13.7-44,13.9-44.9l-7.4-3.1c-16.2,51.9-25.7,67.6-40,80c-2.6,2.2-6.3,1.3-6.3-2.1l-3.4-69.2
			L710,95.3z M617,402.1c-1.1,3.2-4.5,5.1-7.8,4.3c-12.4-2.9-38.1-13.7-59.4-39.5c-2.1-2.5-0.1-6.3,3.2-5.9l30.3,3.5
			c5.1,0.6,10-2.1,12.3-6.7l13.4-27.4c1.4-2.9,5.7-2.6,6.7,0.5C626,362.6,621.2,390.1,617,402.1z M738.4,493.4
			c2.6-0.6,4.7,2.3,3.2,4.6l-18.1,28.2c-2.3,3.5-2.1,8.1,0.5,11.5l20.5,26.4c1.7,2.1-0.1,5.2-2.8,4.9c-40.3-5.3-65.4-28-69.7-34.7
			C675.8,527.1,698.7,502.3,738.4,493.4z M811.3,302.2c-28,12.7-53.7,12.3-66.3,10.1c-4.1-0.7-6.8-4.5-6.4-8.6
			c1.4-12.7,8.3-37.4,28.5-60.7c2.9-3.4,8.5-1.4,8.6,3.1l0.7,27.9c0.1,4.8,3.2,9,7.8,10.4l26.5,8.6
			C815,294.5,815.3,300.4,811.3,302.2z"/>
		<path class="st65" d="M730.1,91.3c-0.5-13.5-7-23.4-15.7-24l0,0l0,0c-0.4,0-0.9,0-1.3,0c-9.3,0.4-15.6,11-15,25.3
			c0.5,13.5,7,23.4,15.7,24c0.4,0,0.9,0,1.3,0C724.3,116.2,730.7,105.5,730.1,91.3z"/>
		<path class="st65" d="M788.8,66.9c-1.5-6.7-5.4-11.3-10.7-12.5c-0.6-0.1-1.3-0.2-1.9-0.3l0,0l0,0c-8.9-0.6-16.9,8.1-20.1,21.7
			c-3.4,14.6,1,26.8,10.3,29c0.6,0.1,1.3,0.2,1.9,0.3c8.9,0.6,16.9-8.1,20.1-21.7C789.7,77.6,789.8,71.7,788.8,66.9z"/>
		<path class="st65" d="M674.3,75.1c-2.1-16-10.5-23.7-17.8-24.2l0,0c-0.8-0.1-1.7,0-2.5,0.1c-5.5,0.7-9.9,5-12.1,11.7
			c-1.6,4.8-2,10.8-1.2,16.9c2.1,16,10.5,23.7,17.8,24.2c0.8,0.1,1.7,0,2.5-0.1C670.7,102.4,676.3,90.3,674.3,75.1z"/>
		<path class="st57" d="M234.9,91.6c-9.8,8.5-22.9,12.1-35.9,10.6c-1.8-0.2-3.6-0.4-5.4-0.5c-19.7-1.4-36.7,3.4-50.5,14.1
			c-21,16.3-30.6,44.4-27.2,79.1c1.9,18.8,8.5,47,29.8,74.4c18.9,24.4,40.7,44.3,63.1,58.2c4.7,2.9,7.8,7.8,8.4,13.3l0,0.2
			c0.5,5-1.1,9.9-4.5,13.6c-7.4,8.1-13.5,18.4-18.2,30.7c-4.9,12.8-7.2,25.4-8.2,31.7c-0.1,0.6-0.2,1.3-0.3,1.9
			c-0.9,6.1-5.7,10.9-11.9,11.6c-8.3,1-16.4,2.7-24,4.8c-35.6,10.1-50.9,29.3-57.5,43.6c-11.2,24.5-5.8,57.2,14.7,89.7
			c18.3,29,45.7,52.8,77.2,67.2c46.9,21.4,86,27.9,110.6,29.6l0.1,0c2.6,0.2,3.1,3.8,0.6,4.7c-29.1,10.6-44,30.9-44,30.9
			c-21.6,32.9-7.5,76,2.9,98.8c10.8,23.8,32.1,57.6,72.2,84c59.8,39.3,110.6,52.4,141.7,56.7c8.3,1.1,15.8,5.5,20.9,12.1
			c6.1,7.8,12,15.3,17.9,22.5c11,13.5,27.2,22,44.5,23.2c15.9,1.1,31.5-3.8,43.9-13.8c22-17.8,28.9-47.4,18.8-72.4
			c-4.5-11.3-2.5-24.2,5.7-33.2l0.4-0.4c24.2-26.3,45.3-58.5,62.8-95.6l0,0c16.2-34.5,22.5-73.9,17.6-111.2
			c-5.4-41.3-23.3-71.9-49-84c-7.6-3.6-15.9-5.7-24.6-6.3c-28-1.9-56.4,13-70.8,22.1c-1.3,0.8-2.6,1.7-4,2.6
			c-6.8,4.5-15.9,3.7-21.7-2c-1.6-1.5-3.2-3-4.7-4.4c-10-9-27.7-22.9-48.5-29.8c-9.9-3.3-14.7-14.4-10.4-23.8
			c6.8-15.1,12.8-31.1,17.8-47.9c12.2-41.5,7.2-77.2,0.8-99.8c-1.8-6.2-5.6-18.4-12.1-30.5c-11.7-22.1-27.5-36.2-47-41.9l-6-1.8
			l-7-0.7l-1.3-0.1c-21.6-1.5-42.1,8.2-56.4,17.5c-4.9,3.1-11.3,0-12-5.7l0-0.1c-0.3-3.1,1.2-6,3.9-7.6
			c16.8-9.6,36.1-23.7,56.2-44.3c24.1-24.9,33.8-52.2,37.7-70.7c7.2-34.1,0.6-63.1-18.5-81.6c-11.9-11.5-27.3-18-45.6-19.3
			c-1.9-0.1-3.8-0.2-5.8-0.2c-12.7-0.1-24.7-5.5-33.3-14.9c-14.1-15.4-30.9-24.4-49.1-25.3C265.7,69.7,246.8,81.2,234.9,91.6z
			 M459,684.9l45.3,171.8c1.1,4.3-4.1,7.3-7.3,4.3c-19.5-18.5-48-58.2-65.2-123.1c-15.5-58.8,12.6-106.1,20.8-108.2
			c0.4-0.1,0.9-0.1,1.6-0.1c11.5,0.8,55.2,28.2,69.9,84c17.5,66.5,12.1,114.6,4.1,139.8c-1.3,4.2-7.3,4-8.4-0.2l-45.4-172.3
			c-1.1-4.3-5.5-6.8-9.7-5.7C460.4,676.2,457.9,680.6,459,684.9z M346.8,772.9l121.5,79.9l11.4,12.1c4.2,4.4,0.2,11.6-5.8,10.4
			c-66.4-13.8-112-44.7-112-44.7c-50.8-33.4-61.5-87.4-56.8-94.4c2.6-3.9,20.1-9.2,43.8-7.6c19.3,1.3,42.7,7.3,65.4,22.3l0.1,0
			c3.5,2.3,6,5.7,7.3,9.6c5,15.8,10.6,29.7,16.3,41.9c2.2,4.7-3.2,9.4-7.6,6.5l-74.9-49.2c-3.7-2.4-8.6-1.4-11,2.3
			C342.1,765.5,343.2,770.5,346.8,772.9z M328.2,448.4c1.5,2.8,1.9,6.1,1,9.2c-3.6,12.9-6.1,25-7.8,36.1c-0.7,4.3-6.5,5.1-8.2,1.1
			l-25.6-58.7c-1.8-4.1-6.6-6-10.7-4c-4,1.9-5.5,6.7-3.8,10.7l28.1,64.6c1.7,3.9-2.7,7.7-6.3,5.3c-9.2-6.1-19.7-12.2-31.6-18.1
			c-2.9-1.4-5.1-3.9-6.2-7c-19.2-54.7,4.3-91.4,4.3-91.4c0.6-0.3,1.6-0.4,2.8-0.3C275.3,396.7,308.4,412,328.2,448.4z M314.7,548
			c2.6,2.4,4.3,5.7,4.7,9.2l0,0.1c0.3,2.2,0.5,4.4,0.9,6.5c0.7,4.7-4,8.3-8.3,6.3l-115.1-52.5c-4-1.8-8.7-0.1-10.6,3.9
			c-1.8,4-0.1,8.7,3.9,10.6l128.3,58.5c4.6,2.1,3.9,8.9-1,9.9c-8.9,1.8-17.9,1.2-17.9,1.2c-23-1.6-53.4-8-88.5-24
			c-47.3-21.6-63.3-65.8-60.3-72.3c2.1-4.6,24.3-14.3,53.6-12.2c12.6,0.9,26.4,3.9,40.6,10.4C276,517.6,298.7,533.5,314.7,548z
			 M424.2,480c-14.8,50-36.3,81.5-52.9,98.3c-3.8,3.9-10.3,0.1-8.8-5.2l40.9-138.8c1.2-4.2-1.2-8.7-5.4-9.9
			c-4.2-1.2-8.7,1.2-9.9,5.4L347.4,568c-1.6,5.3-9.1,4.9-10.2-0.5c-4.6-23.5-5.6-61.8,8.8-110.7c14.3-48.4,53.8-70.6,62.4-70
			c0.3,0,0.5,0.1,0.7,0.1C416.1,389,438.9,430.1,424.2,480z M372.1,610.6c10.4,23.6,22,48,35.1,73.1c2.8,5.3,4.2,11.2,4.1,17.2
			c-0.1,3.9,0,7.8,0.3,11.9c0.5,8-7.5,13.7-14.9,10.7c-1.3-0.5-2.5-1-3.7-1.5c-18.9-34.1-35.2-67-49.3-98.7
			c-1.9-4.3,0.1-9.4,4.6-11.2c3.6-1.4,7.8-3.2,12.2-5.6C364.8,604.3,370.1,606.1,372.1,610.6z M282,183.7L282,183.7
			c-4.4-0.3-8.2,3-8.5,7.4l-5.2,73c-0.2,3.2-4.6,3.9-5.8,0.9c-6.2-15.5-11.7-40.3-9.4-73.7c2.6-36,27.4-57.1,32.4-56.8l0,0
			c5,0.4,26.6,24.8,24.1,60.8c-2.4,34.1-11.4,57.8-19.7,72.1c-1.6,2.8-5.9,1.4-5.6-1.8l5.2-73.4C289.7,187.9,286.4,184.1,282,183.7z
			 M218.4,225.5l21.8,28.1c1.8,2.3,3.2,4.9,4,7.7c0.4,1.3,0.8,2.6,1.2,3.8c0.4,1,0.7,2.1,1.1,3.1c1.2,3.2-2.3,6.1-5.2,4.2
			c-13.4-8.5-29.3-21.9-45.2-42.3c-22.1-28.5-17.8-60.8-13.8-63.9c0.9-0.7,3.4-1.1,6.9-0.8c10.1,0.7,29,6.4,45,22.4
			c1.9,1.9,2.8,4.5,2.7,7.2c-0.4,8.5-0.4,16.4,0,23.7c0.1,1.6-1.9,2.3-2.9,1.1l-2.8-3.6c-2.7-3.4-7.7-4.4-11.2-1.8
			C216.3,216.8,215.6,222,218.4,225.5z M337,220.6c-3.2-3.2-8.3-3.2-11.5,0c-1.1,1.1-3,0.2-2.7-1.4c1.2-7,2.1-14.5,2.7-22.7l0,0
			c0.2-2.9,1.7-5.6,4.2-7.3c17-12,34.9-14.8,44-14.2c2.9,0.2,4.9,0.8,5.7,1.5c3.6,3.5,4.4,36.1-20.6,62
			c-17.2,17.8-33.6,29.2-47.2,36.3c-3.1,1.6-6.4-1.7-4.8-4.8l0.1-0.1c1.4-2.6,2.8-5.6,4.2-9c1.2-2.7,2.8-5.2,4.8-7.3l21-21.7
			C339.8,228.8,340,223.7,337,220.6z M286.3,306.4c3.1,23.6,8.9,50.6,15.6,79.3c1,4.2-3.5,7.5-7.2,5.3c-6.4-3.8-12.8-6.8-18.6-8.7
			c-3.7-1.2-6.3-4.6-6.5-8.5c-1-22.6-1.5-46.4-0.4-66.9c0.2-4.1,3.5-7.2,7.6-7.3l1.7,0C282.5,299.5,285.8,302.5,286.3,306.4z
			 M545.9,703.2c25.4-42.8,66.3-59,77.4-58.2c0.8,0.1,1.4,0.2,1.9,0.4c7.7,3.6,26.7,55.2,0.8,110.2c-22.4,47.5-48.2,78.2-69,96.4
			c-4.5,3.9-11.5-0.1-10.2-6c1-4.4,1.8-8.9,2.5-13.7c0.5-3,0.9-6.3,1.2-9.8l58.4-124c1.9-4,0.2-8.7-3.8-10.6
			c-4-1.9-8.7-0.2-10.6,3.8l-36.1,76.6c-1.9,3.9-7.7,3-8.2-1.4c-1.3-13.4-3.7-28.1-7.3-44.1C541.3,716.2,542.4,709.1,545.9,703.2z
			 M565.9,947.2c-3.1,2.5-6.8,3.6-10.5,3.3c-4-0.3-7.9-2.2-10.7-5.6c-11-13.6-21.6-27.2-31.8-40.6c-3.6-4.7-1.2-11.5,4.5-13
			c4.1-1,8.4-2.4,12.9-4.1c3.4-1.3,7.3-0.3,9.6,2.7c9.1,11.9,18.5,24,28.3,36.1C573.4,932.5,572.4,941.9,565.9,947.2z"/>
		<g>
			<path class="st21" d="M272.2,210.7c-0.1,0-0.1,0-0.2,0c-4.2-0.4-7.3-4.1-6.9-8.2l0.9-10.3c0.4-4.2,4-7.3,8.2-6.9
				c4.2,0.4,7.3,4.1,6.9,8.2l-0.9,10.3C279.9,208,276.3,211,272.2,210.7z"/>
		</g>
		<g>
			<path class="st21" d="M280,467.5c-2.7-0.2-5.2-1.8-6.4-4.5l-6.8-15.1c-1.7-3.8,0-8.3,3.8-10.1c3.8-1.7,8.3,0,10.1,3.8l6.8,15.1
				c1.7,3.8,0,8.3-3.8,10.1C282.4,467.4,281.2,467.6,280,467.5z"/>
		</g>
		<g>
			<path class="st21" d="M383.7,450.5c-0.5,0-1-0.1-1.6-0.3c-4-1.1-6.4-5.4-5.2-9.4l3-10.5c1.1-4,5.4-6.4,9.4-5.2
				c4,1.1,6.4,5.4,5.2,9.4l-3,10.5C390.5,448.5,387.2,450.8,383.7,450.5z"/>
		</g>
		<g>
			<path class="st21" d="M579.7,729.3c-0.9-0.1-1.8-0.3-2.7-0.7c-3.8-1.8-5.4-6.3-3.6-10.1l11.8-25c1.8-3.8,6.3-5.4,10.1-3.6
				c3.8,1.8,5.4,6.3,3.6,10.1l-11.8,25C585.7,727.9,582.7,729.5,579.7,729.3z"/>
		</g>
		<g>
			<path class="st21" d="M461.1,702c-3.1-0.2-5.9-2.3-6.8-5.5l-2.2-7.6c-1.1-4,1.2-8.2,5.2-9.4c4-1.1,8.2,1.2,9.4,5.2l2.2,7.6
				c1.1,4-1.2,8.2-5.2,9.4C462.8,702,461.9,702,461.1,702z"/>
		</g>
		<g>
			<path class="st21" d="M364,773c-1.3-0.1-2.5-0.5-3.6-1.2l-6.6-4.4c-3.5-2.3-4.5-7-2.2-10.5c2.3-3.5,7-4.5,10.5-2.2l6.6,4.4
				c3.5,2.3,4.5,7,2.2,10.5C369.3,772,366.6,773.2,364,773z"/>
		</g>
		<g>
			<path class="st21" d="M600.7,353.8c-0.9-0.1-1.8-0.3-2.6-0.7c-3.8-1.8-5.5-6.3-3.7-10.1l5.9-12.9c1.8-3.8,6.3-5.5,10.1-3.7
				c3.8,1.8,5.5,6.3,3.7,10.1l-5.9,12.9C606.8,352.4,603.8,354,600.7,353.8z"/>
		</g>
		<g>
			<path class="st21" d="M745.1,285.2c-0.8-0.1-1.6-0.2-2.3-0.5c-3.9-1.6-5.8-6-4.2-9.9c4.8-11.9,14.3-26.1,14.7-26.7
				c2.3-3.5,7-4.4,10.5-2.1c3.5,2.3,4.5,7,2.1,10.5c-0.1,0.1-9,13.6-13.2,24.1C751.4,283.6,748.3,285.4,745.1,285.2z"/>
		</g>
		
			<ellipse transform="matrix(6.954185e-02 -0.9976 0.9976 6.954185e-02 95.2712 1169.6248)" class="st21" cx="674.6" cy="533.7" rx="7.6" ry="7.6"/>
		
			<ellipse transform="matrix(6.954185e-02 -0.9976 0.9976 6.954185e-02 536.0804 706.7344)" class="st21" cx="646.9" cy="66" rx="7.6" ry="7.6"/>
		
			<ellipse transform="matrix(6.954185e-02 -0.9976 0.9976 6.954185e-02 215.0803 807.0064)" class="st21" cx="540.2" cy="288.2" rx="7.6" ry="7.6"/>
		
			<ellipse transform="matrix(6.954185e-02 -0.9976 0.9976 6.954185e-02 584.0028 1004.4277)" class="st21" cx="830.4" cy="189.1" rx="7.6" ry="7.6"/>
		
			<ellipse transform="matrix(6.954185e-02 -0.9976 0.9976 6.954185e-02 264.5547 1254.9027)" class="st21" cx="805" cy="485.6" rx="7.6" ry="7.6"/>
		
			<ellipse transform="matrix(6.954185e-02 -0.9976 0.9976 6.954185e-02 587.9676 777.5876)" class="st21" cx="710.8" cy="73.6" rx="7.6" ry="7.6"/>
		
			<ellipse transform="matrix(6.954185e-02 -0.9976 0.9976 6.954185e-02 649.2879 825.007)" class="st21" cx="766.9" cy="64.4" rx="7.6" ry="7.6"/>
	</g>
</g>
<g id="Layer_2">
</g>
<g id="Layer_3">
</g>
</svg>
