<svg xmlns="http://www.w3.org/2000/svg" viewBox="0 0 48 48" width="48" height="48"><path fill="#37474f" d="M29 19c-.4 0-.7-.2-.9-.6-.2-.5 0-1.1.4-1.3l5.4-2.7V8.5l4.4-3.3c.4-.3 1.1-.2 1.4.2.3.4.2 1.1-.2 1.4L36 9.5v6.1l-6.6 3.3C29.3 19 29.2 19 29 19zM19 19c-.1 0-.3 0-.4-.1L12 15.6V9.5L8.4 6.8C8 6.5 7.9 5.8 8.2 5.4c.3-.4 1-.5 1.4-.2L14 8.5v5.9l5.4 2.7c.5.2.7.8.4 1.3C19.7 18.8 19.4 19 19 19zM38 42c-.2 0-.3 0-.4-.1l-6.5-3.2-1-7.9-2.4-.8c-.5-.2-.8-.7-.6-1.3.2-.5.7-.8 1.3-.6l3.6 1.2 1 8.1 5.5 2.8c.5.2.7.8.4 1.3C38.7 41.8 38.4 42 38 42zM41 35c-.2 0-.3 0-.4-.1l-4.5-2.2-1-8.9-5.4-1.8c-.5-.2-.8-.7-.6-1.3.2-.5.7-.8 1.3-.6l6.6 2.2 1 9.1 3.5 1.8c.5.2.7.8.4 1.3C41.7 34.8 41.4 35 41 35zM10 42c-.4 0-.7-.2-.9-.6-.2-.5 0-1.1.4-1.3l5.5-2.8 1-8.1 3.6-1.2c.5-.2 1.1.1 1.3.6.2.5-.1 1.1-.6 1.3l-2.4.8-1 7.9-6.5 3.2C10.3 42 10.2 42 10 42zM7 35c-.4 0-.7-.2-.9-.6-.2-.5 0-1.1.4-1.3l3.5-1.8 1-9.1 6.6-2.2c.5-.2 1.1.1 1.3.6.2.5-.1 1.1-.6 1.3l-5.4 1.8-1 8.9-4.5 2.2C7.3 35 7.2 35 7 35zM28 16c0 1.1-.9 2-2 2h-4c-1.1 0-2-.9-2-2v-3c0-1.1.9-2 2-2h4c1.1 0 2 .9 2 2V16z"/><path fill="#37474f" d="M25,12h-2V8.3l0.7-0.2C23.8,8,26,7.2,26,5h2c0,2.7-1.9,4.1-3,4.6V12z"/><path fill="#37474f" d="M23.7,9.9C23.5,9.9,20,8.7,20,5h2c0,2.2,2.2,3,2.3,3.1L23.7,9.9z"/><path fill="#8bc34a" d="M15.9,34c0,0,1,8,8.1,8c7.1,0,8.1-8,8.1-8l0.8-8c0,0,0.2-2-1.9-2c-2,0-12.2,0-14.3,0 c-2,0-1.9,2-1.9,2L15.9,34z"/><path fill="#2e7d32" d="M25,24c-0.7,0-1.3,0-2,0v17.9c0.3,0,0.6,0.1,1,0.1s0.7,0,1-0.1V24z"/><path fill="#43a047" d="M29 40.1V24c-.6 0-1.3 0-2 0v17.4C27.8 41.1 28.5 40.6 29 40.1zM32.2 34l.8-8c0 0 .3-2-2-2v13.6C31.9 35.9 32.2 34 32.2 34zM21 41.4V24c-.7 0-1.4 0-2 0v16.1C19.6 40.6 20.2 41.1 21 41.4zM15 26l.8 8c0 0 .3 1.9 1.1 3.5V24C14.8 24 15 26 15 26z"/><path fill="#2e7d32" d="M25,14H23c-5.9,0-8,3.8-8,8c0,1.9,2.2,2,2.2,2h13.6c0,0,2.2,0,2.2-1.9C33,17.8,30.9,14,25,14z"/><path fill="#09350b" d="M21,24c0,0,1-2,3-2s3,2,3,2c-2,0-3,6-3,6S23,24,21,24z"/></svg>