<?xml version="1.0" encoding="utf-8"?>
<!-- Generator: Adobe Illustrator 20.1.0, SVG Export Plug-In . SVG Version: 6.00 Build 0)  -->
<svg version="1.1" id="Layer_1" xmlns="http://www.w3.org/2000/svg" xmlns:xlink="http://www.w3.org/1999/xlink" x="0px" y="0px"
	 viewBox="0 0 500 500" style="enable-background:new 0 0 500 500;" xml:space="preserve">
<style type="text/css">
	.st0{fill:#164E16;stroke:#071907;stroke-width:3;stroke-miterlimit:10;}
	.st1{fill:#7C9800;stroke:#164E16;stroke-width:5;stroke-linejoin:round;stroke-miterlimit:10;}
	.st2{fill:#FFD003;stroke:#D17D01;stroke-width:3;stroke-miterlimit:10;}
	.st3{fill:#00FFFF;}
	.st4{fill:#7C9800;}
	.st5{fill:#164E16;}
	.st6{fill:#F22F2E;}
	.st7{fill:#F22F2E;stroke:#7B000E;stroke-width:3;stroke-miterlimit:10;}
	.st8{fill:none;stroke:#FFFFFF;stroke-linecap:round;stroke-linejoin:round;stroke-miterlimit:10;}
	.st9{fill:none;stroke:#FFFFFF;stroke-linecap:round;stroke-miterlimit:10;}
	.st10{fill:#FFFFFF;}
	.st11{fill:none;stroke:#7B000E;stroke-linecap:round;stroke-linejoin:round;stroke-miterlimit:10;}
	.st12{fill:none;stroke:#7B000E;stroke-linecap:round;stroke-miterlimit:10;}
	.st13{fill:#7B000E;}
	.st14{fill:#4D831C;}
	.st15{fill:#2A481D;}
	.st16{fill:#FF7A00;}
	.st17{fill:#FF7A00;stroke:#F44500;stroke-width:3;stroke-miterlimit:10;}
	.st18{fill:none;stroke:#F44500;stroke-linecap:round;stroke-linejoin:round;stroke-miterlimit:10;}
	.st19{fill:#FF7A00;stroke:#F44500;stroke-linecap:round;stroke-linejoin:round;stroke-miterlimit:10;}
	.st20{fill:#F44500;}
	.st21{fill:#8BA00D;stroke:#164E16;stroke-width:3;stroke-linejoin:round;stroke-miterlimit:10;}
	.st22{clip-path:url(#SVGID_2_);}
	.st23{fill:#F40000;stroke:#7B000E;stroke-width:3;stroke-miterlimit:10;}
	.st24{fill:#7DB34C;stroke:#164E16;stroke-width:3;stroke-miterlimit:10;}
	.st25{fill:none;stroke:#164E16;stroke-miterlimit:10;}
	.st26{fill:none;stroke:#7B000E;stroke-width:3;stroke-miterlimit:10;}
	.st27{fill:#A7C92B;stroke:#164E16;stroke-width:3;stroke-miterlimit:10;}
	.st28{fill:none;stroke:#164E16;stroke-linecap:round;stroke-miterlimit:10;}
	.st29{fill:#8BA00D;}
	.st30{fill:#999999;}
	.st31{fill:#A7C92B;}
	.st32{fill:none;stroke:#FEA502;stroke-linecap:round;stroke-linejoin:round;stroke-miterlimit:10;}
	.st33{fill:#FFD003;}
	.st34{fill:#D17D01;}
	.st35{fill:#FEA502;}
	.st36{fill:#4D831C;stroke:#2A481D;stroke-width:3;stroke-linecap:round;stroke-linejoin:round;stroke-miterlimit:10;}
	.st37{fill:#FA6200;stroke:#D54300;stroke-width:3;stroke-miterlimit:10;}
	.st38{fill:#FA6200;stroke:#D54300;stroke-linecap:round;stroke-miterlimit:10;}
	.st39{fill:none;stroke:#F44500;stroke-linecap:round;stroke-miterlimit:10;}
	.st40{fill:#FF9D00;stroke:#E6681E;stroke-linecap:round;stroke-miterlimit:10;}
	.st41{fill:#F97306;}
	.st42{fill:#D54300;}
	.st43{fill:#7DB34C;stroke:#44712A;stroke-width:3;stroke-miterlimit:10;}
	.st44{fill:none;stroke:#44712A;stroke-miterlimit:10;}
	.st45{fill:#7DB34C;}
	.st46{fill:#40760E;}
	.st47{fill:none;stroke:#071907;stroke-miterlimit:10;}
	.st48{fill:none;stroke:#071907;stroke-linecap:round;stroke-linejoin:round;stroke-miterlimit:10;}
	.st49{fill:#071907;}
	.st50{fill:#44712A;}
	.st51{fill:#6E905E;}
	.st52{fill:#456A0A;}
	.st53{fill:#183300;}
	.st54{fill:#FF2214;}
	.st55{fill:#661900;}
	.st56{fill:#FFDC00;}
	.st57{fill:#7C9800;stroke:#164E16;stroke-width:3;stroke-miterlimit:10;}
	.st58{fill:none;stroke:#D17D01;stroke-width:0.75;stroke-miterlimit:10;}
	.st59{fill:#7C9800;stroke:#164E16;stroke-linejoin:round;stroke-miterlimit:10;}
	.st60{fill:none;stroke:#164E16;stroke-linejoin:round;stroke-miterlimit:10;}
	.st61{fill:#8A9D1F;}
	.st62{fill:#1B4700;}
	.st63{fill:none;stroke:#7C9800;stroke-width:3;stroke-linecap:round;stroke-linejoin:round;stroke-miterlimit:10;}
	.st64{opacity:0.6;fill:none;stroke:#FFFFFF;stroke-linecap:round;stroke-miterlimit:10;}
	.st65{fill:none;stroke:#7B000E;stroke-miterlimit:10;}
	.st66{opacity:0.4;fill:none;stroke:#FFFFFF;stroke-linecap:round;stroke-linejoin:round;stroke-miterlimit:10;}
	.st67{fill:none;stroke:#FFFFFF;stroke-width:7.8511;stroke-linecap:round;stroke-miterlimit:10;}
	.st68{fill:#B0C06B;}
	.st69{fill:#F8ACAC;}
	.st70{fill:none;stroke:#FFFFFF;stroke-width:7.7562;stroke-linecap:round;stroke-miterlimit:10;}
	.st71{fill:none;stroke:#164E16;stroke-width:0.851;stroke-miterlimit:10;}
	.st72{opacity:0.3;}
	.st73{fill:#6EA336;}
	.st74{opacity:0.3;fill:#7B000E;}
	.st75{opacity:0.2;fill:none;stroke:#2A481D;stroke-linecap:round;stroke-linejoin:round;stroke-miterlimit:10;}
	.st76{fill:#CC242B;}
	.st77{fill:#5B8734;}
</style>
<path class="st52" d="M362.9,134.3c8.8-33.4,14.8-93.2-45.3-117.7l-7.7,12.9c43.1,21.6,33.2,68.5,23.1,95.5
	c-76-13.5-93.6,62.4-93.6,62.4S201.5,341.7,96.4,436.3c0,0-5.3,4.7-7.1,11.3c-3.9,14.4,3.9,29.5,17.5,33.9
	c47.1,15,234.6-37.3,299.9-243.8C419.5,195.9,407.3,154.4,362.9,134.3z"/>
<polygon class="st4" points="334.9,130.3 360.1,139.3 372.9,69.9 338.5,29.7 322.1,32.6 337.6,79.4 "/>
<path class="st10" d="M184.1,394.4c1,1.6,0.6,3.7-1,4.7c-2.3,1.5-4.6,3.2-6.9,5c-7.7,6.2-14.5,13.4-19.6,21c-0.6,0.9-1.4,1.3-2,1.5
	c-1,0.3-2,0.2-2.8-0.5c-1.7-1.1-2.1-3.2-1-4.8c5.4-8.1,12.6-15.9,21.1-22.6c2.5-1.9,5-3.7,7.5-5.3
	C180.9,392.3,183,392.8,184.1,394.4L184.1,394.4z"/>
<path class="st10" d="M215.8,352.5c1.8,0.4,3.6-0.7,4.1-2.5c2.6-8.9,6.9-17.9,12.8-26.3c2.7-3.7,5.6-7.3,8.7-10.5
	c11.6-12,18.3-28,19.6-45.2c0.5-8.4,2-17.3,4.3-26.4c1.7-6.8,4-13.7,6.7-20.6c7.1-18.5,15.3-32,25-41.4c1.4-1.3,1.4-3.6,0.1-4.9
	c-1.3-1.4-3.6-1.4-4.9-0.1c-10.6,10.2-19.2,24.4-26.7,44c-2.9,7.3-5.2,14.6-7,21.9c-2.3,9.3-3.8,18.5-4.4,27.1
	c-1.1,15.6-7.4,30-17.7,41c-3.4,3.5-6.5,7.4-9.3,11.4c-6.2,8.9-11,18.5-13.8,28.2C212.5,350,213.8,352,215.8,352.5L215.8,352.5z"/>
<path class="st53" d="M420.9,173.4c-5.5-14.6-14.7-27.4-27-37.6c-8-6.6-11.9-16.9-11-27.2c4.7-50.4-16.4-88.5-59.6-106.1L322.3,2
	c-6.4-2.6-13.8-0.1-17.2,5.7l-8.9,15.1c-2,3.4-2.4,7.6-1.3,11.3c1.1,3.6,3.6,6.6,7,8.3L303,43c17.6,8.8,25.3,24.4,23.2,46.5
	c-1,10-8.9,18.1-18.9,18.9c-52.2,4.3-76.8,49.4-82.7,75.3c0,0.1-0.1,0.2-0.1,0.3c-4.1,15.7-43.2,155.4-138.2,240.8l-0.2,0.1
	c-2.6,2.5-9,9.2-11.6,18.6c-5.8,22.3,6.6,45.8,27.8,52.4c6.3,2,14.2,2.9,23.1,2.9c16.7,0,37.1-3.4,58.5-9.9
	c25-7.6,50.6-19.2,73.9-33.5C312,422.8,384.3,359.1,421.5,242C428.9,217.7,428.6,193.9,420.9,173.4z M332.7,33.8l2.7,1.8
	c17.8,12.1,27.7,32.9,26,54.3l-2.6,30.8c-0.4,4.2-4.4,7.1-8.5,6.1l-5.6-1.4c-3.6-0.9-5.8-4.4-5.1-8l6.7-33.6
	c1.6-16-3.3-32-13.7-44.3l-2.5-3C328.7,34.9,330.8,32.5,332.7,33.8z M397.2,235c-34.6,108.9-101.9,168.2-152.3,198.8
	c-60.1,36.5-114.9,44-134.7,38c-8.4-2.6-13.2-12.3-10.8-21.4c0.9-3,3.2-5.7,4.1-6.4c106.3-95.6,144.4-247.5,146-254
	c0.5-2.2,10.2-42.1,46.5-53.2c9.6-2.9,21.4-3.9,35.2-1.3l4,0.8c3.2,0.8,6.3,1.7,9.6,2.7c14.4,4.6,25.7,11,34.5,18.4
	C400,175.9,406.6,203.4,397.2,235z"/>
</svg>
