<?xml version="1.0" encoding="utf-8"?>
<!-- Generator: Adobe Illustrator 20.0.0, SVG Export Plug-In . SVG Version: 6.00 Build 0)  -->
<svg version="1.1" id="Layer_1" xmlns="http://www.w3.org/2000/svg" xmlns:xlink="http://www.w3.org/1999/xlink" x="0px" y="0px"
	 viewBox="0 0 64 64" style="enable-background:new 0 0 64 64;" xml:space="preserve">
<style type="text/css">
	.st0{display:none;fill:#D1A982;}
	.st1{fill:#81AF5B;}
	.st2{fill:#47771E;}
	.st3{fill:#D0A679;}
	.st4{fill:#CDA973;stroke:#A5794A;stroke-width:3;stroke-miterlimit:10;}
	.st5{fill:#E0C9BB;stroke:#68763A;stroke-width:3;stroke-linecap:round;stroke-miterlimit:10;}
	.st6{fill:none;stroke:#C69C6D;stroke-width:3;stroke-miterlimit:10;}
	.st7{fill:none;stroke:#699273;stroke-width:3;stroke-miterlimit:10;}
	.st8{fill:#689946;}
	.st9{fill:none;stroke:#689946;stroke-width:3;stroke-miterlimit:10;}
	.st10{fill:#00FFFF;}
	.st11{fill:#54665F;}
	.st12{fill:#434D42;}
	.st13{fill:#54665F;stroke:#434D42;stroke-width:2;stroke-linecap:round;stroke-linejoin:round;stroke-miterlimit:10;}
	.st14{fill:#748C8B;}
	.st15{fill:#EFC11E;}
	.st16{fill:none;stroke:#434D42;stroke-linecap:round;stroke-linejoin:round;stroke-miterlimit:10;}
	.st17{fill:none;stroke:#FFFFFF;stroke-linecap:round;stroke-linejoin:round;stroke-miterlimit:10;}
	.st18{fill:#748C8B;stroke:#434D42;stroke-linecap:round;stroke-linejoin:round;stroke-miterlimit:10;}
	.st19{fill:#FFFFFF;}
	.st20{fill:#EFFE99;stroke:#3E4A14;stroke-width:3;stroke-miterlimit:10;}
	.st21{clip-path:url(#SVGID_2_);}
	.st22{fill:none;stroke:#3E4A14;stroke-width:3;stroke-miterlimit:10;}
	.st23{fill:none;stroke:#FFFFFF;stroke-linecap:round;stroke-miterlimit:10;}
	.st24{fill:#EFFE99;}
	.st25{fill:#3E4A14;}
	.st26{fill:#F1C06D;}
	.st27{clip-path:url(#SVGID_4_);}
	.st28{clip-path:url(#SVGID_6_);}
	.st29{fill:none;stroke:#E4D9C8;stroke-linecap:round;stroke-linejoin:round;}
	.st30{clip-path:url(#SVGID_8_);}
	.st31{clip-path:url(#SVGID_10_);}
	.st32{clip-path:url(#SVGID_12_);}
	.st33{clip-path:url(#SVGID_14_);}
	.st34{clip-path:url(#SVGID_16_);}
	.st35{fill:#DED1C8;}
	.st36{clip-path:url(#SVGID_18_);}
	.st37{clip-path:url(#SVGID_20_);}
	.st38{clip-path:url(#SVGID_22_);}
	.st39{fill:none;stroke:#C6A06A;stroke-width:2;stroke-miterlimit:10;}
	.st40{fill:#699273;}
	.st41{clip-path:url(#SVGID_24_);}
	.st42{fill:#F2E6D6;}
	.st43{clip-path:url(#SVGID_26_);fill:#F2E6D6;}
	.st44{clip-path:url(#SVGID_28_);fill:#F2E6D6;}
	.st45{fill:#7F613C;}
	.st46{fill:none;stroke:#C8CF80;stroke-width:3;stroke-miterlimit:10;}
	.st47{fill:#CEE5D9;}
	.st48{fill:none;stroke:#86C1A7;stroke-width:3;stroke-linecap:round;stroke-miterlimit:10;}
	.st49{fill:none;stroke:#86C1A7;stroke-linecap:round;stroke-miterlimit:10;}
	.st50{fill:#86C1A7;}
	.st51{fill:#CFE2CF;}
	.st52{fill:#C8CF80;}
	.st53{fill:#86BF95;}
	.st54{fill:none;stroke:#86BF95;stroke-width:3;stroke-linecap:round;stroke-miterlimit:10;}
	.st55{fill:none;stroke:#86BF95;stroke-linecap:round;stroke-miterlimit:10;}
	.st56{fill:#ECEE9A;stroke:#699273;stroke-linecap:round;stroke-miterlimit:10;}
	.st57{fill:none;stroke:#699273;stroke-width:3;stroke-linecap:round;stroke-miterlimit:10;}
	.st58{fill:#C69C6D;}
	.st59{fill:#ECEE9A;}
	.st60{clip-path:url(#SVGID_30_);}
	.st61{fill:#2F7B1D;stroke:#0A4D2C;stroke-width:3;stroke-miterlimit:10;}
	.st62{fill:#2F7B1D;stroke:#0A4D2C;stroke-linecap:round;stroke-miterlimit:10;}
	.st63{fill:#2F7B1D;stroke:#81AF5B;stroke-linecap:round;stroke-miterlimit:10;}
	.st64{fill:#2F7B1D;}
	.st65{fill:#0A4D2C;}
	.st66{fill:#FFE706;}
	.st67{fill:#D3A700;}
	.st68{fill:none;stroke:#D3A700;stroke-linecap:round;stroke-miterlimit:10;}
	.st69{fill:#FA8D1B;stroke:#D2614D;stroke-width:3;stroke-miterlimit:10;}
	.st70{fill:#FA8D1B;stroke:#D2614D;stroke-linecap:round;stroke-miterlimit:10;}
	.st71{fill:#E0C9BB;}
	.st72{fill:#FA8D1B;}
	.st73{fill:#68763A;}
	.st74{fill:#D2614D;}
	.st75{fill:#5D685D;stroke:#4A544B;stroke-width:3;stroke-linecap:round;stroke-miterlimit:10;}
	.st76{fill:none;stroke:#979B83;stroke-linecap:round;stroke-miterlimit:10;}
	.st77{fill:none;stroke:#4A544B;stroke-width:3;stroke-linecap:round;stroke-miterlimit:10;}
	.st78{fill:#F4E400;stroke:#DFBE00;stroke-width:3;stroke-miterlimit:10;}
	.st79{fill:#F4E400;stroke:#DFBE00;stroke-linecap:round;stroke-miterlimit:10;}
	.st80{fill:#FDDC6C;stroke:#0A4D2C;stroke-width:3;stroke-miterlimit:10;}
	.st81{fill:#FDDC6C;stroke:#0A4D2C;stroke-miterlimit:10;}
	.st82{fill:#FDDC6C;stroke:#0A4D2C;stroke-linecap:round;stroke-miterlimit:10;}
	.st83{fill:#FDDC6C;stroke:#FFFFFF;stroke-linecap:round;stroke-miterlimit:10;}
	.st84{fill:#CDA973;}
	.st85{fill:#A5794A;}
	.st86{fill:#FDDC6C;}
	.st87{fill:#B29166;}
	.st88{fill:#7F5B3B;}
	.st89{fill:#F4E400;}
	.st90{fill:#A58500;}
	.st91{fill:#DFBE00;}
	.st92{fill:#5F7755;}
	.st93{fill:#4A544B;}
	.st94{fill:#999E77;}
	.st95{fill:#3E4C37;}
	.st96{fill:#FDCC89;}
	.st97{fill:#FDCC89;stroke:#D0A679;stroke-linecap:round;stroke-miterlimit:10;}
	.st98{fill:#7F6546;}
	.st99{fill:#F3CF47;stroke:#D3A700;stroke-linecap:round;stroke-linejoin:round;stroke-miterlimit:10;}
	.st100{fill:#F3CF47;stroke:#FFFFFF;stroke-linecap:round;stroke-linejoin:round;stroke-miterlimit:10;}
	.st101{fill:none;stroke:#D3A700;stroke-miterlimit:10;}
	.st102{fill:#81AF5B;stroke:#2F7B1D;stroke-width:3;stroke-linecap:round;stroke-linejoin:round;stroke-miterlimit:10;}
	.st103{fill:#F3CF47;}
	.st104{fill:#A57600;}
	.st105{fill:#81AF5B;stroke:#0A4D2C;stroke-width:3;stroke-linecap:round;stroke-miterlimit:10;}
	.st106{fill:#47771E;stroke:#0B4C0B;stroke-width:3;stroke-miterlimit:10;}
	.st107{fill:none;stroke:#81AF5B;stroke-linecap:round;stroke-miterlimit:10;}
	.st108{fill:#81AF5B;stroke:#0B4C0B;stroke-width:3;stroke-miterlimit:10;}
	.st109{fill:#0B4C0B;}
</style>
<rect x="-26.2" y="-1313" class="st0" width="2535.7" height="2318.4"/>
<g>
	<path class="st84" d="M27.5,17.8l1.2-4.8c0.3-1.3,1.5-2.3,2.9-2.3h0.8c1.4,0,2.6,0.9,2.9,2.3l1.2,4.8H27.5z"/>
	<path class="st85" d="M26,17.5l1.2-4.8c0.5-2,2.3-3.4,4.4-3.4h0.8c2.1,0,3.9,1.4,4.4,3.4l1.2,4.8l-2.9,0.7l-1.2-4.8
		c-0.2-0.7-0.8-1.1-1.5-1.1h-0.8c-0.7,0-1.3,0.5-1.5,1.1l-1.2,4.8L26,17.5z"/>
	<path class="st92" d="M42.9,15c-2,0-4,0.4-5.8,1.1c-3.3,1.3-6.9,1.3-10.2,0c-1.8-0.7-3.8-1.1-5.8-1.1C10.5,15,1.9,25.7,2,36.3
		c0.1,8.4,6.6,15.2,14.8,16.6c3.6,0.6,7.1,0.4,10.2-0.4c3.3-0.8,6.7-0.8,10,0c3.1,0.8,6.6,1,10.2,0.4c8.3-1.4,14.7-8.2,14.8-16.6
		C62.1,25.7,53.5,15,42.9,15z"/>
	<path class="st93" d="M42.9,54.7c-2.2,0-4.3-0.3-6.3-0.8c-3-0.8-6.2-0.8-9.2,0c-3.4,0.9-7.1,1-10.8,0.4c-9.2-1.5-16-9.1-16.1-18
		c-0.1-6,2.5-12.3,7-16.8c3.9-3.9,8.7-6,13.7-6c2.2,0,4.3,0.4,6.3,1.2c2.9,1.1,6.2,1.1,9.1,0c2.1-0.8,4.2-1.2,6.3-1.2
		c5,0,9.8,2.1,13.7,6c4.4,4.5,7,10.7,7,16.8c-0.1,8.9-6.9,16.5-16.1,18C45.9,54.6,44.4,54.7,42.9,54.7z M32,50.3
		c1.8,0,3.6,0.2,5.4,0.7c3,0.8,6.3,0.9,9.6,0.4c7.8-1.3,13.5-7.6,13.6-15.1c0.1-5.3-2.2-10.7-6.1-14.7c-3.3-3.3-7.4-5.2-11.5-5.2
		c-1.8,0-3.6,0.3-5.3,1c-3.6,1.4-7.6,1.4-11.3,0c-1.7-0.7-3.5-1-5.3-1c-4.1,0-8.2,1.8-11.5,5.2C5.7,25.5,3.4,31,3.5,36.3
		C3.5,43.7,9.3,50.1,17,51.4c3.3,0.5,6.6,0.4,9.6-0.4C28.4,50.6,30.2,50.3,32,50.3z"/>
	<path class="st94" d="M7.4,44.5c-0.2,0-0.4-0.1-0.4-0.3c-0.5-1-0.9-2.1-1.2-3.2c-0.1-0.3,0.1-0.5,0.4-0.6c0.3-0.1,0.5,0.1,0.6,0.4
		c0.3,1,0.7,2.1,1.1,3c0.1,0.2,0,0.5-0.2,0.7C7.5,44.5,7.4,44.5,7.4,44.5z"/>
	<path class="st94" d="M5.6,36.8c-0.3,0-0.5-0.2-0.5-0.5c0-1.2,0.1-2.4,0.2-3.6c0-0.3,0.3-0.5,0.6-0.4c0.3,0,0.5,0.3,0.4,0.6
		c-0.2,1.1-0.2,2.3-0.2,3.4C6.1,36.6,5.9,36.8,5.6,36.8C5.6,36.8,5.6,36.8,5.6,36.8z"/>
	<path class="st94" d="M6.6,29.7c0,0-0.1,0-0.1,0c-0.3-0.1-0.4-0.4-0.3-0.6c0.3-1.1,0.7-2.1,1.2-3.1c0.1-0.3,0.4-0.4,0.7-0.2
		c0.3,0.1,0.4,0.4,0.2,0.7c-0.4,1-0.8,2-1.1,3C7,29.5,6.8,29.7,6.6,29.7z"/>
	<path class="st94" d="M9.2,23.9c-0.1,0-0.2,0-0.3-0.1c-0.2-0.1-0.3-0.5-0.2-0.7c0.2-0.3,0.4-0.6,0.6-0.9c0.2-0.2,0.5-0.3,0.7-0.1
		s0.3,0.5,0.1,0.7c-0.2,0.3-0.4,0.6-0.6,0.9C9.5,23.9,9.4,23.9,9.2,23.9z"/>
	<path class="st94" d="M18.5,53.4c-4.1-0.8-7.7-3.2-10.2-6.8c-0.2-0.2-0.1-0.5,0.1-0.7C8.7,45.7,9,45.8,9.1,46
		c2.4,3.4,5.8,5.7,9.6,6.4L18.5,53.4z"/>
	<path class="st94" d="M22.7,16.1c-2.3,0-4.7,0.9-6.8,2.7c-0.1,0.1-0.2,0.1-0.3,0.1c-0.1,0-0.3-0.1-0.4-0.2
		c-0.2-0.2-0.1-0.5,0.1-0.7c2.3-1.9,4.9-2.9,7.5-2.9V16.1z"/>
	<path class="st94" d="M13.9,49.6c-0.1,0-0.3-0.1-0.4-0.2c-0.2-0.2-0.4-0.4-0.6-0.7c-0.2-0.2-0.2-0.5,0-0.7c0.2-0.2,0.5-0.2,0.7,0
		c0.2,0.2,0.4,0.4,0.6,0.6c0.2,0.2,0.2,0.5,0,0.7C14.2,49.5,14.1,49.6,13.9,49.6z"/>
	<path class="st94" d="M10.3,44c-0.2,0-0.4-0.1-0.5-0.3c-0.4-1-0.7-2.1-1-3.2c-0.1-0.3,0.1-0.5,0.4-0.6c0.3-0.1,0.5,0.1,0.6,0.4
		c0.2,1.1,0.5,2.1,0.9,3.1c0.1,0.3,0,0.5-0.3,0.7C10.5,44,10.4,44,10.3,44z"/>
	<path class="st94" d="M8.9,36.8c-0.3,0-0.5-0.2-0.5-0.5c0-0.3,0-0.6,0-0.9c0-0.3,0.2-0.5,0.5-0.5c0.3,0,0.5,0.2,0.5,0.5
		c0,0.3,0,0.6,0,0.9C9.4,36.6,9.2,36.8,8.9,36.8C8.9,36.8,8.9,36.8,8.9,36.8z"/>
	<path class="st19" d="M9.7,30.5c0,0-0.1,0-0.1,0c-0.3-0.1-0.4-0.3-0.4-0.6c0.3-1.2,0.5-2.1,0.9-3.2c0.1-0.3,0.4-0.4,0.6-0.3
		c0.3,0.1,0.4,0.4,0.3,0.6c-0.4,1-0.6,1.9-0.9,3C10.1,30.4,9.9,30.5,9.7,30.5z"/>
	<path class="st19" d="M11.6,25c-0.1,0-0.1,0-0.2-0.1c-0.2-0.1-0.4-0.4-0.2-0.7c0.8-1.7,1.8-3.2,2.8-4.5c0.2-0.2,0.5-0.2,0.7-0.1
		c0.2,0.2,0.2,0.5,0.1,0.7c-1,1.3-1.9,2.7-2.7,4.3C12,24.9,11.8,25,11.6,25z"/>
	<path class="st94" d="M17.4,50.9c-0.1,0-0.2,0-0.3-0.1c-0.8-0.8-1.6-1.7-2.3-2.7c-0.2-0.2-0.1-0.5,0.1-0.7c0.2-0.2,0.5-0.1,0.7,0.1
		c0.6,1,1.3,1.8,2.1,2.5c0.2,0.2,0.2,0.5,0,0.7C17.7,50.8,17.6,50.9,17.4,50.9z"/>
	<path class="st94" d="M14.2,46.5c-0.2,0-0.4-0.1-0.4-0.3c-0.6-1.2-1.1-2.6-1.5-4c-0.1-0.3,0.1-0.5,0.4-0.6c0.3-0.1,0.5,0.1,0.6,0.4
		c0.4,1.3,0.8,2.6,1.4,3.8c0.1,0.2,0,0.5-0.2,0.7C14.4,46.5,14.3,46.5,14.2,46.5z"/>
	<path class="st94" d="M12,37.4c-0.3,0-0.5-0.2-0.5-0.5c0-0.2,0-0.4,0-0.6c0-0.3,0.2-0.5,0.5-0.5c0,0,0,0,0,0c0.3,0,0.5,0.2,0.5,0.5
		c0,0.2,0,0.4,0,0.6C12.5,37.1,12.3,37.4,12,37.4C12,37.4,12,37.4,12,37.4z"/>
	<path class="st19" d="M12.7,30.1c0,0-0.1,0-0.1,0c-0.3-0.1-0.4-0.3-0.4-0.6c0.1-0.4,0.2-0.7,0.2-1.1c0.1-0.3,0.3-0.4,0.6-0.4
		c0.3,0.1,0.4,0.3,0.4,0.6c-0.1,0.3-0.2,0.7-0.2,1C13.1,30,12.9,30.1,12.7,30.1z"/>
	<path class="st19" d="M13.5,27.1c0,0-0.1,0-0.1,0C13.1,27,13,26.8,13,26.5c0.1-0.3,0.2-0.6,0.3-0.9c0.1-0.3,0.4-0.4,0.6-0.3
		c0.3,0.1,0.4,0.4,0.3,0.6c-0.1,0.3-0.2,0.6-0.3,0.9C13.9,27,13.7,27.1,13.5,27.1z"/>
	<path class="st94" d="M15.9,21.8c-0.1,0-0.2,0-0.3-0.1c-0.2-0.1-0.3-0.4-0.2-0.7c0.3-0.5,0.7-1.1,1-1.5c0.2-0.2,0.5-0.3,0.7-0.1
		c0.2,0.2,0.3,0.5,0.1,0.7c-0.3,0.5-0.7,1-1,1.5C16.2,21.7,16.1,21.8,15.9,21.8z"/>
	<path class="st94" d="M21.3,52c-0.1,0-0.2,0-0.3-0.1c-1.2-1-2.3-2.3-3.2-4c-0.1-0.2,0-0.5,0.2-0.7c0.2-0.1,0.5,0,0.7,0.2
		c0.8,1.6,1.8,2.8,2.9,3.7c0.2,0.2,0.2,0.5,0.1,0.7C21.6,52,21.5,52,21.3,52z"/>
	<path class="st94" d="M17.5,46.5c-0.2,0-0.4-0.1-0.5-0.3c-0.1-0.2-0.1-0.3-0.2-0.5c-0.1-0.3,0-0.5,0.3-0.6c0.3-0.1,0.5,0,0.6,0.3
		c0.1,0.2,0.1,0.3,0.2,0.5c0.1,0.3,0,0.5-0.3,0.7C17.6,46.5,17.5,46.5,17.5,46.5z"/>
	<path class="st94" d="M16.1,41.7c-0.2,0-0.4-0.2-0.5-0.4c-0.2-1.3-0.4-2.6-0.4-3.9c0-0.3,0.2-0.5,0.5-0.5c0.3,0,0.5,0.2,0.5,0.5
		c0.1,1.3,0.2,2.5,0.4,3.8C16.6,41.4,16.4,41.7,16.1,41.7C16.1,41.7,16.1,41.7,16.1,41.7z"/>
	<path class="st94" d="M15.7,35.4C15.7,35.4,15.6,35.4,15.7,35.4c-0.3,0-0.5-0.2-0.5-0.5c0.1-1.7,0.2-3.3,0.5-5
		c0-0.3,0.3-0.5,0.6-0.4c0.3,0,0.5,0.3,0.4,0.6c-0.3,1.6-0.4,3.2-0.5,4.9C16.1,35.2,15.9,35.4,15.7,35.4z"/>
	<path class="st19" d="M17.2,26.1c0,0-0.1,0-0.1,0c-0.3-0.1-0.4-0.4-0.3-0.6c0.1-0.2,0.1-0.4,0.2-0.6c0.1-0.3,0.4-0.4,0.6-0.3
		c0.3,0.1,0.4,0.4,0.3,0.6c-0.1,0.2-0.1,0.4-0.2,0.6C17.6,26,17.4,26.1,17.2,26.1z"/>
	<path class="st94" d="M17.9,23.9c-0.1,0-0.1,0-0.2,0c-0.3-0.1-0.4-0.4-0.3-0.6c0.5-1.3,1-2.4,1.7-3.5c0.1-0.2,0.4-0.3,0.7-0.2
		c0.2,0.1,0.3,0.4,0.2,0.7c-0.6,1-1.1,2.1-1.6,3.3C18.3,23.8,18.1,23.9,17.9,23.9z"/>
	<path class="st94" d="M24.3,15.6c-1.3,0-2.6,0.5-3.8,1.4c-0.2,0.2-0.3,0.5-0.1,0.7c0.1,0.1,0.2,0.2,0.4,0.2c0.1,0,0.2,0,0.3-0.1
		c1-0.8,2.1-1.2,3.2-1.2V15.6z"/>
	<path class="st94" d="M25.6,53.3c-1.1-0.4-2.2-1.4-3.1-2.9c-0.1-0.2-0.1-0.5,0.2-0.7c0.2-0.1,0.5-0.1,0.7,0.2
		c0.8,1.3,1.7,2.1,2.6,2.5L25.6,53.3z"/>
	<path class="st94" d="M20.9,45.8c-0.2,0-0.4-0.1-0.5-0.4c-0.1-0.4-0.2-0.8-0.3-1.2c-0.1-0.3,0.1-0.5,0.4-0.6
		c0.3-0.1,0.5,0.1,0.6,0.4c0.1,0.4,0.2,0.8,0.3,1.2c0.1,0.3-0.1,0.5-0.3,0.6C21,45.8,20.9,45.8,20.9,45.8z"/>
	<path class="st94" d="M20.2,42.9c-0.2,0-0.4-0.2-0.5-0.4c-0.1-0.3-0.1-0.5-0.1-0.8c0-0.3,0.1-0.5,0.4-0.6c0.3,0,0.5,0.1,0.6,0.4
		c0,0.3,0.1,0.5,0.1,0.8C20.7,42.6,20.5,42.9,20.2,42.9C20.2,42.9,20.2,42.9,20.2,42.9z"/>
	<path class="st94" d="M19.7,38.5c-0.3,0-0.5-0.2-0.5-0.5c0-0.2,0-0.5,0-0.7c0-0.3,0.2-0.5,0.5-0.5c0,0,0,0,0,0
		c0.3,0,0.5,0.2,0.5,0.5c0,0.2,0,0.5,0,0.7C20.2,38.3,20,38.5,19.7,38.5C19.7,38.5,19.7,38.5,19.7,38.5z"/>
	<path class="st94" d="M19.7,35.9C19.7,35.9,19.7,35.9,19.7,35.9c-0.3,0-0.5-0.2-0.5-0.5c0-1.3,0.1-2.7,0.2-4c0-0.3,0.3-0.5,0.5-0.5
		c0.3,0,0.5,0.3,0.5,0.5c-0.1,1.3-0.2,2.6-0.2,4C20.2,35.7,20,35.9,19.7,35.9z"/>
	<path class="st94" d="M20.4,28.5C20.3,28.5,20.3,28.5,20.4,28.5c-0.4-0.1-0.5-0.3-0.5-0.6c0-0.3,0.1-0.5,0.1-0.8
		c0.1-0.3,0.3-0.4,0.6-0.4c0.3,0.1,0.5,0.3,0.4,0.6c0,0.3-0.1,0.5-0.1,0.8C20.8,28.4,20.6,28.5,20.4,28.5z"/>
	<path class="st94" d="M20.8,26.2c0,0-0.1,0-0.1,0c-0.3-0.1-0.4-0.3-0.4-0.6c0.4-1.6,0.8-3.1,1.3-4.4c0.1-0.3,0.4-0.4,0.6-0.3
		c0.3,0.1,0.4,0.4,0.3,0.6c-0.5,1.3-0.9,2.7-1.2,4.3C21.3,26,21.1,26.2,20.8,26.2z"/>
	<path class="st94" d="M26.3,51.3c-0.2,0-0.4-0.1-0.5-0.3c-0.5-1.1-1-2.6-1.4-4.3c-0.1-0.3,0.1-0.5,0.4-0.6c0.3-0.1,0.5,0.1,0.6,0.4
		c0.4,1.7,0.8,3.1,1.3,4.1c0.1,0.2,0,0.5-0.2,0.7C26.4,51.3,26.4,51.3,26.3,51.3z"/>
	<path class="st94" d="M24.6,45.5c-0.2,0-0.4-0.2-0.5-0.4c-0.2-1.1-0.3-1.8-0.4-2.9l-0.1-0.6c0-0.3,0.2-0.5,0.4-0.5
		c0.3,0,0.5,0.2,0.5,0.4l0.1,0.6c0.1,1.1,0.2,1.7,0.4,2.8C25.1,45.2,25,45.5,24.6,45.5C24.7,45.5,24.6,45.5,24.6,45.5z"/>
	<path class="st94" d="M24,39.9c-0.3,0-0.5-0.2-0.5-0.5c0-0.5,0-0.9-0.1-1.4c0-0.3,0.2-0.5,0.5-0.5c0,0,0,0,0,0
		c0.3,0,0.5,0.2,0.5,0.5c0,0.5,0,0.9,0.1,1.4C24.5,39.7,24.3,39.9,24,39.9C24,39.9,24,39.9,24,39.9z"/>
	<path class="st94" d="M23.9,36.8c-0.3,0-0.5-0.2-0.5-0.5c0-1.4,0-2.8,0.1-4.2c0-0.3,0.3-0.5,0.5-0.5c0.3,0,0.5,0.2,0.5,0.5
		c-0.1,1.4-0.1,2.8-0.1,4.1C24.4,36.6,24.2,36.8,23.9,36.8L23.9,36.8z"/>
	<path class="st94" d="M24.3,28.9C24.3,28.9,24.3,28.9,24.3,28.9c-0.3,0-0.5-0.3-0.5-0.6l0.1-0.7c0-0.3,0.3-0.5,0.6-0.4
		c0.3,0,0.5,0.3,0.4,0.6l-0.1,0.7C24.8,28.7,24.5,28.9,24.3,28.9z"/>
	<path class="st94" d="M24.6,26.3C24.6,26.3,24.6,26.3,24.6,26.3c-0.3,0-0.5-0.3-0.5-0.6l0-0.3c0-0.3,0-0.3,0.1-0.4l0.1-0.4
		c0-0.3,0.3-0.5,0.6-0.4c0.3,0,0.5,0.3,0.4,0.6l-0.1,0.4c0,0.1,0,0.1-0.1,0.4l0,0.3C25.1,26.2,24.9,26.3,24.6,26.3z"/>
	<path class="st94" d="M25.3,22.4c0,0-0.1,0-0.1,0c-0.3-0.1-0.4-0.3-0.4-0.6l0.1-0.6c0.1-0.3,0.3-0.4,0.6-0.4
		c0.3,0.1,0.4,0.3,0.4,0.6L25.8,22C25.8,22.2,25.6,22.4,25.3,22.4z"/>
	<path class="st94" d="M25.9,20.2c0,0-0.1,0-0.1,0c-0.3-0.1-0.4-0.4-0.3-0.6c0.2-0.5,0.3-1,0.5-1.5c0.1-0.3,0.4-0.4,0.6-0.3
		c0.3,0.1,0.4,0.4,0.3,0.6c-0.2,0.4-0.3,0.9-0.5,1.4C26.3,20,26.1,20.2,25.9,20.2z"/>
	<path class="st94" d="M29.2,17.7c-0.1,0.4-0.2,0.9-0.3,1.4c-0.1,0.3,0.1,0.5,0.4,0.6c0,0,0.1,0,0.1,0c0.2,0,0.4-0.2,0.5-0.4
		c0.1-0.6,0.2-1.1,0.4-1.4L29.2,17.7z"/>
	<path class="st94" d="M29,49.9c-0.2,0-0.4-0.2-0.5-0.4c-0.2-1-0.4-2.3-0.5-3.6c0-0.3,0.2-0.5,0.4-0.6c0.3,0,0.5,0.2,0.6,0.4
		c0.1,1.3,0.3,2.5,0.5,3.5C29.5,49.6,29.3,49.9,29,49.9C29,49.9,29,49.9,29,49.9z"/>
	<path class="st94" d="M28.1,41.8c-0.3,0-0.5-0.2-0.5-0.5l0-0.9c0-0.3,0.2-0.5,0.5-0.5c0.3,0,0.5,0.2,0.5,0.5l0,0.9
		C28.6,41.5,28.4,41.7,28.1,41.8C28.1,41.8,28.1,41.8,28.1,41.8z"/>
	<path class="st94" d="M28,36.8c-0.3,0-0.5-0.2-0.5-0.5c0-0.6,0-1.3,0-1.9c0-0.3,0.2-0.5,0.5-0.5c0,0,0,0,0,0c0.3,0,0.5,0.2,0.5,0.5
		c0,0.6,0,1.3,0,1.9C28.5,36.6,28.2,36.8,28,36.8L28,36.8z"/>
	<path class="st94" d="M28,32.6C28,32.6,28,32.6,28,32.6c-0.3,0-0.5-0.2-0.5-0.5c0-1.3,0.1-2.5,0.2-3.7c0-0.3,0.2-0.5,0.5-0.5
		c0.3,0,0.5,0.3,0.5,0.5c-0.1,1.2-0.1,2.5-0.2,3.7C28.5,32.4,28.3,32.6,28,32.6z"/>
	<path class="st94" d="M28.4,25.4C28.4,25.4,28.4,25.4,28.4,25.4c-0.3,0-0.5-0.3-0.5-0.5c0-0.4,0.1-0.8,0.1-1.1
		c0-0.3,0.3-0.5,0.5-0.4c0.3,0,0.5,0.3,0.4,0.5c0,0.4-0.1,0.7-0.1,1.1C28.9,25.2,28.7,25.4,28.4,25.4z"/>
	<path class="st94" d="M31.5,50.6v-2.2c0-0.3,0.2-0.5,0.5-0.5s0.5,0.2,0.5,0.5v2.2H31.5z"/>
	<path class="st94" d="M32,46.3c-0.3,0-0.5-0.2-0.5-0.5v-3.3c0-0.3,0.2-0.5,0.5-0.5s0.5,0.2,0.5,0.5v3.3
		C32.5,46.1,32.3,46.3,32,46.3z"/>
	<path class="st94" d="M32,39.5c-0.3,0-0.5-0.2-0.5-0.5v-3.1c0-0.3,0.2-0.5,0.5-0.5s0.5,0.2,0.5,0.5V39C32.5,39.3,32.3,39.5,32,39.5
		z"/>
	<path class="st94" d="M32,33.4c-0.3,0-0.5-0.2-0.5-0.5v-0.8c0-0.3,0.2-0.5,0.5-0.5s0.5,0.2,0.5,0.5v0.8
		C32.5,33.2,32.3,33.4,32,33.4z"/>
	<path class="st94" d="M32,26.3c-0.3,0-0.5-0.2-0.5-0.5v-2.5c0-0.3,0.2-0.5,0.5-0.5s0.5,0.2,0.5,0.5v2.5
		C32.5,26.1,32.3,26.3,32,26.3z"/>
	<path class="st94" d="M32.5,18v1.7c0,0.3-0.2,0.5-0.5,0.5s-0.5-0.2-0.5-0.5V18H32.5z"/>
	<path class="st94" d="M56.6,44.5c-0.1,0-0.1,0-0.2-0.1c-0.2-0.1-0.4-0.4-0.2-0.7c0.5-1,0.9-2,1.1-3c0.1-0.3,0.3-0.4,0.6-0.4
		c0.3,0.1,0.4,0.3,0.4,0.6c-0.3,1.1-0.7,2.2-1.2,3.2C57,44.4,56.8,44.5,56.6,44.5z"/>
	<path class="st94" d="M58.4,36.8C58.4,36.8,58.4,36.8,58.4,36.8c-0.3,0-0.5-0.2-0.5-0.5c0-1.1-0.1-2.3-0.2-3.4
		c0-0.3,0.2-0.5,0.4-0.6c0.3,0,0.5,0.2,0.6,0.4c0.2,1.2,0.3,2.4,0.2,3.6C58.9,36.6,58.7,36.8,58.4,36.8z"/>
	<path class="st94" d="M57.4,29.7c-0.2,0-0.4-0.1-0.5-0.4c-0.3-1-0.7-2-1.1-3c-0.1-0.3,0-0.5,0.2-0.7c0.2-0.1,0.5,0,0.7,0.2
		c0.5,1,0.9,2.1,1.2,3.1c0.1,0.3-0.1,0.5-0.3,0.6C57.5,29.7,57.4,29.7,57.4,29.7z"/>
	<path class="st94" d="M54.8,23.9c-0.2,0-0.3-0.1-0.4-0.2c-0.2-0.3-0.4-0.6-0.6-0.9c-0.2-0.2-0.1-0.5,0.1-0.7
		c0.2-0.2,0.5-0.1,0.7,0.1c0.2,0.3,0.4,0.6,0.6,0.9c0.1,0.2,0.1,0.5-0.2,0.7C55,23.9,54.9,23.9,54.8,23.9z"/>
	<path class="st94" d="M45.5,53.4c4.1-0.8,7.7-3.2,10.2-6.8c0.2-0.2,0.1-0.5-0.1-0.7c-0.2-0.2-0.5-0.1-0.7,0.1
		c-2.4,3.4-5.8,5.7-9.6,6.4L45.5,53.4z"/>
	<path class="st94" d="M41.3,16.1c2.3,0,4.7,0.9,6.8,2.7c0.1,0.1,0.2,0.1,0.3,0.1c0.1,0,0.3-0.1,0.4-0.2c0.2-0.2,0.1-0.5-0.1-0.7
		c-2.3-1.9-4.9-2.9-7.5-2.9V16.1z"/>
	<path class="st94" d="M50.1,49.6c-0.1,0-0.3,0-0.3-0.1c-0.2-0.2-0.2-0.5,0-0.7c0.2-0.2,0.4-0.4,0.6-0.6c0.2-0.2,0.5-0.2,0.7,0
		c0.2,0.2,0.2,0.5,0,0.7c-0.2,0.2-0.4,0.4-0.6,0.7C50.3,49.5,50.2,49.6,50.1,49.6z"/>
	<path class="st94" d="M53.6,44c-0.1,0-0.1,0-0.2,0c-0.3-0.1-0.4-0.4-0.3-0.7c0.4-1,0.7-2,0.9-3.1c0.1-0.3,0.3-0.4,0.6-0.4
		c0.3,0.1,0.4,0.3,0.4,0.6c-0.2,1.1-0.6,2.2-1,3.2C54,43.9,53.8,44,53.6,44z"/>
	<path class="st94" d="M55,36.8C55,36.8,55,36.8,55,36.8c-0.3,0-0.5-0.2-0.5-0.5c0-0.3,0-0.6,0-0.9c0-0.3,0.2-0.5,0.5-0.5
		c0.3,0,0.5,0.2,0.5,0.5c0,0.3,0,0.6,0,0.9C55.5,36.6,55.3,36.8,55,36.8z"/>
	<path class="st94" d="M54.3,30.5c-0.2,0-0.4-0.2-0.5-0.4c-0.4-1.6-0.7-2.6-1.3-4c-0.1-0.3,0-0.5,0.3-0.7c0.3-0.1,0.5,0,0.7,0.3
		c0.6,1.5,0.9,2.5,1.3,4.2c0.1,0.3-0.1,0.5-0.4,0.6C54.4,30.5,54.4,30.5,54.3,30.5z"/>
	<path class="st94" d="M52.4,25c-0.2,0-0.4-0.1-0.4-0.3c-0.8-1.6-1.7-3-2.7-4.3c-0.2-0.2-0.1-0.5,0.1-0.7c0.2-0.2,0.5-0.1,0.7,0.1
		c1.1,1.3,2,2.8,2.8,4.5c0.1,0.2,0,0.5-0.2,0.7C52.5,25,52.5,25,52.4,25z"/>
	<path class="st94" d="M46.5,50.9c-0.1,0-0.3-0.1-0.4-0.2c-0.2-0.2-0.2-0.5,0-0.7c0.8-0.7,1.5-1.6,2.1-2.5c0.2-0.2,0.5-0.3,0.7-0.1
		c0.2,0.2,0.3,0.5,0.1,0.7c-0.7,1-1.4,1.9-2.3,2.7C46.8,50.8,46.7,50.9,46.5,50.9z"/>
	<path class="st94" d="M49.8,46.5c-0.1,0-0.2,0-0.2-0.1c-0.2-0.1-0.3-0.4-0.2-0.7c0.6-1.2,1.1-2.5,1.4-3.8c0.1-0.3,0.3-0.4,0.6-0.4
		c0.3,0.1,0.4,0.3,0.4,0.6c-0.4,1.4-0.9,2.7-1.5,4C50.1,46.4,49.9,46.5,49.8,46.5z"/>
	<path class="st94" d="M52,37.4C52,37.4,52,37.4,52,37.4c-0.3,0-0.5-0.2-0.5-0.5c0-0.2,0-0.4,0-0.6c0-0.3,0.2-0.5,0.5-0.5
		c0,0,0,0,0,0c0.3,0,0.5,0.2,0.5,0.5c0,0.2,0,0.4,0,0.6C52.5,37.2,52.2,37.4,52,37.4z"/>
	<path class="st94" d="M51.4,30.7c-0.2,0-0.4-0.2-0.5-0.4c-0.1-0.3-0.2-0.7-0.2-1c-0.1-0.3,0.1-0.5,0.4-0.6c0.3-0.1,0.5,0.1,0.6,0.4
		c0.1,0.4,0.2,0.7,0.2,1.1c0.1,0.3-0.1,0.5-0.4,0.6C51.5,30.7,51.5,30.7,51.4,30.7z"/>
	<path class="st94" d="M50.7,27.8c-0.2,0-0.4-0.1-0.5-0.4c-0.1-0.3-0.2-0.6-0.3-0.9c-0.1-0.3,0.1-0.5,0.3-0.6
		c0.3-0.1,0.5,0.1,0.6,0.3c0.1,0.3,0.2,0.6,0.3,0.9c0.1,0.3-0.1,0.5-0.3,0.6C50.8,27.8,50.7,27.8,50.7,27.8z"/>
	<path class="st94" d="M48.1,21.8c-0.2,0-0.3-0.1-0.4-0.2c-0.3-0.5-0.6-1-1-1.5c-0.2-0.2-0.1-0.5,0.1-0.7c0.2-0.2,0.5-0.1,0.7,0.1
		c0.4,0.5,0.7,1,1,1.5c0.1,0.2,0.1,0.5-0.2,0.7C48.3,21.8,48.2,21.8,48.1,21.8z"/>
	<path class="st94" d="M42.7,52c-0.1,0-0.3-0.1-0.4-0.2c-0.2-0.2-0.1-0.5,0.1-0.7c1.1-0.9,2.1-2.1,2.9-3.7c0.1-0.2,0.4-0.3,0.7-0.2
		c0.2,0.1,0.3,0.4,0.2,0.7c-0.9,1.7-2,3-3.2,4C42.9,52,42.8,52,42.7,52z"/>
	<path class="st94" d="M46.3,47c-0.1,0-0.1,0-0.2,0c-0.3-0.1-0.4-0.4-0.3-0.7c0.1-0.3,0.3-0.6,0.4-1c0.1-0.3,0.4-0.4,0.6-0.3
		c0.3,0.1,0.4,0.4,0.3,0.6c-0.1,0.3-0.3,0.7-0.4,1C46.7,46.9,46.5,47,46.3,47z"/>
	<path class="st94" d="M47.9,41.7C47.9,41.7,47.8,41.7,47.9,41.7c-0.4-0.1-0.5-0.3-0.5-0.6c0.3-1.6,0.4-3.2,0.4-4.8
		c0-0.3,0.2-0.5,0.5-0.5c0,0,0,0,0,0c0.3,0,0.5,0.2,0.5,0.5c0,1.7-0.2,3.4-0.5,5C48.3,41.5,48.1,41.7,47.9,41.7z"/>
	<path class="st94" d="M48.3,34.5c-0.3,0-0.5-0.2-0.5-0.5c-0.1-1.3-0.2-2.6-0.4-3.9c0-0.3,0.1-0.5,0.4-0.6c0.3,0,0.5,0.1,0.6,0.4
		c0.2,1.3,0.4,2.7,0.5,4C48.8,34.2,48.6,34.4,48.3,34.5C48.3,34.5,48.3,34.5,48.3,34.5z"/>
	<path class="st94" d="M47,26.6c-0.2,0-0.4-0.1-0.5-0.4c-0.1-0.4-0.2-0.7-0.4-1.1c-0.1-0.3,0.1-0.5,0.3-0.6c0.3-0.1,0.5,0.1,0.6,0.3
		c0.1,0.4,0.2,0.8,0.4,1.1c0.1,0.3-0.1,0.5-0.3,0.6C47.1,26.6,47,26.6,47,26.6z"/>
	<path class="st94" d="M46.1,23.9c-0.2,0-0.4-0.1-0.5-0.3c-0.5-1.2-1-2.4-1.6-3.3c-0.1-0.2-0.1-0.5,0.2-0.7c0.2-0.1,0.5-0.1,0.7,0.2
		c0.6,1,1.2,2.2,1.7,3.5c0.1,0.3,0,0.5-0.3,0.6C46.2,23.9,46.1,23.9,46.1,23.9z"/>
	<path class="st94" d="M39.7,16.6c1.1,0,2.1,0.4,3.2,1.2c0.1,0.1,0.2,0.1,0.3,0.1c0.1,0,0.3-0.1,0.4-0.2c0.2-0.2,0.1-0.5-0.1-0.7
		c-1.2-0.9-2.5-1.4-3.8-1.4V16.6z"/>
	<path class="st94" d="M38.4,53.3c1.1-0.4,2.2-1.4,3.1-2.9c0.1-0.2,0.1-0.5-0.2-0.7c-0.2-0.1-0.5-0.1-0.7,0.2
		c-0.8,1.3-1.7,2.1-2.6,2.5L38.4,53.3z"/>
	<path class="st94" d="M43.1,45.8c0,0-0.1,0-0.1,0c-0.3-0.1-0.4-0.3-0.3-0.6c0.1-0.4,0.2-0.8,0.3-1.2c0.1-0.3,0.3-0.4,0.6-0.4
		c0.3,0.1,0.4,0.3,0.4,0.6c-0.1,0.4-0.2,0.8-0.3,1.2C43.5,45.7,43.3,45.8,43.1,45.8z"/>
	<path class="st94" d="M43.7,43C43.7,43,43.7,43,43.7,43c-0.4-0.1-0.5-0.3-0.5-0.6l0.1-0.4c0-0.3,0.3-0.5,0.6-0.4
		c0.3,0,0.5,0.3,0.4,0.6l-0.1,0.4C44.2,42.8,44,43,43.7,43z"/>
	<path class="st94" d="M44.3,38.5C44.3,38.5,44.3,38.5,44.3,38.5c-0.3,0-0.5-0.2-0.5-0.5c0-0.2,0-0.5,0-0.7c0-0.3,0.2-0.5,0.5-0.5
		c0.3,0,0.5,0.2,0.5,0.5c0,0.2,0,0.5,0,0.7C44.8,38.3,44.5,38.5,44.3,38.5z"/>
	<path class="st94" d="M44.3,35.9c-0.3,0-0.5-0.2-0.5-0.5c0-1.3-0.1-2.6-0.2-4c0-0.3,0.2-0.5,0.5-0.5c0.3,0,0.5,0.2,0.5,0.5
		c0.1,1.3,0.2,2.7,0.2,4C44.8,35.7,44.6,35.9,44.3,35.9C44.3,35.9,44.3,35.9,44.3,35.9z"/>
	<path class="st94" d="M43.6,28.5c-0.2,0-0.5-0.2-0.5-0.4c0-0.3-0.1-0.5-0.1-0.8c0-0.3,0.1-0.5,0.4-0.6c0.3,0,0.5,0.1,0.6,0.4
		c0,0.3,0.1,0.5,0.1,0.8C44.2,28.2,44,28.5,43.6,28.5C43.7,28.5,43.6,28.5,43.6,28.5z"/>
	<path class="st94" d="M43.2,26.2c-0.2,0-0.4-0.2-0.5-0.4c-0.3-1.6-0.8-3-1.2-4.3c-0.1-0.3,0-0.5,0.3-0.6c0.3-0.1,0.5,0,0.6,0.3
		c0.5,1.3,0.9,2.8,1.3,4.4c0.1,0.3-0.1,0.5-0.4,0.6C43.2,26.2,43.2,26.2,43.2,26.2z"/>
	<path class="st94" d="M37.7,51.3c-0.1,0-0.1,0-0.2,0c-0.2-0.1-0.4-0.4-0.2-0.7c0.5-1.1,1-2.5,1.3-4.1c0.1-0.3,0.3-0.4,0.6-0.4
		c0.3,0.1,0.4,0.3,0.4,0.6c-0.4,1.7-0.9,3.2-1.4,4.3C38.1,51.2,37.9,51.3,37.7,51.3z"/>
	<path class="st94" d="M39.4,45.5C39.4,45.5,39.3,45.5,39.4,45.5c-0.4-0.1-0.5-0.3-0.5-0.6c0.2-1.1,0.3-1.7,0.4-2.8l0.1-0.6
		c0-0.3,0.3-0.5,0.5-0.4c0.3,0,0.5,0.3,0.4,0.5l-0.1,0.6c-0.1,1.1-0.2,1.8-0.4,2.9C39.8,45.4,39.6,45.5,39.4,45.5z"/>
	<path class="st94" d="M40,39.9C40,39.9,40,39.9,40,39.9c-0.3,0-0.5-0.3-0.5-0.5c0-0.5,0-0.9,0.1-1.4c0-0.3,0.2-0.5,0.5-0.5
		c0,0,0,0,0,0c0.3,0,0.5,0.2,0.5,0.5c0,0.5,0,1-0.1,1.4C40.5,39.7,40.3,39.9,40,39.9z"/>
	<path class="st94" d="M40.1,36.8L40.1,36.8c-0.3,0-0.5-0.2-0.5-0.5c0-1.4,0-2.8-0.1-4.1c0-0.3,0.2-0.5,0.5-0.5
		c0.3,0,0.5,0.2,0.5,0.5c0.1,1.4,0.1,2.8,0.1,4.2C40.6,36.6,40.4,36.8,40.1,36.8z"/>
	<path class="st94" d="M39.7,28.9c-0.3,0-0.5-0.2-0.5-0.4l-0.1-0.7c0-0.3,0.2-0.5,0.4-0.6c0.3,0,0.5,0.2,0.6,0.4l0.1,0.7
		C40.2,28.6,40,28.9,39.7,28.9C39.7,28.9,39.7,28.9,39.7,28.9z"/>
	<path class="st94" d="M39.4,26.3c-0.2,0-0.5-0.2-0.5-0.4l0-0.3c0-0.2,0-0.2,0-0.3l-0.1-0.4c0-0.3,0.1-0.5,0.4-0.6
		c0.3,0,0.5,0.1,0.6,0.4l0.1,0.4c0,0.2,0,0.2,0.1,0.4l0,0.3C39.9,26.1,39.7,26.3,39.4,26.3C39.4,26.3,39.4,26.3,39.4,26.3z"/>
	<path class="st94" d="M38.6,22.4c-0.2,0-0.4-0.2-0.5-0.4L38,21.4c-0.1-0.3,0.1-0.5,0.4-0.6c0.3-0.1,0.5,0.1,0.6,0.4l0.1,0.6
		c0.1,0.3-0.1,0.5-0.4,0.6C38.7,22.3,38.7,22.4,38.6,22.4z"/>
	<path class="st94" d="M38.1,20.2c-0.2,0-0.4-0.1-0.5-0.4c-0.2-0.5-0.3-1-0.5-1.4c-0.1-0.3,0-0.5,0.3-0.6c0.3-0.1,0.5,0,0.6,0.3
		c0.2,0.5,0.3,0.9,0.5,1.5c0.1,0.3-0.1,0.5-0.3,0.6C38.2,20.2,38.1,20.2,38.1,20.2z"/>
	<path class="st94" d="M34.8,17.7c0.1,0.4,0.2,0.9,0.3,1.4c0.1,0.3-0.1,0.5-0.4,0.6c0,0-0.1,0-0.1,0c-0.2,0-0.4-0.2-0.5-0.4
		c-0.1-0.6-0.2-1-0.3-1.4L34.8,17.7z"/>
	<path class="st94" d="M35,49.9C35,49.9,35,49.9,35,49.9c-0.4-0.1-0.5-0.3-0.5-0.6c0.2-1,0.4-2.2,0.5-3.5c0-0.3,0.3-0.5,0.6-0.4
		c0.3,0,0.5,0.3,0.4,0.6c-0.2,1.4-0.3,2.6-0.5,3.6C35.5,49.7,35.3,49.9,35,49.9z"/>
	<path class="st94" d="M35.9,41.8C35.9,41.8,35.9,41.8,35.9,41.8c-0.3,0-0.5-0.2-0.5-0.5l0-0.9c0-0.3,0.2-0.5,0.5-0.5
		c0.3,0,0.5,0.2,0.5,0.5l0,0.9C36.4,41.6,36.2,41.8,35.9,41.8z"/>
	<path class="st94" d="M36,36.8L36,36.8c-0.3,0-0.5-0.2-0.5-0.5c0-0.6,0-1.3,0-1.9c0-0.3,0.2-0.5,0.5-0.5c0,0,0,0,0,0
		c0.3,0,0.5,0.2,0.5,0.5c0,0.6,0,1.3,0,1.9C36.5,36.6,36.3,36.8,36,36.8z"/>
	<path class="st94" d="M36,32.6c-0.3,0-0.5-0.2-0.5-0.5c0-1.3-0.1-2.5-0.2-3.7c0-0.3,0.2-0.5,0.5-0.5c0.3,0,0.5,0.2,0.5,0.5
		c0.1,1.2,0.1,2.5,0.2,3.7C36.5,32.4,36.3,32.6,36,32.6C36,32.6,36,32.6,36,32.6z"/>
	<path class="st94" d="M35.5,25.4c-0.3,0-0.5-0.2-0.5-0.5l-0.1-1.1c0-0.3,0.2-0.5,0.4-0.5c0.3,0,0.5,0.2,0.5,0.4
		c0,0.4,0.1,0.8,0.1,1.1C36.1,25.1,35.9,25.3,35.5,25.4C35.6,25.4,35.6,25.4,35.5,25.4z"/>
	<path class="st94" d="M25,17l-0.8-0.6c-0.8,1-1.3,1.6-2,3.3c-0.1,0.3,0,0.5,0.3,0.7c0.1,0,0.1,0,0.2,0c0.2,0,0.4-0.1,0.5-0.3
		C23.8,18.5,24.1,18,25,17"/>
	<path class="st94" d="M39,17l0.8-0.6c0.8,1,1.3,1.6,2,3.3c0.1,0.3,0,0.5-0.3,0.7c-0.1,0-0.1,0-0.2,0c-0.2,0-0.4-0.1-0.5-0.3
		C40.2,18.5,39.8,18,39,17"/>
	<path class="st95" d="M42.9,54.7c-2.2,0-4.3-0.3-6.3-0.8c-3-0.8-6.2-0.8-9.2,0c-3.4,0.9-7.1,1-10.8,0.4c-9.2-1.5-16-9.1-16.1-18
		c-0.1-6,2.5-12.3,7-16.8c3.9-3.9,8.7-6,13.7-6c2.2,0,4.3,0.4,6.3,1.2c2.9,1.1,6.2,1.1,9.1,0c2.1-0.8,4.2-1.2,6.3-1.2
		c5,0,9.8,2.1,13.7,6c4.4,4.5,7,10.7,7,16.8c-0.1,8.9-6.9,16.5-16.1,18C45.9,54.6,44.4,54.7,42.9,54.7z M32,50.3
		c1.8,0,3.6,0.2,5.4,0.7c3,0.8,6.3,0.9,9.6,0.4c7.8-1.3,13.5-7.6,13.6-15.1c0.1-5.3-2.2-10.7-6.1-14.7c-3.3-3.3-7.4-5.2-11.5-5.2
		c-1.8,0-3.6,0.3-5.3,1c-3.6,1.4-7.6,1.4-11.3,0c-1.7-0.7-3.5-1-5.3-1c-4.1,0-8.2,1.8-11.5,5.2C5.7,25.5,3.4,31,3.5,36.3
		C3.5,43.7,9.3,50.1,17,51.4c3.3,0.5,6.6,0.4,9.6-0.4C28.4,50.6,30.2,50.3,32,50.3z"/>
</g>
</svg>
