<?xml version="1.0" encoding="utf-8"?>
<!-- Generator: Adobe Illustrator 20.0.0, SVG Export Plug-In . SVG Version: 6.00 Build 0)  -->
<svg version="1.1" id="Layer_1" xmlns="http://www.w3.org/2000/svg" xmlns:xlink="http://www.w3.org/1999/xlink" x="0px" y="0px"
	 viewBox="0 0 500 500" style="enable-background:new 0 0 500 500;" xml:space="preserve">
<style type="text/css">
	.st0{fill:#719E7F;stroke:#667F40;stroke-width:3;stroke-linecap:round;stroke-linejoin:round;stroke-miterlimit:10;}
	.st1{fill:#719E7F;stroke:#667F40;stroke-linecap:round;stroke-linejoin:round;stroke-miterlimit:10;}
	.st2{fill:none;stroke:#667F40;stroke-width:3;stroke-linecap:round;stroke-miterlimit:10;}
	.st3{fill:#8BC133;stroke:#334F25;stroke-width:3.42;stroke-linejoin:round;stroke-miterlimit:10;}
	.st4{fill:#4D6261;}
	.st5{fill:#ECE8DB;stroke:#5B3A03;stroke-width:3;stroke-miterlimit:10;}
	.st6{fill:#BCE680;}
	.st7{fill:none;stroke:#F0FDC5;stroke-linecap:round;stroke-linejoin:round;stroke-miterlimit:10;}
	.st8{fill:#8DC70C;}
	.st9{fill:#ECFE78;}
	.st10{fill:#73953B;}
	.st11{fill:#3D710C;}
	.st12{fill:#73953B;stroke:#3D710C;stroke-width:3;stroke-linejoin:round;stroke-miterlimit:10;}
	.st13{fill:#EFE8D7;stroke:#DABB95;stroke-width:3;stroke-linejoin:round;stroke-miterlimit:10;}
	.st14{opacity:0.6;fill:none;stroke:#BF71B0;stroke-width:3;stroke-miterlimit:10;}
	.st15{opacity:0.4;fill:none;stroke:#BF71B0;stroke-width:3;stroke-miterlimit:10;}
	.st16{opacity:0.3;fill:none;stroke:#BF71B0;stroke-width:3;stroke-miterlimit:10;}
	.st17{opacity:0.2;fill:none;stroke:#BF71B0;stroke-width:3;stroke-miterlimit:10;}
	.st18{opacity:0.1;fill:none;stroke:#BF71B0;stroke-width:3;stroke-miterlimit:10;}
	.st19{fill:#77A45B;}
	.st20{fill:none;stroke:#FFFFFF;stroke-linecap:round;stroke-linejoin:round;stroke-miterlimit:10;}
	.st21{fill:#00FFFF;}
	.st22{fill:#E50F4F;}
	.st23{fill:#5A8700;}
	.st24{fill:#9D9F01;}
	.st25{fill:none;stroke:#BFBF04;stroke-linecap:round;stroke-linejoin:round;stroke-miterlimit:10;}
	.st26{fill:none;stroke:#CAD058;stroke-linecap:round;stroke-linejoin:round;stroke-miterlimit:10;}
	.st27{fill:#E21039;stroke:#930019;stroke-width:3;stroke-linejoin:round;stroke-miterlimit:10;}
	.st28{fill:#77A45B;stroke:#3D710C;stroke-linecap:round;stroke-linejoin:round;stroke-miterlimit:10;}
	.st29{fill:none;stroke:#77A45B;stroke-width:3;stroke-miterlimit:10;}
	.st30{opacity:0.5;fill:none;stroke:#FFFFFF;stroke-width:3;stroke-linejoin:round;stroke-miterlimit:10;}
	.st31{opacity:0.7;fill:none;stroke:#FFFFFF;stroke-width:3;stroke-linejoin:round;stroke-miterlimit:10;}
	.st32{opacity:0.9;fill:none;stroke:#FFFFFF;stroke-width:3;stroke-linejoin:round;stroke-miterlimit:10;}
	.st33{opacity:0.3;fill:none;stroke:#FFFFFF;stroke-width:3;stroke-linejoin:round;stroke-miterlimit:10;}
	.st34{opacity:0.2;fill:none;stroke:#FFFFFF;stroke-width:3;stroke-linejoin:round;stroke-miterlimit:10;}
	.st35{fill:#E21039;}
	.st36{fill:#930019;}
	.st37{fill:#F4E5E8;}
	.st38{fill:#DEB2BA;}
	.st39{fill:#C8818D;}
	.st40{fill:#B14D5F;}
	.st41{fill:#FFFFFF;}
	.st42{fill:#EFE8D7;}
	.st43{fill:#DABB95;}
	.st44{fill:#E50F4F;stroke:#930019;stroke-width:3;stroke-linejoin:round;stroke-miterlimit:10;}
	.st45{fill:none;stroke:#E87C94;stroke-width:3;stroke-linejoin:round;stroke-miterlimit:10;}
	.st46{fill:none;stroke:#E64872;stroke-width:3;stroke-linejoin:round;stroke-miterlimit:10;}
	.st47{fill:none;stroke:#EBB2B6;stroke-width:3;stroke-linejoin:round;stroke-miterlimit:10;}
	.st48{fill:none;stroke:#930019;stroke-width:3;stroke-linejoin:round;stroke-miterlimit:10;}
	.st49{fill:#E87C94;}
	.st50{fill:#E64872;}
	.st51{fill:#EBB2B6;}
	.st52{opacity:0.7;fill:none;stroke:#E50F4F;stroke-width:3;stroke-linejoin:round;stroke-miterlimit:10;}
	.st53{opacity:0.6;fill:none;stroke:#E50F4F;stroke-width:3;stroke-linejoin:round;stroke-miterlimit:10;}
	.st54{opacity:0.4;fill:none;stroke:#E50F4F;stroke-width:3;stroke-linejoin:round;stroke-miterlimit:10;}
	.st55{opacity:0.3;fill:none;stroke:#E50F4F;stroke-width:3;stroke-linejoin:round;stroke-miterlimit:10;}
	.st56{opacity:0.2;fill:none;stroke:#E50F4F;stroke-width:3;stroke-linejoin:round;stroke-miterlimit:10;}
	.st57{opacity:0.1;fill:none;stroke:#E50F4F;stroke-width:3;stroke-linejoin:round;stroke-miterlimit:10;}
	.st58{fill:none;stroke:#DABB95;stroke-width:3;stroke-linejoin:round;stroke-miterlimit:10;}
	.st59{fill:#77A45B;stroke:#3D710C;stroke-width:0.9521;stroke-linecap:round;stroke-linejoin:round;stroke-miterlimit:10;}
	.st60{fill:#E76886;}
	.st61{fill:#E87D94;}
	.st62{fill:#E992A2;}
	.st63{fill:#EBA7AF;}
	.st64{fill:#ECBDBD;}
	.st65{fill:#EDD2CA;}
	.st66{opacity:0.6;fill:#BF71B0;}
	.st67{opacity:0.5;fill:#BF71B0;}
	.st68{opacity:0.4;fill:#BF71B0;}
	.st69{opacity:0.3;fill:#BF71B0;}
	.st70{opacity:0.2;fill:#BF71B0;}
	.st71{fill:#FCD24F;stroke:#BA8822;stroke-width:3;stroke-linejoin:round;stroke-miterlimit:10;}
	.st72{opacity:0.9;fill:none;stroke:#732429;stroke-width:3;stroke-miterlimit:10;}
	.st73{opacity:0.8;fill:none;stroke:#732429;stroke-width:3;stroke-miterlimit:10;}
	.st74{opacity:0.7;fill:none;stroke:#732429;stroke-width:3;stroke-miterlimit:10;}
	.st75{opacity:0.6;fill:none;stroke:#732429;stroke-width:3;stroke-miterlimit:10;}
	.st76{opacity:0.5;fill:none;stroke:#732429;stroke-width:3;stroke-miterlimit:10;}
	.st77{opacity:0.4;fill:none;stroke:#732429;stroke-width:3;stroke-miterlimit:10;}
	.st78{fill:none;stroke:#BA8822;stroke-width:3;stroke-linejoin:round;stroke-miterlimit:10;}
	.st79{fill:#FCD24F;}
	.st80{fill:#BA8822;}
	.st81{fill:#80352F;}
	.st82{fill:#8D4734;}
	.st83{fill:#9B5838;}
	.st84{fill:#A96A3D;}
	.st85{fill:#B77A42;}
	.st86{fill:#C48B47;}
	.st87{fill:#5B774B;}
	.st88{fill:none;stroke:#ECFE78;stroke-linecap:round;stroke-linejoin:round;stroke-miterlimit:10;}
	.st89{fill:none;stroke:#5B774B;stroke-miterlimit:10;}
	.st90{fill:none;stroke:#ECFE78;stroke-linecap:round;stroke-miterlimit:10;}
	.st91{fill:none;stroke:#5B774B;stroke-linejoin:round;stroke-miterlimit:10;}
	.st92{fill:none;stroke:#89A037;stroke-linecap:round;stroke-linejoin:round;stroke-miterlimit:10;}
	.st93{fill:none;stroke:#89A037;stroke-width:3;stroke-linecap:round;stroke-linejoin:round;stroke-miterlimit:10;}
	.st94{fill:none;stroke:#89A037;stroke-width:3.3343;stroke-linecap:round;stroke-linejoin:round;stroke-miterlimit:10;}
	.st95{fill:#F0FDC5;}
	.st96{fill:#839958;}
	.st97{fill:#AA2F66;}
	.st98{fill:#D8CBC5;}
	.st99{fill:#662128;}
	.st100{fill:#BCE680;stroke:#5B774B;stroke-width:3.1491;stroke-miterlimit:10;}
	.st101{fill:#ECE8DB;stroke:#5B3A03;stroke-miterlimit:10;}
	.st102{fill:none;stroke:#00FF00;stroke-miterlimit:10;}
	.st103{fill:none;stroke:#00FF00;stroke-width:1.0757;stroke-miterlimit:10;}
	.st104{fill:none;stroke:#000000;stroke-miterlimit:10;}
	.st105{fill:none;stroke:#000000;stroke-width:1.16;stroke-miterlimit:10;}
	.st106{fill:#7AA66D;}
	.st107{fill:#8BC133;}
	.st108{fill:none;stroke:#000000;stroke-width:0.9135;stroke-miterlimit:10;}
	.st109{fill:none;stroke:#000000;stroke-width:5.9645;stroke-miterlimit:10;}
	.st110{fill:none;stroke:#000000;stroke-width:1.9086;stroke-linecap:round;stroke-linejoin:round;stroke-miterlimit:10;}
	.st111{fill:none;stroke:#4D6261;stroke-width:0.9577;stroke-linecap:round;stroke-linejoin:round;stroke-miterlimit:10;}
	.st112{fill:#7AA66D;stroke:#4D6261;stroke-width:0.9577;stroke-miterlimit:10;}
	.st113{fill:none;stroke:#4D6261;stroke-width:0.9577;stroke-miterlimit:10;}
	.st114{fill:#ECE8DB;}
	.st115{fill:#5B3A03;}
	.st116{fill:#D2DE8F;stroke:#667F40;stroke-width:3;stroke-miterlimit:10;}
	.st117{fill:none;stroke:#FAFAEE;stroke-linecap:round;stroke-miterlimit:10;}
	.st118{fill:#D2DE8F;}
	.st119{fill:none;stroke:#667F40;stroke-width:3;stroke-miterlimit:10;}
	.st120{fill:#77A578;}
	.st121{fill:#719E7F;}
	.st122{fill:#FAFAEE;}
	.st123{fill:#667F40;}
</style>
<path class="st120" d="M263,95.4c0,0,42.2-85.8,68.5-80c26.5,5.8,28.6,101.3,28.6,101.3s8,68.8-62.6,53.3
	C228.8,154.9,263,95.4,263,95.4z"/>
<line class="st121" x1="278.3" y1="64.9" x2="296.1" y2="92.1"/>
<line class="st121" x1="359.5" y1="82.8" x2="331.9" y2="100"/>
<path class="st120" d="M30.6,156.2c0,0-22.7-102.7,3.8-115.8c26.7-13.2,94.2,67.4,94.2,67.4s54.1,53.7-17.1,88.8
	C42.1,230.9,30.6,156.2,30.6,156.2z"/>
<line class="st121" x1="22.8" y1="119.6" x2="56.8" y2="130.7"/>
<line class="st121" x1="104.8" y1="79.1" x2="93" y2="112.9"/>
<path class="st118" d="M435.4,357.6c0,78.6-79.7,125.9-178,125.9s-178-47.3-178-125.9s79.7-158.8,178-158.8S435.4,278.9,435.4,357.6
	z"/>
<path class="st122" d="M79.5,345.2c-2.3,0-4.1-1.8-4.1-4.1c0-16,9.2-31.5,26.7-44.9c16.4-12.5,39.6-22.9,67.2-29.9
	c2.2-0.6,4.4,0.8,5,3c0.6,2.2-0.8,4.4-3,5c-54.1,13.9-87.7,39.5-87.7,66.8C83.6,343.3,81.7,345.2,79.5,345.2z"/>
<path class="st122" d="M257.4,425.6c-45.6,0-89.1-7.7-122.6-21.8c-2.1-0.9-3.1-3.3-2.2-5.4c0.9-2.1,3.3-3.1,5.4-2.2
	c32.5,13.6,74.9,21.1,119.4,21.1c2.3,0,4.1,1.8,4.1,4.1S259.7,425.6,257.4,425.6z"/>
<path class="st122" d="M300.7,424.6c-2.1,0-3.9-1.6-4.1-3.8c-0.2-2.3,1.5-4.3,3.7-4.5c26-2.3,49.2-6.6,69.1-12.7
	c2.2-0.7,4.5,0.5,5.2,2.7c0.7,2.2-0.5,4.5-2.7,5.2c-20.4,6.3-44.2,10.7-70.8,13.1C300.9,424.6,300.8,424.6,300.7,424.6z"/>
<path class="st123" d="M470.5,54.8c4.3-5.3,3.4-13.1-1.9-17.4c-5.3-4.3-13.1-3.4-17.4,1.9c-0.8,1-20.5,25.7-40,75.9
	c-14.4,37.1-23.7,75.2-29.6,111.2c-0.3,1.7-2.3,2.5-3.7,1.5c-20.2-15.7-43-27.2-67.1-34.1c-1.1-0.3-1.8-1.3-1.7-2.4
	c0.1-1.6,0.3-3.2,0.4-4.7c0.1-1.3,1.2-2.3,2.5-2.2c1.5,0.1,3.1,0.1,4.6,0.1c15.3,0,27.8-4.4,37.5-13.1
	c20.8-18.8,18.8-50.6,18.3-55.7c-0.1-3.7-0.9-26.2-4.5-49.6C361.8,27,351,7,334.1,3.3c-16.8-3.7-34.9,10-57,43.1
	c-13.4,20.1-23.7,40.5-25.1,43.3c-2.1,3.9-17.1,32.8-5.6,58.8c6.3,14.2,18.7,24.4,37.1,30.6c1.1,0.4,1.8,1.4,1.7,2.5
	c-0.1,1.4-0.3,2.9-0.4,4.3c-0.1,1.3-1.3,2.3-2.6,2.1c-8.2-1.1-16.5-1.6-24.8-1.6c-8.8,0-17.5,0.6-26.1,1.8c-1.2,0.2-2.3-0.6-2.6-1.8
	c-6.3-29.5-13.9-54.1-21-73.2C190.4,66,173,41,172.3,40c-3.9-5.6-11.6-6.9-17.2-3c-5.6,3.9-6.9,11.6-3,17.2
	c0.5,0.7,33.4,48.5,52.5,137.2c0.3,1.2-0.5,2.4-1.6,2.7c-23.8,6.9-46.3,18.4-66.2,33.9c-1.3,1-3.3,0.3-3.7-1.3
	c-1.9-7.9-4-15.3-6.2-22.3c-0.3-1.1,0.1-2.2,1-2.8c18.6-11.6,29.4-26,32.1-42.8c4.9-29.9-18.5-55.5-22.2-59.4
	c-2.5-3-18.6-21.8-37.9-39.4C68.1,31,45.5,21.2,29,29.4c-16.5,8.1-22.4,31.9-18.7,74.9c2.3,26.5,7.5,51,8.2,54.3
	c0.8,4.6,7.6,39.3,35,53.5c7.6,4,16,6,25,6c7.2,0,14.9-1.3,22.9-3.9c1.3-0.4,2.6,0.3,3,1.6c3,10,5.8,21,8.1,33.2
	c0.1,0.7-0.1,1.5-0.6,2c-28.6,31.2-44.8,69.3-44.8,106.6c0,21.3,5.3,41.2,15.7,59.1c9.8,16.8,23.9,31.5,41.9,43.6
	c34.1,22.9,81.3,35.6,132.7,35.6s98.6-12.6,132.7-35.6c18-12.1,32.1-26.8,41.9-43.6c10.4-17.9,15.7-37.7,15.7-59.1
	c0-36.9-15.9-74.7-44-105.8c-0.5-0.5-0.7-1.2-0.6-1.9c7.2-54.2,19.6-95.7,30.7-124.4C451.9,78.5,470.2,55.2,470.5,54.8z
	 M269.1,138.5c-5.9-13.2,1.3-31.2,4.6-37c0.1-0.2,0.2-0.4,0.3-0.7c0-0.1,2.3-4.7,6.1-11.6c1.9-3.4,6.8-3.6,8.9-0.4l3.6,5.5
	c0.8,1.2,2.1,1.9,3.4,1.9c0.9,0,1.7-0.3,2.5-0.8c1.8-1.3,2.1-3.9,0.9-5.7l-7.8-11.9c-1.6-2.5-1.7-5.7-0.1-8.2
	c1.7-2.8,3.5-5.6,5.4-8.4c12.8-19.4,21.5-27.7,26.6-31.2c3.1-2.2,7.4-1.1,9.3,2.2c3.3,5.8,7.6,17.4,10.9,39c0.5,3.6,1,7.1,1.4,10.6
	c0.3,2.9-1,5.8-3.5,7.4l-11.7,7.3c-1.9,1.2-2.7,3.6-1.6,5.6c0.8,1.4,2.2,2.2,3.6,2.2c0.7,0,1.5-0.2,2.2-0.6l5.1-3.2
	c3.3-2.1,7.7,0.2,7.9,4.1c0.5,7.6,0.6,12.5,0.6,12.6c0,0.3,0,0.7,0.1,1.1c0.7,6.6,0.2,25.8-10.3,35.2c-4.8,4.3-11.6,6.5-20.3,6.6
	c-2.4,0-4.3-2.2-4-4.6c1.5-10.3,3-19,4.5-26.3c1.3-6.7-2.7-13.4-9.3-14.9c-6.8-1.5-13.4,2.8-14.8,9.6c-1.4,7.1-2.9,15.6-4.4,25.4
	c-0.4,2.7-3.4,4.2-5.8,3C276.4,148.6,271.6,144.1,269.1,138.5z M64.9,190.2c-8.8-4.5-14.2-13.6-17.3-20.5
	c-3.6-8.1-4.8-15.2-4.8-15.4c0-0.2-0.1-0.5-0.1-0.7c0-0.1-1.2-5.7-2.8-14.2c-0.8-4.7,3.7-8.6,8.2-7.1l7.4,2.4
	c0.4,0.1,0.9,0.2,1.3,0.2c1.8,0,3.5-1.2,4-3c0.6-2.2-0.8-4.4-2.9-5.1l-17.4-5.7c-2.2-0.7-3.8-2.7-4.1-5c-0.6-4.6-1.1-9.3-1.5-14.1
	c-2.1-25,0.8-39,3-45.6c1-2.9,4.2-4.5,7.1-3.5c6.6,2.3,19.6,8.5,38.1,25.4c3.6,3.3,7.2,6.7,10.5,10.1c1.7,1.6,2.2,4.1,1.4,6.3
	l-5.9,16.8c-0.7,1.9,0,4.2,1.8,5.2c0.7,0.4,1.4,0.5,2,0.5c1.7,0,3.3-1.1,3.9-2.8l2.4-6.8c1.6-4.5,7.4-5.7,10.7-2.2
	c5.7,6.2,9.2,10.4,9.3,10.5c0.2,0.3,0.5,0.6,0.8,0.8c0.2,0.2,18.8,19.2,15.7,38.3c-1.1,7-5.2,13.5-12.1,19.5
	c-2.8,2.4-7.2,1.5-8.7-1.9c-4.9-10.9-9.6-19.7-13.7-26.5c-3.5-5.9-11.1-8.1-17.1-4.7c-6,3.5-7.9,11.2-4.3,17.1
	c3.4,5.7,8.2,14.4,13.2,26c1.4,3.1-0.4,6.8-3.8,7.6C79.7,194.2,71.6,193.6,64.9,190.2z M306.4,262.2c0-13.6,0.3-26.2,0.8-38
	c0.1-2.8,2.9-4.8,5.6-3.9c22.7,7.8,43.9,20.4,62.1,37.3c0,0,0,0,0,0c1.4,1.3,2,3.1,1.8,5c-3.3,30.4-4.4,58.4-4.4,81.9H397
	c0-19.8,0.8-38.4,2.1-56c0.1-0.8,1.2-1.1,1.6-0.4c14.4,21.9,22.3,46,22.3,69.4c0,42-25.4,67.9-46.7,82.2
	c-30.1,20.2-72.3,31.4-118.9,31.4s-88.9-11.1-118.9-31.4c-21.3-14.3-46.7-40.2-46.7-82.2c0-35,17.6-71.4,48.2-99.9
	c19-17.6,41.1-30.6,64.9-38.3c2.5-0.8,5.1,0.8,5.5,3.4c4.5,28.6,7.3,60.6,7.4,95.9c8-0.3,16.3-0.5,24.7-0.7
	c-0.1-37.4-3.3-71.2-8-101c-0.4-2.4,1.3-4.6,3.7-4.9c6.3-0.7,12.8-1.1,19.2-1.1c7.3,0,14.5,0.5,21.6,1.4c2.2,0.3,3.8,2.2,3.7,4.4
	c-0.7,13.7-1.1,28.5-1.1,44.5L306.4,262.2z"/>
<path class="st122" d="M349.5,268c-27.8-7.5-59.6-11.4-92.1-11.4c-6,0-12,0.1-17.9,0.4c0.3,2.7,0.5,5.5,0.7,8.2
	c5.7-0.2,11.4-0.4,17.1-0.4c31.8,0,62.9,3.9,89.9,11.2c0.4,0.1,0.7,0.1,1.1,0.1c1.8,0,3.5-1.2,4-3C353,270.8,351.7,268.6,349.5,268z
	"/>
<path class="st122" d="M174.4,326.5c-2.1,0-3.9-1.6-4.1-3.7c-0.2-2.3,1.4-4.3,3.7-4.5c27.6-2.9,59.3-4.5,91.7-4.5
	c5.9,0,11.8,0.1,17.6,0.2c2.3,0,4.1,1.9,4,4.2c0,2.3-1.9,4.1-4.2,4c-5.8-0.1-11.6-0.1-17.4-0.1c-32.1,0-63.5,1.5-90.8,4.4
	C174.7,326.5,174.5,326.5,174.4,326.5z"/>
<path class="st122" d="M325.2,349.5c0,2.2,1.9,4,4.1,4c0,0,0.1,0,0.1,0c42.5-1,75.6-2.7,93.3-4.9c-0.2-2.7-0.6-5.5-1-8.2
	c-17.2,2.1-50.8,3.9-92.5,4.8C326.9,345.3,325.1,347.2,325.2,349.5z"/>
</svg>
