<?xml version="1.0" encoding="utf-8"?>
<!-- Generator: Adobe Illustrator 20.0.0, SVG Export Plug-In . SVG Version: 6.00 Build 0)  -->
<svg version="1.1" id="Layer_1" xmlns="http://www.w3.org/2000/svg" xmlns:xlink="http://www.w3.org/1999/xlink" x="0px" y="0px"
	 viewBox="0 0 500 500" style="enable-background:new 0 0 500 500;" xml:space="preserve">
<style type="text/css">
	.st0{fill:#3F4C1C;stroke:#314217;stroke-width:3;stroke-miterlimit:10;}
	.st1{fill:none;stroke:#B8CC69;stroke-width:3;stroke-miterlimit:10;}
	.st2{display:none;fill:#D1A982;}
	.st3{fill:#ECE8DB;}
	.st4{fill:#5B3A03;}
	.st5{fill:#719E7F;stroke:#667F40;stroke-width:3;stroke-linecap:round;stroke-linejoin:round;stroke-miterlimit:10;}
	.st6{fill:#719E7F;stroke:#667F40;stroke-linecap:round;stroke-linejoin:round;stroke-miterlimit:10;}
	.st7{fill:none;stroke:#667F40;stroke-width:3;stroke-linecap:round;stroke-miterlimit:10;}
	.st8{fill:#4D6261;}
	.st9{fill:#ECE8DB;stroke:#5B3A03;stroke-width:3;stroke-miterlimit:10;}
	.st10{fill:#BCE680;}
	.st11{fill:none;stroke:#F0FDC5;stroke-linecap:round;stroke-linejoin:round;stroke-miterlimit:10;}
	.st12{fill:#8DC70C;}
	.st13{fill:#ECFE78;}
	.st14{fill:#73953B;}
	.st15{fill:#3D710C;}
	.st16{fill:#73953B;stroke:#3D710C;stroke-width:3;stroke-linejoin:round;stroke-miterlimit:10;}
	.st17{fill:#EFE8D7;stroke:#DABB95;stroke-width:3;stroke-linejoin:round;stroke-miterlimit:10;}
	.st18{opacity:0.6;fill:none;stroke:#BF71B0;stroke-width:3;stroke-miterlimit:10;}
	.st19{opacity:0.4;fill:none;stroke:#BF71B0;stroke-width:3;stroke-miterlimit:10;}
	.st20{opacity:0.3;fill:none;stroke:#BF71B0;stroke-width:3;stroke-miterlimit:10;}
	.st21{opacity:0.2;fill:none;stroke:#BF71B0;stroke-width:3;stroke-miterlimit:10;}
	.st22{opacity:0.1;fill:none;stroke:#BF71B0;stroke-width:3;stroke-miterlimit:10;}
	.st23{fill:#77A45B;}
	.st24{fill:none;stroke:#FFFFFF;stroke-linecap:round;stroke-linejoin:round;stroke-miterlimit:10;}
	.st25{fill:#00FFFF;}
	.st26{fill:#E50F4F;}
	.st27{fill:#5A8700;}
	.st28{fill:#9D9F01;}
	.st29{fill:none;stroke:#BFBF04;stroke-linecap:round;stroke-linejoin:round;stroke-miterlimit:10;}
	.st30{fill:none;stroke:#CAD058;stroke-linecap:round;stroke-linejoin:round;stroke-miterlimit:10;}
	.st31{fill:#E21039;stroke:#930019;stroke-width:3;stroke-linejoin:round;stroke-miterlimit:10;}
	.st32{fill:#77A45B;stroke:#3D710C;stroke-linecap:round;stroke-linejoin:round;stroke-miterlimit:10;}
	.st33{fill:none;stroke:#77A45B;stroke-width:3;stroke-miterlimit:10;}
	.st34{opacity:0.5;fill:none;stroke:#FFFFFF;stroke-width:3;stroke-linejoin:round;stroke-miterlimit:10;}
	.st35{opacity:0.7;fill:none;stroke:#FFFFFF;stroke-width:3;stroke-linejoin:round;stroke-miterlimit:10;}
	.st36{opacity:0.9;fill:none;stroke:#FFFFFF;stroke-width:3;stroke-linejoin:round;stroke-miterlimit:10;}
	.st37{opacity:0.3;fill:none;stroke:#FFFFFF;stroke-width:3;stroke-linejoin:round;stroke-miterlimit:10;}
	.st38{opacity:0.2;fill:none;stroke:#FFFFFF;stroke-width:3;stroke-linejoin:round;stroke-miterlimit:10;}
	.st39{fill:#E21039;}
	.st40{fill:#930019;}
	.st41{fill:#F4E5E8;}
	.st42{fill:#DEB2BA;}
	.st43{fill:#C8818D;}
	.st44{fill:#B14D5F;}
	.st45{fill:#FFFFFF;}
	.st46{fill:#EFE8D7;}
	.st47{fill:#8C7662;}
	.st48{fill:#E50F4F;stroke:#930019;stroke-width:3;stroke-linejoin:round;stroke-miterlimit:10;}
	.st49{fill:none;stroke:#E87C94;stroke-width:3;stroke-linejoin:round;stroke-miterlimit:10;}
	.st50{fill:none;stroke:#E64872;stroke-width:3;stroke-linejoin:round;stroke-miterlimit:10;}
	.st51{fill:none;stroke:#EBB2B6;stroke-width:3;stroke-linejoin:round;stroke-miterlimit:10;}
	.st52{fill:none;stroke:#930019;stroke-width:3;stroke-linejoin:round;stroke-miterlimit:10;}
	.st53{fill:#E87C94;}
	.st54{fill:#E64872;}
	.st55{fill:#EBB2B6;}
	.st56{opacity:0.7;fill:none;stroke:#E50F4F;stroke-width:3;stroke-linejoin:round;stroke-miterlimit:10;}
	.st57{opacity:0.6;fill:none;stroke:#E50F4F;stroke-width:3;stroke-linejoin:round;stroke-miterlimit:10;}
	.st58{opacity:0.4;fill:none;stroke:#E50F4F;stroke-width:3;stroke-linejoin:round;stroke-miterlimit:10;}
	.st59{opacity:0.3;fill:none;stroke:#E50F4F;stroke-width:3;stroke-linejoin:round;stroke-miterlimit:10;}
	.st60{opacity:0.2;fill:none;stroke:#E50F4F;stroke-width:3;stroke-linejoin:round;stroke-miterlimit:10;}
	.st61{opacity:0.1;fill:none;stroke:#E50F4F;stroke-width:3;stroke-linejoin:round;stroke-miterlimit:10;}
	.st62{fill:none;stroke:#DABB95;stroke-width:3;stroke-linejoin:round;stroke-miterlimit:10;}
	.st63{fill:#77A45B;stroke:#3D710C;stroke-width:0.9521;stroke-linecap:round;stroke-linejoin:round;stroke-miterlimit:10;}
	.st64{fill:#DABB95;}
	.st65{fill:#E76886;}
	.st66{fill:#E87D94;}
	.st67{fill:#E992A2;}
	.st68{fill:#EBA7AF;}
	.st69{fill:#ECBDBD;}
	.st70{fill:#EDD2CA;}
	.st71{opacity:0.6;fill:#BF71B0;}
	.st72{opacity:0.5;fill:#BF71B0;}
	.st73{opacity:0.4;fill:#BF71B0;}
	.st74{opacity:0.3;fill:#BF71B0;}
	.st75{opacity:0.2;fill:#BF71B0;}
	.st76{fill:#FCD24F;stroke:#BA8822;stroke-width:3;stroke-linejoin:round;stroke-miterlimit:10;}
	.st77{opacity:0.9;fill:none;stroke:#732429;stroke-width:3;stroke-miterlimit:10;}
	.st78{opacity:0.8;fill:none;stroke:#732429;stroke-width:3;stroke-miterlimit:10;}
	.st79{opacity:0.7;fill:none;stroke:#732429;stroke-width:3;stroke-miterlimit:10;}
	.st80{opacity:0.6;fill:none;stroke:#732429;stroke-width:3;stroke-miterlimit:10;}
	.st81{opacity:0.5;fill:none;stroke:#732429;stroke-width:3;stroke-miterlimit:10;}
	.st82{opacity:0.4;fill:none;stroke:#732429;stroke-width:3;stroke-miterlimit:10;}
	.st83{fill:none;stroke:#BA8822;stroke-width:3;stroke-linejoin:round;stroke-miterlimit:10;}
	.st84{fill:#FCD24F;}
	.st85{fill:#BA8822;}
	.st86{fill:#80352F;}
	.st87{fill:#8D4734;}
	.st88{fill:#9B5838;}
	.st89{fill:#A96A3D;}
	.st90{fill:#B77A42;}
	.st91{fill:#C48B47;}
	.st92{fill:#5B774B;}
	.st93{fill:none;stroke:#ECFE78;stroke-linecap:round;stroke-linejoin:round;stroke-miterlimit:10;}
	.st94{fill:none;stroke:#5B774B;stroke-miterlimit:10;}
	.st95{fill:none;stroke:#ECFE78;stroke-linecap:round;stroke-miterlimit:10;}
	.st96{fill:none;stroke:#5B774B;stroke-linejoin:round;stroke-miterlimit:10;}
	.st97{fill:none;stroke:#89A037;stroke-linecap:round;stroke-linejoin:round;stroke-miterlimit:10;}
	.st98{fill:none;stroke:#89A037;stroke-width:3;stroke-linecap:round;stroke-linejoin:round;stroke-miterlimit:10;}
	.st99{fill:none;stroke:#89A037;stroke-width:3.3343;stroke-linecap:round;stroke-linejoin:round;stroke-miterlimit:10;}
	.st100{fill:#F0FDC5;}
	.st101{fill:#839958;}
	.st102{fill:#AA2F66;}
	.st103{fill:#D8CBC5;}
	.st104{fill:#662128;}
	.st105{fill:#BCE680;stroke:#5B774B;stroke-width:3.1491;stroke-miterlimit:10;}
	.st106{fill:#ECE8DB;stroke:#5B3A03;stroke-miterlimit:10;}
	.st107{fill:none;stroke:#00FF00;stroke-miterlimit:10;}
	.st108{fill:none;stroke:#00FF00;stroke-width:1.0757;stroke-miterlimit:10;}
	.st109{clip-path:url(#SVGID_2_);}
	.st110{fill:none;stroke:#000000;stroke-miterlimit:10;}
	.st111{fill:none;stroke:#000000;stroke-width:1.16;stroke-miterlimit:10;}
	.st112{fill:#7AA66D;}
	.st113{fill:#8BC133;}
	.st114{fill:none;stroke:#000000;stroke-width:0.9135;stroke-miterlimit:10;}
	.st115{fill:none;stroke:#000000;stroke-width:5.9645;stroke-miterlimit:10;}
	.st116{fill:none;stroke:#000000;stroke-width:1.9086;stroke-linecap:round;stroke-linejoin:round;stroke-miterlimit:10;}
	.st117{fill:none;stroke:#4D6261;stroke-width:0.9577;stroke-linecap:round;stroke-linejoin:round;stroke-miterlimit:10;}
	.st118{fill:#7AA66D;stroke:#4D6261;stroke-width:0.9577;stroke-miterlimit:10;}
	.st119{fill:none;stroke:#4D6261;stroke-width:0.9577;stroke-miterlimit:10;}
	.st120{fill:#D2DE8F;stroke:#667F40;stroke-width:3;stroke-miterlimit:10;}
	.st121{fill:none;stroke:#FAFAEE;stroke-linecap:round;stroke-miterlimit:10;}
	.st122{fill:#D2DE8F;}
	.st123{fill:none;stroke:#667F40;stroke-width:3;stroke-miterlimit:10;}
	.st124{fill:#77A578;}
	.st125{fill:#719E7F;}
	.st126{fill:#FAFAEE;}
	.st127{fill:#667F40;}
	.st128{fill:#ECE8DB;stroke:#5B3A03;stroke-width:0.9644;stroke-miterlimit:10;}
	.st129{fill:#7AA66D;stroke:#4D6261;stroke-width:3.6;stroke-linecap:round;stroke-linejoin:round;stroke-miterlimit:10;}
	.st130{fill:none;stroke:#D2DE8F;stroke-miterlimit:10;}
	.st131{fill:none;stroke:#4D6261;stroke-width:3.6;stroke-linecap:round;stroke-linejoin:round;stroke-miterlimit:10;}
	.st132{fill:#ECE8DB;stroke:#5B3A03;stroke-linecap:round;stroke-linejoin:round;stroke-miterlimit:10;}
	.st133{fill:#FAD673;}
	.st134{fill:#CE731F;}
	.st135{fill:#D15CD4;}
	.st136{fill:#701975;}
	.st137{fill:#009245;stroke:#006837;stroke-width:3;stroke-miterlimit:10;}
	.st138{fill:#009245;stroke:#006837;stroke-width:3;stroke-linecap:round;stroke-linejoin:round;stroke-miterlimit:10;}
	.st139{fill:#3F4C1C;stroke:#314217;stroke-miterlimit:10;}
	.st140{fill:#4E6624;stroke:#314217;stroke-width:3;stroke-miterlimit:10;}
	.st141{fill:none;stroke:#314217;stroke-width:3;stroke-miterlimit:10;}
	.st142{fill:#3F4C1C;}
	.st143{fill:#B8CC69;}
	.st144{fill:#273312;}
</style>
<path class="st142" d="M468.7,135.8c2-3.9,3.1-8.3,3.2-13c0.1-6.1-1.7-11.8-4.7-16.5c-4.7-7.4-7.5-16-5.5-24.6
	c1.1-4.6,1-9.5-0.3-14.4c-2.3-8.3-7.8-14.7-14.9-18.4c-6.5-3.4-11.6-8.9-14.3-15.6c0,0-4.5-11.9-17.2-16.5
	c-52.5-19.1-125,46.8-162.2,147.6c-0.8,2.3-1.6,4.6-2.3,6.9c-0.8-2.3-1.5-4.6-2.3-6.9C211,63.6,138.5-2.3,86,16.8
	c-12.7,4.6-17.2,16.5-17.2,16.5c-2.8,6.7-7.9,12.2-14.3,15.6c-7,3.7-12.6,10.1-14.9,18.4c-1.3,4.9-1.4,9.8-0.3,14.4
	c2,8.5-0.8,17.2-5.5,24.6c-3.1,4.8-4.8,10.4-4.7,16.5c0.1,4.7,1.2,9.1,3.2,13c3.8,7.4,4.3,16.2,1.5,24c-2.3,6.3-2.5,13.4,0,20.2
	c0.8,2.1,1.8,4.1,3,5.9c3.9,6,5.8,13.1,4.5,20.1c-0.9,5-0.6,10.4,1.3,15.5c1.3,3.5,3.2,6.6,5.5,9.3c5.7,6.5,8.7,14.8,8.5,23.4
	c-0.1,3.5,0.5,7.1,1.8,10.6c2.1,5.7,5.7,10.3,10.3,13.7c6.1,4.5,10.1,11.4,11.2,18.9c0.6,4.3,2.2,8.4,4.8,12.2
	c2.9,4.2,6.6,7.5,10.9,9.6c7,3.6,12,10.3,14.2,17.8c0.9,3.2,2.4,6.2,4.4,9c2.4,3.3,5.4,6,8.7,8c7.2,4.3,12.3,11.3,14.6,19.4
	c0.7,2.5,1.7,4.9,3.1,7.2c2.2,3.7,5.1,6.8,8.4,9.1c8.2,5.7,12.8,14.8,13.8,24.7c0.2,2.4,0.8,4.7,1.6,7.1c1.7,4.6,4.2,8.7,7.7,11.6
	c7.9,6.4,14,16.9,14.2,25.2c0.1,7.4,2.9,18.9,4,22l60.4-22l60.4,22c1.1-3.1,3.9-14.6,4-22c0.1-8.3,6.3-18.8,14.2-25.2
	c3.5-2.9,6.1-7,7.7-11.6c0.8-2.3,1.4-4.7,1.6-7.1c1-9.9,5.7-19,13.8-24.7c3.3-2.3,6.2-5.4,8.4-9.1c1.4-2.3,2.4-4.7,3.1-7.2
	c2.3-8.1,7.4-15.1,14.6-19.4c3.3-2,6.3-4.6,8.7-8c2-2.8,3.5-5.9,4.4-9c2.2-7.5,7.2-14.2,14.2-17.8c4.2-2.2,8-5.4,10.9-9.6
	c2.6-3.8,4.2-8,4.8-12.2c1.1-7.5,5.1-14.4,11.2-18.9c4.5-3.3,8.2-8,10.3-13.7c1.3-3.5,1.8-7.1,1.8-10.6c-0.2-8.7,2.8-16.9,8.5-23.4
	c2.3-2.6,4.2-5.7,5.5-9.3c1.9-5.2,2.2-10.5,1.3-15.5c-1.3-7.1,0.6-14.1,4.5-20.1c1.2-1.8,2.2-3.8,3-5.9c2.5-6.8,2.3-13.9,0-20.2
	C464.4,152,464.9,143.3,468.7,135.8z"/>
<path class="st143" d="M398.8,46.1c-2-0.8-4.3,0.2-5,2.3l-127.6,353c2.4,10.5,5.2,20.5,8.5,29.6l1.8,5l-26.4,9.6l-4.3,12l22.4,6.8
	L401,51.1C401.8,49.1,400.8,46.9,398.8,46.1z"/>
<path class="st143" d="M105.3,48.4c-0.8-2-3-3-5-2.3c-2,0.8-3,3-2.3,5l132.8,413.3l22.4-6.8L105.3,48.4z"/>
<path class="st45" d="M78,223.3c-1.3,0-2.6-0.7-3.3-1.9c-3.7-6.1-5.8-13.2-5.8-20.4c-0.1-7-1.5-13.8-4.3-20.4
	c-2.9-6.9-3.8-14.4-2.6-21.8c1.3-8.2,0.8-16.8-1.4-24.9c-2.1-7.6-1.6-15.8,1.5-23c0.9-2,3.1-2.9,5.1-2c2,0.9,2.9,3.1,2,5.1
	c-2.4,5.6-2.8,11.9-1.2,17.8c2.6,9.1,3.1,18.9,1.6,28.2c-1,6-0.2,12,2.1,17.6c3.2,7.5,4.8,15.4,4.9,23.4c0.1,5.8,1.7,11.5,4.7,16.4
	c1.1,1.8,0.5,4.2-1.3,5.4C79.4,223.1,78.7,223.3,78,223.3z M282,179.1c-0.4,0-0.9-0.1-1.3-0.2c-2-0.7-3.1-3-2.3-5
	c4.2-11.5,9-22.7,14.3-33.4c1-1.9,3.3-2.7,5.2-1.8c1.9,1,2.7,3.3,1.8,5.2c-5.2,10.4-9.9,21.4-14,32.6
	C285.1,178.1,283.6,179.1,282,179.1z M324.2,100.5c-0.8,0-1.6-0.3-2.3-0.8c-1.7-1.3-2.1-3.7-0.8-5.5c6.9-9.1,14-17.3,21.4-24.4
	c1.5-1.5,4-1.5,5.5,0.1c1.5,1.5,1.5,4-0.1,5.5c-7,6.9-14,14.8-20.6,23.6C326.5,100,325.4,100.5,324.2,100.5z"/>
<circle class="st45" cx="308.8" cy="118.5" r="3.9"/>
<circle class="st45" cx="71" cy="90.8" r="3.9"/>
<path class="st144" d="M479.1,141.1c2.9-5.6,4.4-11.7,4.5-18.1c0.1-8.2-2.2-16.2-6.6-23c-2.5-3.9-5.3-9.8-3.9-15.6
	c1.5-6.6,1.4-13.6-0.4-20.1c-3-11-10.6-20.4-20.7-25.6c-4-2.1-7.2-5.5-8.9-9.6c-1-2.5-7.4-17.1-24.1-23.1
	C389.2-5,354.2,6.1,320.2,37c-27.3,24.9-51.7,60.5-69.8,101.9C232.3,97.5,208,61.9,180.7,37c-34-30.9-69-42-98.7-31.2
	C65.3,11.9,58.9,26.5,57.9,29c-1.7,4.1-4.9,7.5-8.9,9.6c-10.1,5.3-17.7,14.6-20.7,25.6c-1.8,6.6-2,13.5-0.4,20.1
	c1.3,5.8-1.4,11.7-3.9,15.6c-4.4,6.9-6.7,14.8-6.6,23c0.1,6.4,1.6,12.4,4.5,18.1c2.3,4.6,2.6,9.9,0.9,14.8c-3.3,9.1-3.3,19.1,0,28.2
	c1.1,2.9,2.5,5.7,4.2,8.4c1.8,2.7,3.7,6.9,2.8,11.6c-1.4,7.2-0.7,14.7,1.8,21.7c1.7,4.8,4.3,9.1,7.7,13c3.8,4.4,5.8,9.7,5.6,15.5
	c-0.1,5.1,0.7,10.1,2.5,14.8c2.8,7.7,7.7,14.3,14.3,19.1c3.4,2.5,5.8,6.7,6.5,11.2c0.9,6.2,3.2,11.9,6.7,17.1
	c3.9,5.7,9.1,10.3,15.2,13.4c3.9,2,7,6,8.3,10.7c1.3,4.5,3.4,8.8,6.1,12.6c3.3,4.5,7.4,8.3,12.1,11.2c4.5,2.7,7.8,7.2,9.3,12.5
	c1,3.5,2.4,6.9,4.3,10c3,5.1,7,9.3,11.8,12.7c5,3.5,8.2,9.3,8.9,16.3c0.3,3.4,1.1,6.7,2.3,9.9c2.5,7,6.4,12.6,11.3,16.7
	c5.8,4.8,9.8,12.3,9.9,16.4c0.2,8.9,3.2,21.5,4.7,25.8l4,11l67.4-24.5l67.4,24.5l4-11c1.6-4.3,4.6-16.9,4.7-25.8
	c0.1-4.1,4.1-11.6,9.9-16.4c5-4.1,8.8-9.7,11.3-16.7c1.2-3.2,1.9-6.5,2.3-9.9c0.7-7,3.9-12.8,8.9-16.3c4.8-3.4,8.8-7.6,11.8-12.7
	c1.9-3.1,3.3-6.5,4.3-10c1.5-5.4,4.8-9.8,9.3-12.5c4.8-2.9,8.9-6.6,12.1-11.2c2.8-3.8,4.8-8.1,6.2-12.6c1.4-4.7,4.5-8.7,8.3-10.7
	c6.1-3.1,11.3-7.8,15.2-13.4c3.5-5.2,5.8-10.9,6.7-17.1c0.7-4.5,3.1-8.7,6.5-11.2c6.6-4.8,11.5-11.4,14.3-19.1
	c1.7-4.8,2.6-9.8,2.5-14.8c-0.1-5.8,1.8-11.1,5.6-15.5c3.3-3.8,5.9-8.2,7.7-13c2.5-6.9,3.1-14.4,1.8-21.7c-0.9-4.7,1-8.9,2.8-11.6
	c1.7-2.6,3.1-5.4,4.2-8.3c3.3-9.1,3.3-19.1,0-28.2C476.5,151,476.8,145.7,479.1,141.1z M271,432.3l0.5,1.4l-73.7,26.8
	c-0.1-0.8-0.1-1.6-0.1-2.3c-0.2-11.5-7.6-25.2-18.5-34.1c-1.6-1.3-3.1-3.6-4.2-6.6c-0.5-1.4-0.8-2.8-1-4.3
	c-1.4-13.9-8.1-25.6-18.8-33.1c-2.1-1.4-3.8-3.3-5.1-5.5c-0.8-1.4-1.5-2.8-1.9-4.4c-3.1-11.2-10.2-20.5-19.8-26.3
	c-2-1.2-3.8-2.8-5.2-4.8c-1.2-1.7-2.1-3.5-2.6-5.4c-3.1-10.9-10.5-20-20.1-24.9c-2.7-1.4-4.9-3.3-6.6-5.8c-1.5-2.2-2.5-4.7-2.9-7.3
	c-1.6-10.7-7.3-20.4-15.8-26.6c-2.8-2.1-5-4.9-6.2-8.2c-0.7-2.1-1.1-4.2-1.1-6.4c0.2-11.6-3.8-22.7-11.4-31.4
	c-1.4-1.6-2.5-3.5-3.3-5.5c-1.1-3-1.4-6.2-0.8-9.4c1.8-9.5-0.3-19.5-6-28.3c-0.4-0.7-0.9-1.4-1.3-2.1c-2.2-4.6-2.4-9.5-0.7-14.2
	c4.1-10.9,2.8-22.9-2.3-33.4c-1.1-2.4-1.7-4.9-1.8-7.5c-0.1-3.6,0.9-7,2.9-10c7.1-11,9.6-22.6,7.1-33.5c-0.7-2.9-0.6-5.8,0.2-8.7
	c1.3-4.8,4.5-8.8,9-11.1c8.9-4.7,15.9-12.3,19.7-21.5l0,0l0.1-0.2c0.3-0.8,3.4-7.3,10.3-9.8c21.1-7.7,47.7,1.7,75,26.5
	c29.3,26.6,54.9,67.2,72.2,114.2c0.5,1.5,1,3,1.6,4.7l5.2,15.8c1.8,5.4,3.1,10.9,4,16.5c2.7,16.5,3.8,33.9,3.4,51.9
	C249.1,357.1,262.7,409.8,271,432.3z M456.2,163.8c1.4,4,1.4,8.2,0,12.2c-0.5,1.2-1.1,2.4-1.8,3.5c-5.8,8.9-8,19.1-6.2,28.7
	c0.6,3.2,0.3,6.3-0.8,9.4c-0.8,2.1-1.9,3.9-3.3,5.6c-7.6,8.7-11.7,19.8-11.4,31.4c0,2.2-0.3,4.3-1.1,6.4c-1.2,3.3-3.3,6.2-6.2,8.2
	c-8.5,6.2-14.2,15.9-15.8,26.6c-0.4,2.7-1.4,5.1-2.9,7.4c-1.7,2.5-3.9,4.5-6.6,5.8c-9.6,5-16.9,14.1-20.1,24.9
	c-0.6,1.9-1.5,3.8-2.6,5.4c-1.4,2-3.2,3.6-5.2,4.8c-9.7,5.8-16.7,15.1-19.8,26.3c-0.4,1.5-1.1,3-1.9,4.4c-1.3,2.2-3,4-5.1,5.5
	c-10.7,7.5-17.4,19.2-18.8,33.1c-0.1,1.4-0.5,2.9-1,4.3c-1.1,2.9-2.5,5.2-4.2,6.6c-10.8,8.9-18.3,22.6-18.5,34.1
	c0,1.9-0.3,4.3-0.7,6.7l-47-17.1l26.1-9.5l-3.2-8.7c-18.9-51.3-20.1-129.9-19.2-172.2c0.5-21.1-1.2-41.5-4.8-60.5l7.2-21.9l0.6-1.8
	c0.5-1.7,1.1-3.3,1.6-4.7c17.3-47,43-87.6,72.2-114.2c27.2-24.8,53.9-34.2,75-26.5c6.9,2.5,10,9.1,10.3,9.8l0.1,0.2
	c3.8,9.2,10.8,16.9,19.7,21.5c4.5,2.3,7.7,6.3,9,11.1c0.8,2.9,0.9,5.8,0.2,8.7c-2.5,10.9,0,22.5,7.1,33.5c1.9,3,2.9,6.4,2.9,10
	c0,2.8-0.7,5.4-1.9,7.9C453,140.8,452.3,153,456.2,163.8z"/>
</svg>
