<svg xmlns="http://www.w3.org/2000/svg" viewBox="0 0 48 48" width="48" height="48"><path fill="#5d4037" d="M27,13c0,1.7-1.3,3-3,3s-3-1.3-3-3l-2-2c0-1.7,3.3-4,5-4s5,2.3,5,4L27,13z"/><path fill="#5d4037" d="M17 15l5 2h4l5-2c0-3-2-4-2-4H19C19 11 17 12 17 15zM41 29c-.1 0-.2 0-.3-.1l-6.6-2.2L33 20.2c-.1-.5.3-1.1.8-1.2.5-.1 1.1.3 1.2.8l.9 5.4 5.4 1.8c.5.2.8.7.6 1.3C41.8 28.7 41.4 29 41 29zM41 42c-.2 0-.3 0-.4-.1l-4.4-2.2-2.1-6.4c-.2-.5.1-1.1.6-1.3.5-.2 1.1.1 1.3.6l1.9 5.6 3.6 1.8c.5.2.7.8.4 1.3C41.7 41.8 41.4 42 41 42zM7 29c-.4 0-.8-.3-.9-.7-.2-.5.1-1.1.6-1.3l5.4-1.8.9-5.4c.1-.5.6-.9 1.2-.8.5.1.9.6.8 1.2l-1.1 6.6L7.3 29C7.2 29 7.1 29 7 29zM7 42c-.4 0-.7-.2-.9-.6-.2-.5 0-1.1.4-1.3l3.6-1.8 1.9-5.6c.2-.5.7-.8 1.3-.6.5.2.8.7.6 1.3l-2.1 6.4-4.4 2.2C7.3 42 7.2 42 7 42z"/><path fill="#5d4037" d="M37.6,19H24c-0.6,0-1-0.4-1-1s0.4-1,1-1h12.4l2.7-4.5c0.3-0.5,0.9-0.6,1.4-0.3 c0.5,0.3,0.6,0.9,0.3,1.4L37.6,19z"/><path fill="#5d4037" d="M24 19H10.4l-3.3-5.5C6.9 13 7 12.4 7.5 12.1 8 11.9 8.6 12 8.9 12.5l2.7 4.5H24c.6 0 1 .4 1 1S24.6 19 24 19zM23 10c-.3 0-.5-.1-.7-.3C22.2 9.6 20.5 8 17 8c-.6 0-1-.4-1-1s.4-1 1-1c4.4 0 6.6 2.2 6.7 2.3.4.4.4 1 0 1.4C23.5 9.9 23.3 10 23 10z"/><path fill="#5d4037" d="M25,10c-0.3,0-0.5-0.1-0.7-0.3c-0.4-0.4-0.4-1,0-1.4C24.4,8.2,26.6,6,31,6c0.6,0,1,0.4,1,1 s-0.4,1-1,1c-3.5,0-5.2,1.6-5.3,1.7C25.5,9.9,25.3,10,25,10z"/><path fill="#b71c1c" d="M23,20h2v22h-2V20z"/><path fill="#ff3d00" d="M15.2,17c-2.4,2.4-4.2,5.8-4.2,10c0,8.8,7.7,15,12,15l1-23l1,23c4.3,0,12-6.2,12-15 c0-4.2-1.8-7.6-4.2-10H15.2z"/><path fill="#3e2723" d="M24 22c2.8 0 5-2.2 5-5H19C19 19.8 21.2 22 24 22zM32 28.5c0 1.4-1.1 2.5-2.5 2.5S27 29.9 27 28.5s1.1-2.5 2.5-2.5S32 27.1 32 28.5zM21 28.5c0 1.4-1.1 2.5-2.5 2.5S16 29.9 16 28.5s1.1-2.5 2.5-2.5S21 27.1 21 28.5zM13.3 22.4c-.5 1-.4 2.1.4 2.5.7.4 1.7-.1 2.3-1.1.5-1 .4-2.1-.4-2.5C14.8 20.9 13.8 21.4 13.3 22.4zM34.9 22.4c-.5-1-1.5-1.4-2.3-1.1s-.9 1.5-.4 2.5c.5 1 1.5 1.4 2.3 1.1C35.3 24.5 35.5 23.4 34.9 22.4zM29.4 37.6c.6.6 1.7.4 2.5-.4s.9-1.9.4-2.5-1.7-.4-2.5.4S28.8 37.1 29.4 37.6zM19.2 37.6c.6-.6.4-1.7-.4-2.5s-1.9-.9-2.5-.4-.4 1.7.4 2.5S18.6 38.2 19.2 37.6z"/><path fill="#a1887f" d="M29 11h-2v2c0 .6.4 1 1 1h2.9C30.5 11.8 29 11 29 11zM19 11h2v2c0 .6-.4 1-1 1h-2.9C17.5 11.8 19 11 19 11z"/></svg>