<?xml version="1.0" encoding="utf-8"?>
<!-- Generator: Adobe Illustrator 20.0.0, SVG Export Plug-In . SVG Version: 6.00 Build 0)  -->
<svg version="1.1" id="Layer_1" xmlns="http://www.w3.org/2000/svg" xmlns:xlink="http://www.w3.org/1999/xlink" x="0px" y="0px"
	 viewBox="0 0 500 500" style="enable-background:new 0 0 500 500;" xml:space="preserve">
<style type="text/css">
	.st0{fill:#8F9E78;}
	.st1{fill:#8160A8;}
	.st2{fill:#3A195B;}
	.st3{fill:#D1A982;}
	.st4{fill:#546633;}
	.st5{fill:none;stroke:#546633;stroke-width:3;stroke-linecap:round;stroke-linejoin:round;stroke-miterlimit:10;}
	.st6{fill:#8160A8;stroke:#3A195B;stroke-width:3;stroke-linecap:round;stroke-linejoin:round;stroke-miterlimit:10;}
	.st7{fill:none;stroke:#546633;stroke-width:2;stroke-linecap:round;stroke-linejoin:round;stroke-miterlimit:10;}
	.st8{fill:#92B851;}
	.st9{fill:#197723;}
	.st10{fill:#4CAC49;stroke:#197723;stroke-linecap:round;stroke-linejoin:round;stroke-miterlimit:10;}
	.st11{fill:#4CAC49;}
	.st12{fill:#70BD9E;}
	.st13{fill:none;stroke:#197723;stroke-linecap:round;stroke-linejoin:round;stroke-miterlimit:10;}
	.st14{fill:none;stroke:#92B851;stroke-linecap:round;stroke-linejoin:round;stroke-miterlimit:10;}
	.st15{fill:none;stroke:#FFFFFF;stroke-linecap:round;stroke-linejoin:round;stroke-miterlimit:10;}
	.st16{fill:none;stroke:#92B851;stroke-width:2;stroke-linecap:round;stroke-linejoin:round;stroke-miterlimit:10;}
	.st17{fill:#8AA77B;}
	.st18{fill:#365219;}
	.st19{fill:#6E9635;}
	.st20{fill:none;stroke:#365219;stroke-linecap:round;stroke-miterlimit:10;}
	.st21{fill:none;stroke:#FFFFFF;stroke-linecap:round;stroke-miterlimit:10;}
	.st22{fill:#90C53E;}
	.st23{fill:#218100;}
	.st24{fill:#5ABC18;}
	.st25{fill:#1C6600;}
	.st26{fill:#5ABC18;stroke:#1C6600;stroke-linecap:round;stroke-linejoin:round;stroke-miterlimit:10;}
	.st27{fill:#00FFFF;}
	.st28{clip-path:url(#SVGID_2_);}
	.st29{fill:#318F00;}
	.st30{fill:#006837;}
	.st31{fill:#FFFFFF;}
	.st32{fill:none;stroke:#218100;stroke-linecap:round;stroke-linejoin:round;stroke-miterlimit:10;}
	.st33{fill:#90C53E;stroke:#218100;stroke-width:3;stroke-miterlimit:10;}
	.st34{fill:#90C53E;stroke:#218100;stroke-miterlimit:10;}
	.st35{fill:#3D7519;}
	.st36{fill:none;stroke:#365219;stroke-width:0.9309;stroke-linecap:round;stroke-miterlimit:10;}
	.st37{fill:none;stroke:#365219;stroke-width:1.1845;stroke-linecap:round;stroke-miterlimit:10;}
	.st38{fill:none;stroke:#365219;stroke-width:3;stroke-linecap:round;stroke-linejoin:round;stroke-miterlimit:10;}
	.st39{fill:#95B284;}
	.st40{fill:#567F0E;}
	.st41{fill:#70BD9E;stroke:#197723;stroke-linecap:round;stroke-linejoin:round;stroke-miterlimit:10;}
	.st42{fill:#8160A8;stroke:#3A195B;stroke-linecap:round;stroke-linejoin:round;stroke-miterlimit:10;}
	.st43{fill:none;stroke:#8F9E78;stroke-width:2;stroke-linecap:round;stroke-linejoin:round;stroke-miterlimit:10;}
	.st44{fill:#8160A8;stroke:#3A195B;stroke-miterlimit:10;}
</style>
<path class="st0" d="M270.3,473.7c-4,0-7.3-3.2-7.4-7.3c0-1.8-3.6-181.2,67.2-331.3c1.8-3.7,6.2-5.3,9.9-3.6
	c3.7,1.8,5.3,6.2,3.6,9.9c-69.2,146.9-65.8,322.9-65.8,324.6c0.1,4.1-3.2,7.5-7.3,7.6C270.5,473.7,270.4,473.7,270.3,473.7z"/>
<path class="st0" d="M243.1,473.7c-0.1,0-0.1,0-0.2,0c-4.1-0.1-7.4-3.5-7.3-7.6c0.1-2.2,4.4-226.6-83.8-413.8
	c-1.8-3.7-0.2-8.2,3.6-9.9c3.7-1.8,8.2-0.2,9.9,3.6c89.8,190.5,85.3,418.3,85.3,420.5C250.4,470.5,247.1,473.7,243.1,473.7z"/>
<path class="st1" d="M144.7,43.9c-2.6-7.2,0-14.9,6-17c5.9-2.2,12.9,1.9,15.5,9.2s4.6,25.2-2.1,27.6
	C157.5,66.1,147.4,51.1,144.7,43.9z"/>
<polygon class="st1" points="172.2,127.3 206.2,114.2 192.8,77.6 176,89.8 154.1,93.5 "/>
<polygon class="st1" points="177.6,228.4 211.6,210.8 250.6,214.8 236.5,251.5 221.4,248.5 209.7,257.5 "/>
<polygon class="st1" points="160.5,163.9 194.5,146.3 233.5,150.3 219.4,187 204.3,184 192.6,193.1 "/>
<path class="st1" d="M355.4,118.4c2.5-7.3-0.3-14.9-6.3-16.9s-12.9,2.2-15.4,9.5s-4.1,25.3,2.6,27.6
	C343.1,140.9,352.9,125.7,355.4,118.4z"/>
<path class="st1" d="M301.2,169c0.5-7.7,6-13.6,12.3-13.2c6,0.4,10.6,6.4,10.6,13.6c4.7-5.2,11.8-6.6,16.5-3.1
	c5.1,3.8,5.4,11.9,0.8,18l-19.6,14.9l-16.2-6.1L301.2,169z"/>
<polygon class="st1" points="277.1,223.1 305.3,221.9 331.4,239.5 329.9,253 305.3,265.9 295.5,258.8 282.7,262.6 271.4,236.7 "/>
<path class="st2" d="M300,271.1c-4,17.5-7.3,34.5-10,50.8l6.8-2.1l0.8,6.7h15.6c-0.1-0.2-0.2-0.4-0.2-0.6
	c2.3-13.7,4.8-27.2,7.7-40.5c9.1-3.1,17.3-8.3,21.9-12.3c6.9-5.9,11.6-14,13.1-22.6c1.8-10.2-0.9-20.4-7.4-28c-2.3-2.7-5-5-8-6.8
	c9.5-5.5,16.9-13.5,19.9-17.4c5.5-7.3,8.3-16.1,7.9-24.9c-0.3-6.3-2.2-12.3-5.5-17.4c0.7-1.6,1.4-3.2,2.2-4.7c1-2,1.7-4.2,2.2-6.3
	c5-6.5,8.7-13.7,10.6-19.1c3-8.6,2.9-17.9-0.2-26.1c-3.6-9.7-11.1-17.2-20.6-20.4c-3.4-1.2-7-1.8-10.7-1.8
	c-15.2,0-29,10.3-34.3,25.7c-2,5.8-3.5,14.5-3.4,23.2c-1,2.2-2.1,4.5-3.1,6.8c-14.8,3.6-26.2,17.3-27.2,34.1
	c-0.4,6.4,0.5,16.7,3.8,26.2c-0.6,1.8-1.2,3.7-1.8,5.5c-1.7,0.1-3.5,0.3-5.2,0.7c-3.8,0.8-7.3,2.3-10.5,4.3
	c-4.6-7.1-11.6-12.2-19.7-14.3c0.3-0.5,0.6-0.9,0.8-1.4c3.9-6.7,7.2-14.9,8.4-21.4c1.8-8.9,0.4-18.1-3.7-25.9
	c-4.9-9.1-13.4-15.5-23.2-17.4c-2-0.4-4-0.6-6-0.6c-0.5-1.5-1-3-1.5-4.4c3.8-10.9,4.1-22.5,3.7-27.3c-0.7-8.6-4.2-16.8-9.9-23
	c-4.6-5.1-10.5-8.6-16.9-10.3c-1.4-3.3-2.9-6.7-4.4-10.1c-0.3-7.1-1.7-14.5-3.7-20.1C182.7,13,169,3,154,3c-3.9,0-7.7,0.7-11.3,2
	c-9.4,3.4-16.8,11-20.2,20.8c-2.9,8.3-2.8,17.6,0.3,26.1c2.1,5.9,6.7,14.1,12.7,21c1.2,2.6,2.3,5.2,3.5,7.8
	c-3.6,5.3-5.6,11.7-5.8,18.5c-0.2,8.8,2.8,17.6,8.4,24.8c3,3.8,10.6,11.6,20.2,17c-3,1.9-5.6,4.2-7.9,6.9c-6.4,7.7-8.9,18-6.9,28.2
	c1.7,8.6,6.5,16.6,13.5,22.4c3.1,2.5,7.8,5.6,13.4,8.3c-1.3,1.1-2.6,2.2-3.7,3.5c-6.8,7.4-9.8,17.5-8.3,27.8
	c1.3,8.7,5.7,16.9,12.4,23c2.7,2.5,6.7,5.4,11.4,8.1c-5.7,4.5-10.1,12.2-8.8,23.1c0.3,2.2,0.8,4.7,1.5,7.9c1.1,4.7,3,11,5.4,18.8
	c0.8,2.4,1.6,5,2.4,7.6h9.8l2.1-50.8l22.9,12.2c-1.4-8.6-2.9-17.3-4.5-26.2c-0.6-3.5,1.3-7.1,4.7-8.2c0.3-0.1,0.5-0.2,0.8-0.2
	c0.1,0,0.1,0,0.2,0c4.1-1,8.1,1.7,8.9,5.8c1.7,9.4,3.3,18.6,4.8,27.6l19.6-20l12.6,60h6.1c2.9-18.6,6.6-38.4,11.3-58.6
	c0.8-3.3,3.8-5.7,7.3-5.4c0.5,0,1.1,0.1,1.7,0.2c0.1,0,0.1,0,0.2,0C298.4,263.5,300.8,267.3,300,271.1z M214.7,156.2
	c-0.2-1.5,0.3-3,1.4-4c0,0,0,0,0,0c1.4-1.1,2.9-1.7,4.4-1.7c0.4,0,0.7,0,1.1,0.1c1.8,0.4,3.4,1.6,4.5,3.6c1.2,2.2,1.5,5,1,7.7
	c-0.6,3.2-2.7,8.8-5.5,13.4c-3,4.9-5.4,6.3-6,6.1c-0.2,0-0.5-0.3-0.8-0.7C216.5,170.1,215.4,160.3,214.7,156.2z M190.6,184.3
	c-5-1.8-10.2-4.8-12.7-6.8c-2.2-1.8-3.7-4.2-4.1-6.6c-0.4-2.2,0-4.2,1.2-5.6c1.6-1.9,4.3-2.6,7.2-2c1.9,0.4,3.5,1.8,4.2,3.6
	c1.7,4.1,4.3,8.7,7.1,12.4c1.7,2.2,3.4,3.9,4.9,5.2c0.4,0.3,0.2,0.9-0.3,0.9C196.5,185.4,193.8,185.5,190.6,184.3z M192.7,161.7
	c-0.8-2.7-0.8-5.5,0.2-7.8c0.8-2.1,2.3-3.5,4.1-4.1c1.8-0.6,3.8-0.2,5.7,1c2.1,1.4,3.7,3.6,4.6,6.3c2.6,8.4,1.7,21.8-0.9,22.6
	C203.6,180.7,195.4,170.3,192.7,161.7z M197.1,125.7c1.7,5.1,3.3,10.2,4.9,15.2c0.2,0.6-0.3,1.2-1,1.1c-2.1-0.4-4.3-0.3-6.4,0.4
	c-2.1,0.6-3.9,1.7-5.4,3.2c-0.5,0.4-1.2,0.3-1.4-0.4c-1.6-5-3.2-10-4.9-15c-1.2-3.6,0.7-7.1,4.2-8.6c0.1-0.1,0.3-0.1,0.4-0.2
	c0.2-0.1,0.3-0.1,0.4-0.2C191.7,120,195.8,121.9,197.1,125.7z M187.6,84.4c4.1-0.4,7.9,4,8.4,9.4c0.7,8.8-3.1,21.7-5.8,21.9
	c-2.8,0.2-8.6-11.7-9.3-20.7v0C180.5,89.6,183.5,84.7,187.6,84.4z M174,116.6c-4.5-2.8-8.9-6.9-10.9-9.4c-3.4-4.3-3.5-10.1-0.2-12.6
	c1.1-0.8,2.4-1.2,3.8-1.2c1.5,0,3.2,0.5,4.7,1.3c1.2,0.7,1.9,1.9,2.1,3.2c0.7,4.4,2.3,9.9,4.4,14.3c1.2,2.7,2.5,4.7,3.8,6.3
	c0.3,0.4,0,1-0.5,1C178.7,119.5,174,116.6,174,116.6z M213,249.3c0.3,0.2,0.1,0.7-0.2,0.7c-1.2,0.2-3.8,0-7.8-1.6
	c-4.9-2-10-5.3-12.4-7.5v0c-4-3.7-5.1-9.3-2.3-12.4c1.3-1.4,3.2-2.1,5.4-2c1.7,0.1,3.5,0.7,5.1,1.7c1.2,4.6,4.1,10.6,7.3,15.2
	C208.1,243.4,210.2,246.9,213,249.3z M216.3,191.2c1.2,4.9,2.5,9.8,3.6,14.7c0.2,0.8-0.6,1.4-1.3,1.2c-2.4-0.8-5-0.9-7.5-0.2
	c-1.6,0.4-3.1,1.1-4.4,2c-0.6,0.4-1.4,0.1-1.5-0.6c-1.1-4.7-2.3-9.4-3.5-14.2c-0.5-1.8-0.2-3.8,1-5.3c0.8-1,2-2,4-2.4
	c2.9-0.7,5.2,0.1,6.7,1C214.9,188.1,215.9,189.6,216.3,191.2z M172.4,61.8c2.4,5.5,4.8,11,7,16.5c0.3,0.7,0.1,1.4-0.4,1.9
	c-1.8,1.5-3.2,3.5-4.2,5.8c-0.4,0.8-1.3,1.2-2.1,0.9c-1.7-0.7-3.5-1.1-5.3-1.1c-0.6,0-1.2-0.4-1.4-1c-2.2-5.4-4.5-10.7-6.8-16
	c-0.3-0.6,0.3-1.3,1-1.1c0.9,0.2,1.7,0.4,2.5,0.4c1.1,0,2-0.2,2.9-0.5c1.9-0.7,4-2.2,5.4-5.5C171.2,61.1,172.1,61.1,172.4,61.8z
	 M148.2,34.8c0.7-2.1,2.1-3.6,3.9-4.3c1.8-0.6,3.8-0.4,5.7,0.8c2.2,1.3,3.9,3.4,4.9,6.1c1.1,3,2.2,8.9,2.2,14.3c0,5.8-1.3,8.1-2,8.4
	c-2.6,0.9-11.3-9-14.4-17.5C147.4,39.9,147.4,37.1,148.2,34.8z M223.7,236.6c-0.6,5.8-2.1,8-2.8,8.1c-0.7,0.2-3.1-1-6.4-5.8
	c-3-4.4-5.4-9.9-6.2-13v0c-0.7-2.7-0.5-5.5,0.6-7.8c0.9-2,2.5-3.4,4.3-3.8c0.5-0.1,0.9-0.2,1.4-0.2c3.6,0,7.2,3.4,8.4,8
	C223.7,225.3,224.2,231.3,223.7,236.6z M229.3,246.2c1-2.1,1.7-5,2.1-8.7c0.6-5.7,0.2-12.6-1-17.2c-0.1-0.2-0.1-0.5-0.2-0.7
	c1.7-2.1,3.9-3.4,6.1-3.4c0.4,0,0.9,0.1,1.3,0.2c4,1,6.2,6.3,4.9,11.6c-0.8,3.1-3.1,8.6-6.2,13.1c-3.3,4.8-5.7,6-6.3,5.8
	C229.8,246.7,229.6,246.5,229.3,246.2z M335.6,159c-0.3,0.9-1.2,1.5-2.1,1.5c-0.9,0.1-1.8,0.2-2.7,0.4c-0.7,0.2-1.4,0.4-2,0.6
	c-1.1,0.4-2.3-0.1-2.9-1.1c-0.9-1.7-2-3.2-3.3-4.5c-0.7-0.7-1-1.8-0.6-2.7c2.1-4.9,4.2-9.8,6.5-14.7c0.4-0.8,1.5-0.9,2-0.1
	c1.1,1.7,2.6,3.1,4.6,3.7c0.8,0.3,1.7,0.4,2.7,0.4c1.2,0,2.5-0.3,4-0.9c0.7-0.3,1.3,0.4,1,1C341.2,146,338.1,152.4,335.6,159z
	 M322.4,194.1c-1.1,0.4-2.1-0.9-1.5-1.8c0.9-1.4,1.8-3,2.6-4.9c1.8-4.1,3.3-9.1,4-13.4c0.4-2.6,2.4-4.8,5-5.4l0.1,0
	c0.7-0.2,1.3-0.2,2-0.2c1.4,0,2.7,0.4,3.7,1.2c1.5,1.1,2.4,3,2.5,5.2c0.1,2.5-0.8,5.1-2.5,7.4v0c-2,2.6-6.3,6.7-10.7,9.6
	C327.6,191.7,324.8,193.3,322.4,194.1z M320.2,170.2L320.2,170.2c-0.2,3.2-1.5,9.1-3.7,14c-2.3,5.3-4.5,6.9-5.2,6.9
	c-0.7,0-2.6-1.9-4.3-7.5c-1.5-5.1-2.1-11.1-1.9-14.3c0.2-2.8,1.2-5.4,2.9-7.2c1.4-1.5,3.1-2.3,4.9-2.3c0.1,0,0.2,0,0.4,0
	C317.4,160,320.5,164.8,320.2,170.2z M318.1,205.7c-1.2,3.5-2.3,7.1-3.4,10.6c-0.7,2.2-3.2,3.3-5.3,2.3c-0.6-0.3-1.3-0.5-2-0.7
	c-1.2-0.3-2.4-0.5-3.6-0.5c-2.5,0-4.3-2.5-3.5-4.9c1.2-3.8,2.4-7.6,3.7-11.4c1.3-3.8,5.3-6,9.1-4.7c0.3,0.1,0.5,0.2,0.8,0.3
	c0,0,0.1,0,0.1,0.1C317.6,198.1,319.3,202.1,318.1,205.7z M306.3,260.8c-1,0-1.4-1.1-0.7-1.8c1.2-1.2,2.5-2.6,3.8-4.4
	c3.3-4.5,6.4-10.4,7.7-14.9c1.8-1,3.6-1.5,5.4-1.5c2.1,0,3.9,0.7,5.1,2.1c1.2,1.4,1.7,3.4,1.3,5.6c-0.4,2.5-1.9,4.9-4,6.7v0
	c-2.5,2.1-7.5,5.4-12.6,7.1C309.8,260.5,307.8,260.7,306.3,260.8z M281.1,251.3c-2.9-4.5-5.1-10.1-5.8-13.2
	c-1.2-5.3,1.3-10.6,5.3-11.4c0.4-0.1,0.8-0.1,1.2-0.1c1.5,0,3,0.6,4.4,1.7c0.7,0.5,1.3,1.2,1.8,1.9c-0.1,0.2-0.2,0.5-0.2,0.7
	c-1.3,4.5-1.9,11.4-1.5,17.1c0.2,2.3,0.5,4.2,0.9,5.9c0.4,1.5-1.4,2.6-2.5,1.6C282.7,253.8,281.1,251.3,281.1,251.3z M296.5,255.5
	c-0.7-0.2-2.1-2.4-2.6-8.2c-0.4-5.3,0.3-11.3,1.2-14.4c0.8-2.7,2.4-5,4.4-6.4c1.3-0.9,2.7-1.4,4.1-1.4c0.5,0,1.1,0.1,1.6,0.2
	c1.8,0.5,3.3,1.9,4.2,4c1,2.3,1.1,5.1,0.3,7.8v0C307.2,245.8,299.1,256.3,296.5,255.5z M351.7,117.1L351.7,117.1
	c-1.1,3.1-3.9,8.3-7.3,12.5c-3.7,4.5-6.2,5.5-6.8,5.3c-0.6-0.2-2-2.5-2.1-8.3c-0.1-5.3,0.9-11.2,1.9-14.3c1.5-4.4,5.2-7.4,8.6-7.4
	c0.6,0,1.2,0.1,1.8,0.3c1.8,0.6,3.2,2.1,3.9,4.2C352.6,111.7,352.6,114.5,351.7,117.1z"/>
<polygon class="st0" points="231.5,482.5 280.5,482.5 357.2,357.9 350.1,333.4 304.4,382.4 296.8,319.8 268.5,328.5 255.5,266.5 
	229.9,292.6 198.1,275.7 195.6,337.8 154.8,342.7 "/>
<g>
	<circle class="st31" cx="198.9" cy="156.4" r="3.5"/>
</g>
<g>
	<circle class="st31" cx="180" cy="168.9" r="3.5"/>
</g>
<g>
	<circle class="st31" cx="214.3" cy="220.4" r="3.5"/>
</g>
<g>
	<circle class="st31" cx="345.8" cy="111.2" r="3.5"/>
</g>
<g>
	<circle class="st31" cx="313.3" cy="166.6" r="3.5"/>
</g>
<g>
	<circle class="st31" cx="303.6" cy="232.2" r="3.5"/>
</g>
<g>
	<circle class="st31" cx="282.6" cy="233.7" r="3.5"/>
</g>
<g>
	<circle class="st31" cx="195.6" cy="233" r="3.5"/>
</g>
<g>
	<circle class="st31" cx="166.7" cy="99.8" r="3.5"/>
</g>
<g>
	<circle class="st31" cx="153.9" cy="35.6" r="3.5"/>
</g>
<path class="st4" d="M357.2,326.8c-3.7-2.3-8-3.5-12.3-3.5h0h0c-12.7,0-20.1,9.5-25.5,16.4c-0.9,1.1-1.8,2.3-2.7,3.6
	c-0.5,0.7-1.7,0.2-1.5-0.6c0.1-0.4,0.1-0.8,0.2-1.3c2.2-19.6-12.4-26.1-15.3-27.2c-2.7-1-5.4-1.5-8.2-1.5h0h0c0,0-0.1,0-0.1,0
	c-0.8,4.6-1.6,9.1-2.3,13.6c-0.2,1.4-1,2.6-2.2,3.3c-2.9,1.9-5.1,5.8-7.9,11.2c-1.3,2.5-2.8,5.6-4.4,9c-0.3,0.7-1.3,0.4-1.2-0.3
	c1.5-13.7,2.8-28.9,3.6-41.2c0.5-8.1,0.8-14.7,0.7-19.5c0-3.3-0.1-5.9-0.4-8.1c-1.8-14.8-12.5-21.3-21.1-22.3l0,0l0,0l-1.4-0.2
	l-1.4,0c-3.4,0-14,0.9-20.5,11.8c2.2,12.7,4.1,25,5.8,37c0.1,0.9,0.1,1.7,0,2.6c-1.5,8.6-3,18.3-4.3,27.7c-0.2,1.2-1.8,1.4-2.2,0.3
	c-2-4.9-4-9.8-6-14.6c-0.3-0.7-0.5-1.4-0.6-2.1c-2-15.4-4.5-31.7-7.4-48.5c-6.1-6.7-13-8.3-18.1-8.3c-2.9,0-5.7,0.5-8.4,1.5
	c-8.1,3.1-16.9,11.9-15.1,26.7c0.3,2.2,0.8,4.7,1.5,7.9c1.1,4.7,3,11,5.4,18.8c1.2,4,2.6,8.2,4.1,12.6c0.2,0.6-0.6,1.1-1.1,0.7
	c-4.6-4.5-10.6-8.3-18.6-8.3c-4.4,0-8.6,1.2-12.3,3.5c-2.7,1.6-15.8,10.8-9.9,29.6c0.8,2.4,1.9,5.3,3.5,8.9
	c2.5,5.6,6.2,13,11.1,22.1c9,16.8,21,37.9,31.5,55.1c6.9,11.3,12.7,20.2,17.5,27c2.1,2.9,4,6,5.6,9.3c4.8,10.1,14.9,17.2,26.8,17.6
	c0.4,0,0.8,0,1,0c3.2,0,6.3-0.5,9.3-1.4c2.8-0.9,5.9-0.9,8.7,0c3,0.9,6.1,1.4,9.3,1.4c0.2,0,0.6,0,1,0c12.4-0.4,22.8-8.1,27.3-18.9
	c1.4-3.4,3.3-6.6,5.4-9.6c4.7-6.7,10.2-15.3,16.8-26c10.5-17.2,22.6-38.3,31.5-55.1c4.8-9.1,8.6-16.5,11.1-22.1
	c1.6-3.6,2.8-6.5,3.5-8.9C373,337.5,359.9,328.4,357.2,326.8z M253.7,281.6C253.7,281.6,253.7,281.6,253.7,281.6
	c2.6,0.3-0.5,42.6-4.2,73.3c-0.8,6.6-1.5,12-2.3,16.6c-0.2,1.2-1.9,1.3-2.3,0.2c-1.2-3.8-2.7-8.2-4.5-13.1c-0.3-0.9-0.5-2-0.4-3
	c0.1-0.6,0.1-1.2,0.2-1.8C244,323.2,251.1,281.6,253.7,281.6z M233.5,399.9c0-0.9,0.9-1.5,1.7-1.1c1.3,0.6,2.7,1,4.2,1
	c1.1,0,2.2-0.2,3.2-0.6c0.9-0.3,2.3-1.1,3.6-2.5c0.7-0.8,2-0.4,2,0.7c0.3,4.9,0.6,9.6,0.8,14.1c-1.1,2.8-2.1,5.6-3.1,8.3
	c-2.2,6-4.2,11.4-5.8,16.2c-0.3,0.9-1.6,1.1-2.1,0.2c-0.7-1.2-1.4-2.5-2.2-3.8c-0.5-0.9-0.8-1.9-0.9-2.9L233.5,399.9z M200.3,287.4
	C200.3,287.4,200.3,287.4,200.3,287.4c2.8,0,19.5,38.3,30.3,66.9c10.9,28.9,11.7,36.8,9.3,37.7c-0.1,0.1-0.3,0.1-0.4,0.1
	c-2.5,0-7.2-7.3-17.6-34.5C211,328.7,197.9,288.3,200.3,287.4z M243.1,470.3c-0.3,0.2-0.5,0.2-0.9,0.2c-3.4,0-11.2-8.6-30.1-39.6
	c-20.7-34-46.9-82-44.1-83.7c0.1,0,0.1,0,0.2,0c3.8,0,33.7,44.2,54.1,77.5C243,458.7,245.9,468.6,243.1,470.3z M251.5,458.4
	c-0.4,0.9-1.7,0.9-2.1-0.1c-0.2-0.6-0.5-1.1-0.7-1.7c-0.8-1.9-1.8-4-3-6.4c-0.8-1.5-0.9-3.2-0.4-4.8c2-6.2,4.6-13.7,8-22.9
	c13.7-36.9,34.9-86.4,38.3-86.4c0,0,0.1,0,0.1,0c3.1,1.1-13.4,53.3-27.3,90.6C259.1,441.3,254.8,451.5,251.5,458.4z M263.1,458.7
	c-0.2,0-0.3-0.2-0.3-0.4c0.1-1.7,0-3.7,0.1-5.9c0-0.3,0.1-0.6,0.2-0.9c2.6-6.1,5.5-13.5,8.7-22.2c2.3-6.2,4.7-12.9,7.1-19.7
	c0.2-0.5,0.9-0.3,0.9,0.2l-1.1,18.9c0,0.6-0.2,1.1-0.5,1.6c-6.5,11.1-11,19.6-13.6,25.7c-0.4,0.8-0.7,1.6-1,2.3
	C263.4,458.5,263.4,458.7,263.1,458.7z M301,430.4c-18.9,30.9-26.7,39.6-30.1,39.6c-0.3,0-0.6-0.1-0.9-0.2
	c-2.8-1.7,0.1-11.6,20.8-45.5c20.3-33.4,50.3-77.5,54.1-77.5c0.1,0,0.1,0,0.2,0C347.9,348.4,321.7,396.4,301,430.4z"/>
</svg>
