<?xml version="1.0" encoding="utf-8"?>
<!-- Generator: Adobe Illustrator 20.0.0, SVG Export Plug-In . SVG Version: 6.00 Build 0)  -->
<svg version="1.1" id="Layer_1" xmlns="http://www.w3.org/2000/svg" xmlns:xlink="http://www.w3.org/1999/xlink" x="0px" y="0px"
	 viewBox="0 0 64 64" style="enable-background:new 0 0 64 64;" xml:space="preserve">
<style type="text/css">
	.st0{fill:#82AF1D;}
	.st1{fill:#C0D57C;}
	.st2{fill:#D5DF7F;}
	.st3{fill:#80AC66;}
	.st4{fill:#F9FBEF;}
	.st5{fill:#2F3F1A;}
	.st6{fill:#E7ECB9;}
	.st7{fill:#F0F3D4;}
	.st8{fill:#DEE59F;}
	.st9{fill:#ACC476;}
	.st10{fill:#96B870;}
	.st11{fill:#C0D17E;}
	.st12{fill:url(#SVGID_1_);stroke:#5B7D12;stroke-width:3;stroke-linecap:round;stroke-linejoin:round;stroke-miterlimit:10;}
	.st13{fill:url(#SVGID_2_);stroke:#2F3F1A;stroke-linecap:round;stroke-linejoin:round;stroke-miterlimit:10;}
	.st14{fill:url(#SVGID_3_);stroke:#2F3F1A;stroke-linecap:round;stroke-linejoin:round;stroke-miterlimit:10;}
	.st15{fill:url(#SVGID_4_);stroke:#2F3F1A;stroke-linecap:round;stroke-linejoin:round;stroke-miterlimit:10;}
	.st16{fill:url(#SVGID_5_);stroke:#2F3F1A;stroke-linecap:round;stroke-linejoin:round;stroke-miterlimit:10;}
	.st17{fill:url(#SVGID_6_);stroke:#2F3F1A;stroke-linecap:round;stroke-linejoin:round;stroke-miterlimit:10;}
	.st18{fill:url(#SVGID_7_);stroke:#5B7D12;stroke-width:3;stroke-linecap:round;stroke-linejoin:round;stroke-miterlimit:10;}
	.st19{fill:url(#SVGID_8_);stroke:#2F3F1A;stroke-linecap:round;stroke-linejoin:round;stroke-miterlimit:10;}
	.st20{fill:url(#SVGID_9_);stroke:#2F3F1A;stroke-linecap:round;stroke-linejoin:round;stroke-miterlimit:10;}
	.st21{fill:url(#SVGID_10_);stroke:#2F3F1A;stroke-linecap:round;stroke-linejoin:round;stroke-miterlimit:10;}
	.st22{fill:url(#SVGID_11_);stroke:#2F3F1A;stroke-linecap:round;stroke-linejoin:round;stroke-miterlimit:10;}
	.st23{fill:url(#SVGID_12_);stroke:#2F3F1A;stroke-linecap:round;stroke-linejoin:round;stroke-miterlimit:10;}
	.st24{fill:#BC6F6B;}
	.st25{fill:#D48C64;stroke:#93663D;stroke-width:3;stroke-miterlimit:10;}
	.st26{fill:url(#SVGID_13_);}
	.st27{fill:none;stroke:#CEB699;stroke-linecap:round;stroke-linejoin:round;stroke-miterlimit:10;}
	.st28{fill:url(#SVGID_14_);stroke:#2F3F1A;stroke-width:3;stroke-linecap:round;stroke-miterlimit:10;}
	.st29{fill:none;stroke:#2F3F1A;stroke-miterlimit:10;}
	.st30{fill:url(#SVGID_15_);}
	.st31{fill:none;stroke:#8D5733;stroke-linecap:round;stroke-linejoin:round;stroke-miterlimit:10;}
	.st32{fill:#FCAA54;}
	.st33{fill:#8D5733;}
	.st34{fill:none;stroke:#FFFFFF;stroke-linecap:round;stroke-linejoin:round;stroke-miterlimit:10;}
	.st35{fill:none;stroke:#8D5733;stroke-linecap:round;stroke-miterlimit:10;}
	.st36{fill:none;stroke:#FFFFFF;stroke-linecap:round;stroke-miterlimit:10;}
	.st37{fill:#FFFFFF;}
	.st38{fill:#FCAA54;stroke:#8CC63F;stroke-width:3;stroke-linecap:round;stroke-linejoin:round;stroke-miterlimit:10;}
	.st39{fill:none;stroke:#FDD6AD;stroke-linecap:round;stroke-linejoin:round;stroke-miterlimit:10;}
	.st40{fill:#00FFFF;}
	.st41{fill:none;stroke:#38171C;stroke-linecap:round;stroke-linejoin:round;stroke-miterlimit:10;}
	.st42{fill:#B63640;}
	.st43{fill:none;stroke:#DDA1A4;stroke-linecap:round;stroke-linejoin:round;stroke-miterlimit:10;}
	.st44{fill:#38171C;}
	.st45{fill:none;stroke:#B1986C;stroke-linecap:round;stroke-linejoin:round;stroke-miterlimit:10;}
	.st46{fill:#E5E1C7;}
	.st47{fill:none;stroke:#BEC57A;stroke-linecap:round;stroke-linejoin:round;stroke-miterlimit:10;}
	.st48{fill:#B1986C;}
	.st49{fill:none;stroke:#986E5A;stroke-linecap:round;stroke-linejoin:round;stroke-miterlimit:10;}
	.st50{fill:#EEE1C2;}
	.st51{fill:#F0DBC2;stroke:#986E5A;stroke-width:3;stroke-miterlimit:10;}
	.st52{fill:none;stroke:#BA8178;stroke-linecap:round;stroke-miterlimit:10;}
	.st53{fill:none;stroke:#986E5A;stroke-width:3;stroke-miterlimit:10;}
	.st54{fill:none;stroke:#F8C899;stroke-linecap:round;stroke-linejoin:round;stroke-miterlimit:10;}
	.st55{fill:none;stroke:#E6C18D;stroke-linecap:round;stroke-linejoin:round;stroke-miterlimit:10;}
	.st56{fill:none;stroke:#2F3F1A;stroke-width:3;stroke-miterlimit:10;}
	.st57{fill:url(#SVGID_16_);}
	.st58{fill:url(#SVGID_17_);}
	.st59{fill:none;stroke:#2F3F1A;stroke-width:3;stroke-linejoin:round;stroke-miterlimit:10;}
	.st60{fill:none;stroke:#2F3F1A;stroke-linejoin:round;stroke-miterlimit:10;}
	.st61{clip-path:url(#SVGID_19_);}
	.st62{clip-path:url(#SVGID_21_);}
	.st63{clip-path:url(#SVGID_23_);}
	.st64{fill:#D46A71;stroke:#9E423B;stroke-width:3;stroke-miterlimit:10;}
	.st65{fill:none;stroke:#D68C79;stroke-linecap:round;stroke-miterlimit:10;}
	.st66{fill:url(#SVGID_24_);}
	.st67{fill:#CEB699;}
	.st68{fill:url(#SVGID_25_);}
	.st69{fill:url(#SVGID_26_);}
	.st70{fill:url(#SVGID_27_);}
	.st71{clip-path:url(#SVGID_29_);fill:#F9FBEF;}
	.st72{clip-path:url(#SVGID_29_);fill:#F9FBEE;}
	.st73{clip-path:url(#SVGID_29_);fill:#F8FBED;}
	.st74{clip-path:url(#SVGID_29_);fill:#F8FAED;}
	.st75{clip-path:url(#SVGID_29_);fill:#F8FAEC;}
	.st76{clip-path:url(#SVGID_29_);fill:#F8FAEB;}
	.st77{clip-path:url(#SVGID_29_);fill:#F8FAEA;}
	.st78{clip-path:url(#SVGID_29_);fill:#F7FAEA;}
	.st79{clip-path:url(#SVGID_29_);fill:#F7FAE9;}
	.st80{clip-path:url(#SVGID_29_);fill:#F7F9E9;}
	.st81{clip-path:url(#SVGID_29_);fill:#F7F9E8;}
	.st82{clip-path:url(#SVGID_29_);fill:#F7F9E7;}
	.st83{clip-path:url(#SVGID_29_);fill:#F6F9E7;}
	.st84{clip-path:url(#SVGID_29_);fill:#F6F9E6;}
	.st85{clip-path:url(#SVGID_29_);fill:#F6F9E5;}
	.st86{clip-path:url(#SVGID_29_);fill:#F6F8E5;}
	.st87{clip-path:url(#SVGID_29_);fill:#F5F8E4;}
	.st88{clip-path:url(#SVGID_29_);fill:#F5F8E3;}
	.st89{clip-path:url(#SVGID_29_);fill:#F5F8E2;}
	.st90{clip-path:url(#SVGID_29_);fill:#F5F8E1;}
	.st91{clip-path:url(#SVGID_29_);fill:#F4F7E0;}
	.st92{clip-path:url(#SVGID_29_);fill:#F4F7DF;}
	.st93{clip-path:url(#SVGID_29_);fill:#F4F7DE;}
	.st94{clip-path:url(#SVGID_29_);fill:#F3F7DD;}
	.st95{clip-path:url(#SVGID_29_);fill:#F3F6DC;}
	.st96{clip-path:url(#SVGID_29_);fill:#F3F6DB;}
	.st97{clip-path:url(#SVGID_29_);fill:#F2F6DA;}
	.st98{clip-path:url(#SVGID_29_);fill:#F2F5D9;}
	.st99{clip-path:url(#SVGID_29_);fill:#F1F5D8;}
	.st100{clip-path:url(#SVGID_29_);fill:#F1F5D6;}
	.st101{clip-path:url(#SVGID_29_);fill:#F1F5D5;}
	.st102{clip-path:url(#SVGID_29_);fill:#F0F4D4;}
	.st103{clip-path:url(#SVGID_29_);fill:#F0F4D3;}
	.st104{clip-path:url(#SVGID_29_);fill:#F0F4D2;}
	.st105{clip-path:url(#SVGID_29_);fill:#EFF3D1;}
	.st106{clip-path:url(#SVGID_29_);fill:#EFF3CF;}
	.st107{clip-path:url(#SVGID_29_);fill:#EEF3CE;}
	.st108{clip-path:url(#SVGID_29_);fill:#EEF2CD;}
	.st109{clip-path:url(#SVGID_29_);fill:#EEF2CC;}
	.st110{clip-path:url(#SVGID_29_);fill:#EDF2CA;}
	.st111{clip-path:url(#SVGID_29_);fill:#EDF1C9;}
	.st112{clip-path:url(#SVGID_29_);fill:#ECF1C7;}
	.st113{clip-path:url(#SVGID_29_);fill:#ECF1C6;}
	.st114{clip-path:url(#SVGID_29_);fill:#EBF0C4;}
	.st115{clip-path:url(#SVGID_29_);fill:#EBF0C3;}
	.st116{clip-path:url(#SVGID_29_);fill:#EAF0C1;}
	.st117{clip-path:url(#SVGID_29_);fill:#EAEFC0;}
	.st118{clip-path:url(#SVGID_29_);fill:#E9EFBE;}
	.st119{clip-path:url(#SVGID_29_);fill:#E9EEBC;}
	.st120{clip-path:url(#SVGID_29_);fill:#E8EEBA;}
	.st121{clip-path:url(#SVGID_29_);fill:#E8EDB9;}
	.st122{clip-path:url(#SVGID_29_);fill:#E7EDB7;}
	.st123{clip-path:url(#SVGID_29_);fill:#E6EDB5;}
	.st124{clip-path:url(#SVGID_29_);fill:#E6ECB3;}
	.st125{clip-path:url(#SVGID_29_);fill:#E5ECB1;}
	.st126{clip-path:url(#SVGID_29_);fill:#E5EBAF;}
	.st127{clip-path:url(#SVGID_29_);fill:#E4EBAD;}
	.st128{clip-path:url(#SVGID_29_);fill:#E3EAAB;}
	.st129{clip-path:url(#SVGID_29_);fill:#E3EAA9;}
	.st130{clip-path:url(#SVGID_29_);fill:#E2E9A7;}
	.st131{clip-path:url(#SVGID_29_);fill:#E1E8A5;}
	.st132{clip-path:url(#SVGID_29_);fill:#E0E8A3;}
	.st133{clip-path:url(#SVGID_29_);fill:#E0E7A0;}
	.st134{clip-path:url(#SVGID_29_);fill:#DFE79E;}
	.st135{clip-path:url(#SVGID_29_);fill:#DEE69C;}
	.st136{clip-path:url(#SVGID_29_);fill:#DDE699;}
	.st137{clip-path:url(#SVGID_29_);fill:#DDE597;}
	.st138{clip-path:url(#SVGID_29_);fill:#DCE494;}
	.st139{clip-path:url(#SVGID_29_);fill:#DBE492;}
	.st140{clip-path:url(#SVGID_29_);fill:#DAE38F;}
	.st141{clip-path:url(#SVGID_29_);fill:#D9E28D;}
	.st142{clip-path:url(#SVGID_29_);fill:#D9E28A;}
	.st143{clip-path:url(#SVGID_29_);fill:#D8E187;}
	.st144{clip-path:url(#SVGID_29_);fill:#D7E085;}
	.st145{clip-path:url(#SVGID_29_);fill:#D6E082;}
	.st146{clip-path:url(#SVGID_29_);fill:#D5DF7F;}
	.st147{clip-path:url(#SVGID_29_);fill:#D3DE7E;}
	.st148{clip-path:url(#SVGID_29_);fill:#D1DC7E;}
	.st149{clip-path:url(#SVGID_29_);fill:#CFDB7D;}
	.st150{clip-path:url(#SVGID_29_);fill:#CCDA7C;}
	.st151{clip-path:url(#SVGID_29_);fill:#CAD97C;}
	.st152{clip-path:url(#SVGID_29_);fill:#C8D77B;}
	.st153{clip-path:url(#SVGID_29_);fill:#C6D67B;}
	.st154{clip-path:url(#SVGID_29_);fill:#C4D57A;}
	.st155{clip-path:url(#SVGID_29_);fill:#C2D47A;}
	.st156{clip-path:url(#SVGID_29_);fill:#C1D379;}
	.st157{clip-path:url(#SVGID_29_);fill:#BFD278;}
	.st158{clip-path:url(#SVGID_29_);fill:#BDD178;}
	.st159{clip-path:url(#SVGID_29_);fill:#BBCF77;}
	.st160{clip-path:url(#SVGID_29_);fill:#B9CE77;}
	.st161{clip-path:url(#SVGID_29_);fill:#B7CD76;}
	.st162{clip-path:url(#SVGID_29_);fill:#B6CC76;}
	.st163{clip-path:url(#SVGID_29_);fill:#B4CB75;}
	.st164{clip-path:url(#SVGID_29_);fill:#B2CA75;}
	.st165{clip-path:url(#SVGID_29_);fill:#B1C974;}
	.st166{clip-path:url(#SVGID_29_);fill:#AFC874;}
	.st167{clip-path:url(#SVGID_29_);fill:#AEC773;}
	.st168{clip-path:url(#SVGID_29_);fill:#ACC673;}
	.st169{clip-path:url(#SVGID_29_);fill:#AAC572;}
	.st170{clip-path:url(#SVGID_29_);fill:#A9C572;}
	.st171{clip-path:url(#SVGID_29_);fill:#A7C472;}
	.st172{clip-path:url(#SVGID_29_);fill:#A6C371;}
	.st173{clip-path:url(#SVGID_29_);fill:#A5C271;}
	.st174{clip-path:url(#SVGID_29_);fill:#A3C170;}
	.st175{clip-path:url(#SVGID_29_);fill:#A2C070;}
	.st176{clip-path:url(#SVGID_29_);fill:#A1C070;}
	.st177{clip-path:url(#SVGID_29_);fill:#9FBF6F;}
	.st178{clip-path:url(#SVGID_29_);fill:#9EBE6F;}
	.st179{clip-path:url(#SVGID_29_);fill:#9DBD6E;}
	.st180{clip-path:url(#SVGID_29_);fill:#9CBD6E;}
	.st181{clip-path:url(#SVGID_29_);fill:#9ABC6E;}
	.st182{clip-path:url(#SVGID_29_);fill:#99BB6D;}
	.st183{clip-path:url(#SVGID_29_);fill:#98BA6D;}
	.st184{clip-path:url(#SVGID_29_);fill:#97BA6D;}
	.st185{clip-path:url(#SVGID_29_);fill:#96B96C;}
	.st186{clip-path:url(#SVGID_29_);fill:#95B96C;}
	.st187{clip-path:url(#SVGID_29_);fill:#94B86C;}
	.st188{clip-path:url(#SVGID_29_);fill:#93B76C;}
	.st189{clip-path:url(#SVGID_29_);fill:#92B76B;}
	.st190{clip-path:url(#SVGID_29_);fill:#91B66B;}
	.st191{clip-path:url(#SVGID_29_);fill:#90B66B;}
	.st192{clip-path:url(#SVGID_29_);fill:#8FB56A;}
	.st193{clip-path:url(#SVGID_29_);fill:#8EB56A;}
	.st194{clip-path:url(#SVGID_29_);fill:#8EB46A;}
	.st195{clip-path:url(#SVGID_29_);fill:#8DB46A;}
	.st196{clip-path:url(#SVGID_29_);fill:#8CB36A;}
	.st197{clip-path:url(#SVGID_29_);fill:#8BB369;}
	.st198{clip-path:url(#SVGID_29_);fill:#8AB269;}
	.st199{clip-path:url(#SVGID_29_);fill:#89B169;}
	.st200{clip-path:url(#SVGID_29_);fill:#88B168;}
	.st201{clip-path:url(#SVGID_29_);fill:#87B068;}
	.st202{clip-path:url(#SVGID_29_);fill:#86B068;}
	.st203{clip-path:url(#SVGID_29_);fill:#86AF68;}
	.st204{clip-path:url(#SVGID_29_);fill:#85AF68;}
	.st205{clip-path:url(#SVGID_29_);fill:#85AF67;}
	.st206{clip-path:url(#SVGID_29_);fill:#84AF67;}
	.st207{clip-path:url(#SVGID_29_);fill:#84AE67;}
	.st208{clip-path:url(#SVGID_29_);fill:#83AE67;}
	.st209{clip-path:url(#SVGID_29_);fill:#82AD67;}
	.st210{clip-path:url(#SVGID_29_);fill:#81AD66;}
	.st211{clip-path:url(#SVGID_29_);fill:#81AC66;}
	.st212{clip-path:url(#SVGID_29_);fill:#80AC66;}
	.st213{fill:none;stroke:#E7ECB9;stroke-miterlimit:10;}
	.st214{fill:none;stroke:#ACC476;stroke-miterlimit:10;}
	.st215{fill:url(#SVGID_30_);stroke:#2F3F1A;stroke-width:3;stroke-linecap:round;stroke-miterlimit:10;}
	.st216{fill:none;stroke:#2F3F1A;stroke-linecap:round;stroke-miterlimit:10;}
	.st217{opacity:0.2;}
	.st218{fill:#93663D;}
	.st219{fill:none;stroke:#93663D;stroke-width:3;stroke-miterlimit:10;}
	.st220{fill:#D48C64;}
	.st221{fill:#C68460;}
	.st222{fill:#B3706B;}
	.st223{fill:#B58070;}
	.st224{fill:#682A28;}
	.st225{fill:#B3706B;stroke:#682A28;stroke-width:3;stroke-miterlimit:10;}
	.st226{fill:#B6806E;}
	.st227{fill:none;stroke:#682A28;stroke-width:3;stroke-miterlimit:10;}
	.st228{fill:none;stroke:#D68C79;stroke-miterlimit:10;}
	.st229{opacity:0.4;fill:none;stroke:#FFFFFF;stroke-linecap:round;stroke-miterlimit:10;}
	.st230{fill:none;stroke:#9E423B;stroke-width:3;stroke-linecap:round;stroke-linejoin:round;stroke-miterlimit:10;}
	.st231{fill:none;stroke:#9E423B;stroke-miterlimit:10;}
	.st232{fill:url(#SVGID_31_);stroke:#5B7D12;stroke-width:3;stroke-linecap:round;stroke-linejoin:round;stroke-miterlimit:10;}
	.st233{fill:url(#SVGID_32_);stroke:#2F3F1A;stroke-linecap:round;stroke-linejoin:round;stroke-miterlimit:10;}
	.st234{fill:url(#SVGID_33_);stroke:#2F3F1A;stroke-linecap:round;stroke-linejoin:round;stroke-miterlimit:10;}
	.st235{fill:url(#SVGID_34_);stroke:#2F3F1A;stroke-linecap:round;stroke-linejoin:round;stroke-miterlimit:10;}
	.st236{fill:url(#SVGID_35_);stroke:#2F3F1A;stroke-linecap:round;stroke-linejoin:round;stroke-miterlimit:10;}
	.st237{fill:url(#SVGID_36_);stroke:#2F3F1A;stroke-linecap:round;stroke-linejoin:round;stroke-miterlimit:10;}
	.st238{opacity:0.4;fill:#FFFFFF;}
	.st239{fill:#D68C79;}
	.st240{fill:#E5BAB0;}
	.st241{fill:#9E423B;}
	.st242{fill:url(#SVGID_37_);stroke:#2F3F1A;stroke-width:3;stroke-miterlimit:10;}
	.st243{fill:url(#SVGID_38_);}
	.st244{fill:url(#SVGID_39_);}
	.st245{clip-path:url(#SVGID_41_);fill:#FEFED2;}
	.st246{clip-path:url(#SVGID_41_);fill:#FAFBCD;}
	.st247{clip-path:url(#SVGID_41_);fill:#F6F9C8;}
	.st248{clip-path:url(#SVGID_41_);fill:#F2F7C4;}
	.st249{clip-path:url(#SVGID_41_);fill:#EEF4BF;}
	.st250{clip-path:url(#SVGID_41_);fill:#EAF2BB;}
	.st251{clip-path:url(#SVGID_41_);fill:#E6F0B7;}
	.st252{clip-path:url(#SVGID_41_);fill:#E3EEB3;}
	.st253{clip-path:url(#SVGID_41_);fill:#DFECAF;}
	.st254{clip-path:url(#SVGID_41_);fill:#DCEAAB;}
	.st255{clip-path:url(#SVGID_41_);fill:#D9E8A7;}
	.st256{clip-path:url(#SVGID_41_);fill:#D6E6A4;}
	.st257{clip-path:url(#SVGID_41_);fill:#D3E4A0;}
	.st258{clip-path:url(#SVGID_41_);fill:#D0E39D;}
	.st259{clip-path:url(#SVGID_41_);fill:#CDE19A;}
	.st260{clip-path:url(#SVGID_41_);fill:#CBE097;}
	.st261{clip-path:url(#SVGID_41_);fill:#C8DE94;}
	.st262{clip-path:url(#SVGID_41_);fill:#C5DD91;}
	.st263{clip-path:url(#SVGID_41_);fill:#C3DB8E;}
	.st264{clip-path:url(#SVGID_41_);fill:#C1DA8B;}
	.st265{clip-path:url(#SVGID_41_);fill:#BFD889;}
	.st266{clip-path:url(#SVGID_41_);fill:#BCD786;}
	.st267{clip-path:url(#SVGID_41_);fill:#BAD684;}
	.st268{clip-path:url(#SVGID_41_);fill:#B8D582;}
	.st269{clip-path:url(#SVGID_41_);fill:#B6D47F;}
	.st270{clip-path:url(#SVGID_41_);fill:#B5D37D;}
	.st271{clip-path:url(#SVGID_41_);fill:#B3D27B;}
	.st272{clip-path:url(#SVGID_41_);fill:#B1D179;}
	.st273{clip-path:url(#SVGID_41_);fill:#AFD077;}
	.st274{clip-path:url(#SVGID_41_);fill:#AECF76;}
	.st275{clip-path:url(#SVGID_41_);fill:#ACCE74;}
	.st276{clip-path:url(#SVGID_41_);fill:#ABCD72;}
	.st277{clip-path:url(#SVGID_41_);fill:#AACC71;}
	.st278{clip-path:url(#SVGID_41_);fill:#A8CB6F;}
	.st279{clip-path:url(#SVGID_41_);fill:#A7CB6E;}
	.st280{clip-path:url(#SVGID_41_);fill:#A6CA6C;}
	.st281{clip-path:url(#SVGID_41_);fill:#A5C96B;}
	.st282{clip-path:url(#SVGID_41_);fill:#A3C96A;}
	.st283{clip-path:url(#SVGID_41_);fill:#A2C868;}
	.st284{clip-path:url(#SVGID_41_);fill:#A1C767;}
	.st285{clip-path:url(#SVGID_41_);fill:#A0C766;}
	.st286{clip-path:url(#SVGID_41_);fill:#A0C665;}
	.st287{clip-path:url(#SVGID_41_);fill:#9FC664;}
	.st288{clip-path:url(#SVGID_41_);fill:#9EC563;}
	.st289{clip-path:url(#SVGID_41_);fill:#9DC562;}
	.st290{clip-path:url(#SVGID_41_);fill:#9CC461;}
	.st291{clip-path:url(#SVGID_41_);fill:#9BC460;}
	.st292{clip-path:url(#SVGID_41_);fill:#9BC35F;}
	.st293{clip-path:url(#SVGID_41_);fill:#9AC35F;}
	.st294{clip-path:url(#SVGID_41_);fill:#99C35E;}
	.st295{clip-path:url(#SVGID_41_);fill:#99C25D;}
	.st296{clip-path:url(#SVGID_41_);fill:#98C25D;}
	.st297{clip-path:url(#SVGID_41_);fill:#98C25C;}
	.st298{clip-path:url(#SVGID_41_);fill:#97C15B;}
	.st299{clip-path:url(#SVGID_41_);fill:#96C15A;}
	.st300{clip-path:url(#SVGID_41_);fill:#96C05A;}
	.st301{clip-path:url(#SVGID_41_);fill:#95C059;}
	.st302{clip-path:url(#SVGID_41_);fill:#95C058;}
	.st303{clip-path:url(#SVGID_41_);fill:#94C058;}
	.st304{clip-path:url(#SVGID_41_);fill:#94BF58;}
	.st305{clip-path:url(#SVGID_41_);fill:#94BF57;}
	.st306{clip-path:url(#SVGID_41_);fill:#93BF57;}
	.st307{clip-path:url(#SVGID_41_);fill:#93BF56;}
	.st308{clip-path:url(#SVGID_41_);fill:#93BE56;}
	.st309{clip-path:url(#SVGID_41_);fill:#92BE56;}
	.st310{clip-path:url(#SVGID_41_);fill:#92BE55;}
	.st311{clip-path:url(#SVGID_41_);fill:#91BE55;}
	.st312{clip-path:url(#SVGID_41_);fill:#91BE54;}
	.st313{clip-path:url(#SVGID_41_);fill:#91BD54;}
	.st314{clip-path:url(#SVGID_41_);fill:#90BD54;}
	.st315{clip-path:url(#SVGID_41_);fill:#90BD53;}
	.st316{fill:#BA8178;}
	.st317{fill:#986E5A;}
	.st318{fill:#F8C899;}
</style>
<g>
	<path class="st2" d="M38.3,51.7l-0.4-16.1l4.9-30.6l-5.8-0.9l0-1.6H26.5l-0.1,2.7l-5,1l4.5,22.9l-0.4,22.5c0,1-0.3,2-0.5,3
		c-0.3,1.1-0.3,2.1,0.3,3c0.6,0.9,1.4,1.3,3.3,1.8c0,0,3.7,1,6.8,0c1.9-0.5,2.7-0.9,3.3-1.8c0.5-0.8,0.6-1.9,0.3-3
		C38.5,53.7,38.3,52.7,38.3,51.7z"/>
	<polygon class="st3" points="25.9,29.9 38.8,29.9 42.7,5.1 36.9,4.2 36.9,2.6 26.5,2.6 26.5,5.3 21.4,6.3 25.9,29.2 	"/>
	<path class="st4" d="M38.4,53h-13c-0.1,0.6-0.2,1.1-0.4,1.7c-0.3,1.1-0.3,2.1,0.3,3c0.6,0.9,1.4,1.3,3.3,1.8c0,0,3.7,1,6.8,0
		c1.9-0.5,2.7-0.9,3.3-1.8c0.5-0.8,0.6-1.9,0.3-3C38.7,54.2,38.5,53.6,38.4,53z"/>
	<g>
		<g>
			<rect x="25.2" y="52.1" class="st6" width="13" height="1"/>
		</g>
		<g>
			<rect x="25.2" y="53.1" class="st7" width="13" height="1"/>
		</g>
		<g>
			<rect x="25.2" y="51.1" class="st8" width="13" height="1"/>
		</g>
	</g>
	<g>
		<g>
			<rect x="25.2" y="30.1" class="st9" width="13" height="1"/>
		</g>
		<g>
			<rect x="25.2" y="29.1" class="st10" width="13" height="1"/>
		</g>
		<g>
			<rect x="25.2" y="31.1" class="st11" width="13" height="1"/>
		</g>
	</g>
	<g>
		<g>
			<path class="st67" d="M32.5,59.4v4c0,0.3-0.2,0.5-0.5,0.5s-0.5-0.2-0.5-0.5v-4H32.5z"/>
		</g>
		<g>
			<path class="st67" d="M29.1,59l-0.5,4c0,0.3-0.2,0.4-0.5,0.4c0,0,0,0-0.1,0c-0.3,0-0.5-0.3-0.4-0.6l0.5-4L29.1,59z"/>
		</g>
		<g>
			<path class="st67" d="M25.7,58.2l-0.8,3.3c-0.1,0.2-0.3,0.4-0.5,0.4c0,0-0.1,0-0.1,0c-0.3-0.1-0.4-0.3-0.4-0.6l0.8-3.3L25.7,58.2
				z"/>
		</g>
		<g>
			<path class="st67" d="M39.8,61.9c0.3-0.1,0.4-0.3,0.4-0.6l-0.8-3.2l-1,0.2l0.8,3.2C39.1,61.6,39.3,62,39.8,61.9z"/>
		</g>
		<g>
			<path class="st67" d="M35.9,58.9l0.5,4c0,0.3-0.2,0.5-0.4,0.6c0,0,0,0-0.1,0c-0.2,0-0.5-0.2-0.5-0.4l-0.5-4L35.9,58.9z"/>
		</g>
		<g>
			<path class="st67" d="M34.3,59.2c0,0.7,0.1,1.3,0.1,1.9c0,0.6,0.1,1.2,0.1,1.9c0,0.3-0.2,0.5-0.5,0.5c0,0,0,0,0,0
				c-0.3,0-0.5-0.2-0.5-0.5c0-0.7-0.1-1.3-0.1-1.9c0-0.6-0.1-1.2-0.1-1.9L34.3,59.2z"/>
		</g>
		<g>
			<path class="st67" d="M30.8,59.3c0,0.7-0.1,1.3-0.1,1.9c0,0.6-0.1,1.2-0.1,1.9c0,0.3-0.2,0.5-0.5,0.5c0,0,0,0,0,0
				c-0.3,0-0.5-0.3-0.5-0.5c0-0.7,0.1-1.3,0.1-1.9c0-0.6,0.1-1.2,0.1-1.9L30.8,59.3z"/>
		</g>
		<g>
			<path class="st67" d="M27.4,58.9l-0.6,3.4c0,0.2-0.3,0.4-0.5,0.4c0,0-0.1,0-0.1,0c-0.3,0-0.5-0.3-0.4-0.6l0.6-3.4L27.4,58.9z"/>
		</g>
		<g>
			<path class="st67" d="M37.7,58.7l0.6,3.4c0,0.3-0.1,0.5-0.4,0.6c0,0-0.1,0-0.1,0c-0.2,0-0.4-0.2-0.5-0.4l-0.6-3.4L37.7,58.7z"/>
		</g>
	</g>
	<path class="st5" d="M39.7,51.5l-0.4-16.7c0-0.1,0-0.1,0-0.2l4.9-30.8c0.1-0.5-0.3-1-0.8-1.1L39.1,2c-0.5-0.1-0.8-0.5-0.8-0.9v0
		c0-0.5-0.5-1-1-1H26c-0.5,0-1,0.4-1,1l0,1.2c0,0.5-0.3,0.9-0.8,0.9l-3.6,0.7C20,4,19.7,4.5,19.8,5.1l4.6,23.2c0,0.1,0,0.1,0,0.2
		l-0.4,23c0,0.8-0.2,1.6-0.5,2.6c-0.6,2-0.1,3.4,0.4,4.2c0.9,1.4,2.3,1.9,4.2,2.4c0.1,0,1.9,0.5,4,0.5c1.1,0,2.4-0.1,3.5-0.5
		c1.8-0.5,3.2-1,4.1-2.4c0.5-0.8,1-2.2,0.4-4.2C39.9,53.1,39.7,52.3,39.7,51.5z M28.9,3.1h5.6c0.4,0,0.8,0.4,0.7,0.8l-2.6,15.3
		L27.9,4.1c0,0-0.1-0.4,0.2-0.7C28.3,3.2,28.5,3.1,28.9,3.1z M37.2,56.6c-0.3,0.4-0.7,0.7-2.4,1.2c-2.5,0.8-5.7,0-5.9,0c0,0,0,0,0,0
		c-1.7-0.5-2.1-0.7-2.4-1.2c-0.3-0.4-0.3-1-0.1-1.8c0.3-1.2,0.6-2.2,0.6-3.3l0.4-23.3l0-0.2L23.2,6.8c0-0.2,0.1-0.4,0.3-0.4L27,5.7
		c0.2,0,0.4,0.1,0.4,0.2l8.8,28.6c0,0.1,0,0.2,0,0.3l0.4,16.7c0,1.2,0.3,2.2,0.6,3.4C37.5,55.6,37.5,56.2,37.2,56.6z M36.6,32.4
		l-3.3-10.8c0-0.1-0.1-0.3,0-0.5L36,5c0-0.2,0.3-0.4,0.5-0.4l4,0.6c0.2,0,0.4,0.3,0.4,0.5L36.6,32.4z"/>
</g>
</svg>
