<?xml version="1.0" encoding="utf-8"?>
<!-- Generator: Adobe Illustrator 20.0.0, SVG Export Plug-In . SVG Version: 6.00 Build 0)  -->
<svg version="1.1" id="Layer_1" xmlns="http://www.w3.org/2000/svg" xmlns:xlink="http://www.w3.org/1999/xlink" x="0px" y="0px"
	 viewBox="0 0 500 500" style="enable-background:new 0 0 500 500;" xml:space="preserve">
<style type="text/css">
	.st0{fill:#D1A982;}
	.st1{fill:#998004;stroke:#998004;stroke-width:6;stroke-linejoin:round;stroke-miterlimit:10;}
	.st2{fill:none;stroke:#7CA440;stroke-width:2;stroke-linecap:round;stroke-linejoin:round;stroke-miterlimit:10;}
	.st3{fill:#00FFFF;}
	.st4{clip-path:url(#SVGID_2_);}
	.st5{clip-path:url(#SVGID_4_);}
	.st6{clip-path:url(#SVGID_6_);}
	.st7{fill:#DCCB0D;}
	.st8{fill:#E0E6FF;}
	.st9{fill:#E5C403;}
	.st10{fill:#998004;}
	.st11{fill:none;stroke:#528B16;stroke-linecap:round;stroke-miterlimit:10;}
	.st12{fill:#EEF2FF;stroke:#AFADA7;stroke-miterlimit:10;}
	.st13{fill:#E5C403;stroke:#998004;stroke-miterlimit:10;}
	.st14{opacity:0.4;fill:none;stroke:#7CA440;stroke-miterlimit:10;}
	.st15{opacity:0.3;fill:none;stroke:#7CA440;stroke-miterlimit:10;}
	.st16{opacity:0.2;fill:none;stroke:#7CA440;stroke-miterlimit:10;}
	.st17{opacity:0.1;fill:none;stroke:#7CA440;stroke-miterlimit:10;}
	.st18{fill:#528B16;}
	.st19{fill:none;stroke:#FFFFFF;stroke-linecap:round;stroke-miterlimit:10;}
	.st20{fill:#FFFFFF;}
	.st21{fill:#7CA440;}
	.st22{fill:#BBB630;}
	.st23{fill:#C5B92E;}
	.st24{fill:#CFBD2D;}
	.st25{fill:#DAC02C;}
	.st26{fill:#EEF2FF;}
	.st27{fill:#AFADA7;}
	.st28{fill:#5ABC18;}
	.st29{fill:#1C6600;}
	.st30{fill:#5ABC18;stroke:#1C6600;stroke-linecap:round;stroke-linejoin:round;stroke-miterlimit:10;}
	.st31{fill:none;stroke:#FFFFFF;stroke-linecap:round;stroke-linejoin:round;stroke-miterlimit:10;}
	.st32{fill:#7FBA19;}
	.st33{fill:#426807;}
</style>
<g>
	<path class="st32" d="M484.9,39.4c0,12.7-3.5,29.7-9.9,48.1c3.2,0.9,5.8,3.1,7.4,6c0.9,1.7,1.4,3.7,1.4,5.6c0,1.8-0.4,3.6-1.2,5.2
		c-5.9,12.2-12.7,24.7-20.4,37.2c1.5,1.1,2.7,2.6,3.6,4.4c0.8,1.7,1.2,3.5,1.2,5.3c0,1.9-0.4,3.7-1.3,5.4
		c-5.9,11.6-12.6,23.2-20.2,34.7c2.1,1.3,3.9,3.3,4.9,5.6c0.6,1.5,0.9,3.1,0.9,4.7c0,2.6-0.8,5.1-2.4,7.2
		c-12.5,16.7-26.6,33-42.2,48.5c-0.6,0.6-1.2,1.1-1.8,1.7c11.3,11.8,21.8,24.1,31.2,36.7c1.6,2.1,2.4,4.7,2.4,7.2
		c0,1.6-0.3,3.2-0.9,4.7c-0.8,1.9-2.1,3.6-3.6,4.8c6.2,9.5,11.8,19.1,16.7,28.8c0.9,1.7,1.3,3.6,1.3,5.5c0,1.8-0.4,3.5-1.2,5.2
		c-0.7,1.4-1.6,2.6-2.7,3.7c6.6,10.7,12.5,21.4,17.5,31.9c0.8,1.7,1.2,3.5,1.2,5.2c0,1.9-0.4,3.8-1.3,5.5c-1.3,2.5-3.4,4.5-5.9,5.6
		c5.5,16.1,8.6,31.1,8.6,42.3c0,8.1-1.7,13.5-5.3,17.1c-3.2,3.2-9.6,7-28.6,4.4c-6.8-1-17-3-30.1-7.5c-1.1,2.5-3,4.7-5.5,6
		c-3.4,1.7-7.4,1.8-10.8,0.2c-10.5-5-21.2-10.9-31.9-17.4c-1,1.1-2.2,1.9-3.5,2.6c-3.4,1.6-7.3,1.6-10.7-0.1
		c-9.9-5-19.8-10.7-29.6-17.2c-1.2,1.6-2.9,2.8-4.8,3.6c-3.9,1.7-8.5,1.1-11.9-1.5c-12.5-9.4-24.9-19.8-36.7-31.2
		c-0.6,0.6-1.1,1.2-1.7,1.8c-15.5,15.5-31.8,29.7-48.5,42.1c-3.4,2.6-8,3.1-11.9,1.5c-2.4-1-4.3-2.7-5.6-4.8
		c-11.1,7.4-22.5,14-33.8,19.8c-3.3,1.7-7.3,1.8-10.7,0.2c-1.8-0.9-3.3-2.1-4.5-3.7c-12.5,7.7-24.9,14.6-37.2,20.5
		c-3.4,1.6-7.4,1.6-10.7-0.1c-3-1.5-5.2-4.2-6.1-7.4c-24.3,8.4-56.3,15.6-67.2,4.7c-3.8-3.8-5.5-9.5-5.5-18.2
		c0-12.7,3.5-29.7,9.9-48.1c-3.2-0.9-5.8-3.1-7.4-6c-0.9-1.7-1.4-3.7-1.4-5.6c0-1.8,0.4-3.6,1.2-5.2c5.9-12.2,12.7-24.7,20.4-37.2
		c-1.5-1.1-2.7-2.6-3.6-4.4c-0.8-1.7-1.2-3.5-1.2-5.3c0-1.9,0.4-3.7,1.3-5.4c5.9-11.6,12.6-23.2,20.2-34.7c-2.1-1.3-3.9-3.3-4.9-5.6
		c-0.6-1.5-0.9-3.1-0.9-4.7c0-2.6,0.8-5.1,2.4-7.2c12.5-16.7,26.6-33,42.2-48.5c0.6-0.6,1.1-1.1,1.7-1.7
		c-11.6-12.1-22.4-24.6-31.9-37.4c-1.6-2.1-2.4-4.7-2.4-7.2c0-1.6,0.3-3.2,0.9-4.7c0.8-1.9,2.1-3.6,3.6-4.8
		c-6.2-9.5-11.8-19.1-16.7-28.8c-0.9-1.7-1.3-3.6-1.3-5.5c0-1.8,0.4-3.5,1.2-5.2c0.7-1.4,1.6-2.6,2.7-3.7
		C45,133.7,39.1,123,34,112.5c-0.8-1.7-1.2-3.5-1.2-5.2c0-1.9,0.4-3.8,1.3-5.5c1.3-2.5,3.4-4.5,5.9-5.6c-5.5-16.1-8.6-31.1-8.6-42.3
		c0-8.1,1.7-13.5,5.3-17.1c3.2-3.2,9.6-7,28.6-4.4c6.8,0.9,17,3,30.1,7.5c1.1-2.5,3-4.7,5.5-6c3.4-1.7,7.4-1.8,10.8-0.2
		c10.5,5,21.2,10.9,31.9,17.4c1-1.1,2.2-1.9,3.5-2.6c3.4-1.6,7.3-1.6,10.7,0.1c9.9,5,19.8,10.7,29.6,17.2c1.2-1.6,2.9-2.8,4.8-3.6
		c3.9-1.7,8.5-1.1,11.9,1.5c12.8,9.6,25.4,20.3,37.5,32c0.6-0.6,1.1-1.2,1.7-1.7c15.5-15.5,31.8-29.7,48.5-42.1
		c3.4-2.6,8-3.1,11.9-1.5c2.4,1,4.3,2.7,5.6,4.8c11.1-7.4,22.4-14,33.8-19.8c3.3-1.7,7.3-1.8,10.7-0.2c1.8,0.9,3.3,2.1,4.5,3.7
		c12.5-7.7,24.9-14.6,37.2-20.5c3.4-1.6,7.4-1.6,10.7,0.1c3,1.5,5.2,4.2,6.1,7.4c24.3-8.4,56.3-15.6,67.2-4.7
		C483.1,24.9,484.9,30.7,484.9,39.4C484.9,39.4,484.9,39.4,484.9,39.4z"/>
	<path class="st20" d="M82.4,89.8c-1,0-2.1-0.4-2.8-1.2l-10-10c-1.6-1.6-1.6-4.1,0-5.7c1.6-1.6,4.1-1.6,5.7,0l10,10
		c1.6,1.6,1.6,4.1,0,5.7C84.5,89.4,83.4,89.8,82.4,89.8z"/>
	<path class="st20" d="M421.1,428.5c-1,0-2.1-0.4-2.8-1.2l-10-10c-1.6-1.6-1.6-4.1,0-5.7c1.6-1.6,4.1-1.6,5.7,0l10,10
		c1.6,1.6,1.6,4.1,0,5.7C423.1,428.1,422.1,428.5,421.1,428.5z"/>
	<path class="st20" d="M140,260.7c-7.1,3-13.5,6.9-18.4,11.9c-1.6,1.6-1.6,4.1,0,5.7c0.8,0.8,1.8,1.2,2.8,1.2s2.1-0.4,2.8-1.2
		c5.6-5.6,14-10.1,24.2-13.2C147.5,264.1,143.7,262.6,140,260.7z"/>
	<path class="st20" d="M271.8,122.5c-1.6-1.6-4.1-1.6-5.7,0c-3.4,3.4-6.3,7.5-8.8,12c1.7,3.2,3,6.6,4.1,10.1
		c2.8-6.7,6.3-12.3,10.4-16.4C273.4,126.6,273.4,124,271.8,122.5z"/>
	<circle class="st20" cx="48.5" cy="453" r="4"/>
	<circle class="st20" cx="452.9" cy="48.2" r="4"/>
	<circle class="st20" cx="60.9" cy="64.4" r="4"/>
	<circle class="st20" cx="249.1" cy="232.3" r="4"/>
	<circle class="st20" cx="109.6" cy="289.3" r="4"/>
	<circle class="st20" cx="284.8" cy="111.3" r="4"/>
	<path class="st33" d="M446.4,4.7c-6.6,0.9-15.8,2.7-27.2,6.2c-1.3,0.4-2.8,0.1-3.9-0.7c-2.5-1.9-5.4-3.4-8.6-4.2
		c-5.7-1.5-11.7-0.8-17,1.8c-9.6,4.6-19.3,9.8-29,15.5c-1.3,0.1-2.4,0.2-3.7,0.3c-6.3-2.4-13.4-2-19.5,1.1
		c-8.5,4.3-16.9,9.1-25.3,14.3c-1.2,0.7-2.6,0.8-3.8,0.3c-1.3-0.5-2.6-1-3.9-1.3c-7.1-1.7-14.6,0.2-20.5,4.6
		c-9.1,6.8-18.1,14.2-26.9,21.9c-9,7.9-22.5,8.1-31.8,0.5c-4.6-3.8-9.2-7.4-13.9-10.9c-6.9-5.1-15.9-6.2-23.8-2.9
		c-0.2,0.1-0.3,0.1-0.5,0.2c-7.9-4.9-15.8-9.4-23.8-13.4c-6.2-3.1-13.4-3.4-19.8-0.9c-8.7-5.1-17.4-9.7-26-13.9
		c-5.1-2.5-10.9-3.3-16.5-2c-3.7,0.9-7,2.5-9.8,4.8c-8.6-2.6-16.8-4.4-24.3-5.4c-18.8-2.6-30.8-0.2-38.8,7.8
		c-8.8,8.8-8.8,21.5-8.8,25.7c0,10.6,2.4,23.9,6.7,38.3c-1,1.3-1.9,2.7-2.7,4.2c-1.7,3.4-2.6,7.2-2.6,10.9c0,3.6,0.8,7.2,2.4,10.5
		c4.2,8.8,9,17.6,14.2,26.5c-1.2,2.9-1.7,5.9-1.7,9c0,3.8,0.9,7.5,2.6,11c3.9,7.7,8.2,15.3,12.9,22.9c-0.1,0.2-0.1,0.3-0.2,0.5
		c-1.3,3-1.9,6.2-1.9,9.3c0,5.1,1.6,10.2,4.8,14.5c3.5,4.7,7.1,9.3,10.9,13.9c7.7,9.3,7.4,22.9-0.6,31.9c-7.9,9-15.3,18.1-22.2,27.4
		c-3.2,4.2-4.8,9.3-4.8,14.5c0,3.2,0.6,6.3,1.9,9.3c0.3,0.7,0.6,1.4,1,2c-5.9,9.3-11.2,18.8-16,28.2c-1.7,3.4-2.6,7.2-2.6,10.9
		c0,3.5,0.8,7.1,2.3,10.3C17.6,370.3,12,380.7,7,391.1c-1.6,3.3-2.4,6.9-2.4,10.4c0,3.8,0.9,7.6,2.7,11.1c1,2,2.3,3.8,3.8,5.4
		c-5,16.3-7.7,31.4-7.7,43.2v0c0,7.6,0.9,18.7,9,26.8c8.3,8.3,21.1,10.8,41.5,7.9c7-1,16.9-3,29.4-6.8c2.8,2.6,6.3,4.6,10.2,5.6
		c5.7,1.5,11.7,0.8,17-1.8c10.2-4.9,20.5-10.5,30.8-16.6h0c6.8,3.2,14.7,3.1,21.4-0.3c9.1-4.6,18.2-9.8,27.3-15.5
		c0.7,0.3,1.3,0.7,2,1c7.9,3.3,16.9,2.2,23.8-2.9c9.3-6.9,18.4-14.4,27.4-22.3c9.1-8,22.6-8.3,31.9-0.6c4.3,3.5,8.7,6.9,13.1,10.2
		c6.9,5.1,15.9,6.2,23.8,2.9c0.2-0.1,0.3-0.1,0.5-0.2c7.9,4.9,15.8,9.4,23.8,13.4c6.2,3.1,13.4,3.4,19.8,0.9
		c8.7,5.1,17.4,9.7,26,13.9c5.1,2.5,10.9,3.3,16.5,2c3.7-0.9,7-2.5,9.7-4.8c8.6,2.6,16.8,4.4,24.3,5.4c18.8,2.6,30.8,0.2,38.8-7.8
		c8.8-8.8,8.8-21.5,8.8-25.7c0-10.6-2.4-23.9-6.7-38.3c1-1.3,1.9-2.7,2.7-4.2c1.7-3.4,2.6-7.2,2.6-10.9c0-3.6-0.8-7.2-2.4-10.5
		c-4.2-8.8-9-17.6-14.2-26.5c1.2-2.9,1.7-5.9,1.7-9c0-3.8-0.9-7.5-2.6-11c-3.9-7.7-8.2-15.3-12.9-22.9c0.1-0.2,0.1-0.3,0.2-0.5
		c1.3-3,1.9-6.2,1.9-9.3c0-5.1-1.6-10.2-4.8-14.5c-3.3-4.4-6.7-8.7-10.2-13c-7.6-9.4-7.3-22.8,0.6-31.9c7.9-9,15.4-18.2,22.3-27.4
		c3.2-4.2,4.8-9.3,4.8-14.5c0-3.2-0.6-6.3-1.9-9.3l0,0c-0.6-1.3-0.4-2.8,0.3-4c5.4-8.7,10.3-17.4,14.7-26.1
		c1.7-3.4,2.6-7.2,2.6-10.9c0-2.9-0.5-5.8-1.5-8.5c-0.5-1.2-0.3-2.5,0.3-3.6c5.8-9.9,11-19.7,15.7-29.4c1.6-3.3,2.4-6.9,2.4-10.4
		c0-3.8-0.9-7.6-2.7-11.1c-0.7-1.3-1.5-2.6-2.4-3.7c-0.9-1.1-1.1-2.5-0.7-3.9c4.6-15.4,7-29.7,7-41c0-7.6-0.9-18.7-9-26.8
		C479.6,4.2,466.8,1.8,446.4,4.7z M285.4,180.9c5.6-3.8,11-6.9,16-9.6c2-1.1,4.5,0.1,4.9,2.4l0.2,0.8c0,0,0,0,0,0
		c15.5-6.4,26-6.7,27.6-5.1c0.5,0.5,0.8,1.8,0.8,3.9c0,4.6-1.5,12.8-5.8,23.4c0,0,0,0,0,0l0.8,0.1c2.3,0.4,3.5,2.9,2.4,4.9
		c-2.6,5-5.8,10.4-9.5,16c0,0,0,0,0,0l0.3,0.1c2.2,0.5,3.4,2.9,2.3,4.9c-2.8,5.1-6.1,10.3-10.1,15.7l0,0c2.6,0.4,3.8,3.4,2.2,5.5
		c-3.9,4.8-8.2,9.6-13,14.5c-12.6,12.6-35.3,9.1-49.1,0.2c-1.3-0.9-1.5-2.7-0.4-3.8l18-18c1.3-1.3,3.1-1.7,4.8-1.1
		c5,1.8,12.9,3.5,22.5,1.9c2-0.3,3.4-2,3.4-4c0-0.2,0-0.4,0-0.6c-0.3-2.3-2.6-3.7-4.9-3.3c-6,1-11.2,0.3-15.1-0.7
		c-1-0.3-1.4-1.5-0.6-2.3l26.5-26.5c0.8-0.8,1.2-1.8,1.2-2.8c0-1.1-0.5-2.2-1.4-3c-1.6-1.4-4.1-1.2-5.6,0.3l-26.6,26.6
		c-0.7,0.7-2,0.4-2.3-0.6c-1.1-4-1.8-9.4-0.8-15.9c0.4-2.4-1.5-4.7-4.1-4.7c-2,0-3.6,1.6-3.9,3.6c-1.6,9.8,0.3,17.8,2.1,22.7
		c0.6,1.7,0.2,3.5-1,4.8l-18.1,18.1c-1,1-2.8,0.9-3.7-0.2c-6.1-8-9.4-17.7-9.4-26.9c0-8.7,2.9-17,9.1-23.2c4.8-4.8,9.7-9.2,14.5-13
		c2.1-1.6,5.1-0.4,5.5,2.2v0c5.2-3.9,10.4-7.1,15.4-9.9c2-1.1,4.4,0,4.9,2.2L285.4,180.9C285.4,180.9,285.4,180.9,285.4,180.9z
		 M235.3,319.2c-5.2,3.9-10.4,7.1-15.4,9.9c-2,1.1-4.4,0-4.9-2.2l-0.1-0.4c0,0,0,0,0,0c-5.6,3.8-11,6.9-16,9.6
		c-2,1.1-4.5-0.1-4.9-2.4l-0.2-0.8c-15.5,6.4-26,6.7-27.6,5.1c-0.5-0.5-0.8-1.8-0.8-3.9c0-4.6,1.5-12.8,5.8-23.4c0,0,0,0,0,0
		l-0.8-0.1c-2.3-0.4-3.5-2.9-2.4-4.9c2.6-5,5.8-10.4,9.5-16c0,0,0,0,0,0l-0.3-0.1c-2.2-0.5-3.4-2.9-2.3-4.9
		c2.8-5.1,6.1-10.3,10.1-15.7l0,0c-2.6-0.4-3.8-3.4-2.2-5.5c3.9-4.8,8.2-9.6,13-14.5c8.8-8.8,22.5-9.7,34.7-6.5
		c1.2,0.3,2.1,1.1,2.6,2.2c1.6,3.3,3.6,6.5,5.8,9.5c1.3,1.7,1.2,4.1-0.3,5.6l-17.1,17.1c-0.7,0.7-1.7,0.9-2.5,0.5
		c-4.7-1.9-13.3-4.4-24.1-2.7c-1.9,0.3-3.5,1.9-3.6,3.9c-0.1,2.6,2.2,4.5,4.7,4.1c5.5-0.9,10.4-0.5,14.2,0.4c1.8,0.4,2.5,2.6,1.1,4
		l-23.7,23.7c-1.5,1.5-1.8,4.1-0.3,5.7c1.6,1.7,4.2,1.8,5.8,0.2l23.6-23.6c1.3-1.3,3.6-0.6,4,1.2c0.7,3.6,1,8,0.2,13.1
		c-0.3,2.1,0.9,4.3,3,4.8c2.3,0.5,4.5-1,4.9-3.3c0.4-2.6,0.6-5.2,0.6-7.5c0-6.9-1.6-12.4-3-16c-0.3-0.9-0.1-1.9,0.5-2.5l17.6-17.6
		c1.4-1.4,3.7-1.7,5.4-0.5c3,2.1,6.4,3.9,10,5.4c1.2,0.5,2.1,1.5,2.5,2.8c1.2,4,1.9,8.2,1.9,12.2c0,8.7-2.9,17-9.1,23.2
		c-4.8,4.8-9.7,9.2-14.5,13C238.7,323,235.7,321.8,235.3,319.2L235.3,319.2z M262.1,166.1c0.6,4.6-1.5,9-5.2,11.8c0,0,0,0-0.1,0
		c-6,4.6-11.8,9.8-17.4,15.4c-7.4,7.4-11.5,17.7-11.5,28.9v0c0,1.3-1.6,2-2.6,1.1l-34-34c-1.2-1.2-1.5-3.1-0.7-4.6
		c3.7-7,8.2-19,8.2-34.6c0-4.3-0.3-8.8-1.1-13.6c-0.3-1.9-1.9-3.4-3.8-3.5c-2.7-0.1-4.6,2.2-4.2,4.7c2.6,15.6-0.2,28.1-3,35.9
		c-0.3,0.9-0.6,1.7-1,2.5c-1.1,2.6-4.4,3.2-6.4,1.3l-33-33c-1.1-1.1-1.4-2.7-0.9-4.2c2.1-5.4,4.4-13.7,4.4-23.9
		c0-3.5-0.3-7.2-0.9-11.1c-0.3-2-1.9-3.6-3.9-3.6c-2.6-0.1-4.5,2.2-4.1,4.7c1.7,9.9,0.6,18.5-1.1,24.9c-0.6,2.3-3.5,3.1-5.2,1.4
		l-32.3-32.3c-1.5-1.5-4.1-1.8-5.7-0.3c-1.7,1.6-1.8,4.2-0.2,5.8l33.1,33.1c2.1,2.1,1.2,5.6-1.6,6.5c-6.5,2.1-16.5,4.1-28.3,2.1
		c-1.7-0.3-3.5,0.5-4.3,2.1c-1.3,2.6,0.3,5.4,2.9,5.9c18.6,3.1,32.9-2.1,39.1-5c1.5-0.7,3.3-0.4,4.4,0.8l32.9,32.9
		c1.9,1.9,1.4,5.1-1,6.3c-8,4-22.9,9.2-42.5,6c-2.2-0.4-4.3,1-4.8,3.1c-0.5,2.3,1,4.4,3.3,4.8c25.9,4.3,44.5-4.5,52-9.1
		c1.5-0.9,3.5-0.7,4.8,0.6l34.3,34.3c1,1,0.3,2.6-1.1,2.6c-11.9-0.4-22.2,3.2-29.5,10.5c-4.7,4.7-10.2,10.5-14.5,16.3
		c-2.9,3.8-7.6,5.7-12.3,4.8c-21.2-3.8-40.9-13-53.8-25.8c-10.5-10.5-19.9-21-28.3-31.4c-3.6-4.4-0.9-11,4.7-11.8h0c0,0,0,0,0,0
		C77.6,184,70.5,172.8,64.5,162c-2.4-4.3,0.1-9.6,4.9-10.7l0.9-0.2c-8.2-12.2-15.1-23.9-20.8-34.8c-2.3-4.4,0.4-9.7,5.2-10.6
		l1.8-0.3c0,0,0,0,0,0c-9.6-23.2-12.8-41.2-12.8-51.2c0-4.6,0.7-7.5,1.7-8.5c3.4-3.4,25.8-2.8,59.2,10.9c0,0,0,0,0,0l0.3-1.8
		c0.8-4.9,6.2-7.6,10.6-5.3c10.9,5.7,22.5,12.5,34.7,20.6l0.2-0.7c1-4.8,6.4-7.3,10.7-5c11,6.1,22.4,13.3,34,21.8l0,0
		c0.8-5.6,7.4-8.3,11.8-4.7c10.4,8.4,21,17.8,31.5,28.3C251.5,122.9,259.4,144,262.1,166.1z M213,430.2c-5,4.1-12.6,1.1-13.5-5.3v0
		c0,0,0,0,0,0c-12.9,9.5-25.6,17.6-37.8,24.3c-4.9,2.7-10.9-0.1-12.1-5.5l-0.2-1c-13.8,9.3-27.1,17.1-39.5,23.6
		c-5,2.6-11-0.4-12-5.9l-0.4-2.1c0,0,0,0,0,0c-38.2,15.8-64,16.4-67.8,12.6c-1.2-1.2-2-4.5-2-9.7c0-11.3,3.6-31.5,14.3-57.5
		c0,0,0,0,0,0l-2-0.3c-5.6-0.9-8.6-7-6-12c6.4-12.4,14.2-25.6,23.4-39.4l-0.8-0.2c-5.5-1.1-8.3-7.2-5.6-12.1
		c6.9-12.5,15.1-25.4,24.8-38.6l0,0c-6.4-0.9-9.4-8.4-5.4-13.5c9.5-11.8,20.2-23.8,32.1-35.7l0,0c2.9-2.4,7-2.5,10-0.2
		c15.6,11.8,36.9,19.7,59.5,22.1c-0.3,0.5-0.6,1.1-0.6,1.2c-2,3.3-3.9,6.7-5.6,10c-0.6,1.1-0.9,2.4-0.9,3.6c0,1.2,0.3,2.4,0.8,3.5
		c0.1,0.3,0.3,0.5,0.4,0.7c-2.7,4.5-5.1,9-7.2,13.4c-0.5,1.1-0.8,2.3-0.8,3.5c0,1.3,0.3,2.5,0.9,3.7c0.5,1,1.2,1.8,2,2.5
		c-0.4,1.3-0.8,2.5-1.1,3.8c-10.9-4.4-27.4-8.3-48-4.9c-2.1,0.3-3.7,2.2-3.5,4.3c0.2,2.4,2.4,4,4.7,3.7c17.5-2.9,31.8,0.1,41.7,3.7
		c2,0.7,3.2,2.7,3,4.7c-0.1,1-0.1,1.9-0.1,2.8c0,1,0,2.1,0.2,3.3c0.2,1.5-0.2,2.9-1.3,4l-33.3,33.3c-1.3,1.3-3.3,1.7-5.1,1
		c-7.7-3.3-23-8.1-42.3-4.9c-1.9,0.3-3.4,1.9-3.5,3.9c-0.1,2.6,2.2,4.5,4.7,4.1c14.1-2.3,25.9,0.1,33.4,2.6c2.1,0.7,2.7,3.4,1.2,4.9
		l-26.2,26.2c-1.5,1.5-1.8,4.1-0.3,5.7c1.6,1.7,4.2,1.8,5.8,0.2l26.4-26.4c1.6-1.6,4.2-0.9,4.9,1.2c2.5,7.5,5,19.3,2.6,33.5
		c-0.4,2.3,1.3,4.5,3.7,4.7c2.1,0.2,4-1.5,4.3-3.6c0.7-4.5,1-8.7,1-12.7c0-13.2-3.4-23.6-5.9-29.5c-0.7-1.7-0.4-3.7,1-5.1l32.8-32.8
		c1.1-1.1,2.7-1.6,4.3-1.2c2,0.5,4.4,0.6,6.8,0.4c2.1-0.1,4,1.1,4.6,3.1c3.5,9.8,6.1,23.8,3.3,40.8c-0.4,2.3,1.3,4.5,3.7,4.7
		c2.1,0.2,4-1.4,4.3-3.5c0.9-5.5,1.3-10.6,1.3-15.5c0-12.9-2.7-23.6-5.8-31.5c1.6-0.4,3.2-0.9,4.6-1.4c1.2,1.4,2.9,2.5,5,2.8
		c1.6,0.3,3.3-0.1,4.8-0.8c4.4-2.1,8.8-4.5,13.2-7.2c1.5,0.9,3.3,1.4,5.2,1.2c1-0.1,2-0.4,2.9-0.9c3.1-1.6,6.3-3.4,9.4-5.3
		c2.6,23.3,10.4,44,22,58.1c1.1,1.3,1,3.1-0.1,4.4c-0.8,0.9-1.6,1.7-2.4,2.6C236.7,410.1,224.8,420.7,213,430.2z M390.2,261.2
		c10.6,10.6,20,21.1,28.4,31.6c3.5,4.4,0.9,10.9-4.7,11.7l-0.1,0c8.1,11.1,15.1,21.9,21,32.5c2.6,4.7,0,10.6-5.3,11.8l0,0
		c7.8,11.6,14.4,22.7,19.9,33.2c2.7,5.2-0.4,11.6-6.1,12.6l0,0c9.6,23.2,12.8,41.2,12.8,51.3c0,4.6-0.7,7.5-1.7,8.6
		c-3.4,3.4-25.9,2.8-59.3-10.9l0,0c-1,5.8-7.3,9-12.6,6.2c-10.5-5.5-21.6-12.1-33.1-19.8l0,0c-1.1,5.2-6.9,7.9-11.6,5.3
		c-10.8-6-22-13.1-33.3-21.4v0c-0.8,5.6-7.4,8.3-11.8,4.7c-10.4-8.4-21-17.8-31.5-28.3c-13-13-20.8-33.6-23.7-55.3
		c-0.1-1.1,0.5-2.1,1.5-2.5c0.7-0.3,1.3-0.6,1.9-1.1c6.9-5.1,13.6-11,20-17.4c7.4-7.4,11.5-17.7,11.5-28.9c0-0.7,0-1.4-0.1-2.2
		c0,0-0.1-0.4,0.3-0.5c0.3-0.1,0.5,0.1,0.5,0.1l33.7,33.7c1.8,1.8,2.2,4.7,0.9,6.9c-4.6,7.8-12.9,26-8.7,51.2
		c0.3,1.9,1.9,3.5,3.8,3.5c2.7,0.1,4.6-2.2,4.2-4.7c-2.6-15.5,0.2-28.1,3-35.9c1.3-3.6,2.7-6.5,3.9-8.7c0.9-1.7,3.2-2,4.5-0.6
		l33.1,33.1c1.7,1.7,2.1,4.2,1.2,6.4c-2.9,6.4-7.8,20.3-4.8,38.3c0.3,2.1,2.2,3.8,4.3,3.6c2.4-0.2,4-2.4,3.6-4.7
		c-2.2-13.4,0.5-24.4,2.9-30.7c0.7-1.9,3.2-2.5,4.7-1l33.9,33.9c1.5,1.5,4,1.8,5.6,0.3c0.9-0.8,1.4-1.9,1.4-3c0-1-0.4-2.1-1.2-2.8
		l-32.1-32.1c-1.6-1.6-0.8-4.2,1.3-4.8c6.3-1.6,14.8-2.6,24.6-1c2.2,0.4,4.5-1.1,4.8-3.4c0-0.2,0-0.4,0-0.6c0-1.9-1.4-3.6-3.4-4
		c-14.4-2.4-26.2,0.2-33.7,2.8c-2.1,0.7-4.4,0.2-5.9-1.4l-33.4-33.4c-1.4-1.4-1-3.8,0.9-4.6c8.5-3.6,22-7.2,39.2-4.4
		c2.2,0.4,4.5-1.1,4.8-3.3c0-0.2,0-0.4,0-0.6c0-1.9-1.4-3.6-3.4-4c-21.2-3.5-37.5,1.8-46.8,6.3c-2.2,1.1-4.8,0.6-6.5-1.1l-34.5-34.5
		c-1-1-0.2-2.6,1.1-2.6c12,0.5,22.5-3.1,29.9-10.5c6.4-6.4,12.3-13.1,17.4-20c1.1-1.4,1.6-3.1,1.6-4.8c0-1.1-0.2-2.1-0.6-3.1
		c-0.2-0.5-0.5-1-0.8-1.5c0.1-0.2,0.2-0.3,0.3-0.5C352.3,236.9,375.7,246.7,390.2,261.2z M470.8,29.7c1.2,1.2,2,4.5,2,9.7
		c0,11.3-3.6,31.5-14.3,57.5l2,0.3c5.6,0.9,8.6,7,6,12c-6.4,12.4-14.2,25.6-23.4,39.4c0,0,0,0,0,0l0.8,0.2c5.5,1.1,8.3,7.2,5.6,12.1
		c-6.9,12.5-15.1,25.4-24.8,38.6l0,0c6.4,0.9,9.4,8.4,5.4,13.5c-9.5,11.8-20.2,23.8-32.1,35.7c-0.1,0.1-0.3,0.3-0.4,0.4
		c-2.3,2.3-6,2.5-8.5,0.5c-13.8-11-32.5-18.9-52.8-22.4c-1.9-0.3-2.9-2.4-2-4c0.1-0.2,0.2-0.5,0.4-0.7c0.6-1.1,0.9-2.4,0.9-3.6
		c0-1.2-0.3-2.4-0.8-3.5c-0.1-0.3-0.3-0.5-0.4-0.7c2.7-4.5,5.1-9,7.2-13.4c0.5-1.1,0.8-2.3,0.8-3.5c0-0.2,0-0.3,0-0.5
		c-0.1-0.9,0.8-1.6,1.7-1.4c10.3,2.9,23.7,4.5,39.4,1.9c2-0.3,3.4-2,3.4-4c0-0.2,0-0.4,0-0.6c-0.3-2.2-2.6-3.7-4.8-3.4
		c-17.1,2.8-31.2,0-41-3.5c1.2-4.8,1.9-9.2,1.9-12.9c0-1.4-0.1-3.1-0.5-4.8c-0.3-1,0.1-2,0.8-2.7l27.2-27.2c1.9-1.9,4.7-2.4,7.1-1.4
		c7.9,3.3,23,7.8,42,4.7c2-0.3,3.4-2,3.4-4c0-0.2,0-0.4,0-0.6c-0.3-2.2-2.6-3.7-4.8-3.3c-14.6,2.4-26.8-0.4-34.2-3
		c-2-0.7-2.5-3.2-1-4.7l30.1-30.1c0.8-0.8,1.2-1.8,1.2-2.8c0-1.1-0.5-2.2-1.4-3c-1.6-1.4-4.1-1.2-5.7,0.3l-29.5,29.5
		c-1.5,1.5-4,0.9-4.7-1.1c-2.5-7.5-4.8-19.1-2.4-33c0.4-2.3-1.3-4.5-3.7-4.7c-2.1-0.2-4,1.5-4.3,3.6c-2.9,17.9,1,32.4,4.2,40.5
		c1,2.4,0.4,5.2-1.4,7.1l-27.9,27.9c-0.7,0.7-1.7,1-2.6,0.7c-4.8-1.1-11.1-0.2-16.9,1.3c-3.4-9.8-6-23.7-3.2-40.4
		c0.4-2.3-1.3-4.5-3.7-4.7c-2.1-0.2-4,1.4-4.3,3.5c-2.6,15.5-1,28.6,1.8,38.9c0.3,0.9-0.5,1.8-1.5,1.7c-1.6-0.3-3.3,0-4.8,0.7
		c-4,1.9-8.1,4.1-12.2,6.6c-0.7,0.4-1.6,0.4-2.3,0.1c-1.1-0.5-2.4-0.7-3.7-0.6c-1.1,0.1-2.2,0.4-3.2,0.9c-3.2,1.6-6.5,3.5-9.7,5.4
		c-1.6-26.5-9.9-50.3-22.8-65.9c-0.5-0.6-0.6-1.5,0-2.1c0,0,0,0,0,0c1.2-1.4,2.4-2.7,3.7-4c11.9-11.9,23.8-22.6,35.7-32.1
		c5-4.1,12.6-1.1,13.5,5.3v0c0,0,0,0,0,0c12.9-9.5,25.6-17.6,37.8-24.4c4.9-2.7,10.9,0.1,12.1,5.5l0.2,1c0,0,0,0,0,0
		c13.8-9.3,27.1-17.1,39.5-23.6c5-2.6,11,0.4,12,5.9l0.4,2.1c0,0,0,0,0,0C441.2,26.5,467,25.8,470.8,29.7z"/>
	<path class="st20" d="M194.7,264.4c-0.1-0.1-0.3-0.3-0.4-0.4c-1.3-1.8-1-4.3,0.8-5.6c7.5-5.6,15.5-7.6,20.1-7.6
		c8.9,0,17.7,3.5,23.5,9.2c1.6,1.6,1.6,4.1,0,5.7c-1.6,1.6-4.1,1.6-5.7,0c-4.3-4.3-10.9-6.9-17.8-6.9c-3.5,0-9.7,1.9-15.2,6
		C198.3,266,196.1,265.8,194.7,264.4z"/>
</g>
</svg>
