<?xml version="1.0" encoding="utf-8"?>
<!-- Generator: Adobe Illustrator 20.1.0, SVG Export Plug-In . SVG Version: 6.00 Build 0)  -->
<svg version="1.1" id="Layer_1" xmlns="http://www.w3.org/2000/svg" xmlns:xlink="http://www.w3.org/1999/xlink" x="0px" y="0px"
	 viewBox="0 0 250 250" style="enable-background:new 0 0 250 250;" xml:space="preserve">
<style type="text/css">
	.st0{fill:none;stroke:#1E6625;stroke-width:6;stroke-linecap:round;stroke-linejoin:round;stroke-miterlimit:10;}
	.st1{fill:none;stroke:#662B5B;stroke-width:6;stroke-linecap:round;stroke-linejoin:round;stroke-miterlimit:10;}
	.st2{fill:#419608;}
	.st3{opacity:0.6;fill:#419608;stroke:#1E6625;stroke-linecap:round;stroke-linejoin:round;stroke-miterlimit:10;}
	.st4{fill:none;stroke:#C2807D;stroke-linecap:round;stroke-linejoin:round;stroke-miterlimit:10;}
	.st5{fill:none;stroke:#34500C;stroke-width:6;stroke-linecap:round;stroke-linejoin:round;stroke-miterlimit:10;}
	.st6{fill:#7E9E5B;stroke:#34500C;stroke-miterlimit:10;}
	.st7{fill:#BFCC5C;}
	.st8{fill:#FFE200;}
	.st9{fill:#DDAA00;}
	.st10{fill:#FFF2B3;}
	.st11{fill:#406A29;}
	.st12{fill:#00FFFF;}
	.st13{clip-path:url(#SVGID_2_);}
	.st14{fill:none;stroke:#CC9600;stroke-width:6;stroke-linecap:round;stroke-miterlimit:10;}
	.st15{fill:none;stroke:#FFF2B3;stroke-linecap:round;stroke-miterlimit:10;}
	.st16{fill:none;stroke:#DDAA00;stroke-linecap:round;stroke-miterlimit:10;}
	.st17{fill:#FFE966;}
	.st18{fill:#FFE200;stroke:#DDAA00;stroke-width:3;stroke-linecap:round;stroke-miterlimit:10;}
	.st19{fill:#BFCC5C;stroke:#406A29;stroke-linecap:round;stroke-miterlimit:10;}
	.st20{fill:none;stroke:#A9B236;stroke-linecap:round;stroke-miterlimit:10;}
	.st21{fill:none;stroke:#406A29;stroke-linecap:round;stroke-miterlimit:10;}
	.st22{fill:#CC9600;}
	.st23{fill:#A9B236;}
	.st24{fill:#7CAB09;}
	.st25{fill:#4E670C;}
	.st26{fill:none;stroke:#C0CC8F;stroke-linecap:round;stroke-miterlimit:10;}
	.st27{fill:#7D8AD7;stroke:#4648A6;stroke-width:3;stroke-miterlimit:10;}
	.st28{opacity:0.6;fill:none;stroke:#CDD6FF;stroke-width:3;stroke-miterlimit:10;}
	.st29{opacity:0.4;fill:none;stroke:#CDD6FF;stroke-width:3;stroke-miterlimit:10;}
	.st30{opacity:0.2;fill:none;stroke:#CDD6FF;stroke-width:3;stroke-miterlimit:10;}
	.st31{fill:#7CAB09;stroke:#76990A;stroke-linecap:round;stroke-miterlimit:10;}
	.st32{fill:none;stroke:#A598D8;stroke-linecap:round;stroke-miterlimit:10;}
	.st33{fill:none;stroke:#2B2A6F;stroke-width:3;stroke-miterlimit:10;}
	.st34{fill:none;stroke:#8A6EDA;stroke-linecap:round;stroke-miterlimit:10;}
	.st35{fill:#E4E5E7;stroke:#2B2A6F;stroke-miterlimit:10;}
	.st36{fill:#C2807D;stroke:#7C152E;stroke-miterlimit:10;}
	.st37{fill:#E4E5E7;}
	.st38{fill:#A598D8;}
	.st39{fill:#C0CC8F;}
	.st40{fill:#7D8AD7;}
	.st41{fill:#AEB9ED;}
	.st42{fill:#9EA9E5;}
	.st43{fill:#8E9ADD;}
	.st44{fill:#76990A;}
	.st45{fill:#8A6EDA;}
	.st46{fill:#2B2A6F;}
	.st47{fill:#C2807D;}
	.st48{fill:#7C152E;}
	.st49{fill:#FE8600;stroke:#F15A24;stroke-width:3;stroke-miterlimit:10;}
	.st50{fill:#FE8600;}
	.st51{fill:none;stroke:#F15A24;stroke-miterlimit:10;}
	.st52{fill:none;stroke:#F15A24;stroke-linecap:round;stroke-miterlimit:10;}
	.st53{opacity:0.8;fill:none;stroke:#F15A24;stroke-width:3;stroke-miterlimit:10;}
	.st54{opacity:0.6;fill:none;stroke:#F15A24;stroke-width:3;stroke-miterlimit:10;}
	.st55{opacity:0.4;fill:none;stroke:#F15A24;stroke-width:3;stroke-miterlimit:10;}
	.st56{opacity:0.2;fill:none;stroke:#F15A24;stroke-width:3;stroke-miterlimit:10;}
	.st57{fill:#F15A24;}
	.st58{fill:#9CAD23;stroke:#34500C;stroke-miterlimit:10;}
	.st59{opacity:0.4;fill:none;stroke:#34500C;stroke-linecap:round;stroke-miterlimit:10;}
	.st60{fill:none;stroke:#9CAD23;stroke-width:2;stroke-linecap:round;stroke-linejoin:round;stroke-miterlimit:10;}
	.st61{fill:none;stroke:#34500C;stroke-linecap:round;stroke-linejoin:round;stroke-miterlimit:10;}
	.st62{fill:none;stroke:#7CAB09;stroke-width:2;stroke-linecap:round;stroke-miterlimit:10;}
	.st63{fill:none;stroke:#7D9959;stroke-linecap:round;stroke-miterlimit:10;}
	.st64{fill:#7CAB09;stroke:#4E670C;stroke-miterlimit:10;}
	.st65{fill:none;stroke:#7CAB09;stroke-linecap:round;stroke-miterlimit:10;}
	.st66{fill:none;stroke:#34500C;stroke-linecap:round;stroke-miterlimit:10;}
	.st67{opacity:0.4;fill:#34500C;}
	.st68{fill:#34500C;}
	.st69{fill:#F46C29;}
	.st70{fill:#F77426;}
	.st71{fill:#F97D25;}
	.st72{fill:#EF4B18;}
	.st73{fill:#F3672A;}
	.st74{fill:#9CAD23;}
	.st75{fill:#7D9959;}
	.st76{fill:#7E9E5B;}
	.st77{fill:none;stroke:#935A4E;stroke-width:2;stroke-linecap:round;stroke-miterlimit:10;}
	.st78{fill:none;stroke:#663D1F;stroke-linecap:round;stroke-miterlimit:10;}
	.st79{fill:none;stroke:#935A4E;stroke-linecap:round;stroke-miterlimit:10;}
	.st80{fill:#663D1F;}
	.st81{clip-path:url(#SVGID_4_);}
	.st82{fill:#B8CE5D;stroke:#416F30;stroke-linecap:round;stroke-linejoin:round;stroke-miterlimit:10;}
	.st83{fill:none;stroke:#416F30;stroke-width:6;stroke-linecap:round;stroke-miterlimit:10;}
	.st84{fill:none;stroke:#406F30;stroke-width:5;stroke-linecap:round;stroke-miterlimit:10;}
	.st85{fill:#B8CE5D;}
	.st86{fill:#416F30;}
	.st87{fill:#90B74B;}
	.st88{fill:none;stroke:#5E8A3B;stroke-linecap:round;stroke-miterlimit:10;}
	.st89{opacity:0.7;fill:none;stroke:#FFFFFF;stroke-linecap:round;stroke-miterlimit:10;}
	.st90{fill:none;stroke:#6F2D49;stroke-width:6;stroke-linecap:round;stroke-linejoin:round;stroke-miterlimit:10;}
	.st91{fill:none;stroke:#BF6FAA;stroke-linecap:round;stroke-linejoin:round;stroke-miterlimit:10;}
	.st92{fill:none;stroke:#B8CE5D;stroke-linecap:round;stroke-miterlimit:10;}
	.st93{opacity:0.7;fill:#FFFFFF;}
	.st94{fill:#6F2D49;}
	.st95{fill:#BF6FAA;}
	.st96{fill:#5E8A3B;}
	.st97{fill:#1E6625;}
	.st98{fill:#662B5B;}
	.st99{fill:#935A4E;}
</style>
<g>
	<path class="st97" d="M142.4,145.2c-0.9,5.1-2.1,11.7-3.2,17.7c-0.6,2.9,2.4,5.1,5,3.9c6.3-2.9,13.6-5.5,22.1-7.7l0,0
		c45.4-11.6,76.7,11,78,12c4.3,3.2,5.9,8.9,3.9,13.8c-2,5-7.1,7.9-12.4,7.2c-0.4-0.1-46.1-5.7-102.6,20.9c-3.8,1.8-6.6,5.2-7.7,9.2
		c-1.5,5.3-2.9,10.3-4.3,15.1c-2,6.6-8,11.1-14.9,11.1c-1.5,0-3.1-0.2-4.5-0.7c-4.3-1.3-7.8-4.3-9.7-8.4c-1.6-3.5-1.8-7.6-0.6-11.3
		c1.1-3.5,2.1-7.2,3.2-11c1.3-4.8,0.1-9.9-3.2-13.6c-39.6-43.9-81-54.6-81.4-54.7c-5.2-1.3-8.8-5.9-8.9-11.2c0-5.3,3.5-10,8.7-11.4
		c1.6-0.4,38.4-9.9,74.6,17.5c7.3,5.5,13.1,11,17.8,16.4c2,2.2,5.6,1.3,6.2-1.7c1.2-6,2.4-12.6,3.3-17.8L142.4,145.2z M52.9,19.3
		C52.9,19.3,52.9,19.3,52.9,19.3C52.9,19.3,52.9,19.3,52.9,19.3z M229.3,17.2C229.3,17.2,229.3,17.2,229.3,17.2
		C229.3,17.2,229.3,17.2,229.3,17.2z M210.2,13.4C210.2,13.4,210.2,13.4,210.2,13.4C210.2,13.4,210.2,13.4,210.2,13.4z"/>
	<path class="st98" d="M90.4,33.7c2.2,1.8,3.7,4.2,4.4,6.9c0.4,1.4,1.9,2.1,3.2,1.5c1.3-0.6,2.7-1,4.1-1.1c0,0,0.1,0,0.1,0
		c2.9-0.3,5.8,0.4,8.2,1.8c1.2,0.7,2.5,0.9,3.8,0.8l0,0c3.6-0.4,7.2,0.7,10,3c3.2,2.6,5.1,6.4,5.1,10.5c0,3.1-0.9,5.5-1.8,7
		c-0.7,1.3-0.5,2.9,0.6,4c0.3,0.3,0.7,0.7,1,1.1c2.2,2.4,3.4,5.6,3.4,8.8c0,1.3,1.1,2.4,2.4,2.6l0,0c7.3,0.8,12.8,6.4,13.8,13.2
		c0.2,1.3,1.4,2.3,2.7,2.2l0.1,0c1.3-0.1,2.3-1.1,2.5-2.4c0.1-0.8,0.2-1.8,0.4-2.8c0.3-1.5,1.1-2.9,2-4.1c1.4-2,3.3-3.5,5.4-4.4
		c1.2-0.5,2.3-0.8,3.3-1c1.3-0.2,2.2-1.4,2.1-2.7c-0.1-1.6,0.2-3.7,1.3-6.1c1.3-2.8,3.5-5.1,6.3-6.6c0.6-0.3,1.3-0.6,1.9-0.8
		c1.2-0.4,1.9-1.5,1.7-2.7c-0.2-1.2-0.3-2.8-0.1-4.7c0.3-2.5,1.5-4.9,3.4-7c0.6-0.6,1.2-1.2,1.9-1.7c0.8-0.5,1.7-1,2.4-1.4
		c1.1-0.5,1.6-1.8,1.3-2.9c-0.2-0.8-0.5-1.7-0.6-2.8c-0.3-2.8,0.3-5.6,1.8-8.2c0.7-1.3,1.6-2.4,2.7-3.3c0.8-0.7,1.6-1.2,2.4-1.6
		c1.1-0.6,1.5-2,1-3.2c-0.3-0.5-0.5-1.1-0.7-1.7c-0.7-2.3-0.8-4.8-0.2-7.3c0.9-3.5,3.1-6.5,6.2-8.4c2.2-1.3,4.5-1.9,6.9-1.9
		c1.7,0,3.2-0.6,4.5-1.6c0.2-0.2,0.5-0.4,0.7-0.5c3-2,6.7-2.8,10.3-2.1c3.6,0.7,6.7,2.8,8.7,5.8c0.5,0.7,0.8,1.4,1.2,2.1
		c0.7,1.5,1.8,2.7,3.3,3.5c3.1,1.6,5.5,4.5,6.6,8.1c0.4,1.2,0.6,2.5,0.6,3.8c0,5-2.6,9.4-6.7,11.9l-0.8,0.5
		c-1.4,0.9-1.9,2.7-1.2,4.2c0,0.1,0.1,0.2,0.1,0.2c1.8,3.7,1.8,7.9,0.1,11.7c-1.4,3-3.8,5.3-6.8,6.7l-1.2,0.6
		c-1.5,0.7-2.2,2.5-1.5,4.1c0.2,0.4,0.3,0.8,0.4,1.1c2.3,7.2-1.7,14.9-8.9,17.1l-1.3,0.4c-1.6,0.5-2.6,2.2-2.1,3.8
		c0.4,1.5,0.6,3.2,0.5,4.9c-0.1,1.3-0.4,2.6-0.9,3.8c-1.9,4.6-5.8,7.8-10.5,8.6l-1.1,0.2c-1.6,0.3-2.8,1.8-2.6,3.4
		c0,0.3,0.1,0.5,0.1,0.8c0.3,4.6-1.9,9.1-5.9,12c-2.1,1.5-4.6,2.2-7.2,2.4l-1.2,0.1c-1.9,0.1-3.2,1.5-3.2,3.2c0,0.4,0,0.8,0,1.3
		c-0.5,7-6.5,12.6-13.6,12.6c-0.3,0-0.7,0-1,0l-7.5-0.6c-2.4-0.2-4.8,0.5-6.8,1.8c-11,7.4-18.5,10.8-18.6,10.8
		c-1.7,0.8-3.6,1.2-5.5,1.2c-0.2,0-0.5,0-0.7,0c-1.7-0.1-3.4-0.5-5-1.3c-0.5-0.2-1-0.5-1.4-0.7c0,0-0.1,0-0.1-0.1
		c-0.5-0.3-0.9-0.6-1.3-0.9c-0.3-0.3-6.8-5.6-16-16.1c-1.6-1.9-3.9-3.2-6.4-3.6l-6.6-1.1c-6.9-1.1-12.1-7.1-11.8-14c0-1,0.2-2,0.4-3
		c0.4-1.7-0.5-3.4-2.2-3.9l-1.3-0.4c-7.2-2-11.5-9.6-9.4-16.8c0.1-0.2,0.1-0.4,0.2-0.6c0.5-1.6-0.3-3.4-1.9-3.9L64,87.3
		c-3.4-1.2-6.3-3.7-7.9-6.9c-1.7-3.4-1.9-7.2-0.6-10.8c0.2-0.5,0.4-1,0.7-1.5c0.8-1.6,0.3-3.5-1.3-4.3l-1-0.5
		c-6.4-3.3-9.4-11-6.6-17.7c0.2-0.4,0.4-0.9,0.6-1.3c0.8-1.4,0.3-3.3-1-4.2L46,39.7c-6.3-4.1-8-12.6-3.9-18.9
		c1.2-1.8,2.8-3.3,4.5-4.3c1.5-0.9,2.5-2.3,3.1-3.9c0.4-1,0.9-1.9,1.4-2.8c2-3,5.1-5,8.6-5.7c3.5-0.7,7.2,0,10.2,2
		c0.8,0.5,1.5,1.1,2.2,1.8c1.2,1.3,2.8,2,4.6,2.1c2.3,0.2,4.5,0.9,6.6,2.2c4.4,2.9,6.6,8,6,12.9c-0.2,2-0.8,3.6-1.4,4.7
		c-0.5,1-0.2,2.3,0.8,2.9C89.3,33,89.8,33.3,90.4,33.7z M121.6,152.3C121.6,152.3,121.6,152.3,121.6,152.3
		C121.6,152.3,121.6,152.3,121.6,152.3z M201.4,100.9L201.4,100.9C201.4,100.9,201.4,100.9,201.4,100.9z M123.3,63.3L123.3,63.3
		C123.3,63.3,123.3,63.3,123.3,63.3z M234.2,33.7C234.2,33.7,234.2,33.7,234.2,33.7C234.2,33.7,234.2,33.7,234.2,33.7z"/>
	<path class="st2" d="M114.8,207.7l-3.8-5.5c-1.2-1.7-1.9-3.6-2.3-5.6c-2-10.1-8.8-26.7-31.5-43.9C53.7,134.9,30,134.8,19,136.1
		c-1.6,0.2-1.9,2.4-0.3,3c3.3,1.2,7.9,2.9,13.4,5.5c0.8,0.4,1.8-0.2,1.9-1.1l0,0c0.1-1.3,1.5-2.3,2.8-1.7c0.7,0.3,1.2,1.1,1.1,2
		l-0.1,1.5c-0.1,1.2,0.6,2.4,1.7,3c1.3,0.7,2.6,1.4,3.9,2.1c0.8,0.4,1.7,0,1.9-0.8l0.8-3.3c0.2-1,1.2-1.7,2.2-1.6
		c1.2,0.2,1.9,1.3,1.6,2.4l-0.9,3.9c-0.3,1.3,0.3,2.7,1.4,3.5c1.4,0.8,2.7,1.7,4.1,2.6c0.7,0.4,1.6,0.2,1.9-0.6l2.4-5.1
		c0.4-0.9,1.5-1.5,2.4-1.1c1.1,0.4,1.6,1.6,1.1,2.7l-2.2,4.6c-0.7,1.4-0.2,3.1,1.1,4c1.3,0.9,2.5,1.8,3.8,2.7
		c0.6,0.4,1.4,0.3,1.8-0.3l4.1-5.5c0.7-0.9,2.1-1.1,3-0.2c0.7,0.7,0.7,1.8,0.1,2.6l-3,4c-1,1.4-0.8,3.3,0.6,4.4
		c0.8,0.6,1.6,1.3,2.4,1.9c1.2,1,3,1,4.1-0.1l3.9-3.5c0.9-0.8,2.3-0.6,3,0.4c0.5,0.8,0.3,1.9-0.4,2.6l-4.3,3.9c-0.6,0.5-0.6,1.4,0,2
		c1.1,0.9,2.2,1.9,3.3,2.9c1.1,1,2.6,1.1,3.8,0.4l3.8-2.4c0.8-0.5,1.9-0.4,2.6,0.3c0.8,0.9,0.6,2.3-0.4,2.9l-3.6,2.2
		c-0.7,0.4-0.8,1.5-0.2,2.1c1.2,1.1,2.3,2.3,3.5,3.4c0.9,0.9,2.3,1.2,3.5,0.7l1.9-0.8c0.9-0.4,2-0.1,2.5,0.7c0.7,1,0.2,2.4-0.9,2.8
		l-0.9,0.4c-0.8,0.4-1.1,1.4-0.5,2.1c3.4,3.7,6.8,7.6,10.1,11.8l2.8,4.2c0.4,0.6,1,0.9,1.6,0.9c0.5,0,1-0.2,1.4-0.6
		C115.3,209.6,115.4,208.5,114.8,207.7z"/>
	<path class="st47" d="M167.2,128.9c-0.1,0-0.1,0-0.2,0l-16.1-1.3c-1.1-0.1-1.9-1-1.8-2.1l1.3-16.1c0.1-1.1,1-1.9,2.1-1.8
		c1.1,0.1,1.9,1,1.8,2.1l-1.1,14.1l14.1,1.1c1.1,0.1,1.9,1,1.8,2.1C169.1,128.2,168.2,128.9,167.2,128.9z"/>
	<path class="st47" d="M110,93.5c-0.4,0-0.8-0.1-1.1-0.3L95.6,84c-0.9-0.6-1.1-1.8-0.5-2.7c0.6-0.9,1.8-1.1,2.7-0.5l11.7,8l8-11.7
		c0.6-0.9,1.8-1.1,2.7-0.5c0.9,0.6,1.1,1.8,0.5,2.7l-9.1,13.3c-0.3,0.4-0.7,0.7-1.2,0.8C110.2,93.4,110.1,93.5,110,93.5z"/>
	<path class="st47" d="M183.8,95.9c-0.9,0-1.8-0.7-1.9-1.6l-2.7-15.9c-0.2-1.1,0.5-2.1,1.6-2.2c1.1-0.2,2.1,0.5,2.2,1.6l2.3,14
		l14-2.3c1.1-0.2,2.1,0.5,2.2,1.6c0.2,1.1-0.5,2.1-1.6,2.2l-15.9,2.7C184.1,95.9,184,95.9,183.8,95.9z"/>
	<path class="st47" d="M207.4,56.9c-0.2,0-0.4,0-0.6-0.1c-0.5-0.2-0.9-0.5-1.1-1l-7-14.5c-0.5-1-0.1-2.1,0.9-2.6
		c1-0.5,2.1-0.1,2.6,0.9l6.2,12.8l12.8-6.2c1-0.5,2.1-0.1,2.6,0.9c0.5,1,0.1,2.1-0.9,2.6l-14.5,7C208,56.8,207.7,56.9,207.4,56.9z"
		/>
	<path class="st47" d="M108,121c-0.1,0-0.2,0-0.3,0l-15.9-2.6c-1.1-0.2-1.8-1.2-1.6-2.2c0.2-1.1,1.2-1.8,2.2-1.6l15.9,2.6
		c1.1,0.2,1.8,1.2,1.6,2.2C109.7,120.3,108.9,121,108,121z"/>
	<path class="st47" d="M74.1,60.5c-0.3,0-0.6-0.1-0.9-0.2l-14.3-7.5c-1-0.5-1.3-1.7-0.8-2.6c0.5-1,1.7-1.3,2.6-0.8l12.6,6.6
		l6.6-12.6c0.5-1,1.7-1.3,2.6-0.8c1,0.5,1.3,1.7,0.8,2.6l-7.5,14.3C75.5,60.1,74.8,60.5,74.1,60.5z"/>
	<path class="st99" d="M220.1,13.4c-1.1-0.2-2.1,0.5-2.3,1.5c-9.3,47.1-33.5,78.2-52.2,95.9c-12.1,11.5-23.6,19.1-30.8,23.3
		c-1.1,0.7-2.5-0.3-2.3-1.6c1.8-11.9,3.4-24,4.8-36.2c0.2-2.1-1.3-4.1-3.4-4.3c-2.1-0.2-4.1,1.3-4.3,3.4c-1.1,10.3-2.5,20.6-4,30.7
		c-0.2,1.1-1.7,1.3-2.1,0.3c-1.2-3-2.6-6.4-4-10.4c-4.8-13.5-11.2-35.1-14-61.8c-0.1-1.1-1.1-1.8-2.1-1.7c-1.1,0.1-1.8,1.1-1.7,2.1
		c3.3,30.8,11.2,55.4,17.1,70.3c0.5,1.3-1.2,2.4-2.1,1.3C101.2,109,75.2,72.8,64.4,17.1c-0.2-1.1-1.2-1.7-2.3-1.5
		c-1.1,0.2-1.7,1.2-1.5,2.3c12.5,64.7,45.4,103.6,59.5,117.8c2.3,2.3,3.3,5.6,2.8,8.8c-5.2,30.3-12,59.4-20.3,87
		c-0.6,2,0.3,4.2,2.2,4.9c0.5,0.2,1,0.3,1.4,0.3c1.7,0,3.2-1.1,3.7-2.8c8.5-28.1,15.4-57.7,20.6-88.4c0.5-3,2.4-5.6,5-7.1
		c7.3-4.1,19.5-12,32.7-24.5c19.1-18.1,43.9-49.9,53.4-98.1C221.9,14.6,221.2,13.6,220.1,13.4z"/>
	<path class="st47" d="M94.6,102c-0.2,0-0.4,0-0.5-0.1l-15.5-4.4c-1-0.3-1.6-1.4-1.3-2.4c0.3-1,1.4-1.6,2.4-1.3l15.5,4.4
		c1,0.3,1.6,1.4,1.3,2.4C96.2,101.5,95.4,102,94.6,102z"/>
	<path class="st47" d="M67,39.1c-0.4,0-0.7-0.1-1.1-0.3l-13.5-8.9c-0.9-0.6-1.1-1.8-0.6-2.7c0.6-0.9,1.8-1.2,2.7-0.6l11.9,7.8
		l7.8-11.9c0.6-0.9,1.8-1.2,2.7-0.6c0.9,0.6,1.1,1.8,0.6,2.7l-8.9,13.5C68.2,38.8,67.6,39.1,67,39.1z"/>
	<path class="st47" d="M105.6,71.7c-0.4,0-0.9-0.1-1.2-0.4L91.8,61.1c-0.8-0.7-1-1.9-0.3-2.7c0.7-0.8,1.9-1,2.7-0.3l11,8.9l8.9-11
		c0.7-0.8,1.9-1,2.7-0.3c0.8,0.7,1,1.9,0.3,2.7l-10.1,12.6C106.7,71.4,106.2,71.7,105.6,71.7z"/>
	<path class="st47" d="M168.6,112.7c-1,0-1.9-0.8-1.9-1.8l-0.9-16.1c-0.1-1.1,0.8-2,1.8-2.1c1.1-0.1,2,0.8,2.1,1.8l0.6,11.2
		c0.1,1.6,1.5,2.9,3.2,2.8l11.2-0.6c1.2-0.1,2.2,0.9,2,2.2c-0.1,1-1,1.7-1.9,1.7l-16,0.9C168.7,112.7,168.6,112.7,168.6,112.7z"/>
	<path class="st47" d="M196.8,77.1c-0.8,0-1.6-0.5-1.9-1.4l-4.8-15.3c-0.3-0.9,0.1-2,0.9-2.4c1.1-0.6,2.4,0,2.8,1.1l3.4,10.7
		c0.5,1.6,2.2,2.4,3.8,1.9l10.7-3.4c1.1-0.3,2.3,0.3,2.5,1.5c0.2,1-0.5,2-1.4,2.3L197.4,77C197.2,77.1,197,77.1,196.8,77.1z"/>
	<path class="st47" d="M215.3,35.6c-0.7,0-1.3-0.3-1.7-1l-8.3-13.9c-0.6-0.9-0.2-2.1,0.7-2.7c0.9-0.6,2.1-0.2,2.7,0.7l5.7,9.6
		c0.8,1.4,2.7,1.9,4.1,1l9.5-5.7c0.8-0.5,1.9-0.4,2.6,0.4c0.8,0.9,0.5,2.3-0.5,2.9l-13.9,8.3C215.9,35.5,215.6,35.6,215.3,35.6z"/>
	<path class="st80" d="M109,225c-0.2,0-0.4,0-0.5-0.1c-1-0.3-1.6-1.4-1.3-2.4c3.5-12.4,6.8-25.3,9.8-38.3c0.2-1,1.3-1.7,2.3-1.5
		c1,0.2,1.7,1.3,1.5,2.3c-3,13.1-6.3,26-9.8,38.5C110.6,224.4,109.8,225,109,225z"/>
	<path class="st2" d="M169.2,170.4c-29.7,7.6-42.9,21-48.5,29.6c-0.9,1.4-2,2.5-3.3,3.5l-3.4,2.6c-0.8,0.6-1.1,1.6-0.6,2.5
		c0.4,0.7,1,1.1,1.7,1.1c0.4,0,0.8-0.1,1.2-0.4l4-3.1c3.9-2,7.7-3.8,11.5-5.5c0.8-0.4,1-1.5,0.4-2.1l-0.3-0.3
		c-0.7-0.7-0.9-1.8-0.3-2.6c0.7-1,2.1-1.1,3-0.3l1.7,1.7c0.7,0.7,1.9,0.9,2.8,0.5c1.8-0.7,3.6-1.5,5.4-2.2c0.8-0.3,1.1-1.3,0.6-2
		l-2.3-3.1c-0.6-0.8-0.6-1.9,0.1-2.6c0.8-0.9,2.3-0.8,3,0.1l3,4c0.7,0.9,1.9,1.2,2.9,0.9c1.7-0.6,3.4-1.2,5.1-1.7
		c0.8-0.2,1.1-1.1,0.8-1.8l-2.6-5.2c-0.4-0.9-0.2-2,0.6-2.5c1-0.7,2.4-0.3,2.9,0.7l2.6,5.2c0.6,1.1,1.9,1.7,3.1,1.3
		c1.5-0.4,3-0.8,4.4-1.2c1.4-0.4,2.2-1.8,1.9-3.2L169,179c-0.2-0.9,0.2-2,1.1-2.4c1.1-0.5,2.4,0.2,2.7,1.3l1.4,5.5
		c0.4,1.4,1.7,2.2,3.1,1.9c1.5-0.3,2.9-0.6,4.3-0.9c1.2-0.3,2.1-1.4,2.1-2.6l-0.2-5.6c0-1.1,0.8-2,1.9-2c1.1,0,2,0.8,2,1.9l0.2,5.7
		c0,0.8,0.8,1.4,1.5,1.2c2-0.3,3.9-0.6,5.7-0.9c1.1-0.2,2-1,2.2-2.1l0.8-4.3c0.2-1,1-1.7,1.9-1.7c1.2,0,2.1,1.1,1.9,2.3l-0.6,3.4
		c-0.2,0.9,0.6,1.6,1.4,1.5c1.8-0.2,3.4-0.4,5.1-0.5c1-0.1,1.9-0.8,2.2-1.7l0.7-2c0.3-1,1.4-1.6,2.3-1.3c1.1,0.3,1.8,1.5,1.4,2.6
		l-0.1,0.2c-0.3,0.9,0.4,1.8,1.3,1.8c6.5-0.3,11.7-0.2,15.4,0c1.6,0.1,2.2-2.1,0.8-2.9C221.6,171.8,198.9,162.9,169.2,170.4z"/>
	<circle class="st80" cx="120.1" cy="178.8" r="2"/>
	<circle class="st80" cx="149.7" cy="124.6" r="2"/>
	<circle class="st80" cx="93.6" cy="101.8" r="2"/>
	<circle class="st80" cx="65.9" cy="32.7" r="2"/>
	<circle class="st80" cx="105" cy="65.4" r="2"/>
	<circle class="st80" cx="211.4" cy="50.5" r="2"/>
	<path class="st47" d="M83.4,81.9c-0.2,0-0.5,0-0.7-0.1l-15.1-5.6c-1-0.4-1.5-1.5-1.2-2.5c0.4-1,1.5-1.5,2.5-1.2l15.1,5.6
		c1,0.4,1.5,1.5,1.2,2.5C85,81.4,84.2,81.9,83.4,81.9z"/>
</g>
</svg>
