<?xml version="1.0" encoding="utf-8"?>
<!-- Generator: Adobe Illustrator 20.1.0, SVG Export Plug-In . SVG Version: 6.00 Build 0)  -->
<svg version="1.1" id="Layer_1" xmlns="http://www.w3.org/2000/svg" xmlns:xlink="http://www.w3.org/1999/xlink" x="0px" y="0px"
	 viewBox="0 0 500 500" style="enable-background:new 0 0 500 500;" xml:space="preserve">
<style type="text/css">
	.st0{fill:#F22F2E;stroke:#7B000E;stroke-width:5;stroke-miterlimit:10;}
	.st1{fill:#64A025;stroke:#164E16;stroke-width:5;stroke-linecap:round;stroke-miterlimit:10;}
	.st2{fill:#F4C01F;stroke:#B26D09;stroke-width:5;stroke-miterlimit:10;}
	.st3{fill:#FFA200;stroke:#A84902;stroke-width:5;stroke-miterlimit:10;}
	.st4{fill:#7C9800;stroke:#164E16;stroke-width:5;stroke-miterlimit:10;}
	.st5{fill:#4D831C;stroke:#164E16;stroke-width:5;stroke-miterlimit:10;}
	.st6{fill:#F22F2E;}
	.st7{fill:#7C9800;stroke:#164E16;stroke-width:5;stroke-linejoin:round;stroke-miterlimit:10;}
	.st8{fill:#F22F2E;stroke:#7B000E;stroke-miterlimit:10;}
	.st9{fill:#7C9800;}
	.st10{fill:#164E16;}
	.st11{fill:#4D831C;stroke:#2A481D;stroke-width:4;stroke-miterlimit:10;}
	.st12{fill:#6EA336;stroke:#2A481D;stroke-width:4;stroke-linecap:round;stroke-linejoin:round;stroke-miterlimit:10;}
	.st13{fill:#8DCC50;stroke:#A2A121;stroke-width:5;stroke-miterlimit:10;}
	.st14{fill:#4D831C;stroke:#071907;stroke-width:5;stroke-linejoin:round;stroke-miterlimit:10;}
	.st15{fill:#164E16;stroke:#071907;stroke-width:3;stroke-miterlimit:10;}
	.st16{fill:#FFD003;stroke:#D17D01;stroke-width:3;stroke-miterlimit:10;}
	.st17{fill:#E6E6E6;}
	.st18{fill:#D9E021;}
	.st19{fill:#F22F2E;stroke:#7B000E;stroke-width:3;stroke-miterlimit:10;}
	.st20{fill:none;stroke:#FFFFFF;stroke-linecap:round;stroke-linejoin:round;stroke-miterlimit:10;}
	.st21{fill:none;stroke:#FFFFFF;stroke-linecap:round;stroke-miterlimit:10;}
	.st22{fill:#FFFFFF;}
	.st23{fill:none;stroke:#7B000E;stroke-linecap:round;stroke-linejoin:round;stroke-miterlimit:10;}
	.st24{fill:none;stroke:#7B000E;stroke-linecap:round;stroke-miterlimit:10;}
	.st25{fill:#7B000E;}
	.st26{fill:#4D831C;}
	.st27{fill:#2A481D;}
	.st28{fill:#FF7A00;}
	.st29{fill:#FF7A00;stroke:#F44500;stroke-width:3;stroke-miterlimit:10;}
	.st30{fill:none;stroke:#F44500;stroke-linecap:round;stroke-linejoin:round;stroke-miterlimit:10;}
	.st31{fill:#FF7A00;stroke:#F44500;stroke-linecap:round;stroke-linejoin:round;stroke-miterlimit:10;}
	.st32{fill:#F44500;}
	.st33{fill:#8BA00D;stroke:#164E16;stroke-width:3;stroke-linejoin:round;stroke-miterlimit:10;}
	.st34{clip-path:url(#SVGID_2_);}
	.st35{fill:#F40000;stroke:#7B000E;stroke-width:3;stroke-miterlimit:10;}
	.st36{fill:#7DB34C;stroke:#164E16;stroke-width:3;stroke-miterlimit:10;}
	.st37{fill:none;stroke:#164E16;stroke-miterlimit:10;}
	.st38{fill:none;stroke:#7B000E;stroke-width:3;stroke-miterlimit:10;}
	.st39{fill:#A7C92B;stroke:#164E16;stroke-width:3;stroke-miterlimit:10;}
	.st40{fill:none;stroke:#164E16;stroke-linecap:round;stroke-miterlimit:10;}
	.st41{fill:#8BA00D;}
	.st42{fill:#999999;}
	.st43{fill:#A7C92B;}
	.st44{fill:none;stroke:#FEA502;stroke-linecap:round;stroke-linejoin:round;stroke-miterlimit:10;}
	.st45{fill:#FFD003;}
	.st46{fill:#D17D01;}
	.st47{fill:#FEA502;}
	.st48{fill:#4D831C;stroke:#2A481D;stroke-width:3;stroke-linecap:round;stroke-linejoin:round;stroke-miterlimit:10;}
	.st49{fill:#FA6200;stroke:#D54300;stroke-width:3;stroke-miterlimit:10;}
	.st50{fill:#FA6200;stroke:#D54300;stroke-linecap:round;stroke-miterlimit:10;}
	.st51{fill:none;stroke:#F44500;stroke-linecap:round;stroke-miterlimit:10;}
	.st52{fill:#FF9D00;stroke:#E6681E;stroke-linecap:round;stroke-miterlimit:10;}
	.st53{fill:#F97306;}
	.st54{fill:#D54300;}
	.st55{fill:#7DB34C;stroke:#44712A;stroke-width:3;stroke-miterlimit:10;}
	.st56{fill:none;stroke:#44712A;stroke-miterlimit:10;}
	.st57{fill:#7DB34C;}
	.st58{fill:#40760E;}
	.st59{fill:none;stroke:#071907;stroke-miterlimit:10;}
	.st60{fill:none;stroke:#071907;stroke-linecap:round;stroke-linejoin:round;stroke-miterlimit:10;}
	.st61{fill:#071907;}
	.st62{fill:#44712A;}
	.st63{fill:#6E905E;}
	.st64{fill:#456A0A;}
	.st65{fill:#183300;}
	.st66{fill:#FF2214;}
	.st67{fill:#661900;}
	.st68{fill:#FFDC00;}
	.st69{fill:#7C9800;stroke:#164E16;stroke-width:3;stroke-miterlimit:10;}
	.st70{fill:none;stroke:#D17D01;stroke-width:0.75;stroke-miterlimit:10;}
	.st71{fill:#7C9800;stroke:#164E16;stroke-linejoin:round;stroke-miterlimit:10;}
	.st72{fill:none;stroke:#164E16;stroke-linejoin:round;stroke-miterlimit:10;}
	.st73{fill:#CE571B;}
	.st74{fill:#8A9D1F;}
	.st75{fill:#1B4700;}
	.st76{fill:none;stroke:#7C9800;stroke-width:3;stroke-linecap:round;stroke-linejoin:round;stroke-miterlimit:10;}
	.st77{opacity:0.6;fill:none;stroke:#FFFFFF;stroke-linecap:round;stroke-miterlimit:10;}
	.st78{fill:none;stroke:#7B000E;stroke-miterlimit:10;}
	.st79{opacity:0.4;fill:none;stroke:#FFFFFF;stroke-linecap:round;stroke-linejoin:round;stroke-miterlimit:10;}
	.st80{fill:none;stroke:#FFFFFF;stroke-width:7.8511;stroke-linecap:round;stroke-miterlimit:10;}
	.st81{fill:#B0C06B;}
	.st82{fill:#F8ACAC;}
	.st83{fill:none;stroke:#FFFFFF;stroke-width:7.7562;stroke-linecap:round;stroke-miterlimit:10;}
	.st84{fill:none;stroke:#164E16;stroke-width:0.851;stroke-miterlimit:10;}
	.st85{opacity:0.3;}
	.st86{fill:#6EA336;}
	.st87{opacity:0.3;fill:#7B000E;}
	.st88{opacity:0.2;fill:none;stroke:#2A481D;stroke-linecap:round;stroke-linejoin:round;stroke-miterlimit:10;}
	.st89{fill:#CC242B;}
	.st90{fill:#5B8734;}
	.st91{fill:#4D831C;stroke:#071907;stroke-miterlimit:10;}
	.st92{fill:none;stroke:#071907;stroke-linecap:round;stroke-miterlimit:10;}
	.st93{opacity:0.7;fill:none;stroke:#FFFFFF;stroke-linecap:round;stroke-miterlimit:10;}
	.st94{opacity:0.7;fill:#FFFFFF;}
	.st95{fill:#B9CAB9;}
	.st96{fill:#F6E600;}
	.st97{fill:#8DCC50;}
	.st98{fill:#A2A121;}
	.st99{fill:#F9EFA7;}
	.st100{fill:#F6E600;stroke:#A2A121;stroke-width:3;stroke-miterlimit:10;}
	.st101{opacity:0.3;fill:none;stroke:#A2A121;stroke-linecap:round;stroke-linejoin:round;stroke-miterlimit:10;}
	.st102{fill:none;stroke:#A2A121;stroke-width:3;stroke-miterlimit:10;}
	.st103{fill:#8DCC50;stroke:#A2A121;stroke-miterlimit:10;}
	.st104{fill:#DCCF2F;}
	.st105{fill:#F22F2E;stroke:#7B000E;stroke-linecap:round;stroke-miterlimit:10;}
	.st106{fill:#6EA336;stroke:#2A481D;stroke-linecap:round;stroke-linejoin:round;stroke-miterlimit:10;}
	.st107{fill:none;stroke:#2A481D;stroke-linecap:round;stroke-linejoin:round;stroke-miterlimit:10;}
	.st108{fill:#639D2E;stroke:#164E16;stroke-width:5;stroke-miterlimit:10;}
	.st109{fill:#639D2E;stroke:#164E16;stroke-miterlimit:10;}
	.st110{opacity:0.5;fill:none;stroke:#D54300;stroke-linecap:round;stroke-miterlimit:10;}
	.st111{fill:#E5531B;}
	.st112{opacity:0.3;fill:none;stroke:#D17D01;stroke-linecap:round;stroke-linejoin:round;stroke-miterlimit:10;}
	.st113{fill:#A3B653;}
	.st114{fill:none;stroke:#164E16;stroke-linecap:round;stroke-linejoin:round;stroke-miterlimit:10;}
	.st115{fill:#FAC1C1;}
	.st116{clip-path:url(#SVGID_4_);}
	.st117{fill:none;stroke:#D9E021;stroke-miterlimit:10;}
	.st118{fill:#A7C92B;stroke:#164E16;stroke-width:5;stroke-linecap:round;stroke-linejoin:round;stroke-miterlimit:10;}
	.st119{fill:#64A025;}
	.st120{fill:#547C1F;stroke:#164E16;stroke-linecap:round;stroke-miterlimit:10;}
	.st121{fill:#547C1F;}
	.st122{fill:#4D831C;stroke:#164E16;stroke-miterlimit:10;}
	.st123{fill:none;stroke:#FFFFFF;stroke-width:7.7934;stroke-linecap:round;stroke-miterlimit:10;}
	.st124{fill:#8DCC50;stroke:#164E16;stroke-linecap:round;stroke-miterlimit:10;}
	.st125{fill:#F4C01F;stroke:#B26D09;stroke-miterlimit:10;}
	.st126{fill:#FFA200;stroke:#A84902;stroke-miterlimit:10;}
	.st127{fill:#7C9800;stroke:#164E16;stroke-miterlimit:10;}
	.st128{fill:none;stroke:#7C9800;stroke-width:2;stroke-linecap:round;stroke-miterlimit:10;}
	.st129{fill:#F4C01F;}
	.st130{fill:#FFA200;}
	.st131{fill:#B26D09;}
	.st132{fill:#A84902;}
	.st133{fill:none;stroke:#4D831C;stroke-width:3;stroke-linecap:round;stroke-miterlimit:10;}
	.st134{fill:none;stroke:#164E16;stroke-width:3;stroke-linecap:round;stroke-miterlimit:10;}
	.st135{fill:#64A025;stroke:#164E16;stroke-linecap:round;stroke-miterlimit:10;}
	.st136{fill:#F9C900;}
	.st137{fill:#EAA629;}
	.st138{fill:#9BB31C;}
</style>
<g>
	<path class="st45" d="M430.4,305.1c3.5-37.7-6.9-75.4-29.2-106l-25.3-34.6c-9.8-13.4-26.5-19.9-42.7-16.6
		c-15.5,3.1-28,14.6-32.4,29.8l-4.6,15.9c-10.7-14.3-28-23.5-47.4-22.9c-17.5,0.5-32.8,9.6-42.9,22.9l-5.6-25.3
		c-3-13.6-13.4-24.5-26.8-28.1c-14.1-3.8-29.2,0.9-38.6,12.2l-24.3,29.1c-21.4,25.7-32.8,58.4-31.8,91.9
		c1.6,53.1-3.3,103.6-12.7,148c-2.1,9.9,9.4,17.1,17.1,10.5c39.8-33.7,79.6-91.3,105.6-132.9c4.4-7.1,8.1-14.6,11.2-22.3
		c10.2,44.6,30,93.8,41.6,120.6c3.4,8,14.7,8,18.2,0c9.4-21.5,24.1-57.4,34.8-94.1c2.7,7.9,5.9,15.6,9.9,23
		c26.3,48.8,67,116.8,109.6,157.8c8.2,7.9,21.7,0.6,20.1-10.7C426.6,422.3,424.8,365,430.4,305.1z"/>
	<path class="st22" d="M118.1,249.8c-0.3,0-0.6,0-0.9-0.1c-2.1-0.5-3.5-2.6-3-4.7c2.1-9.5,5.3-18.6,9.6-27.1c1-1.9,3.3-2.7,5.3-1.8
		c1.9,1,2.7,3.3,1.8,5.3c-4,8-7,16.5-9,25.3C121.6,248.5,120,249.8,118.1,249.8z"/>
	<path class="st22" d="M112.9,334.5c-0.1,0-0.2,0-0.3,0c-2.2-0.2-3.8-2.1-3.6-4.2c0.5-6,0.9-12.1,1.2-18.2c0.1-2.2,2-3.8,4.2-3.7
		c2.2,0.1,3.8,2,3.7,4.2c-0.3,6.1-0.8,12.3-1.3,18.4C116.7,332.9,115,334.5,112.9,334.5z"/>
	<path class="st22" d="M328.8,267.9c-2,0-3.7-1.5-3.9-3.5c-1.1-10.4-1.3-21-0.5-31.4c0.2-2.2,2-3.8,4.2-3.6c2.2,0.2,3.8,2.1,3.6,4.2
		c-0.8,9.9-0.6,20,0.4,30c0.2,2.2-1.3,4.1-3.5,4.3C329.1,267.9,328.9,267.9,328.8,267.9z"/>
	<path class="st22" d="M354.4,342.4c-1.5,0-2.9-0.8-3.5-2.2c-4.2-8.6-8.4-17.5-12.5-26.5c-0.9-2,0-4.3,1.9-5.2c2-0.9,4.3,0,5.2,1.9
		c4.1,9,8.3,17.9,12.4,26.4c1,2,0.1,4.3-1.8,5.3C355.5,342.3,354.9,342.4,354.4,342.4z"/>
	<path class="st22" d="M235.8,280.8c-1.8,0-3.5-1.3-3.9-3.2c-3.8-18.5-5.8-34.2-6.2-46.6c-0.1-2.2,1.7-4,3.8-4c2.2-0.1,4,1.7,4,3.8
		c0.3,12,2.3,27.2,6,45.3c0.4,2.1-0.9,4.2-3.1,4.7C236.3,280.8,236.1,280.8,235.8,280.8z"/>
	<path class="st73" d="M176.6,128.6c-18.5-5.2-38.5,1.3-50.8,16l-24.3,29.1c-23.3,28-35.6,63.4-34.5,99.8
		c1.5,49.7-2.9,99.9-12.5,145.2c-2,9.6,2.1,19.1,10.5,24.1c8.3,5,18.4,4.1,25.8-2.1c35.8-30.3,71.3-78.8,97.5-119.2
		c3.2-4.9,10.7-4,12.5,1.6c10.2,31.4,22.2,60.7,29.8,78.5c3.4,8,11.2,13.1,19.9,13.1h0.1c8.6,0,16.5-5.1,19.9-13.1
		c6-13.6,13.4-31.4,20.6-51.2c2.1-5.6,9.8-6.3,12.7-1c26.7,47.6,63.4,105.6,101.9,142.7c4.5,4.4,10.3,6.7,16.3,6.7
		c3.7,0,7.4-0.9,10.9-2.7c9.3-4.8,14.3-14.5,12.8-24.9c-7.6-52-8.8-109.2-3.5-165.2c3.8-40.6-7.3-81.1-31.4-114.1L386,158.2
		c-12.7-17.4-34.3-26.2-55.3-21.8c-14.4,3-26.6,11.4-34.4,23.3c-3.8,5.8-11.2,8.1-17.5,5.2c-9.4-4.2-19.8-6.4-30.3-6.1
		c-7.4,0.2-14.7,1.7-21.6,4.4c-7,2.7-14.9-0.5-18-7.3C204.6,146,195.5,133.9,176.6,128.6z M256.1,377.6c-2.2,4.9-9.1,5-11.4,0.2
		c-12.5-25.8-40.4-90-40.4-146.1c0-7.9,1.5-15.8,5-22.9l6.1-8c8.5-11.2,20.8-17.8,33.9-18.2c14.7-0.4,28.8,6.4,37.6,18.2l5.8,7.7
		c2.7,5.9,4.2,12.5,4.3,19.4C297.3,280.5,268.5,350.1,256.1,377.6z M189,272.2c-2.9,7.3-6.3,14.2-10.2,20.4
		C157,327.5,125.8,373,93.5,406c-4.6,4.7-12.5,0.7-11.4-5.8c6.8-40.7,9.8-84.2,8.5-127.3c-0.9-30.6,9.4-60.4,29-83.9l24.3-29.1
		c6.4-7.7,16.8-11,26.4-8.3c9.3,2.5,16.3,9.9,18.4,19.3l9.4,42.4c0.8,3.7,0.9,7.5,0.5,11.2c-0.3,2.5-0.4,5-0.3,7.5
		c0.1,1.6,0.1,3.3,0.2,5c0.4,6.3-0.6,12.7-3,18.6L189,272.2z M314.8,320.5c-3.3-6.3-6.4-13.2-9.2-21.3l-4.9-14.1
		c-2.4-7-3-14.5-1.7-21.8c2.3-12.6,3.7-24.6,3.7-35.5c0-1.8-0.1-3.6-0.3-5.3c-0.4-4,0.1-8.1,1.2-12l8.5-29.4
		c3.2-11,12.1-19.2,23.3-21.5c11.7-2.4,23.8,2.3,30.8,12l25.3,34.6c20.7,28.3,30.3,63.1,27,97.9v0c-4.2,45,0.3,123.3,2.6,156
		c0.4,5.4-6.2,8.2-9.9,4.3C393.8,445.8,356.9,401.7,314.8,320.5z"/>
	<path class="st9" d="M380.6,182.9l-39.8-54.3c-3.5-4.7-5.8-10.1-7-15.9v0c-5.4-27.1-19.9-51.6-41.2-69.3l-27.3-22.7
		c0,0-17.1,3.9-30.7,11.6C206.8,48,185,73.8,176,105.2l-0.3,0.9c-3.2,11.1-8.8,21.4-16.4,30.1l-38.1,43.9c-2.3,3,0.8,7.1,4.3,5.8
		l14.6-5.4c2-0.7,4.2,0.3,4.8,2.3l7.7,23.1c0.8,2.5,3.9,3.4,6,1.7l19.2-16.3c1.6-1.4,4-1.1,5.4,0.5l9.3,11.7c2.3,3,7.1,1,6.6-2.8
		l-9.9-55.1c-2.2-12-1.5-24.4,1.9-36.1v0c8.6-29.9,30.3-54.4,58.3-66.9c-6.2,21.1-8.3,51.3-8.7,79.8c-0.2,14.4-3.9,28.5-10.6,41.3
		l-18.7,35.9c-2,3.7,2.2,7.7,5.8,5.5l11.5-6.9c1.9-1.1,4.3-0.6,5.6,1.2l12.8,18.1c1.7,2.3,5.1,2.3,6.8,0l12.8-18.1
		c1.3-1.8,3.7-2.3,5.5-1.2l11.5,7c3.6,2.2,7.8-1.8,5.8-5.5l-20.1-34.2c-8.8-15-13.2-32.1-12.9-49.5c0.6-29,3.2-57.5,9.5-74
		l16.2,13.5c18.5,15.4,31.2,36.7,35.8,60.3l0,0.1c1.1,5.6,1,11.3-0.3,16.8l-15.5,66.4c-0.7,3.6,3.8,5.9,6.3,3.2l10.5-11.3
		c1.4-1.5,3.8-1.6,5.3-0.1l17,17c1.9,1.8,5,1.2,6-1.2l9.8-22.9c0.8-1.9,3.1-2.8,5-1.9l13.4,6.3C379.4,189.9,382.7,186,380.6,182.9z"
		/>
	<path class="st10" d="M208,197.7c-1.8,3.3-1.1,7.2,1.7,9.8c2.7,2.5,6.8,2.7,9.9,0.8l9.1-5.3c1.4-0.8,3.2-0.4,4.1,0.9l11,15.6
		c0.9,1.2,2,2.3,3.4,2.9c3.7,1.6,7.8,0.3,9.9-2.7l11.1-15.7c0.9-1.3,2.7-1.7,4.1-0.9l9.4,5.4c3.2,1.9,7.1,1.5,9.8-1.1
		c2.7-2.5,3.3-6.4,1.6-9.7l-17.3-29.6c-1-1.8,0.8-3.9,2.7-3c0.1,0,0.1,0.1,0.2,0.1c6.4,2.9,13.9,0.4,17.8-5.4c2.5-3.7,5.3-7,8.6-10
		c2-1.8,5,0,4.4,2.6l-10.7,45.9c0,0.1,0,0.2-0.1,0.3c-0.4,1.4-0.5,2.9,0.2,4.2c3.1,5.6,9.4,6,12.9,2.3l8.2-8.7
		c1.2-1.3,3.2-1.3,4.5-0.1l14.6,14.5c2.2,2.2,5.5,2.9,8.4,1.6c1.9-0.8,3.3-2.4,4.1-4.3l8.3-19.4c0.7-1.6,2.6-2.4,4.2-1.6l10,4.7
		c3.1,1.5,6.9,0.9,9.2-1.7c2.3-2.6,2.6-6.4,0.6-9.3c0,0-0.1-0.1-0.1-0.1L356,142.7c-1.6-2.1,0.6-5,3-4.1c9.2,3.1,17.6,8.7,24.1,16.4
		l-26.4-38c-1.7-2.4-3-5.1-3.5-8C347,77.5,330,48.8,305.3,28.3L278.1,5.6c-4.7-3.9-11-5.5-17-4.1c-2,0.5-20.3,4.8-36,13.6
		c-33.6,18.9-57.8,48.9-68,84.6l-0.3,0.9c-2.4,8.3-6.7,16.1-12.3,22.7l-13.6,16.6c6.5-5.8,14.3-9.6,22.6-11.4c2.9-0.6,5,2.8,3,5.1
		l-0.1,0.1l-38.1,43.9c-0.1,0.1-0.1,0.1-0.1,0.2c-2.1,2.7-2.1,6.5-0.1,9.2c2.1,2.8,5.6,3.8,8.9,2.6l8.2-3.1c3.4-1.3,7.2,0.5,8.3,4
		l5.5,16.6c0.8,2.4,2.8,4.3,5.2,5c2.5,0.7,5.1,0.1,7-1.5l13.9-11.8c2.8-2.3,6.9-1.9,9.2,0.9l5,6.3c2.2,2.7,5.8,3.7,9,2.3
		c3.2-1.4,5.1-4.6,4.6-8.1l-9.9-55.3c-0.1-0.4-0.1-0.7-0.2-1.1c-0.5-2.9,3-4.8,5.2-2.8c5.6,5.2,9.1,11.2,11.3,16.5
		c2,4.7,6.5,7.6,11.3,7.6c2,0,3.2,2.2,2.3,3.9L208,197.7z M247.2,36.8c-0.7,1.9-2.1,3.5-3.9,4.4c-27.3,13.7-47.5,37.9-56,67.2
		c-3.5,12.3-4.2,25.4-2,37.9l8.5,47.5c0.3,1.7-1.9,2.7-2.9,1.3l-4.5-5.6c-1.2-1.6-3-2.7-4.9-3c-2.3-0.4-4.5,0.3-6.2,1.7l-13.6,11.5
		c-2.6,2.2-6.5,1.1-7.6-2.1l-5.4-16.1c-0.7-2.1-2.3-3.8-4.4-4.7c-1.9-0.8-3.9-0.7-5.8,0l-7.5,2.8c-1.6,0.6-3-1.4-1.8-2.7l33.1-38.2
		c7.9-9.1,13.8-20,17.2-31.6l0.3-0.9c8.5-29.6,28.8-54.7,56.9-70.5c2-1.1,4.1-2.2,6.2-3.1C245.5,31.4,248.3,34.1,247.2,36.8
		L247.2,36.8z M274.3,194.8c-3.6-2.2-8.4-1.2-10.8,2.3l-10.4,14.6c-1.3,1.8-3.9,1.8-5.1,0l-10.4-14.6c-1.6-2.2-4.1-3.4-6.6-3.4
		c-1.4,0-2.9,0.4-4.2,1.2l-8.8,5.1c-0.9,0.5-1.9-0.4-1.4-1.3l17.1-33.1c7-13.5,10.8-28.4,11-43.1c0.4-34.4,3.3-60.9,8.5-78.7
		c0,0,2.7-8.1,6.9-16.2c1-1.9,3.4-2.8,5.3-1.8c2.2,1.1,2.8,3.8,1.5,5.7c0,0-4.7,7.8-7.8,20.6c-3.6,15.2-5.7,36.5-6.3,63.7
		c-0.4,18.1,4.2,36,13.4,51.6l18,30.9c0.5,0.9-0.5,1.9-1.4,1.4L274.3,194.8z M272.8,37.1c1-1.8,3.4-2.3,5-1l12.4,10.3
		c20.5,17.1,34.6,40.9,39.8,67.1c1.2,6.3,3.9,12.3,7.7,17.4l36.6,49.9c0.7,0.9-0.3,2.2-1.4,1.7l-8.3-3.9c-1.8-0.8-3.9-1.1-5.8-0.5
		c-2.2,0.7-3.8,2.2-4.7,4.3l-7.8,18.3c-0.9,2-3.5,2.5-5.1,1l-13.5-13.5c-1.6-1.6-3.7-2.4-6-2.2c-2,0.1-3.8,1.1-5.1,2.6l-7.2,7.7
		c-0.7,0.8-2,0.1-1.7-0.9l14.4-61.7c1.4-6.1,1.5-12.3,0.3-18.6c-4.8-24.4-18-46.7-37.2-62.6l-12.1-10.1c-1.2-1-1.5-2.7-0.8-4.1
		L272.8,37.1z"/>
	<circle class="st22" cx="115.4" cy="268.3" r="3.9"/>
</g>
<ellipse transform="matrix(0.9917 -0.1282 0.1282 0.9917 -10.971 37.298)" class="st22" cx="284.2" cy="103.9" rx="7.2" ry="21.7"/>
<ellipse transform="matrix(0.1282 -0.9917 0.9917 0.1282 89.4366 309.4473)" class="st22" cx="220.7" cy="103.9" rx="21.7" ry="7.2"/>
</svg>
