<?xml version="1.0" encoding="utf-8"?>
<!-- Generator: Adobe Illustrator 20.0.0, SVG Export Plug-In . SVG Version: 6.00 Build 0)  -->
<svg version="1.1" id="Layer_1" xmlns="http://www.w3.org/2000/svg" xmlns:xlink="http://www.w3.org/1999/xlink" x="0px" y="0px"
	 viewBox="0 0 500 500" style="enable-background:new 0 0 500 500;" xml:space="preserve">
<style type="text/css">
	.st0{fill:#3B792C;stroke:#15540E;stroke-width:6;stroke-miterlimit:10;}
	.st1{fill:none;stroke:#355B00;stroke-width:6;stroke-miterlimit:10;}
	.st2{fill:#94AD34;stroke:#355B00;stroke-linecap:round;stroke-linejoin:round;stroke-miterlimit:10;}
	.st3{fill:#00FFFF;}
	.st4{fill:#95CC63;stroke:#517B39;stroke-width:3;stroke-linecap:round;stroke-linejoin:round;stroke-miterlimit:10;}
	.st5{fill:none;stroke:#517B39;stroke-linecap:round;stroke-linejoin:round;stroke-miterlimit:10;}
	.st6{fill:none;stroke:#FFFFFF;stroke-linecap:round;stroke-linejoin:round;stroke-miterlimit:10;}
	.st7{clip-path:url(#SVGID_2_);}
	.st8{fill:none;stroke:#00FFFF;stroke-width:0.2598;stroke-miterlimit:10;}
	.st9{fill:none;stroke:#355B00;stroke-linecap:round;stroke-linejoin:round;stroke-miterlimit:10;}
	.st10{fill:#94AD34;}
	.st11{fill:#355B00;}
	.st12{fill:#95CC63;stroke:#517B39;stroke-linecap:round;stroke-linejoin:round;stroke-miterlimit:10;}
	.st13{fill:none;stroke:#94AD34;stroke-linecap:round;stroke-linejoin:round;stroke-miterlimit:10;}
	.st14{fill:#FFFFFF;}
	.st15{fill:none;stroke:#94AD34;stroke-width:0.4041;stroke-miterlimit:10;}
	.st16{fill:#94AD34;stroke:#94AD34;stroke-linecap:round;stroke-miterlimit:10;}
	.st17{fill:none;stroke:#94AD34;stroke-miterlimit:10;}
	.st18{fill:none;stroke:#94AD34;stroke-width:0.2579;stroke-miterlimit:10;}
	.st19{fill:none;stroke:#7BB76B;stroke-linecap:round;stroke-linejoin:round;stroke-miterlimit:10;}
	.st20{fill:#7BB76B;stroke:#3B792C;stroke-linecap:round;stroke-linejoin:round;stroke-miterlimit:10;}
	.st21{fill:none;stroke:#3B792C;stroke-linecap:round;stroke-linejoin:round;stroke-miterlimit:10;}
	.st22{fill:none;stroke:#BCEFA5;stroke-linecap:round;stroke-linejoin:round;stroke-miterlimit:10;}
	.st23{fill:#3B792C;}
	.st24{fill:#BCEFA5;}
	.st25{fill:#15540E;}
	.st26{fill:#7BB76B;}
</style>
<g>
	<path class="st25" d="M160.4,34.1c7.7-0.6,14.8-3.8,20.6-8.9c19.6-17.3,44.2-16,56.8-11.9l0.3,0.1c11.7,4,118.1,46.8,257.7,312.2
		c3.4,6.5,4.1,13.9,1.9,20.9c-2.2,7-6.9,12.7-13.4,16.1c-4.3,2.3-9.1,3.4-13.9,3.2c-9.8-0.4-18.6-6-23.2-14.6
		c-36.8-69.9-74.3-129.7-111.9-178.1c-3.7-4.7-10.9-4.9-14.6-0.2c-1.1,1.3-2.2,2.6-3.3,3.9c-2.6,2.8-3.2,6.9-1.5,10.4
		c4.5,9.4,8.9,20.5,12.8,33.7c11.1,37.9,14.3,82.3,9.7,131.9c-4.1,43.3-22.7,98.4-62.7,123.1c-14.2,8.8-30,13.2-47,13.2
		c-1.3,0-2.6,0-4-0.1c-12.3-0.5-25.3-3.4-38.6-8.5c-10.2-4-17.9-12.2-21.3-22.6c-3.4-10.4-1.9-21.7,4.1-30.9
		c15.7-24.4,50.8-91.1,36.2-184.1c-5.5-35.4,8.1-65.3,22.8-81.5c10.6-11.6,24-18.8,37.7-20.2l1.2-0.1l6,0c3.5,0.1,4.9-2,5.9-4
		c1.7-3.3,3.7-6.5,5.9-9.4c3.2-4.1,2.8-9.9-0.9-13.5c-1.3-1.3-2.5-2.5-3.8-3.7c-19.2-18.7-34.6-30.1-45-36.8
		c-8-5.2-18.5-4.8-26.1,1.1l0,0c-7,5.4-10.3,14.3-8.3,22.9c1.9,8.1,3.4,17.3,4.5,27.4c4,39.2-0.8,83.4-14.3,131.3
		c-11.8,41.8-40,92.7-83.8,109.8c-11.5,4.5-23.4,6.5-35.6,6c-17.6-0.7-35.5-6.6-53.3-17.6c-9.3-5.7-15.4-15.2-16.9-26
		c-1.5-10.9,2-21.7,9.6-29.8c19.9-21.1,66.3-80.5,68.8-174.5c1-36.8,20-63.6,37.6-76.4c2.8-2,5.5-3.7,8.3-5.2
		C137.3,37,150.8,34.9,160.4,34.1z M454.4,347.6C454.4,347.6,454.4,347.6,454.4,347.6C454.4,347.6,454.4,347.6,454.4,347.6z
		 M45,330.9C45,330.9,45,330.9,45,330.9C45,330.9,45,330.9,45,330.9z"/>
	<path class="st26" d="M156.4,66.4c8.4,3,27.6,4.1,41.1-13.2c12.1-15.4,29.8-10.2,30.5-10c0.3,0.1,25.6,9.1,67.7,49.8
		c9,8.7,17.8,17.9,26.5,27.6c2.9,3.2,1.6,8.4-2.5,9.8c-7,2.4-14.7,7.4-20,17.6c-10,19.4-29.1,16.7-29.9,16.5
		c-2.1-0.4-4.1,1.1-4.5,3.2c-0.4,2.1,1.1,4.1,3.2,4.5c0.1,0,1.6,0.3,4.1,0.3c7.7,0,24.7-2.2,34-20.9c7.1-14.3,20.3-15.6,26.7-15.5
		c1.5,0,2.9,0.7,3.8,1.8c53.5,64.1,99.4,142.5,130.9,202.4c0.7,1.3,2.1,2.1,3.5,2.1c0.6,0,1.2-0.1,1.8-0.4c1.9-1,2.6-3.4,1.6-5.3
		C435.4,261.3,373,156.9,301.2,87.4c-43.4-41.9-69.5-51.2-70.7-51.6c-1-0.3-23.6-7.2-39.1,12.6c-13.5,17.2-31.7,10.9-32.5,10.7
		c0,0-2.7-0.6-4.7,1.5L156.4,66.4z"/>
	<path class="st26" d="M107.1,125.1c1-40,32-66.8,50.3-62.4c0,0,43.4,57.3,7.1,186.3c-12.8,45.5-56.9,128.5-132,82.3
		c-4.8-2.9-5.5-9.5-1.7-13.6C50.9,296.4,104.4,229.9,107.1,125.1z"/>
	<path class="st23" d="M75.1,348.8c-14.3,0-29.2-4.7-44.5-14.2c-3.2-2-5.4-5.3-5.9-9.1c-0.5-3.9,0.7-7.7,3.4-10.5
		c9.5-10.1,27.8-31.9,44-64.1c19.6-39.1,30.1-81.5,31.2-126c0.7-27.5,14.9-48,27.9-57.9c9.3-7.1,19.3-10.1,27.3-8.1
		c0.9,0.2,1.6,0.7,2.2,1.4c0.5,0.6,11.5,15.4,17.9,46.3c10.6,51.1,0.3,106.2-10.2,143.4c-9.8,34.7-33.9,80.2-69.7,94.2
		C91,347.3,83.1,348.8,75.1,348.8z M135.9,73.2c-11.6,8.9-24.2,27.1-24.8,51.9c-1.2,45.7-12,89.2-32.1,129.3
		c-16.6,33.1-35.5,55.5-45.2,65.9c-1,1.1-1.5,2.6-1.3,4.1c0.1,0.9,0.6,2.4,2.2,3.5c21.7,13.4,42.3,16.4,61.1,9.1
		c33.1-12.9,55.7-56.1,65.1-89.1c29.1-103.3,6.3-160-3-177.2c-1.6-3-5-4.5-8.3-3.7C141.6,68.9,135.9,73.2,135.9,73.2z M107.1,125.1
		L107.1,125.1L107.1,125.1z"/>
	<path class="st23" d="M75,332.6c-0.7,0-1.3,0-2,0c-2.2-0.1-3.8-1.9-3.7-4.1c0.1-2.2,1.9-3.8,4.1-3.7c5.7,0.2,11.1-0.7,16.5-2.8
		c18.6-7.3,43-34.3,55.4-78.4c0.6-2.1,2.7-3.3,4.8-2.7c2.1,0.6,3.3,2.7,2.7,4.8c-9.5,33.6-31.7,72.5-60.1,83.6
		C87,331.5,81,332.6,75,332.6z"/>
	<path class="st24" d="M66.4,303.3c-0.8,0-1.6-0.2-2.2-0.7c-1.8-1.2-2.2-3.7-0.9-5.4c24.5-34.7,54.1-92.7,56.1-171.7
		c0.1-2.2,1.8-3.8,4-3.8c2.2,0.1,3.9,1.8,3.8,4c-2.1,81-32.5,140.4-57.5,176C68.9,302.7,67.7,303.3,66.4,303.3z"/>
	
		<ellipse transform="matrix(4.006600e-02 -0.9992 0.9992 4.006600e-02 -275.5343 357.8687)" class="st23" cx="48.5" cy="322.3" rx="4" ry="4"/>
	
		<ellipse transform="matrix(4.006600e-02 -0.9992 0.9992 4.006600e-02 23.4058 227.7291)" class="st24" cx="130.2" cy="101.7" rx="4" ry="4"/>
	<path class="st26" d="M232.2,238.7c-6.2-39.6,19.5-71.5,38.3-70.4c0,0,53.1,48.5,40.5,182c-4.4,47.1-32.8,136.6-115,104.7
		c-5.2-2-7.2-8.4-4.1-13.1C207.8,417.4,248.4,342.3,232.2,238.7z"/>
	<path class="st23" d="M228.7,465.6c-10.7,0-22-2.3-34-7c-3.5-1.4-6.2-4.2-7.4-7.9c-1.2-3.7-0.7-7.7,1.4-11
		c7.5-11.7,21.6-36.4,31.7-70.9c12.2-42,14.9-85.5,8-129.5c-4.3-27.2,6-49.9,17-62c7.9-8.7,17.1-13.4,25.4-12.9
		c0.9,0.1,1.7,0.4,2.4,1c0.6,0.5,14.1,13.1,26,42.4c19.6,48.4,19.5,104.4,15.8,142.9c-3.4,35.9-18.9,85-51.6,105.2
		C252.8,462.4,241.2,465.6,228.7,465.6z M272,175.8c-2.1-2.6-5.6-3.5-8.6-2.3c-4.1,1.6-8.3,4.8-12.2,9.1
		c-9.8,10.8-18.9,31.1-15.1,55.6l0,0c7.1,45.1,4.3,89.9-8.2,132.9c-10.3,35.5-24.9,61-32.6,73c-0.8,1.3-1,2.9-0.6,4.3
		c0.3,0.8,1,2.3,2.8,3c23.8,9.2,44.6,8.5,61.8-2.1c30.3-18.7,44.7-65.2,47.9-99.3C317.2,242.2,283.9,190.6,272,175.8z"/>
	<path class="st23" d="M235.5,449c-1.9,0-3.6-1.4-3.9-3.4c-0.3-2.1,1.2-4.1,3.3-4.4c5.7-0.8,10.8-2.7,15.8-5.7
		c17-10.5,36.1-41.5,40.3-87.1c0.2-2.1,2.1-3.7,4.2-3.5c2.1,0.2,3.7,2.1,3.5,4.2c-3.3,34.8-18.1,77-44,93
		c-5.8,3.6-12.1,5.9-18.8,6.8C235.9,449,235.7,449,235.5,449z"/>
	<path class="st24" d="M223.6,421.4c-0.5,0-1.1-0.1-1.6-0.4c-2-0.9-2.8-3.2-1.9-5.2c17.8-38.5,36.5-100.9,24.2-179
		c-0.3-2.1,1.1-4.1,3.3-4.5c2.1-0.3,4.1,1.1,4.5,3.3c12.5,80.1-6.6,144-24.9,183.5C226.5,420.6,225.1,421.4,223.6,421.4z"/>
	<path class="st14" d="M80.1,282c-0.7,0-1.4-0.2-2-0.5c-1.9-1.1-2.5-3.5-1.4-5.3c10.2-17.3,18.6-35.7,25.3-54.7c0.7-2,2.9-3.1,5-2.4
		c2,0.7,3.1,2.9,2.4,5c-6.8,19.5-15.5,38.3-25.9,56C82.8,281.3,81.5,282,80.1,282z"/>
	<path class="st14" d="M252.1,289.2c-2.1,0-3.9-1.7-3.9-3.9c-0.1-16-1.4-32.4-3.9-48.5c-0.3-2.1,1.1-4.1,3.3-4.5
		c2.1-0.3,4.1,1.1,4.5,3.3c2.6,16.5,3.9,33.3,4,49.7C256,287.5,254.3,289.2,252.1,289.2C252.1,289.2,252.1,289.2,252.1,289.2z"/>
	<ellipse transform="matrix(0.9901 -0.1407 0.1407 0.9901 -60.2839 33.9651)" class="st23" cx="210.1" cy="443.3" rx="4" ry="4"/>
	<ellipse transform="matrix(0.9901 -0.1407 0.1407 0.9901 -27.2716 37.3758)" class="st14" cx="250.7" cy="211.6" rx="4" ry="4"/>
</g>
</svg>
