<?xml version="1.0" encoding="utf-8"?>
<!-- Generator: Adobe Illustrator 20.0.0, SVG Export Plug-In . SVG Version: 6.00 Build 0)  -->
<svg version="1.1" id="Layer_1" xmlns="http://www.w3.org/2000/svg" xmlns:xlink="http://www.w3.org/1999/xlink" x="0px" y="0px"
	 viewBox="0 0 500 500" style="enable-background:new 0 0 500 500;" xml:space="preserve">
<style type="text/css">
	.st0{fill:#AFC96B;stroke:#41592B;stroke-width:6;stroke-linecap:round;stroke-linejoin:round;stroke-miterlimit:10;}
	.st1{fill:#D1A982;}
	.st2{fill:#00FFFF;}
	.st3{clip-path:url(#SVGID_2_);}
	.st4{fill:#669635;stroke:#5F0A38;stroke-width:6;stroke-linecap:round;stroke-linejoin:round;stroke-miterlimit:10;}
	.st5{fill:none;stroke:#2F5B04;stroke-miterlimit:10;}
	.st6{fill:#669635;stroke:#2F5B04;stroke-linecap:round;stroke-linejoin:round;stroke-miterlimit:10;}
	.st7{fill:#998004;stroke:#998004;stroke-width:6;stroke-linejoin:round;stroke-miterlimit:10;}
	.st8{fill:none;stroke:#7CA440;stroke-width:2;stroke-linecap:round;stroke-linejoin:round;stroke-miterlimit:10;}
	.st9{fill:#DCCB0D;}
	.st10{fill:#E0E6FF;}
	.st11{fill:#E5C403;}
	.st12{fill:#998004;}
	.st13{fill:none;stroke:#528B16;stroke-linecap:round;stroke-miterlimit:10;}
	.st14{fill:#EEF2FF;stroke:#AFADA7;stroke-miterlimit:10;}
	.st15{fill:#E5C403;stroke:#998004;stroke-miterlimit:10;}
	.st16{opacity:0.4;fill:none;stroke:#7CA440;stroke-miterlimit:10;}
	.st17{opacity:0.3;fill:none;stroke:#7CA440;stroke-miterlimit:10;}
	.st18{opacity:0.2;fill:none;stroke:#7CA440;stroke-miterlimit:10;}
	.st19{opacity:0.1;fill:none;stroke:#7CA440;stroke-miterlimit:10;}
	.st20{fill:#528B16;}
	.st21{fill:none;stroke:#FFFFFF;stroke-linecap:round;stroke-miterlimit:10;}
	.st22{fill:#FFFFFF;}
	.st23{fill:#7C710D;}
	.st24{fill:#7CA440;}
	.st25{fill:#BBB630;}
	.st26{fill:#C5B92E;}
	.st27{fill:#CFBD2D;}
	.st28{fill:#DAC02C;}
	.st29{fill:#EEF2FF;}
	.st30{fill:#AFADA7;}
	.st31{fill:#5ABC18;}
	.st32{fill:#1C6600;}
	.st33{fill:#5ABC18;stroke:#1C6600;stroke-linecap:round;stroke-linejoin:round;stroke-miterlimit:10;}
	.st34{fill:none;stroke:#FFFFFF;stroke-linecap:round;stroke-linejoin:round;stroke-miterlimit:10;}
	.st35{fill:#7FBA19;}
	.st36{fill:#426807;}
	.st37{fill:#FFFDFE;}
	.st38{fill:#E8C5D2;stroke:#5F0A38;stroke-linecap:round;stroke-linejoin:round;stroke-miterlimit:10;}
	.st39{fill:#DB5E8B;}
	.st40{fill:#5F0A38;}
	.st41{fill:#628855;}
	.st42{opacity:0.1;fill:#B2496B;}
	.st43{fill:none;stroke:#628855;stroke-miterlimit:10;}
	.st44{fill:none;stroke:#2F5B04;stroke-width:2;stroke-linecap:round;stroke-miterlimit:10;}
	.st45{fill:none;stroke:#669635;stroke-linecap:round;stroke-miterlimit:10;}
	.st46{fill:#2F5B04;}
	.st47{fill:none;stroke:#2F5B04;stroke-linecap:round;stroke-linejoin:round;stroke-miterlimit:10;}
	.st48{fill:none;stroke:#FFFFFF;stroke-width:0.4894;stroke-linecap:round;stroke-linejoin:round;stroke-miterlimit:10;}
	.st49{opacity:0.7;fill:none;stroke:#FFFFFF;stroke-linecap:round;stroke-linejoin:round;stroke-miterlimit:10;}
	.st50{fill:#669635;}
	.st51{fill:#E8C5D2;}
	.st52{fill:#F9EFF3;}
	.st53{fill:none;stroke:#000000;stroke-miterlimit:10;}
	.st54{fill:#709335;stroke:#384B1D;stroke-miterlimit:10;}
	.st55{fill:#709335;stroke:#384B1D;stroke-width:6;stroke-linecap:round;stroke-linejoin:round;stroke-miterlimit:10;}
	.st56{fill:#B2C172;}
	.st57{fill:none;stroke:#B2C172;stroke-linecap:round;stroke-linejoin:round;stroke-miterlimit:10;}
	.st58{fill:#FCED00;}
	.st59{fill:#8E8300;}
	.st60{fill:#709335;}
	.st61{fill:none;stroke:#709335;stroke-width:2;stroke-linecap:round;stroke-linejoin:round;stroke-miterlimit:10;}
	.st62{fill:none;stroke:#B2C172;stroke-linecap:round;stroke-miterlimit:10;}
	.st63{fill:none;stroke:#709335;stroke-width:2;stroke-miterlimit:10;}
	.st64{opacity:0.5;fill:#B2C172;}
	.st65{opacity:0.6;fill:#709335;}
	.st66{opacity:0.8;fill:none;stroke:#FFFFFF;stroke-linecap:round;stroke-miterlimit:10;}
	.st67{fill:#384B1D;}
	.st68{fill:#98AE5F;}
	.st69{fill:#8BA452;}
	.st70{fill:#C6D3AF;}
	.st71{fill:#568B31;}
	.st72{fill:none;stroke:#6B9F47;stroke-width:2;stroke-linecap:round;stroke-miterlimit:10;}
	.st73{fill:#77AD4E;}
	.st74{fill:#548940;}
	.st75{fill:none;stroke:#AFC96B;stroke-linecap:round;stroke-miterlimit:10;}
	.st76{fill:none;stroke:#548940;stroke-linecap:round;stroke-miterlimit:10;}
	.st77{fill:#AFC96B;}
	.st78{fill:#41592B;}
</style>
<path class="st78" d="M470.4,130.2c-1.6,1.5-2.2,3.8-1.8,5.9c0.1,0.3,0.1,0.6,0.2,0.9c0.7,4.1,1.3,14.8-9,23.7
	c-1.9,1.6-4.2,3.3-7.1,4.9c-4.9,2.9-10.9,5.6-15,7.4c-1.9,0.8-5.9,2.5-10.7,4.3c-7.8,2.9-8.6,13.6-1.3,17.7v0
	c1.5,0.8,3.2,1.3,4.9,1.2c4.2-0.1,8.8,0,13,0.4c3.8,0.3,6.9,0.8,9.7,1.6c13.2,3.6,17.4,13.3,18.6,17.3c5.1,16.9-8.9,27.9-13.5,31.5
	c-5.6,4.4-12.4,8.7-17.2,11.6c-0.1,0.1-0.2,0.1-0.3,0.2c-3.3,2-5.4,5.5-5.6,9.4l0,0c-0.9,16.7-16.4,22.6-23,25.1
	c-6.8,2.6-15,5-20.7,6.6c-13.8,3.8-33.2,8.3-46.5,9.5c-15.5,1.4-40.2,1.1-61,0c-8.3-0.5-15.9,4.2-19.3,11.7
	c-2.6,5.7-5.1,11.4-7.6,17.2c-1,2.3,1.4,4.6,3.7,3.5l0.1,0c13.8-6.6,34.7-12.2,40.8-13.7c29.3-7.5,36.5-5.8,42.8-2.8
	c6.6,3.1,11.4,8.9,13.2,15.9c3.4,13.7-4.9,23.4-14.1,31.2c-2.8,2.4-4.6,5.7-5.3,9.2c-1,4.9-3.8,10.8-10.7,15.8
	c-1.7,1.2-3.7,2.5-6.3,3.9c-4.9,2.8-10.9,5.7-15.1,7.6c-10.1,4.7-24.5,10.9-34.6,14c-7.9,2.4-18.9,5.1-30.1,7.5
	c-9.8,2.1-17.5,9.8-19.6,19.7c-2.6,12.1-3.6,19.5-3.8,20.8c-2.2,15.4-15.5,27-31,27c-1.5,0-3-0.1-4.5-0.3c-17-2.4-29-18.3-26.6-35.4
	c0.1-0.7,0.6-3.7,1.7-8.7c1.3-6.4,0.2-13-3.2-18.5c-5-8.2-11.1-18.5-17.8-30.1c-4.9-8.7-12.4-15.6-21.4-19.9
	c-13.4-6.4-27.8-13.8-36.9-19.4c-9-5.5-21.5-15-30.1-22.1c-3.6-2.9-8.7-7.2-12.8-11.1c-2.2-2.1-3.8-3.8-5.2-5.4
	c-4.6-5.5-6.2-10.8-6.5-15.3c-0.3-5.8-2-11.4-5.2-16.2c-5.8-9-9.7-19.3-3.7-30.3c3-5.5,8-8.6,12.3-10.4c4.3-1.8,6.7-6.4,5.7-11
	c-3.3-14-1.1-20.9,1.7-24.3c2.9-3.5,4.2-8.1,3.4-12.6c0-0.2-0.1-0.4-0.1-0.7c-1-5.6-2.4-13.8-2.9-20.9c-0.4-5.9-1.6-24,14.7-31.4
	c16.1-7.4,28.9,5,33.1,9.1c5.1,4.9,10.3,11.1,13.8,15.4c0.4,0.5,0.9,1.1,1.5,1.8c2.7,3.5,6.9,5.4,11.3,5.5
	c4.6,0.1,11.5,2.8,19.1,13.8c2.7,3.9,7.8,5.2,12,3c4.1-2.1,9.6-3.7,16.2-2.3c12.2,2.7,17.5,12.3,20.6,22.6
	c1.6,5.5,4.8,10.5,8.9,14.5c3.3,3.2,6.2,7.9,7.4,14.9c0.3,2.1,0.6,4.4,0.7,7.4c0.3,5.6,0.2,12.3,0.1,17c-0.3,11.2-1.2,26.8-2.9,37.2
	c-2.3,13.7-7.9,35.9-12.8,52.6c-0.2,0.5-0.1,1.1,0.2,1.6l0,0c0.9,1.6,3.2,1.4,3.8-0.3c7-19.3,15.7-40.6,26.2-63
	c7-14.8,5.3-32.2-4.4-45.3c-5.7-7.7-10.8-15.3-14.2-21.2c-6.4-11.6-11.5-28.8-12.9-33.9c-1.2-4.3-2.8-10.7-3.7-16.3
	c-2.8-18.2,5-26.6,12-30.5c0.2-0.1,0.3-0.2,0.5-0.3c2.1-1.1,3.6-3.2,3.9-5.6c1.2-9.6,5.8-33.4,22.1-37.2
	c18.5-4.4,32.2,14.1,37.2,22.2c1.3,2.1,3.6,3.3,6.1,3.4c0.1,0,0.2,0,0.4,0c8.3,0.2,18.7,4.9,22.8,17.9c0.6,1.9,1.1,4,1.6,6.7
	l0.4,3.1c0.8,5.5,7.7,7.4,11.1,3.1l0.2-0.2c5.5-6.8,5.6-16.5,0.3-23.4c-0.9-1.1-1.6-2.2-2.4-3.2c-5.6-7.8-11.9-19.6-13.7-23
	c-1.5-2.9-3.7-7.2-5.4-11c-0.9-2.2-1.6-3.9-2.1-5.6c-1.8-6-1.4-11.1-0.1-15.2c1.1-3.4,1.4-7,0.8-10.5l0-0.1
	c-2-13.8,3.6-21.5,8.7-25.6c3.9-3.1,8.6-4.9,13.6-5.2c3.4-0.2,6.6-1.5,9.1-3.8l1.8-1.8c1.9-1.9,3.3-4.3,3.9-6.9l0,0
	c0.9-4,2.3-9.7,4.1-14.6C316.5,4.2,327.1,0.5,335,0.2c7.9-0.2,18.8,3,25.7,19.4c2,4.9,3.8,10.7,4.9,14.6c1.3,4.6,5.5,20.6,5.9,32.2
	c0,1.2,0.1,2.6,0.1,4c0,7.6,8.5,12.2,14.9,8c1.4-0.9,2.8-1.8,4.1-2.7c3.5-2.2,8.6-5.4,13.1-7.8c2.5-1.3,4.5-2.3,6.3-3
	c12.6-4.9,22.9,0.1,28.2,6.4c0,0,0,0,0,0c1.7,2,4.3,2.9,6.8,2.1c10.8-3.3,38.8-9.7,46.4,8.2C499,100.2,478.1,122.7,470.4,130.2z
	 M442.9,109.2L442.9,109.2L442.9,109.2z"/>
<path class="st73" d="M250.5,277.4c1.2-1.3,2.5-2.4,4.1-3.2c2.5-12.3,6.3-45.1,6.6-61.2c0.3-15.4-3.7-49.3-5.8-49.3
	c-1,0-3.1,9.8-4.8,21.2c-0.5,3.2-5,3.3-5.6,0.1c-0.6-2.8-1.1-5.4-1.7-7.6c-3.5-13.9-21.2-41-25.3-39.9c-4.4,1.1-6.8,34.5-3.6,47.2
	c0.1,0.3,0.2,0.6,0.2,0.9c0.7,2.8-2.8,4.8-4.8,2.7c-6.1-6.3-11.3-10.7-12.5-10c-3.1,1.7,6.2,35.3,13.7,48.7
	C219.2,241.9,242.3,270.5,250.5,277.4z"/>
<path class="st73" d="M449.3,222.3c-1-3.5-27.1-3-47.5-0.4c-3.6,0.5-5.5-4.1-2.6-6.3c5.3-4.1,8.7-7.2,8.2-7.9
	c-1-1.5-17.9,3.5-35,9.6c-3.4,1.2-6.1-3-3.6-5.6c8.9-9.2,15.3-17.1,14-18.3c-2.9-2.8-47.7,16.6-65.1,28.3
	c-18.2,12.3-50.8,41.6-61.8,54.1c0.1,0.7,0.2,1.4,0.2,2.1c0,1.7-0.3,3.3-0.9,4.8c12.8,3,63.8,5.3,87.9,3.2
	c21.3-1.9,68.6-15.1,68.8-19.1c0.1-1.5-7.6-3.2-18.1-4.5c-3.6-0.5-4.1-5.6-0.5-6.6c0.1,0,0.1,0,0.2,0
	C412.5,249.9,450.6,226.6,449.3,222.3z"/>
<path class="st73" d="M151.8,223.3c2.5,0.2,6.5,19.1,9.1,38.2c0.4,2.6,3.9,3,4.8,0.5c1.9-4.9,3.4-8,4-7.8c2.3,0.7,1.4,39.1-1.4,55.8
	c-2.6,15.7-10.4,45.1-15.4,60.2l-6.8,3c-14.8-6.1-42-19.4-55.5-27.6c-14.5-8.8-44.2-33.2-43.2-35.4c0.3-0.6,3.6,0.3,8.5,2.1
	c2.5,0.9,4.5-2.1,2.8-4c-12.7-14.5-24.6-30-23-31.9c3.4-3.9,27.8,11.4,44.9,22.9c3.1,2.1,6.8-1.7,4.7-4.7c0,0-0.1-0.1-0.1-0.1
	c-11.6-16.9-32.1-58.4-30-60.3c0.9-0.8,7,4.9,14.7,12.9c1.9,2,5.1-0.2,3.9-2.7c-0.8-1.7-1.6-3.3-2.3-4.8
	c-7.7-16.7-16.3-62.2-11.9-64.2c4.1-1.9,32.4,32.6,40.8,51c0.7,1.5,1.4,3.1,2.2,4.8c1.1,2.5,4.9,1.6,4.6-1.2
	c-1.1-11-1.3-19.4-0.2-19.5c2.9-0.4,20.9,42.3,26.1,62.1c0.1,0.5,0.2,0.9,0.4,1.4c0.9,3.6,6.1,3.3,6.6-0.4
	C143,252.9,147.9,223,151.8,223.3z"/>
<path class="st73" d="M339.4,162.8c14.1,1.4,44.8,1,59.8-1.6c15.1-2.7,47-16.6,46.4-20.1c-0.3-1.5-7.7-2.8-17.1-3.6
	c-2.6-0.2-3.2-3.7-0.8-4.7c0.8-0.3,1.5-0.7,2.2-1c11.8-5.5,36.3-28.4,34.3-32.5c-1.8-3.9-34-0.5-47,5.5c-2.6,1.2-5.6,2.8-8.9,4.5
	c-2.5,1.3-4.9-1.8-3-3.9c8.4-9.1,15.6-17.9,14.9-18.7c-1.3-1.6-30.2,16.7-41.9,26.6c-7.4,6.2-18.6,17.2-28.2,27.1
	c-2.2,2.3-6.1,0.5-5.8-2.7c2.2-23.6,4.1-55.9,3.7-70.6c-0.4-12.7-8.9-43.5-12.3-43.4c-3.1,0.1-10.1,30.1-9.7,44.1
	c0,1.1,0.1,2.3,0.1,3.5c0.1,1.9-2.6,2.5-3.3,0.7c-2.7-7.1-5.1-12.3-5.8-12c-1.3,0.4-0.8,14.8,0.4,28.5c0.3,3.7-4.4,5.5-6.6,2.5
	c-7.8-10.6-16.6-20.5-18-19.5c-1.4,1.1,1.9,14,6.1,26.7c0.6,1.7-1.5,2.9-2.8,1.8c-2.7-2.5-4.7-4.1-5-3.8c-1.2,1.1,11.1,24.6,18,34.2
	c5.5,7.6,16.3,20.2,24.2,28.6L339.4,162.8z"/>
<path class="st73" d="M334.9,347c-0.9-3.7-45.7,7.4-63.9,16.1c-18.4,8.7-48.6,27.9-65.6,40.4c0.5,1.4,0.8,3,0.8,4.6
	c0,1.9-0.4,3.7-1.1,5.4c16-2.4,44.7-8.3,59.6-12.9c16.2-5,51-21.3,50.6-23.6c-0.1-0.6-3.3-0.6-8.1-0.2c-2.8,0.3-4.1-3.3-1.8-4.9
	C321.1,361,335.5,349.3,334.9,347z"/>
<path class="st74" d="M343.9,161.4l40.1-3.5c2-0.2,3.7-1.8,3.7-3.9c0-2.3-2-4.2-4.3-4l-14.5,1.3c-1.4,0.1-1.9-1.8-0.6-2.4
	c14.6-6.8,33.1-14.9,51-21.5c1.9-0.7,3.1-2.7,2.6-4.7c-0.6-2.3-3-3.5-5.1-2.7c-28.1,10.3-57.7,24.4-71.9,31.5
	c-1.4,0.7-3-0.3-3.1-1.8l-1.6-63.5c-0.1-2.2-1.9-3.9-4-3.8c-2.2,0.1-3.9,1.9-3.8,4l1.8,69.9l0,0c0,0.8-0.3,1.7-0.9,2.3
	c-29.3,32.2-53.4,66.2-73,99.4c-2.1,3.6-7.5,3-8.7-1c-5.2-16.6-12.6-42.1-16.9-67.4c-0.4-2.2-2.5-3.6-4.7-3.2
	c-2.1,0.5-3.3,2.6-3,4.7c1.8,10.3,4.1,20.6,6.5,30.3c0.7,3-3,4.9-5,2.7c-3.2-3.5-6.1-7.4-8.1-11.4c-0.9-1.8-3-2.8-4.9-2.1
	c-2.2,0.8-3.2,3.3-2.2,5.4c4.5,9.4,13.3,17.9,19.6,23.2c4.5,3.8,7.8,8.7,9.5,14.3c1.7,5.7,3.3,10.6,4.6,14.5
	c1.8,5.4,1.3,11.4-1.4,16.4c-51.5,96.7-66,179.9-66.2,181.1c-0.6,4.3,2.4,8.3,6.7,8.9c0.4,0.1,0.7,0.1,1.1,0.1
	c3.8,0,7.2-2.8,7.7-6.7c0.1-0.6,2.7-19.7,10.6-49.8c1-3.7,3.6-6.8,7.1-8.4c15.2-6.8,42-18.4,65.3-27.2c1.9-0.7,3.1-2.8,2.6-4.7
	c-0.6-2.3-3-3.5-5.2-2.7c-23.3,8.7-50,20.3-65.4,27.2c8.8-30.4,22.3-68.8,42.6-109.8c3.4-6.8,10.1-11.2,17.6-11.7l44.3-2.5
	c1.9-0.1,3.5-1.4,3.8-3.3c0.4-2.6-1.7-4.7-4.1-4.5l-51.8,2.9c19.7-36.5,44.9-74.3,77-109.6c0.6-0.6,1.3-1.2,2.1-1.6l0,0
	C342.1,161.7,343,161.5,343.9,161.4z"/>
<path class="st77" d="M280.2,230.5c-0.8,0-1.5-0.2-2.2-0.7c-1.8-1.2-2.3-3.6-1.1-5.4c9.1-13.6,18.8-26.8,28.7-39.4
	c1.3-1.7,3.8-2,5.5-0.6c1.7,1.3,2,3.8,0.6,5.5c-9.8,12.4-19.4,25.5-28.4,38.9C282.7,229.9,281.5,230.5,280.2,230.5z"/>
<path class="st22" d="M387.3,136.5c-1.5,0-2.9-0.9-3.6-2.3c-0.9-2,0-4.3,2-5.2c5.9-2.7,11.8-5.2,17.4-7.6c2-0.8,4.3,0.1,5.1,2.1
	c0.8,2-0.1,4.3-2.1,5.1c-5.6,2.4-11.4,4.9-17.2,7.5C388.4,136.4,387.9,136.5,387.3,136.5z"/>
<path class="st74" d="M145.4,366.5c-0.1,0-0.1,0-0.2,0c-2.2-0.1-3.8-2-3.7-4.1l4-71.3c0.1-2.2,1.9-3.8,4.1-3.7
	c2.2,0.1,3.8,2,3.7,4.1l-4,71.3C149.2,364.8,147.5,366.5,145.4,366.5z"/>
<path class="st74" d="M139.4,357.3c-0.7,0-1.4-0.2-2.1-0.6l-57.8-35.9c-1.8-1.1-2.4-3.6-1.3-5.4c1.1-1.8,3.6-2.4,5.4-1.3l57.8,35.9
	c1.8,1.1,2.4,3.6,1.3,5.4C142,356.6,140.7,357.3,139.4,357.3z"/>
<path class="st74" d="M131.5,332.3l-28.1-20c-1.8-1.3-2.2-3.7-0.9-5.5c1.3-1.8,3.7-2.2,5.5-0.9l13,9.3l-6.7-44.3
	c-0.3-2.1,1.1-4.1,3.3-4.5c2.1-0.3,4.1,1.1,4.5,3.3L131.5,332.3z"/>
<path class="st74" d="M113.5,299.8c-0.9,0-1.7-0.3-2.4-0.9l-23.4-18.7c-1.7-1.4-2-3.8-0.6-5.5c1.4-1.7,3.8-2,5.5-0.6l23.4,18.7
	c1.7,1.4,2,3.8,0.6,5.5C115.7,299.3,114.6,299.8,113.5,299.8z"/>
<path class="st74" d="M305.9,261.7c-0.8,0-1.6-0.3-2.3-0.8c-1.7-1.3-2.1-3.8-0.8-5.5c0.7-0.9,16.6-22,35-35c1.8-1.2,4.2-0.8,5.5,0.9
	c1.2,1.8,0.8,4.2-0.9,5.5c-17.4,12.3-33.1,33.1-33.3,33.3C308.3,261.2,307.1,261.7,305.9,261.7z"/>
<path class="st77" d="M346.5,267.5c-5.4,0-9.8-0.5-10.1-0.5c-2.1-0.2-3.7-2.2-3.4-4.3c0.2-2.2,2.2-3.7,4.3-3.5
	c0.1,0,12.8,1.4,20.5-0.7c2.1-0.6,4.2,0.7,4.8,2.7c0.6,2.1-0.7,4.2-2.7,4.8C355.7,267.2,350.8,267.5,346.5,267.5z"/>
<path class="st77" d="M374.9,132.2c-1,0-2-0.4-2.8-1.1c-1.5-1.5-1.5-4,0-5.5l11.9-11.9c1.5-1.5,4-1.5,5.5,0c1.5,1.5,1.5,4,0,5.5
	l-11.9,11.9C376.9,131.9,375.9,132.2,374.9,132.2z"/>
<path class="st77" d="M252.1,237c-0.1,0-0.3,0-0.4,0c-2.2-0.2-3.7-2.2-3.5-4.3l2.3-20.8c0.3-2.4,2.7-4.1,5.2-3.3
	c1.8,0.6,2.8,2.4,2.6,4.3l-2.3,20.7C255.8,235.5,254.1,237,252.1,237z"/>
<path class="st74" d="M136.6,320.6c-2.1,0-3.9-1.7-3.9-3.8l-0.4-16.9c0-2.2,1.7-4,3.8-4c2.1,0,4,1.7,4,3.8l0.4,16.9
	C140.5,318.8,138.8,320.5,136.6,320.6C136.6,320.6,136.6,320.6,136.6,320.6z"/>
<path class="st77" d="M294,368.7c-1.6,0-3.1-1-3.7-2.6c-0.7-2,0.3-4.3,2.3-5l13.2-4.8c2-0.7,4.3,0.3,5,2.3c0.7,2-0.3,4.3-2.3,5
	l-13.2,4.8C294.9,368.6,294.5,368.7,294,368.7z"/>
<circle class="st77" cx="116.3" cy="256.4" r="3.9"/>
<circle class="st22" cx="72.1" cy="306.6" r="3.9"/>
<path class="st77" d="M190.1,444.4c-1.3,0-2.6-0.6-3.3-1.8c-8.5-13.4-31-48.9-52-90.7l-0.1-0.2l-36.2-81.2L76,222.6
	c-0.9-2-0.1-4.3,1.9-5.2c2-0.9,4.3-0.1,5.2,1.9l22.6,48l36.2,81.2c20.9,41.5,43.2,76.7,51.6,89.9c1.2,1.8,0.6,4.2-1.2,5.4
	C191.6,444.2,190.8,444.4,190.1,444.4z"/>
<path class="st77" d="M254,280.7c-1.5,0-3-0.9-3.6-2.4c-0.8-2,0.1-4.3,2.1-5.1c0.7-0.3,72.7-29.5,138.4-39.7
	c2.1-0.3,4.1,1.1,4.5,3.3c0.3,2.1-1.1,4.1-3.3,4.5c-64.8,10.1-135.9,38.9-136.6,39.2C255,280.6,254.5,280.7,254,280.7z"/>
<path class="st22" d="M334.5,250c-1.7,0-3.3-1.1-3.8-2.9c-0.6-2.1,0.7-4.2,2.7-4.8c7.7-2.1,15.4-4.1,22.7-5.8
	c2.1-0.5,4.2,0.8,4.7,2.9c0.5,2.1-0.8,4.2-2.9,4.7c-7.2,1.7-14.7,3.6-22.4,5.7C335.2,250,334.9,250,334.5,250z"/>
<path class="st77" d="M336.1,161.2c-1.3,0-2.6-0.6-3.3-1.8c-3.6-5.6-12.4-20.8-17.4-40.5c-0.5-2.1,0.7-4.2,2.8-4.8
	c2.1-0.5,4.2,0.7,4.8,2.8c4.7,18.6,13.1,32.9,16.4,38.2c1.2,1.8,0.6,4.2-1.2,5.4C337.5,161,336.8,161.2,336.1,161.2z"/>
<circle class="st22" cx="420.9" cy="118.4" r="3.9"/>
<circle class="st22" cx="315.9" cy="178.2" r="3.9"/>
<circle class="st22" cx="278.3" cy="374.8" r="3.9"/>
<circle class="st77" cx="211.2" cy="399" r="3.9"/>
<circle class="st77" cx="240.9" cy="294.2" r="3.9"/>
<path class="st22" d="M149.2,297.6c-0.1,0-0.2,0-0.3,0c-2.2-0.1-3.8-2-3.6-4.2l1.3-18.9c0.1-2.2,2-3.8,4.2-3.6
	c2.2,0.1,3.8,2,3.6,4.2l-1.3,18.9C153,296,151.2,297.6,149.2,297.6z"/>
</svg>
