<?xml version="1.0" encoding="utf-8"?>
<!-- Generator: Adobe Illustrator 20.1.0, SVG Export Plug-In . SVG Version: 6.00 Build 0)  -->
<svg version="1.1" id="Layer_1" xmlns="http://www.w3.org/2000/svg" xmlns:xlink="http://www.w3.org/1999/xlink" x="0px" y="0px"
	 viewBox="0 0 500 500" style="enable-background:new 0 0 500 500;" xml:space="preserve">
<style type="text/css">
	.st0{fill:#F22F2E;stroke:#7B000E;stroke-width:5;stroke-miterlimit:10;}
	.st1{fill:#64A025;stroke:#164E16;stroke-width:5;stroke-linecap:round;stroke-miterlimit:10;}
	.st2{fill:#F4C01F;stroke:#B26D09;stroke-width:5;stroke-miterlimit:10;}
	.st3{fill:#FFA200;stroke:#A84902;stroke-width:5;stroke-miterlimit:10;}
	.st4{fill:#7C9800;stroke:#164E16;stroke-width:5;stroke-miterlimit:10;}
	.st5{fill:#4D831C;stroke:#164E16;stroke-width:5;stroke-miterlimit:10;}
	.st6{fill:#F22F2E;}
	.st7{fill:#7C9800;stroke:#164E16;stroke-width:5;stroke-linejoin:round;stroke-miterlimit:10;}
	.st8{fill:#F22F2E;stroke:#7B000E;stroke-miterlimit:10;}
	.st9{fill:#7C9800;}
	.st10{fill:#164E16;}
	.st11{fill:#4D831C;stroke:#2A481D;stroke-width:4;stroke-miterlimit:10;}
	.st12{fill:#6EA336;stroke:#2A481D;stroke-width:4;stroke-linecap:round;stroke-linejoin:round;stroke-miterlimit:10;}
	.st13{fill:#8DCC50;stroke:#A2A121;stroke-width:5;stroke-miterlimit:10;}
	.st14{fill:#4D831C;stroke:#071907;stroke-width:5;stroke-linejoin:round;stroke-miterlimit:10;}
	.st15{fill:#164E16;stroke:#071907;stroke-width:3;stroke-miterlimit:10;}
	.st16{fill:#FFD003;stroke:#D17D01;stroke-width:3;stroke-miterlimit:10;}
	.st17{fill:#E6E6E6;}
	.st18{fill:#D9E021;}
	.st19{fill:#F22F2E;stroke:#7B000E;stroke-width:3;stroke-miterlimit:10;}
	.st20{fill:none;stroke:#FFFFFF;stroke-linecap:round;stroke-linejoin:round;stroke-miterlimit:10;}
	.st21{fill:none;stroke:#FFFFFF;stroke-linecap:round;stroke-miterlimit:10;}
	.st22{fill:#FFFFFF;}
	.st23{fill:none;stroke:#7B000E;stroke-linecap:round;stroke-linejoin:round;stroke-miterlimit:10;}
	.st24{fill:none;stroke:#7B000E;stroke-linecap:round;stroke-miterlimit:10;}
	.st25{fill:#7B000E;}
	.st26{fill:#4D831C;}
	.st27{fill:#2A481D;}
	.st28{fill:#FF7A00;}
	.st29{fill:#FF7A00;stroke:#F44500;stroke-width:3;stroke-miterlimit:10;}
	.st30{fill:none;stroke:#F44500;stroke-linecap:round;stroke-linejoin:round;stroke-miterlimit:10;}
	.st31{fill:#FF7A00;stroke:#F44500;stroke-linecap:round;stroke-linejoin:round;stroke-miterlimit:10;}
	.st32{fill:#F44500;}
	.st33{fill:#8BA00D;stroke:#164E16;stroke-width:3;stroke-linejoin:round;stroke-miterlimit:10;}
	.st34{clip-path:url(#SVGID_2_);}
	.st35{fill:#F40000;stroke:#7B000E;stroke-width:3;stroke-miterlimit:10;}
	.st36{fill:#7DB34C;stroke:#164E16;stroke-width:3;stroke-miterlimit:10;}
	.st37{fill:none;stroke:#164E16;stroke-miterlimit:10;}
	.st38{fill:none;stroke:#7B000E;stroke-width:3;stroke-miterlimit:10;}
	.st39{fill:#A7C92B;stroke:#164E16;stroke-width:3;stroke-miterlimit:10;}
	.st40{fill:none;stroke:#164E16;stroke-linecap:round;stroke-miterlimit:10;}
	.st41{fill:#8BA00D;}
	.st42{fill:#999999;}
	.st43{fill:#A7C92B;}
	.st44{fill:none;stroke:#FEA502;stroke-linecap:round;stroke-linejoin:round;stroke-miterlimit:10;}
	.st45{fill:#FFD003;}
	.st46{fill:#D17D01;}
	.st47{fill:#FEA502;}
	.st48{fill:#4D831C;stroke:#2A481D;stroke-width:3;stroke-linecap:round;stroke-linejoin:round;stroke-miterlimit:10;}
	.st49{fill:#FA6200;stroke:#D54300;stroke-width:3;stroke-miterlimit:10;}
	.st50{fill:#FA6200;stroke:#D54300;stroke-linecap:round;stroke-miterlimit:10;}
	.st51{fill:none;stroke:#F44500;stroke-linecap:round;stroke-miterlimit:10;}
	.st52{fill:#FF9D00;stroke:#E6681E;stroke-linecap:round;stroke-miterlimit:10;}
	.st53{fill:#F97306;}
	.st54{fill:#D54300;}
	.st55{fill:#7DB34C;stroke:#44712A;stroke-width:3;stroke-miterlimit:10;}
	.st56{fill:none;stroke:#44712A;stroke-miterlimit:10;}
	.st57{fill:#7DB34C;}
	.st58{fill:#40760E;}
	.st59{fill:none;stroke:#071907;stroke-miterlimit:10;}
	.st60{fill:none;stroke:#071907;stroke-linecap:round;stroke-linejoin:round;stroke-miterlimit:10;}
	.st61{fill:#071907;}
	.st62{fill:#44712A;}
	.st63{fill:#6E905E;}
	.st64{fill:#456A0A;}
	.st65{fill:#183300;}
	.st66{fill:#FF2214;}
	.st67{fill:#661900;}
	.st68{fill:#FFDC00;}
	.st69{fill:#7C9800;stroke:#164E16;stroke-width:3;stroke-miterlimit:10;}
	.st70{fill:none;stroke:#D17D01;stroke-width:0.75;stroke-miterlimit:10;}
	.st71{fill:#7C9800;stroke:#164E16;stroke-linejoin:round;stroke-miterlimit:10;}
	.st72{fill:none;stroke:#164E16;stroke-linejoin:round;stroke-miterlimit:10;}
	.st73{fill:#8A9D1F;}
	.st74{fill:#1B4700;}
	.st75{fill:none;stroke:#7C9800;stroke-width:3;stroke-linecap:round;stroke-linejoin:round;stroke-miterlimit:10;}
	.st76{opacity:0.6;fill:none;stroke:#FFFFFF;stroke-linecap:round;stroke-miterlimit:10;}
	.st77{fill:none;stroke:#7B000E;stroke-miterlimit:10;}
	.st78{opacity:0.4;fill:none;stroke:#FFFFFF;stroke-linecap:round;stroke-linejoin:round;stroke-miterlimit:10;}
	.st79{fill:none;stroke:#FFFFFF;stroke-width:7.8511;stroke-linecap:round;stroke-miterlimit:10;}
	.st80{fill:#B0C06B;}
	.st81{fill:#F8ACAC;}
	.st82{fill:none;stroke:#FFFFFF;stroke-width:7.7562;stroke-linecap:round;stroke-miterlimit:10;}
	.st83{fill:none;stroke:#164E16;stroke-width:0.851;stroke-miterlimit:10;}
	.st84{opacity:0.3;}
	.st85{fill:#6EA336;}
	.st86{opacity:0.3;fill:#7B000E;}
	.st87{opacity:0.2;fill:none;stroke:#2A481D;stroke-linecap:round;stroke-linejoin:round;stroke-miterlimit:10;}
	.st88{fill:#CC242B;}
	.st89{fill:#5B8734;}
	.st90{fill:#4D831C;stroke:#071907;stroke-miterlimit:10;}
	.st91{fill:none;stroke:#071907;stroke-linecap:round;stroke-miterlimit:10;}
	.st92{opacity:0.7;fill:none;stroke:#FFFFFF;stroke-linecap:round;stroke-miterlimit:10;}
	.st93{opacity:0.7;fill:#FFFFFF;}
	.st94{fill:#B9CAB9;}
	.st95{fill:#F6E600;}
	.st96{fill:#8DCC50;}
	.st97{fill:#A2A121;}
	.st98{fill:#F9EFA7;}
	.st99{fill:#F6E600;stroke:#A2A121;stroke-width:3;stroke-miterlimit:10;}
	.st100{opacity:0.3;fill:none;stroke:#A2A121;stroke-linecap:round;stroke-linejoin:round;stroke-miterlimit:10;}
	.st101{fill:none;stroke:#A2A121;stroke-width:3;stroke-miterlimit:10;}
	.st102{fill:#8DCC50;stroke:#A2A121;stroke-miterlimit:10;}
	.st103{fill:#DCCF2F;}
	.st104{fill:#F22F2E;stroke:#7B000E;stroke-linecap:round;stroke-miterlimit:10;}
	.st105{fill:#6EA336;stroke:#2A481D;stroke-linecap:round;stroke-linejoin:round;stroke-miterlimit:10;}
	.st106{fill:none;stroke:#2A481D;stroke-linecap:round;stroke-linejoin:round;stroke-miterlimit:10;}
	.st107{fill:#639D2E;stroke:#164E16;stroke-width:5;stroke-miterlimit:10;}
	.st108{fill:#639D2E;stroke:#164E16;stroke-miterlimit:10;}
	.st109{opacity:0.5;fill:none;stroke:#D54300;stroke-linecap:round;stroke-miterlimit:10;}
	.st110{fill:#E5531B;}
	.st111{opacity:0.3;fill:none;stroke:#D17D01;stroke-linecap:round;stroke-linejoin:round;stroke-miterlimit:10;}
	.st112{fill:#CE571B;}
	.st113{fill:#A3B653;}
	.st114{fill:none;stroke:#164E16;stroke-linecap:round;stroke-linejoin:round;stroke-miterlimit:10;}
	.st115{fill:#FAC1C1;}
	.st116{clip-path:url(#SVGID_4_);}
	.st117{fill:none;stroke:#D9E021;stroke-miterlimit:10;}
	.st118{fill:#A7C92B;stroke:#164E16;stroke-width:5;stroke-linecap:round;stroke-linejoin:round;stroke-miterlimit:10;}
	.st119{fill:#64A025;}
	.st120{fill:#547C1F;stroke:#164E16;stroke-linecap:round;stroke-miterlimit:10;}
	.st121{fill:#547C1F;}
	.st122{fill:#4D831C;stroke:#164E16;stroke-miterlimit:10;}
	.st123{fill:none;stroke:#FFFFFF;stroke-width:7.7934;stroke-linecap:round;stroke-miterlimit:10;}
	.st124{fill:#8DCC50;stroke:#164E16;stroke-linecap:round;stroke-miterlimit:10;}
	.st125{fill:#F4C01F;stroke:#B26D09;stroke-miterlimit:10;}
	.st126{fill:#FFA200;stroke:#A84902;stroke-miterlimit:10;}
	.st127{fill:#7C9800;stroke:#164E16;stroke-miterlimit:10;}
	.st128{fill:none;stroke:#7C9800;stroke-width:2;stroke-linecap:round;stroke-miterlimit:10;}
	.st129{fill:#F4C01F;}
	.st130{fill:#FFA200;}
	.st131{fill:#B26D09;}
	.st132{fill:#A84902;}
	.st133{fill:none;stroke:#4D831C;stroke-width:3;stroke-linecap:round;stroke-miterlimit:10;}
	.st134{fill:none;stroke:#164E16;stroke-width:3;stroke-linecap:round;stroke-miterlimit:10;}
	.st135{fill:#64A025;stroke:#164E16;stroke-linecap:round;stroke-miterlimit:10;}
	.st136{fill:#F9C900;}
	.st137{fill:#EAA629;}
	.st138{fill:#9BB31C;}
</style>
<g>
	<path class="st45" d="M307.6,418.1c92.5-92.7,97.9-196.4,94.8-242.2c-1-14.6-9.6-27.6-22.6-34.4l-57-29.9
		c-20.1-10.5-44.8-7.1-60.9,8.8c-19.9,19.6-46.7,49.6-68.6,87.5c-14.2,24.6-13.3,53.6-2.9,77.8c2.5,5.8-3.1,11.8-8.9,9.4
		c-46.9-18.7-103-5.9-136.5,37.5c-24.1,31.3-25.7,86.3-11.3,130.2c2.3,6.9,7.8,12.2,14.8,14C86.1,486.8,214.4,511.7,307.6,418.1z"/>
	<path class="st112" d="M315.9,426.4c-58,58.2-128.9,72.6-185,72.6c-38.3,0-69.7-6.7-85.4-10.9c-10.8-2.9-19.3-11-22.8-21.7
		c-7.7-23.5-11-49.9-9.3-74.3c1.9-27,9.7-50,22.5-66.7c17.7-23,41.7-38.9,69.5-46.2c19.7-5.1,40.4-5.5,60.2-1.2
		c4.6,1,8.8-3.1,7.7-7.7c-5.3-23.8-1.9-47.9,9.9-68.4c22.9-39.7,51-70.9,70.5-90c19.8-19.4,49.7-23.8,74.5-10.8l57,29.9
		c16.5,8.7,27.6,25.5,28.8,43.9c1.6,24.5,0.9,63.1-12,107.6C386.6,336.2,357.6,384.6,315.9,426.4 M137.9,298.4c-9,0-18,1.1-26.7,3.4
		c-22.7,5.9-42.4,19-56.9,37.9c-10,13-16.2,31.7-17.7,54.1c-1.5,21.4,1.4,44.7,8.2,65.4c1,3.2,3.5,5.6,6.7,6.4
		c14.6,3.9,43.9,10.2,79.4,10.2c51.4,0,116-13.2,168.6-65.8l0,0c38.9-39,65.9-84,80.3-133.7c11.9-41.2,12.6-76.9,11.1-99.5
		c-0.7-10.4-7-19.9-16.4-24.9l-57-29.9c-15.8-8.3-34.8-5.6-47.4,6.8c-18.5,18.1-45.1,47.6-66.7,85c-11.4,19.8-12.3,44.3-2.3,67.4
		c3,7,1.6,15.1-3.8,20.6c-5.2,5.4-13.1,7.1-20.1,4.3C164.7,300.9,151.3,298.4,137.9,298.4z"/>
	<path class="st22" d="M261.9,194.3c-0.8,0-1.6-0.3-2.4-0.8c-1.7-1.3-2-3.7-0.7-5.4c7.8-10.2,16.3-20.3,25.4-30
		c1.5-1.6,3.9-1.7,5.5-0.2c1.6,1.5,1.7,3.9,0.2,5.5c-8.9,9.5-17.2,19.4-24.9,29.4C264.3,193.7,263.1,194.3,261.9,194.3z"/>
	<path class="st22" d="M81.8,364.8c-0.7,0-1.5-0.2-2.1-0.6c-1.8-1.2-2.3-3.6-1.1-5.4c15-22.7,40-35.2,66.8-33.6
		c2.1,0.1,3.8,2,3.6,4.1c-0.1,2.1-2,3.8-4.1,3.6c-24-1.5-46.3,9.8-59.8,30.1C84.3,364.2,83.1,364.8,81.8,364.8z"/>
	<path class="st112" d="M88.7,410.3c-1.5,0-3-0.9-3.6-2.4c-0.8-2,0.1-4.2,2.1-5.1c12.4-5,22.8-13.5,30.2-24.6
		c11.8-17.7,33.4-25.9,52.5-20.1c9.7,2.9,19.8,3.6,30,2c29.9-4.7,53.3-30.1,55.6-60.4c0.5-6.7,0-13.4-1.4-19.9
		c-3.9-17.3,5.5-35.2,21.8-41.7c14.7-5.8,26.8-16.8,34.2-30.8c1-1.9,3.3-2.6,5.2-1.6c1.9,1,2.6,3.3,1.6,5.2
		c-8.2,15.6-21.8,27.9-38.1,34.4c-12.9,5.1-20.2,19.2-17.1,32.8c1.6,7.2,2.2,14.7,1.6,22.2c-2.5,33.8-28.7,62.2-62.1,67.5
		c-11.4,1.8-22.6,1-33.4-2.2c-15.9-4.8-33.9,2.2-43.8,17c-8.3,12.4-19.9,21.9-33.7,27.5C89.7,410.2,89.2,410.3,88.7,410.3z"/>
	<path class="st112" d="M329.8,263.9c-0.8,0-1.6-0.2-2.2-0.7c-1.7-1.2-2.2-3.7-0.9-5.4C340,239,347,216,346.4,192.9
		c-0.1-2.1,1.6-3.9,3.8-4c0,0,0.1,0,0.1,0c2.1,0,3.8,1.7,3.9,3.8c0.7,24.7-6.8,49.4-21.1,69.6C332.2,263.4,331,263.9,329.8,263.9z"
		/>
	<path class="st112" d="M186.8,437.6c-1.9,0-3.5-1.3-3.8-3.2c-0.3-2.1,1.1-4.1,3.2-4.5c28.7-4.7,55.7-17.1,78-35.8
		c22.6-18.9,39.2-43.3,48.2-70.5c0.7-2,2.9-3.1,4.9-2.5c2,0.7,3.1,2.9,2.5,4.9c-9.4,28.6-26.9,54.2-50.6,74
		c-23.4,19.6-51.7,32.5-81.8,37.5C187.3,437.5,187.1,437.6,186.8,437.6z"/>
	<path class="st22" d="M216.9,393.8c-1.7,0-3.3-1.2-3.8-2.9c-0.5-2.1,0.7-4.2,2.8-4.7c24.6-6.2,44.8-23.3,54.2-45.8
		c0.8-2,3.1-2.9,5.1-2.1c2,0.8,2.9,3.1,2.1,5.1c-10.3,24.7-32.5,43.5-59.4,50.3C217.6,393.8,217.2,393.8,216.9,393.8z"/>
	<path class="st9" d="M342.5,154.6c-0.6,0-1.2-0.2-1.8-0.4l-13.4-7.1c-1.7-0.9-2.5-3-1.8-4.8c0.3-0.9,8.7-22.8,29-48.9
		c18.8-24.1,51.7-56.2,101.9-72.9c0.4-0.1,0.8-0.2,1.2-0.2c0.6,0,1.2,0.2,1.8,0.5l6.2,3.3c1.3,0.7,2.1,2.1,2.1,3.5
		c0,1.5-0.9,2.8-2.3,3.4c-46.7,21.2-76.6,52.9-93.5,75.8c-18.3,24.9-25.7,45-25.8,45.2c-0.4,1.1-1.2,1.9-2.2,2.3
		C343.4,154.6,343,154.6,342.5,154.6z"/>
	<path class="st10" d="M474.3,6.7l-5.7-3c-3.4-1.8-7.1-2.7-10.9-2.7c-2.5,0-4.9,0.4-7.3,1.2c-24.2,8-46.9,20-67.2,35.6
		c-16.2,12.4-30.9,27.1-43.9,43.7c-5.2,6.7-9.7,13.1-13.5,19.1c0.7,0.3,1.4,0.7,2.1,1l4.7,2.5c3.7,2,5,6.6,2.9,10.2
		c-9.2,15.2-13.3,25.9-13.5,26.5c-1.4,3.7,0.2,7.8,3.6,9.6l13.4,7.1c1.1,0.6,2.4,0.9,3.6,0.9c0.9,0,1.9-0.2,2.8-0.5
		c2.1-0.8,3.7-2.5,4.5-4.6c0-0.1,3.9-10.6,12.9-25.6c2-3.3,6.2-4.5,9.7-2.7l7.8,4.1c2.4-3.8,5.2-7.7,8.3-11.9
		c22.5-30,51.1-53.1,85.1-68.5c9.1-4.1,14.7-13.7,13.5-24C486.1,17.1,481.1,10.4,474.3,6.7z M336.9,147.8l-3.1-1.7
		c-2.7-1.4-3.8-4.7-2.5-7.4c8.6-18.9,44.2-86.7,125.2-114.1c0.8-0.3,1.6-0.2,2.3,0.2v0c2.1,1.1,2,4.1-0.1,5.1
		c-73.8,35.5-105.5,96.3-113.8,115.1C343.5,148.1,339.9,149.4,336.9,147.8z"/>
	<path class="st112" d="M231,282.1c-1.7,0-3.3-1.2-3.8-2.9c-4.7-18.5-1.4-38.5,9.1-54.8c1.2-1.8,3.6-2.3,5.4-1.2
		c1.8,1.2,2.3,3.6,1.2,5.4c-9.3,14.5-12.3,32.3-8.1,48.7c0.5,2.1-0.7,4.2-2.8,4.7C231.6,282,231.3,282.1,231,282.1z"/>
	
		<ellipse transform="matrix(0.4647 -0.8855 0.8855 0.4647 -245.0621 380.6375)" class="st22" cx="192.3" cy="393" rx="4.6" ry="4.6"/>
</g>
</svg>
