<?xml version="1.0" encoding="utf-8"?>
<!-- Generator: Adobe Illustrator 20.0.0, SVG Export Plug-In . SVG Version: 6.00 Build 0)  -->
<svg version="1.1" id="Layer_1" xmlns="http://www.w3.org/2000/svg" xmlns:xlink="http://www.w3.org/1999/xlink" x="0px" y="0px"
	 viewBox="0 0 500 500" style="enable-background:new 0 0 500 500;" xml:space="preserve">
<style type="text/css">
	.st0{fill:none;stroke:#456002;stroke-width:6;stroke-miterlimit:10;}
	.st1{fill:#80B039;}
	.st2{fill:none;stroke:#80B039;stroke-linecap:round;stroke-miterlimit:10;}
	.st3{fill:#7DAF1D;}
	.st4{display:none;fill:#D1A982;}
	.st5{fill:#7DAF1D;stroke:#2B6B03;stroke-width:7;stroke-miterlimit:10;}
	.st6{fill:#AFC96B;stroke:#41592B;stroke-width:6;stroke-linecap:round;stroke-linejoin:round;stroke-miterlimit:10;}
	.st7{fill:#00FFFF;}
	.st8{clip-path:url(#SVGID_2_);}
	.st9{fill:#669635;stroke:#5F0A38;stroke-width:6;stroke-linecap:round;stroke-linejoin:round;stroke-miterlimit:10;}
	.st10{fill:none;stroke:#2F5B04;stroke-miterlimit:10;}
	.st11{fill:#669635;stroke:#2F5B04;stroke-linecap:round;stroke-linejoin:round;stroke-miterlimit:10;}
	.st12{fill:#998004;stroke:#998004;stroke-width:6;stroke-linejoin:round;stroke-miterlimit:10;}
	.st13{fill:none;stroke:#7CA440;stroke-width:2;stroke-linecap:round;stroke-linejoin:round;stroke-miterlimit:10;}
	.st14{fill:#DCCB0D;}
	.st15{fill:#E0E6FF;}
	.st16{fill:#E5C403;}
	.st17{fill:#998004;}
	.st18{fill:none;stroke:#528B16;stroke-linecap:round;stroke-miterlimit:10;}
	.st19{fill:#EEF2FF;stroke:#AFADA7;stroke-miterlimit:10;}
	.st20{fill:#E5C403;stroke:#998004;stroke-miterlimit:10;}
	.st21{opacity:0.4;fill:none;stroke:#7CA440;stroke-miterlimit:10;}
	.st22{opacity:0.3;fill:none;stroke:#7CA440;stroke-miterlimit:10;}
	.st23{opacity:0.2;fill:none;stroke:#7CA440;stroke-miterlimit:10;}
	.st24{opacity:0.1;fill:none;stroke:#7CA440;stroke-miterlimit:10;}
	.st25{fill:#528B16;}
	.st26{fill:none;stroke:#FFFFFF;stroke-linecap:round;stroke-miterlimit:10;}
	.st27{fill:#FFFFFF;}
	.st28{fill:#7C710D;}
	.st29{fill:#7CA440;}
	.st30{fill:#BBB630;}
	.st31{fill:#C5B92E;}
	.st32{fill:#CFBD2D;}
	.st33{fill:#DAC02C;}
	.st34{fill:#EEF2FF;}
	.st35{fill:#AFADA7;}
	.st36{fill:#5ABC18;}
	.st37{fill:#1C6600;}
	.st38{fill:#5ABC18;stroke:#1C6600;stroke-linecap:round;stroke-linejoin:round;stroke-miterlimit:10;}
	.st39{fill:none;stroke:#FFFFFF;stroke-linecap:round;stroke-linejoin:round;stroke-miterlimit:10;}
	.st40{fill:#7FBA19;}
	.st41{fill:#426807;}
	.st42{fill:#FFFDFE;}
	.st43{fill:#E8C5D2;stroke:#5F0A38;stroke-linecap:round;stroke-linejoin:round;stroke-miterlimit:10;}
	.st44{fill:#DB5E8B;}
	.st45{fill:#5F0A38;}
	.st46{fill:#628855;}
	.st47{opacity:0.1;fill:#B2496B;}
	.st48{fill:none;stroke:#628855;stroke-miterlimit:10;}
	.st49{fill:none;stroke:#2F5B04;stroke-width:2;stroke-linecap:round;stroke-miterlimit:10;}
	.st50{fill:none;stroke:#669635;stroke-linecap:round;stroke-miterlimit:10;}
	.st51{fill:#2F5B04;}
	.st52{fill:none;stroke:#2F5B04;stroke-linecap:round;stroke-linejoin:round;stroke-miterlimit:10;}
	.st53{fill:none;stroke:#FFFFFF;stroke-width:0.4894;stroke-linecap:round;stroke-linejoin:round;stroke-miterlimit:10;}
	.st54{opacity:0.7;fill:none;stroke:#FFFFFF;stroke-linecap:round;stroke-linejoin:round;stroke-miterlimit:10;}
	.st55{fill:#669635;}
	.st56{fill:#E8C5D2;}
	.st57{fill:#F9EFF3;}
	.st58{fill:none;stroke:#000000;stroke-miterlimit:10;}
	.st59{fill:#709335;stroke:#384B1D;stroke-miterlimit:10;}
	.st60{fill:#709335;stroke:#384B1D;stroke-width:6;stroke-linecap:round;stroke-linejoin:round;stroke-miterlimit:10;}
	.st61{fill:#B2C172;}
	.st62{fill:none;stroke:#B2C172;stroke-linecap:round;stroke-linejoin:round;stroke-miterlimit:10;}
	.st63{fill:#FCED00;}
	.st64{fill:#8E8300;}
	.st65{fill:#709335;}
	.st66{fill:none;stroke:#709335;stroke-width:2;stroke-linecap:round;stroke-linejoin:round;stroke-miterlimit:10;}
	.st67{fill:none;stroke:#B2C172;stroke-linecap:round;stroke-miterlimit:10;}
	.st68{fill:none;stroke:#709335;stroke-width:2;stroke-miterlimit:10;}
	.st69{opacity:0.5;fill:#B2C172;}
	.st70{opacity:0.6;fill:#709335;}
	.st71{opacity:0.8;fill:none;stroke:#FFFFFF;stroke-linecap:round;stroke-miterlimit:10;}
	.st72{fill:#384B1D;}
	.st73{fill:#98AE5F;}
	.st74{fill:#8BA452;}
	.st75{fill:#C6D3AF;}
	.st76{fill:#568B31;}
	.st77{fill:none;stroke:#6B9F47;stroke-width:2;stroke-linecap:round;stroke-miterlimit:10;}
	.st78{fill:#77AD4E;}
	.st79{fill:#548940;}
	.st80{fill:none;stroke:#AFC96B;stroke-linecap:round;stroke-miterlimit:10;}
	.st81{fill:none;stroke:#548940;stroke-linecap:round;stroke-miterlimit:10;}
	.st82{fill:#AFC96B;}
	.st83{fill:#41592B;}
	.st84{clip-path:url(#SVGID_8_);}
	.st85{fill:#7DAF1D;stroke:#2B6B03;stroke-miterlimit:10;}
	.st86{fill:none;stroke:#ABD171;stroke-miterlimit:10;}
	.st87{fill:none;stroke:#2B6B03;stroke-linecap:round;stroke-miterlimit:10;}
	.st88{fill:none;stroke:#ABD171;stroke-linecap:round;stroke-miterlimit:10;}
	.st89{fill:#ABD171;}
	.st90{fill:#2B6B03;}
	.st91{fill:none;stroke:#2B6B03;stroke-miterlimit:10;}
	.st92{clip-path:url(#SVGID_10_);}
	.st93{fill:none;stroke:#998004;stroke-linecap:round;stroke-miterlimit:10;}
	.st94{fill:none;stroke:#998004;stroke-width:1.5;stroke-linecap:round;stroke-miterlimit:10;}
	.st95{fill:none;stroke:#5CA223;stroke-width:3;stroke-linecap:round;stroke-miterlimit:10;}
	.st96{fill:#724753;}
	.st97{clip-path:url(#SVGID_12_);}
	.st98{fill:#747C27;}
	.st99{fill:#456002;}
	.st100{fill:#8EBC3F;}
	.st101{fill:#CCDEB2;}
</style>
<path class="st99" d="M145.2,357.1c5.1,16.5,10.7,32.8,16.8,48.9c3.9,10.4,2,22.1-5.2,30.6c-3.5,4.1-7,8.2-10.6,12.2
	c-11.1,12.4-10,31.6,2.4,42.6c4.8,4.3,10.7,6.9,17,7.5c1,0.1,2.1,0.2,3.1,0.2c8.6,0,16.8-3.7,22.6-10.2
	c32.1-36.2,61-75.6,86.1-117.3c3.6-5.9,11.1-8.2,17.3-5.2c5.8,2.8,13.8,5.7,23.4,6.7c25.8,2.6,75-11.3,77.7-40.8
	c0.9-10.1-2.8-25.3-26.7-39.7c-13.8-8.3-27.3-12.1-35.5-13.8c-3.9-0.8-6-4.9-4.5-8.6l0-0.1c1-2.5,3.5-3.9,6.2-3.8
	c1.6,0.1,3.2,0.1,4.7,0.1c17.2-0.6,47.5-13.4,46.8-37.1c-0.5-15.4-13.2-25-26.6-29.8c-2.5-0.9-3.8-3.6-3-6.1l0-0.1
	c0.8-2.6,3.6-4.1,6.2-3.2c4.9,1.6,13.3,3.8,23.4,3.5c12.4-0.3,27-4.8,40.1-11.9c18.5-10.2,27.7-22.3,27.2-36
	c-0.3-9.8-5.8-23.7-29.8-34.6c-4.9-2.2-10.1-4.1-15.3-5.5c-3.8-1-4.6-6.1-1.3-8.3c12.6-8.4,22.6-21.6,19.2-36.4
	c-2.9-12.9-14-20.4-26.6-23.5c-4.1-1-7.4-4.2-8.5-8.3c-3.6-13.5-12-25.8-25.8-28c-6.7-1.1-19.7-0.4-31.6,15.9
	c-0.6,0.9-1.2,1.7-1.8,2.6c-2.3,3.5-6.3,5.5-10.5,5.2c-4.8-0.2-9.4,0.1-13.5,1.2c-10.1,2.5-15.4,8.4-18.1,12.9
	c-7.4,12.4-3,27,5.4,38.6c2.3,3.2-0.3,7.6-4.2,7.2c-4.7-0.5-9.4-0.6-14.1-0.4c-26.4,1.1-36.6,12-40.5,20.9
	c-5.6,12.6-1.6,27.2,11.8,43.6c9.4,11.5,21.4,21,32.8,26c5.4,2.4,10.6,4,15.8,4.9c1,0.2,1.6,1.2,1.3,2.1l0,0.1c-0.3,0.8-1.2,1.3-2,1
	c-11.4-3.5-26.7-4.8-38,1c-4.2,2.2-9.3,1.7-13.1-1.2c-6.2-4.8-15.6-8.8-30.1-10c-3.6-0.3-7.3-0.4-10.9-0.3c-3.1,0.1-4.8-3.7-2.5-5.9
	c2-2,4.2-4.5,6.2-7.5c5.3-8.1,5.9-15.4,4.9-20.9c-1.2-6.7-6.3-18.9-26.3-24.6c0,0,0,0-0.1,0c-1.9-0.5-2.3-3.1-0.5-4.1
	c15.6-8.7,30-25.6,24.4-43.3c-2-6.5-8.4-17.8-28.3-21.2c0,0,0,0-0.1,0c-4.3-0.7-7.8-3.6-9.2-7.7c-4.6-13.2-13.9-24.6-28.2-25.7
	c-14-1.1-25,9-31.7,21.3c-2,3.7-6,6-10.3,6.1c-4.8,0.1-9.4,0.9-13.5,2.3c-9.9,3.3-14.7,9.6-17,14.3c-2.3,4.6-4.3,12.1-1,21.9
	C75,87.1,83.3,97.4,93,104.2c1.6,1.1,1.1,3.5-0.8,4c-15.2,3.7-20.8,12.9-22.9,18.5c-4.2,11.6,0.4,23.3,8.5,32.3
	c4.4,4.9,9.2,8.7,13.6,11.5c2.8,1.8,1.6,6.2-1.8,6.3c-21.7,0.5-45.6,7.6-51.4,26.6c-4,13.1,1.6,27.2,16.9,41.9
	c10.7,10.3,23.7,18.3,35.6,22c2.7,0.8,5.4,1.5,8.1,2c3.2,0.6,3.7,4.8,0.8,6.2c-0.1,0-0.1,0.1-0.2,0.1c-10.9,5.3-24,15-24.4,31
	c-0.2,9.2,3.7,22.3,23.7,32.6c9.9,5.1,21.1,8.2,30.9,8.4c0.7,0,1.5,0,2.2,0C137.9,347.4,143.4,351.2,145.2,357.1z M172.6,78.1
	L172.6,78.1C172.5,78.1,172.5,78.1,172.6,78.1C172.6,78.1,172.6,78.1,172.6,78.1z M224.6,342.3c-2.6,4.3-5.3,8.6-8,12.8
	c-2.3,3.6-7.7,2.9-9-1.1c-2.5-7.5-4.9-15.1-7.1-22.7c-1.4-4.8,4.2-8.5,8-5.3c5.7,4.6,10.5,7.5,14,9.2
	C225.1,336.5,226.1,339.8,224.6,342.3z M272.1,251.1L272.1,251.1c-0.6,1.5-2.5,1.8-3.6,0.7c-7.1-7.1-15.1-11.6-20-13.9
	c-2.3-1.1-3-4-1.5-6c0,0,0-0.1,0.1-0.1c1.6-2.1,4.8-2.1,6.4,0c3.4,4.4,9.4,11.3,17.8,16.6C272.2,249,272.6,250.1,272.1,251.1z"/>
<g>
	<g>
		<g>
			<path class="st100" d="M137.2,146.8l-3.2-1.2c-2.3-0.8-4.2-2.6-5.2-4.8c-0.6-1.5-1.5-2.9-2.7-4.1c-1.8-1.8-4.3-3.4-7.7-4.7
				c-9.7-3.6-25.3-1.8-27,2.7c-1.5,4,9.1,16,18.8,19.5c3.4,1.2,6.4,1.6,8.9,1.4c1.7-0.2,3.2-0.7,4.7-1.4c2.2-1.1,4.7-1.2,7-0.4
				l3.3,1.2c0.4,0.1,0.7,0.2,1.1,0.2c2.2,0.2,4.3-1.2,4.7-3.5C140.6,149.7,139.3,147.6,137.2,146.8z"/>
		</g>
	</g>
	<g>
		<g>
			<path class="st100" d="M272.9,316.8l-5.6-5.4c-2.3-2.3-3.4-5.5-2.8-8.8c1-5.9,1.3-11.6-0.8-17.5c-1.8-4.9-5.2-10-10.5-15.2
				c-15.2-14.7-46-24.4-52.8-17.4c-6.1,6.3,3.8,37.5,19,52.2c5.3,5.1,10.5,8.4,15.5,10c5.7,1.9,11.2,1.5,16.8,0.5
				c3.6-0.7,7.4,0.3,10,2.9l5.1,4.9c0.7,0.7,1.7,1.1,2.6,1.2c1.3,0.1,2.6-0.3,3.6-1.3C274.7,321.3,274.7,318.5,272.9,316.8z"/>
		</g>
	</g>
	<g>
		<g>
			<path class="st100" d="M338.7,219.2c-3.6,0.1-6.5,0.9-8.7,2c-1.7,0.9-3.1,2.1-4.2,3.6c-1.2,1.5-3,2.4-5,2.5l-4.6,0.2
				c-2.4,0.1-4.3,2.1-4.2,4.5c0.1,2.2,1.8,4,3.9,4.2c0.2,0,0.4,0,0.6,0l4.6-0.2c1.9-0.1,3.8,0.7,5.1,2.1c1.2,1.3,2.7,2.5,4.5,3.3
				c2.3,1,5.3,1.6,8.9,1.5c10.3-0.3,24.1-8.4,24-12.7C363.3,225.4,349,218.8,338.7,219.2z"/>
		</g>
	</g>
	<g>
		<g>
			<path class="st100" d="M340.8,146.2l-6.2-2.7c-3-1.3-5.1-4-5.8-7.2c-1-5-2.6-9.6-6-13.7c-3.1-3.6-7.6-6.9-13.7-9.6
				c-17.5-7.7-46.7-6.3-50.3,1.8c-3.2,7.2,15,30.7,32.5,38.4c6.1,2.7,11.6,3.8,16.3,3.6c5.7-0.2,10.4-2.4,15-5.2
				c2.2-1.4,5.1-1.6,7.5-0.5l7,3.1c0.4,0.2,0.9,0.3,1.3,0.4c1.8,0.2,3.7-0.8,4.5-2.6C344,149.8,343,147.2,340.8,146.2z"/>
		</g>
	</g>
	<g>
		<g>
			<path class="st100" d="M233.4,204c-3.2-8.3-32.3-11-50.2-4c-6.2,2.4-10.8,5.5-14.1,9c-3.9,4.2-5.6,9-6.8,14.3
				c-0.6,2.6-2.5,4.8-5,5.8l-7.1,2.8c-2.3,0.9-3.4,3.4-2.5,5.7c0.6,1.6,2.1,2.6,3.7,2.8c0.7,0.1,1.4,0,2-0.3l5.7-2.2
				c3.4-1.3,7.2-0.9,10.3,1.1c4,2.6,8.3,4.6,13.4,5c4.7,0.4,10.3-0.5,16.5-2.9C217.1,234,236.3,211.4,233.4,204z"/>
		</g>
	</g>
	<g>
		<g>
			<path class="st98" d="M355.3,70c-2.4-0.3-4.6,1.4-4.9,3.9c0,0-21.2,168.7-140.6,333.2c-2.2,3.1-7,2.4-8.4-1.1
				c-68.5-171.7-57.2-321.7-57.2-321.7c0.2-2.4-1.6-4.5-4-4.8c-2.4-0.2-4.5,1.6-4.8,4c0,0-17.9,148.9,54.3,328.7
				c3.5,8.6,2.2,18.4-3.6,25.6c-7.2,8.9-14.6,17.7-22.4,26.5c-2.4,2.7-2.2,6.9,0.5,9.3c1.1,1,2.4,1.5,3.7,1.6c2,0.2,4.1-0.5,5.6-2.2
				C342.5,282.6,359.2,74.9,359.2,74.9C359.4,72.5,357.7,70.3,355.3,70z"/>
		</g>
	</g>
	<g>
		<g>
			<g>
				<path class="st100" d="M370.3,49.9c-1.8,11-7.7,15.3-14.1,14.3c-6.4-1-10.7-7-9-18s10.7-22.4,15.3-21.7
					C366.7,25.1,372,38.9,370.3,49.9z"/>
			</g>
		</g>
	</g>
	<g>
		<g>
			<g>
				<path class="st100" d="M383.5,82.9c-10.8,2.4-17.1-1.5-18.5-7.8c-1.4-6.3,2.5-12.5,13.4-15c10.8-2.4,24.8,1.5,25.8,6.1
					C405.1,70.3,394.4,80.4,383.5,82.9z"/>
			</g>
		</g>
	</g>
	<g>
		<g>
			<g>
				<path class="st100" d="M325.5,73.4c9.5,5.7,16.7,3.9,20-1.6s1.5-12.7-8-18.4s-24-6.3-26.5-2.2C308.8,54.7,315.9,67.6,325.5,73.4
					z"/>
			</g>
		</g>
	</g>
	<g>
		<g>
			<path class="st100" d="M384.8,126.1c-6.7,0.2-12.1,1.6-16.2,3.8c-4.7,2.5-7.9,6.2-10.7,10.5c-1.8,2.7-4.8,4.4-8,4.6l-4.4,0.1
				c-2.4,0.1-4.3,2.1-4.2,4.5c0.1,2.2,1.8,4,3.9,4.2c0.2,0,0.4,0,0.6,0l5.4-0.2c2.6-0.1,5.2,1.1,6.8,3.2c3.2,4.3,6.8,8.1,11.9,10.5
				c4.3,1.9,9.8,3,16.5,2.7c19.2-0.6,44.8-15.6,44.5-23.5C430.5,137.6,404,125.4,384.8,126.1z"/>
		</g>
	</g>
	<g>
		<g>
			<path class="st100" d="M324.8,301.2c-7.3-0.7-13.4,0.1-18.3,1.9c-5.9,2.2-10,6.1-13.8,10.7c-2.1,2.5-5.2,3.9-8.5,3.5l-6-0.6
				c-2.4-0.2-4.6,1.5-4.8,4c-0.2,2.4,1.5,4.5,3.9,4.8c0,0,0,0,0,0l5.3,0.5c3.7,0.3,6.9,2.5,8.7,5.7c2.8,5,6.1,9.4,11.3,12.5
				c4.5,2.7,10.4,4.6,17.7,5.3c21.1,2,51.2-10.8,52-19.5C373.3,320.3,345.9,303.2,324.8,301.2z"/>
		</g>
	</g>
	<g>
		<g>
			<path class="st101" d="M302,325.5c-0.9,0-1.8-0.3-2.5-0.9c-1.7-1.4-1.9-3.9-0.5-5.6c3.7-4.5,6.8-6.9,10.4-8.3
				c2.1-0.8,4.4,0.3,5.1,2.3c0.8,2.1-0.3,4.4-2.3,5.1c-2.2,0.8-4.3,2.6-7.1,5.9C304.3,325,303.1,325.5,302,325.5z"/>
		</g>
	</g>
	<g>
		<g>
			<path class="st100" d="M309.2,223.7l-1.5-0.8c-1.7-0.9-2.9-2.5-3.3-4.4c-0.4-1.8-1-3.5-2.2-5.1c-1.5-2.1-3.8-4-6.9-5.7
				c-9.1-4.9-24.8-5.4-27.1-1.2c-2,3.7,6.7,17.1,15.8,22c3.2,1.7,6.1,2.6,8.6,2.7c1.9,0.1,3.7-0.3,5.4-0.9c1.8-0.7,3.8-0.5,5.5,0.4
				l1.5,0.8c0.5,0.3,1.1,0.5,1.7,0.5c1.7,0.2,3.4-0.7,4.3-2.3C312.1,227.6,311.3,224.9,309.2,223.7z"/>
		</g>
	</g>
	<g>
		<g>
			<g>
				<path class="st100" d="M129.8,57.9c-0.9,11.1,3.9,16.7,10.4,17.2c6.4,0.5,12.1-4.3,12.9-15.4c0.9-11.1-5.1-24.3-9.8-24.7
					C139.1,34.7,130.7,46.8,129.8,57.9z"/>
			</g>
		</g>
	</g>
	<g>
		<g>
			<g>
				<path class="st100" d="M110.1,86.9c9.9,4.9,17,2.5,19.8-3.2c2.9-5.8,0.5-12.8-9.5-17.7s-24.5-4.3-26.6-0.1
					C92,69.7,100.1,82,110.1,86.9z"/>
			</g>
		</g>
	</g>
	<g>
		<g>
			<g>
				<path class="st100" d="M169.1,91.4c-10.6,3.3-17.2-0.1-19.1-6.3c-1.9-6.2,1.5-12.7,12.1-16c10.6-3.3,24.8-0.5,26.3,4
					C189.7,77.2,179.7,88.1,169.1,91.4z"/>
			</g>
		</g>
	</g>
	<g>
		<g>
			<path class="st100" d="M143.9,231.4l-5.4-1.7c-2.6-0.8-4.6-2.8-5.4-5.4c-1.6-5.1-3.7-9.9-7.9-13.7c-3.5-3.2-8.3-6-14.7-7.9
				c-18.3-5.6-47.1-0.8-49.7,7.7c-2.3,7.6,18.5,28.7,36.8,34.3c6.4,2,12,2.4,16.7,1.7c5-0.8,9.2-3.1,13-6c2.9-2.2,6.7-2.9,10.1-1.9
				l4,1.2c0.3,0.1,0.6,0.1,0.9,0.2c2,0.2,4-1,4.6-3.1C147.5,234.6,146.2,232.1,143.9,231.4z"/>
		</g>
	</g>
	<g>
		<g>
			<path class="st101" d="M222.2,289.9c-1.3,0-2.6-0.7-3.4-1.9c-1.4-2.2-2.7-4.7-3.9-7.3c-0.9-2-0.1-4.4,1.9-5.3
				c2-0.9,4.4-0.1,5.3,1.9c1.1,2.3,2.3,4.5,3.5,6.5c1.2,1.9,0.6,4.3-1.3,5.5C223.6,289.7,222.9,289.9,222.2,289.9z"/>
		</g>
	</g>
	<g>
		<g>
			<path class="st101" d="M293.7,127c-0.2,0-0.5,0-0.7-0.1c-3.5-0.6-7.3-1-11-1c-2.2,0-4-1.8-4-4s1.8-4,4-4c4.2,0,8.5,0.4,12.5,1.1
				c2.2,0.4,3.6,2.5,3.2,4.6C297.2,125.6,295.6,127,293.7,127z"/>
		</g>
	</g>
	<g>
		<g>
			<path class="st101" d="M83.4,218.9c-2,0-3.7-1.5-4-3.5c-0.3-2.2,1.2-4.2,3.4-4.5c3.1-0.4,6.3-0.6,9.5-0.6c2.2,0,4,1.8,4,4
				s-1.8,4-4,4c-2.9,0-5.7,0.2-8.4,0.6C83.7,218.9,83.5,218.9,83.4,218.9z"/>
		</g>
	</g>
	<g>
		<g>
			<path class="st100" d="M164.1,135.1c-3.5,0.6-6.3,1.8-8.4,3.3c-1.7,1.2-2.9,2.7-3.8,4.4c-0.9,1.5-2.4,2.5-4.1,2.8l-2.8,0.5
				c-2.4,0.4-4.1,2.6-3.8,5c0.3,2.1,2,3.5,3.9,3.7c0.4,0,0.8,0,1.2,0l3-0.5c1.7-0.3,3.5,0.1,4.8,1.2c1.5,1.2,3.1,2.2,5.1,2.8
				c2.5,0.7,5.5,0.8,9,0.2c10.2-1.8,22.6-11.8,21.9-16C189.3,137.7,174.2,133.2,164.1,135.1z"/>
		</g>
	</g>
	<g>
		<g>
			<path class="st100" d="M130.1,322.6c4.5,0.1,8.2-0.6,11.1-2c2-0.9,3.7-2.2,5.1-3.7c1.9-2,4.6-3.2,7.3-3.1l2.6,0.1
				c2.9,0.1,5.5-2,5.8-4.8c0.3-2.7-1.4-5.1-3.8-5.9c-0.5-0.1-1-0.2-1.5-0.2l-2.8-0.1c-2.8-0.1-5.3-1.3-7.2-3.4
				c-1.4-1.6-3-2.9-4.9-3.9c-2.8-1.5-6.5-2.3-11-2.4c-12.9-0.3-30.7,8.8-30.8,14.1C99.8,313.1,117.2,322.3,130.1,322.6z"/>
		</g>
	</g>
	<g>
		<circle class="st101" cx="213.3" cy="266.9" r="4"/>
	</g>
	<g>
		<circle class="st101" cx="105.4" cy="214.1" r="4"/>
	</g>
	<g>
		<circle class="st101" cx="105.4" cy="71.5" r="4"/>
	</g>
</g>
</svg>
