<?xml version="1.0" encoding="utf-8"?>
<!-- Generator: Adobe Illustrator 20.1.0, SVG Export Plug-In . SVG Version: 6.00 Build 0)  -->
<svg version="1.1" id="Layer_1" xmlns="http://www.w3.org/2000/svg" xmlns:xlink="http://www.w3.org/1999/xlink" x="0px" y="0px"
	 viewBox="0 0 500 500" style="enable-background:new 0 0 500 500;" xml:space="preserve">
<style type="text/css">
	.st0{fill:#7C9800;stroke:#164E16;stroke-width:5;stroke-linejoin:round;stroke-miterlimit:10;}
	.st1{fill:#FFD003;stroke:#D17D01;stroke-width:3;stroke-miterlimit:10;}
	.st2{fill:#00FFFF;}
	.st3{fill:#7C9800;}
	.st4{fill:#164E16;}
	.st5{fill:#F22F2E;}
	.st6{fill:#F22F2E;stroke:#7B000E;stroke-width:3;stroke-miterlimit:10;}
	.st7{fill:none;stroke:#FFFFFF;stroke-linecap:round;stroke-linejoin:round;stroke-miterlimit:10;}
	.st8{fill:none;stroke:#FFFFFF;stroke-linecap:round;stroke-miterlimit:10;}
	.st9{fill:#FFFFFF;}
	.st10{fill:none;stroke:#7B000E;stroke-linecap:round;stroke-linejoin:round;stroke-miterlimit:10;}
	.st11{fill:none;stroke:#7B000E;stroke-linecap:round;stroke-miterlimit:10;}
	.st12{fill:#7B000E;}
	.st13{fill:#4D831C;}
	.st14{fill:#2A481D;}
	.st15{fill:#FF7A00;}
	.st16{fill:#FF7A00;stroke:#F44500;stroke-width:3;stroke-miterlimit:10;}
	.st17{fill:none;stroke:#F44500;stroke-linecap:round;stroke-linejoin:round;stroke-miterlimit:10;}
	.st18{fill:#FF7A00;stroke:#F44500;stroke-linecap:round;stroke-linejoin:round;stroke-miterlimit:10;}
	.st19{fill:#F44500;}
	.st20{fill:#8BA00D;stroke:#164E16;stroke-width:3;stroke-linejoin:round;stroke-miterlimit:10;}
	.st21{clip-path:url(#SVGID_2_);}
	.st22{fill:#F40000;stroke:#7B000E;stroke-width:3;stroke-miterlimit:10;}
	.st23{fill:#7DB34C;stroke:#164E16;stroke-width:3;stroke-miterlimit:10;}
	.st24{fill:none;stroke:#164E16;stroke-miterlimit:10;}
	.st25{fill:none;stroke:#7B000E;stroke-width:3;stroke-miterlimit:10;}
	.st26{fill:#A7C92B;stroke:#164E16;stroke-width:3;stroke-miterlimit:10;}
	.st27{fill:none;stroke:#164E16;stroke-linecap:round;stroke-miterlimit:10;}
	.st28{fill:#8BA00D;}
	.st29{fill:#999999;}
	.st30{fill:#A7C92B;}
	.st31{fill:none;stroke:#FEA502;stroke-linecap:round;stroke-linejoin:round;stroke-miterlimit:10;}
	.st32{fill:#FFD003;}
	.st33{fill:#D17D01;}
	.st34{fill:#FEA502;}
	.st35{fill:#4D831C;stroke:#2A481D;stroke-width:3;stroke-linecap:round;stroke-linejoin:round;stroke-miterlimit:10;}
	.st36{fill:#FA6200;stroke:#D54300;stroke-width:3;stroke-miterlimit:10;}
	.st37{fill:#FA6200;stroke:#D54300;stroke-linecap:round;stroke-miterlimit:10;}
	.st38{fill:none;stroke:#F44500;stroke-linecap:round;stroke-miterlimit:10;}
	.st39{fill:#FF9D00;stroke:#E6681E;stroke-linecap:round;stroke-miterlimit:10;}
	.st40{fill:#F97306;}
	.st41{fill:#D54300;}
	.st42{fill:#7DB34C;stroke:#44712A;stroke-width:3;stroke-miterlimit:10;}
	.st43{fill:none;stroke:#44712A;stroke-miterlimit:10;}
	.st44{fill:#7DB34C;}
	.st45{fill:#40760E;}
	.st46{fill:#164E16;stroke:#071907;stroke-width:3;stroke-miterlimit:10;}
	.st47{fill:none;stroke:#071907;stroke-linecap:round;stroke-linejoin:round;stroke-miterlimit:10;}
	.st48{fill:#071907;}
	.st49{fill:#44712A;}
	.st50{fill:#6E905E;}
	.st51{fill:#456A0A;}
	.st52{fill:#183300;}
	.st53{fill:#FF2214;}
	.st54{fill:#661900;}
	.st55{fill:#FFDC00;}
	.st56{fill:#7C9800;stroke:#164E16;stroke-width:3;stroke-miterlimit:10;}
	.st57{fill:none;stroke:#D17D01;stroke-width:0.75;stroke-miterlimit:10;}
	.st58{fill:#7C9800;stroke:#164E16;stroke-linejoin:round;stroke-miterlimit:10;}
	.st59{fill:none;stroke:#164E16;stroke-linejoin:round;stroke-miterlimit:10;}
	.st60{fill:#8A9D1F;}
	.st61{fill:#1B4700;}
	.st62{fill:none;stroke:#7C9800;stroke-width:3;stroke-linecap:round;stroke-linejoin:round;stroke-miterlimit:10;}
	.st63{opacity:0.6;fill:none;stroke:#FFFFFF;stroke-linecap:round;stroke-miterlimit:10;}
	.st64{fill:none;stroke:#7B000E;stroke-miterlimit:10;}
	.st65{opacity:0.4;fill:none;stroke:#FFFFFF;stroke-linecap:round;stroke-linejoin:round;stroke-miterlimit:10;}
	.st66{fill:none;stroke:#FFFFFF;stroke-width:7.8511;stroke-linecap:round;stroke-miterlimit:10;}
	.st67{fill:#B0C06B;}
	.st68{fill:#F8ACAC;}
	.st69{fill:none;stroke:#FFFFFF;stroke-width:7.7562;stroke-linecap:round;stroke-miterlimit:10;}
</style>
<g>
	<path class="st5" d="M386.8,56.8l-0.1-0.3c-3.2-8.2-13.4-11-20.4-5.6c-24.2,18.8-43,43.7-54.6,72.2l-15.1,37.2
		c-0.1-3.6-0.2-7.2-0.5-10.7l-3.9-51.6c-2.2-28.4-11.7-55.8-27.7-79.4l-0.2-0.2c-4.6-6.9-14.6-7.3-19.8-0.9l0,0
		c-18.3,22.3-30.3,49.1-34.9,77.6l-8.2,50.5c-0.6,3.5-1,7.1-1.4,10.7l-11.9-38.4c-9.1-29.3-25.7-55.7-48.3-76.5
		c-6.5-6-16.9-4-20.8,3.9l-0.1,0.3c-13.3,27.2-19.3,57.5-17.4,87.7l3.5,54.9c1.7,26.7,8.5,52.9,20.1,77l12.3,25.7
		c7.5,15.7,24.6,24.3,41.6,21.2c17.1-3.1,29.9-17.3,31.4-34.6l2-23.4c5.7,11.9,17.4,20,31,20.6c13.6,0.6,26-6.5,32.6-17.9l0,23.4
		c0,17.4,11.6,32.6,28.3,37.1h0c16.7,4.6,34.5-2.6,43.3-17.6l14.5-24.6c13.6-23.1,22.6-48.5,26.5-75l8.1-54.4
		C401.3,115.7,397.8,85.1,386.8,56.8z"/>
	<path class="st9" d="M336.6,161.4c-0.3,0-0.7-0.1-1-0.2c-2.1-0.6-3.3-2.8-2.6-4.9l7.7-25.5c0.6-2.1,2.8-3.3,4.9-2.6
		c2.1,0.6,3.3,2.8,2.6,4.9l-7.7,25.5C340,160.4,338.3,161.5,336.6,161.4z"/>
	<path class="st9" d="M138.4,170.5c-1.9-0.1-3.5-1.5-3.7-3.4c-3-20.9-4.3-41.7-3.7-59.9c0.1-2.2,1.9-3.9,4.1-3.8
		c2.2,0.1,3.9,1.9,3.8,4.1c-0.6,17.8,0.7,38.1,3.6,58.6c0.3,2.2-1.2,4.1-3.3,4.5C138.8,170.5,138.6,170.5,138.4,170.5z"/>
	<path class="st12" d="M397.9,52.6l-0.1-0.3c-2.9-7.4-9-12.9-16.6-15c-7.7-2.1-15.7-0.5-22,4.4c-23.1,18-41.7,41.2-54.1,67.6
		l-0.9-12.1c-2.3-30.4-12.6-59.8-29.7-85.1l-0.1-0.2C269.9,5.4,263,1.6,255.3,1.2l-0.1,0c-7.7-0.3-14.9,2.9-19.7,8.9
		C215.9,34,203,62.7,198,93.2l-1.8,11.4C186,77.3,169.5,52.6,148,32.7c-5.9-5.4-13.7-7.7-21.5-6.2c-7.8,1.5-14.3,6.4-17.9,13.6
		l-0.1,0.2c-14.2,29-20.6,61.4-18.6,93.7l3.5,54.9c1.8,28.4,8.9,55.7,21.2,81.4l12.3,25.7c8.1,17,25,27.7,43.3,28.5
		c3.7,0.2,7.4-0.1,11.2-0.8c21.5-4,38-21.5,40.8-43c6.3,3.5,13.4,5.5,20.9,5.8c7.5,0.3,14.7-1.1,21.3-4c0.9,21.7,15.9,40.6,37,46.3
		c21.8,6,45.1-3.5,56.6-23l14.5-24.6c14.4-24.5,23.8-51.2,28-79.3l8.1-54.4C413.2,115.5,409.6,82.7,397.9,52.6z M263,38.9
		c9.9,18.5,15.9,39,17.5,60.1l3.9,51.6c1.8,23.7-0.9,47.2-8.1,69.8l-8.1,25.6c-0.3,1.1-0.8,2.1-1.3,3.1l-1,1.8
		c-3.4,5.7-8.8,9.7-14.9,11.3c-0.2,0.1-0.4,0.1-0.6,0.2c-0.3,0.1-0.6,0.1-1,0.2c-0.3,0.1-0.6,0.1-0.9,0.2c-0.3,0-0.5,0.1-0.8,0.1
		c-0.4,0-0.8,0.1-1.2,0.1c-0.2,0-0.4,0-0.7,0c-0.6,0-1.2,0-1.9,0c-0.6,0-1.2-0.1-1.9-0.2c-0.2,0-0.4-0.1-0.7-0.1
		c-0.4-0.1-0.8-0.1-1.2-0.2c-0.3-0.1-0.5-0.1-0.8-0.2c-0.3-0.1-0.6-0.2-0.9-0.2c-0.3-0.1-0.6-0.2-0.9-0.3c-0.2-0.1-0.4-0.1-0.6-0.2
		c-6-2.1-11.1-6.5-13.9-12.5l-0.9-1.8c-0.4-1-0.7-2.1-1-3.2l-5.9-26.2c-5.3-23.2-6-46.8-2.2-70.3l8.2-50.5
		c3.4-21.2,11.4-41.4,23.1-59.3l0.9-1.3c4.1-5.8,12.8-5.4,16.5,0.6L263,38.9z M142.7,60.9C158.3,78.3,170,99,177,121.4l20.4,66.1
		c4.6,14.8,6.3,30.4,5,45.9l-3.6,43.1c-1,12-9.9,21.8-21.7,24c-11.8,2.2-23.7-3.9-28.8-14.7L135.9,260c-11-22.9-17.3-47.3-18.9-72.6
		l-3.5-54.9c-1.5-23.2,2.1-46.4,10.3-68.1l0,0C126.8,56.6,137,54.8,142.7,60.9L142.7,60.9z M381.2,77.3c5.9,21.6,7.3,44.4,3.9,66.6
		l-8.1,54.4c-3.7,25.1-12.1,48.9-25,70.8l-14.5,24.6c-6.1,10.3-18.4,15.4-30,12.2c-11.6-3.2-19.6-13.7-19.6-25.7l0-43.3
		c0-15.5,3-30.9,8.8-45.3l25.9-64.1c8.7-21.5,22-40.9,38.7-56.9v0c6.8-5.8,17.2-2.5,19.5,6.1L381.2,77.3z"/>
	<path class="st3" d="M366.9,295.2c-3.5-3.4-14.4-0.2-18.3-3c-5.3-3.9-7.7-17.6-13.6-20.3c-5.2-2.4-13.9,6-19.4,4.5
		c-5.8-1.6-8.4-13-14.4-13.6c-5.5-0.5-14.3,9.9-19.8,10.3c-3,0.2-6.4-2.1-9.8-4l12.9-27.5c-3.9-2.4-10.4,2.3-13.9,0.5
		c-4.2-2.1-8.2-10.5-12.1-11.7c-4.6-1.4-8.9,4.6-13.3,4.5c-3.8-0.2-7.7-6.7-11.6-6c-5,0.9-10.1,9.4-15.7,11.7
		c-3.3,1.3-8.9-4-12.5-2.2l10.8,28.3c-3.7,1.7-7.5,3.9-10.5,3.4c-5.5-0.9-13.4-11.9-18.9-11.9c-6,0-9.6,11.2-15.4,12.3
		c-5.6,1-13.5-8.1-18.9-6.1c-6.1,2.2-9.6,15.7-15.3,19.1c-4.1,2.5-14.7-1.6-18.4,1.5l53.2,60.1c7.5,32.4,22.9,83.8,52.4,128.2
		c2.5,3.8,6.6,5.9,10.8,6.1c2.8,0.1,5.6-0.6,8.1-2.3c1.9-1.2,3.3-2.9,4.3-4.8c32.3-41.5,51.6-90.6,61.7-121.7L366.9,295.2z
		 M228.2,364.1c-0.7,12.4-1.6,25.4-2.6,39c-0.3,4.6-0.7,9.3-1,13.9c-13.5-29.9-21.8-59.4-26.5-80l22-60.4l9.9,25.9
		C229.8,320.1,229.3,343,228.2,364.1z M252.7,405.1c1-13.8,2-27,2.7-39.5c1.2-22.7,1.6-47.5,1.8-65.6l9.7-20.6l16.7,61.5
		c-6.2,19.4-16.5,46.7-31.5,74.2C252.2,411.8,252.4,408.4,252.7,405.1z"/>
	<path class="st4" d="M206.9,242.7C206.9,242.7,206.9,242.7,206.9,242.7L206.9,242.7z"/>
	<path class="st4" d="M128.6,279.9L128.6,279.9c-5.8-0.5-10.8-4-13.3-9.2l-0.7-1.4c-0.6-1.2-1.1-2.4-1.7-3.6
		c-2.3,0.9-4.6,2.1-6.7,3.9c-4.1,3.4-6.7,8.3-7.1,13.7c-0.4,5.3,1.3,10.6,4.9,14.6l37,41.7c8.2,9.3,14.2,20.3,17.5,32.2
		c9.4,33.6,24.8,75,49.4,112.2c5.9,8.8,15.7,14.4,26.3,14.8c7.1,0.3,13.9-1.6,19.8-5.5c3.9-2.6,7.2-6,9.7-10.1
		c27.4-35.5,45.9-75.9,57.7-108.2c3.4-9.2,8.8-17.6,15.9-24.4l43.1-41.1c3.9-3.7,6.1-8.8,6.1-14.2c0-5.4-2.1-10.5-6-14.2
		c-2-1.9-4.1-3.3-6.2-4.4c-0.6,1.1-1.3,2.3-2,3.4l-0.8,1.3c-2.9,5-8.2,8-14,8.1l-0.3,0l0,0c-4.7-0.4-8.7-3.2-10.7-7.4
		c-0.2-0.4-0.4-0.9-0.6-1.3c-2.4-5.1-4.9-10.4-9.3-12.5c-4.4-2-9.1,0.2-13.3,2.1c-2.3,1.1-5.4,2.5-6.7,2.2c-1.3-0.4-3.1-3-4.6-5.2
		c-2.6-3.8-5.5-8.1-10.4-8.5c-4.4-0.4-8.6,2.7-13.1,5.9c-2.5,1.8-5.8,4.2-7.4,4.3c-0.1,0-0.2,0-0.3,0c-2.3-0.2-3.6-2.8-2.6-4.9
		l9.9-21.1c0.8-1.8,0.3-3.9-1.4-4.9c-3.5-2.3-7.5-1.2-10.7-0.4c-0.2,0-0.3,0.1-0.5,0.1c-2.1,0.5-4.2-0.2-5.6-1.8
		c-0.7-0.8-1.5-1.7-2.1-2.6c-2.5-3.2-4.9-6.1-8-7.1c-4.2-1.3-7.7,0.8-10.5,2.5c-0.1,0.1-0.2,0.1-0.3,0.2c-2,1.2-4.6,1-6.5-0.5
		c0,0,0,0-0.1-0.1c-2.5-2-5.6-4.6-9.5-3.8c-3.8,0.7-7,3.8-10.1,6.8c-1.1,1.1-2.3,2.2-3.4,3.2c-1.6,1.3-3.8,1.6-5.8,0.8l0,0
		c-2.9-1.2-6.4-2.7-9.9-1c-1.8,0.9-2.8,3.2-2,5.1l8.3,21.7c0.8,2.2-0.7,4.6-3,4.7c-0.2,0-0.4,0-0.7,0c-1.5-0.1-4.7-2.9-7-4.9
		c-4.2-3.6-8.2-7.1-12.6-7c-5,0-8.3,4.1-11.1,7.6c-1.6,2-3.6,4.5-5,4.8c-1.3,0.2-4.3-1.5-6.4-2.7c-4-2.3-8.6-4.9-13.1-3.2
		c-4.6,1.7-7.5,6.8-10.4,11.7c-0.2,0.4-0.5,0.8-0.7,1.3C137.6,277.5,133.3,279.9,128.6,279.9L128.6,279.9z M201,363.9
		c3.5,12,7.9,25.4,13.4,39.3c3.9,9.9,5.7,20.6,5,31.2c-0.2,2.5-0.3,4.9-0.5,7.4c-0.2,4-5.7,5.2-7.5,1.6c-14-27-23.8-54.8-30.3-78.4
		c-4-14.4-11.1-27.8-20.8-39.2l-27.5-32.3c-1.8-2.1-0.5-5.3,2.2-5.6c1.5-0.2,2.9-0.6,4.1-1.3c3.5-2.1,6-6.4,8.4-10.6
		c1.9-3.3,4.3-7.5,6.2-8.2c1.1-0.4,4.5,1.5,6.5,2.7c3.8,2.2,7.7,4.4,11.8,3.6c4.2-0.8,7.2-4.4,9.7-7.6c1.6-2,3.8-4.7,5-4.7
		c0,0,0,0,0,0c1.5,0.1,5.1,3.2,7.4,5.1c3.7,3.2,7.2,6.1,10.8,6.7c1.9,0.3,3.8,0,5.7-0.6c1.9-0.6,3.9,0.3,4.6,2.2h0
		c0.3,0.8,0.3,1.7,0,2.6l-13,36.9C196.8,330.6,196.3,347.8,201,363.9z M253.9,235.4c1.9-1.1,4.4-0.7,5.9,1c0.6,0.8,1.3,1.6,1.8,2.2
		c2.2,2.8,4.4,5.8,7.3,7c1.9,0.8,3.7,1,5.2,0.9c1.8-0.1,3,1.7,2.3,3.3l-16.2,35c-4.6,9.9-7,20.6-7.2,31.5c-0.2,15-0.7,32.6-1.6,49
		c-0.7,12.8-1.7,26.4-2.7,39.5l0,0.5c-1.4,19-2.9,38.6-3.8,60.1c-0.2,5.1-4.3,9.5-9.4,9.6c-5.6,0.1-10.1-4.5-9.9-10
		c0.9-22.1,2.4-42.1,3.9-61.6c1-12.9,2-26.3,2.6-39.1c0.8-15.7,1.3-32.5,1.5-46.7c0.2-9.8-1.5-19.6-5-28.8l-15.5-41.1
		c-0.6-1.7,0.7-3.4,2.5-3.1c1.2,0.2,2.5,0.1,3.7-0.4c3.4-1.4,6.2-4.1,8.9-6.7c0.8-0.8,1.7-1.7,2.6-2.5c1.8-1.6,4.5-1.6,6.3-0.1
		l0.1,0.1c2.1,1.8,4.6,3.7,7.6,3.9c0,0,0,0,0,0c3.2,0.1,5.9-1.5,8.2-2.9C253.2,235.8,253.5,235.7,253.9,235.4z M297.3,372
		c-8.5,22.4-20.2,48.4-36,73.3c-2.2,3.5-7.6,1.8-7.4-2.4c0.2-4,0.5-7.9,0.8-11.7c0.6-9.3,3.1-18.5,7.3-26.9
		c5.9-11.9,11-23.5,15.1-34.2c6.8-17.3,7.9-36.3,3.2-54.2l-9.1-34.9c-0.2-0.8-0.1-1.7,0.2-2.5l0.2-0.5c0.8-1.8,2.9-2.6,4.7-1.9
		c1.7,0.7,3.5,1.1,5.3,1c3.7-0.3,7.4-3,11.4-5.8c2.4-1.7,6.3-4.5,7.8-4.5c0,0,0,0,0,0c1.3,0.1,3.2,3,4.6,5.1c2.3,3.4,4.9,7.2,9,8.3
		c4,1.1,8.1-0.8,12-2.6c2.1-1,5.6-2.6,6.7-2.1c1.9,0.9,3.9,5.2,5.5,8.7c2,4.3,4.1,8.8,7.4,11.2c1.2,0.8,2.5,1.3,4,1.6
		c2.7,0.5,3.6,3.8,1.7,5.7l-27.6,27.4C312.5,342,303.3,356.3,297.3,372z"/>
	<path class="st9" d="M234.9,154.8c-0.1,0-0.2,0-0.4,0c-2.2-0.3-3.7-2.3-3.4-4.4l2.1-15.4c0.3-2.2,2.3-3.7,4.4-3.4
		c2.2,0.3,3.7,2.3,3.4,4.4l-2.1,15.4C238.6,153.4,236.9,154.9,234.9,154.8z"/>
	<path class="st9" d="M240.1,116.9c-0.1,0-0.3,0-0.4,0c-2.2-0.3-3.6-2.3-3.3-4.5c0.4-2.4,0.7-4.7,1.1-7.1c1.1-6.4,2.2-12.7,3.5-18.8
		c0.4-2.1,2.5-3.5,4.7-3.1c2.1,0.4,3.5,2.5,3.1,4.7c-1.2,6-2.4,12.2-3.4,18.5c-0.4,2.3-0.8,4.6-1.1,7
		C243.9,115.5,242.1,117,240.1,116.9z"/>
	
		<ellipse transform="matrix(4.223643e-02 -0.9991 0.9991 4.223643e-02 218.0687 461.0639)" class="st9" cx="349.5" cy="116.8" rx="3.9" ry="3.9"/>
	<path class="st67" d="M284.6,381.7c-0.5,0-0.9-0.1-1.4-0.3c-2-0.9-2.9-3.2-2-5.2c3-6.9,5.9-14.1,8.7-21.4c0.8-2,3.1-3,5.1-2.3
		c2,0.8,3,3.1,2.3,5.1c-2.8,7.4-5.8,14.7-8.9,21.7C287.7,380.9,286.2,381.8,284.6,381.7z"/>
	<path class="st67" d="M202.4,402.6c-1.5-0.1-3-1-3.5-2.6c-1-2.7-2-5.5-3-8.3c-0.7-2.1,0.4-4.3,2.4-5c2.1-0.7,4.3,0.4,5,2.4
		c1,2.8,2,5.5,3,8.2c0.8,2-0.3,4.3-2.3,5.1C203.4,402.5,202.9,402.6,202.4,402.6z"/>
	<path class="st67" d="M193.7,376.9c-1.6-0.1-3.1-1.1-3.6-2.8c-3.3-10.9-6.4-22.1-9.1-33.5c-0.5-2.1,0.8-4.2,2.9-4.7
		c2.1-0.5,4.2,0.8,4.7,2.9c2.6,11.2,5.6,22.3,8.9,33c0.6,2.1-0.5,4.3-2.6,4.9C194.5,376.8,194.1,376.9,193.7,376.9z"/>
	<path class="st67" d="M243.2,318.9c-2.1-0.1-3.8-1.9-3.8-4c0-2.7,0.1-5.4,0.1-8l0.1-6c0-2.2,1.8-3.9,4-3.9c2.2,0,3.9,1.8,3.9,4
		l-0.1,6c0,2.6-0.1,5.3-0.1,8c0,2.2-1.8,3.9-4,3.9C243.2,318.9,243.2,318.9,243.2,318.9z"/>
</g>
</svg>
