<?xml version="1.0" encoding="utf-8"?>
<!-- Generator: Adobe Illustrator 20.0.0, SVG Export Plug-In . SVG Version: 6.00 Build 0)  -->
<svg version="1.1" id="Layer_1" xmlns="http://www.w3.org/2000/svg" xmlns:xlink="http://www.w3.org/1999/xlink" x="0px" y="0px"
	 viewBox="0 0 500 500" style="enable-background:new 0 0 500 500;" xml:space="preserve">
<style type="text/css">
	.st0{display:none;fill:#D1A982;}
	.st1{fill:#00FFFF;}
	.st2{clip-path:url(#SVGID_2_);}
	.st3{fill:#669635;stroke:#5F0A38;stroke-width:6;stroke-linecap:round;stroke-linejoin:round;stroke-miterlimit:10;}
	.st4{fill:none;stroke:#2F5B04;stroke-miterlimit:10;}
	.st5{fill:#669635;stroke:#2F5B04;stroke-linecap:round;stroke-linejoin:round;stroke-miterlimit:10;}
	.st6{fill:#998004;stroke:#998004;stroke-width:6;stroke-linejoin:round;stroke-miterlimit:10;}
	.st7{fill:none;stroke:#7CA440;stroke-width:2;stroke-linecap:round;stroke-linejoin:round;stroke-miterlimit:10;}
	.st8{fill:#DCCB0D;}
	.st9{fill:#E0E6FF;}
	.st10{fill:#E5C403;}
	.st11{fill:#998004;}
	.st12{fill:none;stroke:#528B16;stroke-linecap:round;stroke-miterlimit:10;}
	.st13{fill:#EEF2FF;stroke:#AFADA7;stroke-miterlimit:10;}
	.st14{fill:#E5C403;stroke:#998004;stroke-miterlimit:10;}
	.st15{opacity:0.4;fill:none;stroke:#7CA440;stroke-miterlimit:10;}
	.st16{opacity:0.3;fill:none;stroke:#7CA440;stroke-miterlimit:10;}
	.st17{opacity:0.2;fill:none;stroke:#7CA440;stroke-miterlimit:10;}
	.st18{opacity:0.1;fill:none;stroke:#7CA440;stroke-miterlimit:10;}
	.st19{fill:#528B16;}
	.st20{fill:none;stroke:#FFFFFF;stroke-linecap:round;stroke-miterlimit:10;}
	.st21{fill:#FFFFFF;}
	.st22{fill:#7C710D;}
	.st23{fill:#7CA440;}
	.st24{fill:#BBB630;}
	.st25{fill:#C5B92E;}
	.st26{fill:#CFBD2D;}
	.st27{fill:#DAC02C;}
	.st28{fill:#EEF2FF;}
	.st29{fill:#AFADA7;}
	.st30{fill:#5ABC18;}
	.st31{fill:#1C6600;}
	.st32{fill:#5ABC18;stroke:#1C6600;stroke-linecap:round;stroke-linejoin:round;stroke-miterlimit:10;}
	.st33{fill:none;stroke:#FFFFFF;stroke-linecap:round;stroke-linejoin:round;stroke-miterlimit:10;}
	.st34{fill:#7FBA19;}
	.st35{fill:#426807;}
	.st36{fill:#FFFDFE;}
	.st37{fill:#E8C5D2;stroke:#5F0A38;stroke-linecap:round;stroke-linejoin:round;stroke-miterlimit:10;}
	.st38{fill:#DB5E8B;}
	.st39{fill:#5F0A38;}
	.st40{fill:#628855;}
	.st41{opacity:0.1;fill:#B2496B;}
	.st42{fill:none;stroke:#628855;stroke-miterlimit:10;}
	.st43{fill:none;stroke:#2F5B04;stroke-width:2;stroke-linecap:round;stroke-miterlimit:10;}
	.st44{fill:none;stroke:#669635;stroke-linecap:round;stroke-miterlimit:10;}
	.st45{fill:#2F5B04;}
	.st46{fill:none;stroke:#2F5B04;stroke-linecap:round;stroke-linejoin:round;stroke-miterlimit:10;}
	.st47{fill:none;stroke:#FFFFFF;stroke-width:0.4894;stroke-linecap:round;stroke-linejoin:round;stroke-miterlimit:10;}
	.st48{opacity:0.7;fill:none;stroke:#FFFFFF;stroke-linecap:round;stroke-linejoin:round;stroke-miterlimit:10;}
	.st49{fill:#669635;}
	.st50{fill:#E8C5D2;}
	.st51{fill:#F9EFF3;}
	.st52{fill:none;stroke:#000000;stroke-miterlimit:10;}
	.st53{fill:#709335;stroke:#384B1D;stroke-miterlimit:10;}
	.st54{fill:#709335;stroke:#384B1D;stroke-width:6;stroke-linecap:round;stroke-linejoin:round;stroke-miterlimit:10;}
	.st55{fill:#B2C172;}
	.st56{fill:none;stroke:#B2C172;stroke-linecap:round;stroke-linejoin:round;stroke-miterlimit:10;}
	.st57{fill:#FCED00;}
	.st58{fill:#8E8300;}
	.st59{fill:#709335;}
	.st60{fill:none;stroke:#709335;stroke-width:2;stroke-linecap:round;stroke-linejoin:round;stroke-miterlimit:10;}
	.st61{fill:none;stroke:#B2C172;stroke-linecap:round;stroke-miterlimit:10;}
	.st62{fill:none;stroke:#709335;stroke-width:2;stroke-miterlimit:10;}
	.st63{opacity:0.5;fill:#B2C172;}
	.st64{opacity:0.6;fill:#709335;}
	.st65{opacity:0.8;fill:none;stroke:#FFFFFF;stroke-linecap:round;stroke-miterlimit:10;}
	.st66{fill:#384B1D;}
	.st67{fill:#98AE5F;}
	.st68{fill:#8BA452;}
	.st69{fill:#C6D3AF;}
</style>
<path class="st49" d="M431,279.5c18.5-20.1,35.3-51.7,35.3-51.7s-35.8,5.8-60.8,17.1l-1.3-35.4c-12,9.6-22.9,19-33,28.2l0.9-35.2
	c-14.3,12.4-26.6,24.8-37.1,37l-1.5-40.1c-51.4,50.1-60.9,113.1-41.2,146.9c-8.5,4.9-17.8,9.2-27.9,12.3
	c-5.4-50.1-5-116.9,12.3-198.7c18.5-0.2,35.4-6.1,48-12.2c9.3,11.2,33.7,15.3,67.3,3.2l-17.1-5.8c7.7-2.4,16.2-5.5,25.3-9.4
	l-14.7-4.4c6.2-2.6,12.7-5.5,19.8-8.8l-13.5-5.6c10.5-8,21.4-20.8,21.4-20.8s-16.9,2.1-29.4,6.5l3.1-14.4
	c-6.4,3.8-12.4,7.6-17.9,11.2l4.1-14.3c-7.8,4.9-14.7,9.9-20.7,14.8l3.5-16.3c-27.1,19-38.2,43-34.6,57.3
	c-11.4,5.4-26.5,10.8-42.7,11.4c3.6-16.4,8-33.4,13.1-50.9c4.5,1.3,11,0,19.5-5.2c8.1-5,14.6-14.5,18.3-20.9
	c1.7-2.8-0.5-6.4-3.8-6.2c-3.6,0.2-8.2,0.7-12.9,1.8c5.2-16.1,2.4-37.1,1-44.8c-0.3-1.4-1.9-2-3-1.1c-6.3,4.9-22.9,18.9-29.5,34.7
	c-3-3.8-6.2-7.1-8.9-9.6c-2.4-2.3-6.4-0.9-6.9,2.4c-1.2,7.3-2.2,18.8,0.9,27.8c3,8.8,6.9,13.8,10.8,16
	c-20.4,70.1-29.1,131.2-31,182.6c-29.2-18.6-50.1-43.7-60.3-57.5c6.9-0.3,15.2-5.6,23.9-18c8.1-11.5,11.3-28.4,12.5-38.9
	c0.5-4.3-4-7.5-7.9-5.5c-1.1,0.5-2.3,1.1-3.5,1.8c3.5-3.4,6.8-7.3,9.6-11.7c8.6-13.5,10.6-26.5,0.9-31.3c10.1-12.9,12.2-24.1,7.9-31
	c-1.9-3-4.7-4.8-8.4-5.4c-5.5-0.9-9.4-4.5-10.7-9.9c-0.9-3.7-3-6.4-6.1-8c-4.5-2.3-10.4-1.9-17.1,1.2c-4-11.1-11.8-17.6-21.3-19.1
	c-5-0.8-9.9,0-14.5,2.2c-6.7,3.3-14.6,3.6-21.5,0.7c-4.7-1.9-9.7-2.3-14.6-1.2c-9.8,2.2-17.6,9.8-20.4,22.3
	c-12.2-3.9-22.7-1.1-29.6,6.4c-3.4,3.7-5.6,8.2-6.3,13.2c-1,7.4-5.2,14-11.5,18.2c-4.2,2.8-7.4,6.7-9.2,11.4c-3.6,8.9-2,19,5.6,28.1
	c-6.1,4.2-9.4,9.1-9.7,14.1c-0.2,3.5,1.1,6.7,3.8,9.3c4,3.9,5.1,9.1,3.1,14.3c-1.4,3.5-1.2,6.9,0.4,10c3.7,7.2,14.5,11.1,30.7,8.9
	c-0.8,10.8,11.5,15.7,27.5,15.1c5.2-0.2,10.2-1,14.9-2.3c-0.9,0.5-1.8,1.1-2.6,1.6c-4,2.6-3.5,8.6,0.9,10.5c9.8,4.2,25.4,9.7,39,8.5
	c15-1.2,23.8-5.7,27.6-11.4c10.7,14.8,33.6,42.5,66.7,62.4c-2.7,116.2,28.7,180.4,30.6,184.3c1.4,2.7,4.1,4.2,6.9,4.2
	c1.2,0,2.3-0.3,3.5-0.8c3.8-1.9,5.3-6.5,3.4-10.3c-0.3-0.7-17-35-24.8-98.3c11.4-3.3,21.8-8.2,31.3-13.6
	c24.3,30.9,82.7,43.1,154,10.1l-40.8-13.5c15.6-6.2,32.4-14.1,50.3-24.1l-34.7-10.2c12.1-6.7,24.8-14.1,38.4-22.4L431,279.5z"/>
<path class="st39" d="M60.9,230.7c-2.8-2.7-6.3-4.5-10.1-5.2c-18.9-3.5-27.1-15-30.2-20.9c-2.6-5-3.9-10.3-3.9-15.7
	c0-4.8-1-9.4-3-13.8c-2.2-4.9-3.2-10.3-2.9-15.9c0.2-3,0.7-6,1.6-8.8c1.6-5.1,2-10.4,1.3-15.7c-1.3-8.4-0.3-17,2.9-25.1
	c3.1-7.6,7.9-14.2,14.2-19.3c3-2.4,5.1-5.8,6-9.5c1.9-7.8,5.8-15,11.4-21c6.4-7,14.5-11.7,23.3-13.9c5.7-1.4,10.9-4.4,15-8.6
	c6.4-6.5,14.5-11,23.7-13c9.6-2.1,19.4-1.2,28.3,2.4c0.8,0.3,1.7,0.3,2.5-0.1c8.7-4.3,18.4-5.8,28.1-4.3c8.6,1.3,16.4,4.8,22.9,10.1
	c4.2,3.4,9.1,5.7,14.3,6.9c2.9,0.7,5.7,1.7,8.4,3.1c6.5,3.4,11.6,8.5,14.8,14.8c0.7,1.4,1.9,2.4,3.3,3l0.1,0c4,1.7,8.4-1,8.8-5.3
	c0.2-1.9,0.4-3.8,0.7-5.7c1.4-9.4,7.2-17.6,15.8-21.5c3.1-1.4,6.4-2.2,9.6-2.4c5.3-0.3,10.3-2.6,14-6.3c5.4-5.4,10.6-9.8,14.6-12.9
	c6.9-5.3,16.1-6.7,24.2-3.6c8.1,3.1,14.1,10.4,15.6,18.9c0.7,3.9,1.6,10.2,2.1,17.6c0.3,5.4,2.7,10.5,6.6,14.4
	c1.5,1.5,2.8,3.1,3.9,4.9l0,0c0.8,1.3,2.3,2,3.8,1.8c4.2-0.6,8.6,0,12.5,1.8c0.7,0.3,1.5,0.4,2.3,0.2c5.1-1.3,10.5-0.8,15.3,1.5
	c1.4,0.6,2.9,1,4.4,1c4.7,0,9.3,1.5,13.2,4.3c0.6,0.4,1.2,0.9,1.7,1.4c2.2,1.9,5,2.9,7.8,2.5c0.2,0,0.3,0,0.4-0.1
	c9.4-1.2,18.6,3.6,23.1,12c4.5,8.4,3.4,18.7-2.8,25.9c0,0-0.1,0.1-0.1,0.1c-2,2.3-2.8,5.3-2.4,8.3c0.1,0.8,0.2,1.5,0.2,2.3
	c0.1,4.4-1,8.6-3.1,12.2c-1.1,1.9-1.9,3.9-2.3,6.1c-0.7,3.7-2.3,7.1-4.7,10c-1.8,2.3-3.3,4.8-4.2,7.6c-2.1,6.8-7.3,12.4-14.2,14.9
	c-6,2.2-11.9,3.9-17.6,5.2c-1.8,0.4-2.1,2.9-0.4,3.7l0.1,0c2.7,1.3,5,3,7,5.1c1.7,1.8,4.4,2.3,6.7,1.4c6.7-2.7,14.4-2.1,20.9,1.9
	c6.6,4.1,10.5,11.4,10.8,19.2v0c0.1,1.9,1.9,3.3,3.8,2.8c16.8-4.4,30.6-6.7,31.5-6.9c8.6-1.4,17.3,2.2,22.4,9.3
	c5.1,7.1,5.7,16.5,1.6,24.2c-0.4,0.8-6.9,13-16.4,27.4c-1.2,1.8-0.4,4.2,1.5,4.9l0,0c6.8,2.7,12.2,8.3,14.2,15.3
	c2.3,8.4-0.2,17-6,22.7c-1,1-1.2,2.5-0.5,3.7c2.4,3.7,3.7,8,3.7,12.7c0,8.5-4.9,16.2-12.4,20.3l-0.1,0.1c-1.5,0.8-1.9,2.8-1,4.3
	c2.2,3.4,3.6,7.3,3.9,11.5c0.5,9.4-4.7,18.3-13.3,22.2c-61.9,28.7-114.3,26.4-149.5,8.9c-8.3-4.1-17.6,3.1-15.6,12.1
	c7.1,31.7,15.1,48.9,15.5,49.7c7.5,15.1,1.4,33.6-13.7,41.1c-4.3,2.2-9.1,3.3-13.8,3.3c-11.7,0-22.2-6.5-27.4-16.9
	c-3.4-6.6-30.3-63-33-164c-0.3-11.2-5.5-21.7-14.2-28.8c-7.8-6.3-14.9-12.8-21.1-19.1c-8.3-8.3-19.8-12.3-31.5-11.1
	c-0.8,0.1-1.7,0.2-2.5,0.2c-18.1,1.5-37.2-4.8-50.1-10.3c-2.1-0.9-4.1-2-5.9-3.4c-3.4-2.5-7.5-4-11.7-4.1
	C73.7,241.1,65.4,235.1,60.9,230.7z M269.2,474.5c0.1,0.1,0.1,0.3,0.2,0.4l0,0C269.4,474.9,269.3,474.7,269.2,474.5z M159.8,212.1
	C159.8,212.1,159.8,212.1,159.8,212.1C159.8,212.1,159.8,212.1,159.8,212.1z M184.8,197.9C184.8,197.9,184.8,197.9,184.8,197.9
	C184.8,197.9,184.8,197.9,184.8,197.9z"/>
<path class="st50" d="M155.7,88.8c7.3-10.6,15.1-18.8,22.7-24.1c2.1-1.5,2.7-4.4,1.2-6.5c0,0,0,0,0,0C176,53,170.9,49.9,165,49
	c-4.3-0.6-8.4,0-12.1,1.8c-7.7,3.8-16.6,4.3-24.5,1c-2.6-1.1-5.3-1.7-8-1.7c-1.5,0-3,0.2-4.6,0.5c-5.8,1.3-10.6,4.7-13.8,9.9
	c-5.4,8.7-6.3,21.9-2.5,37.2v0c6.4,25.9,20,39.7,30.7,46.7c2.3,1,4.5,2.1,6.7,3.3C135.4,136.9,136.6,116.5,155.7,88.8z"/>
<path class="st51" d="M135.9,94.5c-0.4-2.2-2.5-3.6-4.7-3.1c-2,0.5-3.2,2.6-2.9,4.6l3.8,21c0.4,2.1-2.5,3.1-3.5,1.3l-6.9-12.2
	c-1.1-1.9-3.5-2.5-5.4-1.3c-1.8,1.1-2.2,3.5-1.2,5.3l21.1,37.2c0.3-0.1,0.2-0.1,0.5-0.2c-0.8-6.4-0.7-16.1,3.5-28.5L135.9,94.5z"/>
<path class="st50" d="M41.9,136.9c1.1,2.4,3.9,3.3,6.2,2.3c8.4-3.8,19.4-6.4,32.3-7.3c6.7-0.5,12.8-0.5,18.3-0.1
	c3.2,0.2,5.3-3.2,3.7-6c-4.2-7.1-7.8-15.8-10.4-26.1c-2.3-9.2-2.9-17-2.4-23.4c0.2-2.6-1.8-4.8-4.4-5c-0.4,0-0.8,0-1.2,0
	c-0.2,0-0.4,0-0.7,0c-6.1,0.2-11.5,2.5-15.5,6.9c-2.9,3.2-4.7,6.9-5.3,11.1c-1.2,8.6-6,16.1-13.2,20.8c-3.5,2.3-6.2,5.6-7.8,9.6
	C39.2,125.2,39.4,131.2,41.9,136.9C41.9,136.9,41.9,136.9,41.9,136.9z"/>
<path class="st50" d="M69.4,196.1c9.7-24.8,50.2-34,51.9-34.4c0.3-0.1,0.6-0.1,0.9-0.1c0.4,0,2.9,0,6.7,0.3
	c4.7,0.4,9.2-2.4,10.8-6.9l0-0.1c-1.6-1.8-5.2-5.1-11.4-8.2c-8.4-4.2-23.4-8.9-47.3-7.2c-20.5,1.5-42.8,8.7-43.4,21.1
	c-0.1,2.4,0.7,4.5,2.6,6.3c5,4.8,6.5,12,4,18.4c-1,2.4-0.9,4.7,0.2,6.8c2.4,4.6,9.2,7.8,19.9,7.5C66.6,199.7,68.6,198.3,69.4,196.1
	L69.4,196.1z"/>
<path class="st49" d="M177.1,218c-2.3-2.2-4.4-4.6-6.1-7.1c-3.9,1.9-8.6,3.4-14.1,4.4c-6,1.1-11.8,1.5-17.4,1.1
	c-7.4-0.5-15.8,0.4-22.9,2.6c-2.4,0.7-5,1.3-7.6,1.8c-0.7,2.7,0.5,5.7,3.4,6.9c9.8,4.2,25.4,9.7,39,8.5c18.1-1.5,27.3-7.6,29.4-15
	C179.6,220.2,178.3,219.1,177.1,218z"/>
<path class="st49" d="M218.2,158.1c-1.8,2.2-3.7,4.2-5.7,6c-5.4,5.1-10.5,11.8-13.8,18.4c-2.5,5-5.8,9.9-9.8,14.5
	c-4.9,5.6-9.8,9.6-14.6,12.1c1.7,3.2,3.1,6.6,4.1,10.1c7.7,4.8,19.1,1,31.2-16.2c8.1-11.5,11.3-28.4,12.5-38.9
	C222.5,161.1,220.7,158.7,218.2,158.1z"/>
<path class="st50" d="M226,88.3c-1.3-2.1-3.2-3.3-5.8-3.7c-6.8-1.1-12.2-6.1-13.9-12.8c-0.6-2.6-2-4.3-4.1-5.5
	c-11-5.7-28.5,9.8-40.2,26.7c-16,23.2-18.4,40.4-17.8,50.3c1.5-1.1,3.5-1.9,6-1.9c3.3,0,5.8,1.3,7.5,3.2c1.4-2.8,2.4-4.6,2.6-4.9
	c0.1-0.2,0.3-0.5,0.5-0.7c1.2-1.3,29.7-31.5,55.9-27.3l0,0c2.2,0.4,4.4-0.6,5.6-2.5C228,100.2,228.7,92.7,226,88.3z"/>
<path class="st50" d="M149.7,201.1c-3.9-8.6-3.7-18.7-1.9-28.2c-1.4-0.4-2.8-0.7-4.2-1c-10.1-2.2-19-2.5-21-2.5
	c-4.2,1-38.3,9.8-46,29.6c-1.5,3.8-1.4,6.8,0.2,9.1c3,4.2,11.3,6.5,22.2,6.1c5.6-0.2,11-1.1,15.9-2.6c8.1-2.5,16.5-3.3,25-2.7
	c1.7,0.1,3.4,0.2,5.1,0.1C148.9,208.7,151.3,204.7,149.7,201.1C149.7,201.1,149.7,201.1,149.7,201.1z"/>
<path class="st50" d="M156.7,197.9c1.7,3.7,3.8,5.7,6.6,6.1c5.1,0.7,12.7-3.9,19.8-12.1c3.6-4.1,6.5-8.4,8.7-12.9
	c3.7-7.4,9.4-14.9,15.5-20.6c3.6-3.4,7-7.4,9.9-12c5.9-9.2,8.1-17.5,6-22.3c-1.2-2.6-3.7-4.1-7.7-4.8c-11.4-1.8-24,5-32.6,11
	c-8.5,5.9-14.7,12.2-16.1,13.7C164.6,147.8,148,178.9,156.7,197.9z"/>
<path class="st51" d="M185.3,109.6c-1.7-1.5-4.2-1.2-5.6,0.5l-14.3,18c-1.2,1.5-3.5,0.2-2.9-1.6l5-14.5c0.7-2-0.4-4.2-2.4-4.9
	c-2-0.7-4.2,0.4-4.9,2.4l-11.2,32.2c1-0.3,2.1-0.5,3.3-0.5c2.5,0,4.5,0.7,6.1,1.9l0.5-1c0.7-1.3,1.1-2,1.2-2.2
	c0.1-0.2,0.3-0.5,0.5-0.7c0.6-0.6,7.6-8.1,17.7-15.1l7.2-9C186.9,113.4,186.9,110.9,185.3,109.6z"/>
<path class="st51" d="M139.7,154.9c-1-1-2.6-2.6-5-4.4l-38-0.6c0,0,0,0-0.1,0c-2.1,0-3.8,1.7-3.8,3.8c0,2.1,1.7,3.9,3.8,3.9
	l41.7,0.7C138.9,156.9,139.4,155.8,139.7,154.9z"/>
<path class="st49" d="M409.8,349.2c15.6-6.2,32.4-14.1,50.3-24.1l-34.7-10.2c12.1-6.7,24.8-14.1,38.4-22.4l-32.8-13
	c18.5-20.1,35.3-51.7,35.3-51.7s-35.8,5.8-60.8,17.1l-1.3-35.4c-12,9.6-22.9,19-33,28.2l0.9-35.2c-14.3,12.4-26.6,24.8-37.1,37
	l-1.5-40.1c-53.7,52.3-61.7,118.8-38.5,151.3s82.8,45.8,155.6,12.1L409.8,349.2z"/>
<line class="st49" x1="418.7" y1="260.5" x2="294.3" y2="349.7"/>
<path class="st49" d="M374.9,145c7.7-2.4,16.2-5.5,25.3-9.4l-14.7-4.4c6.2-2.6,12.7-5.5,19.7-8.8l-13.5-5.6
	c10.5-8,21.4-20.8,21.4-20.8s-16.9,2.1-29.4,6.5l3.1-14.4c-6.4,3.8-12.4,7.6-17.9,11.2l4.1-14.3c-7.8,4.9-14.7,9.9-20.7,14.8
	l3.5-16.3c-29.8,20.9-40.4,47.9-33.2,61.3c7.2,13.4,32.9,19.3,69.4,6.2L374.9,145z"/>
<line class="st49" x1="364.3" y1="121.8" x2="322.4" y2="144.3"/>
<path class="st50" d="M286.4,92.2c3.3,1.3,6.7,0.5,10.1-2.1c4.4-3.4,8.5-9.9,11.9-18.7c4-10.5,3.8-24.3,2.9-34.1
	c-0.3-3.2-4.2-4.7-6.6-2.5c-7.3,6.7-16.6,16.8-20.6,27.3v0C278,77.7,278.9,89.3,286.4,92.2z"/>
<path class="st49" d="M288.5,72.3c4.9,14.3,2,22.3-4.1,24.4c-6.2,2.1-13.3-2.5-18.2-16.8c-3.1-9-2.1-20.5-0.9-27.8
	c0.5-3.3,4.5-4.6,6.9-2.4C277.6,54.8,285.4,63.3,288.5,72.3z"/>
<path class="st49" d="M298.6,75.9c-12.8,7.9-15.7,15.9-12.3,21.5c3.4,5.5,11.9,6.5,24.7-1.4c8.1-5,14.6-14.5,18.3-20.9
	c1.7-2.8-0.5-6.4-3.8-6.2C318.1,69.3,306.7,70.9,298.6,75.9z"/>
<path class="st45" d="M115.5,219.3c-2.9,0.8-5.8,1.4-8.9,1.8c-0.9,0.1-1.6,0.9-1.5,1.9l0,0c0.3,3.6,2.6,6.8,5.9,8.2
	c9.8,4.2,23.8,9,36.8,9c1.4,0,2.7-0.1,4-0.2c12.2-1,20-3.9,24.9-7.4c2.9-2.1,6.9-1.6,9.2,1.2c11.3,14.1,29.3,33.5,53.1,49.2
	c4.3,2.9,6.9,7.7,6.9,12.9c-0.3,29.5,1.6,54.9,4.3,75.6c8.3,64.2,25.4,98.6,26.1,100c1.4,2.7,4.1,4.2,6.9,4.2c1.3,0,2.7-0.4,3.9-1.1
	c3.5-2.1,4.6-6.6,2.8-10.2c-5.8-11.7-18.3-46.5-24.6-95.8l0,0c-0.2-1.3,0.6-2.5,1.9-2.8c8.1-2.5,15.8-5.7,22.9-9.4
	c1.8-0.9,4.1-0.5,5.4,1.1c13,15.1,33.5,24.9,58.2,27.8c5.2,0.6,10.6,0.9,16,0.9c25.7,0,53.8-6.8,82.3-20c1.1-0.5,2-1.5,2.3-2.7
	c0.4-2-0.7-3.9-2.5-4.5l-20.2-6.7c-3.8-1.3-4.1-6.5-0.5-8.2c10.1-4.7,20.4-9.9,30.7-15.6c1.1-0.6,1.9-1.6,2.1-2.8
	c0.3-2-0.9-3.8-2.7-4.3l-16-4.7c-3.7-1.1-4.3-6.1-1-8c7.1-4.1,14.2-8.4,21.4-12.9c0.9-0.6,1.6-1.4,1.9-2.4c0.5-1.9-0.6-3.8-2.3-4.5
	l-22.1-8.7c-2.7-1.1-3.7-4.5-1.8-6.8c15.4-19.4,27.8-42.6,28.4-43.8c0.7-1.3,0.6-2.9-0.3-4c-0.8-1.2-2.3-1.8-3.7-1.6
	c-1.3,0.2-27.5,4.5-50.9,13c-2.8,1-5.8-1-5.9-4l-0.9-23.6c0-1-0.4-2-1.2-2.8c-1.5-1.4-3.6-1.4-5.1-0.2c-6.5,5.2-12.8,10.4-19,15.8
	c-2.9,2.5-7.4,0.4-7.3-3.5l0.4-16.1c0-1.3-0.5-2.6-1.6-3.4c-1.5-1.1-3.5-1-4.8,0.2c-8.4,7.3-16.5,14.9-24,22.6
	c-2.7,2.8-7.4,1-7.6-2.9l-0.8-19.9c0-1.1-0.5-2.1-1.3-2.9c-1.6-1.4-3.8-1.2-5.2,0.1c-25.3,24.6-42.7,54.8-49.2,85.1
	c-5.1,23.7-3.1,45.9,5.2,62.8c1.1,2.2,0.2,4.8-2,5.9c-4.4,2.2-8.9,4.2-13.6,5.9c-3.5,1.3-7.4-1.1-7.7-4.9
	c-4.2-45.6-3.7-109.2,12.5-187.8c0.5-2.2,2.4-3.8,4.6-3.9c13.9-0.7,26.7-4.5,37.3-9c1.9-0.8,4-0.3,5.4,1.1
	c6.2,6.2,16.8,10.3,31.2,10.3c10.8,0,23.7-2.3,38.7-7.6c1.2-0.4,2.2-1.4,2.6-2.7c0.5-2-0.6-4-2.5-4.6l-1.6-0.6
	c-1.6-0.5-1.6-2.7-0.1-3.3c3.3-1.3,6.7-2.6,10.1-4.1c1.2-0.5,2.1-1.5,2.4-2.8c0.4-2-0.8-3.9-2.6-4.5l-0.1,0
	c-1.6-0.5-1.7-2.6-0.2-3.3c1.9-0.9,3.8-1.8,5.8-2.7c1.1-0.5,2-1.4,2.2-2.6c0.5-1.9-0.5-3.8-2.3-4.5l-5-2c-1.2-0.5-1.5-2.1-0.5-3
	c7.9-7.2,14.5-14.9,14.8-15.3c1-1.2,1.2-2.9,0.5-4.3c-0.8-1.4-2.3-2.2-3.9-2c-0.5,0.1-10.6,1.3-21,3.9c-1.3,0.3-2.5-0.8-2.2-2.1
	l1.1-5.1c0.2-1.2,0-2.4-0.7-3.3c-1.2-1.5-3.4-1.9-5-0.9c-1.9,1.1-3.7,2.2-5.6,3.4c-1.4,0.8-3.1-0.4-2.6-2v0c0.3-1.2,0.2-2.5-0.6-3.5
	c-1.3-1.6-3.5-1.9-5.1-0.9c-3.1,1.9-6.1,4-9,6c-1.3,0.9-3.1-0.2-2.8-1.8l0.3-1.5c0.3-1.2,0-2.5-0.8-3.4c-1.3-1.5-3.5-1.7-5.1-0.6
	c-27,18.9-38.7,42.5-36.7,58.5c0.3,2.3-0.9,4.5-3.1,5.3c-8.4,3.4-18.2,6.4-28.6,7.6c-3.4,0.4-6.1-2.7-5.3-6
	c2.7-11.5,5.7-23.4,9.1-35.5c0.7-2.7,3.2-4.5,6-4.5l0.1,0c4.5,0,10.4-1.6,18-6.4c8.6-5.3,15.4-15,19.6-22.2c1.8-3,1.4-6.9-1.2-9.6
	c-1.6-1.7-4-2.5-6.4-2.4c-8.3,0.6-20,2.3-28.5,7.6c0,0,0,0,0,0l0,0c-1.6,1-3.8,0.2-4.4-1.6l0,0c0,0,0,0,0,0
	c-3.3-9.5-11.2-18.4-17.3-24.1c-2.5-2.4-6.3-2.9-9.5-1.1c-2.1,1.2-3.5,3.5-3.9,5.9c-1.3,8.2-2.1,19.9,1.1,29.3
	c3,8.6,6.5,13.6,10,16.5c1.9,1.5,2.7,4,2.1,6.3c-17.6,62.8-25.5,118-28,164.6c-0.2,4.5-5.3,6.9-9,4.3
	c-18.6-13.4-33.4-28.9-43.5-41.1c-2.6-3.2-1.7-8,1.9-10.1c5-2.8,10.6-7.9,16.7-16.6c8.3-11.8,11.8-28.7,13.2-40.7
	c0.4-3.4-1.1-6.7-3.9-8.7c-0.5-0.3-0.9-0.6-1.4-0.8c-2.3,3-4.7,5.8-7.3,8.4c0.9-0.5,1.9-1,2.7-1.4c0.3-0.1,0.5-0.2,0.7-0.2
	c0.4,0,0.7,0.2,0.9,0.3c0.3,0.2,0.8,0.7,0.7,1.5c-1.1,9.1-4.1,26.1-11.9,37.2c-9.7,13.8-19.9,19.5-26.5,14.9
	c-2.4-1.7-3.7-4.2-3.9-7.5c-0.5,0.3-1.1,0.6-1.6,0.9c-1.7,1-3.5,2-5.6,2.8c0,0,0.8,4.8,4.1,8.2c1.7,1.8,1.6,4.7-0.5,6.1
	c-4.5,3.3-11.8,5.5-21.4,6.3c-13.2,1.1-29-4.7-37.2-8.2c-1-0.4-1.2-1.4-1.3-1.8C112.6,220.9,115.5,219.3,115.5,219.3z M328.8,118.5
	c3.9-7.8,9.9-15.6,17.6-22.7c1.1-1,2.8,0,2.5,1.4l-0.3,1.5c-0.3,1.3,0,2.7,0.9,3.6c1.4,1.5,3.7,1.5,5.2,0.3c2.6-2.1,5.4-4.3,8.3-6.3
	c1.2-0.8,2.7,0.3,2.3,1.6l0,0.1c-0.3,1.2-0.2,2.6,0.6,3.5c1.3,1.6,3.5,1.9,5.1,0.8c2.4-1.6,4.8-3.1,7.1-4.6c1.1-0.7,2.6,0.3,2.3,1.6
	l-0.5,2.1c-0.2,1-0.1,2,0.4,2.8c1,1.7,2.9,2.3,4.6,1.7c5.6-2,12.3-3.5,17.7-4.5c-3.8,3.9-8.6,8.5-13.3,12.1
	c-0.8,0.6-1.4,1.4-1.5,2.4c-0.4,1.9,0.7,3.6,2.3,4.3l2.1,0.9c1.2,0.5,1.3,2.2,0,2.8c-2.8,1.2-5.5,2.4-8.3,3.6
	c-1.2,0.5-2.1,1.5-2.4,2.7c-0.4,2,0.8,4,2.6,4.5l0,0c1.4,0.4,1.4,2.4,0.1,2.9c-3.6,1.3-7.1,2.5-10.6,3.6c-1.3,0.4-2.3,1.3-2.7,2.6
	c-0.6,2.1,0.5,4.1,2.4,4.7l1.2,0.4c1.4,0.5,1.3,2.6-0.2,2.9c-18.7,4.2-33.1,2.6-41.6-2.3c-2.6-1.5-2.5-5.3,0.1-6.8l32.9-17.7
	c1.6-0.9,2.5-2.8,2-4.5c-0.7-2.4-3.4-3.4-5.5-2.3l-32.3,17.3c-2.7,1.5-6.1-0.7-5.7-3.8C325,127.8,326.4,123.2,328.8,118.5z
	 M300.6,79.1L300.6,79.1c7.6-4.7,19-6.1,25.1-6.5c0.1,0,0.2,0,0.3,0.1c0.1,0.2,0,0.2,0,0.3c-3.1,5.3-9.4,14.9-17,19.6
	c-9.4,5.8-16.8,6.8-19.4,2.7C287,91.1,291.2,84.9,300.6,79.1z M269.8,78.6c-2.9-8.5-1.7-19.9-0.7-25.9c0-0.1,0-0.2,0.2-0.2
	c0,0,0.1,0,0.1,0c0.1,0,0.1,0,0.2,0.1C274,56.7,282,65,284.9,73.5v0c0.6,1.8,1.1,3.5,1.5,5.1c0.3,1.1,0,2.3-0.8,3.1
	c-1.9,2.4-3.1,4.6-3.8,6.6c-0.9,2.8-4.4,3.6-6.3,1.3C273.4,87.2,271.5,83.4,269.8,78.6z M428.2,276.9c-1.2,1.3-1.4,3.3-0.3,4.8
	c0.4,0.6,1.1,1.1,1.8,1.4l16.1,6.4c3.9,1.5,4.3,6.8,0.7,9c-7.6,4.5-15.1,8.8-22.8,13c-1.1,0.6-1.9,1.6-2.1,2.8
	c-0.3,2,0.9,3.8,2.7,4.3l13.8,4.1c4.4,1.3,4.9,7.3,0.8,9.3c-10.3,5.1-20.5,9.7-30.4,13.6c-1.2,0.5-2.1,1.4-2.4,2.7
	c-0.5,2,0.7,4,2.5,4.6l18,6c4.5,1.5,4.6,7.9,0,9.5c-57.7,20-102.2,8.5-123.5-13.9c-1.9-2-1.5-5.1,0.7-6.7l8.6-6.2
	c1.7-1.2,4.1-1.1,5.5,0.4c11,11.2,28.8,17.2,50.9,17.2c4.1,0,8.4-0.2,12.8-0.6c1.8-0.2,3.4-1.6,3.5-3.4c0.2-2.5-1.8-4.5-4.2-4.2
	c-25.4,2.5-45.8-2.6-57.2-14c-1.1-1.1-0.9-2.9,0.3-3.7l17.9-12.8c1.6-1.2,3.9-1.1,5.4,0.2c6.6,5.4,16.6,8.2,29.2,8.2
	c7.6,0,16.2-1,25.6-3.1c1.8-0.4,3.2-2,3.1-3.8c-0.1-2.5-2.4-4.2-4.7-3.7c-20.8,4.6-37.5,3.7-46.6-2.2c-1.5-1-1.6-3.2-0.1-4.2
	l25.1-18c1.4-1,3.3-1.2,4.8-0.3c3.4,2,7.9,2.8,12.7,2.8c6.3,0,13.2-1.3,19.2-2.9c1.8-0.5,3.1-2.1,3-3.9c-0.1-2.5-2.5-4.1-4.8-3.5
	c-6.7,1.8-14.2,3-19.8,2.6c-2.4-0.2-3.2-3.2-1.3-4.6l28.1-20.2c1.7-1.2,2.1-3.6,0.9-5.4c-1.2-1.7-3.6-2.1-5.4-0.9l-27.7,19.9
	c-1.3,0.9-3-0.3-2.5-1.8c1.3-4.2,3.8-9.7,8.2-16.4c1.1-1.7,0.8-4.2-0.9-5.4c-1.8-1.3-4.3-0.8-5.5,1c-8.3,12.9-11.7,23.3-10.3,30.4
	l-28.6,20.5c-1,0.7-2.3,0.1-2.5-1.1c-1.8-10.2,2.5-25.4,12.2-42.3c1-1.8,0.6-4.2-1.1-5.4c-1.9-1.2-4.3-0.6-5.4,1.3
	c-12.7,22-16.8,41.1-11.5,53.5l-21.6,15.5c-0.8,0.6-2,0.3-2.4-0.7c-6.2-14.7-3.8-37,6.9-60.3c0.8-1.7,0.4-3.7-1.1-4.8
	c-2-1.5-4.8-0.7-5.8,1.5c-12.6,27.5-14.5,53.1-5.4,70l-11.7,8.4c-2.3,1.6-5.4,0.8-6.7-1.7c-16.8-34.8-0.4-84.7,28.6-121.3
	c2.9-3.6,8.7-1.7,8.9,3l0.7,18.1c0,1.2,0.6,2.4,1.6,3.1c1.7,1.2,3.9,0.8,5.1-0.6c6.6-7.7,13.8-15.3,21.4-22.6
	c3.2-3.1,8.6-0.7,8.5,3.7l-0.4,14.3c0,1.2,0.4,2.4,1.4,3.2c1.5,1.3,3.7,1.2,5.1-0.1c6.3-5.7,12.6-11.2,19-16.6
	c3.2-2.7,8.1-0.5,8.2,3.6l0.6,17.6c0,1.3,0.7,2.5,1.8,3.1c1.1,0.7,2.4,0.8,3.6,0.2c12.7-5.7,28.4-10,40.5-12.9
	c4.3-1,7.7,3.7,5.4,7.5C446.5,253.4,437.5,266.7,428.2,276.9z"/>
<path class="st49" d="M256.8,401c-1.8,0-3.4-1.3-3.8-3.1c-8.6-45.4-10.8-95-6.6-147.4c0.2-2.1,2-3.7,4.1-3.5c2.1,0.2,3.7,2,3.5,4.1
	c-4.1,51.7-1.9,100.6,6.5,145.4c0.4,2.1-1,4.1-3.1,4.5C257.2,401,257,401,256.8,401z"/>
<path class="st21" d="M408.1,271.9c-1.2,0-2.4-0.6-3.1-1.6c-1.2-1.7-0.8-4.1,0.9-5.4l7.2-5.1c1.7-1.2,4.1-0.8,5.4,0.9
	c1.2,1.7,0.8,4.1-0.9,5.4l-7.2,5.1C409.7,271.7,408.9,271.9,408.1,271.9z"/>
<path class="st21" d="M317,338.7c-1.2,0-2.4-0.6-3.1-1.6c-11.9-16.7-10.9-44.4,2.8-74.3c1-2.2,3.8-3,5.8-1.5
	c1.5,1.1,1.9,3.1,1.1,4.8c-12.2,26.7-13.6,52.1-3.6,66.3c1.2,1.7,1,4.2-0.7,5.5C318.6,338.5,317.8,338.7,317,338.7z"/>
<path class="st21" d="M330.8,327.4c-1.3,0-2.6-0.7-3.3-1.9c-1-1.7-0.4-4,1.2-5.1l6-4.3c3.4-2.4,5-6.6,4.3-10.7
	c-2-12.2,2.6-28.5,13.3-47.1c1.1-1.9,3.6-2.5,5.4-1.3c1.8,1.1,2.2,3.5,1.1,5.4c-12.2,21.2-15.8,38.9-9.9,48.7c1,1.7,0.5,3.9-1.1,5.1
	L333,326.7C332.3,327.2,331.6,327.4,330.8,327.4z"/>
<path class="st21" d="M371.5,298c-1.3,0-2.6-0.7-3.3-1.9c-1-1.7-0.4-4,1.2-5.2l3.6-2.6c2.6-1.9,4.3-4.8,4.5-8
	c0.5-8.1,5.6-17.9,10.5-25.5c1-1.6,2.9-2.3,4.7-1.6c2.3,0.9,3.2,3.7,1.9,5.7c-9.1,14.1-10.5,22.7-8.8,26c0.9,1.7,0.2,3.7-1.3,4.8
	l-10.7,7.7C373.1,297.8,372.3,298,371.5,298z"/>
<path class="st21" d="M346,131.1c-1.4,0-2.7-0.7-3.4-2c-1-1.9-0.3-4.2,1.6-5.2l21.9-11.8c1.9-1,4.2-0.3,5.2,1.6
	c1,1.9,0.3,4.2-1.6,5.2l-21.9,11.8C347.3,131,346.6,131.1,346,131.1z"/>
<circle class="st21" cx="400.6" cy="103.2" r="3.8"/>
<circle class="st21" cx="270.4" cy="55.8" r="3.8"/>
<path class="st38" d="M125,161.6c-1.7-1.6-4.7-1.5-6.3,1.2c-0.1,0.2-0.2,0.4-0.2,0.6c-0.8,4.9,5.1,7,7.6,2.8
	c0.1-0.2,0.2-0.4,0.2-0.6c0-0.1,0-0.2,0-0.2c0.1,1.3,0.7,2.6,2.2,3.5c0.2,0.1,0.4,0.2,0.6,0.2c4.7,0.8,6.8-4.7,3.1-7.4
	c1.8,0.3,3.1-0.3,4-1.3c0,0.1,0.1,0.2,0.1,0.3c0.3,0.7,0.8,1.3,1.5,1.7c0.8,0.5,1,1.6,0.5,2.5c-0.2,0.3-0.3,0.7-0.5,1.1
	c-0.1,0.2-0.1,0.4-0.1,0.6c0,3.2,3.1,5,5.7,3.8c1.4-0.7,2.2-2,2.3-3.5c0,0,0,0,0,0c-0.2,1.5,0.4,3.2,2.2,4.2
	c0.2,0.1,0.4,0.2,0.6,0.2c3.8,0.6,5.9-2.9,4.7-5.6c-0.5-1-1.2-1.7-2.2-2c0,0,0,0,0,0c1,0.4,2.2,0.5,3.2,0c2.7-1.3,3.3-5.3,0-7.3
	c-0.2-0.1-0.4-0.2-0.6-0.2c-1.8-0.3-3.2,0.3-4.1,1.3c-0.5,0.5-1.3,0.7-1.9,0.4l0.3-5.1c2.8,0.4,4.7-1.4,5-3.5
	c-0.1,1.4,0.6,2.9,2.2,3.9c0.2,0.1,0.4,0.2,0.6,0.2c4.7,0.8,6.8-4.6,3.2-7.3c4.7,0.6,6.7-5.1,2.6-7.6c-0.2-0.1-0.4-0.2-0.6-0.2
	c-0.5-0.1-0.9-0.1-1.3-0.1c-0.9,0.1-1.7-0.7-1.8-1.6c-0.1-1.3-0.8-2.5-2.2-3.4c-0.2-0.1-0.4-0.2-0.6-0.2c-4.8-0.8-7,5-2.8,7.6
	c0.2,0.1,0.4,0.2,0.6,0.2c0.5,0.1,0.9,0.1,1.3,0.1c0.9-0.1,1.7,0.6,1.8,1.5c0.1,1.1,0.6,2.3,1.8,3.1c-2.8-0.3-4.7,1.6-4.8,3.7
	c0.1-0.7,0-1.4-0.3-2.1c-0.6-1.3-1.8-2.1-3.2-2.3c-0.7-0.1-1.3-0.6-1.5-1.3c-0.2-1-0.9-2.1-2.2-2.8c-0.2-0.1-0.4-0.2-0.6-0.2
	l0.6-2.9c0.1-0.2,0.2-0.4,0.2-0.6c0.1-0.9,0-1.7-0.2-2.3c-0.3-0.8,0.1-1.9,0.9-2.3c0.7-0.4,1.4-1,2-1.9c0.1-0.2,0.2-0.4,0.2-0.6
	c0.6-3.8-2.9-5.9-5.6-4.6c-0.4,0.2-0.7,0.4-1,0.7c1.4-1.7,1.2-4.5-1.4-6.1c-0.2-0.1-0.4-0.2-0.6-0.2c-3.8-0.6-5.9,2.8-4.7,5.6
	c0.1,0.2,0.1,0.3,0.2,0.4c0.4,0.6,0.3,1.5-0.2,2c-1,1.1-1.3,2.8-0.6,4.2l1.5,3.7l-6,0.1c-0.2-0.1-0.4-0.2-0.6-0.2
	c-0.5-0.1-1-0.1-1.4-0.1c-0.9,0.1-1.7-0.6-1.7-1.6c-0.1-1.3-0.8-2.5-2.2-3.4c-0.2-0.1-0.4-0.2-0.6-0.2c-4.8-0.8-7,5-2.8,7.6
	l-0.2,5.7c-1.6-1.9-5-2-6.7,0.9c-0.1,0.2-0.2,0.4-0.2,0.6c-0.8,4.9,5.1,7,7.6,2.8c0.1-0.2,0.2-0.4,0.2-0.6c0-0.1,0-0.1,0-0.2
	c0,0.5,0.1,1,0.4,1.4c0.2,0.4,0.5,0.8,0.8,1.1c0.5,0.5,0.7,1.2,0.5,1.9c-0.5,1.6,0,3.6,2,4.8L125,161.6z"/>
<ellipse transform="matrix(0.9065 -0.4221 0.4221 0.9065 -47.5728 61.9919)" class="st39" cx="116.2" cy="138.4" rx="4" ry="4"/>
<ellipse transform="matrix(0.9065 -0.4221 0.4221 0.9065 -48.0496 64.8329)" class="st39" cx="122.4" cy="140.9" rx="4" ry="4"/>
<ellipse transform="matrix(0.9065 -0.4221 0.4221 0.9065 -45.8499 75.3975)" class="st39" cx="147.3" cy="141.2" rx="4" ry="4"/>
<ellipse transform="matrix(0.9065 -0.4221 0.4221 0.9065 -46.3268 78.2386)" class="st39" cx="153.5" cy="143.7" rx="4" ry="4"/>
<ellipse transform="matrix(0.9065 -0.4221 0.4221 0.9065 -48.2852 68.9249)" class="st39" cx="131.5" cy="143.5" rx="4" ry="4"/>
<ellipse transform="matrix(0.9065 -0.4221 0.4221 0.9065 -48.7621 71.7659)" class="st39" cx="137.7" cy="146" rx="4" ry="4"/>
<ellipse transform="matrix(0.9065 -0.4221 0.4221 0.9065 -44.6845 69.3559)" class="st39" cx="134.3" cy="135.6" rx="4" ry="4"/>
<ellipse transform="matrix(0.9065 -0.4221 0.4221 0.9065 -41.5924 67.8886)" class="st39" cx="132.5" cy="127.9" rx="4" ry="4"/>
<ellipse transform="matrix(0.9065 -0.4221 0.4221 0.9065 -54.9326 65.5642)" class="st39" cx="120.6" cy="156.8" rx="4" ry="4"/>
<ellipse transform="matrix(0.9065 -0.4221 0.4221 0.9065 -55.4094 68.4053)" class="st39" cx="126.8" cy="159.3" rx="4" ry="4"/>
<ellipse transform="matrix(0.9065 -0.4221 0.4221 0.9065 -51.6693 76.4139)" class="st39" cx="146.7" cy="154.9" rx="4" ry="4"/>
<ellipse transform="matrix(0.8679 -0.4967 0.4967 0.8679 9.6074 154.477)" class="st38" cx="295.3" cy="59.2" rx="4.6" ry="4.6"/>
</svg>
