<?xml version="1.0" encoding="utf-8"?>
<!-- Generator: Adobe Illustrator 20.1.0, SVG Export Plug-In . SVG Version: 6.00 Build 0)  -->
<svg version="1.1" id="Layer_1" xmlns="http://www.w3.org/2000/svg" xmlns:xlink="http://www.w3.org/1999/xlink" x="0px" y="0px"
	 viewBox="0 0 500 500" style="enable-background:new 0 0 500 500;" xml:space="preserve">
<style type="text/css">
	.st0{fill:#F22F2E;stroke:#7B000E;stroke-width:5;stroke-miterlimit:10;}
	.st1{fill:#64A025;stroke:#164E16;stroke-width:5;stroke-linecap:round;stroke-miterlimit:10;}
	.st2{fill:#F4C01F;stroke:#B26D09;stroke-width:5;stroke-miterlimit:10;}
	.st3{fill:#FFA200;stroke:#A84902;stroke-width:5;stroke-miterlimit:10;}
	.st4{fill:#7C9800;stroke:#164E16;stroke-width:5;stroke-miterlimit:10;}
	.st5{fill:#4D831C;stroke:#164E16;stroke-width:5;stroke-miterlimit:10;}
	.st6{fill:#F22F2E;}
	.st7{fill:#7C9800;stroke:#164E16;stroke-width:5;stroke-linejoin:round;stroke-miterlimit:10;}
	.st8{fill:#F22F2E;stroke:#7B000E;stroke-miterlimit:10;}
	.st9{fill:#7C9800;}
	.st10{fill:#164E16;}
	.st11{fill:#4D831C;stroke:#2A481D;stroke-width:4;stroke-miterlimit:10;}
	.st12{fill:#6EA336;stroke:#2A481D;stroke-width:4;stroke-linecap:round;stroke-linejoin:round;stroke-miterlimit:10;}
	.st13{fill:#8DCC50;stroke:#A2A121;stroke-width:5;stroke-miterlimit:10;}
	.st14{fill:#4D831C;stroke:#071907;stroke-width:5;stroke-linejoin:round;stroke-miterlimit:10;}
	.st15{fill:#164E16;stroke:#071907;stroke-width:3;stroke-miterlimit:10;}
	.st16{fill:#FFD003;stroke:#D17D01;stroke-width:3;stroke-miterlimit:10;}
	.st17{fill:#E6E6E6;}
	.st18{fill:#D9E021;}
	.st19{fill:#F22F2E;stroke:#7B000E;stroke-width:3;stroke-miterlimit:10;}
	.st20{fill:none;stroke:#FFFFFF;stroke-linecap:round;stroke-linejoin:round;stroke-miterlimit:10;}
	.st21{fill:none;stroke:#FFFFFF;stroke-linecap:round;stroke-miterlimit:10;}
	.st22{fill:#FFFFFF;}
	.st23{fill:none;stroke:#7B000E;stroke-linecap:round;stroke-linejoin:round;stroke-miterlimit:10;}
	.st24{fill:none;stroke:#7B000E;stroke-linecap:round;stroke-miterlimit:10;}
	.st25{fill:#7B000E;}
	.st26{fill:#4D831C;}
	.st27{fill:#2A481D;}
	.st28{fill:#FF7A00;}
	.st29{fill:#FF7A00;stroke:#F44500;stroke-width:3;stroke-miterlimit:10;}
	.st30{fill:none;stroke:#F44500;stroke-linecap:round;stroke-linejoin:round;stroke-miterlimit:10;}
	.st31{fill:#FF7A00;stroke:#F44500;stroke-linecap:round;stroke-linejoin:round;stroke-miterlimit:10;}
	.st32{fill:#F44500;}
	.st33{fill:#8BA00D;stroke:#164E16;stroke-width:3;stroke-linejoin:round;stroke-miterlimit:10;}
	.st34{clip-path:url(#SVGID_2_);}
	.st35{fill:#F40000;stroke:#7B000E;stroke-width:3;stroke-miterlimit:10;}
	.st36{fill:#7DB34C;stroke:#164E16;stroke-width:3;stroke-miterlimit:10;}
	.st37{fill:none;stroke:#164E16;stroke-miterlimit:10;}
	.st38{fill:none;stroke:#7B000E;stroke-width:3;stroke-miterlimit:10;}
	.st39{fill:#A7C92B;stroke:#164E16;stroke-width:3;stroke-miterlimit:10;}
	.st40{fill:none;stroke:#164E16;stroke-linecap:round;stroke-miterlimit:10;}
	.st41{fill:#8BA00D;}
	.st42{fill:#999999;}
	.st43{fill:#A7C92B;}
	.st44{fill:none;stroke:#FEA502;stroke-linecap:round;stroke-linejoin:round;stroke-miterlimit:10;}
	.st45{fill:#FFD003;}
	.st46{fill:#D17D01;}
	.st47{fill:#FEA502;}
	.st48{fill:#4D831C;stroke:#2A481D;stroke-width:3;stroke-linecap:round;stroke-linejoin:round;stroke-miterlimit:10;}
	.st49{fill:#FA6200;stroke:#D54300;stroke-width:3;stroke-miterlimit:10;}
	.st50{fill:#FA6200;stroke:#D54300;stroke-linecap:round;stroke-miterlimit:10;}
	.st51{fill:none;stroke:#F44500;stroke-linecap:round;stroke-miterlimit:10;}
	.st52{fill:#FF9D00;stroke:#E6681E;stroke-linecap:round;stroke-miterlimit:10;}
	.st53{fill:#F97306;}
	.st54{fill:#D54300;}
	.st55{fill:#7DB34C;stroke:#44712A;stroke-width:3;stroke-miterlimit:10;}
	.st56{fill:none;stroke:#44712A;stroke-miterlimit:10;}
	.st57{fill:#7DB34C;}
	.st58{fill:#40760E;}
	.st59{fill:none;stroke:#071907;stroke-miterlimit:10;}
	.st60{fill:none;stroke:#071907;stroke-linecap:round;stroke-linejoin:round;stroke-miterlimit:10;}
	.st61{fill:#071907;}
	.st62{fill:#44712A;}
	.st63{fill:#6E905E;}
	.st64{fill:#456A0A;}
	.st65{fill:#183300;}
	.st66{fill:#FF2214;}
	.st67{fill:#661900;}
	.st68{fill:#FFDC00;}
	.st69{fill:#7C9800;stroke:#164E16;stroke-width:3;stroke-miterlimit:10;}
	.st70{fill:none;stroke:#D17D01;stroke-width:0.75;stroke-miterlimit:10;}
	.st71{fill:#7C9800;stroke:#164E16;stroke-linejoin:round;stroke-miterlimit:10;}
	.st72{fill:none;stroke:#164E16;stroke-linejoin:round;stroke-miterlimit:10;}
	.st73{fill:#8A9D1F;}
	.st74{fill:#1B4700;}
	.st75{fill:none;stroke:#7C9800;stroke-width:3;stroke-linecap:round;stroke-linejoin:round;stroke-miterlimit:10;}
	.st76{opacity:0.6;fill:none;stroke:#FFFFFF;stroke-linecap:round;stroke-miterlimit:10;}
	.st77{fill:none;stroke:#7B000E;stroke-miterlimit:10;}
	.st78{opacity:0.4;fill:none;stroke:#FFFFFF;stroke-linecap:round;stroke-linejoin:round;stroke-miterlimit:10;}
	.st79{fill:none;stroke:#FFFFFF;stroke-width:7.8511;stroke-linecap:round;stroke-miterlimit:10;}
	.st80{fill:#B0C06B;}
	.st81{fill:#F8ACAC;}
	.st82{fill:none;stroke:#FFFFFF;stroke-width:7.7562;stroke-linecap:round;stroke-miterlimit:10;}
	.st83{fill:none;stroke:#164E16;stroke-width:0.851;stroke-miterlimit:10;}
	.st84{opacity:0.3;}
	.st85{fill:#6EA336;}
	.st86{opacity:0.3;fill:#7B000E;}
	.st87{opacity:0.2;fill:none;stroke:#2A481D;stroke-linecap:round;stroke-linejoin:round;stroke-miterlimit:10;}
	.st88{fill:#CC242B;}
	.st89{fill:#5B8734;}
	.st90{fill:#4D831C;stroke:#071907;stroke-miterlimit:10;}
	.st91{fill:none;stroke:#071907;stroke-linecap:round;stroke-miterlimit:10;}
	.st92{opacity:0.7;fill:none;stroke:#FFFFFF;stroke-linecap:round;stroke-miterlimit:10;}
	.st93{opacity:0.7;fill:#FFFFFF;}
	.st94{fill:#B9CAB9;}
	.st95{fill:#F6E600;}
	.st96{fill:#8DCC50;}
	.st97{fill:#A2A121;}
	.st98{fill:#F9EFA7;}
	.st99{fill:#F6E600;stroke:#A2A121;stroke-width:3;stroke-miterlimit:10;}
	.st100{opacity:0.3;fill:none;stroke:#A2A121;stroke-linecap:round;stroke-linejoin:round;stroke-miterlimit:10;}
	.st101{fill:none;stroke:#A2A121;stroke-width:3;stroke-miterlimit:10;}
	.st102{fill:#8DCC50;stroke:#A2A121;stroke-miterlimit:10;}
	.st103{fill:#DCCF2F;}
	.st104{fill:#F22F2E;stroke:#7B000E;stroke-linecap:round;stroke-miterlimit:10;}
	.st105{fill:#6EA336;stroke:#2A481D;stroke-linecap:round;stroke-linejoin:round;stroke-miterlimit:10;}
	.st106{fill:none;stroke:#2A481D;stroke-linecap:round;stroke-linejoin:round;stroke-miterlimit:10;}
	.st107{fill:#639D2E;stroke:#164E16;stroke-width:5;stroke-miterlimit:10;}
	.st108{fill:#639D2E;stroke:#164E16;stroke-miterlimit:10;}
	.st109{opacity:0.5;fill:none;stroke:#D54300;stroke-linecap:round;stroke-miterlimit:10;}
	.st110{fill:#E5531B;}
	.st111{opacity:0.3;fill:none;stroke:#D17D01;stroke-linecap:round;stroke-linejoin:round;stroke-miterlimit:10;}
	.st112{fill:#E6A627;}
	.st113{fill:#A3B653;}
	.st114{fill:none;stroke:#164E16;stroke-linecap:round;stroke-linejoin:round;stroke-miterlimit:10;}
	.st115{fill:#FAC1C1;}
	.st116{clip-path:url(#SVGID_4_);}
	.st117{fill:none;stroke:#D9E021;stroke-miterlimit:10;}
	.st118{fill:#A7C92B;stroke:#164E16;stroke-width:5;stroke-linecap:round;stroke-linejoin:round;stroke-miterlimit:10;}
	.st119{fill:#64A025;}
	.st120{fill:#547C1F;stroke:#164E16;stroke-linecap:round;stroke-miterlimit:10;}
	.st121{fill:#547C1F;}
	.st122{fill:#4D831C;stroke:#164E16;stroke-miterlimit:10;}
	.st123{fill:none;stroke:#FFFFFF;stroke-width:7.7934;stroke-linecap:round;stroke-miterlimit:10;}
	.st124{fill:#8DCC50;stroke:#164E16;stroke-linecap:round;stroke-miterlimit:10;}
	.st125{fill:#F4C01F;stroke:#B26D09;stroke-miterlimit:10;}
	.st126{fill:#FFA200;stroke:#A84902;stroke-miterlimit:10;}
	.st127{fill:#7C9800;stroke:#164E16;stroke-miterlimit:10;}
	.st128{fill:none;stroke:#7C9800;stroke-width:2;stroke-linecap:round;stroke-miterlimit:10;}
	.st129{fill:#F4C01F;}
	.st130{fill:#FFA200;}
	.st131{fill:#B26D09;}
	.st132{fill:#A84902;}
	.st133{fill:none;stroke:#4D831C;stroke-width:3;stroke-linecap:round;stroke-miterlimit:10;}
	.st134{fill:none;stroke:#164E16;stroke-width:3;stroke-linecap:round;stroke-miterlimit:10;}
	.st135{fill:#64A025;stroke:#164E16;stroke-linecap:round;stroke-miterlimit:10;}
</style>
<g>
	<path class="st129" d="M78.4,353c15.8,7.7,34.8,1.3,42.7-14.4l23.9-47.5c13-25.9,22-53.7,26.7-82.7l6.7-41.2
		c4.2-26,11.9-51.1,22.9-74.8l29.6-63.7c2.2-4.6-3.6-8.9-7.4-5.4L197.7,47c-43.9,40.5-73.6,92.2-86.2,149.8l0,0
		c-5.4,24.7-13.9,48.4-25.5,70.6l-21.9,42C55.8,325.4,62.3,345.1,78.4,353L78.4,353z"/>
	<path class="st6" d="M159,415.5c-11.1-13.6-9.2-33.5,4.2-44.8l40.8-34.2c22.3-18.6,47.3-33.7,74.4-44.9l38.6-15.9
		c24.4-10.1,47.1-23.3,67.6-39.4l55.2-43.4c4-3.2,9.4,1.5,6.9,6l-17.1,30.4c-29.3,52-72.8,92.8-126,118.2l0,0
		c-22.8,10.9-43.9,24.6-62.9,41l-35.8,31C191.1,431.2,170.5,429.4,159,415.5L159,415.5z"/>
	<path class="st130" d="M128.9,373.7c13.2,11.5,33.3,10.2,44.9-2.9l35.3-39.7c19.3-21.7,35.1-46.2,47.1-73l17-38.1
		c10.8-24.1,24.6-46.4,41.4-66.4l45-53.9c3.3-3.9-1.2-9.5-5.7-7.1L323,108.7c-52.9,27.8-94.9,70.1-121.8,122.5l0,0
		c-11.5,22.5-25.9,43.2-42.8,61.7l-32,34.9C114.1,341.1,115.3,361.8,128.9,373.7L128.9,373.7z"/>
	<path class="st129" d="M121.1,338.6l23.9-47.5c13-25.9,22-53.7,26.7-82.7l6.7-41.2c4.2-26,11.9-51.1,22.9-74.8l29.6-63.7
		c2.2-4.6-3.6-8.9-7.4-5.4L197.7,47c-43.9,40.5-73.6,92.2-86.2,149.8l0,0c-5.4,24.7-13.9,48.4-25.5,70.6l-21.9,42L88.5,331
		L121.1,338.6z"/>
	<path class="st131" d="M218.3,45.5l-21,45.1c-11.1,24-18.9,49.5-23.2,75.9l-6.7,41.2c-4.6,28.5-13.4,55.9-26.3,81.5l-19.9,39.5
		l32.5-24.7l38.5-92.2l6.7-41.2c3.9-24.1,11-47.4,21.2-69.3l29.6-63.7c5.2-11.3,1.9-24.2-8.2-31.6c-10-7.3-23.4-6.6-32.6,1.9
		l-25.7,23.7c-47.1,43.4-79,99-92.5,160.8c-5,22.8-12.9,44.8-23.6,65.4l-21.9,42l22.4,11.7l22-42c11.7-22.6,20.4-46.7,25.8-71.7
		C128,141,157.3,89.9,200.6,50.1l9.5-8.8l1.2-1.1C215,36.8,220.6,41,218.3,45.5L218.3,45.5z"/>
	<path class="st6" d="M204.7,419.4l35.8-31c19-16.4,40.1-30.1,62.9-41l0,0c53.2-25.4,96.7-66.2,126-118.2l17.1-30.4
		c2.5-4.4-2.9-9.1-6.9-6l-55.2,43.4c-20.5,16.1-43.2,29.3-67.6,39.4l-38.6,15.9c-27.1,11.2-52.1,26.3-74.4,44.9l-42.4,36.3
		L204.7,419.4z"/>
	<path class="st25" d="M432.2,215.9l-6.3,11.2c-28.9,51.2-71.8,91.5-124.2,116.5c-23.1,11-44.6,25-63.9,41.6l-37.6,32.6l22.3,14
		l31.8-27.4c17.6-15.1,37.2-27.9,58.3-37.9c57.1-27.2,103.9-71.1,135.3-126.8l17.1-30.4c6.1-10.8,3.8-24-5.6-32.1
		c-9.4-8.1-22.8-8.4-32.6-0.7l-55.2,43.4c-19,14.9-40,27.2-62.6,36.5l-38.6,15.9l-53,49.2l-10.6,18.4c21.9-18.3,46.6-33.2,73.3-44.3
		l38.6-15.9c24.7-10.2,47.8-23.6,68.6-40l36.6-28.7l1.4-1.1C429.3,206.5,434.9,211.4,432.2,215.9L432.2,215.9z"/>
	<path class="st130" d="M173.8,370.8l35.3-39.7c19.3-21.7,35.1-46.2,47.1-73l17-38.1c10.8-24.1,24.6-46.4,41.4-66.4l45-53.9
		c3.3-3.9-1.2-9.5-5.7-7.1L323,108.7c-52.9,27.8-94.9,70.1-121.8,122.5l0,0c-11.5,22.5-25.9,43.2-42.8,61.7l-34.2,37.6L173.8,370.8z
		"/>
	<path class="st132" d="M340.9,115.5l-29.5,35.3c-16.9,20.3-31.1,43-42,67.4l-17,38.1c-11.8,26.4-27.4,50.6-46.4,72L170.7,368
		l6.3,5.6l35.3-39.7c2.7-3,5.3-6.1,7.9-9.2c7.6-9.3,16.8-17.1,27.3-22.8c0.1-0.1,0.2-0.1,0.3-0.2c9.2-5,16.8-12.6,21.5-22
		c2.2-4.3,4.2-8.6,6.2-13l17-38.1c10-22.3,22.9-43,38.3-61.5l45-53.9c8-9.5,8.1-22.9,0.3-32.6c-7.8-9.7-20.9-12.4-31.9-6.6
		l-30.9,16.2c-56.6,29.8-101.9,75.3-130.7,131.5c-2.5,4.8-5.1,9.5-7.8,14.1c-5.2,8.8-9.5,18.2-13.1,27.8c-3.7,10-8,19.9-12.8,29.4
		c-3.1,6.1-7,11.8-11.6,16.8l-14.4,15.8l6.7,5.1l32-34.9c17.1-18.8,31.7-39.8,43.4-62.6c26.5-51.6,68-93.4,120-120.7l8-4.2l1.5-0.8
		C339.5,104.7,344.6,111,340.9,115.5L340.9,115.5z"/>
	<path class="st22" d="M149.8,145c-0.6,0-1.3-0.1-1.8-0.4c-2.1-1-2.9-3.5-1.9-5.6c5.6-11.5,12.2-22.8,19.4-33.4
		c1.3-1.9,3.9-2.4,5.8-1.1c1.9,1.3,2.4,3.9,1.1,5.8c-7,10.3-13.4,21.2-18.8,32.4C152.9,144.2,151.4,145,149.8,145z"/>
	<path class="st22" d="M136.5,177.6c-0.4,0-0.9-0.1-1.3-0.2c-2.2-0.7-3.4-3.1-2.6-5.3c1.1-3.3,2.3-6.5,3.5-9.7
		c0.8-2.2,3.2-3.3,5.4-2.4c2.2,0.8,3.3,3.2,2.4,5.4c-1.2,3.1-2.3,6.3-3.4,9.4C139.9,176.5,138.2,177.6,136.5,177.6z"/>
	<path class="st22" d="M287.1,314.7c-1.6,0-3.1-0.9-3.8-2.4c-1-2.1,0-4.6,2.1-5.6l24.7-11.4c2.1-1,4.6,0,5.6,2.1
		c1,2.1,0,4.6-2.1,5.6l-24.7,11.4C288.2,314.6,287.6,314.7,287.1,314.7z"/>
	<path class="st22" d="M257.1,186.4c-1,0-2-0.4-2.8-1.1c-1.7-1.6-1.8-4.2-0.3-5.9c2.1-2.3,4.2-4.6,6.4-6.8c1.6-1.7,4.3-1.7,5.9-0.1
		c1.7,1.6,1.7,4.3,0.1,5.9c-2.1,2.2-4.2,4.4-6.2,6.6C259.4,185.9,258.3,186.4,257.1,186.4z"/>
	<path class="st22" d="M223.5,232.5c-0.7,0-1.4-0.2-2.1-0.6c-2-1.2-2.7-3.7-1.5-5.7c5.8-10.1,12.3-19.8,19.3-29
		c1.4-1.8,4-2.2,5.9-0.8c1.8,1.4,2.2,4,0.8,5.9c-6.8,8.9-13.1,18.4-18.7,28.1C226.3,231.8,224.9,232.5,223.5,232.5z"/>
	<ellipse transform="matrix(0.6208 -0.784 0.784 0.6208 -104.4686 367.7896)" class="st22" cx="328" cy="291.9" rx="4.2" ry="4.2"/>
	<polygon class="st9" points="58.3,309.5 116.5,340.4 126.3,331.4 170,370.8 170,385.3 204.9,423 183.6,439.7 144,448.5 66.5,490.2 
		43.6,479.6 42.2,405.8 	"/>
	<path class="st10" d="M211.6,419.1l-6.2-4.4c-11.5-8.1-21.4-18.2-29.2-29.8c-2.4-3.5-2-8.1,0.8-11.2l0-0.1l0,0
		c1.8-2,1.2-5.3-1.2-6.5v0c-18.4-9.6-34.2-23.8-45.7-41.1l-0.3-0.4c-1.5-2.3-4.8-2.5-6.6-0.5l0,0c-1.1,1.2-2.2,2.6-3.1,3.9
		c-1.9,2.8-5.4,4.1-8.6,3.2c-16.7-4.7-31.9-13.4-44.4-25.7l-4-4c0,0-6.6-6.4-11.1-15L46,298.7c-6.7,12.8-8.4,27.7-4,41.5
		c2.9,9.1,2.6,20-0.9,32.4c-7.1,25.3-13.9,63.7-6,102.9c1.4,6.8,5.1,12.9,10.6,17.3c4.7,3.7,10.2,5.8,16,6.3c0,0,0,0,0,0
		c0.8,0.1,1.5,0.1,2.3,0.1c3.5,0,7-0.6,10.4-1.9c24.2-9.2,49.4-22.3,74.9-39.1c9.3-6.1,21.5-9.5,36.1-9.9
		c12.1-0.3,23.9-4.9,33.1-12.8l8.3-7.2C226.8,428.1,217.8,423.4,211.6,419.1z M70.1,320.3c11.5,9.1,24.5,15.8,38.6,19.8
		c2.6,0.7,3.3,4.1,1.2,5.7c-0.7,0.5-1.3,1-2.1,1.5c-21,13.7-34.8,32.8-38.8,53.6c-2.3,11.9-3.6,23.5-3.8,34.5
		c-0.1,4.6-1.5,9.2-3.8,13.2c-0.3,0.5-0.6,1-0.8,1.4c-0.9,1.6-3.3,1-3.4-0.8c-1.6-26.7,3.2-51.9,8.3-69.9c4.8-17.2,5-33,0.6-46.8
		c-1-3.2-1.4-6.5-1.3-9.8C64.9,320.1,68,318.7,70.1,320.3z M67.7,471.6c-1.1,2-3.7,2.8-5.7,1.7c-0.2-0.1-0.5-0.3-0.7-0.5
		c-1.5-1.3-1.9-3.5-1-5.2c11.9-21.7,27.2-45.2,45.4-69.7c10.1-13.7,15.8-30.8,16.6-49.5c0.1-3,0.7-5.9,1.7-8.6
		c0.8-2.2,3.7-2.6,5.1-0.8c9.3,11.9,20.7,22.2,33.5,30.2c2,1.3,1.8,4.2-0.3,5.2c-1.1,0.5-2.2,1-3.4,1.4c-23.7,7.9-41.7,20.3-53.7,37
		C90.3,433.6,77.6,453.4,67.7,471.6z M184.7,422.9c-19.4,0.5-36,5.2-49.3,14C118,448.4,100.8,458,84,465.7c-1.4,0.6-2.8-0.9-2-2.2
		c0.6-1,1.2-2.1,1.9-3.1c2.1-3.5,5.2-6.4,8.8-8.2c8.9-4.5,17.9-9.6,27.1-15.3c18.2-11.2,31.5-28.8,37.5-49.6c0,0,0,0,0,0
		c0.4-1.4,1.6-2.6,3-3.1c0.4-0.2,0.9-0.3,1.3-0.4l0.8-0.3c1.4-0.5,3,0.1,3.8,1.4c7.1,11.6,16,21.9,26.4,30.6c2.4,2,1.5,5.7-1.5,6.5
		C189.1,422.6,186.9,422.9,184.7,422.9z"/>
</g>
</svg>
