<?xml version="1.0" encoding="utf-8"?>
<!-- Generator: Adobe Illustrator 20.0.0, SVG Export Plug-In . SVG Version: 6.00 Build 0)  -->
<svg version="1.1" id="Layer_1" xmlns="http://www.w3.org/2000/svg" xmlns:xlink="http://www.w3.org/1999/xlink" x="0px" y="0px"
	 viewBox="0 0 500 500" style="enable-background:new 0 0 500 500;" xml:space="preserve">
<style type="text/css">
	.st0{fill:#8AA77B;}
	.st1{fill:#365219;}
	.st2{fill:#6E9635;}
	.st3{fill:none;stroke:#365219;stroke-linecap:round;stroke-miterlimit:10;}
	.st4{fill:none;stroke:#FFFFFF;stroke-linecap:round;stroke-miterlimit:10;}
	.st5{fill:#90C53E;}
	.st6{fill:#218100;}
	.st7{fill:#5ABC18;}
	.st8{fill:#1C6600;}
	.st9{fill:#5ABC18;stroke:#1C6600;stroke-linecap:round;stroke-linejoin:round;stroke-miterlimit:10;}
	.st10{fill:#00FFFF;}
	.st11{clip-path:url(#SVGID_2_);}
	.st12{fill:none;stroke:#FFFFFF;stroke-linecap:round;stroke-linejoin:round;stroke-miterlimit:10;}
	.st13{fill:#318F00;}
	.st14{fill:#006837;}
	.st15{fill:#FFFFFF;}
	.st16{fill:none;stroke:#218100;stroke-linecap:round;stroke-linejoin:round;stroke-miterlimit:10;}
	.st17{fill:#90C53E;stroke:#218100;stroke-width:3;stroke-miterlimit:10;}
	.st18{fill:#90C53E;stroke:#218100;stroke-miterlimit:10;}
	.st19{fill:#3D7519;}
	.st20{fill:none;stroke:#365219;stroke-width:0.9309;stroke-linecap:round;stroke-miterlimit:10;}
	.st21{fill:none;stroke:#365219;stroke-width:1.1845;stroke-linecap:round;stroke-miterlimit:10;}
	.st22{fill:none;stroke:#365219;stroke-width:3;stroke-linecap:round;stroke-linejoin:round;stroke-miterlimit:10;}
	.st23{fill:#95B284;}
	.st24{fill:#567F0E;}
</style>
<path class="st7" d="M415.7,434.4c-10,0-23.4-2.8-37.8-7.8c-0.7,2.5-2.4,4.6-4.7,5.8c-1.4,0.7-2.9,1.1-4.4,1.1
	c-1.4,0-2.8-0.3-4.1-0.9c-9.6-4.6-19.4-10-29.2-16c-0.9,1.2-2.1,2.1-3.4,2.8c-1.3,0.6-2.7,0.9-4.1,0.9c-1.5,0-2.9-0.3-4.3-1
	c-9.1-4.6-18.2-9.9-27.2-15.9c-1,1.7-2.6,3-4.4,3.8c-1.2,0.5-2.4,0.7-3.7,0.7c-2,0-4-0.6-5.7-1.9c-13.1-9.8-25.9-20.9-38.1-33.1
	c-0.4-0.4-0.9-0.9-1.3-1.4c-9.3,8.9-19,17.1-28.8,24.5c-1.7,1.2-3.7,1.9-5.7,1.9c-1.2,0-2.5-0.2-3.7-0.7c-1.5-0.6-2.8-1.6-3.8-2.9
	c-7.5,4.9-15,9.3-22.6,13.2c-1.4,0.7-2.8,1-4.3,1c-1.4,0-2.8-0.3-4.1-0.9c-1.1-0.5-2.1-1.2-2.9-2.1c-8.4,5.2-16.8,9.8-25,13.8
	c-1.3,0.6-2.7,0.9-4.1,0.9c-1.5,0-3-0.3-4.3-1c-2-1-3.5-2.7-4.4-4.6c-12.7,4.4-24.4,6.8-33.3,6.8c-6.3,0-10.6-1.3-13.4-4.1
	c-2.5-2.5-5.5-7.5-3.4-22.5c0.7-5.3,2.4-13.3,5.9-23.6c-2-0.9-3.7-2.4-4.7-4.4c-1.4-2.6-1.4-5.8-0.1-8.5c3.9-8.3,8.5-16.6,13.7-25
	c-0.8-0.8-1.5-1.7-2-2.8c-1.3-2.7-1.3-5.8,0.1-8.4c3.9-7.8,8.4-15.6,13.5-23.2c-1.2-1-2.2-2.3-2.9-3.8c-1.3-3.1-0.9-6.7,1.2-9.3
	c7.4-9.9,15.6-19.5,24.5-28.8c-0.5-0.4-0.9-0.9-1.4-1.3c-12.2-12.2-23.3-25-33.1-38.1c-2-2.7-2.5-6.2-1.2-9.3
	c0.8-1.9,2.1-3.4,3.8-4.4c-5.8-8.8-11-17.6-15.5-26.5c-1.3-2.6-1.4-5.7-0.1-8.4c0.7-1.4,1.7-2.6,2.9-3.5
	c-6.1-9.8-11.5-19.6-16.1-29.2c-1.3-2.7-1.3-5.8,0.1-8.4c1.2-2.3,3.3-4.1,5.8-4.8c-6.6-19.1-12.3-44.3-3.7-52.8
	c2.9-2.9,7.5-4.3,14.3-4.3c10,0,23.4,2.8,37.8,7.8c0.7-2.5,2.4-4.6,4.7-5.8c1.4-0.7,2.9-1.1,4.4-1.1c1.4,0,2.8,0.3,4.1,0.9
	c9.6,4.6,19.4,10,29.2,16c0.9-1.2,2.1-2.1,3.4-2.8c1.3-0.6,2.7-0.9,4.1-0.9c1.5,0,2.9,0.3,4.3,1c9.1,4.6,18.2,9.9,27.2,15.9
	c1-1.7,2.6-3,4.4-3.8c1.2-0.5,2.4-0.7,3.7-0.7c2,0,4,0.6,5.7,1.9c13.1,9.8,25.9,20.9,38.1,33.1c0.4,0.4,0.9,0.9,1.3,1.4
	c9.5-9.1,19.4-17.6,29.4-25.1c1.7-1.2,3.7-1.9,5.7-1.9c1.2,0,2.5,0.2,3.7,0.7c1.5,0.6,2.8,1.6,3.8,2.9c7.5-4.9,15-9.3,22.6-13.2
	c1.4-0.7,2.8-1,4.3-1c1.4,0,2.8,0.3,4.1,0.9c1.1,0.5,2.1,1.2,2.9,2.1c8.4-5.2,16.8-9.8,25-13.8c1.3-0.6,2.7-0.9,4.1-0.9
	c1.5,0,3,0.3,4.3,1c2,1,3.5,2.7,4.4,4.6c12.7-4.4,24.4-6.8,33.3-6.8c6.3,0,10.6,1.3,13.4,4.1c2.5,2.5,5.5,7.5,3.4,22.5
	c-0.7,5.3-2.4,13.3-5.9,23.6c2,0.9,3.7,2.4,4.7,4.4c1.4,2.6,1.4,5.8,0.1,8.5c-3.9,8.3-8.5,16.6-13.7,25c0.8,0.8,1.5,1.7,2,2.8
	c1.3,2.7,1.3,5.8-0.1,8.4c-3.9,7.8-8.4,15.6-13.5,23.2c1.2,1,2.2,2.3,2.9,3.8c1.3,3.1,0.9,6.7-1.2,9.4c-7.5,10.1-16,20-25.1,29.5
	c0.5,0.4,0.9,0.9,1.4,1.3c12.2,12.2,23.3,25,33.1,38.1c2,2.7,2.5,6.2,1.2,9.3c-0.8,1.9-2.1,3.4-3.8,4.4c5.8,8.8,11,17.6,15.5,26.5
	c1.3,2.6,1.4,5.7,0.1,8.4c-0.7,1.4-1.7,2.6-2.9,3.5c6.1,9.8,11.5,19.6,16.1,29.2c1.3,2.7,1.3,5.8-0.1,8.4c-1.2,2.3-3.3,4.1-5.8,4.8
	c6.6,19.1,12.3,44.3,3.7,52.8C427.1,433,422.6,434.4,415.7,434.4C415.7,434.4,415.7,434.4,415.7,434.4z"/>
<line class="st7" x1="128.5" y1="367.3" x2="365.1" y2="130.8"/>
<path class="st15" d="M107.1,112.5c-0.8,0-1.6-0.3-2.2-0.9l-7.8-7.8c-1.2-1.2-1.2-3.2,0-4.5s3.2-1.2,4.5,0l7.8,7.8
	c1.2,1.2,1.2,3.2,0,4.5C108.7,112.2,107.9,112.5,107.1,112.5z"/>
<path class="st15" d="M399.2,404.6c-0.8,0-1.6-0.3-2.2-0.9l-7.8-7.8c-1.2-1.2-1.2-3.2,0-4.5s3.2-1.2,4.5,0l7.8,7.8
	c1.2,1.2,1.2,3.2,0,4.5C400.8,404.3,400,404.6,399.2,404.6z"/>
<path class="st15" d="M193.6,251.8c-15.6,0.8-34.2,5.3-44.7,15.8c-1.2,1.2-1.2,3.2,0,4.5c0.6,0.6,1.4,0.9,2.2,0.9s1.6-0.3,2.2-0.9
	c8.7-8.7,26.2-14.1,45.8-14.1c0.1,0,0.1,0,0.2,0C197.4,255.9,195.5,253.8,193.6,251.8z"/>
<path class="st15" d="M267,149.6c-1.2-1.2-3.2-1.2-4.5,0c-10.6,10.6-15,29.4-15.8,45.1c2.1,1.8,4.1,3.6,6.2,5.6c0-0.1,0-0.3,0-0.4
	c0-19.5,5.4-37.1,14.1-45.8C268.2,152.8,268.2,150.8,267,149.6z"/>
<line class="st7" x1="200.1" y1="203" x2="291.5" y2="294.4"/>
<path class="st7" d="M266.2,268.8c0,0,8.2-5.1,20-3.1"/>
<path class="st7" d="M266.1,268.9c0,0-5.1,8.2-3.1,20"/>
<path class="st7" d="M224.4,227c0,0-8.2,5.1-20,3.1"/>
<path class="st7" d="M224.5,226.9c0,0,5.1-8.2,3.1-20"/>
<circle class="st15" cx="103.1" cy="396.8" r="3.2"/>
<circle class="st15" cx="392.7" cy="103.2" r="3.2"/>
<circle class="st15" cx="99.2" cy="101.5" r="3.2"/>
<circle class="st15" cx="90.3" cy="92.6" r="3.2"/>
<circle class="st15" cx="190.2" cy="193.3" r="3.2"/>
<circle class="st15" cx="139.5" cy="280.7" r="3.2"/>
<circle class="st15" cx="277.1" cy="140.8" r="3.2"/>
<path class="st8" d="M443,404.2c-0.7-5.2-2.1-12.4-4.8-21.4c-0.3-1-0.1-2.2,0.6-3c1.5-2,2.7-4.3,3.3-6.8c1.2-4.5,0.5-9.3-1.5-13.5
	c-3.6-7.5-7.7-15-12.1-22.5c-0.1-1-0.2-1.9-0.2-2.9c1.9-5,1.6-10.6-0.8-15.4c-3.4-6.7-7.1-13.3-11.2-19.9c-0.6-0.9-0.7-2.1-0.2-3.1
	c0.4-0.9,0.7-1.8,0.9-2.7c1.5-5.7,0-11.8-3.5-16.5c-8.6-11.4-18.2-22.7-28.5-33.4c7-7.7,13.5-15.6,19.5-23.6
	c4-5.4,4.9-12.5,2.3-18.7c-0.1-0.1-0.1-0.3-0.2-0.4c3.8-6.2,7.3-12.4,10.5-18.7c2.5-4.9,2.7-10.5,0.7-15.6c4-6.8,7.6-13.6,10.9-20.3
	c1.9-4,2.6-8.6,1.6-12.9c-0.7-2.9-2-5.6-3.8-7.7c2-6.7,3.5-13.2,4.3-19.1c2.1-14.8,0.2-24.2-6.1-30.5c-6.9-6.9-16.9-6.9-20.2-6.9
	c-8.3,0-18.8,1.9-30.1,5.3c-1-0.8-2.1-1.5-3.3-2.1c-2.7-1.4-5.7-2.1-8.6-2.1c-2.8,0-5.6,0.6-8.2,1.9c-6.9,3.3-13.8,7-20.8,11.2
	c-2.3-0.9-4.7-1.4-7.1-1.4c-3,0-5.9,0.7-8.6,2.1c-6,3.1-12,6.5-18,10.2c-0.1-0.1-0.3-0.1-0.4-0.2c-2.4-1-4.8-1.5-7.3-1.5
	c-4,0-8,1.3-11.4,3.8c-8,6-15.9,12.5-23.6,19.5C246,104.7,234.6,95,223,86.4c-3.3-2.5-7.3-3.8-11.4-3.8c-2.5,0-5,0.5-7.3,1.5
	c-0.5,0.2-1.1,0.5-1.6,0.8c-7.3-4.6-14.7-8.8-22.1-12.5c-2.7-1.4-5.6-2-8.6-2c-2.8,0-5.5,0.6-8.1,1.8c-8.2-4.9-16.4-9.3-24.5-13.1
	c-2.6-1.2-5.4-1.9-8.2-1.9c-3,0-6,0.7-8.7,2.1c-1.6,0.8-3,1.8-4.2,3c-12.8-3.9-24.6-6-34-6h0c-6,0-14.7,0.7-21.1,7.1
	c-6.6,6.6-8.5,16.6-6.2,32.6c0.8,5.5,2.3,13.3,5.4,23.1c-2.1,2.2-3.6,5-4.4,8.1c-1.2,4.5-0.5,9.3,1.5,13.5c3.8,7.9,8.2,15.9,13,24v0
	c-2.5,5.3-2.5,11.5,0.2,16.8c3.7,7.2,7.7,14.3,12.2,21.4c-0.3,0.5-0.5,1-0.7,1.6c-2.6,6.2-1.7,13.3,2.3,18.7
	c8.7,11.6,18.4,23,28.9,33.9c-6.8,7.5-13.1,15.2-18.9,22.9c-4,5.4-4.9,12.5-2.3,18.7c0.1,0.1,0.1,0.3,0.2,0.4
	c-3.8,6.2-7.3,12.4-10.5,18.7c-2.5,4.9-2.7,10.5-0.7,15.6c-4,6.8-7.6,13.6-10.9,20.3c-1.9,4-2.6,8.6-1.6,12.9c0.7,2.9,2,5.5,3.8,7.7
	c-2,6.7-3.5,13.2-4.3,19.1c-2.1,14.8-0.2,24.2,6.1,30.5c6.9,6.9,16.9,6.9,20.2,6.9c8.3,0,18.8-1.9,30.1-5.3c1,0.8,2.1,1.5,3.3,2.1
	c2.7,1.4,5.7,2.1,8.6,2.1c2.8,0,5.6-0.6,8.2-1.9c6.9-3.3,13.8-7,20.8-11.2c2.3,0.9,4.7,1.4,7.1,1.4c3,0,5.9-0.7,8.6-2.1
	c6-3.1,12-6.5,18-10.2c0.1,0.1,0.3,0.1,0.4,0.2c2.4,1,4.8,1.5,7.3,1.5c4,0,8-1.3,11.4-3.8c7.8-5.8,15.4-12.1,22.9-18.9
	c10.9,10.5,22.3,20.2,34,28.9c3.3,2.5,7.3,3.8,11.4,3.8c2.5,0,5-0.5,7.3-1.5c0,0,0,0,0,0c1-0.4,2.2-0.4,3.1,0.2
	c6.8,4.2,13.7,8.1,20.6,11.6c2.7,1.4,5.6,2,8.6,2c2.3,0,4.6-0.4,6.7-1.2c0.9-0.4,2-0.2,2.8,0.3c7.7,4.5,15.5,8.6,23.1,12.3
	c2.6,1.2,5.4,1.9,8.2,1.9c3,0,6-0.7,8.7-2.1c1-0.5,2-1.2,2.9-1.9c0.9-0.7,2-0.9,3-0.6c12.1,3.6,23.3,5.5,32.2,5.5
	c6,0,14.7-0.7,21.1-7.1C443.3,430.2,445.3,420.2,443,404.2z M305.4,279.1c3,4.6,5.5,8.9,7.5,13c0.3,0.7-0.1,1.5-0.8,1.7l-1.2,0.2
	c-0.7,0.1-1.1,0.9-0.9,1.6c4.5,11.5,4.7,19.1,3.5,20.3c-0.4,0.4-1.4,0.6-3.1,0.6c-3.4,0-9.4-1-17-4c-0.7-0.3-1.5,0.2-1.6,0.9
	l-0.2,1.2c-0.1,0.8-1,1.2-1.7,0.9c-4.1-2-8.4-4.5-13-7.4c-0.7-0.5-1.6-0.1-1.8,0.7l-0.1,0.5c-0.2,0.8-1,1.2-1.7,0.8
	c-4-2.1-8.2-4.7-12.5-7.7c-0.7-0.5-1.7-0.1-1.9,0.8l-0.1,0.6c-0.1,0.9-1.2,1.3-1.9,0.8c-4.4-3.4-9-7.4-13.5-11.9
	c-9.9-9.9-7.1-27.8-0.1-38.6c0.7-1,2.1-1.1,3-0.3l14.1,14.1c1,1,1.3,2.4,0.9,3.7c-1.4,3.9-2.8,10.1-1.5,17.7
	c0.3,1.5,1.6,2.6,3.1,2.6c0.2,0,0.4,0,0.6-0.1c1.7-0.3,2.8-2.1,2.5-3.8c-0.8-4.7-0.2-8.8,0.5-11.9c0.2-0.8,1.2-1.1,1.8-0.5
	l20.9,20.9c0.6,0.6,1.4,0.9,2.2,0.9c0.9,0,1.8-0.4,2.4-1.1c1.1-1.3,0.9-3.2-0.3-4.4l-20.9-20.9c-0.6-0.6-0.3-1.6,0.5-1.8
	c3.1-0.8,7.4-1.4,12.5-0.6c1.9,0.3,3.7-1.2,3.7-3.2c0-1.6-1.3-2.8-2.8-3.1c-7.7-1.3-14,0.3-17.9,1.7c-1.3,0.5-2.8,0.1-3.7-0.8
	l-14.3-14.3c-0.8-0.8-0.7-2.2,0.2-2.9c6.3-4.8,13.9-7.4,21.1-7.4c6.8,0,13.4,2.3,18.2,7.2c4.5,4.5,8.4,9,11.9,13.4
	c0.5,0.7,0.1,1.7-0.8,1.9l-0.6,0.1c-0.9,0.1-1.3,1.1-0.8,1.9c3,4.2,5.5,8.3,7.6,12.2c0.4,0.7,0,1.5-0.8,1.7l-0.6,0.1
	C305.4,277.5,305,278.4,305.4,279.1z M195,237.1c-3.2-4.4-5.9-8.8-8.1-13c-0.3-0.5,0-1.1,0.6-1.3l1.4-0.3c0.6-0.1,0.9-0.8,0.5-1.3
	c-3.2-4.8-5.8-9.4-7.9-13.7c-0.3-0.5,0.1-1.1,0.6-1.2l2-0.4c0.5-0.1,0.9-0.7,0.6-1.2c-4.6-11.7-4.8-19.5-3.6-20.7
	c0.4-0.4,1.4-0.6,3.1-0.6c3.5,0,9.5,1.1,17.3,4.2c0.5,0.2,1.1-0.1,1.2-0.7l0.3-2c0.1-0.6,0.7-0.9,1.2-0.6c4.3,2.1,8.9,4.7,13.7,7.9
	c0.5,0.3,1.2,0.1,1.3-0.5l0.3-1.3c0.1-0.6,0.7-0.9,1.3-0.6c4.3,2.2,8.7,4.9,13.3,8.2c0.5,0.4,1.3,0.1,1.4-0.6l0.2-1.6
	c0.1-0.7,0.9-1,1.4-0.6c4.6,3.5,9.2,7.5,13.9,12.2c6.9,6.9,7.6,17.7,5.1,27.3c-0.3,0.9-0.9,1.7-1.8,2.1c-2.6,1.3-5.1,2.8-7.4,4.6
	c-1.3,1-3.2,0.9-4.4-0.3l-13.5-13.5c-0.5-0.5-0.7-1.3-0.4-2c1.5-3.7,3.5-10.5,2.1-18.9c-0.2-1.5-1.5-2.8-3.1-2.8
	c-2,0-3.5,1.8-3.2,3.7c0.7,4.4,0.4,8.2-0.3,11.2c-0.3,1.4-2.1,1.9-3.1,0.9l-18.6-18.6c-1.2-1.2-3.2-1.4-4.5-0.2
	c-1.4,1.2-1.4,3.3-0.1,4.6l18.5,18.5c1,1,0.5,2.8-0.9,3.1c-2.8,0.6-6.3,0.8-10.3,0.2c-1.7-0.3-3.4,0.7-3.8,2.4
	c-0.4,1.8,0.8,3.5,2.6,3.8c2.1,0.3,4.1,0.5,5.9,0.5c5.4,0,9.8-1.2,12.6-2.3c0.7-0.3,1.5-0.1,2,0.4l13.8,13.8c1.2,1.2,1.3,3,0.4,4.3
	c-1.6,2.4-3,5-4.2,7.8c-0.4,0.9-1.2,1.6-2.1,1.9c-3.2,1-6.5,1.5-9.7,1.5c-6.8,0-13.4-2.3-18.2-7.2c-4.6-4.6-8.7-9.3-12.2-13.9
	c-0.4-0.5-0.1-1.3,0.6-1.4l1.6-0.2C195.1,238.4,195.4,237.6,195,237.1z M309.1,260c-0.3-1.4-1-3.2-2.2-4.8
	c-3.6-4.7-7.7-9.3-12.1-13.7c-5.8-5.8-13.9-9-22.7-9h0c-1.1,0-1.6-1.3-0.8-2l26.7-26.7c0.9-0.9,2.4-1.2,3.6-0.6
	c5.5,2.9,14.9,6.5,27.2,6.5c3.4,0,6.9-0.3,10.7-0.9c1.5-0.2,2.7-1.5,2.7-3c0-2-1.8-3.5-3.7-3.2c-12.2,2-22.1-0.2-28.2-2.4
	c-0.7-0.2-1.3-0.5-2-0.8c-2-0.8-2.6-3.5-1-5l26-26c0.9-0.9,2.1-1.1,3.3-0.7c4.3,1.6,10.7,3.4,18.8,3.4c2.8,0,5.7-0.2,8.8-0.7
	c1.5-0.3,2.8-1.5,2.8-3.1c0-2-1.8-3.5-3.7-3.2c-7.8,1.3-14.5,0.5-19.5-0.8c-1.9-0.5-2.5-2.8-1.1-4.1l25.3-25.3
	c1.2-1.2,1.4-3.2,0.2-4.5c-1.2-1.4-3.3-1.4-4.6-0.1l-26,26c-1.6,1.6-4.4,1-5.1-1.2c-1.7-5.1-3.2-13-1.6-22.3
	c0.2-1.3-0.4-2.7-1.5-3.3c-2.1-1.1-4.4,0.2-4.7,2.2c-2.4,14.6,1.7,25.9,4,30.7c0.6,1.2,0.3,2.6-0.6,3.5L302,190.7
	c-1.5,1.5-4,1.1-4.9-0.8c-3.1-6.3-7.2-18-4.7-33.3c0.3-1.7-0.7-3.5-2.4-3.8c-1.8-0.4-3.5,0.8-3.8,2.6c-3.4,20.4,3.6,34.9,7.1,40.8
	c0.7,1.2,0.5,2.8-0.5,3.8l-26.9,26.9c-0.8,0.8-2,0.2-2-0.9c0.3-9.3-2.5-17.4-8.3-23.1c-5-5-11.6-11.1-17.6-14.7
	c2.2-19,9.8-37.3,21.3-48.7c10.1-10.1,20.1-18.8,30.1-26.4c1.1-0.9,2.8-0.2,3,1.2l0.5,3.6c0.2,1.4,1.8,2.1,3,1.3
	c9.7-6.9,19.1-12.7,28.2-17.5c1.1-0.6,2.4,0.1,2.7,1.3l0.7,3c0.3,1.3,1.8,1.9,2.9,1.2c10.5-6.9,20.5-12.6,29.8-17.2
	c1.1-0.6,2.4,0.1,2.7,1.4l0.8,4.3c0.2,1.2,1.4,1.8,2.6,1.4c17.2-6.8,30.5-9.2,38.1-9.2c3.6,0,5.9,0.5,6.7,1.4
	c2.6,2.6,2.2,19.3-7.7,44.4c-0.4,1.1,0.2,2.4,1.4,2.6l4.3,0.7c1.2,0.2,1.9,1.5,1.4,2.7c-4.5,9.3-10.2,19.2-17.1,29.8
	c-0.7,1.1-0.1,2.6,1.2,2.9l3,0.6c1.2,0.3,1.9,1.6,1.3,2.7c-4.8,9.3-10.7,19-17.8,28.8c-0.8,1.2-0.1,2.8,1.3,3l3.6,0.5
	c1.4,0.2,2.1,1.9,1.2,3c-7.6,9.9-16.4,20-26.5,30.1C348.7,252.5,328.8,258.8,309.1,260z M104,214.9c-1.1-1.4-0.2-3.5,1.5-3.7
	l3.5-0.5c1.7-0.2,2.6-2.2,1.5-3.6c-7.7-10.8-14.2-21.4-19.6-31.6c-0.7-1.3,0.1-3,1.6-3.3l3-0.7c1.6-0.3,2.3-2.2,1.4-3.5
	c-7.7-11.8-14.1-23-19.3-33.4c-0.7-1.4,0.1-3,1.6-3.3l4.4-0.8c1.4-0.3,2.3-1.8,1.7-3.1c-11.4-28.6-11.8-47.8-8.8-50.7
	c0.9-0.9,3.6-1.5,7.6-1.5c8.5,0,23.4,2.6,42.5,10.2c1.4,0.5,2.9-0.3,3.1-1.8l0.8-4.4c0.3-1.5,1.9-2.4,3.3-1.7
	c10.4,5.1,21.6,11.4,33.3,19.1c1.4,0.9,3.2,0.1,3.5-1.5l0.6-2.9c0.3-1.5,2-2.3,3.3-1.6c10.4,5.4,21.2,12,32.3,19.9
	c1.4,1,3.4,0.2,3.6-1.5l0.5-3.5c0.2-1.8,2.3-2.6,3.7-1.5c11.2,8.6,22.6,18.5,33.9,29.8l3.3,4c-11,12.5-18.5,30.9-20.5,50.6
	c-0.4-0.2-0.9-0.4-0.9-0.5c-2.6-1.6-5.2-3.1-7.9-4.4c-0.9-0.5-1.9-0.7-2.9-0.7c-0.9,0-1.9,0.2-2.8,0.6c-0.2,0.1-0.4,0.2-0.6,0.3
	c-3.5-2.1-7.1-4-10.5-5.7c-0.9-0.4-1.8-0.6-2.7-0.6c-1,0-2,0.2-2.9,0.7c-0.8,0.4-1.4,0.9-1.9,1.6c-1-0.3-2-0.6-3-0.9
	c3.5-8.6,6.5-21.5,3.9-37.7c-0.3-1.7-1.8-3-3.5-2.8c-1.8,0.2-3.1,1.9-2.8,3.7c2.3,13.7,0,25-2.9,32.8c-0.6,1.5-2.1,2.5-3.7,2.4
	c-0.8-0.1-1.5-0.1-2.2-0.1c-0.8,0-1.7,0-2.6,0.2c-1.1,0.2-2.3-0.2-3.1-1l-26.2-26.2c-1-1-1.4-2.6-0.8-4c2.6-6.1,6.3-18,3.9-33.2
	c-0.3-1.5-1.5-2.8-3.1-2.8c-2.1,0-3.5,1.8-3.2,3.7c1.8,11.1-0.1,20.3-2.1,26.3c-0.6,1.7-2.6,2.1-3.9,0.9l-20.6-20.6
	c-1.2-1.2-3.2-1.4-4.5-0.2c-1.4,1.2-1.4,3.3-0.1,4.6l20.7,20.7c1.2,1.2,0.7,3.3-0.9,3.9c-5.9,2-15.2,3.9-26.3,2.1
	c-1.8-0.3-3.5,1-3.7,2.8c-0.2,1.7,1.1,3.2,2.9,3.5c3.5,0.6,6.8,0.8,9.9,0.8c10.4,0,18.5-2.7,23.2-4.7c1.4-0.6,2.9-0.3,4,0.8
	l25.7,25.7c0.9,0.9,1.2,2.2,1,3.4c-0.4,1.6-0.4,3.4-0.3,5.4c0.1,1.6-0.9,3.1-2.4,3.6c-7.7,2.7-18.7,4.8-32,2.6
	c-1.8-0.3-3.5,1-3.7,2.8c-0.2,1.7,1.1,3.2,2.8,3.5c4.3,0.7,8.3,1,12.1,1c10.2,0,18.5-2.2,24.8-4.6c0.3,1.3,0.7,2.5,1.1,3.7
	c-1.2,1-2,2.4-2.2,4.1c-0.2,1.2,0.1,2.5,0.7,3.6c1.7,3.4,3.5,6.9,5.7,10.4c-0.7,1.1-1,2.4-1,3.8c0.1,0.9,0.3,1.7,0.7,2.5
	c1.3,2.5,2.6,4.9,4.1,7.4c-18.3,2.1-34.6,8.2-45.7,17.3c-1,0.8-2.4,0.8-3.4-0.1c-0.7-0.6-1.4-1.2-2-1.9
	C122.5,237.4,112.6,226.1,104,214.9z M241.4,360c-10,10-20,18.7-29.9,26.3c-1.2,1-3,0.2-3.3-1.3l-0.4-3.1c-0.2-1.5-2-2.3-3.2-1.4
	c-9.5,6.8-18.9,12.6-27.9,17.3c-1.2,0.6-2.6-0.1-2.9-1.4l-0.6-2.6c-0.3-1.4-1.9-2-3.1-1.3c-10.4,6.8-20.3,12.5-29.5,17
	c-1.2,0.6-2.6-0.1-2.9-1.5l-0.7-3.9c-0.2-1.3-1.5-2-2.7-1.5c-17.1,6.8-30.4,9.2-38,9.2c-3.6,0-5.9-0.5-6.7-1.4
	c-2.6-2.6-2.2-19.3,7.6-44.3c0.5-1.2-0.3-2.5-1.6-2.7l-3.9-0.7c-1.3-0.2-2.1-1.7-1.5-2.9c4.5-9.2,10.1-19,16.9-29.4
	c0.8-1.2,0.1-2.8-1.3-3.1l-2.6-0.5c-1.3-0.3-2-1.7-1.4-2.9c4.8-9.2,10.6-18.7,17.6-28.5c0.9-1.2,0.2-3-1.4-3.2l-3.1-0.4
	c-1.5-0.2-2.3-2-1.3-3.3c7.6-9.9,16.3-19.9,26.3-29.9c10.2-10.2,26.4-16.3,43.4-18.6c0.9-0.1,1.7,0.4,2,1.2c0.2,0.5,0.5,1,0.8,1.5
	c4,5.4,8.6,10.7,13.7,15.7c5.8,5.8,13.9,9,22.7,9c0.6,0,1.1,0,1.7,0c0,0,0.3-0.1,0.4,0.2c0.1,0.2-0.1,0.4-0.1,0.4l-26.5,26.5
	c-1.4,1.4-3.7,1.7-5.4,0.7c-6.2-3.6-20.5-10.1-40.2-6.8c-1.5,0.2-2.7,1.5-2.7,3.1c0,2,1.8,3.5,3.7,3.2c12.2-2,22.1,0.2,28.2,2.4
	c2.8,1,5.1,2.1,6.9,3.1c1.3,0.7,1.6,2.5,0.5,3.5l-26,26c-1.3,1.3-3.3,1.7-5,0.9c-5-2.3-16-6.1-30.1-3.8c-1.7,0.3-3,1.8-2.8,3.5
	c0.2,1.8,1.9,3.1,3.7,2.8c10.5-1.8,19.2,0.4,24.2,2.3c1.5,0.6,1.9,2.5,0.8,3.7l-26.6,26.6c-1.2,1.2-1.4,3.1-0.3,4.4
	c0.6,0.7,1.5,1.1,2.4,1.1c0.8,0,1.6-0.3,2.2-0.9l25.2-25.2c1.2-1.2,3.3-0.7,3.8,1c1.3,5,2.1,11.6,0.8,19.3c-0.3,1.7,0.8,3.5,2.6,3.8
	c0.2,0,0.4,0,0.6,0c1.5,0,2.9-1.1,3.1-2.6c1.9-11.3-0.1-20.6-2.2-26.4c-0.6-1.6-0.2-3.5,1-4.7l26.2-26.2c1.1-1.1,3-0.8,3.7,0.7
	c2.9,6.7,5.7,17.3,3.5,30.8c-0.3,1.7,0.8,3.5,2.6,3.8c0.2,0,0.4,0,0.5,0c1.5,0,2.9-1.1,3.1-2.6c2.8-16.7-1.4-29.5-4.9-36.8
	c-0.8-1.7-0.5-3.8,0.9-5.1l27.1-27.1c0.8-0.8,2.1-0.2,2,0.9c-0.4,9.4,2.5,17.7,8.3,23.5c5,5,10.3,9.6,15.7,13.7
	c1.1,0.8,2.4,1.3,3.8,1.3c0.8,0,1.7-0.2,2.4-0.5c0.4-0.2,0.8-0.4,1.2-0.7c0.1,0.1,0.3,0.2,0.4,0.3
	C260.5,330.2,252.8,348.6,241.4,360z M423.4,423.4c-0.9,0.9-3.6,1.5-7.6,1.5c-8.3,0-22.6-2.5-41.1-9.6c-2.1-0.8-4.5,0.5-4.8,2.7
	l-0.5,2.8c-0.3,1.6-2,2.4-3.4,1.7c-9.9-4.9-20.5-10.9-31.7-18.1c-2.1-1.4-5-0.2-5.5,2.3l-0.2,1c-0.3,1.5-2,2.3-3.4,1.6
	c-9.9-5.1-20.1-11.3-30.5-18.7c-2.2-1.5-5.3-0.2-5.6,2.4l-0.2,1.3c-0.2,1.8-2.3,2.7-3.8,1.5c-11.2-8.6-22.5-18.4-33.8-29.8
	c-0.1-0.1-0.2-0.2-0.3-0.3c-1.8-1.8-1.9-4.7-0.4-6.7c8.6-10.9,14.9-25.6,17.6-41.5c0.2-1.5,1.9-2.3,3.2-1.6c0.2,0.1,0.4,0.2,0.6,0.3
	c0.9,0.5,1.9,0.7,2.9,0.7c0.9,0,1.9-0.2,2.8-0.6c0.2-0.1,0.4-0.2,0.6-0.3c3.5,2.1,7.1,4,10.5,5.7c0.9,0.4,1.8,0.6,2.7,0.6
	c0.1,0,0.2,0,0.4,0c0.7,0,1.3,0.6,1.1,1.3c-2.3,8.1-3.6,18.6-1.5,31c0.3,1.5,1.6,2.6,3.1,2.6c0.2,0,0.4,0,0.6,0
	c1.7-0.3,2.8-2,2.6-3.8c-2.2-13.4,0-24.5,2.8-32.2c3.8,1,7.3,1.5,10.1,1.5c1.1,0,2.4-0.1,3.7-0.4c0.8-0.2,1.6,0,2.2,0.6l21.4,21.4
	c1.5,1.5,1.9,3.7,1.1,5.6c-2.6,6.2-6.1,18-3.7,33c0.3,1.5,1.6,2.6,3.1,2.6c0.2,0,0.4,0,0.6,0c1.7-0.3,2.8-2,2.6-3.8
	c-1.9-11.5,0.3-21,2.3-26.9c0.5-1.6,2.5-2,3.7-0.9l23.7,23.7c0.6,0.6,1.4,0.9,2.2,0.9c0.9,0,1.8-0.4,2.4-1.1
	c1.1-1.3,0.9-3.2-0.3-4.4L352.3,350c-1.2-1.2-0.7-3.2,0.9-3.7c5.9-2,15-3.7,25.9-1.9c1.8,0.3,3.5-0.9,3.7-2.8
	c0.2-1.7-1.1-3.2-2.8-3.5c-14.2-2.3-25.5,0.8-31.9,3.3c-1.9,0.8-4.1,0.3-5.5-1.1l-21.9-21.9c-0.5-0.5-0.8-1.3-0.6-2.1
	c0.9-3.8,0.2-8.7-1-13.3c7.7-2.7,18.6-4.7,31.7-2.5c1.8,0.3,3.5-0.9,3.7-2.8c0.2-1.7-1.1-3.2-2.8-3.5c-12.2-2-22.5-0.8-30.5,1.4
	c-0.8,0.2-1.4-0.5-1.3-1.2c0.2-1.2,0-2.5-0.6-3.7c-1.5-3.2-3.3-6.4-5.2-9.6c-0.3-0.6-0.3-1.2-0.1-1.8c0.4-0.9,0.6-1.9,0.5-2.9
	c-0.1-0.9-0.3-1.7-0.7-2.5c-1.3-2.5-2.7-5.1-4.3-7.6c21.3-1.3,40.2-8,52.5-18.6c0.3,0.2,0.6,0.4,0.9,0.6c1.1,0.9,2.1,1.9,3.2,2.9
	c11.3,11.3,21.2,22.6,29.7,33.8c1.1,1.4,0.3,3.5-1.5,3.8l-1.3,0.2c-2.7,0.4-4,3.4-2.4,5.6c7.2,10.2,13.3,20.2,18.3,29.9
	c0.7,1.4-0.1,3.1-1.6,3.4l-1.1,0.2c-2.4,0.5-3.6,3.4-2.2,5.5c7.3,11.2,13.3,21.8,18.2,31.8c0.7,1.4-0.1,3.1-1.7,3.4l-2.8,0.5
	c-2.2,0.4-3.5,2.7-2.7,4.8C425.9,401.9,426.2,420.5,423.4,423.4z"/>
<path class="st15" d="M250,275.2c-0.1,0-0.3,0-0.4,0c-1.7-0.2-2.9-1.8-2.7-3.6c1-7.3,4.4-12.9,6.9-15.4c5-5,11.7-7.9,18.2-7.9
	c1.7,0,3.2,1.4,3.2,3.2s-1.4,3.2-3.2,3.2c-4.8,0-9.9,2.3-13.7,6.1c-1.9,1.9-4.4,6.5-5.1,11.8C253,274.1,251.6,275.2,250,275.2z"/>
</svg>
