<?xml version="1.0" encoding="utf-8"?>
<!-- Generator: Adobe Illustrator 20.0.0, SVG Export Plug-In . SVG Version: 6.00 Build 0)  -->
<svg version="1.1" xmlns="http://www.w3.org/2000/svg" xmlns:xlink="http://www.w3.org/1999/xlink" x="0px" y="0px"
	 viewBox="0 0 1000 1000" style="enable-background:new 0 0 1000 1000;" xml:space="preserve">
<style type="text/css">
	.st0{fill:#38590E;}
	.st1{fill:#603813;}
	.st2{fill:none;stroke:#C18200;stroke-width:3;stroke-linecap:round;stroke-linejoin:round;stroke-miterlimit:10;}
	.st3{fill:#304B0A;}
	.st4{fill:#AB4168;}
	.st5{fill:#688800;}
	.st6{fill:#DADADA;}
	.st7{fill:#5F2940;}
	.st8{fill:#519900;}
	.st9{fill:#9556DD;stroke:#3F2C73;stroke-width:6;stroke-miterlimit:10;}
	.st10{fill:#38590E;stroke:#38590E;stroke-width:6;stroke-miterlimit:10;}
	.st11{fill:#3F2C73;stroke:#3F2C73;stroke-width:6;stroke-miterlimit:10;}
	.st12{fill:none;stroke:#648551;stroke-miterlimit:10;}
	.st13{fill:#7B9727;stroke:#386100;stroke-width:3;stroke-linecap:round;stroke-linejoin:round;stroke-miterlimit:10;}
	.st14{fill:#7B9727;stroke:#386100;stroke-width:0.745;stroke-linecap:round;stroke-linejoin:round;stroke-miterlimit:10;}
	.st15{fill:#7B9727;stroke:#386100;stroke-width:3;stroke-miterlimit:10;}
	.st16{fill:#618022;stroke:#386100;stroke-width:3;stroke-linejoin:round;stroke-miterlimit:10;}
	.st17{fill:none;stroke:#45210A;stroke-width:3;stroke-linecap:round;stroke-linejoin:round;stroke-miterlimit:10;}
	.st18{fill:#00FFFF;}
	.st19{clip-path:url(#SVGID_2_);}
	.st20{clip-path:url(#SVGID_4_);}
	.st21{clip-path:url(#SVGID_6_);}
	.st22{fill:#D2C6C6;}
	.st23{fill:#D2C6C6;stroke:#534741;stroke-miterlimit:10;}
	.st24{fill:#B28A5C;stroke:#45210A;stroke-width:3;stroke-linecap:round;stroke-linejoin:round;stroke-miterlimit:10;}
	.st25{fill:none;stroke:#87562E;stroke-miterlimit:10;}
	.st26{fill:none;stroke:#87562E;stroke-linecap:round;stroke-linejoin:round;stroke-miterlimit:10;}
	.st27{fill:none;stroke:#FFFFFF;stroke-linecap:round;stroke-linejoin:round;stroke-miterlimit:10;}
	.st28{fill:none;stroke:#45210A;stroke-linecap:round;stroke-linejoin:round;stroke-miterlimit:10;}
	.st29{fill:#45210A;}
	.st30{fill:#FFFFFF;}
	.st31{fill:#488C00;}
	.st32{fill:#488C00;stroke:#006837;stroke-linejoin:round;stroke-miterlimit:10;}
	.st33{fill:#488C00;stroke:#006837;stroke-width:0.899;stroke-linejoin:round;stroke-miterlimit:10;}
	.st34{fill:#FCEE21;}
	.st35{fill:none;stroke:#FFFFFF;stroke-linecap:round;stroke-miterlimit:10;}
	.st36{fill:#FFCADE;}
	.st37{fill:none;stroke:#386100;stroke-width:4;stroke-linejoin:round;stroke-miterlimit:10;}
	.st38{fill:#386100;}
	.st39{fill:none;stroke:#386100;stroke-width:0.25;stroke-linecap:round;stroke-linejoin:round;stroke-miterlimit:10;}
	.st40{fill:none;stroke:#386100;stroke-linecap:round;stroke-linejoin:round;stroke-miterlimit:10;}
	.st41{fill:#519900;stroke:#386100;stroke-linejoin:round;stroke-miterlimit:10;}
	.st42{fill:none;stroke:#95B22F;stroke-linecap:round;stroke-linejoin:round;stroke-miterlimit:10;}
	.st43{fill:#95B22F;}
	.st44{fill:#B28A5C;}
	.st45{fill:#87562E;}
	.st46{fill:#688625;stroke:#386100;stroke-miterlimit:10;}
	.st47{fill:#6F8B29;stroke:#386100;stroke-miterlimit:10;}
	.st48{fill:#75912D;stroke:#386100;stroke-miterlimit:10;}
	.st49{fill:#7B9727;stroke:#386100;stroke-miterlimit:10;}
	.st50{fill:none;stroke:#386100;stroke-miterlimit:10;}
	.st51{fill:#7B9727;}
	.st52{fill:#618022;}
	.st53{fill:#688625;}
	.st54{fill:#6F8B29;}
	.st55{fill:#75912D;}
	.st56{fill:#AB4168;stroke:#5F2940;stroke-miterlimit:10;}
	.st57{fill:none;stroke:#DADADA;stroke-miterlimit:10;}
	.st58{fill:#779F14;stroke:#38590E;stroke-miterlimit:10;}
	.st59{fill:#648551;}
	.st60{fill:none;stroke:#38590E;stroke-miterlimit:10;}
	.st61{fill:none;stroke:#38590E;stroke-linecap:round;stroke-miterlimit:10;}
	.st62{fill:#779F14;}
	.st63{fill:#9556DD;}
	.st64{fill:#779F14;stroke:#648551;stroke-miterlimit:10;}
	.st65{fill:#648551;stroke:#38590E;stroke-linejoin:round;stroke-miterlimit:10;}
	.st66{fill:none;stroke:#648551;stroke-linecap:round;stroke-miterlimit:10;}
	.st67{fill:#9556DD;stroke:#3F2C73;stroke-width:8;stroke-miterlimit:10;}
	.st68{fill:#3F2C73;}
	.st69{fill:#9A69E8;}
	.st70{fill:#519900;stroke:#386100;stroke-linecap:round;stroke-linejoin:round;stroke-miterlimit:10;}
	.st71{fill:none;stroke:#DAAE67;stroke-linecap:round;stroke-linejoin:round;stroke-miterlimit:10;}
	.st72{fill:#F9ECD9;}
	.st73{fill:#DAAE67;}
	.st74{fill:none;stroke:#FFFFFF;stroke-width:15;stroke-linecap:round;stroke-miterlimit:10;}
	.st75{fill:#A5CC00;}
	.st76{fill:#688800;stroke:#304B0A;stroke-width:6.1368;stroke-miterlimit:10;}
	.st77{fill:none;stroke:#A5CC00;stroke-width:0.9876;stroke-linecap:round;stroke-miterlimit:10;}
	.st78{fill:none;stroke:#DADADA;stroke-width:0.9876;stroke-linecap:round;stroke-miterlimit:10;}
	.st79{fill:none;stroke:#FFFFFF;stroke-width:0.9876;stroke-linecap:round;stroke-miterlimit:10;}
	.st80{fill:#E1D02F;stroke:#C18200;stroke-linejoin:round;stroke-miterlimit:10;}
	.st81{fill:#E1D02F;}
	.st82{fill:#C18200;}
	.st83{fill:#581917;}
	.st84{fill:none;stroke:#C18200;stroke-linecap:round;stroke-linejoin:round;stroke-miterlimit:10;}
	.st85{fill:#779F14;stroke:#38590E;stroke-linecap:round;stroke-linejoin:round;stroke-miterlimit:10;}
	.st86{fill:#38590E;stroke:#304B0A;stroke-width:6;stroke-miterlimit:10;}
	.st87{fill:#779F14;stroke:#647F11;stroke-miterlimit:10;}
	.st88{fill:none;stroke:#647F11;stroke-linecap:round;stroke-miterlimit:10;}
	.st89{fill:none;stroke:#647F11;stroke-miterlimit:10;}
	.st90{fill:#647F11;}
	.st91{fill:#779F14;stroke:#647F11;stroke-linecap:round;stroke-miterlimit:10;}
	.st92{fill:#E1D02F;stroke:#B2A128;stroke-linecap:round;stroke-linejoin:round;stroke-miterlimit:10;}
	.st93{fill:#B2A128;}
	.st94{fill:none;stroke:#B2A128;stroke-linecap:round;stroke-linejoin:round;stroke-miterlimit:10;}
	.st95{fill:#E1D02F;stroke:#B2A128;stroke-width:0.5;stroke-linecap:round;stroke-linejoin:round;stroke-miterlimit:10;}
	.st96{fill:none;stroke:#C18200;stroke-width:4;stroke-linecap:round;stroke-linejoin:round;stroke-miterlimit:10;}
	.st97{fill:#779F14;stroke:#38590E;stroke-linecap:round;stroke-miterlimit:10;}
</style>
<g id="Layer_1">
	<g>
		<g>
			<path class="st0" d="M910.9,642.2c-0.9-0.4-95.8-42.3-171.3-133.4c-59.8-72.2-154.1-121.1-158.1-123.1l-5.7-2.9L437.6,560.4
				c-100.7,13.2-173.1,48.2-221.7,82.1c55.3-135.5,155-312,328.6-450.2c1.6,11.5,7.1,22.7,15.9,32.6c11.7,13.1,27.8,21.9,44.2,24.2
				c4.9,0.7,10,1,15,1c26.1,0,52.3-8.4,66.9-14c11.6-4.5,22.5-9.7,30.9-14.8c13.2-8.1,15.5-13,16-16.7c0.5-3.7-0.3-9-10.8-20.5
				c-6.6-7.2-15.6-15.3-25.5-22.8c-14.9-11.3-44.5-30.9-75.1-35.3c-6.8-1-13.8-0.8-20.7,0.3c-1.5-17.5-7.9-34.2-12.1-43.8
				c-3.6-8-7.7-15.6-11.6-21.3c-5.3-7.7-9.4-11.2-13.9-11.6c-4.4-0.4-9.2,2.3-15.7,8.9c-4.9,4.9-10.3,11.6-15.2,18.9
				c-7.5,10.9-20.3,32.6-22.2,54.5c-1.1,12,2.5,24.9,9.8,35.4c4.8,6.8,10.7,12,17.3,15.3c-97.4,61.8-174.3,134.2-235.1,209
				c-0.3-44.3-7.3-101.3-32.2-161.4c27.4-16.6,35.5-56.5,23.8-84.6c-11.8-28.5-38.2-52.3-52.9-63.9c-9.7-7.7-19.8-14.4-28.5-19
				c-13.7-7.2-19.1-6.7-22.5-5.3c-3.5,1.4-7.6,4.9-12.1,19.7c-2.9,9.3-5.2,21.3-6.7,33.6c-2.1,18.6-4,54,7.9,82.6
				c6.4,15.3,18.9,28.7,34.5,36.8c9.8,5.1,19.9,7.6,29.6,7.6c3.4,0,6.8-0.3,10.1-1c26,126-1.7,219.3-3.8,226.2
				C95.9,690.9,77.4,917.2,77.4,917.2c-1.7,17.1,10.7,32.4,27.8,34.1c1.1,0.1,2.2,0.2,3.2,0.2c15.8,0,29.3-11.9,30.9-27.9
				c0-0.3,3-27.9,13.2-72.9c0,0,8-49.7,32.9-125.5c26.1-37.8,96.9-114.6,256.2-149.2c16.9,9.2,98.3,55,150.1,117.5
				c40.7,49.1,86.6,83.8,117.9,104.4c34,22.3,58.2,32.9,59.2,33.3l5.5,2.4l145.8-187.4L910.9,642.2z"/>
		</g>
		<g>
			<path class="st1" d="M108.4,996.9c-2.6,0-5.3-0.1-7.9-0.4c-41.8-4.3-72.4-41.7-68.4-83.5c0.5-6.1,6.1-64.5,30-149.8
				c20.8-74.3,60-183.6,130.6-296.1c11.7-18.7,19.4-39.6,22.4-61.5c3.6-26.1,6-62.6,1.9-105.8c-1.1-11.6-8.2-21.9-18.8-26.8
				c-1.8-0.8-3.6-1.7-5.4-2.6c-24.9-12.9-45.2-34.7-55.5-59.7c-15-36.1-14.3-77.2-11-105.2c1.8-15.2,4.6-29.6,8.4-41.7
				c4.9-16,14.2-38.4,38.2-48.3c24-10,46.4-0.7,61.2,7.1c11.2,5.9,23.4,14,35.4,23.5c22.2,17.5,51.7,46,66.7,82.1
				c9.6,23.1,11.3,49.9,4.8,75.4c-2.5,9.7-6.1,18.8-10.7,27.2c-4.2,7.7-5,16.8-2.5,25.3c0.7,2.4,1.4,4.8,2.1,7.2
				c2.9,10.3,15.8,13.7,23.5,6.3c32.3-30.9,66.5-59.7,102.7-86.2c8.8-6.4,12.8-17.4,10.7-28.1c-1.8-9-2.3-18.2-1.5-27.4
				c2.7-30.6,17.8-58.2,29.9-76.1c6.5-9.6,13.6-18.3,20.5-25.3c6.1-6.1,24.5-24.7,52.2-22.2c27.6,2.5,42.4,24,47.2,31.1
				c5.5,8.1,11,17.9,15.7,28.5c0.2,0.4,0.4,0.9,0.6,1.3c4.6,10.6,13.6,18.6,24.5,22.3c27.6,9.1,51.7,24.6,68.8,37.6
				c12.2,9.3,23.1,19.1,31.6,28.4c11.3,12.4,25.8,31.8,22.2,57.5c-3.6,25.7-23,40.3-37.3,49c-10.8,6.6-24,13-38.3,18.5
				c-20.2,7.8-51.1,17.1-83.3,17.1c-7.3,0-14.5-0.5-21.4-1.5c-17.1-2.4-34-9.1-48.8-19c-10.8-7.2-25.2-5.9-34.6,3
				c-52.1,48.9-99.5,104.6-141.5,166C357,467.9,341.6,492.6,327,518c-5.1,8.8,3.2,19.3,12.9,16.4c14.9-4.3,30.1-8.1,45.7-11.3
				c18.1-3.7,34.2-13.8,45.5-28.4l110.3-141.8c12.5-16.1,34.7-21,52.8-11.7l8,4.1c10.8,5.6,107.8,56.6,172.4,134.5
				c66.9,80.8,152.2,119.7,154.6,120.8L960,614c16.2,7,21.4,27.5,10.6,41.4l-169,217.2c-7.7,9.9-21.1,13.3-32.6,8.3l-18.4-8
				c-2.9-1.3-29.5-13.1-66-37c-33.9-22.3-83.7-60-128-113.4c-26.4-31.9-62.1-59.3-90.8-78.6c-19.7-13.2-44.3-16.9-66.8-9.7
				c-41.7,13.3-78.4,30.9-109.7,52.5c-31.6,21.8-51.3,43.4-62.9,59.1c-21.6,67.2-29,111.6-29.1,112l-0.2,1.4l-0.3,1.4
				c-9.3,40.9-12.2,66.6-12.3,67.5C180.4,967.5,147.7,996.9,108.4,996.9z M498.2,556.5c36.4,22.8,89.2,60.6,128.5,108
				c37.1,44.7,79.1,76.6,107.8,95.4c10.1,6.6,19.1,12,26.8,16.4l89.3-114.7c-38.1-22.6-95.6-63-145.9-123.7
				c-35.5-42.9-86.2-77.5-117-96.3L498.2,556.5z M929,600.6L929,600.6L929,600.6z M222.9,86.5L222.9,86.5L222.9,86.5z"/>
		</g>
	</g>
	<g>
		<circle class="st62" cx="552.4" cy="178.3" r="7.8"/>
	</g>
	<g>
		<path class="st82" d="M552.4,186.1l-7.8-7.8c-89.9,56-162.6,121-221.4,188.8c-7.3,8.4-21.1,3.8-22-7.3
			c-3.3-41.8-13.1-91.1-36.3-142.1c0-4.8-4.3-8.6-9.3-7.7c-3.1,0.6-5.5,3-6.2,6.1c-0.4,1.9-0.1,3.6,0.7,5.1
			c20.5,86.4,15.3,158.9,8.5,201.5c-3.7,22.8-12,44.6-24.4,64C94.6,706.4,77.4,917.2,77.4,917.2c-1.7,17.1,10.7,32.4,27.8,34.1
			c1.1,0.1,2.2,0.2,3.2,0.2c15.8,0,29.3-11.9,30.9-27.9c0-0.3,3-27.9,13.2-72.9c0,0,4.2-25.8,15.8-68.6c13.7-50.5,43.9-95,86-126
			c42.1-31,103.7-62.5,192.2-81.1c4.2,0,7.7-3.4,7.8-7.6c0.1-3.4-2.1-6.4-5.2-7.6c-1.6-0.6-3.1-0.6-4.5-0.3
			c-83.1,9.9-147.3,34.7-195.2,61.8c-10.6,6-22.7-4.9-17.7-16C290.5,473.7,389.5,313,552.4,186.1z"/>
	</g>
	<g>
		<path class="st62" d="M771.9,824.1c0,0-96.7-42-174.2-135.5C538.2,616.8,442,567.4,442,567.4l136-174.7c0,0,96.2,49.3,155.7,121.1
			c77.5,93.5,174.2,135.5,174.2,135.5L771.9,824.1z"/>
	</g>
	<g>
		<path class="st0" d="M778,828.9c-2.2,2.8-6,3.8-9.2,2.4l0,0c-1-0.4-25.2-11-59.2-33.3c-31.3-20.5-77.2-55.3-117.9-104.4
			c-57.8-69.7-152.3-118.7-153.2-119.2h0c-4.3-2.2-5.6-7.9-2.6-11.7l136-174.7c2.3-3,6.4-3.9,9.7-2.1h0c4,2,98.3,50.9,158.1,123.1
			c75.5,91.1,170.4,133,171.3,133.4l0,0c4.7,2,6.2,7.9,3,11.9L778,828.9z M459.3,557.8c-2.9,3.7-1.8,9.2,2.3,11.5
			c30.2,17.4,96.2,59,142.1,114.3c60.1,72.5,132.7,113.9,160.1,127.9c3.3,1.7,7.4,0.8,9.7-2.2L890,659.7c3-3.8,1.8-9.4-2.5-11.7
			c-10.4-5.5-24.9-13.7-41.9-24.8c-31.3-20.5-77.2-55.3-117.9-104.4c-45.8-55.2-114.6-97.5-141.7-112.9c-3.4-1.9-7.6-1.1-10,2
			L459.3,557.8z"/>
	</g>
	<g>
		<path class="st0" d="M665.6,727.2c-1.9,0-3.7-0.7-5.2-2c-17.3-15.6-33.3-32.2-47.4-49.3c-11.4-13.7-24.8-27.6-39.9-41.2
			c-3.2-2.9-3.4-7.8-0.6-11c2.9-3.2,7.8-3.4,11-0.6c15.7,14.1,29.6,28.5,41.5,42.9c13.7,16.6,29.1,32.6,45.9,47.7
			c3.2,2.9,3.4,7.8,0.6,11C669.9,726.4,667.8,727.2,665.6,727.2z"/>
	</g>
	<g>
		<path class="st0" d="M760.3,592.7c-1.9,0-3.8-0.7-5.3-2c-18.1-16.6-35-34.3-50-52.4c-7.1-8.5-15.2-17.3-24.2-25.9
			c-3.1-3-3.2-7.9-0.2-11c3-3.1,7.9-3.2,11-0.2c9.4,9.1,17.9,18.2,25.3,27.2c14.6,17.6,31,34.8,48.6,50.9c3.2,2.9,3.4,7.8,0.5,11
			C764.5,591.9,762.4,592.7,760.3,592.7z"/>
	</g>
	<g>
		
			<ellipse transform="matrix(0.6141 -0.7892 0.7892 0.6141 -220.8871 767.1832)" class="st62" cx="674.1" cy="609.5" rx="44.8" ry="44.8"/>
	</g>
	<g>
		<path class="st0" d="M674,662.1c-11.6,0-22.9-3.8-32.2-11.1l0,0c-11.1-8.6-18.2-21.1-19.9-35s2.1-27.7,10.7-38.8
			c17.8-22.9,50.9-27,73.8-9.2c22.9,17.8,27,50.9,9.2,73.8c-8.6,11.1-21.1,18.2-35,19.9C678.4,662,676.2,662.1,674,662.1z
			 M651.3,638.7c16.1,12.5,39.4,9.6,52-6.5c12.5-16.1,9.6-39.4-6.5-52c-16.1-12.5-39.4-9.6-52,6.5c-6.1,7.8-8.8,17.5-7.5,27.3
			C638.5,623.9,643.5,632.6,651.3,638.7L651.3,638.7z"/>
	</g>
	<g>
		
			<ellipse transform="matrix(0.6141 -0.7892 0.7892 0.6141 -133.8866 650.5966)" class="st62" cx="598.4" cy="462.2" rx="17.3" ry="17.3"/>
	</g>
	<g>
		<path class="st0" d="M598.3,487.3c-5.4,0-10.8-1.7-15.4-5.3c-5.3-4.1-8.7-10-9.5-16.7c-0.8-6.6,1-13.2,5.1-18.5
			c4.1-5.3,10-8.6,16.7-9.5c6.6-0.8,13.2,1,18.5,5.1c5.3,4.1,8.6,10,9.5,16.7c0.8,6.6-1,13.2-5.1,18.5
			C613.2,483.9,605.8,487.3,598.3,487.3z M598.4,452.7c-0.4,0-0.8,0-1.2,0.1c-2.5,0.3-4.8,1.6-6.3,3.6c-1.6,2-2.2,4.5-1.9,7
			c0.3,2.5,1.6,4.8,3.6,6.3c4.1,3.2,10.1,2.5,13.3-1.7c1.6-2,2.2-4.5,1.9-7c-0.3-2.5-1.6-4.8-3.6-6.3
			C602.5,453.4,600.5,452.7,598.4,452.7z"/>
	</g>
	<g>
		
			<ellipse transform="matrix(0.6141 -0.7892 0.7892 0.6141 -237.3336 628.9259)" class="st62" cx="524.5" cy="557.2" rx="17.3" ry="17.3"/>
	</g>
	<g>
		<path class="st0" d="M524.4,582.2c-5.5,0-10.9-1.8-15.3-5.3v0c-10.9-8.5-12.9-24.3-4.4-35.2c8.5-10.9,24.3-12.9,35.2-4.4
			c10.9,8.5,12.9,24.3,4.4,35.2c-4.1,5.3-10,8.7-16.7,9.5C526.5,582.2,525.5,582.2,524.4,582.2z M518.6,564.7c2,1.6,4.5,2.2,7,1.9
			c2.5-0.3,4.8-1.6,6.3-3.6c1.6-2,2.2-4.5,1.9-7c-0.3-2.5-1.6-4.8-3.6-6.3c-4.1-3.2-10.1-2.5-13.3,1.7c-1.6,2-2.2,4.5-1.9,7
			C515.4,560.9,516.6,563.1,518.6,564.7L518.6,564.7z"/>
	</g>
	<g>
		
			<ellipse transform="matrix(0.6141 -0.7892 0.7892 0.6141 -204.34 911.0893)" class="st62" cx="829.5" cy="664.5" rx="17.3" ry="17.3"/>
	</g>
	<g>
		<path class="st0" d="M829.5,689.6c-5.5,0-10.9-1.8-15.3-5.3c-10.9-8.5-12.9-24.3-4.4-35.2c8.5-10.9,24.3-12.9,35.2-4.4
			c5.3,4.1,8.6,10,9.5,16.7c0.8,6.6-1,13.2-5.1,18.5c-4.1,5.3-10,8.6-16.7,9.5C831.6,689.5,830.5,689.6,829.5,689.6z M829.5,655
			c-2.8,0-5.6,1.3-7.5,3.7c-3.2,4.1-2.5,10.1,1.7,13.3v0c2,1.6,4.5,2.2,7,1.9c2.5-0.3,4.8-1.6,6.3-3.6c1.6-2,2.2-4.5,1.9-7
			c-0.3-2.5-1.6-4.8-3.6-6.3C833.6,655.7,831.6,655,829.5,655z"/>
	</g>
	<g>
		
			<ellipse transform="matrix(0.6141 -0.7892 0.7892 0.6141 -307.787 889.4186)" class="st62" cx="755.6" cy="759.5" rx="17.3" ry="17.3"/>
	</g>
	<g>
		<path class="st0" d="M755.6,784.5c-5.5,0-10.9-1.8-15.3-5.3c-5.3-4.1-8.7-10-9.5-16.7c-0.8-6.6,1-13.2,5.1-18.5
			c4.1-5.3,10-8.6,16.7-9.5c6.6-0.8,13.2,1,18.5,5.1c5.3,4.1,8.6,10,9.5,16.7c0.8,6.6-1,13.2-5.1,18.5c-4.1,5.3-10,8.7-16.7,9.5
			C757.7,784.5,756.6,784.5,755.6,784.5z M755.7,750c-0.4,0-0.8,0-1.2,0.1c-2.5,0.3-4.8,1.6-6.3,3.6c-1.6,2-2.2,4.5-1.9,7
			c0.3,2.5,1.6,4.8,3.6,6.3v0c2,1.6,4.5,2.2,7,1.9c2.5-0.3,4.8-1.6,6.3-3.6c1.6-2,2.2-4.5,1.9-7c-0.3-2.5-1.6-4.8-3.6-6.3
			C759.8,750.6,757.8,750,755.7,750z"/>
	</g>
	<g>
		
			<ellipse transform="matrix(0.6141 -0.7892 0.7892 0.6141 -316.3028 823.6277)" class="st0" cx="684.1" cy="735.3" rx="6.9" ry="6.9"/>
	</g>
	<g>
		
			<ellipse transform="matrix(0.6141 -0.7892 0.7892 0.6141 -266.3762 672.8663)" class="st0" cx="554.9" cy="608.8" rx="6.9" ry="6.9"/>
	</g>
	<g>
		<path class="st62" d="M286.9,148.7c11.5,27.7,1.2,66.5-26.5,78c-27.7,11.5-62.4-8.5-73.9-36.3c-19.2-46.2-2.6-121.8,6.7-125.7
			C202.5,60.8,267.8,102.5,286.9,148.7z"/>
	</g>
	<g>
		<line class="st62" x1="260.4" y1="226.6" x2="213.4" y2="113.3"/>
	</g>
	<g>
		<path class="st0" d="M294.1,145.7c-11.8-28.5-38.2-52.3-52.9-63.9c-9.7-7.7-19.8-14.4-28.5-19c-13.7-7.2-19.1-6.7-22.5-5.3
			c-3.5,1.4-7.6,4.9-12.1,19.7c-2.9,9.3-5.2,21.3-6.7,33.6c-2.1,18.6-4,54,7.9,82.6c6.4,15.3,18.9,28.7,34.5,36.8
			c9.8,5.1,19.9,7.6,29.6,7.6c6.9,0,13.7-1.3,20-3.9C296.3,220.2,306.7,176,294.1,145.7z M260.6,206.7l-6.6-15.8
			c-2.3-5.6-2.5-11.8-0.6-17.5c1.4-4.1,1.3-8.7-0.4-13c-1.8-4.3-5-7.6-8.9-9.5c-5.4-2.7-9.7-7.2-12-12.8l-11.6-27.8
			c-1.6-4-6.2-5.9-10.2-4.2c-4,1.6-5.9,6.2-4.2,10.2l16.1,38.7c-4.7,5.1-6.3,12.7-3.5,19.6c1.8,4.3,5,7.6,8.9,9.5
			c5.4,2.7,9.7,7.2,12,12.8l6.7,16c1.9,4.6-1.7,9.6-6.7,9.1c-6.1-0.6-12.4-2.5-18.7-5.7c-12.2-6.3-22.4-17.1-27.3-28.9
			c-10-24.1-8.8-54.9-7.2-71.1c1.5-15,4-26.3,6.3-33.8c1.7-5.6,8.1-8.3,13.3-5.5c7,3.7,16.7,9.9,28.4,19.4
			c12.6,10.3,35.3,31.2,45.3,55.3c8.6,20.6,3.3,43-8,56.8C268.6,212.2,262.5,211.3,260.6,206.7z"/>
	</g>
	<g>
		<path class="st62" d="M605.7,241.4c-29.7-4.2-57.8-32.8-53.6-62.5c4.2-29.7,39.1-49.4,68.9-45.2c49.5,7,106.1,59.8,104.7,69.8
			S655.2,248.4,605.7,241.4z"/>
	</g>
	<g>
		<line class="st62" x1="552.1" y1="178.9" x2="673.6" y2="196.1"/>
	</g>
	<g>
		<path class="st62" d="M593.6,139.4c-1.9,20.8-20.7,41.4-41.5,39.5c-20.8-1.9-35.7-25.4-33.8-46.3C521.4,98,556,56.8,563,57.4
			S596.7,104.8,593.6,139.4z"/>
	</g>
	<g>
		<line class="st62" x1="552.1" y1="178.9" x2="559.7" y2="93.8"/>
	</g>
	<g>
		<path class="st0" d="M722.7,184.1c-6.6-7.2-15.6-15.3-25.5-22.8c-14.9-11.3-44.5-30.9-75.1-35.3c-3.9-0.5-7.8-0.7-11.8-0.6
			c-5,0.2-9.3-3.3-10.2-8.2c-2.5-14-7.4-26.8-10.9-34.7c-3.6-8-7.7-15.6-11.6-21.3c-5.3-7.7-9.4-11.2-13.9-11.6
			c-4.4-0.4-9.2,2.3-15.7,8.9c-4.9,4.9-10.3,11.6-15.2,18.9c-7.5,10.9-20.3,32.6-22.2,54.5c-1.1,12,2.5,24.9,9.8,35.4
			c4.4,6.3,9.8,11.2,15.8,14.6c4.5,2.5,7.7,6.9,8.6,12c1.9,10.9,7.2,21.6,15.7,31.1c11.7,13.1,27.8,21.9,44.2,24.2
			c4.9,0.7,10,1,15,1c26.1,0,52.3-8.4,66.9-14c11.6-4.5,22.5-9.7,30.9-14.8c13.2-8.1,15.5-13,16-16.7
			C733.9,200.9,733.1,195.6,722.7,184.1z M533.1,158.4c-5.2-7.4-7.8-16.8-7-25.1c2-22.6,19.1-48.4,30.2-61c3-3.4,8.4-2.9,10.7,1
			c8.7,14.4,20.9,42.8,18.9,65.4c-1.2,12.8-8.9,23.2-18,28.5c-3.1,1.8-6.9-0.7-6.6-4.2l0.9-10.5c0.3-3.7,1.7-7.2,4-10.2
			c1.5-1.9,2.4-4.2,2.6-6.7c0.2-2.5-0.3-5-1.4-7.1c-1.7-3.3-2.5-7-2.1-10.7l2.1-23.3c0.4-4.3-2.8-8.1-7.1-8.4
			c-4.3-0.4-8.1,2.8-8.4,7.1l-2.7,30.5c-3.3,2.1-5.6,5.6-6,9.7c-0.2,2.5,0.3,5,1.4,7.1c1.7,3.3,2.5,7,2.1,10.7l-0.9,10.6
			c-0.3,3.6-4.6,5.3-7.3,2.9C536.5,162.9,534.7,160.8,533.1,158.4z M677.5,222.9c-15.3,5.6-44.9,14.5-70.7,10.8
			c-12.6-1.8-25.7-9-34.8-19.2c-5.7-6.4-9.5-13.3-11.3-20.4c-0.8-3.1,1.7-5.9,4.9-5.5l24.9,3.5c4,0.6,7.5,2.8,9.8,6.1
			c2.8,4.2,7.3,7.2,12.7,8c5.4,0.8,10.6-0.9,14.4-4.1c3.1-2.6,7.1-3.7,11.1-3.1l34.1,4.8c0.4,0.1,0.7,0.1,1.1,0.1
			c4,0,7.5-3.1,7.8-7.3c0.2-4.1-2.9-7.6-7-8.2l-33.8-4.8c-4-0.6-7.5-2.8-9.8-6.1c-2.8-4.2-7.3-7.2-12.7-8
			c-5.4-0.8-10.6,0.9-14.4,4.1c-3.1,2.6-7.1,3.7-11.1,3.1l-1.1-0.2c-3.4-0.5-5-4.5-2.8-7.1c5.7-6.8,9.8-14.9,11.7-23.2
			c0.6-2.6,2.8-4.5,5.4-4.8c4.8-0.6,9.6-0.6,14.1,0c25.8,3.7,51.7,20.4,64.9,30.1c19.7,14.4,29.6,26.2,32.5,30.8
			C713.2,206,700.4,214.5,677.5,222.9z"/>
	</g>
	<g>
		<path class="st30" d="M124.9,811.4c-0.5,0-1.1-0.1-1.7-0.2c-4-0.9-6.6-4.9-5.7-9c0.1-0.5,11.4-50.1,30.5-103.7
			c1.4-3.9,5.7-5.9,9.6-4.6c3.9,1.4,5.9,5.7,4.6,9.6c-18.8,52.9-29.9,101.6-30,102C131.4,809,128.3,811.4,124.9,811.4z"/>
	</g>
	<g>
		<path class="st30" d="M222.2,162.5c-2.9,0-5.7-1.7-6.9-4.5l-4.2-9.7c-1.6-3.8,0.1-8.2,3.9-9.9c3.8-1.6,8.2,0.1,9.9,3.9l4.2,9.7
			c1.6,3.8-0.1,8.2-3.9,9.9C224.2,162.3,223.2,162.5,222.2,162.5z"/>
	</g>
	<g>
		<circle class="st30" cx="208.8" cy="124.4" r="7.8"/>
	</g>
	<g>
		<path class="st30" d="M549.3,131.1c-0.2,0-0.4,0-0.6,0c-4.1-0.3-7.2-4-6.8-8.1l0.7-8.6c0.3-4.1,4-7.2,8.1-6.8
			c4.1,0.3,7.2,4,6.8,8.1l-0.7,8.6C556.4,128.2,553.1,131.1,549.3,131.1z"/>
	</g>
	<g>
		<path class="st30" d="M492.7,596.1c-1.6,0-3.1-0.5-4.5-1.5c-18.2-13.5-37.7-23.6-37.9-23.7h0c-4.2-2.2-5.4-7.6-2.5-11.3l26.2-33.3
			c2.6-3.3,7.3-3.8,10.5-1.3c3.3,2.6,3.8,7.3,1.3,10.5l-18.5,23.5c-1.1,1.5-0.7,3.6,0.9,4.5c7.7,4.4,18.3,11,28.8,18.7
			c3.4,2.5,4.3,7.4,1.8,10.8C497.2,595.1,495,596.1,492.7,596.1z"/>
	</g>
	<g>
		<circle class="st30" cx="503.9" cy="500.9" r="7.8"/>
	</g>
	<g>
		<circle class="st30" cx="557.3" cy="637.1" r="7.8"/>
	</g>
	<g>
		<circle class="st30" cx="170.4" cy="661.4" r="7.8"/>
	</g>
</g>
<g id="Layer_2">
</g>
<g id="Layer_3">
</g>
<g id="Layer_4">
</g>
</svg>
