<?xml version="1.0" encoding="utf-8"?>
<!-- Generator: Adobe Illustrator 20.0.0, SVG Export Plug-In . SVG Version: 6.00 Build 0)  -->
<svg version="1.1" id="Layer_1" xmlns="http://www.w3.org/2000/svg" xmlns:xlink="http://www.w3.org/1999/xlink" x="0px" y="0px"
	 viewBox="0 0 500 500" style="enable-background:new 0 0 500 500;" xml:space="preserve">
<style type="text/css">
	.st0{fill:#457F4A;}
	.st1{fill:#344B57;}
	.st2{fill:#75B15D;stroke:#344B57;stroke-width:3;stroke-miterlimit:10;}
	.st3{fill:#BCE680;}
	.st4{fill:#F0FDC5;}
	.st5{fill:#1B5900;}
	.st6{fill:#ADE77A;stroke:#1B5900;stroke-width:6;stroke-miterlimit:10;}
	.st7{fill:#709638;}
	.st8{display:none;fill:#D1A982;}
	.st9{fill:#ECE8DB;}
	.st10{fill:#5B3A03;}
	.st11{fill:#719E7F;stroke:#667F40;stroke-width:3;stroke-linecap:round;stroke-linejoin:round;stroke-miterlimit:10;}
	.st12{fill:#719E7F;stroke:#667F40;stroke-linecap:round;stroke-linejoin:round;stroke-miterlimit:10;}
	.st13{fill:none;stroke:#667F40;stroke-width:3;stroke-linecap:round;stroke-miterlimit:10;}
	.st14{fill:#4D6261;}
	.st15{fill:#ECE8DB;stroke:#5B3A03;stroke-width:3;stroke-miterlimit:10;}
	.st16{fill:none;stroke:#F0FDC5;stroke-linecap:round;stroke-linejoin:round;stroke-miterlimit:10;}
	.st17{fill:#8DC70C;}
	.st18{fill:#ECFE78;}
	.st19{fill:#73953B;}
	.st20{fill:#3D710C;}
	.st21{fill:#73953B;stroke:#3D710C;stroke-width:3;stroke-linejoin:round;stroke-miterlimit:10;}
	.st22{fill:#EFE8D7;stroke:#DABB95;stroke-width:3;stroke-linejoin:round;stroke-miterlimit:10;}
	.st23{opacity:0.6;fill:none;stroke:#BF71B0;stroke-width:3;stroke-miterlimit:10;}
	.st24{opacity:0.4;fill:none;stroke:#BF71B0;stroke-width:3;stroke-miterlimit:10;}
	.st25{opacity:0.3;fill:none;stroke:#BF71B0;stroke-width:3;stroke-miterlimit:10;}
	.st26{opacity:0.2;fill:none;stroke:#BF71B0;stroke-width:3;stroke-miterlimit:10;}
	.st27{opacity:0.1;fill:none;stroke:#BF71B0;stroke-width:3;stroke-miterlimit:10;}
	.st28{fill:#77A45B;}
	.st29{fill:none;stroke:#FFFFFF;stroke-linecap:round;stroke-linejoin:round;stroke-miterlimit:10;}
	.st30{fill:#00FFFF;}
	.st31{fill:#E50F4F;}
	.st32{fill:#5A8700;}
	.st33{fill:#9D9F01;}
	.st34{fill:none;stroke:#BFBF04;stroke-linecap:round;stroke-linejoin:round;stroke-miterlimit:10;}
	.st35{fill:none;stroke:#CAD058;stroke-linecap:round;stroke-linejoin:round;stroke-miterlimit:10;}
	.st36{fill:#E21039;stroke:#930019;stroke-width:3;stroke-linejoin:round;stroke-miterlimit:10;}
	.st37{fill:#77A45B;stroke:#3D710C;stroke-linecap:round;stroke-linejoin:round;stroke-miterlimit:10;}
	.st38{fill:none;stroke:#77A45B;stroke-width:3;stroke-miterlimit:10;}
	.st39{opacity:0.5;fill:none;stroke:#FFFFFF;stroke-width:3;stroke-linejoin:round;stroke-miterlimit:10;}
	.st40{opacity:0.7;fill:none;stroke:#FFFFFF;stroke-width:3;stroke-linejoin:round;stroke-miterlimit:10;}
	.st41{opacity:0.9;fill:none;stroke:#FFFFFF;stroke-width:3;stroke-linejoin:round;stroke-miterlimit:10;}
	.st42{opacity:0.3;fill:none;stroke:#FFFFFF;stroke-width:3;stroke-linejoin:round;stroke-miterlimit:10;}
	.st43{opacity:0.2;fill:none;stroke:#FFFFFF;stroke-width:3;stroke-linejoin:round;stroke-miterlimit:10;}
	.st44{fill:#E21039;}
	.st45{fill:#930019;}
	.st46{fill:#F4E5E8;}
	.st47{fill:#DEB2BA;}
	.st48{fill:#C8818D;}
	.st49{fill:#B14D5F;}
	.st50{fill:#FFFFFF;}
	.st51{fill:#EFE8D7;}
	.st52{fill:#8C7662;}
	.st53{fill:#E50F4F;stroke:#930019;stroke-width:3;stroke-linejoin:round;stroke-miterlimit:10;}
	.st54{fill:none;stroke:#E87C94;stroke-width:3;stroke-linejoin:round;stroke-miterlimit:10;}
	.st55{fill:none;stroke:#E64872;stroke-width:3;stroke-linejoin:round;stroke-miterlimit:10;}
	.st56{fill:none;stroke:#EBB2B6;stroke-width:3;stroke-linejoin:round;stroke-miterlimit:10;}
	.st57{fill:none;stroke:#930019;stroke-width:3;stroke-linejoin:round;stroke-miterlimit:10;}
	.st58{fill:#E87C94;}
	.st59{fill:#E64872;}
	.st60{fill:#EBB2B6;}
	.st61{opacity:0.7;fill:none;stroke:#E50F4F;stroke-width:3;stroke-linejoin:round;stroke-miterlimit:10;}
	.st62{opacity:0.6;fill:none;stroke:#E50F4F;stroke-width:3;stroke-linejoin:round;stroke-miterlimit:10;}
	.st63{opacity:0.4;fill:none;stroke:#E50F4F;stroke-width:3;stroke-linejoin:round;stroke-miterlimit:10;}
	.st64{opacity:0.3;fill:none;stroke:#E50F4F;stroke-width:3;stroke-linejoin:round;stroke-miterlimit:10;}
	.st65{opacity:0.2;fill:none;stroke:#E50F4F;stroke-width:3;stroke-linejoin:round;stroke-miterlimit:10;}
	.st66{opacity:0.1;fill:none;stroke:#E50F4F;stroke-width:3;stroke-linejoin:round;stroke-miterlimit:10;}
	.st67{fill:none;stroke:#DABB95;stroke-width:3;stroke-linejoin:round;stroke-miterlimit:10;}
	.st68{fill:#77A45B;stroke:#3D710C;stroke-width:0.9521;stroke-linecap:round;stroke-linejoin:round;stroke-miterlimit:10;}
	.st69{fill:#DABB95;}
	.st70{fill:#E76886;}
	.st71{fill:#E87D94;}
	.st72{fill:#E992A2;}
	.st73{fill:#EBA7AF;}
	.st74{fill:#ECBDBD;}
	.st75{fill:#EDD2CA;}
	.st76{opacity:0.6;fill:#BF71B0;}
	.st77{opacity:0.5;fill:#BF71B0;}
	.st78{opacity:0.4;fill:#BF71B0;}
	.st79{opacity:0.3;fill:#BF71B0;}
	.st80{opacity:0.2;fill:#BF71B0;}
	.st81{fill:#FCD24F;stroke:#BA8822;stroke-width:3;stroke-linejoin:round;stroke-miterlimit:10;}
	.st82{opacity:0.9;fill:none;stroke:#732429;stroke-width:3;stroke-miterlimit:10;}
	.st83{opacity:0.8;fill:none;stroke:#732429;stroke-width:3;stroke-miterlimit:10;}
	.st84{opacity:0.7;fill:none;stroke:#732429;stroke-width:3;stroke-miterlimit:10;}
	.st85{opacity:0.6;fill:none;stroke:#732429;stroke-width:3;stroke-miterlimit:10;}
	.st86{opacity:0.5;fill:none;stroke:#732429;stroke-width:3;stroke-miterlimit:10;}
	.st87{opacity:0.4;fill:none;stroke:#732429;stroke-width:3;stroke-miterlimit:10;}
	.st88{fill:none;stroke:#BA8822;stroke-width:3;stroke-linejoin:round;stroke-miterlimit:10;}
	.st89{fill:#FCD24F;}
	.st90{fill:#BA8822;}
	.st91{fill:#80352F;}
	.st92{fill:#8D4734;}
	.st93{fill:#9B5838;}
	.st94{fill:#A96A3D;}
	.st95{fill:#B77A42;}
	.st96{fill:#C48B47;}
	.st97{fill:#5B774B;}
	.st98{fill:none;stroke:#ECFE78;stroke-linecap:round;stroke-linejoin:round;stroke-miterlimit:10;}
	.st99{fill:none;stroke:#5B774B;stroke-miterlimit:10;}
	.st100{fill:none;stroke:#ECFE78;stroke-linecap:round;stroke-miterlimit:10;}
	.st101{fill:none;stroke:#5B774B;stroke-linejoin:round;stroke-miterlimit:10;}
	.st102{fill:none;stroke:#89A037;stroke-linecap:round;stroke-linejoin:round;stroke-miterlimit:10;}
	.st103{fill:none;stroke:#89A037;stroke-width:3;stroke-linecap:round;stroke-linejoin:round;stroke-miterlimit:10;}
	.st104{fill:none;stroke:#89A037;stroke-width:3.3343;stroke-linecap:round;stroke-linejoin:round;stroke-miterlimit:10;}
	.st105{fill:none;stroke:#89A037;stroke-width:3;stroke-linecap:round;stroke-miterlimit:10;}
	.st106{fill:#839958;}
	.st107{fill:#AA2F66;}
	.st108{fill:#D8CBC5;}
	.st109{fill:#662128;}
	.st110{fill:#A3CA44;stroke:#89A037;stroke-width:3;stroke-miterlimit:10;}
	.st111{fill:#ECE8DB;stroke:#5B3A03;stroke-miterlimit:10;}
	.st112{fill:none;stroke:#00FF00;stroke-miterlimit:10;}
	.st113{fill:none;stroke:#00FF00;stroke-width:1.0757;stroke-miterlimit:10;}
	.st114{clip-path:url(#SVGID_2_);}
	.st115{fill:none;stroke:#000000;stroke-miterlimit:10;}
	.st116{fill:none;stroke:#000000;stroke-width:1.16;stroke-miterlimit:10;}
	.st117{fill:#7AA66D;}
	.st118{fill:#8BC133;}
	.st119{fill:none;stroke:#000000;stroke-width:0.9135;stroke-miterlimit:10;}
	.st120{fill:none;stroke:#000000;stroke-width:5.9645;stroke-miterlimit:10;}
	.st121{fill:none;stroke:#000000;stroke-width:1.9086;stroke-linecap:round;stroke-linejoin:round;stroke-miterlimit:10;}
	.st122{fill:none;stroke:#4D6261;stroke-width:0.9577;stroke-linecap:round;stroke-linejoin:round;stroke-miterlimit:10;}
	.st123{fill:#7AA66D;stroke:#4D6261;stroke-width:0.9577;stroke-miterlimit:10;}
	.st124{fill:none;stroke:#4D6261;stroke-width:0.9577;stroke-miterlimit:10;}
	.st125{fill:#D2DE8F;stroke:#667F40;stroke-width:3;stroke-miterlimit:10;}
	.st126{fill:none;stroke:#FAFAEE;stroke-linecap:round;stroke-miterlimit:10;}
	.st127{fill:#D2DE8F;}
	.st128{fill:none;stroke:#667F40;stroke-width:3;stroke-miterlimit:10;}
	.st129{fill:#77A578;}
	.st130{fill:#719E7F;}
	.st131{fill:#FAFAEE;}
	.st132{fill:#667F40;}
	.st133{fill:#ECE8DB;stroke:#5B3A03;stroke-width:0.9644;stroke-miterlimit:10;}
	.st134{fill:#7AA66D;stroke:#4D6261;stroke-width:3.6;stroke-linecap:round;stroke-linejoin:round;stroke-miterlimit:10;}
	.st135{fill:none;stroke:#D2DE8F;stroke-miterlimit:10;}
	.st136{fill:none;stroke:#4D6261;stroke-width:3.6;stroke-linecap:round;stroke-linejoin:round;stroke-miterlimit:10;}
	.st137{fill:#ECE8DB;stroke:#5B3A03;stroke-linecap:round;stroke-linejoin:round;stroke-miterlimit:10;}
	.st138{fill:#FAD673;}
	.st139{fill:#CE731F;}
	.st140{fill:#D15CD4;}
	.st141{fill:#701975;}
	.st142{fill:#009245;stroke:#006837;stroke-width:3;stroke-miterlimit:10;}
	.st143{fill:#009245;stroke:#006837;stroke-width:3;stroke-linecap:round;stroke-linejoin:round;stroke-miterlimit:10;}
	.st144{fill:none;stroke:#B8CC69;stroke-width:3;stroke-miterlimit:10;}
	.st145{fill:#4E6624;stroke:#314217;stroke-width:3;stroke-miterlimit:10;}
	.st146{fill:none;stroke:#314217;stroke-miterlimit:10;}
	.st147{fill:#4E6624;}
	.st148{fill:#709638;stroke:#3B7000;stroke-width:3;stroke-linecap:round;stroke-linejoin:round;stroke-miterlimit:10;}
	.st149{fill:#709638;stroke:#3B7000;stroke-linecap:round;stroke-linejoin:round;stroke-miterlimit:10;}
	.st150{fill:#92C057;}
	.st151{fill:#3B7000;}
	.st152{fill:#325900;}
	.st153{fill:#2A784B;stroke:#1F4130;stroke-width:3;stroke-miterlimit:10;}
	.st154{fill:none;stroke:#1F4130;stroke-linecap:round;stroke-linejoin:round;stroke-miterlimit:10;}
	.st155{fill:#2A784B;stroke:#1F4130;stroke-miterlimit:10;}
	.st156{fill:#D7D8DA;stroke:#1F4130;stroke-linecap:round;stroke-linejoin:round;stroke-miterlimit:10;}
	.st157{fill:none;stroke:#1F4130;stroke-width:3;stroke-miterlimit:10;}
	.st158{fill:#2A784B;}
	.st159{fill:#1F4130;}
	.st160{fill:#D7D8DA;}
	.st161{fill:#499623;}
	.st162{fill:none;stroke:#499623;stroke-miterlimit:10;}
	.st163{fill:#4C9D29;stroke:#1B5900;stroke-miterlimit:10;}
	.st164{fill:none;stroke:#ADE77A;stroke-width:2;stroke-linecap:round;stroke-miterlimit:10;}
	.st165{fill:none;stroke:#FFFFFF;stroke-linecap:round;stroke-miterlimit:10;}
	.st166{fill:none;stroke:#ADE77A;stroke-linecap:round;stroke-miterlimit:10;}
	.st167{fill:#4C9D29;}
	.st168{fill:none;stroke:#FFFFFF;stroke-width:7.8254;stroke-linecap:round;stroke-miterlimit:10;}
	.st169{fill:#ADE77A;}
	.st170{fill:#4F7F51;stroke:#344B57;stroke-miterlimit:10;}
	.st171{fill:#649160;stroke:#344B57;stroke-miterlimit:10;}
	.st172{fill:#78A36F;stroke:#344B57;stroke-miterlimit:10;}
	.st173{fill:#3A6D40;}
	.st174{opacity:0.75;fill:#344B57;stroke:#8CB77C;stroke-width:4;stroke-miterlimit:10;}
	.st175{opacity:0.5;fill:#344B57;stroke:#8CB77C;stroke-width:4;stroke-miterlimit:10;}
	.st176{opacity:0.25;fill:#344B57;stroke:#8CB77C;stroke-width:4;stroke-miterlimit:10;}
	.st177{opacity:0.8;fill:none;stroke:#C5E2D6;stroke-linecap:round;stroke-miterlimit:10;}
	.st178{opacity:0.8;fill:none;stroke:#C5E2D6;stroke-miterlimit:10;}
	.st179{fill:#8CB77C;stroke:#344B57;stroke-miterlimit:10;}
	.st180{opacity:0.8;fill:#C5E2D6;}
	.st181{fill:#4F7F51;}
	.st182{fill:#649160;}
	.st183{fill:#78A36F;}
	.st184{fill:#8CB77C;}
	.st185{fill:#C0DECD;}
	.st186{fill:none;stroke:#C5E2D6;stroke-width:7.8769;stroke-linecap:round;stroke-miterlimit:10;}
	.st187{fill:#AFCEB8;}
	.st188{fill:#9FC1A8;}
	.st189{fill:#77A47F;}
	.st190{fill:none;stroke:#77A47F;stroke-width:0.9699;stroke-miterlimit:10;}
	.st191{fill:#BCE680;stroke:#839958;stroke-width:3;stroke-miterlimit:10;}
	.st192{fill:none;stroke:#839958;stroke-miterlimit:10;}
	.st193{fill:none;stroke:#F0FDC5;stroke-miterlimit:10;}
	.st194{fill:none;stroke:#F0FDC5;stroke-linecap:round;stroke-miterlimit:10;}
	.st195{fill:none;stroke:#F0FDC5;stroke-width:0.8753;stroke-miterlimit:10;}
	.st196{fill:#A3CA44;}
</style>
<rect x="-3593.9" y="-3730.6" class="st8" width="5227.9" height="4725.2"/>
<g>
	<path class="st196" d="M400.5,343.5c0,85.5-67.4,143.4-150.5,143.4S99.5,429,99.5,343.5c0-108.2,18.8-330.3,150.5-330.3
		S400.5,235.3,400.5,343.5z"/>
	<path class="st4" d="M305.9,187.5c0.9,5.1,1.8,10.3,2.8,15.6l0,0c0.2,1.1,1.5,1.6,2.4,0.8c3.6-3.3,6-7.8,6.7-12.8
		c1.2-8.8,4.9-17,10.6-23.9c4.2-5.1,9.3-9.2,15.2-12.1c2.1-1,4.6-0.2,5.5,2c0.9,2-0.1,4.3-2,5.3c-4.8,2.5-9,5.8-12.5,10
		c-4.7,5.7-7.8,12.6-8.8,19.8c-1.1,8-5.4,15-11.7,19.7c-2.3,1.7-3.4,4.5-3,7.3l0,0.3c0.9,5.6,1.7,11.2,2.6,17l0,0
		c0.2,1.8,2.3,2.8,3.9,1.8c5.8-3.6,10.7-8.7,14-14.9c3.5-6.5,5.2-13.8,4.7-21.2c-0.6-11.1,5.1-21.7,14.8-27.3
		c6.4-3.7,11.6-9,15.1-15.5c3.5-6.5,5.2-13.8,4.7-21.2l8.1-0.5c0.5,8.8-1.5,17.7-5.7,25.5c-4.2,7.8-10.5,14.3-18.2,18.7
		c-7,4.1-11.2,11.7-10.7,19.8c0.5,8.8-1.5,17.6-5.7,25.5c-4.4,8.2-11,14.8-19.1,19.2c-2.6,1.4-4.1,4.3-3.7,7.2l0,0.2
		c0.8,5.9,1.6,11.8,2.3,17.7l0.3,2.6c0.3,2.5,3.7,3.1,4.8,0.9c0.8-1.6,1.3-3.3,1.7-5c1.8-8.7,6-16.7,12.1-23.1
		c8.3-8.8,19.5-14.1,31.5-14.9c2.3-0.2,4.3,1.7,4.3,4c0,2.2-1.8,3.9-3.9,4.1c-9.9,0.7-19.2,5.1-26.1,12.4c-5.1,5.4-8.5,12-10,19.2
		c-1.3,6.5-4.7,12.1-9.4,16.2c-2,1.7-3,4.2-2.7,6.8c0.9,8.3,1.7,16.6,2.5,24.8c0.2,1.8,2.1,2.8,3.7,2c6-2.9,11.1-7.3,15-12.8
		c4.3-6,6.7-13.1,7.2-20.5c0.7-11.1,7.6-21,17.9-25.4c6.8-2.9,12.6-7.6,16.8-13.7c4.3-6,6.7-13.1,7.2-20.5l8.1,0.5
		c-0.5,8.8-3.5,17.4-8.7,24.6c-5.1,7.3-12.1,13-20.3,16.4c-7.5,3.2-12.5,10.3-13,18.4c-0.5,8.8-3.5,17.4-8.7,24.6
		c-4.8,6.9-11.3,12.2-18.7,15.7c-3.3,1.6-5.2,5.1-4.9,8.7c0.1,1.7,0.3,3.3,0.4,5c0.5,5.8,0.9,11.5,1.4,17.2
		c0.4,5.6,0.7,11.2,1.1,16.6c0.4,5.4,0.7,10.8,1,15.9c0.3,5.2,0.5,10.2,0.8,15.1c0.2,4.9,0.4,9.6,0.6,14.1
		c0.4,9.1,0.6,17.4,0.9,24.8c0.2,7.4,0.3,13.9,0.4,19.2c0,2.7,0.1,5.1,0.1,7.2c0,2.1,0,4,0,5.4c0,2.9,0,4.4,0,4.4l-64.5-5.7
		c0,0,0.2-1.4,0.7-4.1c0.2-1.3,0.5-2.9,0.8-4.8c0.3-1.9,0.7-4.2,1.1-6.7c0.8-5,1.7-11.2,2.8-18.2c1-7.1,2.2-15.1,3.2-23.8
		c0.6-4.4,1.1-8.9,1.7-13.7c0.6-4.7,1.1-9.6,1.7-14.6c0.6-5,1.2-10.2,1.7-15.5c0.5-5.3,1.1-10.7,1.7-16.2c0.5-5.5,1-11.1,1.5-16.8
		c0.1-1.5,0.3-3,0.4-4.4c0.3-3.6-1.6-7.2-4.9-8.8c-5.3-2.5-10.2-6-14.4-10.4c-6.1-6.5-10.3-14.4-12.1-23.1
		c-1.7-8-7.7-14.3-15.5-16.4c-8.6-2.3-16.3-6.9-22.4-13.3c-6.1-6.5-10.3-14.4-12.1-23.1c-1.1-5.2-4-9.7-8.3-12.9l4.8-6.5
		c5.8,4.3,9.9,10.6,11.4,17.7c1.5,7.2,5,13.8,10.1,19.2c5.1,5.4,11.5,9.2,18.6,11.1c10.8,2.9,19.1,11.6,21.4,22.5
		c1.5,7.2,5,13.8,10.1,19.2c3.2,3.4,7,6.2,11.2,8.2c1.6,0.8,3.6-0.3,3.7-2.1l1.1-18.4c0.2-3.2-1.7-6.2-4.6-7.5
		c-8.4-3.9-14.5-11.5-16.4-20.8c-1.5-7.2-5-13.8-10.1-19.2c-6.9-7.2-16.1-11.6-26.1-12.3c-2.1-0.2-3.9-1.9-3.9-4.1
		c0-2.4,2-4.2,4.3-4c12,0.8,23.2,6.1,31.6,14.8c6.1,6.5,10.3,14.4,12.1,23.1c1.3,6.2,5.2,11.4,10.6,14.4c1.7,0.9,3.7-0.2,3.8-2.1
		c0.2-3.7,0.4-7.4,0.6-11.1c0.3-5.6,0.5-11.2,0.7-16.7c0.1-3.2-1.8-6-4.8-7c-8.8-3.2-16.5-8.8-22.2-16.4c-5.3-7.1-8.6-15.6-9.3-24.4
		c-0.7-8.1-5.9-15.1-13.5-18.1c-8.2-3.3-15.4-8.7-20.7-15.9c-5.3-7.1-8.6-15.6-9.3-24.4l8.1-0.7c0.7,7.3,3.3,14.3,7.8,20.3
		c4.4,5.9,10.4,10.5,17.2,13.2c10.4,4.1,17.6,13.8,18.6,24.9c0.7,7.3,3.3,14.3,7.8,20.3c3.7,4.9,8.4,8.8,13.7,11.6
		c3.4,1.7,7.5-0.8,7.5-4.6c0-2.3,0.1-4.5,0.1-6.7c0-2.2-0.9-4.3-2.5-5.8c-1.9-1.8-3.7-3.8-5.3-6c-5.3-7.1-8.6-15.6-9.3-24.4
		c-0.7-8.1-5.8-14.9-13.3-18c-2-0.8-3.2-3-2.6-5.1c0.7-2.2,3.2-3.4,5.3-2.5c10.5,4.1,17.6,13.7,18.6,24.9c0.7,7.3,3.3,14.3,7.8,20.3
		c0.5,0.7,1,1.3,1.5,1.9c0.1-2.9,0.1-5.9,0.1-8.7c0-5.3-0.1-10.6-0.1-15.7c0-3.8,0-7.5-0.1-11.1c0-3.3-1.9-6.4-4.8-8
		c-8.1-4.7-14.7-11.6-19-20.1c-4-8-5.7-16.8-4.9-25.7c0.7-8.1-3.1-15.9-10.1-20.2c-7.5-4.7-13.6-11.3-17.6-19.3l7.2-3.6
		c3.3,6.6,8.4,12.2,14.6,16c9.5,5.9,14.9,16.7,13.9,27.8c-0.7,7.3,0.7,14.7,4,21.3c3.2,6.4,7.9,11.7,13.8,15.5
		c1,0.7,2.4-0.1,2.4-1.3c0,0,0,0,0,0c-0.2-5.9-0.4-11.5-0.5-16.7c-0.5-6.2-2.4-12.1-5.7-17.4c-5.7-9.1-5.6-20.5,0-29.7
		c3.8-6.2,5.8-13.3,5.8-20.6c0-7.3-2-14.4-5.8-20.5c-5.7-9.2-5.7-20.6,0-29.8l6,3.7c-4.3,6.9-4.3,15.5,0,22.4
		c4.5,7.3,6.9,15.7,6.9,24.3c0,8.6-2.4,17-6.9,24.3c-4.2,6.8-4.3,15.4-0.1,22.3c3.5,5.6,5.7,11.9,6.5,18.4
		c1.2,5.7,2.4,11.8,3.8,18.4c0.1,0.3,0.1,0.7,0.2,1c0.2,1.1,1.6,1.6,2.5,0.9c5.3-4.7,9.3-10.7,11.6-17.5c2.3-7,2.6-14.5,0.9-21.7
		c-2.6-10.9,1.2-22.3,9.7-29.5c5.6-4.7,9.8-11,12.1-18l7.7,2.5c-2.8,8.5-7.8,15.9-14.6,21.6c-6.2,5.2-8.9,13.5-7,21.4
		c2.1,8.6,1.7,17.6-1.1,26.1c-2.9,8.9-8.3,16.6-15.5,22.4c-2.5,2-3.7,5.1-3.1,8.2L305.9,187.5z"/>
	<path class="st97" d="M386.2,134.2c-12.1-39.5-28.3-70.7-48.1-92.8C313.9,14.6,284.3,1,250,1s-63.9,13.6-88.1,40.4
		c-19.8,22-36,53.2-48.1,92.8c-23,74.9-26.4,163.3-26.4,209.3c0,44.1,17,84.1,48,112.7C165.3,483.8,206,499,250,499
		s84.7-15.2,114.6-42.9c30.9-28.6,48-68.6,48-112.7C412.6,297.5,409.2,209.1,386.2,134.2z M250,25.3C250,25.3,250,25.3,250,25.3
		c2.7,0,4.4,2.8,3.3,5.2c-22.1,47.4-39.4,98-51.5,150.7c0,0,0,0,0,0c-0.8,3.3-2.8,6.1-5.8,7.7c-0.6,0.3-1.1,0.6-1.7,0.8
		c-8.7,4-15,11.3-17.3,19.9c-2.2,8.4-8,15.4-15.7,19.2c-3.9,1.9-8.2,2.9-12.5,3c-9.6,0.1-18.7,5-23.8,12.7c-0.3,0.5-0.7,1-1.1,1.5
		c-2.3,3.1-7.2,1.1-6.8-2.7c3.7-33.4,9.9-69.1,19.9-102C160.6,64.3,198.6,25.3,250,25.3z M192.7,200.9c1.9-1.6,4.8,0.1,4.3,2.5
		c-8.2,40.9-13.3,83-15.3,125.4c-2.3,49.9,0.3,93.1,3.3,120.5c0.6,5.2-5,8.9-9.6,6.2c-8.5-4.9-16.5-10.7-23.6-17.3
		c-25.9-23.9-40.2-57.6-40.2-94.9c0-18,0.5-42.8,2.6-70.6c0.4-5.5,3.2-10.7,7.7-13.9c3.8-2.7,7.1-6.1,9.7-10c3.6-5.5,10.2-9,17.2-9
		c5.6-0.1,11-1.3,16-3.8c9.9-4.8,17.2-13.7,20-24.4C186,207.4,189.6,203.6,192.7,200.9z M348.2,438.3
		c-25.4,23.5-60.3,36.4-98.2,36.4c-10,0-19.8-0.9-29.2-2.7c-15.3-2.8-26.8-15.6-28.4-31.1c-2.5-25-4.8-64-2.6-111.8
		c2.3-49.6,9-98.8,19.9-146.2c11.5-50.1,27.8-98.3,48.5-143.7c3.7-8.1,12.9-12.1,21.3-9.3c36.7,12.5,64.7,49.8,83.6,111.3
		c22,71.9,25.3,157.5,25.3,202.2C388.3,380.7,374.1,414.4,348.2,438.3z"/>
</g>
</svg>
