<?xml version="1.0" encoding="utf-8"?>
<!-- Generator: Adobe Illustrator 20.0.0, SVG Export Plug-In . SVG Version: 6.00 Build 0)  -->
<svg version="1.1" id="Layer_1" xmlns="http://www.w3.org/2000/svg" xmlns:xlink="http://www.w3.org/1999/xlink" x="0px" y="0px"
	 viewBox="0 0 500 500" style="enable-background:new 0 0 500 500;" xml:space="preserve">
<style type="text/css">
	.st0{fill:#6A5129;}
	.st1{fill:#D8C38F;}
	.st2{fill:#B29032;}
	.st3{fill:#2E6000;}
	.st4{fill:#74C600;}
	.st5{fill:#C6CC40;}
	.st6{fill:#A6B135;}
	.st7{fill:#C6CC40;stroke:#A6B135;stroke-width:3;stroke-linecap:round;stroke-linejoin:round;stroke-miterlimit:10;}
	.st8{fill:#72621E;}
	.st9{fill:#CBBE7C;}
	.st10{fill:#998E5F;}
	.st11{fill:#F7D63C;}
	.st12{fill:#00FFFF;}
	.st13{clip-path:url(#SVGID_2_);}
	.st14{fill:none;stroke:#CBBE7C;stroke-width:2;stroke-miterlimit:10;}
	.st15{fill:#E5D58F;stroke:#CBBE7C;stroke-miterlimit:10;}
	.st16{fill:none;stroke:#CBBE7C;stroke-width:2;stroke-linecap:round;stroke-miterlimit:10;}
	.st17{fill:#E1C25F;}
	.st18{fill:#DABF62;}
	.st19{fill:#CEBC5A;}
	.st20{fill:#BEB74F;}
	.st21{fill:#B6B44C;}
	.st22{fill:#998617;}
	.st23{fill:#FFFFFF;}
	.st24{clip-path:url(#SVGID_4_);}
	.st25{fill:none;stroke:#E1C25F;stroke-miterlimit:10;}
	.st26{fill:#C6CC40;stroke:#A6B135;stroke-linecap:round;stroke-miterlimit:10;}
	.st27{fill:#C6CC40;stroke:#A6B135;stroke-linecap:round;stroke-linejoin:round;stroke-miterlimit:10;}
	.st28{fill:none;stroke:#A6B135;stroke-linecap:round;stroke-miterlimit:10;}
	.st29{fill:none;stroke:#E1C25F;stroke-linecap:round;stroke-linejoin:round;stroke-miterlimit:10;}
	.st30{fill:none;stroke:#A6B135;stroke-linecap:round;stroke-linejoin:round;stroke-miterlimit:10;}
	.st31{fill:#E5E54A;}
	.st32{fill:#CCAE58;}
	.st33{fill:#809931;}
	.st34{fill:none;stroke:#CFB04D;stroke-linecap:round;stroke-miterlimit:10;}
	.st35{fill:#E7D572;}
	.st36{fill:#CFB04D;}
	.st37{fill:#E5D58F;}
	.st38{fill:none;stroke:#E1C25F;stroke-width:2;stroke-linecap:round;stroke-linejoin:round;stroke-miterlimit:10;}
	.st39{fill:none;stroke:#E1C25F;stroke-linecap:round;stroke-miterlimit:10;}
	.st40{opacity:0.7;fill:#2E6000;stroke:#2E6000;stroke-linecap:round;stroke-linejoin:round;stroke-miterlimit:10;}
	.st41{fill:none;stroke:#CFB04D;stroke-width:2;stroke-linecap:round;stroke-linejoin:round;stroke-miterlimit:10;}
	.st42{fill:#4C8816;}
	.st43{fill:#AC933F;}
	.st44{fill:none;stroke:#B29032;stroke-width:2;stroke-linecap:round;stroke-miterlimit:10;}
	.st45{fill:#D8C38F;stroke:#B29032;stroke-linejoin:round;stroke-miterlimit:10;}
	.st46{fill:#E7D572;stroke:#B29032;stroke-linejoin:round;stroke-miterlimit:10;}
</style>
<path class="st0" d="M487.3,216.9c4.2-11,6.3-24.3,6.3-39.5c0-26-6.2-55.4-15.9-74.9c0,0-1.8-3.5-4.6-8c-2.1-3.3-1.5-7.7,1.5-10.4
	c6.1-5.4,10.1-13.2,10.6-21.9C486,44.8,472.6,30,455.2,29c-5.7-0.3-11.5-0.4-17.1-0.4c-68.4,0-133.9,21.5-194.7,63.8
	c-47.7,33.3-92.5,79.4-133.2,137.2c-19.8,28.2-49.4,74.6-77.6,135.9C15,404,6.4,429.7,6.3,429.9c-2.6,8-2,16.5,1.8,24.1
	c3.8,7.5,10.3,13.2,18.3,15.8l0,0l0,0c3.2,1,6.5,1.6,9.9,1.6c13.7,0,25.7-8.7,30-21.7c0.5-1.4,40.3-118.4,121.3-218.4
	c2.3-2.9,7-0.9,6.5,2.8c-1.3,9.2-2.1,18.4-2.1,27.3c0,15.6,2,28.1,6.2,39.4c0,0,6.7,17.7,25.6,17.7c12.8,0,21-9.8,21-9.8
	c2.9-3.4,8.1-3.4,11-0.1c0,0,7,9.9,21.1,9.9c18,0,25.6-17.7,25.6-17.7c1.9-5,3.4-10.5,4.4-16.3c0.9-4.9,5-8.5,9.9-8.9
	c6.2-0.4,14.5-2.4,20.5-9c3-3.3,8.1-3.4,11,0l0.1,0.1c5.2,6.1,12.8,9.7,20.9,9.7c19.5,0,25.6-17.7,25.6-17.7
	c2.3-6.1,3.9-12.5,4.9-19.6c0.4-3,3.1-5,6.1-4.8c0.8,0.1,1.6,0.1,2.6,0.1c13.5,0,21-9.8,21-9.8c2.9-3.4,8.1-3.4,11-0.1
	c0,0,9.2,9.9,21.1,9.9C481.9,234.6,487.3,216.9,487.3,216.9z M382.8,129.3c-0.6,2.8-4.1,3.5-5.9,1.3c-1.4-1.8-2.9-3.5-4.4-5.1
	c-1.5-1.6-2.4-3.6-2.4-5.8v-15.1c0-2.2,1.5-4.2,3.7-4.8c4.8-1.2,9.6-2.3,14.4-3.2c3.1-0.6,5.5,2.6,4,5.4
	C389.4,107.5,385.6,116.5,382.8,129.3z M308.3,131.7c-5,7.2-11.8,19.8-17.6,40.2c-0.7,2.5-3.9,3-5.4,1c-2-2.6-4.1-4.7-5.6-6
	c-1.2-1-1.8-2.5-1.8-4.1V151c0-3.7,1.9-7.2,4.9-9.3c7.4-5,14.8-9.6,22.3-13.8c0,0,2.2-1.1,3.5,0.3
	C309.7,129.5,308.3,131.7,308.3,131.7z"/>
<polygon class="st1" points="316.8,247.1 343.4,215.5 367.9,245.4 373.9,227.2 369.3,177.7 360.8,156.2 343.2,137.9 327.1,152.9 
	315.4,187.2 312.4,221.2 "/>
<polygon class="st1" points="224,288.4 250.6,256.9 275.1,286.8 281.1,268.6 276.5,219 268.1,197.5 250.4,179.3 234.3,194.3 
	222.6,228.6 219.6,262.6 "/>
<polygon class="st1" points="409,204.8 435.6,173.2 460.1,203.2 466.1,184.9 461.5,135.4 453,113.9 435.4,95.7 419.3,110.6 
	407.6,144.9 404.6,178.9 "/>
<path class="st2" d="M461,123c-6-16.7-13-23.6-17.4-26.5c-2.7-1.7-4.3-4.7-4.3-8V73c0-2.8,2.3-5,5.1-5c2.9,0.1,5.9,0.2,8.8,0.3
	c4.3,0.2,7.9-3.1,8.1-7.3c0.2-4.3-3.1-7.9-7.3-8.1c-67.1-3.5-131.3,14.7-190.9,54.2c-47.3,31.4-91.7,76.1-132,133
	C62.7,336.6,29.3,436.4,29,437.4c-1.3,4.1,0.9,8.4,4.9,9.8c0.8,0.3,1.6,0.4,2.4,0.4c3.2,0,6.3-2.1,7.3-5.3
	c0.3-1,33.2-98.8,100.3-193.5c29.5-41.6,61.2-76.5,94.5-104.1c3.2-2.7,8.1-0.4,8.1,3.8l0,23.7c0,3.3-1.8,6.3-4.6,8.1
	c-7.9,5-13.5,16.4-17.1,26.4c-5.8,16.1-9.3,36.5-9.3,54.7c0,12.6,1.5,22.5,4.7,31c0.5,1.3,1.6,2.2,3,2.4c0.2,0,0.4,0.1,0.7,0.1
	c1.1,0,2.2-0.5,3-1.4c6.8-8.1,12.9-16.6,18.2-25.1c2.5-4,8.3-4,10.8,0c9.9,15.8,17.7,24.5,18.3,25.2c0.7,0.8,1.8,1.3,2.9,1.3
	c0.5,0,1-0.1,1.6-0.3c1-0.4,1.7-1.3,2.1-2.3c3.1-8.3,4.7-18.8,4.7-31c0-18.2-3.6-38.6-9.3-54.7c-6-16.7-13-23.6-17.4-26.5
	c-2.7-1.7-4.3-4.7-4.3-8l0-27.2c0-8.3,4.1-16,10.9-20.7c2.2-1.5,4.4-3,6.6-4.5c19.7-13,39.9-23.6,60.5-31.8c3.3-1.3,6.8,1.1,6.8,4.6
	v37.9c0,3.2-1.6,6.2-4.3,8c-4.4,2.9-11.5,9.8-17.4,26.5c-5.7,16.1-9.3,36.5-9.3,54.7c0,12.3,1.6,22.7,4.7,31c0.4,1,1.1,1.8,2.1,2.3
	c0.5,0.2,1,0.3,1.6,0.3c1.1,0,2.1-0.4,2.9-1.3c0.6-0.7,8.5-9.4,18.3-25.2c2.5-4,8.3-4.1,10.8,0c5.3,8.5,11.3,17,18.2,25.1
	c0.7,0.9,1.8,1.4,3,1.4c0.2,0,0.4,0,0.7-0.1c1.4-0.2,2.5-1.2,3-2.4c3.2-8.5,4.7-18.4,4.7-31c0-18.2-3.5-38.7-9.3-54.7
	c-3.6-10-9.2-21.4-17.1-26.4c-2.8-1.8-4.6-4.8-4.6-8.1v-29c0-11.4,7.7-21.4,18.7-24.3c19.9-5.2,40.2-8.3,60.8-9.1
	c2.8-0.1,5.2,2.1,5.2,5l0,15.4c0,3.3-1.8,6.3-4.6,8.1c-7.9,5-13.5,16.4-17.1,26.4c-5.8,16.1-9.3,36.5-9.3,54.7
	c0,12.6,1.5,22.5,4.7,31c0.5,1.3,1.6,2.2,3,2.4c0.2,0,0.4,0.1,0.7,0.1c1.1,0,2.2-0.5,3-1.4c6.8-8.1,12.9-16.6,18.2-25.1
	c2.5-4,8.3-4,10.8,0c9.9,15.8,17.7,24.5,18.3,25.2c0.7,0.8,1.8,1.3,2.9,1.3c0.5,0,1-0.1,1.6-0.3c1-0.4,1.7-1.3,2.1-2.3
	c3.1-8.3,4.7-18.8,4.7-31C470.4,159.6,466.8,139.2,461,123z M272.6,221.9c3.1,12.2,5.1,26.1,5.1,39.5c0,5.6-0.4,10.8-1.1,15.5
	c-0.4,2.4-3.5,3.2-4.9,1.2c-4.1-5.6-9.3-13.5-14.9-23.3c-1.2-2.2-1.3-4.9-0.2-7.1c5-9.8,8.8-18.8,11.6-26.1
	C269.1,219.6,272,219.8,272.6,221.9z M263.7,197.9c1.9,3.5,2.2,7.6,0.9,11.3c-4.5,13-16,42.2-35.2,68.6c-1.5,2.1-4.8,1.2-5.2-1.3
	c-0.6-4.5-0.9-9.5-0.9-15c0-36.2,14.2-76,27.2-76C254.6,185.4,259.4,190,263.7,197.9z M336.6,213.3c-5.6,9.8-10.8,17.7-14.9,23.3
	c-1.4,2-4.5,1.2-4.9-1.2c-0.7-4.7-1.1-9.9-1.1-15.5c0-13.4,2-27.3,5.1-39.5c0.5-2.1,3.5-2.3,4.3-0.3c2.8,7.2,6.7,16.3,11.6,26.1
	C337.9,208.4,337.9,211.1,336.6,213.3z M370.2,219.8c0,5.6-0.3,10.5-0.9,15c-0.4,2.6-3.7,3.4-5.2,1.3
	c-19.2-26.4-30.7-55.6-35.2-68.6c-1.3-3.7-1-7.8,0.9-11.3c4.3-7.9,9.1-12.5,13.3-12.5C355.9,143.8,370.2,183.6,370.2,219.8z
	 M414.4,194.2c-1.5,2.1-4.8,1.2-5.2-1.3c-0.6-4.5-0.9-9.5-0.9-15c0-36.2,14.2-76,27.2-76c4.2,0,8.9,4.5,13.3,12.5
	c1.9,3.5,2.2,7.6,0.9,11.3C445.1,138.5,433.6,167.7,414.4,194.2z M461.6,193.3c-0.4,2.4-3.5,3.2-4.9,1.2
	c-4.1-5.6-9.3-13.5-14.9-23.3c-1.2-2.2-1.3-4.9-0.2-7.1c5-9.8,8.8-18.8,11.6-26.1c0.8-2,3.8-1.9,4.3,0.3c3.1,12.2,5.1,26.1,5.1,39.5
	C462.6,183.4,462.3,188.6,461.6,193.3z"/>
<g>
	<path class="st23" d="M117.3,278.4c-0.7,0-1.4-0.2-2.1-0.6c-1.8-1.1-2.3-3.5-1.2-5.3c13.6-21.4,28-41.6,42.7-60
		c1.3-1.7,3.8-1.9,5.4-0.6c1.7,1.3,1.9,3.8,0.6,5.4c-14.6,18.3-28.8,38.2-42.2,59.4C119.8,277.8,118.6,278.4,117.3,278.4z"/>
</g>
<g>
	<circle class="st23" cx="169.7" cy="202.1" r="3.9"/>
</g>
<g>
	<circle class="st23" cx="250.4" cy="187.8" r="3.9"/>
</g>
<g>
	<circle class="st23" cx="342.8" cy="145.6" r="3.9"/>
</g>
<g>
	<path class="st23" d="M232.8,221.2c-0.4,0-0.7-0.1-1.1-0.2c-2-0.6-3.2-2.8-2.6-4.8c2.5-8.5,5.4-15.5,8.7-20.9
		c1.1-1.8,3.5-2.4,5.3-1.3c1.8,1.1,2.4,3.5,1.3,5.3c-2.9,4.8-5.6,11.4-7.9,19.1C236,220.1,234.5,221.2,232.8,221.2z"/>
</g>
<g>
	<circle class="st23" cx="435.4" cy="104.2" r="3.9"/>
</g>
<g>
	<path class="st23" d="M417.8,137.6c-0.4,0-0.7-0.1-1.1-0.2c-2-0.6-3.2-2.8-2.6-4.8c2.5-8.5,5.4-15.5,8.7-20.9
		c1.1-1.8,3.5-2.4,5.3-1.3c1.8,1.1,2.4,3.5,1.3,5.3c-2.9,4.8-5.6,11.4-7.9,19.1C421,136.5,419.4,137.6,417.8,137.6z"/>
</g>
<g>
	<path class="st23" d="M329.1,167.9c-0.5,0-1-0.1-1.5-0.3c-2-0.8-2.9-3.1-2.1-5.1c1.5-3.5,3.1-6.7,4.7-9.4c1.1-1.8,3.5-2.4,5.3-1.3
		c1.8,1.1,2.4,3.5,1.3,5.3c-1.5,2.4-2.9,5.2-4.2,8.4C332.1,167,330.6,167.9,329.1,167.9z"/>
</g>
</svg>
