<?xml version="1.0" encoding="utf-8"?>
<!-- Generator: Adobe Illustrator 20.0.0, SVG Export Plug-In . SVG Version: 6.00 Build 0)  -->
<svg version="1.1" id="Layer_1" xmlns="http://www.w3.org/2000/svg" xmlns:xlink="http://www.w3.org/1999/xlink" x="0px" y="0px"
	 viewBox="0 0 500 500" style="enable-background:new 0 0 500 500;" xml:space="preserve">
<style type="text/css">
	.st0{fill:#80B256;stroke:#2D592D;stroke-width:6;stroke-linejoin:round;stroke-miterlimit:10;}
	.st1{fill:#00FFFF;}
	.st2{fill:none;stroke:#589958;stroke-width:3;stroke-linecap:round;stroke-linejoin:round;stroke-miterlimit:10;}
	.st3{fill:none;stroke:#22B573;stroke-linecap:round;stroke-miterlimit:10;}
	.st4{fill:none;stroke:#528B4D;stroke-linecap:round;stroke-miterlimit:10;}
	.st5{fill:none;stroke:#97CC64;stroke-linecap:round;stroke-miterlimit:10;}
	.st6{fill:#80B256;}
	.st7{fill:none;stroke:#589958;stroke-linecap:round;stroke-linejoin:round;stroke-miterlimit:10;}
	.st8{fill:none;stroke:#FFFFFF;stroke-linecap:round;stroke-linejoin:round;stroke-miterlimit:10;}
	.st9{fill:#306231;}
	.st10{fill:none;stroke:#C6CE97;stroke-linecap:round;stroke-linejoin:round;stroke-miterlimit:10;}
	.st11{fill:#FFFFFF;}
	.st12{fill:none;stroke:#519151;stroke-linecap:round;stroke-linejoin:round;stroke-miterlimit:10;}
	.st13{fill:#2D592D;}
	.st14{fill:#589958;}
	.st15{fill:#97CC64;}
	.st16{fill:#C6CE97;}
</style>
<path class="st6" d="M401.5,27.4c-6-2.5-12.8,0.4-15.2,6.3c-0.7,1.6-59.6,145.8-101.4,357.2l-19.6-88.2
	c11.7-4.4,19.4-11.1,18.2-17.4c0,0-0.3-0.8-0.7-2.1c-8.8-27.1-15.1-54.9-19-83.1c-3-21.5-7.2-51-10.1-65.7
	c-4.8-24.8-39.5-87.5-39.5-87.5L204,27.4c-1.9-3.6-7.3-2.6-7.7,1.4L193.5,51c0,0-8.5,71.2-3.7,95.9c2.9,14.7,10,43.6,15.3,64.6
	c7,27.6,11.6,55.8,13.6,84.2c0.1,1.4,0.2,2.2,0.2,2.2c1.2,6.1,10.9,9.5,23.4,9.2l18.2,81.7C193.3,297.8,112.9,249.3,108.9,247
	c-5.5-3.3-12.7-1.5-16,4.1c-3.3,5.5-1.5,12.7,4.1,16c1.1,0.6,109.2,65.7,176.7,184.7c-0.6,3.4-1.2,6.7-1.7,10
	c-1.1,6.4,3.3,12.4,9.6,13.4c0.6,0.1,1.3,0.2,1.9,0.2c5.6,0,10.6-4.1,11.5-9.8c40.8-246.6,112.1-421.2,112.8-423
	C410.3,36.6,407.5,29.8,401.5,27.4z"/>
<path class="st13" d="M283.5,498.6c-1.9,0-3.8-0.2-5.7-0.5c-17-2.8-29.1-17.4-29.3-34.1c-0.1-6.4-2-12.7-5.4-18.1
	C179,344.2,86,287.7,85.1,287.1c-16.6-9.9-22-31.4-12.2-47.9c9.8-16.6,31.3-22.1,47.9-12.3c2,1.2,28.1,16.9,62.8,46.3
	c3.8,3.2,9.6,0.1,8.9-4.9c-2.4-17.1-5.7-34.2-9.9-51c-5.5-21.7-12.7-50.8-15.6-65.9c-5.3-27,1.9-90.7,3.4-103.2l2.7-22.2
	c1.5-12,10.5-21.5,22.4-23.7c11.9-2.2,23.6,3.6,29.2,14.3l10.1,19.3c6.4,11.6,36.6,67.3,41.8,94.1c3,15.2,7.2,44.8,10.3,66.9
	c1.1,7.6,2.3,15.2,3.7,22.7c1.1,5.6,9.1,5.9,10.6,0.4c32.7-119.4,63.1-194.1,63.5-195.2C372.1,7,392.6-1.5,410.4,5.8c0,0,0,0,0,0
	c17.8,7.4,26.4,27.8,19,45.7c-0.7,1.7-71.2,175.3-111.4,417.9C315.3,486.3,300.7,498.6,283.5,498.6z M277.3,412.9
	c0.9,1.3,1.7,2.6,2.6,3.9c0.2-1,0.4-2.1,0.6-3.1C279.4,413.6,278.4,413.3,277.3,412.9z M242.4,283.8c2.6,0,5.2,0.4,7.6,1.3
	c2.1-1.8,4.5-3.3,7.2-4.3c0.2-0.1,0.3-0.1,0.4-0.2c-7.6-25.1-13.2-51.1-16.9-77.4c-4.2-30.5-7.7-53.4-9.9-64.4
	c-1.6-8.4-9.2-25.9-17.9-43.8c-1.3,19.9-1.8,38.9-0.2,47.3c2.2,11.2,7.4,33.1,15,63.4c6.5,25.7,11,51.9,13.4,78c0.2,0,0.4,0,0.5,0
	C241.9,283.8,242.2,283.8,242.4,283.8z M386.3,33.7C386.3,33.7,386.3,33.7,386.3,33.7C386.3,33.7,386.3,33.7,386.3,33.7z"/>
<path class="st14" d="M247.8,331.3l7.4,33.2c1.3,5.8-6.1,9.3-9.8,4.7c-24.5-30.1-49.3-54.3-69.3-71.8c-37.4-32.8-66-49.9-67.2-50.6
	c-5.5-3.3-12.7-1.5-16,4.1c-3.3,5.5-1.5,12.7,4.1,16c1.1,0.6,104.2,62.6,171.9,176.2c3.1,5.3,4.3,11.5,3.3,17.6l-0.1,0.5
	c-1,5.9,2.4,11.8,8.2,13.5c1.1,0.3,2.2,0.5,3.3,0.5c5.6,0,10.5-4.1,11.5-9.8c40.8-246.6,112.1-421.2,112.8-423
	c2.5-6-0.4-12.8-6.3-15.2c-6-2.5-12.8,0.4-15.2,6.3c-0.6,1.5-54.8,134.1-96.1,331.4c-1.2,5.9-9.6,6-11,0.1l-8.5-38.1
	c-1.5-6.8,1.2-13.8,6.8-18c0,0,0.1,0,0.1-0.1c5.4-4.1,8.3-8.8,8.5-13.7c-13.9,9.7-31.2,15.3-47.9,15.3c-6.3,0-12.5-0.8-18.4-2.2
	c2.1,4.2,6.5,7.4,12.9,9.1c0,0,0.6,0.1,1.5,0.4C241,319.4,246.3,324.6,247.8,331.3z"/>
<path class="st15" d="M360,147.4c-0.4,0-0.8-0.1-1.2-0.2c-2-0.6-3.2-2.8-2.5-4.9c5.4-17,10.9-33.6,16.4-49.4c0.7-2,2.9-3.1,4.9-2.4
	c2,0.7,3.1,2.9,2.4,4.9c-5.5,15.8-10.9,32.3-16.3,49.2C363.2,146.3,361.7,147.4,360,147.4z"/>
<path class="st15" d="M203.7,343.8c-1,0-2-0.4-2.8-1.2c-19.1-19.8-39.8-38.3-61.3-55.1c-1.7-1.3-2-3.8-0.7-5.5
	c1.3-1.7,3.8-2,5.5-0.7c21.8,17,42.8,35.8,62.1,55.8c1.5,1.5,1.5,4-0.1,5.5C205.6,343.4,204.7,343.8,203.7,343.8z"/>
<path class="st15" d="M307.8,336.5c-2-0.2-3.9,1.2-4.3,3.2c-6,27.3-11.6,54.8-16.6,82.2c-0.3,1.7-2.7,1.7-3.1,0.1l-8.5-38.3
	c-0.4-2-2.3-3.4-4.3-3.2c-2.3,0.3-3.8,2.5-3.3,4.7l13.4,60.6c0.5,2.4,0.6,5,0.2,7.5c-0.5,3.2-1.1,6.4-1.6,9.6
	c-0.3,1.9,0.7,3.8,2.5,4.5c0.5,0.2,0.9,0.2,1.3,0.2c1.9,0,3.5-1.4,3.8-3.3c6.7-40.8,14.7-82.2,23.8-123.1
	C311.7,339,310.1,336.8,307.8,336.5z"/>
<path class="st6" d="M254,305.9c-17.8,3.5-33.5-0.1-35.1-7.9c0,0-0.1-0.8-0.2-2.2c-2.1-28.4-6.7-56.5-13.6-84.2
	c-5.3-21-12.5-49.9-15.3-64.6c-4.8-24.8,3.7-95.9,3.7-95.9l2.7-22.1c0.5-4,5.9-5,7.7-1.4L214.2,47c0,0,34.7,62.7,39.5,87.5
	c2.9,14.7,7.1,44.2,10.1,65.7c3.9,28.2,10.2,56,19,83.1c0.4,1.4,0.7,2.1,0.7,2.1C285.1,293.4,271.7,302.4,254,305.9z"/>
<path class="st14" d="M205.3,47c0.4,0.3,0.7,0.7,0.9,1.2c7.1,22.3,21.3,67.4,25.2,87.6c3.2,16.4,9,48.8,13.2,73.2
	c5.5,31.6,12.1,63.1,19.6,93.8l0.1,0.4c2.6-0.9,5.1-2,7.2-3.1c-7.4-30.2-13.9-61.3-19.3-92.4c-4.3-24.4-10-56.9-13.2-73.3
	c-4.1-20.9-18.3-66.2-25.5-88.5l-6.3-12c-2.2-4.1-3.7-8.6-4.5-13.2v0c-0.4-2-2.2-3.6-4.2-3.4c-2.4,0.2-4,2.4-3.6,4.6l0.1,0.5
	c0.8,4.5,0.9,9,0.3,13.5l-1.6,13c1.8,23,5.8,71.4,10,92.5c3.2,16.4,10.2,48.7,15.5,72.9c6.8,30.9,12.5,62.2,17.1,93
	c2.5,0.2,5.1,0.2,7.9,0.1l-0.1-0.5c-4.6-31.2-10.5-62.9-17.3-94.2c-5.3-24.1-12.3-56.4-15.5-72.7c-4-20.2-8-67.4-9.8-90.7
	c0-0.6,0.1-1.2,0.5-1.6l0,0C202.9,46.4,204.3,46.3,205.3,47L205.3,47z"/>
<path class="st11" d="M212,165.4c-1.8,0-3.4-1.3-3.8-3.1c-1.9-8.8-3.3-15.9-4.3-21.1c-1.6-8.4-3.4-21.9-5.3-40.2
	c-0.2-2.1,1.3-4,3.5-4.3c2.2-0.2,4,1.3,4.3,3.5c1.9,18.1,3.6,31.4,5.2,39.5c1,5.1,2.5,12.2,4.3,21c0.4,2.1-0.9,4.2-3,4.6
	C212.5,165.3,212.2,165.4,212,165.4z"/>
<path class="st11" d="M235.2,138.9c-1.8,0-3.4-1.3-3.8-3.1c-1.1-5.4-2.9-12.9-5.5-22.5c-0.6-2.1,0.6-4.2,2.7-4.8
	c2.1-0.6,4.2,0.6,4.8,2.7c2.7,9.7,4.6,17.5,5.7,23c0.4,2.1-1,4.2-3.1,4.6C235.7,138.9,235.5,138.9,235.2,138.9z"/>
<circle class="st11" cx="224.7" cy="94.6" r="3.9"/>
<circle class="st11" cx="369.1" cy="115.7" r="3.9"/>
<path class="st11" d="M376.3,98.1c-0.4,0-0.9-0.1-1.3-0.2c-2-0.7-3.1-2.9-2.4-4.9c3-8.7,6.1-17.3,9-25.4c0.7-2,3-3.1,5-2.3
	c2,0.7,3.1,3,2.3,5c-3,8.1-6,16.6-9,25.3C379.4,97.1,377.9,98.1,376.3,98.1z"/>
<path class="st16" d="M241.8,314.6c-11.7,0-21.7-3.1-26.8-8.6c-1.5-1.6-1.4-4,0.2-5.5c1.6-1.5,4-1.4,5.5,0.2
	c5.7,6.2,20.9,7.2,33,4.9c16-3,26.8-10.5,29.1-16.5c0.8-2,3-3,5-2.2c2,0.8,3,3,2.2,5c-3.7,9.6-17.8,18.1-34.9,21.3
	C250.6,314.2,246.1,314.6,241.8,314.6z"/>
</svg>
