<?xml version="1.0" encoding="utf-8"?>
<!-- Generator: Adobe Illustrator 20.0.0, SVG Export Plug-In . SVG Version: 6.00 Build 0)  -->
<svg version="1.1" id="Layer_1" xmlns="http://www.w3.org/2000/svg" xmlns:xlink="http://www.w3.org/1999/xlink" x="0px" y="0px"
	 viewBox="0 0 64 64" style="enable-background:new 0 0 64 64;" xml:space="preserve">
<style type="text/css">
	.st0{fill:#D5DF7F;}
	.st1{fill:#80AC66;}
	.st2{fill:#F9FBEF;}
	.st3{fill:#82AF1D;}
	.st4{fill:#2F3F1A;}
	.st5{fill:#E7ECB9;}
	.st6{fill:#F0F3D4;}
	.st7{fill:#DEE59F;}
	.st8{fill:#ACC476;}
	.st9{fill:#96B870;}
	.st10{fill:#C0D17E;}
	.st11{fill:#BC6F6B;}
	.st12{fill:#D48C64;stroke:#93663D;stroke-width:3;stroke-miterlimit:10;}
	.st13{fill:url(#SVGID_1_);}
	.st14{fill:none;stroke:#CEB699;stroke-linecap:round;stroke-linejoin:round;stroke-miterlimit:10;}
	.st15{fill:url(#SVGID_2_);stroke:#2F3F1A;stroke-width:3;stroke-linecap:round;stroke-miterlimit:10;}
	.st16{fill:none;stroke:#2F3F1A;stroke-miterlimit:10;}
	.st17{fill:url(#SVGID_3_);}
	.st18{fill:none;stroke:#8D5733;stroke-linecap:round;stroke-linejoin:round;stroke-miterlimit:10;}
	.st19{fill:#FCAA54;}
	.st20{fill:#8D5733;}
	.st21{fill:none;stroke:#FFFFFF;stroke-linecap:round;stroke-linejoin:round;stroke-miterlimit:10;}
	.st22{fill:none;stroke:#8D5733;stroke-linecap:round;stroke-miterlimit:10;}
	.st23{fill:none;stroke:#FFFFFF;stroke-linecap:round;stroke-miterlimit:10;}
	.st24{fill:#FFFFFF;}
	.st25{fill:#FCAA54;stroke:#8CC63F;stroke-width:3;stroke-linecap:round;stroke-linejoin:round;stroke-miterlimit:10;}
	.st26{fill:none;stroke:#FDD6AD;stroke-linecap:round;stroke-linejoin:round;stroke-miterlimit:10;}
	.st27{fill:#00FFFF;}
	.st28{fill:none;stroke:#38171C;stroke-linecap:round;stroke-linejoin:round;stroke-miterlimit:10;}
	.st29{fill:#B63640;}
	.st30{fill:none;stroke:#DDA1A4;stroke-linecap:round;stroke-linejoin:round;stroke-miterlimit:10;}
	.st31{fill:#38171C;}
	.st32{fill:none;stroke:#B1986C;stroke-linecap:round;stroke-linejoin:round;stroke-miterlimit:10;}
	.st33{fill:#E5E1C7;}
	.st34{fill:none;stroke:#BEC57A;stroke-linecap:round;stroke-linejoin:round;stroke-miterlimit:10;}
	.st35{fill:#B1986C;}
	.st36{fill:none;stroke:#986E5A;stroke-linecap:round;stroke-linejoin:round;stroke-miterlimit:10;}
	.st37{fill:#EEE1C2;}
	.st38{fill:#F0DBC2;stroke:#986E5A;stroke-width:3;stroke-miterlimit:10;}
	.st39{fill:none;stroke:#BA8178;stroke-linecap:round;stroke-miterlimit:10;}
	.st40{fill:none;stroke:#986E5A;stroke-width:3;stroke-miterlimit:10;}
	.st41{fill:none;stroke:#F8C899;stroke-linecap:round;stroke-linejoin:round;stroke-miterlimit:10;}
	.st42{fill:none;stroke:#E6C18D;stroke-linecap:round;stroke-linejoin:round;stroke-miterlimit:10;}
	.st43{fill:none;stroke:#2F3F1A;stroke-width:3;stroke-miterlimit:10;}
	.st44{fill:url(#SVGID_4_);}
	.st45{fill:url(#SVGID_5_);}
	.st46{fill:none;stroke:#2F3F1A;stroke-width:3;stroke-linejoin:round;stroke-miterlimit:10;}
	.st47{fill:none;stroke:#2F3F1A;stroke-linejoin:round;stroke-miterlimit:10;}
	.st48{clip-path:url(#SVGID_7_);}
	.st49{clip-path:url(#SVGID_9_);}
	.st50{clip-path:url(#SVGID_11_);}
	.st51{fill:#D46A71;stroke:#9E423B;stroke-width:3;stroke-miterlimit:10;}
	.st52{fill:none;stroke:#D68C79;stroke-linecap:round;stroke-miterlimit:10;}
	.st53{fill:url(#SVGID_12_);}
	.st54{fill:#CEB699;}
	.st55{fill:url(#SVGID_13_);}
	.st56{fill:url(#SVGID_14_);}
	.st57{fill:url(#SVGID_15_);}
	.st58{clip-path:url(#SVGID_17_);fill:#F9FBEF;}
	.st59{clip-path:url(#SVGID_17_);fill:#F9FBEE;}
	.st60{clip-path:url(#SVGID_17_);fill:#F8FBED;}
	.st61{clip-path:url(#SVGID_17_);fill:#F8FAED;}
	.st62{clip-path:url(#SVGID_17_);fill:#F8FAEC;}
	.st63{clip-path:url(#SVGID_17_);fill:#F8FAEB;}
	.st64{clip-path:url(#SVGID_17_);fill:#F8FAEA;}
	.st65{clip-path:url(#SVGID_17_);fill:#F7FAEA;}
	.st66{clip-path:url(#SVGID_17_);fill:#F7FAE9;}
	.st67{clip-path:url(#SVGID_17_);fill:#F7F9E9;}
	.st68{clip-path:url(#SVGID_17_);fill:#F7F9E8;}
	.st69{clip-path:url(#SVGID_17_);fill:#F7F9E7;}
	.st70{clip-path:url(#SVGID_17_);fill:#F6F9E7;}
	.st71{clip-path:url(#SVGID_17_);fill:#F6F9E6;}
	.st72{clip-path:url(#SVGID_17_);fill:#F6F9E5;}
	.st73{clip-path:url(#SVGID_17_);fill:#F6F8E5;}
	.st74{clip-path:url(#SVGID_17_);fill:#F5F8E4;}
	.st75{clip-path:url(#SVGID_17_);fill:#F5F8E3;}
	.st76{clip-path:url(#SVGID_17_);fill:#F5F8E2;}
	.st77{clip-path:url(#SVGID_17_);fill:#F5F8E1;}
	.st78{clip-path:url(#SVGID_17_);fill:#F4F7E0;}
	.st79{clip-path:url(#SVGID_17_);fill:#F4F7DF;}
	.st80{clip-path:url(#SVGID_17_);fill:#F4F7DE;}
	.st81{clip-path:url(#SVGID_17_);fill:#F3F7DD;}
	.st82{clip-path:url(#SVGID_17_);fill:#F3F6DC;}
	.st83{clip-path:url(#SVGID_17_);fill:#F3F6DB;}
	.st84{clip-path:url(#SVGID_17_);fill:#F2F6DA;}
	.st85{clip-path:url(#SVGID_17_);fill:#F2F5D9;}
	.st86{clip-path:url(#SVGID_17_);fill:#F1F5D8;}
	.st87{clip-path:url(#SVGID_17_);fill:#F1F5D6;}
	.st88{clip-path:url(#SVGID_17_);fill:#F1F5D5;}
	.st89{clip-path:url(#SVGID_17_);fill:#F0F4D4;}
	.st90{clip-path:url(#SVGID_17_);fill:#F0F4D3;}
	.st91{clip-path:url(#SVGID_17_);fill:#F0F4D2;}
	.st92{clip-path:url(#SVGID_17_);fill:#EFF3D1;}
	.st93{clip-path:url(#SVGID_17_);fill:#EFF3CF;}
	.st94{clip-path:url(#SVGID_17_);fill:#EEF3CE;}
	.st95{clip-path:url(#SVGID_17_);fill:#EEF2CD;}
	.st96{clip-path:url(#SVGID_17_);fill:#EEF2CC;}
	.st97{clip-path:url(#SVGID_17_);fill:#EDF2CA;}
	.st98{clip-path:url(#SVGID_17_);fill:#EDF1C9;}
	.st99{clip-path:url(#SVGID_17_);fill:#ECF1C7;}
	.st100{clip-path:url(#SVGID_17_);fill:#ECF1C6;}
	.st101{clip-path:url(#SVGID_17_);fill:#EBF0C4;}
	.st102{clip-path:url(#SVGID_17_);fill:#EBF0C3;}
	.st103{clip-path:url(#SVGID_17_);fill:#EAF0C1;}
	.st104{clip-path:url(#SVGID_17_);fill:#EAEFC0;}
	.st105{clip-path:url(#SVGID_17_);fill:#E9EFBE;}
	.st106{clip-path:url(#SVGID_17_);fill:#E9EEBC;}
	.st107{clip-path:url(#SVGID_17_);fill:#E8EEBA;}
	.st108{clip-path:url(#SVGID_17_);fill:#E8EDB9;}
	.st109{clip-path:url(#SVGID_17_);fill:#E7EDB7;}
	.st110{clip-path:url(#SVGID_17_);fill:#E6EDB5;}
	.st111{clip-path:url(#SVGID_17_);fill:#E6ECB3;}
	.st112{clip-path:url(#SVGID_17_);fill:#E5ECB1;}
	.st113{clip-path:url(#SVGID_17_);fill:#E5EBAF;}
	.st114{clip-path:url(#SVGID_17_);fill:#E4EBAD;}
	.st115{clip-path:url(#SVGID_17_);fill:#E3EAAB;}
	.st116{clip-path:url(#SVGID_17_);fill:#E3EAA9;}
	.st117{clip-path:url(#SVGID_17_);fill:#E2E9A7;}
	.st118{clip-path:url(#SVGID_17_);fill:#E1E8A5;}
	.st119{clip-path:url(#SVGID_17_);fill:#E0E8A3;}
	.st120{clip-path:url(#SVGID_17_);fill:#E0E7A0;}
	.st121{clip-path:url(#SVGID_17_);fill:#DFE79E;}
	.st122{clip-path:url(#SVGID_17_);fill:#DEE69C;}
	.st123{clip-path:url(#SVGID_17_);fill:#DDE699;}
	.st124{clip-path:url(#SVGID_17_);fill:#DDE597;}
	.st125{clip-path:url(#SVGID_17_);fill:#DCE494;}
	.st126{clip-path:url(#SVGID_17_);fill:#DBE492;}
	.st127{clip-path:url(#SVGID_17_);fill:#DAE38F;}
	.st128{clip-path:url(#SVGID_17_);fill:#D9E28D;}
	.st129{clip-path:url(#SVGID_17_);fill:#D9E28A;}
	.st130{clip-path:url(#SVGID_17_);fill:#D8E187;}
	.st131{clip-path:url(#SVGID_17_);fill:#D7E085;}
	.st132{clip-path:url(#SVGID_17_);fill:#D6E082;}
	.st133{clip-path:url(#SVGID_17_);fill:#D5DF7F;}
	.st134{clip-path:url(#SVGID_17_);fill:#D3DE7E;}
	.st135{clip-path:url(#SVGID_17_);fill:#D1DC7E;}
	.st136{clip-path:url(#SVGID_17_);fill:#CFDB7D;}
	.st137{clip-path:url(#SVGID_17_);fill:#CCDA7C;}
	.st138{clip-path:url(#SVGID_17_);fill:#CAD97C;}
	.st139{clip-path:url(#SVGID_17_);fill:#C8D77B;}
	.st140{clip-path:url(#SVGID_17_);fill:#C6D67B;}
	.st141{clip-path:url(#SVGID_17_);fill:#C4D57A;}
	.st142{clip-path:url(#SVGID_17_);fill:#C2D47A;}
	.st143{clip-path:url(#SVGID_17_);fill:#C1D379;}
	.st144{clip-path:url(#SVGID_17_);fill:#BFD278;}
	.st145{clip-path:url(#SVGID_17_);fill:#BDD178;}
	.st146{clip-path:url(#SVGID_17_);fill:#BBCF77;}
	.st147{clip-path:url(#SVGID_17_);fill:#B9CE77;}
	.st148{clip-path:url(#SVGID_17_);fill:#B7CD76;}
	.st149{clip-path:url(#SVGID_17_);fill:#B6CC76;}
	.st150{clip-path:url(#SVGID_17_);fill:#B4CB75;}
	.st151{clip-path:url(#SVGID_17_);fill:#B2CA75;}
	.st152{clip-path:url(#SVGID_17_);fill:#B1C974;}
	.st153{clip-path:url(#SVGID_17_);fill:#AFC874;}
	.st154{clip-path:url(#SVGID_17_);fill:#AEC773;}
	.st155{clip-path:url(#SVGID_17_);fill:#ACC673;}
	.st156{clip-path:url(#SVGID_17_);fill:#AAC572;}
	.st157{clip-path:url(#SVGID_17_);fill:#A9C572;}
	.st158{clip-path:url(#SVGID_17_);fill:#A7C472;}
	.st159{clip-path:url(#SVGID_17_);fill:#A6C371;}
	.st160{clip-path:url(#SVGID_17_);fill:#A5C271;}
	.st161{clip-path:url(#SVGID_17_);fill:#A3C170;}
	.st162{clip-path:url(#SVGID_17_);fill:#A2C070;}
	.st163{clip-path:url(#SVGID_17_);fill:#A1C070;}
	.st164{clip-path:url(#SVGID_17_);fill:#9FBF6F;}
	.st165{clip-path:url(#SVGID_17_);fill:#9EBE6F;}
	.st166{clip-path:url(#SVGID_17_);fill:#9DBD6E;}
	.st167{clip-path:url(#SVGID_17_);fill:#9CBD6E;}
	.st168{clip-path:url(#SVGID_17_);fill:#9ABC6E;}
	.st169{clip-path:url(#SVGID_17_);fill:#99BB6D;}
	.st170{clip-path:url(#SVGID_17_);fill:#98BA6D;}
	.st171{clip-path:url(#SVGID_17_);fill:#97BA6D;}
	.st172{clip-path:url(#SVGID_17_);fill:#96B96C;}
	.st173{clip-path:url(#SVGID_17_);fill:#95B96C;}
	.st174{clip-path:url(#SVGID_17_);fill:#94B86C;}
	.st175{clip-path:url(#SVGID_17_);fill:#93B76C;}
	.st176{clip-path:url(#SVGID_17_);fill:#92B76B;}
	.st177{clip-path:url(#SVGID_17_);fill:#91B66B;}
	.st178{clip-path:url(#SVGID_17_);fill:#90B66B;}
	.st179{clip-path:url(#SVGID_17_);fill:#8FB56A;}
	.st180{clip-path:url(#SVGID_17_);fill:#8EB56A;}
	.st181{clip-path:url(#SVGID_17_);fill:#8EB46A;}
	.st182{clip-path:url(#SVGID_17_);fill:#8DB46A;}
	.st183{clip-path:url(#SVGID_17_);fill:#8CB36A;}
	.st184{clip-path:url(#SVGID_17_);fill:#8BB369;}
	.st185{clip-path:url(#SVGID_17_);fill:#8AB269;}
	.st186{clip-path:url(#SVGID_17_);fill:#89B169;}
	.st187{clip-path:url(#SVGID_17_);fill:#88B168;}
	.st188{clip-path:url(#SVGID_17_);fill:#87B068;}
	.st189{clip-path:url(#SVGID_17_);fill:#86B068;}
	.st190{clip-path:url(#SVGID_17_);fill:#86AF68;}
	.st191{clip-path:url(#SVGID_17_);fill:#85AF68;}
	.st192{clip-path:url(#SVGID_17_);fill:#85AF67;}
	.st193{clip-path:url(#SVGID_17_);fill:#84AF67;}
	.st194{clip-path:url(#SVGID_17_);fill:#84AE67;}
	.st195{clip-path:url(#SVGID_17_);fill:#83AE67;}
	.st196{clip-path:url(#SVGID_17_);fill:#82AD67;}
	.st197{clip-path:url(#SVGID_17_);fill:#81AD66;}
	.st198{clip-path:url(#SVGID_17_);fill:#81AC66;}
	.st199{clip-path:url(#SVGID_17_);fill:#80AC66;}
	.st200{fill:none;stroke:#E7ECB9;stroke-miterlimit:10;}
	.st201{fill:none;stroke:#ACC476;stroke-miterlimit:10;}
	.st202{fill:url(#SVGID_18_);stroke:#2F3F1A;stroke-width:3;stroke-linecap:round;stroke-miterlimit:10;}
	.st203{fill:none;stroke:#2F3F1A;stroke-linecap:round;stroke-miterlimit:10;}
	.st204{opacity:0.2;}
	.st205{fill:#93663D;}
	.st206{fill:none;stroke:#93663D;stroke-width:3;stroke-miterlimit:10;}
	.st207{fill:#D48C64;}
	.st208{fill:#C68460;}
	.st209{fill:#B3706B;}
	.st210{fill:#B58070;}
	.st211{fill:#682A28;}
	.st212{fill:#B3706B;stroke:#682A28;stroke-width:3;stroke-miterlimit:10;}
	.st213{fill:#B6806E;}
	.st214{fill:none;stroke:#682A28;stroke-width:3;stroke-miterlimit:10;}
	.st215{fill:none;stroke:#D68C79;stroke-miterlimit:10;}
	.st216{opacity:0.4;fill:none;stroke:#FFFFFF;stroke-linecap:round;stroke-miterlimit:10;}
	.st217{fill:none;stroke:#9E423B;stroke-width:3;stroke-linecap:round;stroke-linejoin:round;stroke-miterlimit:10;}
	.st218{fill:none;stroke:#9E423B;stroke-miterlimit:10;}
	.st219{fill:url(#SVGID_19_);stroke:#5B7D12;stroke-width:3;stroke-linecap:round;stroke-linejoin:round;stroke-miterlimit:10;}
	.st220{fill:url(#SVGID_20_);stroke:#2F3F1A;stroke-linecap:round;stroke-linejoin:round;stroke-miterlimit:10;}
	.st221{fill:url(#SVGID_21_);stroke:#2F3F1A;stroke-linecap:round;stroke-linejoin:round;stroke-miterlimit:10;}
	.st222{fill:url(#SVGID_22_);stroke:#2F3F1A;stroke-linecap:round;stroke-linejoin:round;stroke-miterlimit:10;}
	.st223{fill:url(#SVGID_23_);stroke:#2F3F1A;stroke-linecap:round;stroke-linejoin:round;stroke-miterlimit:10;}
	.st224{fill:url(#SVGID_24_);stroke:#2F3F1A;stroke-linecap:round;stroke-linejoin:round;stroke-miterlimit:10;}
	.st225{fill:url(#SVGID_25_);stroke:#5B7D12;stroke-width:3;stroke-linecap:round;stroke-linejoin:round;stroke-miterlimit:10;}
	.st226{fill:url(#SVGID_26_);stroke:#2F3F1A;stroke-linecap:round;stroke-linejoin:round;stroke-miterlimit:10;}
	.st227{fill:url(#SVGID_27_);stroke:#2F3F1A;stroke-linecap:round;stroke-linejoin:round;stroke-miterlimit:10;}
	.st228{fill:url(#SVGID_28_);stroke:#2F3F1A;stroke-linecap:round;stroke-linejoin:round;stroke-miterlimit:10;}
	.st229{fill:url(#SVGID_29_);stroke:#2F3F1A;stroke-linecap:round;stroke-linejoin:round;stroke-miterlimit:10;}
	.st230{fill:url(#SVGID_30_);stroke:#2F3F1A;stroke-linecap:round;stroke-linejoin:round;stroke-miterlimit:10;}
	.st231{fill:url(#SVGID_31_);stroke:#5B7D12;stroke-width:3;stroke-linecap:round;stroke-linejoin:round;stroke-miterlimit:10;}
	.st232{fill:url(#SVGID_32_);stroke:#2F3F1A;stroke-linecap:round;stroke-linejoin:round;stroke-miterlimit:10;}
	.st233{fill:url(#SVGID_33_);stroke:#2F3F1A;stroke-linecap:round;stroke-linejoin:round;stroke-miterlimit:10;}
	.st234{fill:url(#SVGID_34_);stroke:#2F3F1A;stroke-linecap:round;stroke-linejoin:round;stroke-miterlimit:10;}
	.st235{fill:url(#SVGID_35_);stroke:#2F3F1A;stroke-linecap:round;stroke-linejoin:round;stroke-miterlimit:10;}
	.st236{fill:url(#SVGID_36_);stroke:#2F3F1A;stroke-linecap:round;stroke-linejoin:round;stroke-miterlimit:10;}
	.st237{opacity:0.4;fill:#FFFFFF;}
	.st238{fill:#D68C79;}
	.st239{fill:#E5BAB0;}
	.st240{fill:#9E423B;}
	.st241{fill:url(#SVGID_37_);stroke:#2F3F1A;stroke-width:3;stroke-miterlimit:10;}
	.st242{fill:url(#SVGID_38_);}
	.st243{fill:url(#SVGID_39_);}
	.st244{clip-path:url(#SVGID_41_);fill:#FEFED2;}
	.st245{clip-path:url(#SVGID_41_);fill:#FAFBCD;}
	.st246{clip-path:url(#SVGID_41_);fill:#F6F9C8;}
	.st247{clip-path:url(#SVGID_41_);fill:#F2F7C4;}
	.st248{clip-path:url(#SVGID_41_);fill:#EEF4BF;}
	.st249{clip-path:url(#SVGID_41_);fill:#EAF2BB;}
	.st250{clip-path:url(#SVGID_41_);fill:#E6F0B7;}
	.st251{clip-path:url(#SVGID_41_);fill:#E3EEB3;}
	.st252{clip-path:url(#SVGID_41_);fill:#DFECAF;}
	.st253{clip-path:url(#SVGID_41_);fill:#DCEAAB;}
	.st254{clip-path:url(#SVGID_41_);fill:#D9E8A7;}
	.st255{clip-path:url(#SVGID_41_);fill:#D6E6A4;}
	.st256{clip-path:url(#SVGID_41_);fill:#D3E4A0;}
	.st257{clip-path:url(#SVGID_41_);fill:#D0E39D;}
	.st258{clip-path:url(#SVGID_41_);fill:#CDE19A;}
	.st259{clip-path:url(#SVGID_41_);fill:#CBE097;}
	.st260{clip-path:url(#SVGID_41_);fill:#C8DE94;}
	.st261{clip-path:url(#SVGID_41_);fill:#C5DD91;}
	.st262{clip-path:url(#SVGID_41_);fill:#C3DB8E;}
	.st263{clip-path:url(#SVGID_41_);fill:#C1DA8B;}
	.st264{clip-path:url(#SVGID_41_);fill:#BFD889;}
	.st265{clip-path:url(#SVGID_41_);fill:#BCD786;}
	.st266{clip-path:url(#SVGID_41_);fill:#BAD684;}
	.st267{clip-path:url(#SVGID_41_);fill:#B8D582;}
	.st268{clip-path:url(#SVGID_41_);fill:#B6D47F;}
	.st269{clip-path:url(#SVGID_41_);fill:#B5D37D;}
	.st270{clip-path:url(#SVGID_41_);fill:#B3D27B;}
	.st271{clip-path:url(#SVGID_41_);fill:#B1D179;}
	.st272{clip-path:url(#SVGID_41_);fill:#AFD077;}
	.st273{clip-path:url(#SVGID_41_);fill:#AECF76;}
	.st274{clip-path:url(#SVGID_41_);fill:#ACCE74;}
	.st275{clip-path:url(#SVGID_41_);fill:#ABCD72;}
	.st276{clip-path:url(#SVGID_41_);fill:#AACC71;}
	.st277{clip-path:url(#SVGID_41_);fill:#A8CB6F;}
	.st278{clip-path:url(#SVGID_41_);fill:#A7CB6E;}
	.st279{clip-path:url(#SVGID_41_);fill:#A6CA6C;}
	.st280{clip-path:url(#SVGID_41_);fill:#A5C96B;}
	.st281{clip-path:url(#SVGID_41_);fill:#A3C96A;}
	.st282{clip-path:url(#SVGID_41_);fill:#A2C868;}
	.st283{clip-path:url(#SVGID_41_);fill:#A1C767;}
	.st284{clip-path:url(#SVGID_41_);fill:#A0C766;}
	.st285{clip-path:url(#SVGID_41_);fill:#A0C665;}
	.st286{clip-path:url(#SVGID_41_);fill:#9FC664;}
	.st287{clip-path:url(#SVGID_41_);fill:#9EC563;}
	.st288{clip-path:url(#SVGID_41_);fill:#9DC562;}
	.st289{clip-path:url(#SVGID_41_);fill:#9CC461;}
	.st290{clip-path:url(#SVGID_41_);fill:#9BC460;}
	.st291{clip-path:url(#SVGID_41_);fill:#9BC35F;}
	.st292{clip-path:url(#SVGID_41_);fill:#9AC35F;}
	.st293{clip-path:url(#SVGID_41_);fill:#99C35E;}
	.st294{clip-path:url(#SVGID_41_);fill:#99C25D;}
	.st295{clip-path:url(#SVGID_41_);fill:#98C25D;}
	.st296{clip-path:url(#SVGID_41_);fill:#98C25C;}
	.st297{clip-path:url(#SVGID_41_);fill:#97C15B;}
	.st298{clip-path:url(#SVGID_41_);fill:#96C15A;}
	.st299{clip-path:url(#SVGID_41_);fill:#96C05A;}
	.st300{clip-path:url(#SVGID_41_);fill:#95C059;}
	.st301{clip-path:url(#SVGID_41_);fill:#95C058;}
	.st302{clip-path:url(#SVGID_41_);fill:#94C058;}
	.st303{clip-path:url(#SVGID_41_);fill:#94BF58;}
	.st304{clip-path:url(#SVGID_41_);fill:#94BF57;}
	.st305{clip-path:url(#SVGID_41_);fill:#93BF57;}
	.st306{clip-path:url(#SVGID_41_);fill:#93BF56;}
	.st307{clip-path:url(#SVGID_41_);fill:#93BE56;}
	.st308{clip-path:url(#SVGID_41_);fill:#92BE56;}
	.st309{clip-path:url(#SVGID_41_);fill:#92BE55;}
	.st310{clip-path:url(#SVGID_41_);fill:#91BE55;}
	.st311{clip-path:url(#SVGID_41_);fill:#91BE54;}
	.st312{clip-path:url(#SVGID_41_);fill:#91BD54;}
	.st313{clip-path:url(#SVGID_41_);fill:#90BD54;}
	.st314{clip-path:url(#SVGID_41_);fill:#90BD53;}
	.st315{fill:#C0D57C;}
	.st316{fill:#BA8178;}
	.st317{fill:#986E5A;}
	.st318{fill:#F8C899;}
	.st319{fill:none;stroke:#CBCFA3;stroke-miterlimit:10;}
	.st320{fill:none;stroke:#C5D297;stroke-miterlimit:10;}
	.st321{fill:none;stroke:#D0CDAF;stroke-miterlimit:10;}
	.st322{fill:none;stroke:#A1C259;stroke-miterlimit:10;}
	.st323{fill:none;stroke:#92B741;stroke-miterlimit:10;}
	.st324{fill:none;stroke:#B1CC71;stroke-miterlimit:10;}
	.st325{fill:#BFD787;}
	.st326{fill:#A1C259;}
	.st327{fill:#92B741;}
	.st328{fill:#B1CC71;}
	.st329{fill:#D6C9BB;}
	.st330{fill:#CBCFA3;}
	.st331{fill:#C5D297;}
	.st332{fill:#D0CDAF;}
	.st333{fill:#5B7D12;}
</style>
<path class="st3" d="M33.7,62.5c-1.1,0-1.9-0.3-2.1-0.4c-0.4-0.2-0.7-0.5-0.8-0.9c-0.4,0.1-0.9,0.2-1.5,0.2c-0.9,0-1.8-0.2-2.6-0.7
	C26.3,60.5,26,60,26,59.5c-0.8,0-1.6-0.3-2.2-0.7c-0.6-0.4-0.9-1.1-0.7-1.7C32.9,23.8,18,4.2,17.8,4c-0.5-0.6-0.4-1.5,0.2-2.1
	c0.3-0.2,0.6-0.4,1-0.4c0.4,0,0.8,0.2,1.1,0.5c0.1,0.1,0.6,0.6,1.4,1.7c0,0,0.1,0,0.1-0.1c0.1,0,0.2-0.1,0.2-0.1
	c-0.2-0.7,0.1-1.4,0.7-1.8c0.2-0.1,0.5-0.2,0.8-0.2c0.5,0,1,0.2,1.3,0.7C24.7,2.4,25.7,4,27.1,7c-0.2-2.2-0.4-3.4-0.4-3.4
	c-0.1-0.8,0.4-1.5,1.2-1.7c0.1,0,0.2,0,0.3,0c0.7,0,1.3,0.4,1.5,1.1c0,0.2,0.7,2.5,1.5,6.6c0.5-3.6,0.9-5.6,1-5.7
	c0.2-0.7,0.8-1.2,1.5-1.2c0.1,0,0.1,0,0.2,0c0.6,0.1,1.1,0.5,1.3,1.1c0.1-0.5,0.2-0.7,0.2-0.8c0.2-0.7,0.8-1.1,1.5-1.1
	c0.1,0,0.2,0,0.3,0c0.8,0.2,1.3,0.9,1.2,1.7c0,0-0.3,2-0.7,5.5c2-3.5,3.9-5.5,4-5.6C41.8,3.2,42.2,3,42.6,3c0.1,0,0.3,0,0.4,0
	C43.2,3,43.3,3,43.5,3c0.3,0,0.6,0.1,0.9,0.3c0.1,0.1,0.3,0.2,0.3,0.3C45.5,2.6,46,2.1,46,2c0.3-0.3,0.7-0.5,1.1-0.5
	c0.4,0,0.7,0.1,1,0.4c0.6,0.5,0.7,1.5,0.2,2.1c-0.2,0.2-16.5,20.4-5.2,53c0.2,0.7,0,1.4-0.7,1.8c-0.7,0.4-1.4,0.6-2.2,0.7
	c0,0.5-0.3,1-0.7,1.3c-0.8,0.5-1.6,0.7-2.6,0.7c-0.1,0-0.1,0-0.2,0c-0.1,0.2-0.3,0.3-0.5,0.5C35.5,62.3,34.6,62.5,33.7,62.5z"/>
<path class="st4" d="M48.3,5c0.7-0.8,1-1.9,0.5-3.1C48.4,0.7,47.3,0,46.1,0v0c-0.5,0-1,0.1-1.5,0.4c-0.3,0.1-0.5,0.3-0.7,0.6
	c0,0,0,0,0,0c-0.1,0.1-0.2,0.3-0.5,0.6c-0.3-0.1-0.6-0.1-0.9-0.1c-0.2,0-0.4,0-0.5,0c-0.1,0-0.2,0-0.3,0c-0.8,0-1.6,0.3-2.2,0.9
	c0,0-0.3,0.3-0.7,0.8c0-1.4-1-2.6-2.4-2.9c-0.2,0-0.4-0.1-0.6-0.1c-0.8,0-1.6,0.3-2.2,0.9c-0.2-0.1-0.4-0.1-0.5-0.1
	c-0.1,0-0.3,0-0.4,0c-1,0-2,0.5-2.5,1.3c0,0,0,0,0,0c-0.4-1.3-1.6-2.1-2.9-2.1c-0.2,0-0.4,0-0.6,0.1c-0.7,0.1-1.3,0.5-1.7,1.1
	c0,0,0,0,0,0c-0.6-0.9-1.5-1.3-2.5-1.3c-0.5,0-1,0.1-1.5,0.4c-0.2,0.1-0.4,0.3-0.6,0.5C19.5,0.3,18.7,0,17.9,0c-0.7,0-1.4,0.2-2,0.7
	c-1.2,1-1.4,2.9-0.4,4.1c0.1,0.2,14.5,19.4,5,51.7c-0.4,1.3,0.1,2.7,1.2,3.4c0.6,0.4,1.3,0.6,1.9,0.8c0.3,0.5,0.6,0.9,1.1,1.2
	c1,0.6,2.1,0.9,3.3,0.9c0.3,0,0.5,0,0.7,0c0.3,0.3,0.6,0.5,1,0.7c0.3,0.1,1.3,0.5,2.7,0.5c1.2,0,2.3-0.3,3.3-0.9
	c0.1-0.1,0.3-0.2,0.4-0.3c1-0.1,2-0.4,2.8-0.9c0.5-0.3,0.9-0.7,1.1-1.2c0.6-0.1,1.2-0.4,1.8-0.7c1.3-0.8,1.7-2.4,1.3-3.8
	c-4.6-13.2-5.1-25.9-1.7-37.6C44.2,10.3,48,5.5,48.3,5z M21.4,5C21.4,5,21.4,5,21.4,5C21.4,5,21.4,4.9,21.4,5
	C21.4,4.9,21.4,5,21.4,5z M21.5,2.7c0.6,0.9,6.6,10,9.1,25.6c0,0,0,0,0,0c-0.7,8.5-1.1,18.8-0.4,30.3c0,0,0,0,0,0
	c-0.1,0.3-0.1,0.7-0.2,1c0,0-0.6,0.3-1.5,0.3c-0.5,0-1-0.1-1.5-0.3c-0.2-0.1-0.2-0.3-0.2-0.4C33.1,27,22.2,4.2,21.5,2.7
	C21.5,2.7,21.5,2.7,21.5,2.7z M35.4,3.3c0,0-5.1,26.3-0.8,57.4c0,0.2-0.1,0.4-0.2,0.5c-0.5,0.2-1,0.3-1.5,0.3
	c-0.8,0-1.5-0.3-1.5-0.3c0,0,0,0,0,0C29.1,27.3,35.4,3.3,35.4,3.3z M35.8,59.9c-0.1-0.1-0.2-0.2-0.4-0.3c-2-14.7-1.8-28.3-1.1-38.4
	l0,0c2.9-11.1,7.6-16.7,7.6-16.7s-12.3,20.6-4.3,55c0,0,0,0,0,0C37,59.8,36.4,59.9,35.8,59.9z M30.5,20.9
	C30.5,20.9,30.5,20.9,30.5,20.9c0.6-10.5,2-16.8,2-16.8s-0.2,3.7-0.2,9.9c0,0,0,0,0,0c-0.5,3-0.9,6.6-1.3,10.6c0,0,0,0,0,0
	c-0.5-2.6-1.1-5-1.8-7.1c-0.3-0.9-0.5-1.7-0.8-2.5c0,0,0,0,0,0c-0.7-7.2-1.2-11.7-1.2-11.7S29,9.9,30.5,20.9z M23.4,57.4
	C23.4,57.4,23.4,57.4,23.4,57.4C33.6,23.1,17.9,3,17.9,3s3.1,3.3,6,9.4c0,0,0,0,0,0c2.8,9.5,5.6,25.7,2,45.4c-0.2,0-0.5,0.1-0.7,0.1
	C24.7,57.9,24.1,57.8,23.4,57.4z M40.6,57.4C40.6,57.4,40.6,57.4,40.6,57.4c-0.6,0.4-1.2,0.5-1.8,0.5c-0.2,0-0.3,0-0.5,0
	c-4.2-18.8-2.1-33.3,0.4-42.4c0,0,0,0,0,0C42,7.4,46.1,3,46.1,3S28.8,23.6,40.6,57.4z"/>
</svg>
