<?xml version="1.0" encoding="utf-8"?>
<!-- Generator: Adobe Illustrator 20.1.0, SVG Export Plug-In . SVG Version: 6.00 Build 0)  -->
<svg version="1.1" id="Layer_1" xmlns="http://www.w3.org/2000/svg" xmlns:xlink="http://www.w3.org/1999/xlink" x="0px" y="0px"
	 viewBox="0 0 500 500" style="enable-background:new 0 0 500 500;" xml:space="preserve">
<style type="text/css">
	.st0{fill:#ACB586;}
	.st1{fill:#B27300;}
	.st2{fill:#609600;stroke:#51712E;stroke-width:6;stroke-linejoin:round;stroke-miterlimit:10;}
	.st3{fill:none;stroke:#D6770F;stroke-width:6;stroke-miterlimit:10;}
	.st4{display:none;fill:#D1A982;}
	.st5{fill:#81AF5B;}
	.st6{fill:#47771E;}
	.st7{fill:#D0A679;}
	.st8{fill:#CDA973;stroke:#A5794A;stroke-width:3;stroke-miterlimit:10;}
	.st9{fill:#E0C9BB;stroke:#68763A;stroke-width:3;stroke-linecap:round;stroke-miterlimit:10;}
	.st10{fill:none;stroke:#C69C6D;stroke-width:3;stroke-miterlimit:10;}
	.st11{fill:none;stroke:#699273;stroke-width:3;stroke-miterlimit:10;}
	.st12{fill:#689946;}
	.st13{fill:none;stroke:#689946;stroke-width:3;stroke-miterlimit:10;}
	.st14{fill:#00FFFF;}
	.st15{fill:#54665F;}
	.st16{fill:#434D42;}
	.st17{fill:#54665F;stroke:#434D42;stroke-width:2;stroke-linecap:round;stroke-linejoin:round;stroke-miterlimit:10;}
	.st18{fill:#748C8B;}
	.st19{fill:#EFC11E;}
	.st20{fill:none;stroke:#434D42;stroke-linecap:round;stroke-linejoin:round;stroke-miterlimit:10;}
	.st21{fill:none;stroke:#FFFFFF;stroke-linecap:round;stroke-linejoin:round;stroke-miterlimit:10;}
	.st22{fill:#748C8B;stroke:#434D42;stroke-linecap:round;stroke-linejoin:round;stroke-miterlimit:10;}
	.st23{fill:#FFFFFF;}
	.st24{fill:#EFFE99;stroke:#3E4A14;stroke-width:3;stroke-miterlimit:10;}
	.st25{clip-path:url(#SVGID_2_);}
	.st26{fill:none;stroke:#3E4A14;stroke-width:3;stroke-miterlimit:10;}
	.st27{fill:none;stroke:#FFFFFF;stroke-linecap:round;stroke-miterlimit:10;}
	.st28{fill:#EFFE99;}
	.st29{fill:#3E4A14;}
	.st30{fill:#F1C06D;}
	.st31{clip-path:url(#SVGID_4_);}
	.st32{clip-path:url(#SVGID_6_);}
	.st33{fill:none;stroke:#E4D9C8;stroke-linecap:round;stroke-linejoin:round;}
	.st34{clip-path:url(#SVGID_8_);}
	.st35{clip-path:url(#SVGID_10_);}
	.st36{clip-path:url(#SVGID_12_);}
	.st37{clip-path:url(#SVGID_14_);}
	.st38{clip-path:url(#SVGID_16_);}
	.st39{fill:#DED1C8;}
	.st40{clip-path:url(#SVGID_18_);}
	.st41{clip-path:url(#SVGID_20_);}
	.st42{clip-path:url(#SVGID_22_);}
	.st43{fill:none;stroke:#C6A06A;stroke-width:2;stroke-miterlimit:10;}
	.st44{fill:#699273;}
	.st45{clip-path:url(#SVGID_24_);}
	.st46{fill:#F2E6D6;}
	.st47{clip-path:url(#SVGID_26_);fill:#F2E6D6;}
	.st48{clip-path:url(#SVGID_28_);fill:#F2E6D6;}
	.st49{fill:#7F613C;}
	.st50{fill:none;stroke:#C8CF80;stroke-width:3;stroke-miterlimit:10;}
	.st51{fill:#CEE5D9;}
	.st52{fill:none;stroke:#86C1A7;stroke-width:3;stroke-linecap:round;stroke-miterlimit:10;}
	.st53{fill:none;stroke:#86C1A7;stroke-linecap:round;stroke-miterlimit:10;}
	.st54{fill:#86C1A7;}
	.st55{fill:#CFE2CF;}
	.st56{fill:#C8CF80;}
	.st57{fill:#86BF95;}
	.st58{fill:none;stroke:#86BF95;stroke-width:3;stroke-linecap:round;stroke-miterlimit:10;}
	.st59{fill:none;stroke:#86BF95;stroke-linecap:round;stroke-miterlimit:10;}
	.st60{fill:#ECEE9A;stroke:#699273;stroke-linecap:round;stroke-miterlimit:10;}
	.st61{fill:none;stroke:#699273;stroke-width:3;stroke-linecap:round;stroke-miterlimit:10;}
	.st62{fill:#C69C6D;}
	.st63{fill:#ECEE9A;}
	.st64{clip-path:url(#SVGID_30_);}
	.st65{fill:#2F7B1D;stroke:#0A4D2C;stroke-width:3;stroke-miterlimit:10;}
	.st66{fill:#2F7B1D;stroke:#0A4D2C;stroke-linecap:round;stroke-miterlimit:10;}
	.st67{fill:#2F7B1D;stroke:#81AF5B;stroke-linecap:round;stroke-miterlimit:10;}
	.st68{fill:#2F7B1D;}
	.st69{fill:#0A4D2C;}
	.st70{fill:#FFE706;}
	.st71{fill:#D3A700;}
	.st72{fill:none;stroke:#D3A700;stroke-linecap:round;stroke-miterlimit:10;}
	.st73{fill:#FA8D1B;stroke:#D2614D;stroke-width:3;stroke-miterlimit:10;}
	.st74{fill:#FA8D1B;stroke:#D2614D;stroke-linecap:round;stroke-miterlimit:10;}
	.st75{fill:#E0C9BB;}
	.st76{fill:#FA8D1B;}
	.st77{fill:#68763A;}
	.st78{fill:#D2614D;}
	.st79{fill:#5D685D;stroke:#4A544B;stroke-width:3;stroke-linecap:round;stroke-miterlimit:10;}
	.st80{fill:none;stroke:#979B83;stroke-linecap:round;stroke-miterlimit:10;}
	.st81{fill:none;stroke:#4A544B;stroke-width:3;stroke-linecap:round;stroke-miterlimit:10;}
	.st82{fill:#F4E400;stroke:#DFBE00;stroke-width:3;stroke-miterlimit:10;}
	.st83{fill:#F4E400;stroke:#DFBE00;stroke-linecap:round;stroke-miterlimit:10;}
	.st84{fill:#FDDC6C;stroke:#0A4D2C;stroke-width:3;stroke-miterlimit:10;}
	.st85{fill:#FDDC6C;stroke:#0A4D2C;stroke-miterlimit:10;}
	.st86{fill:#FDDC6C;stroke:#0A4D2C;stroke-linecap:round;stroke-miterlimit:10;}
	.st87{fill:#FDDC6C;stroke:#FFFFFF;stroke-linecap:round;stroke-miterlimit:10;}
	.st88{fill:#CDA973;}
	.st89{fill:#A5794A;}
	.st90{fill:#FDDC6C;}
	.st91{fill:#B29166;}
	.st92{fill:#7F5B3B;}
	.st93{fill:#F4E400;}
	.st94{fill:#A58500;}
	.st95{fill:#DFBE00;}
	.st96{fill:#5F7755;}
	.st97{fill:#4A544B;}
	.st98{fill:#999E77;}
	.st99{fill:#3E4C37;}
	.st100{fill:#FDCC89;}
	.st101{fill:#FDCC89;stroke:#D0A679;stroke-linecap:round;stroke-miterlimit:10;}
	.st102{fill:#7F6546;}
	.st103{fill:#F3CF47;stroke:#D3A700;stroke-linecap:round;stroke-linejoin:round;stroke-miterlimit:10;}
	.st104{fill:#F3CF47;stroke:#FFFFFF;stroke-linecap:round;stroke-linejoin:round;stroke-miterlimit:10;}
	.st105{fill:none;stroke:#D3A700;stroke-miterlimit:10;}
	.st106{fill:#81AF5B;stroke:#2F7B1D;stroke-width:3;stroke-linecap:round;stroke-linejoin:round;stroke-miterlimit:10;}
	.st107{fill:#F3CF47;}
	.st108{fill:#A57600;}
	.st109{fill:#81AF5B;stroke:#0A4D2C;stroke-width:3;stroke-linecap:round;stroke-miterlimit:10;}
	.st110{fill:#47771E;stroke:#0B4C0B;stroke-width:3;stroke-miterlimit:10;}
	.st111{fill:none;stroke:#81AF5B;stroke-linecap:round;stroke-miterlimit:10;}
	.st112{fill:#81AF5B;stroke:#0B4C0B;stroke-width:3;stroke-miterlimit:10;}
	.st113{fill:#0B4C0B;}
	.st114{fill:#FFA227;}
	.st115{fill:none;stroke:#EF8000;stroke-linecap:round;stroke-miterlimit:10;}
	.st116{fill:#EF8000;}
	.st117{fill:none;stroke:#D6770F;stroke-miterlimit:10;}
	.st118{fill:#609600;stroke:#51712E;stroke-miterlimit:10;}
	.st119{fill:#609600;}
	.st120{fill:#51712E;}
	.st121{fill:#D6770F;}
	.st122{fill:#EECA00;}
	.st123{fill:#5C6247;}
	.st124{fill:none;stroke:#EADF8C;stroke-linecap:round;stroke-linejoin:round;stroke-miterlimit:10;}
	.st125{fill:#EADF8C;}
</style>
<rect x="-727.1" y="-2293.9" class="st4" width="2535.7" height="2318.4"/>
<g>
	<polygon class="st122" points="78,142 133.3,99.2 221.1,79.4 302.6,90.8 367,56.2 431.9,45.2 453,10.5 484.7,27 460.6,76.2 
		445.8,146.5 413.3,200.6 426.8,300.3 403.6,380.1 344.9,448.5 	"/>
	<path class="st123" d="M367,423.2c-0.8-1.9-1.8-3.9-3.3-5.7C323.6,366,274.2,325.9,231,277.8c-45.7-50.9-96.3-90.4-149.2-133.4
		c-1.2-1-2.5-1.8-3.8-2.5c-3.5,3.6-6.9,7.3-10.2,11.2c-62.6,74.4-63.9,179.3-3.2,255c4.7,5.9,9.7,11.4,14.9,16.7
		c35.1,35.1,82.1,56.4,131.8,59.1c57.2,3.1,113.2-18.3,153.7-58.8C365.7,424.6,366.3,423.8,367,423.2z"/>
	<path class="st125" d="M182.8,453.3c-1.7,0-3.3-1.1-3.8-2.9c-0.6-2.1,0.7-4.2,2.8-4.8c38.6-10.5,78.1-34.6,111.3-67.8
		c49.8-49.8,77.8-112.3,73.1-163c-1.7-18.2,3.7-36.1,15.2-50.5l34.2-41.8c1.4-1.7,3.8-1.9,5.5-0.5c1.7,1.4,1.9,3.8,0.5,5.5
		l-34.2,41.8c-10.2,12.7-15,28.7-13.5,44.8c4.9,53-23.9,117.9-75.4,169.3c-34.1,34.1-74.9,58.9-114.7,69.8
		C183.5,453.3,183.1,453.3,182.8,453.3z"/>
	<path class="st125" d="M55.8,323.8c-0.4,0-0.7-0.1-1.1-0.2c-2.1-0.6-3.3-2.8-2.7-4.9c9.9-34.2,29.9-68.7,57.8-99.9
		c52.2-58.2,122.8-92.7,179.9-88c17.2,1.4,33.5-3.3,46.1-13.4l41.8-34.2c1.7-1.4,4.1-1.1,5.5,0.6c1.4,1.7,1.1,4.1-0.6,5.5
		l-41.8,34.2c-14.2,11.4-32.5,16.7-51.7,15.1c-54.7-4.5-122.8,29-173.4,85.4C88.5,254.5,69.1,288,59.6,321
		C59.1,322.7,57.5,323.8,55.8,323.8z"/>
	<path class="st125" d="M278.5,424.4c-1.2,0-2.3-0.5-3.1-1.5c-1.3-1.7-1-4.2,0.7-5.5c10.5-8.1,20.6-17,30-26.5c1.5-1.5,4-1.5,5.5,0
		c1.5,1.5,1.5,4,0,5.5c-9.7,9.7-20.1,18.8-30.8,27.1C280.2,424.2,279.4,424.4,278.5,424.4z"/>
	<path class="st125" d="M242.1,405c-1.3,0-2.5-0.6-3.2-1.7c-1.2-1.8-0.8-4.2,1-5.4c2.3-1.6,4.6-3.2,6.9-4.8c1.8-1.3,4.2-0.9,5.5,0.9
		c1.3,1.8,0.9,4.2-0.9,5.5c-2.3,1.7-4.7,3.4-7.1,5C243.6,404.8,242.9,405,242.1,405z"/>
	<path class="st125" d="M177.8,435.5c-1.7,0-3.3-1.1-3.8-2.9c-0.6-2.1,0.7-4.2,2.8-4.8c4.4-1.2,8.9-2.6,13.4-4.2
		c2-0.7,4.3,0.3,5,2.4c0.7,2-0.3,4.3-2.4,5c-4.7,1.7-9.4,3.2-14,4.4C178.5,435.5,178.2,435.5,177.8,435.5z"/>
	<path class="st125" d="M70.5,342.1c-0.3,0-0.5,0-0.8-0.1c-2.1-0.4-3.5-2.5-3.1-4.6c0.4-2,0.8-4,1.3-6c0.5-2.1,2.6-3.4,4.7-2.9
		c2.1,0.5,3.4,2.6,2.9,4.7c-0.5,1.9-0.9,3.8-1.3,5.7C74,340.8,72.3,342.1,70.5,342.1z"/>
	<path class="st23" d="M103.2,267.8c-0.8,0-1.5-0.2-2.2-0.7c-1.8-1.2-2.3-3.7-1.1-5.4c7.1-10.4,15-20.6,23.7-30.3
		c1.4-1.6,3.9-1.7,5.5-0.3c1.6,1.4,1.7,3.9,0.3,5.5c-8.4,9.4-16.2,19.3-23.1,29.5C105.7,267.2,104.5,267.8,103.2,267.8z"/>
	<path class="st23" d="M99,213.1c-0.9,0-1.9-0.3-2.6-1c-1.6-1.4-1.7-3.9-0.3-5.5c3.1-3.4,6.2-6.8,9.4-10.1c1.5-1.5,4-1.6,5.5-0.1
		c1.5,1.5,1.6,4,0.1,5.5c-3.1,3.2-6.2,6.5-9.2,9.8C101.1,212.6,100,213.1,99,213.1z"/>
	<path class="st23" d="M56.1,277.2c-0.6,0-1.1-0.1-1.6-0.4c-2-0.9-2.8-3.2-1.9-5.2c4.9-10.5,10.6-21.1,17-31.4
		c1.1-1.8,3.6-2.4,5.4-1.2c1.8,1.1,2.4,3.6,1.2,5.4c-6.2,10-11.8,20.2-16.6,30.5C59,276.4,57.6,277.2,56.1,277.2z"/>
	<path class="st125" d="M246.5,446c-1.3,0-2.7-0.7-3.4-1.9c-1.1-1.9-0.5-4.3,1.4-5.4c4.6-2.7,9.2-5.5,13.6-8.5
		c1.8-1.2,4.2-0.7,5.4,1.1c1.2,1.8,0.7,4.2-1.1,5.4c-4.6,3-9.3,6-14,8.7C247.9,445.8,247.2,446,246.5,446z"/>
	<path class="st125" d="M218.4,322.9c-1,0-2-0.4-2.8-1.2c-1.5-1.5-1.5-4,0-5.5c2.6-2.6,5.3-5.2,7.9-7.8c1.5-1.5,4-1.5,5.5,0
		c1.5,1.5,1.5,4,0,5.5c-2.7,2.7-5.3,5.3-7.9,7.9C220.4,322.5,219.4,322.9,218.4,322.9z"/>
	<path class="st125" d="M132.4,347.8c-0.9,0-1.8-0.3-2.6-1c-1.6-1.4-1.8-3.9-0.3-5.5c5.8-6.6,12-13.4,18.3-20.3
		c1.5-1.6,4-1.7,5.5-0.2c1.6,1.5,1.7,4,0.2,5.5c-6.3,6.8-12.4,13.6-18.2,20.1C134.6,347.4,133.5,347.8,132.4,347.8z"/>
	<path class="st125" d="M106.5,402.5c-1,0-2-0.4-2.8-1.1c-1.5-1.5-1.5-4,0-5.5L390,109.5c1.5-1.5,4-1.5,5.5,0s1.5,4,0,5.5
		L109.2,401.4C108.5,402.1,107.5,402.5,106.5,402.5z"/>
	
		<ellipse transform="matrix(0.7071 -0.7071 0.7071 0.7071 -138.3427 124.8914)" class="st23" cx="81.6" cy="229.4" rx="3.7" ry="3.7"/>
	
		<ellipse transform="matrix(0.7071 -0.7071 0.7071 0.7071 -259.7512 242.6655)" class="st125" cx="163" cy="434.9" rx="3.7" ry="3.7"/>
	<path class="st1" d="M482.2,9.2c-6-4.9-13.5-7.7-21.2-7.7c-13.1,0-25,7.8-30.3,19.8c-2.7,6.1-7,11.3-12.2,15.1
		c-5.5,4-12.5,5.4-19.2,4.5c-3.2-0.4-6.4-0.6-9.6-0.6c-17.4,0-34.3,6.1-47.8,17.1l-9.4,7.8c-10,8.3-22.5,12.6-36.1,12.6
		c-5.7,0-11.4-0.8-17-2.3c-18.7-5.1-38-7.7-57.4-7.7c-30.6,0-61.4,6.7-89.2,19.3c-29.3,13.3-54.9,32.8-75.9,57.8
		c-16.3,19.4-29,41.1-37.6,64.5C10.8,232.2,6.3,256.1,6,280.4c-0.3,24.3,3.5,48.3,11.4,71.4c8.1,23.6,20.2,45.6,36,65.4
		c41.4,51.6,102.8,81.2,168.5,81.2c28,0,55.2-5.3,81-15.8c26.7-10.8,50.7-26.7,71.2-47.3c27.5-27.5,47.1-61.9,56.5-99.5
		c9.2-36.5,8.7-74.9-1.5-111c-5.2-18.4-1.5-37.6,9.9-51.4l8.4-10.2c11.9-14.4,18-32.7,17.1-51.4c-0.1-2.9-0.5-5.8-0.9-8.6
		c-0.5-2.9-0.4-5.8,0.3-8.6v0c1.4-5.7,4-10.8,7.3-14.8c8.4-10.2,15.1-20.8,19.9-31.7C497.2,34.5,493.5,18.5,482.2,9.2z M411.8,65
		c18-4.6,32.9-17.1,40.4-34.1c1.6-3.6,5.1-5.7,8.8-5.7c2.1,0,4.2,0.7,6.1,2.2c3.3,2.7,4.3,7.3,2.6,11.3c-4.5,10.2-10.6,19-16,25.6
		c-5.9,7.2-10.2,15.6-12.5,24.7l-3.7,14.8l0,0l0,0c-0.5,1.9-2.6,3.1-4.4,2.3c-15.5-6.1-27.8-18.4-33.9-33.9c-0.7-1.9,0.4-4,2.3-4.4
		L411.8,65z M390.3,70.9c7.2,20.6,23,37.3,43.8,43.8c1.2,0.4,2.4,0.7,3.3,0.9c2.2,0.5,3.7,2.5,3.5,4.8c-0.9,9.9-4.7,19.7-11.5,27.9
		l-8.4,10.2c-16.3,19.8-22.1,46.4-14.9,71c18.9,65,2.7,138.1-48.5,189.3c-37.5,37.5-86.5,56.2-135.6,56.2
		c-55.7,0-111.5-24.1-150.2-72.4C14.2,330.7,15.6,230.4,74.8,160c38.5-45.8,92.8-68.7,147.1-68.7c17.2,0,34.4,2.3,51.1,6.9
		c7.7,2.1,15.5,3.2,23.3,3.2c18.5,0,36.5-6,51.1-18l9.4-7.8c8.6-7.1,18.8-10.9,29.2-11.6c1.5-0.1,2.9,0.9,3.2,2.5
		C389.4,67.8,389.8,69.4,390.3,70.9z"/>
</g>
</svg>
