<?xml version="1.0" encoding="utf-8"?>
<!-- Generator: Adobe Illustrator 20.0.0, SVG Export Plug-In . SVG Version: 6.00 Build 0)  -->
<svg version="1.1" id="Layer_1" xmlns="http://www.w3.org/2000/svg" xmlns:xlink="http://www.w3.org/1999/xlink" x="0px" y="0px"
	 viewBox="0 0 200 200" style="enable-background:new 0 0 200 200;" xml:space="preserve">
<style type="text/css">
	.st0{fill:#A0CB39;}
	.st1{fill:#A9C500;}
	.st2{fill:#2B6000;}
	.st3{fill:#A0CB39;stroke:#4B823B;stroke-width:3;stroke-linejoin:round;stroke-miterlimit:10;}
	.st4{fill:#4B823B;}
	.st5{fill:#90C400;}
	.st6{fill:#90C400;stroke:#2B6000;stroke-width:3;stroke-linecap:round;stroke-miterlimit:10;}
	.st7{fill:#90C400;stroke:#2B6000;stroke-linecap:round;stroke-linejoin:round;stroke-miterlimit:10;}
	.st8{fill:#68AB19;}
	.st9{fill:#074004;}
	.st10{fill:#94466D;stroke:#311538;stroke-width:3;stroke-miterlimit:10;}
	.st11{fill:#00FFFF;}
	.st12{fill:none;stroke:#311538;stroke-linecap:round;stroke-miterlimit:10;}
	.st13{fill:#F08A06;stroke:#DA5C00;stroke-width:3;stroke-miterlimit:10;}
	.st14{fill:none;stroke:#DA5C00;stroke-linecap:round;stroke-miterlimit:10;}
	.st15{fill:none;stroke:#FFFFFF;stroke-linecap:round;stroke-miterlimit:10;}
	.st16{fill:#FFFFFF;}
	.st17{fill:none;stroke:#074004;stroke-width:3;stroke-miterlimit:10;}
	.st18{fill:none;stroke:#A9C500;stroke-width:3;stroke-linecap:round;stroke-linejoin:round;stroke-miterlimit:10;}
	.st19{fill:#F08A06;}
	.st20{fill:#DA5C00;}
	.st21{fill:#94466D;}
	.st22{fill:#311538;}
	.st23{fill:#8DA54A;}
	.st24{fill:#3B6014;}
	.st25{fill:none;stroke:#F08A06;stroke-linecap:round;stroke-miterlimit:10;}
	.st26{display:none;fill:none;stroke:#FFFFFF;stroke-linecap:round;stroke-miterlimit:10;}
	.st27{display:none;fill:#FFFFFF;}
	.st28{fill:none;stroke:#311538;stroke-width:3;stroke-miterlimit:10;}
	.st29{fill:#105409;}
	.st30{fill:#F5DABD;stroke:#B9722E;stroke-width:3;stroke-miterlimit:10;}
	.st31{fill:none;stroke:#B9722E;stroke-linecap:round;stroke-miterlimit:10;}
	.st32{fill:#3A7800;}
	.st33{fill:#A9C500;stroke:#2B6000;stroke-width:3;stroke-miterlimit:10;}
	.st34{fill:#A9C500;stroke:#2B6000;stroke-width:3;stroke-linecap:round;stroke-miterlimit:10;}
	.st35{fill:#A9C500;stroke:#2B6000;stroke-linecap:round;stroke-linejoin:round;stroke-miterlimit:10;}
	.st36{fill:#A9C500;stroke:#2B6000;stroke-width:9.5263;stroke-miterlimit:10;}
	.st37{fill:none;stroke:#B9722E;stroke-width:0.9785;stroke-linecap:round;stroke-miterlimit:10;}
	.st38{fill:#F5DABD;}
	.st39{fill:#B9722E;}
	.st40{fill:#E5C074;}
	.st41{fill:#E5C074;stroke:#52340E;stroke-width:3;stroke-miterlimit:10;}
	.st42{fill:none;stroke:#A0CB39;stroke-width:4;stroke-miterlimit:10;}
	.st43{fill:none;stroke:#52340E;stroke-linecap:round;stroke-linejoin:round;stroke-miterlimit:10;}
	.st44{fill:none;stroke:#52340E;stroke-linejoin:round;stroke-miterlimit:10;}
	.st45{fill:#52340E;}
	.st46{fill:#A0CB39;stroke:#4B823B;stroke-linejoin:round;stroke-miterlimit:10;}
	.st47{fill:none;stroke:#2B6000;stroke-linecap:round;stroke-linejoin:round;stroke-miterlimit:10;}
</style>
<g>
	<path class="st0" d="M76.5,93L37.5,76.7L43,34.4c2-6.7,8.3-11.5,15.4-11.5l36.2,12.9c16.6-22.6,39.9-29.8,39.9-29.8
		s27,10.7,26.8,39.1c-0.2,22.5-33.9,33.6-33.9,33.6c-12.4,50.3-19.4,105-19.4,105.6c0,0-19.6,20.1-18.3,2.3
		C92.2,150.1,77.7,95.4,76.5,93z M93.4,84.2c1.3,2.5,4.8,9.9,8.2,21.9c2.4-11.6,4.8-22.5,7.4-32.8l-7.9-14.8L93.4,84.2z"/>
</g>
<path class="st29" d="M163.5,32.3l-10.7-20.1c-3.6-6.8-10.7-11-18.3-11c-3.4,0-6.8,0.9-9.8,2.5l-20.1,10.7c-5.7,3-10,7.8-12.6,13.5
	c-1.8-1-3.8-1.9-5.9-2.5L64.3,19c-1.9-0.6-3.9-0.9-5.9-0.9c-9.1,0-17.3,6.1-19.9,14.9l-6.5,21.8c-2.2,7.3-1.4,15.1,2.3,21.8
	c3.6,6.7,9.7,11.6,17,13.8l22,6.5c3.6,8.1,15.3,38.8,11.1,84.9c-0.7,7.4,4.6,14.2,11.9,15.4c0.3,0,0.5,0.1,0.8,0.1
	c0.5,0.1,1,0.1,1.5,0.1c7.2,0,13.3-5.4,14.2-12.5c0.1-0.5,6.7-52.9,18.8-103l20.3-10.9C165.7,63.6,170.9,46.3,163.5,32.3z M102.4,71
	l1.6,3c-1.1,4.7-2.3,9.5-3.4,14.4c-0.8-1.9-1.5-3.4-2-4.6L102.4,71z M88.9,85.8c0.5,1,8.9,16.6,13.1,44.4c3-16.9,6.9-36,11.5-54.8
	c0.4-1.6,0.2-3.4-0.6-4.9l-9.4-17.5l7-0.4c0.9,0,1.6-0.7,1.6-1.6c0-0.9-0.7-1.6-1.7-1.6l-8.5,0.5l-0.6-1.1c-1.8-3.3-2.5-7-2.2-10.5
	l11.5,3.5c0.2,0,0.3,0.1,0.5,0.1c0.8,0,1.5-0.6,1.6-1.4c0.1-0.8-0.4-1.5-1.2-1.8l-11.8-3.6c0.4-1.6,1-3.1,1.8-4.5
	c2.1-3.9,7.8-3.8,9.9,0.1l0.3,0.6c0.9,1.6,2.5,2.5,4.2,2.5c0.9,0,1.9-0.3,2.7-0.9c2-1.4,2.5-4.2,1.4-6.3l-1.3-2.3
	c-1.5-2.8-0.5-6.2,2.3-7.7l5.2-2.8l0.9,7.6c0.1,0.8,0.8,1.4,1.6,1.4c0.1,0,0.1,0,0.2,0c0.9-0.1,1.5-0.9,1.4-1.8l-1-8.8
	c1.7-0.9,3.5-1.3,5.3-1.3c3.9,0,7.7,2.1,9.8,5.7l-5.7,6.9c-0.5,0.6-0.6,1.6,0,2.2c0.3,0.3,0.7,0.5,1.2,0.5c0.5,0,0.9-0.2,1.2-0.6
	l5-6l2.8,5.3c1.5,2.8,0.4,6.2-2.3,7.7l-2.4,1.3c-2.1,1.2-3.2,3.7-2.3,6c0.8,1.9,2.6,3.1,4.5,3.1c0.8,0,1.5-0.2,2.3-0.6l0.6-0.3
	c3.9-2.1,8.7,0.9,8.4,5.3c-0.1,1.6-0.4,3.2-1,4.8l-11.9-3.5c-0.7-0.2-1.5,0-1.9,0.7c-0.6,0.9-0.1,2.1,0.9,2.3l11.5,3.4
	c-1.7,3.2-4.3,5.9-7.8,7.7l-0.9,0.5l-6.9-5.1c-0.8-0.6-1.9-0.3-2.4,0.6c-0.4,0.7-0.1,1.6,0.5,2l5.7,4.2l-17.4,9.3
	c-1.7,0.9-3,2.5-3.4,4.4c-12.4,50.6-19.2,104.5-19.3,105.2c-0.3,2.4-2.4,4.2-4.7,4.2c-0.2,0-0.3,0-0.5,0c-0.1,0-0.2,0-0.3,0
	c-2.5-0.4-4.2-2.6-4-5.1c5.3-57.5-13-92.1-13.2-92.4l0,0c-0.4-0.8-1.2-1.4-2.1-1.7l-20.2-6l4.7-5.3c0.5-0.5,0.6-1.4,0.2-2
	c-0.6-0.9-1.8-0.9-2.5-0.2l-5.8,6.5l-1-0.3c-3.7-1.1-6.8-3.2-9.1-6l10.5-5.7c0.7-0.4,1.1-1.2,0.8-1.9c-0.3-1-1.4-1.3-2.3-0.9
	l-10.9,5.9c-0.8-1.3-1.4-2.8-1.9-4.3c-1.3-4.3,2.9-8.3,7.2-7l0.4,0.1c0.5,0.1,0.9,0.2,1.4,0.2c2.3,0,4.4-1.7,4.7-4.2
	c0.3-2.3-1.3-4.5-3.5-5.2l-2.4-0.7c-3.1-0.9-4.8-4.1-3.9-7.2l1.7-5.6l6,4.7c0.3,0.2,0.6,0.3,1,0.3c0.6,0,1.1-0.3,1.4-0.9
	c0.4-0.7,0.1-1.5-0.5-2l-6.9-5.5c1.5-4.8,5.9-7.8,10.7-7.8c1,0,2,0.1,3,0.4l0.8,8.9c0.1,0.8,0.8,1.4,1.6,1.4c0,0,0.1,0,0.1,0
	c0.9-0.1,1.5-0.9,1.4-1.7l-0.7-7.6l5.6,1.7c3.1,0.9,4.8,4.1,3.9,7.2l-0.7,2.4c-0.7,2.3,0.4,4.9,2.6,5.9c0.6,0.3,1.3,0.4,1.9,0.4
	c2.1,0,3.9-1.3,4.6-3.4l0.1-0.4c1.3-4.3,6.9-5.7,9.8-2.2c1,1.2,1.9,2.5,2.6,3.9l-10.8,5.9c-0.7,0.4-1.1,1.3-0.8,2.1
	c0.3,0.6,0.9,1,1.5,1c0.3,0,0.5-0.1,0.8-0.2l10.6-5.8c1,3.4,1.1,7.2,0,10.9l-0.3,1l-8.5,1.3c-0.8,0.1-1.5,0.8-1.5,1.7
	c0,0.9,0.8,1.5,1.6,1.5c0.1,0,0.2,0,0.2,0l7.1-1.1l-6.2,20.9C88.6,83.7,88.4,84.8,88.9,85.8z"/>
<g>
</g>
</svg>
