<?xml version="1.0" encoding="utf-8"?>
<!-- Generator: Adobe Illustrator 20.0.0, SVG Export Plug-In . SVG Version: 6.00 Build 0)  -->
<svg version="1.1" id="Layer_1" xmlns="http://www.w3.org/2000/svg" xmlns:xlink="http://www.w3.org/1999/xlink" x="0px" y="0px"
	 viewBox="0 0 200 200" style="enable-background:new 0 0 200 200;" xml:space="preserve">
<style type="text/css">
	.st0{display:none;}
	.st1{display:inline;fill:#D1A982;}
	.st2{display:inline;}
	.st3{fill:#D7E2BD;}
	.st4{fill:#D7E2BD;stroke:#366D00;stroke-width:3;stroke-linecap:round;stroke-linejoin:round;stroke-miterlimit:10;}
	.st5{fill:#105409;}
	.st6{fill:none;stroke:#8ACF0D;stroke-width:3;stroke-linecap:round;stroke-linejoin:round;stroke-miterlimit:10;}
	.st7{fill:#A9C500;stroke:#2B6000;stroke-width:3;stroke-miterlimit:10;}
	.st8{fill:#A0CB39;}
	.st9{fill:#A9C500;}
	.st10{fill:#2B6000;}
	.st11{fill:#A0CB39;stroke:#4B823B;stroke-width:3;stroke-linejoin:round;stroke-miterlimit:10;}
	.st12{fill:#4B823B;}
	.st13{fill:#90C400;}
	.st14{fill:#90C400;stroke:#2B6000;stroke-width:3;stroke-linecap:round;stroke-miterlimit:10;}
	.st15{fill:#90C400;stroke:#2B6000;stroke-linecap:round;stroke-linejoin:round;stroke-miterlimit:10;}
	.st16{fill:#68AB19;}
	.st17{fill:#074004;}
	.st18{fill:#94466D;stroke:#311538;stroke-width:3;stroke-miterlimit:10;}
	.st19{fill:#00FFFF;}
	.st20{fill:none;stroke:#311538;stroke-linecap:round;stroke-miterlimit:10;}
	.st21{fill:#F08A06;stroke:#DA5C00;stroke-width:3;stroke-miterlimit:10;}
	.st22{fill:none;stroke:#DA5C00;stroke-linecap:round;stroke-miterlimit:10;}
	.st23{fill:none;stroke:#FFFFFF;stroke-linecap:round;stroke-miterlimit:10;}
	.st24{fill:#FFFFFF;}
	.st25{fill:none;stroke:#074004;stroke-width:3;stroke-miterlimit:10;}
	.st26{fill:none;stroke:#A9C500;stroke-width:3;stroke-linecap:round;stroke-linejoin:round;stroke-miterlimit:10;}
	.st27{fill:#F08A06;}
	.st28{fill:#DA5C00;}
	.st29{fill:#94466D;}
	.st30{fill:#311538;}
	.st31{fill:#8DA54A;}
	.st32{fill:#3B6014;}
	.st33{fill:none;stroke:#F08A06;stroke-linecap:round;stroke-miterlimit:10;}
	.st34{fill:none;stroke:#311538;stroke-width:3;stroke-miterlimit:10;}
	.st35{fill:#F5DABD;stroke:#B9722E;stroke-width:3;stroke-miterlimit:10;}
	.st36{fill:none;stroke:#B9722E;stroke-linecap:round;stroke-miterlimit:10;}
	.st37{fill:#3A7800;}
	.st38{fill:#A9C500;stroke:#2B6000;stroke-width:3;stroke-linecap:round;stroke-miterlimit:10;}
	.st39{fill:#A9C500;stroke:#2B6000;stroke-linecap:round;stroke-linejoin:round;stroke-miterlimit:10;}
	.st40{fill:#A9C500;stroke:#2B6000;stroke-width:9.5263;stroke-miterlimit:10;}
	.st41{fill:none;stroke:#B9722E;stroke-width:0.9785;stroke-linecap:round;stroke-miterlimit:10;}
	.st42{fill:#F5DABD;}
	.st43{fill:#B9722E;}
	.st44{fill:#995929;}
	.st45{fill:#E5C074;}
	.st46{fill:#E5C074;stroke:#52340E;stroke-width:3;stroke-miterlimit:10;}
	.st47{fill:none;stroke:#A0CB39;stroke-width:4;stroke-miterlimit:10;}
	.st48{fill:none;stroke:#52340E;stroke-linecap:round;stroke-linejoin:round;stroke-miterlimit:10;}
	.st49{fill:none;stroke:#52340E;stroke-linejoin:round;stroke-miterlimit:10;}
	.st50{fill:#52340E;}
	.st51{fill:#A0CB39;stroke:#4B823B;stroke-linejoin:round;stroke-miterlimit:10;}
	.st52{fill:none;stroke:#2B6000;stroke-linecap:round;stroke-linejoin:round;stroke-miterlimit:10;}
	.st53{fill:#A9C500;stroke:#2B6000;stroke-miterlimit:10;}
	.st54{fill:#FFFFFF;stroke:#E3EA9D;stroke-miterlimit:10;}
	.st55{fill:#A9C500;stroke:#2B6000;stroke-linecap:round;stroke-miterlimit:10;}
	.st56{fill:#FFFFFF;stroke:#2B6000;stroke-linecap:round;stroke-linejoin:round;stroke-miterlimit:10;}
	.st57{fill:none;stroke:#E3EA9D;stroke-miterlimit:10;}
	.st58{fill:none;stroke:#2B6000;stroke-width:3;stroke-miterlimit:10;}
	.st59{fill:#E3EA9D;}
	.st60{fill:none;stroke:#A9C500;stroke-linecap:round;stroke-linejoin:round;stroke-miterlimit:10;}
	.st61{fill:none;stroke:#438700;stroke-linecap:round;stroke-linejoin:round;stroke-miterlimit:10;}
	.st62{fill:#9ACC11;}
	.st63{fill:#65B200;}
	.st64{fill:none;stroke:#438700;stroke-width:3.3722;stroke-linecap:round;stroke-linejoin:round;stroke-miterlimit:10;}
	.st65{fill:#D7E2BD;stroke:#366D00;stroke-miterlimit:10;}
	.st66{fill:none;stroke:#F4FFD7;stroke-linecap:round;stroke-linejoin:round;stroke-miterlimit:10;}
	.st67{fill:#D7E2BD;stroke:#366D00;stroke-linecap:round;stroke-linejoin:round;stroke-miterlimit:10;}
	.st68{fill:#D7E2BD;stroke:#366D00;stroke-width:3;stroke-miterlimit:10;}
	.st69{fill:none;stroke:#366D00;stroke-width:3;stroke-linecap:round;stroke-miterlimit:10;}
	.st70{fill:#F4FFD7;}
	.st71{fill:#366D00;}
	.st72{fill:#D7E2BD;stroke:#366D00;stroke-width:2.387;stroke-linecap:round;stroke-linejoin:round;stroke-miterlimit:10;}
	.st73{fill:none;stroke:#F4FFD7;stroke-width:0.7957;stroke-linecap:round;stroke-linejoin:round;stroke-miterlimit:10;}
	.st74{fill:#D7E2BD;stroke:#366D00;stroke-width:0.7957;stroke-linecap:round;stroke-linejoin:round;stroke-miterlimit:10;}
	.st75{fill:none;stroke:#366D00;stroke-width:2.387;stroke-linecap:round;stroke-miterlimit:10;}
	.st76{fill:#529900;}
</style>
<g class="st0">
	<rect x="-876.7" y="-133.8" class="st1" width="2396.5" height="1153.6"/>
	<path class="st2" d="M1519.3-133.3v1152.6H-876.2V-133.3H1519.3 M1520.3-134.3H-877.2v1154.6h2397.5V-134.3L1520.3-134.3z"/>
</g>
<path class="st9" d="M66.2,75.7c-1,0-2.1-0.3-3-1C33.2,51.4,13,44.4,12.8,44.3c-2.5-0.9-3.9-3.6-3.1-6.1l2.5-7.6
	c0.4-1.3,1.4-2.3,2.6-2.9c-1.9-2.2-3.7-4.3-5.2-6.2c-1.6-2.1-1.3-5.2,0.8-6.8l6.3-5c0.9-0.7,1.9-1,3-1c1.4,0,2.9,0.6,3.8,1.9
	C38.6,29.6,73,59.7,74.5,60.9c2,1.7,2.2,4.7,0.6,6.7l-5.1,6.2C69,75.1,67.6,75.7,66.2,75.7z"/>
<path class="st42" d="M192.1,187.9c0.7,2-1.6,3.7-3.3,2.5C172.4,178.5,121.5,142,70.1,109C53.6,98.4,50.3,79.7,64.5,64l0,0
	C78.7,48.3,95,51.7,109.7,65C161.5,111.6,185.3,168.9,192.1,187.9z"/>
<g>
	<g>
		<path class="st44" d="M196.7,186.3L196.7,186.3c-7.9-22-32-78.3-83.7-124.9c-18.5-16.6-37.4-16.9-52.1-0.6
			c-7.7,8.5-11.2,18.5-9.9,28.1c1.3,9.5,7.1,18.1,16.5,24.1c51.8,33.3,103.8,70.7,118.5,81.3c1.2,0.9,2.7,1.3,4.1,1.3
			c1.5,0,3-0.5,4.2-1.4C196.8,192.4,197.7,189.2,196.7,186.3z M160.9,164.5c1.7-2.1,3.5-4.3,5.4-6.4c0.6-0.7,0.5-1.7-0.1-2.3
			s-1.7-0.5-2.3,0.1c-1.9,2.2-3.8,4.4-5.6,6.6c-10.2-7.1-21.9-15.3-34.5-23.9c2.5-3.3,5.1-6.7,7.9-9.9c0.6-0.7,0.5-1.7-0.2-2.3
			c-0.7-0.6-1.7-0.5-2.3,0.2c-2.9,3.3-5.6,6.8-8.1,10.2c-8.4-5.7-17.2-11.6-26.1-17.6c2.2-2.8,4.4-5.7,6.8-8.5
			c0.6-0.7,0.5-1.7-0.2-2.3c-0.7-0.6-1.7-0.5-2.3,0.2c-2.5,2.9-4.8,5.9-7.1,8.8c-3.6-2.4-7.2-4.8-10.9-7.1
			c3.4-4.8,7.1-9.7,11.2-14.5c0.6-0.7,0.5-1.7-0.2-2.3s-1.7-0.5-2.3,0.2c-4.2,4.9-8,9.9-11.4,14.8c-2-1.3-4-2.6-5.9-3.8
			c-6.9-4.5-11.2-10.6-12.1-17.3c-0.9-6.8,1.7-13.9,7.5-20.3c5.3-5.9,11.1-8.8,17.2-8.8c4,0,8.2,1.3,12.6,3.8
			C94,65.8,90,69.6,86.2,73.4c-0.6,0.6-0.6,1.7,0,2.3c0.3,0.3,0.7,0.5,1.1,0.5c0.4,0,0.8-0.2,1.1-0.5c4-4,8.2-7.9,12.3-11.7
			c1.9,1.3,3.8,2.8,5.7,4.6c1.6,1.4,3.1,2.8,4.6,4.2c-3.8,3.3-7.5,6.9-11.2,10.6c-0.6,0.6-0.6,1.7,0,2.3c0.3,0.3,0.7,0.5,1.1,0.5
			c0.4,0,0.8-0.2,1.2-0.5c3.7-3.8,7.5-7.4,11.2-10.7c7.5,7.3,14.4,14.8,20.7,22.4c-3.2,2.9-6.4,5.9-9.5,9.1c-0.6,0.6-0.6,1.7,0,2.3
			c0.3,0.3,0.7,0.5,1.1,0.5c0.4,0,0.8-0.2,1.2-0.5c3-3.1,6.1-6.1,9.2-8.8c6.7,8.3,12.8,16.6,18.1,24.6c-1.5,1.5-3.1,3-4.6,4.5
			c-0.6,0.6-0.6,1.7,0,2.3c0.3,0.3,0.7,0.5,1.1,0.5c0.4,0,0.8-0.2,1.2-0.5c1.3-1.4,2.7-2.7,4.1-4.1c2.4,3.8,4.7,7.5,6.9,11.1
			c-2.5,2.4-5,5-7.5,7.6c-0.6,0.7-0.6,1.7,0.1,2.3c0.3,0.3,0.7,0.4,1.1,0.4c0.4,0,0.9-0.2,1.2-0.5c2.2-2.4,4.5-4.7,6.8-6.9
			c4.7,8.1,8.7,15.8,12,22.6c-0.9,1.1-1.8,2.1-2.7,3.2c-0.6,0.7-0.5,1.7,0.2,2.3c0.3,0.2,0.7,0.4,1,0.4c0.5,0,0.9-0.2,1.2-0.6
			c0.6-0.7,1.1-1.3,1.7-2c2.5,5.4,4.6,10.2,6.2,14.2C178.4,176.9,170.4,171.2,160.9,164.5z"/>
		
			<ellipse transform="matrix(0.6696 -0.7427 0.7427 0.6696 -57.0115 155.0446)" class="st44" cx="145.8" cy="141.6" rx="1.6" ry="1.6"/>
		
			<ellipse transform="matrix(0.6696 -0.7427 0.7427 0.6696 -52.2625 123.8818)" class="st44" cx="113.1" cy="120.7" rx="1.6" ry="1.6"/>
		<ellipse transform="matrix(0.6696 -0.7427 0.7427 0.6696 -38.3682 84.6724)" class="st44" cx="76" cy="85.5" rx="1.6" ry="1.6"/>
		
			<ellipse transform="matrix(0.2568 -0.9665 0.9665 0.2568 -4.6197 187.6239)" class="st44" cx="119.7" cy="96.8" rx="1.6" ry="1.6"/>
		
			<ellipse transform="matrix(0.2568 -0.9665 0.9665 0.2568 -8.8324 175.2062)" class="st44" cx="109.5" cy="93.3" rx="1.6" ry="1.6"/>
	</g>
</g>
<path class="st9" d="M66.2,72.4c-0.3,0-0.7-0.1-1-0.3C34.6,48.4,14,41.4,13.8,41.3c-0.8-0.3-1.3-1.2-1-2l2.5-7.6
	c0.2-0.7,0.9-1.1,1.5-1.1c0.2,0,0.3,0,0.5,0.1c0.4,0.1,2.8,0.9,7,2.8c-5-5.3-9.1-9.9-12.2-13.9c-0.5-0.7-0.4-1.7,0.3-2.3l6.3-5
	c0.3-0.2,0.6-0.3,1-0.3c0.5,0,1,0.2,1.3,0.6c15.1,19.3,49.8,49.6,51.3,50.8c0.7,0.6,0.7,1.6,0.2,2.2l-5.1,6.2
	C67.1,72.2,66.7,72.4,66.2,72.4z"/>
<path class="st5" d="M73.4,62.2c-0.1-0.1-2.9-2.5-7.2-6.4c1.8-1.4,3.7-2.7,5.6-3.7C61.1,42.5,38.6,21.7,27.4,7.6
	c-1.9-2.4-4.8-3.7-7.6-3.7c-2.1,0-4.2,0.7-6,2.1l-6.3,5c-2,1.6-3.3,3.9-3.6,6.5c-0.3,2.6,0.4,5.1,2,7.1c0.8,1,1.6,2,2.5,3.1
	c-0.3,0.5-0.5,1-0.7,1.6l-2.5,7.6c-1.7,5.1,1.1,10.5,6.1,12.2c6,2.1,21.8,9.6,41.8,24.2c0.8-2,1.8-3.9,3-5.8c2.7,1.9,5.4,4,8.2,6.1
	c0.6,0.5,1.3,0.7,2,0.7c0.9,0,1.9-0.4,2.5-1.2l5.1-6.2C74.9,65.3,74.7,63.3,73.4,62.2z M66.2,70.8c-31-24-51.6-31-51.8-31.1l2.5-7.6
	c0.4,0.1,4.8,1.6,12.5,5.4c0.5,0.2,0.9-0.4,0.6-0.8c-6.2-6.3-12-12.7-16.4-18.3l6.3-5c15.4,19.7,51.1,50.8,51.5,51.1L66.2,70.8z"/>
</svg>
