<?xml version="1.0" encoding="utf-8"?>
<!-- Generator: Adobe Illustrator 20.0.0, SVG Export Plug-In . SVG Version: 6.00 Build 0)  -->
<svg version="1.1" id="Layer_1" xmlns="http://www.w3.org/2000/svg" xmlns:xlink="http://www.w3.org/1999/xlink" x="0px" y="0px"
	 viewBox="0 0 200 200" style="enable-background:new 0 0 200 200;" xml:space="preserve">
<style type="text/css">
	.st0{fill:#D50000;stroke:#590000;stroke-width:3;stroke-miterlimit:10;}
	.st1{fill:#7FC731;stroke:#246901;stroke-width:3;stroke-miterlimit:10;}
	.st2{fill:#7FC731;stroke:#246901;stroke-linecap:round;stroke-miterlimit:10;}
	.st3{fill:none;stroke:#246901;stroke-linecap:round;stroke-miterlimit:10;}
	.st4{fill:#292F37;}
	.st5{fill:#577B1D;}
	.st6{fill:#AD2F26;}
	.st7{fill:#264415;}
	.st8{fill:#539243;}
	.st9{fill:#7F415B;}
	.st10{fill:#246901;}
	.st11{fill:#FFFFFF;}
	.st12{fill:#8A1100;}
	.st13{fill:#5EC865;}
	.st14{fill:#007500;}
	.st15{fill:#FF3D50;}
	.st16{fill:none;stroke:#246901;stroke-linecap:round;stroke-linejoin:round;stroke-miterlimit:10;}
	.st17{fill:none;stroke:#FFFFFF;stroke-linecap:round;stroke-linejoin:round;stroke-miterlimit:10;}
	.st18{fill:#FF3D50;stroke:#CC3248;stroke-miterlimit:10;}
	.st19{fill:none;stroke:#007500;stroke-linecap:round;stroke-linejoin:round;stroke-miterlimit:10;}
	.st20{fill:none;stroke:#264415;stroke-linecap:round;stroke-linejoin:round;stroke-miterlimit:10;}
	.st21{fill:#528B1C;}
	.st22{fill:#20420B;}
	.st23{fill:#314773;}
	.st24{fill:#7389B5;}
	.st25{fill:#528B1C;stroke:#20420B;stroke-linecap:round;stroke-linejoin:round;stroke-miterlimit:10;}
	.st26{fill:none;stroke:#314773;stroke-linejoin:round;stroke-miterlimit:10;}
	.st27{fill:#00FFFF;}
	.st28{fill:#22B473;stroke:#184C28;stroke-width:3;stroke-linecap:round;stroke-linejoin:round;stroke-miterlimit:10;}
	.st29{fill:#2E368E;}
	.st30{fill:#9A0D90;}
	.st31{fill:#161542;}
	.st32{fill:#251749;}
	.st33{fill:none;stroke:#FBA954;stroke-linecap:round;stroke-linejoin:round;stroke-miterlimit:10;}
	.st34{fill:#61303F;}
	.st35{fill:#EEB683;}
	.st36{fill:#1B631A;}
	.st37{fill:#FBA954;}
	.st38{fill:#ECD8A1;}
	.st39{fill:#DC0900;stroke:#184C28;stroke-width:1.7008;stroke-miterlimit:10;}
	.st40{fill:none;stroke:#007500;stroke-width:2;stroke-linecap:round;stroke-miterlimit:10;}
	.st41{fill:#F10A00;stroke:#8A1100;stroke-miterlimit:10;}
	.st42{fill:none;stroke:#FFFFFF;stroke-linecap:round;stroke-miterlimit:10;}
	.st43{fill:none;stroke:#007500;stroke-width:3;stroke-linecap:round;stroke-miterlimit:10;}
	.st44{fill:#F10A00;}
	.st45{fill:#7389B5;stroke:#314773;stroke-miterlimit:10;}
	.st46{fill:none;stroke:#314773;stroke-miterlimit:10;}
	.st47{opacity:0.4;fill:#314773;}
	.st48{fill:#7389B5;stroke:#314773;stroke-linecap:round;stroke-linejoin:round;stroke-miterlimit:10;}
	.st49{fill:#8BA3CD;stroke:#314773;stroke-miterlimit:10;}
	.st50{fill:#5A7098;}
	.st51{fill:none;stroke:#FFFFFF;stroke-width:8;stroke-linecap:round;stroke-linejoin:round;stroke-miterlimit:10;}
	.st52{fill:#FF3D50;stroke:#AD2F26;stroke-miterlimit:10;}
	.st53{fill:#FF3D50;stroke:#CC3248;stroke-width:1.058;stroke-miterlimit:10;}
	.st54{fill:#539243;stroke:#246901;stroke-width:3;stroke-linejoin:round;stroke-miterlimit:10;}
	.st55{clip-path:url(#SVGID_2_);}
	.st56{fill:url(#SVGID_3_);}
	.st57{fill:none;stroke:#CC652B;stroke-width:1.4939;stroke-linecap:round;stroke-miterlimit:10;}
	.st58{fill:none;stroke:#CC652B;stroke-width:0.8407;stroke-miterlimit:10;}
	.st59{fill:#F9C153;}
	.st60{fill:#FC7351;stroke:#CC652B;stroke-width:3;stroke-miterlimit:10;}
	.st61{fill:none;stroke:#994A22;stroke-linecap:round;stroke-miterlimit:10;}
	.st62{fill:none;stroke:#F9C153;stroke-width:3;stroke-linecap:round;stroke-miterlimit:10;}
	.st63{opacity:0.8;fill:none;stroke:#F9C153;stroke-width:3;stroke-linecap:round;stroke-miterlimit:10;}
	.st64{opacity:0.6;fill:none;stroke:#F9C153;stroke-width:3;stroke-linecap:round;stroke-miterlimit:10;}
	.st65{opacity:0.4;fill:none;stroke:#F9C153;stroke-width:3;stroke-linecap:round;stroke-miterlimit:10;}
	.st66{opacity:0.2;fill:none;stroke:#F9C153;stroke-width:3;stroke-linecap:round;stroke-miterlimit:10;}
	.st67{fill:none;stroke:#994A22;stroke-width:3;stroke-miterlimit:10;}
	.st68{fill:#7FC731;stroke:#246901;stroke-width:3;stroke-linecap:round;stroke-linejoin:round;stroke-miterlimit:10;}
	.st69{fill:none;stroke:#ADD980;stroke-linecap:round;stroke-linejoin:round;stroke-miterlimit:10;}
	.st70{fill:#ADD980;}
	.st71{fill:#FC7351;}
	.st72{fill:#F8B05C;}
	.st73{fill:#F8A15A;}
	.st74{fill:#F99259;}
	.st75{fill:#F98357;}
	.st76{fill:#994A22;}
	.st77{fill:#7FC731;}
	.st78{fill:#FDE3DD;}
	.st79{fill:#F8B413;stroke:#7A4100;stroke-width:6;stroke-miterlimit:10;}
	.st80{fill:#487E41;stroke:#123C08;stroke-width:3;stroke-linecap:round;stroke-miterlimit:10;}
	.st81{opacity:0.8;fill:none;stroke:#FFFFFF;stroke-linecap:round;stroke-miterlimit:10;}
	.st82{fill:none;stroke:#123C08;stroke-linecap:round;stroke-miterlimit:10;}
	.st83{opacity:0.8;fill:#FFFFFF;}
	.st84{fill:#F8B413;stroke:#7A4100;stroke-miterlimit:10;}
	.st85{opacity:0.7;fill:none;stroke:#FFFFFF;stroke-linecap:round;stroke-miterlimit:10;}
	.st86{fill:none;stroke:#7A4100;stroke-linecap:round;stroke-miterlimit:10;}
	.st87{opacity:0.7;fill:none;stroke:#AD2F26;stroke-width:3;stroke-linecap:round;stroke-miterlimit:10;}
	.st88{opacity:0.5;fill:none;stroke:#AD2F26;stroke-width:3;stroke-linecap:round;stroke-miterlimit:10;}
	.st89{opacity:0.3;fill:none;stroke:#AD2F26;stroke-width:3;stroke-linecap:round;stroke-miterlimit:10;}
	.st90{opacity:0.1;fill:none;stroke:#AD2F26;stroke-width:3;stroke-linecap:round;stroke-miterlimit:10;}
	.st91{opacity:0.7;fill:#FFFFFF;}
	.st92{fill:#487E41;}
	.st93{fill:#123C08;}
	.st94{fill:#DAE5D9;}
	.st95{fill:#F8B413;}
	.st96{fill:#FCE8BB;}
	.st97{fill:#C25729;}
	.st98{fill:#D1722A;}
	.st99{fill:#E08B2C;}
	.st100{fill:#EFA62E;}
	.st101{fill:#7A4100;}
</style>
<g>
	<path class="st71" d="M152.6,70.2c24.9,48.2-16.2,98.6-30.7,106.1c-16,8.2-83.3,7.4-106.2-37c-12.4-24-14.7-51.3,2.1-67.2
		c17.6-16.7,43-14.2,43-14.2s2.3-4.1,6.6-9L152.6,70.2z"/>
	<path class="st59" d="M42.5,166.7l90.8-0.1c-4.1,4.4-7.9,7.6-10.9,9.3L65.1,176C57.3,173.9,49.6,170.8,42.5,166.7z"/>
	<path class="st72" d="M133.4,166.6l-90.9,0.1c-4.6-2.6-8.9-5.7-12.9-9.3l111.4-0.1C138.4,160.8,135.8,163.9,133.4,166.6z"/>
	<path class="st73" d="M147,148c-1.9,3.3-4,6.4-6.1,9.3l-111.4,0.1c-3.1-2.8-5.9-5.9-8.5-9.3L147,148z"/>
	<path class="st74" d="M151.9,138.7c-1.5,3.3-3.1,6.4-4.9,9.3l-126,0.1c-2-2.7-3.9-5.6-5.5-8.7c-0.1-0.2-0.2-0.4-0.3-0.6
		L151.9,138.7z"/>
	<path class="st75" d="M151.9,138.6l-136.6,0.1c-1.6-3.1-2.9-6.2-4.2-9.3l144.5-0.1C154.5,132.5,153.3,135.6,151.9,138.6z"/>
	<path class="st76" d="M146.1,68.1c0.8,1.4,1.6,2.8,2.3,4.2c23.5,45.5-16.2,93.4-28.7,99.9c-6.1,3.2-25.4,5.6-47.4,0.8
		c-17.5-3.8-40.9-13.1-52.6-35.8c-15.5-30-9.6-51.5,1.2-61.7c2-1.9,4.2-3.6,6.4-5c14.3-9.1,32.5-10.1,47.6-2.3
		C85.3,73.7,93.8,82.9,98,94.8c0.2,0.6,0.8,1,1.5,1c0.3,0,0.6-0.1,0.9-0.3c0.6-0.4,0.8-1.2,0.6-1.9c-5.5-15.2-17.4-26.2-31.6-31.2
		c-2.5-0.9-3.5-3.9-1.8-6c0.7-0.9,1.5-1.9,2.5-2.9l-7.5-6.3c-2.9,3.5-7,5.7-11.6,6.1c-9.7,0.8-24.6,4.1-36.5,15.4
		c-16.8,16-18,43.8-3,72.7c10.4,20.2,31.4,34.6,58.9,40.6c9.3,2,18.5,2.9,26.6,2.9c12,0,21.8-1.8,27-4.6c8.8-4.6,23.1-20.1,32.2-40
		c8.1-17.7,14.8-44.7,0.5-72.4L146.1,68.1z"/>
	<g>
		<path class="st77" d="M194.3,79.5c-3.2-19.2-14.2-37.1-31.8-48.5C129.3,9.6,84.9,19.2,63.4,52.4l36.4,0.4l28.3,12.8l42.5,2.6
			L194.3,79.5z"/>
		<path class="st10" d="M59.7,55.2c1.1,1.6,3.1,2.3,4.9,1.8c11.6-3,24.1-2.2,35.2,2.3l18.1,7.3c6.7,2.7,13.8,4.3,21.1,4.7l21.9,1.2
			c9.7,0.5,19.2,3.6,27.4,8.8l3.6,2.3c0.8,0.5,1.6,0.7,2.5,0.7c0.9,0,1.8-0.3,2.6-0.8c1.5-1,2.3-2.8,2-4.6
			c-3.5-21.2-15.9-40-33.9-51.6C129.7,4.4,82.3,14.6,59.5,49.9C58.5,51.5,58.5,53.6,59.7,55.2z M184,62.2c0.4,0.8-0.6,1.5-1.2,0.9
			c-20.4-19.9-43-26.1-59-27.7C109.3,34,94.6,35.9,82,40.7c-0.8,0.3-1.4-0.8-0.7-1.3c12.1-9.9,27.2-15.1,42.5-15.1
			c12.4,0,25,3.5,36.2,10.7C170.4,41.7,178.7,51.2,184,62.2z M82.7,46c-1.1-0.1-1.4-1.7-0.3-2.1c12.4-4.8,26.8-6.8,41.2-5.4
			c15.3,1.5,36.8,7.4,56.4,26.1c0.8,0.8,0,2.2-1.1,1.8c-5.6-1.9-11.5-3-17.5-3.4l-21.9-1.2c-6.2-0.3-12.3-1.7-18.1-4l-18.1-7.3
			C96.7,48,89.7,46.4,82.7,46z"/>
	</g>
	<g>
		<path class="st78" d="M23.6,110.3c-0.8,0-1.5-0.7-1.5-1.5c-0.3-7.3,0.3-17.9,7.8-25c2.5-2.4,5.4-4.4,8.7-6
			c0.8-0.4,1.7-0.1,2.1,0.7c0.4,0.8,0.1,1.7-0.7,2.1c-3,1.5-5.6,3.3-7.9,5.5c-5.1,4.8-7.2,11.8-6.8,22.6
			C25.2,109.6,24.5,110.3,23.6,110.3C23.6,110.3,23.6,110.3,23.6,110.3z"/>
	</g>
	<circle class="st78" cx="47.1" cy="76.3" r="1.8"/>
	<g>
		<path class="st70" d="M157.4,40.7c-0.3,0-0.6-0.1-0.8-0.2c-9.9-6.4-21.2-9.8-32.8-9.8c-3.1,0-6.1,0.2-9.2,0.7
			c-0.8,0.1-1.6-0.4-1.8-1.3c-0.1-0.8,0.4-1.6,1.3-1.8c3.2-0.5,6.4-0.7,9.6-0.7c12.2,0,24.1,3.5,34.5,10.3c0.7,0.5,0.9,1.4,0.5,2.1
			C158.4,40.4,157.9,40.7,157.4,40.7z"/>
	</g>
	<g>
		<path class="st70" d="M124.7,43.6c-0.1,0-0.1,0-0.2,0c-2.1-0.2-4.2-0.4-6.3-0.5c-0.9,0-1.5-0.8-1.5-1.6c0-0.9,0.8-1.5,1.6-1.5
			c2.2,0.1,4.3,0.3,6.5,0.5c0.8,0.1,1.5,0.9,1.4,1.7C126.1,43,125.5,43.6,124.7,43.6z"/>
	</g>
	<circle class="st70" cx="129.9" cy="42.8" r="1.5"/>
	<circle class="st70" cx="109.2" cy="30.8" r="1.5"/>
</g>
</svg>
