<?xml version="1.0" encoding="utf-8"?>
<!-- Generator: Adobe Illustrator 20.1.0, SVG Export Plug-In . SVG Version: 6.00 Build 0)  -->
<svg version="1.1" id="Layer_1" xmlns="http://www.w3.org/2000/svg" xmlns:xlink="http://www.w3.org/1999/xlink" x="0px" y="0px"
	 viewBox="0 0 500 500" style="enable-background:new 0 0 500 500;" xml:space="preserve">
<style type="text/css">
	.st0{fill:#629024;}
	.st1{fill:#DFB52C;}
	.st2{fill:#42210B;}
	.st3{fill:#253933;}
	.st4{fill:none;stroke:#FFFFFF;stroke-linecap:round;stroke-linejoin:round;stroke-miterlimit:10;}
	.st5{fill:none;stroke:#DFB52C;stroke-linecap:round;stroke-miterlimit:10;}
	.st6{fill:#BBCB38;stroke:#315302;stroke-width:6;stroke-miterlimit:10;}
	.st7{fill:none;stroke:#BBCB38;stroke-width:3.5;stroke-linecap:round;stroke-miterlimit:10;}
	.st8{fill:#3B792C;stroke:#15540E;stroke-width:6;stroke-miterlimit:10;}
	.st9{fill:none;stroke:#355B00;stroke-width:6;stroke-miterlimit:10;}
	.st10{fill:#94AD34;stroke:#355B00;stroke-linecap:round;stroke-linejoin:round;stroke-miterlimit:10;}
	.st11{fill:#00FFFF;}
	.st12{fill:#95CC63;stroke:#517B39;stroke-width:3;stroke-linecap:round;stroke-linejoin:round;stroke-miterlimit:10;}
	.st13{fill:none;stroke:#517B39;stroke-linecap:round;stroke-linejoin:round;stroke-miterlimit:10;}
	.st14{clip-path:url(#SVGID_2_);}
	.st15{fill:none;stroke:#00FFFF;stroke-width:0.2598;stroke-miterlimit:10;}
	.st16{fill:none;stroke:#355B00;stroke-linecap:round;stroke-linejoin:round;stroke-miterlimit:10;}
	.st17{fill:#94AD34;}
	.st18{fill:#355B00;}
	.st19{fill:#95CC63;stroke:#517B39;stroke-linecap:round;stroke-linejoin:round;stroke-miterlimit:10;}
	.st20{fill:none;stroke:#94AD34;stroke-linecap:round;stroke-linejoin:round;stroke-miterlimit:10;}
	.st21{fill:#FFFFFF;}
	.st22{fill:none;stroke:#94AD34;stroke-width:0.4041;stroke-miterlimit:10;}
	.st23{fill:#94AD34;stroke:#94AD34;stroke-linecap:round;stroke-miterlimit:10;}
	.st24{fill:none;stroke:#94AD34;stroke-miterlimit:10;}
	.st25{fill:none;stroke:#94AD34;stroke-width:0.2579;stroke-miterlimit:10;}
	.st26{fill:none;stroke:#7BB76B;stroke-linecap:round;stroke-linejoin:round;stroke-miterlimit:10;}
	.st27{fill:#7BB76B;stroke:#3B792C;stroke-linecap:round;stroke-linejoin:round;stroke-miterlimit:10;}
	.st28{fill:none;stroke:#3B792C;stroke-linecap:round;stroke-linejoin:round;stroke-miterlimit:10;}
	.st29{fill:none;stroke:#BCEFA5;stroke-linecap:round;stroke-linejoin:round;stroke-miterlimit:10;}
	.st30{fill:#3B792C;}
	.st31{fill:#BCEFA5;}
	.st32{fill:#15540E;}
	.st33{fill:#7BB76B;}
	.st34{fill:none;stroke:#62A580;stroke-miterlimit:10;}
	.st35{fill:none;stroke:#62A580;stroke-linecap:round;stroke-miterlimit:10;}
	.st36{fill:#62A580;}
	.st37{fill:#ACCEA2;stroke:#19402E;stroke-width:6;stroke-linejoin:round;stroke-miterlimit:10;}
	.st38{fill:none;stroke:#769D6E;stroke-linecap:round;stroke-miterlimit:10;}
	.st39{fill:#769D6E;}
	.st40{fill:none;stroke:#ACCEA2;stroke-linecap:round;stroke-miterlimit:10;}
	.st41{fill:none;stroke:#FFFFFF;stroke-linecap:round;stroke-miterlimit:10;}
	.st42{fill:none;stroke:#438763;stroke-linecap:round;stroke-miterlimit:10;}
	.st43{fill:#438763;}
	.st44{fill:#ACCEA2;}
	.st45{fill:#19402E;}
	.st46{fill:#917013;}
	.st47{fill:#EDDC84;}
	.st48{fill:#F4EDAA;}
	.st49{fill:#DBC002;}
	.st50{fill:#463849;}
	.st51{fill:#B28BB8;}
	.st52{fill:#CCBCDF;}
	.st53{fill:#9C5D96;}
	.st54{fill:#BBCB38;}
	.st55{fill:#315302;}
	.st56{fill:none;stroke:#5A7700;stroke-linecap:round;stroke-miterlimit:10;}
	.st57{fill:#5A7700;}
	.st58{fill:#DFB52C;stroke:#42210B;stroke-width:3;stroke-miterlimit:10;}
	.st59{fill:none;stroke:#42210B;stroke-linecap:round;stroke-miterlimit:10;}
	.st60{fill:none;stroke:#253933;stroke-width:3;stroke-linecap:round;stroke-linejoin:round;stroke-miterlimit:10;}
	.st61{fill:none;stroke:#315302;stroke-width:3;stroke-miterlimit:10;}
	.st62{fill:#629024;stroke:#253933;stroke-linejoin:round;stroke-miterlimit:10;}
	.st63{fill:#629024;stroke:#253933;stroke-miterlimit:10;}
	.st64{fill:none;stroke:#253933;stroke-linecap:round;stroke-linejoin:round;stroke-miterlimit:10;}
	.st65{fill:#629024;stroke:#253933;stroke-linecap:round;stroke-linejoin:round;stroke-miterlimit:10;}
	.st66{opacity:0.9;fill:none;stroke:#629024;stroke-miterlimit:10;}
	.st67{opacity:0.8;fill:none;stroke:#629024;stroke-miterlimit:10;}
	.st68{opacity:0.7;fill:none;stroke:#629024;stroke-miterlimit:10;}
	.st69{opacity:0.6;fill:none;stroke:#629024;stroke-miterlimit:10;}
	.st70{opacity:0.5;fill:none;stroke:#629024;stroke-miterlimit:10;}
	.st71{opacity:0.4;fill:none;stroke:#629024;stroke-miterlimit:10;}
	.st72{opacity:0.3;fill:none;stroke:#629024;stroke-miterlimit:10;}
	.st73{opacity:0.2;fill:none;stroke:#629024;stroke-miterlimit:10;}
	.st74{opacity:0.1;fill:none;stroke:#629024;stroke-miterlimit:10;}
	.st75{fill:#70932E;}
	.st76{fill:#7B9630;}
	.st77{fill:#879A31;}
	.st78{fill:#949E32;}
	.st79{fill:#A0A234;}
	.st80{fill:#ADA536;}
	.st81{fill:#B8A937;}
	.st82{fill:#C5AD38;}
	.st83{fill:#D2B03A;}
</style>
<polygon class="st0" points="146,277.4 162.4,277.4 161.3,239.2 138.3,208.7 119.7,216.3 139.1,248.3 "/>
<path class="st1" d="M131.5,330.1c-3.4,13.8-4.1,35.1-1.1,49.1c-9.9,11-12.7,24.3-12.7,38.7c0,37.5,39.3,67.9,87.8,67.9
	c16.3,0,31.6-3.5,44.7-9.5c18.2-8.4,38.9-8.4,57.1,0c13.1,6,28.4,9.5,44.7,9.5c48.5,0,87.8-30.4,87.8-67.9
	c0-37.5-39.3-67.9-87.8-67.9c-16.3,0-31.6,3.5-44.7,9.5c-18.2,8.4-38.9,8.4-57.1,0c-13.1-6-28.4-9.5-44.7-9.5
	c-26,0-46.3,8.7-62.4,22.6c-1.9-11.8-0.6-30.4,0.8-41.9L131.5,330.1z"/>
<path class="st21" d="M172.4,383.9c-1.8,0-3.5-1.3-3.8-3.2c-0.4-2.1,1-4.1,3.1-4.5c2.3-0.4,4.6-0.8,7-1.2c6.7-1,13.6-1.6,20.6-1.8
	c2.2-0.1,3.9,1.6,4,3.8c0.1,2.1-1.6,3.9-3.8,4c-6.7,0.2-13.3,0.8-19.7,1.7c-2.3,0.3-4.5,0.7-6.7,1.1
	C172.9,383.9,172.7,383.9,172.4,383.9z"/>
<path class="st2" d="M369.7,381.8c-0.1,0-0.2,0-0.4,0c-10.3-1-21.2-1.1-31.7-0.3c-2.2,0.2-4-1.4-4.2-3.6s1.4-4,3.6-4.2
	c10.9-0.9,22.3-0.8,33,0.3c2.1,0.2,3.7,2.1,3.5,4.2C373.4,380.3,371.7,381.8,369.7,381.8z"/>
<path class="st2" d="M352,462.7c-2.2,0-3.9-1.7-3.9-3.9s1.7-3.9,3.9-3.9c11.5,0,22.7-1,33.2-3.1c2.1-0.4,4.2,1,4.6,3.1
	c0.4,2.1-1,4.2-3.1,4.6C375.7,461.6,364,462.7,352,462.7z"/>
<path class="st2" d="M205.4,462.7c-2.2,0-3.9-1.7-3.9-3.9s1.7-3.9,3.9-3.9c6.4,0,12.7-0.3,18.8-1c2.2-0.2,4.1,1.3,4.3,3.5
	c0.2,2.1-1.3,4.1-3.5,4.3C218.7,462.4,212.1,462.7,205.4,462.7z"/>
<path class="st2" d="M395.8,421.8h-18.5c-2.2,0-3.9-1.7-3.9-3.9s1.7-3.9,3.9-3.9h18.5c2.2,0,3.9,1.7,3.9,3.9S398,421.8,395.8,421.8z
	"/>
<path class="st2" d="M199.4,421.8H176c-2.2,0-3.9-1.7-3.9-3.9s1.7-3.9,3.9-3.9h23.4c2.2,0,3.9,1.7,3.9,3.9S201.6,421.8,199.4,421.8z
	"/>
<path class="st21" d="M161,402.1c-1.8,0-3.5-1.3-3.8-3.2c-0.4-2.1,1-4.1,3.1-4.5c14.1-2.6,30.5-4,47.4-4c2.2,0,3.9,1.7,3.9,3.9
	s-1.7,3.9-3.9,3.9c-16.5,0-32.4,1.3-46,3.8C161.5,402.1,161.3,402.1,161,402.1z"/>
<path class="st2" d="M270.5,404.6c-0.1,0-0.2,0-0.3,0c-4.3-0.3-8.6-1-12.8-1.8c-6.4-1.3-13.5-2.4-21.1-3.2c-2.1-0.2-3.7-2.1-3.5-4.3
	c0.2-2.1,2.1-3.7,4.3-3.5c7.8,0.8,15.2,1.9,21.9,3.3c3.9,0.8,7.9,1.4,11.8,1.7c2.1,0.2,3.7,2.1,3.6,4.2
	C274.2,403,272.5,404.6,270.5,404.6z"/>
<path class="st2" d="M287.3,404.6c-2,0-3.7-1.5-3.9-3.6c-0.2-2.1,1.4-4,3.6-4.2c3.8-0.3,7.7-0.9,11.5-1.7c2.1-0.4,4.2,0.9,4.6,3
	s-0.9,4.2-3,4.6c-4.1,0.8-8.2,1.4-12.4,1.8C287.5,404.6,287.4,404.6,287.3,404.6z"/>
<path class="st2" d="M369.7,398.9c-0.1,0-0.2,0-0.3,0c-12.8-0.9-26.5-0.9-39.4,0c-2.1,0.1-4-1.5-4.1-3.6s1.5-4,3.6-4.1
	c13.2-0.9,27.3-0.9,40.4,0c2.1,0.1,3.8,2,3.6,4.1C373.4,397.3,371.7,398.9,369.7,398.9z"/>
<path class="st2" d="M349.7,445.5c-7.3,0-14.6-0.3-21.7-0.8c-2.1-0.2-3.8-2-3.6-4.2c0.2-2.1,2-3.8,4.2-3.6
	c6.8,0.5,13.9,0.7,21.1,0.7c13.7,0,27.3-0.9,39.3-2.7c2.1-0.3,4.1,1.2,4.4,3.3c0.3,2.1-1.2,4.1-3.3,4.4
	C377.7,444.5,363.8,445.5,349.7,445.5z"/>
<path class="st2" d="M239.6,443.7c-2,0-3.6-1.5-3.9-3.5c-0.2-2.1,1.3-4.1,3.4-4.3c6.5-0.7,12.6-1.7,18.3-2.8
	c14.1-2.9,28.5-2.9,42.6,0c2.1,0.4,3.5,2.5,3,4.6c-0.4,2.1-2.5,3.5-4.6,3c-13.1-2.7-26.4-2.7-39.4,0c-5.9,1.2-12.2,2.2-19,3
	C239.9,443.7,239.8,443.7,239.6,443.7z"/>
<path class="st2" d="M207.8,445.5c-21.4,0-41.9-2.2-57.8-6.2c-2.1-0.5-3.4-2.6-2.8-4.7c0.5-2.1,2.6-3.4,4.7-2.8
	c15.3,3.8,35.2,6,55.9,6c2.2,0,3.9,1.7,3.9,3.9S209.9,445.5,207.8,445.5z"/>
<circle class="st21" cx="219.5" cy="394.5" r="3.9"/>
<circle class="st2" cx="337.4" cy="458.8" r="3.9"/>
<circle class="st2" cx="364.8" cy="417.9" r="3.9"/>
<line class="st0" x1="249.1" y1="183.3" x2="278.1" y2="262"/>
<rect x="146.7" y="272.5" class="st75" width="16.8" height="7.8"/>
<rect x="146.7" y="279.3" class="st76" width="16.8" height="7.8"/>
<rect x="142.5" y="286.1" class="st77" width="16.8" height="7.8"/>
<rect x="140.9" y="292.9" class="st78" width="16.8" height="7.8"/>
<rect x="138.3" y="299.7" class="st79" width="16.8" height="7.8"/>
<rect x="134.8" y="306.5" class="st80" width="16.8" height="7.8"/>
<rect x="131.5" y="313.3" class="st81" width="16.8" height="7.8"/>
<rect x="128.9" y="320.1" class="st82" width="16.8" height="7.8"/>
<rect x="128.9" y="326.9" class="st83" width="16.8" height="7.8"/>
<path class="st2" d="M421.2,360.7c-18.6-14.4-43.2-22.3-69.2-22.3c-17.5,0-34.6,3.7-49.6,10.6c-15,6.9-32.3,6.9-47.3,0
	c-15-6.9-32.2-10.6-49.6-10.6c-13.6,0-26.9,2.2-39,6.3c-1.6,0.5-3.2-0.8-2.9-2.5c1.3-6.6,3.4-13.1,6.5-19.2
	c7.6-15.2,11.6-31.6,12-48.8c0.6-29.2-10.2-57.3-30.2-79.2c-5.2-5.6-12.5-8.8-20.1-8.8c-6.8,0-13.4,2.5-18.4,7.1
	c-11.1,10.2-11.9,27.4-1.7,38.5c10.6,11.5,16.2,26.2,15.9,41.3c-0.2,9-2.3,17.5-6.2,25.5c-13.3,26.6-16.9,56.9-10.6,86
	c0.8,3.8,0.4,7.7-0.9,11.4c-2.5,7-3.8,14.3-3.8,21.9c0,21.8,10.7,42.1,30.2,57.2c18.6,14.4,43.2,22.3,69.2,22.3
	c17.5,0,34.6-3.6,49.6-10.6c15-6.9,32.3-6.9,47.3,0c15,6.9,32.2,10.6,49.6,10.6c26,0,50.6-7.9,69.2-22.3
	c19.5-15.1,30.2-35.4,30.2-57.2C451.5,396.1,440.7,375.8,421.2,360.7z M141,377.8c0.7,3.5,5,5.1,7.7,2.8
	c13.9-11.5,34.2-18.8,56.7-18.8c14.1,0,27.9,2.9,39.9,8.4c21.3,9.8,45.6,9.8,66.9,0c12-5.5,25.8-8.4,39.9-8.4
	c32,0,59.4,14.6,70.6,35.3c1,1.9-0.9,4.1-2.9,3.3c-7.2-2.7-15.2-4.6-21.4-5.8c-2.2-0.4-4.4,1.2-4.6,3.5c-0.2,2,1.3,3.8,3.3,4.2
	c13.5,2.6,22,5.7,27,8.6c2.5,1.4,4,4.1,4,7l0,0c0,31-34.1,56.2-76.1,56.2c-14.1,0-27.9-2.9-39.9-8.4c-10.6-4.9-22-7.3-33.4-7.3
	c-11.4,0-22.8,2.4-33.4,7.3c-12,5.5-25.8,8.4-39.9,8.4c-42,0-76.1-25.2-76.1-56.2c0-7.2,1.8-14.1,5.2-20.4c1.6-3,1.9-6.6,1-9.8
	c-1.5-5.1-3.5-13.5-4.2-22.7c-1.5-19.2,2.1-38.6,10.8-56c5.5-11,8.4-23,8.7-35.5c0.4-21.1-7.4-41.6-22-57.5
	c-1.5-1.6-1.3-4.1,0.2-5.5c0.7-0.7,1.7-1,2.6-1c1.1,0,2.1,0.4,2.9,1.3c16,17.4,24.5,39.8,24.1,62.9c-0.3,13.6-3.5,26.7-9.5,38.8
	c-7.2,14.4-10.6,30.3-10.3,46.3C139,366.5,140,373.1,141,377.8z"/>
<path class="st0" d="M421.4,104.2c-39.5,0-73.8,26.5-91.3,42.9c-4.9-0.2-9.8-0.3-14.6-0.3c-8.8,0-17.4,0.3-26,0.8
	c16.4-14.5,33-34.5,39.3-59.5C337.2,55,317,21.3,283.9,13c-5-1.3-10.1-1.9-15.2-1.9c-28.4,0-53.1,19.2-60,46.8
	c-9.5,37.6,7,76.4,18.6,97.7c-49.3,9.7-90.9,25.9-121.1,40.3c-51.8,24.7-82.7,49.9-83.1,50.2c-8.2,6.8-9.3,18.9-2.6,27.1
	c3.7,4.4,9.1,7,14.9,7c4.4,0,8.8-1.6,12.2-4.4c0.2-0.2,20-16.3,54.6-34.9l14.9-7.7c27.8-13.7,65.8-29,110.9-38.6
	c-8.6,23.2-17.6,60.5-4.7,93.9c9.1,23.7,32.4,39.7,57.8,39.7c7.6,0,15.1-1.4,22.3-4.2c15.4-5.9,27.6-17.5,34.3-32.7
	c6.7-15.1,7.1-31.9,1.2-47.4c-10.1-26.3-31.8-45.2-51.3-57.7c9-0.6,18.1-0.9,27.4-0.9c5.2,0,10.4,0.1,15.6,0.3
	c17.7,16.5,51.6,42.3,90.6,42.3c34.1,0,61.9-27.8,61.9-61.9S455.5,104.2,421.4,104.2z"/>
<path class="st3" d="M130.3,217.6c-1.3-1.5-3.5-1.9-5.3-1c-4.5,2.1-8.8,4.1-13,6.2l-15.1,7.7c-35.6,19.1-56.1,35.8-56.6,36.2
	c-1.4,1.2-3.1,1.7-4.8,1.7c-2.2,0-4.3-0.9-5.8-2.8c-2.7-3.2-2.2-8,1-10.7c1-0.8,82.9-67.3,206.1-89.4c2.4-0.4,4.8-0.2,7,0.7
	c1.4,0.5,3,0.8,4.5,0.8c2.3,0,4.6-0.6,6.8-1.9c0.9-0.5,1.9-1.1,3-1.8c1.6-1,3.4-1.6,5.3-1.8c16.8-2,34.2-3.1,52.1-3.1
	c2.7,0,5.4,0,8.1,0.1c1.8,0,3,1.8,2.5,3.5c-0.4,1.3-0.5,2.6-0.5,4c0,1.4,0.2,2.8,0.6,4.1c0.5,1.8-0.8,3.6-2.6,3.6
	c-2.8-0.1-5.6-0.1-8.3-0.1c-18.1,0-35.7,1.2-52.5,3.3c-2.4,0.3-4.7,0-6.9-1l0,0c-4.5-1.9-9.4-1-12.9,1.9c-1.8,1.6-4,2.6-6.3,3.1
	c-37,6.9-70,17.8-98,29.6c-1.5,0.6-2,2.6-0.9,3.8c4.4,5.4,8.2,11.1,11.3,17.2c19-7.9,38.3-14.6,57.7-19.9l0.1,0
	c2.9-0.8,5.5,1.8,4.8,4.7c-6.5,28.3-5.6,53.7,2.9,75.6c5.3,13.8,14.6,25.4,26.8,33.6c11.9,8,25.8,12.3,40.1,12.3
	c9.5,0,18.9-1.9,27.7-5.6c15.5-6.5,28.3-18.3,35.9-33.2c9.5-18.4,10.6-39.5,3.2-58.7c-5-13.1-12.9-25.3-23.5-36.6
	c-2.4-2.6-0.5-6.8,3.1-6.7l0.1,0c0.9,0,1.8,0.4,2.5,1c3.6,3.1,7.5,6.3,11.9,9.6c26.7,19.9,53.3,30,79.3,30
	c39.5,0,71.7-32.1,71.7-71.7s-32.1-71.7-71.7-71.7c-26,0-52.6,10.1-79.3,30c-4.2,3.2-8.1,6.3-11.6,9.4c-1,0.9-2.9,1.6-4.2,1.6
	c-4.5-0.2-7.1-5.3-4.5-9.1c7.9-11.4,13.4-23.4,16.5-35.7c4.7-18.6,1.8-37.8-8-54.3c-9.8-16.4-25.4-28.1-44-32.7
	c-5.8-1.5-11.7-2.2-17.6-2.2c-32.9,0-61.4,22.3-69.4,54.2c-6.3,25.2-3.1,53.5,9.7,84.2c0.4,0.9,0.8,1.8,1.2,2.8
	c1,2.3-0.3,4.8-2.7,5.4c-4.1,0.9-8.1,1.9-12.2,3c-31.9,8.3-63.5,19.9-94,34.5c-53.1,25.3-84.1,50.6-85.4,51.7l0,0l0,0
	c-13.1,10.9-15,30.4-4.1,43.5c5.9,7.1,14.6,11.2,23.9,11.2c7.1,0,14.1-2.5,19.7-7c0.6-0.4,19.7-15.9,52.7-33.6l14.7-7.6
	c6.3-3.1,12.8-6.1,19.2-8.9C141.7,234.7,137.4,225.4,130.3,217.6z M315.6,84.8c-8.5,33.8-40,58.3-58.3,69.9
	c-2.2,1.4-5.1-0.6-4.5-3.2l17.1-76.8c0.5-2.2-1-4.4-3.3-4.7c-2-0.3-3.9,1.2-4.3,3.2l-17.2,77.2c-0.5,2.2-3.5,2.7-4.6,0.7
	c-9.4-16.6-24.1-48.7-20.3-80.1c1.8-15.2,9.9-28.8,22.1-37.5c11.1-7.8,24.2-10.5,37.1-7.6c12.8,2.9,23.7,10.6,30.6,21.8
	C316.8,58.9,318.8,72.1,315.6,84.8z M324.6,244.8c10.9,23.9,2.5,51.2-19.4,63.5c-12.6,7.1-26.9,8.3-40.3,3.5
	c-13.2-4.8-23.7-15-28.7-28.1c-12.7-33.1-0.7-71.6,7.7-91.8c0.8-2,3.6-1.9,4.3,0.1l26.3,71.4c0.6,1.6,2.1,2.5,3.7,2.5
	c0.4,0,0.9-0.1,1.3-0.2c2-0.7,3.1-3,2.3-5l-26.1-70.9c-0.9-2.4,1.6-4.6,3.9-3.5C278.3,195.2,310.8,214.4,324.6,244.8z M455.4,200.4
	c-9.6,9.5-22.8,14.2-36.3,14c-43.1-0.9-69.6-26.1-79.8-38.1c-2.1-2.5-0.3-6.3,2.9-6.3h89c2.1,0,4-1.6,4.1-3.7
	c0.1-2.2-1.7-4.1-3.9-4.1h-88.9c-3.3,0-5-3.9-2.9-6.3c10.7-12.1,37.1-37.4,71.9-37.4c2.3,0,4.7-0.4,7-0.4c12.8,0,25.1,4.5,34.7,12.7
	c10.3,8.8,16.1,20.9,16.5,34.1C470,178.3,464.9,190.9,455.4,200.4z"/>
<path class="st21" d="M66.5,234.4c-1.3,0-2.6-0.7-3.3-1.9c-1.1-1.8-0.5-4.2,1.3-5.3c5.3-3.2,10.8-6.4,16.3-9.5
	c1.9-1,4.3-0.4,5.3,1.5c1,1.9,0.4,4.2-1.5,5.3c-5.4,3-10.8,6.1-16,9.3C67.9,234.2,67.2,234.4,66.5,234.4z"/>
<circle class="st21" cx="94.9" cy="214.4" r="3.9"/>
<path class="st21" d="M249.7,114.1c-0.3,0-0.6,0-0.8-0.1c-2.1-0.5-3.4-2.5-3-4.6l3.5-15.7c0.5-2.1,2.5-3.4,4.6-3
	c2.1,0.5,3.4,2.5,3,4.6l-3.5,15.7C253.1,112.8,251.5,114.1,249.7,114.1z"/>
<path class="st21" d="M409.4,162.2h-20.1c-2.2,0-3.9-1.7-3.9-3.9s1.7-3.9,3.9-3.9h20.1c2.2,0,3.9,1.7,3.9,3.9
	S411.5,162.2,409.4,162.2z"/>
<circle class="st21" cx="256.3" cy="80.7" r="3.9"/>
</svg>
