<?xml version="1.0" encoding="utf-8"?>
<!-- Generator: Adobe Illustrator 20.1.0, SVG Export Plug-In . SVG Version: 6.00 Build 0)  -->
<svg version="1.1" id="Layer_1" xmlns="http://www.w3.org/2000/svg" xmlns:xlink="http://www.w3.org/1999/xlink" x="0px" y="0px"
	 viewBox="0 0 500 500" style="enable-background:new 0 0 500 500;" xml:space="preserve">
<style type="text/css">
	.st0{fill:#7C9800;}
	.st1{fill:#164E16;}
	.st2{fill:#4D831C;stroke:#2A481D;stroke-width:4;stroke-miterlimit:10;}
	.st3{fill:#6EA336;stroke:#2A481D;stroke-width:4;stroke-linecap:round;stroke-linejoin:round;stroke-miterlimit:10;}
	.st4{fill:#8DCC50;stroke:#A2A121;stroke-width:5;stroke-miterlimit:10;}
	.st5{fill:#4D831C;stroke:#071907;stroke-width:5;stroke-linejoin:round;stroke-miterlimit:10;}
	.st6{fill:#164E16;stroke:#071907;stroke-width:3;stroke-miterlimit:10;}
	.st7{fill:#7C9800;stroke:#164E16;stroke-width:5;stroke-linejoin:round;stroke-miterlimit:10;}
	.st8{fill:#FFD003;stroke:#D17D01;stroke-width:3;stroke-miterlimit:10;}
	.st9{fill:#E6E6E6;}
	.st10{fill:#00FFFF;}
	.st11{fill:#D9E021;}
	.st12{fill:#F22F2E;}
	.st13{fill:#F22F2E;stroke:#7B000E;stroke-width:3;stroke-miterlimit:10;}
	.st14{fill:none;stroke:#FFFFFF;stroke-linecap:round;stroke-linejoin:round;stroke-miterlimit:10;}
	.st15{fill:none;stroke:#FFFFFF;stroke-linecap:round;stroke-miterlimit:10;}
	.st16{fill:#FFFFFF;}
	.st17{fill:none;stroke:#7B000E;stroke-linecap:round;stroke-linejoin:round;stroke-miterlimit:10;}
	.st18{fill:none;stroke:#7B000E;stroke-linecap:round;stroke-miterlimit:10;}
	.st19{fill:#7B000E;}
	.st20{fill:#4D831C;}
	.st21{fill:#2A481D;}
	.st22{fill:#FF7A00;}
	.st23{fill:#FF7A00;stroke:#F44500;stroke-width:3;stroke-miterlimit:10;}
	.st24{fill:none;stroke:#F44500;stroke-linecap:round;stroke-linejoin:round;stroke-miterlimit:10;}
	.st25{fill:#FF7A00;stroke:#F44500;stroke-linecap:round;stroke-linejoin:round;stroke-miterlimit:10;}
	.st26{fill:#F44500;}
	.st27{fill:#8BA00D;stroke:#164E16;stroke-width:3;stroke-linejoin:round;stroke-miterlimit:10;}
	.st28{clip-path:url(#SVGID_2_);}
	.st29{fill:#F40000;stroke:#7B000E;stroke-width:3;stroke-miterlimit:10;}
	.st30{fill:#7DB34C;stroke:#164E16;stroke-width:3;stroke-miterlimit:10;}
	.st31{fill:none;stroke:#164E16;stroke-miterlimit:10;}
	.st32{fill:none;stroke:#7B000E;stroke-width:3;stroke-miterlimit:10;}
	.st33{fill:#A7C92B;stroke:#164E16;stroke-width:3;stroke-miterlimit:10;}
	.st34{fill:none;stroke:#164E16;stroke-linecap:round;stroke-miterlimit:10;}
	.st35{fill:#8BA00D;}
	.st36{fill:#999999;}
	.st37{fill:#A7C92B;}
	.st38{fill:none;stroke:#FEA502;stroke-linecap:round;stroke-linejoin:round;stroke-miterlimit:10;}
	.st39{fill:#FFD003;}
	.st40{fill:#D17D01;}
	.st41{fill:#FEA502;}
	.st42{fill:#4D831C;stroke:#2A481D;stroke-width:3;stroke-linecap:round;stroke-linejoin:round;stroke-miterlimit:10;}
	.st43{fill:#FA6200;stroke:#D54300;stroke-width:3;stroke-miterlimit:10;}
	.st44{fill:#FA6200;stroke:#D54300;stroke-linecap:round;stroke-miterlimit:10;}
	.st45{fill:none;stroke:#F44500;stroke-linecap:round;stroke-miterlimit:10;}
	.st46{fill:#FF9D00;stroke:#E6681E;stroke-linecap:round;stroke-miterlimit:10;}
	.st47{fill:#F97306;}
	.st48{fill:#D54300;}
	.st49{fill:#7DB34C;stroke:#44712A;stroke-width:3;stroke-miterlimit:10;}
	.st50{fill:none;stroke:#44712A;stroke-miterlimit:10;}
	.st51{fill:#7DB34C;}
	.st52{fill:#40760E;}
	.st53{fill:none;stroke:#071907;stroke-miterlimit:10;}
	.st54{fill:none;stroke:#071907;stroke-linecap:round;stroke-linejoin:round;stroke-miterlimit:10;}
	.st55{fill:#071907;}
	.st56{fill:#44712A;}
	.st57{fill:#6E905E;}
	.st58{fill:#456A0A;}
	.st59{fill:#183300;}
	.st60{fill:#FF2214;}
	.st61{fill:#661900;}
	.st62{fill:#FFDC00;}
	.st63{fill:#7C9800;stroke:#164E16;stroke-width:3;stroke-miterlimit:10;}
	.st64{fill:none;stroke:#D17D01;stroke-width:0.75;stroke-miterlimit:10;}
	.st65{fill:#7C9800;stroke:#164E16;stroke-linejoin:round;stroke-miterlimit:10;}
	.st66{fill:none;stroke:#164E16;stroke-linejoin:round;stroke-miterlimit:10;}
	.st67{fill:#8A9D1F;}
	.st68{fill:#1B4700;}
	.st69{fill:none;stroke:#7C9800;stroke-width:3;stroke-linecap:round;stroke-linejoin:round;stroke-miterlimit:10;}
	.st70{opacity:0.6;fill:none;stroke:#FFFFFF;stroke-linecap:round;stroke-miterlimit:10;}
	.st71{fill:none;stroke:#7B000E;stroke-miterlimit:10;}
	.st72{opacity:0.4;fill:none;stroke:#FFFFFF;stroke-linecap:round;stroke-linejoin:round;stroke-miterlimit:10;}
	.st73{fill:none;stroke:#FFFFFF;stroke-width:7.8511;stroke-linecap:round;stroke-miterlimit:10;}
	.st74{fill:#B0C06B;}
	.st75{fill:#F8ACAC;}
	.st76{fill:none;stroke:#FFFFFF;stroke-width:7.7562;stroke-linecap:round;stroke-miterlimit:10;}
	.st77{fill:none;stroke:#164E16;stroke-width:0.851;stroke-miterlimit:10;}
	.st78{opacity:0.3;}
	.st79{fill:#6EA336;}
	.st80{opacity:0.3;fill:#7B000E;}
	.st81{opacity:0.2;fill:none;stroke:#2A481D;stroke-linecap:round;stroke-linejoin:round;stroke-miterlimit:10;}
	.st82{fill:#CC242B;}
	.st83{fill:#5B8734;}
	.st84{fill:#4D831C;stroke:#071907;stroke-miterlimit:10;}
	.st85{fill:none;stroke:#071907;stroke-linecap:round;stroke-miterlimit:10;}
	.st86{opacity:0.7;fill:none;stroke:#FFFFFF;stroke-linecap:round;stroke-miterlimit:10;}
	.st87{opacity:0.7;fill:#FFFFFF;}
	.st88{fill:#B9CAB9;}
	.st89{fill:#F6E600;}
	.st90{fill:#8DCC50;}
	.st91{fill:#A2A121;}
	.st92{fill:#F9EFA7;}
	.st93{fill:#F6E600;stroke:#A2A121;stroke-width:3;stroke-miterlimit:10;}
	.st94{opacity:0.3;fill:none;stroke:#A2A121;stroke-linecap:round;stroke-linejoin:round;stroke-miterlimit:10;}
	.st95{fill:none;stroke:#A2A121;stroke-width:3;stroke-miterlimit:10;}
	.st96{fill:#8DCC50;stroke:#A2A121;stroke-miterlimit:10;}
	.st97{fill:#DCCF2F;}
	.st98{fill:#F22F2E;stroke:#7B000E;stroke-miterlimit:10;}
	.st99{fill:#F22F2E;stroke:#7B000E;stroke-linecap:round;stroke-miterlimit:10;}
	.st100{fill:#6EA336;stroke:#2A481D;stroke-linecap:round;stroke-linejoin:round;stroke-miterlimit:10;}
	.st101{fill:none;stroke:#2A481D;stroke-linecap:round;stroke-linejoin:round;stroke-miterlimit:10;}
	.st102{fill:#639D2E;stroke:#164E16;stroke-width:5;stroke-miterlimit:10;}
	.st103{fill:#639D2E;stroke:#164E16;stroke-miterlimit:10;}
	.st104{opacity:0.5;fill:none;stroke:#D54300;stroke-linecap:round;stroke-miterlimit:10;}
	.st105{fill:#E5531B;}
	.st106{opacity:0.3;fill:none;stroke:#D17D01;stroke-linecap:round;stroke-linejoin:round;stroke-miterlimit:10;}
	.st107{fill:#E6A627;}
</style>
<g>
	<path class="st0" d="M250,281.9c-15.8,0-30.5-1.8-39.4-4.8c-3.3-1.1-6-3.6-7.3-6.8c-1.3-3.2-1.1-6.9,0.4-10l0.7-1.3
		c14.5-28.1,29.6-57.3,29.6-89.1v-40.8c0-46.6,24.9-90.2,64.9-114c2.5-1.5,5.3-2.2,8.1-2.2c6.7,0,12.5,4,14.9,10.3
		c2.7,7.1-0.4,15.4-7.5,19.7c-30,18.1-48.6,51.2-48.6,86.2V170c0,31.9,15,61,29.6,89.1l0.7,1.3c1.6,3.1,1.8,6.7,0.5,10
		c-1.3,3.2-4,5.7-7.3,6.8C280.5,280.1,265.8,281.9,250,281.9z"/>
	<path class="st12" d="M382.8,350.3c0-73-36-91.7-80.3-91.7h-44.7c-2.6-0.2-5.2-0.3-7.8-0.3c-2.7,0-5.3,0.1-7.8,0.3h-44.7
		c-44.3,0-80.3,18.7-80.3,91.7c0,82.5,43.7,125.4,97.8,128.1c10.2,6.6,22.2,8.6,35,8.6c12.8,0,24.8-2,35-8.6
		C339.1,475.7,382.8,432.8,382.8,350.3z"/>
	<g>
		<path class="st1" d="M197.5,248.7h25.8c12.2-24.5,22.8-50.1,22.8-78.7v-40.8c0-42.4,22.6-82.1,59.1-103.7c0.6-0.4,1.3-0.6,2-0.6
			c1.3,0,3,0.7,3.8,2.6c0.7,1.9-0.7,4.2-2.6,5.3C274.8,53.1,254,90,254,129.2V170c0,28.5,10.6,54.2,22.8,78.7h25.8c0.3,0,0.7,0,1,0
			c-13.5-26.3-25.7-51.4-25.7-78.7v-40.8c0-30.9,16.4-60,42.8-76c12-7.3,17.3-21.7,12.5-34.2c-4.2-10.9-14.4-18-26-18
			c-5,0-9.9,1.3-14.2,3.9c-43.7,25.9-70.8,73.5-70.8,124.3V170c0,27.3-12.2,52.4-25.7,78.7C196.8,248.7,197.1,248.7,197.5,248.7z"/>
	</g>
	<path class="st16" d="M156.8,354.3C156.8,354.3,156.7,354.3,156.8,354.3c-2.3-0.1-4-1.9-4-4.1c0.4-18,2.4-33.6,5.7-46.3
		c0.6-2.1,2.8-3.4,4.9-2.8c2.1,0.6,3.4,2.7,2.8,4.9c-3.2,12.1-5.1,27-5.5,44.5C160.7,352.6,159,354.3,156.8,354.3z"/>
	<path class="st12" d="M309.7,333.5c1.2,10.6,1.9,22.8,1.9,36.7"/>
	<path class="st19" d="M311.6,374.2c-2.2,0-4-1.8-4-4c0-13.4-0.6-25.6-1.9-36.3c-0.3-2.2,1.3-4.2,3.5-4.4c2.2-0.3,4.2,1.3,4.4,3.5
		c1.3,10.9,1.9,23.4,1.9,37.2C315.6,372.4,313.8,374.2,311.6,374.2z"/>
	<path class="st16" d="M219.1,342.3c-0.1,0-0.2,0-0.3,0c-2.2-0.2-3.8-2.1-3.6-4.3c1-11.5,2.1-21.7,3.5-30.4c0.3-2.2,2.4-3.7,4.5-3.3
		c2.2,0.3,3.7,2.4,3.3,4.5c-1.3,8.5-2.5,18.5-3.4,29.8C222.8,340.8,221.1,342.3,219.1,342.3z"/>
	
		<ellipse transform="matrix(2.365631e-02 -0.9997 0.9997 2.365631e-02 -216.6015 518.6544)" class="st16" cx="157.2" cy="370.2" rx="4.8" ry="4.8"/>
	<circle class="st19" cx="305.9" cy="312.9" r="4.8"/>
	<path class="st19" d="M302.5,246.6h-42.4c-1.2,0-2.4,0-3.6-0.1c-4.3-0.2-8.7-0.2-12.9,0c-1.2,0.1-2.4,0.1-3.6,0.1h-42.4
		c-61.2,0-92.2,34.9-92.2,103.7c0,41.7,10.8,76.8,31.3,101.6c16.3,19.7,38.5,32.5,63.7,36.9c6.3,1.1,12.6,2.6,18.5,5
		c8.9,3.5,19,5.2,31.1,5.2c12.1,0,22.3-1.7,31.1-5.2c6-2.4,12.2-3.9,18.5-5c25.2-4.4,47.5-17.2,63.7-36.9
		c20.5-24.8,31.3-59.9,31.3-101.6C394.8,281.5,363.7,246.6,302.5,246.6z M306.9,445.7c3.4-10,5.8-21.9,7.2-35.9
		c0.2-2.1-1.2-4.2-3.4-4.6c-2.3-0.3-4.3,1.3-4.5,3.5c-6.1,61.8-30.6,70.3-56.2,70.3c-19,0-39.7-4.6-50.3-38.6
		c-0.6-2-2.6-3.3-4.6-2.9c-2.3,0.5-3.7,2.8-3,5.1c0.3,1,0.7,2.1,1,3.1c2.7,8-5.7,15.3-13.1,11.4c-32-16.8-50.8-54.9-50.8-106.8
		c0-30.4,6.7-52.1,19.8-64.6c10.8-10.2,26.7-15.2,48.6-15.2h0.8c5.3,0,8.3,6,5.1,10.3c-5,6.9-9.4,15.9-12.6,27.9
		c-0.5,2,0.4,4.2,2.3,4.9c0.5,0.2,1,0.3,1.5,0.3c1.8,0,3.4-1.2,3.8-3c4.4-16.7,11.2-28.1,20.8-34.9c7.8-5.5,17.6-8.1,30.8-8.1
		c18.9,0,31.3,5.4,40.2,17.5c1.3,1.7,3.7,2.3,5.5,1.1c1.9-1.2,2.4-3.9,1.1-5.7l-0.1-0.1c-3.1-4.3-0.1-10.3,5.2-10.3h0.6
		c21.9,0,37.8,5,48.6,15.2c13.1,12.5,19.8,34.2,19.8,64.6c0,52-18.8,90.1-50.9,106.9C312.5,461.1,304.2,453.7,306.9,445.7z"/>
</g>
</svg>
