<?xml version="1.0" encoding="utf-8"?>
<!-- Generator: Adobe Illustrator 20.1.0, SVG Export Plug-In . SVG Version: 6.00 Build 0)  -->
<svg version="1.1" id="Layer_1" xmlns="http://www.w3.org/2000/svg" xmlns:xlink="http://www.w3.org/1999/xlink" x="0px" y="0px"
	 viewBox="0 0 500 500" style="enable-background:new 0 0 500 500;" xml:space="preserve">
<style type="text/css">
	.st0{fill:#F22F2E;}
	.st1{fill:#F22F2E;stroke:#7B000E;stroke-width:5;stroke-miterlimit:10;}
	.st2{fill:#7C9800;stroke:#164E16;stroke-width:5;stroke-linejoin:round;stroke-miterlimit:10;}
	.st3{fill:#F22F2E;stroke:#7B000E;stroke-miterlimit:10;}
	.st4{fill:#7C9800;}
	.st5{fill:#164E16;}
	.st6{fill:#4D831C;stroke:#2A481D;stroke-width:4;stroke-miterlimit:10;}
	.st7{fill:#6EA336;stroke:#2A481D;stroke-width:4;stroke-linecap:round;stroke-linejoin:round;stroke-miterlimit:10;}
	.st8{fill:#8DCC50;stroke:#A2A121;stroke-width:5;stroke-miterlimit:10;}
	.st9{fill:#4D831C;stroke:#071907;stroke-width:5;stroke-linejoin:round;stroke-miterlimit:10;}
	.st10{fill:#164E16;stroke:#071907;stroke-width:3;stroke-miterlimit:10;}
	.st11{fill:#FFD003;stroke:#D17D01;stroke-width:3;stroke-miterlimit:10;}
	.st12{fill:#E6E6E6;}
	.st13{fill:#00FFFF;}
	.st14{fill:#D9E021;}
	.st15{fill:#F22F2E;stroke:#7B000E;stroke-width:3;stroke-miterlimit:10;}
	.st16{fill:none;stroke:#FFFFFF;stroke-linecap:round;stroke-linejoin:round;stroke-miterlimit:10;}
	.st17{fill:none;stroke:#FFFFFF;stroke-linecap:round;stroke-miterlimit:10;}
	.st18{fill:#FFFFFF;}
	.st19{fill:none;stroke:#7B000E;stroke-linecap:round;stroke-linejoin:round;stroke-miterlimit:10;}
	.st20{fill:none;stroke:#7B000E;stroke-linecap:round;stroke-miterlimit:10;}
	.st21{fill:#7B000E;}
	.st22{fill:#4D831C;}
	.st23{fill:#2A481D;}
	.st24{fill:#FF7A00;}
	.st25{fill:#FF7A00;stroke:#F44500;stroke-width:3;stroke-miterlimit:10;}
	.st26{fill:none;stroke:#F44500;stroke-linecap:round;stroke-linejoin:round;stroke-miterlimit:10;}
	.st27{fill:#FF7A00;stroke:#F44500;stroke-linecap:round;stroke-linejoin:round;stroke-miterlimit:10;}
	.st28{fill:#F44500;}
	.st29{fill:#8BA00D;stroke:#164E16;stroke-width:3;stroke-linejoin:round;stroke-miterlimit:10;}
	.st30{clip-path:url(#SVGID_2_);}
	.st31{fill:#F40000;stroke:#7B000E;stroke-width:3;stroke-miterlimit:10;}
	.st32{fill:#7DB34C;stroke:#164E16;stroke-width:3;stroke-miterlimit:10;}
	.st33{fill:none;stroke:#164E16;stroke-miterlimit:10;}
	.st34{fill:none;stroke:#7B000E;stroke-width:3;stroke-miterlimit:10;}
	.st35{fill:#A7C92B;stroke:#164E16;stroke-width:3;stroke-miterlimit:10;}
	.st36{fill:none;stroke:#164E16;stroke-linecap:round;stroke-miterlimit:10;}
	.st37{fill:#8BA00D;}
	.st38{fill:#999999;}
	.st39{fill:#A7C92B;}
	.st40{fill:none;stroke:#FEA502;stroke-linecap:round;stroke-linejoin:round;stroke-miterlimit:10;}
	.st41{fill:#FFD003;}
	.st42{fill:#D17D01;}
	.st43{fill:#FEA502;}
	.st44{fill:#4D831C;stroke:#2A481D;stroke-width:3;stroke-linecap:round;stroke-linejoin:round;stroke-miterlimit:10;}
	.st45{fill:#FA6200;stroke:#D54300;stroke-width:3;stroke-miterlimit:10;}
	.st46{fill:#FA6200;stroke:#D54300;stroke-linecap:round;stroke-miterlimit:10;}
	.st47{fill:none;stroke:#F44500;stroke-linecap:round;stroke-miterlimit:10;}
	.st48{fill:#FF9D00;stroke:#E6681E;stroke-linecap:round;stroke-miterlimit:10;}
	.st49{fill:#F97306;}
	.st50{fill:#D54300;}
	.st51{fill:#7DB34C;stroke:#44712A;stroke-width:3;stroke-miterlimit:10;}
	.st52{fill:none;stroke:#44712A;stroke-miterlimit:10;}
	.st53{fill:#7DB34C;}
	.st54{fill:#40760E;}
	.st55{fill:none;stroke:#071907;stroke-miterlimit:10;}
	.st56{fill:none;stroke:#071907;stroke-linecap:round;stroke-linejoin:round;stroke-miterlimit:10;}
	.st57{fill:#071907;}
	.st58{fill:#44712A;}
	.st59{fill:#6E905E;}
	.st60{fill:#456A0A;}
	.st61{fill:#183300;}
	.st62{fill:#FF2214;}
	.st63{fill:#661900;}
	.st64{fill:#FFDC00;}
	.st65{fill:#7C9800;stroke:#164E16;stroke-width:3;stroke-miterlimit:10;}
	.st66{fill:none;stroke:#D17D01;stroke-width:0.75;stroke-miterlimit:10;}
	.st67{fill:#7C9800;stroke:#164E16;stroke-linejoin:round;stroke-miterlimit:10;}
	.st68{fill:none;stroke:#164E16;stroke-linejoin:round;stroke-miterlimit:10;}
	.st69{fill:#8A9D1F;}
	.st70{fill:#1B4700;}
	.st71{fill:none;stroke:#7C9800;stroke-width:3;stroke-linecap:round;stroke-linejoin:round;stroke-miterlimit:10;}
	.st72{opacity:0.6;fill:none;stroke:#FFFFFF;stroke-linecap:round;stroke-miterlimit:10;}
	.st73{fill:none;stroke:#7B000E;stroke-miterlimit:10;}
	.st74{opacity:0.4;fill:none;stroke:#FFFFFF;stroke-linecap:round;stroke-linejoin:round;stroke-miterlimit:10;}
	.st75{fill:none;stroke:#FFFFFF;stroke-width:7.8511;stroke-linecap:round;stroke-miterlimit:10;}
	.st76{fill:#B0C06B;}
	.st77{fill:#F8ACAC;}
	.st78{fill:none;stroke:#FFFFFF;stroke-width:7.7562;stroke-linecap:round;stroke-miterlimit:10;}
	.st79{fill:none;stroke:#164E16;stroke-width:0.851;stroke-miterlimit:10;}
	.st80{opacity:0.3;}
	.st81{fill:#6EA336;}
	.st82{opacity:0.3;fill:#7B000E;}
	.st83{opacity:0.2;fill:none;stroke:#2A481D;stroke-linecap:round;stroke-linejoin:round;stroke-miterlimit:10;}
	.st84{fill:#CC242B;}
	.st85{fill:#5B8734;}
	.st86{fill:#4D831C;stroke:#071907;stroke-miterlimit:10;}
	.st87{fill:none;stroke:#071907;stroke-linecap:round;stroke-miterlimit:10;}
	.st88{opacity:0.7;fill:none;stroke:#FFFFFF;stroke-linecap:round;stroke-miterlimit:10;}
	.st89{opacity:0.7;fill:#FFFFFF;}
	.st90{fill:#B9CAB9;}
	.st91{fill:#F6E600;}
	.st92{fill:#8DCC50;}
	.st93{fill:#A2A121;}
	.st94{fill:#F9EFA7;}
	.st95{fill:#F6E600;stroke:#A2A121;stroke-width:3;stroke-miterlimit:10;}
	.st96{opacity:0.3;fill:none;stroke:#A2A121;stroke-linecap:round;stroke-linejoin:round;stroke-miterlimit:10;}
	.st97{fill:none;stroke:#A2A121;stroke-width:3;stroke-miterlimit:10;}
	.st98{fill:#8DCC50;stroke:#A2A121;stroke-miterlimit:10;}
	.st99{fill:#DCCF2F;}
	.st100{fill:#F22F2E;stroke:#7B000E;stroke-linecap:round;stroke-miterlimit:10;}
	.st101{fill:#6EA336;stroke:#2A481D;stroke-linecap:round;stroke-linejoin:round;stroke-miterlimit:10;}
	.st102{fill:none;stroke:#2A481D;stroke-linecap:round;stroke-linejoin:round;stroke-miterlimit:10;}
	.st103{fill:#639D2E;stroke:#164E16;stroke-width:5;stroke-miterlimit:10;}
	.st104{fill:#639D2E;stroke:#164E16;stroke-miterlimit:10;}
	.st105{opacity:0.5;fill:none;stroke:#D54300;stroke-linecap:round;stroke-miterlimit:10;}
	.st106{fill:#E5531B;}
	.st107{opacity:0.3;fill:none;stroke:#D17D01;stroke-linecap:round;stroke-linejoin:round;stroke-miterlimit:10;}
	.st108{fill:#E6A627;}
	.st109{fill:#A3B653;}
	.st110{fill:none;stroke:#164E16;stroke-linecap:round;stroke-linejoin:round;stroke-miterlimit:10;}
	.st111{fill:#FAC1C1;}
</style>
<polygon class="st0" points="131.7,175.1 141,110.5 170.5,86.1 190.6,21.5 228.6,22.2 243.7,35.8 286.8,13.6 322.7,45.9 328.4,74.6 
	357.1,110.5 367.2,163.6 358.6,236.2 251.6,313 151.1,234.7 "/>
<path class="st0" d="M196.4,277.5c0.9-0.1,0.7-0.6-0.3-1.5C195.5,277.1,195.6,277.6,196.4,277.5z"/>
<path class="st0" d="M316.5,270.7c0.9,0,0.8-0.5,0.1-1.6C315.7,270.1,315.6,270.7,316.5,270.7z"/>
<path class="st0" d="M252.8,300.8c0.9,0,0.8-0.6,0.1-1.6C252,300.2,251.9,300.8,252.8,300.8z"/>
<path class="st111" d="M203,77c-2.1,0-3.8-1.7-3.9-3.8c-0.2-7.6-0.2-14.6-0.1-20.9c0-2.1,1.8-3.8,3.9-3.8c0,0,0.1,0,0.1,0
	c2.1,0,3.8,1.8,3.8,4c-0.1,6.2-0.1,13.1,0.1,20.6c0.1,2.1-1.6,3.9-3.8,4C203.1,77,203,77,203,77z"/>
<path class="st111" d="M273.9,68.2c-0.3,0-0.6,0-0.8-0.1c-2.1-0.5-3.4-2.5-3-4.6c1-4.3,1.9-8.3,2.9-12.1c0.5-2.1,2.7-3.3,4.7-2.8
	c2.1,0.5,3.3,2.7,2.8,4.7c-1,3.7-1.9,7.6-2.8,11.8C277.3,66.9,275.7,68.2,273.9,68.2z"/>
<path class="st18" d="M163.4,151C163.3,151,163.3,151,163.4,151c-2.2,0-3.9-1.8-3.9-3.9c0.1-6.8,0.4-13.1,0.9-18.7
	c0.2-2.1,2.1-3.7,4.2-3.5c2.1,0.2,3.7,2.1,3.5,4.2c-0.5,5.5-0.8,11.5-0.9,18.1C167.2,149.3,165.5,151,163.4,151z"/>
<path class="st18" d="M307.9,136.7c-0.2,0-0.3,0-0.5,0c-2.1-0.3-3.6-2.2-3.4-4.3c0.7-5.8,1.5-11.3,2.5-16.2c0.4-2.1,2.4-3.5,4.5-3.1
	c2.1,0.4,3.5,2.4,3.1,4.5c-0.9,4.7-1.7,10-2.4,15.7C311.5,135.2,309.9,136.7,307.9,136.7z"/>
<path class="st4" d="M296.6,201.8l0.4,3.1c0.5,12.4-1.7,24-6.4,34.9c8,30,9.8,61.5,5.1,92.5c-5.8,38-13.9,83.8-25,131.4
	c-1.5,6.3,2.4,12.5,8.7,14c0.9,0.2,1.8,0.3,2.7,0.3c5.3,0,10-3.7,11.3-9c11.7-50.4,20.2-98.6,26.1-138.1
	c6.2-41.6,19-81.8,37.9-119.4v0C339.3,199.3,317,195.9,296.6,201.8z"/>
<path class="st4" d="M232.4,356.3c-16.3-40.6-20.1-85-11.6-127.7l-2.7-19.9c-24.1-7.6-50.6-2.1-69.7,15v0
	c20.5,29.4,36.1,61.9,46.3,96.3c13.4,44.9,37,101.5,78,153.7c2.3,2.9,5.7,4.5,9.2,4.5c2.5,0,5.1-0.8,7.2-2.5c5.1-4,5.9-11.3,2-16.4
	C264.7,425.5,245.8,389.5,232.4,356.3z"/>
<circle class="st18" cx="163.3" cy="162.7" r="4.7"/>
<path class="st21" d="M191.3,110.9c4.4,4.8,9.7,12.2,14.4,23.5c3.4,8.1,6.2,19.4,8.2,28.4c1.8,8,2.3,16.3,1.6,24.5
	c-0.4,4.4-0.7,9-0.8,13.8c-0.5,15.7,1.3,29.5,4.3,41.3c2.4-1,4.9-1.9,7.4-2.6c-2.7-11-4.4-23.8-3.9-38.4c0,0,0-11.3,2.1-24.3
	c3.3-21.9,9.8-35,15.3-42.6c8-11,16.5-13.9,20.1-13.9c0.1,0,0.1,0,0.2,0c3.4,0.1,11.9,3.4,19.4,15.2c6.6,10.4,14.3,30.7,13.1,67.9
	c-0.5,14.7-2.9,27.4-6.3,38.2c2.5,0.8,4.9,1.7,7.3,2.8c3.7-11.6,6.2-25.1,6.7-40.7c0.8-25.5-2.3-44.3-7.3-57.9
	c-2.6-7.2-2.6-15-0.1-22.2c3.1-8.7,6.6-14.9,9.8-19.2c8.2-11.2,16.9-13.9,20.4-13.8c3.4,0.1,11.9,3.5,19.3,15.3
	c6.6,10.5,14.1,30.7,12.8,67.9c-0.5,12.4-2.3,23.3-4.9,32.9l19.9,14.7c4.5-13.2,7.7-28.7,8.3-46.7c1.3-34.6-4.2-61.9-16.3-81.2
	c-3.8-6.1-9.3-12.5-15.8-17.4c-5.4-4.1-9-10.1-10.1-16.7c-2.1-12.8-5.9-23.9-11.6-33.1c-8-13-19.7-21.8-31.3-23.6
	c-7.8-1.2-20,0.7-32.4,9.7c-6.5,4.8-15.4,4.8-22,0c-12.4-9-24.6-10.9-32.4-9.7c-14.4,2.2-38.1,18.1-43.5,61.1
	c-1,7.6-5.3,14.2-11.7,18.4c-18.3,11.9-37.1,42.7-27.4,107c2.5,16.5,6.8,30.6,11.9,42.5l19.7-13.4c-3.7-9.3-6.7-20.1-8.6-32.6
	c-5.6-36.8-0.4-57.8,5-68.9c6-12.5,14-16.9,17.5-17.3C179.7,98.1,191.3,110.9,191.3,110.9z M231.9,37.2c2.7,2.9,5.8,6.9,8.8,12.2
	c3.3,5.7,4,12.5,2,18.8c-3.1,9.5-5.6,20.3-7.4,32.3c-1,6.7-1.7,13.1-2.1,19.2c-0.5,6.7-2.1,13.2-5.2,19.1c-0.9,1.7-1.7,3.4-2.5,5.3
	c-1.6,3.7-6.9,3.4-8.1-0.4c-7.2-23.1-17.1-36.5-26.5-43.9c-3.3-2.6-5.4-6.6-5.5-10.8c-0.9-22.8,3.1-37.2,7.3-45.8
	c6-12.5,14-17.1,17.5-17.3C220.2,25.1,231.9,37.2,231.9,37.2z M314.6,75.5c0.3,5.2-2.3,10-6.5,13c-3.8,2.7-7.8,6.4-11.6,11.5
	c-4.3,5.8-7.8,12.7-10.7,20.7c-1.1,3-4.9,3.8-7.1,1.6c-6.9-6.8-13.9-9.3-18.3-9.4c-3.1-0.1-7.5,0.8-12.3,3.5
	c-3.1,1.7-6.8-0.7-6.4-4.2c0.4-3.4,0.8-6.9,1.3-10.5c5.6-36.8,16.7-55.3,25.2-64.4c8.5-9.2,16.6-11.5,20.6-11.5c0.5,0,0.9,0,1.2,0.1
	c3.4,0.5,11.4,4.8,17.5,17.3C310.6,49.9,313.8,60.2,314.6,75.5z"/>
<path class="st18" d="M240.4,185.9c-0.1,0-0.2,0-0.3,0c-2.1-0.2-3.7-2-3.6-4.2c0.7-9.8,1.8-18.8,3.1-26.7c0.3-2.1,2.3-3.6,4.5-3.2
	c2.1,0.3,3.6,2.3,3.2,4.5c-1.3,7.7-2.3,16.5-3,26C244.2,184.3,242.5,185.9,240.4,185.9z"/>
<path class="st4" d="M293.3,463.6C285,425.1,279,388.4,274.8,357c-5.2-38.5,0.8-77.7,17.1-113l0,0c-22.2-14.5-50.8-14.7-73.4-0.7
	l4.5,10.3c14,31.9,23.3,65.7,27.8,100.2c4.3,33.5,10.7,73.3,19.8,115.1c1.2,5.4,6,9.1,11.3,9.2c1.6,0,3.1-0.3,4.7-1
	C291.8,475,294.5,469.1,293.3,463.6z"/>
<path class="st5" d="M282.3,497.6c14.4,0,26.8-10,30-24.1c10.2-43.8,19-90.7,26.4-139.6c5.9-39.6,18.1-77.8,36.1-113.6
	c4.4-8.7,1.5-19.3-6.6-24.8c-2.2-1.5-4.5-2.9-6.8-4.2c-0.3,2.4-0.7,4.7-1.2,7c-0.9,4.4-5.7,6.9-9.7,4.9c-15.6-7.8-33.3-9.9-50.1-6.3
	c0,2.3,0,4.6-0.1,7c0,0.3,0,0.7,0,1c14.2-3.4,29.2-2.3,42.7,3.4c3.9,1.6,5.9,6,4.6,10c-8,24.2-20.4,38.2-27.6,44.7
	c-1.5,1.4-1.8,3.8-0.5,5.4c0.8,0.9,1.9,1.4,3,1.4c0.9,0,1.9-0.3,2.6-1c0.4-0.3,0.8-0.7,1.2-1.1c1.5-1.4,3.9,0.1,3.3,2.1
	c-6.2,19.8-10.9,40-14,60.6c-5.2,35-11.3,68.9-18,101.4c-0.8,3.7-6.1,3.7-6.8-0.1c-0.5-2.9-1.1-5.8-1.6-8.7
	c-1.8-9.8-1.7-19.8,0.1-29.5c3.7-19.8,7.1-40,10.2-60.6c4.5-29.3,3.2-59-3.5-87.5c-0.2-0.7-0.4-1.4-0.7-2v0c-0.9-1.8-2.3-3.4-4-4.4
	c-20.7-12.2-46.3-13.1-67.8-2.8c-2.7,1.3-5.9-0.3-6.5-3.3c-0.6-3.5-1.1-6-1.1-6c-3.1,17.9-9.3,31-14.3,39.2
	c-1.1,1.7-0.7,4.1,0.9,5.3c0.7,0.5,1.5,0.8,2.3,0.8c1.3,0,2.6-0.7,3.3-1.9c0.2-0.4,0.5-0.8,0.8-1.3c1-1.7,3.7-1,3.7,1
	c-0.4,30,5,60,16.2,87.7c6.3,15.7,13.4,30.8,21.1,45.1c4,7.5,6.8,15.5,8.3,23.9c0.7,3.8,1.4,7.6,2.1,11.3c0.7,3.7-4.2,5.7-6.3,2.5
	c-23.5-36.2-42.1-77-55.5-121.7c-8.8-29.6-21.4-57.5-37.5-83.3c-4.3-6.8-1.6-15.9,5.6-19.4c14.8-7.2,31.9-8.8,48-4.4
	c-0.1-2.6-0.1-5.3-0.1-8c-20.8-5-42.9-1.1-60.7,10.9c-3.3,2.2-7.7,0.6-8.9-3.2c-0.8-2.6-1.6-5.2-2.3-8c-2.5,1.8-4.9,3.7-7.1,5.7
	c-7.4,6.6-8.6,17.7-2.9,25.7c19.2,27.5,33.8,58,43.6,90.7c18.1,60.7,45.5,114.6,81.4,160.2C257.6,485.8,266.6,497.6,282.3,497.6z
	 M285.1,473.6c-1.1,0.5-2.2,0.7-3.2,0.7c-3.6,0-6.7-2.6-7.5-6.1c-7.9-36.4-14.5-75-19.7-114.8c-4.6-35.1-14-69.2-28.1-101.3l0,0
	c-1.9-4.2,0.2-9.1,4.5-10.8c15.5-6,32.8-5.8,48.2,0.5c3.8,1.6,5.9,5.8,4.6,9.8c-6.7,21.8-17.2,35-23.3,41.2c-1.6,1.6-1.6,4.3,0,5.7
	c0.7,0.7,1.7,1,2.6,1c1,0,2-0.4,2.8-1.2c0.1-0.1,0.3-0.3,0.4-0.4c1.9-1.9,5.1-0.3,4.7,2.3c-2.7,18.9-2.8,38.1-0.3,57.2
	c5,37,11.2,73,18.6,106.9v0C290.4,468.2,288.5,472.2,285.1,473.6z"/>
</svg>
