<svg xmlns="http://www.w3.org/2000/svg" version="1.0" viewBox="0 0 48 48" width="48" height="48"><path fill="#64B5F6" d="M12.3 12.3H40.3V40.3H12.3z" transform="rotate(18.558 26.274 26.27)"/><path fill="#1E88E5" d="M15.6 15.4H37.6V35.4H15.6z" transform="rotate(18.042 26.563 25.412)"/><path fill="#90CAF9" d="M8.1 8.1H36.1V36.1H8.1z" transform="rotate(10.454 22.134 22.135)"/><path fill="#42A5F5" d="M11.3 11.2H33.3V31.2H11.3z" transform="rotate(10.068 22.284 21.207)"/><path fill="#BBDEFB" d="M4 4H32V32H4z"/><path fill="#4CAF50" d="M7 7H29V27H7z"/><path fill="#FFF" d="M16 13c0-1.1.9-2 2-2s2 .9 2 2-2 4-2 4S16 14.1 16 13zM20 21c0 1.1-.9 2-2 2s-2-.9-2-2 2-4 2-4S20 19.9 20 21z"/><path fill="#FFF" d="M13.5 16.7c-1-.6-1.3-1.8-.7-2.7.6-1 1.8-1.3 2.7-.7 1 .6 2.5 3.7 2.5 3.7S14.5 17.3 13.5 16.7zM22.5 17.3c1 .6 1.3 1.8.7 2.7-.6 1-1.8 1.3-2.7.7C19.5 20.2 18 17 18 17S21.5 16.7 22.5 17.3z"/><path fill="#FFF" d="M22.5 16.7c1-.6 1.3-1.8.7-2.7-.6-1-1.8-1.3-2.7-.7C19.5 13.8 18 17 18 17S21.5 17.3 22.5 16.7zM13.5 17.3c-1 .6-1.3 1.8-.7 2.7.6 1 1.8 1.3 2.7.7 1-.6 2.5-3.7 2.5-3.7S14.5 16.7 13.5 17.3z"/><path fill="#FFC107" d="M18 15A2 2 0 1 0 18 19A2 2 0 1 0 18 15Z"/></svg>