<?xml version="1.0" encoding="utf-8"?>
<!-- Generator: Adobe Illustrator 20.1.0, SVG Export Plug-In . SVG Version: 6.00 Build 0)  -->
<svg version="1.1" id="Layer_1" xmlns="http://www.w3.org/2000/svg" xmlns:xlink="http://www.w3.org/1999/xlink" x="0px" y="0px"
	 viewBox="0 0 500 500" style="enable-background:new 0 0 500 500;" xml:space="preserve">
<style type="text/css">
	.st0{fill:#6EA336;stroke:#2A481D;stroke-width:4;stroke-linecap:round;stroke-linejoin:round;stroke-miterlimit:10;}
	.st1{fill:#8DCC50;stroke:#A2A121;stroke-width:5;stroke-miterlimit:10;}
	.st2{fill:#4D831C;stroke:#071907;stroke-width:5;stroke-linejoin:round;stroke-miterlimit:10;}
	.st3{fill:#164E16;stroke:#071907;stroke-width:3;stroke-miterlimit:10;}
	.st4{fill:#7C9800;stroke:#164E16;stroke-width:5;stroke-linejoin:round;stroke-miterlimit:10;}
	.st5{fill:#FFD003;stroke:#D17D01;stroke-width:3;stroke-miterlimit:10;}
	.st6{fill:#00FFFF;}
	.st7{fill:#7C9800;}
	.st8{fill:#164E16;}
	.st9{fill:#F22F2E;}
	.st10{fill:#F22F2E;stroke:#7B000E;stroke-width:3;stroke-miterlimit:10;}
	.st11{fill:none;stroke:#FFFFFF;stroke-linecap:round;stroke-linejoin:round;stroke-miterlimit:10;}
	.st12{fill:none;stroke:#FFFFFF;stroke-linecap:round;stroke-miterlimit:10;}
	.st13{fill:#FFFFFF;}
	.st14{fill:none;stroke:#7B000E;stroke-linecap:round;stroke-linejoin:round;stroke-miterlimit:10;}
	.st15{fill:none;stroke:#7B000E;stroke-linecap:round;stroke-miterlimit:10;}
	.st16{fill:#7B000E;}
	.st17{fill:#4D831C;}
	.st18{fill:#2A481D;}
	.st19{fill:#FF7A00;}
	.st20{fill:#FF7A00;stroke:#F44500;stroke-width:3;stroke-miterlimit:10;}
	.st21{fill:none;stroke:#F44500;stroke-linecap:round;stroke-linejoin:round;stroke-miterlimit:10;}
	.st22{fill:#FF7A00;stroke:#F44500;stroke-linecap:round;stroke-linejoin:round;stroke-miterlimit:10;}
	.st23{fill:#F44500;}
	.st24{fill:#8BA00D;stroke:#164E16;stroke-width:3;stroke-linejoin:round;stroke-miterlimit:10;}
	.st25{clip-path:url(#SVGID_2_);}
	.st26{fill:#F40000;stroke:#7B000E;stroke-width:3;stroke-miterlimit:10;}
	.st27{fill:#7DB34C;stroke:#164E16;stroke-width:3;stroke-miterlimit:10;}
	.st28{fill:none;stroke:#164E16;stroke-miterlimit:10;}
	.st29{fill:none;stroke:#7B000E;stroke-width:3;stroke-miterlimit:10;}
	.st30{fill:#A7C92B;stroke:#164E16;stroke-width:3;stroke-miterlimit:10;}
	.st31{fill:none;stroke:#164E16;stroke-linecap:round;stroke-miterlimit:10;}
	.st32{fill:#8BA00D;}
	.st33{fill:#999999;}
	.st34{fill:#A7C92B;}
	.st35{fill:none;stroke:#FEA502;stroke-linecap:round;stroke-linejoin:round;stroke-miterlimit:10;}
	.st36{fill:#FFD003;}
	.st37{fill:#D17D01;}
	.st38{fill:#FEA502;}
	.st39{fill:#4D831C;stroke:#2A481D;stroke-width:3;stroke-linecap:round;stroke-linejoin:round;stroke-miterlimit:10;}
	.st40{fill:#FA6200;stroke:#D54300;stroke-width:3;stroke-miterlimit:10;}
	.st41{fill:#FA6200;stroke:#D54300;stroke-linecap:round;stroke-miterlimit:10;}
	.st42{fill:none;stroke:#F44500;stroke-linecap:round;stroke-miterlimit:10;}
	.st43{fill:#FF9D00;stroke:#E6681E;stroke-linecap:round;stroke-miterlimit:10;}
	.st44{fill:#F97306;}
	.st45{fill:#D54300;}
	.st46{fill:#7DB34C;stroke:#44712A;stroke-width:3;stroke-miterlimit:10;}
	.st47{fill:none;stroke:#44712A;stroke-miterlimit:10;}
	.st48{fill:#7DB34C;}
	.st49{fill:#40760E;}
	.st50{fill:none;stroke:#071907;stroke-miterlimit:10;}
	.st51{fill:none;stroke:#071907;stroke-linecap:round;stroke-linejoin:round;stroke-miterlimit:10;}
	.st52{fill:#071907;}
	.st53{fill:#44712A;}
	.st54{fill:#6E905E;}
	.st55{fill:#456A0A;}
	.st56{fill:#183300;}
	.st57{fill:#FF2214;}
	.st58{fill:#661900;}
	.st59{fill:#FFDC00;}
	.st60{fill:#7C9800;stroke:#164E16;stroke-width:3;stroke-miterlimit:10;}
	.st61{fill:none;stroke:#D17D01;stroke-width:0.75;stroke-miterlimit:10;}
	.st62{fill:#7C9800;stroke:#164E16;stroke-linejoin:round;stroke-miterlimit:10;}
	.st63{fill:none;stroke:#164E16;stroke-linejoin:round;stroke-miterlimit:10;}
	.st64{fill:#8A9D1F;}
	.st65{fill:#1B4700;}
	.st66{fill:none;stroke:#7C9800;stroke-width:3;stroke-linecap:round;stroke-linejoin:round;stroke-miterlimit:10;}
	.st67{opacity:0.6;fill:none;stroke:#FFFFFF;stroke-linecap:round;stroke-miterlimit:10;}
	.st68{fill:none;stroke:#7B000E;stroke-miterlimit:10;}
	.st69{opacity:0.4;fill:none;stroke:#FFFFFF;stroke-linecap:round;stroke-linejoin:round;stroke-miterlimit:10;}
	.st70{fill:none;stroke:#FFFFFF;stroke-width:7.8511;stroke-linecap:round;stroke-miterlimit:10;}
	.st71{fill:#B0C06B;}
	.st72{fill:#F8ACAC;}
	.st73{fill:none;stroke:#FFFFFF;stroke-width:7.7562;stroke-linecap:round;stroke-miterlimit:10;}
	.st74{fill:none;stroke:#164E16;stroke-width:0.851;stroke-miterlimit:10;}
	.st75{opacity:0.3;}
	.st76{fill:#6EA336;}
	.st77{opacity:0.3;fill:#7B000E;}
	.st78{opacity:0.2;fill:none;stroke:#2A481D;stroke-linecap:round;stroke-linejoin:round;stroke-miterlimit:10;}
	.st79{fill:#CC242B;}
	.st80{fill:#5B8734;}
	.st81{fill:#4D831C;stroke:#071907;stroke-miterlimit:10;}
	.st82{fill:none;stroke:#071907;stroke-linecap:round;stroke-miterlimit:10;}
	.st83{opacity:0.7;fill:none;stroke:#FFFFFF;stroke-linecap:round;stroke-miterlimit:10;}
	.st84{opacity:0.7;fill:#FFFFFF;}
	.st85{fill:#B9CAB9;}
	.st86{fill:#F6E600;}
	.st87{fill:#8DCC50;}
	.st88{fill:#A2A121;}
	.st89{fill:#F9EFA7;}
	.st90{fill:#F6E600;stroke:#A2A121;stroke-width:3;stroke-miterlimit:10;}
	.st91{opacity:0.3;fill:none;stroke:#A2A121;stroke-linecap:round;stroke-linejoin:round;stroke-miterlimit:10;}
	.st92{fill:none;stroke:#A2A121;stroke-width:3;stroke-miterlimit:10;}
	.st93{fill:#8DCC50;stroke:#A2A121;stroke-miterlimit:10;}
	.st94{fill:#DCCF2F;}
	.st95{fill:#F22F2E;stroke:#7B000E;stroke-miterlimit:10;}
	.st96{fill:#F22F2E;stroke:#7B000E;stroke-linecap:round;stroke-miterlimit:10;}
	.st97{fill:#6EA336;stroke:#2A481D;stroke-linecap:round;stroke-linejoin:round;stroke-miterlimit:10;}
	.st98{fill:none;stroke:#2A481D;stroke-linecap:round;stroke-linejoin:round;stroke-miterlimit:10;}
</style>
<path class="st9" d="M398.5,220.7c-5.9-18.5-19.4-33.6-37-41.9c-35.3-16.6-73.4-1.5-111.6-1.4s-76.2-15.1-111.5,1.5l-0.2,0.1
	c-17.6,8.3-31.1,23.4-36.9,42c-5.8,18.5-7.8,41.2-4.8,68c7.9,70.6,47.7,145.5,90.4,156.8c18.5,23.9,40.1,39.5,63.1,39.5
	s44.6-15.6,63.1-39.5c42.6-11.3,82.5-86.3,90.4-156.8C406.5,262,404.4,239.2,398.5,220.7z"/>
<path class="st9" d="M155.5,367.4c-2.3-6.1-4.3-12.4-6.2-18.6"/>
<path class="st16" d="M155.5,371.4c-1.6,0-3.1-1-3.7-2.6c-2.3-6.1-4.4-12.5-6.3-18.8c-0.6-2.1,0.5-4.2,2.6-4.9
	c2.1-0.6,4.2,0.5,4.9,2.6c1.9,6.2,4,12.4,6.2,18.4c0.7,2-0.3,4.3-2.3,5C156.4,371.3,156,371.4,155.5,371.4z"/>
<path class="st16" d="M409.7,217.1L409.7,217.1c-6.8-21.4-22.5-39.2-43.1-48.9c-26.9-12.7-54.4-9.1-81-5.7
	c-11.8,1.5-23.9,3.1-35.6,3.1c0,0,0,0-0.1,0c-11.6,0-23.8-1.6-35.5-3.1c-26.5-3.4-54-6.9-81,5.8l-0.1,0.1
	c-20.7,9.7-36.4,27.6-43.1,49.1c-6.6,20.9-8.4,45.4-5.3,72.8c4,35.9,16.3,74.2,33.6,105.1c15.4,27.4,33.6,47,52.4,56.7
	c6.1,3.2,11.7,7.2,16.3,12.3C207,485.8,228.5,497,250,497c21.4,0,42.8-11.2,62.6-32.4c4.6-5,10.1-9.2,16.2-12.3
	c45-22.7,79.2-98.2,86.3-162C418.2,262.7,416.4,238.1,409.7,217.1z M391.8,287.7c-5.7,51.2-28.4,102.3-54.4,129
	c-4.2,4.3-11-0.8-8.1-6.1c2.3-4.2,4.5-8.5,6.6-12.9c6.6-13.7,12.4-28.5,17.3-43.9c9.6-30.3,14.9-61.1,14.9-86.6
	c0-16.7-3.7-30.6-11-41.5c-1-1.6-3-2.3-4.8-1.6c-2.4,1-3.1,3.8-1.8,5.8c6.5,9.7,9.7,21.9,9.7,37.2c0,24.8-5.2,54.7-14.5,84.3
	c-4.8,15.1-10.5,29.5-16.9,42.9c-22.8,47.4-51.5,74.5-78.9,74.5c-15.7,0-31.5-8.5-46.9-25.2c-14-15.2-27.1-36.8-38-62.4
	c-0.8-2-3.1-2.9-5.1-2.1c-2,0.8-2.9,3.1-2.1,5.1c4,9.4,8.2,18.2,12.6,26.3c2.8,5.2-4,10.3-8.1,6.1c-26-26.7-48.5-77.8-54.2-128.8
	c-2.7-24.2-1.2-45.4,4.4-63.2c4.8-15.2,16-28,30.8-34.9l0.1-0.1c10.7-5,21.9-6.7,33.7-6.7c11.1,0,22.5,1.5,34.3,3
	c12.5,1.6,25.4,3.3,38.5,3.3c0,0,0,0,0.1,0c13.1,0,26.1-1.7,38.6-3.3c24.3-3.1,47.2-6.1,68,3.6c14.7,6.9,26,19.6,30.8,34.8v0
	C393,242,394.5,263.4,391.8,287.7z"/>
<path class="st16" d="M154.9,221.7c-1.1,0-2.2-0.4-2.9-1.3c-1.4-1.6-1.3-4.1,0.3-5.5C175,194.7,214.4,192,250,192
	c23.9,0,54.4,1.2,77.2,10.5c2,0.8,3,3.1,2.1,5.1c-0.8,2-3.1,3-5.1,2.1c-21.6-8.8-51-9.9-74.3-9.9c-34.1,0-71.7,2.5-92.5,20.8
	C156.8,221.3,155.8,221.7,154.9,221.7z"/>
<path class="st76" d="M261.7,154.5c-3.4-40.3-12.8-75.8-28.2-105.8c-7.8-15.1-21.8-26.4-38.5-29.5c-17.8-3.3-35.5,2.2-48.3,14.9
	l-4.3,4.3c-4.7,4.7-4.7,12.3,0,17.1c4.7,4.7,12.3,4.7,17,0l3.4-3.4c6.3-6.3,15-10.2,23.9-9.6c10.6,0.7,19.6,6.5,24.5,15.7
	c13.6,25.9,22.3,56.6,25.9,91.6c1.7,16.8-8.8,32-24.6,38c-6.8,2.5-10.8,5.8-10.8,9.3c0,5.4,22.1,13.2,49.5,13.2
	c27.3,0,49.5-7.9,49.5-13.2c0-4.1-5.4-7.8-14.3-10.5C272.3,182.3,263,169.2,261.7,154.5z"/>
<path class="st18" d="M287.5,182.9c-6.4-2-11.8-6-15.7-11.4c-2-2.8-0.3-6.8,3.2-7.2c1.9-0.2,3.8-0.5,5.7-0.7
	c-1.9-3-3.1-6.6-3.5-10.4v0c-3.5-42.4-13.6-80-29.9-111.6c-10.2-19.7-28.7-33.8-49.5-37.7c-23-4.3-45.6,2.7-62.1,19.2l-4.3,4.3
	c-10.8,10.8-10.8,28.3,0,39.1c10.8,10.8,28.3,10.8,39.1,0l3.4-3.4c3.4-3.4,7.8-5.3,11.8-5.1c5.1,0.3,9.3,3,11.6,7.4
	c12.6,23.9,20.7,52.8,24.1,86c0.4,4.3-0.6,8.5-2.8,12.2c1.9,0.2,3.8,0.5,5.7,0.7c3.4,0.4,5.1,4.3,3.2,7.1
	c-3.9,5.6-9.6,10.1-16.5,12.7c-8.8,3.3-13.3,7.7-13.3,13c0,4.8,5.8,9,17.3,12.4c10.4,3.1,23.2,4.7,36.1,4.7
	c12.8,0,25.6-1.7,36.1-4.8c11.5-3.4,17.3-7.5,17.3-12.3C304.6,193,301.6,187.2,287.5,182.9z M259.3,189.1c0,2.2,1.9,4,4.1,3.9
	c2.1-0.1,3.7-2,3.7-4.1c0-0.6,0-1.2,0-1.8c0-3.2,3.6-5,6.1-3c3.5,2.8,7.6,4.9,12,6.3c3.2,1,5.6,2,7.3,2.9c2.5,1.3,2.4,4.9-0.2,6
	c-7.2,3.2-22.1,7.1-41.1,7.1c-19.4,0-34.2-3.8-41.3-7c-2.5-1.1-2.7-4.7-0.3-6c1.1-0.6,2.5-1.2,4.2-1.9c17.8-6.7,28.9-24,27.1-42
	c-3.7-35.6-12.5-66.9-26.3-93.1c-5.5-10.4-15.8-17-27.7-17.8c-9.6-0.6-19.4,3.3-26.9,10.7l-3.4,3.4c-3.2,3.2-8.4,3.2-11.5,0
	c-3.2-3.2-3.2-8.4,0-11.5l4.3-4.3c11.9-11.9,28.2-16.9,44.8-13.8c14.9,2.8,28.3,13,35.7,27.5c15.1,29.4,24.5,64.4,27.8,104.3
	C259.7,177.4,259.3,189.1,259.3,189.1z"/>
<path class="st13" d="M136.2,283.3c-2,0-3.8-1.6-3.9-3.7c-0.3-4.3-0.4-8.5-0.4-12.6c0-9.2,1.1-17.6,3.3-25c0.6-2.1,2.8-3.2,4.9-2.6
	c2.1,0.6,3.2,2.8,2.6,4.9c-2,6.7-3,14.3-3,22.7c0,3.9,0.1,7.9,0.4,12.1c0.1,2.2-1.5,4-3.7,4.1C136.3,283.3,136.2,283.3,136.2,283.3z
	"/>
<path class="st13" d="M185.3,322.8c-2,0-3.7-1.5-3.9-3.6c-1.6-18.6-2.2-36.7-1.7-52.3c0.1-2.2,1.9-3.9,4-3.8c2.2,0.1,3.8,1.9,3.8,4
	c-0.5,15.3,0,33.1,1.6,51.4c0.2,2.1-1.4,4-3.5,4.2C185.6,322.8,185.4,322.8,185.3,322.8z"/>
<circle class="st13" cx="137.3" cy="297" r="3.9"/>
<circle class="st16" cx="342.3" cy="214.9" r="3.9"/>
</svg>
