<?xml version="1.0" encoding="utf-8"?>
<!-- Generator: Adobe Illustrator 20.0.0, SVG Export Plug-In . SVG Version: 6.00 Build 0)  -->
<svg version="1.1" id="Layer_1" xmlns="http://www.w3.org/2000/svg" xmlns:xlink="http://www.w3.org/1999/xlink" x="0px" y="0px"
	 viewBox="0 0 1024 1024" style="enable-background:new 0 0 1024 1024;" xml:space="preserve">
<style type="text/css">
	.st0{fill:#F5E9D8;}
	.st1{fill:#54331D;}
	.st2{fill:#F2EAD7;}
	.st3{fill:#F7F3E7;}
	.st4{fill:#5C3A30;}
	.st5{fill:#EEEBDB;}
	.st6{fill:#E1C7B2;}
	.st7{opacity:0.5;fill:none;stroke:#D2A284;stroke-width:3;stroke-miterlimit:10;}
	.st8{fill:#F2CFAA;}
	.st9{fill:#EDB283;}
	.st10{fill:#DFC8B2;}
	.st11{opacity:0.5;fill:none;stroke:#B08269;stroke-width:3;stroke-miterlimit:10;}
	.st12{fill:#00FFFF;}
	.st13{opacity:0.9;fill:none;stroke:#DB7745;stroke-width:3;stroke-miterlimit:10;}
	.st14{opacity:0.5;fill:none;stroke:#DB7745;stroke-width:3;stroke-miterlimit:10;}
	.st15{opacity:0.3;fill:none;stroke:#DB7745;stroke-width:3;stroke-miterlimit:10;}
	.st16{opacity:0.7;fill:none;stroke:#DB7745;stroke-width:3;stroke-miterlimit:10;}
	.st17{fill:#F4E3B9;}
	.st18{fill:#EECA92;}
	.st19{fill:#D4AA76;}
	.st20{fill:#B68A56;}
	.st21{fill:#946541;}
	.st22{fill:#E2AC88;}
	.st23{fill:#B08269;}
	.st24{fill:none;stroke:#B98A71;stroke-width:3;stroke-miterlimit:10;}
	.st25{fill:none;stroke:#C39377;stroke-width:3;stroke-miterlimit:10;}
	.st26{fill:none;stroke:#CD9B7E;stroke-width:3;stroke-miterlimit:10;}
	.st27{fill:none;stroke:#D7A484;stroke-width:3;stroke-miterlimit:10;}
	.st28{fill:none;stroke:#7C5B4F;stroke-miterlimit:10;}
	.st29{fill:#7C5B4F;}
	.st30{fill:#C6A58F;}
	.st31{fill:#B98A71;}
	.st32{fill:#C39377;}
	.st33{fill:#CD9B7E;}
	.st34{fill:#D7A484;}
	.st35{fill:#FFEFDC;stroke:#5E3E27;stroke-miterlimit:10;}
	.st36{opacity:0.2;fill:none;stroke:#D0A672;stroke-width:3;stroke-miterlimit:10;}
	.st37{opacity:0.4;fill:none;stroke:#D0A672;stroke-width:3;stroke-miterlimit:10;}
	.st38{opacity:0.6;fill:none;stroke:#D0A672;stroke-width:3;stroke-miterlimit:10;}
	.st39{fill:#5E3E27;}
	.st40{fill:none;stroke:#5E3E27;stroke-miterlimit:10;}
	.st41{fill:#FFEFDC;}
	.st42{fill:#F5E0C8;}
	.st43{fill:#EBD2B4;}
	.st44{fill:#E2C39E;}
	.st45{opacity:0.6;fill:none;stroke:#DB7745;stroke-width:3;stroke-miterlimit:10;}
	.st46{fill:none;stroke:#863B2B;stroke-linecap:round;stroke-miterlimit:10;}
	.st47{fill:#863B2B;}
	.st48{fill:none;stroke:#863B2B;stroke-miterlimit:10;}
	.st49{fill:#DB7D51;}
	.st50{fill:#E29468;}
	.st51{fill:#E6A074;}
	.st52{fill:#DE895D;}
	.st53{fill:#E29A71;}
	.st54{fill:#D2A284;}
	.st55{opacity:0.7;fill:none;stroke:#E1C7B2;stroke-width:3;stroke-miterlimit:10;}
	.st56{opacity:0.9;fill:none;stroke:#CA9464;stroke-width:3;stroke-miterlimit:10;}
	.st57{opacity:0.6;fill:none;stroke:#CA9464;stroke-width:3;stroke-miterlimit:10;}
	.st58{opacity:0.3;fill:none;stroke:#CA9464;stroke-width:3;stroke-miterlimit:10;}
	.st59{fill:#5F362D;}
	.st60{fill:#D9B49D;}
	.st61{fill:#DCBCA5;}
	.st62{fill:#CA956A;}
	.st63{fill:#CC9A74;}
	.st64{fill:#CF9E7D;}
	.st65{clip-path:url(#SVGID_2_);}
	.st66{fill:#FFC841;}
	.st67{fill:#C56C00;}
	.st68{fill:#FFC841;stroke:#C56C00;stroke-linecap:round;stroke-linejoin:round;stroke-miterlimit:10;}
	.st69{fill:#FFC841;stroke:#C56C00;stroke-miterlimit:10;}
	.st70{fill:none;stroke:#FFE197;stroke-linecap:round;stroke-miterlimit:10;}
	.st71{fill:none;stroke:#C56C00;stroke-linecap:round;stroke-miterlimit:10;}
	.st72{fill:#F6DB90;}
	.st73{opacity:0.3;fill:none;stroke:#C56C00;stroke-width:3;stroke-linecap:round;stroke-linejoin:round;stroke-miterlimit:10;}
	.st74{fill:#FFE197;}
	.st75{fill:#ECAB3D;}
	.st76{opacity:0.5;}
	.st77{fill:none;stroke:#94734A;stroke-linecap:round;stroke-miterlimit:10;}
	.st78{fill:#B2895B;}
	.st79{opacity:0.7;fill:none;stroke:#745432;stroke-width:3;stroke-miterlimit:10;}
	.st80{fill:#3F2F21;}
	.st81{fill:none;stroke:#3F2F21;stroke-miterlimit:10;}
	.st82{fill:#745432;}
	.st83{fill:#94734A;}
	.st84{fill:#866441;}
	.st85{fill:#F7F3E7;stroke:#5C3A30;stroke-miterlimit:10;}
	.st86{fill:#978578;stroke:#5C3A30;stroke-miterlimit:10;}
	.st87{fill:none;stroke:#986A3D;stroke-width:3.1036;stroke-miterlimit:10;}
	.st88{fill:none;stroke:#AE8650;stroke-width:3;stroke-miterlimit:10;}
	.st89{fill:none;stroke:#E7C382;stroke-width:3;stroke-miterlimit:10;}
	.st90{fill:none;stroke:#F9E1B8;stroke-width:3;stroke-miterlimit:10;}
	.st91{fill:none;stroke:#665A52;stroke-miterlimit:10;}
	.st92{fill:none;stroke:#5C3A30;stroke-miterlimit:10;}
	.st93{opacity:0.8;fill:none;stroke:#F9E1B8;stroke-width:3;stroke-miterlimit:10;}
	.st94{opacity:0.6;fill:none;stroke:#F9E1B8;stroke-width:3;stroke-miterlimit:10;}
	.st95{opacity:0.4;fill:none;stroke:#F9E1B8;stroke-width:3;stroke-miterlimit:10;}
	.st96{opacity:0.2;fill:none;stroke:#F9E1B8;stroke-width:3;stroke-miterlimit:10;}
	.st97{fill:#978578;}
	.st98{fill:#7F7169;}
	.st99{fill:#EDC995;}
	.st100{fill:#EECFA3;}
	.st101{fill:#EFD6B0;}
	.st102{fill:#EFDCBD;}
	.st103{fill:#F1E4CA;}
	.st104{fill:#F8E0BA;}
	.st105{fill:#998276;stroke:#54331D;stroke-linecap:round;stroke-linejoin:round;stroke-miterlimit:10;}
	.st106{fill:#F5E9D8;stroke:#54331D;stroke-linecap:round;stroke-linejoin:round;stroke-miterlimit:10;}
	.st107{fill:none;stroke:#D9C2AB;stroke-linecap:round;stroke-linejoin:round;stroke-miterlimit:10;}
	.st108{fill:#C3A693;stroke:#54331D;stroke-linecap:round;stroke-linejoin:round;stroke-miterlimit:10;}
	.st109{fill:#C3A693;stroke:#54331D;stroke-linejoin:round;stroke-miterlimit:10;}
	.st110{fill:#AF9F88;stroke:#3F2F21;stroke-width:1.0635;stroke-linejoin:round;stroke-miterlimit:10;}
	.st111{fill:#C3A693;stroke:#54331D;stroke-width:1.0635;stroke-linejoin:round;stroke-miterlimit:10;}
	.st112{opacity:0.4;fill:none;stroke:#998276;stroke-width:3;stroke-linecap:round;stroke-linejoin:round;stroke-miterlimit:10;}
	.st113{fill:#998276;}
	.st114{fill:#D9C2AB;}
	.st115{fill:#CFC0B2;}
	.st116{fill:#BEA897;}
	.st117{fill:#C3A693;}
	.st118{fill:#998276;stroke:#54331D;stroke-width:15.94;stroke-linecap:round;stroke-linejoin:round;stroke-miterlimit:10;}
	.st119{fill:#F5E9D8;stroke:#54331D;stroke-width:15.94;stroke-linecap:round;stroke-linejoin:round;stroke-miterlimit:10;}
	.st120{fill:none;stroke:#D9C2AB;stroke-width:15.94;stroke-linecap:round;stroke-linejoin:round;stroke-miterlimit:10;}
	.st121{fill:#AF9F88;stroke:#3F2F21;stroke-width:16.9526;stroke-linejoin:round;stroke-miterlimit:10;}
	
		.st122{opacity:0.4;fill:none;stroke:#998276;stroke-width:47.82;stroke-linecap:round;stroke-linejoin:round;stroke-miterlimit:10;}
	.st123{fill:#C3A693;stroke:#54331D;stroke-width:15.94;stroke-linejoin:round;stroke-miterlimit:10;}
	.st124{fill:#C3A693;stroke:#54331D;stroke-width:15.94;stroke-linecap:round;stroke-linejoin:round;stroke-miterlimit:10;}
	.st125{fill:#C3A693;stroke:#54331D;stroke-width:16.9526;stroke-linejoin:round;stroke-miterlimit:10;}
	.st126{fill:#D4A38C;}
	.st127{fill:#C45923;}
	.st128{fill:#E5825C;}
	.st129{fill:#C8947C;}
	.st130{fill:#CC7953;}
	.st131{fill:#BE8667;}
	.st132{fill:#992B11;}
	.st133{fill:#EAE9E2;}
	.st134{fill:#414B67;}
	.st135{fill:#CCCBC6;}
	.st136{fill:#ADB2BA;}
	.st137{fill:#9BA0AA;}
	.st138{fill:#52607F;}
	.st139{fill:#14131B;}
	.st140{fill:#FBEEC6;}
	.st141{fill:#B68C28;}
	.st142{fill:#DEBB7D;}
	.st143{fill:#C8A97D;}
	.st144{fill:#BA946D;}
	.st145{fill:#F3D705;}
	.st146{fill:#7F4308;}
</style>
<polygon class="st126" points="370.9,945.2 576.9,984.4 764.8,894.5 769.7,817.7 661.9,773.6 689.7,718 763.2,675.5 864.5,634.7 
	834.8,574.1 756.4,521.5 960.8,430.2 884.4,326 893.3,259.5 985.6,186 859.6,78.8 590.6,34.1 356.3,54 214.4,140.3 204.5,203.9 
	80.4,266.4 43.7,346.8 163.8,425.2 233.2,515.5 300.7,545.3 165.7,654.5 177.7,706.1 302.7,758.7 "/>
<path class="st127" d="M752.9,270.7c98.7-9.9,169.1-22.8,196.5-46.6L932,201.2l-68-0.8l-63.2,26.9L751,259.8L752.9,270.7z"/>
<path class="st127" d="M291.4,202.1h49.1v-40.4H225.5c-1.1,2.9-1.7,5.9-1.8,8.9C223.2,183.8,248.4,193.4,291.4,202.1z"/>
<path class="st128" d="M750.8,219.1c0.2,0.4,0.4,0.8,0.6,1.2c1.5,2.4,4.1,3.7,6.7,3.7c1.5,0,2.9-0.4,4.3-1.2c2-1.3,4-2.5,6-3.7
	H750.8z"/>
<path class="st128" d="M730.7,235.4c-2.8-3.4-7.9-3.8-11.2-1c-18.5,15.6-34.9,33.1-48.7,52.1h9.1c3.4,0,6.6,0.6,9.5,1.8
	c11.8-15.1,25.3-29.1,40.4-41.7C733.1,243.8,733.5,238.8,730.7,235.4z"/>
<path class="st128" d="M705.3,207.6c-11.4,10.4-23,23-34.3,38.2c-2.6,3.5-1.9,8.5,1.7,11.1c1.4,1.1,3.1,1.6,4.7,1.6
	c2.4,0,4.9-1.1,6.4-3.2c12.2-16.5,24.9-29.6,36.8-39.9C714.5,214.6,709.2,211.7,705.3,207.6z"/>
<path class="st128" d="M639.6,286.5c11.6-31.1,26.2-57.3,43.4-78.2c-6-0.3-11.3-2.6-15.4-6.2c-18,22.9-33,51.2-44.9,84.5H639.6z"/>
<path class="st128" d="M636.3,205.8c-3.8,0-7.3-0.8-10.4-2.2c-0.4,0.9-0.8,1.7-1.2,2.6c-1.8,4-0.1,8.7,3.9,10.6
	c1.1,0.5,2.2,0.7,3.3,0.7c3,0,5.9-1.7,7.2-4.6c1.3-2.8,2.6-5.5,3.9-8C640.8,205.5,638.5,205.8,636.3,205.8z"/>
<path class="st128" d="M614.9,286.5c2.8-12,5.9-23.5,9.3-34.1c1.3-4.2-1-8.7-5.2-10c-4.2-1.3-8.7,1-10,5.2
	c-3.8,12.1-7.3,25.1-10.4,38.9H614.9z"/>
<path class="st128" d="M538.6,286.5c-2.2-37.1-6.2-66.4-10.3-88.4h-16.2c4.1,21.5,8.3,50.8,10.5,88.4H538.6z"/>
<path class="st128" d="M591.7,286.5c4.3-41.6,8.8-69.8,12.5-88.4H588c-3.8,19.4-8.1,47.8-12.3,88.4H591.7z"/>
<path class="st128" d="M556.1,198.1c0,1,0.1,2.1,0.1,3.2c0.1,4.3,3.7,7.7,8,7.7c0.1,0,0.2,0,0.3,0c4.4-0.2,7.8-3.8,7.7-8.2
	c0-0.9-0.1-1.8-0.1-2.6H556.1z"/>
<path class="st129" d="M657.1,161.6c-120.9-10.9-238.6-11.9-350.3-3.2c9.2,5.8,27.7,18.6,48,38.7h111.9c5.7,0,11,1.2,15.7,3.4
	c55.8,0.6,112.8,3.5,170.5,8.7c55.8,5,105.6,11.5,148,18c38-18.2,72.9-27.9,93.4-32.6C840.3,184.6,758.4,170.7,657.1,161.6z"/>
<path class="st127" d="M177.9,360.1c-11.8-6.8-23-14.8-35.3-20.7c-1.2-0.5-2.4-1.1-3.6-1.7c0,0,0,0-0.1,0c0,0,0,0,0,0
	c-0.9-0.4-1.8-0.9-2.6-1.4H61.8c0.1,1.6,0.2,3.1,0.5,4.7c6.2,37.6,59.8,50,143.3,53.9V377C196.5,371.1,187.2,365.5,177.9,360.1z"/>
<g>
	<path class="st130" d="M843.9,185.7c-10.5-1.8-21.6-3.6-33.3-5.4c-16.4,6.6-36.1,15.9-56.7,28.9c-3.7,2.3-4.8,7.2-2.5,10.9
		c4.2,0.6,8.4,1.1,12.5,1.7C796.3,201.5,826.8,190.7,843.9,185.7z"/>
	<path class="st130" d="M373.7,179.4c1.6,1.8,3.8,2.7,6,2.7c1.9,0,3.8-0.7,5.3-2c3.3-2.9,3.6-8,0.6-11.3
		c-4.9-5.5-9.5-10.2-13.8-14.4c-7.5,0.3-15,0.7-22.5,1.1C355.6,160.8,364.2,168.7,373.7,179.4z"/>
	<path class="st130" d="M754.9,172.4c-15,7.8-35.3,20.8-56.2,41.4c7.1,0.8,14.1,1.6,20.9,2.4c11.6-10.2,22.5-17.8,31.3-23.1
		c19-11.6,32.7-15.7,32.8-15.7c0.6-0.2,1.2-0.4,1.7-0.7C775.5,175.2,765.4,173.8,754.9,172.4z"/>
	<path class="st130" d="M433.4,174.6c-2.3-3.8-7.2-4.9-11-2.7c-3.8,2.3-4.9,7.2-2.7,11c2.6,4.2,5.3,8.9,8.1,14.2h17.9
		C441.5,188.5,437.3,181,433.4,174.6z"/>
	<path class="st130" d="M687.9,190.7c-3.3-2.9-8.3-2.7-11.3,0.6c-5.2,5.8-10.2,12.1-15,18.8c6.3,0.6,12.4,1.2,18.5,1.8
		c2.7-3.4,5.5-6.8,8.3-9.9C691.4,198.6,691.1,193.6,687.9,190.7z"/>
	<path class="st130" d="M449.6,152.6c2,3.1,6.5,10.9,12,23.3c1.3,3,4.2,4.8,7.3,4.8c1.1,0,2.1-0.2,3.2-0.7c4-1.8,5.9-6.5,4.1-10.5
		c-3.1-7-5.9-12.7-8.2-17C461.8,152.5,455.7,152.6,449.6,152.6z"/>
	<path class="st130" d="M653.5,161.3c-4.9,4.7-16.2,17.5-28.8,45c-0.1,0.2-0.2,0.4-0.3,0.6c5.6,0.4,11.3,0.9,16.9,1.4
		c13.3-27.4,24.3-36.5,24.3-36.5c2.8-2.2,3.8-5.9,2.6-9.1c-3.7-0.3-7.4-0.7-11.1-1C655.9,161.5,654.7,161.4,653.5,161.3z"/>
	<path class="st130" d="M523,172.8c-1-4.3-5.4-6.9-9.6-5.8c-4.3,1-6.9,5.4-5.8,9.6c1.7,6.7,3.4,14.9,5.2,24.5
		c5.4,0.1,10.8,0.3,16.3,0.5C527,190.1,524.9,180.6,523,172.8z"/>
	<path class="st130" d="M597.7,160.3c-0.3,0.7-4.9,11.5-10.9,44c5.3,0.3,10.7,0.7,16,1c5.3-28.7,9.3-38.4,9.4-38.6
		c1.4-3.1,0.6-6.6-1.7-8.9c-3.5-0.2-7-0.5-10.5-0.7C599.1,158,598.3,159,597.7,160.3z"/>
	<path class="st130" d="M556.2,201.3c0,0.5,0.1,0.9,0.2,1.3c5.1,0.2,10.3,0.5,15.4,0.8c0.3-0.8,0.4-1.7,0.4-2.6
		c-0.8-22.9-1.8-37.8-2.5-45.4c-5.4-0.3-10.7-0.5-16.1-0.8C554.2,161.1,555.3,176.5,556.2,201.3z"/>
</g>
<path class="st127" d="M541.4,284.9c16.2-8.7,24.8-17.5,23.2-27.2c-0.2-1.2-0.5-2.3-0.7-3.4h-69.7c-0.7,0-1.3,0-2-0.1v30.7H541.4z"
	/>
<path class="st128" d="M263.2,410c-2.6,0-5.2-1.3-6.7-3.7c-12-19.1-25.4-35.9-39.7-50.1c-3.1-3.1-3.1-8.1-0.1-11.3
	c3.1-3.1,8.1-3.1,11.3-0.1c15.2,15,29.3,32.9,42,53c2.3,3.7,1.2,8.6-2.5,11C266.1,409.6,264.7,410,263.2,410z"/>
<path class="st128" d="M407.7,322.6c-0.3,0-0.7,0-1-0.1c-4.4-0.6-7.5-4.5-6.9-8.9c3.2-24.7,8.5-46.6,16.3-67
	c1.6-4.1,6.2-6.2,10.3-4.6c4.1,1.6,6.2,6.2,4.6,10.3c-7.3,19.2-12.4,39.9-15.3,63.3C415.1,319.7,411.6,322.6,407.7,322.6z"/>
<path class="st128" d="M404.4,380.8c-4.4,0-7.9-3.5-8-7.9c-0.1-11.3,0.2-22.3,0.8-32.6c0.3-4.4,4-7.7,8.4-7.5c4.4,0.3,7.7,4,7.5,8.4
	c-0.6,9.9-0.9,20.6-0.8,31.6C412.4,377.2,408.9,380.8,404.4,380.8C404.4,380.8,404.4,380.8,404.4,380.8z"/>
<path class="st128" d="M270.4,373.4c-2.7,0-5.4-1.4-6.9-3.9c-19.7-33.5-41.6-55.9-67-68.3c-4-1.9-5.6-6.7-3.6-10.7
	c1.9-4,6.7-5.6,10.7-3.6c28.3,13.9,52.4,38.2,73.7,74.6c2.2,3.8,1,8.7-2.8,10.9C273.1,373,271.7,373.4,270.4,373.4z"/>
<path class="st128" d="M379.7,392.7c-4.1,0-7.5-3.1-7.9-7.2c-3.5-37.4-4.5-67.9-3.3-95.8c0.2-4.4,3.9-7.8,8.3-7.6
	c4.4,0.2,7.8,3.9,7.6,8.3c-1.2,27.2-0.2,57,3.3,93.6c0.4,4.4-2.8,8.3-7.2,8.7C380.2,392.7,380,392.7,379.7,392.7z"/>
<path class="st128" d="M305.1,398c-3.4,0-6.6-2.3-7.6-5.7c-7.7-26.4-18-56.9-35.7-82.9c-2.5-3.6-1.5-8.6,2.1-11.1
	c3.6-2.5,8.6-1.5,11.1,2.1c18.9,27.9,29.8,59.8,37.9,87.4c1.2,4.2-1.2,8.7-5.4,9.9C306.6,397.9,305.8,398,305.1,398z"/>
<path class="st128" d="M340.7,321.1c-4,0-7.5-3-7.9-7.1c-1.9-17.7-3.4-34.1-4.5-50.1c-0.3-4.4,3-8.2,7.4-8.5c4.4-0.3,8.2,3,8.5,7.4
	c1.1,15.8,2.5,32,4.4,49.5c0.5,4.4-2.7,8.3-7.1,8.8C341.3,321.1,341,321.1,340.7,321.1z"/>
<path class="st128" d="M350.3,396.1c-3.9,0-7.3-2.9-7.9-6.8c-2.3-16.1-4.2-30.4-5.9-43.7c-0.5-4.4,2.5-8.4,6.9-8.9
	c4.4-0.5,8.4,2.5,8.9,6.9c1.7,13.2,3.6,27.4,5.8,43.4c0.6,4.4-2.4,8.4-6.8,9C351,396.1,350.6,396.1,350.3,396.1z"/>
<path class="st128" d="M323.9,390.5c-3.7,0-7-2.6-7.8-6.4c-5.9-29.2-14.5-67.3-28.4-103.1c-1.6-4.1,0.5-8.7,4.6-10.3
	c4.1-1.6,8.7,0.5,10.3,4.6c14.3,37,23.1,75.9,29.1,105.7c0.9,4.3-1.9,8.5-6.2,9.4C325,390.5,324.4,390.5,323.9,390.5z"/>
<path class="st129" d="M261.6,281c-66.3,15.9-119.4,35-155.4,48.8c14.2,2.9,40.2,9.9,69.8,25.6c27.6-9.3,60.1-19.1,96.8-27.9
	c68.5-16.4,136.3-25.6,202.1-27.4c12.1-24.6,24.4-40.8,30.7-48.1C426.4,251.4,344.4,261.1,261.6,281z"/>
<path class="st130" d="M451.7,253.2c-5.8,11.5-10.9,23.7-15,36.6c-1.3,4.2,1,8.7,5.1,10c0.8,0.3,1.6,0.4,2.4,0.4
	c3.4,0,6.5-2.2,7.6-5.5c4.9-15.2,11-29.3,18.3-42.2C464,252.6,457.9,252.8,451.7,253.2z"/>
<path class="st130" d="M201,341.9c1.5,1.2,3.3,1.8,5,1.8c2.3,0,4.6-1,6.2-2.9c2.8-3.4,2.3-8.4-1.1-11.2
	c-11.8-9.6-24.1-17.6-36.8-23.9c-7.9,2.6-15.4,5.1-22.6,7.6C168.7,319.5,185.3,329.1,201,341.9z"/>
<path class="st130" d="M401,305.1c5.5-0.6,10.9-1.1,16.4-1.6c2.9-17.7,7.1-33.8,12.8-49c-5.8,0.4-11.6,0.9-17.4,1.4
	C407.5,271.2,403.6,287.5,401,305.1z"/>
<path class="st130" d="M215.1,293.2c-7.2,2-14.2,4.1-20.9,6.2c0.6,0.7,1.4,1.3,2.3,1.7c15.7,7.7,30.1,19.2,43.4,34.8
	c5.5-1.5,11.2-3,17-4.5C244.1,315.2,230.2,302.5,215.1,293.2z"/>
<path class="st130" d="M376.8,282c-4.4-0.2-8.1,3.2-8.3,7.6c-0.3,6.4-0.4,12.9-0.5,19.6c5.3-0.8,10.6-1.5,16-2.1
	c0.1-5.7,0.2-11.3,0.4-16.8C384.6,285.9,381.2,282.2,376.8,282z"/>
<path class="st130" d="M274.9,300.4c-2.5-3.6-7.4-4.6-11.1-2.1c-3.6,2.5-4.6,7.4-2.1,11.1c4,5.9,7.6,12,10.9,18.2c0.1,0,0.1,0,0.2,0
	c5.3-1.3,10.6-2.5,15.9-3.7C284.6,315.8,280,307.9,274.9,300.4z"/>
<path class="st130" d="M344.4,264.5c-5.3,0.8-10.5,1.7-15.8,2.6c1.1,15,2.5,30.3,4.2,46.9c0,0.3,0.1,0.6,0.2,0.9
	c5.2-0.9,10.5-1.8,15.7-2.7C346.8,295.3,345.4,279.7,344.4,264.5z"/>
<path class="st130" d="M287.8,281c5.1,13.3,9.5,26.8,13.3,40.1c5.2-1.1,10.5-2.2,15.7-3.2c-4-14.1-8.7-28.5-14.1-42.7
	c-0.4-1.1-1.1-2.1-2-2.9c-4.3,0.9-8.5,1.8-12.8,2.7C287.1,276.9,287,279,287.8,281z"/>
<path class="st127" d="M924.3,434.4c-14.1,0-25.7-7.5-32.4-18.5c-4.7,2-9.7,3.2-14.8,3.2c-3.5,0-6.8-0.5-10-1.3
	c-7.3,7.9-17.8,13-28.6,13c-1.4,0-2.7-0.1-4-0.2c-6.2,8.9-16.1,15.3-26.9,17c-5.7,9.5-15.7,16.5-26.5,18.7c0.5,2.3,0.8,4.6,0.9,7
	c0.2,3.4-0.2,6.7-1.1,9.8c85.1-2.6,141-13.5,150.6-49.3C929.1,434.1,926.7,434.4,924.3,434.4z"/>
<path class="st127" d="M496,337.1c0-0.6,0-1.3,0-1.9c-21.9,3.4-43.4,8.2-65.3,11.3c1.5,12.1,19.2,23.1,47.7,34.7
	c5.2-2.6,11-4.1,16.9-4.1c4.1,0,8,0.6,11.6,1.8c0.7-4.1,2.1-8,4.1-11.6C502.2,360.2,496.6,349.2,496,337.1z"/>
<path class="st128" d="M542,384.9c9.2,30.3,17.3,74.6,14.5,132.9c-0.2,4.4,3.2,8.1,7.6,8.3c0.1,0,0.3,0,0.4,0c4.2,0,7.7-3.3,8-7.6
	c2.8-57.6-4.7-102.1-13.7-133.6H542z"/>
<path class="st128" d="M694.7,541c-1.2,0-2.3-0.3-3.4-0.8c-4-1.9-5.6-6.7-3.7-10.6c9.2-19.3,20-37.4,31.9-53.9
	c2.6-3.6,7.6-4.4,11.1-1.8c3.6,2.6,4.4,7.6,1.8,11.1c-11.4,15.8-21.6,33.1-30.4,51.5C700.5,539.4,697.6,541,694.7,541z"/>
<path class="st128" d="M769.3,423.7c-0.5,0-1.1,0-1.6,0c-8.2,6.7-16.3,14.2-24,22.4c-3,3.2-2.9,8.2,0.3,11.3
	c1.5,1.4,3.5,2.2,5.5,2.2c2.1,0,4.2-0.8,5.8-2.5c12.6-13.4,25.8-24.5,39.5-33.3H769.3z"/>
<path class="st128" d="M577.5,384.9c5.3,30.5,8.9,75.5,3.6,136.5c-0.4,4.4,2.9,8.3,7.2,8.6c0.2,0,0.5,0,0.7,0c4.1,0,7.6-3.1,7.9-7.3
	c5.3-60.7,1.9-106.3-3.3-137.9H577.5z"/>
<path class="st128" d="M725.4,412.3c-17.1,20.5-32.2,47.3-45.5,80.8c-1.6,4.1,0.4,8.7,4.4,10.4c1,0.4,2,0.6,3,0.6
	c3.2,0,6.2-1.9,7.4-5c13.5-33.9,28.7-60.4,45.9-80C735.3,417.2,730.3,414.9,725.4,412.3z"/>
<path class="st114" d="M621.7,385.9c-4.2,0-7.7-3.2-7.9-7.4c-1.5-20.9-3.7-31.3-3.7-31.4c-1-4.3,1.7-8.6,6-9.5c4.3-1,8.5,1.7,9.5,6
	c0.1,0.5,2.5,11.5,4.1,33.8c0.3,4.4-3,8.2-7.4,8.5C622,385.9,621.9,385.9,621.7,385.9z"/>
<path class="st128" d="M615.8,533.1c-0.3,0-0.6,0-1-0.1c-4.4-0.5-7.5-4.5-7-8.9c5.1-42,7.4-80.9,7-115.3c-0.1-4.4,3.5-8,7.9-8.1
	c0,0,0.1,0,0.1,0c4.4,0,7.9,3.5,8,7.9c0.4,35.2-2,74.7-7.1,117.4C623.2,530.1,619.8,533.1,615.8,533.1z"/>
<path class="st128" d="M647.4,384.9c-1.6,20.7-4.6,51.7-10.2,93.7c-0.6,4.4,2.5,8.4,6.8,9c0.4,0,0.7,0.1,1.1,0.1
	c3.9,0,7.4-2.9,7.9-6.9c5.8-43.4,8.8-74.9,10.4-95.8H647.4z"/>
<path class="st128" d="M695.9,403.8c-5.7,0-10.8-1.8-15-4.8c-12.9,40.7-22.3,82.8-31.4,123.7l-1,4.3c-1,4.3,1.8,8.6,6,9.5
	c0.6,0.1,1.2,0.2,1.7,0.2c3.7,0,6.9-2.5,7.8-6.2l1-4.3c9-40.5,18.3-82.3,31.1-122.3C696,403.8,695.9,403.8,695.9,403.8z"/>
<path class="st129" d="M818.3,443.6c29.4-15.3,55.2-22.1,69.6-25c-35.8-14.2-89.7-34.2-157.2-51.1c-81.9-20.4-163-30.9-241.5-31.1
	c5.9,6.9,18.4,23.2,30.6,48.5c65,2.5,131.9,12.2,199.3,29C756.9,423.3,790.2,433.8,818.3,443.6z"/>
<path class="st130" d="M819.5,393.5c-19.1,7.2-37.5,18.2-54.9,32.8c6.3,1.9,12.5,3.7,18.5,5.6c17.9-13.6,36.8-23,56.4-28.1
	c1.5-0.4,2.7-1.2,3.7-2.2C835.6,399,827.8,396.2,819.5,393.5z"/>
<path class="st130" d="M540.6,338c-6.3-0.4-12.6-0.7-18.8-0.9c2.6,4.1,12.1,20.5,20.6,48.9c5.7,0.4,11.4,0.8,17.1,1.2
	C553,364.3,545.7,347.9,540.6,338z"/>
<path class="st130" d="M589.3,362.8c-1-4.3-5.3-6.9-9.6-5.9c-4.3,1-6.9,5.3-5.9,9.6c1.5,6.5,3.1,14,4.4,22.5
	c5.5,0.6,10.9,1.2,16.4,1.8C593,380,591.1,370.7,589.3,362.8z"/>
<path class="st130" d="M723.2,415c5.8,1.5,11.5,3,17,4.5c11.5-13.2,24-23.2,37.4-30.2c2.9-1.5,4.5-4.5,4.3-7.6
	c-5-1.5-10.2-3-15.4-4.5C750.7,386,736.3,398.6,723.2,415z"/>
<path class="st130" d="M610,347c0,0.1,2.3,10.5,3.7,31.4c0.3,4.2,3.8,7.4,7.9,7.4c0.2,0,0.4,0,0.6,0c4.4-0.3,7.7-4.1,7.4-8.5
	c-1.1-15.7-2.6-25.8-3.5-30.6c-5.5-0.8-10.9-1.6-16.3-2.3C609.7,345.4,609.8,346.2,610,347z"/>
<path class="st130" d="M662,401.4c2.7-30.5,3-45.9,3.1-48.1c-5.2-1-10.4-1.9-15.6-2.8c-0.2,0.7-0.4,1.5-0.4,2.4
	c0,0.2-0.2,15-2.9,45.6C651.5,399.4,656.7,400.4,662,401.4z"/>
<path class="st130" d="M693,387.3c-4.2-1.4-8.7,0.9-10.1,5.1c-1.4,4.1-2.7,8.2-3.9,12.4c5.2,1.1,10.4,2.2,15.6,3.4
	c1.1-3.6,2.3-7.2,3.4-10.8C699.5,393.2,697.2,388.7,693,387.3z"/>
<path class="st127" d="M258.3,481.7c-0.1-2.3,0.1-4.5,0.4-6.7c-2.8,0.7-5.6,1.1-8.5,1.1c-11.1,0-20.7-4.7-27.5-12
	c-6.2,4.1-13.5,6.5-20.9,6.5c-1.8,0-3.6-0.1-5.4-0.4c2.3,22.3,25.6,25,64.3,23.8C259.3,490.1,258.4,486,258.3,481.7z"/>
<path class="st127" d="M608.6,433.8c-7.3,9.2-18.8,15.3-30.6,15.3c-2.8,0-5.5-0.3-8.1-0.9c0.2,10.5-4.7,20.2-12.3,27.1
	c40.1-5.8,65.2-11.9,64.9-21.9C622.4,446.4,617.4,439.8,608.6,433.8z"/>
<path class="st128" d="M501,475.3c-0.8,3.4,0.7,7.1,3.9,8.9c1.2,0.7,2.5,1,3.8,1c2.8,0,5.5-1.5,7-4.1c1.1-2,2.2-3.9,3.3-5.7H501z"/>
<path class="st128" d="M489.2,544.6c-0.3,0-0.7,0-1-0.1c-4.4-0.6-7.4-4.6-6.9-8.9c1.7-13.1,5-26.2,9.7-38.7
	c1.6-4.1,6.2-6.2,10.3-4.6c4.1,1.6,6.2,6.1,4.7,10.3c-4.3,11.4-7.2,23.2-8.8,35.1C496.5,541.7,493.1,544.6,489.2,544.6z"/>
<path class="st128" d="M336.7,475.3H312c0.6,1.4,1.5,2.6,2.9,3.5c20,13.7,47.2,38.6,63.7,79.6c1.3,3.1,4.2,5,7.4,5c1,0,2-0.2,3-0.6
	c4.1-1.6,6.1-6.3,4.4-10.4C378.7,516.1,356.3,491.3,336.7,475.3z"/>
<path class="st128" d="M462.6,475.3c-4.4,19-7.1,39.2-8,60.4c-0.2,4.4,3.2,8.1,7.6,8.3c0.1,0,0.2,0,0.3,0c4.2,0,7.8-3.4,8-7.6
	c0.9-21.5,3.7-42,8.4-61H462.6z"/>
<path class="st128" d="M408,557.1c-3.8,0.4-7.5-2-8.6-5.8c-3.8-14.2-8.3-27.3-13.2-39.2c-1.7-4.1,0.2-8.7,4.3-10.4
	c4.1-1.7,8.7,0.2,10.4,4.3c5.2,12.5,9.9,26.3,13.9,41.2c1.1,4.2-1.4,8.6-5.6,9.8C408.8,557,408.4,557.1,408,557.1z"/>
<path class="st128" d="M387.8,475.3h-17.6c1.9,3.8,3.8,8,5.7,12.7c1.3,3.1,4.2,5,7.4,5c1,0,2-0.2,3-0.6c4.1-1.6,6.1-6.3,4.4-10.4
	C389.8,479.7,388.8,477.5,387.8,475.3z"/>
<path class="st128" d="M446.5,475.3h-16c-1,16.8-1.7,37.7-1.6,62.6c0,4.4,3.6,7.9,8,7.9c0,0,0,0,0,0c4.4,0,8-3.6,7.9-8
	C444.8,513,445.5,492,446.5,475.3z"/>
<path class="st128" d="M418.1,475.3h-16.2c1.4,8.9,2.9,19.6,4.2,32.6c0.4,4.1,3.9,7.1,7.9,7.1c0.3,0,0.6,0,0.8,0
	c4.4-0.5,7.6-4.4,7.1-8.8C420.8,494.3,419.4,484,418.1,475.3z"/>
<path class="st127" d="M845.4,622.5c-5,2.4-10.6,3.8-16.1,3.8c-9.4,0-17.8-3.4-24.3-8.9c-6.4,8.2-16,14.1-26.4,15.4
	c-6.4,6.6-15,11.2-24.1,12.2c-1.4,4.9-3.8,9.5-7.1,13.4c60.7,2.6,97.5,0.5,98.8-30.8C846.2,625.9,846,624.2,845.4,622.5z"/>
<path class="st128" d="M691,616c-26,16.7-46.7,40.9-62,72.5c-1.9,4-0.3,8.7,3.7,10.6c1.1,0.5,2.3,0.8,3.5,0.8c3,0,5.8-1.7,7.2-4.5
	c18.8-38.9,46.7-65.6,83-79.4H691z"/>
<path class="st128" d="M606.8,825.1c-0.2,0-0.4,0-0.5,0c-4.4-0.3-7.7-4.1-7.4-8.5c1.9-28.5,6-54.8,12.1-78.2
	c1.1-4.3,5.5-6.8,9.7-5.7c4.3,1.1,6.8,5.5,5.7,9.7c-5.9,22.4-9.8,47.8-11.6,75.3C614.5,821.9,611,825.1,606.8,825.1z"/>
<path class="st128" d="M506.1,826.1c-0.3,0-0.7,0-1-0.1c-4.4-0.6-7.5-4.5-6.9-8.9c8.7-68.8,14.4-135-11.9-189.7
	c-1.9-4-0.2-8.7,3.7-10.6c4-1.9,8.7-0.2,10.6,3.7c28.2,58.7,22.4,127.4,13.3,198.7C513.5,823.1,510,826.1,506.1,826.1z"/>
<path class="st128" d="M615.5,616c-0.4,0.5-0.8,1-1.1,1.5c-27.9,50-32.4,120.9-35.7,172.7c-0.4,6.4-0.8,12.5-1.2,18.3
	c-0.3,4.4,3,8.2,7.4,8.5c0.2,0,0.4,0,0.6,0c4.1,0,7.6-3.2,7.9-7.4c0.4-5.9,0.8-12,1.2-18.4c3.2-50.3,7.5-119.1,33.7-166
	c1.7-3.1,1.2-6.8-1.1-9.3H615.5z"/>
<path class="st128" d="M532.7,814.4c-0.3,0-0.5,0-0.8,0c-4.4-0.5-7.6-4.4-7.1-8.7c0.8-7.5,1.6-15.2,2.4-22.7
	c2.6-23.9,5.3-48.7,6.6-73.3c0.2-4.4,4-7.8,8.4-7.5c4.4,0.2,7.8,4,7.5,8.4c-1.3,25.1-4,50.1-6.7,74.2c-0.8,7.5-1.7,15.2-2.4,22.6
	C540.2,811.3,536.8,814.4,532.7,814.4z"/>
<path class="st128" d="M545.1,616h-16.2c1.9,9.7,3.4,19.9,4.3,30.6c0.4,4.1,3.8,7.3,7.9,7.3c0.2,0,0.5,0,0.7,0
	c4.4-0.4,7.6-4.3,7.2-8.6C548.2,635,546.9,625.3,545.1,616z"/>
<path class="st128" d="M564.9,616c0.6,45.1-3.1,90-6.8,130.3c-0.4,4.4,2.8,8.3,7.2,8.7c0.3,0,0.5,0,0.7,0c4.1,0,7.5-3.1,7.9-7.2
	c3.8-40.7,7.5-86,6.9-131.8H564.9z"/>
<path class="st128" d="M418.6,871.3c-2.5,0-5-1.2-6.6-3.5c-24.9-36.5-30.6-80.9-31-111.8c-0.1-4.4,3.5-8,7.9-8.1c0,0,0.1,0,0.1,0
	c4.4,0,7.9,3.5,8,7.9c0.4,28.7,5.5,69.8,28.2,103c2.5,3.6,1.5,8.6-2.1,11.1C421.7,870.8,420.1,871.3,418.6,871.3z"/>
<path class="st128" d="M472.4,921c-20.3,0-38.9-4.1-54.7-12.1c-19.8-10.1-33.9-25.6-39.7-43.8c-1.3-4.2,1-8.7,5.1-10
	c4.2-1.4,8.7,1,10,5.1c8.7,26.9,44.4,51.9,102.2,43c4.4-0.7,8.4,2.3,9.1,6.7c0.7,4.4-2.3,8.4-6.7,9.1
	C489.1,920.3,480.6,921,472.4,921z"/>
<path class="st128" d="M372.8,822.8c-3.5,0-6.7-2.3-7.7-5.9c-13.8-50.6-29.4-81.3-30.8-84c-9.7-15.7-20.4-29.6-32-41.3
	c-3.1-3.1-3.1-8.2,0.1-11.3c3.1-3.1,8.2-3.1,11.3,0.1c12.5,12.6,24,27.6,34.4,44.4c0.1,0.1,0.2,0.3,0.2,0.4
	c0.7,1.3,17.3,32.8,32.2,87.5c1.2,4.2-1.3,8.6-5.6,9.8C374.2,822.7,373.5,822.8,372.8,822.8z"/>
<path class="st128" d="M462.9,886.4c-1.6,0-3.3-0.5-4.7-1.5c-22.8-16.6-38.5-40.7-46.6-71.7c-1.1-4.3,1.4-8.6,5.7-9.7
	c4.3-1.1,8.6,1.4,9.7,5.7c7.2,27.3,20.8,48.4,40.6,62.8c3.6,2.6,4.4,7.6,1.8,11.1C467.8,885.3,465.4,886.4,462.9,886.4z"/>
<path class="st127" d="M762.1,856.9c4,3.9,6.1,8,6.1,12.4c-0.1,25.1-35.4,30.6-83.6,33.7C684.5,902.9,697.2,877.2,762.1,856.9z"/>
<path class="st129" d="M605,829.8c-10.1-0.6-20.2-1-30.1-1.2L426.6,855c0,0,22.2,9.7,44.9,28.1c46-6.9,94.2-8.5,143.9-4.6
	c29.3,2.3,55.1,6.1,76.6,10.1c32.9-17.1,63.7-22.8,63.7-22.8L605,829.8z"/>
<path class="st128" d="M601.4,947.9c-1.4,0-2.8-0.4-4.1-1.1c-3.8-2.2-5-7.1-2.8-10.9c1.4-2.4,2.8-5.2,3.9-8.2
	c8.7-23.2,22.6-42.9,41.3-58.4c3.4-2.8,8.4-2.4,11.2,1c2.8,3.4,2.3,8.4-1,11.2c-16.5,13.7-28.8,31.1-36.5,51.7
	c-1.5,3.9-3.2,7.5-5.1,10.7C606.8,946.5,604.2,947.9,601.4,947.9z"/>
<path class="st128" d="M538.5,935.2c-3.1,0-6.1-1.9-7.4-5c-2.5-6.2-4.9-12.7-6-16.3c-7.1-23.6-18-39.3-25.8-48.3
	c-8.5-9.8-15.4-14-15.5-14.1c-3.8-2.3-5-7.2-2.7-10.9c2.3-3.8,7.1-5,10.9-2.8c1.3,0.8,32.9,20,48.4,71.5c0.8,2.6,2.8,8.3,5.5,14.9
	c1.7,4.1-0.3,8.7-4.4,10.4C540.5,935,539.5,935.2,538.5,935.2z"/>
<path class="st128" d="M585.7,929.7c-0.3,0-0.7,0-1.1-0.1c-4.4-0.6-7.4-4.6-6.9-8.9c8-60.3,26.1-78.4,28.1-80.2l10.8,11.8l0.1-0.1
	c-0.2,0.2-16,16.2-23.1,70.7C593,926.8,589.6,929.7,585.7,929.7z"/>
<path class="st128" d="M559.7,905.9c-3.9,0-7.3-2.8-7.9-6.7c-5.3-33.7-13.7-52.1-13.8-52.3c-1.8-4-0.1-8.7,3.9-10.6
	c4-1.9,8.7-0.1,10.6,3.8c0.4,0.8,9.4,20.4,15.1,56.6c0.7,4.3-2.3,8.4-6.6,9.1C560.5,905.9,560.1,905.9,559.7,905.9z"/>
<path class="st130" d="M639.7,869.3c-3.9,3.3-7.6,6.7-11.1,10.3c7.2,0.7,14.1,1.5,20.8,2.3c0.2-0.1,0.3-0.3,0.5-0.4
	c3.4-2.8,3.8-7.8,1-11.2C648.2,866.9,643.1,866.5,639.7,869.3z"/>
<path class="st130" d="M483.8,851.5c0.1,0,7,4.3,15.5,14.1c3,3.4,6.3,7.7,9.8,13.1c5.9-0.5,11.9-0.9,17.9-1.3
	c-10.3-18.4-21.9-29.6-28.8-35.1l-18.1,3.2C480.3,847.9,481.6,850.2,483.8,851.5z"/>
<path class="st129" d="M484.3,685.8c17.2-19.1,32.6-29.3,32.6-29.3l-88.2-29.7c-48.2-5.6-95.4-3.6-141.3,6.1l-94.7,42.6
	c0,0,26.4,4.2,56.6,17.7C323.7,667.1,402.5,664.6,484.3,685.8z"/>
<path class="st130" d="M587,876.8c5.5,0.2,11,0.5,16.6,0.8c6.5-18.9,13-25.4,13.1-25.5l-0.1,0.1l-10.8-11.8
	C604.4,841.7,595.2,850.9,587,876.8z"/>
<path class="st130" d="M563.7,876.4c-5.2-23.2-10.9-35.7-11.2-36.3c-1.9-4-6.6-5.7-10.6-3.8c-4,1.9-5.7,6.6-3.9,10.6
	c0.1,0.1,4.8,10.5,9.4,29.7C552.8,876.5,558.3,876.4,563.7,876.4z"/>
<path class="st128" d="M565.9,952.2c-3.3,0-6.4-2.1-7.5-5.4c-2-5.9-2.9-13.7-3.3-19.2c-0.3-4.4,3-8.2,7.4-8.5c4.4-0.3,8.2,3,8.5,7.4
	c0.5,6.3,1.4,11.9,2.5,15.1c1.4,4.2-0.8,8.7-4.9,10.1C567.6,952,566.8,952.2,565.9,952.2z"/>
<path class="st129" d="M599.2,445.3c-5.5-1.1-10.7-2-15.5-2.8c-67.6-11.1-139.2-12.9-212.5-5.3c-61,6.3-109.9,17.7-141.4,25.6
	c-4.2,1.1-8.1,2.2-11.8,3.6c13.8,2.9,47.8,11.3,81.5,29.8c22.4-4.3,48.1-8.4,76.5-11.4c57.5-6,113.7-5.8,167.5,0.4
	C565.1,464.6,588.4,451,599.2,445.3z"/>
<path class="st129" d="M811.4,622c-35-10-89.4-24.5-157.5-34.7c-81.9-12.3-162.3-15.2-238.7-8.6c-6.5,0.6-13.6,1.2-21,2.2
	c11.4,7.4,32.2,22.5,51.2,43.6c64.8-3.7,132.5-0.3,201.4,10.1c32.9,5,62.5,10.9,88,16.9c36.3-17.2,72.1-23.9,87-26.1
	C818.4,624.1,815,623,811.4,622z"/>
<path class="st131" d="M412.4,865.3c0.1-40.7,79.9-73.4,178.2-73.2s178,33.3,177.9,73.9c0,5.1-1.3,10-3.6,14.8
	c0,0-1.8-11.1-28.5-17.2c-50.7-11.5-161.9-33.3-287.6-9.3C436.7,856.7,424.1,859.2,412.4,865.3z"/>
<path class="st131" d="M223.7,170.6c2.2-54.8,170.5-122.2,374.4-113.9s366.2,89.2,364,143.8c-0.3,6.8-3.1,13.4-8.3,19.6
	c0,0-3.1-15.1-58.3-25.5c-104.6-19.5-334-57.9-595.9-35.8C274.6,161,248.3,163.3,223.7,170.6z"/>
<path class="st130" d="M684.3,640.9c17.6-15.1,38.5-25.5,62.4-31.1c2.1-0.5,3.8-1.8,4.9-3.5c-8.8-2.1-18.1-4.2-27.9-6.3
	c-22.7,8.1-42.4,20.6-59.2,37.4C671.3,638.5,677.9,639.7,684.3,640.9z"/>
<path class="st130" d="M549.2,437.7c-6.7-0.8-13.5-1.5-20.3-2.1c-8.4,9.1-18.3,21.8-27.1,37.8c-1.5,2.7-1.2,5.8,0.3,8.2
	c4.2,0.2,8.5,0.5,12.7,0.8c0.4-0.4,0.7-0.9,1-1.4C527.1,460.4,540.8,445.6,549.2,437.7z"/>
<path class="st130" d="M323.9,465.7c-3.6-2.5-8.6-1.6-11.1,2.1c-2.5,3.6-1.6,8.6,2.1,11.1c4.8,3.3,10,7.2,15.4,11.9
	c6.5-1,13.3-2,20.3-3C341.2,478.6,332,471.3,323.9,465.7z"/>
<path class="st130" d="M478.6,448.1c-4.2-1.3-8.7,1-10,5.2c-2.8,8.7-5.2,17.8-7.2,27.1c5.4,0,10.9,0.1,16.3,0.2
	c1.7-7.7,3.8-15.2,6.1-22.5C485.1,454,482.8,449.5,478.6,448.1z"/>
<path class="st130" d="M391.1,483.4c-0.1-0.4-0.2-0.9-0.4-1.3c-10-24.7-20.7-37.9-27-44.1c-6,0.7-11.9,1.4-17.7,2.2
	c0,2.5,1.2,5,3.5,6.6c0.1,0.1,12.9,9.3,25.1,38.2c0.5-0.1,0.9-0.1,1.4-0.2C381.1,484.2,386.1,483.8,391.1,483.4z"/>
<path class="st130" d="M434.4,433c-1.1,8.4-2.9,24.6-4.2,48c5.4-0.2,10.7-0.3,16-0.4c1.3-24.7,3.3-41,4.3-47.9
	C445.2,432.7,439.8,432.8,434.4,433z"/>
<path class="st130" d="M408.7,434.1c-5.4,0.3-10.8,0.7-16.3,1.1c0.1,1.1,0.3,2.1,0.8,3.1c0.1,0.1,5,11,9.8,44c5.3-0.4,10.7-0.7,16-1
	C415,453.1,410.7,439.5,408.7,434.1z"/>
<path class="st130" d="M625.3,614.4c-3.8-2.1-8.7-0.8-10.8,3.1c-2.2,3.9-4.2,7.9-6,11.9c5.6,0.6,11.1,1.3,16.7,2
	c1.1-2.1,2.1-4.2,3.3-6.2C630.5,621.4,629.1,616.6,625.3,614.4z"/>
<path class="st130" d="M530.3,623.6c5.4,0.2,10.8,0.4,16.3,0.7c-2.7-17.4-6.8-33.4-12.4-48.4c-5.8-0.2-11.5-0.4-17.3-0.5
	C522.9,590.2,527.4,606.1,530.3,623.6z"/>
<path class="st130" d="M565,625.5c5.3,0.4,10.6,0.8,15.9,1.2c0-16-0.4-32.1-1.5-48.1c-5.4-0.4-10.7-0.8-16.1-1.2
	C564.5,593.4,565,609.5,565,625.5z"/>
<path class="st131" d="M564.5,257.6c-9-54.1-128.7-79-267.4-56S53.3,287.1,62.3,341c1.1,6.7,4,13,8.4,18.8c0,0,0.1-15.2,36.5-29.4
	c69.1-27,221.1-81.7,403.8-78.9C528.3,251.8,546.7,252.2,564.5,257.6z"/>
<path class="st131" d="M430.8,342.3c9.4-54,129.3-77.9,267.8-53.7c138.5,24.2,243.1,87.5,233.7,141.4c-1.2,6.7-4.1,13-8.5,18.8
	c0,0,0-15.2-36.3-29.8c-68.8-27.6-220.4-83.6-403.1-82.3C467,336.8,448.7,337,430.8,342.3z"/>
<path class="st131" d="M622.6,454.1c-1.4-48.8-97.9-85.5-215.7-82.2s-212.1,45.4-210.8,94c0.2,6.1,1.8,12,4.8,17.6
	c0,0,1.8-13.4,33.6-21.5c60.4-15.3,192.8-44.8,344.2-19.9C593.2,444.6,608.3,447.1,622.6,454.1z"/>
<path class="st131" d="M365.4,586.4c4-48.6,114.9-78.9,247.7-67.9s237.2,59.2,233.2,107.7c-0.5,6.1-2.7,11.8-6.4,17.3
	c0,0-1.3-13.5-36.9-23.7c-67.4-19.2-215.4-57.4-387.6-42.5C399.1,578.7,381.8,580.3,365.4,586.4z"/>
<path class="st1" d="M831.5,644.3C831.5,644.3,831.5,644.3,831.5,644.3C831.5,644.3,831.5,644.3,831.5,644.3z"/>
<path class="st1" d="M831.5,644.3C831.5,644.3,831.5,644.3,831.5,644.3C831.5,644.3,831.5,644.3,831.5,644.3z"/>
<path class="st131" d="M531.1,666.4c-1.1-40.1-80.6-85.3-177.5-82.6S179,636,180.1,676.1c0.1,5,1.5,9.9,4,14.5c0,0,2.8-7,27.7-17.7
	c47.5-20.4,146.5-54.1,283.3-16.4C506.7,659.7,519.4,660.6,531.1,666.4z"/>
<path class="st128" d="M355.2,716.6c1,3.6,4.2,5.9,7.7,5.9c0.7,0,1.4-0.1,2.1-0.3c4.3-1.1,6.8-5.5,5.6-9.8
	c-8.3-30.9-19.8-51.7-28-63.7c-6.3,0.6-12.4,1.3-18.3,2.1C330.5,658.5,345.3,679.5,355.2,716.6z"/>
<path class="st128" d="M390.1,733.4c0.1,0,0.3,0,0.4,0c4.2,0,7.7-3.3,8-7.5c2-37.7,7.1-64.3,10.3-77.9c-5.5-0.4-10.9-0.6-16.2-0.8
	c-3.4,15-8.1,41.3-10,77.9C382.3,729.4,385.7,733.2,390.1,733.4z"/>
<path class="st128" d="M405.7,770.8c0.2,4.3,3.7,7.7,8,7.7c0.1,0,0.2,0,0.3,0c4.4-0.2,7.8-3.9,7.7-8.3c-0.8-20.9,1.9-36.3,1.9-36.4
	c7.4-39.6,23.4-67.1,32-79.6c-5.7-1.2-11.5-2.2-17.1-3c-9.8,15.5-23.6,42.5-30.6,79.8C407.7,731.7,404.8,748.1,405.7,770.8z"/>
<path class="st130" d="M342.6,648.8c-6.3,0.6-12.4,1.3-18.3,2.1c3.2,3.9,8.6,11.3,14.4,22.5c5.7-0.6,11.4-1,17.2-1.3
	C351.1,662.2,346.5,654.5,342.6,648.8z"/>
<path class="st130" d="M404,672.5c1.7-10.5,3.4-18.8,4.8-24.6c-5.5-0.4-10.9-0.6-16.2-0.8c-1.4,6.2-3,14.5-4.6,24.6
	C393.3,671.9,398.6,672.2,404,672.5z"/>
<path class="st130" d="M425.7,674.6c5.5,0.7,11.1,1.5,16.6,2.4c4.9-10,9.7-17.6,13.2-22.7c-5.7-1.2-11.5-2.2-17.1-3
	C434.6,657.3,430.1,665.1,425.7,674.6z"/>
<path class="st132" d="M964.8,119.7c-22.3-18.9-52.4-36.5-89.4-52.4C797,33.7,699.2,13,600,8.9c-11.9-0.5-24.1-0.7-36.1-0.7
	c0,0,0,0,0,0c-92.6,0-183.6,14.5-256.2,40.8c-35.2,12.7-63.9,27.5-85.4,43.9c-12.6,9.6-22.8,19.9-30.3,30.6
	c-10.1,14.4-15.5,29.6-16.1,45.3l0,0.1c-0.4,9.1-6.1,17-14.5,20.3c-22.9,9-43.9,19.2-62.3,30.3c-26,15.7-46.5,32.9-60.7,51.2
	c-23.7,30.5-25.9,58.4-23.6,76.5c3.1,24,15.5,45.1,35.8,61c13.9,10.8,31.7,19.3,53.1,25.3c6.8,1.9,13.9,3.5,21.5,5
	c13.1,2.5,22.7,13.8,23.1,27.1c0,1.5,0.1,2.9,0.2,4.3c1.4,17.9,9.3,33.8,22.9,46c9,8.1,20.4,14.4,33.9,18.7
	c13.9,4.4,30.8,6.9,50.1,7.4c0,0,4-0.1,4.8,4.5c0.8,4.7-4.1,6.2-4.1,6.2c-21.2,7-41,16-58.2,26.7c-18.6,11.6-33.7,24.6-44.7,38.8
	c-14.5,18.8-21.8,39.5-20.9,59.9c0.7,15.4,6.1,29.6,15.8,41.1c7.6,9,17.5,16.1,29.4,21c13.7,5.6,29.8,8.4,49.3,8.4
	c2.6,0,5.1,0,7.5-0.1c12.3-0.4,24.2,3.9,33.1,12.4c4.1,3.9,7.7,8.1,10.6,12.3c0.6,0.8,0.5,0.8,1,1.4c2,3,20.9,32.5,26.7,84
	c5.9,51.8,31,82.2,51,98.5c20.9,17.1,40.7,22.8,47,24.3c15.6,3.8,31.1,5.7,46,5.7c4.6,0,9.2-0.2,13.6-0.5c12-1,24,2.2,34,9
	c16.6,11.2,39.7,20.5,70.7,20.5c19.1,0,37.2-2.9,52.5-8.5c20.7-7.5,38.7-22,50.8-40.9c3.1-4.8,6.9-9.4,11.4-13.8
	c9.4-9.2,22.1-14.2,35.3-14.2h0.2c16.6,0,28.6-0.9,38.9-3c19.6-4,34.8-12.8,45.3-26.2c1-1.2,1.9-2.5,2.7-3.8
	c10.5-16.6,11.6-32.6,11.4-40.7c-0.2-13.9-4.4-34.3-22.4-55c-10.6-12.2-25-23.2-42.7-32.6c-13.2-7-28.2-13.2-44.4-18.4
	c-8.3-2.6-12.1-12.2-7.7-19.7l0.1-0.2c5.3-9.1,13.3-17.5,24.4-25.7c6.3-4.6,13.9-6.9,21.6-6.6c5.5,0.2,11.6,0.4,18,0.4
	c27.3,0,50.3-2.7,68.5-8.1c15.7-4.6,28.2-11.2,38.3-20.1c15.5-13.7,24.1-32.5,24.1-52.7c0-23.4-9.7-58-55.9-89.9l-0.1-0.1
	c-3.3-2.3-2-7.5,2-8c12.8-1.5,26-3.6,38.7-6.5c23.2-5.4,41.9-12.7,57.2-22.4c29.8-19,40-43.2,43.2-60.2c3.3-17,2.9-43.5-17.2-73.2
	c-11.5-16.8-27.9-32.7-49.2-47.6c-10.3-7.2-7.8-23.1,4.2-26.9c10.1-3.2,19.3-6.6,27.5-10.2c16.9-7.4,30.2-15.8,40.4-25.6
	c20.6-19.6,24.9-40.8,24.9-55.1C1009.9,172.2,994.7,145,964.8,119.7z M361.2,852.4c-7.8-69.1-34.8-107.4-37-110.5
	c-20.6-30.4-53.3-49-80.8-60c-5.8-2.3-5.6-10.7,0.4-12.6c39-12.9,137.2-38.1,239.4-8.1c4.9,1.4,6.5,7.6,2.9,11.2
	c-16.2,16.3-35.9,41.1-47.1,73.6c-0.4,1.1-8.8,27.1-2.7,59.4c0,0,0,0.1,0,0.1c1.3,6.8-1.3,13.7-6.9,17.7
	c-14.8,10.6-28.3,25.8-24.7,44.7c2.5,9.1,16.7,13.2,41.1,17.3c2.1,0.4,4.3,0.7,6.6,1c8.6,1.3,16.6,5.1,23,11c0.7,0.7,1.4,1.4,2.2,2
	c9.8,9.5,5.5,26.1-7.7,29.4c-13.9,3.4-31.5,3.9-53.3-1.4c0,0-0.1,0-0.1,0C414.6,926.7,368.3,914.9,361.2,852.4z M68.5,324
	c3.5-13.3,17.4-33,59.9-57.5c43.9-25.2,103.9-46.1,170.1-57.1c34.1-5.7,67.6-8.5,98.7-8.5c29.3,0,56.6,2.5,80.6,7.5
	c24.2,5.1,43.6,12.5,57.2,21.6c6.4,4.3,3,14.4-4.7,14c-6.7-0.4-13.1-0.5-19.3-0.6c-79.8-1.2-162.7,8.4-246.5,28.5
	c-69.8,16.8-124.9,37.1-160.3,50.9c-9.2,3.6-16.3,7.3-21.9,11C75.4,338.5,66.4,332.1,68.5,324z M251.2,172.1
	c8.8-1.6,21.3-3.4,37.8-4.7c10.4-0.8,20.7,2.2,29.1,8.5c2.6,1.9,5.4,4.1,8.3,6.4c2.9,2.4,1.6,7.1-2.1,7.6l-23.9,3.3
	c-5,0.7-10.1,0.5-15-0.5c0,0,0,0-0.1,0c-15.9-3.5-27.1-6.7-35-9.6C244.8,181.1,245.5,173.2,251.2,172.1z M782.4,245.7
	c10.4-5.8,21.2-11.2,32.5-16.2c27.7-12.3,53.2-20.1,71.4-24.7c5.6-1.4,11.5-1.5,17.1-0.3c11.8,2.6,20.4,5.4,26.6,7.9
	c6.3,2.6,6.8,11.4,0.7,14.6c-28.5,14.7-80.7,24.6-144,32.1C778.9,260,775.5,249.5,782.4,245.7z M809.4,214.5
	c-0.2,0.1-0.4,0.2-0.5,0.2c-32.6,14.4-61.7,32-86.6,52.2c-4.5,3.7-8.9,7.4-13.1,11.3c-2.5,2.2-5.8,3.2-9.1,2.6c0,0,0,0-0.1,0
	c-40.9-7.2-81-10.3-117.7-9.4c-6,0.1-10.7-4.8-10.5-10.8c0.2-5-0.5-9-0.5-9c-7.5-27.2-39.2-47.9-90.2-58.6
	c-35.3-7.4-77.3-9.5-122.2-6.5c-2.2,0.1-4.3-0.6-5.9-2.1c-2.7-2.5-5.3-4.8-7.9-7.1c-5.4-4.7-2.4-13.5,4.7-13.9
	c98.2-5.6,200.8-3.7,305.9,5.8c56.7,5.1,107.2,11.7,150.1,18.3C819.9,189.6,822.4,208.8,809.4,214.5z M544.6,273.7l-0.2,0.1
	c-10.3,1.1-20.3,2.7-29.7,4.5c-3.8,0.8-7.6,1.6-11.2,2.5c-3.5,0.9-6.2-3.2-4-6.1l7.7-10.4c2.2-3,5.8-4.8,9.6-4.7
	c8,0.2,16.4,0.5,24.9,1.5C548.1,261.9,550,270.2,544.6,273.7z M836.3,426.3c-4.3,1.8-8.8,3.8-13.3,6
	c-30.2,14.5-69.6,40.2-103.4,84.4c-4.2,5.5-11.3,8.1-18.1,6.5c-27.5-6.2-57.1-10.8-87.7-13.3c-13.3-1.1-26.4-1.8-39.4-2.1
	c-9.2-0.2-16.7-7.2-17.6-16.3l0-0.2c-0.4-4.3,2.6-8.2,6.9-8.8c43.1-6.5,64.5-13,66.6-26.6c0.1-0.6,0.2-1.3,0.2-1.9
	c0-0.1,0-0.3,0-0.4c0-0.1,0-0.2,0-0.3c0-0.6-0.1-1.1-0.1-1.7c-2.1-26-26.5-49.2-69.2-65.5c-8.6-3.3-17.7-6.2-27.3-8.8
	c-6.5-1.7-12-6-15.3-11.8c-2.1-3.7-4.2-7.2-6.2-10.4c-2.8-4.4,0.5-10.2,5.7-10c68,2.2,137.9,12.1,208.5,29.7
	c42.2,10.5,79,22.3,109.1,33.1C844.3,411,844.7,422.8,836.3,426.3z M877.8,429.1c5.5-1.4,11.4-0.9,16.5,1.7
	c4.7,2.4,8.4,4.6,11.3,6.7c5.7,4.2,5.3,12.8-0.8,16.4c-12.2,7.1-30,12.2-54,15.7c-14.2,2.1-30.3,3.5-47.9,4.4
	c-5.7,0.3-8.2-7.1-3.4-10.3c10.5-6.9,20.6-12.4,29.7-16.8C848.1,437.9,865.1,432.4,877.8,429.1z M279.2,477.5
	c-0.1,0-0.2-0.1-0.3-0.1c-8.4-3.6-7.3-15.9,1.7-17.7c26-5.4,57.3-10.9,92.8-14.6c61.6-6.4,121.7-5.9,179.2,1.4
	c8.3,1.1,11.1,11.6,4.5,16.7c-1,0.8-2.1,1.6-3.1,2.4c-13.6,10.8-25.2,22.4-34.6,34.4c-4.8,6.1-11.8,10-19.5,10.9
	c-22.1,2.4-42.7,6.1-61.1,11.1c-21.7,5.9-39.4,13.5-52.7,22.3c-6.7,4.5-15.8,2.9-20.7-3.5C345.9,515.1,316.6,493.5,279.2,477.5z
	 M361.5,570c-0.3,0.6-0.6,1.1-0.8,1.7c-1.1,2.4-3.4,4.1-6.1,4.2c-4.3,0.2-8.5,0.5-12.7,0.9c-2,0.2-3.8-1.1-4.3-3
	c-3.6-14-7.6-27.7-11.9-40.9c-1.3-3.9,3.4-7.1,6.5-4.3c11.1,9.8,21.2,21.3,29,34.7C362.5,565.3,362.6,567.8,361.5,570z M589.3,460.2
	c3.5-2.1,6.6-4,9.3-5.5c0.5-0.3,1-0.3,1.5-0.2c0.5,0.1,0.9,0.2,1.4,0.4c2,0.5,2,3.3,0.1,3.8c-3.1,0.9-6.9,1.9-11.6,2.9
	C589,461.8,588.6,460.7,589.3,460.2z M555.6,401c18.7,7.1,33.5,15.6,43.5,24.8c4.7,4.3,0.9,12.1-5.4,10.9c-4.7-0.9-9.2-1.7-13.6-2.4
	c-66.3-10.9-136.3-12.6-208.3-5.2c-59.9,6.2-108.1,17.4-139.1,25.2c-5.6,1.4-10.4,3-14.5,4.7c-5.9,2.4-11.7-3.9-8.6-9.4
	c6.4-11.6,20.3-27.2,50.5-40.4c39-17,91.1-27.7,147-29.3c4.8-0.1,9.6-0.2,14.4-0.2C472.1,379.7,519.2,387.2,555.6,401z M243.2,486.2
	c-9.7-0.1-18-0.8-24.3-2.4c-3.3-0.9-3.9-5.3-0.9-7c0.5-0.3,1.1-0.6,1.7-0.9c0.8-0.4,1.7-0.5,2.6-0.3c5.7,1.3,13.1,3.3,21.6,5.9
	C246.7,482.3,246,486.3,243.2,486.2z M494.5,369.1c-10.3-1.6-20.9-2.8-31.8-3.7c-2.3-1.1-4.6-2.4-6.9-3.7
	c-7.4-4.3-4.9-15.7,3.7-16.3c6.9-0.5,13.7-0.7,20.3-0.7c3,0,5.8,1.4,7.6,3.9l10.7,14.8C499.9,366,497.7,369.6,494.5,369.1z
	 M423.4,338.6c-0.2,0.8-0.3,1.6-0.5,2.3c-0.7,3.9-0.4,7.5,0.8,11c2,5.8-2.1,11.8-8.2,11.8c-2.9,0-5.9,0.1-8.8,0.2
	c-58,1.6-112.3,12.5-153.1,30.7l-0.1,0c-4.2,1.9-9,1-12.3-2.1c-24.3-22.9-49.1-38.3-69.6-48.3c-6.1-3-11.9-5.6-17.5-7.9
	c-6.9-2.8-6.6-12.6,0.4-15c31.1-10.9,69.5-23.1,113.9-33.8c69-16.6,137.3-25.9,203.8-27.8c7.3-0.2,11.9,7.7,8.1,13.9
	c-1.4,2.3-2.9,4.8-4.3,7.3c-3.8,6.7-9.5,12.3-16.3,16C439.6,308.1,427.2,322.2,423.4,338.6z M91.9,366.5c-7.4-4-8-14.5-0.9-19.2
	c2.7-1.8,6.1-3.7,10.1-5.6c4.6-2.2,9.7-2.7,14.6-1.4c12.6,3.3,29.7,8.9,48.8,18.3c9.1,4.5,19.1,10,29.5,16.9c5,3.3,2.4,11-3.5,10.6
	c-17.3-1.1-33.1-2.6-47.1-4.8C120.9,377.9,103.9,373,91.9,366.5z M353.8,591.7c2.7-0.1,5.4-0.1,8.1-0.1c41,0,80.8,8.6,112.8,24.5
	c16.7,8.3,29.9,18.1,38.3,28.1c2.7,3.2-0.2,8.1-4.3,7.2c0,0-0.1,0-0.1,0c-4-0.8-7.8-1.6-11.4-2.6c-100.9-27.8-198-22.2-288.6,16.8
	c-1.2,0.5-2.4,1.1-3.6,1.6c-6.8,3.1-13.6-4.6-9.5-10.9c6.2-9.7,17.6-21.8,38.5-33.4C267,604.4,310.6,592.9,353.8,591.7z
	 M475.7,780.4c-0.4,3.8-2.8,7-6.2,8.5c-1.7,0.7-3.5,1.4-5.3,2.1c-6.8,2.5-14-2.4-14-9.7c0-17.3,3.8-29.7,4-30.5
	c3.4-10,7.8-19.2,12.7-27.6c3.1-5.4,11.4-3.3,11.5,3C478.7,743,477.5,762,475.7,780.4z M455,861.4c52.4-9.5,107.9-12.2,165.1-7.7
	c40,3.1,73.8,9.1,98.7,14.3c-29.7,10.8-70.9,31.5-94.6,68.6c-5.5,8.6-13.6,15.1-22.8,18.5c-11.8,4.3-22.8,6-32.7,5.1
	c-16.6-1.5-28.8-7-36.2-11.3c-5.1-3-9.1-7.7-11-13v0C508.7,900.6,477.4,875.6,455,861.4z M711.1,892.7c-2.3,0.3-3.2-3-1-3.9
	c14.7-6.4,28-10.4,36.6-12.8c0.8-0.2,1.6-0.1,2.3,0.2c0.7,0.3,1.3,0.6,1.8,1c2.2,1.2,2.2,4.4,0.1,5.6
	C742.3,887.9,728.3,890.8,711.1,892.7z M746.4,840.7c6.9,6.1,1,17.4-8,15.3c-0.1,0-0.2,0-0.3-0.1c-26.1-5.9-66.6-14.2-116.8-18.1
	c-18.5-1.4-36.9-2.2-55.1-2.2c-40.9,0-80.8,3.7-119,11c-1,0.2-2,0.4-3,0.6c-6.4,1.2-10.1-7.1-4.8-11c7.5-5.5,17-10.7,28.3-15.4
	c32.7-13.4,76.3-20.8,122.9-20.7c46.5,0.1,90.2,7.6,122.8,21.2C727.3,827.1,738.4,833.7,746.4,840.7z M651.2,710.6
	c-11.1,17.1-18.7,37.6-23.8,59c-2.2,9-10.4,15.3-19.6,14.9c-5.7-0.2-11.4-0.4-17.2-0.4c-26.3-0.1-51.8,2.2-75.1,6.5
	c-12.5,2.3-23.8-7.9-22.9-20.6c3.4-43.6,0.5-66.9-1.5-76.9c0-0.2-0.1-0.4-0.1-0.6c-0.3-1.2,0.1-2.4,0.9-3.3l0,0
	c0.5-0.6,1.3-1,2.1-1.1c27.6-5,40.2-9.8,43.9-17.7c0.8-1.3,1.2-2.8,1.2-4.3c0.3-2.6,0.1-6-1.4-9.7c-5.3-19.9-25-39.3-55.8-54.6
	c-8.4-4.2-17.2-7.8-26.4-11.1c-4.1-1.4-3.1-7.4,1.2-7.6c61.6-2.5,125.6,1.1,190.7,10.9c48.8,7.4,90.4,16.9,122.5,25.4
	c4.9,1.3,5,8.1,0.2,9.6c-3.3,1-6.7,2.2-10.2,3.4C710.6,649.8,673,676.8,651.2,710.6z M764.7,647.7
	C764.8,647.7,764.8,647.7,764.7,647.7c19.8-7,37.8-11,49.7-13.1c2-0.4,4,0,5.8,0.9c2.1,1.1,3.9,2.2,5.3,3.2c2.5,1.8,2.1,5.7-0.8,6.8
	c-12.5,5.2-33.4,6.1-59.5,5.5C763.4,651,762.9,648.3,764.7,647.7z M826.1,618.7c-9.7-4.2-20.7-7.1-20.7-7.1
	c-34.6-9.9-88.3-24.2-155.6-34.3c-52.6-7.9-104.6-11.9-155.2-11.9c-27,0-53.7,1.1-79.9,3.4c-4.3,0.4-8.7,0.8-13.3,1.2
	c-7.4,0.8-10.8-8.9-4.5-12.9c11.5-7.3,27.1-13.7,46.2-19c45.8-12.6,105.9-16.6,169.2-11.3c63.3,5.2,121.9,19.1,165,39
	c29.6,13.7,49.3,29.1,56.9,44C837.1,615.3,831.6,621.1,826.1,618.7z M912.8,423.1c-5.6-3.8-12.9-7.7-22.3-11.5
	c-35.3-14.1-90.2-34.9-159.9-52.3c-81.5-20.3-162.3-30.6-240.3-30.6c-2,0-3.9,0-5.9,0c-4.5,0-9.3,0.1-14.1,0.2
	c-9.4,0.3-12.9-12.2-4.8-16.9c13.2-7.6,30.9-13.8,52.4-18.1c49.6-9.9,113.3-9,179.4,2.5c66,11.5,126.3,32.3,169.6,58.5
	c37.3,22.6,50.2,46.7,54.6,61.8C922.9,422,917.2,426.1,912.8,423.1z M936.2,198.5c-9.3-3.9-22.4-8.4-39.3-11.6
	c-53.4-10.1-136.4-24.3-239.7-33.6c-66.5-6-132.1-9-196.1-9c-55.3,0-109.5,2.2-162.2,6.7c-10.3,0.9-21.2,1.8-32.4,3.2
	c-10.9,1.3-16.4-12.7-7.4-19.1c18.6-13.3,45.7-26.4,78.7-37.4c74.8-25,167.1-36.7,260-32.9c92.8,3.8,183.9,22.9,256.5,53.9
	c31.6,13.5,57.6,28.7,75.4,43.7c9.9,8.3,15.7,16.2,19.1,22.9C952.8,193.2,944.6,202,936.2,198.5z"/>
</svg>
