<svg xmlns="http://www.w3.org/2000/svg" viewBox="0 0 32 32" width="100" height="100" fill="000000">
    <path d="M 12.457031 4 C 12.303766 4.0054531 12.180109 4.0547969 12.099609 4.1542969 C 11.777609 4.5522969 12.255016 5.5897031 13.166016 6.4707031 C 14.077016 7.3517031 15.076437 7.7427031 15.398438 7.3457031 C 15.720438 6.9477031 15.243031 5.9102969 14.332031 5.0292969 C 13.648781 4.3685469 12.916828 3.9836406 12.457031 4 z M 18.273438 7.0078125 C 17.745498 7.0965566 17.100062 7.9065781 16.742188 8.9863281 C 16.333187 10.220328 16.453766 11.339375 17.009766 11.484375 C 17.565766 11.629375 18.348813 10.745719 18.757812 9.5117188 C 19.166812 8.2777187 19.046234 7.160625 18.490234 7.015625 C 18.420734 6.9975 18.348857 6.9951348 18.273438 7.0078125 z M 10.966797 9.0019531 C 10.493797 8.9824531 10.145656 9.0859531 10.035156 9.3144531 C 9.8141562 9.7714531 10.626609 10.561125 11.849609 11.078125 C 13.072609 11.595125 14.243844 11.643547 14.464844 11.185547 C 14.685844 10.728547 13.873391 9.938875 12.650391 9.421875 C 12.038891 9.163375 11.439797 9.0214531 10.966797 9.0019531 z M 3 14 L 3 16 L 9.203125 16 C 9.709475 19.363146 12.49988 22 16 22 C 19.50012 22 22.290525 19.363146 22.796875 16 L 29 16 L 29 14 L 21 14 L 21 15 C 21 17.773666 18.773666 20 16 20 C 13.226334 20 11 17.773666 11 15 L 11 14 L 3 14 z M 15.830078 14.001953 A 2.5 0.99900001 0.361 0 0 13.5 14.984375 A 2.5 0.99900001 0.361 0 0 15.994141 15.998047 A 2.5 0.99900001 0.361 0 0 18.5 15.015625 A 2.5 0.99900001 0.361 0 0 16.005859 14.001953 A 2.5 0.99900001 0.361 0 0 15.830078 14.001953 z M 7 17 A 1 1 0 0 0 6 18 A 1 1 0 0 0 7 19 A 1 1 0 0 0 8 18 A 1 1 0 0 0 7 17 z M 25 17 A 1 1 0 0 0 24 18 A 1 1 0 0 0 25 19 A 1 1 0 0 0 26 18 A 1 1 0 0 0 25 17 z M 4 20 A 1 1 0 0 0 3 21 A 1 1 0 0 0 4 22 A 1 1 0 0 0 5 21 A 1 1 0 0 0 4 20 z M 10 20 A 1 1 0 0 0 9 21 A 1 1 0 0 0 10 22 A 1 1 0 0 0 11 21 A 1 1 0 0 0 10 20 z M 22 20 A 1 1 0 0 0 21 21 A 1 1 0 0 0 22 22 A 1 1 0 0 0 23 21 A 1 1 0 0 0 22 20 z M 28 20 A 1 1 0 0 0 27 21 A 1 1 0 0 0 28 22 A 1 1 0 0 0 29 21 A 1 1 0 0 0 28 20 z M 7 23 A 1 1 0 0 0 6 24 A 1 1 0 0 0 7 25 A 1 1 0 0 0 8 24 A 1 1 0 0 0 7 23 z M 13 23 A 1 1 0 0 0 12 24 A 1 1 0 0 0 13 25 A 1 1 0 0 0 14 24 A 1 1 0 0 0 13 23 z M 19 23 A 1 1 0 0 0 18 24 A 1 1 0 0 0 19 25 A 1 1 0 0 0 20 24 A 1 1 0 0 0 19 23 z M 25 23 A 1 1 0 0 0 24 24 A 1 1 0 0 0 25 25 A 1 1 0 0 0 26 24 A 1 1 0 0 0 25 23 z M 4 26 A 1 1 0 0 0 3 27 A 1 1 0 0 0 4 28 A 1 1 0 0 0 5 27 A 1 1 0 0 0 4 26 z M 10 26 A 1 1 0 0 0 9 27 A 1 1 0 0 0 10 28 A 1 1 0 0 0 11 27 A 1 1 0 0 0 10 26 z M 16 26 A 1 1 0 0 0 15 27 A 1 1 0 0 0 16 28 A 1 1 0 0 0 17 27 A 1 1 0 0 0 16 26 z M 22 26 A 1 1 0 0 0 21 27 A 1 1 0 0 0 22 28 A 1 1 0 0 0 23 27 A 1 1 0 0 0 22 26 z M 28 26 A 1 1 0 0 0 27 27 A 1 1 0 0 0 28 28 A 1 1 0 0 0 29 27 A 1 1 0 0 0 28 26 z"/>
</svg>