<svg xmlns="http://www.w3.org/2000/svg" viewBox="0 0 48 48" width="144" height="144"><path fill="#8bc34a" d="M24,25C24,25,24,25,24,25c-0.6,0-1-0.5-1-1c0-0.1,0.1-5.6-3.3-7.7c-0.5-0.3-0.6-0.9-0.3-1.4 c0.3-0.5,0.9-0.6,1.4-0.3c4.4,2.8,4.3,9.2,4.3,9.5C25,24.6,24.5,25,24,25z"/><path fill="#8bc34a" d="M20.2 7C15.4 4.6 7.9 7.3 6 8c2.8 1.7 2.4 10.9 7.5 12.6 3.6 1.2 6.4-.2 6.7-5.2C24.2 13.1 23.6 8.7 20.2 7zM24 28c-.6 0-1-.4-1-1v-3c0-7.8 5.8-9 5.8-9 .5-.1 1.1.3 1.2.8.1.5-.3 1.1-.8 1.2C29 17 25 17.9 25 24v3C25 27.6 24.6 28 24 28z"/><path fill="#8bc34a" d="M30.2,8.3C34.6,6.9,40.6,11,42,12c-2.6,1-4.3,9.3-8.9,9.9c-3.2,0.4-4.9-1.3-4.1-5.9 C25.4,13.2,27.1,9.2,30.2,8.3z"/><path fill="#689f38" d="M13.5 20.6C8.4 18.9 8.8 9.7 6 8c2.5.2 6.1 2.4 14.2 7.4C19.9 20.4 17.2 21.8 13.5 20.6zM33.2 21.9c4.5-.6 6.2-8.9 8.9-9.9-2.1-.3-5.4.9-13 4C27.4 20.5 29.9 22.4 33.2 21.9z"/><path fill="#e64a19" d="M13,27l3,15h16l3-15H13z"/><path fill="#bf360c" d="M35,30H13c-0.6,0-1-0.5-1-1v-4h24v4C36,29.5,35.5,30,35,30z"/></svg>