<?xml version="1.0" encoding="utf-8"?>
<!-- Generator: Adobe Illustrator 20.0.0, SVG Export Plug-In . SVG Version: 6.00 Build 0)  -->
<svg version="1.1" xmlns="http://www.w3.org/2000/svg" xmlns:xlink="http://www.w3.org/1999/xlink" x="0px" y="0px"
	 viewBox="0 0 1000 1000" style="enable-background:new 0 0 1000 1000;" xml:space="preserve">
<style type="text/css">
	.st0{fill:#304B0A;}
	.st1{fill:#AB4168;}
	.st2{fill:#688800;}
	.st3{fill:#DADADA;}
	.st4{fill:#5F2940;}
	.st5{fill:#519900;}
	.st6{fill:#9556DD;stroke:#3F2C73;stroke-width:6;stroke-miterlimit:10;}
	.st7{fill:#38590E;stroke:#38590E;stroke-width:6;stroke-miterlimit:10;}
	.st8{fill:#3F2C73;stroke:#3F2C73;stroke-width:6;stroke-miterlimit:10;}
	.st9{fill:none;stroke:#648551;stroke-miterlimit:10;}
	.st10{fill:#7B9727;stroke:#386100;stroke-width:3;stroke-linecap:round;stroke-linejoin:round;stroke-miterlimit:10;}
	.st11{fill:#7B9727;stroke:#386100;stroke-width:0.745;stroke-linecap:round;stroke-linejoin:round;stroke-miterlimit:10;}
	.st12{fill:#7B9727;stroke:#386100;stroke-width:3;stroke-miterlimit:10;}
	.st13{fill:#618022;stroke:#386100;stroke-width:3;stroke-linejoin:round;stroke-miterlimit:10;}
	.st14{fill:none;stroke:#45210A;stroke-width:3;stroke-linecap:round;stroke-linejoin:round;stroke-miterlimit:10;}
	.st15{fill:#00FFFF;}
	.st16{clip-path:url(#SVGID_2_);}
	.st17{clip-path:url(#SVGID_4_);}
	.st18{clip-path:url(#SVGID_6_);}
	.st19{fill:#D2C6C6;}
	.st20{fill:#D2C6C6;stroke:#534741;stroke-miterlimit:10;}
	.st21{fill:#B28A5C;stroke:#45210A;stroke-width:3;stroke-linecap:round;stroke-linejoin:round;stroke-miterlimit:10;}
	.st22{fill:none;stroke:#87562E;stroke-miterlimit:10;}
	.st23{fill:none;stroke:#87562E;stroke-linecap:round;stroke-linejoin:round;stroke-miterlimit:10;}
	.st24{fill:none;stroke:#FFFFFF;stroke-linecap:round;stroke-linejoin:round;stroke-miterlimit:10;}
	.st25{fill:none;stroke:#45210A;stroke-linecap:round;stroke-linejoin:round;stroke-miterlimit:10;}
	.st26{fill:#45210A;}
	.st27{fill:#FFFFFF;}
	.st28{fill:#488C00;}
	.st29{fill:#488C00;stroke:#006837;stroke-linejoin:round;stroke-miterlimit:10;}
	.st30{fill:#488C00;stroke:#006837;stroke-width:0.899;stroke-linejoin:round;stroke-miterlimit:10;}
	.st31{fill:#FCEE21;}
	.st32{fill:none;stroke:#FFFFFF;stroke-linecap:round;stroke-miterlimit:10;}
	.st33{fill:#FFCADE;}
	.st34{fill:none;stroke:#386100;stroke-width:4;stroke-linejoin:round;stroke-miterlimit:10;}
	.st35{fill:#386100;}
	.st36{fill:none;stroke:#386100;stroke-width:0.25;stroke-linecap:round;stroke-linejoin:round;stroke-miterlimit:10;}
	.st37{fill:none;stroke:#386100;stroke-linecap:round;stroke-linejoin:round;stroke-miterlimit:10;}
	.st38{fill:#519900;stroke:#386100;stroke-linejoin:round;stroke-miterlimit:10;}
	.st39{fill:none;stroke:#95B22F;stroke-linecap:round;stroke-linejoin:round;stroke-miterlimit:10;}
	.st40{fill:#95B22F;}
	.st41{fill:#B28A5C;}
	.st42{fill:#87562E;}
	.st43{fill:#688625;stroke:#386100;stroke-miterlimit:10;}
	.st44{fill:#6F8B29;stroke:#386100;stroke-miterlimit:10;}
	.st45{fill:#75912D;stroke:#386100;stroke-miterlimit:10;}
	.st46{fill:#7B9727;stroke:#386100;stroke-miterlimit:10;}
	.st47{fill:none;stroke:#386100;stroke-miterlimit:10;}
	.st48{fill:#7B9727;}
	.st49{fill:#618022;}
	.st50{fill:#688625;}
	.st51{fill:#6F8B29;}
	.st52{fill:#75912D;}
	.st53{fill:#AB4168;stroke:#5F2940;stroke-miterlimit:10;}
	.st54{fill:none;stroke:#DADADA;stroke-miterlimit:10;}
	.st55{fill:#779F14;stroke:#38590E;stroke-miterlimit:10;}
	.st56{fill:#648551;}
	.st57{fill:none;stroke:#38590E;stroke-miterlimit:10;}
	.st58{fill:none;stroke:#38590E;stroke-linecap:round;stroke-miterlimit:10;}
	.st59{fill:#38590E;}
	.st60{fill:#779F14;}
	.st61{fill:#9556DD;}
	.st62{fill:#779F14;stroke:#648551;stroke-miterlimit:10;}
	.st63{fill:#648551;stroke:#38590E;stroke-linejoin:round;stroke-miterlimit:10;}
	.st64{fill:none;stroke:#648551;stroke-linecap:round;stroke-miterlimit:10;}
	.st65{fill:#9556DD;stroke:#3F2C73;stroke-width:8;stroke-miterlimit:10;}
	.st66{fill:#3F2C73;}
	.st67{fill:#9A69E8;}
	.st68{fill:#519900;stroke:#386100;stroke-linecap:round;stroke-linejoin:round;stroke-miterlimit:10;}
	.st69{fill:none;stroke:#DAAE67;stroke-linecap:round;stroke-linejoin:round;stroke-miterlimit:10;}
	.st70{fill:#F9ECD9;}
	.st71{fill:#DAAE67;}
	.st72{fill:none;stroke:#FFFFFF;stroke-width:15;stroke-linecap:round;stroke-miterlimit:10;}
	.st73{fill:#A5CC00;}
	.st74{fill:#688800;stroke:#304B0A;stroke-width:6.1368;stroke-miterlimit:10;}
	.st75{fill:none;stroke:#A5CC00;stroke-width:0.9876;stroke-linecap:round;stroke-miterlimit:10;}
	.st76{fill:none;stroke:#DADADA;stroke-width:0.9876;stroke-linecap:round;stroke-miterlimit:10;}
	.st77{fill:none;stroke:#FFFFFF;stroke-width:0.9876;stroke-linecap:round;stroke-miterlimit:10;}
	.st78{fill:#E1D02F;stroke:#C18200;stroke-linejoin:round;stroke-miterlimit:10;}
	.st79{fill:#E1D02F;}
	.st80{fill:#C18200;}
	.st81{fill:#581917;}
	.st82{fill:none;stroke:#C18200;stroke-linecap:round;stroke-linejoin:round;stroke-miterlimit:10;}
</style>
<g id="Layer_1">
	<g>
		<path class="st79" d="M345.4,957.7c-106.4,0-211.7-27.7-304.7-80.1c-9.6-5.4-14.2-16.6-11.2-27.2l14.6-51.5
			c2.5-8.9,10-15.4,18.8-16.9c0.2,0,0.4-0.1,0.5-0.1c0.7-0.1,74.8-13.3,170.9-45.6c88-29.6,213.1-81.7,309.3-162.4
			c58.9-49.3,116.9-117.9,172.2-203.9c47.4-73.7,83.1-145.1,104.7-192c16-34.8,25.9-72.3,29.4-111.3l1.6-18.4
			c1.1-12.3,11.4-21.6,23.6-21.6c0.4,0,0.8,0,1.2,0l35.3,1.7c12.6,0.6,22.5,10.9,22.6,23.4l0.2,14.5c0.5,38.9,4.9,73.4,13.5,105.4
			c17.1,63.4,24.1,129.2,20.7,195.5c-3.5,69.2-18.6,136.9-44.9,201.2c-25.6,62.7-61,120.6-105.4,172.2
			c-44.4,51.6-96.4,95.3-154.5,129.9C604,906.2,539.3,931.2,471.5,945C429.8,953.4,387.3,957.7,345.4,957.7z"/>
	</g>
	<g>
		<path class="st81" d="M579.2,830.9c-40.7,0-40.8,63.3,0,63.3C620,894.2,620.1,830.9,579.2,830.9z"/>
	</g>
	<g>
		<path class="st81" d="M812.7,475.1c11.6-7.3,30.2,6.6,22.1,21.9c-43,81.4-89,162.5-168.9,212.9c-12.2,7.7-23.7-3.7-23.4-14.9
			l76.6-76.7L812.7,475.1z"/>
	</g>
	<g>
		<path class="st81" d="M349.6,711.5c17.6-3.6,25.4,17.1,14.4,27c-2.3,2.1-2.8,5.5-1.2,8.2c4.8,7.9,2,20.3-8.7,24
			c-2.8,1-5.5,2-8.3,3c-4.8,1.8-7.6,6.7-6.6,11.7c0.4,1.9,0.6,3.9,0.6,6.1c0.1,18.9-27.1,20.3-31.2,4.1c-0.8-3.2-3.2-5.8-6.4-6.8
			c-0.4-0.1-0.9-0.3-1.3-0.4c-5.9-2.1-10.3-8.1-11.3-14.3c-0.5-2.9-2.1-5.5-4.6-7c-0.6-0.3-1.1-0.7-1.6-1.1c-2.5-2-5.8-2.8-9-1.9
			c-6.9,2-13.8,4-20.7,6.3c-12.1,4.1-19.9-6.3-19.3-16.3L349.6,711.5z"/>
	</g>
	<g>
		<path class="st81" d="M900,350.3c-5.2,34.8-13.9,68.6-26.2,101.6c-7.1,19.1,23.5,27.4,30.5,8.4c12.3-33,21-66.7,26.2-101.6
			C933.5,338.8,903,330.2,900,350.3z"/>
	</g>
	<g>
		<path class="st81" d="M425.9,745.5c-20.4,0-20.4,31.7,0,31.7C446.3,777.2,446.3,745.5,425.9,745.5z"/>
	</g>
	<g>
		<path class="st81" d="M476,645.4c-20.4,0-20.4,31.7,0,31.7C496.3,677,496.4,645.4,476,645.4z"/>
	</g>
	<g>
		<path class="st80" d="M875.3,50.5l35.3,1.7l0.2,16.7c0.4,38.5,5.9,76.8,15.6,114.1c15,57.7,21.9,119,18.6,183.2
			C931.1,637,732.5,867.8,466.7,921.7C425.8,930,385.2,934,345.4,934c-96.9,0-189.4-23.5-271.6-65.5c-12.6-6.4-18.8-21-15-34.6
			l3.1-11c3-10.7,11.7-18.8,22.6-21C400,736.4,559,592.2,559,592.2c138.8-116.2,238.5-307,283.2-404.1
			c17.3-37.6,27.8-77.9,31.5-119.1L875.3,50.5 M875.2,3c-24.4,0-45.1,18.7-47.3,43.3l-1.6,18.4c-3.2,36.3-12.4,71.1-27.3,103.5
			c-21.3,46.2-56.4,116.5-103.1,189.1c-54,83.9-110.3,150.7-167.4,198.5c-40.8,34.2-90.5,66-147.8,94.7
			c-46.5,23.3-98,44.5-153.1,63.1c-94.6,31.9-167.5,44.8-168.2,45c-0.2,0-0.4,0.1-0.6,0.1c-17.7,3.1-32.5,16-37.6,33.8l-7.6,26.8
			l-7,24.7c-6,21.1,3.3,43.6,22.4,54.4c47.6,26.8,98.3,47.5,150.8,61.5c53.9,14.4,109.6,21.7,165.6,21.7c43.5,0,87.6-4.4,130.8-13.2
			c70.5-14.3,137.7-40.3,199.7-77.2c60.4-35.9,114.3-81.3,160.4-134.8c46.1-53.5,82.9-113.6,109.4-178.7
			c27.3-66.8,43-137.2,46.6-209c3.5-68.8-3.7-137.1-21.5-202.9c-8.1-30.1-12.3-62.6-12.7-99.5L958,51.7
			C957.7,26.5,937.9,6,912.8,4.8l-35.3-1.7C876.8,3.1,876,3,875.2,3L875.2,3z"/>
	</g>
	<g>
		<path class="st80" d="M167.9,850.5c-29.4,0-53.7-1.4-71.3-2.8c-4.4-0.4-7.6-4.2-7.2-8.5c0.4-4.4,4.2-7.6,8.5-7.2
			c70.7,5.8,253.5,10.4,424.4-73.3c95.4-46.7,173.4-114.2,231.7-200.6C824.6,453.6,867.3,320.2,881,161.4c0.4-4.4,4.2-7.6,8.6-7.2
			c4.4,0.4,7.6,4.2,7.2,8.6c-13.9,161.4-57.5,297.4-129.6,404.1c-59.9,88.7-140,158-237.9,206C397.4,837.4,258.8,850.5,167.9,850.5z
			"/>
	</g>
	<g>
		<path class="st81" d="M795.7,356.3c-2.7,9.3,10.4,12,14.9,5.1l11.2-17.5c1.3-2,4-2.5,5.9-1.1c4.2,3.1,11.4,2.3,12.4-4.4
			c1.5-9.4,1.1-17.7-1.1-27c-0.9-3.9-3.9-5.3-7.1-5c-2.7,0.3-4.9-2.3-4.1-5c2-7.2,4.1-14.3,6.1-21.5c2.5-8.6-11.3-13.2-14.9-5.1
			c-13.3,30.4-29.1,59.5-47.4,87.2c-5.6,8.5,8.7,15.4,14.2,7c2.8-4.2,5.3-8.6,7.8-13c0,0,0.4-0.9,1.2-0.8S795.7,356.3,795.7,356.3z"
			/>
	</g>
	<g>
		<path class="st81" d="M741.8,456.7c-20.4,0-20.4,31.7,0,31.7C762.2,488.4,762.2,456.7,741.8,456.7z"/>
	</g>
	<g>
		<path class="st27" d="M588.4,685.1c-2.4,0-4.8-1.1-6.4-3.2c-2.6-3.5-1.8-8.5,1.7-11.1c43.9-32.2,83.2-70.5,116.6-113.8
			c2.7-3.5,7.6-4.1,11.1-1.4c3.5,2.7,4.1,7.6,1.4,11.1c-34.3,44.5-74.6,83.8-119.7,116.9C591.7,684.6,590,685.1,588.4,685.1z"/>
	</g>
	<g>
		<path class="st27" d="M532,721.9c-2.7,0-5.4-1.4-6.9-4c-2.2-3.8-0.9-8.6,2.9-10.8c2.5-1.5,5.1-2.9,7.6-4.4c3.8-2.2,8.6-1,10.8,2.8
			c2.2,3.8,1,8.6-2.8,10.8c-2.6,1.5-5.2,3.1-7.8,4.5C534.7,721.5,533.3,721.9,532,721.9z"/>
	</g>
	<g>
		<path class="st81" d="M891.9,39.8c-40.7,0-40.8,63.3,0,63.3C932.6,103.1,932.7,39.8,891.9,39.8z"/>
	</g>
	<g>
		<circle class="st27" cx="876.6" cy="49.4" r="7.5"/>
	</g>
</g>
<g id="Layer_2">
</g>
<g id="Layer_3">
</g>
</svg>
