<svg xmlns="http://www.w3.org/2000/svg" viewBox="0 0 48 48" width="144" height="144"><path fill="#8bc34a" d="M23,43c-0.6,0-1-0.4-1-1c0-0.2-0.1-5.4-5.4-8.1c-0.5-0.2-0.7-0.8-0.4-1.3c0.2-0.5,0.8-0.7,1.3-0.4 c6.5,3.2,6.6,9.6,6.6,9.9C24,42.6,23.6,43,23,43z"/><path fill="#8bc34a" d="M19.6 26.8C15.5 24.6 8.6 27.4 7 28c2.4 1.5 2.5 9.2 6.9 10.7 3.1 1.1 5.7-.3 5.9-4.6C23 32.3 22.5 28.3 19.6 26.8zM23 43c-.6 0-1-.4-1-1 0-6.7 4.6-7.9 4.8-8 .5-.1 1.1.2 1.2.7.1.5-.2 1.1-.7 1.2-.1 0-3.3 1-3.3 6C24 42.6 23.6 43 23 43z"/><path fill="#8bc34a" d="M27.8,28.2c3.8-1.1,9,2,10.2,2.8c-2.3,0.8-3.7,7.5-7.7,8c-2.8,0.3-4.7-1.2-4.1-4.8 C23.9,32.1,25.1,29,27.8,28.2z"/><path fill="#689f38" d="M13.9 38.7C9.5 37.2 9.4 29.5 7 28c0 0 0 0 0 0 2.1.2 5.9 1.6 12.8 6 0 0 0 0 0 0C19.6 38.4 17 39.7 13.9 38.7zM30.3 39c3.9-.5 5.4-7.1 7.7-8 0 0 0 0 0 0-1.8-.2-5.2.7-11.8 3.1 0 0 0 0 0 0C25.6 37.8 27.5 39.3 30.3 39z"/><path fill="#ff9800" d="M25,8h13v13H25V8z"/><path fill="#ff9800" d="M31.5,24L22,14.5L31.5,5l9.5,9.5L31.5,24z"/><path fill="#ffeb3b" d="M27,14.5c0,2.5,2,4.5,4.5,4.5s4.5-2,4.5-4.5c0-2.5-2-4.5-4.5-4.5S27,12,27,14.5"/></svg>