<svg xmlns="http://www.w3.org/2000/svg" xmlns:xlink="http://www.w3.org/1999/xlink" width="64" height="64" version="1.1" viewBox="0 0 48 48"><g id="surface1025178"><path fill="#8BC34A" fill-opacity="1" fill-rule="nonzero" stroke="none" d="M 24 25 C 23.398438 25 23 24.5 23 24 C 23 23.898438 23.101562 18.398438 19.699219 16.300781 C 19.199219 16 19.101562 15.398438 19.398438 14.898438 C 19.699219 14.398438 20.300781 14.300781 20.800781 14.601562 C 25.199219 17.398438 25.101562 23.800781 25.101562 24.101562 C 25 24.601562 24.5 25 24 25 Z M 24 25"/><path fill="#8BC34A" fill-opacity="1" fill-rule="nonzero" stroke="none" d="M 20.199219 7 C 15.398438 4.601562 7.898438 7.300781 6 8 C 8.800781 9.699219 8.398438 18.898438 13.5 20.601562 C 17.101562 21.800781 19.898438 20.398438 20.199219 15.398438 C 24.199219 13.101562 23.601562 8.699219 20.199219 7 Z M 24 28 C 23.398438 28 23 27.601562 23 27 L 23 24 C 23 16.199219 28.800781 15 28.800781 15 C 29.300781 14.898438 29.898438 15.300781 30 15.800781 C 30.101562 16.300781 29.699219 16.898438 29.199219 17 C 29 17 25 17.898438 25 24 L 25 27 C 25 27.601562 24.601562 28 24 28 Z M 24 28"/><path fill="#8BC34A" fill-opacity="1" fill-rule="nonzero" stroke="none" d="M 30.199219 8.300781 C 34.601562 6.898438 40.601562 11 42 12 C 39.398438 13 37.699219 21.300781 33.101562 21.898438 C 29.898438 22.300781 28.199219 20.601562 29 16 C 25.398438 13.199219 27.101562 9.199219 30.199219 8.300781 Z M 30.199219 8.300781"/><path fill="#689F38" fill-opacity="1" fill-rule="nonzero" stroke="none" d="M 13.5 20.601562 C 8.398438 18.898438 8.800781 9.699219 6 8 C 8.5 8.199219 12.101562 10.398438 20.199219 15.398438 C 19.898438 20.398438 17.199219 21.800781 13.5 20.601562 Z M 33.199219 21.898438 C 37.699219 21.300781 39.398438 13 42.101562 12 C 40 11.699219 36.699219 12.898438 29.101562 16 C 27.398438 20.5 29.898438 22.398438 33.199219 21.898438 Z M 33.199219 21.898438"/><path fill="#E64A19" fill-opacity="1" fill-rule="nonzero" stroke="none" d="M 13 27 L 16 42 L 32 42 L 35 27 Z M 13 27"/><path fill="#BF360C" fill-opacity="1" fill-rule="nonzero" stroke="none" d="M 35 30 L 13 30 C 12.398438 30 12 29.5 12 29 L 12 25 L 36 25 L 36 29 C 36 29.5 35.5 30 35 30 Z M 35 30"/><path fill="#43A047" fill-opacity="1" fill-rule="nonzero" stroke="none" d="M 48 38 C 48 43.5 43.5 48 38 48 C 32.5 48 28 43.5 28 38 C 28 32.5 32.5 28 38 28 C 43.5 28 48 32.5 48 38"/><path fill="#FFF" fill-opacity="1" fill-rule="nonzero" stroke="none" d="M 44 36 L 40 36 L 40 32 L 36 32 L 36 36 L 32 36 L 32 40 L 36 40 L 36 44 L 40 44 L 40 40 L 44 40 Z M 44 36"/></g></svg>