<svg xmlns="http://www.w3.org/2000/svg" viewBox="0 0 48 48" width="48" height="48"><path fill="#e39d36" d="M32.4,29.1l-13.2,7.8c0,0,3.1,4,3.1,4l12.6-7.6c1.2-0.7,1.5-2.2,0.8-3.3 C35.1,28.8,33.6,28.4,32.4,29.1"/><path fill="#689f38" d="M32.7,13.2C31.1,8.5,23.8,5.7,22,5c0.8,2.9-4.8,8.8-2.5,13.2c1.6,3.1,4.6,4,8,0.8 C31.3,19.9,33.9,16.5,32.7,13.2z"/><path fill="#8bc34a" d="M27,26C27,26,27,26,27,26c-0.6,0-1-0.5-1-1.1c0-0.1,0.5-7.9-2.9-11.7c-0.4-0.4-0.3-1,0.1-1.4 c0.4-0.4,1-0.3,1.4,0.1c3.9,4.5,3.4,12.8,3.4,13.2C28,25.6,27.5,26,27,26z"/><path fill="#8bc34a" d="M19.6,18.2C17.3,13.8,22.8,7.9,22,5c1.5,1.7,3.5,5.5,5.5,14c0,0,0,0,0,0 C24.1,22.2,21.2,21.3,19.6,18.2z"/><path fill="#795548" d="M27 27c0 1.7-1.3 3-3 3s-3-1.3-3-3 1.3-3 3-3S27 25.3 27 27zM33 32c0 1.7-1.3 3-3 3s-3-1.3-3-3 1.3-3 3-3S33 30.3 33 32z"/><path fill="#795548" d="M30 29c0-1.7-1.6-3-3.5-3S23 27.3 23 29s1.6 3 3.5 3S30 30.7 30 29zM23 28c0 1.7-1.3 3-3 3s-3-1.3-3-3 1.3-3 3-3S23 26.3 23 28z"/><path fill="#795548" d="M31 26.5c0 1.4-1.1 2.5-2.5 2.5S26 27.9 26 26.5s1.1-2.5 2.5-2.5S31 25.1 31 26.5zM36 30c0 1.1-.9 2-2 2s-2-.9-2-2 .9-2 2-2S36 28.9 36 30z"/><path fill="#795548" d="M34,27.5c0,1.4-1.1,2.5-2.5,2.5S29,28.9,29,27.5s1.1-2.5,2.5-2.5S34,26.1,34,27.5z"/><path fill="#ffb74d" d="M38.9,30.4l-12.4,7.3c0,0,0,0,0,0l-5.9-3.4l2.9,1.6c1.3,0.7,2.9,0.5,3.9-0.6 c1.3-1.5,0.9-3.8-0.8-4.7l-12.4-6.8c-1.1-0.6-2.5-0.6-3.7,0L5,27.1c0,0,0,0,0,0.1v10.7l4-2.6l15.1,8.2c1.2,0.6,2.6,0.6,3.8-0.1 l13.8-8.3c1.3-0.8,1.7-2.4,0.9-3.7C41.9,30.1,40.2,29.7,38.9,30.4"/><path fill="#eda740" d="M27.5,35.4c-0.7,0.9-1.9,1.2-3,1l-0.2,0.1l2.2,1.3l12.4-7.3c0.1-0.1,0.2-0.1,0.3-0.1 c-0.7-1.1-2.1-1.4-3.2-0.7l-7.8,4.6C28,34.6,27.8,35,27.5,35.4z"/><path fill="#eda740" d="M26.5,37.8L26.5,37.8l-1.3-0.9l-10.7-6l8,6.6C23.7,38.4,25.2,38.5,26.5,37.8"/><path fill="#ffcc80" d="M24.4,35.2c-0.9-0.5-0.6-1.3-0.1-2.2c0.5-0.9,0.9-1.6,1.8-1.1s1.3,1.6,0.8,2.5 C26.5,35.3,25.4,35.6,24.4,35.2"/></svg>