<?xml version="1.0" encoding="utf-8"?>
<!-- Generator: Adobe Illustrator 20.0.0, SVG Export Plug-In . SVG Version: 6.00 Build 0)  -->
<svg version="1.1" id="Layer_1" xmlns="http://www.w3.org/2000/svg" xmlns:xlink="http://www.w3.org/1999/xlink" x="0px" y="0px"
	 viewBox="0 0 200 200" style="enable-background:new 0 0 200 200;" xml:space="preserve">
<style type="text/css">
	.st0{fill:#BF793A;stroke:#590000;stroke-width:4;stroke-miterlimit:10;}
	.st1{fill:#528B1C;stroke:#123C08;stroke-width:3;stroke-miterlimit:10;}
	.st2{fill:#BF793A;stroke:#590000;stroke-width:4;stroke-linecap:round;stroke-miterlimit:10;}
	.st3{fill:#FDE270;}
	.st4{fill:#FBDE74;}
	.st5{fill:#F8D96C;}
	.st6{fill:#F5D464;}
	.st7{fill:#F2CF5C;}
	.st8{fill:#EFCA54;}
	.st9{fill:#D50000;}
	.st10{fill:#ED3A00;}
	.st11{fill:#D50000;stroke:#590000;stroke-width:6;stroke-miterlimit:10;}
	.st12{fill:#487E41;}
	.st13{fill:#123C08;}
	.st14{fill:#D50000;stroke:#590000;stroke-width:3;stroke-miterlimit:10;}
	.st15{fill:none;stroke:#FFFFFF;stroke-linecap:round;stroke-miterlimit:10;}
	.st16{fill:#FFFFFF;}
	.st17{fill:#7FC731;stroke:#246901;stroke-width:3;stroke-miterlimit:10;}
	.st18{fill:#7FC731;stroke:#246901;stroke-linecap:round;stroke-miterlimit:10;}
	.st19{fill:none;stroke:#246901;stroke-linecap:round;stroke-miterlimit:10;}
	.st20{fill:#292F37;}
	.st21{fill:#577B1D;}
	.st22{fill:#AD2F26;}
	.st23{fill:#264415;}
	.st24{fill:#539243;}
	.st25{fill:#7F415B;}
	.st26{fill:#246901;}
	.st27{fill:#8A1100;}
	.st28{fill:#5EC865;}
	.st29{fill:#007500;}
	.st30{fill:#FF3D50;}
	.st31{fill:none;stroke:#246901;stroke-linecap:round;stroke-linejoin:round;stroke-miterlimit:10;}
	.st32{fill:none;stroke:#FFFFFF;stroke-linecap:round;stroke-linejoin:round;stroke-miterlimit:10;}
	.st33{fill:#FF3D50;stroke:#CC3248;stroke-miterlimit:10;}
	.st34{fill:none;stroke:#007500;stroke-linecap:round;stroke-linejoin:round;stroke-miterlimit:10;}
	.st35{fill:none;stroke:#264415;stroke-linecap:round;stroke-linejoin:round;stroke-miterlimit:10;}
	.st36{fill:#528B1C;}
	.st37{fill:#20420B;}
	.st38{fill:#314773;}
	.st39{fill:#7389B5;}
	.st40{fill:#528B1C;stroke:#20420B;stroke-linecap:round;stroke-linejoin:round;stroke-miterlimit:10;}
	.st41{fill:none;stroke:#314773;stroke-linejoin:round;stroke-miterlimit:10;}
	.st42{fill:#00FFFF;}
	.st43{fill:#22B473;stroke:#184C28;stroke-width:3;stroke-linecap:round;stroke-linejoin:round;stroke-miterlimit:10;}
	.st44{fill:#2E368E;}
	.st45{fill:#9A0D90;}
	.st46{fill:#161542;}
	.st47{fill:#251749;}
	.st48{fill:none;stroke:#FBA954;stroke-linecap:round;stroke-linejoin:round;stroke-miterlimit:10;}
	.st49{fill:#61303F;}
	.st50{fill:#EEB683;}
	.st51{fill:#1B631A;}
	.st52{fill:#FBA954;}
	.st53{fill:#ECD8A1;}
	.st54{fill:#DC0900;stroke:#184C28;stroke-width:1.7008;stroke-miterlimit:10;}
	.st55{fill:none;stroke:#007500;stroke-width:2;stroke-linecap:round;stroke-miterlimit:10;}
	.st56{fill:#F10A00;stroke:#8A1100;stroke-miterlimit:10;}
	.st57{fill:none;stroke:#007500;stroke-width:3;stroke-linecap:round;stroke-miterlimit:10;}
	.st58{fill:#F10A00;}
	.st59{fill:#7389B5;stroke:#314773;stroke-miterlimit:10;}
	.st60{fill:none;stroke:#314773;stroke-miterlimit:10;}
	.st61{opacity:0.4;fill:#314773;}
	.st62{fill:#7389B5;stroke:#314773;stroke-linecap:round;stroke-linejoin:round;stroke-miterlimit:10;}
	.st63{fill:#8BA3CD;stroke:#314773;stroke-miterlimit:10;}
	.st64{fill:#5A7098;}
	.st65{fill:none;stroke:#FFFFFF;stroke-width:8;stroke-linecap:round;stroke-linejoin:round;stroke-miterlimit:10;}
	.st66{fill:#FF3D50;stroke:#AD2F26;stroke-miterlimit:10;}
	.st67{fill:#FF3D50;stroke:#CC3248;stroke-width:1.058;stroke-miterlimit:10;}
	.st68{fill:#539243;stroke:#246901;stroke-width:3;stroke-linejoin:round;stroke-miterlimit:10;}
	.st69{clip-path:url(#SVGID_2_);}
	.st70{fill:url(#SVGID_3_);}
	.st71{fill:none;stroke:#CC652B;stroke-width:1.4939;stroke-linecap:round;stroke-miterlimit:10;}
	.st72{fill:none;stroke:#CC652B;stroke-width:0.8407;stroke-miterlimit:10;}
	.st73{fill:#F9C153;}
	.st74{fill:#FC7351;stroke:#CC652B;stroke-width:3;stroke-miterlimit:10;}
	.st75{fill:none;stroke:#994A22;stroke-linecap:round;stroke-miterlimit:10;}
	.st76{fill:none;stroke:#F9C153;stroke-width:3;stroke-linecap:round;stroke-miterlimit:10;}
	.st77{opacity:0.8;fill:none;stroke:#F9C153;stroke-width:3;stroke-linecap:round;stroke-miterlimit:10;}
	.st78{opacity:0.6;fill:none;stroke:#F9C153;stroke-width:3;stroke-linecap:round;stroke-miterlimit:10;}
	.st79{opacity:0.4;fill:none;stroke:#F9C153;stroke-width:3;stroke-linecap:round;stroke-miterlimit:10;}
	.st80{opacity:0.2;fill:none;stroke:#F9C153;stroke-width:3;stroke-linecap:round;stroke-miterlimit:10;}
	.st81{fill:none;stroke:#994A22;stroke-width:3;stroke-miterlimit:10;}
	.st82{fill:#7FC731;stroke:#246901;stroke-width:3;stroke-linecap:round;stroke-linejoin:round;stroke-miterlimit:10;}
	.st83{fill:none;stroke:#ADD980;stroke-linecap:round;stroke-linejoin:round;stroke-miterlimit:10;}
	.st84{fill:#ADD980;}
	.st85{fill:#FC7351;}
	.st86{fill:#F8B05C;}
	.st87{fill:#F8A15A;}
	.st88{fill:#F99259;}
	.st89{fill:#F98357;}
	.st90{fill:#994A22;}
	.st91{fill:#7FC731;}
	.st92{fill:#FDE3DD;}
	.st93{fill:#F8B413;stroke:#7A4100;stroke-width:6;stroke-miterlimit:10;}
	.st94{fill:#487E41;stroke:#123C08;stroke-width:3;stroke-linecap:round;stroke-miterlimit:10;}
	.st95{opacity:0.8;fill:none;stroke:#FFFFFF;stroke-linecap:round;stroke-miterlimit:10;}
	.st96{fill:none;stroke:#123C08;stroke-linecap:round;stroke-miterlimit:10;}
	.st97{opacity:0.8;fill:#FFFFFF;}
	.st98{fill:#F8B413;stroke:#7A4100;stroke-miterlimit:10;}
	.st99{opacity:0.7;fill:none;stroke:#FFFFFF;stroke-linecap:round;stroke-miterlimit:10;}
	.st100{fill:none;stroke:#7A4100;stroke-linecap:round;stroke-miterlimit:10;}
	.st101{opacity:0.7;fill:none;stroke:#AD2F26;stroke-width:3;stroke-linecap:round;stroke-miterlimit:10;}
	.st102{opacity:0.5;fill:none;stroke:#AD2F26;stroke-width:3;stroke-linecap:round;stroke-miterlimit:10;}
	.st103{opacity:0.3;fill:none;stroke:#AD2F26;stroke-width:3;stroke-linecap:round;stroke-miterlimit:10;}
	.st104{opacity:0.1;fill:none;stroke:#AD2F26;stroke-width:3;stroke-linecap:round;stroke-miterlimit:10;}
	.st105{opacity:0.7;fill:#FFFFFF;}
	.st106{fill:#DAE5D9;}
	.st107{fill:#F8B413;}
	.st108{fill:#FCE8BB;}
	.st109{fill:#C25729;}
	.st110{fill:#D1722A;}
	.st111{fill:#E08B2C;}
	.st112{fill:#EFA62E;}
	.st113{fill:#7A4100;}
	.st114{fill:none;stroke:#487E41;stroke-width:2;stroke-miterlimit:10;}
	.st115{fill:#D50000;stroke:#590000;stroke-miterlimit:10;}
	.st116{fill:#6BB25F;}
	.st117{fill:#590000;}
	.st118{fill:#7F0603;}
	.st119{fill:#BF793A;stroke:#590000;stroke-width:3;stroke-miterlimit:10;}
	.st120{fill:none;stroke:#590000;stroke-linecap:round;stroke-miterlimit:10;}
	.st121{fill:none;stroke:#590000;stroke-miterlimit:10;}
	.st122{fill:#BF793A;stroke:#590000;stroke-width:3;stroke-linecap:round;stroke-miterlimit:10;}
	.st123{fill:#6EB226;}
	.st124{fill:none;stroke:#123C08;stroke-width:3;stroke-miterlimit:10;}
	.st125{fill:#BF793A;}
	.st126{fill:#970231;stroke:#590000;stroke-width:3;stroke-miterlimit:10;}
	.st127{fill:#AF96CB;}
	.st128{fill:#9C325F;}
	.st129{opacity:0.5;fill:#AF96CB;}
	.st130{fill:none;stroke:#590000;stroke-width:3;stroke-miterlimit:10;}
	.st131{fill:#D23841;}
	.st132{fill:none;stroke:#9C325F;stroke-miterlimit:10;}
	.st133{fill:#5A9800;stroke:#225A00;stroke-width:3;stroke-linecap:round;stroke-linejoin:round;stroke-miterlimit:10;}
	.st134{opacity:0.4;fill:none;stroke:#FFFFFF;stroke-linecap:round;stroke-linejoin:round;stroke-miterlimit:10;}
	.st135{fill:none;stroke:#225A00;stroke-linecap:round;stroke-linejoin:round;stroke-miterlimit:10;}
	.st136{opacity:0.4;fill:#FFFFFF;}
	.st137{fill:#970231;}
	.st138{opacity:0.5;}
	.st139{fill:#DFB3C1;}
	.st140{fill:#5A9800;}
	.st141{fill:#9DC06B;}
	.st142{fill:#225A00;}
</style>
<g>
	<g>
		<path class="st137" d="M149.5,50.9c32.4,32.4,32.9,84.6,1,116.5s-84,31.4-116.5-1C5,137.3,0,108.7,12.3,85.6
			c9.5-17.7,30.2-26.2,30.2-26.2S50,39.1,67.6,29.5C93.3,15.4,120.1,21.5,149.5,50.9z"/>
		<path class="st117" d="M93.3,196c-0.3,0-0.5,0-0.8,0c-23.3-0.2-45.3-9.5-61.9-26.1c-39.1-39.1-31-71-22.6-86.6
			c8.5-16,25.1-24.9,30.8-27.6c2.5-5.7,10.7-21.9,26.6-30.6c28.1-15.4,57.6-7.9,87.8,22.3l0,0c34.3,34.3,34.8,89.8,1,123.5
			C137.9,187.1,116.3,196,93.3,196z M94.1,27.3C86,27.3,78,29.5,70,33.8c-15.7,8.6-22.7,27.1-22.8,27.3l-0.8,2.1l-2,0.8
			c-0.2,0.1-19.3,8.1-27.7,23.9c-12.1,22.7-4.7,49.3,20.9,74.9c14.8,14.8,34.3,23,55,23.2c20.7,0.2,40-7.7,54.4-22.1
			c29.9-29.9,29.4-79-1-109.4l0,0C127.9,36.3,110.7,27.3,94.1,27.3z"/>
	</g>
	<g>
		<path class="st127" d="M146.2,171.4c-29.6-9.9-59.2-19.8-88.9-29.8c-8.5-2.9-14.4,3-15.5,9.9c-0.6,3.6-4.1,6-7.7,5.3
			c0,0-0.1,0-0.1,0c-3-0.6-5.7-0.2-8,0.8c2.4,2.9,5,5.8,8,8.7C65.1,197.4,114.1,199.2,146.2,171.4z"/>
	</g>
	<g>
		<path class="st128" d="M155.1,162.8c-2.8,4-7.1,6.5-11,9.2c-34-11.7-68-23.5-101.9-35.2c-15.9-5.5-9.3-30.9,6.6-25.4
			c5.5,1.9,10.9,3.8,16.4,5.7c4,1.4,8.1-1,9.3-5.1c1.8-6.1,7.4-11.1,15.4-8.9c10.5,2.9,21,5.8,31.4,8.9c3.7,1.1,7.4-1,8.8-4.6
			c2.2-5.5,7.4-9.3,14.7-6.7c9.2,3.3,18.4,6.4,27.7,9.5C172.4,110.2,169.2,143,155.1,162.8z"/>
	</g>
	<g>
		<path class="st128" d="M16.4,83.1c1.7,1.4,3.8,2.2,6.1,2.3c10.1,0.4,29.7,4.1,30,4.2c14.1,2.7,17.5-2.3,18.1-6.5
			c0.4-2.7,2.2-4.9,4.5-6.3c3.7-2.1,6.4-5.9,6.9-10c0.9-7.4-4.4-13.3-11.4-14.6c-7-1.4-14-2.7-21-4.1L16.4,83.1z"/>
	</g>
	<g>
		<path class="st127" d="M67.6,29.5c-9.5,5.2-16,13.4-20,19.9c2.2,2,5,3.4,8.7,3.5c16.2,0.7,32,5.4,47.5,10.1
			c9.1,2.8,15.1-4.3,15.5-11.8c0.2-3.7,3.6-6.4,7.2-5.5c8.3,2.1,16.5,4.5,24.6,7.1c0,0,0,0,0,0C121.2,21.8,93.8,15.2,67.6,29.5z"/>
	</g>
	<g class="st138">
		<path class="st127" d="M100.8,72.6c-6.4,6.4,3.5,16.3,9.9,9.9C117.1,76.2,107.2,66.2,100.8,72.6z"/>
	</g>
	<g>
		<path class="st139" d="M24.6,100.4c-0.2,0-0.4,0-0.6-0.1c-0.9-0.3-1.3-1.3-1-2.1c0.7-1.9,1.5-3.8,2.5-5.6c1.8-3.3,4.4-6.5,7.7-9.6
			c0.7-0.6,1.7-0.6,2.4,0.1c0.6,0.7,0.6,1.7-0.1,2.4c-3.1,2.8-5.5,5.8-7,8.7c-0.9,1.7-1.6,3.4-2.2,5.1C26,100,25.3,100.4,24.6,100.4
			z"/>
	</g>
	<path class="st117" d="M153,47.4C122.9,17.2,93.3,9.7,65.2,25.1c-11.9,6.5-19.4,17.1-23.5,24.5c-2.1,3.8-5.3,7-9.1,9.3
		c-7.5,4.4-18.4,12.4-24.8,24.4c-8.3,15.6-16.4,47.6,22.6,86.6c16.6,16.6,38.6,25.9,61.9,26.1c0.3,0,0.5,0,0.8,0
		c23,0,44.6-8.9,60.8-25.1C187.8,137.2,187.4,81.7,153,47.4z M70,33.8c7.9-4.5,16-6.5,24.1-6.5c16.6,0,33.7,9,51.8,27.1
		c30.5,30.5,30.9,79.5,1,109.4c-14.5,14.5-33.8,22.3-54.4,22.1c-20.7-0.2-40.2-8.4-55-23.2C12,137.3,4.6,110.7,16.7,88
		c4.2-7.8,10.9-13.7,16.7-17.7c6.1-3.6,13.4-5.2,21.4-4.4c10.9,1,21.6,6.2,30.1,14.7c0.3,0.3,0.8,0.5,1.2,0.5c0.5,0,0.9-0.2,1.3-0.6
		c0.6-0.7,0.5-1.7-0.2-2.3c-9-9-20.4-14.5-32-15.5c-1.1-0.1-2.3-0.2-3.4-0.2c-2.4,0-3.9-2.5-2.9-4.6C51.9,51.4,58.6,40.4,70,33.8z"
		/>
	<g>
		
			<ellipse transform="matrix(0.5793 -0.8151 0.8151 0.5793 -30.3569 146.1178)" class="st131" cx="126.4" cy="102.5" rx="2.8" ry="2.8"/>
	</g>
	<g>
		
			<ellipse transform="matrix(0.5793 -0.8151 0.8151 0.5793 -14.9574 149.5753)" class="st131" cx="137.4" cy="89.3" rx="2.8" ry="2.8"/>
	</g>
	<g>
		
			<ellipse transform="matrix(0.5793 -0.8151 0.8151 0.5793 -27.1023 161.7322)" class="st131" cx="143.1" cy="107.1" rx="2.8" ry="2.8"/>
	</g>
	<path class="st140" d="M194,63.5c-7.4-21-23.3-38.8-45.4-48.1C106.9-2.1,59,17.5,41.5,59.2l0,0C55,53,70.2,51.3,84.8,54.4l21.8,4.6
		c7.5,1.6,15.3,1.9,22.9,1l24.9-3.1c11.9-1.5,24.1,0.2,35.2,4.8L194,63.5z"/>
	<g>
		<path class="st141" d="M94.1,25c-0.7,0-1.3-0.4-1.6-1.1c-0.3-0.9,0.2-1.8,1-2.1c3.5-1.2,7.1-2.1,10.7-2.8c5.4-1,10.9-1.3,16.3-1
			c0.9,0,1.6,0.8,1.6,1.7c0,0.9-0.8,1.6-1.8,1.6c-5.2-0.3-10.4,0-15.6,1c-3.4,0.6-6.9,1.5-10.2,2.6C94.5,25,94.3,25,94.1,25z"/>
	</g>
	<path class="st142" d="M198.7,61.8c-8.2-23-25.7-41.6-48.2-51c-21.4-9-45-9.1-66.4-0.3c-21.5,8.8-38.2,25.4-47.2,46.8
		c-0.8,1.9-0.3,4.1,1.1,5.5c1.5,1.4,3.7,1.8,5.6,1C56,58,70.3,56.4,83.8,59.3l21.8,4.6c8.1,1.7,16.3,2.1,24.5,1l24.9-3.1
		c11.1-1.4,22.4,0.2,32.7,4.4l4.5,1.9c0.6,0.3,1.3,0.4,1.9,0.4c1.3,0,2.5-0.5,3.4-1.4C198.9,65.8,199.4,63.7,198.7,61.8z
		 M153.7,51.9L128.8,55c-7.1,0.9-14.2,0.6-21.2-0.9l-21.8-4.6c-5-1.1-10.1-1.6-15.3-1.6c-2.8,0-5.6,0.2-8.3,0.5
		c-1.6,0.2-2.3-2-0.9-2.8c21.3-12.8,52.5-19.8,85.2-9.6c0.9,0.3,1.8-0.2,2.1-1.1c0.3-0.9-0.2-1.8-1.1-2.1
		c-33.5-10.4-65.4-3.5-87.4,9.6c-1.1,0.6-2.3-0.7-1.4-1.7c7.8-9.1,17.8-16.3,29.2-21c19-7.8,39.9-7.7,58.8,0.3
		c16.3,6.8,29.7,19.2,38,34.6C174.6,51.6,164.1,50.6,153.7,51.9z"/>
	<g>
		<path class="st141" d="M101,37.3c-0.8,0-1.5-0.6-1.6-1.5c-0.1-0.9,0.5-1.7,1.4-1.9c2.5-0.3,4.9-0.6,7.4-0.7
			c0.9-0.1,1.7,0.6,1.8,1.6c0.1,0.9-0.6,1.7-1.6,1.8c-2.4,0.1-4.8,0.4-7.2,0.7C101.1,37.3,101,37.3,101,37.3z"/>
	</g>
	<g>
		
			<ellipse transform="matrix(0.9846 -0.1748 0.1748 0.9846 -4.3279 20.5204)" class="st141" cx="114.3" cy="34.8" rx="1.8" ry="1.8"/>
	</g>
	<g>
		
			<ellipse transform="matrix(0.9846 -0.1748 0.1748 0.9846 -3.0967 15.8806)" class="st141" cx="88.6" cy="25.5" rx="1.8" ry="1.8"/>
	</g>
	<g>
		<circle class="st139" cx="22.8" cy="106.3" r="2.1"/>
	</g>
</g>
</svg>
