<?xml version="1.0" encoding="utf-8"?>
<!-- Generator: Adobe Illustrator 20.1.0, SVG Export Plug-In . SVG Version: 6.00 Build 0)  -->
<svg version="1.1" id="Layer_1" xmlns="http://www.w3.org/2000/svg" xmlns:xlink="http://www.w3.org/1999/xlink" x="0px" y="0px"
	 viewBox="0 0 500 500" style="enable-background:new 0 0 500 500;" xml:space="preserve">
<style type="text/css">
	.st0{fill:#164E16;stroke:#071907;stroke-width:3;stroke-miterlimit:10;}
	.st1{fill:#7C9800;stroke:#164E16;stroke-width:5;stroke-linejoin:round;stroke-miterlimit:10;}
	.st2{fill:#FFD003;stroke:#D17D01;stroke-width:3;stroke-miterlimit:10;}
	.st3{fill:#00FFFF;}
	.st4{fill:#7C9800;}
	.st5{fill:#164E16;}
	.st6{fill:#F22F2E;}
	.st7{fill:#F22F2E;stroke:#7B000E;stroke-width:3;stroke-miterlimit:10;}
	.st8{fill:none;stroke:#FFFFFF;stroke-linecap:round;stroke-linejoin:round;stroke-miterlimit:10;}
	.st9{fill:none;stroke:#FFFFFF;stroke-linecap:round;stroke-miterlimit:10;}
	.st10{fill:#FFFFFF;}
	.st11{fill:none;stroke:#7B000E;stroke-linecap:round;stroke-linejoin:round;stroke-miterlimit:10;}
	.st12{fill:none;stroke:#7B000E;stroke-linecap:round;stroke-miterlimit:10;}
	.st13{fill:#7B000E;}
	.st14{fill:#4D831C;}
	.st15{fill:#2A481D;}
	.st16{fill:#FF7A00;}
	.st17{fill:#FF7A00;stroke:#F44500;stroke-width:3;stroke-miterlimit:10;}
	.st18{fill:none;stroke:#F44500;stroke-linecap:round;stroke-linejoin:round;stroke-miterlimit:10;}
	.st19{fill:#FF7A00;stroke:#F44500;stroke-linecap:round;stroke-linejoin:round;stroke-miterlimit:10;}
	.st20{fill:#F44500;}
	.st21{fill:#8BA00D;stroke:#164E16;stroke-width:3;stroke-linejoin:round;stroke-miterlimit:10;}
	.st22{clip-path:url(#SVGID_2_);}
	.st23{fill:#F40000;stroke:#7B000E;stroke-width:3;stroke-miterlimit:10;}
	.st24{fill:#7DB34C;stroke:#164E16;stroke-width:3;stroke-miterlimit:10;}
	.st25{fill:none;stroke:#164E16;stroke-miterlimit:10;}
	.st26{fill:none;stroke:#7B000E;stroke-width:3;stroke-miterlimit:10;}
	.st27{fill:#A7C92B;stroke:#164E16;stroke-width:3;stroke-miterlimit:10;}
	.st28{fill:none;stroke:#164E16;stroke-linecap:round;stroke-miterlimit:10;}
	.st29{fill:#8BA00D;}
	.st30{fill:#999999;}
	.st31{fill:#A7C92B;}
	.st32{fill:none;stroke:#FEA502;stroke-linecap:round;stroke-linejoin:round;stroke-miterlimit:10;}
	.st33{fill:#FFD003;}
	.st34{fill:#D17D01;}
	.st35{fill:#FEA502;}
	.st36{fill:#4D831C;stroke:#2A481D;stroke-width:3;stroke-linecap:round;stroke-linejoin:round;stroke-miterlimit:10;}
	.st37{fill:#FA6200;stroke:#D54300;stroke-width:3;stroke-miterlimit:10;}
	.st38{fill:#FA6200;stroke:#D54300;stroke-linecap:round;stroke-miterlimit:10;}
	.st39{fill:none;stroke:#F44500;stroke-linecap:round;stroke-miterlimit:10;}
	.st40{fill:#FF9D00;stroke:#E6681E;stroke-linecap:round;stroke-miterlimit:10;}
	.st41{fill:#F97306;}
	.st42{fill:#D54300;}
	.st43{fill:#7DB34C;stroke:#44712A;stroke-width:3;stroke-miterlimit:10;}
	.st44{fill:none;stroke:#44712A;stroke-miterlimit:10;}
	.st45{fill:#7DB34C;}
	.st46{fill:#40760E;}
	.st47{fill:none;stroke:#071907;stroke-miterlimit:10;}
	.st48{fill:none;stroke:#071907;stroke-linecap:round;stroke-linejoin:round;stroke-miterlimit:10;}
	.st49{fill:#071907;}
	.st50{fill:#44712A;}
	.st51{fill:#6E905E;}
	.st52{fill:#456A0A;}
	.st53{fill:#183300;}
	.st54{fill:#FF2214;}
	.st55{fill:#661900;}
	.st56{fill:#FFDC00;}
	.st57{fill:#7C9800;stroke:#164E16;stroke-width:3;stroke-miterlimit:10;}
	.st58{fill:none;stroke:#D17D01;stroke-width:0.75;stroke-miterlimit:10;}
	.st59{fill:#7C9800;stroke:#164E16;stroke-linejoin:round;stroke-miterlimit:10;}
	.st60{fill:none;stroke:#164E16;stroke-linejoin:round;stroke-miterlimit:10;}
	.st61{fill:#8A9D1F;}
	.st62{fill:#1B4700;}
	.st63{fill:none;stroke:#7C9800;stroke-width:3;stroke-linecap:round;stroke-linejoin:round;stroke-miterlimit:10;}
	.st64{opacity:0.6;fill:none;stroke:#FFFFFF;stroke-linecap:round;stroke-miterlimit:10;}
	.st65{fill:none;stroke:#7B000E;stroke-miterlimit:10;}
	.st66{opacity:0.4;fill:none;stroke:#FFFFFF;stroke-linecap:round;stroke-linejoin:round;stroke-miterlimit:10;}
	.st67{fill:none;stroke:#FFFFFF;stroke-width:7.8511;stroke-linecap:round;stroke-miterlimit:10;}
	.st68{fill:#B0C06B;}
	.st69{fill:#F8ACAC;}
	.st70{fill:none;stroke:#FFFFFF;stroke-width:7.7562;stroke-linecap:round;stroke-miterlimit:10;}
	.st71{opacity:0.3;}
	.st72{fill:#6EA336;}
	.st73{opacity:0.3;fill:#7B000E;}
	.st74{opacity:0.2;fill:none;stroke:#2A481D;stroke-linecap:round;stroke-linejoin:round;stroke-miterlimit:10;}
	.st75{fill:#CC242B;}
	.st76{fill:#5B8734;}
</style>
<path class="st5" d="M456.1,164.8c-6.5-9.5-20.2-21.6-35-31.4c-1.9-1.3-3.8-2.6-5.7-4c7.8-15.7,22.1-41.4,41.4-60.7
	c0-17.3-16.8-33.2-33.2-33.2c-19.2,19.2-44.2,33.3-59.9,41.1c-1.4-2-2.8-4-4.2-6.1c-8.7-13.5-20.1-24.4-27.8-31.6
	C315.1,23.4,269,1.8,246.1,24.6c-98.3,98.3-143,263.7-225.7,401.6c-10.6,17.7-6.5,35.8,4.5,46.7c12.6,12.6,27.8,14.9,46.1,9.9
	c90.5-24.9,246.8-86.7,396.7-236.6C491.4,222.6,476,194.2,456.1,164.8z"/>
<polygon class="st14" points="381.7,111.4 407,132.4 459.3,61.1 429.3,35.4 359.3,79.1 "/>
<path class="st49" d="M489.6,204.9c-3.9-15.9-13.8-31.8-23.9-46.6v0c-5.4-8-14.9-17.3-26.3-26.1c-5.1-4-6.5-11.1-3.2-16.7
	c7.4-12.5,17.2-26.8,28.8-38.4l0,0c2.2-2.2,3.4-5.2,3.4-8.3v0c0-24.7-20.2-44.9-44.9-44.9h0c-3.1,0-6.1,1.2-8.3,3.4l0,0
	c-11.4,11.4-25,21-37.6,28.4c-5.5,3.3-12.6,2-16.6-2.9c-8.1-10.1-16.7-18-21.4-22.4c-11-10.2-28.8-19.7-45.4-24.3
	c-23.4-6.4-43.5-2.8-56.5,10.2C174.9,79.3,134.5,166.9,91.6,259.6C66.8,313.4,41.1,369,10.4,420.2c-12.3,20.5-9.8,45,6.2,61
	c10.5,10.5,23.1,15.7,37.8,15.7c6.2,0,12.8-0.9,19.7-2.9c60-16.5,120.1-40.9,178.5-72.4C333.6,378,408.7,321.8,476,254.5
	C489.8,240.7,494.3,224,489.6,204.9z M390.4,75.4c11-6.9,22.9-14.8,33.8-24.4c2.5-2.2,6.1-2.6,9-0.9c3.6,2.2,6.9,5.4,9,9
	c1.7,2.9,1.3,6.5-0.9,9c-9.2,10.5-17.3,21.9-23.8,32.9c-3.8,6.5-7.3,12.9-9.7,17.6c-2,3.7-6.9,4.6-10,1.9
	c-9.2-7.9-17.7-16.7-25.6-26.2c-2.6-3.2-1.7-8.1,2-10C378.9,82.1,385.1,78.7,390.4,75.4z M400.5,133.2l9.4,6.7
	c1.5,1.1,3.1,2.2,4.7,3.3c13.9,9.2,26.3,20.3,31.8,28.3v0c24.1,35.4,27.4,52.2,13.1,66.5c-65.7,65.7-139,120.5-217.9,163.1
	c-56.9,30.7-115.3,54.4-173.6,70.5c-15.3,4.2-25.7,2.2-34.7-6.9c-6.7-6.7-10.9-18.8-2.7-32.5c31.3-52.2,57.3-108.4,82.4-162.8
	c41.9-90.8,81.6-176.6,141.5-236.6c4.6-4.6,11.1-6.5,18.4-6.5c17.8,0,40.4,11.2,51,21.1c5.7,5.3,17.6,16.4,25.9,29.3
	c1.2,1.9,2.4,3.7,3.6,5.4l6.5,9.4l1.4,1.8C372.5,108.3,385.7,121.7,400.5,133.2L400.5,133.2z"/>
<path class="st10" d="M348.2,248.4c-1,0-2-0.4-2.8-1.2c-1.5-1.5-1.5-4,0.1-5.5c5.1-4.9,10.2-10,15.2-15c1.5-1.5,4-1.5,5.5,0
	c1.5,1.5,1.5,4,0,5.5c-5,5-10.2,10.1-15.2,15C350.2,248.1,349.2,248.4,348.2,248.4z"/>
<path class="st10" d="M281.3,310.6c-1.1,0-2.1-0.4-2.9-1.3c-1.4-1.6-1.3-4.1,0.3-5.5c16.3-14.4,32.7-29.5,48.7-44.7
	c1.6-1.5,4-1.4,5.5,0.1c1.5,1.6,1.4,4-0.1,5.5c-16.1,15.3-32.6,30.4-48.9,44.9C283.2,310.3,282.2,310.6,281.3,310.6z"/>
<path class="st10" d="M172.3,231c-0.6,0-1.1-0.1-1.7-0.4c-1.9-0.9-2.8-3.3-1.8-5.2c6.8-14.2,13-26.7,18.9-38.1
	c1-1.9,3.3-2.7,5.2-1.7c1.9,1,2.7,3.3,1.7,5.3c-5.9,11.4-12,23.8-18.8,38C175.2,230.2,173.8,231,172.3,231z"/>
<path class="st10" d="M220,140.9c-0.7,0-1.4-0.2-2-0.6c-1.8-1.1-2.4-3.5-1.3-5.4c17.1-28.2,34-51.2,51.8-70.5
	c1.5-1.6,3.9-1.7,5.5-0.2c1.6,1.5,1.7,3.9,0.2,5.5c-17.4,18.9-34,41.5-50.9,69.2C222.6,140.2,221.3,140.9,220,140.9z"/>
<path class="st49" d="M141.9,361.4c-0.6,0-1.3-0.2-1.9-0.5c-1.9-1.1-2.5-3.4-1.5-5.3c5.9-10.4,13.1-20.3,21.5-29.3
	c10-10.8,21.2-19.9,33.4-27.3c20.1-12.1,36.9-30.3,47.5-51.2c6.4-12.7,14.7-24.5,24.7-35.3c10-10.8,21.2-19.9,33.4-27.3
	c1.8-1.1,4.2-0.5,5.4,1.3c1.1,1.8,0.5,4.2-1.3,5.4c-11.5,7-22.2,15.7-31.7,25.9c-9.5,10.2-17.4,21.5-23.5,33.5
	c-11.2,22.2-29.1,41.5-50.4,54.4c-11.5,7-22.2,15.7-31.7,25.9c-8,8.6-14.8,17.9-20.4,27.8C144.5,360.7,143.2,361.4,141.9,361.4z"/>
<path class="st49" d="M330.7,165.6c-1,0-2-0.4-2.8-1.1c-1.5-1.5-1.5-4,0-5.5l19.8-19.8c1.5-1.5,4-1.5,5.5,0c1.5,1.5,1.5,4,0,5.5
	l-19.8,19.8C332.7,165.2,331.7,165.6,330.7,165.6z"/>
<ellipse transform="matrix(0.7071 -0.7071 0.7071 0.7071 -57.9693 192.2687)" class="st10" cx="203.1" cy="166.1" rx="4.8" ry="4.8"/>
</svg>
