<?xml version="1.0" encoding="utf-8"?>
<!-- Generator: Adobe Illustrator 20.0.0, SVG Export Plug-In . SVG Version: 6.00 Build 0)  -->
<svg version="1.1" id="Layer_1" xmlns="http://www.w3.org/2000/svg" xmlns:xlink="http://www.w3.org/1999/xlink" x="0px" y="0px"
	 viewBox="0 0 500 500" style="enable-background:new 0 0 500 500;" xml:space="preserve">
<style type="text/css">
	.st0{fill:#457F4A;}
	.st1{fill:#344B57;}
	.st2{fill:#75B15D;stroke:#344B57;stroke-width:3;stroke-miterlimit:10;}
	.st3{fill:#BCE680;}
	.st4{fill:#F0FDC5;}
	.st5{fill:#1B5900;}
	.st6{fill:#ADE77A;stroke:#1B5900;stroke-width:6;stroke-miterlimit:10;}
	.st7{fill:#709638;}
	.st8{display:none;fill:#D1A982;}
	.st9{fill:#ECE8DB;}
	.st10{fill:#5B3A03;}
	.st11{fill:#719E7F;stroke:#667F40;stroke-width:3;stroke-linecap:round;stroke-linejoin:round;stroke-miterlimit:10;}
	.st12{fill:#719E7F;stroke:#667F40;stroke-linecap:round;stroke-linejoin:round;stroke-miterlimit:10;}
	.st13{fill:none;stroke:#667F40;stroke-width:3;stroke-linecap:round;stroke-miterlimit:10;}
	.st14{fill:#4D6261;}
	.st15{fill:#ECE8DB;stroke:#5B3A03;stroke-width:3;stroke-miterlimit:10;}
	.st16{fill:none;stroke:#F0FDC5;stroke-linecap:round;stroke-linejoin:round;stroke-miterlimit:10;}
	.st17{fill:#8DC70C;}
	.st18{fill:#ECFE78;}
	.st19{fill:#73953B;}
	.st20{fill:#3D710C;}
	.st21{fill:#73953B;stroke:#3D710C;stroke-width:3;stroke-linejoin:round;stroke-miterlimit:10;}
	.st22{fill:#EFE8D7;stroke:#DABB95;stroke-width:3;stroke-linejoin:round;stroke-miterlimit:10;}
	.st23{opacity:0.6;fill:none;stroke:#BF71B0;stroke-width:3;stroke-miterlimit:10;}
	.st24{opacity:0.4;fill:none;stroke:#BF71B0;stroke-width:3;stroke-miterlimit:10;}
	.st25{opacity:0.3;fill:none;stroke:#BF71B0;stroke-width:3;stroke-miterlimit:10;}
	.st26{opacity:0.2;fill:none;stroke:#BF71B0;stroke-width:3;stroke-miterlimit:10;}
	.st27{opacity:0.1;fill:none;stroke:#BF71B0;stroke-width:3;stroke-miterlimit:10;}
	.st28{fill:#77A45B;}
	.st29{fill:none;stroke:#FFFFFF;stroke-linecap:round;stroke-linejoin:round;stroke-miterlimit:10;}
	.st30{fill:#00FFFF;}
	.st31{fill:#E50F4F;}
	.st32{fill:#5A8700;}
	.st33{fill:#9D9F01;}
	.st34{fill:none;stroke:#BFBF04;stroke-linecap:round;stroke-linejoin:round;stroke-miterlimit:10;}
	.st35{fill:none;stroke:#CAD058;stroke-linecap:round;stroke-linejoin:round;stroke-miterlimit:10;}
	.st36{fill:#E21039;stroke:#930019;stroke-width:3;stroke-linejoin:round;stroke-miterlimit:10;}
	.st37{fill:#77A45B;stroke:#3D710C;stroke-linecap:round;stroke-linejoin:round;stroke-miterlimit:10;}
	.st38{fill:none;stroke:#77A45B;stroke-width:3;stroke-miterlimit:10;}
	.st39{opacity:0.5;fill:none;stroke:#FFFFFF;stroke-width:3;stroke-linejoin:round;stroke-miterlimit:10;}
	.st40{opacity:0.7;fill:none;stroke:#FFFFFF;stroke-width:3;stroke-linejoin:round;stroke-miterlimit:10;}
	.st41{opacity:0.9;fill:none;stroke:#FFFFFF;stroke-width:3;stroke-linejoin:round;stroke-miterlimit:10;}
	.st42{opacity:0.3;fill:none;stroke:#FFFFFF;stroke-width:3;stroke-linejoin:round;stroke-miterlimit:10;}
	.st43{opacity:0.2;fill:none;stroke:#FFFFFF;stroke-width:3;stroke-linejoin:round;stroke-miterlimit:10;}
	.st44{fill:#E21039;}
	.st45{fill:#930019;}
	.st46{fill:#F4E5E8;}
	.st47{fill:#DEB2BA;}
	.st48{fill:#C8818D;}
	.st49{fill:#B14D5F;}
	.st50{fill:#FFFFFF;}
	.st51{fill:#EFE8D7;}
	.st52{fill:#8C7662;}
	.st53{fill:#E50F4F;stroke:#930019;stroke-width:3;stroke-linejoin:round;stroke-miterlimit:10;}
	.st54{fill:none;stroke:#E87C94;stroke-width:3;stroke-linejoin:round;stroke-miterlimit:10;}
	.st55{fill:none;stroke:#E64872;stroke-width:3;stroke-linejoin:round;stroke-miterlimit:10;}
	.st56{fill:none;stroke:#EBB2B6;stroke-width:3;stroke-linejoin:round;stroke-miterlimit:10;}
	.st57{fill:none;stroke:#930019;stroke-width:3;stroke-linejoin:round;stroke-miterlimit:10;}
	.st58{fill:#E87C94;}
	.st59{fill:#E64872;}
	.st60{fill:#EBB2B6;}
	.st61{opacity:0.7;fill:none;stroke:#E50F4F;stroke-width:3;stroke-linejoin:round;stroke-miterlimit:10;}
	.st62{opacity:0.6;fill:none;stroke:#E50F4F;stroke-width:3;stroke-linejoin:round;stroke-miterlimit:10;}
	.st63{opacity:0.4;fill:none;stroke:#E50F4F;stroke-width:3;stroke-linejoin:round;stroke-miterlimit:10;}
	.st64{opacity:0.3;fill:none;stroke:#E50F4F;stroke-width:3;stroke-linejoin:round;stroke-miterlimit:10;}
	.st65{opacity:0.2;fill:none;stroke:#E50F4F;stroke-width:3;stroke-linejoin:round;stroke-miterlimit:10;}
	.st66{opacity:0.1;fill:none;stroke:#E50F4F;stroke-width:3;stroke-linejoin:round;stroke-miterlimit:10;}
	.st67{fill:none;stroke:#DABB95;stroke-width:3;stroke-linejoin:round;stroke-miterlimit:10;}
	.st68{fill:#77A45B;stroke:#3D710C;stroke-width:0.9521;stroke-linecap:round;stroke-linejoin:round;stroke-miterlimit:10;}
	.st69{fill:#DABB95;}
	.st70{fill:#E76886;}
	.st71{fill:#E87D94;}
	.st72{fill:#E992A2;}
	.st73{fill:#EBA7AF;}
	.st74{fill:#ECBDBD;}
	.st75{fill:#EDD2CA;}
	.st76{opacity:0.6;fill:#BF71B0;}
	.st77{opacity:0.5;fill:#BF71B0;}
	.st78{opacity:0.4;fill:#BF71B0;}
	.st79{opacity:0.3;fill:#BF71B0;}
	.st80{opacity:0.2;fill:#BF71B0;}
	.st81{fill:#FCD24F;stroke:#BA8822;stroke-width:3;stroke-linejoin:round;stroke-miterlimit:10;}
	.st82{opacity:0.9;fill:none;stroke:#732429;stroke-width:3;stroke-miterlimit:10;}
	.st83{opacity:0.8;fill:none;stroke:#732429;stroke-width:3;stroke-miterlimit:10;}
	.st84{opacity:0.7;fill:none;stroke:#732429;stroke-width:3;stroke-miterlimit:10;}
	.st85{opacity:0.6;fill:none;stroke:#732429;stroke-width:3;stroke-miterlimit:10;}
	.st86{opacity:0.5;fill:none;stroke:#732429;stroke-width:3;stroke-miterlimit:10;}
	.st87{opacity:0.4;fill:none;stroke:#732429;stroke-width:3;stroke-miterlimit:10;}
	.st88{fill:none;stroke:#BA8822;stroke-width:3;stroke-linejoin:round;stroke-miterlimit:10;}
	.st89{fill:#FCD24F;}
	.st90{fill:#BA8822;}
	.st91{fill:#80352F;}
	.st92{fill:#8D4734;}
	.st93{fill:#9B5838;}
	.st94{fill:#A96A3D;}
	.st95{fill:#B77A42;}
	.st96{fill:#C48B47;}
	.st97{fill:#5B774B;}
	.st98{fill:none;stroke:#ECFE78;stroke-linecap:round;stroke-linejoin:round;stroke-miterlimit:10;}
	.st99{fill:none;stroke:#5B774B;stroke-miterlimit:10;}
	.st100{fill:none;stroke:#ECFE78;stroke-linecap:round;stroke-miterlimit:10;}
	.st101{fill:none;stroke:#5B774B;stroke-linejoin:round;stroke-miterlimit:10;}
	.st102{fill:none;stroke:#89A037;stroke-linecap:round;stroke-linejoin:round;stroke-miterlimit:10;}
	.st103{fill:none;stroke:#89A037;stroke-width:3;stroke-linecap:round;stroke-linejoin:round;stroke-miterlimit:10;}
	.st104{fill:none;stroke:#89A037;stroke-width:3.3343;stroke-linecap:round;stroke-linejoin:round;stroke-miterlimit:10;}
	.st105{fill:none;stroke:#89A037;stroke-width:3;stroke-linecap:round;stroke-miterlimit:10;}
	.st106{fill:#839958;}
	.st107{fill:#AA2F66;}
	.st108{fill:#D8CBC5;}
	.st109{fill:#662128;}
	.st110{fill:#BCE680;stroke:#5B774B;stroke-width:3.1491;stroke-miterlimit:10;}
	.st111{fill:#ECE8DB;stroke:#5B3A03;stroke-miterlimit:10;}
	.st112{fill:none;stroke:#00FF00;stroke-miterlimit:10;}
	.st113{fill:none;stroke:#00FF00;stroke-width:1.0757;stroke-miterlimit:10;}
	.st114{clip-path:url(#SVGID_2_);}
	.st115{fill:none;stroke:#000000;stroke-miterlimit:10;}
	.st116{fill:none;stroke:#000000;stroke-width:1.16;stroke-miterlimit:10;}
	.st117{fill:#7AA66D;}
	.st118{fill:#8BC133;}
	.st119{fill:none;stroke:#000000;stroke-width:0.9135;stroke-miterlimit:10;}
	.st120{fill:none;stroke:#000000;stroke-width:5.9645;stroke-miterlimit:10;}
	.st121{fill:none;stroke:#000000;stroke-width:1.9086;stroke-linecap:round;stroke-linejoin:round;stroke-miterlimit:10;}
	.st122{fill:none;stroke:#4D6261;stroke-width:0.9577;stroke-linecap:round;stroke-linejoin:round;stroke-miterlimit:10;}
	.st123{fill:#7AA66D;stroke:#4D6261;stroke-width:0.9577;stroke-miterlimit:10;}
	.st124{fill:none;stroke:#4D6261;stroke-width:0.9577;stroke-miterlimit:10;}
	.st125{fill:#D2DE8F;stroke:#667F40;stroke-width:3;stroke-miterlimit:10;}
	.st126{fill:none;stroke:#FAFAEE;stroke-linecap:round;stroke-miterlimit:10;}
	.st127{fill:#D2DE8F;}
	.st128{fill:none;stroke:#667F40;stroke-width:3;stroke-miterlimit:10;}
	.st129{fill:#77A578;}
	.st130{fill:#719E7F;}
	.st131{fill:#FAFAEE;}
	.st132{fill:#667F40;}
	.st133{fill:#ECE8DB;stroke:#5B3A03;stroke-width:0.9644;stroke-miterlimit:10;}
	.st134{fill:#7AA66D;stroke:#4D6261;stroke-width:3.6;stroke-linecap:round;stroke-linejoin:round;stroke-miterlimit:10;}
	.st135{fill:none;stroke:#D2DE8F;stroke-miterlimit:10;}
	.st136{fill:none;stroke:#4D6261;stroke-width:3.6;stroke-linecap:round;stroke-linejoin:round;stroke-miterlimit:10;}
	.st137{fill:#ECE8DB;stroke:#5B3A03;stroke-linecap:round;stroke-linejoin:round;stroke-miterlimit:10;}
	.st138{fill:#FAD673;}
	.st139{fill:#CE731F;}
	.st140{fill:#D15CD4;}
	.st141{fill:#701975;}
	.st142{fill:#009245;stroke:#006837;stroke-width:3;stroke-miterlimit:10;}
	.st143{fill:#009245;stroke:#006837;stroke-width:3;stroke-linecap:round;stroke-linejoin:round;stroke-miterlimit:10;}
	.st144{fill:none;stroke:#B8CC69;stroke-width:3;stroke-miterlimit:10;}
	.st145{fill:#4E6624;stroke:#314217;stroke-width:3;stroke-miterlimit:10;}
	.st146{fill:none;stroke:#314217;stroke-miterlimit:10;}
	.st147{fill:#4E6624;}
	.st148{fill:#709638;stroke:#3B7000;stroke-width:3;stroke-linecap:round;stroke-linejoin:round;stroke-miterlimit:10;}
	.st149{fill:#709638;stroke:#3B7000;stroke-linecap:round;stroke-linejoin:round;stroke-miterlimit:10;}
	.st150{fill:#92C057;}
	.st151{fill:#3B7000;}
	.st152{fill:#325900;}
	.st153{fill:#2A784B;stroke:#1F4130;stroke-width:3;stroke-miterlimit:10;}
	.st154{fill:none;stroke:#1F4130;stroke-linecap:round;stroke-linejoin:round;stroke-miterlimit:10;}
	.st155{fill:#2A784B;stroke:#1F4130;stroke-miterlimit:10;}
	.st156{fill:#D7D8DA;stroke:#1F4130;stroke-linecap:round;stroke-linejoin:round;stroke-miterlimit:10;}
	.st157{fill:none;stroke:#1F4130;stroke-width:3;stroke-miterlimit:10;}
	.st158{fill:#2A784B;}
	.st159{fill:#1F4130;}
	.st160{fill:#D7D8DA;}
	.st161{fill:#499623;}
	.st162{fill:none;stroke:#499623;stroke-miterlimit:10;}
	.st163{fill:#4C9D29;stroke:#1B5900;stroke-miterlimit:10;}
	.st164{fill:none;stroke:#ADE77A;stroke-width:2;stroke-linecap:round;stroke-miterlimit:10;}
	.st165{fill:none;stroke:#FFFFFF;stroke-linecap:round;stroke-miterlimit:10;}
	.st166{fill:none;stroke:#ADE77A;stroke-linecap:round;stroke-miterlimit:10;}
	.st167{fill:#4C9D29;}
	.st168{fill:none;stroke:#FFFFFF;stroke-width:7.8254;stroke-linecap:round;stroke-miterlimit:10;}
	.st169{fill:#ADE77A;}
	.st170{fill:#4F7F51;stroke:#344B57;stroke-miterlimit:10;}
	.st171{fill:#649160;stroke:#344B57;stroke-miterlimit:10;}
	.st172{fill:#78A36F;stroke:#344B57;stroke-miterlimit:10;}
	.st173{fill:#3A6D40;}
	.st174{opacity:0.75;fill:#344B57;stroke:#8CB77C;stroke-width:4;stroke-miterlimit:10;}
	.st175{opacity:0.5;fill:#344B57;stroke:#8CB77C;stroke-width:4;stroke-miterlimit:10;}
	.st176{opacity:0.25;fill:#344B57;stroke:#8CB77C;stroke-width:4;stroke-miterlimit:10;}
	.st177{opacity:0.8;fill:none;stroke:#C5E2D6;stroke-linecap:round;stroke-miterlimit:10;}
	.st178{opacity:0.8;fill:none;stroke:#C5E2D6;stroke-miterlimit:10;}
	.st179{fill:#8CB77C;stroke:#344B57;stroke-miterlimit:10;}
	.st180{opacity:0.8;fill:#C5E2D6;}
	.st181{fill:#4F7F51;}
	.st182{fill:#649160;}
	.st183{fill:#78A36F;}
	.st184{fill:#8CB77C;}
	.st185{fill:#C0DECD;}
	.st186{fill:none;stroke:#C5E2D6;stroke-width:7.8769;stroke-linecap:round;stroke-miterlimit:10;}
	.st187{fill:#AFCEB8;}
	.st188{fill:#9FC1A8;}
	.st189{fill:#77A47F;}
	.st190{fill:none;stroke:#77A47F;stroke-width:0.9699;stroke-miterlimit:10;}
	.st191{fill:#BCE680;stroke:#839958;stroke-width:3;stroke-miterlimit:10;}
	.st192{fill:none;stroke:#839958;stroke-miterlimit:10;}
	.st193{fill:none;stroke:#F0FDC5;stroke-miterlimit:10;}
</style>
<rect x="-4143" y="-3183.5" class="st8" width="5227.9" height="4725.2"/>
<g>
	<path class="st3" d="M371.1,365.7c0,66.9-54.2,121.1-121.1,121.1s-121.1-54.2-121.1-121.1c0-8.8,0.7-20.2,0.7-20.2
		s1.9-70.4,47-145.6s51.7-162.5,51.7-162.5S228,13.2,250,13.2c21.1,0,21.8,24.3,21.8,24.3s6.6,87.3,51.7,162.5s47,145.6,47,145.6
		L371.1,365.7z"/>
	<path class="st4" d="M226.4,211.2l-5.6-5.9c1.6-1.5,39.1-36.2,88.5-30.6l-0.9,8.1C262.8,177.6,226.7,210.8,226.4,211.2z"/>
	<path class="st4" d="M363.9,319.2c-36.5-38.6-88.2-37-88.7-37l-0.3-8.1c2.3-0.1,55.9-1.8,95,39.5L363.9,319.2z"/>
	<path class="st4" d="M263.4,475.6l-8.1-0.4c2.1-41.7-13.7-77.2-27.3-99.6c-14.9-24.4-30.5-39.1-30.6-39.2l5.5-5.9
		c0.7,0.6,16.4,15.4,31.9,40.7C249.1,394.6,265.7,431.7,263.4,475.6z"/>
	<path class="st4" d="M308.3,349c-39.7-39.5-91.3-38.5-91.8-38.5l-0.4-8.1c2-0.1,49.1-1.7,92.7,36.5L308.3,349z"/>
	<path class="st4" d="M132.7,367l-7.7-2.6c0.3-0.9,7.9-23,26-48.6c16.7-23.8,45.9-55.1,90.2-69.5l2.5,7.7
		C163,280.2,133,366.1,132.7,367z"/>
	<g>
		<path class="st4" d="M337.4,234.2c-0.3,0-0.6,0-0.9-0.1l0,0c-0.2-0.1-22.5-6-49.8-0.6c-1.9,0.4-3.7-0.9-4.1-2.8
			c-0.4-1.9,0.9-3.7,2.8-4.1c28.9-5.6,52,0.5,52.9,0.8c1.9,0.5,3,2.4,2.4,4.3C340.4,233.2,339,234.2,337.4,234.2z"/>
	</g>
	<g>
		<path class="st4" d="M372.3,383.1c-7.6-6-20.3-14.5-37-20.5c-1.8-0.6-3.8,0.3-4.5,2.1c-0.6,1.8,0.3,3.8,2.1,4.5
			c16.6,5.9,29.1,14.7,36.1,20.3C369.6,387.1,370.6,384.9,372.3,383.1z"/>
	</g>
	<path class="st106" d="M382.6,345.1c-0.1-3.9-2.8-74.9-48.7-151.4c-42.1-70.1-49.6-152.8-50-157c-0.1-1.9-0.7-9.1-4.1-16.5
		C274.1,7.8,263.5,1,250,1c-9.3,0-17.4,3.2-23.4,9.2c-9.5,9.6-10.4,23.2-10.5,26.7c-0.5,6-8.3,87.3-49.9,156.8
		c-45.3,75.5-48.5,145.8-48.7,151.2c-0.1,1.7-0.7,12.3-0.7,20.8c0,73.5,59.8,133.3,133.3,133.3s133.3-59.8,133.3-133.3L382.6,345.1z
		 M240.3,38.4l0-0.5l0-0.5c0-1.1,0.6-7.1,3.5-10c0.9-0.9,2.4-2,6.1-2c3.8,0,5.9,1.3,7.6,4.7c1.5,3,2,6.6,2.1,7.8l0,0.1l0,0.4
		c0.1,1.6,1.6,19.9,7.3,46.5c1.5,6.9-1.9,14-8.3,17c-9.5,4.5-18.1,9.6-25.5,14.6c-3.3,2.2-7.7-0.9-6.6-4.8
		C237.7,71.3,240.2,40.6,240.3,38.4z M188.1,422.6c-2.8,7.7-3.5,14.6-2.7,21c0.5,4.1-4.3,6.6-7.4,3.9c-22.7-20-37-49.2-37-81.8
		c0-8.3,0.7-19.3,0.7-19.4l0-0.4c0-0.7,2.5-68.4,45.2-139.6c2.3-3.8,4.4-7.6,6.5-11.4c3.5,1.9,5.8,3,6,3l0.2,0.1
		c15.7,6.5,26.9,19.2,30.1,33.9c1.2,5.6,3.5,10.7,6.6,15.3c2.9,4.1,2.1,9.7-1.8,12.9c-5.5,4.6-10.1,10.1-13.5,16.2
		c-3.6,6.6-5.7,13.6-6.1,20.8c-0.7,11.4-8,20.5-13.9,26c-15.2,14.2-21.1,32.4-15.9,48.6l1,3.2C192.6,394.9,195.3,403.2,188.1,422.6z
		 M303.9,425.4c3.2,8.7,3.1,16.4,0.8,23.3c-3.4,10.1-11.7,17.7-21.8,20.9c-10.4,3.3-21.4,5.1-32.8,5.1c-11.6,0-22.9-1.8-33.4-5.2
		c-11.6-3.7-20.6-13.2-22.8-25.1c-1.1-5.7-0.6-12,1.9-18.9c8.2-22.1,4.6-33.1-1.9-53.1l-1-3.1c-4.3-13.2,0.9-28.2,13.7-40.2
		c10.1-9.4,15.8-20.3,16.5-31.4c0.4-6.1,2.3-11.8,5.2-17.4c3.4-6.8,9.1-11.8,13.8-15.1c4.7-3.3,11-3.2,15.6,0.1
		c5.7,4.2,10.7,9.2,13.9,15c3,5.5,4.8,11.4,5.2,17.4c0.7,11.2,6.4,22,16.5,31.4c12.8,12,18,27,13.7,40.2l-1,3.1
		C299.2,392.3,295.7,403.4,303.9,425.4z M321.5,447.9c-3.1,2.7-7.9,0.2-7.4-3.9c0.9-6.5,0.3-13.6-2.6-21.4
		c-7.2-19.4-4.5-27.7,2-47.8l1-3.2c5.2-16.2-0.7-34.4-15.9-48.6c-5.9-5.6-13.2-14.6-13.9-26c-0.5-7.2-2.5-14.3-6.1-20.8
		c-5.2-9.5-13.3-17.4-23.5-22.9c-9.1-5-15.3-13.2-17.5-23.2c-3.7-17.3-16.7-32.1-34.8-39.7c-0.4-0.2-2.4-1.2-5.5-2.8
		c7.9-15.3,14.4-30.8,19.7-45.6c0.9-2.6,2.5-5,4.7-6.7c10.5-8.7,26.2-19.8,45.5-28.2c2.4-1.1,5.2,0.3,5.9,2.8
		c8,29.2,20.5,63.7,40,96.3c42.7,71.2,45.2,139,45.2,139.6l0.7,20.1C358.9,398.6,344.4,428,321.5,447.9z"/>
</g>
</svg>
