<?xml version="1.0" encoding="utf-8"?>
<!-- Generator: Adobe Illustrator 20.0.0, SVG Export Plug-In . SVG Version: 6.00 Build 0)  -->
<svg version="1.1" id="Layer_1" xmlns="http://www.w3.org/2000/svg" xmlns:xlink="http://www.w3.org/1999/xlink" x="0px" y="0px"
	 viewBox="0 0 500 500" style="enable-background:new 0 0 500 500;" xml:space="preserve">
<style type="text/css">
	.st0{fill:#FFF3CD;}
	.st1{fill:#46312E;}
	.st2{fill:#D2C3A9;stroke:#46312E;stroke-linejoin:round;stroke-miterlimit:10;}
	.st3{fill:#F6E8C7;stroke:#46312E;stroke-linejoin:round;stroke-miterlimit:10;}
	.st4{fill:#F5E9D8;}
	.st5{fill:#54331D;}
	.st6{fill:#F2EAD7;}
	.st7{fill:#F7F3E7;}
	.st8{fill:#5C3A30;}
	.st9{fill:#EEEBDB;}
	.st10{fill:#E1C7B2;}
	.st11{opacity:0.5;fill:none;stroke:#D2A284;stroke-width:3;stroke-miterlimit:10;}
	.st12{fill:#F2CFAA;}
	.st13{fill:#EDB283;}
	.st14{fill:#DFC8B2;}
	.st15{opacity:0.5;fill:none;stroke:#B08269;stroke-width:3;stroke-miterlimit:10;}
	.st16{fill:#00FFFF;}
	.st17{opacity:0.9;fill:none;stroke:#DB7745;stroke-width:3;stroke-miterlimit:10;}
	.st18{opacity:0.5;fill:none;stroke:#DB7745;stroke-width:3;stroke-miterlimit:10;}
	.st19{opacity:0.3;fill:none;stroke:#DB7745;stroke-width:3;stroke-miterlimit:10;}
	.st20{opacity:0.7;fill:none;stroke:#DB7745;stroke-width:3;stroke-miterlimit:10;}
	.st21{fill:#F4E3B9;}
	.st22{fill:#EECA92;}
	.st23{fill:#D4AA76;}
	.st24{fill:#B68A56;}
	.st25{fill:#946541;}
	.st26{fill:#E2AC88;}
	.st27{fill:#B08269;}
	.st28{fill:none;stroke:#B98A71;stroke-width:3;stroke-miterlimit:10;}
	.st29{fill:none;stroke:#C39377;stroke-width:3;stroke-miterlimit:10;}
	.st30{fill:none;stroke:#CD9B7E;stroke-width:3;stroke-miterlimit:10;}
	.st31{fill:none;stroke:#D7A484;stroke-width:3;stroke-miterlimit:10;}
	.st32{fill:none;stroke:#7C5B4F;stroke-miterlimit:10;}
	.st33{fill:#7C5B4F;}
	.st34{fill:#C6A58F;}
	.st35{fill:#B98A71;}
	.st36{fill:#C39377;}
	.st37{fill:#CD9B7E;}
	.st38{fill:#D7A484;}
	.st39{fill:#FFEFDC;stroke:#5E3E27;stroke-miterlimit:10;}
	.st40{opacity:0.2;fill:none;stroke:#D0A672;stroke-width:3;stroke-miterlimit:10;}
	.st41{opacity:0.4;fill:none;stroke:#D0A672;stroke-width:3;stroke-miterlimit:10;}
	.st42{opacity:0.6;fill:none;stroke:#D0A672;stroke-width:3;stroke-miterlimit:10;}
	.st43{fill:#5E3E27;}
	.st44{fill:none;stroke:#5E3E27;stroke-miterlimit:10;}
	.st45{fill:#FFEFDC;}
	.st46{fill:#F5E0C8;}
	.st47{fill:#EBD2B4;}
	.st48{fill:#E2C39E;}
	.st49{opacity:0.6;fill:none;stroke:#DB7745;stroke-width:3;stroke-miterlimit:10;}
	.st50{fill:none;stroke:#863B2B;stroke-linecap:round;stroke-miterlimit:10;}
	.st51{fill:#863B2B;}
	.st52{fill:none;stroke:#863B2B;stroke-miterlimit:10;}
	.st53{fill:#DB7D51;}
	.st54{fill:#E29468;}
	.st55{fill:#E6A074;}
	.st56{fill:#DE895D;}
	.st57{fill:#E29A71;}
	.st58{fill:#D2A284;}
	.st59{opacity:0.7;fill:none;stroke:#E1C7B2;stroke-width:3;stroke-miterlimit:10;}
	.st60{opacity:0.9;fill:none;stroke:#CA9464;stroke-width:3;stroke-miterlimit:10;}
	.st61{opacity:0.6;fill:none;stroke:#CA9464;stroke-width:3;stroke-miterlimit:10;}
	.st62{opacity:0.3;fill:none;stroke:#CA9464;stroke-width:3;stroke-miterlimit:10;}
	.st63{fill:#5F362D;}
	.st64{fill:#D9B49D;}
	.st65{fill:#DCBCA5;}
	.st66{fill:#CA956A;}
	.st67{fill:#CC9A74;}
	.st68{fill:#CF9E7D;}
	.st69{clip-path:url(#SVGID_2_);}
	.st70{fill:#FFC841;}
	.st71{fill:#C56C00;}
	.st72{fill:#FFC841;stroke:#C56C00;stroke-linecap:round;stroke-linejoin:round;stroke-miterlimit:10;}
	.st73{fill:#FFC841;stroke:#C56C00;stroke-miterlimit:10;}
	.st74{fill:none;stroke:#FFE197;stroke-linecap:round;stroke-miterlimit:10;}
	.st75{fill:none;stroke:#C56C00;stroke-linecap:round;stroke-miterlimit:10;}
	.st76{fill:#F6DB90;}
	.st77{opacity:0.3;fill:none;stroke:#C56C00;stroke-width:3;stroke-linecap:round;stroke-linejoin:round;stroke-miterlimit:10;}
	.st78{fill:#FFE197;}
	.st79{fill:#ECAB3D;}
	.st80{opacity:0.5;}
	.st81{fill:none;stroke:#94734A;stroke-linecap:round;stroke-miterlimit:10;}
	.st82{fill:#B2895B;}
	.st83{opacity:0.7;fill:none;stroke:#745432;stroke-width:3;stroke-miterlimit:10;}
	.st84{fill:#3F2F21;}
	.st85{fill:none;stroke:#3F2F21;stroke-miterlimit:10;}
	.st86{fill:#745432;}
	.st87{fill:#94734A;}
	.st88{fill:#866441;}
	.st89{fill:#F7F3E7;stroke:#5C3A30;stroke-miterlimit:10;}
	.st90{fill:#978578;stroke:#5C3A30;stroke-miterlimit:10;}
	.st91{fill:none;stroke:#986A3D;stroke-width:3.1036;stroke-miterlimit:10;}
	.st92{fill:none;stroke:#AE8650;stroke-width:3;stroke-miterlimit:10;}
	.st93{fill:none;stroke:#E7C382;stroke-width:3;stroke-miterlimit:10;}
	.st94{fill:none;stroke:#F9E1B8;stroke-width:3;stroke-miterlimit:10;}
	.st95{fill:none;stroke:#665A52;stroke-miterlimit:10;}
	.st96{fill:none;stroke:#5C3A30;stroke-miterlimit:10;}
	.st97{opacity:0.8;fill:none;stroke:#F9E1B8;stroke-width:3;stroke-miterlimit:10;}
	.st98{opacity:0.6;fill:none;stroke:#F9E1B8;stroke-width:3;stroke-miterlimit:10;}
	.st99{opacity:0.4;fill:none;stroke:#F9E1B8;stroke-width:3;stroke-miterlimit:10;}
	.st100{opacity:0.2;fill:none;stroke:#F9E1B8;stroke-width:3;stroke-miterlimit:10;}
	.st101{fill:#978578;}
	.st102{fill:#7F7169;}
	.st103{fill:#EDC995;}
	.st104{fill:#EECFA3;}
	.st105{fill:#EFD6B0;}
	.st106{fill:#EFDCBD;}
	.st107{fill:#F1E4CA;}
	.st108{fill:#F8E0BA;}
	.st109{fill:#998276;stroke:#54331D;stroke-linecap:round;stroke-linejoin:round;stroke-miterlimit:10;}
	.st110{fill:#F5E9D8;stroke:#54331D;stroke-linecap:round;stroke-linejoin:round;stroke-miterlimit:10;}
	.st111{fill:none;stroke:#D9C2AB;stroke-linecap:round;stroke-linejoin:round;stroke-miterlimit:10;}
	.st112{fill:#C3A693;stroke:#54331D;stroke-linecap:round;stroke-linejoin:round;stroke-miterlimit:10;}
	.st113{fill:#C3A693;stroke:#54331D;stroke-linejoin:round;stroke-miterlimit:10;}
	.st114{fill:#AF9F88;stroke:#3F2F21;stroke-width:1.0635;stroke-linejoin:round;stroke-miterlimit:10;}
	.st115{fill:#C3A693;stroke:#54331D;stroke-width:1.0635;stroke-linejoin:round;stroke-miterlimit:10;}
	.st116{opacity:0.4;fill:none;stroke:#998276;stroke-width:3;stroke-linecap:round;stroke-linejoin:round;stroke-miterlimit:10;}
	.st117{fill:#998276;}
	.st118{fill:#D9C2AB;}
	.st119{fill:#CFC0B2;}
	.st120{fill:#BEA897;}
	.st121{fill:#C3A693;}
	.st122{fill:#998276;stroke:#54331D;stroke-width:15.94;stroke-linecap:round;stroke-linejoin:round;stroke-miterlimit:10;}
	.st123{fill:#F5E9D8;stroke:#54331D;stroke-width:15.94;stroke-linecap:round;stroke-linejoin:round;stroke-miterlimit:10;}
	.st124{fill:none;stroke:#D9C2AB;stroke-width:15.94;stroke-linecap:round;stroke-linejoin:round;stroke-miterlimit:10;}
	.st125{fill:#AF9F88;stroke:#3F2F21;stroke-width:16.9526;stroke-linejoin:round;stroke-miterlimit:10;}
	
		.st126{opacity:0.4;fill:none;stroke:#998276;stroke-width:47.82;stroke-linecap:round;stroke-linejoin:round;stroke-miterlimit:10;}
	.st127{fill:#C3A693;stroke:#54331D;stroke-width:15.94;stroke-linejoin:round;stroke-miterlimit:10;}
	.st128{fill:#C3A693;stroke:#54331D;stroke-width:15.94;stroke-linecap:round;stroke-linejoin:round;stroke-miterlimit:10;}
	.st129{fill:#C3A693;stroke:#54331D;stroke-width:16.9526;stroke-linejoin:round;stroke-miterlimit:10;}
	.st130{fill:#D4A38C;}
	.st131{fill:#C45923;}
	.st132{fill:#E5825C;}
	.st133{fill:#C8947C;}
	.st134{fill:#CC7953;}
	.st135{fill:#BE8667;}
	.st136{fill:#992B11;}
	.st137{fill:#EAE9E2;}
	.st138{fill:#414B67;}
	.st139{fill:#CCCBC6;}
	.st140{fill:#ADB2BA;}
	.st141{fill:#9BA0AA;}
	.st142{fill:#52607F;}
	.st143{fill:#14131B;}
	.st144{fill:#FBEEC6;}
	.st145{fill:#B68C28;}
	.st146{fill:#DEBB7D;}
	.st147{fill:#C8A97D;}
	.st148{fill:#BA946D;}
	.st149{fill:#F3D705;}
	.st150{fill:#7F4308;}
	.st151{clip-path:url(#SVGID_4_);}
	.st152{fill:#FFF3CD;stroke:#46312E;stroke-linejoin:round;stroke-miterlimit:10;}
	.st153{opacity:0.6;fill:none;stroke:#46312E;stroke-width:2;stroke-linejoin:round;stroke-miterlimit:10;}
	.st154{opacity:0.2;fill:none;stroke:#46312E;stroke-width:2;stroke-linejoin:round;stroke-miterlimit:10;}
	.st155{opacity:0.1;fill:none;stroke:#46312E;stroke-width:2;stroke-linejoin:round;stroke-miterlimit:10;}
	.st156{opacity:0.5;fill:none;stroke:#46312E;stroke-width:2;stroke-linejoin:round;stroke-miterlimit:10;}
	.st157{opacity:0.9;fill:none;stroke:#7F4F2E;stroke-width:3;stroke-linejoin:round;stroke-miterlimit:10;}
	.st158{opacity:0.7;fill:none;stroke:#996039;stroke-width:3;stroke-linejoin:round;stroke-miterlimit:10;}
	.st159{opacity:0.5;fill:none;stroke:#B27044;stroke-width:3;stroke-linejoin:round;stroke-miterlimit:10;}
	.st160{opacity:0.3;fill:none;stroke:#CC7C50;stroke-width:3;stroke-linejoin:round;stroke-miterlimit:10;}
	.st161{opacity:0.1;fill:none;stroke:#E5895C;stroke-width:3;stroke-linejoin:round;stroke-miterlimit:10;}
	.st162{fill:#F6E8C7;}
	.st163{fill:#8C7A6C;}
	.st164{fill:#D2C3A9;}
	.st165{fill:#E3D6B9;}
	.st166{fill:#9E8D7C;}
	.st167{fill:#8B5F41;}
	.st168{fill:#B78C68;}
	.st169{fill:#D7B18B;}
	.st170{fill:#EFCEAA;}
	.st171{fill:#FBE7C4;}
</style>
<path class="st0" d="M244.6,486.5c-59.5,0-106-34.2-107.9-35.6c-2.7-2-4.4-5.1-4.7-8.4c-0.3-4.1-7.9-97.5,12.5-206.3
	c-25.5-1.8-46.9-4.3-62.7-7.3c-18.4-3.5-38.1-8.5-38.1-23.7c0-0.4,0-0.7,0.1-1.1c0.2-1.9,4.8-47.8,32.2-94.2
	c25.7-43.4,76.7-95.1,174-95.1c102.1,0,152.9,51.8,177.5,95.3c26.4,46.6,28.7,92.7,28.7,94.6c0,0.2,0,0.3,0,0.5
	c0,14.9-19.4,19.9-37.7,23.4c-15.6,3-36.8,5.5-61.9,7.4c19.9,113.9,11.1,202.9,10.7,206.8c-0.4,3.4-2.2,6.5-5,8.5
	C360.3,452.6,310.3,486.5,244.6,486.5z"/>
<path class="st162" d="M248.9,190.7c-131.6,0-193.2,14.2-193.5,14.3c0,0,0,0.1,0,0.1c0,9.2,41.8,16.6,103.1,20.2
	c-23.6,114-14.9,216.2-14.9,216.2s44.7,33.3,100.9,33.3c62.8,0,111.2-33.3,111.2-33.3s10-96.6-12.9-216.4
	c60.6-3.8,101.7-11.2,101.7-20c0,0,0-0.1,0-0.1C444.3,204.9,398.6,190.7,248.9,190.7z"/>
<path class="st163" d="M340.1,211.4c-1.1-5.2-2.3-10.5-3.5-15.8c-26.9-1.1-56.3-1.7-87.8-1.7c-29,0-57,0.6-83.4,1.9
	c-1.4,5.3-2.6,10.6-3.8,15.9c27.5-1.4,56.8-2.1,87.2-2.1C281.7,209.6,312.4,210.2,340.1,211.4z"/>
<path class="st164" d="M346,243c-0.9-5.2-1.8-10.5-2.8-15.8c-28.6-1.3-60.3-2-94.4-2c-31.7,0-62.1,0.8-90.7,2.2
	c-1.1,5.3-2.1,10.6-3,15.8c29.4-1.6,60.8-2.4,93.7-2.4C284.1,240.9,316.7,241.6,346,243z"/>
<path class="st165" d="M348.5,258.8c-0.8-5.2-1.6-10.5-2.5-15.8c-29.4-1.4-62-2.1-97.2-2.1c-32.8,0-64.3,0.8-93.7,2.4
	c-1,5.3-1.9,10.6-2.7,15.8c30.1-1.7,62.5-2.6,96.4-2.6C285.1,256.5,318.6,257.3,348.5,258.8z"/>
<path class="st166" d="M343.2,227.2c-1-5.2-2-10.5-3.1-15.8c-27.8-1.2-58.5-1.9-91.3-1.9c-30.4,0-59.7,0.7-87.2,2.1
	c-1.2,5.3-2.4,10.6-3.4,15.9c28.5-1.5,58.9-2.3,90.7-2.3C282.9,225.2,314.7,225.9,343.2,227.2z"/>
<path class="st167" d="M293,30.7c-13.6-0.3-28.2-0.4-44-0.4c-15,0-29,0.2-42.2,0.5c-24.2,5-46.7,14.2-66.5,26.7
	c29.6-2.2,66.1-3.8,108.8-3.8c44.8,0,81.3,1.3,110.1,3.2C339.3,44.7,317,35.7,293,30.7z"/>
<path class="st168" d="M358.9,56.9c-28.2-1.8-64.3-3.2-109.9-3.2c-43.8,0-79.8,1.5-108.6,3.6C128.2,65.1,116.9,74,106.9,84
	c33.6-3.6,81.6-6.7,142-6.7c64.3,0,111.5,2.8,143.4,6C382.3,73.4,371.1,64.5,358.9,56.9z"/>
<path class="st169" d="M414.3,109.4c-6.5-9.4-13.9-18.1-22.1-26.2c-31.1-3.1-77.2-5.9-143.3-5.9c-62.8,0-109.7,3.2-141.9,6.6
	c-8.1,8.1-15.5,16.9-21.9,26.3c32.9-4.5,88.8-9.3,163.8-9.3C330,100.7,383.9,105.1,414.3,109.4z"/>
<path class="st170" d="M429.1,135.2c-4.2-9.1-9.2-17.8-14.9-26c-29.6-4-81.3-8.5-165.3-8.5c-78.8,0-132.6,5-163.6,9.1
	c-5.6,8.2-10.6,16.8-14.7,25.9c29.4-4.9,90.8-11.5,178.3-11.5C345.4,124.2,403.3,130.4,429.1,135.2z"/>
<path class="st171" d="M438.5,160.7c-2.5-8.9-5.7-17.5-9.5-25.8c-25.6-4.4-79.9-10.7-180-10.7c-93,0-151.1,7-178.2,11.3
	c-3.8,8.2-6.9,16.7-9.3,25.5c24.2-5,89.5-13.2,187.5-13.2C359.7,147.7,419.6,155.8,438.5,160.7z"/>
<circle class="st1" cx="132.1" cy="128" r="7.8"/>
<circle class="st1" cx="146.1" cy="103.9" r="7.8"/>
<circle class="st1" cx="160.1" cy="128" r="7.8"/>
<circle class="st1" cx="291.5" cy="417.1" r="7.8"/>
<circle class="st1" cx="305.5" cy="393" r="7.8"/>
<circle class="st1" cx="319.4" cy="417.1" r="7.8"/>
<path class="st1" d="M468,204.1c-0.1-2.1-2.5-50.9-30.2-99.9C411.6,58,357.8,2.9,250,2.9C147.1,2.9,93.1,57.8,65.9,103.8
	c-28.8,48.6-33.6,97.1-33.8,99.1c-0.1,0.7-0.1,1.5-0.1,2.2c0,7.1,2.8,20.2,21.9,28.2c6.4,2.7,14.8,5,25.8,7.1
	c8.4,1.6,18.3,3.1,29.6,4.4c11.6,1.3,19.8,12,18.1,23.5c-13.6,95.1-7.4,171.6-7.1,175.3c0.6,6.7,4,12.8,9.4,16.8
	c2.1,1.5,51.6,37.9,115,37.9c69.3,0,122.2-35.9,124.5-37.4c5.7-3.9,9.3-10.1,10-16.9c0.4-3.5,7.7-77.4-5.6-176.5
	c-1.5-11.3,6.5-21.6,17.8-23c11.2-1.3,21.2-2.8,29.6-4.4c10.8-2.1,19-4.3,25.3-7c19-7.9,21.8-20.9,21.8-28
	C468,204.7,468,204.4,468,204.1z M84.9,117.7c33-52.2,94.6-87.4,165.1-87.4c96.9,0,177.2,66.6,189.1,152.5c1.2,8.3-6.2,15.4-14.5,14
	c-26.1-4.3-79.3-10-175.7-10c-88.2,0-145.6,6.5-173.7,10.7c-8.3,1.3-15.5-5.8-14.4-14.2c0.9-6.7,2.2-13.3,3.9-19.7
	C69.2,149.8,75.7,133.8,84.9,117.7z M157.3,213c-1.1,4.8-5.5,8-10.4,7.7c-10.8-0.8-21-1.6-30.4-2.7c-19.9-2.1-32.9-4.5-41.4-6.6
	c-3.3-0.8-3-5.5,0.3-6c15.7-2.4,41-5.6,76.5-7.8c4.5-0.3,8,3.9,7,8.2C158.4,208.2,157.8,210.6,157.3,213z M166,210
	c1.8-8,8.7-13.7,16.9-14c19.7-0.8,41.7-1.3,66.1-1.3c26.4,0,49.6,0.4,69.8,1.2c8.3,0.3,15.3,6.2,17,14.4c21.1,100,18.8,187,17,218.4
	c-0.4,6.8-4.3,13-10.3,16.2c-17.6,9.5-54.3,26-97.9,26c-38.5,0-71.8-16.2-88-25.7c-5.8-3.4-9.4-9.5-9.7-16.2
	C145.4,396.8,143.8,305.7,166,210z M349.7,197.3c36.9,2.2,61.1,5.3,75.6,7.7c3.3,0.5,3.5,5.2,0.2,6c-8.5,2.1-21.8,4.6-42.5,6.8
	c-8.8,1-18.3,1.8-28.4,2.6c-5,0.4-9.4-3-10.4-7.9c-0.5-2.4-1-4.8-1.5-7.2C341.8,201,345.3,197,349.7,197.3z"/>
</svg>
