<?xml version="1.0" encoding="utf-8"?>
<!-- Generator: Adobe Illustrator 20.0.0, SVG Export Plug-In . SVG Version: 6.00 Build 0)  -->
<svg version="1.1" id="Layer_1" xmlns="http://www.w3.org/2000/svg" xmlns:xlink="http://www.w3.org/1999/xlink" x="0px" y="0px"
	 viewBox="0 0 500 500" style="enable-background:new 0 0 500 500;" xml:space="preserve">
<style type="text/css">
	.st0{fill:#DFC8B2;}
	.st1{opacity:0.5;fill:none;stroke:#B08269;stroke-width:3;stroke-miterlimit:10;}
	.st2{fill:#00FFFF;}
	.st3{fill:#C6A58F;}
	.st4{fill:#E2AC88;}
	.st5{fill:#B08269;}
	.st6{fill:none;stroke:#B98A71;stroke-width:3;stroke-miterlimit:10;}
	.st7{fill:none;stroke:#C39377;stroke-width:3;stroke-miterlimit:10;}
	.st8{fill:none;stroke:#CD9B7E;stroke-width:3;stroke-miterlimit:10;}
	.st9{fill:none;stroke:#D7A484;stroke-width:3;stroke-miterlimit:10;}
	.st10{fill:none;stroke:#7C5B4F;stroke-miterlimit:10;}
	.st11{fill:#7C5B4F;}
	.st12{fill:#B98A71;}
	.st13{fill:#C39377;}
	.st14{fill:#CD9B7E;}
	.st15{fill:#D7A484;}
	.st16{fill:#FFEFDC;stroke:#5E3E27;stroke-miterlimit:10;}
	.st17{opacity:0.2;fill:none;stroke:#D0A672;stroke-width:3;stroke-miterlimit:10;}
	.st18{opacity:0.4;fill:none;stroke:#D0A672;stroke-width:3;stroke-miterlimit:10;}
	.st19{opacity:0.6;fill:none;stroke:#D0A672;stroke-width:3;stroke-miterlimit:10;}
	.st20{fill:#5E3E27;}
	.st21{fill:none;stroke:#5E3E27;stroke-miterlimit:10;}
	.st22{fill:#FFEFDC;}
	.st23{fill:#F5E0C8;}
	.st24{fill:#EBD2B4;}
	.st25{fill:#E2C39E;}
</style>
<path class="st0" d="M301.7,297.2H196.9l0.8,2.6c6.5,22.1,6.3,49.4,5,68.4c-0.7,10.8,6.7,20.4,17.3,22.4c8.3,1.5,19.3,2.9,31.5,2.9
	c8.6,0,17.8-0.7,27.2-2.5c10.5-2,17.9-11.6,17.1-22.4c-1.1-15.7-1.8-45.4,5-68.8L301.7,297.2z"/>
<g>
	<path class="st3" d="M189.9,298.6l-1.1,17.4c22.5,1.5,44.9,2.2,67.2,2.2c18.6,0,37.1-0.5,55.3-1.5l-1-18H189.9z"/>
</g>
<path class="st4" d="M405.3,144.4c-41.7-24.4-97.1-37.8-156-37.8S135,120,93.3,144.4c-42,24.6-65.2,57.4-65.2,92.4l0,0.6
	c0.2,20.5,15.5,38.4,36.4,42.4c34.8,6.8,104.2,17.7,189.8,17.7c55.2,0,117.3-4.5,181.1-17.7c20.2-4.2,34.9-22.3,35-43.1
	C470.4,201.7,447.3,168.9,405.3,144.4z"/>
<path class="st4" d="M405.3,144.4c-41.7-24.4-97.1-37.8-156-37.8S135,120,93.3,144.4c-42,24.6-65.2,57.4-65.2,92.4l0,0.6
	c0.2,20.5,15.5,38.4,36.4,42.4c34.8,6.8,104.2,17.7,189.8,17.7c55.2,0,117.3-4.5,181.1-17.7c20.2-4.2,34.9-22.3,35-43.1
	C470.4,201.7,447.3,168.9,405.3,144.4z"/>
<path class="st5" d="M412.6,149c-41.7-27-101.3-42.4-163.3-42.4c-62,0-121.5,15.5-163.3,42.4l-5.7,3.7h337.9L412.6,149z"/>
<path class="st12" d="M255.2,166.1c51.1,0,107.1-3.2,165.2-11.9c-4.7-3.4-9.8-6.7-15.2-9.8c-5.2-3-10.6-5.9-16.2-8.6
	c-108.4,13.2-207.4,7.7-278-0.7c-6.1,2.9-12,6-17.6,9.3c-5.1,3-9.8,6-14.3,9.2C124,160,185.1,166.1,255.2,166.1z"/>
<path class="st13" d="M255.2,188.6c57.6,0,121.3-4.1,187.2-15.5c-6.4-6.7-13.8-13.1-22.3-19.2c-138.1,21.1-264.2,10.6-340.9-0.6
	c-8.6,6-16.2,12.5-22.7,19.3C102.7,180.2,172.6,188.6,255.2,188.6z"/>
<path class="st14" d="M56.9,172.4c-6.2,6.4-11.5,13.2-15.7,20.1c44.9,8.1,121.6,18.7,214,18.7c62,0,131.1-4.8,202.5-18.2
	c-4.2-6.9-9.4-13.6-15.5-20C281,201.3,133.1,185.1,56.9,172.4z"/>
<path class="st15" d="M41.4,192.2c-4.2,6.8-7.4,13.9-9.6,21.1c43.1,8.2,124.2,20.4,223.5,20.4c64.7,0,137.1-5.2,211.8-20
	c-2.2-7.2-5.4-14.2-9.5-21.1C278.6,227.1,113.7,205.4,41.4,192.2z"/>
<path class="st11" d="M469.4,173.6c-12.9-17.8-31-33.6-53.8-47C370.8,100.5,311.8,86,249.3,86c-62.5,0-121.5,14.4-166.3,40.6
	c-22.8,13.4-41,29.2-53.8,47c-14.3,19.7-21.5,40.9-21.5,63.1c0,0.3,0,0.5,0,0.8c0.2,30.2,22.5,56.4,53,62.4
	c23,4.5,56.9,10,98.8,13.8c12.7,1.1,22.6,11.5,23.2,24.2c0.4,9,0.3,18.7-0.4,28.8c-1.4,21.2,13.2,40.1,34.1,43.9
	c11.8,2.2,23.6,3.3,35.2,3.3c10.8,0,21.2-1,31.1-2.9c20.7-4,35.1-22.9,33.7-43.9c-0.7-10-0.8-19.6-0.5-28.5
	c0.5-12.8,10.5-23.2,23.3-24.3c34.5-3,68.1-7.8,100.4-14.5c14.5-3,27.6-11,36.9-22.5c9.3-11.5,14.4-25.9,14.4-40.6l0,0v0
	C490.9,214.6,483.7,193.4,469.4,173.6z M278.4,389c-9.3,1.8-18.4,2.5-26.9,2.5c-12,0-22.8-1.4-31.1-2.9
	c-9.7-1.8-16.3-10.5-15.7-20.3c0.8-12.4,1.3-30.4-0.9-48c-1.2-9.6,6.5-17.9,16.1-17.6c11.2,0.4,22.8,0.6,34.7,0.6
	c8,0,16.1-0.1,24.3-0.3c9.6-0.2,17.1,8.2,15.9,17.7c-2.2,17.7-1.7,35.7-0.9,48.1C294.6,378.4,288,387.1,278.4,389z M191.4,293.6
	c-55.7-3.4-100.2-10.6-126.5-15.8c-19.6-3.8-34.6-20.5-34.8-40.5c0-0.2,0-0.4,0-0.6c0-70.8,98.1-128.2,219.1-128.2
	c121,0,219.1,57.4,219.1,128.2c0,19.8-13.9,37.1-33.4,41.1c-46.5,9.6-91.9,14.5-134.5,16.6c0,0,0,0,0,0c-15.8,0.7-31.2,0.7-46.1,1.1
	C234,295.9,191.4,293.6,191.4,293.6z"/>
<g>
	<g>
		<circle class="st11" cx="227.2" cy="338.5" r="7.5"/>
	</g>
	<g>
		<circle class="st11" cx="250.3" cy="351.9" r="7.5"/>
	</g>
	<g>
		<circle class="st11" cx="227.2" cy="365.3" r="7.5"/>
	</g>
</g>
<g>
	<g>
		<circle class="st11" cx="62.6" cy="243.3" r="7.5"/>
	</g>
	<g>
		<circle class="st11" cx="76" cy="220.2" r="7.5"/>
	</g>
	<g>
		<circle class="st11" cx="89.4" cy="243.3" r="7.5"/>
	</g>
</g>
</svg>
