<?xml version="1.0" encoding="utf-8"?>
<!-- Generator: Adobe Illustrator 20.0.0, SVG Export Plug-In . SVG Version: 6.00 Build 0)  -->
<svg version="1.1" id="Layer_1" xmlns="http://www.w3.org/2000/svg" xmlns:xlink="http://www.w3.org/1999/xlink" x="0px" y="0px"
	 viewBox="0 0 500 500" style="enable-background:new 0 0 500 500;" xml:space="preserve">
<style type="text/css">
	.st0{fill:#F2EAD7;}
	.st1{fill:#F7F3E7;}
	.st2{fill:#5C3A30;}
	.st3{fill:#EEEBDB;}
	.st4{fill:#E1C7B2;}
	.st5{opacity:0.5;fill:none;stroke:#D2A284;stroke-width:3;stroke-miterlimit:10;}
	.st6{fill:#F2CFAA;}
	.st7{fill:#EDB283;}
	.st8{fill:#DFC8B2;}
	.st9{opacity:0.5;fill:none;stroke:#B08269;stroke-width:3;stroke-miterlimit:10;}
	.st10{fill:#00FFFF;}
	.st11{opacity:0.9;fill:none;stroke:#DB7745;stroke-width:3;stroke-miterlimit:10;}
	.st12{opacity:0.5;fill:none;stroke:#DB7745;stroke-width:3;stroke-miterlimit:10;}
	.st13{opacity:0.3;fill:none;stroke:#DB7745;stroke-width:3;stroke-miterlimit:10;}
	.st14{opacity:0.7;fill:none;stroke:#DB7745;stroke-width:3;stroke-miterlimit:10;}
	.st15{fill:#F4E3B9;}
	.st16{fill:#EECA92;}
	.st17{fill:#D4AA76;}
	.st18{fill:#B68A56;}
	.st19{fill:#946541;}
	.st20{fill:#E2AC88;}
	.st21{fill:#B08269;}
	.st22{fill:none;stroke:#B98A71;stroke-width:3;stroke-miterlimit:10;}
	.st23{fill:none;stroke:#C39377;stroke-width:3;stroke-miterlimit:10;}
	.st24{fill:none;stroke:#CD9B7E;stroke-width:3;stroke-miterlimit:10;}
	.st25{fill:none;stroke:#D7A484;stroke-width:3;stroke-miterlimit:10;}
	.st26{fill:none;stroke:#7C5B4F;stroke-miterlimit:10;}
	.st27{fill:#7C5B4F;}
	.st28{fill:#C6A58F;}
	.st29{fill:#B98A71;}
	.st30{fill:#C39377;}
	.st31{fill:#CD9B7E;}
	.st32{fill:#D7A484;}
	.st33{fill:#FFEFDC;stroke:#5E3E27;stroke-miterlimit:10;}
	.st34{opacity:0.2;fill:none;stroke:#D0A672;stroke-width:3;stroke-miterlimit:10;}
	.st35{opacity:0.4;fill:none;stroke:#D0A672;stroke-width:3;stroke-miterlimit:10;}
	.st36{opacity:0.6;fill:none;stroke:#D0A672;stroke-width:3;stroke-miterlimit:10;}
	.st37{fill:#5E3E27;}
	.st38{fill:none;stroke:#5E3E27;stroke-miterlimit:10;}
	.st39{fill:#FFEFDC;}
	.st40{fill:#F5E0C8;}
	.st41{fill:#EBD2B4;}
	.st42{fill:#E2C39E;}
	.st43{opacity:0.6;fill:none;stroke:#DB7745;stroke-width:3;stroke-miterlimit:10;}
	.st44{fill:none;stroke:#863B2B;stroke-linecap:round;stroke-miterlimit:10;}
	.st45{fill:#863B2B;}
	.st46{fill:none;stroke:#863B2B;stroke-miterlimit:10;}
	.st47{fill:#DB7D51;}
	.st48{fill:#E29468;}
	.st49{fill:#E6A074;}
	.st50{fill:#DE895D;}
	.st51{fill:#E29A71;}
	.st52{fill:#D2A284;}
	.st53{opacity:0.7;fill:none;stroke:#E1C7B2;stroke-width:3;stroke-miterlimit:10;}
	.st54{opacity:0.9;fill:none;stroke:#CA9464;stroke-width:3;stroke-miterlimit:10;}
	.st55{opacity:0.6;fill:none;stroke:#CA9464;stroke-width:3;stroke-miterlimit:10;}
	.st56{opacity:0.3;fill:none;stroke:#CA9464;stroke-width:3;stroke-miterlimit:10;}
	.st57{fill:#5F362D;}
	.st58{fill:#D9B49D;}
	.st59{fill:#DCBCA5;}
	.st60{fill:#CA956A;}
	.st61{fill:#CC9A74;}
	.st62{fill:#CF9E7D;}
	.st63{clip-path:url(#SVGID_2_);}
	.st64{fill:#FFC841;}
	.st65{fill:#C56C00;}
	.st66{fill:#FFC841;stroke:#C56C00;stroke-linecap:round;stroke-linejoin:round;stroke-miterlimit:10;}
	.st67{fill:#FFC841;stroke:#C56C00;stroke-miterlimit:10;}
	.st68{fill:none;stroke:#FFE197;stroke-linecap:round;stroke-miterlimit:10;}
	.st69{fill:none;stroke:#C56C00;stroke-linecap:round;stroke-miterlimit:10;}
	.st70{fill:#F6DB90;}
	.st71{opacity:0.3;fill:none;stroke:#C56C00;stroke-width:3;stroke-linecap:round;stroke-linejoin:round;stroke-miterlimit:10;}
	.st72{fill:#FFE197;}
	.st73{fill:#ECAB3D;}
	.st74{opacity:0.5;}
	.st75{fill:none;stroke:#94734A;stroke-linecap:round;stroke-miterlimit:10;}
	.st76{fill:#B2895B;}
	.st77{opacity:0.7;fill:none;stroke:#745432;stroke-width:3;stroke-miterlimit:10;}
	.st78{fill:#3F2F21;}
	.st79{fill:none;stroke:#3F2F21;stroke-miterlimit:10;}
	.st80{fill:#745432;}
	.st81{fill:#94734A;}
	.st82{fill:#866441;}
	.st83{fill:#F7F3E7;stroke:#5C3A30;stroke-miterlimit:10;}
	.st84{fill:#978578;stroke:#5C3A30;stroke-miterlimit:10;}
	.st85{fill:none;stroke:#986A3D;stroke-width:3.1036;stroke-miterlimit:10;}
	.st86{fill:none;stroke:#AE8650;stroke-width:3;stroke-miterlimit:10;}
	.st87{fill:none;stroke:#E7C382;stroke-width:3;stroke-miterlimit:10;}
	.st88{fill:none;stroke:#F9E1B8;stroke-width:3;stroke-miterlimit:10;}
	.st89{fill:none;stroke:#665A52;stroke-miterlimit:10;}
	.st90{fill:none;stroke:#5C3A30;stroke-miterlimit:10;}
	.st91{opacity:0.8;fill:none;stroke:#F9E1B8;stroke-width:3;stroke-miterlimit:10;}
	.st92{opacity:0.6;fill:none;stroke:#F9E1B8;stroke-width:3;stroke-miterlimit:10;}
	.st93{opacity:0.4;fill:none;stroke:#F9E1B8;stroke-width:3;stroke-miterlimit:10;}
	.st94{opacity:0.2;fill:none;stroke:#F9E1B8;stroke-width:3;stroke-miterlimit:10;}
	.st95{fill:#978578;}
	.st96{fill:#7F7169;}
	.st97{fill:#EDC995;}
	.st98{fill:#EECFA3;}
	.st99{fill:#EFD6B0;}
	.st100{fill:#EFDCBD;}
	.st101{fill:#F1E4CA;}
	.st102{fill:#F8E0BA;}
</style>
<path class="st0" d="M272.1,172h124.7C396.7,91,331,25.3,250,25.3C169,25.3,103.3,91,103.3,172h118.7c-2.4,25.9-3.8,69.7,3.7,127.2
	c9.3,71.9,4.6,128.5,1.7,152c-1,8.3,3.8,16.2,11.6,19.2c10.3,4,25.6,6.3,42.3-3.4c3.9-2.2,6.5-6.2,7.1-10.6
	c2.7-19.6,8.5-80.6-7.9-157.2C271.1,255.7,271,203.2,272.1,172z"/>
<path class="st15" d="M379,102c-21.8-4.4-63.1-10.2-129.1-10.2c-65.9,0-107.2,5.8-128.9,10.1c-3.3,6.1-6.2,12.5-8.7,19.1
	c13.7-3.5,56.5-12.5,137.6-12.5c80.8,0,124,9.1,137.7,12.6C385.2,114.5,382.3,108.2,379,102z"/>
<path class="st16" d="M367.4,83.9c-23.6-3.9-61.8-8.1-117.4-8.1c-55.5,0-93.6,4.1-117.2,8c-4.6,6.1-8.7,12.5-12.3,19.3
	c19.2-4.1,60.5-10.6,129.5-10.6c68.9,0,110.5,6.6,129.7,10.8C376.1,96.5,371.9,90,367.4,83.9z"/>
<path class="st17" d="M350.9,65.5c-23.6-3.1-56.8-5.7-101-5.7c-44.1,0-77.2,2.6-100.8,5.6c-6.3,6-12.1,12.5-17.2,19.5
	c22.3-3.9,60.5-8.4,118-8.4c57.5,0,95.9,4.6,118.2,8.5C363,78,357.2,71.5,350.9,65.5z"/>
<path class="st18" d="M352,66.5c-7.7-7.4-16.1-14-25.3-19.6c-20.6-1.8-46-3.1-76.8-3.1c-30.7,0-56,1.3-76.6,3
	c-9.1,5.6-17.6,12.2-25.2,19.6c23-3.1,56.4-5.9,101.8-5.9C295.4,60.5,328.9,63.4,352,66.5z"/>
<path class="st19" d="M328.2,47.8c-14.7-9.3-31.1-16-48.7-19.6c-9.2-0.3-19.1-0.4-29.5-0.4c-10.4,0-20.2,0.1-29.4,0.4
	c-17.6,3.6-34,10.3-48.6,19.5c20.5-1.9,46.3-3.3,78-3.3C281.6,44.5,307.6,45.9,328.2,47.8z"/>
<g>
	<path class="st95" d="M225.2,147.1c-69.2,2-121.9,11.9-121.9,23.9c0,11.7,50.3,21.5,117.2,23.8
		C221.5,169.1,224.1,152.7,225.2,147.1z"/>
	<path class="st95" d="M273.4,147.1c-0.4,6-1.6,24.2-1.7,47.9c70.8-1.7,125.1-11.8,125.1-24C396.7,159,343.3,148.9,273.4,147.1z"/>
</g>
<path class="st96" d="M380.1,182.5c-3.7-8-8.1-15.8-13.2-23.1l6.4-4.5c5.4,7.6,10.1,15.8,13.9,24.3L380.1,182.5z"/>
<path class="st96" d="M119.9,182.5l-7.1-3.2c3.9-8.6,8.6-16.8,14.1-24.6l6.4,4.5C128.1,166.5,123.6,174.3,119.9,182.5z"/>
<path class="st96" d="M357.8,187.8c-3.9-11.9-9.2-23.1-15.6-33.4l6.6-4.1c6.8,10.8,12.3,22.6,16.4,35.1L357.8,187.8z"/>
<path class="st96" d="M142.1,188l-7.4-2.4c4.1-12.6,9.7-24.4,16.4-35.2l6.6,4.1C151.3,164.8,146.1,176.1,142.1,188z"/>
<path class="st96" d="M335.1,191.1c-3.4-14.3-8.3-27.5-14.5-39.4l6.9-3.6c6.5,12.5,11.5,26.3,15.1,41.2L335.1,191.1z"/>
<path class="st96" d="M164.9,191.2l-7.6-1.8c3.6-14.8,8.6-28.6,15-41l6.9,3.6C173.1,163.7,168.3,177,164.9,191.2z"/>
<path class="st96" d="M311.9,193.3c-2.7-16-6.6-30.7-11.8-43.8l7.2-2.8c5.3,13.6,9.4,28.8,12.2,45.4L311.9,193.3z"/>
<path class="st96" d="M188.1,193.3l-7.7-1.3c2.7-16.4,6.8-31.5,12.1-45l7.2,2.8C194.7,162.8,190.8,177.5,188.1,193.3z"/>
<path class="st96" d="M287.5,194.5c-1.7-17-4.4-32.6-7.8-46.4l7.5-1.9c3.5,14.2,6.2,30.1,8,47.5L287.5,194.5z"/>
<path class="st96" d="M212.6,194.4l-7.7-0.8c1.8-17.3,4.4-33.2,8-47.3l7.5,1.9C216.9,161.9,214.3,177.5,212.6,194.4z"/>
<ellipse transform="matrix(0.9996 -2.748811e-02 2.748811e-02 0.9996 -1.3536 7.7568)" class="st1" cx="281.5" cy="53.1" rx="5.8" ry="5.8"/>
<ellipse transform="matrix(0.9996 -2.748811e-02 2.748811e-02 0.9996 -1.6148 8.4974)" class="st1" cx="308.3" cy="63" rx="6.8" ry="6.8"/>
<ellipse transform="matrix(1 -4.427758e-03 4.427758e-03 1 -0.2719 0.8791)" class="st1" cx="198.4" cy="61.9" rx="6.8" ry="6.8"/>
<ellipse transform="matrix(0.9996 -2.748811e-02 2.748811e-02 0.9996 -2.152 7.7938)" class="st1" cx="282.4" cy="82.2" rx="7.7" ry="7.7"/>
<path class="st97" d="M281.4,466.9c3.8-2.2,6.3-6.1,6.9-10.5c0.6-4.1,1.3-10.1,1.9-17.7c-23.9,11.5-45.8,9.9-62,5.2
	c-0.3,2.7-0.6,5.2-0.8,7.4c-1,7.7,3.1,15.1,10,18.5c5,0.7,10.2,1.2,15.7,1.2C261.8,470.8,271.4,469.7,281.4,466.9z"/>
<path class="st98" d="M290,440.9c0.6-7.2,1.2-15.9,1.4-26c-23.5,11.7-45.1,10.7-61.4,6.3c-0.6,9.3-1.3,17.2-2,23.6
	c7.6,1.8,15.9,2.9,24.9,2.9C264.4,447.7,276.9,445.8,290,440.9z"/>
<path class="st99" d="M291.3,417.3c0.2-7.7,0.3-16.3,0.1-25.5c-23,11.5-44.3,10.7-60.4,6.5c-0.2,8.7-0.6,16.6-1,23.8
	c7.1,1.5,14.8,2.5,23,2.5C264.8,424.5,277.7,422.5,291.3,417.3z"/>
<path class="st100" d="M252.9,401.3c11.9,0,24.9-2,38.5-7.3c-0.2-7.8-0.5-16.1-1.1-25c-22.6,10.9-43.4,10.1-59.3,6
	c0.1,8.5,0.1,16.5-0.1,24C237.7,400.5,245,401.3,252.9,401.3z"/>
<path class="st101" d="M290.4,371.3c-0.5-7.8-1.2-15.9-2.2-24.4c-22.1,10.1-42.4,9-58,4.9c0.4,8.4,0.7,16.5,0.8,24.2
	c6.8,1.4,14.1,2.2,21.9,2.2C264.5,378.2,277.2,376.2,290.4,371.3z"/>
<path class="st2" d="M420.2,170.4c-0.1-1.7-2.1-42.1-23.5-82.7c-13-24.6-30.3-44.3-51.6-58.6C318.8,11.4,286.7,2.4,250,2.4
	c-37,0-69.2,9-95.7,26.7c-21.3,14.3-38.7,34-51.6,58.7c-21.2,40.7-22.9,81.1-23,82.8l0,0.4v0.4c0,8,3.5,15.6,9.8,21.4
	c3.4,3.1,7.6,5.8,12.9,8.2c7.4,3.3,17.1,6.2,29.7,8.7c12.9,2.6,28.5,4.7,45.9,6.3c10.5,0.9,18.7,9.5,19,20.1
	c0.7,21.5,2.5,43.8,5.4,66.6c9.1,70.2,4.2,125.6,1.7,146.1c-2.3,19,8.5,37,26.4,43.9c8.6,3.3,17.4,5,26.2,5c12.6,0,24.7-3.4,36.2-10
	c10-5.8,16.9-16.1,18.5-27.7c3.2-23.4,8.7-86.2-8.2-165.2c-3.4-15.9-5.8-34.9-7.1-56.2c-0.7-11.3,7.9-21.1,19.2-22
	c18.8-1.5,35.8-3.6,49.9-6.3c13.3-2.5,23.5-5.4,31.4-8.8c5.5-2.4,9.9-5,13.4-8.2c6.7-5.9,10.3-13.7,10.3-21.9V171L420.2,170.4z
	 M240.3,466.8c-6.2-2.4-9.9-8.6-9.1-15.1c2.7-21.6,7.8-79.6-1.7-152.9c-8.9-69-4.9-118.3-2.1-140.2c0.6-4.4,4.3-7.7,8.7-7.7
	c4.6-0.1,9.3-0.1,13.9-0.1c3.3,0,6.6,0,9.9,0.1c5.1,0.1,9,4.3,8.8,9.4c-1.4,28.3-2.8,90.2,7.9,140c16.5,76.9,10.1,138.7,7.8,155.8
	c-0.4,3.2-2.4,6.1-5.1,7.8C263.7,472.6,249.5,470.3,240.3,466.8z M109.4,171.1c0-2.9,2.1-3.8,2.1-3.8c4.8-2.6,14.7-6.2,35.3-9.6
	c17.7-2.9,39.1-5,62.5-6.1c5.8-0.3,10.5,4.7,9.8,10.5c-0.7,5.7-1.5,12.9-1.9,19.6c-0.4,5.1-4.7,8.9-9.8,8.7
	c-27.6-1.4-52.4-4.2-70.7-7.9c-13-2.7-20.2-5.3-24.3-7.3C112.3,175.1,109.5,174,109.4,171.1z M250,142.9c-39.4,0-76.5,2.5-104.4,7.2
	c-8.4,1.4-18,3.2-26.3,5.8c-5.6,1.7-11-3-10-8.7c11.8-66.9,70.4-118,140.7-118c70.3,0,128.9,51,140.7,118c1,5.7-4.4,10.5-9.9,8.7
	c-6.5-2-15.1-4-26.4-5.9C326.5,145.4,289.4,142.9,250,142.9z M386.8,175.6c-4.5,2.1-12.3,4.8-25.9,7.4c-19.7,3.8-46.2,6.5-75.4,7.7
	c-5.4,0.2-9.9-4.1-9.8-9.6c0.2-8.1,0.5-15.1,0.7-20.8c0.3-5.1,4.6-9.1,9.7-8.9c25.1,1.1,48.1,3.2,66.9,6.3c17.7,2.9,27.5,6,32.9,8.4
	c0,0,3.3,1.2,3.5,4.3C389.8,174.3,386.8,175.6,386.8,175.6z"/>
</svg>
