<?xml version="1.0" encoding="utf-8"?>
<!-- Generator: Adobe Illustrator 20.0.0, SVG Export Plug-In . SVG Version: 6.00 Build 0)  -->
<svg version="1.1" id="Layer_1" xmlns="http://www.w3.org/2000/svg" xmlns:xlink="http://www.w3.org/1999/xlink" x="0px" y="0px"
	 viewBox="0 0 500 500" style="enable-background:new 0 0 500 500;" xml:space="preserve">
<style type="text/css">
	.st0{fill:#609600;stroke:#51712E;stroke-width:6;stroke-linejoin:round;stroke-miterlimit:10;}
	.st1{fill:none;stroke:#D6770F;stroke-width:6;stroke-miterlimit:10;}
	.st2{display:none;fill:#D1A982;}
	.st3{fill:#81AF5B;}
	.st4{fill:#47771E;}
	.st5{fill:#D0A679;}
	.st6{fill:#CDA973;stroke:#A5794A;stroke-width:3;stroke-miterlimit:10;}
	.st7{fill:#E0C9BB;stroke:#68763A;stroke-width:3;stroke-linecap:round;stroke-miterlimit:10;}
	.st8{fill:none;stroke:#C69C6D;stroke-width:3;stroke-miterlimit:10;}
	.st9{fill:none;stroke:#699273;stroke-width:3;stroke-miterlimit:10;}
	.st10{fill:#689946;}
	.st11{fill:none;stroke:#689946;stroke-width:3;stroke-miterlimit:10;}
	.st12{fill:#00FFFF;}
	.st13{fill:#54665F;}
	.st14{fill:#434D42;}
	.st15{fill:#54665F;stroke:#434D42;stroke-width:2;stroke-linecap:round;stroke-linejoin:round;stroke-miterlimit:10;}
	.st16{fill:#748C8B;}
	.st17{fill:#EFC11E;}
	.st18{fill:none;stroke:#434D42;stroke-linecap:round;stroke-linejoin:round;stroke-miterlimit:10;}
	.st19{fill:none;stroke:#FFFFFF;stroke-linecap:round;stroke-linejoin:round;stroke-miterlimit:10;}
	.st20{fill:#748C8B;stroke:#434D42;stroke-linecap:round;stroke-linejoin:round;stroke-miterlimit:10;}
	.st21{fill:#FFFFFF;}
	.st22{fill:#EFFE99;stroke:#3E4A14;stroke-width:3;stroke-miterlimit:10;}
	.st23{clip-path:url(#SVGID_2_);}
	.st24{fill:none;stroke:#3E4A14;stroke-width:3;stroke-miterlimit:10;}
	.st25{fill:none;stroke:#FFFFFF;stroke-linecap:round;stroke-miterlimit:10;}
	.st26{fill:#EFFE99;}
	.st27{fill:#3E4A14;}
	.st28{fill:#F1C06D;}
	.st29{clip-path:url(#SVGID_4_);}
	.st30{clip-path:url(#SVGID_6_);}
	.st31{fill:none;stroke:#E4D9C8;stroke-linecap:round;stroke-linejoin:round;}
	.st32{clip-path:url(#SVGID_8_);}
	.st33{clip-path:url(#SVGID_10_);}
	.st34{clip-path:url(#SVGID_12_);}
	.st35{clip-path:url(#SVGID_14_);}
	.st36{clip-path:url(#SVGID_16_);}
	.st37{fill:#DED1C8;}
	.st38{clip-path:url(#SVGID_18_);}
	.st39{clip-path:url(#SVGID_20_);}
	.st40{clip-path:url(#SVGID_22_);}
	.st41{fill:none;stroke:#C6A06A;stroke-width:2;stroke-miterlimit:10;}
	.st42{fill:#699273;}
	.st43{clip-path:url(#SVGID_24_);}
	.st44{fill:#F2E6D6;}
	.st45{clip-path:url(#SVGID_26_);fill:#F2E6D6;}
	.st46{clip-path:url(#SVGID_28_);fill:#F2E6D6;}
	.st47{fill:#7F613C;}
	.st48{fill:none;stroke:#C8CF80;stroke-width:3;stroke-miterlimit:10;}
	.st49{fill:#CEE5D9;}
	.st50{fill:none;stroke:#86C1A7;stroke-width:3;stroke-linecap:round;stroke-miterlimit:10;}
	.st51{fill:none;stroke:#86C1A7;stroke-linecap:round;stroke-miterlimit:10;}
	.st52{fill:#86C1A7;}
	.st53{fill:#CFE2CF;}
	.st54{fill:#C8CF80;}
	.st55{fill:#86BF95;}
	.st56{fill:none;stroke:#86BF95;stroke-width:3;stroke-linecap:round;stroke-miterlimit:10;}
	.st57{fill:none;stroke:#86BF95;stroke-linecap:round;stroke-miterlimit:10;}
	.st58{fill:#ECEE9A;stroke:#699273;stroke-linecap:round;stroke-miterlimit:10;}
	.st59{fill:none;stroke:#699273;stroke-width:3;stroke-linecap:round;stroke-miterlimit:10;}
	.st60{fill:#C69C6D;}
	.st61{fill:#ECEE9A;}
	.st62{clip-path:url(#SVGID_30_);}
	.st63{fill:#2F7B1D;stroke:#0A4D2C;stroke-width:3;stroke-miterlimit:10;}
	.st64{fill:#2F7B1D;stroke:#0A4D2C;stroke-linecap:round;stroke-miterlimit:10;}
	.st65{fill:#2F7B1D;stroke:#81AF5B;stroke-linecap:round;stroke-miterlimit:10;}
	.st66{fill:#2F7B1D;}
	.st67{fill:#0A4D2C;}
	.st68{fill:#FFE706;}
	.st69{fill:#D3A700;}
	.st70{fill:none;stroke:#D3A700;stroke-linecap:round;stroke-miterlimit:10;}
	.st71{fill:#FA8D1B;stroke:#D2614D;stroke-width:3;stroke-miterlimit:10;}
	.st72{fill:#FA8D1B;stroke:#D2614D;stroke-linecap:round;stroke-miterlimit:10;}
	.st73{fill:#E0C9BB;}
	.st74{fill:#FA8D1B;}
	.st75{fill:#68763A;}
	.st76{fill:#D2614D;}
	.st77{fill:#5D685D;stroke:#4A544B;stroke-width:3;stroke-linecap:round;stroke-miterlimit:10;}
	.st78{fill:none;stroke:#979B83;stroke-linecap:round;stroke-miterlimit:10;}
	.st79{fill:none;stroke:#4A544B;stroke-width:3;stroke-linecap:round;stroke-miterlimit:10;}
	.st80{fill:#F4E400;stroke:#DFBE00;stroke-width:3;stroke-miterlimit:10;}
	.st81{fill:#F4E400;stroke:#DFBE00;stroke-linecap:round;stroke-miterlimit:10;}
	.st82{fill:#FDDC6C;stroke:#0A4D2C;stroke-width:3;stroke-miterlimit:10;}
	.st83{fill:#FDDC6C;stroke:#0A4D2C;stroke-miterlimit:10;}
	.st84{fill:#FDDC6C;stroke:#0A4D2C;stroke-linecap:round;stroke-miterlimit:10;}
	.st85{fill:#FDDC6C;stroke:#FFFFFF;stroke-linecap:round;stroke-miterlimit:10;}
	.st86{fill:#CDA973;}
	.st87{fill:#A5794A;}
	.st88{fill:#FDDC6C;}
	.st89{fill:#B29166;}
	.st90{fill:#7F5B3B;}
	.st91{fill:#F4E400;}
	.st92{fill:#A58500;}
	.st93{fill:#DFBE00;}
	.st94{fill:#5F7755;}
	.st95{fill:#4A544B;}
	.st96{fill:#999E77;}
	.st97{fill:#3E4C37;}
	.st98{fill:#FDCC89;}
	.st99{fill:#FDCC89;stroke:#D0A679;stroke-linecap:round;stroke-miterlimit:10;}
	.st100{fill:#7F6546;}
	.st101{fill:#F3CF47;stroke:#D3A700;stroke-linecap:round;stroke-linejoin:round;stroke-miterlimit:10;}
	.st102{fill:#F3CF47;stroke:#FFFFFF;stroke-linecap:round;stroke-linejoin:round;stroke-miterlimit:10;}
	.st103{fill:none;stroke:#D3A700;stroke-miterlimit:10;}
	.st104{fill:#81AF5B;stroke:#2F7B1D;stroke-width:3;stroke-linecap:round;stroke-linejoin:round;stroke-miterlimit:10;}
	.st105{fill:#F3CF47;}
	.st106{fill:#A57600;}
	.st107{fill:#81AF5B;stroke:#0A4D2C;stroke-width:3;stroke-linecap:round;stroke-miterlimit:10;}
	.st108{fill:#47771E;stroke:#0B4C0B;stroke-width:3;stroke-miterlimit:10;}
	.st109{fill:none;stroke:#81AF5B;stroke-linecap:round;stroke-miterlimit:10;}
	.st110{fill:#81AF5B;stroke:#0B4C0B;stroke-width:3;stroke-miterlimit:10;}
	.st111{fill:#0B4C0B;}
	.st112{fill:#FFA227;}
	.st113{fill:none;stroke:#EF8000;stroke-linecap:round;stroke-miterlimit:10;}
	.st114{fill:#EF8000;}
	.st115{fill:none;stroke:#D6770F;stroke-miterlimit:10;}
	.st116{fill:#609600;stroke:#51712E;stroke-miterlimit:10;}
	.st117{fill:#609600;}
	.st118{fill:#51712E;}
	.st119{fill:#D6770F;}
</style>
<rect x="-139.7" y="-2293.9" class="st2" width="2535.7" height="2318.4"/>
<g>
	<path class="st117" d="M285.7,44.3c-10.7,27.8-11.5,55.2-11.5,86.4c0,0-10.1,9.8-22.7,9.8c-11.9,0-22.7-9.1-22.7-9.1
		c0-32.3,11.7-68.1,26.7-90.9l0,0c9.6-4.6,20.9-3.4,29.3,3.1L285.7,44.3z"/>
	<path class="st118" d="M297.9,112.5c0.5-21.7,2.5-40.9,9.8-59.7c3.7-9.7,0.7-20.7-7.5-27.1l-0.9-0.7c-15.5-12.1-36.2-14.3-54-5.8
		c-3.9,1.9-7.2,4.7-9.5,8.3c-15.3,23.3-26.1,55-29.5,85H297.9z"/>
	<path class="st112" d="M475.4,296c0,106.3-100.9,166.3-225.4,166.3S24.6,402.3,24.6,296c0-64.7,20.6-115.6,54.8-151.9
		c32.1-34.2,93.2-36.5,137.6-18c21.2,8.9,45.3,8.6,66.6-0.1c43.2-17.6,102-15.3,133.8,17.4C453.4,180.7,475.4,232.5,475.4,296z"/>
	<path class="st114" d="M398.8,385.6c-0.6,0-1.3-0.2-1.9-0.5c-1.9-1-2.6-3.4-1.6-5.3c13.2-24.1,19.9-52.3,19.9-83.8
		c0-2.2,1.8-3.9,3.9-3.9s3.9,1.8,3.9,3.9c0,32.8-7,62.3-20.9,87.6C401.5,384.9,400.2,385.6,398.8,385.6z"/>
	<path class="st114" d="M417.2,262.8c-2,0-3.7-1.5-3.9-3.5c-1.3-11.6-3.2-22.9-5.7-33.7c-0.5-2.1,0.8-4.2,2.9-4.7
		c2.1-0.5,4.2,0.8,4.7,2.9c2.6,11.1,4.5,22.7,5.8,34.6c0.2,2.2-1.3,4.1-3.5,4.3C417.5,262.8,417.4,262.8,417.2,262.8z"/>
	<path class="st114" d="M389.8,170c-1.4,0-2.8-0.8-3.5-2.1c-4.2-7.8-8.9-15.3-13.9-22.2c-12.2-16.8-31.1-26.3-53.3-26.7
		c-2.2,0-3.9-1.8-3.9-4c0-2.1,1.8-3.9,3.9-3.9c0,0,0,0,0.1,0c24.6,0.5,45.8,11.1,59.5,29.9c5.2,7.2,10.1,15,14.5,23.1
		c1,1.9,0.3,4.3-1.6,5.3C391.1,169.9,390.4,170,389.8,170z"/>
	<path class="st114" d="M113.5,161.1c-0.7,0-1.4-0.2-2-0.5c-1.9-1.1-2.5-3.5-1.4-5.4c2.7-4.6,5.6-9.1,8.6-13.4
		c1.2-1.8,3.7-2.2,5.5-0.9c1.8,1.3,2.2,3.7,0.9,5.5c-2.9,4.1-5.7,8.4-8.3,12.9C116.1,160.4,114.8,161.1,113.5,161.1z"/>
	<path class="st114" d="M91.6,214c-0.3,0-0.7,0-1-0.1c-2.1-0.6-3.3-2.7-2.7-4.8c3.3-12.1,7.5-23.6,12.3-34.3c0.9-2,3.2-2.9,5.2-2
		c2,0.9,2.9,3.2,2,5.2c-4.7,10.3-8.7,21.5-11.9,33.2C94.9,212.8,93.3,214,91.6,214z"/>
	<path class="st114" d="M80.8,299.9c-2.2,0-3.9-1.8-3.9-3.9c0-17,1.1-33.4,3.2-49c0.3-2.1,2.3-3.7,4.4-3.4c2.2,0.3,3.7,2.3,3.4,4.4
		c-2.1,15.2-3.1,31.3-3.1,47.9C84.7,298.1,82.9,299.9,80.8,299.9z"/>
	<path class="st114" d="M162.9,206.9c-0.2,0-0.4,0-0.7-0.1c-2.1-0.4-3.6-2.4-3.2-4.5c3.8-22.4,9.2-42.4,16-59.6c0.8-2,3.1-3,5.1-2.2
		c2,0.8,3,3.1,2.2,5.1c-6.6,16.7-11.8,36.2-15.5,58.1C166.4,205.5,164.7,206.9,162.9,206.9z"/>
	<path class="st114" d="M155.7,299.9c-2.2,0-3.9-1.8-3.9-3.9c0-8.9,0.2-17.8,0.5-26.3c0.1-2.2,1.9-3.9,4.1-3.8
		c2.2,0.1,3.9,1.9,3.8,4.1c-0.3,8.4-0.5,17.2-0.5,26C159.6,298.1,157.9,299.9,155.7,299.9z"/>
	<path class="st114" d="M249.8,459.1c-33-0.1-60.9-25.7-76.5-70.2c-0.7-2-3-3.1-5-2.4c-2,0.7-3.1,3-2.4,5
		c7.9,22.4,18.8,40.4,31.9,53.1c2.9,2.8,0.1,7.7-3.7,6.5c-35.3-10.6-64.5-31.6-83.7-61.1c-1.2-1.8-3.6-2.3-5.4-1.1
		c-1.8,1.2-2.3,3.6-1.1,5.4C133.9,440.5,187.2,467,250,467c2.4,0,4.4-2.2,3.8-4.8C253.5,460.4,251.7,459.1,249.8,459.1z"/>
	<path class="st114" d="M326.9,402.5c-0.5,0-1-0.1-1.5-0.3c-2-0.8-3-3.1-2.1-5.1c5.7-13.8,10-29.6,12.9-46.9
		c0.4-2.1,2.4-3.6,4.5-3.2c2.1,0.4,3.6,2.4,3.2,4.5c-3,17.9-7.5,34.2-13.4,48.6C329.9,401.6,328.4,402.5,326.9,402.5z"/>
	<path class="st114" d="M344.3,299.9c-2.2,0-3.9-1.8-3.9-3.9c0-30.1-2.1-58.3-6.2-83.9c-0.3-2.1,1.1-4.2,3.3-4.5
		c2.1-0.3,4.2,1.1,4.5,3.3c4.2,26.1,6.3,54.7,6.3,85.2C348.2,298.1,346.5,299.9,344.3,299.9z"/>
	<path class="st114" d="M330.2,178c-1.7,0-3.3-1.2-3.8-2.9c-2.9-10.8-6.3-21-10-30.2c-0.8-2,0.2-4.3,2.2-5.1c2-0.8,4.3,0.2,5.1,2.2
		c3.9,9.5,7.3,20,10.3,31.1c0.6,2.1-0.7,4.3-2.8,4.8C330.8,177.9,330.5,178,330.2,178z"/>
	<path class="st114" d="M250.2,414.1c-2.2,0-3.9-1.8-3.9-3.9V314c0-2.2,1.8-3.9,3.9-3.9c2.2,0,3.9,1.8,3.9,3.9v96.2
		C254.1,412.4,252.4,414.1,250.2,414.1z"/>
	<path class="st114" d="M250.2,261.8c-2.2,0-3.9-1.8-3.9-3.9v-42.1c0-2.2,1.8-3.9,3.9-3.9c2.2,0,3.9,1.8,3.9,3.9v42.1
		C254.1,260.1,252.4,261.8,250.2,261.8z"/>
	<circle class="st114" cx="160.3" cy="338.8" r="4.5"/>
	<circle class="st114" cx="250.6" cy="193.5" r="4.5"/>
	<circle class="st114" cx="82.2" cy="318.7" r="4.5"/>
	<circle class="st21" cx="73.3" cy="189.1" r="4.5"/>
	<circle class="st21" cx="111.8" cy="247.6" r="4.5"/>
	<path class="st21" d="M115,224.7c-0.2,0-0.5,0-0.7-0.1c-2.1-0.4-3.6-2.4-3.2-4.6c0.2-1.3,5.7-31.1,17.9-55c1-1.9,3.4-2.7,5.3-1.7
		c1.9,1,2.7,3.4,1.7,5.3c-11.7,22.8-17.1,52.5-17.2,52.8C118.5,223.4,116.9,224.7,115,224.7z"/>
	<path class="st119" d="M434.2,127c-18.8-19.4-45.5-31.4-77.1-34.6c-27.6-2.8-56.9,1.4-82.5,11.8c-15.7,6.4-33.5,6.5-48.6,0.1
		C175.5,83.2,103,84.5,62.2,127.9C22.2,170.5,1,228.7,1,296c0,29.8,7,57.5,20.7,82.3c12.9,23.3,31.6,43.6,55.5,60.1
		c44.2,30.6,105.5,47.5,172.8,47.5s128.7-16.9,172.8-47.5c23.9-16.6,42.6-36.8,55.5-60.1C492,353.5,499,325.8,499,296
		C499,229.1,476.6,170.7,434.2,127z M215.4,129.7c21.8,9.1,47.2,9.1,69.6-0.1c21.5-8.8,46.1-12.3,69.3-9.9
		c25.1,2.6,45.9,11.7,60.2,26.4c37.3,38.5,57,90.3,57,149.8c0,49.2-22.2,90.6-64.3,119.8c-39.6,27.5-95.4,42.6-157.2,42.6
		s-117.5-15.1-157.2-42.6C50.8,386.6,28.5,345.2,28.5,296c0-60.2,18.6-111.8,53.7-149.2c18.7-19.9,47.3-28.2,75.9-28.2
		C178.3,118.6,198.6,122.7,215.4,129.7z"/>
	<path class="st117" d="M285.7,44.3c-12.4,26.4-11.5,55.2-11.5,86.4c0,0-10.1,9.8-22.7,9.8c-11.9,0-22.7-9.1-22.7-9.1
		c0-32.3,11.7-68.1,26.7-90.9l0,0c9.6-4.6,20.9-3.4,29.3,3.1L285.7,44.3z"/>
	<path class="st118" d="M251.5,144.4c-13.2,0-24.8-9.6-25.2-10l0,0c-0.9-0.7-1.4-1.8-1.4-3l0,0c0-31.3,10.7-67.8,27.3-93.1l0.6-0.9
		l1-0.5c10.9-5.2,23.9-3.9,33.4,3.6l3.4,2.6l-1.3,2.8C278,70,278,96.6,278.1,124.8c0,2,0,3.9,0,5.9v0c0,1.1-0.4,2.1-1.2,2.8l0,0
		C276.4,134,265.4,144.4,251.5,144.4z M232.8,124.9c-0.1,3,1.4,5.8,4.1,7.3c3.8,2.1,9.1,4.4,14.6,4.4c6,0,11.5-2.7,15.2-5
		c2.3-1.5,3.6-4,3.6-6.7l0,0c0-26-0.1-50.6,8.4-73.8c1.3-3.5-0.7-7.4-4.3-8.4c-3.8-1.1-7.9-1.3-11.9-0.4c-2.6,0.6-4.9,2.2-6.3,4.5
		C243.1,68.5,234.2,98.6,232.8,124.9z"/>
</g>
</svg>
