<?xml version="1.0" encoding="utf-8"?>
<!-- Generator: Adobe Illustrator 20.0.0, SVG Export Plug-In . SVG Version: 6.00 Build 0)  -->
<svg version="1.1" id="Layer_1" xmlns="http://www.w3.org/2000/svg" xmlns:xlink="http://www.w3.org/1999/xlink" x="0px" y="0px"
	 viewBox="0 0 500 500" style="enable-background:new 0 0 500 500;" xml:space="preserve">
<style type="text/css">
	.st0{fill:#3B792C;stroke:#15540E;stroke-width:6;stroke-miterlimit:10;}
	.st1{fill:none;stroke:#355B00;stroke-width:6;stroke-miterlimit:10;}
	.st2{fill:#94AD34;stroke:#355B00;stroke-linecap:round;stroke-linejoin:round;stroke-miterlimit:10;}
	.st3{fill:#00FFFF;}
	.st4{fill:#95CC63;stroke:#517B39;stroke-width:3;stroke-linecap:round;stroke-linejoin:round;stroke-miterlimit:10;}
	.st5{fill:none;stroke:#517B39;stroke-linecap:round;stroke-linejoin:round;stroke-miterlimit:10;}
	.st6{fill:none;stroke:#FFFFFF;stroke-linecap:round;stroke-linejoin:round;stroke-miterlimit:10;}
	.st7{clip-path:url(#SVGID_2_);}
	.st8{fill:none;stroke:#00FFFF;stroke-width:0.2598;stroke-miterlimit:10;}
	.st9{fill:none;stroke:#355B00;stroke-linecap:round;stroke-linejoin:round;stroke-miterlimit:10;}
	.st10{fill:#94AD34;}
	.st11{fill:#355B00;}
	.st12{fill:#95CC63;stroke:#517B39;stroke-linecap:round;stroke-linejoin:round;stroke-miterlimit:10;}
	.st13{fill:none;stroke:#94AD34;stroke-linecap:round;stroke-linejoin:round;stroke-miterlimit:10;}
	.st14{fill:#FFFFFF;}
	.st15{fill:none;stroke:#94AD34;stroke-width:0.4041;stroke-miterlimit:10;}
	.st16{fill:#94AD34;stroke:#94AD34;stroke-linecap:round;stroke-miterlimit:10;}
	.st17{fill:none;stroke:#94AD34;stroke-miterlimit:10;}
	.st18{fill:none;stroke:#94AD34;stroke-width:0.2579;stroke-miterlimit:10;}
	.st19{fill:none;stroke:#7BB76B;stroke-linecap:round;stroke-linejoin:round;stroke-miterlimit:10;}
	.st20{fill:#7BB76B;stroke:#3B792C;stroke-linecap:round;stroke-linejoin:round;stroke-miterlimit:10;}
	.st21{fill:none;stroke:#3B792C;stroke-linecap:round;stroke-linejoin:round;stroke-miterlimit:10;}
	.st22{fill:none;stroke:#BCEFA5;stroke-linecap:round;stroke-linejoin:round;stroke-miterlimit:10;}
	.st23{fill:#3B792C;}
	.st24{fill:#BCEFA5;}
	.st25{fill:#15540E;}
	.st26{fill:#7BB76B;}
	.st27{fill:none;stroke:#62A580;stroke-miterlimit:10;}
	.st28{fill:none;stroke:#62A580;stroke-linecap:round;stroke-miterlimit:10;}
	.st29{fill:#62A580;}
	.st30{fill:#ACCEA2;stroke:#19402E;stroke-width:6;stroke-linejoin:round;stroke-miterlimit:10;}
	.st31{fill:none;stroke:#769D6E;stroke-linecap:round;stroke-miterlimit:10;}
	.st32{fill:#769D6E;}
	.st33{fill:none;stroke:#ACCEA2;stroke-linecap:round;stroke-miterlimit:10;}
	.st34{fill:none;stroke:#FFFFFF;stroke-linecap:round;stroke-miterlimit:10;}
	.st35{fill:none;stroke:#438763;stroke-linecap:round;stroke-miterlimit:10;}
	.st36{fill:#438763;}
	.st37{fill:#ACCEA2;}
	.st38{fill:#19402E;}
	.st39{fill:#917013;}
	.st40{fill:#EDDC84;}
	.st41{fill:#F4EDAA;}
	.st42{fill:#DBC002;}
	.st43{fill:#463849;}
	.st44{fill:#B28BB8;}
	.st45{fill:#CCBCDF;}
	.st46{fill:#9C5D96;}
</style>
<path class="st37" d="M451.9,420.1c-0.3-0.7-7.1-15.2-23.7-22.1c-2.9-5.6-7-13.5-9.7-18.9c-2-3.8-4.8-7.1-8.2-9.7
	c-61.4-48.1-84.5-120.3-92.2-181.3c-6.8-54.6-7-101.7-6.8-113.5c0.2,0.1,0.4,0.2,0.6,0.4c0.7,0.6,1.6,0.9,2.5,0.9
	c1.1,0,2.2-0.5,3-1.4c1.4-1.6,1.2-4.1-0.5-5.5c-3-2.5-6-4-8.9-4.7c-0.5-7.1-2.7-16.6-10.4-24.4c-11.7-11.9-31.8-15.6-59.7-11.1
	c-0.6-0.1-1-0.2-1-0.2c-29.1-5.6-49.7-2.4-61.2,9.6c-8.4,8.7-9.9,19.8-9.8,27.4c-2.9,1.1-5.8,2.8-8.6,5.6c-1.5,1.5-1.5,4,0,5.5
	c0.8,0.8,1.8,1.1,2.7,1.1c1,0,2-0.4,2.8-1.1c0.4-0.4,0.9-0.7,1.3-1.1c1.2,11.2,5.1,58.5,3,114c-2.4,61.4-19.3,135.3-76.3,188.5
	c-3.1,2.9-5.7,6.4-7.3,10.4c-2.3,5.6-5.7,13.8-8.1,19.6c-15.9,8.3-21.5,23.3-21.7,24.1c-0.7,2,0.4,4.2,2.4,4.9
	c0.9,0.3,1.8,0.3,2.6,0c1-0.4,1.9-1.2,2.3-2.3c0-0.1,4.9-12.9,18-19.8c14.8-1,27.4-9.1,27.4-9.1c56.7-49.8,90.6-124.2,92-215.3
	c1-63.9-13.2-101.8-18.4-117.8c0.4,0.1,0.8,0.3,0.8,0.3c2,0.8,4.2-0.1,5.1-2c0.9-2,0-4.3-2-5.1c-0.3-0.1-4.5-1.8-10.1-1.7
	c0.1-6.1,1.5-14.3,7.6-20.6c9.5-9.8,27.3-12.3,53-7.5c-0.5,26.7-3.1,208.3,13,434.4c0.1,2,1.8,3.6,3.9,3.6c0.1,0,0.2,0,0.3,0
	c2.1-0.2,3.8-2,3.6-4.2c-16.1-226.1-13.5-407.6-13-433.9c23.7-3.4,40.5-0.3,49.9,9.3c5.7,5.7,7.6,12.9,8.2,18.5
	c-4.8,0.5-8.3,2.3-8.6,2.4c-1.9,1-2.6,3.4-1.6,5.2c1,1.9,3.3,2.6,5.2,1.6c-3.9,16.5-14.7,55.4-8.2,118.7
	c9.2,90.6,49.3,161.9,110.1,206.6c0,0,13.2,7,28.1,6.7c13.7,5.7,19.6,18.1,19.7,18.2c0.5,1.1,1.4,1.8,2.5,2.1
	c0.8,0.2,1.8,0.2,2.6-0.2C451.9,424.3,452.8,422.1,451.9,420.1z"/>
<path class="st43" d="M337,87.1c-1.5,2.4-2.3,5.2-2.2,8c0.4,20.1,1.9,53.3,6.5,90.2c4.1,32.9,12.2,62.7,24,88.7
	c14.3,31.5,34.3,57.5,59.4,77.1c6.2,4.8,11,10.7,14.5,17.4l2,4c2.6,5,6.3,9.2,10.8,12.6c14.1,10.6,20.3,23.7,21.1,25.5c0,0,0,0,0,0
	c6.2,13.7,0,29.8-13.6,36c-5.7,2.6-12.2,3.1-18.4,1.4c-7.6-2.1-13.8-7.3-17.3-14.3c0,0-0.1-0.1-0.1-0.1c-1.9-3.1-5.1-5.2-8.7-5.7
	c-15.5-1.9-27.4-8-28.9-8.8c-1-0.5-2-1.2-2.9-1.8c-33.5-24.7-60.7-56.2-81.1-93.8c-10.5-19.5-19.1-40.4-25.5-62.5
	c-1.5-5.1-9.1-4-8.9,1.4c2,61.2,5.2,131.3,10.5,206c0.5,7.2-1.8,14.2-6.6,19.7c-4.7,5.5-11.3,8.8-18.5,9.3c-0.7,0.1-1.4,0.1-2,0.1
	c-14.2,0-26.1-11.1-27.1-25.3c-4.7-65.6-7.8-127.3-9.8-182.6c-0.2-4.1-5.9-4.8-7.1-0.9c-3.5,11.8-7.7,23.3-12.6,34.4
	c-17,39.2-41.5,73-72.7,100.4c-0.9,0.8-1.8,1.5-2.8,2.1c-1.5,1-12.8,8-28.1,11.3c-3.6,0.8-6.6,3.1-8.2,6.4c0,0.1,0,0.1-0.1,0.1
	c-2.8,7.3-8.6,13-16,15.7c-5.9,2.2-12.5,2.2-18.5,0.1c-14.1-5-21.6-20.5-16.6-34.6c0.7-1.9,5.6-15,18.2-26.6
	c4.8-4.5,8.6-9.9,11.1-16l0.9-2.3c2.9-7,7.2-13.2,13-18.5c23.3-21.7,41-49.3,52.6-81.9c9.5-26.9,15-57.3,16.3-90.4
	c1.5-38.2,0-72-1.4-92c-0.1-1.3-0.7-2.6-1.6-3.5l0,0c-10.6-10.6-10.7-27.9-0.1-38.5c0.6-0.6,1.2-1.1,1.8-1.7
	c0.8-0.7,1.3-1.7,1.6-2.8c2.3-10.9,7.3-20.5,14.8-28.3C174.4,6,198.1-0.2,229.5,3.8c5.9,0.7,11.8,0.8,17.8,0.3
	c29.3-2.5,51.8,4.1,66.9,19.4c5.9,6,10.4,13.2,13.3,21.1c0.9,2.5,2.4,4.8,4.5,6.5l0,0c6.8,5.7,10.4,14.3,9.5,23.5
	C341,79.9,338.8,84.3,337,87.1z M231.8,471.5C231.8,471.6,231.8,471.6,231.8,471.5C231.8,471.6,231.8,471.6,231.8,471.5z
	 M83.1,442.1c-0.1,0.2-0.1,0.3-0.2,0.5c-0.1,0.2-0.2,0.4-0.2,0.7C83,442.5,83.1,442.1,83.1,442.1z M423.6,432.9
	C423.6,432.9,423.6,432.9,423.6,432.9C423.6,432.9,423.6,432.9,423.6,432.9z M423.6,432.9C423.6,432.9,423.6,432.9,423.6,432.9
	C423.6,432.9,423.6,432.9,423.6,432.9z M423.3,432.4C423.3,432.4,423.3,432.4,423.3,432.4C423.3,432.4,423.3,432.4,423.3,432.4z
	 M39.4,425.9c-0.2,0.4-0.3,0.7-0.4,1.1l0,0C39.1,426.7,39.2,426.3,39.4,425.9z"/>
<path class="st44" d="M233.3,27.9c3,0.6,6,0.6,9,0.2c25.6-3.4,44.2,0.5,55.2,11.8c10.3,10.5,10.9,24.3,10.5,30.7
	c1.9,0.6,3.4,1.1,3.4,1.1c-0.2,1-1.1,53.8,6.7,116.4c7.6,61.1,30.8,133.3,92.4,181.5c3.3,2.6,6,5.8,7.9,9.5c1.3,2.6,3,5.7,4.6,9
	c2.8,5.5,7,10.3,12.2,13.6c11.5,7.4,16.4,17.8,16.6,18.4c0.9,2,0,4.2-2,5.1c-0.9,0.4-1.8,0.4-2.6,0.2c-1.1-0.3-2-1-2.5-2.1
	c-0.1-0.1-6-12.5-19.7-18.2c-14.9,0.3-28.1-6.7-28.1-6.7c-60.8-44.8-100.8-116-110.1-206.6c-6.8-66.7,5.6-106.4,8.8-121.2
	c0,0,2.1-0.5,4.5-0.7c0.2-5.3-0.4-16.4-8.4-24.5c-8.1-8.2-21.6-11.7-40.2-10.4c-5.5,0.4-9.8,5-9.9,10.5
	c-0.6,46.8-1.7,216.8,13.1,424.4c0.2,2.1-1.5,4-3.6,4.2c-0.1,0-0.2,0-0.3,0c-2,0-3.7-1.6-3.9-3.6c-14.8-207.9-13.8-378.3-13.1-425.1
	c0.1-5.5-4-10.1-9.5-10.8c-20.6-2.5-35.1,0.5-43.4,9.1c-8.5,8.8-7.9,21.4-7.3,26.6c2.7,0,5.2,0.4,5.2,0.4c4.5,14.5,20.2,53,19.1,120
	c-1.4,91.1-35.2,165.5-92,215.3c0,0-12.6,8.1-27.4,9.1c-13.1,6.9-18,19.7-18,19.8c-0.4,1.1-1.3,2-2.3,2.3c-0.8,0.3-1.7,0.3-2.6,0
	c-2-0.7-3.1-2.9-2.4-4.9c0.2-0.6,4.2-11.4,15-19.7c4.9-3.8,8.6-8.9,11-14.6c1.4-3.3,2.7-6.6,3.8-9.3c1.6-3.8,4-7.3,7-10.1
	c57.3-53.2,74.2-127.2,76.6-188.7c2.5-63-3-115.5-3.3-116.5c0,0,1.1-0.6,2.6-1.2c-0.9-6-1.9-22.1,9.3-33.7
	C175.7,38.2,190,19.1,233.3,27.9z"/>
<path class="st45" d="M401.7,396c-0.8,0-1.6-0.2-2.3-0.8c-62.1-45.7-99.6-116.2-108.5-203.9c-3.3-32.8-2.4-64,2.7-92.6
	c0.4-2.1,2.4-3.5,4.5-3.1c2.1,0.4,3.5,2.4,3.1,4.5c-5,27.9-5.9,58.3-2.6,90.4C307.3,276,343.7,344.6,404,389
	c1.7,1.3,2.1,3.7,0.8,5.4C404,395.5,402.9,396,401.7,396z"/>
<path class="st14" d="M294.8,194.9c-2,0-3.7-1.5-3.9-3.5c-2.3-22.2-2.6-43.8-1-64c0.2-2.1,2-3.7,4.2-3.6c2.1,0.2,3.7,2,3.6,4.2
	c-1.6,19.8-1.3,40.8,1,62.6c0.2,2.1-1.3,4-3.5,4.3C295,194.9,294.9,194.9,294.8,194.9z"/>
<path class="st46" d="M344.2,305.1c-1.4,0-2.7-0.8-3.4-2.1c-17.4-32.8-28.9-70.9-34.2-113.4c-0.3-2.1,1.2-4.1,3.4-4.3
	c2.1-0.3,4.1,1.2,4.3,3.4c5.2,41.5,16.4,78.8,33.4,110.7c1,1.9,0.3,4.2-1.6,5.3C345.5,304.9,344.8,305.1,344.2,305.1z"/>
<path class="st45" d="M314.4,75.9c-0.9,0-1.8-0.3-2.5-0.9c-7.7-6.5-16.3-2.1-16.7-1.9c-1.9,1-4.2,0.3-5.2-1.6
	c-1-1.9-0.3-4.2,1.6-5.2c0.5-0.3,13.5-7.2,25.4,2.8c1.6,1.4,1.8,3.8,0.5,5.5C316.6,75.5,315.5,75.9,314.4,75.9z"/>
<path class="st46" d="M101.3,403.9c-1.1,0-2.2-0.4-2.9-1.3c-1.4-1.6-1.3-4.1,0.4-5.5c56.2-49.4,86.7-120.8,88-206.7
	c0.3-19.5-0.8-38.3-3.4-55.9c-0.3-2.1,1.2-4.1,3.3-4.4c2.1-0.3,4.1,1.2,4.4,3.3c2.6,18,3.8,37.3,3.5,57.1
	c-1.4,88.1-32.7,161.6-90.7,212.4C103.1,403.6,102.2,403.9,101.3,403.9z"/>
<path class="st45" d="M150.8,308.4c-0.5,0-1-0.1-1.5-0.3c-2-0.8-2.9-3.1-2.1-5.1c14.1-33.3,22.1-71.3,23.8-113.2
	c0.1-2.1,1.9-3.8,4-3.7c2.1,0.1,3.8,1.9,3.7,4c-1.7,42.8-9.9,81.8-24.4,115.9C153.7,307.5,152.3,308.4,150.8,308.4z"/>
<path class="st14" d="M150.8,308.4c-0.5,0-1-0.1-1.5-0.3c-2-0.8-2.9-3.1-2.1-5.1c6.2-14.5,11.2-30.2,15.1-46.5
	c0.5-2.1,2.6-3.4,4.7-2.9c2.1,0.5,3.4,2.6,2.9,4.7c-3.9,16.8-9.1,32.9-15.5,47.8C153.7,307.5,152.3,308.4,150.8,308.4z"/>
<path class="st45" d="M160,77.9c-1,0-2-0.4-2.7-1.1c-1.5-1.5-1.5-4,0-5.5c11.6-11.7,26-5.6,26.6-5.3c2,0.9,2.9,3.1,2,5.1
	c-0.9,2-3.1,2.9-5.1,2c-0.5-0.2-10.2-4.2-18,3.7C162,77.5,161,77.9,160,77.9z"/>
<ellipse transform="matrix(4.717232e-02 -0.9989 0.9989 4.717232e-02 -181.0547 448.7282)" class="st14" cx="144.7" cy="319.3" rx="3.9" ry="3.9"/>
<ellipse transform="matrix(0.1504 -0.9886 0.9886 0.1504 154.5564 378.4977)" class="st14" cx="297.5" cy="99.3" rx="3.9" ry="3.9"/>
<circle class="st46" cx="185.7" cy="118.2" r="3.9"/>
<ellipse transform="matrix(0.1504 -0.9886 0.9886 0.1504 -27.1946 727.9405)" class="st46" cx="409.9" cy="379.8" rx="3.9" ry="3.9"/>
</svg>
