<?xml version="1.0" encoding="utf-8"?>
<!-- Generator: Adobe Illustrator 20.0.0, SVG Export Plug-In . SVG Version: 6.00 Build 0)  -->
<svg version="1.1" id="Layer_1" xmlns="http://www.w3.org/2000/svg" xmlns:xlink="http://www.w3.org/1999/xlink" x="0px" y="0px"
	 viewBox="0 0 64 64" style="enable-background:new 0 0 64 64;" xml:space="preserve">
<style type="text/css">
	.st0{display:none;}
	.st1{display:inline;fill:#D1A982;}
	.st2{display:inline;}
	.st3{fill:#AFD048;stroke:#6B9311;stroke-width:3;stroke-miterlimit:10;}
	.st4{fill:none;stroke:#6B9311;stroke-miterlimit:10;}
	.st5{fill:#AFD048;}
	.st6{fill:#F40000;stroke:#BA0D0D;stroke-width:3;stroke-miterlimit:10;}
	.st7{fill:none;stroke:#FFFFFF;stroke-linecap:round;stroke-linejoin:round;stroke-miterlimit:10;}
	.st8{fill:#CDA347;stroke:#A2690C;stroke-width:3;stroke-miterlimit:10;}
	.st9{fill:#A2CC62;}
	.st10{fill:#68664C;stroke:#522B25;stroke-width:3;stroke-linecap:round;stroke-linejoin:round;stroke-miterlimit:10;}
	.st11{fill:#B63E34;stroke:#522B25;stroke-width:3;stroke-miterlimit:10;}
	.st12{fill:#ADD481;}
	.st13{fill:#68664C;}
	.st14{fill:#593156;stroke:#331E31;stroke-width:3;stroke-miterlimit:10;}
	.st15{fill:none;stroke:#FFFFFF;stroke-linecap:round;stroke-miterlimit:10;}
	.st16{fill:#22B573;stroke:#184C28;stroke-width:3;stroke-linecap:round;stroke-linejoin:round;stroke-miterlimit:10;}
	.st17{fill:#EE0000;}
	.st18{fill:#9A0601;}
	.st19{fill:#EE0000;stroke:#9A0601;stroke-linecap:round;stroke-linejoin:round;stroke-miterlimit:10;}
	.st20{fill:#FFFFFF;}
	.st21{clip-path:url(#SVGID_2_);}
	.st22{fill:#00FFFF;}
	.st23{fill:#456A0A;}
	.st24{fill:#183300;}
	.st25{fill:#88A501;}
	.st26{fill:#3B6700;}
	.st27{fill:#FC4100;}
	.st28{fill:#9F0500;}
	.st29{fill:none;stroke:#6B9311;stroke-width:3;stroke-linecap:round;stroke-miterlimit:10;}
	.st30{fill:#6B9311;}
	.st31{fill:#593156;}
	.st32{fill:#331E31;}
	.st33{fill:#AFD048;stroke:#6B9311;stroke-width:3;stroke-linecap:round;stroke-linejoin:round;stroke-miterlimit:10;}
	.st34{fill:none;stroke:#6B9311;stroke-linejoin:round;stroke-miterlimit:10;}
	.st35{fill:#B63E34;stroke:#522B25;stroke-miterlimit:10;}
	.st36{fill:none;stroke:#522B25;stroke-miterlimit:10;}
	.st37{fill:none;stroke:#522B25;stroke-width:3;stroke-miterlimit:10;}
	.st38{fill:#B63E34;}
	.st39{fill:#522B25;}
	.st40{fill:none;stroke:#40760E;stroke-width:3;stroke-linecap:round;stroke-linejoin:round;stroke-miterlimit:10;}
	.st41{fill:none;stroke:#40760E;stroke-linecap:round;stroke-linejoin:round;stroke-miterlimit:10;}
	.st42{fill:#A2CC62;stroke:#40760E;stroke-width:3;stroke-linecap:round;stroke-linejoin:round;stroke-miterlimit:10;}
	.st43{fill:#A2CC62;stroke:#40760E;stroke-linecap:round;stroke-linejoin:round;stroke-miterlimit:10;}
	.st44{fill:#9EC161;}
	.st45{fill:#40760E;}
	.st46{fill:#AFD048;stroke:#6B9311;stroke-width:3;stroke-linejoin:round;stroke-miterlimit:10;}
	.st47{fill:#663965;}
	.st48{fill:#9D610B;}
	.st49{fill:none;stroke:#A2690C;stroke-linecap:round;stroke-miterlimit:10;}
	.st50{fill:#6D4E2B;}
	.st51{fill:#CDA347;}
	.st52{fill:#7F500A;}
	.st53{fill:#F40000;stroke:#BA0D0D;stroke-miterlimit:10;}
	.st54{fill:#F40000;stroke:#B63E34;stroke-width:3;stroke-miterlimit:10;}
	.st55{fill:#F40000;stroke:#B63E34;stroke-miterlimit:10;}
	.st56{fill:#F40000;}
	.st57{fill:#990D0D;}
	.st58{fill:#B94850;stroke:#6C0A04;stroke-width:3;stroke-miterlimit:10;}
	.st59{fill:#CE8645;stroke:#CE8645;stroke-width:0.5;stroke-miterlimit:10;}
	.st60{fill:#6C0A04;stroke:#6C0A04;stroke-width:0.5;stroke-miterlimit:10;}
	.st61{fill:none;stroke:#6C0A04;stroke-linecap:round;stroke-miterlimit:10;}
	.st62{fill:#B94850;}
	.st63{fill:#CE8645;}
	.st64{fill:#6C0A04;}
	.st65{fill:#8C4F6F;}
	.st66{fill:#E7C456;}
	.st67{fill:#391A26;}
	.st68{fill:#E7C456;stroke:#AC5E17;stroke-width:3;stroke-miterlimit:10;}
	.st69{fill:#4F250E;stroke:#4F250E;stroke-width:0.5;stroke-miterlimit:10;}
	.st70{fill:none;stroke:#AC5E17;stroke-linecap:round;stroke-miterlimit:10;}
	.st71{fill:#4F250E;}
	.st72{fill:#995116;}
</style>
<g class="st0">
	<rect x="-127.4" y="-1989.4" class="st1" width="919.6" height="2155.1"/>
	<path class="st2" d="M791.7-1988.9V165.2h-918.6v-2154.1H791.7 M792.7-1989.9h-920.6V166.2h920.6V-1989.9L792.7-1989.9z"/>
</g>
<path class="st65" d="M27.7,12.2c5.9,1.5,13.7,2,20.8,3.2c7.5,1.3,12.9,8.9,12.4,18c-0.4,7.2-4.6,13.2-9.9,15.1
	c-4.6,2.2-11.7,3.3-19.7,2.8c-7.2-0.4-13.6-2.1-17.9-4.5C7.3,44,3.2,36.8,3.7,28.8C3.7,28.8,3.8,6.2,27.7,12.2z"/>
<path class="st66" d="M25.7,37.7c0.2,0,0.4-0.1,0.5-0.2c0.2-0.1,0.2-0.3,0.3-0.5c0-0.4-0.2-0.7-0.6-0.8c0,0-0.1,0-0.1,0
	c-0.4,0-0.8,0.3-0.8,0.7C25,37.3,25.3,37.6,25.7,37.7z"/>
<path class="st66" d="M26.1,31.7c0.2,0,0.4-0.1,0.5-0.2c0.2-0.1,0.2-0.3,0.3-0.5c0-0.2-0.1-0.4-0.2-0.5c-0.1-0.1-0.3-0.2-0.4-0.2
	c0,0-0.1,0-0.1,0c-0.2,0-0.4,0.1-0.5,0.2c-0.2,0.1-0.2,0.3-0.3,0.5C25.3,31.3,25.7,31.6,26.1,31.7z"/>
<path class="st67" d="M18.6,22.2c0.4,0,0.8-0.3,0.8-0.7c0-0.2-0.1-0.4-0.2-0.5c-0.1-0.1-0.3-0.2-0.4-0.2c0,0-0.1,0-0.1,0
	c-0.4,0-0.8,0.3-0.8,0.7C17.9,21.8,18.2,22.2,18.6,22.2z"/>
<path class="st67" d="M31.4,34.8c0.1,0.2,0.3,0.2,0.5,0.3c0.2,0,0.4-0.1,0.5-0.2c0.2-0.1,0.2-0.3,0.3-0.5c0-0.2-0.1-0.4-0.2-0.5
	c-0.1-0.1-0.3-0.2-0.4-0.2c0,0-0.1,0-0.1,0c-0.2,0-0.4,0.1-0.5,0.2c-0.2,0.1-0.2,0.3-0.3,0.5C31.2,34.4,31.2,34.6,31.4,34.8z"/>
<path class="st67" d="M31.2,45.8c-0.1-0.2-0.2-0.3-0.4-0.4c-0.2-0.1-0.4,0-0.6,0c-0.2,0.1-0.3,0.2-0.4,0.4c-0.1,0.2,0,0.4,0,0.6
	c0.1,0.2,0.2,0.3,0.4,0.3c0,0,0.1,0,0.1,0c0.2,0.1,0.4,0,0.6,0c0.2-0.1,0.3-0.2,0.4-0.4C31.3,46.2,31.3,46,31.2,45.8z"/>
<path class="st66" d="M36,23.8c0.1,0.2,0.3,0.2,0.5,0.3c0.2,0,0.4,0,0.6-0.1c0.2-0.1,0.3-0.3,0.3-0.5c0-0.2,0-0.4-0.1-0.6
	c-0.1-0.2-0.3-0.3-0.5-0.3c0,0,0,0,0,0c-0.2,0-0.4,0-0.6,0.1c-0.2,0.1-0.3,0.3-0.3,0.5C35.8,23.5,35.9,23.7,36,23.8z"/>
<path class="st67" d="M41.5,23.7C41.5,23.7,41.5,23.7,41.5,23.7c0.4,0.1,0.8-0.2,0.9-0.6c0-0.2,0-0.4-0.1-0.6
	c-0.1-0.2-0.3-0.3-0.5-0.3c0,0,0,0,0,0c-0.2,0-0.4,0-0.6,0.1c-0.2,0.1-0.3,0.3-0.3,0.5C40.8,23.3,41.1,23.7,41.5,23.7z"/>
<path class="st67" d="M46.4,43.9c0.2,0,0.4-0.1,0.5-0.2c0.2-0.1,0.2-0.3,0.3-0.5c0-0.4-0.2-0.7-0.6-0.8c0,0-0.1,0-0.1,0
	c-0.4,0-0.8,0.3-0.8,0.7C45.6,43.6,46,43.9,46.4,43.9z"/>
<path class="st66" d="M43.5,33.5c0.1,0.1,0.3,0.2,0.5,0.3c0.2,0,0.4-0.1,0.5-0.2c0.2-0.1,0.2-0.3,0.3-0.5c0-0.4-0.2-0.7-0.6-0.8
	c0,0-0.1,0-0.1,0c-0.4,0-0.8,0.3-0.8,0.7C43.3,33.2,43.3,33.4,43.5,33.5z"/>
<path class="st66" d="M51.3,36c0.1,0.2,0.3,0.2,0.5,0.3c0.2,0,0.4-0.1,0.5-0.2c0.2-0.1,0.2-0.3,0.3-0.5c0-0.2-0.1-0.4-0.2-0.5
	c-0.1-0.1-0.3-0.2-0.4-0.2c0,0-0.1,0-0.1,0c-0.2,0-0.4,0.1-0.5,0.2c-0.2,0.1-0.2,0.3-0.3,0.5C51.1,35.7,51.2,35.9,51.3,36z"/>
<path class="st66" d="M10.7,28.5c0.1,0.2,0.3,0.2,0.5,0.3c0.4,0,0.8-0.3,0.8-0.7c0-0.4-0.2-0.7-0.6-0.8c0,0-0.1,0-0.1,0
	c-0.4,0-0.8,0.3-0.8,0.7C10.5,28.2,10.6,28.4,10.7,28.5z"/>
<path class="st67" d="M12.9,33.9c0.2,0,0.4-0.1,0.5-0.2c0.2-0.1,0.2-0.3,0.3-0.5c0-0.2-0.1-0.4-0.2-0.5c-0.1-0.1-0.3-0.2-0.4-0.2
	c0,0-0.1,0-0.1,0c-0.2,0-0.4,0.1-0.5,0.2c-0.2,0.1-0.2,0.3-0.3,0.5C12.2,33.5,12.5,33.8,12.9,33.9z"/>
<path class="st67" d="M2.2,28.7C1.7,37.1,5.9,45,12.7,48.2c4.6,2.5,11.4,4.2,18.5,4.6c7.9,0.5,15.4-0.6,20.4-3
	c6-2.2,10.4-8.8,10.9-16.4c0.6-9.8-5.1-18-13.5-19.6c0,0,0,0-0.1,0c-3-0.5-6.1-0.9-9.1-1.3c-4.3-0.5-8.3-1.1-11.7-1.9l0,0
	c-7.9-2-14.2-1.2-18.7,2.4C2.3,18.5,2.2,28.4,2.2,28.7z M11.2,15.4c3.8-2.9,9.2-3.5,16.2-1.8l0,0c3.6,0.9,7.7,1.4,12,2
	c0.8,0.1,1.5,0.2,2.3,0.3c-3.3,0.5-6.4,1.9-8.9,4.3c-0.2,0.2-0.2,0.5,0,0.7c0.2,0.2,0.5,0.2,0.7,0C37.1,17.5,42,16.1,47,17
	c4.6,0.8,8.4,3.6,10.7,7.3c1.3,2.6,2,5.7,1.7,9.1c-0.4,6.4-4,12-9,13.8l-0.1,0.1c-4.5,2.1-11.6,3.1-18.9,2.7
	c-2.2-0.1-4.4-0.4-6.5-0.8c-4.1-0.8-7.9-2-10.8-3.5c-5.8-2.8-9.3-9.5-8.9-16.8C5.2,28.7,5.3,20,11.2,15.4z"/>
<path class="st66" d="M37.4,44.4c-0.2-0.1-0.4,0-0.6,0c-0.2,0.1-0.3,0.2-0.4,0.4c-0.1,0.4,0.1,0.8,0.4,0.9c0,0,0.1,0,0.1,0
	c0.4,0.1,0.8-0.1,0.9-0.5C38,44.9,37.8,44.5,37.4,44.4z"/>
</svg>
