<?xml version="1.0" encoding="utf-8"?>
<!-- Generator: Adobe Illustrator 20.0.0, SVG Export Plug-In . SVG Version: 6.00 Build 0)  -->
<svg version="1.1" id="Layer_1" xmlns="http://www.w3.org/2000/svg" xmlns:xlink="http://www.w3.org/1999/xlink" x="0px" y="0px"
	 viewBox="0 0 500 500" style="enable-background:new 0 0 500 500;" xml:space="preserve">
<style type="text/css">
	.st0{display:none;fill:#D1A982;}
	.st1{fill:#974565;}
	.st2{fill:#5D283D;}
	.st3{fill:#00FFFF;}
	.st4{fill:#98B55E;}
	.st5{fill:#98B55E;stroke:#006837;stroke-linecap:round;stroke-linejoin:round;stroke-miterlimit:10;}
	.st6{fill:#B9CE6E;stroke:#838226;stroke-width:3;stroke-miterlimit:10;}
	.st7{fill:none;stroke:#718227;stroke-miterlimit:10;}
	.st8{fill:#B9CE6E;stroke:#838226;stroke-miterlimit:10;}
	.st9{fill:#E0E2D0;}
	.st10{fill:none;stroke:#718227;stroke-width:3;stroke-miterlimit:10;}
	.st11{fill:none;stroke:#FFFFFF;stroke-linecap:round;stroke-miterlimit:10;}
	.st12{fill:#C2D66B;}
	.st13{fill:#E6E8D4;}
	.st14{fill:#718227;}
	.st15{fill:#FFFFFF;}
	.st16{fill:#974565;stroke:#5D283D;stroke-miterlimit:10;}
	.st17{fill:none;stroke:#5D283D;stroke-width:3;stroke-miterlimit:10;}
	.st18{fill:none;stroke:#5D283D;stroke-miterlimit:10;}
	.st19{fill:#EDDBCD;}
	.st20{fill:#F4E1D4;}
	.st21{fill:none;stroke:#5D283D;stroke-width:8.1497;stroke-miterlimit:10;}
	.st22{fill:none;stroke:#5D283D;stroke-width:24.449;stroke-miterlimit:10;}
</style>
<rect x="-1076.9" y="-365.3" class="st0" width="6576.8" height="1230.5"/>
<g>
	<path class="st1" d="M345.6,454.1c80.2-26.8,136-89.5,136-183.3c0-127.8-103.6-239.7-231.3-239.7c-19.7,0-38.9,2.7-57.2,7.7
		c-2.9-0.9-5.8-1.6-8.7-2.3C128,24.3,62.8,51.8,40.7,113.5c0,0-29.2,71.9-21.8,157.3c0,127.8,103.6,198,231.3,198
		c33.3,0,64.9-4.8,93.5-14.1L345.6,454.1z"/>
</g>
<path class="st20" d="M411.7,152.3c-4.9-13.6,15.1,24.7,21.2,37.7c3,6.4,5.3,12.3,6.8,19.2c0.8,3.9,2.5,7.5,3.2,11.4
	c0.6,3.8,1,7.6,1.7,11.4c1.5,8,4.5,15.5,5.1,23.6c0.6,8,0.1,16.1,0,24.1c-0.1,7.1-0.7,14.4-3.3,21c-2.8,7.3-8.2,12.8-11.4,19.8
	c-1.8,3.9-3,8-5.2,11.8c-0.5,0.9-1.1,1.8-1.6,2.7c3.6-4.1,6.9-8.5,11-12c5.1-4.4,10.6-9.3,14.9-14.4c2.1-2.5,2.9-6.2,4.4-9.1
	c1.3-2.5,2.1-5.2,3.2-7.7c1.4-3.4,1.6-9.8,1.7-13.7c0.1-6.6-1.4-12.8,2.5-20.1c0,0,0,0,0,0c3.7,11.4,0.9,23.3-0.5,34.8
	c-0.9,7.2-0.3,13.9-2.6,21c-0.2,0.5-0.3,1-0.5,1.4c0,2.8-1.1,5.2-1.9,8c-1.2,4.3-2.5,8.6-3.3,13c-0.7,4.2-1.3,8.4-2.8,12.4
	c-0.8,2-2,3.8-2.8,5.7c-0.9,2-1.2,4.2-1.8,6.3c-2.7,8.7-7.8,16.9-12.7,24.6c-4.9,7.7-9.3,15.7-14.6,23.2c-1.2,1.7-2.3,3.4-3.5,5.1
	c-20.6,17.7-45.5,31.4-73.4,40.7l-1.8,0.6c-28.6,9.3-60.2,14.1-93.5,14.1c-58.1,0-111.3-14.6-151.9-42.5c-1.9-2.6-3.8-5.2-5.9-7.7
	c-4.4-5.4-9.3-9.8-12.4-16.2c-0.5-1-0.8-2-1-3c0,0,0,0,0,0c-2.2-1.4-4.3-2.9-6.5-4.3c-6.1-3.9-11.8-10.1-16-15.9
	c-4.1-5.7-6.3-12.6-10-18.5c-1.8-2.9-2.6-6.1-4-9.1c-1.1-2.3-2.8-4.2-4.2-6.3c-3.7-5.6-1.1-10.6,0.8-17.1c2-6.5,9.3,2.2,9.3,2.2
	c1.8,1.5,2.5,2.3,4,4.2c0.5,0.7,1.1,1.3,1.6,2c-0.4-1.4-0.7-2.9-1.2-4.3c-1.7-5.1-3.6-10.2-5.2-15.4c-4.2-13.3-4-27.4-7.6-40.9v0
	c2.5-11.2-0.7-22.3,4.3-33.4c0,0,0,0,0,0c4.9,13.2,2,28.3,3,41.2c0,0,0,0,0,0c3,2.8,2.2,8.8,3.4,13.1c0.7,2.6,2.2,5.2,3,7.8
	c1.9,6.1,5.1,11.2,8.1,16.8c2.5,4.8,5.2,9.6,7.1,14.7c1.5,4.2,2.3,8.5,4.3,12.5c4.1,8.4,6.9,16.5,13.3,23.4c0.2,0.2,0.4,0.5,0.7,0.7
	c-2-2.9-3.4-6.2-5-9.6c-1.9-4.2-4.4-10-3.9-14.7c0.5-4.6,0-10.3-1.6-14.7c-0.7-1.9,1.8-3.7,3.4-2.6c3.8,2.5,5.2,6,6.7,10.2
	c0.4,1.1,0.8,2.2,1.1,3.3c0,0,0.9,3,1.6,4.1c0.8,1.2,1.3,2.6,2,3.8c2.4,4,5.8,9.1,9.3,12.2c1,0.8,2,1.6,3.1,2.3
	c-1.5-2.3-3-4.6-4.2-6.9c-3.1-6-5.1-12.5-7.1-19c-4.9-15.7-7.5-31.8-9.7-48c-2.1-15.8-5.2-31.3-8.2-46.9
	c-2.9-15.6-6.7-30.9-5.3-46.9c0.7-7.6,2.5-15.6,5.8-22.5c3-6.4,7.9-11.1,11.7-16.8c1.8-2.8,2.7-5.7,5.3-8c2.7-2.3,4.6-4,6.6-7
	c4.1-5.9,10-10.7,15-15.8c5-5.1,10.8-9.6,15.4-15.1c2.4-2.8,4.5-7.1,8.2-8.2c1-0.3,1.7,1.3,0.7,1.8c-2.8,1.4-3.5,5.4-4.8,7.9
	c-1.6,3.1-3.8,5.7-5.8,8.5c-4.2,6.1-8.7,12-13.5,17.6c-2.4,2.7-4.8,5.2-6.6,8.3c-1.2,2-2.1,4.1-3.5,5.9c-0.8,1.1-2.1,1.9-2.9,2.9
	c-1.8,2.4-1.9,5.8-3.3,8.5c-1.8,3.2-4.1,6-5.8,9.3c-13.5,25.9-2.8,56.4,2.8,83c5.9,28.3,8.2,57.3,17.9,84.8c2,5.7,5,10.2,8.4,15.2
	c3.3,4.8,6.1,9.2,10.5,13c1.1,1,2.2,2,3.3,3v0c1.5,2,3.1,3.9,4.9,5.8c3.9,4.2,6.3,9.3,12.3,11.1c2.6,0.8,5.2-2.4,3.7-4.8
	c-1.5-2.3-3.3-4.2-4.8-6.5c-1.4-2.2-2.2-4.5-3.9-6.6c-3-3.9-4.3-8.7-6.6-13.1c-2.7-5.1-4.8-10.7-7.8-15.7
	c-4.4-7.5-6.8-17.7-6.8-17.7c-0.3-3.7-0.4-7.5-1.5-11c-1.3-4.2-4.2-7.8-6.2-11.7c-3.1-6.1-6.2-14.1-5.9-21.1c0.2-3.6,1.4-7.5,2-11.1
	c0.6-3.3,2.6-6.1,2.7-9.4c0.1-4.4,7-5.6,7.9-1.1c0.6,3.1,0.2,5.4-1,8.2c-1.4,3.5-1.8,7.4-2.6,11.1c-1.7,7.8,3.3,17.1,6.7,23.9
	c1.8,3.5,3.3,6.9,4.3,10.7c0.4,1.7,0.5,3.8,1.7,5.1c0.8,0.9,2.4,1.5,3.4,2.3c2.8,2.5,4.5,6.4,6.5,9.5c2.1,3.1,3.6,6.4,5.5,9.6
	c3.8,6.4,9.1,11.9,12.5,18.5c0.8,1.6,1.5,3.2,2.1,4.8c3.1,4.1,2.3,0,2.3,0c-2-4.2-3.9-8.5-5.7-12.8c-4.5-10.8-8.2-21.8-9.3-33.6
	c-0.5-5.4,0.2-10.9-0.5-16.4c-0.3-2.5-0.4-5.9-1.2-8.3c-0.6-1.9-1.9-3.7-2.6-5.6c-1.8-5.1-3.9-10.8-5.1-16.1
	c-1.2-5.3-0.5-10.5-0.3-15.9c0.3-5.5-0.5-10.9,1.3-16.2c0.8-2.2,0.5-3.6,0.6-5.9c0.1-2.7,1.2-4.5,2-7c1.7-5.5,1.7-10.8,5.1-15.7
	c1.2-1.8,2.7-3.4,3.8-5.3c1.5-2.8,2.2-6,3.4-8.9c2.2-5.2,4.9-10.3,7.2-15.5c2.2-5,2-11.1,2.9-16.5c0.2-1.1,2.1-1.1,2.3,0
	c1.1,5.8,2.2,11.4,0.6,17.2c-1.6,5.7-3.8,11.2-5.3,16.9c-1.9,7.1-3.5,13.9-5.9,21c0,0,0,0,0,0c0.4,5.1-0.6,8.8-1.2,13.1
	c-0.3,2.4,0.2,4.7-0.1,7.1c-0.3,2-1.2,3.9-1.5,5.9c-0.5,4.8,0.3,10.2,0.3,15.1c0,5.3,1.4,8.8,3.2,13.6c1,2.6,1.5,5.4,2.7,8
	c1,2.1,2.3,3.9,3,6.2c3.3,10.1,2,21,3.6,31.3c1.5,8.9,4.7,17.6,8.3,25.9c0,0,0,0,0,0c0.1,0.4,0.3,0.9,0.4,1.3
	c2.8,8.6,7.5,14.6,13.6,21.1c3.4,3.7,6.3,7.6,9.3,11.7c1.9,2.6,3.7,4.9,6.5,6.5c0.3,0.2,0.8,0.1,1.1-0.2c0.9-1,0.7-2.2,0.4-3.6
	c-1-4.3-4.2-8.6-6.2-12.4c-4.1-7.8-7-19-7-19c-0.3-1.2-0.6-2.4-1-3.7c-1.8-6.2-3.1-13.4-0.4-19.5c0.9-2,3.8-2.1,5.2-0.7
	c2.4,2.5,2.2,4.6,2.3,7.9c0.1,3.5,1.3,6.8,2.4,10.1l0,0c2.2,0.2,4.3,1.1,5.5,2.9c0,0,0,0,0,0c-0.3-2.6-0.4-5.2,0.6-7.8
	c1.3-3.3,6.2-3.8,7.3,0c0.3,1,0.6,1.9,1,2.9c0,0,0,0,0,0c1.7-2.1,4.2-3.3,6.8-3.2c0,0,0,0,0,0c-1.1-3.4-2.5-6.8-3.6-10.2
	c-3.8-11.3-2.8-23.2-2.8-34.9c0-11.1-0.6-22.2,2.2-33.1c1.2-4.5,1.8-8.9,3.3-13.3c1.7-4.8,2.4-10.1,3.7-15c3-11.5,5.4-22.6,5.6-34.5
	c0.1-5.1-0.5-10.1-0.3-15.2c0.2-5.1-0.9-10.1-0.7-15.2c0.3-6.3,1.2-12.2,0.7-18.5c-0.4-5.4-0.5-10.4,0.4-15.8c0.2-1.1,1.9-1,2.1,0
	c1.2,6.5,1.9,13,2.5,19.6c0.3,3.2,0.8,6.3,1.1,9.5c0.2,3.1-0.3,6.3,0.3,9.4c0.5,2.8,1.7,5.4,2.2,8.2c0.4,2.8,0.4,5.6,1,8.3
	c1.4,5.8,2.4,10.8,2.6,16.8c0.5,11.7-2.2,22.5-5,33.8c-2.3,9.1-4.3,18.1-6.4,27.3c-2.5,10.9-1.3,22.6-1.3,33.7
	c0,5.6-0.6,11.6,0.1,17.1c0.5,4,2,7.9,3.4,11.7v0c0,0.9-0.1,1.7-0.1,2.6c-0.5,8.3,1.1,17,1.9,25.2c0.3,3.4,1.2,5.9,2.2,9
	c0.7,2.2,0,4.1,2.4,5.1c0.2,0.1,0.4,0,0.6-0.1c0.1-0.1,0.2-0.2,0.3-0.2c0,0,0,0,0-0.1c0.3,0.6,1.2-2.3,1.3-2.3c0.2-1,0.1-2,0.1-3
	c0-3.5,0.6-6.5,1.1-10c1.2-8.6,1.2-17.2,3.1-25.8c0,0,0,0,0,0l1.8,2.4c0.1,0.2,0.2,0.4,0.2,0.6c0.5,3,1.1,6,1.8,9
	c2.1,7.8,2.8,17.7,8.2,24.2c1.2,1.5,4,0.3,3.8-1.6c-0.3-4.2-1.4-8.1-1.3-12.3c0.1-1.9,0.1-3.9,0.1-5.8c0,0,0,0,0,0
	c0.4-11.6,0.8-23.1,1.4-34.7c0.3-7.5,0-15.7,1.3-23.1c0.6-3.7,2.1-6.9,2.5-10.7c0.3-3,2-5.2,2.6-8c0.9-3.9,0.4-7.4,1.8-11.2
	c1.2-3.4,0.7-7.6,2.3-10.8c0.8-1.7,2.2-2.8,2.8-4.6c0.7-2.1,1.1-4.3,1.7-6.4c0.9-3.2,1.9-6.4,3.3-9.4c0.5-1.1,1.9-0.6,2.3,0.3
	c1.6,3.8,1.4,7.7,0.6,11.7c-0.4,2.1-0.9,4.4-1.6,6.5c-0.6,1.7-1.6,2.8-2.4,4.3c-0.9,1.8-0.6,3.9-0.9,5.9c-0.3,2-1.1,3.8-1.7,5.7
	c-1.2,4,0.7,7.8-0.2,11.8c-0.4,1.6-0.8,2.6-0.7,4.3c0.2,1.8,0.6,3.4,0.6,5.2c-0.1,3.5-1.6,6.5-0.8,10.1c1.1,5.5,1.5,11.1,1.1,16.7
	l0,0c-1.1,5-1,10.6-1,14.8c0.2,11.8,3.2,23.6,1.2,35.5c0,0,0,0,0,0c5.5,4.5,5,13.6,9.4,19.4h0c0,2.4,0.3,4.9,1.3,7.3
	c0.9,2.1,4,2.5,4.7,0c3.2-11.8,8.7-23.2,9.7-35.5c0.7-8,0.6-16.1,0.6-24.1c0-2.1,0.1-4.3,0.1-6.5c0,0,0,0,0,0
	c2-7.1,5.5-13.4,10.1-20c3-4.3,6-8.6,8.2-13.4c2.1-4.5,3.2-9.3,4.7-14c3.4-10.6,8-20.3,9.7-31.5c0.8-5.1,1.6-10.6,1.3-15.8
	c-0.3-5.5-2.9-10.9-5.2-15.9c-2-4.4-4.1-8.8-4.9-13.7c-0.9-5.6-1.4-10.5-3.8-15.8c-3.6-7.6-9.7-13.2-10.4-22c-0.1-1,0.8-2.2,1.8-2.4
	c0,0,0,0,0,0l11,17.1c2.9,4.3,5.5,9.7,6.6,14.8c1.3,6.4,2.5,11.7,5.7,17.5c2.9,5.2,6.5,10.3,8.3,16c1.5,4.6,1.4,9.7,1.8,14.4
	c0.4,5.6,0.9,10.8,0.1,16.4c-1.5,11-5.2,21.9-8.3,32.6c-3.1,10.9-9,19.6-14.9,29.2c-5.6,9.2-5.8,17.7-5.4,28.2
	c0.1,3.5,0.4,7.1,0.5,10.6c0,0,0,0,0,0c1.2-3,2.3-6,3.4-9c2.2-6.5,5.3-13.1,9.2-18.7c4.5-6.5,8.5-14.5,11.6-21.7
	c2-4.5,7.5-9,8.1-13.8c0.3-2.4,4.1-2.6,3.9,0c-0.3,5.3-4.5,9.2-7.5,13.3c-4.6,6.3-8.5,15.2-10.7,22.7c-0.9,3.2-1.6,6.5-2.1,9.8
	c0.4-0.8,0.9-1.7,1.4-2.5c2.2-3.5,4.7-6.7,7.9-9.3c3.5-2.8,7.1-5.8,9.6-9.7c5.2-8.1,8.9-16.9,10.4-26.5c0.5-3.3,4.9-1.9,5.3,0.7
	c1.3,9.6-1.5,16.4-4.9,25.3c-4,10.5,0.5,2.5,0.5,2.5c4.4-7.2,7.3-15.3,10.7-23c3.9-8.9,3.8-19.2,4.3-28.7c0.6-9.6,1.7-19.4,0.3-28.9
	c-0.7-4.7-0.9-9.4-1.7-14.1c-0.6-3.4-0.9-5.5,1.4-8.1c1.2-1.4,3.3-0.7,4.2,0.5c2.5,3.5,2.6,9.5,2.9,13.7c0.4,5.4,1.5,10.6,1.5,16
	c0,11.4,0.8,22.8,2,34.1c0.9,9-0.9,16.3-3.3,24.5c0,0,0,0,0,0c-0.9,1.9-1.8,3.8-2.8,5.7c-3,5.9-4.1,12-6,18.2
	c-0.9,2.9-2.2,5.6-3,8.6c-0.7,2.6-1.5,5.2-2.4,7.8c-1.5,4.3-6.6,9.6-5.9,14.2c0.1,0.7,1,1,1.5,0.6c4.1-2.7,7.3-8.5,9.4-12.7
	c2.6-5.1,6.1-9.8,8.6-15c3.1-6.6,5.4-12.9,9.4-19.1c3.7-5.9,6.8-12.1,9.8-18.4c2.2-4.7,4.1-9.3,5.6-14.1c0,0,0,0,0,0
	c1,1.8,1.8,3.7,2.1,6c0.5,4.4,1.3,8.5-0.4,12.7c-1.2,3.2-3.2,5.7-5.5,8.1c0,0,0,0,0,0c-0.1,1.2-0.1,2.3,0,3.5
	c0.4,3.1,0.8,5.8,0.7,8.8c0,0,0,0,0,0C414,319.8,452.1,264.1,411.7,152.3z"/>
<path class="st2" d="M475,174.7c-12.3-29.9-29.8-56.9-52.1-80.3C376.3,45.6,315,18.7,250.3,18.7c-19.2,0-38.4,2.4-57,7.2
	c-2.2-0.6-4.2-1.1-6.2-1.5c-31.2-6.7-64.2-2.5-92.9,11.8C63.6,51.4,40.5,77.3,29,109c-2.2,5.6-29.9,76.8-22.6,162.3
	c0.1,64.3,25.2,118.3,72.4,156.1c43.3,34.7,104.2,53.8,171.4,53.8c34.6,0,67.3-5,97.5-14.8l1.8-0.6l0,0
	c43.2-14.4,79.2-38.9,104-70.7c26.9-34.5,40.6-76.4,40.6-124.5C494.1,237.9,487.7,205.6,475,174.7z M94.5,408
	c-41.3-33.1-63.1-80.5-63.1-137.2l0-1.1c-7-81.3,20.6-150.9,20.9-151.6l0.2-0.5c5.1-14.3,12.7-26.3,21.9-36.2
	c8.4-8.3,18.2-15.4,29.4-21c24.7-12.3,53-16,79.8-10.2c19.2,4.2,36.7,13.6,50.7,27.3c21.9,21.6,54.1,32.8,90.7,31.5
	c10.3-0.3,20.6,1.3,30.6,4.8c32.8,11.7,57.2,43.8,67.1,88.1l0.1,0.2c0.1,0.3,8,28.8,1.6,73.7c-5.5,38.6-23,96.6-74,160.3
	c-2.2,2.7-5.1,4.8-8.4,5.9c0,0,0,0-0.1,0l-1.7,0.6c-27.5,9-57.7,13.5-89.6,13.5C188.7,456.4,133.4,439.2,94.5,408z M433.8,379.9
	c-16.2,20.8-38.1,38.1-64.2,50.9c-1.9,0.9-3.8-1.3-2.5-3c44.1-59.8,60-113.8,65.2-150.7c6.5-45.5-1.1-74.6-1.8-77
	c-10.5-47.1-36.9-81.4-72.4-94.1c-10.9-3.9-22.3-5.7-33.6-5.3c-34.3,1.1-64.3-9.2-84.6-29.1c-8.5-8.4-18.3-15.3-29-20.6
	c-1.7-0.8-1.4-3.4,0.5-3.8c12.8-2.5,25.8-3.7,38.8-3.7c118.6,0,218.9,104,218.9,227.2C469.1,313.2,457.2,349.9,433.8,379.9z"/>
<g>
	<path class="st15" d="M294.1,130.8c-0.3,0-0.6,0-0.8-0.1c-7.3-1.5-14.5-3.5-21.4-5.9c-2.2-0.8-3.3-3.1-2.5-5.3
		c0.8-2.2,3.1-3.3,5.3-2.5c6.5,2.3,13.4,4.1,20.3,5.6c2.2,0.5,3.7,2.6,3.2,4.9C297.8,129.4,296,130.8,294.1,130.8z"/>
</g>
<g>
	<path class="st15" d="M83.9,106.2c-0.9,0-1.7-0.3-2.5-0.8c-1.8-1.4-2.2-4-0.8-5.8c10.9-14.4,26-25.1,43.7-31
		c2.2-0.7,4.5,0.5,5.2,2.6c0.7,2.2-0.5,4.5-2.6,5.2c-16.4,5.4-29.7,14.9-39.7,28.1C86.3,105.7,85.1,106.2,83.9,106.2z"/>
</g>
<ellipse transform="matrix(9.378570e-02 -0.9956 0.9956 9.378570e-02 115.2259 359.0493)" class="st15" cx="254.8" cy="116.2" rx="4.5" ry="4.5"/>
<circle class="st15" cx="242.6" cy="56.9" r="4.5"/>
</svg>
