<?xml version="1.0" encoding="utf-8"?>
<!-- Generator: Adobe Illustrator 20.0.0, SVG Export Plug-In . SVG Version: 6.00 Build 0)  -->
<svg version="1.1" id="Layer_1" xmlns="http://www.w3.org/2000/svg" xmlns:xlink="http://www.w3.org/1999/xlink" x="0px" y="0px"
	 viewBox="0 0 200 200" style="enable-background:new 0 0 200 200;" xml:space="preserve">
<style type="text/css">
	.st0{fill:#FDE270;}
	.st1{fill:#FBDE74;}
	.st2{fill:#F8D96C;}
	.st3{fill:#F5D464;}
	.st4{fill:#F2CF5C;}
	.st5{fill:#EFCA54;}
	.st6{fill:#D50000;}
	.st7{fill:#ED3A00;}
	.st8{fill:#D50000;stroke:#590000;stroke-width:6;stroke-miterlimit:10;}
	.st9{fill:#487E41;}
	.st10{fill:#123C08;}
	.st11{fill:#D50000;stroke:#590000;stroke-width:3;stroke-miterlimit:10;}
	.st12{fill:none;stroke:#FFFFFF;stroke-linecap:round;stroke-miterlimit:10;}
	.st13{fill:#FFFFFF;}
	.st14{fill:#7FC731;stroke:#246901;stroke-width:3;stroke-miterlimit:10;}
	.st15{fill:#7FC731;stroke:#246901;stroke-linecap:round;stroke-miterlimit:10;}
	.st16{fill:none;stroke:#246901;stroke-linecap:round;stroke-miterlimit:10;}
	.st17{fill:#292F37;}
	.st18{fill:#577B1D;}
	.st19{fill:#AD2F26;}
	.st20{fill:#264415;}
	.st21{fill:#539243;}
	.st22{fill:#7F415B;}
	.st23{fill:#246901;}
	.st24{fill:#8A1100;}
	.st25{fill:#5EC865;}
	.st26{fill:#007500;}
	.st27{fill:#FF3D50;}
	.st28{fill:none;stroke:#246901;stroke-linecap:round;stroke-linejoin:round;stroke-miterlimit:10;}
	.st29{fill:none;stroke:#FFFFFF;stroke-linecap:round;stroke-linejoin:round;stroke-miterlimit:10;}
	.st30{fill:#FF3D50;stroke:#CC3248;stroke-miterlimit:10;}
	.st31{fill:none;stroke:#007500;stroke-linecap:round;stroke-linejoin:round;stroke-miterlimit:10;}
	.st32{fill:none;stroke:#264415;stroke-linecap:round;stroke-linejoin:round;stroke-miterlimit:10;}
	.st33{fill:#528B1C;}
	.st34{fill:#20420B;}
	.st35{fill:#314773;}
	.st36{fill:#7389B5;}
	.st37{fill:#528B1C;stroke:#20420B;stroke-linecap:round;stroke-linejoin:round;stroke-miterlimit:10;}
	.st38{fill:none;stroke:#314773;stroke-linejoin:round;stroke-miterlimit:10;}
	.st39{fill:#00FFFF;}
	.st40{fill:#22B473;stroke:#184C28;stroke-width:3;stroke-linecap:round;stroke-linejoin:round;stroke-miterlimit:10;}
	.st41{fill:#2E368E;}
	.st42{fill:#9A0D90;}
	.st43{fill:#161542;}
	.st44{fill:#251749;}
	.st45{fill:none;stroke:#FBA954;stroke-linecap:round;stroke-linejoin:round;stroke-miterlimit:10;}
	.st46{fill:#61303F;}
	.st47{fill:#EEB683;}
	.st48{fill:#1B631A;}
	.st49{fill:#FBA954;}
	.st50{fill:#ECD8A1;}
	.st51{fill:#DC0900;stroke:#184C28;stroke-width:1.7008;stroke-miterlimit:10;}
	.st52{fill:none;stroke:#007500;stroke-width:2;stroke-linecap:round;stroke-miterlimit:10;}
	.st53{fill:#F10A00;stroke:#8A1100;stroke-miterlimit:10;}
	.st54{fill:none;stroke:#007500;stroke-width:3;stroke-linecap:round;stroke-miterlimit:10;}
	.st55{fill:#F10A00;}
	.st56{fill:#7389B5;stroke:#314773;stroke-miterlimit:10;}
	.st57{fill:none;stroke:#314773;stroke-miterlimit:10;}
	.st58{opacity:0.4;fill:#314773;}
	.st59{fill:#7389B5;stroke:#314773;stroke-linecap:round;stroke-linejoin:round;stroke-miterlimit:10;}
	.st60{fill:#8BA3CD;stroke:#314773;stroke-miterlimit:10;}
	.st61{fill:#5A7098;}
	.st62{fill:none;stroke:#FFFFFF;stroke-width:8;stroke-linecap:round;stroke-linejoin:round;stroke-miterlimit:10;}
	.st63{fill:#FF3D50;stroke:#AD2F26;stroke-miterlimit:10;}
	.st64{fill:#FF3D50;stroke:#CC3248;stroke-width:1.058;stroke-miterlimit:10;}
	.st65{fill:#539243;stroke:#246901;stroke-width:3;stroke-linejoin:round;stroke-miterlimit:10;}
	.st66{clip-path:url(#SVGID_2_);}
	.st67{fill:url(#SVGID_3_);}
	.st68{fill:none;stroke:#CC652B;stroke-width:1.4939;stroke-linecap:round;stroke-miterlimit:10;}
	.st69{fill:none;stroke:#CC652B;stroke-width:0.8407;stroke-miterlimit:10;}
	.st70{fill:#F9C153;}
	.st71{fill:#FC7351;stroke:#CC652B;stroke-width:3;stroke-miterlimit:10;}
	.st72{fill:none;stroke:#994A22;stroke-linecap:round;stroke-miterlimit:10;}
	.st73{fill:none;stroke:#F9C153;stroke-width:3;stroke-linecap:round;stroke-miterlimit:10;}
	.st74{opacity:0.8;fill:none;stroke:#F9C153;stroke-width:3;stroke-linecap:round;stroke-miterlimit:10;}
	.st75{opacity:0.6;fill:none;stroke:#F9C153;stroke-width:3;stroke-linecap:round;stroke-miterlimit:10;}
	.st76{opacity:0.4;fill:none;stroke:#F9C153;stroke-width:3;stroke-linecap:round;stroke-miterlimit:10;}
	.st77{opacity:0.2;fill:none;stroke:#F9C153;stroke-width:3;stroke-linecap:round;stroke-miterlimit:10;}
	.st78{fill:none;stroke:#994A22;stroke-width:3;stroke-miterlimit:10;}
	.st79{fill:#7FC731;stroke:#246901;stroke-width:3;stroke-linecap:round;stroke-linejoin:round;stroke-miterlimit:10;}
	.st80{fill:none;stroke:#ADD980;stroke-linecap:round;stroke-linejoin:round;stroke-miterlimit:10;}
	.st81{fill:#ADD980;}
	.st82{fill:#FC7351;}
	.st83{fill:#F8B05C;}
	.st84{fill:#F8A15A;}
	.st85{fill:#F99259;}
	.st86{fill:#F98357;}
	.st87{fill:#994A22;}
	.st88{fill:#7FC731;}
	.st89{fill:#FDE3DD;}
	.st90{fill:#F8B413;stroke:#7A4100;stroke-width:6;stroke-miterlimit:10;}
	.st91{fill:#487E41;stroke:#123C08;stroke-width:3;stroke-linecap:round;stroke-miterlimit:10;}
	.st92{opacity:0.8;fill:none;stroke:#FFFFFF;stroke-linecap:round;stroke-miterlimit:10;}
	.st93{fill:none;stroke:#123C08;stroke-linecap:round;stroke-miterlimit:10;}
	.st94{opacity:0.8;fill:#FFFFFF;}
	.st95{fill:#F8B413;stroke:#7A4100;stroke-miterlimit:10;}
	.st96{opacity:0.7;fill:none;stroke:#FFFFFF;stroke-linecap:round;stroke-miterlimit:10;}
	.st97{fill:none;stroke:#7A4100;stroke-linecap:round;stroke-miterlimit:10;}
	.st98{opacity:0.7;fill:none;stroke:#AD2F26;stroke-width:3;stroke-linecap:round;stroke-miterlimit:10;}
	.st99{opacity:0.5;fill:none;stroke:#AD2F26;stroke-width:3;stroke-linecap:round;stroke-miterlimit:10;}
	.st100{opacity:0.3;fill:none;stroke:#AD2F26;stroke-width:3;stroke-linecap:round;stroke-miterlimit:10;}
	.st101{opacity:0.1;fill:none;stroke:#AD2F26;stroke-width:3;stroke-linecap:round;stroke-miterlimit:10;}
	.st102{opacity:0.7;fill:#FFFFFF;}
	.st103{fill:#DAE5D9;}
	.st104{fill:#F8B413;}
	.st105{fill:#FCE8BB;}
	.st106{fill:#C25729;}
	.st107{fill:#D1722A;}
	.st108{fill:#E08B2C;}
	.st109{fill:#EFA62E;}
	.st110{fill:#7A4100;}
	.st111{fill:none;stroke:#487E41;stroke-width:2;stroke-miterlimit:10;}
	.st112{fill:#D50000;stroke:#590000;stroke-miterlimit:10;}
	.st113{fill:#6BB25F;}
	.st114{fill:#590000;}
	.st115{fill:#7F0603;}
</style>
<path class="st0" d="M46.9,101.4l53.5,9.6l51.1-14.6c0,0,27.5,3.2,32.7,41.3S154,189.6,154,189.6s-24.7,8.4-51.9-13.2
	c0,0-17.8,18.4-40.7,18.4s-45.9-30.3-45.9-46.6S18.7,109.2,46.9,101.4z"/>
<path class="st1" d="M15.6,148.2c0,0.7,0.1,1.5,0.2,2.3h168.6c0.3-2.8,0.4-5.8,0.2-9H15.8C15.6,143.8,15.6,146.1,15.6,148.2z"/>
<path class="st2" d="M18.2,159.5h164.2c0.9-2.8,1.6-5.8,1.9-9H15.7C16,153.3,16.9,156.4,18.2,159.5z"/>
<path class="st3" d="M23,168.6h155.3c1.6-2.7,3-5.7,4.1-9H18.2C19.5,162.5,21.1,165.5,23,168.6z"/>
<path class="st4" d="M178.3,168.6H23c2,3.1,4.3,6.1,6.8,9h71c0.8-0.7,1.2-1.2,1.2-1.2c0.5,0.4,1,0.8,1.5,1.2h67.7
	C173.8,175,176.2,172,178.3,168.6z"/>
<g>
	<path class="st5" d="M103.6,177.6c5.3,4,10.6,6.9,15.5,9h40.7c3.3-1.9,7.5-4.9,11.5-9H103.6z"/>
	<path class="st5" d="M88.8,186.6c5.9-3.5,10.2-7.2,12.2-9h-71c3,3.3,6.3,6.4,9.8,9c0,0,11,6.1,23.7,6.1S88.8,186.6,88.8,186.6z"/>
</g>
<path class="st7" d="M175.4,105.2c5.9,10.6,6.7,25.4,5.4,37.2c-0.5,4.5-5.7,5.9-8.4,3.9c-0.9-0.6-2-0.9-3-0.5
	c-0.1,0.1-0.3,0.1-0.4,0.1c-1.4,0.4-2.5,1.5-2.7,2.9c-0.1,0.4-0.1,0.7-0.2,1.1c-0.9,5.6-10.6,4.2-9.8-1.3c0.8-5.8,1-11.6,0.7-17.4
	c-0.1-1.9-1.7-3.3-3.6-3.5c0,0,0,0-0.1,0c-1.6-0.1-3.1,0.6-3.9,2.1c-1,2-2.8,2.2-2.8,2.2c-2.4,0.3-5.2-0.9-6.2-3.4
	c-2.5-6-6.8-10.8-12.2-14.2c0,0-3.8-2.5-9.5-4l30.7-13.1L175.4,105.2z"/>
<path class="st7" d="M65,192.6c1.6,0,1.7-2.9,1.3-4.9c-0.5-3.3-0.9-6.7-1.4-10c-0.2-1.3-1.1-2.3-2.3-2.9c-1.6-0.9-2.6-2.4-2.6-4.2
	c0-2.1-0.1-4.2-0.2-6.2c-0.5-5.4-7.9-6.4-9.8-1.4c-0.4,1.2-0.9,2.3-1.3,3.5c-0.4,1-1.8,0.9-2-0.1l-1.2-4.8c-1-4-1.4-8-2-12.1
	c-0.7-5-8.7-7.4-9.8-1.3c0,0.3-0.1,0.5-0.1,0.8c-0.3,1.7-2.6,2.1-3.4,0.6l-1.7-2.8c-3.1-5.2-10-1.5-9.1,3.9
	C19.3,150.6,22.5,191.6,65,192.6z"/>
<path class="st9" d="M134.1,105.1c-5.7-23.5-12.1-60.2-4.6-75.3c0.7-1.3,1.9-2.4,3.4-3l3.7-1.4c2.9-1.2,5.1-3.6,5.9-6.7
	s0.1-6.2-1.8-8.7c-1.9-2.4-4.7-3.8-7.8-3.8c-3.2,0-6.1,1.5-8,4l-2.8,3.8c-0.8,1.1-1.8,2.2-2.9,3.1c-9.6,8.4-40.4,38.3-57,90.4
	l15.4,3c5.2-14.7,15.5-38.7,33.1-61.4c-0.2,16.1,2.7,36.6,8.9,61.1L134.1,105.1z"/>
<path class="st10" d="M115.2,111.3c2.4-1.1,5-1.8,7.6-1.8c0.5,0,1,0,1.6,0.1c-9-35.7-9.8-57.6-8.1-70.9c0.1-0.8-0.5-1.3-1.1-1.3
	c-0.3,0-0.6,0.1-0.8,0.4c-22.9,26.1-35.5,55.9-41.3,72.5l9.9,0.1c4.1-11.2,11-27.2,21.5-43.8c0.8-1.2,2.7-0.8,2.8,0.7
	C108.4,80.2,111.1,94.9,115.2,111.3z"/>
<path class="st10" d="M134.9,21.1l-3.6,1.4c-2.5,1-4.7,2.8-5.9,5.2c-8.8,17.7-0.6,58.5,4.6,79.7c2.4-2.2,5.3-3.9,8.5-4.7
	c-1.4-6-3-13.3-4.4-21c-5.7-32.5-2.6-45.2-0.3-49.9c0.1-0.3,0.5-0.5,0.9-0.7l3.6-1.4l0.1,0l0.1,0c4.3-1.7,7.4-5.3,8.6-9.8
	c1.2-4.5,0.2-9.1-2.6-12.8c-2.8-3.5-7-5.6-11.4-5.6c-4.6,0-8.9,2.1-11.7,5.8l0,0l0,0l-2.8,3.8c-0.6,0.8-1.4,1.6-2.2,2.4
	c-9.9,8.6-41.3,39.2-58.3,92.3l9,2.5c16.5-51.5,47.4-80.8,55.4-87.8c1.3-1.2,2.5-2.4,3.6-3.9l2.8-3.8c1.1-1.4,2.6-2.1,4.2-2.1
	c1.5,0,3.1,0.7,4.1,2C139.2,15.8,138.2,19.8,134.9,21.1z"/>
<path class="st113" d="M123.4,22c-0.6-0.6-1.5-0.7-2.2-0.2c-6.6,5.7-38.1,35.2-54.8,86.6c1,0.2,2,0.6,2.9,1
	c16.5-50.7,47.4-79.6,53.9-85.3C123.9,23.6,123.9,22.6,123.4,22z"/>
<path class="st13" d="M105.7,135.4c-0.1,0-0.3,0-0.4-0.1c-0.8-0.2-1.3-1.1-1.1-1.9c1-3.5,2.6-6.2,5-8c1.1-0.8,2.6-1.6,4.4-2.1
	c0.8-0.3,1.7,0.2,1.9,1c0.3,0.8-0.2,1.7-1,1.9c-1.5,0.5-2.6,1-3.4,1.6c-1.8,1.4-3.1,3.5-3.9,6.4C107,134.9,106.4,135.4,105.7,135.4z
	"/>
<path class="st13" d="M120.8,124.8c-0.8,0-1.5-0.6-1.5-1.4c-0.1-0.9,0.6-1.6,1.4-1.7c1.4-0.1,2.7-0.3,4.1-0.5
	c0.8-0.2,1.7,0.4,1.8,1.2c0.2,0.8-0.4,1.7-1.2,1.8c-1.4,0.3-2.9,0.5-4.4,0.6C120.9,124.8,120.9,124.8,120.8,124.8z"/>
<ellipse transform="matrix(0.9533 -0.302 0.302 0.9533 -30.1881 45.7062)" class="st13" cx="132.7" cy="120.5" rx="1.5" ry="1.5"/>
<circle class="st113" cx="126.7" cy="18.4" r="1.6"/>
<path class="st7" d="M157.9,158.3c-6.4,0-6.4,10,0,10C164.3,168.3,164.3,158.3,157.9,158.3z"/>
<path class="st7" d="M52.2,143.9c-6.4,0-6.4,10,0,10C58.6,153.9,58.6,143.9,52.2,143.9z"/>
<path class="st7" d="M25.1,127.4c-6.4,0-6.4,10,0,10C31.5,137.4,31.5,127.4,25.1,127.4z"/>
<path class="st7" d="M112.6,180c-9.7-8-16.6-18.8-19.8-30.8c-0.5-1.6-0.8-3.2-1.1-4.8c-1.3-8.4,8.5-9.1,9.6-2.7
	c0.3,1.8,0.7,3.6,1.2,5.3c0,0.1,0,0.1,0.1,0.2c0.5,1.3,2,1.8,3.2,1.1c2.5-1.4,6.6-0.3,7.8,2.8l0,0.1c0.3,0.8,1.4,1,2,0.4
	c1.5-1.5,3.7-2.1,5.8-0.6c5.6,3.9,9.8,9.5,13.4,15.7c0.7,1.2,2,1.9,3.3,1.7c1.4-0.2,2.8,0.2,4,1.3c2.1,2.2,4.2,4.5,6.4,6.7
	c2.7,2.2,5.7,4.1,9,5.5l-16.9,11.8L112.6,180z"/>
<path class="st7" d="M85.1,110.4l-22.3-2.5c3.4,2.9,7,9.8,7,9.8c0.3,0.6,0.6,1.1,0.9,1.7c-0.6-0.2-1.2-0.4-1.9-0.4
	c-6.4,0-6.4,10,0,10c2.3,0,3.7-1.2,4.4-2.8c0.4,1.6,0.7,3.1,0.8,4.7c0,3-0.1,6-0.1,8.9c-0.1,3.3,2.2,4.8,4.6,4.8
	c1.2,0,2.1,0.9,2.1,2c0,0,0,0,0,0c0.2,6.6,9.2,6.2,10,0l1.8-18.9l8.2-15L85.1,110.4z"/>
<path class="st115" d="M86.4,101.1c-0.8,2-1.6,4-2.3,5.8c-0.4,1-1.3,1.6-2.4,1.6c-1.6-0.1-3.2,0-4.5,0c-4.4,0.3-8.9-0.5-13-2.2
	c-1-0.4-2.2-0.9-3.4-1.3c-1.3-0.4-2-1.8-1.6-3.1c0.6-1.7,1.2-3.3,1.8-5C56,95.5,50,94.6,44,95.7c-16.3,2.9-29.1,17.6-32.7,37.6
	c-4.7,26.3,12.7,59.8,43.2,65.3c2.9,0.5,5.7,0.8,8.5,0.8c13.2,0,25.6-5.5,35.3-13.9c2-1.8,5-1.9,7.2-0.3
	c9.6,7.2,21.4,11.7,33.5,11.7c4.9,0,9.9-0.7,14.8-2.3c13.6-4.4,24.7-14.8,31.1-29.2c6-13.4,7.1-28.5,2.9-41.4
	c-5.2-16.1-19-32.5-38-32.9c-5-0.1-9.6,0.9-13.6,2.3c0.4,1.7,0.7,3.3,1.1,4.8c0.4,1.6-0.4,3.2-1.9,3.9c-1.5,0.7-2.9,1.5-4.1,2.2
	c-3.8,2.3-8.1,3.8-12.4,4.2c-0.4,0-0.7,0.1-1.1,0.1c-1.8,0.2-3.5-0.9-3.9-2.7c-0.4-1.5-0.7-3-1-4.4c-3.2,0.6-6.7,1.6-10.1,3.1
	c-1.4,0.6-3,0.6-4.3-0.1C93.1,101.7,86.4,101.1,86.4,101.1z M119.2,111.6c4.8-0.5,9.6-2.1,13.8-4.7c3.8-2.3,9.6-5.1,16.2-5.1
	c0.2,0,0.4,0,0.5,0c13.7,0.3,23.9,13,27.9,25.4c3.3,10.3,2.4,22.6-2.5,33.6c-5.2,11.6-13.9,19.8-24.6,23.3
	c-23.2,7.5-48.8-10-55.3-30.2c-4-12.2-3.2-28.3,7.5-36.7C107.5,113.5,114.3,112.1,119.2,111.6z M77.4,111.5
	c4.6-0.3,11.3,0.1,17.1,3.4c0,0,0,0,0.1,0c1.9,1.1,2.3,3.5,1.1,5.3c-6.9,9.8-6.9,23.7-3.4,34.7c1.3,3.9,3.1,7.7,5.5,11.2
	c0.9,1.3,0.8,3.1-0.2,4.3c-9.7,12-25.2,20.3-41.2,17.4c-24-4.3-38.2-31.9-34.5-52.7c2.3-12.6,10.6-26.4,23.9-28.8
	c1.2-0.2,2.4-0.3,3.6-0.3c5,0,10,1.6,13.6,3.1C67.6,111,72.5,111.8,77.4,111.5z"/>
<path class="st13" d="M39.7,127.1c-0.3,0-0.6-0.1-0.9-0.3c-0.7-0.5-0.9-1.5-0.4-2.2c3.2-4.7,7.1-7.4,11.2-8c1.4-0.2,3-0.1,4.9,0.3
	c0.8,0.2,1.4,1,1.2,1.8c-0.2,0.8-1,1.4-1.8,1.2c-1.5-0.3-2.8-0.4-3.8-0.3c-3.2,0.4-6.4,2.8-9.1,6.7
	C40.7,126.9,40.2,127.1,39.7,127.1z"/>
<path class="st13" d="M78.7,126.2c-3.3,0-6.6-0.4-9.8-1.1c-0.8-0.2-1.4-1-1.2-1.8c0.2-0.8,1-1.4,1.8-1.2c3.4,0.7,6.8,1.1,10.2,1
	c0,0,0,0,0,0c0.8,0,1.5,0.7,1.5,1.5c0,0.9-0.7,1.6-1.5,1.6C79.4,126.2,79.1,126.2,78.7,126.2z"/>
<ellipse transform="matrix(0.2136 -0.9769 0.9769 0.2136 -70.382 155.2561)" class="st13" cx="61.2" cy="121.3" rx="1.5" ry="1.5"/>
</svg>
