<?xml version="1.0" encoding="utf-8"?>
<!-- Generator: Adobe Illustrator 20.0.0, SVG Export Plug-In . SVG Version: 6.00 Build 0)  -->
<svg version="1.1" id="Layer_1" xmlns="http://www.w3.org/2000/svg" xmlns:xlink="http://www.w3.org/1999/xlink" x="0px" y="0px"
	 viewBox="0 0 1024 1024" style="enable-background:new 0 0 1024 1024;" xml:space="preserve">
<style type="text/css">
	.st0{fill:#5B8C15;}
	.st1{fill:#0E7E54;}
	.st2{fill:#203F12;}
	.st3{fill:#FFFFFF;}
	.st4{fill:#E3213B;}
	.st5{fill:#E26177;}
	.st6{fill:#FDD300;}
	.st7{fill:#D3AB05;}
	.st8{fill:none;stroke:#EDDFDD;stroke-miterlimit:10;}
	.st9{fill:none;stroke:#FFFFFF;stroke-linecap:round;stroke-linejoin:round;stroke-miterlimit:10;}
	.st10{fill:#EDDFDD;}
	.st11{fill:none;stroke:#FCFCFC;stroke-linecap:round;stroke-miterlimit:10;}
	.st12{fill:#FCFCFC;}
	.st13{fill:#5A8700;}
	.st14{fill:#9D9F01;}
	.st15{fill:#BFBF04;}
	.st16{fill:#CAD058;}
	.st17{fill:#FB8F47;}
	.st18{fill:#EDC9AA;}
	.st19{fill:#E9E0D0;}
	.st20{fill:#CF423B;}
	.st21{fill:#52622E;}
	.st22{fill:#8F2B63;}
	.st23{fill:#C19491;}
	.st24{fill:#D6B3B2;}
	.st25{fill:#751D2E;}
	.st26{fill:#EDDFDD;stroke:#EDDFDD;stroke-width:2;stroke-linejoin:round;stroke-miterlimit:10;}
	.st27{fill:none;stroke:#EDDFDD;stroke-linecap:round;stroke-linejoin:round;stroke-miterlimit:10;}
	.st28{fill:#63904D;}
	.st29{fill:none;stroke:#C7B299;stroke-linecap:round;stroke-linejoin:round;stroke-miterlimit:10;}
	.st30{fill:#63904D;stroke:#52622E;stroke-width:3;stroke-miterlimit:10;}
	.st31{fill:none;stroke:#52622E;stroke-linecap:round;stroke-linejoin:round;stroke-miterlimit:10;}
	.st32{fill:#8F2B63;stroke:#8F2B63;stroke-width:3;stroke-linecap:round;stroke-miterlimit:10;}
	.st33{fill:none;stroke:#751D2E;stroke-linecap:round;stroke-linejoin:round;stroke-miterlimit:10;}
	.st34{fill:none;stroke:#CC6283;stroke-linecap:round;stroke-linejoin:round;stroke-miterlimit:10;}
	.st35{fill:#6FAD4C;}
	.st36{fill:#00FFFF;}
	.st37{fill:#184C28;}
	.st38{fill:#82C64E;}
	.st39{fill:none;stroke:#497726;stroke-linecap:round;stroke-linejoin:round;stroke-miterlimit:10;}
	.st40{fill:#497726;}
	.st41{opacity:0.2;}
	.st42{fill:#194C28;}
	.st43{fill:#82C64E;stroke:#184C28;stroke-linejoin:round;stroke-miterlimit:10;}
	.st44{fill:none;stroke:#184C28;stroke-linecap:round;stroke-linejoin:round;stroke-miterlimit:10;}
	.st45{fill:#406D2A;}
	.st46{fill:#8F2B63;stroke:#751D2E;stroke-width:3;stroke-linecap:round;stroke-linejoin:round;stroke-miterlimit:10;}
	.st47{fill:none;stroke:#C19491;stroke-linecap:round;stroke-linejoin:round;stroke-miterlimit:10;}
	.st48{fill:none;stroke:#D6B3B2;stroke-linecap:round;stroke-linejoin:round;stroke-miterlimit:10;}
	.st49{fill:none;stroke:#751D2E;stroke-width:3;stroke-linecap:round;stroke-linejoin:round;stroke-miterlimit:10;}
	.st50{fill:none;stroke:#BFBF04;stroke-linecap:round;stroke-linejoin:round;stroke-miterlimit:10;}
	.st51{fill:none;stroke:#CAD058;stroke-linecap:round;stroke-linejoin:round;stroke-miterlimit:10;}
	.st52{fill:none;stroke:#CF423B;stroke-linecap:round;stroke-linejoin:round;stroke-miterlimit:10;}
	.st53{fill:none;stroke:#F26E40;stroke-linecap:round;stroke-linejoin:round;stroke-miterlimit:10;}
	.st54{fill:none;stroke:#EDC9AA;stroke-linecap:round;stroke-linejoin:round;stroke-miterlimit:10;}
	.st55{fill:none;stroke:#E9E0D0;stroke-linecap:round;stroke-linejoin:round;stroke-miterlimit:10;}
	.st56{fill:none;stroke:#CF423B;stroke-width:3;stroke-linecap:round;stroke-linejoin:round;stroke-miterlimit:10;}
	.st57{fill:none;stroke:#253F1C;stroke-width:3;stroke-linecap:round;stroke-linejoin:bevel;stroke-miterlimit:10;}
	.st58{fill:none;stroke:#203F12;stroke-linecap:round;stroke-linejoin:round;stroke-miterlimit:10;}
	.st59{fill:#C2B3B3;}
	.st60{fill:#D0C2C8;stroke:#52622E;stroke-miterlimit:10;}
	.st61{fill:none;stroke:#203F12;stroke-width:3;stroke-miterlimit:10;}
	.st62{fill:none;stroke:#203F12;stroke-linejoin:round;stroke-miterlimit:10;}
	.st63{fill:#D0C2C8;stroke:#C7B299;stroke-linejoin:round;stroke-miterlimit:10;}
	.st64{fill:#69AC19;}
	.st65{fill:#285200;}
	.st66{fill:#E4DAE9;stroke:#C4B3B0;stroke-linejoin:round;stroke-miterlimit:10;}
	.st67{fill:#E4DAE9;stroke:#C4B3B0;stroke-linecap:round;stroke-linejoin:round;stroke-miterlimit:10;}
	.st68{fill:#C4B3B0;}
	.st69{fill:#F26E40;}
	.st70{fill:none;stroke:#8F2C63;stroke-linecap:round;stroke-linejoin:round;stroke-miterlimit:10;}
	.st71{fill:#8F2C63;}
	.st72{fill:#CC6283;}
	.st73{fill:none;stroke:#E3213B;stroke-miterlimit:10;}
	.st74{fill:none;stroke:#FDD300;stroke-miterlimit:10;}
	.st75{fill:none;stroke:#D6252E;stroke-miterlimit:10;}
	.st76{fill:#D6252E;}
	.st77{fill:none;stroke:#A40000;stroke-miterlimit:10;}
	.st78{fill:#A40000;stroke:#A40000;stroke-miterlimit:10;}
	.st79{fill:none;stroke:#E26177;stroke-linecap:round;stroke-miterlimit:10;}
	.st80{fill:#A40000;}
	.st81{fill:none;stroke:#D3AB05;stroke-linecap:round;stroke-miterlimit:10;}
	.st82{fill:none;stroke:#EDDFDD;stroke-linecap:round;stroke-miterlimit:10;}
	.st83{fill:#DA0000;}
</style>
<polygon class="st0" points="427.6,698 602.1,840 777.6,745.6 875.7,512.9 804.4,259.5 696,201.6 583.3,241.2 535.7,142.5 
	413.9,38.4 316.4,24.4 206.2,111.5 156.8,343.6 220.8,546.4 309.1,660.3 "/>
<path class="st1" d="M594.1,274.7c-21,7.1-37.7,25.8-43.7,48.8c-1.4,5.4-5.6,9.8-10.9,11.6c-12.4,4.2-23.3,13-30.7,24.6
	c-6.7,10.5-10.2,22.7-10.3,35.3c-0.1,9.9-4.1,19.2-11.1,25.5c-9.2,8.3-15.7,19.7-18.1,32.3c-2.1,10.7-1.3,21.7,2.4,31.7
	c2.5,6.7,1.1,14.9-3.6,21.3c-7.2,9.9-12.1,21.1-14.5,33.3c-4.8,24.6,1.4,49.9,16.8,67.8c4.1,4.8,6.3,11.6,6,18.8
	c-1,4-5,22.5-1.2,45.7c2.4,15.2,7.7,29.3,15.6,41.9c9.9,15.7,23.9,29.1,41.6,39.8c38.3,23.1,47.3,48.2,51.6,60.2l64.6-0.8
	l129.1-67.2l87.5-202.1L829,308.8L715.2,204.4l-102.1,31.4L594.1,274.7"/>
<g>
	<g>
		<path class="st2" d="M324.3,48.2c11.3,0,20.9,5.4,20.9,5.4c4.2,1.8,8.7,2.8,13.1,2.8c2.9,0,5.7-0.4,8.4-1.4
			c4.7-1.7,9.6-2.5,14.7-2.5c2.8,0,5.6,0.3,8.5,0.8c17.2,3.3,31.1,15.8,38.4,31.9c3.4,7.5,10,12.8,17.3,14.8
			c21.4,6,39,23.8,46.2,46.7c2.8,8.8,9.9,15.2,18.2,17.5c11.9,3.4,23.1,11,31.4,22.7c7.5,10.5,11.4,22.6,12.1,34.7
			c0.8,13.3,7.1,24.9,16.8,33.4c10.2,9,25.1,25.4,25.1,25.4c6.4-2.2,12.1-7.2,14.8-14.1c5.7-14.8,17.7-26.6,32.9-30.4
			c3.3-0.8,6.5-1.2,9.7-1.2c3.9,0,7.7,0.6,11.3,1.6c2.1,0.6,4.2,0.9,6.3,0.9c4.4,0,8.8-1.2,12.9-3.2c0,0,9.2-5.8,20.1-5.8
			c1.8,0,3.6,0.2,5.4,0.5c12.9,2.5,21.9,14.6,21.9,14.6c4.6,5,10.4,8.7,16.9,9.4c6.8,0.7,13.5,3.1,19.6,7.5
			c12.7,9.3,19.3,24.7,19,40.6c-0.1,7.4,3.2,14.2,8.4,18.7c15.1,13,22.5,34.2,19.7,55.6c-1.1,8.2,2.3,16.1,8,21.2
			c8.4,7.3,14.6,17.8,16.8,30.4c2,11.4,0.6,22.7-3.4,32.8c-4.5,11.1-4.2,23.2,0.9,33.5c4.6,9.5,6.3,20.8,4,32.4
			c-1.9,9.9-6.4,18.4-12.5,25.1c-6.7,7.3-8.8,17.9-6.4,27.6c2.6,10.5,3,21.8,0.7,33.4c-4.6,23.5-19.1,42.2-37.6,51.7
			c-7.6,3.9-13.7,6.8-16.3,19.8c0,0-4.7,74.9-83.9,90.7c-68.1,22.9-91.3,44.7-91.3,44.7c-0.2,0.1-4.3-38.4-58.3-70.9
			c-24.9-15-38.8-33.6-46.6-51.7c-4.3,1.4-7.6,2.5-9,2.8c-0.2,0-0.4,0.1-0.6,0.1c-7.7,0-26.8-33.2-103.7-44.5
			c-89.1-13-98.6-96.1-98.6-96.1c-3.7-14.3-10.7-17.2-19.3-21.1c-21.1-9.5-38.3-29.5-44.8-55.3c-3.2-12.7-3.4-25.4-1.1-37.2
			c2.1-11-0.8-22.6-8.7-30.4c-7.2-7.1-12.7-16.4-15.4-27.2c-3.2-12.8-2-25.5,2.6-36.3c5-11.8,4.6-25.3-1-37.4
			c-5.1-11-7.3-23.5-5.7-36.3c1.8-14.2,8-26.2,17-34.9c6.1-5.9,9.4-14.9,7.7-24c-4.5-23.6,2.6-47.7,18.7-63
			c5.5-5.2,8.8-13.1,8.2-21.2c-1.3-17.7,5.2-35.2,18.7-46.3c6.5-5.3,13.8-8.3,21.3-9.5c7.2-1.1,13.5-5.5,18.3-11.4
			c0,0,9.3-14,23.5-17.5 M604.3,902.7c11.6-35.2,29.5-53.9,29.5-53.9c8.4-7.6,22.5-20.2,60.2-27.7c80.2-16,112.2-78.1,120.4-119.2
			c28.4-17.6,48.6-47.2,55.2-80.9c3-15.4,3.2-30.7,0.5-45.8c8.7-11.8,14.7-25.6,17.6-40.3c4-20.2,1.7-41.2-6.5-59.6
			c6.8-18.2,8.6-37.8,5.2-56.9c-3.3-18.5-11.6-35.6-23.6-49.2c0.7-29.2-9.8-57.6-29-78.2c-2.5-27.9-16.3-53.3-38.3-69.4
			c-10-7.3-21.4-12.4-33.4-15c-8.5-8.8-23.4-20.8-44.1-24.9c-4.8-0.9-9.7-1.4-14.7-1.4c-14.5,0-26.9,4-35.4,7.8
			c-5-0.9-10.1-1.3-15.2-1.3c-7.1,0-14.3,0.9-21.2,2.6c-11.5,2.8-22.2,7.9-31.8,14.8c-3.1-16.2-9.6-31.5-19.1-44.9
			c-12-16.9-28.3-29.9-46.8-37.4c-12.6-30-36.8-53.8-66-65c-14.9-26.5-40-45.2-68.8-50.8c-5.8-1.1-11.8-1.7-17.7-1.7
			c-7.6,0-15,0.9-22.3,2.8c-8.3-3.3-20.6-7-34.8-7l0,0h0c-6.7,0-13.2,0.8-19.5,2.4c-22.4,5.6-37.7,20-46,29.8
			c-13.1,3.3-25.3,9.4-35.8,18c-22.8,18.5-36.1,46.9-36.7,77.2c-20.5,23.6-30.5,56-27.5,88.4c-12.7,15.4-21,34.6-23.6,55.1
			c-2.7,21.2,0.6,42.7,9.6,62.2c-8.3,20.5-9.9,43.7-4.4,65.6c4.1,16.2,11.7,31.1,22.4,43.5c-2.4,17-1.5,34.3,2.8,51.3
			c9.2,36.7,33.5,67.8,65.6,84.5c10.4,43.7,48,110.9,137,123.9c44,6.4,60.6,20.6,71.3,28.6C439.5,730.5,484.8,761.3,604.3,902.7z"/>
	</g>
</g>
<g>
	<path class="st3" d="M363.7,572.7c-0.9,0-1.9-0.2-2.8-0.5c-22.3-8.4-39.8-11.4-57.3-13.9c-4.4-0.6-7.4-4.7-6.8-9.1
		c0.6-4.4,4.8-7.4,9.1-6.8c18.4,2.7,36.9,5.8,60.7,14.8c4.1,1.6,6.2,6.2,4.7,10.4C370,570.7,366.9,572.7,363.7,572.7z"/>
</g>
<g>
	<path class="st3" d="M406.5,198.2c-2,0-4-0.7-5.6-2.2c-3.2-3.1-3.3-8.2-0.2-11.4c12.9-13.4,26.2-26.6,47.3-40.7
		c3.7-2.5,8.7-1.5,11.2,2.2c2.5,3.7,1.5,8.7-2.2,11.2c-19.8,13.3-32,25.3-44.7,38.5C410.7,197.4,408.6,198.2,406.5,198.2z"/>
</g>
<g>
	<path class="st3" d="M313.7,430c-0.5,0-1.1,0-1.6-0.2c-8.2-1.7-15.7-2.8-23.1-3.9c-4.2-0.6-8.3-1.2-12.5-1.9
		c-4.4-0.7-7.3-4.8-6.6-9.2c0.7-4.4,4.9-7.4,9.2-6.6c4.1,0.7,8.1,1.3,12.2,1.9c7.8,1.1,15.6,2.3,24.1,4c4.3,0.9,7.1,5.1,6.2,9.5
		C320.7,427.4,317.4,430,313.7,430z"/>
</g>
<g>
	<path class="st3" d="M284.2,293.4c-0.4,0-0.8,0-1.2-0.1l-3.7-0.5c-3.2-0.5-6.5-0.9-9.8-1.5c-4.4-0.7-7.3-4.8-6.6-9.2
		c0.7-4.4,4.9-7.4,9.2-6.6c3.2,0.5,6.3,1,9.4,1.4l3.7,0.5c4.4,0.7,7.4,4.7,6.8,9.1C291.5,290.5,288.1,293.4,284.2,293.4z"/>
</g>
<g>
	<path class="st3" d="M690.7,701c-3.1,0-6-1.8-7.4-4.8c-1.8-4.1,0.1-8.8,4.1-10.6c17.4-7.6,31.5-11.3,41.9-13.6
		c4.4-1.1,8.6,1.7,9.6,6.1c1,4.3-1.7,8.6-6.1,9.6c-9.6,2.2-22.8,5.6-39,12.7C692.8,700.8,691.7,701,690.7,701z"/>
</g>
<g>
	<path class="st3" d="M728.8,570.8c-3.6,0-6.8-2.4-7.8-6c-1.1-4.3,1.4-8.7,5.7-9.8c7.5-2,14.6-3.4,21.5-4.8
		c3.6-0.7,7.2-1.4,10.8-2.2c4.4-0.9,8.6,1.8,9.6,6.1c1,4.3-1.8,8.6-6.1,9.6c-3.7,0.8-7.4,1.6-11.1,2.3c-6.6,1.3-13.3,2.6-20.5,4.5
		C730.2,570.7,729.5,570.8,728.8,570.8z"/>
</g>
<g>
	<path class="st3" d="M748.8,447c-3.7,0-7.1-2.6-7.9-6.4c-0.9-4.3,1.9-8.6,6.3-9.5l11.7-2.4c4.4-0.9,8.6,1.8,9.6,6.1
		c0.9,4.3-1.8,8.6-6.1,9.6c-2.9,0.6-5.7,1.2-8.6,1.8l-3.4,0.7C749.9,447,749.4,447,748.8,447z"/>
</g>
<g>
	<path class="st3" d="M611.9,313.5c-1.6,0-3.2-0.5-4.6-1.4c-3.6-2.5-4.5-7.5-2-11.2c8.8-12.7,24.7-29.4,50.4-37.1
		c4.2-1.3,8.7,1.1,10,5.4c1.3,4.2-1.1,8.7-5.4,10c-21.2,6.4-34.4,20.3-41.8,30.9C616.9,312.3,614.4,313.5,611.9,313.5z"/>
</g>
<path class="st4" d="M531.2,754.7c-0.2-0.1-0.3-0.2-0.4-0.3c-73.5-44.3-58.8-119.3-56.6-128.7c0.3-6.9-1.8-13.5-5.8-18.1
	c-15.6-18.2-21.9-43.9-17-68.8c2-10.3,5.9-19.9,11.3-28.6L433.8,407c27-42,47.5-57.4,67.3-72c3.4-2.5,6.7-4.9,10-7.5
	c3.5-2.7,6.8-5.2,10.2-7.7c22.2-16.5,41.4-31.1,52.5-61.5c-1.1-1.1-2.2-2.3-3.4-3.2c-3.4-2.8-6.2-6.1-8.6-9.7
	c-0.4,0.6-0.8,1.2-1,1.9c-9.1,29.9-26.7,43.1-49,59.7c-3.4,2.5-6.8,5.1-10.4,7.8c-3.2,2.5-6.5,4.9-9.8,7.3
	c-19.1,14.1-38.7,28.8-63.5,64.5l-31.8-113.7c21.4-34.1,37.4-46.2,52.9-57.6c2.6-1.9,5.1-3.8,7.7-5.7l7.8-5.8
	c15.2-11.4,29.7-22.2,38.7-42.6c-5.2-3.2-9.5-8.2-11.4-14.4c0-0.1-0.1-0.2-0.1-0.4c-6.8,22.2-20,32.1-36.7,44.5l-7.9,6
	c-2.5,1.9-4.9,3.7-7.4,5.5c-14.7,10.9-30,22.3-49.1,50L358.2,137c-2.3-8.3-10.7-13.2-19.1-11c-8.3,2.1-13.4,10.5-11.5,18.8
	l28.2,123.4c-35.3-19.6-55.9-22.8-75.8-25.6c-3.1-0.4-6.1-0.9-9.2-1.4l-9.8-1.5c-20.6-3.1-37-5.5-53.4-21.8c0,0.1,0,0.2,0,0.3
	c1.2,6.5-0.2,12.9-3.3,18.2c17.6,13.7,35.4,16.4,54.2,19.2l9.5,1.5c3.2,0.5,6.3,1,9.5,1.4c20.1,2.9,40.9,5.9,79.9,29.2
	c0.9,0.5,1.9,0.6,2.8,0.8l26.5,116.2c-44.5-24.4-70.9-28.4-96.2-32.1c-4-0.6-8-1.2-12.1-1.8c-4.4-0.7-8.6-1.3-12.8-2
	c-27.5-4.1-49.3-7.4-71.4-29.5c-0.5-0.5-1.1-0.8-1.7-1.1c-0.5,4.3-1.3,8.5-3,12.5c-0.6,1.5-1,3-1.5,4.6c24.1,21.5,48,25.3,75.3,29.4
	c4.1,0.6,8.2,1.2,12.5,1.9c4.2,0.7,8.3,1.3,12.4,1.9c26.2,3.8,53.4,7.8,103.4,37.4l25.7,112.8c-49.8-27.1-79.4-31.6-107.9-35.7
	c-4.6-0.7-9.1-1.3-13.7-2.1c-5-0.8-9.8-1.5-14.5-2.2c-26.8-4-48.8-7.4-70.4-23.9c0.4,2.4,0.8,4.7,1.4,7.1c1.5,5.8,3.6,11.3,6,16.5
	c19.2,9.8,38.9,12.9,60.6,16.1c4.6,0.7,9.4,1.4,14.3,2.2c4.7,0.8,9.3,1.4,14,2.1c29.4,4.3,59.9,8.9,115,41l99.3,435.2
	c2.2,9.8,8.2,18.1,16.7,23.3c5.2,3.2,10.9,5,16.8,5.4c3.8,0.3,7.7-0.1,11.5-1.1c9.8-2.4,17.9-8.6,23-17.3c5.1-8.7,6.4-18.9,3.6-28.6
	L531.2,754.7z"/>
<g>
	<g>
		<path class="st5" d="M498.6,727.4c-33.5-39.5-27.5-86.3-24.9-99.2l-5.1-20.4c0-0.1-0.1-0.1-0.1-0.2c-15.4-18-21.8-43.5-17.1-68.3
			l-99.8-397.3c-1.1-4.3-5.4-6.9-9.8-5.8c-4.3,1.1-6.9,5.5-5.8,9.8l210.6,838.1c0.9,3.6,4.2,6.1,7.8,6.1c0.6,0,1.3-0.1,2-0.2
			c4.3-1.1,6.9-5.5,5.8-9.8L498.6,727.4z"/>
	</g>
</g>
<g>
	<path class="st2" d="M595.7,280.5c-18.9,6.4-33.8,23.2-39.2,44c-2.1,8.1-8.2,14.1-15.4,16.5c-10.5,3.6-20.2,11-27.1,21.8
		c-6.2,9.8-9.2,20.8-9.2,31.7c-0.1,11.9-4.9,23-13.5,30.7c-7.8,7-13.7,16.9-16,28.5c-1.9,9.9-1,19.5,2.1,28c3.4,9.3,1.4,19.9-4.6,28
		c-6.4,8.7-11,19.1-13.3,30.6c-4.6,23.5,1.7,46.3,15.2,62.1c5.5,6.5,8.2,15.4,7.6,24.5c0,0-21,76.2,52.8,120.7l6.4,24.4l-14.7-10.6
		c-65.2-39.3-68.2-105.5-60.4-136.8c0-4.5-1.4-8.8-3.8-11.7c-17.1-20-24.2-48.3-18.8-75.6c2.7-13.6,8.1-26,16.1-37
		c3-4,3.9-9,2.4-12.9c-4.3-11.6-5.2-24.2-2.8-36.6c2.9-14.5,10.3-27.8,21-37.4c5.1-4.6,8.1-11.4,8.1-18.8
		c0.1-14.3,4.1-28.2,11.7-40.2c8.5-13.4,21.1-23.5,35.5-28.4c2-0.7,4.3-2.4,5.1-5.4c6.7-26,25.8-47.2,49.7-55.2L595.7,280.5z"/>
</g>
<g>
	<path class="st6" d="M748.2,631.8c-4.1,0.9-8.1,1.7-12.2,2.5c-23.5,4.7-48,9.7-85.9,31.6l17.1-100.3c38.3-24.2,61-28.9,82.7-33.2
		c3.7-0.7,7.3-1.4,11-2.3l10-2.1c23.7-4.9,48-10.1,68.6-26.8c-0.8-2.8-1.8-5.5-3-8.1c-1.3-2.6-2.2-5.3-2.9-8.1
		c-18.4,17.2-41.5,22.2-65.9,27.2l-10.1,2.1c-3.6,0.8-7.1,1.5-10.7,2.2c-20.8,4.1-42.4,8.6-76,28l17.5-102.4
		c30.6-19.7,48.2-23.4,65.1-26.8c2.8-0.6,5.6-1.1,8.5-1.7l5.6-1.2c17.1-3.6,35.9-7.7,51.9-19.1c-3.6-4.4-5.6-9.9-5.4-15.9
		c-13.9,11.6-31.5,15.4-49.9,19.3l-5.7,1.2c-2.7,0.6-5.4,1.1-8.2,1.7c-15.3,3-32.4,6.6-58.4,21.5L713.4,296
		c1.5-8.6-4.1-16.8-12.7-18.5c-8.5-1.7-16.9,3.7-18.8,12.2l-28.2,125.5c-19.2-25.1-34.1-35.1-47.5-43.9c-2.3-1.5-4.6-3-6.9-4.6
		c-3.5-2.4-7.1-4.7-10.7-7c-14.2-9.1-26.4-17.6-33.6-31.8c-2.4,5.6-6.7,9.8-12,12.2c9.3,15.2,23.3,24.3,36.9,33.1
		c3.4,2.2,6.9,4.4,10.3,6.8c2.4,1.6,4.8,3.2,7.2,4.8c14.7,9.7,30,19.9,51.6,51.4l-22.7,101c-24.4-31.9-43-44.4-61-56.3
		c-3.1-2-6.1-4-9.1-6.1l-2.4-1.6c-22-15.1-44.5-30.7-56.4-55.3c-1.8,2.7-3.8,5.2-6.3,7.4c-1.8,1.6-3.5,3.5-5.1,5.4
		c14.3,25,37.6,41.3,58.7,55.7l2.4,1.6c3.1,2.1,6.2,4.2,9.4,6.3c18.8,12.4,38.3,25.5,65.2,63.7L599.3,657
		c-27.3-35.5-48.3-49.6-68.6-63c-3.5-2.3-6.9-4.6-10.4-6.9c-3.7-2.6-7.4-5-11-7.4c-20.2-13.5-36.8-24.7-47.9-46.3
		c-0.7,2.4-1.7,4.6-2.2,7c-1.1,5.7-1.6,11.4-1.5,17c11.8,15,26.5,24.9,42.7,35.7c3.5,2.4,7.1,4.8,10.8,7.3c3.5,2.4,7.1,4.8,10.6,7.1
		c21.1,13.9,42.9,28.6,72.8,70.3L526,983.1c-2,8.8-1.4,18.1,3.6,25.7c0,0,10.3,19.5,36.1,14.2c25-5.1,28.2-28.4,28.2-28.4l52.6-308
		c42.6-26.6,68.1-31.8,92.6-36.7c4.2-0.8,8.3-1.6,12.5-2.6c4.3-0.9,8.6-1.8,12.7-2.6c19-3.9,36.3-7.5,52.9-16.8
		c2.2-5.1,4-10.6,5.1-16.4c0.5-2.5,0.8-5.1,1.1-7.6c-18.6,16.1-38.3,20.2-62.3,25C757,630,752.7,630.8,748.2,631.8z"/>
</g>
<g>
	<path class="st7" d="M559.1,1003.3c-0.5,0-1.1,0-1.6-0.2c-4.4-0.9-7.2-5.1-6.3-9.4l138.5-699.9c0.9-4.4,5.2-7.2,9.4-6.3
		c4.4,0.9,7.2,5.1,6.3,9.4L566.9,996.8C566.2,1000.7,562.8,1003.3,559.1,1003.3z"/>
</g>
</svg>
