<?xml version="1.0" encoding="utf-8"?>
<!-- Generator: Adobe Illustrator 20.0.0, SVG Export Plug-In . SVG Version: 6.00 Build 0)  -->
<svg version="1.1" id="Layer_1" xmlns="http://www.w3.org/2000/svg" xmlns:xlink="http://www.w3.org/1999/xlink" x="0px" y="0px"
	 viewBox="0 0 500 500" style="enable-background:new 0 0 500 500;" xml:space="preserve">
<style type="text/css">
	.st0{fill:#292F37;}
	.st1{fill:#577B1D;}
	.st2{fill:#AD2F26;}
	.st3{fill:#264415;}
	.st4{fill:#539243;}
	.st5{fill:#663346;}
	.st6{fill:#246901;}
	.st7{fill:#FFFFFF;}
	.st8{fill:#8A1100;}
	.st9{fill:#5EC865;}
	.st10{fill:#007500;}
	.st11{fill:#FF3D50;}
	.st12{fill:none;stroke:#246901;stroke-linecap:round;stroke-linejoin:round;stroke-miterlimit:10;}
	.st13{fill:none;stroke:#FFFFFF;stroke-linecap:round;stroke-linejoin:round;stroke-miterlimit:10;}
	.st14{fill:#FF3D50;stroke:#CC3248;stroke-miterlimit:10;}
	.st15{fill:none;stroke:#007500;stroke-linecap:round;stroke-linejoin:round;stroke-miterlimit:10;}
	.st16{fill:none;stroke:#264415;stroke-linecap:round;stroke-linejoin:round;stroke-miterlimit:10;}
	.st17{fill:#528B1C;}
	.st18{fill:#20420B;}
	.st19{fill:#314773;}
	.st20{fill:#7389B5;}
	.st21{fill:#528B1C;stroke:#20420B;stroke-linecap:round;stroke-linejoin:round;stroke-miterlimit:10;}
	.st22{fill:none;stroke:#314773;stroke-linejoin:round;stroke-miterlimit:10;}
	.st23{fill:#00FFFF;}
	.st24{fill:#22B473;stroke:#184C28;stroke-width:3;stroke-linecap:round;stroke-linejoin:round;stroke-miterlimit:10;}
	.st25{fill:#2E368E;}
	.st26{fill:#9A0D90;}
	.st27{fill:#161542;}
	.st28{fill:#251749;}
	.st29{fill:none;stroke:#FBA954;stroke-linecap:round;stroke-linejoin:round;stroke-miterlimit:10;}
	.st30{fill:#61303F;}
	.st31{fill:#EEB683;}
	.st32{fill:#1B631A;}
	.st33{fill:#FBA954;}
	.st34{fill:#ECD8A1;}
	.st35{fill:#DC0900;stroke:#184C28;stroke-width:1.7008;stroke-miterlimit:10;}
	.st36{fill:none;stroke:#007500;stroke-width:2;stroke-linecap:round;stroke-miterlimit:10;}
	.st37{fill:#F10A00;stroke:#8A1100;stroke-miterlimit:10;}
	.st38{fill:none;stroke:#FFFFFF;stroke-linecap:round;stroke-miterlimit:10;}
	.st39{fill:none;stroke:#007500;stroke-width:3;stroke-linecap:round;stroke-miterlimit:10;}
	.st40{fill:#F10A00;}
	.st41{display:none;fill:#ECD8A1;}
	.st42{fill:#7389B5;stroke:#314773;stroke-miterlimit:10;}
	.st43{fill:none;stroke:#314773;stroke-miterlimit:10;}
	.st44{opacity:0.4;fill:#314773;}
	.st45{fill:#7389B5;stroke:#314773;stroke-linecap:round;stroke-linejoin:round;stroke-miterlimit:10;}
	.st46{fill:#8BA3CD;stroke:#314773;stroke-miterlimit:10;}
	.st47{fill:#5A7098;}
	.st48{fill:none;stroke:#FFFFFF;stroke-width:8;stroke-linecap:round;stroke-linejoin:round;stroke-miterlimit:10;}
	.st49{fill:#FF3D50;stroke:#AD2F26;stroke-miterlimit:10;}
	.st50{fill:#FF3D50;stroke:#CC3248;stroke-width:1.058;stroke-miterlimit:10;}
	.st51{fill:#539243;stroke:#246901;stroke-width:3;stroke-linejoin:round;stroke-miterlimit:10;}
</style>
<path class="st2" d="M190,149.5L190,149.5c-3.1,0-6.2,0.3-9.2,0.8c-12.1,2.1-22.8,8-31,17.2c-0.3,0.3-0.6,0.7-0.9,1
	c-4.2-1.1-8.6-1.6-13.1-1.6c-3.1,0-6.2,0.3-9.2,0.8c-7.5,1.3-14.6,4.1-20.7,8.2c-8.3-4.7-17.5-7.2-27-7.2c-3.1,0-6.2,0.3-9.2,0.8
	c-28,4.8-47.4,30.6-45.5,58.9c-4.3,3.5-8.1,7.7-11.3,12.5C5,252.8,2,267.3,4.5,281.6c1.4,7.8,4.3,15.2,8.6,21.6
	c-3.8,9.5-5,20.1-3.2,30.6c3.3,19,15.6,34.3,31.9,41.7c0.1,1.3,0.3,2.7,0.5,4c2.2,13,9,24.9,18.9,33.5c8.5,7.3,18.9,11.8,29.9,13
	c2.8,11.6,9.2,22.1,18.2,29.9c10,8.6,22.7,13.3,35.7,13.3c3.1,0,6.2-0.3,9.2-0.8c9.8-1.7,18.8-6,26.1-12.3
	c6.2,2.4,12.7,3.7,19.4,3.7c3.1,0,6.1-0.3,9.2-0.8c29.7-5.1,49.7-33.8,44.9-64.1c5.4-3.8,10.2-8.6,14.1-14.3
	c8.3-12.2,11.5-26.9,8.9-41.6c-0.2-1.3-0.5-2.7-0.8-4c12.8-12.4,19.4-30.9,16.1-50c-1.8-10.5-6.5-20.1-13.2-27.8
	c1.9-7.5,2.2-15.4,0.9-23.3c-3.6-20.7-17.8-37-36.4-43.6c-3-10.7-9.2-20.4-17.6-27.7C215.7,154.3,203,149.5,190,149.5L190,149.5z"/>
<path class="st4" d="M479.7,178.1c3.2-5.4,1.6-12.4-3.6-15.9c-1.1-0.7-7.4-4.9-15.5-8.1c9.7-16.2,14.9-29.2,15.2-29.9
	c2-5.1,0.3-10.9-4.1-14.1c-0.7-0.5-4.3-3-9.3-5.4c5.2-9.6,11.6-23.2,14.5-37.3c0.8-3.9-0.4-7.9-3.1-10.7c-2.3-2.3-5.3-3.6-8.5-3.6
	c-0.7,0-1.4,0.1-2.1,0.2c-0.8,0.2-17.3,3.2-37.6,12.3c-2.1-5.3-4.5-9.1-5-9.9c-2.2-3.5-6-5.6-10.1-5.6c-0.8,0-1.5,0.1-2.3,0.2
	c-11.5,2.2-23.3,7.8-32.5,12.9c-2.5-7.4-5.8-13.3-6.9-15.1c-2.2-3.8-6.2-5.9-10.3-5.9c-1.8,0-3.7,0.4-5.4,1.3
	c-12.9,6.5-23.6,15-31.7,22.6c-1-3.2-1.9-5.3-2.2-5.9c-1.3-3.1-3.8-5.5-7-6.6c-1.3-0.5-2.6-0.7-4-0.7c-1.9,0-3.8,0.5-5.6,1.4
	c-16.6,8.8-31,24.1-40.8,36.6c-2-3.9-3.9-7.1-5-8.8c-1.8-2.9-4.8-4.9-8.1-5.5c-0.7-0.1-1.3-0.2-2-0.2c-2.7,0-5.4,0.9-7.5,2.7
	c-14.2,11.6-28.9,29.3-38.4,41.6c-2.2-3.1-5.8-4.9-9.6-4.9c-0.1,0-0.2,0-0.3,0c-4.2,0.1-8,2.4-10.1,6
	c-10.4,18.4-22.9,44.1-30.6,72.7c3.3,1.8,6.4,4.2,8.9,7c1.7-13.7,11.8-25.1,25.6-27.5c17-2.9,33.2,9,36.2,26.6c0.6,3.7,0.6,7.4,0,11
	c16.5-2.1,32,9.7,34.9,26.8c1.7,9.8-1.1,19.4-6.9,26.4c9.7,4.1,17.2,13.1,19.2,24.6c2.9,17-7.6,33.1-23.7,36.8
	c4.2,4.5,7.3,10.4,8.4,17c2.2,12.6-3.1,24.8-12.6,31.7c12.4,3.6,25.5,5.4,39.2,5.4c60,0,110.4-34.8,112.5-36.3
	c3.2-2.2,5-5.8,5.1-9.7c0-3.6-1.6-7-4.3-9.2c12.9-8.7,31.4-22.2,44-35.7c2.3-2.5,3.5-5.9,3.1-9.3c-0.4-3.4-2.2-6.5-4.9-8.5
	c-1.7-1.2-4.7-3.3-8.5-5.5c13-9.1,29.2-22.5,39.1-38.5c1.7-2.8,2.2-6.3,1.3-9.5s-3.1-5.9-6.1-7.4c-0.6-0.3-2.7-1.3-5.8-2.5
	C463.2,200.7,472.3,190.5,479.7,178.1z"/>
<path class="st6" d="M337.9,328.8c-0.6-2.1-2.8-3.3-4.9-2.7c-20,5.6-38.9,7-56.3,4c-8.4-1.4-16.4-3.9-24.1-7.4
	c-0.5,2.6-1.3,5.2-2.5,7.6c15.2,6.7,30.6,9.2,45.2,9.2c14.4,0,28-2.5,39.8-5.8C337.3,333,338.5,330.9,337.9,328.8z"/>
<path class="st6" d="M239.7,215c-3.7-24.9,3.2-50.8,11.8-71.5c0.8-2,0.1-4.4-1.9-5.3c-2.1-1-4.5,0-5.4,2.1
	c-11.9,28.8-15,52.3-13.1,71.3C234.2,212.3,237.1,213.5,239.7,215z"/>
<path class="st6" d="M257.2,266c21.7,21.6,46.1,28.5,68.5,28.5c20.9,0,40.1-6,53.5-11.7c1.9-0.8,3-2.9,2.4-4.9
	c-0.7-2.3-3.2-3.4-5.3-2.4c-13.1,5.6-33.3,12.1-54.7,11.2c-20.2-0.8-38.2-8-53.7-21.3c-2.8-2.4-2.8-6.7-0.2-9.2l21.2-19.9
	c5.6-5.2,14-5.9,20.3-1.5c13.9,9.7,28.6,13.1,42.4,13.1c20.9,0,39.6-7.7,49.9-13c1.8-0.9,2.8-3.1,2-5.1c-0.9-2.2-3.4-3.1-5.5-2.1
	c-17.6,9-32.9,12.4-45.8,12.4c-18.4,0-32.2-6.9-41.7-14.4c-3-2.4-3.3-6.8-0.5-9.4l21.4-20.1c5.4-5,13.4-5.8,19.7-1.9
	c8.9,5.5,18.9,8.3,29.9,8.3c0.4,0,0.8,0,1.2,0c14.1-0.3,26.9-5.1,35.2-9.1c1.9-0.9,2.8-3.1,2.1-5c-0.8-2.2-3.4-3.2-5.4-2.2
	c-14,6.9-39.2,14.9-61-0.2c-3.2-2.2-3.5-6.9-0.7-9.6l22.4-21.1c4.6-4.3,11.3-5.6,17.2-3.2c3.9,1.6,8,2.3,12,2.3
	c10,0,19.4-4.2,24.8-8c1.6-1.1,2.2-3.2,1.5-4.9c-1.1-2.3-3.9-3.1-5.9-1.7c-0.1,0-5.7,4-13.4,5.8c-4.3,1-8.3,1.1-12,0.4
	c-4.9-1-6.6-7.2-2.9-10.6l42.4-39.9c1.6-1.5,1.7-4,0.2-5.6c-1.5-1.6-4-1.7-5.6-0.2l-41.6,39.1c-3.8,3.6-10.2,1.1-10.5-4.2
	c-0.2-6.1,1.5-14,7.2-24.1c1-1.9,0.6-4.3-1.2-5.4c-1.9-1.2-4.5-0.6-5.6,1.4c-7.7,13.5-10,26.2-7,36.4c1.7,5.8-0.1,12.1-4.5,16.2
	l-22.6,21.2c-3,2.8-7.9,2-9.8-1.7c-6.5-12.6-8.7-31.8,4.9-60.4c1-2.1,0-4.6-2.2-5.4c-1.9-0.7-4.1,0.3-5,2.2
	c-12.1,25.6-13.8,48.5-5.2,66.2c3.1,6.3,1.6,14-3.5,18.8l-21.6,20.3c-2.8,2.7-7.4,2.1-9.5-1.2c-18.3-29.1-5.3-66.4,4.9-87.3
	c1-2,0.1-4.3-1.8-5.3c-2-1-4.3-0.1-5.3,1.8c-10.7,21.8-24.1,60.4-6.3,92.1c3.6,6.5,2.3,14.6-3.1,19.7l-21.3,20
	c-1.6,1.5-3.7,2-5.7,1.5L257.2,266z"/>
<path class="st7" d="M399.6,113.3c-1.1,0-2.1-0.4-2.9-1.2c-1.5-1.6-1.4-4.1,0.2-5.6l2.9-2.7c1.6-1.5,4.1-1.4,5.6,0.2
	c1.5,1.6,1.4,4.1-0.2,5.6l-2.9,2.7C401.5,112.9,400.5,113.3,399.6,113.3z"/>
<path class="st7" d="M347.6,162.1c-1.1,0-2.1-0.4-2.9-1.2c-1.5-1.6-1.4-4.1,0.2-5.6l3.5-3.3c1.6-1.5,4.1-1.4,5.6,0.2
	c1.5,1.6,1.4,4.1-0.2,5.6l-3.5,3.3C349.6,161.7,348.6,162.1,347.6,162.1z"/>
<path class="st7" d="M305.8,201.4c-1.1,0-2.1-0.4-2.9-1.2c-1.5-1.6-1.4-4.1,0.2-5.6l15.4-14.4c1.6-1.5,4.1-1.4,5.6,0.2
	c1.5,1.6,1.4,4.1-0.2,5.6l-15.4,14.4C307.8,201,306.8,201.4,305.8,201.4z"/>
<path class="st7" d="M259.4,245c-1.1,0-2.1-0.4-2.9-1.2c-1.5-1.6-1.4-4.1,0.2-5.6l11.8-11.1c1.6-1.5,4.1-1.4,5.6,0.2
	c1.5,1.6,1.4,4.1-0.2,5.6l-11.8,11.1C261.3,244.7,260.3,245,259.4,245z"/>
<ellipse transform="matrix(3.118463e-02 -0.9995 0.9995 3.118463e-02 299.6802 506.4806)" class="st7" cx="411.1" cy="98.7" rx="4" ry="4"/>
<ellipse transform="matrix(3.118463e-02 -0.9995 0.9995 3.118463e-02 204.8532 502.041)" class="st7" cx="361.4" cy="145.3" rx="4" ry="4"/>
<ellipse transform="matrix(3.118463e-02 -0.9995 0.9995 3.118463e-02 50.4566 494.8123)" class="st7" cx="280.5" cy="221.4" rx="4" ry="4"/>
<path class="st11" d="M268.4,289.6c-1.9-11.4-9.5-20.4-19.2-24.6c5.8-7,8.6-16.5,6.9-26.4c-2.9-17.1-18.4-28.9-34.9-26.8
	c0.6-3.5,0.6-7.2,0-11c-3-17.6-19.2-29.5-36.2-26.6c-13.9,2.4-24,13.8-25.6,27.5c-7-7.9-17.5-12.1-28.4-10.3
	c-10.9,1.9-19.5,9.3-23.4,19.1c-6.1-12.4-19.4-19.8-33.3-17.4c-17,2.9-28.4,19.5-25.4,37.1c0.6,3.7,1.9,7.2,3.6,10.4
	c-16.3,3.5-27,19.7-24,36.8c1.7,9.8,7.5,17.9,15.3,22.6c-7.8,7.1-11.9,18.1-9.9,29.5c2.9,17,18.2,28.7,34.6,26.8
	c-2.5,5.7-3.4,12.2-2.3,18.8c3,17.6,19.2,29.5,36.2,26.6c5.4-0.9,10.3-3.3,14.3-6.6c0.4,0.3,0.7,0.7,1.1,1c-3.6,6.3-5.2,14-3.8,21.9
	c3,17.6,19.2,29.5,36.2,26.6c11.8-2,20.9-10.7,24.3-21.6c6.9,9.2,18.3,14.4,30.1,12.3c17-2.9,28.4-19.5,25.4-37.1
	c-1.2-6.9-4.4-12.9-8.8-17.5c2.2,0.1,4.4,0,6.6-0.4c17-2.9,28.4-19.5,25.4-37.1c-1.1-6.6-4.2-12.5-8.4-17
	C260.8,322.7,271.3,306.6,268.4,289.6z"/>
<path class="st6" d="M237.5,97c4.9-4.5,12.6-3.3,15.5,2.7c0.7,1.5,1.4,3,2.1,4.6c1.9,4.5,8,5.3,10.8,1.3c6.9-9.5,18-23.2,31.1-33.2
	c5.6-4.3,13.9-1.3,15.3,5.6c0,0.1,0.1,0.2,0.1,0.4c1,5,7.2,6.8,10.7,3.1c6.1-6.5,15-14.7,26-21.8c5.2-3.3,12-1.1,14.3,4.6
	c1.1,2.8,2.1,5.8,2.8,9c0.9,4.2,5.7,6.2,9.4,3.9c6.8-4.1,16.7-9.6,26.8-12.9c4.8-1.6,10.1,0.7,12,5.4c0.7,1.7,1.4,3.5,1.9,5.4
	c1.1,3.8,5.3,5.7,8.8,3.9c7.7-3.8,15-6.6,21.3-8.8c8.4-2.9,16.3,5.6,12.9,13.8c-2.7,6.4-5.6,12.2-8.2,16.8
	c-2.9,5.2-0.8,11.4,4.6,13.8c0.3,0.1,0.6,0.3,1,0.4c4.8,2.3,6.9,8,4.6,12.9c-2.7,5.6-6.7,13.6-12.1,22.4c-3.4,5.5-0.6,12.8,5.5,14.6
	c1.7,0.5,3.4,1.1,5,1.7c5.6,2.3,7.6,9.4,4,14.3c0,0-11.4,13.6-27,26.9c-2.9,2.5-1.6,7.3,2.1,8c1.4,0.3,2.7,0.6,4,0.9
	c6.8,1.9,9.3,10.3,4.6,15.7c-9.9,11.3-22.5,20.7-32.2,27.1c-5.3,3.5-4.9,11.4,0.7,14.4c0.5,0.3,0.9,0.5,1.4,0.8
	c5.8,3.2,6.7,11.2,1.8,15.7c-13.8,12.4-30.9,24-40.3,30c-2.8,1.8-3,5.8-0.5,8c3.4,3.1,5,7.9-5.7,13.8
	c-18.1,10.1-53.5,26.3-92.8,26.3c-10,0-20.2-1.1-30.4-3.5c-4.5,7.9-12.2,13.8-21.7,15.4c-2.1,0.4-4.1,0.5-6.2,0.4
	c0.6,0.3,1.2,0.5,1.9,0.8c17.5,7.1,36.5,10.7,56.3,10.7c63.7,0,117-36.9,119.3-38.4c11.4-7.4,12.2-15.4,11.2-20.3
	c-0.6-3.1,0.5-6.3,3.1-8.2c10.9-8,22.8-17.7,31.9-27.4c3.4-3.6,5.8-8.2,6.5-13.2c0.6-4.3,0-8.5-1.5-12.3c-1.7-4.2-0.5-9,2.9-12
	c8.3-7.5,16.4-16.3,22.4-26.1c2.4-3.9,3.8-8.3,3.8-12.8c0-3.6-0.8-7-2.2-10.1c-1.6-3.5-1.3-7.6,1.2-10.6c4.1-5.1,8.1-10.6,11.7-16.8
	c9.8-16.9,2.2-26.5-4.7-31.2c-4.2-2.9-5.6-8.4-3.4-13c3.2-6.6,4.9-10.9,5.1-11.3c4.1-10.1,0.7-21.7-8.2-28.1
	c-0.2-0.1-0.3-0.3-0.6-0.4c4.1-8.7,8-18.9,10.3-29.6c0.4-1.8,0.7-3.7,0.7-5.6c0-12.9-10.3-23.4-23.1-23.8c-0.2,0-0.5,0-0.7,0
	c-0.3,0-0.6,0-0.9,0c-1.4,0.1-2.8,0.2-4.2,0.5c-2.4,0.5-10.2,2.2-20.7,5.7c-4,1.3-8.4,0.1-11.1-3.1c-5.8-6.8-17.9-6-17.9-6
	c-1.5,0-3,0.1-4.6,0.4c-6.5,1.3-13.1,3.5-19.2,6c-2.8,1.2-6,0-7.6-2.6l0,0c-4.4-7.5-12.3-11.7-20.5-11.7c-3.6,0-7.3,0.8-10.8,2.6
	c-7.1,3.6-13.6,7.7-19.4,12c-2,1.5-4.8,1.6-6.9,0.2c-1.6-1.1-3.4-2-5.2-2.6c-2.6-0.9-5.3-1.4-7.9-1.4c-3.9,0-7.7,0.9-11.2,2.8
	c-11.3,6-21.6,14.6-30.3,23.4c-2,2-5.1,2.4-7.4,0.9c-2.6-1.6-5.6-2.8-8.7-3.3c-1.3-0.2-2.6-0.3-3.9-0.3c-5.4,0-10.8,1.9-15,5.4
	c-11,9-22.1,21.2-31.2,32.2c-1.4,1.7-3.6,2.4-5.7,2.1c-1.2-0.2-2.4-0.3-3.6-0.3c-0.2,0-0.4,0-0.6,0c-8.4,0.2-16,4.8-20.1,12.1
	c-10.8,19-23.6,45.4-31.5,75c7.8,0.8,15.1,4.6,20.3,10.5c0.7-5.5,2.7-10.6,5.8-14.9c4.9-15.4,11.3-30.3,18.2-44.1
	c2.4-4.8,7.9-6.4,12.3-4.7c3.3,1.3,7.1,0.5,9.2-2.4C212.2,125.9,227,106.7,237.5,97z"/>
<path class="st7" d="M100.1,271.7c-0.1,0-0.2,0-0.3,0c-2.2-0.3-3.6-2.4-3.3-4.5c0.8-5.3,3.8-10.1,8-13.2c1.8-1.3,4.2-0.9,5.5,0.9
	c1.3,1.8,0.9,4.2-0.9,5.5c-2.6,1.9-4.3,4.8-4.8,8C104,270.5,102.1,271.9,100.1,271.7z"/>
<path class="st7" d="M90.2,325.7c-0.2,0-0.4,0-0.6-0.1c-2.1-0.5-3.5-2.6-3-4.7c1.1-5.1,4.1-9.5,8.4-12.4c1.8-1.2,4.3-0.7,5.5,1.1
	c1.2,1.8,0.7,4.3-1.1,5.5c-2.6,1.7-4.4,4.4-5.1,7.5C93.9,324.5,92.1,325.8,90.2,325.7z"/>
<path class="st7" d="M136,314.2c-0.3,0-0.6-0.1-0.9-0.2c-2.1-0.6-3.3-2.8-2.6-4.9c1.1-3.6,3.1-6.9,5.7-9.5c1.6-1.5,4.1-1.5,5.6,0
	c1.5,1.6,1.5,4.1,0,5.6c-1.7,1.7-3,3.8-3.7,6.2C139.6,313.3,137.8,314.4,136,314.2z"/>
<ellipse transform="matrix(7.412482e-02 -0.9972 0.9972 7.412482e-02 -267.7859 342.8198)" class="st7" cx="50.7" cy="315.6" rx="3.9" ry="3.9"/>
<ellipse transform="matrix(7.412482e-02 -0.9972 0.9972 7.412482e-02 -212.0241 295.8513)" class="st7" cx="53.3" cy="262.1" rx="3.9" ry="3.9"/>
<ellipse transform="matrix(7.412482e-02 -0.9972 0.9972 7.412482e-02 -145.645 274.3732)" class="st7" cx="74.9" cy="215.6" rx="3.9" ry="3.9"/>
<ellipse transform="matrix(7.412482e-02 -0.9972 0.9972 7.412482e-02 -105.1631 321.4113)" class="st7" cx="120.5" cy="217.3" rx="3.9" ry="3.9"/>
<ellipse transform="matrix(7.412482e-02 -0.9972 0.9972 7.412482e-02 -109.1997 387.1869)" class="st7" cx="153.9" cy="252.4" rx="3.9" ry="3.9"/>
<path class="st2" d="M210.6,176.8c-7.7-5.7-17.1-7.9-26.3-6.3c-9.3,1.6-17.4,6.8-22.8,14.7l-0.1,0.1c-3,4.3-8.5,5.9-13.4,4.1
	c-5.5-2.1-11.6-2.7-17.8-1.7c-6.2,1.1-11.7,3.7-16.2,7.5c-4,3.4-9.8,3.7-14,0.6l-0.1-0.1c-7.7-5.7-17.1-7.9-26.3-6.3
	c-19.1,3.3-31.9,21.9-28.6,41.6c0.4,2.5,1.1,4.9,2,7.2c-6.7,2.5-12.5,6.9-16.6,13c-5.4,7.8-7.4,17.4-5.8,26.9
	c1.5,9,6.2,16.9,13.2,22.5c-6.5,7.9-9.7,18.5-7.8,29.5c1.6,9.5,6.7,17.8,14.4,23.5c5.4,4,11.6,6.2,18,6.7c0.2,0,0.3,0,0.5,0
	c-1.2,4.9-1.5,10.1-0.6,15.4c1.6,9.5,6.7,17.8,14.4,23.5c5.4,4,11.6,6.2,18,6.7c2.8,0.2,5.6,0.1,8.4-0.4c2.7-0.5,5.2-1.2,7.6-2.2
	c-1.2,4.8-1.5,10-0.6,15.3c2.9,16.8,16.6,29,32.5,30.2c2.7,0.2,5.5,0.1,8.3-0.4c11-1.9,20-8.9,24.9-18.3c5.8,5.4,13.3,8.8,21.3,9.4
	c2.7,0.2,5.5,0.1,8.3-0.4c19.1-3.3,31.9-21.9,28.6-41.6c0-0.1,0-0.2-0.1-0.3c-1.3-7.1,1.8-14.2,7.8-18.2
	c11.4-7.6,17.8-21.7,15.3-36.3c-0.2-1.4-0.6-2.8-1-4.2c-1.7-5.8,0.2-12.1,4.7-16.1c9-8,13.6-20.4,11.5-33.4
	c-1.3-8.5-5-14.5-8.6-18.5c-4.2-4.7-5.7-11.2-4.2-17.4c1.2-4.7,1.4-9.8,0.5-15c-1.6-9.5-6.7-17.8-14.4-23.5
	c-3.4-2.5-7.1-4.3-10.9-5.4c-5-1.5-8.8-5.7-9.9-10.8C221.3,182.6,210.6,176.8,210.6,176.8z M226.9,215.7c5,0.4,9.7,2.1,13.9,5.2
	c6,4.4,10,11,11.3,18.4c0,0.1,0,0.2,0,0.2c1.6,9.8-6.1,18.7-16,19.1c-1.6,0-3.2,0.2-4.7,0.5c-6.4,1.1-12.1,3.9-16.7,7.9
	c-1.5,1.3-3.7,1.4-5.3,0.2l0,0c-0.5-0.4-0.9-0.7-1.4-1.1c-1-0.9-1.6-2.1-1.5-3.5c0.1-2.5-0.1-5-0.5-7.4c-0.7-4-2-7.7-3.8-11.1
	c-2.8-5.3-2.6-11.7,0.7-16.6c0,0,0-0.1,0.1-0.1c4.2-6.1,10.4-10.1,17.6-11.4C222.6,215.6,224.8,215.5,226.9,215.7z M100.2,298.1
	c2.1-0.4,4.2-0.4,6.2-0.3c1,0.1,1.9,0.2,2.9,0.4c4.9,0.9,8,5.8,6.9,10.7c-1,4.7-1.1,9.7-0.3,14.6c0.9,5,2.6,9.6,5.1,13.7
	c2.6,4.3,1.3,10-3.1,12.5c-2.6,1.5-5.4,2.5-8.4,3c-14.5,2.5-28.3-7.8-30.9-22.8C76,314.9,85.7,300.6,100.2,298.1z M123.7,322.2
	c-1.4-8,0.4-16,4.8-22.5c4.5-6.5,11.1-10.8,18.7-12.1c2.3-0.4,4.6-0.5,6.8-0.3c13.1,1,24.5,11.2,26.9,25.2c1.4,8-0.4,16-4.8,22.5
	c-4.5,6.5-11.1,10.8-18.7,12.1C141.6,349.7,126.5,338.6,123.7,322.2z M177.4,281.2c-2.9,2.5-7,3-10.4,1.4c-3.7-1.7-7.7-2.8-11.9-3.1
	c-3.5-0.3-6.6-2.5-8.1-5.7c-1.2-2.5-2.1-5.2-2.6-8c-2.6-15.4,7.3-30,22.1-32.5c2.1-0.4,4.3-0.5,6.4-0.3c12.3,0.9,23,10.5,25.3,23.6
	c0.7,4,0.5,8-0.4,11.8c-0.7,2.7-2.8,4.9-5.5,5.5C183.5,275.8,177.4,281.2,177.4,281.2z M176.5,346.6c3.6-3.2,8.6-4.4,13.1-2.9
	c2.6,0.9,5.3,1.4,8,1.6c0.3,0,0.6,0,0.9,0.1c5.5,0.3,10.4,3.9,12,9.2c0.4,1.2,0.7,2.5,0.9,3.8c2.6,15.4-7.3,30-22.1,32.5
	c-7.2,1.2-14.4-0.5-20.3-4.9c-6-4.4-10-11-11.3-18.4c0,0,0-0.1,0-0.1c-1-6.1,2.5-12.2,8.3-14.4C169.2,351.7,172.9,349.8,176.5,346.6
	z M204.7,337.1c-3.4,0.6-6.7,0.5-10-0.2c-4.6-1-7.5-5.6-6.4-10.2c1.2-5,1.4-10.3,0.5-15.6c-0.9-5.3-2.9-10.2-5.6-14.5
	c-2.5-3.9-1.4-9.3,2.6-11.7c2.8-1.7,6-3,9.4-3.6c2.1-0.4,4.3-0.5,6.4-0.3c12.3,0.9,23,10.5,25.3,23.6
	C229.4,320,219.5,334.6,204.7,337.1z M168,189.7c4.2-6.1,10.4-10.1,17.6-11.4c2.1-0.4,4.3-0.5,6.4-0.3c5,0.4,9.7,2.1,13.9,5.2
	c6,4.4,10,11,11.3,18.4v0c0.6,3.6-1.3,7.1-4.7,8.4c-6.5,2.5-12.1,6.9-16.1,12.9c0,0,0,0.1-0.1,0.1c-2.9,4.3-8.3,6.1-13.1,4.3
	c-1.5-0.6-3-1-4.6-1.4c-4-0.9-7-4.2-7.7-8.3c0,0,0,0,0-0.1c-0.7-4-2-7.8-3.8-11.1c-2.8-5.3-2.6-11.7,0.7-16.6
	C168,189.7,168,189.7,168,189.7z M131.6,195.5c2.1-0.4,4.3-0.5,6.4-0.3c12.3,0.9,23,10.5,25.3,23.6v0c0.6,3.6-1.4,7.1-4.8,8.5
	c-6.5,2.6-12,7.1-15.9,12.7c-1.4,2.1-4.3,2.6-6.3,1.1l0,0c-5.8-4.2-12.4-6.5-19.3-6.8c-3.6-0.1-6.7-2.8-7.4-6.3c0,0,0,0,0-0.1
	C106.8,212.6,116.8,198.1,131.6,195.5z M99.6,290.4c-1.8,0.1-3.5-0.6-4.6-2c-3-3.8-5.1-8.3-6-13.3c-2.6-15.4,7.3-30,22.1-32.5
	c2.1-0.4,4.3-0.5,6.4-0.3c5,0.4,9.7,2.1,13.9,5.2c0,0,0,0,0.1,0c3.2,2.4,4.9,6.3,4.6,10.3c-0.2,3-0.1,6.1,0.4,9.2
	c0.5,3,1.4,5.9,2.6,8.6c1.2,2.7,0,5.8-2.6,7c-4.5,2.1-8.6,5.2-11.9,9.1c-1.5,1.7-3.9,2.3-6,1.5C110.7,290.2,103.3,290.2,99.6,290.4z
	 M74.9,197.2c2.1-0.4,4.3-0.5,6.4-0.3c5,0.4,9.7,2.1,13.9,5.2l0.1,0.1c4.7,3.5,7.2,9.2,6.3,15c-0.6,3.9-0.7,8.1,0,12.2
	c0,0,0,0,0,0.1c0.7,4.1-1.1,8.2-4.6,10.4c-1.2,0.8-2.4,1.7-3.6,2.6c-4,3.3-9.6,3.7-13.8,0.6l-0.2-0.2c-5.8-4.3-12.6-6.6-19.5-6.8
	c-3.6-0.1-6.6-2.8-7.2-6.4v0C50.2,214.3,60.1,199.7,74.9,197.2z M83.2,288.7c-1.2,2.1-3.9,2.8-6.1,1.9c-5.8-2.3-12.2-3-18.5-2
	c-2.3,0.4-4.5,1-6.6,1.8c-7.1,2.8-15.2-0.8-17.9-8c-0.7-1.8-1.2-3.7-1.5-5.6c-1.3-7.5,0.3-15,4.5-21.1c4.2-6.1,10.4-10.1,17.6-11.4
	c2.1-0.4,4.3-0.5,6.4-0.3c5,0.4,9.7,2.1,13.9,5.2c0,0,0.1,0,0.1,0.1c4.8,3.5,7.1,9.5,6.2,15.4c-0.6,3.8-0.6,7.8,0.1,11.8
	c0.5,2.7,1.2,5.2,2.2,7.6C84,285.6,84,287.2,83.2,288.7C83.2,288.6,83.2,288.6,83.2,288.7z M49,347.3c-6-4.4-10-11-11.3-18.4
	c-2.6-15.4,7.3-30,22.1-32.5c2.1-0.4,4.3-0.5,6.4-0.3c0,0,0.1,0,0.1,0c6.4,0.5,10.3,7.5,7.4,13.3c-3.2,6.5-4.4,14.1-3.1,21.8
	c0.7,3.9,1.9,7.5,3.7,10.8c2.2,4.1-0.1,9.2-4.7,10.1c-0.1,0-0.3,0-0.4,0.1C62.2,353.4,55,351.7,49,347.3z M95.3,359.4
	c4,1.3,6.9,5.1,6.7,9.3c-0.1,2.7,0,5.4,0.5,8.1c0.7,4,2,7.8,3.8,11.2c2.1,4-0.1,8.9-4.5,9.7c0,0-0.1,0-0.1,0
	c-7.2,1.2-14.4-0.5-20.3-4.9c-6-4.4-10-11-11.3-18.4c-0.2-1-0.3-2.1-0.4-3.1c-0.4-5.9,3.2-11.3,8.6-13.6c1.2-0.5,2.4-1.1,3.6-1.8
	c1.8-1,4.1-1,5.9,0C89.6,357.1,92.2,358.5,95.3,359.4z M143.6,354.3c3.5,0.9,5.8,4.1,5.8,7.7c0,2.2,0.1,4.5,0.5,6.8
	c0.9,5.3,2.9,10.2,5.7,14.4c2.1,3.2,1.6,7.4-1.3,9.8c-3.5,3-7.8,5-12.6,5.8c-14.8,2.5-29-7.9-31.6-23.3c-0.6-3.5-0.6-7.1,0.1-10.5
	c0.5-2.8,2.6-5,5.3-5.8c4.4-1.4,8.4-3.8,11.7-6.7c2.4-2.1,5.8-2.6,8.7-1.1C138.1,352.4,140.6,353.5,143.6,354.3z M149.4,440.6
	c-14.8,2.5-29-7.9-31.6-23.3c0-0.1,0-0.1,0-0.2c-1.1-6.7,5.1-12.4,11.7-10.9c1.8,0.4,3.6,0.7,5.5,0.9c2.7,0.2,5.5,0.1,8.3-0.4
	c4.9-0.8,9.3-2.7,13.2-5.2c5.8-3.9,13.9-0.5,15.1,6.5c0,0.1,0,0.1,0,0.2C174.1,423.4,164.2,438,149.4,440.6z M203.8,431.3
	c-6.3,1.1-12.6-0.2-17.8-3.3c-4.2-2.5-6.7-7.2-6.3-12.1c0.2-3,0.1-6.1-0.4-9.2c-0.2-1.1-0.4-2.2-0.7-3.2c-0.6-2.4,1.3-4.7,3.8-4.6h0
	c2.8,0.2,5.6,0.1,8.4-0.4c8.6-1.5,15.9-6,21-12.4c1.3-1.6,3.3-2.3,5.3-2h0c1.4,0.2,2.8,1,3.6,2.2c2.7,3.6,4.5,7.8,5.2,12.4
	C228.5,414.2,218.6,428.7,203.8,431.3z M226.9,376.4C226.9,376.4,226.8,376.4,226.9,376.4c-4.5,0.8-8.2-3.2-7.5-7.6
	c0.6-3.8,0.6-7.8-0.1-11.8c-0.4-2.1-0.9-4.2-1.6-6.1c-1.6-4.6,0-9.8,3.8-12.9c1.4-1.1,2.7-2.3,3.9-3.6c2.4-2.6,6-3.8,9.5-3.5
	c0.1,0,0.2,0,0.4,0c0.5,0,1,0.1,1.5,0.1c4.9,0.1,9.3,3.4,10.9,8c0.6,1.6,1,3.2,1.3,4.9C251.6,359.3,241.7,373.9,226.9,376.4z
	 M242.2,322.7C242.2,322.7,242.1,322.7,242.2,322.7c-4.5,0.8-8.2-3.2-7.5-7.6c0.6-3.8,0.6-7.8-0.1-11.8c-1.3-7.6-4.8-14.2-9.7-19.3
	c-4.9-5.2-3.1-13.7,3.6-16.1c1.3-0.5,2.7-0.8,4.2-1.1c2.1-0.4,4.3-0.5,6.4-0.3c5,0.4,9.7,2.1,13.9,5.2c6,4.4,10,11,11.3,18.4
	C266.9,305.6,257,320.2,242.2,322.7z"/>
</svg>
