<?xml version="1.0" encoding="utf-8"?>
<!-- Generator: Adobe Illustrator 20.1.0, SVG Export Plug-In . SVG Version: 6.00 Build 0)  -->
<svg version="1.1" id="Layer_1" xmlns="http://www.w3.org/2000/svg" xmlns:xlink="http://www.w3.org/1999/xlink" x="0px" y="0px"
	 viewBox="0 0 500 500" style="enable-background:new 0 0 500 500;" xml:space="preserve">
<style type="text/css">
	.st0{fill:#6A7947;}
	.st1{fill:#7C5668;}
	.st2{fill:#8CA242;}
	.st3{fill:#1E3A06;}
	.st4{fill:#5A8116;}
	.st5{fill:#537016;}
	.st6{fill:none;stroke:#1E3A06;stroke-linecap:round;stroke-miterlimit:10;}
	.st7{opacity:0.6;fill:none;stroke:#8CA242;stroke-linecap:round;stroke-miterlimit:10;}
	.st8{fill:#502C3B;}
	.st9{fill:#260C19;}
	.st10{fill:#8F738E;stroke:#502C3B;stroke-width:3;stroke-miterlimit:10;}
	.st11{fill:#759C48;}
	.st12{opacity:0.8;fill:none;stroke:#759C48;stroke-width:3;stroke-miterlimit:10;}
	.st13{opacity:0.6;fill:none;stroke:#759C48;stroke-width:3;stroke-miterlimit:10;}
	.st14{opacity:0.4;fill:none;stroke:#759C48;stroke-width:3;stroke-miterlimit:10;}
	.st15{opacity:0.2;fill:none;stroke:#759C48;stroke-width:3;stroke-miterlimit:10;}
	.st16{opacity:0.1;fill:none;stroke:#759C48;stroke-width:3;stroke-miterlimit:10;}
	.st17{opacity:0.3;fill:#502C3B;}
	.st18{fill:none;stroke:#260C19;stroke-width:3;stroke-linecap:round;stroke-linejoin:round;stroke-miterlimit:10;}
	.st19{fill:none;stroke:#502C3B;stroke-width:2;stroke-linecap:round;stroke-miterlimit:10;}
	.st20{fill:#547F2D;}
	.st21{fill:#456A11;}
	.st22{fill:#E4E9A8;stroke:#19430C;stroke-width:6;stroke-linejoin:round;stroke-miterlimit:10;}
	.st23{fill:none;stroke:#FFFFFF;stroke-linecap:round;stroke-miterlimit:10;}
	.st24{fill:#457F4A;}
	.st25{fill:#344B57;}
	.st26{fill:#75B15D;stroke:#344B57;stroke-width:3;stroke-miterlimit:10;}
	.st27{fill:#BCE680;}
	.st28{fill:#F0FDC5;}
	.st29{fill:#1B5900;}
	.st30{fill:#ADE77A;stroke:#1B5900;stroke-width:6;stroke-miterlimit:10;}
	.st31{fill:#709638;}
	.st32{fill:#D1A982;}
	.st33{fill:#ECE8DB;}
	.st34{fill:#5B3A03;}
	.st35{fill:#719E7F;stroke:#667F40;stroke-width:3;stroke-linecap:round;stroke-linejoin:round;stroke-miterlimit:10;}
	.st36{fill:#719E7F;stroke:#667F40;stroke-linecap:round;stroke-linejoin:round;stroke-miterlimit:10;}
	.st37{fill:none;stroke:#667F40;stroke-width:3;stroke-linecap:round;stroke-miterlimit:10;}
	.st38{fill:#4D6261;}
	.st39{fill:#ECE8DB;stroke:#5B3A03;stroke-width:3;stroke-miterlimit:10;}
	.st40{fill:none;stroke:#F0FDC5;stroke-linecap:round;stroke-linejoin:round;stroke-miterlimit:10;}
	.st41{fill:#8DC70C;}
	.st42{fill:#ECFE78;}
	.st43{fill:#73953B;}
	.st44{fill:#3D710C;}
	.st45{fill:#73953B;stroke:#3D710C;stroke-width:3;stroke-linejoin:round;stroke-miterlimit:10;}
	.st46{fill:#EFE8D7;stroke:#DABB95;stroke-width:3;stroke-linejoin:round;stroke-miterlimit:10;}
	.st47{opacity:0.6;fill:none;stroke:#BF71B0;stroke-width:3;stroke-miterlimit:10;}
	.st48{opacity:0.4;fill:none;stroke:#BF71B0;stroke-width:3;stroke-miterlimit:10;}
	.st49{opacity:0.3;fill:none;stroke:#BF71B0;stroke-width:3;stroke-miterlimit:10;}
	.st50{opacity:0.2;fill:none;stroke:#BF71B0;stroke-width:3;stroke-miterlimit:10;}
	.st51{opacity:0.1;fill:none;stroke:#BF71B0;stroke-width:3;stroke-miterlimit:10;}
	.st52{fill:#77A45B;}
	.st53{fill:none;stroke:#FFFFFF;stroke-linecap:round;stroke-linejoin:round;stroke-miterlimit:10;}
	.st54{fill:#00FFFF;}
	.st55{fill:#E50F4F;}
	.st56{fill:#5A8700;}
	.st57{fill:#9D9F01;}
	.st58{fill:none;stroke:#BFBF04;stroke-linecap:round;stroke-linejoin:round;stroke-miterlimit:10;}
	.st59{fill:none;stroke:#CAD058;stroke-linecap:round;stroke-linejoin:round;stroke-miterlimit:10;}
	.st60{fill:#E21039;stroke:#930019;stroke-width:3;stroke-linejoin:round;stroke-miterlimit:10;}
	.st61{fill:#77A45B;stroke:#3D710C;stroke-linecap:round;stroke-linejoin:round;stroke-miterlimit:10;}
	.st62{fill:none;stroke:#77A45B;stroke-width:3;stroke-miterlimit:10;}
	.st63{opacity:0.5;fill:none;stroke:#FFFFFF;stroke-width:3;stroke-linejoin:round;stroke-miterlimit:10;}
	.st64{opacity:0.7;fill:none;stroke:#FFFFFF;stroke-width:3;stroke-linejoin:round;stroke-miterlimit:10;}
	.st65{opacity:0.9;fill:none;stroke:#FFFFFF;stroke-width:3;stroke-linejoin:round;stroke-miterlimit:10;}
	.st66{opacity:0.3;fill:none;stroke:#FFFFFF;stroke-width:3;stroke-linejoin:round;stroke-miterlimit:10;}
	.st67{opacity:0.2;fill:none;stroke:#FFFFFF;stroke-width:3;stroke-linejoin:round;stroke-miterlimit:10;}
	.st68{fill:#E21039;}
	.st69{fill:#930019;}
	.st70{fill:#F4E5E8;}
	.st71{fill:#DEB2BA;}
	.st72{fill:#C8818D;}
	.st73{fill:#B14D5F;}
	.st74{fill:#FFFFFF;}
	.st75{fill:#EFE8D7;}
	.st76{fill:#8C7662;}
	.st77{fill:#E50F4F;stroke:#930019;stroke-width:3;stroke-linejoin:round;stroke-miterlimit:10;}
	.st78{fill:none;stroke:#E87C94;stroke-width:3;stroke-linejoin:round;stroke-miterlimit:10;}
	.st79{fill:none;stroke:#E64872;stroke-width:3;stroke-linejoin:round;stroke-miterlimit:10;}
	.st80{fill:none;stroke:#EBB2B6;stroke-width:3;stroke-linejoin:round;stroke-miterlimit:10;}
	.st81{fill:none;stroke:#930019;stroke-width:3;stroke-linejoin:round;stroke-miterlimit:10;}
	.st82{fill:#E87C94;}
	.st83{fill:#E64872;}
	.st84{fill:#EBB2B6;}
	.st85{opacity:0.7;fill:none;stroke:#E50F4F;stroke-width:3;stroke-linejoin:round;stroke-miterlimit:10;}
	.st86{opacity:0.6;fill:none;stroke:#E50F4F;stroke-width:3;stroke-linejoin:round;stroke-miterlimit:10;}
	.st87{opacity:0.4;fill:none;stroke:#E50F4F;stroke-width:3;stroke-linejoin:round;stroke-miterlimit:10;}
	.st88{opacity:0.3;fill:none;stroke:#E50F4F;stroke-width:3;stroke-linejoin:round;stroke-miterlimit:10;}
	.st89{opacity:0.2;fill:none;stroke:#E50F4F;stroke-width:3;stroke-linejoin:round;stroke-miterlimit:10;}
	.st90{opacity:0.1;fill:none;stroke:#E50F4F;stroke-width:3;stroke-linejoin:round;stroke-miterlimit:10;}
	.st91{fill:none;stroke:#DABB95;stroke-width:3;stroke-linejoin:round;stroke-miterlimit:10;}
	.st92{fill:#77A45B;stroke:#3D710C;stroke-width:0.9521;stroke-linecap:round;stroke-linejoin:round;stroke-miterlimit:10;}
	.st93{fill:#DABB95;}
	.st94{fill:#E76886;}
	.st95{fill:#E87D94;}
	.st96{fill:#E992A2;}
	.st97{fill:#EBA7AF;}
	.st98{fill:#ECBDBD;}
	.st99{fill:#EDD2CA;}
	.st100{opacity:0.6;fill:#BF71B0;}
	.st101{opacity:0.5;fill:#BF71B0;}
	.st102{opacity:0.4;fill:#BF71B0;}
	.st103{opacity:0.3;fill:#BF71B0;}
	.st104{opacity:0.2;fill:#BF71B0;}
	.st105{fill:#FCD24F;stroke:#BA8822;stroke-width:3;stroke-linejoin:round;stroke-miterlimit:10;}
	.st106{opacity:0.9;fill:none;stroke:#732429;stroke-width:3;stroke-miterlimit:10;}
	.st107{opacity:0.8;fill:none;stroke:#732429;stroke-width:3;stroke-miterlimit:10;}
	.st108{opacity:0.7;fill:none;stroke:#732429;stroke-width:3;stroke-miterlimit:10;}
	.st109{opacity:0.6;fill:none;stroke:#732429;stroke-width:3;stroke-miterlimit:10;}
	.st110{opacity:0.5;fill:none;stroke:#732429;stroke-width:3;stroke-miterlimit:10;}
	.st111{opacity:0.4;fill:none;stroke:#732429;stroke-width:3;stroke-miterlimit:10;}
	.st112{fill:none;stroke:#BA8822;stroke-width:3;stroke-linejoin:round;stroke-miterlimit:10;}
	.st113{fill:#FCD24F;}
	.st114{fill:#BA8822;}
	.st115{fill:#80352F;}
	.st116{fill:#8D4734;}
	.st117{fill:#9B5838;}
	.st118{fill:#A96A3D;}
	.st119{fill:#B77A42;}
	.st120{fill:#C48B47;}
	.st121{fill:#5B774B;}
	.st122{fill:none;stroke:#ECFE78;stroke-linecap:round;stroke-linejoin:round;stroke-miterlimit:10;}
	.st123{fill:none;stroke:#5B774B;stroke-miterlimit:10;}
	.st124{fill:none;stroke:#ECFE78;stroke-linecap:round;stroke-miterlimit:10;}
	.st125{fill:none;stroke:#5B774B;stroke-linejoin:round;stroke-miterlimit:10;}
	.st126{fill:none;stroke:#89A037;stroke-linecap:round;stroke-linejoin:round;stroke-miterlimit:10;}
	.st127{fill:none;stroke:#89A037;stroke-width:3;stroke-linecap:round;stroke-linejoin:round;stroke-miterlimit:10;}
	.st128{fill:none;stroke:#89A037;stroke-width:3.3343;stroke-linecap:round;stroke-linejoin:round;stroke-miterlimit:10;}
	.st129{fill:none;stroke:#89A037;stroke-width:3;stroke-linecap:round;stroke-miterlimit:10;}
	.st130{fill:#839958;}
	.st131{fill:#AA2F66;}
	.st132{fill:#D8CBC5;}
	.st133{fill:#662128;}
	.st134{fill:#A3CA44;stroke:#89A037;stroke-width:3;stroke-miterlimit:10;}
	.st135{fill:#ECE8DB;stroke:#5B3A03;stroke-miterlimit:10;}
	.st136{fill:none;stroke:#00FF00;stroke-miterlimit:10;}
	.st137{fill:none;stroke:#00FF00;stroke-width:1.0757;stroke-miterlimit:10;}
	.st138{clip-path:url(#SVGID_2_);}
	.st139{fill:none;stroke:#000000;stroke-miterlimit:10;}
	.st140{fill:none;stroke:#000000;stroke-width:1.16;stroke-miterlimit:10;}
	.st141{fill:#7AA66D;}
	.st142{fill:#8BC133;}
	.st143{fill:none;stroke:#000000;stroke-width:0.9135;stroke-miterlimit:10;}
	.st144{fill:none;stroke:#000000;stroke-width:5.9645;stroke-miterlimit:10;}
	.st145{fill:none;stroke:#000000;stroke-width:1.9086;stroke-linecap:round;stroke-linejoin:round;stroke-miterlimit:10;}
	.st146{fill:#275439;}
	.st147{fill:none;stroke:#4D6261;stroke-width:0.9577;stroke-linecap:round;stroke-linejoin:round;stroke-miterlimit:10;}
	.st148{fill:#7AA66D;stroke:#4D6261;stroke-width:0.9577;stroke-miterlimit:10;}
	.st149{fill:none;stroke:#4D6261;stroke-width:0.9577;stroke-miterlimit:10;}
	.st150{fill:#D2DE8F;stroke:#667F40;stroke-width:3;stroke-miterlimit:10;}
	.st151{fill:none;stroke:#FAFAEE;stroke-linecap:round;stroke-miterlimit:10;}
	.st152{fill:#D2DE8F;}
	.st153{fill:none;stroke:#667F40;stroke-width:3;stroke-miterlimit:10;}
	.st154{fill:#77A578;}
	.st155{fill:#719E7F;}
	.st156{fill:#FAFAEE;}
	.st157{fill:#174C17;}
	.st158{fill:#ECE8DB;stroke:#5B3A03;stroke-width:0.9644;stroke-miterlimit:10;}
	.st159{fill:#7AA66D;stroke:#4D6261;stroke-width:3.6;stroke-linecap:round;stroke-linejoin:round;stroke-miterlimit:10;}
	.st160{fill:none;stroke:#D2DE8F;stroke-miterlimit:10;}
	.st161{fill:none;stroke:#4D6261;stroke-width:3.6;stroke-linecap:round;stroke-linejoin:round;stroke-miterlimit:10;}
	.st162{fill:#ECE8DB;stroke:#5B3A03;stroke-linecap:round;stroke-linejoin:round;stroke-miterlimit:10;}
	.st163{fill:#FAD673;}
	.st164{fill:#CE731F;}
	.st165{fill:#D15CD4;}
	.st166{fill:#701975;}
	.st167{fill:#009245;stroke:#006837;stroke-width:3;stroke-miterlimit:10;}
	.st168{fill:#009245;stroke:#006837;stroke-width:3;stroke-linecap:round;stroke-linejoin:round;stroke-miterlimit:10;}
	.st169{fill:none;stroke:#B8CC69;stroke-width:3;stroke-miterlimit:10;}
	.st170{fill:#4E6624;stroke:#314217;stroke-width:3;stroke-miterlimit:10;}
	.st171{fill:none;stroke:#314217;stroke-miterlimit:10;}
	.st172{fill:#4E6624;}
	.st173{fill:#709638;stroke:#3B7000;stroke-width:3;stroke-linecap:round;stroke-linejoin:round;stroke-miterlimit:10;}
	.st174{fill:#709638;stroke:#3B7000;stroke-linecap:round;stroke-linejoin:round;stroke-miterlimit:10;}
	.st175{fill:#92C057;}
	.st176{fill:#3B7000;}
	.st177{fill:#325900;}
	.st178{fill:#2A784B;stroke:#1F4130;stroke-width:3;stroke-miterlimit:10;}
	.st179{fill:none;stroke:#1F4130;stroke-linecap:round;stroke-linejoin:round;stroke-miterlimit:10;}
	.st180{fill:#2A784B;stroke:#1F4130;stroke-miterlimit:10;}
	.st181{fill:#D7D8DA;stroke:#1F4130;stroke-linecap:round;stroke-linejoin:round;stroke-miterlimit:10;}
	.st182{fill:none;stroke:#1F4130;stroke-width:3;stroke-miterlimit:10;}
	.st183{fill:#2A784B;}
	.st184{fill:#1F4130;}
	.st185{fill:#D7D8DA;}
	.st186{fill:#499623;}
	.st187{fill:none;stroke:#499623;stroke-miterlimit:10;}
	.st188{fill:#4C9D29;stroke:#1B5900;stroke-miterlimit:10;}
	.st189{fill:none;stroke:#ADE77A;stroke-width:2;stroke-linecap:round;stroke-miterlimit:10;}
	.st190{fill:none;stroke:#ADE77A;stroke-linecap:round;stroke-miterlimit:10;}
	.st191{fill:#4C9D29;}
	.st192{fill:none;stroke:#FFFFFF;stroke-width:7.8254;stroke-linecap:round;stroke-miterlimit:10;}
	.st193{fill:#ADE77A;}
	.st194{fill:#4F7F51;stroke:#344B57;stroke-miterlimit:10;}
	.st195{fill:#649160;stroke:#344B57;stroke-miterlimit:10;}
	.st196{fill:#78A36F;stroke:#344B57;stroke-miterlimit:10;}
	.st197{fill:#3A6D40;}
	.st198{opacity:0.75;fill:#344B57;stroke:#8CB77C;stroke-width:4;stroke-miterlimit:10;}
	.st199{opacity:0.5;fill:#344B57;stroke:#8CB77C;stroke-width:4;stroke-miterlimit:10;}
	.st200{opacity:0.25;fill:#344B57;stroke:#8CB77C;stroke-width:4;stroke-miterlimit:10;}
	.st201{opacity:0.8;fill:none;stroke:#C5E2D6;stroke-linecap:round;stroke-miterlimit:10;}
	.st202{opacity:0.8;fill:none;stroke:#C5E2D6;stroke-miterlimit:10;}
	.st203{fill:#8CB77C;stroke:#344B57;stroke-miterlimit:10;}
	.st204{opacity:0.8;fill:#C5E2D6;}
	.st205{fill:#4F7F51;}
	.st206{fill:#649160;}
	.st207{fill:#78A36F;}
	.st208{fill:#8CB77C;}
	.st209{fill:#C0DECD;}
	.st210{fill:none;stroke:#C5E2D6;stroke-width:7.8769;stroke-linecap:round;stroke-miterlimit:10;}
	.st211{fill:#AFCEB8;}
	.st212{fill:#9FC1A8;}
	.st213{fill:#77A47F;}
	.st214{fill:none;stroke:#77A47F;stroke-width:0.9699;stroke-miterlimit:10;}
	.st215{fill:#BCE680;stroke:#839958;stroke-width:3;stroke-miterlimit:10;}
	.st216{fill:none;stroke:#839958;stroke-miterlimit:10;}
	.st217{fill:none;stroke:#F0FDC5;stroke-miterlimit:10;}
	.st218{fill:none;stroke:#F0FDC5;stroke-linecap:round;stroke-miterlimit:10;}
	.st219{fill:none;stroke:#F0FDC5;stroke-width:0.8753;stroke-miterlimit:10;}
	.st220{fill:#A3CA44;}
	.st221{fill:none;stroke:#859C52;stroke-linecap:round;stroke-miterlimit:10;}
	.st222{fill:none;stroke:#E4E9A8;stroke-width:2.5;stroke-linecap:round;stroke-miterlimit:10;}
	.st223{fill:none;stroke:#AFCEB8;stroke-width:3;stroke-linecap:square;stroke-miterlimit:10;}
	.st224{fill:none;stroke:#AFCEB8;stroke-width:3;stroke-miterlimit:10;}
	.st225{fill:none;stroke:#E4E9A8;stroke-linecap:round;stroke-miterlimit:10;}
	.st226{fill:#19430C;}
	.st227{fill:#E4E9A8;}
	.st228{fill:#859C52;}
	.st229{fill:#89A037;}
	.st230{fill:#009245;stroke:#006837;stroke-miterlimit:10;}
	.st231{fill:#547F2D;stroke:#27460A;stroke-miterlimit:10;}
	.st232{fill:#27460A;}
	.st233{fill:none;stroke:#9577B0;stroke-width:3;stroke-linecap:round;stroke-miterlimit:10;}
	.st234{fill:none;stroke:#9577B0;stroke-linecap:round;stroke-miterlimit:10;}
	.st235{fill:#AF77AF;}
	.st236{opacity:0.6;}
	.st237{fill:none;stroke:#AF77AF;stroke-width:2.4947;stroke-linecap:round;stroke-miterlimit:10;}
	.st238{fill:none;stroke:#AF77AF;stroke-width:2.1763;stroke-linecap:round;stroke-miterlimit:10;}
	.st239{fill:#9C8EBB;}
	.st240{fill:#8F738E;}
	.st241{fill:none;stroke:#260C19;stroke-linecap:round;stroke-linejoin:round;stroke-miterlimit:10;}
	.st242{fill:none;stroke:#5E3648;stroke-width:2;stroke-linecap:round;stroke-miterlimit:10;}
	.st243{fill:none;stroke:#502C3B;stroke-width:3;stroke-linecap:round;stroke-linejoin:round;stroke-miterlimit:10;}
	.st244{fill:none;stroke:#D0DDC8;stroke-linecap:round;stroke-miterlimit:10;}
	.st245{fill:none;stroke:#D0DDC8;stroke-miterlimit:10;}
	.st246{fill:#5E3648;}
	.st247{fill:#5F4348;}
	.st248{fill:#635149;}
	.st249{fill:#655E48;}
	.st250{fill:#686B49;}
	.st251{fill:#697149;}
	.st252{fill:#768454;}
	.st253{fill:#74914C;}
	.st254{fill:#777859;}
	.st255{fill:#796E5E;}
	.st256{fill:#796262;}
	.st257{fill:#7A5C65;}
	.st258{fill:#314217;}
	.st259{fill:#4E6624;stroke:#314217;stroke-miterlimit:10;}
	.st260{fill:none;stroke:#314217;stroke-linecap:round;stroke-linejoin:round;stroke-miterlimit:10;}
	.st261{fill:#4E6624;stroke:#314217;stroke-linecap:round;stroke-miterlimit:10;}
	.st262{fill:none;stroke:#314217;stroke-linecap:round;stroke-miterlimit:10;}
	.st263{fill:none;stroke:#8CA242;stroke-width:2;stroke-linecap:round;stroke-miterlimit:10;}
	.st264{fill:#538E00;}
	.st265{fill:#627F19;}
	.st266{fill:#71991C;}
	.st267{fill:#395415;}
	.st268{opacity:0.7;fill:#FFFFFF;}
	.st269{fill:#3D5D16;}
	.st270{fill:#66465F;}
	.st271{fill:#7F5773;}
	.st272{opacity:0.5;fill:#260C19;}
	.st273{opacity:0.2;fill:#FFFFFF;}
	.st274{fill:#723D5F;}
	.st275{fill:none;stroke:#1E3A06;stroke-width:8;stroke-miterlimit:10;}
	.st276{opacity:0.4;fill:#FFFFFF;}
	.st277{opacity:0.6;fill:#FFFFFF;}
	.st278{fill:#C7D2B8;}
	.st279{fill:none;stroke:#E4E9A8;stroke-width:19.3526;stroke-linecap:round;stroke-miterlimit:10;}
	.st280{fill:none;stroke:#E4E9A8;stroke-width:11.5;stroke-linecap:round;stroke-miterlimit:10;}
	.st281{display:none;}
	.st282{display:inline;fill:none;stroke:#314217;stroke-width:7.75;stroke-miterlimit:10;}
	.st283{opacity:0.4;}
	.st284{fill:none;stroke:#FFFFFF;stroke-width:8;stroke-linecap:round;stroke-miterlimit:10;}
	.st285{fill:#A6AE92;}
	.st286{fill:#ACBC96;}
	.st287{fill:#AF9AA4;}
</style>
<polygon class="st0" points="248.8,165 441.8,252.1 484.1,181.2 481.8,92.3 434,20.1 370.3,17.8 301.5,57.1 252.8,110.1 "/>
<polygon class="st1" points="47.2,269.9 250.9,180.1 236,112.4 170.4,51.9 83.6,38.4 28.9,84.7 12.2,159.3 "/>
<g>
	<polygon class="st247" points="387.1,318.1 256.6,259.9 256.6,286.6 362.7,333.9 	"/>
</g>
<g>
	<polygon class="st246" points="312,373.4 367.3,335.2 255.9,285.5 251.8,339.1 	"/>
</g>
<g>
	<path class="st248" d="M383.8,317.2l-129.4-57.8c3.4-7.7,5-15.9,4.9-24.5l146.1,65.2L383.8,317.2z"/>
</g>
<g>
	<path class="st249" d="M252.2,206.2c4.2,9.4,6.4,19.7,7.2,29.9l142.5,63.6c0.1-0.1,0.2-0.2,0.3-0.3c6.6-6.6,14.7-11.9,23.4-15.8
		L252.2,206.2z"/>
</g>
<g>
	<path class="st250" d="M250.9,180.1l2.1,27.6l178.7,79.8l9.9-22.3L250.9,180.1"/>
</g>
<g>
	<path class="st251" d="M244.6,152.2c3.9,9.4,6,19.6,6.7,29.7l190.8,85.2l9.9-22.3L244.6,152.2z"/>
</g>
<g>
	<path class="st9" d="M298.5,381.5C298.5,381.5,298.5,381.5,298.5,381.5C298.5,381.5,298.5,381.5,298.5,381.5z"/>
</g>
<g>
	<path class="st9" d="M290.3,358.5C290.3,358.5,290.3,358.5,290.3,358.5C290.3,358.5,290.3,358.5,290.3,358.5z"/>
</g>
<g>
	<path class="st9" d="M313.4,350.5L313.4,350.5C313.4,350.5,313.4,350.5,313.4,350.5z"/>
</g>
<g>
	<path class="st9" d="M379,339.2C379,339.2,379,339.2,379,339.2C379,339.2,379,339.2,379,339.2z"/>
</g>
<g>
	<path class="st9" d="M443.7,232.9C443.7,233,443.7,233,443.7,232.9C443.7,233,443.7,233,443.7,232.9z"/>
</g>
<g>
	<path class="st9" d="M481,212.7C481,212.7,481,212.7,481,212.7C481,212.7,481,212.7,481,212.7z"/>
</g>
<g>
	<path class="st9" d="M458.3,203.7C458.3,203.7,458.3,203.7,458.3,203.7C458.3,203.7,458.3,203.7,458.3,203.7z"/>
</g>
<g>
	<path class="st9" d="M495,150.3C495,150.3,495,150.3,495,150.3C495,150.3,495,150.3,495,150.3z"/>
</g>
<g>
	<path class="st9" d="M254.4,149.2C254.4,149.2,254.4,149.2,254.4,149.2C254.4,149.2,254.4,149.2,254.4,149.2z"/>
</g>
<g>
	<path class="st9" d="M260.6,142.4C260.6,142.4,260.6,142.4,260.6,142.4C260.6,142.4,260.6,142.4,260.6,142.4z"/>
</g>
<g>
	<path class="st9" d="M471.4,98.7C471.4,98.7,471.4,98.8,471.4,98.7C471.4,98.8,471.4,98.7,471.4,98.7z"/>
</g>
<g>
	<path class="st9" d="M464.1,75.6C464.1,75.6,464.1,75.6,464.1,75.6C464.1,75.6,464.1,75.6,464.1,75.6z"/>
</g>
<g>
	<path class="st9" d="M315.6,61.6C315.6,61.6,315.6,61.6,315.6,61.6C315.6,61.6,315.6,61.6,315.6,61.6z"/>
</g>
<g>
	<path class="st9" d="M327.3,50.2C327.3,50.2,327.3,50.2,327.3,50.2C327.3,50.2,327.3,50.2,327.3,50.2z"/>
</g>
<g>
	<path class="st9" d="M347.7,36.6C347.7,36.6,347.7,36.6,347.7,36.6C347.7,36.6,347.7,36.6,347.7,36.6z"/>
</g>
<g>
	<path class="st9" d="M458.4,25.6C458.4,25.6,458.4,25.6,458.4,25.6C458.4,25.6,458.4,25.6,458.4,25.6z"/>
</g>
<g>
	<path class="st9" d="M441.3,14.8C441.3,14.8,441.3,14.8,441.3,14.8C441.3,14.8,441.3,14.8,441.3,14.8z"/>
</g>
<g>
	<path class="st9" d="M346.5,14.1C346.5,14.1,346.5,14.1,346.5,14.1S346.5,14.1,346.5,14.1z"/>
</g>
<g>
	<path class="st252" d="M255.3,262.4l-151.9,70.2c2,1.8,4.1,3.6,6.2,5.3c4.9,4,9.7,8.1,14.4,12.3l131.9-60.8
		C256.4,280.4,255.4,271.5,255.3,262.4z"/>
</g>
<g>
	<polygon class="st253" points="246.5,371 256.5,288 138.6,342.4 194.3,377.2 	"/>
</g>
<g>
	<path class="st254" d="M93,323.3c3.9,3.5,7.7,7.1,11.7,10.5l153.1-70.2c-0.3-8.8-0.7-17.6-0.8-26.4L84.6,316
		C87.6,318.2,90.3,320.8,93,323.3z"/>
</g>
<g>
	<path class="st255" d="M89.8,315.7l168.3-77.3c0.2-8.7-0.3-17.1-3-25.5L71.4,297.4L89.8,315.7z"/>
</g>
<g>
	<path class="st256" d="M249.5,190.5L55.4,279.7l10.2,22.1l188.1-86.5C248.4,207.9,249.2,199.3,249.5,190.5z"/>
</g>
<g>
	<polygon class="st257" points="251.2,190.8 62.2,277.7 45.3,258.6 248.8,165 	"/>
</g>
<g>
	<path class="st9" d="M231.9,93.1c-0.2-0.2-0.3-0.4-0.5-0.5c-1.9-1.9-3.3-4.1-4.6-6.4c-0.8-1.5-1.8-3-3.1-4.4
		c-4-4.5-9.4-7.1-16.1-7.7c-0.1-0.1-0.2-0.2-0.4-0.3c-0.1-0.1-0.1-0.2-0.2-0.3c-0.7-1.1-1.8-2.7-3.3-4.5c-1.2-2.9-3.4-7.6-8.2-11.3
		c-3.7-2.9-7.3-4.2-9.5-5c-0.1,0-0.1-0.1-0.2-0.1c-1.1-0.6-2.1-1.2-3.1-1.6c-1.7-3.8-4.6-7.7-9.6-10.5c-5-2.8-9.9-3.2-12.7-3.4
		c-2.5-0.8-5.1-1.2-7.9-1.2c-0.1,0-0.3,0-0.4,0c-1.8-1.2-4-2.4-6.8-3.3c-2.4-0.8-4.9-1.2-7.5-1.2c-2.7-2.2-6.3-4.2-11.1-5
		c-1.2-0.2-2.5-0.3-3.8-0.3c-4.1,0-7.5,1.1-10.1,2.2c-1.1-0.2-2.2-0.4-3.5-0.5c-2.1-0.7-5.7-1.9-10.1-1.9c-0.9,0-1.9,0.1-2.8,0.2
		c-3.9,0.4-7.5,1.2-10.1,1.8c-0.3,0-0.9,0.1-1.4,0.2c-2.3,0.3-5.4,0.6-8.9,1.8c-4.9,1.6-8.2,4.5-10.5,6.9c-1.2,0.3-2.6,0.7-4.1,1.3
		c-3.3,0.3-8.8,1.1-14.1,5.1c-4.1,3.1-6.4,6.7-7.8,8.8c-0.1,0.1-0.1,0.2-0.2,0.3c-3,3.1-4.6,6.2-5.6,7.9l0,0c-1.8,2-3.8,4.3-5.8,7.1
		c-1.7,2.4-2.9,4.6-3.8,6.4c-2.4,1.8-5.8,4.8-8.2,9.5c-1.4,2.9-2.3,5.5-2.9,7.5c-0.2,0.6-0.4,1.4-0.6,1.7c-1.2,2.9-1.7,5.6-2,7.8
		c-1.9,2.3-4.1,5.6-5.3,10c-1,3.8-1.1,7.1-1.1,9.3c0,0.3,0,0.6,0,0.8c-0.6,3.5-0.4,6.6,0.1,9.1c-1.1,2.3-2.1,5.2-2.4,8.7
		c-0.2,2.5-0.3,4.8-0.4,6.9c0,0.8,0,1.6-0.1,2.4c-0.2,4.2,0.8,7.8,1.9,10.5c-0.5,2.2-0.9,4.8-0.8,7.8c0.1,2.7,0.7,5.1,1.3,7
		c-0.9,2.9-1.7,6.8-1.1,11.3c0.3,2.2,0.9,4.1,1.6,5.9c-1.2,3.5-1.9,7.7-0.8,12.6c0.2,0.8,0.3,1.6,0.5,2.4c0.4,2,0.9,4.3,1.6,6.6
		c1.5,5.7,4.8,9.4,8,12c0.3,1.3,0.6,2.8,1.2,4.3c1.4,3.8,3.4,6.7,4.6,8.4c0.1,0.3,0.4,0.7,0.5,0.9c0.5,1.1,1.1,2.1,1.7,3.1
		c-0.4,3.7-0.1,8.4,2.4,13.2c0.1,0.3,0.4,0.9,0.5,1.4c0.7,1.8,1.6,4.4,3.2,7.1c3.1,5.3,7.4,8.2,10.6,9.8c0.2,3.7,1.3,8.3,4.5,12.6
		c3.8,5.1,8.7,7.5,12.6,8.6c0.5,0.7,1.1,1.5,1.8,2.3c0.2,0.2,0.5,0.7,0.7,1.1c0,0,0.1,0.1,0.1,0.1c0.2,4.3,1.2,10.6,6.4,16
		c1.8,1.9,3.6,3.4,5.1,4.6c0.5,0.4,1.3,1.1,1.5,1.3c2.5,2.5,6.5,5.3,12.6,6.4c0.3,0.3,0.6,0.7,0.9,1c1.1,2.1,3.2,5.8,6.9,9.1
		c0.4,0.4,1.1,1,1.7,1.7c1.2,1.2,2.8,2.7,4.6,4.3c2,1.7,4.2,2.9,6.2,3.7c1.4,2.8,3.5,5.6,6.7,8c3.6,2.7,7.2,4,9.3,4.7l0.2,0.1
		c4,2.4,7.9,3.3,10.8,3.6c0.1,0.1,0.3,0.2,0.5,0.3c1.6,2.7,4.2,6.6,8.8,9.5c2.6,1.6,5.2,2.5,7.5,3.1c1.7,2.1,4,4.4,7.2,6.2
		c3.7,2.1,7.2,2.8,10,3.2c1.5,1.2,3.5,2.7,6.1,4c2.1,1,4.1,1.7,5.9,2.1c2.1,2.7,5.2,5.5,9.6,7.2c0.8,0.3,1.6,0.6,2.5,0.8
		c3.8,1,6.8,3.9,8,7.6c7.3,24.1,12.3,45,14.8,62.4c1.3,8.8,5.6,16.8,12.4,22.5c6.6,5.7,15.1,8.8,23.8,8.8c1.8,0,3.6-0.1,5.3-0.4
		c16.9-2.5,29.5-16.2,31.1-32.6c3-22.4,9.4-48.4,17.9-76.2c1-3.4,3.5-6.2,6.8-7.5l0.1,0c4.3-1.8,6.8-5.2,8.2-7.8
		c2.2-0.2,4.9-0.6,7.6-2c2.7-1.4,4.7-3.2,6.2-4.5c0.2-0.2,0.4-0.3,0.6-0.5c0,0,0,0,0.1,0c2.4-0.2,6.1-0.5,9.8-2.6
		c3.5-2,5.4-4.9,6.7-7.1c2.4-0.2,5.5-0.8,8.5-2.8c4.1-2.6,6-6.5,7.1-8.7l0,0c1.5-1,3-2,4.5-3.1l0,0c2.5-0.2,6.7-0.6,10.6-3.3
		c0.3-0.1,0.8-0.3,1.3-0.5c2-0.7,4.7-1.7,7.4-3.8c3.3-2.6,4.8-6,5.6-8.9c2.4-0.5,5.2-1.4,7.8-3.6c1.6-1.4,3-2.8,4.2-4
		c0.8-0.9,1.6-1.7,2.3-2.3c2.8-2.5,4.3-5.4,5.3-7.3c0.1-0.3,0.3-0.6,0.5-0.9c1.5-1.5,2.6-3.2,3.4-4.6c3.5,0,8.2-0.7,12-4.6
		c0.6-0.6,1.4-1.3,2.3-2c1.4-1.2,3-2.5,4.5-4.2c4.2-4.6,4.2-10.2,4.1-13.5c0.6-0.9,1.1-1.7,1.6-2.4c0.5-0.9,1-1.7,1.4-2.1
		c1.4-1.8,2.5-3.5,3.4-5c3.3-0.6,8.3-1.9,11.6-6.6c3.1-4.3,3.1-9.1,2.7-12.3c0.9-0.8,1.9-1.8,2.9-3.1c0,0,0,0,0.1,0
		c2.6-1.2,7-3.1,9.7-8c1.3-2.3,2.1-4.5,2.7-6.2c0.4-1,0.7-1.9,1-2.5c2.3-4.6,1.6-9.2,0.8-12.3c1.3-1.5,2.7-3.4,3.8-6
		c0.1-0.3,0.6-0.9,0.9-1.4c1.1-1.6,2.7-3.9,3.7-6.9c0.9-2.5,1.1-4.8,1.2-6.7c3-1.8,6.8-4.7,8.2-10.1c0.6-2.3,1-4.5,1.5-6.6
		c0.2-0.9,0.4-1.8,0.6-2.7c1-4.8-0.5-8.8-2.4-11.7c1.3-1.9,2.5-4.3,2.9-7.3c0.6-4.5-0.9-8.2-2-10.7c0.7-1.9,1.8-4.7,1.9-8.1
		c0.1-3.6-0.8-6.6-1.6-8.6c1.2-2.3,2.8-5.8,2.5-10.1c0-0.9-0.1-1.8-0.1-2.7c-0.1-2.2-0.2-4.4-0.4-6.7c-0.4-3.9-2.1-6.9-3.4-8.9
		c0.7-2.4,1.5-5.9,0.7-9.9c-0.1-0.3-0.1-1.3-0.1-2c-0.1-2-0.1-4.7-0.9-7.7c-1.2-4.4-4.1-7.3-5.8-9.1l0,0c-0.2-2.2-0.3-5.4-1.8-8.8
		c-0.3-0.7-0.6-1.6-0.9-2.6c-0.6-1.9-1.4-4.2-2.6-6.6c-2.1-4.1-5.5-6.4-7.6-7.8c-0.1-0.1-0.2-0.1-0.3-0.2c-0.2-0.4-0.4-0.8-0.6-1.3
		c-0.9-1.8-2-4-3.7-6.3c-1.9-2.6-3.9-4.8-5.8-6.9l-0.5-0.6c-0.2-0.2-0.6-0.9-0.9-1.4c-1.1-1.8-2.5-4.3-5-6.6
		c-0.2-0.3-0.6-0.8-0.8-1.2c-1.3-2-3.1-4.7-6.1-6.9c-4.1-3-8.6-3.3-11.2-3.5c-0.2,0-0.4,0-0.6,0c-2.8-1.3-5.4-1.7-7.2-2
		c-1.7-2.2-4.4-5.5-9.2-7c-2.9-0.9-5.5-1.2-7.6-1.4c-0.9-0.1-1.8-0.2-2.4-0.3c-3.4-0.7-6.5-1.3-10-1.7c-4.3-0.4-7.8,0.8-10,1.7
		c-0.3,0.1-0.6,0.2-0.8,0.3c-2.8,0.1-5.1,0.7-6.8,1.3c-2.6-1.5-6.9-3.6-12.2-2.6c-4.7,0.8-7.8,3.6-9.8,5.8c-2.3-0.3-5.3-0.4-8.6,0.8
		c-3.3,1.1-5.8,3-7.4,4.3c-2.4-0.2-6-0.5-9.9,1.1c-0.3,0-0.6,0-0.8,0.1c-2.5,0.2-6.2,0.4-10,2.6c-4.7,2.7-6.5,7.1-7.3,10.7
		c-2,0.4-4.2,1.2-6.4,2.7c-0.3,0.1-0.9,0.4-1.3,0.5c-2,0.8-4.8,1.8-7.5,4c-3.8,3-5.3,7-6.1,9.4c0,0.1-0.1,0.3-0.1,0.4
		c-1.7,1.8-2.9,3.6-3.7,5c-0.3,0.5-0.7,1.1-0.9,1.3l-1.2,1.2c-0.8,0.8-1.7,1.6-2.5,2.4c-3.7,0-9.7,0.3-14,5.3
		c-2.6,3-3.4,6.2-3.5,9.2c-2.9,0.8-6,2.4-8.3,5.6c-1.1,1.5-1.8,3-2.3,4.5c-1.1,3.2-2.8,6.2-5.1,8.7c-0.8,0.9-1.6,1.9-2.3,3
		c-0.5,0.8-1,1.6-1.5,2.4l0,0C247,99.1,237.7,99,231.9,93.1z M254.8,232.6c0,0.8-0.2,1.9-0.5,3.1c-0.4,1.5-0.8,3.2-0.7,5.1
		c0,1.1,0.1,2.1,0.1,3.2c0.1,1.7,0.1,3.3,0.1,4.9c0,0.6-0.4,1.7-0.8,2.7c-0.6,1.6-1.3,3.3-1.3,5.4c0,1.8,0.3,3.4,0.6,4.9
		c0.2,1.2,0.4,2.3,0.4,3.2c-0.1,2.2,0.7,4.2,1.3,5.7c0.3,0.9,0.8,2,0.7,2.5c-0.1,1.8,0.1,3.4,0.3,4.9c0.2,1.1,0.3,2.1,0.3,2.9
		c-0.3,0.4-1.1,1.1-1.6,1.5c-1.8,1.6-4,3.5-4.3,6.4c-0.3,2.7,1.1,5,2.2,6.8c0.4,0.6,0.9,1.5,1,1.9c-0.2,1.5-0.2,3-0.2,4.4
		c0,1.3,0,2.5-0.1,3.6c-0.1,0.9-0.6,1.9-1.1,3.1c-0.6,1.4-1.3,3-1.6,4.7c-0.1,0.7-0.7,1.7-1.3,2.6c-0.8,1.4-1.8,3-2.1,4.9
		c-0.5,2.6,0.5,5,1.3,6.9c0.3,0.6,0.7,1.6,0.7,2c-0.2,1-0.7,2-1.3,3.2c-0.6,1.4-1.3,2.8-1.7,4.3c-0.3,1.3-0.6,2.6-0.9,3.8
		c-0.3,1.3-0.5,2.5-0.8,3.7c-0.5,0.3-1.5,0.8-2.1,1.2c-2.2,1.1-4.9,2.4-5.8,5.2c-0.4,1.1-0.7,2.2-1,3.2c-0.5,1.5-0.9,2.9-1.4,4.2
		c-0.5,1.4-1.2,2.6-2,3.9c-0.5,0.9-1.1,1.9-1.6,2.9c-1.3,2.8-0.6,5.7,0,8.1c0.1,0.3,0.2,0.6,0.2,0.9c-0.5,0-1.2,0-1.7-0.1
		c-1.6-0.1-3.2-0.2-4.8,0.5c-1.3,0.6-2.3,1.6-3.1,2.5c-0.4,0.4-0.9,1-1.3,1.2c-0.3-0.3-0.7-0.7-0.9-1c-1.3-1.5-3.1-3.6-5.9-4.3
		c-1-0.3-2-0.3-2.9-0.3c-0.7,0-1.3,0-2,0.1c-1.2,0.1-2.3,0.1-3-0.1c-2.3-0.8-4.7-0.2-6.5,0.3c-0.6,0.2-1.5,0.4-2.1,0.5
		c-0.3-0.4-0.6-1.1-0.9-1.6c-1-2-2.3-4.5-4.9-5.6c-1.9-0.9-3.8-0.9-5.5-1c-1,0-2.2-0.1-2.7-0.3c-0.7-0.4-1.6-1.1-2.4-1.9
		c-1.1-1-2.5-2.2-4.1-3c-1.9-1-3.9-1.1-5.7-1.2c-0.9-0.1-2.1-0.1-2.5-0.4c-0.3-0.3-0.8-1.2-1.1-1.9c-0.9-1.7-2-3.9-4.2-5.2
		c-2-1.2-4.2-1.3-6-1.4c-0.8,0-2.1-0.1-2.4-0.3c-0.3-0.2-0.8-1.3-1.2-2c-0.9-1.7-1.9-3.7-4-5.1c-2.2-1.4-4.3-2.9-6.7-4.5
		c-2-1.4-4.3-1.5-6.2-1.7c-0.8-0.1-2-0.2-2.3-0.3c-1.5-1.1-3.2-1.7-4.7-2.2c-0.9-0.3-1.9-0.7-2.5-1c-0.2-0.5-0.3-1.5-0.4-2.1
		c-0.4-2.4-0.8-5.3-3.1-7.2c-2.1-1.6-4.7-1.7-6.7-1.8c-0.7,0-1.8-0.1-2.2-0.2c-0.9-0.8-1.8-1.7-2.8-2.6c-0.9-0.9-1.9-1.9-3-2.8
		c-0.5-0.4-1-1.4-1.5-2.3c-0.8-1.5-1.7-3.2-3.2-4.5c-0.4-0.4-0.9-1.4-1.4-2.3c-0.7-1.5-1.6-3.2-3.1-4.6c-2.2-2.1-5.4-2-8-1.8
		c-0.7,0-1.8,0.1-2.3,0c-0.9-0.9-1.9-1.7-2.8-2.4c-0.9-0.8-1.8-1.5-2.6-2.3c-0.1-0.5,0-1.5,0-2.2c0.1-2.4,0.2-5.4-1.8-7.6
		c-0.7-0.8-1.4-1.9-2.1-3c-0.8-1.2-1.5-2.4-2.5-3.6c-0.7-0.9-1.4-1.9-2.1-3.1c-0.7-1.2-1.5-2.4-2.4-3.5c-1.8-2.3-4.8-2.8-7.1-3.1
		c-0.5-0.1-1.2-0.2-1.7-0.3c0-0.5,0.1-1.2,0.2-1.7c0.3-2.3,0.7-5.1-1-7.5c-1-1.5-2.3-2.6-3.4-3.6c-0.9-0.8-1.7-1.5-2.1-2.2
		c-1.4-2.2-3.7-3.2-5.6-4c-0.7-0.3-1.6-0.7-2-1c-0.5-1-1-2.1-1.4-3.4c-0.4-1.2-0.9-2.4-1.5-3.6c0.1-0.5,0.4-1.5,0.6-2.1
		c0.7-2.2,1.5-4.9,0.3-7.6c-0.8-1.8-2.1-3.1-3.2-4.3c-0.8-0.8-1.5-1.6-1.7-2.2c-0.7-1.6-1.6-3-2.5-4.2c-0.7-1-1.4-1.9-1.7-2.8
		c-0.2-0.7-0.2-1.8-0.3-2.9c0-1.6,0-3.4-0.6-5.2c-0.9-2.9-3.6-4.3-5.8-5.5c-0.6-0.3-1.5-0.8-2-1.1c-0.4-1.6-0.8-3.2-1.1-4.8
		c-0.1-0.7-0.3-1.4-0.4-2.1c0.3-0.5,1-1.4,1.4-2c1.6-2.1,3.6-4.7,3-7.8c-0.5-2.6-2.2-4.3-3.6-5.8c-0.5-0.5-1.2-1.2-1.4-1.6
		c0.1-0.5,0.5-1.4,0.8-2.1c0.8-1.7,1.7-3.8,1.5-6.2c-0.2-1.9-0.8-3.6-1.4-5c-0.4-1.1-0.8-2.1-0.9-2.8c0-0.6,0.3-1.7,0.7-2.7
		c0.6-1.5,1.2-3.3,1.2-5.3c0-2.4-1.1-4.4-2-6c-0.4-0.7-0.9-1.7-1-2c0-0.9,0.1-1.8,0.1-2.7c0.1-1.9,0.1-3.6,0.3-5.3
		c0-0.5,0.7-1.5,1.2-2.3c0.9-1.4,2-3.2,2.3-5.3c0.3-2.3-0.3-4.4-0.9-6c-0.2-0.8-0.6-1.9-0.6-2.3c0.3-1.6,0.4-3.3,0.4-4.7
		c0-1.3,0-2.5,0.3-3.4c0.1-0.4,1.1-1.3,1.6-1.9c1.2-1.2,2.8-2.8,3.5-4.9c0.6-1.8,0.7-3.5,0.8-5c0.1-1.2,0.1-2.3,0.4-3
		c0.5-1.3,0.9-2.5,1.3-3.7c0.4-1.4,0.9-2.7,1.4-3.8c0.2-0.4,1.3-1.1,2-1.6c1.5-1,3.1-2.2,4.2-4c0.7-1.2,1.3-2.4,1.8-3.5
		c0.6-1.3,1.2-2.5,1.9-3.4c1.4-1.9,2.9-3.6,4.5-5.4l0.5-0.6c1.1-1.2,1.9-2.6,2.6-3.8c0.6-1.1,1.2-2.1,1.9-2.7c1.3-1.2,2.2-2.6,3-3.9
		c0.7-1,1.3-2.1,1.9-2.5c0.4-0.2,1.6-0.3,2.4-0.3c1.8-0.1,4-0.3,5.9-1.5c0.6-0.3,1.6-0.5,2.8-0.7c1.5-0.2,3.1-0.5,4.8-1.3
		c2.1-1,3.5-2.8,4.6-4.3c0.4-0.6,1.1-1.4,1.4-1.7c1.1-0.4,2.5-0.5,3.9-0.7c1.2-0.1,2.5-0.3,3.7-0.6c2.9-0.6,5.2-1.1,7.7-1.4
		c0.5-0.1,1.6,0.3,2.5,0.7c1.5,0.5,3.2,1.1,5.2,1.1c0,0,0.1,0,0.1,0c0.9,0,1.9,0.3,3.1,0.6c1.3,0.4,2.8,0.8,4.4,0.9
		c2.6,0.2,4.8-1.1,6.6-2.2c0.5-0.3,1.1-0.7,1.6-0.9c0.4,0.3,0.8,0.9,1.2,1.3c1.3,1.6,3,3.6,5.6,4.2c2.1,0.5,4.1,0.2,5.7-0.1
		c0.9-0.1,2-0.4,2.5-0.2c0.7,0.2,1.5,0.9,2.5,1.6c1.2,0.9,2.6,2,4.3,2.7c2.2,0.9,4.4,0.6,6.2,0.4c0.8-0.1,2-0.2,2.3-0.1
		c1.9,0.9,3.9,1,5.7,1.1c0.7,0,1.5,0.1,2.1,0.2c0.2,0.6,0.3,1.6,0.4,2.2c0.4,2.7,0.9,6.1,3.7,7.8c2,1.3,4.2,1.4,6,1.5
		c0.8,0,2,0.1,2.3,0.3c1.5,1.1,3.1,1.7,4.6,2.2c1.1,0.4,2.2,0.8,2.8,1.3c0.3,0.3,0.7,1.4,1,2.1c0.7,1.7,1.5,3.8,3.3,5.4
		c0.6,0.6,1.3,1.5,1.9,2.5c0.8,1.2,1.7,2.6,3,3.9l1.2,1.2c1.5,1.4,3,2.8,4.4,4.3c2.2,2.3,5.4,2.2,8,2.1c0.4,0,1,0,1.5,0
		c-0.1,0.5-0.1,1.1-0.2,1.5c-0.4,2.6-0.9,5.9,1.1,8.3c2,2.5,5.3,2.6,7.9,2.8c0.6,0,1.5,0.1,2.2,0.2c0.1,0.5,0.2,1.3,0.3,1.9
		c0.2,1.8,0.4,4.1,1.8,6.1c1.2,1.7,2.8,2.8,4.2,3.8c0.9,0.6,1.8,1.3,2.1,1.8c0.5,0.8,1,1.6,1.6,2.5c0.9,1.5,1.9,3,2.7,4.5
		c0.7,1.3,1.6,2.5,2.4,3.6c0.8,1.1,1.6,2.2,2.1,3.3l0.5,0.9c1,2,2,4,3,5.9c-0.1,0.5-0.5,1.5-0.8,2.1c-1,2.3-2.2,5.2-1,8
		c0.7,1.7,1.7,3.1,2.6,4.3c0.7,0.9,1.4,1.8,1.6,2.6c0.8,2.3,2.7,3.9,4.2,5.1c0.6,0.5,1.5,1.2,1.7,1.5c0.5,1.5,1.1,2.8,1.7,4
		c0.6,1.2,1.1,2.4,1.4,3.4c0,0.4-0.3,1.5-0.6,2.3c-0.6,1.8-1.3,4.1-0.8,6.5c0.3,1.2,0.4,2.5,0.6,3.9c0.1,1.3,0.3,2.6,0.6,4
		c0.2,1,0.4,1.9,0.6,2.9c0.4,1.7,0.7,3.3,1,4.9c0,0.4-0.4,1.5-0.7,2.2c-0.6,1.7-1.4,3.8-1.1,6.2c0.4,3,2.8,4.9,4.8,6.4
		c0.6,0.4,1.4,1.1,1.7,1.4c0.2,1.3,0.4,2.5,0.7,3.7c0.3,1.4,0.5,2.6,0.6,3.8c0.1,0.9-0.1,2.1-0.3,3.3
		C255,229.2,254.7,230.9,254.8,232.6z M261.3,141.7c1.1-1.5,2.6-3.6,3.7-6.4c2.1-5.4,0.5-10.3-0.8-13.4c0.5-1.1,1.1-2.1,1.6-3.2
		l0.5-1c0.3-0.6,1-1.5,1.6-2.5c0.9-1.3,2-2.8,3-4.6c0.8-1.4,1.7-2.9,2.7-4.4c0.4-0.6,0.8-1.3,1.2-1.9c0.2-0.1,0.4-0.3,0.6-0.5
		c1.7-1.2,4.4-3.1,6.4-6.2c1.3-1.9,2-3.9,2.4-5.7c3.3-0.6,7.2-1.9,10.1-5.6c2.1-2.6,2.9-5.5,3.1-8.1c2.5-0.6,5.2-1.8,7.5-4.2
		c1.4-1.5,2.9-2.9,4.4-4.4l1.3-1.3c2-2,3.4-4,4.3-5.6c0.3-0.4,0.6-1,0.8-1.2c2.9-2.6,4.2-5.8,5.1-8c1.3-0.5,3-1.1,4.7-2.1
		c0.1,0,0.1,0,0.2,0c2.4-0.2,6.3-0.5,10.1-2.9c4.2-2.7,5.9-6.8,6.7-10.1c1-0.2,2-0.4,3-0.8c0.1,0,0.1,0,0.2,0
		c2.4,0.3,6.4,0.7,10.5-1.1c2.7-1.1,4.7-2.7,6.2-3.9c2.2,0.3,5.2,0.7,8.7-0.2c3-0.8,5.3-2.3,7-3.9c2.1,0.9,4.8,1.5,7.8,1.3
		c2.6-0.2,4.8-0.9,6.3-1.4c0.4-0.1,1-0.3,1.3-0.4c3.4-0.1,6.2-1.1,8.1-1.7c0.1,0,0.3-0.1,0.4-0.2c1.9,0.3,3.9,0.7,6.3,1.1
		c1.8,0.4,3.4,0.5,4.8,0.7c0.3,0,0.6,0.1,0.9,0.1c1.5,1.9,3.8,4.6,7.5,6.3c2.8,1.2,5.4,1.6,7.2,1.9c0.3,0,0.6,0.1,0.9,0.1
		c2.9,1.5,5.8,1.9,7.9,2.1c1,1.5,2.2,3.3,4,5c0.2,0.3,0.5,0.9,0.8,1.3c0.9,1.5,2,3.4,3.7,5.4l0.6,0.6c1.6,1.8,3.1,3.5,4.4,5.2
		c0.3,0.4,0.8,1.5,1.3,2.4c0.6,1.3,1.4,2.8,2.4,4.4c2.1,3.4,5,5.3,6.9,6.6c0,0,0,0,0.1,0c0.2,0.5,0.4,1.1,0.6,1.7
		c0.4,1.2,0.9,2.6,1.4,4.1c0,0.3,0.1,0.8,0.1,1.2c0.1,1.9,0.3,4.6,1.3,7.4c1.3,3.8,3.7,6.3,5.4,8c0,0.2,0,0.4,0,0.6
		c0,1.3,0.1,2.9,0.3,4.7c0,0.1-0.1,0.2-0.1,0.3c-0.7,2.3-1.8,5.8-1.1,10c0.6,3.9,2.5,6.8,3.7,8.7c0.1,0.1,0.1,0.2,0.2,0.3
		c0.1,1.2,0.1,2.5,0.2,3.9c0,0.4,0,0.7,0,1.1c0,0,0,0,0,0c-1.1,2.1-3,5.6-3,10.2c0,3.6,1.1,6.5,1.8,8.4c0,0,0,0,0,0.1
		c0,0.1-0.1,0.2-0.1,0.2c-0.7,1.9-1.7,4.4-2,7.6c-0.3,3.1,0.4,5.8,1.2,8c-1.6,2-3.3,4.6-3.9,8.2c-1.1,6.1,2,10.8,4.2,13.6
		c0,0.2-0.1,0.4-0.1,0.5c-2.9,1.6-7.2,4.5-8.9,10c-1,3.1-0.9,5.9-0.9,8c0,0.2,0,0.5,0,0.7c-0.2,0.3-0.4,0.6-0.6,0.9
		c-0.9,1.3-2.1,3.1-3.1,5.4c-0.2,0.2-0.4,0.5-0.6,0.7c-1.3,1.5-3.3,3.7-4.7,6.8c-2.3,5.2-1,10.1-0.1,13.1c-0.2,0.6-0.4,1.2-0.7,1.8
		c-0.1,0.2-0.1,0.4-0.2,0.6c-2.5,1.1-6,3-8.5,6.8c-0.2,0.2-0.7,0.7-1,1c-1.4,1.2-3.2,2.9-4.9,5.4c-1.8,2.7-2.4,5.6-2.5,8.1
		c-2.5,0.9-5.2,2.4-7.3,5.1c-1.3,1.6-2.2,3.2-3,4.5c-0.6,1-1.1,1.9-1.6,2.4c-1.4,1.7-2.4,3.4-3.3,4.7c-0.5,0.9-1.1,1.8-1.5,2.2
		c-3.6,4.1-3.9,9.1-3.8,12.3c-0.3,0.2-0.6,0.5-0.8,0.7c-3.5-0.1-9.1,0-13.5,4.3c-2.6,2.5-4,5.4-4.8,7.2c-0.1,0.3-0.3,0.6-0.4,0.8
		c-2.2,2.3-3.5,4.7-4.4,6.4c-0.1,0.3-0.3,0.6-0.4,0.8c-1.1,1-2.1,2-3,2.9c-0.3,0.3-0.5,0.5-0.8,0.8c-2.9,0.2-7.2,0.6-11.1,3.7
		c-3.9,3.1-5.2,7.4-5.8,10.5c-1.1,0.4-2.3,1-3.6,1.7c-0.1,0-0.2,0-0.2,0c-2.5,0.2-6.6,0.6-10.4,3.3c-2.5,1.7-4.7,3.3-7,4.8
		c-3,2-4.8,4.6-5.9,6.7c-2.3,0.2-5.3,0.8-8.2,2.6c-3.3,2-5.2,4.8-6.5,7c-2.1,0.2-4.9,0.7-7.7,2.2c-2.6,1.4-4.5,3.1-5.9,4.4
		c-0.1,0.1-0.3,0.3-0.4,0.4c0,0-0.1,0-0.1,0c-2.2,0.1-5.5,0.2-8.9,1.8c-3.3,1.5-5.4,3.9-6.9,6.2c-2.1-0.3-4.5-0.3-7.1,0.5
		c-0.3,0-0.7,0-1,0c-1.8-0.1-4.6-0.2-7.7,0.6c-2.3,0.6-4.1,1.7-5.7,2.8c-0.3-0.2-0.7-0.4-1-0.5c-0.5-0.2-0.9-0.4-1.3-0.5
		c-0.1-1.9-0.6-3.9-1.6-5.9c-0.7-1.4-1.4-2.5-2-3.6c-0.7-1.2-1.3-2.2-1.7-3.1c-0.4-1.1-0.9-2.4-1.3-3.9c-0.4-1.2-0.8-2.4-1.2-3.7
		c-1.9-5.3-6.2-8-9.2-9.5c0-0.1,0-0.2-0.1-0.3c-0.3-1.4-0.6-2.9-1.1-4.5c-0.5-1.7-1.1-3.2-1.7-4.5c0.2-0.4,0.5-0.9,0.8-1.4
		c0.9-1.5,1.9-3.2,2.2-5.3c0.1-0.8,0.6-1.8,1-2.9c0.7-1.5,1.4-3.2,1.7-5.1c0.3-1.7,0.2-3.3,0.2-4.9c0-1.2,0-2.4,0.1-3.5
		c0.4-2.7-1-5-2.1-6.9c-0.3-0.5-0.7-1.2-0.9-1.6c0.4-0.4,1-0.9,1.4-1.3c1.8-1.6,4.1-3.6,4.4-6.6c0.2-1.8-0.1-3.6-0.3-5.1
		c-0.2-1.2-0.3-2.3-0.3-3.2c0.1-2.2-0.6-4.3-1.2-5.9c-0.4-0.9-0.8-2-0.7-2.5c0.1-1.9-0.3-3.6-0.5-5.1c-0.2-1.2-0.4-2.3-0.4-3.2
		c0-0.6,0.4-1.6,0.8-2.6c0.6-1.6,1.3-3.5,1.3-5.6c0-1.7-0.1-3.5-0.1-5.2c0-1-0.1-2.1-0.1-3.1c0-0.8,0.2-1.9,0.5-3
		c0.4-1.6,0.8-3.4,0.7-5.4c0-0.9,0.1-2,0.3-3.2c0.3-1.6,0.5-3.4,0.4-5.2c-0.1-1.7-0.5-3.3-0.8-4.8c-0.3-1.2-0.5-2.4-0.6-3.4
		c-0.3-3.1-2.8-5-4.8-6.6c-0.5-0.4-1.3-1-1.7-1.3c0.1-0.5,0.4-1.3,0.6-1.9c0.7-1.8,1.5-3.9,1.1-6.4c-0.3-1.8-0.7-3.6-1-5.3
		c-0.2-0.9-0.4-1.9-0.6-2.8c-0.2-1.1-0.3-2.2-0.5-3.4c-0.2-1.6-0.4-3.2-0.7-4.8c0-0.4,0.3-1.5,0.6-2.3c0.6-1.9,1.4-4.3,0.7-6.7
		c-0.5-1.7-1.2-3.3-1.9-4.8c-0.5-1-0.9-1.9-1.2-2.8c0-0.1,0-0.2,0.1-0.4c1-4.4-0.2-8.2-1-10.7c0.1-0.3,0.2-0.5,0.4-0.8
		c0.4-0.9,0.9-2,1.4-3.2c0,0,0,0,0,0c1.8-1.5,4.8-4,6.5-8L261.3,141.7z"/>
</g>
<circle class="st276" cx="119.3" cy="144.8" r="4"/>
<g class="st281">
	<path class="st282" d="M367.5,21.5c-4.8,55.6,12.1,96.9,12.1,96.9s22.2-3.3,55.1-25.5c0,0-3.3-34.4,8.7-56.3"/>
	<path class="st282" d="M274.9,165.1c-5-15.5-9-32.4-11-49.8"/>
	<path class="st282" d="M475.1,197C399,251.4,317.2,252,317.2,252"/>
	<path class="st282" d="M307.9,49.5c7.2,89,36.8,142.9,36.8,142.9s50.2-8.8,95.3-40.4c0,0,27,5.7,46,20.1"/>
	<path class="st282" d="M401,306.8c-58.4,24.6-117.5,25.7-117.5,25.7"/>
	<path class="st282" d="M284.4,332.1c0,0-16.3-20.1-27.1-47.1"/>
	<path class="st282" d="M246.2,160.7c0,0,22.1,9.4,46.3,1.8"/>
	<path class="st282" d="M320.4,328.4c0,0,5.7-16.5,26-26.6"/>
	<path class="st282" d="M368.1,70.9c0,0-29.4,4.1-53.5-14.5"/>
	<path class="st282" d="M434.7,93c0,0,23.9,6,43.4-2.8"/>
	<path class="st282" d="M449.4,130.2c0,0,19.2,1.5,36.8-7.7"/>
	<path class="st282" d="M396.8,236.6c0,0,6.2,30,25.8,44.9"/>
</g>
<path class="st0" d="M247.6,472.8c-0.5,0-1.1,0-1.5-0.1c-3.1-0.4-5.8-2-7.7-4.5s-2.7-5.5-2.3-8.6c5.8-44.1,25-104,56.9-178.1
	c-7.4-10.7-19.1-30.4-23.2-52.6c-0.8-4.3,2.1-8.5,6.4-9.3c0.5-0.1,1-0.1,1.4-0.1c3.9,0,7.2,2.8,7.9,6.6c2.6,14.6,9.6,28.5,15.1,37.8
	c3.7-8.4,7.5-16.8,11.4-25.2c3-6.5,6.1-13.2,9.4-20c-9.9-12.1-29.5-40.7-31.6-80c-0.1-2.1,0.6-4.2,2-5.8c1.4-1.6,3.4-2.5,5.6-2.6
	c0.1,0,0.3,0,0.5,0c4.2,0,7.7,3.3,7.9,7.6c1.6,29.1,14.9,52.4,23.5,64.6c8.6-17.6,17.6-35.6,26.8-53.5c-5.5-9-16.1-28.7-18.9-51.8
	c-0.3-2.1,0.3-4.2,1.7-5.9c1.3-1.7,3.2-2.7,5.3-3c0.3,0,0.6-0.1,0.9-0.1c4.1,0,7.5,3,7.9,7.1c1.7,14.4,7.2,27.7,11.8,36.8
	c9.2-17.5,17-31.8,22.1-41c0.9-1.6,2.4-2.9,4.1-3.5l0.2-0.1c0.8-0.3,1.7-0.5,2.7-0.5c1.2,0,2.5,0.3,3.6,0.9c2,1,3.3,2.8,3.9,4.9
	c0.5,1.9,0.3,3.8-0.6,5.5c-2.9,5.6-10.5,20.2-20.7,41c10-1.8,24.5-6.1,39.7-16.3c1.3-0.9,2.9-1.3,4.4-1.3c2.7,0,5.2,1.3,6.7,3.6
	c1.2,1.8,1.6,3.9,1.2,6c-0.4,2.1-1.6,3.9-3.4,5.1c-24,16-46.4,19.5-56.9,20.1c-8.6,17.8-17,35.6-24.9,53.1c16.4-1.7,42.3-7.1,67-23
	c1.3-0.8,2.8-1.3,4.3-1.3c2.7,0,5.2,1.4,6.7,3.7c1.2,1.8,1.6,3.9,1.1,6c-0.4,2.1-1.7,3.9-3.5,5c-33.3,21.5-67.8,25.6-83.3,26.3
	c-7.3,16.4-14.2,32.4-20.7,47.8c12.6-1.6,31.9-5.1,50.8-13.1c1-0.4,2-0.6,3.1-0.6c3.2,0,6.1,1.9,7.4,4.9c0.8,2,0.8,4.1,0,6.1
	c-0.8,2-2.3,3.5-4.3,4.4c-25.9,10.9-51.9,14.2-63.9,15.2c-29.4,72.6-47.1,130.4-52.6,172C258.3,468.5,253.4,472.8,247.6,472.8z"/>
<path class="st253" d="M247.5,473.6c-5.8,0-10.7-4.3-11.5-10c-5.2-36-20.5-85.6-45.7-147.6c-14-2.1-43.8-7.3-64.4-16.5
	c-4-1.8-5.8-6.6-4-10.6c1.3-2.9,4.2-4.7,7.3-4.7c1.1,0,2.2,0.2,3.3,0.7c14.9,6.7,36.1,11.2,50.6,13.8c-6.4-15.3-13.5-31.4-20.9-47.8
	c-15.2-1.2-49.7-5.9-86.3-25c-1.9-1-3.3-2.7-3.9-4.7c-0.6-2-0.4-4.2,0.5-6.1c1.4-2.6,4.1-4.3,7.1-4.3c1.3,0,2.6,0.3,3.7,0.9
	c27.9,14.6,54.6,20.2,71.2,22.3c-7.1-15.3-14.6-31-22.3-46.8c-13.1-2.2-41.5-8.6-64.1-25.5c-1.7-1.3-2.8-3.1-3.1-5.3
	c-0.3-2.1,0.2-4.2,1.5-5.9c1.5-2,3.9-3.2,6.4-3.2c1.7,0,3.4,0.6,4.8,1.6c14.5,10.9,32.7,16.9,45.5,20.1
	c-14.2-28.5-23.7-46.2-23.8-46.3l-0.1-0.2c-0.6-1.3-0.6-2.7-0.6-2.9l0-0.2c0-2.1,0.9-4.1,2.4-5.6c1.4-1.4,3.3-2.1,5.3-2.1l0.1,0
	c3.3,0.1,5.6,2,6.6,3.7l1,1.6l0,0l0.1,0.2c7.9,13.9,15.8,28.3,23.8,43.1c3.6-11.8,7.7-27.8,8.3-41c0.2-4.3,3.7-7.6,8-7.6
	c0.1,0,0.3,0,0.4,0c2.1,0.1,4.1,1,5.5,2.6c1.4,1.6,2.2,3.6,2.1,5.8c-1.1,22.4-10.3,49.7-13.9,59.8c7.5,14.4,14.9,28.8,22,42.9
	c5.7-14.8,13-38.5,15.9-67.3c0.4-4.1,3.8-7.2,7.9-7.2c0.3,0,0.5,0,0.8,0c4.4,0.4,7.6,4.4,7.1,8.8c-4.1,41.4-16.5,72-22.5,84.8
	c1.8,3.7,3.6,7.5,5.4,11.2c5.4,11.4,10.6,22.6,15.6,33.5c5.8-12.9,13.4-31.1,17-45.3c0.9-3.5,4.1-6,7.8-6c0.7,0,1.3,0.1,2,0.3
	c4.3,1.1,6.8,5.5,5.8,9.7c-5.4,20.9-18,48.4-23.9,60.8c27.5,63.6,44.3,115.5,49.9,154.3c0.4,3.1-0.3,6.2-2.2,8.7
	c-1.9,2.5-4.6,4.1-7.7,4.6C248.6,473.6,248,473.6,247.5,473.6z"/>
<path class="st258" d="M262.9,463.2C262.9,463.2,262.9,463.2,262.9,463.2c5.2-39.6,21.6-94.2,48.8-162.3c1.6-4,5.2-6.8,9.5-7.3
	c13.9-1.7,34.9-5.7,55.9-14.5c2.9-1.2,5.2-3.5,6.4-6.5c1.4-3.3,1.1-7.1-0.6-10.3c-1.9-3.5-5.5-5.7-9.5-6c-1.9-0.1-3.8,0.2-5.5,0.9
	c-13.2,5.6-26.6,8.9-37.6,11c-2.3,0.4-4.2-1.9-3.3-4.1c3.9-9.1,7.9-18.4,12.1-27.8c1.7-3.9,5.4-6.5,9.6-7c18.1-1.8,47.5-7.8,76-26.2
	c2.7-1.7,4.5-4.4,5.2-7.5c0.7-3.1,0.1-6.3-1.6-8.9c-2.2-3.4-5.9-5.4-10-5.4c-2.3,0-4.5,0.7-6.4,1.9c-18.5,12-37.7,17.8-52.9,20.6
	c-2.4,0.4-4.3-2-3.2-4.2c5.2-11.2,10.5-22.4,15.9-33.7c1.7-3.5,5-5.9,8.9-6.5c12.3-1.9,30.9-6.8,50.5-19.9c2.6-1.8,4.4-4.4,5-7.6
	c0.8-4.2-0.6-8.4-3.9-11.4c-0.9-0.8-2-1.5-3.1-1.9c-3.9-1.5-7.9-1.1-11.2,1.1c-8.3,5.6-16.5,9.3-23.7,11.8c-2.5,0.9-4.8-1.8-3.6-4.2
	c6.8-13.6,11.7-23.1,14-27.4c1.3-2.6,1.7-5.5,0.9-8.3c-0.8-3.2-3-5.8-5.8-7.3c-1.7-0.9-3.5-1.3-5.4-1.3c-1.4,0-2.7,0.2-4,0.7l-0.1,0
	c-2.7,1-4.8,2.8-6.2,5.3c-3.8,6.9-9.2,16.7-15.6,28.6c-1.2,2.3-4.5,2.1-5.4-0.4c-2.6-6.8-4.8-14.5-5.7-22.6
	c-0.7-6-5.8-10.5-11.8-10.5c-0.5,0-0.9,0-1.4,0.1c-3.2,0.4-6.1,2-8.1,4.6c-2,2.6-2.7,5.9-2.3,9.1c2.3,18.7,9.5,35.1,15.2,45.7
	c1.8,3.4,1.9,7.5,0.1,11c-6,11.7-11.9,23.5-17.6,35.1c-1.1,2.1-4.1,2.2-5.3,0.2c-7.3-12.7-15-30.9-16.2-52.3
	c-0.3-6.3-5.5-11.2-11.8-11.2c-0.2,0-0.5,0-0.7,0c-3.2,0.2-6.1,1.6-8.2,3.9c-2.1,2.4-3.2,5.4-3,8.6c1.8,33.9,16.3,60,26.9,74.9
	c2.5,3.4,2.8,8,1,11.8c-1.8,3.9-3.6,7.7-5.3,11.4c-1.9,4.2-3.8,8.4-5.7,12.5c-1,2.3-4.3,2.4-5.4,0.1c-3.4-7.3-6.5-15.6-8.1-24.2
	c-1-5.7-5.9-9.8-11.7-9.8c-0.7,0-1.4,0.1-2.1,0.2c-6.5,1.2-10.8,7.4-9.6,13.8c3.4,18.7,12,35.7,19.3,47.2c2,3.3,2.4,7.3,0.9,10.8
	c-15.7,37-28.1,70.3-37.2,99.9c-0.6,1.9-3.3,2-4,0c-7.5-22.7-17-47.7-28.6-75c-1.8-4.1-1.7-8.8,0.2-12.9c6.5-14.2,15.9-36,20.4-53.5
	c1.6-6.3-2.2-12.8-8.6-14.4c-0.9-0.2-1.9-0.4-2.9-0.4c-5.4,0-10.2,3.7-11.5,8.9c-2.5,9.9-7.1,22-11.6,32.7c-0.7,1.6-2.9,1.6-3.6,0.1
	c-3.3-7.1-6.7-14.4-10.2-21.7c-0.5-1-0.9-2-1.4-3c-2-4.1-2.1-8.8-0.4-13c6.5-15.7,15.7-43,19.2-77.9c0.6-6.5-4.1-12.3-10.6-13
	c-0.4,0-0.8-0.1-1.2-0.1c-6.1,0-11.2,4.6-11.8,10.7c-2.1,21.1-6.7,39.4-11.1,53.4c-0.5,1.7-2.8,1.8-3.6,0.3
	c-3.9-7.7-7.9-15.5-11.9-23.2c-2-3.8-2.4-8.3-1-12.3c4.3-13,10.4-34.2,11.4-52.5c0.2-3.2-0.7-6.5-2.8-8.9c-2.1-2.5-5.1-3.9-8.4-4.1
	c-0.2,0-0.4,0-0.6,0c-6.3,0-11.5,5-11.9,11.3c-0.4,8.1-2.2,17.6-4.4,26.2c-0.4,1.7-2.8,2-3.6,0.5c-5.4-9.9-10.8-19.6-16.1-29l0-0.1
	l-1.9-3.3c-1.6-2.6-5-5.5-9.9-5.6l-0.1,0l-0.1,0h0h-0.1c-4,0-7.8,2.1-9.9,5.7c-1,1.8-1.6,3.8-1.6,5.9l0,0.1l0,0l0,0
	c0,0.6,0,2.6,1,4.7l0.1,0.2l0.1,0.2c0.1,0.1,6.9,12.9,17.7,34.3c0.8,1.6-0.7,3.3-2.4,2.7c-10.1-3.4-21.4-8.4-31.1-15.5
	c-2-1.5-4.3-2.5-6.8-2.6c-4-0.2-7.8,1.5-10.1,4.7c-1.9,2.5-2.7,5.7-2.3,8.8c0.5,3.1,2.1,5.9,4.6,7.8c18.8,14.1,41.3,21.1,56.4,24.4
	c4.8,1.1,8.8,4.2,10.9,8.6c4.5,9.4,9,18.7,13.3,27.9c0.7,1.4-0.6,3-2.1,2.7c-15.9-2.9-37.2-8.7-59.1-20.2c-1.7-0.9-3.6-1.4-5.5-1.4
	c-4.4,0-8.5,2.4-10.5,6.4c-1.5,2.8-1.8,6-0.8,9.1c0.9,3,3,5.5,5.8,7c30.1,15.7,58.8,21.9,76.9,24.3c5.5,0.7,10.2,4.3,12.4,9.3
	c4.1,9.3,8.1,18.4,11.9,27.3c0.6,1.4-0.6,3-2.2,2.7c-12.9-2.6-27.8-6.4-39.1-11.5c-1.5-0.7-3.2-1-4.9-1c-4.7,0-8.9,2.7-10.8,7
	c-2.7,6,0,13,5.9,15.7c16.6,7.5,38.9,12.3,54.5,15.1c5.4,1,10,4.7,12.1,9.8c22.6,56.8,36.5,102.6,41.3,136.3
	c1.1,7.6,7.7,13.3,15.4,13.3C262,477.5,262.9,463.2,262.9,463.2z M247.5,469.7c-3.8,0-7.2-2.9-7.7-6.7
	C234,423,216.4,370.6,195.6,319c-1.6-4-5.2-6.9-9.5-7.6c-15-2.4-40.6-7.4-58.7-15.5c-2.5-1.1-3.3-4.3-1.4-6.5c0.5-0.6,1.1-1,1.8-1.2
	c1-0.3,2-0.2,2.9,0.2c14.4,6.5,34.4,10.9,49,13.6c4.1,0.7,7.4-3.4,5.8-7.3c-5.9-13.9-11.9-27.7-17.9-41c-1.8-4-5.6-6.8-10-7.2
	c-16.5-1.7-47.4-7.1-80.1-24.2c-2-1.1-2.8-3.5-1.7-5.6c0.7-1.4,2.1-2.2,3.7-2.2c0.7,0,1.3,0.2,1.9,0.5c27,14.1,53,20,69.9,22.4
	c4.2,0.6,7.3-3.7,5.5-7.5c-6.7-14.5-13.3-28.2-19.3-40.6c-1.7-3.5-5-6-8.8-6.7c-13.8-2.6-38.5-9.2-58.4-24.1
	c-0.9-0.7-1.5-1.6-1.6-2.7c-0.2-1.5,0.4-3,1.7-4c0.5-0.4,1.2-0.6,1.9-0.7c1.1-0.1,2.1,0.1,3,0.8c13.9,10.5,31,16.6,43.9,20
	c4.4,1.2,8.1-3.4,6.1-7.5c-12.8-25.6-21.6-42.1-22.5-43.7c-0.2-0.4-0.2-1-0.2-1.2l0-0.2c0-1.1,0.4-2.1,1.2-2.9c0.7-0.7,1.6-1,2.6-1
	c0,0,0,0,0,0c2.3,0.1,3.3,1.7,3.4,1.8l0,0l0.1,0.2c0.2,0.3,0.5,0.9,1,1.7c7.4,13,14.8,26.4,22.1,40c2.2,4.2,8.4,3.5,9.7-1
	c3.3-11.4,6.9-26.2,7.5-38.6c0.1-2.2,1.9-3.9,4.1-3.9c0.1,0,0.1,0,0.2,0c2.3,0.1,4,2.1,3.9,4.3c-1,19.8-8.6,44-12.5,55.4
	c-1.1,3.2-0.8,6.7,0.7,9.7c6.4,12.3,12.7,24.6,18.8,36.7c2.1,4.1,8.1,3.8,9.7-0.6c5.6-15.1,12.3-37.9,15-65.2c0.2-2.1,2-3.7,4.1-3.7
	c0.1,0,0.3,0,0.4,0c2.3,0.2,3.9,2.3,3.7,4.5c-3.8,37.8-14.6,66.6-20.6,80.1c-1.4,3.3-1.4,7.1,0.2,10.3c1.2,2.5,2.4,5.1,3.6,7.6
	c5,10.5,9.7,20.7,14.2,30.6c1.9,4.2,7.8,4.1,9.6,0c5.8-13.1,12.5-29.7,16-43c0.5-1.8,2.2-3.1,4-3.1c0.3,0,0.7,0,1,0.1
	c2.2,0.6,3.5,2.8,3,5c-4.8,18.8-15.7,43.2-22,56.6c-1.5,3.2-1.6,6.9-0.2,10.2c26.5,61.7,42.7,111.9,48.1,149.7
	C255.2,460.8,256.9,469.7,247.5,469.7z M428.2,130.8c-0.3,0.9-1,1.7-1.8,2.2c-20.4,13.6-39.5,17.8-50.8,19c-4,0.4-7.5,2.9-9.3,6.6
	c-7.3,15.1-15.3,32.2-23.7,50.5c-1,2.1,0.7,4.4,3,4.2c16-1.5,43.9-6.7,70.3-23.8c0.7-0.4,1.4-0.7,2.2-0.7c1.4,0,2.7,0.7,3.5,1.9
	c0.6,0.9,0.8,2,0.6,3.1c-0.2,1.1-0.9,2-1.8,2.6c-29.6,19.1-60.2,24.2-76.8,25.4c-4.3,0.3-8.1,3-9.9,6.9
	c-5.7,12.8-11.4,26.1-17.1,39.6c-1.9,4.5,1.9,9.4,6.7,8.7c12.8-1.9,30.3-5.5,47.5-12.8c0.9-0.4,1.9-0.4,3-0.1
	c0.7,0.2,1.3,0.6,1.8,1.2c1.1,1.4,1.3,3.2,0.5,4.7c-0.5,0.9-1.3,1.5-2.2,1.9c-22.4,9.4-44.8,13-58,14.4c-4.3,0.4-8,3.2-9.6,7.3
	c-18.9,46.9-35.8,95.2-45.2,136.5c-0.5,2.2-3.6,2.2-4.1,0c-1.2-5-2.5-10.1-4-15.4c-1.3-4.8-1.4-9.9,0-14.8
	c9.5-32.7,23.4-70.4,41.6-113.1c1.5-3.6,1.2-7.7-1-11c-6.8-10.5-16.7-28.2-20.3-47.7c-0.4-2.2,1.1-4.4,3.3-4.8
	c0.2,0,0.5-0.1,0.7-0.1c2,0,3.7,1.4,4.1,3.4c2.3,13,7.8,25.3,13.1,34.8c2.5,4.6,9.2,4.3,11.3-0.5c3.1-6.8,6.2-13.8,9.5-20.8
	c2.4-5.3,4.9-10.4,7.3-15.6c1.9-3.9,1.4-8.6-1.2-12.1c-9.7-12.8-26-39.2-27.9-74.2c-0.1-1.1,0.3-2.2,1-3c0.7-0.8,1.7-1.3,2.9-1.4
	c0.1,0,0.2,0,0.2,0c2.1,0,3.9,1.7,4.1,3.9c1.5,27.3,12.9,49.6,21.7,63c2.7,4.1,8.8,3.7,10.9-0.7c8-16.4,15.8-31.8,23-45.8
	c1.8-3.5,1.7-7.8-0.3-11.2c-5.4-9.5-13.8-26.8-16.2-46.6c-0.1-0.9,0-1.9,0.5-2.8c0.7-1.1,1.8-1.8,3.1-2c0.2,0,0.4,0,0.5,0
	c2.1,0,3.8,1.7,4.1,3.8c1.5,12.7,5.9,24.5,10,33.4c2.2,4.7,8.9,4.9,11.3,0.3c7.9-15,14.7-27.4,19.8-36.7c0.5-0.8,1.2-1.4,2.1-1.8
	l0.2-0.1c0.4-0.2,0.9-0.2,1.3-0.2c0.6,0,1.2,0.1,1.8,0.4c1,0.5,1.7,1.4,1.9,2.4v0c0,1.2-0.4,3-1,4.1c-3,5.8-9.4,18.1-17.8,35.3
	c-2.4,4.8,1.9,10.2,7.1,9c9.9-2.4,22.7-6.9,35.9-15.8c0.7-0.5,1.5-0.7,2.3-0.7c1.4,0,2.7,0.7,3.4,1.8
	C428.4,128.3,428.6,129.6,428.2,130.8z"/>
<g>
	<path class="st285" d="M342.7,281.7c-1.8,0-3.5-1.2-3.9-3.1c-0.5-2.2,0.8-4.3,3-4.8c10.4-2.4,20.3-5.6,29.2-9.4
		c2-0.9,4.4,0.1,5.2,2.1s-0.1,4.4-2.1,5.2c-9.4,4-19.6,7.2-30.5,9.8C343.3,281.7,343,281.7,342.7,281.7z"/>
</g>
<g>
	<path class="st285" d="M418.4,137.2c-1.4,0-2.7-0.7-3.5-2c-1.1-1.9-0.5-4.4,1.4-5.5c1.9-1.1,3.8-2.3,5.7-3.6
		c1.8-1.2,4.3-0.7,5.5,1.1c1.2,1.8,0.7,4.3-1.1,5.5c-2,1.3-4,2.6-6.1,3.8C419.8,137,419.1,137.2,418.4,137.2z"/>
</g>
<g>
	<g>
		<path class="st285" d="M285.1,333.3c-0.5,0-1-0.1-1.4-0.3c-2.1-0.8-3.1-3.1-2.3-5.2c5.4-14.3,11.5-29.5,18.1-45.3
			c0.8-2,3.2-3,5.2-2.2c2,0.8,3,3.2,2.2,5.2c-6.6,15.7-12.6,30.9-18,45C288.3,332.3,286.7,333.3,285.1,333.3z"/>
	</g>
	<g>
		<path class="st285" d="M359.1,166c-0.6,0-1.2-0.1-1.8-0.4c-2-1-2.8-3.4-1.8-5.4c4.1-8.3,8.3-16.6,12.4-24.9c1-2,3.4-2.8,5.4-1.8
			c2,1,2.8,3.4,1.8,5.4c-4.2,8.2-8.3,16.5-12.4,24.8C362,165.2,360.5,166,359.1,166z"/>
	</g>
	<g>
		<path class="st285" d="M386.9,111.3c-0.6,0-1.3-0.1-1.9-0.5c-2-1-2.7-3.4-1.7-5.4c1-1.8,1.9-3.7,2.9-5.5c1-2,3.5-2.7,5.4-1.7
			c2,1,2.7,3.5,1.7,5.4c-1,1.8-1.9,3.7-2.9,5.5C389.7,110.5,388.4,111.3,386.9,111.3z"/>
	</g>
</g>
<g>
	<g>
		<path class="st286" d="M232.5,402.2c-1.7,0-3.2-1-3.8-2.7c-11.8-34.4-24-64.8-38.8-99.8c-0.9-2,0.1-4.4,2.1-5.2
			c2-0.9,4.4,0.1,5.2,2.1c14.8,35.2,27.1,65.7,39,100.3c0.7,2.1-0.4,4.4-2.5,5.1C233.4,402.2,232.9,402.2,232.5,402.2z M187.1,286.9
			c-1.5,0-3-0.9-3.7-2.4c-0.6-1.3-1.1-2.6-1.7-3.8c-0.9-2,0-4.4,2.1-5.3c2-0.9,4.4,0,5.3,2.1c0.6,1.3,1.1,2.6,1.7,3.8
			c0.9,2,0,4.4-2.1,5.3C188.2,286.7,187.6,286.9,187.1,286.9z M177.5,263.5c-1.5,0-3-0.9-3.6-2.3c-2.2-4.9-4.7-9.7-7.1-14.4
			c-1.9-3.7-3.9-7.6-5.7-11.5c-0.9-2-0.1-4.4,1.9-5.3c2-0.9,4.4-0.1,5.3,1.9c1.8,3.8,3.8,7.6,5.6,11.3c2.4,4.7,4.9,9.6,7.2,14.7
			c0.9,2,0,4.4-2,5.3C178.6,263.4,178,263.5,177.5,263.5z"/>
	</g>
</g>
<g>
	<path class="st286" d="M222.2,257.7c-0.4,0-0.8-0.1-1.3-0.2c-2.1-0.7-3.2-3-2.5-5c1.2-3.7,2.2-7.1,3-10.2c0.5-2.1,2.7-3.4,4.9-2.9
		c2.1,0.5,3.4,2.7,2.9,4.9c-0.8,3.3-1.9,6.9-3.2,10.7C225.4,256.7,223.9,257.7,222.2,257.7z"/>
</g>
<g>
	<path class="st286" d="M154,126.9c-0.1,0-0.2,0-0.3,0c-2.2-0.2-3.8-2.1-3.6-4.3c0.1-1.1,0.2-2.1,0.2-3.2c0.1-2.2,2-3.9,4.2-3.8
		c2.2,0.1,3.9,2,3.8,4.2c-0.1,1.1-0.1,2.3-0.2,3.4C157.8,125.3,156,126.9,154,126.9z"/>
</g>
<g>
	<path class="st286" d="M89.7,169.4c-0.6,0-1.2-0.1-1.8-0.4c-6.5-3.2-12.4-6.8-17.6-10.7c-1.8-1.3-2.1-3.8-0.8-5.6
		c1.3-1.8,3.8-2.1,5.6-0.8c4.8,3.6,10.3,6.9,16.3,9.9c2,1,2.8,3.4,1.8,5.4C92.6,168.6,91.1,169.4,89.7,169.4z"/>
</g>
<g>
	<path class="st286" d="M189.8,188c-0.3,0-0.5,0-0.8-0.1c-2.2-0.4-3.6-2.6-3.1-4.7c1.9-9.1,3.3-18.3,4.2-27.4
		c0.2-2.2,2.2-3.8,4.4-3.6c2.2,0.2,3.8,2.2,3.6,4.4c-0.9,9.4-2.4,18.9-4.3,28.2C193.4,186.7,191.7,188,189.8,188z"/>
</g>
<g>
	<path class="st287" d="M51.5,129.8c-0.7,0-1.4-0.2-2-0.6c-1.8-1.1-2.4-3.5-1.3-5.3c1.4-2.2,1.9-4.8,1.6-7.7
		c-0.7-6.3,2.6-11.6,8.4-13.9c2.7-1,4.7-2.7,6.1-4.9c1.4-2.2,1.9-4.8,1.6-7.7c-0.7-6.3,2.6-11.6,8.4-13.9c1.8-0.7,3.3-1.7,4.5-3
		c1.5-1.5,3.9-1.6,5.5-0.1c1.5,1.5,1.6,3.9,0.1,5.5c-2,2.1-4.5,3.7-7.3,4.8c-2.6,1-3.9,3.1-3.6,5.9c0.5,4.5-0.4,8.8-2.7,12.5
		c-2.2,3.7-5.6,6.5-9.9,8.1c-2.6,1-3.9,3.1-3.6,5.9c0.5,4.5-0.4,8.9-2.7,12.5C54.1,129.1,52.8,129.8,51.5,129.8z"/>
</g>
<circle class="st285" cx="369.7" cy="85.1" r="3.9"/>
<g>
	<path class="st285" d="M330.2,165.6c-0.6,0-1.2-0.1-1.8-0.4c-1.9-1-2.7-3.3-1.7-5.2l6-11.9c1-1.9,3.3-2.7,5.2-1.7
		c1.9,1,2.7,3.3,1.7,5.2l-6,11.9C333,164.8,331.6,165.6,330.2,165.6z"/>
</g>
</svg>
