<?xml version="1.0" encoding="utf-8"?>
<!-- Generator: Adobe Illustrator 20.0.0, SVG Export Plug-In . SVG Version: 6.00 Build 0)  -->
<svg version="1.1" id="Layer_1" xmlns="http://www.w3.org/2000/svg" xmlns:xlink="http://www.w3.org/1999/xlink" x="0px" y="0px"
	 viewBox="0 0 269.4 269.4" style="enable-background:new 0 0 269.4 269.4;" xml:space="preserve">
<style type="text/css">
	.st0{fill:#7DB34C;}
	.st1{fill:#44712A;}
	.st2{fill:none;stroke:#FFFFFF;stroke-linecap:round;stroke-miterlimit:10;}
	.st3{fill:#4D831C;}
	.st4{fill:#2A481D;}
	.st5{fill:#4D831C;stroke:#184C28;stroke-width:3;stroke-linecap:round;stroke-linejoin:round;stroke-miterlimit:10;}
	.st6{display:none;}
	.st7{display:inline;fill:#D1A982;}
	.st8{display:inline;}
	.st9{fill:#AFD048;stroke:#6B9311;stroke-width:3;stroke-miterlimit:10;}
	.st10{fill:none;stroke:#6B9311;stroke-miterlimit:10;}
	.st11{fill:#AFD048;}
	.st12{fill:#F40000;stroke:#BA0D0D;stroke-width:3;stroke-miterlimit:10;}
	.st13{fill:none;stroke:#FFFFFF;stroke-linecap:round;stroke-linejoin:round;stroke-miterlimit:10;}
	.st14{fill:#CDA347;stroke:#A2690C;stroke-width:3;stroke-miterlimit:10;}
	.st15{fill:#A2CC62;}
	.st16{fill:#68664C;stroke:#522B25;stroke-width:3;stroke-linecap:round;stroke-linejoin:round;stroke-miterlimit:10;}
	.st17{fill:#B63E34;stroke:#522B25;stroke-width:3;stroke-miterlimit:10;}
	.st18{fill:#ADD481;}
	.st19{fill:#68664C;}
	.st20{fill:#593156;stroke:#331E31;stroke-width:3;stroke-miterlimit:10;}
	.st21{fill:#22B573;stroke:#184C28;stroke-width:3;stroke-linecap:round;stroke-linejoin:round;stroke-miterlimit:10;}
	.st22{fill:#EE0000;}
	.st23{fill:#9A0601;}
	.st24{fill:#EE0000;stroke:#9A0601;stroke-linecap:round;stroke-linejoin:round;stroke-miterlimit:10;}
	.st25{fill:#FFFFFF;}
	.st26{clip-path:url(#SVGID_2_);}
	.st27{fill:#00FFFF;}
	.st28{fill:#456A0A;}
	.st29{fill:#183300;}
	.st30{fill:#FF2214;}
	.st31{fill:#661900;}
	.st32{fill:#88A501;}
	.st33{fill:#3B6700;}
	.st34{fill:#FC4100;}
	.st35{fill:#9F0500;}
	.st36{fill:none;stroke:#6B9311;stroke-width:3;stroke-linecap:round;stroke-miterlimit:10;}
	.st37{fill:#6B9311;}
	.st38{fill:#593156;}
	.st39{fill:#331E31;}
	.st40{fill:#AFD048;stroke:#6B9311;stroke-width:3;stroke-linecap:round;stroke-linejoin:round;stroke-miterlimit:10;}
	.st41{fill:none;stroke:#6B9311;stroke-linejoin:round;stroke-miterlimit:10;}
	.st42{fill:#B63E34;stroke:#522B25;stroke-miterlimit:10;}
	.st43{fill:none;stroke:#522B25;stroke-miterlimit:10;}
	.st44{fill:none;stroke:#522B25;stroke-width:3;stroke-miterlimit:10;}
	.st45{fill:#B63E34;}
	.st46{fill:#522B25;}
	.st47{fill:none;stroke:#40760E;stroke-width:3;stroke-linecap:round;stroke-linejoin:round;stroke-miterlimit:10;}
	.st48{fill:none;stroke:#40760E;stroke-linecap:round;stroke-linejoin:round;stroke-miterlimit:10;}
	.st49{fill:#A2CC62;stroke:#40760E;stroke-width:3;stroke-linecap:round;stroke-linejoin:round;stroke-miterlimit:10;}
	.st50{fill:#A2CC62;stroke:#40760E;stroke-linecap:round;stroke-linejoin:round;stroke-miterlimit:10;}
	.st51{fill:#9EC161;}
	.st52{fill:#40760E;}
	.st53{fill:#AFD048;stroke:#6B9311;stroke-width:3;stroke-linejoin:round;stroke-miterlimit:10;}
	.st54{fill:#663965;}
	.st55{fill:#9D610B;}
	.st56{fill:none;stroke:#A2690C;stroke-linecap:round;stroke-miterlimit:10;}
	.st57{fill:#6D4E2B;}
	.st58{fill:#CDA347;}
	.st59{fill:#7F500A;}
	.st60{fill:#F40000;stroke:#BA0D0D;stroke-miterlimit:10;}
	.st61{fill:#F40000;stroke:#B63E34;stroke-width:3;stroke-miterlimit:10;}
	.st62{fill:#F40000;stroke:#B63E34;stroke-miterlimit:10;}
	.st63{fill:#F40000;stroke:#990D0D;stroke-width:3;stroke-miterlimit:10;}
	.st64{fill:#F40000;stroke:#990D0D;stroke-miterlimit:10;}
	.st65{fill:#F40000;}
	.st66{fill:#990D0D;}
	.st67{fill:#FF9D00;}
	.st68{fill:#E6681E;}
	.st69{fill:#FFCB00;}
	.st70{fill:#B58B06;}
	.st71{fill:#3A4C09;}
	.st72{fill:#B94850;stroke:#6C0A04;stroke-width:3;stroke-miterlimit:10;}
	.st73{fill:#CE8645;stroke:#CE8645;stroke-width:0.5;stroke-miterlimit:10;}
	.st74{fill:#6C0A04;stroke:#6C0A04;stroke-width:0.5;stroke-miterlimit:10;}
	.st75{fill:none;stroke:#6C0A04;stroke-linecap:round;stroke-miterlimit:10;}
	.st76{fill:#B94850;}
	.st77{fill:#CE8645;}
	.st78{fill:#6C0A04;}
	.st79{fill:#8C4F6F;}
	.st80{fill:#E7C456;}
	.st81{fill:#391A26;}
	.st82{fill:#E7C456;stroke:#AC5E17;stroke-width:3;stroke-miterlimit:10;}
	.st83{fill:#4F250E;stroke:#4F250E;stroke-width:0.5;stroke-miterlimit:10;}
	.st84{fill:none;stroke:#AC5E17;stroke-linecap:round;stroke-miterlimit:10;}
	.st85{fill:#4F250E;}
	.st86{fill:#995116;}
	.st87{fill:#FD801E;stroke:#9E0E00;stroke-width:3;stroke-miterlimit:10;}
	.st88{fill:#FD801E;stroke:#9E0E00;stroke-linecap:round;stroke-miterlimit:10;}
	.st89{opacity:0.8;fill:#FFBC42;}
	.st90{opacity:0.8;fill:#D03400;}
	.st91{fill:none;stroke:#9E0E00;stroke-linecap:round;stroke-miterlimit:10;}
	.st92{fill:#FFBC42;}
	.st93{fill:none;stroke:#9E0E00;stroke-width:3;stroke-miterlimit:10;}
	.st94{fill:#344C00;}
	.st95{fill:#FD801E;}
	.st96{fill:#9E0E00;}
	.st97{fill:#FDAF48;}
	.st98{fill:#D74E1E;}
	.st99{opacity:0.8;fill:#68664C;}
	.st100{fill:#775E49;}
	.st101{fill:#FF7A00;}
	.st102{fill:#FF7A00;stroke:#F44500;stroke-width:3;stroke-miterlimit:10;}
	.st103{fill:none;stroke:#F44500;stroke-linecap:round;stroke-linejoin:round;stroke-miterlimit:10;}
	.st104{fill:#FF7A00;stroke:#F44500;stroke-linecap:round;stroke-linejoin:round;stroke-miterlimit:10;}
	.st105{fill:#F44500;}
	.st106{fill:#F6E600;}
	.st107{fill:#8DCC50;}
	.st108{fill:#A2A121;}
	.st109{fill:#F9EFA7;}
	.st110{fill:#6E905E;}
	.st111{fill:#F22F2E;}
	.st112{fill:#7B000E;}
	.st113{fill:#F22F2E;stroke:#7B000E;stroke-width:3;stroke-miterlimit:10;}
	.st114{fill:#7DB34C;stroke:#44712A;stroke-width:3;stroke-miterlimit:10;}
	.st115{fill:none;stroke:#44712A;stroke-miterlimit:10;}
</style>
<g class="st6">
	<rect x="-757.6" y="-2027.8" class="st7" width="919.6" height="2155.1"/>
	<path class="st8" d="M161.6-2027.3V126.8h-918.6v-2154.1H161.6 M162.6-2028.3h-920.6V127.8h920.6V-2028.3L162.6-2028.3z"/>
</g>
<g>
	<path class="st111" d="M151.6,42.7c-15.7,0-30.1,7.1-39.6,19.5C72.3,114,44.7,165.8,22.5,207.4l-3.8,7C13,225.2,13,237,18.8,246.7
		c5.7,9.5,16,15.4,27,15.4c8.3,0,16.1-3.3,22.7-9.5l3.8-3.6c35.2-33,79-74,118.8-126.1c9.9-12.9,12.8-29.8,8-45.3L151.6,42.7z"/>
	<path class="st112" d="M151.6,49.1c-13.1,0-26.1,5.9-34.6,17.1c-41.6,54.4-70.6,110-92.7,151.3c-10.6,19.8,4.2,38.4,21.5,38.4
		c6.1,0,12.6-2.3,18.4-7.8c34.9-32.7,80.9-75.3,121.9-128.9c9-11.7,11.1-26.5,6.9-39.6l12.1-3.8c5.5,17.5,2.1,36.6-9,51.1
		C156,179.3,112,220.5,76.7,253.7l-3.8,3.5c-7.8,7.3-17.2,11.2-27.1,11.2c-13.2,0-25.6-7.1-32.4-18.5c-7-11.7-7.1-25.7-0.2-38.5
		l3.8-7c21.1-39.6,50.1-93.9,90-146c10.7-14,27-22,44.7-22V49.1z"/>
	<g>
		<path class="st25" d="M85.2,172.8c-0.4,0-0.7-0.1-1-0.3c-1-0.6-1.4-1.9-0.8-2.9c2.2-3.8,4.4-7.6,6.7-11.4c0.6-1,1.9-1.3,2.9-0.7
			c1,0.6,1.3,1.9,0.7,2.9c-2.2,3.8-4.5,7.6-6.6,11.4C86.6,172.5,85.9,172.8,85.2,172.8z"/>
	</g>
	<path class="st25" d="M108.2,134.8c-0.4,0-0.8-0.1-1.1-0.3c-1-0.6-1.3-1.9-0.6-2.9c4-6.3,8-12.4,11.9-18.1c0.7-1,2-1.2,2.9-0.6
		c1,0.7,1.2,2,0.6,2.9c-3.9,5.7-7.9,11.8-11.9,18C109.5,134.4,108.9,134.8,108.2,134.8z"/>
	<path class="st110" d="M166.2,70.3c0,0,18.9,13.8,33.6,9.4l-6.1-19.4l11.3-20.1l21.7-12.9l19.5,4.7l9.8-14.2L231.5,5.8L207,13.7
		l-31.2,29.4l-24.2-0.3C151.6,42.7,150,57.3,166.2,70.3z"/>
	<path class="st25" d="M68.7,173.5c-0.4,0-0.7-0.1-1-0.3c-1-0.6-1.4-1.9-0.8-2.9c18.7-33,35.4-59.3,52.6-82.9c0.7-0.9,2-1.1,2.9-0.5
		c0.9,0.7,1.1,2,0.5,2.9c-17.1,23.4-33.7,49.6-52.3,82.5C70.1,173.1,69.4,173.5,68.7,173.5z"/>
	<path class="st1" d="M149.8,50.3c2.1,7.4,8.4,15.7,17.1,22.3c8.6,6.6,18.4,10.6,26,10.7c8.2,0.2,13.8-1.1,13.8-1.1
		c-0.4-2-0.8-4-1.4-5.9l-0.4-1.1c-0.3-1-0.7-2-1.1-3c-0.2-0.5-0.3-0.9-0.5-1.4c-0.6-1.4-1.2-2.7-1.9-4c-2.1-4-1.4-9.5,1.8-13.5
		c0.6-0.8,1.2-1.5,1.8-2.2c1.7-2.1,3.2-4,4.4-5.4c0.8-1,1.5-1.8,2.1-2.4c0.6-0.6,1-1.1,1.3-1.4c2-2,4-3.6,6-4.8
		c3.3-2.1,6.4-3.1,9.4-3.1c2.6,0,5.3,0.8,8.3,2.3c0.6,0.3,1.2,0.6,1.9,0.8c1.9,0.7,4,1.1,6,1.1c2.4,0,4.6-0.5,6.7-1.4
		c3.5-1.5,6.4-4.2,8.2-7.6c1.1-2,1.7-4.1,1.9-6.3c0.1-1.4,0-2.8-0.2-4.2c-0.1-0.8-0.2-1.6-0.5-2.3c-0.8-2.6-2.2-4.9-4.1-6.8
		c-1.1-1.1-2.4-2.2-3.8-3C250.4,5.1,242.4,1,230.6,1c-4.7,0-10.4,0.7-16.6,2.8c-10.3,3.5-22.1,11-33.8,25.9l-2.1,2.7
		c-2.9,3.6-7.1,5.8-11.3,5.8c-0.9,0-1.8-0.1-2.6-0.3c-1.5-0.4-3.1-0.6-4.7-0.9c-0.5-0.1-1-0.1-1.6-0.2c-1.1-0.1-2.2-0.3-3.3-0.3
		l-1.4-0.1c-0.5,0-1,0-1.5,0c-1,0-2.1,0-3.1,0.1C148.5,36.5,148,43.6,149.8,50.3z M166.7,50.8c8.1,0,16-4.1,21.2-10.6l2.2-2.7
		c1.9-2.4,3.8-4.6,5.7-6.6c11.3-11.8,22-16.1,30.7-17.1c1.4-0.2,2.8-0.2,4.1-0.2c9.6,0,15.8,3.8,15.8,3.8c2.1,1.1,2.9,3.7,1.8,5.8
		c-0.8,1.5-2.3,2.3-3.8,2.3c-0.7,0-1.4-0.2-2-0.5c-4.8-2.5-9.5-3.8-14.2-3.8c-1,0-2,0.1-3.1,0.2c-3.1,0.4-6.1,1.3-9.1,2.7
		c-1,0.5-2,1-3,1.6c-3,1.8-6,4.1-9,7c-2,1.9-6.2,7-10.7,12.7c-6.1,7.7-7.6,18.4-3.1,27.2c0,0.1,0.1,0.2,0.1,0.3
		c1.4,2.8-1.2,6-4.2,5.1c-5.2-1.5-11-4.4-16.7-8.7c-5.3-4.1-9.6-8.7-12.3-13.1c-1.6-2.6,0.4-6,3.4-5.7
		C162.3,50.7,164.4,50.8,166.7,50.8z"/>
	
		<ellipse transform="matrix(0.6081 -0.7939 0.7939 0.6081 -31.2523 141.8529)" class="st25" cx="128" cy="102.6" rx="2.8" ry="2.8"/>
</g>
</svg>
