<?xml version="1.0" encoding="utf-8"?>
<!-- Generator: Adobe Illustrator 20.0.0, SVG Export Plug-In . SVG Version: 6.00 Build 0)  -->
<svg version="1.1" xmlns="http://www.w3.org/2000/svg" xmlns:xlink="http://www.w3.org/1999/xlink" x="0px" y="0px"
	 viewBox="0 0 200 200" style="enable-background:new 0 0 200 200;" xml:space="preserve">
<style type="text/css">
	.st0{fill:#7C9800;}
	.st1{fill:#164E16;}
	.st2{fill:#4D831C;stroke:#2A481D;stroke-width:3;stroke-linecap:round;stroke-linejoin:round;stroke-miterlimit:10;}
	.st3{fill:#4D831C;stroke:#184C28;stroke-width:3;stroke-linecap:round;stroke-linejoin:round;stroke-miterlimit:10;}
	.st4{fill:#FFBC42;stroke:#E6681E;stroke-width:3;stroke-miterlimit:10;}
	.st5{fill:none;stroke:#FFFFFF;stroke-linecap:round;stroke-miterlimit:10;}
	.st6{clip-path:url(#SVGID_2_);}
	.st7{fill:#F40000;stroke:#7B000E;stroke-width:3;stroke-miterlimit:10;}
	.st8{fill:#F22F2E;}
	.st9{opacity:0.5;fill:#840D0D;}
	.st10{fill:#7DB34C;}
	.st11{fill:#44712A;}
	.st12{fill:#4D831C;}
	.st13{fill:#2A481D;}
	.st14{fill:#AFD048;stroke:#6B9311;stroke-width:3;stroke-miterlimit:10;}
	.st15{fill:none;stroke:#6B9311;stroke-miterlimit:10;}
	.st16{fill:#AFD048;}
	.st17{fill:#F40000;stroke:#BA0D0D;stroke-width:3;stroke-miterlimit:10;}
	.st18{fill:none;stroke:#FFFFFF;stroke-linecap:round;stroke-linejoin:round;stroke-miterlimit:10;}
	.st19{fill:#CDA347;stroke:#A2690C;stroke-width:3;stroke-miterlimit:10;}
	.st20{fill:#A2CC62;}
	.st21{fill:#68664C;stroke:#522B25;stroke-width:3;stroke-linecap:round;stroke-linejoin:round;stroke-miterlimit:10;}
	.st22{fill:#B63E34;stroke:#522B25;stroke-width:3;stroke-miterlimit:10;}
	.st23{fill:#ADD481;}
	.st24{fill:#68664C;}
	.st25{fill:#593156;stroke:#331E31;stroke-width:3;stroke-miterlimit:10;}
	.st26{fill:#22B573;stroke:#184C28;stroke-width:3;stroke-linecap:round;stroke-linejoin:round;stroke-miterlimit:10;}
	.st27{fill:#EE0000;}
	.st28{fill:#9A0601;}
	.st29{fill:#EE0000;stroke:#9A0601;stroke-linecap:round;stroke-linejoin:round;stroke-miterlimit:10;}
	.st30{fill:#FFFFFF;}
	.st31{clip-path:url(#SVGID_4_);}
	.st32{fill:#00FFFF;}
	.st33{fill:#456A0A;}
	.st34{fill:#183300;}
	.st35{fill:#FF2214;}
	.st36{fill:#661900;}
	.st37{fill:#88A501;}
	.st38{fill:#3B6700;}
	.st39{fill:#FC4100;}
	.st40{fill:#9F0500;}
	.st41{fill:none;stroke:#6B9311;stroke-width:3;stroke-linecap:round;stroke-miterlimit:10;}
	.st42{fill:#6B9311;}
	.st43{fill:#593156;}
	.st44{fill:#331E31;}
	.st45{fill:#AFD048;stroke:#6B9311;stroke-width:3;stroke-linecap:round;stroke-linejoin:round;stroke-miterlimit:10;}
	.st46{fill:none;stroke:#6B9311;stroke-linejoin:round;stroke-miterlimit:10;}
	.st47{fill:#B63E34;stroke:#522B25;stroke-miterlimit:10;}
	.st48{fill:none;stroke:#522B25;stroke-miterlimit:10;}
	.st49{fill:none;stroke:#522B25;stroke-width:3;stroke-miterlimit:10;}
	.st50{fill:#7C9800;stroke:#0C4C0C;stroke-width:3;stroke-linecap:round;stroke-linejoin:round;stroke-miterlimit:10;}
	.st51{fill:#F04D02;stroke:#992216;stroke-width:3;stroke-miterlimit:10;}
	.st52{fill:none;stroke:#992216;stroke-width:3;stroke-miterlimit:10;}
	.st53{fill:#B63E34;}
	.st54{fill:#522B25;}
	.st55{fill:none;stroke:#40760E;stroke-width:3;stroke-linecap:round;stroke-linejoin:round;stroke-miterlimit:10;}
	.st56{fill:none;stroke:#40760E;stroke-linecap:round;stroke-linejoin:round;stroke-miterlimit:10;}
	.st57{fill:#A2CC62;stroke:#40760E;stroke-width:3;stroke-linecap:round;stroke-linejoin:round;stroke-miterlimit:10;}
	.st58{fill:#A2CC62;stroke:#40760E;stroke-linecap:round;stroke-linejoin:round;stroke-miterlimit:10;}
	.st59{fill:#9EC161;}
	.st60{fill:#40760E;}
	.st61{fill:#AFD048;stroke:#6B9311;stroke-width:3;stroke-linejoin:round;stroke-miterlimit:10;}
	.st62{fill:#663965;}
	.st63{fill:#9D610B;}
	.st64{fill:none;stroke:#A2690C;stroke-linecap:round;stroke-miterlimit:10;}
	.st65{fill:#6D4E2B;}
	.st66{fill:#CDA347;}
	.st67{fill:#7F500A;}
	.st68{fill:#F40000;stroke:#BA0D0D;stroke-miterlimit:10;}
	.st69{fill:#F40000;stroke:#B63E34;stroke-width:3;stroke-miterlimit:10;}
	.st70{fill:#F40000;stroke:#B63E34;stroke-miterlimit:10;}
	.st71{fill:#F40000;stroke:#990D0D;stroke-width:3;stroke-miterlimit:10;}
	.st72{fill:#F40000;stroke:#990D0D;stroke-miterlimit:10;}
	.st73{fill:#F40000;}
	.st74{fill:#990D0D;}
	.st75{fill:#FF9D00;}
	.st76{fill:#E6681E;}
	.st77{fill:#FFCB00;}
	.st78{fill:#B58B06;}
	.st79{fill:#3A4C09;}
	.st80{fill:#B94850;stroke:#6C0A04;stroke-width:3;stroke-miterlimit:10;}
	.st81{fill:#CE8645;stroke:#CE8645;stroke-width:0.5;stroke-miterlimit:10;}
	.st82{fill:#6C0A04;stroke:#6C0A04;stroke-width:0.5;stroke-miterlimit:10;}
	.st83{fill:none;stroke:#6C0A04;stroke-linecap:round;stroke-miterlimit:10;}
	.st84{fill:#B94850;}
	.st85{fill:#CE8645;}
	.st86{fill:#6C0A04;}
	.st87{fill:#8C4F6F;}
	.st88{fill:#E7C456;}
	.st89{fill:#391A26;}
	.st90{fill:#E7C456;stroke:#AC5E17;stroke-width:3;stroke-miterlimit:10;}
	.st91{fill:#4F250E;stroke:#4F250E;stroke-width:0.5;stroke-miterlimit:10;}
	.st92{fill:none;stroke:#AC5E17;stroke-linecap:round;stroke-miterlimit:10;}
	.st93{fill:#4F250E;}
	.st94{fill:#995116;}
	.st95{fill:#FD801E;stroke:#9E0E00;stroke-width:3;stroke-miterlimit:10;}
	.st96{fill:#FD801E;stroke:#9E0E00;stroke-linecap:round;stroke-miterlimit:10;}
	.st97{opacity:0.8;fill:#FFBC42;}
	.st98{opacity:0.8;fill:#D03400;}
	.st99{fill:none;stroke:#9E0E00;stroke-linecap:round;stroke-miterlimit:10;}
	.st100{fill:#FFBC42;}
	.st101{fill:none;stroke:#9E0E00;stroke-width:3;stroke-miterlimit:10;}
	.st102{fill:#A7C92B;stroke:#264008;stroke-width:3;stroke-linecap:round;stroke-linejoin:round;stroke-miterlimit:10;}
	.st103{fill:#A7C92B;stroke:#264008;stroke-width:3;stroke-miterlimit:10;}
	.st104{fill:#344C00;}
	.st105{fill:#FD801E;}
	.st106{fill:#9E0E00;}
	.st107{fill:#FDAF48;}
	.st108{fill:#D74E1E;}
	.st109{opacity:0.8;fill:#68664C;}
	.st110{fill:#775E49;}
	.st111{fill:#FF7A00;}
	.st112{fill:#FF7A00;stroke:#F44500;stroke-width:3;stroke-miterlimit:10;}
	.st113{fill:none;stroke:#F44500;stroke-linecap:round;stroke-linejoin:round;stroke-miterlimit:10;}
	.st114{fill:#FF7A00;stroke:#F44500;stroke-linecap:round;stroke-linejoin:round;stroke-miterlimit:10;}
	.st115{fill:#F44500;}
	.st116{fill:#F6E600;}
	.st117{fill:#8DCC50;}
	.st118{fill:#A2A121;}
	.st119{fill:#F9EFA7;}
	.st120{fill:#6E905E;}
	.st121{fill:#7B000E;}
	.st122{fill:#F22F2E;stroke:#7B000E;stroke-width:3;stroke-miterlimit:10;}
	.st123{fill:#7DB34C;stroke:#44712A;stroke-width:3;stroke-miterlimit:10;}
	.st124{fill:none;stroke:#44712A;stroke-miterlimit:10;}
	.st125{fill:none;stroke:#7B000E;stroke-linecap:round;stroke-linejoin:round;stroke-miterlimit:10;}
	.st126{fill:none;stroke:#7B000E;stroke-linecap:round;stroke-miterlimit:10;}
	.st127{fill:#FA6200;stroke:#D54300;stroke-width:3;stroke-miterlimit:10;}
	.st128{fill:#FA6200;stroke:#D54300;stroke-linecap:round;stroke-miterlimit:10;}
	.st129{fill:none;stroke:#F44500;stroke-linecap:round;stroke-miterlimit:10;}
	.st130{fill:#164E16;stroke:#071907;stroke-width:3;stroke-miterlimit:10;}
	.st131{fill:none;stroke:#071907;stroke-linecap:round;stroke-linejoin:round;stroke-miterlimit:10;}
	.st132{fill:#071907;}
	.st133{fill:#7DB34C;stroke:#164E16;stroke-width:3;stroke-miterlimit:10;}
	.st134{fill:none;stroke:#164E16;stroke-miterlimit:10;}
	.st135{fill:#8A9D1F;}
	.st136{fill:#6E8517;}
	.st137{opacity:0.1;fill:none;stroke:#EBDE00;stroke-width:3;stroke-miterlimit:10;}
	.st138{opacity:0.25;fill:none;stroke:#EBDE00;stroke-width:3;stroke-miterlimit:10;}
	.st139{opacity:0.4;fill:none;stroke:#EBDE00;stroke-width:3;stroke-miterlimit:10;}
	.st140{opacity:0.55;fill:none;stroke:#EBDE00;stroke-width:3;stroke-miterlimit:10;}
	.st141{opacity:0.7;fill:none;stroke:#EBDE00;stroke-width:3;stroke-miterlimit:10;}
	.st142{opacity:0.85;fill:none;stroke:#EBDE00;stroke-width:3;stroke-miterlimit:10;}
	.st143{fill:none;stroke:#EBDE00;stroke-width:3;stroke-miterlimit:10;}
	.st144{fill:#A7C92B;}
	.st145{fill:#EBDE00;}
	.st146{fill:#AEC939;}
	.st147{fill:#B8CC35;}
	.st148{fill:#C2CF33;}
	.st149{fill:#CCD331;}
	.st150{fill:#D7D631;}
	.st151{fill:#E0D930;}
	.st152{fill:#264008;}
	.st153{fill:none;stroke:#00FFFF;stroke-miterlimit:10;}
	.st154{clip-path:url(#SVGID_6_);}
	.st155{fill:#F22F2E;stroke:#9E0E00;stroke-width:3;stroke-miterlimit:10;}
	.st156{fill:#A7C92B;stroke:#164E16;stroke-width:3;stroke-miterlimit:10;}
	.st157{clip-path:url(#SVGID_8_);}
	.st158{fill:#F9A361;}
	.st159{fill:none;stroke:#992216;stroke-linecap:round;stroke-miterlimit:10;}
	.st160{fill:#0C4C0C;}
	.st161{fill:#F04D02;}
	.st162{fill:#992216;}
	.st163{fill:none;stroke:#7B000E;stroke-width:3;stroke-miterlimit:10;}
	.st164{fill:none;stroke:#164E16;stroke-linecap:round;stroke-miterlimit:10;}
	.st165{fill:#FFBC42;stroke:#9E0E00;stroke-width:3;stroke-miterlimit:10;}
	.st166{fill:#FFBC42;stroke:#9E0E00;stroke-miterlimit:10;}
	.st167{fill:#D03400;}
	.st168{fill:#FFBC42;stroke:#E6681E;stroke-linecap:round;stroke-miterlimit:10;}
	.st169{fill:#184C28;}
	.st170{fill:#FF9D00;stroke:#E6681E;stroke-linecap:round;stroke-miterlimit:10;}
	.st171{fill:#F97306;}
	.st172{fill:#D54300;}
	.st173{fill:#FFD003;}
	.st174{fill:#D17D01;}
	.st175{fill:#8BA00D;stroke:#164E16;stroke-width:3;stroke-linejoin:round;stroke-miterlimit:10;}
	.st176{fill:#8BA00D;}
	.st177{fill:#FFD003;stroke:#D17D01;stroke-width:3;stroke-miterlimit:10;}
	.st178{fill:none;stroke:#FEA502;stroke-linecap:round;stroke-linejoin:round;stroke-miterlimit:10;}
	.st179{fill:#FEA502;}
</style>
<g id="Layer_1">
	<path class="st12" d="M101.4,70.4C115,20.9,143.9,0.8,170.9,8.2l-1.3,4.6c-21.6-5.9-44.9,12.5-52.5,61.9"/>
	<path class="st13" d="M107.2,67.5c4-13.1,9.2-24.3,15.4-33.1c0.6-0.9,2-0.1,1.5,0.9c-4.3,8.5-8.1,19.5-10.7,33.9l9.3,1.4
		c4.5-24.5,13.5-42.2,25.5-50.1c6.3-4.1,13.3-5.3,20.3-3.4c2.5,0.7,5.1-0.8,5.8-3.3l1.3-4.6c0.3-1.2,0.2-2.5-0.5-3.6
		c-0.6-1.1-1.6-1.9-2.8-2.2c-15.2-4.1-30.8-0.3-44,10.7c-12.6,10.5-22.7,27.3-29.4,48.8L107.2,67.5z"/>
	<path class="st8" d="M72.7,189.4c3.7,0.2,7.3,1.3,10.6,2.9c1.4,0.7,3,1.2,4.9,1.4c9,0.8,18-1.5,25.9-5.8
		c20.8-11.2,44.7-28.7,55.1-66.8c4.1-15,0.9-32.1-12.7-42.1c-9.4-6.9-25-8-35.4-8c-6.9,0-13.6-1.6-19.7-4.8
		c-9.5-5-24.7-11.5-37.9-9.9c-15.5,1.9-25.3,15-28.8,28c-12.1,44.5,0.3,70.2,13.2,88.1c5.1,7.1,11.5,14,19.9,16.3
		C69.3,189.1,71.1,189.3,72.7,189.4z"/>
	<path class="st30" d="M49.2,108.7c-0.1,0-0.1,0-0.2,0c-0.9-0.1-1.5-0.9-1.4-1.7c0.5-4.2,1.2-8.5,2.1-13c0.2-0.8,1-1.4,1.8-1.2
		c0.8,0.2,1.4,1,1.2,1.8c-0.9,4.4-1.6,8.6-2.1,12.7C50.7,108.1,50,108.7,49.2,108.7z"/>
	<path class="st30" d="M54.5,84.8c-0.2,0-0.4,0-0.6-0.1c-0.8-0.3-1.1-1.3-0.8-2.1c3.3-7.5,8.2-12.3,13.7-13.5
		c0.8-0.2,1.7,0.3,1.9,1.2c0.2,0.8-0.3,1.7-1.2,1.9c-6.1,1.4-9.8,7.9-11.5,11.7C55.7,84.5,55.1,84.8,54.5,84.8z"/>
	<g>
		<path class="st121" d="M159.2,75.2c-10-7.3-25.6-8.9-37.4-8.9c-0.3,0-0.6,0-0.9,0c-0.1,0-0.2,0-0.3,0c-6,0-12-1.5-17.2-4.3
			c-10.8-5.7-26.6-12.1-40.6-10.4C50.7,53.1,35.8,62.1,30,83c-12.8,46.8,0.7,73.8,13.9,92.1c4.6,6.4,12,15.2,22.5,18.1
			c1.7,0.5,3.7,0.8,5.9,0.9c2.9,0.2,5.9,1,8.9,2.4c2.1,1,4.3,1.6,6.5,1.8c1.3,0.1,2.6,0.2,3.9,0.2c8.3,0,16.7-2.2,24.7-6.5
			c20.9-11.3,46.4-29.4,57.4-69.7C178.8,103.5,173.3,85.5,159.2,75.2z M51.6,169.6c-12-16.6-24.2-41.2-12.5-84.1
			C43.6,69.1,54.9,62,64,60.9c1.2-0.1,2.4-0.2,3.6-0.2c6.1,0,12.6,1.7,18.4,3.8c2.3,0.8,3,3.8,1.2,5.6C81.7,75.4,76,84.7,72.9,96
			c-0.2,0.8,0.3,1.7,1.1,1.9c0.8,0.2,1.7-0.3,1.9-1.1C79.4,83.9,88,71,94.7,68.6c6-2.1,10.4-0.7,13.1,0.8c1.7,1,3.6,1.8,5.5,2.5
			c14,4.6,22.8,18.6,20.3,32.5c-0.5,3.1-1.3,6.2-2.1,9.4c-10.1,37.2-23.3,56.7-33.6,69.5c-5.6,6.9-10.4,6.8-14.7,5.6l-0.2-0.1
			c-4.2-1.2-7.8-2.7-9.3-9.6c-0.2-0.8-0.8-1.4-1.6-1.3c-1,0-1.7,1-1.5,1.9c0.2,0.9,0.4,1.8,0.7,2.6c0.4,1.2-0.7,2.3-1.9,2
			c-0.1,0-0.3-0.1-0.4-0.1C61.3,182.1,55.4,174.9,51.6,169.6z M164.7,119.8c-10.1,36.9-33.5,53.6-52.8,64c-3.3,1.8-6.7,3.1-10.1,4
			c-1.5,0.4-2.5-1.3-1.6-2.5c0,0,0,0,0,0c10.5-13.1,23.9-32.9,34.2-70.7c0.9-3.2,1.6-6.5,2.2-9.6c1.5-8.2-0.6-16.5-5.2-23.2
			c-1.7-2.4,0.3-5.7,3.2-5.3c8.2,1.1,14.8,3.2,19,6.3C166.6,92.3,167.9,108.1,164.7,119.8z"/>
		<path class="st121" d="M69.1,160.7c-0.7,0-1.3-0.5-1.5-1.2c-0.7-2.5-0.9-5-0.8-7.5c0.1-3,0.8-6,2.1-8.7c1.9-4.1,2.1-8.8,0.6-13.1
			c-1-2.9-1.4-5.9-1.2-8.9c0.1-3,0.8-6,2.1-8.7c0.4-0.8,1.3-1.1,2.1-0.8c0.8,0.4,1.1,1.3,0.8,2.1c-1.1,2.4-1.7,4.9-1.8,7.6
			c-0.1,2.6,0.2,5.2,1.1,7.8c1.7,5.1,1.4,10.5-0.8,15.4c-1.1,2.4-1.7,4.9-1.8,7.6c-0.1,2.2,0.1,4.4,0.7,6.6c0.2,0.8-0.3,1.7-1.1,1.9
			C69.3,160.7,69.2,160.7,69.1,160.7z"/>
		<path class="st121" d="M92.4,150.2c-0.3,0-0.6-0.1-0.9-0.3c-0.7-0.5-0.9-1.5-0.4-2.2c2.6-3.7,3.8-8.2,3.2-12.7
			c-0.4-3-0.2-6,0.5-8.9c0.7-2.9,2-5.7,3.7-8.1c0.5-0.7,1.5-0.9,2.2-0.4c0.7,0.5,0.9,1.5,0.4,2.2c-1.5,2.1-2.6,4.5-3.3,7.1
			c-0.6,2.6-0.8,5.2-0.4,7.8c0.7,5.3-0.6,10.6-3.7,14.9C93.3,150,92.9,150.2,92.4,150.2z"/>
		<path class="st121" d="M148.5,126.4C148.5,126.4,148.5,126.4,148.5,126.4c-0.9,0-1.6-0.7-1.6-1.6c0-3,0.6-6,1.7-8.8
			c1.7-4.2,1.7-8.9,0-13.1c-1.1-2.8-1.6-5.8-1.6-8.9c0-0.9,0.7-1.6,1.6-1.6c0,0,0,0,0,0c0.9,0,1.6,0.7,1.6,1.6
			c0,2.6,0.5,5.2,1.4,7.7c1.9,5,1.9,10.5-0.1,15.4c-1,2.4-1.5,5-1.5,7.6C150,125.7,149.3,126.4,148.5,126.4z"/>
	</g>
	<path class="st30" d="M86.5,101.2c-0.1,0-0.3,0-0.4-0.1c-0.8-0.2-1.3-1.1-1.1-1.9c1.5-5.5,4.1-11.3,7.2-15.8
		c0.5-0.7,1.5-0.9,2.2-0.4c0.7,0.5,0.9,1.5,0.4,2.2c-2.9,4.3-5.3,9.7-6.8,14.9C87.8,100.8,87.1,101.2,86.5,101.2z"/>
	
		<ellipse transform="matrix(0.2632 -0.9647 0.9647 0.2632 -10.1133 125.7694)" class="st30" cx="77.3" cy="69.5" rx="1.5" ry="1.6"/>
	<ellipse transform="matrix(0.2632 -0.9647 0.9647 0.2632 -1.8047 152.3633)" class="st30" cx="98.9" cy="77.4" rx="1.5" ry="1.6"/>
</g>
<g id="Layer_2">
</g>
</svg>
