<?xml version="1.0" encoding="utf-8"?>
<!-- Generator: Adobe Illustrator 20.0.0, SVG Export Plug-In . SVG Version: 6.00 Build 0)  -->
<svg version="1.1" id="Layer_1" xmlns="http://www.w3.org/2000/svg" xmlns:xlink="http://www.w3.org/1999/xlink" x="0px" y="0px"
	 viewBox="0 0 500 500" style="enable-background:new 0 0 500 500;" xml:space="preserve">
<style type="text/css">
	.st0{fill:#456A11;}
	.st1{fill:#E4E9A8;stroke:#19430C;stroke-width:6;stroke-linejoin:round;stroke-miterlimit:10;}
	.st2{fill:none;stroke:#FFFFFF;stroke-linecap:round;stroke-miterlimit:10;}
	.st3{fill:#457F4A;}
	.st4{fill:#344B57;}
	.st5{fill:#75B15D;stroke:#344B57;stroke-width:3;stroke-miterlimit:10;}
	.st6{fill:#BCE680;}
	.st7{fill:#F0FDC5;}
	.st8{fill:#1B5900;}
	.st9{fill:#ADE77A;stroke:#1B5900;stroke-width:6;stroke-miterlimit:10;}
	.st10{fill:#859C52;}
	.st11{fill:#709638;}
	.st12{display:none;fill:#D1A982;}
	.st13{fill:#ECE8DB;}
	.st14{fill:#5B3A03;}
	.st15{fill:#719E7F;stroke:#667F40;stroke-width:3;stroke-linecap:round;stroke-linejoin:round;stroke-miterlimit:10;}
	.st16{fill:#719E7F;stroke:#667F40;stroke-linecap:round;stroke-linejoin:round;stroke-miterlimit:10;}
	.st17{fill:none;stroke:#667F40;stroke-width:3;stroke-linecap:round;stroke-miterlimit:10;}
	.st18{fill:#4D6261;}
	.st19{fill:#ECE8DB;stroke:#5B3A03;stroke-width:3;stroke-miterlimit:10;}
	.st20{fill:none;stroke:#F0FDC5;stroke-linecap:round;stroke-linejoin:round;stroke-miterlimit:10;}
	.st21{fill:#8DC70C;}
	.st22{fill:#ECFE78;}
	.st23{fill:#73953B;}
	.st24{fill:#3D710C;}
	.st25{fill:#73953B;stroke:#3D710C;stroke-width:3;stroke-linejoin:round;stroke-miterlimit:10;}
	.st26{fill:#EFE8D7;stroke:#DABB95;stroke-width:3;stroke-linejoin:round;stroke-miterlimit:10;}
	.st27{opacity:0.6;fill:none;stroke:#BF71B0;stroke-width:3;stroke-miterlimit:10;}
	.st28{opacity:0.4;fill:none;stroke:#BF71B0;stroke-width:3;stroke-miterlimit:10;}
	.st29{opacity:0.3;fill:none;stroke:#BF71B0;stroke-width:3;stroke-miterlimit:10;}
	.st30{opacity:0.2;fill:none;stroke:#BF71B0;stroke-width:3;stroke-miterlimit:10;}
	.st31{opacity:0.1;fill:none;stroke:#BF71B0;stroke-width:3;stroke-miterlimit:10;}
	.st32{fill:#77A45B;}
	.st33{fill:none;stroke:#FFFFFF;stroke-linecap:round;stroke-linejoin:round;stroke-miterlimit:10;}
	.st34{fill:#00FFFF;}
	.st35{fill:#E50F4F;}
	.st36{fill:#5A8700;}
	.st37{fill:#9D9F01;}
	.st38{fill:none;stroke:#BFBF04;stroke-linecap:round;stroke-linejoin:round;stroke-miterlimit:10;}
	.st39{fill:none;stroke:#CAD058;stroke-linecap:round;stroke-linejoin:round;stroke-miterlimit:10;}
	.st40{fill:#E21039;stroke:#930019;stroke-width:3;stroke-linejoin:round;stroke-miterlimit:10;}
	.st41{fill:#77A45B;stroke:#3D710C;stroke-linecap:round;stroke-linejoin:round;stroke-miterlimit:10;}
	.st42{fill:none;stroke:#77A45B;stroke-width:3;stroke-miterlimit:10;}
	.st43{opacity:0.5;fill:none;stroke:#FFFFFF;stroke-width:3;stroke-linejoin:round;stroke-miterlimit:10;}
	.st44{opacity:0.7;fill:none;stroke:#FFFFFF;stroke-width:3;stroke-linejoin:round;stroke-miterlimit:10;}
	.st45{opacity:0.9;fill:none;stroke:#FFFFFF;stroke-width:3;stroke-linejoin:round;stroke-miterlimit:10;}
	.st46{opacity:0.3;fill:none;stroke:#FFFFFF;stroke-width:3;stroke-linejoin:round;stroke-miterlimit:10;}
	.st47{opacity:0.2;fill:none;stroke:#FFFFFF;stroke-width:3;stroke-linejoin:round;stroke-miterlimit:10;}
	.st48{fill:#E21039;}
	.st49{fill:#930019;}
	.st50{fill:#F4E5E8;}
	.st51{fill:#DEB2BA;}
	.st52{fill:#C8818D;}
	.st53{fill:#B14D5F;}
	.st54{fill:#FFFFFF;}
	.st55{fill:#EFE8D7;}
	.st56{fill:#8C7662;}
	.st57{fill:#E50F4F;stroke:#930019;stroke-width:3;stroke-linejoin:round;stroke-miterlimit:10;}
	.st58{fill:none;stroke:#E87C94;stroke-width:3;stroke-linejoin:round;stroke-miterlimit:10;}
	.st59{fill:none;stroke:#E64872;stroke-width:3;stroke-linejoin:round;stroke-miterlimit:10;}
	.st60{fill:none;stroke:#EBB2B6;stroke-width:3;stroke-linejoin:round;stroke-miterlimit:10;}
	.st61{fill:none;stroke:#930019;stroke-width:3;stroke-linejoin:round;stroke-miterlimit:10;}
	.st62{fill:#E87C94;}
	.st63{fill:#E64872;}
	.st64{fill:#EBB2B6;}
	.st65{opacity:0.7;fill:none;stroke:#E50F4F;stroke-width:3;stroke-linejoin:round;stroke-miterlimit:10;}
	.st66{opacity:0.6;fill:none;stroke:#E50F4F;stroke-width:3;stroke-linejoin:round;stroke-miterlimit:10;}
	.st67{opacity:0.4;fill:none;stroke:#E50F4F;stroke-width:3;stroke-linejoin:round;stroke-miterlimit:10;}
	.st68{opacity:0.3;fill:none;stroke:#E50F4F;stroke-width:3;stroke-linejoin:round;stroke-miterlimit:10;}
	.st69{opacity:0.2;fill:none;stroke:#E50F4F;stroke-width:3;stroke-linejoin:round;stroke-miterlimit:10;}
	.st70{opacity:0.1;fill:none;stroke:#E50F4F;stroke-width:3;stroke-linejoin:round;stroke-miterlimit:10;}
	.st71{fill:none;stroke:#DABB95;stroke-width:3;stroke-linejoin:round;stroke-miterlimit:10;}
	.st72{fill:#77A45B;stroke:#3D710C;stroke-width:0.9521;stroke-linecap:round;stroke-linejoin:round;stroke-miterlimit:10;}
	.st73{fill:#DABB95;}
	.st74{fill:#E76886;}
	.st75{fill:#E87D94;}
	.st76{fill:#E992A2;}
	.st77{fill:#EBA7AF;}
	.st78{fill:#ECBDBD;}
	.st79{fill:#EDD2CA;}
	.st80{opacity:0.6;fill:#BF71B0;}
	.st81{opacity:0.5;fill:#BF71B0;}
	.st82{opacity:0.4;fill:#BF71B0;}
	.st83{opacity:0.3;fill:#BF71B0;}
	.st84{opacity:0.2;fill:#BF71B0;}
	.st85{fill:#FCD24F;stroke:#BA8822;stroke-width:3;stroke-linejoin:round;stroke-miterlimit:10;}
	.st86{opacity:0.9;fill:none;stroke:#732429;stroke-width:3;stroke-miterlimit:10;}
	.st87{opacity:0.8;fill:none;stroke:#732429;stroke-width:3;stroke-miterlimit:10;}
	.st88{opacity:0.7;fill:none;stroke:#732429;stroke-width:3;stroke-miterlimit:10;}
	.st89{opacity:0.6;fill:none;stroke:#732429;stroke-width:3;stroke-miterlimit:10;}
	.st90{opacity:0.5;fill:none;stroke:#732429;stroke-width:3;stroke-miterlimit:10;}
	.st91{opacity:0.4;fill:none;stroke:#732429;stroke-width:3;stroke-miterlimit:10;}
	.st92{fill:none;stroke:#BA8822;stroke-width:3;stroke-linejoin:round;stroke-miterlimit:10;}
	.st93{fill:#FCD24F;}
	.st94{fill:#BA8822;}
	.st95{fill:#80352F;}
	.st96{fill:#8D4734;}
	.st97{fill:#9B5838;}
	.st98{fill:#A96A3D;}
	.st99{fill:#B77A42;}
	.st100{fill:#C48B47;}
	.st101{fill:#5B774B;}
	.st102{fill:none;stroke:#ECFE78;stroke-linecap:round;stroke-linejoin:round;stroke-miterlimit:10;}
	.st103{fill:none;stroke:#5B774B;stroke-miterlimit:10;}
	.st104{fill:none;stroke:#ECFE78;stroke-linecap:round;stroke-miterlimit:10;}
	.st105{fill:none;stroke:#5B774B;stroke-linejoin:round;stroke-miterlimit:10;}
	.st106{fill:none;stroke:#89A037;stroke-linecap:round;stroke-linejoin:round;stroke-miterlimit:10;}
	.st107{fill:none;stroke:#89A037;stroke-width:3;stroke-linecap:round;stroke-linejoin:round;stroke-miterlimit:10;}
	.st108{fill:none;stroke:#89A037;stroke-width:3.3343;stroke-linecap:round;stroke-linejoin:round;stroke-miterlimit:10;}
	.st109{fill:none;stroke:#89A037;stroke-width:3;stroke-linecap:round;stroke-miterlimit:10;}
	.st110{fill:#839958;}
	.st111{fill:#AA2F66;}
	.st112{fill:#D8CBC5;}
	.st113{fill:#662128;}
	.st114{fill:#A3CA44;stroke:#89A037;stroke-width:3;stroke-miterlimit:10;}
	.st115{fill:#ECE8DB;stroke:#5B3A03;stroke-miterlimit:10;}
	.st116{fill:none;stroke:#00FF00;stroke-miterlimit:10;}
	.st117{fill:none;stroke:#00FF00;stroke-width:1.0757;stroke-miterlimit:10;}
	.st118{clip-path:url(#SVGID_2_);}
	.st119{fill:none;stroke:#000000;stroke-miterlimit:10;}
	.st120{fill:none;stroke:#000000;stroke-width:1.16;stroke-miterlimit:10;}
	.st121{fill:#7AA66D;}
	.st122{fill:#8BC133;}
	.st123{fill:none;stroke:#000000;stroke-width:0.9135;stroke-miterlimit:10;}
	.st124{fill:none;stroke:#000000;stroke-width:5.9645;stroke-miterlimit:10;}
	.st125{fill:none;stroke:#000000;stroke-width:1.9086;stroke-linecap:round;stroke-linejoin:round;stroke-miterlimit:10;}
	.st126{fill:none;stroke:#4D6261;stroke-width:0.9577;stroke-linecap:round;stroke-linejoin:round;stroke-miterlimit:10;}
	.st127{fill:#7AA66D;stroke:#4D6261;stroke-width:0.9577;stroke-miterlimit:10;}
	.st128{fill:none;stroke:#4D6261;stroke-width:0.9577;stroke-miterlimit:10;}
	.st129{fill:#D2DE8F;stroke:#667F40;stroke-width:3;stroke-miterlimit:10;}
	.st130{fill:none;stroke:#FAFAEE;stroke-linecap:round;stroke-miterlimit:10;}
	.st131{fill:#D2DE8F;}
	.st132{fill:none;stroke:#667F40;stroke-width:3;stroke-miterlimit:10;}
	.st133{fill:#77A578;}
	.st134{fill:#719E7F;}
	.st135{fill:#FAFAEE;}
	.st136{fill:#667F40;}
	.st137{fill:#ECE8DB;stroke:#5B3A03;stroke-width:0.9644;stroke-miterlimit:10;}
	.st138{fill:#7AA66D;stroke:#4D6261;stroke-width:3.6;stroke-linecap:round;stroke-linejoin:round;stroke-miterlimit:10;}
	.st139{fill:none;stroke:#D2DE8F;stroke-miterlimit:10;}
	.st140{fill:none;stroke:#4D6261;stroke-width:3.6;stroke-linecap:round;stroke-linejoin:round;stroke-miterlimit:10;}
	.st141{fill:#ECE8DB;stroke:#5B3A03;stroke-linecap:round;stroke-linejoin:round;stroke-miterlimit:10;}
	.st142{fill:#FAD673;}
	.st143{fill:#CE731F;}
	.st144{fill:#D15CD4;}
	.st145{fill:#701975;}
	.st146{fill:#009245;stroke:#006837;stroke-width:3;stroke-miterlimit:10;}
	.st147{fill:#009245;stroke:#006837;stroke-width:3;stroke-linecap:round;stroke-linejoin:round;stroke-miterlimit:10;}
	.st148{fill:none;stroke:#B8CC69;stroke-width:3;stroke-miterlimit:10;}
	.st149{fill:#4E6624;stroke:#314217;stroke-width:3;stroke-miterlimit:10;}
	.st150{fill:none;stroke:#314217;stroke-miterlimit:10;}
	.st151{fill:#4E6624;}
	.st152{fill:#709638;stroke:#3B7000;stroke-width:3;stroke-linecap:round;stroke-linejoin:round;stroke-miterlimit:10;}
	.st153{fill:#709638;stroke:#3B7000;stroke-linecap:round;stroke-linejoin:round;stroke-miterlimit:10;}
	.st154{fill:#92C057;}
	.st155{fill:#3B7000;}
	.st156{fill:#325900;}
	.st157{fill:#2A784B;stroke:#1F4130;stroke-width:3;stroke-miterlimit:10;}
	.st158{fill:none;stroke:#1F4130;stroke-linecap:round;stroke-linejoin:round;stroke-miterlimit:10;}
	.st159{fill:#2A784B;stroke:#1F4130;stroke-miterlimit:10;}
	.st160{fill:#D7D8DA;stroke:#1F4130;stroke-linecap:round;stroke-linejoin:round;stroke-miterlimit:10;}
	.st161{fill:none;stroke:#1F4130;stroke-width:3;stroke-miterlimit:10;}
	.st162{fill:#2A784B;}
	.st163{fill:#1F4130;}
	.st164{fill:#D7D8DA;}
	.st165{fill:#499623;}
	.st166{fill:none;stroke:#499623;stroke-miterlimit:10;}
	.st167{fill:#4C9D29;stroke:#1B5900;stroke-miterlimit:10;}
	.st168{fill:none;stroke:#ADE77A;stroke-width:2;stroke-linecap:round;stroke-miterlimit:10;}
	.st169{fill:none;stroke:#ADE77A;stroke-linecap:round;stroke-miterlimit:10;}
	.st170{fill:#4C9D29;}
	.st171{fill:none;stroke:#FFFFFF;stroke-width:7.8254;stroke-linecap:round;stroke-miterlimit:10;}
	.st172{fill:#ADE77A;}
	.st173{fill:#4F7F51;stroke:#344B57;stroke-miterlimit:10;}
	.st174{fill:#649160;stroke:#344B57;stroke-miterlimit:10;}
	.st175{fill:#78A36F;stroke:#344B57;stroke-miterlimit:10;}
	.st176{fill:#3A6D40;}
	.st177{opacity:0.75;fill:#344B57;stroke:#8CB77C;stroke-width:4;stroke-miterlimit:10;}
	.st178{opacity:0.5;fill:#344B57;stroke:#8CB77C;stroke-width:4;stroke-miterlimit:10;}
	.st179{opacity:0.25;fill:#344B57;stroke:#8CB77C;stroke-width:4;stroke-miterlimit:10;}
	.st180{opacity:0.8;fill:none;stroke:#C5E2D6;stroke-linecap:round;stroke-miterlimit:10;}
	.st181{opacity:0.8;fill:none;stroke:#C5E2D6;stroke-miterlimit:10;}
	.st182{fill:#8CB77C;stroke:#344B57;stroke-miterlimit:10;}
	.st183{opacity:0.8;fill:#C5E2D6;}
	.st184{fill:#4F7F51;}
	.st185{fill:#649160;}
	.st186{fill:#78A36F;}
	.st187{fill:#8CB77C;}
	.st188{fill:#C0DECD;}
	.st189{fill:none;stroke:#C5E2D6;stroke-width:7.8769;stroke-linecap:round;stroke-miterlimit:10;}
	.st190{fill:#AFCEB8;}
	.st191{fill:#9FC1A8;}
	.st192{fill:#77A47F;}
	.st193{fill:none;stroke:#77A47F;stroke-width:0.9699;stroke-miterlimit:10;}
	.st194{fill:#BCE680;stroke:#839958;stroke-width:3;stroke-miterlimit:10;}
	.st195{fill:none;stroke:#839958;stroke-miterlimit:10;}
	.st196{fill:none;stroke:#F0FDC5;stroke-miterlimit:10;}
	.st197{fill:none;stroke:#F0FDC5;stroke-linecap:round;stroke-miterlimit:10;}
	.st198{fill:none;stroke:#F0FDC5;stroke-width:0.8753;stroke-miterlimit:10;}
	.st199{fill:#A3CA44;}
	.st200{fill:none;stroke:#859C52;stroke-linecap:round;stroke-miterlimit:10;}
	.st201{fill:none;stroke:#E4E9A8;stroke-width:3;stroke-linecap:round;stroke-miterlimit:10;}
	.st202{fill:none;stroke:#AFCEB8;stroke-width:3;stroke-miterlimit:10;}
	.st203{fill:none;stroke:#E4E9A8;stroke-linecap:round;stroke-miterlimit:10;}
	.st204{fill:#19430C;}
	.st205{fill:#E4E9A8;}
	.st206{fill:#89A037;}
</style>
<rect x="-1938.3" y="-3183.5" class="st12" width="5227.9" height="4725.2"/>
<path class="st111" d="M248.7,19.4c127,0,229.9,139.8,229.9,267.7S375.7,482.6,248.7,482.6S18.9,415,18.9,287.1
	c0-46,13.3-93.5,36.2-135.5c0,0,42.6-77,106.4-76.1C161.5,75.5,165.3,19.4,248.7,19.4z"/>
<g>
	<path class="st112" d="M39.7,189.5c54.9,0.8,91.3,21.1,112.3,37.9c22.7,18.3,32.6,36.7,32.7,36.9l0,0l7-3.7
		c-0.4-0.8-10.5-19.8-34.4-39.1c-21.9-17.8-60.1-39.1-117.4-39.9L39.7,189.5z"/>
	<path class="st112" d="M30.2,324.2c33.8-10.1,62-4.4,79.6,2.1c19.2,7.1,30.5,16.6,30.7,16.8l5.1-6c-0.5-0.4-12.3-10.5-32.8-18.1
		c-18.8-7-48.9-13.1-84.9-2.4L30.2,324.2z"/>
	<path class="st112" d="M381.5,79.1c-0.4-2.1-2.4-3.6-4.6-3.2c-1.1,0.2-26.2,4.9-56.2,19c-47.7,22.5-71.1,51.9-82.6,73.9
		c2.4,1.5,4.4,3.6,5.7,6.1c18.5-37.5,53.6-60.3,80-72.7c29.1-13.8,54.1-18.4,54.4-18.5C380.4,83.2,381.9,81.2,381.5,79.1z"/>
	<path class="st112" d="M459,200.7c-81.4-14.5-152.8,32.1-162.7,39c-0.7-2.6-2-5-3.8-6.9c5.8-3.9,23.2-15.2,48.5-25.3
		c28.3-11.3,71.9-22.9,119.3-14.5L459,200.7z"/>
	<path class="st112" d="M473.8,318.1c-54.3-23.2-116.5-10.7-129.7-7.7c-0.2-2.7-1.1-5.3-2.4-7.5c12.8-3.1,76.1-16.6,133.6,7.2
		L473.8,318.1z"/>
	<path class="st112" d="M448.2,392.1c-40.3-11.7-78.8,1.4-89,5.3c-0.1-2.7-0.9-5.3-2.2-7.6c12-4.7,51.2-17.5,93.3-5.3L448.2,392.1z"
		/>
	<path class="st112" d="M169.6,307.2c14.5-7.9,75.6-37.1,164.6-25.1c0.1,0,0.2,0,0.3,0c-1.3-2.3-2-4.9-2.2-7.7c0-0.1,0-0.3,0-0.4
		c-53.3-6.7-96.4,1.2-123.2,9c-17.4,5.1-30.3,10.8-38.2,14.7L169.6,307.2z"/>
	<path class="st112" d="M145.2,428.3c43-46.6,99.9-65.1,140.5-72.4c44.9-8.1,80.1-4.6,80.4-4.6c2.2,0.2,4.1-1.3,4.3-3.5
		c0.2-2.2-1.3-4.1-3.5-4.3c-1.5-0.2-36.4-3.7-82.4,4.6c-40.3,7.2-96.2,25.2-140.1,69.6L145.2,428.3z"/>
</g>
<path class="st113" d="M471.6,187.2c-12.1-32.2-29.8-63.1-51.2-89.3c-22.5-27.5-48.2-49.4-76.5-64.9C313.4,16.2,281.5,7.7,249,7.7
	c-4.7-0.2-54.2-1.4-81.4,24.6c-5.7,5.4-10,11.6-13,18.4c-3.4,7.9-10.2,14-18.5,16.1c-57.7,14.4-88.8,74.2-91.4,79.3
	C20.4,190.6,7.1,240.7,7.1,287.1c0,64.2,24.8,117.8,71.8,155c21.7,17.1,47.6,30.4,77,39.3c28.6,8.7,59.9,13.1,92.9,13.1
	s64.3-4.4,92.9-13.1c29.4-8.9,55.3-22.1,77-39.3c47-37.1,71.8-90.7,71.8-155C490.4,254.6,483.9,220.1,471.6,187.2z M214.9,227.9
	c-2.1,9.7-8.1,17.6-16.9,22.4c-9.8,5.4-17.7,13-22.7,22.2c-3.5,6.4-5.5,13.2-5.9,20.2c-0.7,11.1-7.7,19.8-13.5,25.2
	c-14.7,13.8-20.5,31.4-15.4,47.1l1,3.1c6.3,19.4,8.9,27.5,1.9,46.3c-2.7,7.2-3.3,13.8-2.7,19.8c0.9,7.8-7.3,13.5-14.3,10
	c-11.9-6-22.9-12.9-32.9-20.7c-41.1-32.5-62.9-79.7-62.9-136.5c0-42.6,12.4-88.7,34.8-129.8l0.2-0.4c0.3-0.7,35.3-69.6,95.8-69.6
	l0,0c5,0,9.7,2.5,12.6,6.7c22.2,32.4,56.3,71,72.9,89.2c2.1,2.3,1.3,5.9-1.5,7.1C221.6,200.6,214.9,227.9,214.9,227.9z M287.1,227.5
	c2.8,11.9,10,21.8,20.9,27.7c8.5,4.6,15.3,11.2,19.6,19.1c2.9,5.4,4.6,11,5,16.9c0.7,10.8,6.2,21.3,16,30.5
	c12.5,11.6,17.4,26.2,13.3,39l-1,3c-6.3,19.4-9.8,30.1-1.8,51.5c0.2,0.5,0.4,1,0.5,1.5c5.7,17.2-4.3,35.6-21.6,41.1
	c-27.1,8.6-57.3,13.1-89.3,13.1c-26.8,0-52.4-3.2-75.9-9.3c-8.6-2.2-16-7.8-20.3-15.6c-4.4-8.2-6-17.6-1.9-28.7
	c7.9-21.4,4.5-32.1-1.8-51.5l-1-3c-4.1-12.8,0.9-27.3,13.3-39c9.8-9.1,15.3-19.7,16-30.5c0.4-5.9,2.1-11.6,5-16.9
	c4.3-7.9,11.1-14.5,19.6-19.1c10.9-5.9,18.3-15.8,20.9-27.7c3.1-14.3,14-26.6,29.2-32.9l0,0c3.7-1.7,8.1-1.5,11.6,0.7
	C271,201.9,283.4,211.6,287.1,227.5z M183.8,49.4c20.6-20,64-18.2,64.4-18.2l0.5,0c28.6,0,56.8,7.5,83.8,22.4
	c25.6,14.1,49,34,69.6,59.2c40.5,49.6,64.7,114.8,64.7,174.4c0,56.8-21.7,104-62.9,136.5c-6.1,4.9-12.7,9.4-19.7,13.5
	c-6.6,3.9-15.1-0.9-15-8.6c0.1-5-0.8-10.4-2.9-16.1c-7-18.8-4.4-26.9,1.9-46.3l1-3.1c5.1-15.7-0.7-33.3-15.4-47.1
	c-5.8-5.4-12.8-14.1-13.5-25.2c-0.4-7-2.4-13.8-5.9-20.2c-5-9.2-12.9-16.9-22.7-22.2c-8.8-4.8-14.9-12.8-16.9-22.4
	c-3.3-15.4-14.3-28.8-29.7-36.6c-2.3-1.2-4.4-2.7-6.1-4.6c-12.1-13.1-54-59.2-79-96c-8.1-11.8-7.1-27.8,2.7-38.2
	C183,50.1,183.4,49.8,183.8,49.4z"/>
</svg>
