<?xml version="1.0" encoding="utf-8"?>
<!-- Generator: Adobe Illustrator 20.1.0, SVG Export Plug-In . SVG Version: 6.00 Build 0)  -->
<svg version="1.1" id="Layer_1" xmlns="http://www.w3.org/2000/svg" xmlns:xlink="http://www.w3.org/1999/xlink" x="0px" y="0px"
	 viewBox="0 0 500 500" style="enable-background:new 0 0 500 500;" xml:space="preserve">
<style type="text/css">
	.st0{fill:#8CA242;}
	.st1{fill:#1E3A06;}
	.st2{fill:#5A8116;}
	.st3{fill:#537016;}
	.st4{fill:none;stroke:#1E3A06;stroke-linecap:round;stroke-miterlimit:10;}
	.st5{opacity:0.6;fill:none;stroke:#8CA242;stroke-linecap:round;stroke-miterlimit:10;}
	.st6{fill:#502C3B;}
	.st7{fill:#260C19;}
	.st8{fill:#8F738E;stroke:#502C3B;stroke-width:3;stroke-miterlimit:10;}
	.st9{fill:#759C48;}
	.st10{opacity:0.8;fill:none;stroke:#759C48;stroke-width:3;stroke-miterlimit:10;}
	.st11{opacity:0.6;fill:none;stroke:#759C48;stroke-width:3;stroke-miterlimit:10;}
	.st12{opacity:0.4;fill:none;stroke:#759C48;stroke-width:3;stroke-miterlimit:10;}
	.st13{opacity:0.2;fill:none;stroke:#759C48;stroke-width:3;stroke-miterlimit:10;}
	.st14{opacity:0.1;fill:none;stroke:#759C48;stroke-width:3;stroke-miterlimit:10;}
	.st15{opacity:0.3;fill:#502C3B;}
	.st16{fill:none;stroke:#260C19;stroke-width:3;stroke-linecap:round;stroke-linejoin:round;stroke-miterlimit:10;}
	.st17{fill:none;stroke:#502C3B;stroke-width:2;stroke-linecap:round;stroke-miterlimit:10;}
	.st18{fill:#547F2D;}
	.st19{fill:#456A11;}
	.st20{fill:#E4E9A8;stroke:#19430C;stroke-width:6;stroke-linejoin:round;stroke-miterlimit:10;}
	.st21{fill:none;stroke:#FFFFFF;stroke-linecap:round;stroke-miterlimit:10;}
	.st22{fill:#457F4A;}
	.st23{fill:#344B57;}
	.st24{fill:#75B15D;stroke:#344B57;stroke-width:3;stroke-miterlimit:10;}
	.st25{fill:#BCE680;}
	.st26{fill:#F0FDC5;}
	.st27{fill:#1B5900;}
	.st28{fill:#ADE77A;stroke:#1B5900;stroke-width:6;stroke-miterlimit:10;}
	.st29{fill:#859C52;}
	.st30{fill:#709638;}
	.st31{fill:#D1A982;}
	.st32{fill:#ECE8DB;}
	.st33{fill:#5B3A03;}
	.st34{fill:#719E7F;stroke:#667F40;stroke-width:3;stroke-linecap:round;stroke-linejoin:round;stroke-miterlimit:10;}
	.st35{fill:#719E7F;stroke:#667F40;stroke-linecap:round;stroke-linejoin:round;stroke-miterlimit:10;}
	.st36{fill:none;stroke:#667F40;stroke-width:3;stroke-linecap:round;stroke-miterlimit:10;}
	.st37{fill:#4D6261;}
	.st38{fill:#ECE8DB;stroke:#5B3A03;stroke-width:3;stroke-miterlimit:10;}
	.st39{fill:none;stroke:#F0FDC5;stroke-linecap:round;stroke-linejoin:round;stroke-miterlimit:10;}
	.st40{fill:#8DC70C;}
	.st41{fill:#ECFE78;}
	.st42{fill:#73953B;}
	.st43{fill:#3D710C;}
	.st44{fill:#73953B;stroke:#3D710C;stroke-width:3;stroke-linejoin:round;stroke-miterlimit:10;}
	.st45{fill:#EFE8D7;stroke:#DABB95;stroke-width:3;stroke-linejoin:round;stroke-miterlimit:10;}
	.st46{opacity:0.6;fill:none;stroke:#BF71B0;stroke-width:3;stroke-miterlimit:10;}
	.st47{opacity:0.4;fill:none;stroke:#BF71B0;stroke-width:3;stroke-miterlimit:10;}
	.st48{opacity:0.3;fill:none;stroke:#BF71B0;stroke-width:3;stroke-miterlimit:10;}
	.st49{opacity:0.2;fill:none;stroke:#BF71B0;stroke-width:3;stroke-miterlimit:10;}
	.st50{opacity:0.1;fill:none;stroke:#BF71B0;stroke-width:3;stroke-miterlimit:10;}
	.st51{fill:#77A45B;}
	.st52{fill:none;stroke:#FFFFFF;stroke-linecap:round;stroke-linejoin:round;stroke-miterlimit:10;}
	.st53{fill:#00FFFF;}
	.st54{fill:#E50F4F;}
	.st55{fill:#5A8700;}
	.st56{fill:#9D9F01;}
	.st57{fill:none;stroke:#BFBF04;stroke-linecap:round;stroke-linejoin:round;stroke-miterlimit:10;}
	.st58{fill:none;stroke:#CAD058;stroke-linecap:round;stroke-linejoin:round;stroke-miterlimit:10;}
	.st59{fill:#E21039;stroke:#930019;stroke-width:3;stroke-linejoin:round;stroke-miterlimit:10;}
	.st60{fill:#77A45B;stroke:#3D710C;stroke-linecap:round;stroke-linejoin:round;stroke-miterlimit:10;}
	.st61{fill:none;stroke:#77A45B;stroke-width:3;stroke-miterlimit:10;}
	.st62{opacity:0.5;fill:none;stroke:#FFFFFF;stroke-width:3;stroke-linejoin:round;stroke-miterlimit:10;}
	.st63{opacity:0.7;fill:none;stroke:#FFFFFF;stroke-width:3;stroke-linejoin:round;stroke-miterlimit:10;}
	.st64{opacity:0.9;fill:none;stroke:#FFFFFF;stroke-width:3;stroke-linejoin:round;stroke-miterlimit:10;}
	.st65{opacity:0.3;fill:none;stroke:#FFFFFF;stroke-width:3;stroke-linejoin:round;stroke-miterlimit:10;}
	.st66{opacity:0.2;fill:none;stroke:#FFFFFF;stroke-width:3;stroke-linejoin:round;stroke-miterlimit:10;}
	.st67{fill:#E21039;}
	.st68{fill:#930019;}
	.st69{fill:#F4E5E8;}
	.st70{fill:#DEB2BA;}
	.st71{fill:#C8818D;}
	.st72{fill:#B14D5F;}
	.st73{fill:#FFFFFF;}
	.st74{fill:#EFE8D7;}
	.st75{fill:#8C7662;}
	.st76{fill:#E50F4F;stroke:#930019;stroke-width:3;stroke-linejoin:round;stroke-miterlimit:10;}
	.st77{fill:none;stroke:#E87C94;stroke-width:3;stroke-linejoin:round;stroke-miterlimit:10;}
	.st78{fill:none;stroke:#E64872;stroke-width:3;stroke-linejoin:round;stroke-miterlimit:10;}
	.st79{fill:none;stroke:#EBB2B6;stroke-width:3;stroke-linejoin:round;stroke-miterlimit:10;}
	.st80{fill:none;stroke:#930019;stroke-width:3;stroke-linejoin:round;stroke-miterlimit:10;}
	.st81{fill:#E87C94;}
	.st82{fill:#E64872;}
	.st83{fill:#EBB2B6;}
	.st84{opacity:0.7;fill:none;stroke:#E50F4F;stroke-width:3;stroke-linejoin:round;stroke-miterlimit:10;}
	.st85{opacity:0.6;fill:none;stroke:#E50F4F;stroke-width:3;stroke-linejoin:round;stroke-miterlimit:10;}
	.st86{opacity:0.4;fill:none;stroke:#E50F4F;stroke-width:3;stroke-linejoin:round;stroke-miterlimit:10;}
	.st87{opacity:0.3;fill:none;stroke:#E50F4F;stroke-width:3;stroke-linejoin:round;stroke-miterlimit:10;}
	.st88{opacity:0.2;fill:none;stroke:#E50F4F;stroke-width:3;stroke-linejoin:round;stroke-miterlimit:10;}
	.st89{opacity:0.1;fill:none;stroke:#E50F4F;stroke-width:3;stroke-linejoin:round;stroke-miterlimit:10;}
	.st90{fill:none;stroke:#DABB95;stroke-width:3;stroke-linejoin:round;stroke-miterlimit:10;}
	.st91{fill:#77A45B;stroke:#3D710C;stroke-width:0.9521;stroke-linecap:round;stroke-linejoin:round;stroke-miterlimit:10;}
	.st92{fill:#DABB95;}
	.st93{fill:#E76886;}
	.st94{fill:#E87D94;}
	.st95{fill:#E992A2;}
	.st96{fill:#EBA7AF;}
	.st97{fill:#ECBDBD;}
	.st98{fill:#EDD2CA;}
	.st99{opacity:0.6;fill:#BF71B0;}
	.st100{opacity:0.5;fill:#BF71B0;}
	.st101{opacity:0.4;fill:#BF71B0;}
	.st102{opacity:0.3;fill:#BF71B0;}
	.st103{opacity:0.2;fill:#BF71B0;}
	.st104{fill:#FCD24F;stroke:#BA8822;stroke-width:3;stroke-linejoin:round;stroke-miterlimit:10;}
	.st105{opacity:0.9;fill:none;stroke:#732429;stroke-width:3;stroke-miterlimit:10;}
	.st106{opacity:0.8;fill:none;stroke:#732429;stroke-width:3;stroke-miterlimit:10;}
	.st107{opacity:0.7;fill:none;stroke:#732429;stroke-width:3;stroke-miterlimit:10;}
	.st108{opacity:0.6;fill:none;stroke:#732429;stroke-width:3;stroke-miterlimit:10;}
	.st109{opacity:0.5;fill:none;stroke:#732429;stroke-width:3;stroke-miterlimit:10;}
	.st110{opacity:0.4;fill:none;stroke:#732429;stroke-width:3;stroke-miterlimit:10;}
	.st111{fill:none;stroke:#BA8822;stroke-width:3;stroke-linejoin:round;stroke-miterlimit:10;}
	.st112{fill:#FCD24F;}
	.st113{fill:#BA8822;}
	.st114{fill:#80352F;}
	.st115{fill:#8D4734;}
	.st116{fill:#9B5838;}
	.st117{fill:#A96A3D;}
	.st118{fill:#B77A42;}
	.st119{fill:#C48B47;}
	.st120{fill:#5B774B;}
	.st121{fill:none;stroke:#ECFE78;stroke-linecap:round;stroke-linejoin:round;stroke-miterlimit:10;}
	.st122{fill:none;stroke:#5B774B;stroke-miterlimit:10;}
	.st123{fill:none;stroke:#ECFE78;stroke-linecap:round;stroke-miterlimit:10;}
	.st124{fill:none;stroke:#5B774B;stroke-linejoin:round;stroke-miterlimit:10;}
	.st125{fill:none;stroke:#89A037;stroke-linecap:round;stroke-linejoin:round;stroke-miterlimit:10;}
	.st126{fill:none;stroke:#89A037;stroke-width:3;stroke-linecap:round;stroke-linejoin:round;stroke-miterlimit:10;}
	.st127{fill:none;stroke:#89A037;stroke-width:3.3343;stroke-linecap:round;stroke-linejoin:round;stroke-miterlimit:10;}
	.st128{fill:none;stroke:#89A037;stroke-width:3;stroke-linecap:round;stroke-miterlimit:10;}
	.st129{fill:#839958;}
	.st130{fill:#AA2F66;}
	.st131{fill:#D8CBC5;}
	.st132{fill:#662128;}
	.st133{fill:#A3CA44;stroke:#89A037;stroke-width:3;stroke-miterlimit:10;}
	.st134{fill:#ECE8DB;stroke:#5B3A03;stroke-miterlimit:10;}
	.st135{fill:none;stroke:#00FF00;stroke-miterlimit:10;}
	.st136{fill:none;stroke:#00FF00;stroke-width:1.0757;stroke-miterlimit:10;}
	.st137{clip-path:url(#SVGID_2_);}
	.st138{fill:none;stroke:#000000;stroke-miterlimit:10;}
	.st139{fill:none;stroke:#000000;stroke-width:1.16;stroke-miterlimit:10;}
	.st140{fill:#7AA66D;}
	.st141{fill:#8BC133;}
	.st142{fill:none;stroke:#000000;stroke-width:0.9135;stroke-miterlimit:10;}
	.st143{fill:none;stroke:#000000;stroke-width:5.9645;stroke-miterlimit:10;}
	.st144{fill:none;stroke:#000000;stroke-width:1.9086;stroke-linecap:round;stroke-linejoin:round;stroke-miterlimit:10;}
	.st145{fill:#275439;}
	.st146{fill:none;stroke:#4D6261;stroke-width:0.9577;stroke-linecap:round;stroke-linejoin:round;stroke-miterlimit:10;}
	.st147{fill:#7AA66D;stroke:#4D6261;stroke-width:0.9577;stroke-miterlimit:10;}
	.st148{fill:none;stroke:#4D6261;stroke-width:0.9577;stroke-miterlimit:10;}
	.st149{fill:#D2DE8F;stroke:#667F40;stroke-width:3;stroke-miterlimit:10;}
	.st150{fill:none;stroke:#FAFAEE;stroke-linecap:round;stroke-miterlimit:10;}
	.st151{fill:#D2DE8F;}
	.st152{fill:none;stroke:#667F40;stroke-width:3;stroke-miterlimit:10;}
	.st153{fill:#77A578;}
	.st154{fill:#719E7F;}
	.st155{fill:#FAFAEE;}
	.st156{fill:#174C17;}
	.st157{fill:#ECE8DB;stroke:#5B3A03;stroke-width:0.9644;stroke-miterlimit:10;}
	.st158{fill:#7AA66D;stroke:#4D6261;stroke-width:3.6;stroke-linecap:round;stroke-linejoin:round;stroke-miterlimit:10;}
	.st159{fill:none;stroke:#D2DE8F;stroke-miterlimit:10;}
	.st160{fill:none;stroke:#4D6261;stroke-width:3.6;stroke-linecap:round;stroke-linejoin:round;stroke-miterlimit:10;}
	.st161{fill:#ECE8DB;stroke:#5B3A03;stroke-linecap:round;stroke-linejoin:round;stroke-miterlimit:10;}
	.st162{fill:#FAD673;}
	.st163{fill:#CE731F;}
	.st164{fill:#D15CD4;}
	.st165{fill:#701975;}
	.st166{fill:#009245;stroke:#006837;stroke-width:3;stroke-miterlimit:10;}
	.st167{fill:#009245;stroke:#006837;stroke-width:3;stroke-linecap:round;stroke-linejoin:round;stroke-miterlimit:10;}
	.st168{fill:none;stroke:#B8CC69;stroke-width:3;stroke-miterlimit:10;}
	.st169{fill:#4E6624;stroke:#314217;stroke-width:3;stroke-miterlimit:10;}
	.st170{fill:none;stroke:#314217;stroke-miterlimit:10;}
	.st171{fill:#4E6624;}
	.st172{fill:#709638;stroke:#3B7000;stroke-width:3;stroke-linecap:round;stroke-linejoin:round;stroke-miterlimit:10;}
	.st173{fill:#709638;stroke:#3B7000;stroke-linecap:round;stroke-linejoin:round;stroke-miterlimit:10;}
	.st174{fill:#92C057;}
	.st175{fill:#3B7000;}
	.st176{fill:#325900;}
	.st177{fill:#2A784B;stroke:#1F4130;stroke-width:3;stroke-miterlimit:10;}
	.st178{fill:none;stroke:#1F4130;stroke-linecap:round;stroke-linejoin:round;stroke-miterlimit:10;}
	.st179{fill:#2A784B;stroke:#1F4130;stroke-miterlimit:10;}
	.st180{fill:#D7D8DA;stroke:#1F4130;stroke-linecap:round;stroke-linejoin:round;stroke-miterlimit:10;}
	.st181{fill:none;stroke:#1F4130;stroke-width:3;stroke-miterlimit:10;}
	.st182{fill:#2A784B;}
	.st183{fill:#1F4130;}
	.st184{fill:#D7D8DA;}
	.st185{fill:#499623;}
	.st186{fill:none;stroke:#499623;stroke-miterlimit:10;}
	.st187{fill:#4C9D29;stroke:#1B5900;stroke-miterlimit:10;}
	.st188{fill:none;stroke:#ADE77A;stroke-width:2;stroke-linecap:round;stroke-miterlimit:10;}
	.st189{fill:none;stroke:#ADE77A;stroke-linecap:round;stroke-miterlimit:10;}
	.st190{fill:#4C9D29;}
	.st191{fill:none;stroke:#FFFFFF;stroke-width:7.8254;stroke-linecap:round;stroke-miterlimit:10;}
	.st192{fill:#ADE77A;}
	.st193{fill:#4F7F51;stroke:#344B57;stroke-miterlimit:10;}
	.st194{fill:#649160;stroke:#344B57;stroke-miterlimit:10;}
	.st195{fill:#78A36F;stroke:#344B57;stroke-miterlimit:10;}
	.st196{fill:#3A6D40;}
	.st197{opacity:0.75;fill:#344B57;stroke:#8CB77C;stroke-width:4;stroke-miterlimit:10;}
	.st198{opacity:0.5;fill:#344B57;stroke:#8CB77C;stroke-width:4;stroke-miterlimit:10;}
	.st199{opacity:0.25;fill:#344B57;stroke:#8CB77C;stroke-width:4;stroke-miterlimit:10;}
	.st200{opacity:0.8;fill:none;stroke:#C5E2D6;stroke-linecap:round;stroke-miterlimit:10;}
	.st201{opacity:0.8;fill:none;stroke:#C5E2D6;stroke-miterlimit:10;}
	.st202{fill:#8CB77C;stroke:#344B57;stroke-miterlimit:10;}
	.st203{opacity:0.8;fill:#C5E2D6;}
	.st204{fill:#4F7F51;}
	.st205{fill:#649160;}
	.st206{fill:#78A36F;}
	.st207{fill:#8CB77C;}
	.st208{fill:#C0DECD;}
	.st209{fill:none;stroke:#C5E2D6;stroke-width:7.8769;stroke-linecap:round;stroke-miterlimit:10;}
	.st210{fill:#AFCEB8;}
	.st211{fill:#9FC1A8;}
	.st212{fill:#77A47F;}
	.st213{fill:none;stroke:#77A47F;stroke-width:0.9699;stroke-miterlimit:10;}
	.st214{fill:#BCE680;stroke:#839958;stroke-width:3;stroke-miterlimit:10;}
	.st215{fill:none;stroke:#839958;stroke-miterlimit:10;}
	.st216{fill:none;stroke:#F0FDC5;stroke-miterlimit:10;}
	.st217{fill:none;stroke:#F0FDC5;stroke-linecap:round;stroke-miterlimit:10;}
	.st218{fill:none;stroke:#F0FDC5;stroke-width:0.8753;stroke-miterlimit:10;}
	.st219{fill:#A3CA44;}
	.st220{fill:none;stroke:#859C52;stroke-linecap:round;stroke-miterlimit:10;}
	.st221{fill:none;stroke:#E4E9A8;stroke-width:3;stroke-linecap:round;stroke-miterlimit:10;}
	.st222{fill:none;stroke:#AFCEB8;stroke-width:3;stroke-linecap:square;stroke-miterlimit:10;}
	.st223{fill:none;stroke:#AFCEB8;stroke-width:3;stroke-miterlimit:10;}
	.st224{fill:none;stroke:#E4E9A8;stroke-linecap:round;stroke-miterlimit:10;}
	.st225{fill:#19430C;}
	.st226{fill:#E4E9A8;}
	.st227{fill:#89A037;}
	.st228{fill:#009245;stroke:#006837;stroke-miterlimit:10;}
	.st229{fill:#547F2D;stroke:#27460A;stroke-miterlimit:10;}
	.st230{fill:#27460A;}
	.st231{fill:none;stroke:#9577B0;stroke-width:3;stroke-linecap:round;stroke-miterlimit:10;}
	.st232{fill:none;stroke:#9577B0;stroke-linecap:round;stroke-miterlimit:10;}
	.st233{fill:#AF77AF;}
	.st234{opacity:0.6;}
	.st235{fill:none;stroke:#AF77AF;stroke-width:2.4947;stroke-linecap:round;stroke-miterlimit:10;}
	.st236{fill:none;stroke:#AF77AF;stroke-width:2.1763;stroke-linecap:round;stroke-miterlimit:10;}
	.st237{fill:#9C8EBB;}
	.st238{fill:#8F738E;}
	.st239{fill:none;stroke:#260C19;stroke-linecap:round;stroke-linejoin:round;stroke-miterlimit:10;}
	.st240{fill:none;stroke:#5E3648;stroke-width:2;stroke-linecap:round;stroke-miterlimit:10;}
	.st241{fill:none;stroke:#502C3B;stroke-width:3;stroke-linecap:round;stroke-linejoin:round;stroke-miterlimit:10;}
	.st242{fill:none;stroke:#D0DDC8;stroke-linecap:round;stroke-miterlimit:10;}
	.st243{fill:none;stroke:#D0DDC8;stroke-miterlimit:10;}
	.st244{fill:#5E3648;}
	.st245{fill:#7B5F75;}
	.st246{fill:#6A7947;}
	.st247{fill:#6D7450;}
	.st248{fill:#716F59;}
	.st249{fill:#756962;}
	.st250{fill:#78636B;}
	.st251{fill:#796070;}
	.st252{fill:#7A9359;}
	.st253{fill:#7F8B66;}
	.st254{fill:#858373;}
	.st255{fill:#8A7B80;}
	.st256{fill:#8C7787;}
	.st257{fill:#314217;}
	.st258{fill:#4E6624;stroke:#314217;stroke-miterlimit:10;}
	.st259{fill:none;stroke:#314217;stroke-linecap:round;stroke-linejoin:round;stroke-miterlimit:10;}
	.st260{fill:#4E6624;stroke:#314217;stroke-linecap:round;stroke-miterlimit:10;}
	.st261{fill:none;stroke:#314217;stroke-linecap:round;stroke-miterlimit:10;}
	.st262{fill:none;stroke:#8CA242;stroke-width:2;stroke-linecap:round;stroke-miterlimit:10;}
	.st263{fill:#538E00;}
	.st264{fill:#395415;}
	.st265{fill:#758D37;}
	.st266{fill:#3D5D16;}
	.st267{fill:#789438;}
	.st268{fill:#593D52;}
	.st269{fill:#66445A;}
	.st270{opacity:0.5;fill:#260C19;}
	.st271{opacity:0.2;fill:#FFFFFF;}
	.st272{fill:#723D5F;}
	.st273{fill:none;stroke:#1E3A06;stroke-width:8;stroke-miterlimit:10;}
	.st274{opacity:0.4;}
	.st275{fill:none;stroke:#FFFFFF;stroke-width:8;stroke-linecap:round;stroke-miterlimit:10;}
	.st276{opacity:0.4;fill:none;stroke:#FFFFFF;stroke-width:7.9751;stroke-linecap:round;stroke-miterlimit:10;}
	.st277{opacity:0.4;fill:#FFFFFF;}
	.st278{opacity:0.6;fill:#FFFFFF;}
</style>
<path class="st18" d="M251.9,486.8c-10.4,0-19.4-7.1-21.8-17.2L216,410.7c-3.4-1.2-7.1-2.1-11.1-2.7c-18.8-2.6-23.6-13.1-24.8-19.2
	c-0.5-2.7-0.6-6.4,1.4-10.6c-22.5-3.4-59.7-12.4-60.1-35c-0.1-4,1.1-10,7.2-16.1c0.2-0.2,0.7-0.7,0.5-2c-0.2-1-0.9-2.2-2.3-2.7
	c-25.5-9.7-55.2-25.7-52.3-47.2c1.3-9.7,8.9-17.4,22.3-22.8c1.7-0.7,2.1-2.1,2.2-2.9c0.1-0.9-0.1-2.1-1.4-3l-0.4-0.3
	c-20.2-14.1-40.6-33.3-54.6-51.4c-18.4-23.6-23.4-41.8-14.9-53.9c4.8-6.9,13-10.4,24.5-10.4c2.5,0,5.2,0.2,8.1,0.5
	C47.7,111.6,30.8,78.8,47,63.9c2.6-2.4,7.4-5.3,14.9-5.3c7.7,0,17.3,3.1,28.4,9.1c-1.9-10.2-0.1-17.8,5.6-22.7
	c2.3-2,6.4-4.4,12.5-4.4c6.2,0,13.7,2.5,22.3,7.3c-1-16.8,3-27.1,11.9-30.9c0.6-0.3,1.2-0.5,1.8-0.6c0,0,0.1,0,0.1,0
	c1.3-0.3,2.6-0.5,3.9-0.5c11.8,0,19,12,23,21.9c8.3-12.4,16.6-18.5,25.3-18.5c1.4,0,2.8,0.2,4.2,0.5c7.3,1.8,12.4,7.8,15.3,17.7
	c10.8-15.7,21.4-23.7,31.7-23.7c1.8,0,3.5,0.2,5.2,0.7c8.5,2.4,14.2,9.9,17.2,22.4c8.4,2,16.8,9.3,25.2,22c3.1-8.9,8.1-14.2,15-15.7
	c1.2-0.3,2.4-0.4,3.7-0.4c8.5,0,16.4,5.9,24.1,17.9c6.4-13.2,13.9-19.8,22.5-19.8c0.5,0,0.9,0,1.4,0.1c0.5,0,1,0.1,1.4,0.2
	c0.1,0,0.2,0,0.3,0.1c0.1,0,0.2,0.1,0.3,0.1c5.3,1.4,14.2,6.6,13.5,25.1c-0.1,1.5-0.2,3-0.3,4.5c7.6-3.9,14.2-5.9,19.7-5.9
	c6.3,0,10.4,2.5,12.7,4.6c5.2,4.8,7,11.8,5.2,21.1c10-5,18.6-7.5,25.6-7.5c7.7,0,12.5,3,15.1,5.6c15.1,14.6-1,44.7-13.4,63.2
	c1.8-0.1,3.5-0.2,5.2-0.2c11.8,0,20.1,3.6,24.8,10.7c7.9,11.9,2.7,29.2-15.5,51.4c-13.8,16.9-33.7,34.7-53.2,47.6l-0.4,0.3
	c-0.8,0.6-1.2,1.3-1.1,2.3c0.1,0.7,0.4,1.7,1.7,2.3c12.9,5.6,20,13.2,21,22.6c2.3,20.9-26.5,35.5-51.1,44.2
	c-1.1,0.4-1.7,1.4-1.9,2.1c-0.2,0.9,0.1,1.2,0.2,1.4c5.8,6,6.8,11.9,6.6,15.8c-0.4,10-8.3,18.1-23.4,24c-9.2,3.6-21.2,6.5-34.2,8.2
	c1.5,3.9,1.4,7.3,0.8,9.7c-3.5,15.4-20.8,17.9-28.1,18.3c-1.9,0.1-3.9,0.4-5.8,1l-14.8,55.8c-2,8.2-8.3,14.6-16.6,16.5
	C255.4,486.6,253.7,486.8,251.9,486.8z"/>
<g>
	<path class="st233" d="M209.2,332.2c-11.7-4.6-28.5-12.7-42.7-24.8c-19.6-16.7-45.5-24.2-45.8-24.3c-3-0.9-4.8-4.1-3.9-7.1
		c0.7-2.4,3-4.2,5.5-4.2c0.5,0,1.1,0.1,1.6,0.2c1.2,0.3,28.6,8.3,50,26.6c8.2,7,18.5,13.3,30.6,18.9l0.7,0.3l0.3,0.8
		c1.2,3.1,3.2,6.6,6.1,10.4l4.4,5.7L209.2,332.2z"/>
</g>
<g>
	<path class="st233" d="M191.5,251.4c-1.5-6.8-6.1-12.5-12.4-15.4c-15.2-6.8-28.2-14.8-38.6-23.7c-21.7-18.4-50.5-26.9-50.8-27
		c-3-0.9-4.8-4.1-3.9-7.1c0.7-2.4,3-4.2,5.5-4.2c0.5,0,1.1,0.1,1.6,0.2c1.3,0.4,31.4,9.1,55.1,29.3c8.6,7.3,19.2,14,31.7,20
		c0.5,0.2,1,0.4,1.5,0.4c1,0,2.1-0.5,2.8-1.3c0.7-0.8,0.9-1.9,0.7-2.9l-12.5-57c-1.6-7.1-6.3-13.1-13-16.3
		c-7.3-3.5-13.6-7.5-18.8-11.9c-11-9.3-25.6-13.6-25.8-13.7c-3-0.9-4.8-4.1-3.9-7.1c0.7-2.4,3-4.2,5.5-4.2c0.5,0,1.1,0.1,1.6,0.2
		c0.7,0.2,17.2,5,30,16c3.4,2.9,7.4,5.6,12.1,8.1c0.5,0.3,1.1,0.4,1.7,0.4c1,0,2.1-0.5,2.8-1.3c0.7-0.8,0.9-1.9,0.7-2.9l-10-45.5
		c-0.2-0.6-0.3-1.1-0.3-1.7c0-3.2,2.6-5.9,5.8-5.9l0.2,0c3.5,0.1,5.2,2.7,5.6,4.1l23.3,89.8c0.5,1.8,2.1,2.6,3.4,2.6
		c1,0,2-0.4,2.7-1.3c4.1-4.9,7.6-9.7,10.4-14.5l2.9-5l0.8,5.7c0.4,2.6,1.4,5.1,3,7.2l0.4,0.5l0.1,1.9l-0.4,0.5
		c-2.9,4.4-6.2,8.7-9.9,13c-5.1,5.8-6.9,13.8-4.9,21.3l6.2,23.8l-1.7,0.6c-2.6,1-4.6,2.4-6,4.3c-3.6,4.9-3,12.4,1.6,22.4
		c4,8.6,11,18.8,20.3,29.5c0.2,0.2,0.4,0.5,0.5,0.7l0.3,0.4l2.1,8l0,0.4c-0.1,0.8-0.2,1.5-0.4,2.1c-1.1,3.7-3.7,6.4-7.3,7.5
		c-2.8,0.8-4.9,2-6.4,3.7l-2.6,2.8L191.5,251.4z"/>
</g>
<g class="st234">
	<g>
		<path class="st73" d="M71.3,177.9c-0.3,0-0.7,0-1-0.1c-2-0.6-3.1-2.6-2.6-4.6c3-10.4,12.7-17.7,23.5-17.7c2.1,0,3.8,1.7,3.8,3.8
			s-1.7,3.8-3.8,3.8c-7.5,0-14.2,5.1-16.3,12.3C74.5,176.8,73,177.9,71.3,177.9z"/>
	</g>
	<g>
		<path class="st73" d="M96.1,113.4c-0.3,0-0.7,0-1-0.1c-2-0.6-3.1-2.6-2.6-4.6c3-10.5,12.7-17.7,23.5-17.7c2.1,0,3.8,1.7,3.8,3.8
			s-1.7,3.8-3.8,3.8c-7.5,0-14.3,5.1-16.3,12.3C99.3,112.3,97.8,113.4,96.1,113.4z"/>
	</g>
</g>
<g>
	<path class="st233" d="M251.9,477.6c-6.1,0-11.4-4.2-12.8-10.1l-29.7-134.8l3.5-1.7c5.5,6.8,13.6,14.3,23.2,21.7l0.5,0.4l3.4,13
		l-1.4,0.7c-2.2,1.2-3.6,2.7-4.2,4.6c-1,3.3-1.2,10,8.9,17.5c0.9,0.7,1.8,1.4,2.8,2.2l0.5,0.4l18.1,69.8c1.7,7.1-2.7,14.3-9.8,16
		C254,477.4,253,477.6,251.9,477.6z"/>
</g>
<g class="st234">
	<g>
		<path class="st73" d="M156.5,273.2c-0.6,0-1.2-0.1-1.7-0.4c-6.1-3.2-12.5-6-18.9-8.4c-1.9-0.7-2.9-2.9-2.2-4.8
			c0.7-1.9,2.9-2.9,4.8-2.2c6.7,2.5,13.4,5.5,19.8,8.8c1.8,1,2.6,3.2,1.6,5.1C159.2,272.4,157.9,273.2,156.5,273.2z"/>
	</g>
</g>
<path class="st7" d="M198.9,223.6l-5.1-19.7c-2.3-8.8-0.1-18.2,5.8-25c3.3-3.8,6.3-7.7,8.9-11.5c1.3,2.5,3.1,4.8,5.1,6.7
	c-2.4,3.4-5.1,6.8-8,10.1c-4.2,4.8-5.7,11.4-4.1,17.7l5.2,19.9L198.9,223.6z"/>
<path class="st7" d="M206.5,300.8l-7.9-35.9l-9.7-26.7c-2.3-2.4-5.1-4.4-8.2-5.8c-14.8-6.7-27.5-14.4-37.7-23.1
	c-22.4-19-52-27.7-52.3-27.8c-0.9-0.3-1.4-1.2-1.2-2.1c0.2-0.7,0.9-1.3,1.7-1.3c0.2,0,0.3,0,0.5,0.1c1.2,0.4,30.5,8.9,53.6,28.5
	c8.8,7.5,19.8,14.4,32.6,20.5c1,0.5,2.1,0.8,3.3,0.8c2.2,0,4.4-1.1,5.9-2.8c1.4-1.8,2-4.1,1.5-6.3l-12.5-57
	c-1.8-8.4-7.4-15.3-15.2-19c-7-3.3-13-7.1-17.9-11.3c-11.7-9.9-27.1-14.4-27.3-14.5c-0.9-0.3-1.5-1.2-1.2-2.1
	c0.3-0.9,1.3-1.4,2.1-1.2c0.7,0.2,16.3,4.8,28.6,15.2c3.6,3,7.9,5.9,12.8,8.6c1.1,0.6,2.3,0.9,3.6,0.9c2.2,0,4.4-1.1,5.9-2.8
	c1.4-1.8,2-4.1,1.5-6.3l-10-45.5l-0.1-0.3c-0.1-0.3-0.1-0.4-0.1-0.5c0-1,0.8-1.9,1.7-1.9l0.1,0c1.4,0,1.8,1.1,1.8,1.1v0l23.3,89.8
	c0.9,3.3,3.9,5.6,7.3,5.6c2.2,0,4.3-1,5.7-2.7c3.1-3.7,5.9-7.4,8.3-11.1l-1.2-13.6l-3.3,5.6c-1.6,2.7-3.4,5.4-5.4,8.1
	c-1.6,2.1-5,1.5-5.6-1.1L169.9,80c-0.9-3.3-4.2-6.9-9.4-7l-0.2,0c-5.4,0-9.8,4.4-9.8,9.9c0,0.9,0.1,1.8,0.4,2.7l8.1,36.9
	c0.6,2.8-2.6,4.9-5,3.3c-1.4-1-2.7-2-3.9-3c-13.6-11.5-30.8-16.6-31.5-16.8c-0.9-0.2-1.8-0.4-2.7-0.4c-4.3,0-8.2,2.9-9.4,7.1
	c-1.5,5.2,1.5,10.6,6.7,12c0.1,0,14,4.2,24.3,12.9c5.4,4.6,12,8.8,19.7,12.4c5.6,2.6,9.5,7.6,10.8,13.5L179,213
	c0.6,2.6-2.2,4.8-4.6,3.5c-9.2-4.9-17.2-10.2-23.9-15.9c-24.3-20.7-55.3-29.7-56.6-30.1c-0.9-0.2-1.8-0.4-2.7-0.4
	c-4.3,0-8.2,2.9-9.4,7.1c-1.5,5.2,1.5,10.6,6.7,12c0.3,0.1,28.4,8.4,49.3,26.2c10.8,9.1,24.1,17.3,39.6,24.3c5.2,2.3,9,7,10.2,12.6
	l12.3,56L206.5,300.8z"/>
<path class="st7" d="M204.6,326c-10.7-4.7-24-11.8-35.5-21.5c-20.3-17.3-47-25-47.3-25.1c-0.9-0.3-1.5-1.2-1.2-2.1
	c0.2-0.7,0.9-1.3,1.7-1.3c0.2,0,0.3,0,0.5,0.1c1.1,0.3,27.7,8.1,48.5,25.8c8.3,7.1,18.6,13.5,30.7,19.2l-0.6-9.2
	c-9.7-4.9-18.1-10.3-24.9-16.1c-22.1-18.8-50.3-27-51.5-27.4c-0.9-0.2-1.8-0.4-2.7-0.4c-4.3,0-8.2,2.9-9.4,7.1
	c-1.5,5.2,1.5,10.6,6.7,12c0.3,0.1,25.4,7.5,44.3,23.5c14.6,12.4,31.9,20.7,43.9,25.4l5.6,2.2L204.6,326z"/>
<path class="st233" d="M252,477.4c-1.1,0-2.3-0.2-3.4-0.4c-3.4-0.9-6.3-3.1-8-6.1c-1.8-3.1-2.2-6.6-1.3-10l47.1-164.2
	c1.1-3.7,0.1-7.8-2.6-10.7c-4.8-5.1-11.7-13.8-16.7-25.9c-5.5-13.3-16.4-23.8-16.5-23.9c-1.1-1-1.7-2.5-1.8-4s0.5-3,1.6-4.1
	c1.1-1.1,2.6-1.8,4.2-1.8c1.5,0,2.9,0.6,3.9,1.6c0.5,0.5,12.8,12.2,19.2,27.9c2.2,5.4,5.5,11,9.9,16.7c0.9,1.2,2.1,1.4,2.8,1.4
	c1.3,0,2.9-0.8,3.4-2.6l17.8-62.2c0.7-2.5,0.1-5.1-1.6-6.9c-5.6-6.1-16-18.7-22.1-33.6c-6.9-17-20.9-30.4-21.1-30.6
	c-2.3-2.2-2.4-5.8-0.2-8.1c1.1-1.1,2.6-1.8,4.2-1.8c1.5,0,2.9,0.6,3.9,1.6c0.6,0.6,15.9,15.2,23.8,34.5c3,7.3,7.6,15,13.7,22.8
	c0.7,0.9,1.7,1.3,2.7,1.3c1.3,0,2.9-0.8,3.4-2.6l23.6-82.3c0.2-0.6,0.4-1.2,0.8-1.7c1.2-1.8,2.8-2.8,4.5-2.8c0.3,0,0.5,0,0.8,0.1
	c3.7,0.6,4.9,2.9,5.3,4.2c0.3,1,0.3,2.1,0.1,3.3L343,148.1c-0.3,1.1,0,2.1,0.6,3c0.7,0.9,1.7,1.4,2.8,1.4c0.6,0,1.1-0.1,1.7-0.4
	c3.3-1.8,6.3-3.7,8.8-5.7c12.8-10,28.6-13.9,29.2-14c0.4-0.1,0.9-0.2,1.4-0.2c2.7,0,4.9,1.8,5.6,4.4c0.4,1.5,0.1,3-0.7,4.3
	c-0.8,1.3-2.1,2.2-3.5,2.6c-0.1,0-14.2,3.6-24.8,11.9c-7.6,6-16.4,9.9-22.5,12.2c-2.2,0.8-3.9,2.7-4.5,5.1l-15.3,62.5
	c-0.3,1.1,0,2.1,0.6,3c0.7,0.9,1.7,1.4,2.8,1.4c0.5,0,0.9-0.1,1.4-0.3c13.3-5.4,24.7-11.8,33.9-19c23.3-18.2,52.2-25.4,53.5-25.6
	c0.4-0.1,0.9-0.2,1.4-0.2c2.7,0,4.9,1.8,5.6,4.4c0.7,3.1-1.1,6.2-4.2,6.9c-0.3,0.1-27.8,6.9-49.1,23.5
	c-15.7,12.3-34.1,20.1-46.8,24.4c-2.3,0.8-4.1,2.7-4.7,5.2l-15.2,61.9c-0.4,1.5,0.2,2.5,0.6,3c0.7,0.9,1.7,1.4,2.8,1.4
	c0.5,0,0.9-0.1,1.4-0.3c10.3-4.5,19.2-9.7,26.5-15.4c21.1-16.5,47.5-23,48.6-23.3c0.4-0.1,0.9-0.2,1.4-0.2c2.7,0,4.9,1.8,5.6,4.4
	c0.7,3.1-1.1,6.2-4.2,6.9c-0.3,0.1-25,6.2-44.2,21.2c-9.2,7.2-20.4,13.5-33.4,18.8c-6.2,2.5-10.9,7.9-12.5,14.4l-28.4,115.8
	C263.2,473.4,257.9,477.4,252,477.4z"/>
<g class="st234">
	<path class="st73" d="M266.6,314.7c-0.3,0-0.7,0-1-0.1c-2-0.6-3.1-2.6-2.6-4.6l3.4-11.8c0.6-2,2.7-3.1,4.6-2.6
		c2,0.6,3.1,2.6,2.6,4.6l-3.4,11.8C269.7,313.7,268.2,314.7,266.6,314.7z"/>
</g>
<g class="st234">
	<path class="st73" d="M332.1,294.9c-1.2,0-2.4-0.6-3.2-1.7c-1.1-1.7-0.6-4.1,1.1-5.2c15.4-9.9,31.2-15.5,39.2-18
		c2-0.6,4.1,0.5,4.7,2.5c0.6,2-0.5,4.1-2.5,4.7c-7.7,2.4-22.7,7.8-37.4,17.2C333.5,294.7,332.8,294.9,332.1,294.9z"/>
</g>
<g class="st234">
	<path class="st73" d="M385.3,192.5c-1.5,0-2.8-0.9-3.4-2.3c-0.8-1.9,0.1-4.1,2-4.9c8.2-3.5,15.3-5.9,19.8-7.2
		c2-0.6,4.1,0.5,4.7,2.5c0.6,2-0.5,4.1-2.5,4.7c-4.3,1.3-11.1,3.5-19,6.9C386.2,192.4,385.7,192.5,385.3,192.5z"/>
</g>
<g class="st234">
	<path class="st73" d="M351.1,212.3c-1.1,0-2.2-0.5-3-1.4c-1.3-1.6-1-4,0.6-5.3c3.1-2.4,6.4-4.7,9.8-7c1.7-1.1,4.1-0.6,5.2,1.1
		c1.1,1.7,0.6,4.1-1.1,5.2c-3.2,2.1-6.3,4.3-9.2,6.6C352.7,212,351.9,212.3,351.1,212.3z"/>
</g>
<g class="st234">
	<path class="st73" d="M317.4,137.9c-0.3,0-0.7,0-1-0.1c-2-0.6-3.1-2.6-2.6-4.6l7.3-25.5c0.6-2,2.7-3.1,4.6-2.6
		c2,0.6,3.1,2.6,2.6,4.6l-7.3,25.5C320.5,136.8,319,137.9,317.4,137.9z"/>
</g>
<path class="st230" d="M281.4,27.3c-2-1.9-3.7-4.1-5.1-6.5c-5.8-11-14.1-15.3-20.2-17c-2.7-0.7-5.4-1.1-8.2-1.1c0,0,0,0,0,0
	c-8,0-15.8,3-23.4,8.9c-3.6,2.9-8.7,3.3-12.7,0.8c-2.8-1.7-5.6-2.8-8.3-3.5c-2.2-0.6-4.5-0.8-6.9-0.8c-5.7,0-11.2,1.6-16.4,4.8
	c-4.1,2.5-9.3,2.1-13-1c-6.6-5.6-13.4-7.1-18.9-7.1c-2.1,0-4.2,0.2-6.3,0.7c-1.4,0.3-2.8,0.8-4.2,1.4c-4.6,2-11.1,6.4-15,15.7
	c-1.9,4.5-6.4,7.4-11.3,7c-1.1-0.1-2.2-0.1-3.3-0.1c-7.6,0-14.5,2.5-19.9,7.1c-2.1,1.8-4.1,4-5.8,6.9c-2.4,4-7.2,5.9-11.7,5
	c-3.2-0.6-6.3-1-9.2-1c-11.1,0-18.4,4.5-22.5,8.3c-7.5,6.9-14.7,20.3-6.8,45c1,3.1,2.2,6.1,3.4,9.1c2.3,5.4,0,11.6-5.3,14.3
	c-5.9,3-9.7,7-12.3,10.6c-4.9,7.1-9.4,19.4-2.3,37.8c3.4,8.9,9.3,18.8,17.6,29.4c10.3,13.3,23.9,27.1,38.3,39.3
	c4.2,3.5,4.5,9.8,0.7,13.7c-6.3,6.5-8.7,13.4-9.5,19c-1.3,9.8,1.2,24.6,20.8,39.2c6.7,5,14.4,9.3,21.9,12.9c3.8,1.8,5.9,6,4.9,10
	c-0.7,2.8-0.9,5.4-0.8,7.6c0.1,6.6,2.4,16.3,12.8,25.1c4.9,4.2,11.1,7.7,19,10.9c6.7,2.7,14.6,5.1,23.2,7c1.9,0.4,3.5,2,3.8,4
	c0,0.2,0.1,0.3,0.1,0.5c1.7,8.2,6.5,15.5,13.6,20.4c5.5,3.9,12.5,6.4,20.6,7.6c2,0.3,3.7,1.8,4.1,3.7l11.8,49.3
	c3.6,15.2,17.1,25.8,32.7,25.8c2.6,0,5.3-0.3,7.8-0.9c12.3-3,21.8-12.4,24.8-24.7l12.2-45.8c0.4-1.7,1.8-2.9,3.6-3.1
	c6.6-0.9,12.4-2.7,17.3-5.6c8.2-4.7,13.8-12.2,15.8-21l0,0c0.4-1.7,1.7-3,3.4-3.3c7.6-1.5,15.7-3.7,23.2-6.6
	c24.4-9.6,30-23.8,30.5-34c0.1-1.3,0-2.7-0.1-4.2c-0.5-5.5,2.3-10.7,7.3-13.1c6.1-2.9,12.2-6.3,17.7-10.1
	c19.4-13.7,22.2-28.1,21.1-37.8c-0.6-5-2.4-11-7.1-16.9c-3.7-4.7-3-11.6,1.7-15.4c13.1-10.7,25.4-22.8,34.9-34.5
	c8.1-10,14-19.3,17.5-27.8c7.3-17.7,3.3-29.9-1.4-36.9c-2.3-3.4-5.6-7.1-10.7-10.1c-4.9-2.9-7-8.9-4.7-14.1c1.1-2.4,2-4.9,2.9-7.4
	c8.3-23.8,1.5-37-5.6-44c-4.1-4-11.4-8.7-22.9-8.7c-2.2,0-4.6,0.2-7,0.6c-4.4,0.7-8.8-1.3-11.2-5c-1.5-2.5-3.3-4.5-5.1-6.1
	c-3.8-3.4-10.4-7.5-20.3-7.5c-1.6,0-3.2,0.1-4.8,0.3c-2.3,0.3-4.5-1.1-5.2-3.4l0,0c-3.1-10.3-10.4-17.7-20-20.3
	c-1.3-0.4-2.7-0.6-4.1-0.7c-0.8-0.1-1.5-0.1-2.3-0.1c-4.8,0-11.1,1.3-17.5,6.1c-3.7,2.8-8.8,3.1-12.7,0.6
	c-5.2-3.3-10.6-4.9-16.4-4.9c-2.1,0-4.1,0.2-6.1,0.7c-0.7,0.2-1.5,0.4-2.2,0.6c-8.5,2.6-17.8,0.8-24.4-5.3L281.4,27.3z M397.9,252.2
	l-0.4,0.2c-9.2,6.1-7.8,19.9,2.3,24.2c8.4,3.6,13.7,8.2,14.3,13.6c1.3,11.2-18.1,23.4-43.6,32.3c-9.1,3.2-12.6,14.9-6,21.8
	c2.4,2.5,3.6,5,3.5,7.6c-0.5,10.9-25.3,19.3-52.8,22.2c-5.9,0.6-8.9,7.4-5.4,12.2c1.4,2,2.1,3.8,1.7,5.6c-1.2,5.2-6.7,9-17.8,9.6
	c-4.8,0.3-9.4,1.5-13.7,3.5l-15.3,62.5c-1.5,5.8-6.8,9.9-12.8,9.9c-1.1,0-2.3-0.2-3.4-0.4c-3.4-0.9-6.3-3.1-8-6.1
	c-1.8-3.1-2.2-6.6-1.3-10l0.3-1l-12.5-57.1c-6-2.9-13.8-4.9-20.5-5.8c-9.6-1.4-14.4-5.2-15.4-10.3c-0.5-2.3,0.8-4.9,3.3-7.4
	c3.8-3.9,1.4-10.4-3.9-11c-30-3.5-57.7-13.2-57.9-25.1c0-2.7,1.4-5.4,3.9-7.9c7.2-7.1,3.7-19.6-5.7-23.1
	c-26.6-10.1-46.7-23.5-45.1-35.2c0.8-5.7,6.5-10.3,15.4-13.9c10.8-4.4,12.6-18.8,3-25.5l-0.4-0.3c-39-27.3-78-73.7-66.8-89.7
	c2.7-3.9,8.1-5.6,15.3-5.6c2.6,0,5.5,0.2,8.6,0.7c0.5,0.1,1.1,0.1,1.6,0.1c7.9,0,13.2-8.6,8.7-15.5c-15.3-23.3-24.6-47.4-16.4-55
	c1.8-1.6,4.3-2.4,7.3-2.4c7.7,0,19,4.9,31.1,12.5c1.3,0.8,2.6,1.2,3.9,1.2c4.6,0,8.6-4.6,6.7-9.7c-3.4-9.4-4.1-17.1-0.3-20.3
	c1.3-1.1,3.1-1.6,5.2-1.6c5.8,0,14.2,3.8,23.1,9.8c1.3,0.9,2.6,1.2,4,1.2c4.1,0,7.7-3.6,7.1-8.2c-1.8-13.6-0.8-25.2,4.6-27.3l0,0
	c0,0,0,0,0,0c0,0,0,0,0,0c0.4-0.1,0.9-0.2,1.3-0.2c8.9,0,15.2,22.5,15.2,22.5c1.1,3.2,3.9,4.8,6.8,4.8c2.4,0,4.9-1.2,6.3-3.7
	c6.6-11.8,14.1-20.3,20-20.3c0.5,0,1,0.1,1.5,0.2c4.8,1.2,7.7,8.3,8.9,18.3c0.5,4.1,3.8,6.4,7.2,6.4c2.3,0,4.7-1.1,6.1-3.6
	C229.8,36.1,240,25,247.9,25c0.7,0,1.5,0.1,2.2,0.3c1.7,0.5,3.2,1.5,4.5,3c4.2,4.9,4,12.3-0.3,17.1c-11.1,12.2-10,42.1-8.8,56.1
	c0.1,0.7-0.1,1.2-0.5,1.6c-0.4,0.4-1,0.7-1.6,0.7c-0.5,0-1-0.2-1.5-0.5c-8.3-6.2-15.5-9.2-21.9-9.2c-2.9,0-5.6,0.6-8,1.8
	c-11.2,5.6-14.6,21.9-10.1,48.4c3.5,21.1,11.8,46.1,22.2,66.6l0.2,0.4c1.4,2.7,0.4,5-0.2,6.1c-1.2,1.9-3.2,3.1-5.5,3.1
	c-0.3,0-0.5,0-0.8,0c-2.2-0.2-4.3-0.4-6.3-0.4c-9.2,0-15.9,2.7-19.8,8.1c-4.9,6.7-4.6,16.2,1,28.2c4.2,9.1,11.5,19.8,21.2,30.9
	c1.7,2,1.8,4.5,1.3,6.2c-0.3,1.1-1.2,2.9-3.4,3.6c-6.8,2-9.9,5.8-11.4,8.6c-3.9,7.5-1.2,17.1,8,28.5c6.8,8.5,17.2,17.9,29.2,26.6
	c0,0,0,0,0,0c0,0.1,0,0.2-0.2,0.2c-5.5,2.4-7.5,6-8.3,8.7c-1.5,4.8-2,14.2,11,23.8c0.7,0.5,1.4,1,2.1,1.6c2.9,2.3,5,5.6,5.9,9.2
	l3.6,13.8l5.3-18.6c-3.5-4.6-7.8-8.5-12.4-12c-7.4-5.5-9.7-10.9-8.2-15.5c0.5-1.7,2-3,4.2-4c5.4-2.4,6.3-9.7,1.5-13.2
	c-22.4-16.2-39.9-35.8-34.9-45.5c1.2-2.3,3.6-3.9,6.9-4.9c9.2-2.7,11.9-14.6,5.6-21.9c-17.7-20.4-28.5-40.7-21.8-49.7
	c2.5-3.5,7.4-5,13.7-5c1.7,0,3.5,0.1,5.4,0.3c0.6,0.1,1.1,0.1,1.6,0.1c10.1,0,17.1-10.7,12.4-20l-0.2-0.4
	c-20.3-40.3-31.9-96.7-15.3-105c1.4-0.7,3-1,4.6-1c4.9,0,10.9,2.8,17.5,7.7c1.9,1.4,3.9,2,5.9,2c5.3,0,10.1-4.3,9.6-10.4
	c-2.3-26.3,0.9-50.5,11.1-53.1c0.6-0.2,1.2-0.2,1.9-0.2c7.6,0,17.1,10.8,25.6,26c1.4,2.4,3.6,3.5,5.9,3.5c3.1,0,6.2-2.1,6.8-5.9
	c1.4-9.4,4.3-16.1,8.9-17.1c0.4-0.1,0.8-0.1,1.2-0.1c5.7,0,12.6,8.2,18.7,19.7c1.3,2.4,3.6,3.6,6,3.6c2.7,0,5.3-1.5,6.4-4.5
	C349.9,61,355.7,52,360.9,52c0.2,0,0.4,0,0.6,0l0,0c0,0,0,0,0,0c0,0,0,0,0,0c9,2.4,3.7,26.1,3.7,26.1c-0.7,4.4,2.8,7.9,6.7,7.9
	c1.2,0,2.5-0.3,3.7-1.1c8.5-5.3,16.4-8.8,21.8-8.8c2.2,0,3.9,0.5,5.2,1.7c3.5,3.1,2.7,10.4-0.8,19.3c-1.9,4.9,1.9,9.4,6.3,9.4
	c1.2,0,2.4-0.3,3.6-1c11.4-6.8,22-11.2,29.3-11.2c3.1,0,5.6,0.8,7.3,2.4c7.6,7.3-1.7,30-16.8,51.8c-4.5,6.5,0.5,14.9,8.1,14.9
	c0.4,0,0.8,0,1.2-0.1c2.5-0.3,4.8-0.5,7-0.5c7.4,0,12.9,1.7,15.5,5.7C473.6,184.1,435.6,227.2,397.9,252.2z"/>
<path class="st7" d="M237.1,472.8c2.3,4,6,6.8,10.5,8c1.5,0.4,2.9,0.6,4.4,0.6c7.8,0,14.6-5.3,16.6-12.9L297,352.7
	c1.3-5.2,5.1-9.6,10.1-11.6c13.3-5.4,24.9-11.9,34.4-19.3c18.4-14.4,42.5-20.4,42.7-20.5c5.2-1.3,8.4-6.5,7.2-11.8
	c-1.1-4.4-5-7.4-9.5-7.4c-0.8,0-1.6,0.1-2.3,0.3c-1.1,0.3-28.3,7-50.1,24c-5.4,4.2-11.8,8.2-19,11.8c-2.2,1.1-4.8-0.9-4.2-3.3
	l13.5-54.9c0.3-1.1,1.1-2,2.1-2.3c13-4.5,31.8-12.4,48-25.1c20.5-16,47.3-22.7,47.6-22.8c5.2-1.3,8.4-6.5,7.2-11.8
	c-1.1-4.4-4.9-7.4-9.5-7.4c-0.8,0-1.6,0.1-2.3,0.3c-1.3,0.3-30.9,7.6-55,26.4c-7.7,6-17.1,11.5-28,16.3c-1.6,0.7-3.4-0.8-3-2.5
	l14.1-57.4c0.3-1.1,1-1.9,2-2.3c6.3-2.4,15.5-6.6,23.5-12.8c9.9-7.7,23.2-11.1,23.3-11.2c2.5-0.6,4.7-2.2,6-4.4
	c1.4-2.2,1.8-4.8,1.2-7.4c-1.1-4.4-4.9-7.4-9.5-7.4c-0.8,0-1.5,0.1-2.3,0.3c-0.7,0.2-17.3,4.2-30.7,14.8c-0.1,0.1-0.2,0.2-0.3,0.3
	c-2.4,1.8-5.7-0.4-5-3.3l8-32.8c0.4-1.8,0.4-3.7-0.1-5.4c-0.5-1.7-2.5-5.9-8.5-7c-3.6-0.6-7.1,1.1-9.3,4.4c-0.6,0.8-1,1.8-1.3,2.8
	l-21.6,75.1c-0.7,2.6-4.2,3.2-5.7,0.9c-3.7-5.4-6.6-10.6-8.7-15.7c-8.2-20.2-24.1-35.3-24.8-35.9c-1.8-1.7-4.2-2.7-6.7-2.7
	c-2.7,0-5.2,1.1-7.1,3c-3.7,3.9-3.5,10.1,0.4,13.7c0.1,0.1,13.6,13.1,20.1,29.2c6.3,15.5,17,28.5,22.9,34.8c0.8,0.9,1.1,2,0.7,3.1
	l-16.3,56.8c-0.5,1.8-2.9,2.2-3.9,0.6c-2.6-3.9-4.6-7.6-6.1-11.2c-6.7-16.5-19.7-28.8-20.2-29.3c-1.8-1.7-4.2-2.7-6.7-2.7
	c-2.7,0-5.2,1.1-7.1,3c-1.8,1.9-2.7,4.4-2.7,7c0.1,2.6,1.2,5,3,6.8c0.1,0.1,10.4,10.2,15.6,22.6c5.3,12.7,12.4,21.8,17.5,27.1
	c1.7,1.8,2.4,4.4,1.7,6.8l-40.7,141.9c-0.8,2.7-4.6,2.6-5.2-0.2l-20.9-94.8c-2.8-2.8-5.3-5.6-7.4-8.2l-2.5,0.1l29.5,134
	C235.2,468.4,235.5,470.2,237.1,472.8z M415.5,202c-0.3,0.1-28.6,7.1-50.6,24.3c-15.3,11.9-33.2,19.5-45.6,23.8
	c-3.6,1.3-6.4,4.2-7.3,8l-15.2,61.9c-0.6,2.3-0.1,4.6,1.4,6.4c1.4,1.8,3.6,2.9,5.9,2.9c1,0,2-0.2,3-0.6c10.6-4.7,19.8-10,27.3-15.9
	c20.5-16,46-22.3,47.1-22.6c0.9-0.2,1.9,0.4,2.1,1.3c0.2,0.9-0.3,1.9-1.3,2.1c-0.3,0.1-25.9,6.4-45.7,21.9
	c-8.9,6.9-19.8,13.1-32.5,18.2c-7.4,3-13,9.4-14.9,17.1l-28.4,115.7c-1.1,4.1-4.7,6.9-8.9,6.9c-0.8,0-1.6-0.1-2.4-0.3
	c-2.4-0.6-4.4-2.2-5.6-4.3c-1.2-2.1-1.6-4.6-1-6.9l47.1-164.2c1.5-5.1,0.1-10.6-3.6-14.5c-4.6-4.9-11.1-13.2-16-24.7
	c-5.8-14-17-24.8-17.5-25.3c-0.3-0.3-0.5-0.7-0.5-1.2c0-0.5,0.2-0.9,0.5-1.2c0.3-0.3,0.8-0.5,1.3-0.5c0.5,0,0.9,0.2,1.2,0.5
	c0.5,0.5,12.2,11.6,18.3,26.5c2.3,5.7,5.8,11.6,10.4,17.6c1.4,1.9,3.6,3,6,3c3.4,0,6.3-2.2,7.2-5.4l17.8-62.2
	c1.1-3.8,0.2-7.8-2.5-10.8c-5.5-6-15.5-18.1-21.3-32.4c-7.2-17.7-21.9-31.8-22-31.9c-0.7-0.7-0.7-1.8-0.1-2.4
	c0.6-0.7,1.8-0.7,2.5-0.1c0.6,0.6,15.3,14.6,22.9,33.2c3.1,7.7,7.9,15.6,14.2,23.7c1.4,1.8,3.6,2.9,5.9,2.9c3.4,0,6.3-2.2,7.3-5.5
	l23.6-82.3c0.1-0.2,0.2-0.4,0.3-0.6c0.4-0.6,0.8-1,1.2-1c0,0,0.1,0,0.1,0c1.8,0.3,2.1,1.2,2.2,1.5c0.1,0.3,0.1,0.7,0,1.1l-10.2,41.7
	c-0.6,2.3-0.1,4.6,1.4,6.4c1.4,1.8,3.6,2.9,5.9,2.9c1.2,0,2.4-0.3,3.5-0.9c3.5-1.9,6.7-3.9,9.4-6.1c12.1-9.5,27.1-13.1,27.7-13.3
	c0.9-0.2,1.9,0.4,2.1,1.3c0.1,0.5,0,0.9-0.2,1.3c-0.2,0.4-0.6,0.7-1.1,0.8c-0.6,0.2-15.1,3.8-26.3,12.6c-7.2,5.6-15.7,9.4-21.5,11.6
	c-3.5,1.3-6.1,4.3-6.9,7.9l-15.3,62.5c-0.6,2.3-0.1,4.6,1.4,6.4c2,2.6,5.7,3.6,8.8,2.3c13.7-5.6,25.4-12.2,34.8-19.5
	c22.7-17.7,50.7-24.6,51.9-24.9c0.1,0,0.3,0,0.4,0c0.8,0,1.5,0.5,1.7,1.3C417,200.8,416.4,201.8,415.5,202z"/>
<path class="st278" d="M228.7,167.7c-1.6,0-3-1-3.5-2.6c-5-15.1-6.6-37.1-6.6-38.1c-0.1-2.1,1.4-3.8,3.5-4c2-0.1,3.8,1.4,4,3.5
	c0,0.2,1.5,22,6.3,36.2c0.7,2-0.4,4.1-2.4,4.7C229.5,167.6,229.1,167.7,228.7,167.7z"/>
<circle class="st278" cx="363.7" cy="124" r="3.7"/>
<circle class="st278" cx="171.4" cy="278" r="3.8"/>
<circle class="st278" cx="164.8" cy="196.4" r="3.8"/>
<circle class="st278" cx="262.5" cy="324.6" r="3.8"/>
</svg>
