<?xml version="1.0" encoding="utf-8"?>
<!-- Generator: Adobe Illustrator 20.1.0, SVG Export Plug-In . SVG Version: 6.00 Build 0)  -->
<svg version="1.1" id="Layer_1" xmlns="http://www.w3.org/2000/svg" xmlns:xlink="http://www.w3.org/1999/xlink" x="0px" y="0px"
	 viewBox="0 0 500 500" style="enable-background:new 0 0 500 500;" xml:space="preserve">
<style type="text/css">
	.st0{fill:#6EA336;stroke:#2A481D;stroke-width:5;stroke-linecap:round;stroke-linejoin:round;stroke-miterlimit:10;}
	.st1{fill:#7C9800;}
	.st2{fill:#164E16;}
	.st3{fill:#4D831C;stroke:#2A481D;stroke-width:4;stroke-miterlimit:10;}
	.st4{fill:#6EA336;stroke:#2A481D;stroke-width:4;stroke-linecap:round;stroke-linejoin:round;stroke-miterlimit:10;}
	.st5{fill:#8DCC50;stroke:#A2A121;stroke-width:5;stroke-miterlimit:10;}
	.st6{fill:#4D831C;stroke:#071907;stroke-width:5;stroke-linejoin:round;stroke-miterlimit:10;}
	.st7{fill:#164E16;stroke:#071907;stroke-width:3;stroke-miterlimit:10;}
	.st8{fill:#7C9800;stroke:#164E16;stroke-width:5;stroke-linejoin:round;stroke-miterlimit:10;}
	.st9{fill:#FFD003;stroke:#D17D01;stroke-width:3;stroke-miterlimit:10;}
	.st10{fill:#E6E6E6;}
	.st11{fill:#00FFFF;}
	.st12{fill:#D9E021;}
	.st13{fill:#F22F2E;}
	.st14{fill:#F22F2E;stroke:#7B000E;stroke-width:3;stroke-miterlimit:10;}
	.st15{fill:none;stroke:#FFFFFF;stroke-linecap:round;stroke-linejoin:round;stroke-miterlimit:10;}
	.st16{fill:none;stroke:#FFFFFF;stroke-linecap:round;stroke-miterlimit:10;}
	.st17{fill:#FFFFFF;}
	.st18{fill:none;stroke:#7B000E;stroke-linecap:round;stroke-linejoin:round;stroke-miterlimit:10;}
	.st19{fill:none;stroke:#7B000E;stroke-linecap:round;stroke-miterlimit:10;}
	.st20{fill:#7B000E;}
	.st21{fill:#4D831C;}
	.st22{fill:#2A481D;}
	.st23{fill:#FF7A00;}
	.st24{fill:#FF7A00;stroke:#F44500;stroke-width:3;stroke-miterlimit:10;}
	.st25{fill:none;stroke:#F44500;stroke-linecap:round;stroke-linejoin:round;stroke-miterlimit:10;}
	.st26{fill:#FF7A00;stroke:#F44500;stroke-linecap:round;stroke-linejoin:round;stroke-miterlimit:10;}
	.st27{fill:#F44500;}
	.st28{fill:#8BA00D;stroke:#164E16;stroke-width:3;stroke-linejoin:round;stroke-miterlimit:10;}
	.st29{clip-path:url(#SVGID_2_);}
	.st30{fill:#F40000;stroke:#7B000E;stroke-width:3;stroke-miterlimit:10;}
	.st31{fill:#7DB34C;stroke:#164E16;stroke-width:3;stroke-miterlimit:10;}
	.st32{fill:none;stroke:#164E16;stroke-miterlimit:10;}
	.st33{fill:none;stroke:#7B000E;stroke-width:3;stroke-miterlimit:10;}
	.st34{fill:#A7C92B;stroke:#164E16;stroke-width:3;stroke-miterlimit:10;}
	.st35{fill:none;stroke:#164E16;stroke-linecap:round;stroke-miterlimit:10;}
	.st36{fill:#8BA00D;}
	.st37{fill:#999999;}
	.st38{fill:#A7C92B;}
	.st39{fill:none;stroke:#FEA502;stroke-linecap:round;stroke-linejoin:round;stroke-miterlimit:10;}
	.st40{fill:#FFD003;}
	.st41{fill:#D17D01;}
	.st42{fill:#FEA502;}
	.st43{fill:#4D831C;stroke:#2A481D;stroke-width:3;stroke-linecap:round;stroke-linejoin:round;stroke-miterlimit:10;}
	.st44{fill:#FA6200;stroke:#D54300;stroke-width:3;stroke-miterlimit:10;}
	.st45{fill:#FA6200;stroke:#D54300;stroke-linecap:round;stroke-miterlimit:10;}
	.st46{fill:none;stroke:#F44500;stroke-linecap:round;stroke-miterlimit:10;}
	.st47{fill:#FF9D00;stroke:#E6681E;stroke-linecap:round;stroke-miterlimit:10;}
	.st48{fill:#F97306;}
	.st49{fill:#D54300;}
	.st50{fill:#7DB34C;stroke:#44712A;stroke-width:3;stroke-miterlimit:10;}
	.st51{fill:none;stroke:#44712A;stroke-miterlimit:10;}
	.st52{fill:#7DB34C;}
	.st53{fill:#40760E;}
	.st54{fill:none;stroke:#071907;stroke-miterlimit:10;}
	.st55{fill:none;stroke:#071907;stroke-linecap:round;stroke-linejoin:round;stroke-miterlimit:10;}
	.st56{fill:#071907;}
	.st57{fill:#44712A;}
	.st58{fill:#6E905E;}
	.st59{fill:#456A0A;}
	.st60{fill:#183300;}
	.st61{fill:#FF2214;}
	.st62{fill:#661900;}
	.st63{fill:#FFDC00;}
	.st64{fill:#7C9800;stroke:#164E16;stroke-width:3;stroke-miterlimit:10;}
	.st65{fill:none;stroke:#D17D01;stroke-width:0.75;stroke-miterlimit:10;}
	.st66{fill:#7C9800;stroke:#164E16;stroke-linejoin:round;stroke-miterlimit:10;}
	.st67{fill:none;stroke:#164E16;stroke-linejoin:round;stroke-miterlimit:10;}
	.st68{fill:#8A9D1F;}
	.st69{fill:#1B4700;}
	.st70{fill:none;stroke:#7C9800;stroke-width:3;stroke-linecap:round;stroke-linejoin:round;stroke-miterlimit:10;}
	.st71{opacity:0.6;fill:none;stroke:#FFFFFF;stroke-linecap:round;stroke-miterlimit:10;}
	.st72{fill:none;stroke:#7B000E;stroke-miterlimit:10;}
	.st73{opacity:0.4;fill:none;stroke:#FFFFFF;stroke-linecap:round;stroke-linejoin:round;stroke-miterlimit:10;}
	.st74{fill:none;stroke:#FFFFFF;stroke-width:7.8511;stroke-linecap:round;stroke-miterlimit:10;}
	.st75{fill:#B0C06B;}
	.st76{fill:#F8ACAC;}
	.st77{fill:none;stroke:#FFFFFF;stroke-width:7.7562;stroke-linecap:round;stroke-miterlimit:10;}
	.st78{fill:none;stroke:#164E16;stroke-width:0.851;stroke-miterlimit:10;}
	.st79{opacity:0.3;}
	.st80{fill:#6EA336;}
	.st81{opacity:0.3;fill:#7B000E;}
	.st82{opacity:0.2;fill:none;stroke:#2A481D;stroke-linecap:round;stroke-linejoin:round;stroke-miterlimit:10;}
	.st83{fill:#CC242B;}
	.st84{fill:#5B8734;}
	.st85{fill:#4D831C;stroke:#071907;stroke-miterlimit:10;}
	.st86{fill:none;stroke:#071907;stroke-linecap:round;stroke-miterlimit:10;}
	.st87{opacity:0.7;fill:none;stroke:#FFFFFF;stroke-linecap:round;stroke-miterlimit:10;}
	.st88{opacity:0.7;fill:#FFFFFF;}
	.st89{fill:#B9CAB9;}
	.st90{fill:#F6E600;}
	.st91{fill:#8DCC50;}
	.st92{fill:#A2A121;}
	.st93{fill:#F9EFA7;}
	.st94{fill:#F6E600;stroke:#A2A121;stroke-width:3;stroke-miterlimit:10;}
	.st95{opacity:0.3;fill:none;stroke:#A2A121;stroke-linecap:round;stroke-linejoin:round;stroke-miterlimit:10;}
	.st96{fill:none;stroke:#A2A121;stroke-width:3;stroke-miterlimit:10;}
	.st97{fill:#8DCC50;stroke:#A2A121;stroke-miterlimit:10;}
	.st98{fill:#DCCF2F;}
	.st99{fill:#F22F2E;stroke:#7B000E;stroke-miterlimit:10;}
	.st100{fill:#F22F2E;stroke:#7B000E;stroke-linecap:round;stroke-miterlimit:10;}
	.st101{fill:#6EA336;stroke:#2A481D;stroke-linecap:round;stroke-linejoin:round;stroke-miterlimit:10;}
	.st102{fill:none;stroke:#2A481D;stroke-linecap:round;stroke-linejoin:round;stroke-miterlimit:10;}
	.st103{fill:#639D2E;stroke:#164E16;stroke-width:5;stroke-miterlimit:10;}
	.st104{fill:#639D2E;stroke:#164E16;stroke-miterlimit:10;}
	.st105{opacity:0.5;fill:none;stroke:#D54300;stroke-linecap:round;stroke-miterlimit:10;}
	.st106{fill:#E5531B;}
	.st107{opacity:0.3;fill:none;stroke:#D17D01;stroke-linecap:round;stroke-linejoin:round;stroke-miterlimit:10;}
	.st108{fill:#E6A627;}
	.st109{opacity:0.4;fill:none;stroke:#7B000E;stroke-linecap:round;stroke-miterlimit:10;}
</style>
<g>
	<path class="st13" d="M250,487.5c-69.4,0-105.8-139-105.8-187.1c0-66.1,36.6-101,105.8-101s105.8,34.9,105.8,101
		C355.8,348.5,319.4,487.5,250,487.5z"/>
	<path class="st20" d="M208.5,345.3c-1.9,0-3.5-1.4-3.8-3.3c-1.3-9.7-2.4-19.2-3.1-28.1c-0.2-2.1,1.4-4,3.5-4.1
		c2.1-0.2,4,1.4,4.1,3.5c0.7,8.8,1.7,18.1,3.1,27.7c0.3,2.1-1.2,4-3.3,4.3C208.9,345.3,208.7,345.3,208.5,345.3z"/>
	<path class="st20" d="M250,453.5c-9.9,0-18.6-10-26.6-30.7c-7.7-19.9-12.9-45-15.9-62.6c-0.4-2.1,1-4.1,3.1-4.4
		c2.1-0.4,4.1,1,4.4,3.1c2.9,17.2,8,41.8,15.5,61.1c6.4,16.6,13.3,25.8,19.4,25.8c3.6,0,16.5-4.3,29.4-59.5
		c8.1-34.8,12.3-74.4,12.3-95.7c0-10.8-0.6-20.7-1.8-29.3c-0.3-2.1,1.2-4,3.3-4.3c2.1-0.3,4,1.2,4.3,3.3c1.3,9,1.9,19.2,1.9,30.4
		c0,21-3.9,60.5-12.6,97.4C276.8,431.4,264.3,453.5,250,453.5z"/>
	<path class="st17" d="M234.9,312.5c-2.1,0-3.8-1.7-3.8-3.7c-0.2-6.8-0.2-12.9-0.2-18.2c0-7.6,0.1-14.7,0.3-21.3
		c0.1-2.1,1.8-3.8,4-3.7c2.1,0.1,3.8,1.8,3.7,4c-0.2,6.5-0.3,13.5-0.3,21c0,5.2,0.1,11.3,0.2,18
		C238.8,310.7,237.1,312.5,234.9,312.5C234.9,312.5,234.9,312.5,234.9,312.5z"/>
	<path class="st20" d="M250,187.9c-75.7,0-117.3,40-117.3,112.5c0,26,9.6,74.3,27.8,116.2C184,470.5,215,499,250,499
		s66-28.5,89.5-82.4c18.3-41.9,27.8-90.1,27.8-116.2C367.3,227.9,325.7,187.9,250,187.9z M200.6,290.4c0,1.9,1.3,3.7,3.2,4
		c2.4,0.4,4.5-1.4,4.5-3.8c0-44.5,10.3-70.2,30.6-76.7c-3.4,7.5-5.6,19.7-6.9,37.1c-0.2,2.1,1.4,4,3.5,4.1c2.1,0.2,4-1.4,4.1-3.5
		c2.5-34.2,8.4-38.6,9.9-39.2c0.3,0,0.5,0,0.8,0c2.3,0.7,11.1,8,11.1,78.2c0,1.8,1.2,3.5,3.1,3.9c2.5,0.5,4.6-1.4,4.6-3.8
		c0-44.4-3.5-66.3-8.2-76.8c9.3,2.9,16.4,9.7,21.5,20.6c0.9,1.9,3.1,2.8,5,2.1c2.1-0.8,3-3.2,2.1-5.2c-1-2.2-2.1-4.2-3.2-6.1
		c-1-1.6,1-3.3,2.4-2.2c0,0,0,0,0.1,0.1c11.3,8.9,19,23,22.9,42.2c0.4,1.9,2,3.1,3.8,3.1c0.3,0,0.7,0,1-0.1c2-0.5,3.2-2.6,2.8-4.7
		c-2.7-13.2-7.1-24.3-13.2-33.2c-2.1-3.1,1.5-6.8,4.7-4.8c3.7,2.3,7,5,10.1,7.9c15.5,14.8,23.4,37.3,23.4,67
		c0,23-9.1,68.4-25.9,106.9C307.2,433,283.5,476,250,476c-33.5,0-57.2-43-68.4-68.6c-16.8-38.6-25.9-83.9-25.9-106.9
		c0-29.6,7.9-52.2,23.4-67c6.1-5.8,13.5-10.5,22-14.1c1.5-0.6,2.8,1.3,1.6,2.4l-0.1,0.1c-1.5,1.5-1.8,3.9-0.4,5.5
		c0.8,0.9,1.9,1.4,3,1.4c1,0,2-0.4,2.7-1.1c0.7-0.7,1.5-1.4,2.3-2.1c1.1-1,2.7,0.3,2,1.6C207.4,235.9,200.6,254.6,200.6,290.4z"/>
	<path class="st80" d="M281.4,33.2c2.7-2.8,2.9-7.3,0.3-10.3c-2.8-3.2-7.6-3.6-10.8-0.8c-18.2,15.6-28.6,38.2-28.6,62.1v5.5
		c0,43.8-6.1,87.4-18.2,129.5l0,0c16,9.5,35.8,9.5,51.8,0l0,0c-12.1-42.1-18.2-85.7-18.2-129.5v-6.9C257.7,63.5,268.1,47,281.4,33.2
		z"/>
	<path class="st22" d="M296.3,10.4c-9.6-11.2-26.6-12.6-37.9-2.9c-22.4,19.2-35.3,47.2-35.3,76.7v5.5c0,34.8-4,69.3-12,103.1
		c2.2-0.5,4.4-1,6.7-1.4c4.6-0.8,8.6,3.4,7.5,7.9c-1.5,6.3-3.2,12.5-5,18.8c-0.5,1.7,0.2,3.5,1.7,4.4c8.6,5.1,18.2,7.6,27.9,7.6
		c9.6,0,19.3-2.5,27.9-7.6c1.5-0.9,2.2-2.7,1.7-4.4c-1.8-6.2-3.4-12.5-5-18.8c-1.1-4.6,2.9-8.8,7.5-7.9c2.3,0.4,4.5,0.9,6.7,1.4
		c-8-33.8-12-68.4-12-103.1v-6.9c0-11.5,6-23.4,18.4-36.3c0,0,0,0,0,0C304.9,36.4,305.3,20.9,296.3,10.4z M234.4,219.8
		c-3.3-1.2-5.2-4.6-4.3-8c10.6-39.8,16-80.9,16-122.1v-5.5c0-22.8,9.9-44.4,27.2-59.2c1.6-1.4,4-1.2,5.4,0.4
		c1.3,1.5,1.2,3.7-0.1,5.1v0C262,47.9,253.8,65,253.8,82.7v6.9c0,41.2,5.4,82.3,16,122.1c0.9,3.4-1,6.9-4.3,8
		C255.5,223.3,244.5,223.3,234.4,219.8z"/>
	<path class="st17" d="M181.4,273.3c-0.3,0-0.5,0-0.8-0.1c-2.1-0.4-3.4-2.5-3-4.6c1.9-9,4.7-17.2,8.3-24.2c1-1.9,3.3-2.6,5.2-1.7
		c1.9,1,2.6,3.3,1.7,5.2c-3.3,6.4-5.9,13.9-7.6,22.3C184.8,272,183.2,273.3,181.4,273.3z"/>
	<circle class="st17" cx="178.4" cy="286.7" r="4.6"/>
	<circle class="st20" cx="291" cy="245.5" r="4"/>
</g>
</svg>
