<?xml version="1.0" encoding="utf-8"?>
<!-- Generator: Adobe Illustrator 20.0.0, SVG Export Plug-In . SVG Version: 6.00 Build 0)  -->
<svg version="1.1" id="Layer_1" xmlns="http://www.w3.org/2000/svg" xmlns:xlink="http://www.w3.org/1999/xlink" x="0px" y="0px"
	 viewBox="0 0 64 64" style="enable-background:new 0 0 64 64;" xml:space="preserve">
<style type="text/css">
	.st0{fill:#AFD048;stroke:#6B9311;stroke-width:3;stroke-miterlimit:10;}
	.st1{fill:none;stroke:#6B9311;stroke-miterlimit:10;}
	.st2{fill:#AFD048;}
	.st3{fill:#F40000;stroke:#BA0D0D;stroke-width:3;stroke-miterlimit:10;}
	.st4{fill:none;stroke:#FFFFFF;stroke-linecap:round;stroke-linejoin:round;stroke-miterlimit:10;}
	.st5{fill:#CDA347;stroke:#A2690C;stroke-width:3;stroke-miterlimit:10;}
	.st6{fill:#A2CC62;}
	.st7{fill:#68664C;stroke:#522B25;stroke-width:3;stroke-linecap:round;stroke-linejoin:round;stroke-miterlimit:10;}
	.st8{fill:#B63E34;stroke:#522B25;stroke-width:3;stroke-miterlimit:10;}
	.st9{fill:#ADD481;}
	.st10{fill:#68664C;}
	.st11{fill:#593156;stroke:#331E31;stroke-width:3;stroke-miterlimit:10;}
	.st12{fill:none;stroke:#FFFFFF;stroke-linecap:round;stroke-miterlimit:10;}
	.st13{fill:#22B573;stroke:#184C28;stroke-width:3;stroke-linecap:round;stroke-linejoin:round;stroke-miterlimit:10;}
	.st14{fill:#EE0000;}
	.st15{fill:#9A0601;}
	.st16{fill:#EE0000;stroke:#9A0601;stroke-linecap:round;stroke-linejoin:round;stroke-miterlimit:10;}
	.st17{fill:#FFFFFF;}
	.st18{clip-path:url(#SVGID_2_);}
	.st19{fill:#00FFFF;}
	.st20{fill:#456A0A;}
	.st21{fill:#1D4200;}
	.st22{fill:#88A501;}
	.st23{fill:#3B6700;}
	.st24{fill:#FC4100;}
	.st25{fill:#9F0500;}
	.st26{fill:none;stroke:#6B9311;stroke-width:3;stroke-linecap:round;stroke-miterlimit:10;}
	.st27{fill:#6B9311;}
	.st28{fill:#593156;}
	.st29{fill:#331E31;}
	.st30{fill:#AFD048;stroke:#6B9311;stroke-width:3;stroke-linecap:round;stroke-linejoin:round;stroke-miterlimit:10;}
	.st31{fill:none;stroke:#6B9311;stroke-linejoin:round;stroke-miterlimit:10;}
	.st32{fill:#B63E34;stroke:#522B25;stroke-miterlimit:10;}
	.st33{fill:none;stroke:#522B25;stroke-miterlimit:10;}
	.st34{fill:none;stroke:#522B25;stroke-width:3;stroke-miterlimit:10;}
	.st35{fill:#B63E34;}
	.st36{fill:#522B25;}
	.st37{fill:none;stroke:#40760E;stroke-width:3;stroke-linecap:round;stroke-linejoin:round;stroke-miterlimit:10;}
	.st38{fill:none;stroke:#40760E;stroke-linecap:round;stroke-linejoin:round;stroke-miterlimit:10;}
	.st39{fill:#A2CC62;stroke:#40760E;stroke-width:3;stroke-linecap:round;stroke-linejoin:round;stroke-miterlimit:10;}
	.st40{fill:#A2CC62;stroke:#40760E;stroke-linecap:round;stroke-linejoin:round;stroke-miterlimit:10;}
	.st41{fill:#9EC161;}
	.st42{fill:#40760E;}
	.st43{fill:#AFD048;stroke:#6B9311;stroke-width:3;stroke-linejoin:round;stroke-miterlimit:10;}
	.st44{fill:#9D610B;}
	.st45{fill:none;stroke:#A2690C;stroke-linecap:round;stroke-miterlimit:10;}
	.st46{fill:#6D4E2B;}
	.st47{fill:#CDA347;}
	.st48{fill:#A2690C;}
	.st49{fill:#F40000;stroke:#BA0D0D;stroke-miterlimit:10;}
	.st50{fill:#F40000;stroke:#B63E34;stroke-width:3;stroke-miterlimit:10;}
	.st51{fill:#F40000;stroke:#B63E34;stroke-miterlimit:10;}
	.st52{fill:#F40000;}
	.st53{fill:#BA0D0D;}
	.st54{fill:#B94850;stroke:#6C0A04;stroke-width:3;stroke-miterlimit:10;}
	.st55{fill:#CE8645;stroke:#CE8645;stroke-width:0.5;stroke-miterlimit:10;}
	.st56{fill:#6C0A04;stroke:#6C0A04;stroke-width:0.5;stroke-miterlimit:10;}
	.st57{fill:none;stroke:#6C0A04;stroke-linecap:round;stroke-miterlimit:10;}
	.st58{fill:#B94850;}
	.st59{fill:#CE8645;}
	.st60{fill:#6C0A04;}
</style>
<path class="st58" d="M39.9,49.1c-6.1-0.4-13.8,0.5-21.1,0.6c-7.7,0-14.3-6.4-15.4-15.5c-0.9-7.2,2.1-13.8,7.1-16.6
	c4.1-3,10.9-5.4,18.9-6.3c7.1-0.9,13.7-0.3,18.4,1.2c6.6,1.8,11.9,8.1,12.8,16.1C60.5,28.4,64.5,50.7,39.9,49.1z"/>
<path class="st59" d="M37.3,23.6c-0.2,0-0.4,0.1-0.5,0.3c-0.1,0.2-0.2,0.4-0.2,0.6c0,0.4,0.4,0.7,0.7,0.7c0,0,0.1,0,0.1,0
	c0.4,0,0.7-0.4,0.7-0.8C38.1,23.9,37.7,23.6,37.3,23.6z"/>
<path class="st59" d="M38,29.6c-0.2,0-0.4,0.1-0.5,0.3c-0.1,0.2-0.2,0.4-0.2,0.6c0,0.2,0.1,0.4,0.3,0.5c0.1,0.1,0.3,0.2,0.5,0.2
	c0,0,0.1,0,0.1,0c0.2,0,0.4-0.1,0.5-0.3c0.1-0.2,0.2-0.4,0.2-0.6C38.8,29.8,38.4,29.5,38,29.6z"/>
<path class="st60" d="M47,37.6c-0.4,0-0.7,0.4-0.7,0.8c0,0.2,0.1,0.4,0.3,0.5c0.1,0.1,0.3,0.2,0.5,0.2c0,0,0.1,0,0.1,0
	c0.4,0,0.7-0.4,0.7-0.8C47.8,37.8,47.4,37.5,47,37.6z"/>
<path class="st60" d="M32.2,27.5c-0.2-0.1-0.4-0.2-0.6-0.2c-0.2,0-0.4,0.1-0.5,0.3C31,27.8,31,27.9,31,28.1c0,0.2,0.1,0.4,0.3,0.5
	c0.1,0.1,0.3,0.2,0.5,0.2c0,0,0.1,0,0.1,0c0.2,0,0.4-0.1,0.5-0.3c0.1-0.2,0.2-0.4,0.2-0.6C32.5,27.8,32.4,27.6,32.2,27.5z"/>
<path class="st59" d="M29.6,39.1c-0.1-0.1-0.3-0.2-0.5-0.2c-0.2,0-0.4,0.1-0.5,0.2s-0.2,0.3-0.2,0.5c0,0.2,0.1,0.4,0.2,0.5
	c0.1,0.1,0.3,0.2,0.5,0.2c0,0,0,0,0,0c0.2,0,0.4-0.1,0.5-0.2s0.2-0.3,0.2-0.5C29.8,39.4,29.8,39.2,29.6,39.1z"/>
<path class="st60" d="M24.2,40.1C24.2,40.1,24.2,40.1,24.2,40.1c-0.4,0-0.8,0.3-0.8,0.8c0,0.2,0.1,0.4,0.2,0.5
	c0.1,0.1,0.3,0.2,0.5,0.2c0,0,0,0,0,0c0.2,0,0.4-0.1,0.5-0.2s0.2-0.3,0.2-0.5C25,40.5,24.6,40.1,24.2,40.1z"/>
<path class="st60" d="M15.8,21.1c-0.2,0-0.4,0.1-0.5,0.3c-0.1,0.2-0.2,0.4-0.2,0.6c0,0.4,0.4,0.7,0.7,0.7c0,0,0.1,0,0.1,0
	c0.4,0,0.7-0.4,0.7-0.8C16.6,21.4,16.2,21.1,15.8,21.1z"/>
<path class="st59" d="M20.5,30.9c-0.2-0.1-0.4-0.2-0.6-0.2c-0.2,0-0.4,0.1-0.5,0.3s-0.2,0.4-0.2,0.6c0,0.4,0.4,0.7,0.7,0.7
	c0,0,0.1,0,0.1,0c0.4,0,0.7-0.4,0.7-0.8C20.8,31.2,20.7,31,20.5,30.9z"/>
<path class="st59" d="M12.4,29.8c-0.2-0.1-0.4-0.2-0.6-0.2c-0.2,0-0.4,0.1-0.5,0.3c-0.1,0.2-0.2,0.4-0.2,0.6c0,0.2,0.1,0.4,0.3,0.5
	c0.1,0.1,0.3,0.2,0.5,0.2c0,0,0.1,0,0.1,0c0.2,0,0.4-0.1,0.5-0.3c0.1-0.2,0.2-0.4,0.2-0.6C12.6,30.1,12.5,30,12.4,29.8z"/>
<path class="st59" d="M53.7,29.9c-0.2-0.1-0.4-0.2-0.6-0.2c-0.4,0-0.7,0.4-0.7,0.8c0,0.4,0.4,0.7,0.7,0.7c0,0,0.1,0,0.1,0
	c0.4,0,0.7-0.4,0.7-0.8C53.9,30.2,53.8,30.1,53.7,29.9z"/>
<path class="st60" d="M50.5,25.1c-0.2,0-0.4,0.1-0.5,0.3c-0.1,0.2-0.2,0.4-0.2,0.6c0,0.2,0.1,0.4,0.3,0.5c0.1,0.1,0.3,0.2,0.5,0.2
	c0,0,0.1,0,0.1,0c0.2,0,0.4-0.1,0.5-0.3c0.1-0.2,0.2-0.4,0.2-0.6C51.3,25.3,50.9,25,50.5,25.1z"/>
<path class="st60" d="M62,28.2c-1-8.4-6.6-15.3-13.9-17.3c-5-1.6-11.9-2.1-19-1.2c-7.9,0.9-15,3.3-19.5,6.6
	C4.1,19.5,1,26.7,1.9,34.3c1.2,9.8,8.2,16.8,16.8,16.8c0,0,0,0,0.1,0c3,0,6.1-0.2,9.1-0.3c4.3-0.2,8.3-0.4,11.8-0.2h0
	c8.1,0.5,14.1-1.4,18-5.7C63.7,38.3,62.1,28.5,62,28.2z M55.6,42.9c-3.2,3.6-8.4,5.1-15.6,4.7h0c-3.7-0.2-7.8,0-12.2,0.2
	c-0.8,0-1.5,0.1-2.3,0.1c3.1-1.1,5.9-3,8-5.8c0.2-0.2,0.1-0.5-0.1-0.7c-0.2-0.2-0.5-0.1-0.7,0.1c-3,4-7.7,6.3-12.7,6.3
	c-4.7,0-8.9-2-11.8-5.3c-1.7-2.3-2.9-5.3-3.3-8.6c-0.8-6.4,1.8-12.5,6.3-15.2l0.1-0.1c4-2.9,10.8-5.2,18.2-6.1
	c2.2-0.3,4.4-0.4,6.6-0.4c4.2,0,8.1,0.5,11.2,1.5c6.2,1.7,10.9,7.7,11.8,14.9C59.1,28.7,60.5,37.3,55.6,42.9z"/>
</svg>
