<?xml version="1.0" encoding="utf-8"?>
<!-- Generator: Adobe Illustrator 20.0.0, SVG Export Plug-In . SVG Version: 6.00 Build 0)  -->
<svg version="1.1" id="Layer_1" xmlns="http://www.w3.org/2000/svg" xmlns:xlink="http://www.w3.org/1999/xlink" x="0px" y="0px"
	 viewBox="0 0 500 500" style="enable-background:new 0 0 500 500;" xml:space="preserve">
<style type="text/css">
	.st0{fill:#FDE270;}
	.st1{fill:#7D692F;}
	.st2{fill:#595C13;}
	.st3{fill:#BF793A;stroke:#590000;stroke-width:4;stroke-miterlimit:10;}
	.st4{fill:#528B1C;stroke:#123C08;stroke-width:3;stroke-miterlimit:10;}
	.st5{fill:#BF793A;stroke:#590000;stroke-width:4;stroke-linecap:round;stroke-miterlimit:10;}
	.st6{fill:#FBDE74;}
	.st7{fill:#F8D96C;}
	.st8{fill:#F5D464;}
	.st9{fill:#F2CF5C;}
	.st10{fill:#EFCA54;}
	.st11{fill:#D50000;}
	.st12{fill:#ED3A00;}
	.st13{fill:#D50000;stroke:#590000;stroke-width:6;stroke-miterlimit:10;}
	.st14{fill:#487E41;}
	.st15{fill:#123C08;}
	.st16{fill:#D50000;stroke:#590000;stroke-width:3;stroke-miterlimit:10;}
	.st17{fill:none;stroke:#FFFFFF;stroke-linecap:round;stroke-miterlimit:10;}
	.st18{fill:#FFFFFF;}
	.st19{fill:#7FC731;stroke:#246901;stroke-width:3;stroke-miterlimit:10;}
	.st20{fill:#7FC731;stroke:#246901;stroke-linecap:round;stroke-miterlimit:10;}
	.st21{fill:none;stroke:#246901;stroke-linecap:round;stroke-miterlimit:10;}
	.st22{fill:#292F37;}
	.st23{fill:#577B1D;}
	.st24{fill:#AD2F26;}
	.st25{fill:#264415;}
	.st26{fill:#539243;}
	.st27{fill:#7F415B;}
	.st28{fill:#246901;}
	.st29{fill:#8A1100;}
	.st30{fill:#5EC865;}
	.st31{fill:#007500;}
	.st32{fill:#FF3D50;}
	.st33{fill:none;stroke:#246901;stroke-linecap:round;stroke-linejoin:round;stroke-miterlimit:10;}
	.st34{fill:none;stroke:#FFFFFF;stroke-linecap:round;stroke-linejoin:round;stroke-miterlimit:10;}
	.st35{fill:#FF3D50;stroke:#CC3248;stroke-miterlimit:10;}
	.st36{fill:none;stroke:#007500;stroke-linecap:round;stroke-linejoin:round;stroke-miterlimit:10;}
	.st37{fill:none;stroke:#264415;stroke-linecap:round;stroke-linejoin:round;stroke-miterlimit:10;}
	.st38{fill:#528B1C;}
	.st39{fill:#20420B;}
	.st40{fill:#314773;}
	.st41{fill:#7389B5;}
	.st42{fill:#528B1C;stroke:#20420B;stroke-linecap:round;stroke-linejoin:round;stroke-miterlimit:10;}
	.st43{fill:none;stroke:#314773;stroke-linejoin:round;stroke-miterlimit:10;}
	.st44{fill:#00FFFF;}
	.st45{fill:#22B473;stroke:#184C28;stroke-width:3;stroke-linecap:round;stroke-linejoin:round;stroke-miterlimit:10;}
	.st46{fill:#2E368E;}
	.st47{fill:#9A0D90;}
	.st48{fill:#161542;}
	.st49{fill:#251749;}
	.st50{fill:none;stroke:#FBA954;stroke-linecap:round;stroke-linejoin:round;stroke-miterlimit:10;}
	.st51{fill:#61303F;}
	.st52{fill:#EEB683;}
	.st53{fill:#1B631A;}
	.st54{fill:#FBA954;}
	.st55{fill:#ECD8A1;}
	.st56{fill:#DC0900;stroke:#184C28;stroke-width:1.7008;stroke-miterlimit:10;}
	.st57{fill:none;stroke:#007500;stroke-width:2;stroke-linecap:round;stroke-miterlimit:10;}
	.st58{fill:#F10A00;stroke:#8A1100;stroke-miterlimit:10;}
	.st59{fill:none;stroke:#007500;stroke-width:3;stroke-linecap:round;stroke-miterlimit:10;}
	.st60{fill:#F10A00;}
	.st61{fill:#7389B5;stroke:#314773;stroke-miterlimit:10;}
	.st62{fill:none;stroke:#314773;stroke-miterlimit:10;}
	.st63{opacity:0.4;fill:#314773;}
	.st64{fill:#7389B5;stroke:#314773;stroke-linecap:round;stroke-linejoin:round;stroke-miterlimit:10;}
	.st65{fill:#8BA3CD;stroke:#314773;stroke-miterlimit:10;}
	.st66{fill:#5A7098;}
	.st67{fill:none;stroke:#FFFFFF;stroke-width:8;stroke-linecap:round;stroke-linejoin:round;stroke-miterlimit:10;}
	.st68{fill:#FF3D50;stroke:#AD2F26;stroke-miterlimit:10;}
	.st69{fill:#FF3D50;stroke:#CC3248;stroke-width:1.058;stroke-miterlimit:10;}
	.st70{fill:#539243;stroke:#246901;stroke-width:3;stroke-linejoin:round;stroke-miterlimit:10;}
	.st71{clip-path:url(#SVGID_2_);}
	.st72{fill:url(#SVGID_3_);}
	.st73{fill:none;stroke:#CC652B;stroke-width:1.4939;stroke-linecap:round;stroke-miterlimit:10;}
	.st74{fill:none;stroke:#CC652B;stroke-width:0.8407;stroke-miterlimit:10;}
	.st75{fill:#F9C153;}
	.st76{fill:#FC7351;stroke:#CC652B;stroke-width:3;stroke-miterlimit:10;}
	.st77{fill:none;stroke:#994A22;stroke-linecap:round;stroke-miterlimit:10;}
	.st78{fill:none;stroke:#F9C153;stroke-width:3;stroke-linecap:round;stroke-miterlimit:10;}
	.st79{opacity:0.8;fill:none;stroke:#F9C153;stroke-width:3;stroke-linecap:round;stroke-miterlimit:10;}
	.st80{opacity:0.6;fill:none;stroke:#F9C153;stroke-width:3;stroke-linecap:round;stroke-miterlimit:10;}
	.st81{opacity:0.4;fill:none;stroke:#F9C153;stroke-width:3;stroke-linecap:round;stroke-miterlimit:10;}
	.st82{opacity:0.2;fill:none;stroke:#F9C153;stroke-width:3;stroke-linecap:round;stroke-miterlimit:10;}
	.st83{fill:none;stroke:#994A22;stroke-width:3;stroke-miterlimit:10;}
	.st84{fill:#7FC731;stroke:#246901;stroke-width:3;stroke-linecap:round;stroke-linejoin:round;stroke-miterlimit:10;}
	.st85{fill:none;stroke:#ADD980;stroke-linecap:round;stroke-linejoin:round;stroke-miterlimit:10;}
	.st86{fill:#ADD980;}
	.st87{fill:#FC7351;}
	.st88{fill:#F8B05C;}
	.st89{fill:#F8A15A;}
	.st90{fill:#F99259;}
	.st91{fill:#F98357;}
	.st92{fill:#994A22;}
	.st93{fill:#7FC731;}
	.st94{fill:#FDE3DD;}
	.st95{fill:#F8B413;stroke:#7A4100;stroke-width:6;stroke-miterlimit:10;}
	.st96{fill:#487E41;stroke:#123C08;stroke-width:3;stroke-linecap:round;stroke-miterlimit:10;}
	.st97{opacity:0.8;fill:none;stroke:#FFFFFF;stroke-linecap:round;stroke-miterlimit:10;}
	.st98{fill:none;stroke:#123C08;stroke-linecap:round;stroke-miterlimit:10;}
	.st99{opacity:0.8;fill:#FFFFFF;}
	.st100{fill:#F8B413;stroke:#7A4100;stroke-miterlimit:10;}
	.st101{opacity:0.7;fill:none;stroke:#FFFFFF;stroke-linecap:round;stroke-miterlimit:10;}
	.st102{fill:none;stroke:#7A4100;stroke-linecap:round;stroke-miterlimit:10;}
	.st103{opacity:0.7;fill:none;stroke:#AD2F26;stroke-width:3;stroke-linecap:round;stroke-miterlimit:10;}
	.st104{opacity:0.5;fill:none;stroke:#AD2F26;stroke-width:3;stroke-linecap:round;stroke-miterlimit:10;}
	.st105{opacity:0.3;fill:none;stroke:#AD2F26;stroke-width:3;stroke-linecap:round;stroke-miterlimit:10;}
	.st106{opacity:0.1;fill:none;stroke:#AD2F26;stroke-width:3;stroke-linecap:round;stroke-miterlimit:10;}
	.st107{opacity:0.7;fill:#FFFFFF;}
	.st108{fill:#DAE5D9;}
	.st109{fill:#F8B413;}
	.st110{fill:#FCE8BB;}
	.st111{fill:#C25729;}
	.st112{fill:#D1722A;}
	.st113{fill:#E08B2C;}
	.st114{fill:#EFA62E;}
	.st115{fill:#7A4100;}
	.st116{fill:none;stroke:#487E41;stroke-width:2;stroke-miterlimit:10;}
	.st117{fill:#D50000;stroke:#590000;stroke-miterlimit:10;}
	.st118{fill:#6BB25F;}
	.st119{fill:#590000;}
	.st120{fill:#7F0603;}
	.st121{fill:#BF793A;stroke:#590000;stroke-width:3;stroke-miterlimit:10;}
	.st122{fill:none;stroke:#590000;stroke-linecap:round;stroke-miterlimit:10;}
	.st123{fill:none;stroke:#590000;stroke-miterlimit:10;}
	.st124{fill:#BF793A;stroke:#590000;stroke-width:3;stroke-linecap:round;stroke-miterlimit:10;}
	.st125{fill:#6EB226;}
	.st126{fill:none;stroke:#123C08;stroke-width:3;stroke-miterlimit:10;}
	.st127{fill:#BF793A;}
	.st128{fill:#970231;stroke:#590000;stroke-width:3;stroke-miterlimit:10;}
	.st129{fill:#AF96CB;}
	.st130{fill:#9C325F;}
	.st131{opacity:0.5;fill:#AF96CB;}
	.st132{fill:none;stroke:#590000;stroke-width:3;stroke-miterlimit:10;}
	.st133{fill:#D23841;}
	.st134{fill:none;stroke:#9C325F;stroke-miterlimit:10;}
	.st135{fill:#5A9800;stroke:#225A00;stroke-width:3;stroke-linecap:round;stroke-linejoin:round;stroke-miterlimit:10;}
	.st136{opacity:0.4;fill:none;stroke:#FFFFFF;stroke-linecap:round;stroke-linejoin:round;stroke-miterlimit:10;}
	.st137{fill:none;stroke:#225A00;stroke-linecap:round;stroke-linejoin:round;stroke-miterlimit:10;}
	.st138{opacity:0.4;fill:#FFFFFF;}
	.st139{fill:#970231;}
	.st140{opacity:0.5;}
	.st141{fill:#DFB3C1;}
	.st142{fill:#5A9800;}
	.st143{fill:#9DC06B;}
	.st144{fill:#225A00;}
	.st145{fill:none;stroke:#9DC06B;stroke-width:3;stroke-miterlimit:10;}
	.st146{fill:none;stroke:#9DC06B;stroke-linecap:round;stroke-miterlimit:10;}
	.st147{fill:none;stroke:#9DC06B;stroke-width:3;stroke-linecap:round;stroke-linejoin:round;stroke-miterlimit:10;}
	.st148{fill:#FFFFFF;stroke:#9DC06B;stroke-linecap:round;stroke-miterlimit:10;}
	.st149{fill:#00FFFF;stroke:#000000;stroke-width:3;stroke-miterlimit:10;}
	.st150{fill:none;stroke:#000000;stroke-miterlimit:10;}
	.st151{fill:#B8B54B;stroke:#595C13;stroke-width:3;stroke-miterlimit:10;}
	.st152{fill:#FDE270;stroke:#595C13;stroke-linecap:round;stroke-miterlimit:10;}
	.st153{fill:#B26A39;}
	.st154{fill:#B8B54B;}
	.st155{fill:none;stroke:#595C13;stroke-linecap:round;stroke-miterlimit:10;}
	.st156{fill:#D1A362;}
	.st157{clip-path:url(#SVGID_5_);}
	.st158{clip-path:url(#SVGID_9_);}
	.st159{clip-path:url(#SVGID_10_);}
	.st160{clip-path:url(#SVGID_11_);}
	.st161{fill:#D0C785;}
	.st162{clip-path:url(#SVGID_13_);}
	.st163{clip-path:url(#SVGID_16_);}
	.st164{clip-path:url(#SVGID_17_);}
	.st165{clip-path:url(#SVGID_19_);}
	.st166{clip-path:url(#SVGID_23_);}
	.st167{clip-path:url(#SVGID_24_);}
	.st168{clip-path:url(#SVGID_25_);}
	.st169{clip-path:url(#SVGID_27_);}
	.st170{clip-path:url(#SVGID_30_);}
	.st171{clip-path:url(#SVGID_31_);}
	.st172{clip-path:url(#SVGID_33_);}
	.st173{clip-path:url(#SVGID_35_);}
	.st174{clip-path:url(#SVGID_37_);}
	.st175{fill:#B28E56;}
	.st176{fill:#885C0B;}
	.st177{fill:#737C00;}
	.st178{fill:none;stroke:#595C13;stroke-width:3;stroke-miterlimit:10;}
	.st179{fill:#C7493F;}
	.st180{fill:#992623;}
	.st181{fill:#521D0C;}
	.st182{fill:#E73123;}
	.st183{fill:#F5BA6B;}
	.st184{fill:#EF915B;}
	.st185{fill:#8E1A00;}
	.st186{fill:#442105;}
	.st187{fill:#B47E22;}
	.st188{fill:#BE4228;}
	.st189{fill:#D3954B;}
	.st190{fill:#CD8143;}
	.st191{fill:#C76C3C;}
	.st192{fill:#C25735;}
	.st193{fill:#7F2A1C;}
	.st194{fill:#A7BB41;}
	.st195{fill:#677F08;}
	.st196{fill:#C9DC85;}
	.st197{fill:#E1CA56;}
	.st198{fill:#E1CA56;stroke:#7D692F;stroke-width:3;stroke-miterlimit:10;}
	.st199{fill:#CC8F66;}
	.st200{fill:none;stroke:#7D692F;stroke-linecap:round;stroke-miterlimit:10;}
	.st201{fill:#9F9A2F;}
	.st202{fill:#CC2825;}
	.st203{fill:#C37B2C;}
	.st204{fill:#7F0701;}
</style>
<path class="st179" d="M415,312.6c0,95.3-77.2,172.5-172.5,172.5S70,407.9,70,312.6s64-257,172.5-257S415,217.3,415,312.6z"/>
<g>
	<g>
		<g>
			<path class="st180" d="M102.7,360.2c0.7-0.7,1.1-1.6,1.1-2.6c0-1.1-0.5-2.1-1.1-2.6c-1.4-1.4-3.8-1.5-5.2-0.1
				c-0.7,0.6-1.1,1.6-1.1,2.6c0,0.9,0.4,1.9,1,2.5c0.6,0.8,1.6,1.2,2.6,1.2C101,361.3,101.9,360.9,102.7,360.2z"/>
		</g>
		<g>
			<path class="st180" d="M90.4,349.3c0-1-0.4-1.9-1.1-2.6c-0.7-0.6-1.7-1-2.7-1c-1,0-1.9,0.4-2.5,1c-0.7,0.7-1.1,1.6-1.1,2.6
				c0,0.9,0.4,1.9,1,2.5c0.7,0.8,1.7,1.2,2.7,1.2s1.9-0.4,2.6-1.1C90,351.2,90.4,350.3,90.4,349.3z"/>
		</g>
		<g>
			<path class="st180" d="M133.1,343.2c0,1,0.4,1.9,1.1,2.6s1.7,1.1,2.6,1.1c1,0,2-0.4,2.6-1c0.7-0.7,1.1-1.6,1.1-2.6
				s-0.4-1.9-1.1-2.6c-0.7-0.7-1.6-1.1-2.6-1.1c-1,0-1.9,0.3-2.6,1C133.5,341.2,133.1,342.2,133.1,343.2z"/>
		</g>
		<g>
			<path class="st180" d="M163.4,357.9c-0.9,0.1-1.8,0.5-2.2,1c-0.6,0.5-1.2,1.3-1.2,2.7c0,1.1,0.4,2.1,0.9,2.5
				c0.7,0.8,1.6,1.2,2.7,1.2c0.9,0,1.8-0.4,2.7-1.2c0.7-0.8,1-1.7,1-2.6c0-1-0.4-1.9-1.1-2.6C165.5,358.2,164.4,357.9,163.4,357.9z"
				/>
		</g>
		<g>
			<path class="st180" d="M176.7,365.2c-1,0.1-1.9,0.5-2.3,1c-0.8,0.7-1.2,1.6-1.2,2.7c0,1,0.4,1.9,1,2.4c0.7,0.8,1.6,1.2,2.7,1.2
				c1,0,1.9-0.4,2.6-1.1s1.1-1.7,1.1-2.6c0-1.1-0.4-2-1.1-2.6C178.8,365.5,177.8,365.2,176.7,365.2z"/>
		</g>
		<g>
			<path class="st180" d="M185.6,347.8c0.7,0.7,1.6,1.1,2.6,1.1c0.9,0,1.9-0.4,2.7-1.1c0.6-0.6,1-1.6,1-2.6c0-0.9-0.3-1.8-1-2.6
				c-0.7-0.8-1.7-1.1-2.8-1.1c-1,0.1-1.9,0.5-2.4,1.1c-0.7,0.7-1.1,1.6-1.1,2.6C184.6,346.2,185,347.1,185.6,347.8z"/>
		</g>
		<g>
			<path class="st180" d="M250.2,337.4c-0.7,0.7-1.1,1.6-1.1,2.6c0,1,0.4,1.9,1.1,2.6c0.7,0.7,1.6,1.1,2.6,1.1c1,0,2-0.4,2.6-1.1
				c0.7-0.6,1.1-1.6,1.1-2.6c0-1-0.4-1.9-1.1-2.6c-0.7-0.6-1.6-1-2.6-1C251.8,336.4,250.9,336.7,250.2,337.4z"/>
		</g>
		<g>
			<path class="st180" d="M296.3,344.7c-0.7,0.7-1.1,1.7-1.1,2.6c0,0.9,0.4,1.7,1.1,2.6c0.7,0.7,1.6,1.1,2.6,1.1s2-0.4,2.6-1.1
				c0.7-0.7,1.1-1.7,1.1-2.6c0-1-0.4-2-1.1-2.6C300.1,343.3,297.7,343.3,296.3,344.7z"/>
		</g>
		<g>
			<path class="st180" d="M218.5,334.4c-0.7,0.7-1.1,1.6-1.1,2.6c0,0.9,0.3,1.8,1,2.6c0.7,0.7,1.6,1.1,2.6,1.1c1,0,2-0.5,2.7-1.1
				c0.7-0.7,1.1-1.7,1.1-2.6s-0.4-1.9-1.1-2.6C222.2,333.1,219.8,333.1,218.5,334.4z"/>
		</g>
		<g>
			<path class="st180" d="M161.1,334.4c-0.7,0.7-1.1,1.6-1.1,2.6c0,1.1,0.4,2.1,0.9,2.5c0.7,0.8,1.6,1.2,2.7,1.2
				c1,0,1.9-0.4,2.7-1.1c0.7-0.7,1.1-1.6,1.1-2.6c0-0.9-0.4-1.9-1.1-2.6C164.9,333.1,162.5,333,161.1,334.4z"/>
		</g>
		<g>
			<path class="st180" d="M114.8,339.6c0.7-0.7,1.1-1.6,1.1-2.6c0-0.9-0.3-1.9-1-2.5c-1.3-1.5-4-1.4-5.2-0.1
				c-0.7,0.7-1.1,1.6-1.1,2.6c0,1.1,0.4,2,1,2.5c0.6,0.8,1.6,1.2,2.6,1.2S114.2,340.3,114.8,339.6z"/>
		</g>
		<g>
			<path class="st180" d="M269.2,326.4c1,0,1.9-0.4,2.5-1.1c0.8-0.6,1.2-1.6,1.2-2.6c0-1-0.4-1.9-1.1-2.6c-0.7-0.7-1.6-1.1-2.6-1.1
				s-1.9,0.4-2.6,1.1c-0.7,0.7-1.1,1.6-1.1,2.6c0,1.1,0.5,2.1,1.1,2.6C267.2,326,268.2,326.4,269.2,326.4z"/>
		</g>
		<g>
			<path class="st180" d="M284.5,371.5c1,0,1.9-0.4,2.6-1.1s1.1-1.6,1.1-2.6c0-1-0.4-1.9-1.1-2.6c-0.7-0.7-1.6-1.1-2.6-1.1
				s-1.9,0.4-2.6,1.1c-0.7,0.7-1.1,1.6-1.1,2.6c0,1,0.4,1.9,1.1,2.6S283.5,371.5,284.5,371.5z"/>
		</g>
		<g>
			<path class="st180" d="M209.2,365.3c0.7-0.7,1.1-1.6,1.1-2.6s-0.3-1.8-1.1-2.7c-0.7-0.7-1.7-1-2.7-1c-1,0.1-1.9,0.4-2.5,1.1
				c-0.7,0.7-1.1,1.6-1.1,2.6s0.4,1.9,1.1,2.6c0.7,0.7,1.7,1.1,2.6,1.1C207.6,366.4,208.5,366,209.2,365.3z"/>
		</g>
		<g>
			<path class="st180" d="M249.7,374.6c0.9,0,1.9-0.4,2.6-1c0.7-0.7,1.1-1.6,1.1-2.6s-0.4-2-1-2.6c0,0-0.1-0.1-0.1-0.1
				c0,0-0.1-0.1-0.1-0.1c-1.5-1.4-3.7-1.3-5.2,0.1c-0.6,0.7-1,1.6-1,2.6c0,1.1,0.4,2,1,2.5c0,0,0,0,0.1,0.1c0,0,0,0,0,0
				C247.8,374.2,248.8,374.6,249.7,374.6z"/>
		</g>
		<g>
			<path class="st180" d="M309.9,240.7c0-1-0.4-1.9-1.1-2.6c-0.7-0.7-1.6-1.1-2.6-1.1c-1,0-1.9,0.3-2.6,1c-0.7,0.7-1.1,1.6-1.1,2.6
				s0.4,1.9,1.1,2.6s1.6,1.1,2.6,1.1c0.9,0,1.9-0.4,2.5-0.9C309.5,242.7,309.9,241.7,309.9,240.7z"/>
		</g>
		<g>
			<path class="st180" d="M348.1,234.8c-1,0.1-1.9,0.5-2.4,1c-0.8,0.7-1.2,1.7-1.2,2.7c0,0.9,0.4,1.9,1,2.5c0.7,0.8,1.7,1.2,2.7,1.2
				c1,0,1.9-0.3,2.6-1.2c0.7-0.7,1.1-1.7,1.1-2.6c0-1-0.4-1.9-1.1-2.6C350.1,235.2,349.2,234.8,348.1,234.8z"/>
		</g>
		<g>
			<path class="st180" d="M376.5,241.7c0-1-0.4-2-1.1-2.7c-1.4-1.4-3.8-1.4-5.2,0c-0.7,0.7-1.1,1.6-1.1,2.6c0,1,0.4,1.9,1.1,2.6
				c0.7,0.7,1.6,1.1,2.6,1.1s1.9-0.4,2.6-1C376.1,243.6,376.5,242.6,376.5,241.7z"/>
		</g>
		<g>
			<path class="st180" d="M395.4,360c-1,0-2,0.4-2.6,1c-0.7,0.7-1.1,1.6-1.1,2.6s0.4,1.9,1,2.5c0.6,0.8,1.6,1.2,2.6,1.2
				s1.9-0.4,2.7-1.1c0.7-0.7,1.1-1.6,1.1-2.6s-0.4-1.9-1.1-2.6C397.3,360.5,396.4,360,395.4,360z"/>
		</g>
		<g>
			<path class="st180" d="M311.7,310.3c0,1,0.4,1.9,1.1,2.6c0.7,0.7,1.6,1.1,2.6,1.1c0.9,0,1.9-0.4,2.7-1c0.6-0.7,1-1.6,1-2.6
				c0-1.1-0.4-2-1.1-2.7c-1.4-1.4-3.7-1.4-5.2,0C312.1,308.4,311.7,309.3,311.7,310.3z"/>
		</g>
		<g>
			<path class="st180" d="M376.3,263.6c-0.7,0.7-1.1,1.6-1.1,2.6c0,1.1,0.5,2.1,1.1,2.6c0.7,0.7,1.6,1.1,2.6,1.1s1.9-0.4,2.4-1
				c0.8-0.7,1.2-1.7,1.2-2.7c0-1-0.3-1.9-1-2.6C380.3,262.3,377.5,262.3,376.3,263.6z"/>
		</g>
		<g>
			<path class="st180" d="M365.2,366.2c-0.7,0.7-1.1,1.6-1.1,2.6c0,0.9,0.3,1.8,1,2.6c0.7,0.7,1.6,1.1,2.6,1.1c1,0,2-0.4,2.6-0.9
				c0.8-0.7,1.2-1.7,1.2-2.7s-0.4-2-1.1-2.7C368.9,364.8,366.5,364.8,365.2,366.2z"/>
		</g>
		<g>
			<path class="st180" d="M322.5,268c0.9,0,1.8-0.4,2.7-1c0.7-0.8,1-1.7,1-2.6c0-1-0.4-2-1.1-2.7c-1.5-1.4-3.8-1.4-5.2,0
				c-0.7,0.7-1.1,1.6-1.1,2.6c0,1.1,0.5,2.1,1.1,2.6C320.7,267.6,321.6,268,322.5,268z"/>
		</g>
		<g>
			<path class="st180" d="M314.9,339.6c-0.6-0.7-1.5-1.1-2.5-1.1s-2,0.3-2.8,1.1c-0.7,0.7-1,1.6-1,2.5c0,1.1,0.5,2.1,1.1,2.6
				c0.7,0.7,1.6,1.1,2.6,1.1c0.9,0,1.7-0.4,2.5-1.1c0.7-0.7,1.1-1.6,1.1-2.6C315.9,341.2,315.6,340.3,314.9,339.6z"/>
		</g>
		<g>
			<path class="st180" d="M343,282.2c1,0,1.9-0.4,2.6-1.1c0.7-0.7,1.1-1.7,1.1-2.6c0-1-0.4-1.9-1.1-2.6c-1.4-1.4-3.8-1.4-5.2,0
				c-0.7,0.7-1.1,1.6-1.1,2.6s0.4,1.9,1,2.5C341,281.8,342,282.2,343,282.2z"/>
		</g>
		<g>
			<path class="st180" d="M362.5,286.4c1,0,1.9-0.4,2.6-1.1s1.1-1.7,1.1-2.6c0-1-0.4-1.9-1.1-2.6c-0.7-0.6-1.7-1-2.7-1
				c-1,0-1.9,0.4-2.4,0.9c-0.8,0.6-1.2,1.6-1.2,2.7c0,1,0.4,1.9,1.1,2.6S361.5,286.4,362.5,286.4z"/>
		</g>
		<g>
			<path class="st180" d="M334.2,356.5c0,1,0.4,1.9,1.1,2.6s1.7,1.1,2.6,1.1c0.9,0,1.8-0.4,2.6-1.2c0.7-0.7,1.1-1.7,1.1-2.6
				c0-1-0.4-1.9-1.1-2.6c-0.7-0.6-1.7-1.1-2.7-1c-1,0.1-1.9,0.5-2.5,1.1C334.6,354.6,334.2,355.5,334.2,356.5z"/>
		</g>
		<g>
			<path class="st180" d="M364.6,326.4c1,0,2-0.4,2.6-1.1c0.7-0.7,1.1-1.7,1.1-2.6c0-1-0.4-2-1.1-2.6c-1.4-1.4-3.8-1.4-5.1-0.1
				c-0.8,0.7-1.2,1.7-1.2,2.7c0,1,0.4,1.9,1.1,2.6S363.6,326.4,364.6,326.4z"/>
		</g>
		<g>
			<path class="st180" d="M346.1,309.7c-0.9,0-1.9,0.4-2.6,1.1c-0.7,0.8-1,1.7-1,2.6c0,1,0.4,1.9,1.1,2.6c0.7,0.7,1.6,1.1,2.6,1.1
				s2-0.4,2.5-1.2c0.7-0.7,1.1-1.6,1.1-2.6s-0.4-1.9-1.1-2.6C348,310.1,347.1,309.7,346.1,309.7z"/>
		</g>
		<g>
			<path class="st180" d="M393.8,329.3c-0.7,0.7-1.1,1.6-1.1,2.6c0,1,0.4,2,1,2.6c0.7,0.7,1.6,1.1,2.6,1.1c1.1,0,2.1-0.5,2.6-0.9
				c0.8-0.7,1.2-1.7,1.2-2.7s-0.4-2-1.1-2.7C397.5,327.9,395.2,327.9,393.8,329.3z"/>
		</g>
		<g>
			<path class="st180" d="M382.5,296.4c-0.7,0.8-1.1,1.7-1.1,2.6c0,1,0.4,1.9,1.1,2.6s1.6,1.1,2.6,1.1c1,0,2-0.4,2.6-1.2
				c0.7-0.6,1.1-1.6,1.1-2.6c0-0.8-0.3-1.7-1.1-2.6C386.2,295,383.8,295,382.5,296.4z"/>
		</g>
		<g>
			<path class="st180" d="M189.1,314.8c-1,0.1-1.9,0.5-2.4,1c-0.8,0.7-1.2,1.7-1.2,2.7s0.4,1.9,1.1,2.6s1.6,1.1,2.6,1.1
				c0.9,0,1.8-0.3,2.6-1.2c0.7-0.6,1.1-1.6,1.1-2.6c0-1.1-0.5-2-1.1-2.6C191.1,315.2,190.1,314.6,189.1,314.8z"/>
		</g>
		<g>
			<path class="st180" d="M111.8,255.3c-0.8,0.7-1.2,1.7-1.2,2.7c0,1,0.4,1.9,1.1,2.6c0.7,0.7,1.6,1.1,2.6,1.1c1,0,2-0.4,2.6-1.1
				c0.7-0.7,1.1-1.7,1.1-2.6c0-1-0.4-2-1.2-2.8C115.3,253.9,113,254,111.8,255.3z"/>
		</g>
		<g>
			<path class="st180" d="M129.2,270.9c-0.7,0.7-1,1.6-1,2.5c0,1.1,0.3,2,1,2.6c0.6,0.7,1.6,1.1,2.6,1.1c0.9,0,1.8-0.4,2.7-1.1
				c0.7-0.7,1.1-1.7,1.1-2.6c0-1-0.4-1.9-1.1-2.6c-0.7-0.6-1.6-1-2.6-1C130.9,269.8,129.9,270.2,129.2,270.9z"/>
		</g>
		<g>
			<path class="st180" d="M130.7,244.3c0.9,0,1.8-0.4,2.7-1.2c0.6-0.7,0.9-1.6,0.9-2.5c0-0.9-0.4-1.9-1.1-2.7c-0.7-0.7-1.7-1-2.7-1
				c-0.9,0.1-1.8,0.5-2.3,1c-0.8,0.7-1.2,1.7-1.2,2.7s0.4,1.9,1.1,2.6C128.8,243.9,129.7,244.3,130.7,244.3z"/>
		</g>
		<g>
			<path class="st180" d="M149.9,285.8c0-1-0.4-1.9-1.1-2.6c-0.7-0.6-1.6-1-2.6-1c-1,0-1.9,0.4-2.6,1c-0.7,0.7-1.1,1.6-1.1,2.6
				c0,0.9,0.3,1.8,1,2.6c0.7,0.7,1.6,1.1,2.6,1.1s2-0.4,2.7-1.1C149.5,287.7,149.9,286.8,149.9,285.8z"/>
		</g>
		<g>
			<path class="st180" d="M142.1,301.5H142c-1,0.1-2,0.5-2.5,1.1c-0.7,0.7-1.1,1.6-1.1,2.6c0,0.9,0.3,1.8,1,2.6
				c0.7,0.7,1.6,1.1,2.6,1.1c1,0,2-0.4,2.8-1.3c0.7-0.7,1-1.6,1-2.5c0-0.9-0.3-1.8-1-2.5C144.1,301.9,143.1,301.5,142.1,301.5z"/>
		</g>
		<g>
			<path class="st180" d="M99.6,304.7c-0.8,0.6-1.2,1.6-1.2,2.6c0,0.9,0.4,1.7,1.1,2.6c0.7,0.7,1.6,1.1,2.6,1.1s2-0.5,2.6-1.1
				c0.7-0.7,1.1-1.6,1.1-2.6s-0.4-1.9-1.1-2.6C103.2,303.3,100.8,303.3,99.6,304.7z"/>
		</g>
		<g>
			<path class="st180" d="M111.3,292.5c0.9,0,1.8-0.3,2.5-1.1c0.7-0.7,1.1-1.6,1.1-2.6s-0.4-2-1-2.5c-0.7-0.7-1.7-1.1-2.7-1.1
				s-1.9,0.4-2.5,1c-0.7,0.7-1.1,1.6-1.1,2.6s0.4,1.9,1.1,2.6C109.4,292.1,110.3,292.5,111.3,292.5z"/>
		</g>
		<g>
			<path class="st180" d="M194.4,253.6c0.9,0,1.9-0.4,2.6-1.1c0.7-0.6,1.1-1.6,1.1-2.6c0-1-0.4-1.9-1.1-2.6c-1.4-1.4-3.7-1.4-5.2,0
				c-0.7,0.7-1.1,1.6-1.1,2.6c0,1,0.4,1.9,1.1,2.6C192.4,253.2,193.5,253.6,194.4,253.6z"/>
		</g>
		<g>
			<path class="st180" d="M229.8,290.8c0-1-0.4-1.9-1.1-2.6c-0.7-0.6-1.8-1.1-2.7-1c-1,0.1-1.9,0.5-2.4,1c-0.7,0.6-1.2,1.7-1.2,2.7
				s0.4,2,1.1,2.6c0.6,0.7,1.6,1.1,2.6,1.1c1,0,1.9-0.4,2.5-1.1C229.4,292.8,229.8,291.8,229.8,290.8z"/>
		</g>
		<g>
			<path class="st180" d="M261,305.9c1,0,1.9-0.4,2.6-1.1c0.7-0.7,1.1-1.7,1.1-2.6c0-1-0.4-1.9-1.1-2.6s-1.6-1.1-2.6-1.1
				c-1-0.1-1.9,0.4-2.6,1.1s-1.1,1.6-1.1,2.6c0,1,0.4,1.9,1.1,2.6C259.1,305.5,260,305.9,261,305.9z"/>
		</g>
		<g>
			<path class="st180" d="M280.8,265.2c0,0.9,0.4,1.8,1.2,2.7c0.7,0.6,1.6,0.9,2.5,0.9c1,0,2-0.3,2.6-1c0.7-0.7,1.1-1.6,1.1-2.6
				s-0.4-1.9-1.1-2.6s-1.6-1.1-2.6-1.1s-1.9,0.4-2.6,1.1S280.8,264.2,280.8,265.2z"/>
		</g>
		<g>
			<path class="st180" d="M285.6,294.3c-1,0-1.9,0.4-2.6,1.1c-0.7,0.7-1.1,1.6-1.1,2.6c0,1.1,0.5,2.1,1.1,2.6
				c0.7,0.7,1.6,1.1,2.6,1.1c0.9,0,1.9-0.4,2.5-1.1c0.8-0.6,1.2-1.6,1.2-2.6s-0.4-1.9-1.1-2.6C287.5,294.7,286.6,294.3,285.6,294.3z
				"/>
		</g>
		<g>
			<path class="st180" d="M188.7,265.7c0.7-0.7,1.1-1.6,1.1-2.6s-0.4-1.9-1.1-2.6c-1.3-1.3-3.9-1.3-5.2,0c-0.7,0.7-1.1,1.6-1.1,2.6
				s0.4,1.9,1.1,2.6c0.7,0.7,1.7,1.1,2.6,1.1C187.1,266.9,188,266.5,188.7,265.7z"/>
		</g>
		<g>
			<path class="st180" d="M200.1,294.5c0.7-0.7,1.1-1.6,1.1-2.6s-0.4-1.9-1.1-2.6c-0.7-0.6-1.6-1-2.6-1c-1,0-1.9,0.3-2.6,1
				c-0.7,0.7-1.1,1.6-1.1,2.6s0.4,1.9,1.1,2.6c0.6,0.7,1.6,1.1,2.6,1.1C198.4,295.6,199.3,295.2,200.1,294.5z"/>
		</g>
		<g>
			<path class="st180" d="M175.5,281.6c0-1-0.4-1.9-1.1-2.6c-1.4-1.4-3.8-1.4-5.3,0c-0.6,0.6-1,1.6-1,2.6c0,1.1,0.5,2.1,1.1,2.6
				c0.7,0.7,1.6,1.1,2.6,1.1c1.1,0,2.1-0.5,2.5-1C175,283.6,175.5,282.6,175.5,281.6z"/>
		</g>
		<g>
			<path class="st180" d="M247.2,279.6c0-1-0.4-1.9-1.1-2.6c-1.4-1.4-3.8-1.4-5.2,0c-0.7,0.7-1.1,1.6-1.1,2.6c0,1,0.4,1.9,1.1,2.6
				c0.7,0.7,1.6,1.1,2.6,1.1c1,0,1.9-0.4,2.6-1.1C246.8,281.5,247.2,280.6,247.2,279.6z"/>
		</g>
		<g>
			<path class="st180" d="M267.7,247.8c0-0.9-0.4-1.8-1.1-2.6c-0.7-0.7-1.6-1.1-2.6-1.1c-1,0-2,0.4-2.7,1.1c-0.7,0.8-1,1.7-1,2.6
				c0,1,0.4,1.9,1.1,2.6c0.7,0.7,1.7,1.1,2.6,1.1c0.9,0,1.8-0.3,2.7-1.1C267.4,249.6,267.7,248.7,267.7,247.8z"/>
		</g>
		<g>
			<path class="st180" d="M266.5,279.6c0,1.1,0.4,2,1.1,2.6c0.7,0.7,1.6,1.1,2.6,1.1c0.9,0,1.8-0.4,2.7-1.2c0.6-0.7,0.9-1.6,0.9-2.5
				c0-0.9-0.4-1.8-1.1-2.6c-1.5-1.4-3.8-1.4-5.2,0C266.9,277.7,266.5,278.6,266.5,279.6z"/>
		</g>
		<g>
			<path class="st180" d="M173.7,241.2c1,0,2-0.4,2.6-1.1c0.7-0.7,1.1-1.7,1.1-2.6c0-0.9-0.4-1.9-1.1-2.6c-1.4-1.4-3.8-1.4-5.2,0
				c-0.7,0.7-1.1,1.6-1.1,2.6c0,1,0.4,1.9,1.1,2.6C171.8,240.8,172.8,241.2,173.7,241.2z"/>
		</g>
		<g>
			<path class="st180" d="M296.3,259.4c-0.7,0.8-1.1,1.7-1.1,2.7s0.4,1.9,1.1,2.6c0.7,0.7,1.6,1.1,2.6,1.1c1.1,0,2.1-0.4,2.6-1.1
				c0.7-0.8,1.1-1.7,1.1-2.6s-0.3-1.8-1.1-2.7C300.1,258.1,297.6,258.1,296.3,259.4z"/>
		</g>
		<g>
			<path class="st180" d="M220.3,240.6c0,1,0.4,1.9,1.1,2.6c0.7,0.7,1.6,1.1,2.6,1.1c1,0,2-0.4,2.6-1.1c0.7-0.7,1.1-1.7,1.1-2.6
				c0-1-0.4-1.9-1.1-2.6c-0.7-0.6-1.6-1-2.6-1c-1,0-1.9,0.4-2.6,1C220.7,238.7,220.3,239.6,220.3,240.6z"/>
		</g>
		<g>
			<path class="st180" d="M223.6,259.4c-0.7,0.6-1.2,1.7-1.2,2.7s0.4,2,1.1,2.6c0.6,0.7,1.6,1.1,2.6,1.1c1,0,1.9-0.4,2.5-1
				c0.8-0.7,1.2-1.7,1.2-2.7s-0.4-1.9-1.1-2.6c-0.7-0.7-1.8-1.2-2.7-1.1C225,258.5,224.1,258.9,223.6,259.4z"/>
		</g>
		<g>
			<path class="st180" d="M163.6,119.2c1,0,2-0.4,2.6-1.1c0.7-0.7,1.1-1.7,1.1-2.6c0-1-0.4-1.9-1.1-2.6s-1.7-1-2.8-1
				c-0.9,0-1.8,0.4-2.3,1c-0.7,0.7-1.1,1.6-1.1,2.6s0.3,1.9,0.9,2.5C161.6,118.8,162.6,119.2,163.6,119.2z"/>
		</g>
		<g>
			<path class="st180" d="M195.8,174c0,1,0.4,1.9,1.1,2.6c0.7,0.6,1.6,1,2.6,1c1,0,1.9-0.3,2.6-1c0.7-0.7,1.1-1.6,1.1-2.6
				c0-0.9-0.3-1.8-1.1-2.7c-1.5-1.3-3.8-1.3-5.2,0.1C196.2,172.1,195.8,173,195.8,174z"/>
		</g>
		<g>
			<path class="st180" d="M188.2,102.8c0.9,0,1.9-0.4,2.8-1.2c0.6-0.6,1-1.6,1-2.6s-0.4-1.9-1.1-2.6c-1.5-1.3-3.9-1.3-5.2,0.1
				c-0.7,0.7-1.1,1.6-1.1,2.6s0.3,1.9,0.9,2.5C186.2,102.4,187.1,102.8,188.2,102.8z"/>
		</g>
		<g>
			<path class="st180" d="M175.9,163.3c1.1,0,2-0.5,2.5-1.1c0.7-0.6,1.2-1.7,1.2-2.7c0-0.9-0.4-1.9-1.1-2.6
				c-1.5-1.3-3.9-1.3-5.2,0.1c-0.7,0.7-1.1,1.6-1.1,2.6c0,1.1,0.5,2.1,1,2.5C173.8,162.9,174.9,163.3,175.9,163.3z"/>
		</g>
		<g>
			<path class="st180" d="M283,190.9c-0.7,0.7-1.1,1.6-1.1,2.6c0,1,0.4,1.9,1.1,2.6s1.6,1.1,2.6,1.1c0.9,0,1.9-0.4,2.6-1.1
				s1.1-1.6,1.1-2.6c0-1-0.4-1.9-1.1-2.6C286.8,189.4,284.4,189.4,283,190.9z"/>
		</g>
		<g>
			<path class="st180" d="M211.2,199.1c0.6,0.7,1.6,1.1,2.6,1.1s1.9-0.4,2.6-1.1c0.7-0.7,1.1-1.7,1.1-2.6c0-1.1-0.4-2-1.1-2.6
				c-1.4-1.4-3.8-1.4-5.1-0.1c-0.7,0.6-1.2,1.7-1.2,2.7C210.1,197.5,210.5,198.4,211.2,199.1z"/>
		</g>
		<g>
			<path class="st180" d="M151.8,204.1c-0.7,0.7-1.1,1.6-1.1,2.6c0,1,0.4,1.9,1,2.6c0.7,0.7,1.6,1.1,2.6,1.1c1,0,1.9-0.4,2.6-1.1
				c0.7-0.7,1.1-1.6,1.1-2.6c0-1-0.4-2-1-2.5c-0.7-0.7-1.7-1.1-2.7-1.1C153.3,203.1,152.4,203.5,151.8,204.1z"/>
		</g>
		<g>
			<path class="st180" d="M113.8,199.1c0.7,0.7,1.6,1.1,2.6,1.1c0.9,0,1.9-0.4,2.6-1.1s1.1-1.7,1.1-2.6c0-0.9-0.4-1.9-1.1-2.6
				c-1.4-1.4-3.8-1.4-5.2,0c-0.7,0.7-1.1,1.6-1.1,2.6C112.7,197.5,113.1,198.4,113.8,199.1z"/>
		</g>
		<g>
			<path class="st180" d="M238.6,207.2c-0.7,0.7-1.1,1.6-1.1,2.6c0,1,0.4,1.9,1.1,2.6c0.6,0.7,1.6,1.1,2.6,1.1c1,0,1.9-0.4,2.6-1.1
				c0.7-0.7,1.1-1.6,1.1-2.6c0-1-0.4-1.9-1.1-2.6C242.4,205.9,239.9,205.9,238.6,207.2z"/>
		</g>
		<g>
			<path class="st180" d="M299.4,160.2c0.7-0.7,1.1-1.6,1.1-2.6c0-1-0.4-2-1-2.5c-0.7-0.7-1.6-1.1-2.6-1.1s-1.9,0.3-2.5,0.9
				c-0.8,0.7-1.2,1.7-1.2,2.7c0,1.1,0.5,2.1,1.1,2.6c0.7,0.7,1.7,1.1,2.6,1.1C297.7,161.3,298.7,160.9,299.4,160.2z"/>
		</g>
		<g>
			<path class="st180" d="M298.9,104.8c1,0,1.9-0.4,2.4-0.9c0.7-0.7,1.2-1.7,1.2-2.7c0-0.9-0.3-1.8-1.1-2.7c-0.7-0.7-1.7-1-2.7-1
				c-0.9,0-1.8,0.4-2.4,1c-0.7,0.7-1.1,1.6-1.1,2.6c0,0.9,0.4,1.9,1.1,2.6C297,104.4,297.9,104.8,298.9,104.8z"/>
		</g>
		<g>
			<path class="st180" d="M195,208.9c0-1-0.4-1.9-1.1-2.6c-0.7-0.7-1.6-1.1-2.6-1.1c-1,0-1.9,0.3-2.6,1c-0.7,0.7-1.1,1.6-1.1,2.6
				c0,1.1,0.5,2.1,1.1,2.6c0.7,0.7,1.7,1.1,2.6,1.1c1.1,0,2-0.5,2.5-0.9C194.6,211,195,210.1,195,208.9z"/>
		</g>
		<g>
			<path class="st180" d="M214.3,217c0,1,0.4,1.9,1.1,2.6s1.6,1.1,2.6,1.1c0.9,0,1.8-0.4,2.6-1.1c0.7-0.7,1.1-1.7,1.1-2.6
				c0-0.9-0.4-1.9-1.1-2.6c-1.4-1.4-3.8-1.4-5.2,0C214.7,215.1,214.3,216,214.3,217z"/>
		</g>
		<g>
			<path class="st180" d="M274,117.9c1,0,1.9-0.4,2.6-1.1c0.7-0.7,1.1-1.7,1.1-2.6c0-1.1-0.4-2-1.1-2.6c-1.4-1.4-3.8-1.4-5.2,0
				c-0.7,0.7-1.1,1.6-1.1,2.6c0,0.9,0.4,1.9,1,2.5C272,117.5,273,117.9,274,117.9z"/>
		</g>
		<g>
			<path class="st180" d="M143.1,159.2c0.9,0,1.8-0.4,2.4-1c0.7-0.6,1.2-1.7,1.2-2.7c0-1-0.4-1.9-1.1-2.6c-0.6-0.7-1.7-1.1-2.6-1
				c-1,0.1-1.9,0.4-2.4,1c-0.8,0.6-1.2,1.6-1.2,2.6c0,0.9,0.4,1.9,1.1,2.6S142.1,159.2,143.1,159.2z"/>
		</g>
		<g>
			<path class="st180" d="M148.2,140.7c1,0,1.9-0.3,2.5-1.1c0.7-0.7,1.1-1.6,1.1-2.6s-0.4-2-1-2.5c-0.7-0.7-1.7-1.1-2.7-1.1
				c-1,0-1.9,0.4-2.5,1c-0.7,0.7-1.1,1.6-1.1,2.6c0,1.1,0.5,2.1,1.1,2.6C146.3,140.3,147.2,140.7,148.2,140.7z"/>
		</g>
		<g>
			<path class="st180" d="M120.4,168.1c-1,0.1-1.9,0.5-2.5,1.1c-0.7,0.7-1.1,1.7-1.1,2.6c0,1,0.4,1.9,1.1,2.6
				c0.7,0.7,1.6,1.1,2.6,1.1c1,0,1.9-0.4,2.6-1.2c0.7-0.7,1.1-1.6,1.1-2.6c0-1-0.4-1.9-1.1-2.6C122.4,168.5,121.3,168.1,120.4,168.1
				z"/>
		</g>
		<g>
			<path class="st180" d="M277.8,143.7c0.7,0.7,1.7,1.1,2.6,1.1c0.9,0,1.8-0.3,2.5-1.1c0.7-0.7,1.1-1.6,1.1-2.6c0-1-0.4-2-1-2.5
				c-0.7-0.7-1.6-1.1-2.6-1.1c-0.8-0.1-1.9,0.3-2.5,0.9c-0.8,0.7-1.2,1.7-1.2,2.7C276.7,142.2,277.2,143.1,277.8,143.7z"/>
		</g>
		<g>
			<path class="st180" d="M206.6,120.3c1,0,1.9-0.4,2.6-1c0.7-0.7,1.1-1.6,1.1-2.6s-0.4-1.9-1.1-2.6c-0.7-0.7-1.6-1.1-2.6-1.1
				c-1,0-1.9,0.3-2.6,1c-0.7,0.7-1.1,1.6-1.1,2.6c0,0.9,0.4,1.9,1.1,2.6C204.7,119.9,205.7,120.3,206.6,120.3z"/>
		</g>
		<g>
			<path class="st180" d="M240.5,146.9c1,0,1.9-0.4,2.6-1.1c0.7-0.6,1.1-1.6,1.1-2.6c0-1-0.4-1.9-1.1-2.6c-1.4-1.4-3.8-1.4-5.2,0
				c-0.7,0.7-1.1,1.6-1.1,2.6c0,1,0.4,1.9,1.1,2.6C238.6,146.5,239.6,146.9,240.5,146.9z"/>
		</g>
		<g>
			<path class="st180" d="M249.7,128.4c0.9,0,1.8-0.4,2.5-1c0.7-0.7,1.1-1.6,1.1-2.6s-0.4-1.9-1.1-2.7c-1.4-1.4-3.8-1.4-5.2,0
				c-0.6,0.6-1,1.6-1,2.6s0.3,1.8,1.1,2.7C247.9,128.1,248.8,128.4,249.7,128.4z"/>
		</g>
		<g>
			<path class="st180" d="M231.3,178.7c1,0,1.9-0.4,2.5-1c0.8-0.7,1.2-1.7,1.2-2.7c0-1-0.4-1.9-1.1-2.6c-1.3-1.4-3.7-1.4-5.2,0
				c-0.7,0.7-1.1,1.6-1.1,2.6c0,1.1,0.5,2.1,1.1,2.6C229.3,178.3,230.3,178.7,231.3,178.7z"/>
		</g>
		<g>
			<path class="st180" d="M257.9,189.9c1,0,1.8-0.3,2.7-1.2c0.6-0.7,0.9-1.5,0.9-2.5c0-0.9-0.3-1.8-1.1-2.7
				c-1.4-1.3-3.8-1.2-5.1,0.1c-0.7,0.7-1.1,1.6-1.1,2.6c0,1,0.4,1.9,1.1,2.6C256,189.5,256.9,189.9,257.9,189.9z"/>
		</g>
		<g>
			<path class="st180" d="M264,167.4c1,0,2-0.4,2.5-1c0.8-0.7,1.2-1.7,1.2-2.7s-0.4-1.9-1.1-2.6c-0.6-0.6-1.6-1-2.6-1h-0.1
				c-1,0-1.9,0.4-2.5,1c-0.7,0.7-1.1,1.6-1.1,2.6c0,1.1,0.5,2.1,1.1,2.6C262.1,167,263.1,167.4,264,167.4z"/>
		</g>
		<g>
			<path class="st180" d="M272.8,211.4c-0.7,0.7-1.1,1.6-1.1,2.6c0,0.9,0.4,1.8,1.1,2.6c0.6,0.7,1.6,1.1,2.6,1.1c1,0,1.9-0.4,2.5-1
				c0.7-0.7,1.1-1.6,1.1-2.6c0-1.1-0.5-2.1-1.1-2.6c-0.7-0.7-1.6-1.1-2.6-1.1S273.4,210.8,272.8,211.4z"/>
		</g>
		<g>
			<path class="st180" d="M299.5,210.2c-0.8,0.6-1.2,1.6-1.2,2.7c0,1.1,0.5,2.1,1.1,2.6c0.7,0.7,1.7,1.1,2.6,1.1
				c1,0,1.9-0.4,2.5-1.1c0.8-0.6,1.2-1.6,1.2-2.6c0-1-0.4-1.9-1.1-2.6C303.2,208.8,300.8,208.8,299.5,210.2z"/>
		</g>
		<g>
			<path class="st180" d="M325,220.6c-0.7,0.7-1.1,1.6-1.1,2.6c0,1,0.4,1.9,1.1,2.6c0.7,0.7,1.6,1.1,2.6,1.1c0.9,0,1.9-0.4,2.7-1
				c0.7-0.7,1.1-1.7,1.1-2.6c0-1-0.4-1.9-1.1-2.6c-0.7-0.7-1.8-1.1-2.8-1.1S325.7,220,325,220.6z"/>
		</g>
		<g>
			<path class="st180" d="M323.5,191c1,0,1.9-0.4,2.5-1c0.7-0.7,1.2-1.7,1.2-2.7c0-1-0.4-2-1.1-2.6c-1.4-1.4-3.8-1.4-5.2,0
				c-0.7,0.7-1.1,1.6-1.1,2.6c0,1,0.4,1.9,1.1,2.6C321.6,190.6,322.5,191,323.5,191z"/>
		</g>
		<g>
			<path class="st180" d="M363.2,225.2c0-1-0.4-1.9-1.1-2.6c-0.7-0.6-1.6-1-2.6-1s-1.9,0.3-2.6,1c-0.7,0.7-1.1,1.6-1.1,2.6
				c0,0.9,0.3,1.8,1,2.6c0.6,0.7,1.6,1.1,2.6,1.1s1.9-0.4,2.7-1.1C362.8,227.1,363.2,226.2,363.2,225.2z"/>
		</g>
		<g>
			<path class="st180" d="M329.2,153c0.7,0.7,1.6,1.1,2.6,1.1c0.9,0,1.8-0.3,2.6-1.2c0.7-0.7,1.1-1.6,1.1-2.6c0-1-0.4-2-1.1-2.6
				c-0.7-0.6-1.6-1-2.7-1c-1,0.1-1.9,0.5-2.4,1c-0.8,0.7-1.2,1.7-1.2,2.7C328.1,151.3,328.5,152.2,329.2,153z"/>
		</g>
		<g>
			<path class="st180" d="M307.2,169.4c0.9,0,1.8-0.3,2.5-1.1c0.6-0.6,1-1.6,1-2.6c0-1-0.4-1.9-1-2.5c-0.6-0.7-1.5-1.1-2.5-1.1
				s-2,0.3-2.8,1.1c-0.6,0.7-0.9,1.5-0.9,2.5c0,1.1,0.4,2,1.1,2.6C305.2,169,306.1,169.4,307.2,169.4z"/>
		</g>
		<g>
			<path class="st180" d="M350.6,147.9c1,0,1.9-0.4,2.5-1.1c0.7-0.7,1.1-1.7,1.1-2.6c0-0.9-0.4-1.8-1.1-2.5
				c-0.6-0.7-1.6-1.1-2.6-1.1s-1.9,0.3-2.4,0.9c-0.8,0.7-1.2,1.7-1.2,2.7c0,0.9,0.4,1.9,1,2.5C348.6,147.5,349.6,147.9,350.6,147.9z
				"/>
		</g>
		<g>
			<path class="st180" d="M310.2,121.2c1,0,1.9-0.3,2.4-0.9c0.8-0.6,1.3-1.6,1.3-2.7c0-1-0.4-2-1.1-2.7s-1.7-1-2.7-1
				c-0.9,0-1.8,0.4-2.4,1c-0.7,0.7-1.1,1.6-1.1,2.6s0.4,2,1,2.6C308.3,120.8,309.2,121.2,310.2,121.2z"/>
		</g>
		<g>
			<path class="st180" d="M359,197.2c0.7-0.7,1.1-1.7,1.1-2.6c0-0.9-0.4-1.9-1.1-2.6s-1.7-1.2-2.7-1.1c-1,0-1.9,0.4-2.5,1
				c-0.7,0.7-1.1,1.7-1.1,2.6c0,0.9,0.4,1.9,1.1,2.6s1.6,1.1,2.6,1.1C357.3,198.2,358.2,197.8,359,197.2z"/>
		</g>
		<g>
			<path class="st180" d="M283.1,233.4c0-1-0.4-1.9-1.1-2.6c-0.6-0.6-1.5-1-2.6-1c-1,0-1.9,0.4-2.4,0.9c-0.8,0.7-1.2,1.7-1.2,2.7
				c0,1,0.4,1.9,1.1,2.6c0.6,0.7,1.6,1.1,2.6,1.1c0.8,0,1.7-0.3,2.5-1.1C282.7,235.3,283.1,234.3,283.1,233.4z"/>
		</g>
		<g>
			<path class="st180" d="M257.4,231.9c0.7-0.6,1.1-1.6,1.1-2.6c0-0.8-0.4-1.8-1-2.5c-0.7-0.7-1.6-1.1-2.6-1.1c-1,0-2,0.4-2.7,1.1
				s-1.1,1.7-1.1,2.6c0,1,0.4,2,1.2,2.7c0.8,0.7,1.7,1,2.6,1C255.9,233.1,256.9,232.6,257.4,231.9z"/>
		</g>
		<g>
			<path class="st180" d="M110.2,222.8c0.9,0,1.8-0.4,2.7-1c0.7-0.8,1-1.7,1-2.6c0-1-0.4-1.9-1.1-2.6s-1.7-1.2-2.7-1.1
				c-1,0-1.9,0.4-2.5,1c-0.7,0.7-1.1,1.6-1.1,2.6s0.4,1.9,1.1,2.6S109.2,222.8,110.2,222.8z"/>
		</g>
		<g>
			<path class="st180" d="M154.9,394c0.7-0.7,1.1-1.6,1.1-2.6s-0.4-1.9-1.1-2.6c-1.3-1.3-3.9-1.4-5.3,0.1c-0.7,0.7-1,1.6-1,2.5
				c0,1,0.4,1.9,1.1,2.6s1.6,1.1,2.6,1.1C153.1,395.1,154,394.7,154.9,394z"/>
		</g>
		<g>
			<path class="st180" d="M196.9,374.4c-0.7,0.7-1.1,1.6-1.1,2.6c0,1,0.4,1.9,1.1,2.6c0.7,0.7,1.7,1.1,2.6,1.1c1,0,1.9-0.4,2.6-1.1
				c0.7-0.6,1.1-1.6,1.1-2.6c0-1-0.4-1.9-1.1-2.6C200.7,373,198.4,373,196.9,374.4z"/>
		</g>
		<g>
			<path class="st180" d="M283,393.8c-0.7,0.7-1.1,1.6-1.1,2.6s0.4,1.9,1.1,2.6s1.7,1.1,2.6,1.1c0.9,0,1.9-0.4,2.5-1.1
				c0.7-0.7,1.1-1.6,1.1-2.6s-0.4-2-1.1-2.6C286.8,392.4,284.5,392.4,283,393.8z"/>
		</g>
		<g>
			<path class="st180" d="M213.9,395.9c-0.9-0.1-1.9,0.3-2.6,1c-0.7,0.7-1.1,1.6-1.1,2.6s0.4,1.9,1.1,2.6s1.6,1.1,2.6,1.1
				c0.8,0,1.7-0.3,2.5-1.1c0.7-0.7,1.1-1.6,1.1-2.6s-0.4-2-1-2.5C215.8,396.3,214.9,395.9,213.9,395.9z"/>
		</g>
		<g>
			<path class="st180" d="M154.3,406.2c-1,0-1.9,0.4-2.5,1c-0.7,0.7-1.1,1.6-1.1,2.6s0.4,2,1,2.6c0.6,0.7,1.6,1.1,2.6,1.1
				c1,0,2-0.4,2.6-0.9c0.8-0.7,1.2-1.6,1.2-2.7c0-1-0.4-1.9-1.1-2.6C156.4,406.6,155.3,406.2,154.3,406.2z"/>
		</g>
		<g>
			<path class="st180" d="M102,380.5c-1,0.1-1.9,0.5-2.4,1c-0.8,0.7-1.2,1.7-1.2,2.7c0,1,0.4,1.9,1.1,2.6s1.6,1.1,2.6,1.1
				c0.9,0,1.9-0.4,2.6-1.1c0.7-0.7,1.1-1.6,1.1-2.6c0-1-0.4-2-1.1-2.7C104,380.8,103,380.4,102,380.5z"/>
		</g>
		<g>
			<path class="st180" d="M116.3,395.9c-1,0-1.9,0.4-2.5,1c-0.7,0.6-1.1,1.6-1.1,2.6c0,1.1,0.4,2.1,1,2.5c0.6,0.8,1.6,1.2,2.7,1.2
				c0.8,0,1.8-0.4,2.5-1.1c0.7-0.7,1.1-1.6,1.1-2.6s-0.4-2-1-2.5C118.4,396.3,117.3,395.9,116.3,395.9z"/>
		</g>
		<g>
			<path class="st180" d="M252.3,408.2c-0.7,0.7-1.1,1.7-1.1,2.6c0,0.9,0.4,1.8,1.1,2.6c0.7,0.7,1.6,1.1,2.6,1.1
				c0.9,0,1.9-0.4,2.5-1.1c0.7-0.7,1.1-1.6,1.1-2.6c0-0.9-0.3-1.8-1-2.6C256.1,406.8,253.7,406.8,252.3,408.2z"/>
		</g>
		<g>
			<path class="st180" d="M191.2,415.5c1.1,0,2-0.4,2.7-1c0.7-0.8,1-1.7,1-2.6s-0.4-1.8-1.1-2.6c-0.7-0.7-1.6-1.1-2.6-1.1
				c-1,0-2,0.4-2.7,1.1c-0.7,0.7-1,1.6-1,2.5c0,1,0.4,2,1,2.5C189,414.9,189.8,415.5,191.2,415.5z"/>
		</g>
		<g>
			<path class="st180" d="M214.3,420.1c0,1,0.4,1.9,1.1,2.6s1.6,1.1,2.6,1.1c0.8,0,1.7-0.3,2.5-1c0.7-0.7,1.1-1.6,1.1-2.6
				c0-1.1-0.5-2.1-1.1-2.6c-0.6-0.7-1.6-1.1-2.6-1.1c-1,0-1.9,0.4-2.5,1C214.7,418.2,214.3,419.1,214.3,420.1z"/>
		</g>
		<g>
			<path class="st180" d="M117.8,372.4c-0.7,0.7-1,1.6-1,2.5c0,1.1,0.4,2,1,2.5c0.7,0.7,1.7,1.2,2.7,1.2c0.9,0,1.8-0.3,2.6-1.1
				c0.7-0.7,1.1-1.6,1.1-2.6c0-0.9-0.4-1.8-1.1-2.6C121.8,371,119.3,370.9,117.8,372.4z"/>
		</g>
		<g>
			<path class="st180" d="M231.3,381.8c1,0,1.9-0.4,2.7-1.2c0.7-0.7,1-1.6,1-2.5c0-1-0.4-1.9-1.1-2.6c-1.4-1.4-3.8-1.4-5.2,0
				c-0.7,0.7-1.1,1.6-1.1,2.6c0,0.9,0.4,1.9,1.1,2.6C229.3,381.4,230.2,381.8,231.3,381.8z"/>
		</g>
		<g>
			<path class="st180" d="M255.3,386.7c-0.7,0.6-1,1.5-1,2.6s0.3,1.9,1,2.6c0.7,0.7,1.6,1.1,2.6,1.1c1,0,2-0.4,2.8-1.1
				c0.6-0.7,0.9-1.6,0.9-2.5c0-1.1-0.4-2-1.1-2.7C259.1,385.3,256.8,385.3,255.3,386.7z"/>
		</g>
		<g>
			<path class="st180" d="M272.8,414.3c-0.7,0.7-1.1,1.6-1.1,2.6s0.4,1.9,1.1,2.6c0.7,0.7,1.6,1.1,2.6,1.1c0.9,0,1.9-0.4,2.6-1.1
				c0.7-0.7,1.1-1.6,1.1-2.6s-0.4-1.9-1.1-2.6C276.6,412.9,274.3,412.9,272.8,414.3z"/>
		</g>
		<g>
			<path class="st180" d="M269.2,466.6c-1,0-1.9,0.4-2.6,1.1c-0.7,0.7-1.1,1.6-1.1,2.6c0,1.1,0.5,2.1,1.1,2.6
				c0.7,0.7,1.7,1.1,2.6,1.1c1,0,1.9-0.4,2.5-1.1c0.8-0.6,1.2-1.6,1.2-2.6s-0.4-1.9-1.1-2.6C271.1,467,270.2,466.6,269.2,466.6z"/>
		</g>
		<g>
			<path class="st180" d="M322.1,442.7c0-1-0.4-1.9-1.1-2.6c-0.7-0.7-1.7-1-2.7-1.1c-1,0-1.9,0.4-2.5,1c-0.7,0.7-1.1,1.6-1.1,2.6
				s0.4,1.9,1,2.5c0.7,0.8,1.7,1.2,2.7,1.2c1,0,2-0.4,2.6-1C321.7,444.6,322.1,443.7,322.1,442.7z"/>
		</g>
		<g>
			<path class="st180" d="M336.9,412.3c-1.1,0-2,0.4-2.5,0.9c-0.8,0.7-1.2,1.7-1.2,2.7s0.4,1.9,1.1,2.6c0.7,0.7,1.6,1.1,2.6,1.1
				c0.9,0,1.9-0.4,2.6-1.1c0.7-0.7,1.1-1.6,1.1-2.6c0-0.9-0.4-1.9-1-2.5C338.9,412.7,338.1,412.4,336.9,412.3z"/>
		</g>
		<g>
			<path class="st180" d="M344,406.4c1,0,2-0.4,2.6-1.1c0.6-0.6,1-1.6,1-2.6c0-1.1-0.3-1.9-1-2.6s-1.6-1.2-2.7-1.1
				c-1,0.1-1.9,0.5-2.5,1.1c-0.7,0.7-1.1,1.6-1.1,2.6c0,0.9,0.4,1.8,1.1,2.6C342.1,406,343,406.4,344,406.4z"/>
		</g>
		<g>
			<path class="st180" d="M317.9,388.8c-0.7,0.7-1.1,1.6-1.1,2.6c0,0.9,0.4,1.8,1.1,2.6c0.6,0.7,1.6,1.1,2.6,1.1s1.9-0.5,2.5-1.1
				c0.8-0.6,1.2-1.5,1.2-2.6c0-1-0.4-2-1.1-2.7C321.6,387.4,319.3,387.4,317.9,388.8z"/>
		</g>
		<g>
			<path class="st180" d="M365.2,382.6c-0.7,0.7-1.1,1.6-1.1,2.6c0,0.9,0.3,1.8,1,2.6c0.7,0.7,1.6,1.1,2.6,1.1c1,0,1.9-0.4,2.7-1
				c0.7-0.7,1.1-1.7,1.1-2.6c0-1-0.4-2-1.1-2.7C368.9,381.2,366.6,381.2,365.2,382.6z"/>
		</g>
		<g>
			<path class="st180" d="M312.2,412.3c-0.9,0-1.9,0.4-2.6,1.1c-0.7,0.7-1,1.6-1,2.5c0,1.1,0.5,2.1,1.1,2.6c0.7,0.7,1.6,1.1,2.6,1.1
				c0.9,0,1.7-0.3,2.5-1.1c0.7-0.7,1.1-1.6,1.1-2.6c0-0.9-0.3-1.8-1-2.5c-0.7-0.7-1.6-1.1-2.6-1.1
				C312.2,412.3,312.2,412.3,312.2,412.3z"/>
		</g>
		<g>
			<path class="st180" d="M340.5,375.5c0.7-0.6,1.1-1.6,1.1-2.6s-0.4-1.9-1.1-2.6c-1.2-1.2-3.3-1.4-4.7-0.4
				c-0.2,0.1-0.4,0.3-0.5,0.4c-0.7,0.7-1.1,1.6-1.1,2.6c0,1.1,0.4,2,1,2.5c0.7,0.8,1.7,1.2,2.7,1.2c0.6,0,1.2-0.2,1.7-0.5
				c0.1-0.1,0.2-0.1,0.3-0.2c0,0,0,0,0.1-0.1c0.1-0.1,0.3-0.2,0.4-0.3C340.5,375.6,340.5,375.6,340.5,375.5
				C340.5,375.5,340.5,375.5,340.5,375.5z"/>
		</g>
		<g>
			<path class="st180" d="M162.5,432c1,0,2-0.4,2.6-1c0.7-0.7,1.1-1.6,1.1-2.6c0-1-0.4-1.9-1.1-2.6s-1.6-1.1-2.6-1.1
				c-1-0.1-1.9,0.3-2.6,1s-1.1,1.6-1.1,2.6c0,0.9,0.4,1.8,1.2,2.7C160.8,431.7,161.6,432,162.5,432z"/>
		</g>
		<g>
			<path class="st180" d="M250.2,441.1c-0.7,0.6-1.1,1.6-1.1,2.6s0.4,1.9,1.1,2.6s1.6,1.1,2.6,1.1c1.1,0,2.1-0.5,2.5-0.9
				c0.8-0.7,1.2-1.7,1.2-2.7c0-1.1-0.5-2.1-1.1-2.6C254,439.8,251.6,439.7,250.2,441.1z"/>
		</g>
		<g>
			<path class="st180" d="M164.5,453.1c0.7-0.7,1.1-1.6,1.1-2.6c0-1-0.4-2-1-2.5c-0.7-0.7-1.6-1.1-2.6-1.1c-1,0-2,0.4-2.6,1
				c-0.7,0.6-1.1,1.6-1.1,2.6c0,1.1,0.3,2,0.9,2.5c0.7,0.8,1.7,1.2,2.7,1.2C162.9,454.2,163.8,453.8,164.5,453.1z"/>
		</g>
		<g>
			<path class="st180" d="M211.7,454.2c-1,0-1.9,0.4-2.6,1.1S208,457,208,458s0.4,1.9,1.1,2.6c0.7,0.7,1.6,1.1,2.6,1.1
				c1,0,2-0.4,2.6-1.1c0.7-0.7,1.1-1.7,1.1-2.6c0-1-0.4-1.9-1.1-2.6S212.8,454.2,211.7,454.2z"/>
		</g>
		<g>
			<path class="st180" d="M236,426.1c0-1-0.4-1.9-1.1-2.6c-0.7-0.6-1.6-0.9-2.7-1c-1,0-1.9,0.4-2.4,1c-0.8,0.6-1.2,1.6-1.2,2.7
				c0,1,0.4,1.9,1.1,2.6s1.7,1.1,2.6,1.1c0.9,0,1.8-0.3,2.6-1.2C235.6,428,236,427,236,426.1z"/>
		</g>
		<g>
			<path class="st180" d="M235.9,455.4c-0.7,0.7-1.1,1.6-1.1,2.6s0.4,1.9,1.1,2.6c0.6,0.7,1.6,1.1,2.6,1.1c0.9,0,1.9-0.4,2.6-1.1
				c0.7-0.7,1.1-1.6,1.1-2.6s-0.4-1.9-1.1-2.6C239.8,454,237.2,454,235.9,455.4z"/>
		</g>
		<g>
			<path class="st180" d="M269.8,443.2c0.7-0.7,1.1-1.6,1.1-2.6c0-1-0.4-1.9-1.1-2.6c-1.3-1.3-3.9-1.3-5.2,0
				c-0.7,0.6-1.1,1.6-1.1,2.6c0,1,0.4,1.9,1.1,2.6c0.6,0.7,1.6,1.1,2.6,1.1C268.2,444.3,269.2,443.9,269.8,443.2z"/>
		</g>
		<g>
			<path class="st180" d="M191.7,438c-0.7,0.6-1.1,1.6-1.1,2.6c0,1,0.4,1.9,1.1,2.6c0.7,0.7,1.7,1.1,2.6,1.1c0.8,0,1.8-0.3,2.6-1.1
				c0.7-0.7,1.1-1.6,1.1-2.6c0-1-0.4-1.9-1.1-2.6C195.6,436.6,193.2,436.6,191.7,438z"/>
		</g>
		<g>
			<path class="st180" d="M130.7,373.5c1,0,1.8-0.3,2.7-1.2c0.6-0.7,0.9-1.5,0.9-2.5c0-0.9-0.3-1.8-1-2.6c-0.7-0.8-1.7-1.1-2.8-1.1
				c-1,0.1-1.9,0.5-2.3,1c-0.8,0.7-1.2,1.7-1.2,2.7s0.4,1.9,1,2.5C128.7,373.1,129.7,373.5,130.7,373.5z"/>
		</g>
	</g>
</g>
<g>
	<path class="st18" d="M151.7,197c-0.4,0-0.7,0-1.1-0.1c-2.1-0.6-3.3-2.7-2.7-4.8c6.8-23.9,14.6-45.6,23.1-64.4
		c0.9-2,3.2-2.8,5.2-1.9c2,0.9,2.8,3.2,1.9,5.2c-8.4,18.4-16.1,39.7-22.7,63.2C154.9,195.8,153.4,197,151.7,197z"/>
</g>
<g>
	<path class="st18" d="M184.5,157.4c-0.3,0-0.7,0-1-0.1c-2.1-0.6-3.3-2.7-2.7-4.8c1.6-5.9,3.3-11.6,5-17c0.6-2.1,2.8-3.2,4.9-2.6
		c2.1,0.6,3.2,2.8,2.6,4.9c-1.7,5.3-3.3,11-4.9,16.8C187.8,156.3,186.2,157.4,184.5,157.4z"/>
</g>
<g>
	<path class="st18" d="M174.2,200.2c-0.3,0-0.5,0-0.8-0.1c-2.1-0.4-3.5-2.5-3-4.6c1.4-6.6,2.9-13.1,4.3-19.3
		c0.5-2.1,2.6-3.4,4.7-2.9c2.1,0.5,3.4,2.6,2.9,4.7c-1.5,6.2-2.9,12.6-4.3,19.1C177.6,198.9,176,200.2,174.2,200.2z"/>
</g>
<path class="st181" d="M379.7,142.6c-16.6-29.4-35.8-52.8-57.2-69.5c-13.1-10.2-26.8-17.8-40.9-22.7c-3.3-1.1-5.2-4.5-4.7-7.9
	c0-0.1,0-0.2,0-0.3c1.6-9.6-1.1-19.4-7.5-26.9c-6.7-8-16.6-12.5-27-12.5c-10.4,0-20.5,4.7-27.1,12.7c-6.4,7.6-9,17.5-7.3,27v0
	c0.6,3.4-1.3,6.8-4.6,7.9c-14.2,4.9-27.9,12.5-41,22.7c-21.4,16.7-40.6,40.1-57.2,69.5c-28.6,50.6-47.1,117.4-47.1,170
	c0,101.6,82.7,184.2,184.2,184.2s184.2-82.7,184.2-184.2C426.7,260,408.3,193.2,379.7,142.6z M242.5,473.4
	c-88.7,0-160.8-72.1-160.8-160.8c0-48.9,17.3-111.1,44-158.5c15.1-26.7,32.3-47.7,51.2-62.6c13.8-10.8,28.2-18,43.2-21.6
	c3.2-0.8,6.3,1.6,6.4,4.9c0.1,5.4,0.2,10.5,0.2,14.7c0,2.1-2.2,3.5-4.1,2.7c-4.1-1.8-6.5-4-6.4-5.7c0-1.3-0.5-2.6-1.6-3.2
	c-3.1-1.8-6.2,0.4-6.2,3.3c0,9.8,14.7,17.1,34.1,17.1c19.2,0,33.7-7.2,34.1-16.7c0.1-2-1.3-3.9-3.3-4.3c-2.4-0.4-4.5,1.5-4.5,3.9
	c0,1.7-2.3,3.8-6.3,5.6c-1.9,0.9-4.1-0.5-4.1-2.7c0-4.2,0.1-9.3,0.2-14.6c0.1-3.3,3.2-5.6,6.4-4.9c14.9,3.6,29.3,10.8,43,21.6
	c18.9,14.8,36.2,35.9,51.2,62.6c26.8,47.4,44,109.6,44,158.5C403.3,401.3,331.2,473.4,242.5,473.4z"/>
<path class="st153" d="M234.5,90.6c0,2.8,2.2,5,4.9,5.1c1,0,2,0.1,3.1,0.1c1.1,0,2.1,0,3.2-0.1c2.7-0.1,4.9-2.4,4.9-5.1
	c0-13.1,0.4-34.7,3.1-51c0.8-5.3-2-10.6-7-12.6c-7.9-3.1-16.9,3.5-15.5,11.3C234.2,55,234.6,77.2,234.5,90.6z"/>
</svg>
