<?xml version="1.0" encoding="utf-8"?>
<!-- Generator: Adobe Illustrator 20.0.0, SVG Export Plug-In . SVG Version: 6.00 Build 0)  -->
<svg version="1.1" id="Layer_1" xmlns="http://www.w3.org/2000/svg" xmlns:xlink="http://www.w3.org/1999/xlink" x="0px" y="0px"
	 viewBox="0 0 500 500" style="enable-background:new 0 0 500 500;" xml:space="preserve">
<style type="text/css">
	.st0{fill:#3F8A23;}
	.st1{fill:#6A5129;}
	.st2{fill:#FFEDA1;}
	.st3{fill:#E5D58F;stroke:#CBBE7C;stroke-linecap:round;stroke-miterlimit:10;}
	.st4{fill:#E5D58F;stroke:#CBBE7C;stroke-miterlimit:10;}
	.st5{fill:#D8C38F;}
	.st6{fill:#B29032;}
	.st7{fill:#2E6000;}
	.st8{fill:#74C600;}
	.st9{fill:#C6CC40;}
	.st10{fill:#A6B135;}
	.st11{fill:#C6CC40;stroke:#A6B135;stroke-width:3;stroke-linecap:round;stroke-linejoin:round;stroke-miterlimit:10;}
	.st12{fill:#72621E;}
	.st13{fill:#CBBE7C;}
	.st14{fill:#998E5F;}
	.st15{fill:#F7D63C;}
	.st16{fill:#00FFFF;}
	.st17{clip-path:url(#SVGID_2_);}
	.st18{fill:none;stroke:#CBBE7C;stroke-width:2;stroke-miterlimit:10;}
	.st19{fill:none;stroke:#CBBE7C;stroke-width:2;stroke-linecap:round;stroke-miterlimit:10;}
	.st20{fill:#E1C25F;}
	.st21{fill:#DABF62;}
	.st22{fill:#CEBC5A;}
	.st23{fill:#BEB74F;}
	.st24{fill:#B6B44C;}
	.st25{fill:#998617;}
	.st26{fill:#FFFFFF;}
	.st27{clip-path:url(#SVGID_4_);}
	.st28{fill:none;stroke:#E1C25F;stroke-miterlimit:10;}
	.st29{fill:#C6CC40;stroke:#A6B135;stroke-linecap:round;stroke-miterlimit:10;}
	.st30{fill:#C6CC40;stroke:#A6B135;stroke-linecap:round;stroke-linejoin:round;stroke-miterlimit:10;}
	.st31{fill:none;stroke:#A6B135;stroke-linecap:round;stroke-miterlimit:10;}
	.st32{fill:none;stroke:#E1C25F;stroke-linecap:round;stroke-linejoin:round;stroke-miterlimit:10;}
	.st33{fill:none;stroke:#A6B135;stroke-linecap:round;stroke-linejoin:round;stroke-miterlimit:10;}
	.st34{fill:#E5E54A;}
	.st35{fill:#CCAE58;}
	.st36{fill:#809931;}
	.st37{fill:none;stroke:#CFB04D;stroke-linecap:round;stroke-miterlimit:10;}
	.st38{fill:#E7D572;}
	.st39{fill:#CFB04D;}
	.st40{fill:#E5D58F;}
	.st41{fill:none;stroke:#E1C25F;stroke-width:2;stroke-linecap:round;stroke-linejoin:round;stroke-miterlimit:10;}
	.st42{fill:none;stroke:#E1C25F;stroke-linecap:round;stroke-miterlimit:10;}
	.st43{opacity:0.7;fill:#2E6000;stroke:#2E6000;stroke-linecap:round;stroke-linejoin:round;stroke-miterlimit:10;}
	.st44{fill:none;stroke:#CFB04D;stroke-width:2;stroke-linecap:round;stroke-linejoin:round;stroke-miterlimit:10;}
	.st45{fill:#73AD4E;}
	.st46{fill:#4C8816;}
	.st47{fill:#AC933F;}
	.st48{fill:none;stroke:#B29032;stroke-width:2;stroke-linecap:round;stroke-miterlimit:10;}
	.st49{fill:#D8C38F;stroke:#B29032;stroke-linejoin:round;stroke-miterlimit:10;}
	.st50{fill:#E7D572;stroke:#B29032;stroke-linejoin:round;stroke-miterlimit:10;}
	.st51{fill:#FFEDA1;stroke:#CBBE7C;stroke-linecap:round;stroke-miterlimit:10;}
	.st52{fill:#FFEDA1;stroke:#CBBE7C;stroke-width:0.9424;stroke-linecap:round;stroke-miterlimit:10;}
	.st53{fill:#FFEDA1;stroke:#CBBE7C;stroke-width:0.9424;stroke-miterlimit:10;}
	.st54{fill:none;stroke:#CBBE7C;stroke-width:1.8847;stroke-linecap:round;stroke-miterlimit:10;}
	.st55{fill:#FFEDA1;stroke:#CBBE7C;stroke-miterlimit:10;}
	.st56{fill:none;stroke:#FFFFFF;stroke-width:7;stroke-linecap:round;stroke-miterlimit:10;}
	.st57{fill:#ECE8DB;}
	.st58{fill:#5B3A03;}
	.st59{fill:#ECE8DB;stroke:#5B3A03;stroke-linecap:round;stroke-linejoin:round;stroke-miterlimit:10;}
	.st60{fill:none;stroke:#7A7F16;stroke-width:3;stroke-linecap:round;stroke-linejoin:round;stroke-miterlimit:10;}
	.st61{fill:none;stroke:#7A7F16;stroke-linecap:round;stroke-linejoin:round;stroke-miterlimit:10;}
	.st62{fill:none;stroke:#9FAD1C;stroke-width:3;stroke-linecap:round;stroke-linejoin:round;stroke-miterlimit:10;}
	.st63{fill:none;stroke:#9FAD1C;stroke-linecap:round;stroke-linejoin:round;stroke-miterlimit:10;}
	.st64{fill:#F3E382;stroke:#A72801;stroke-linejoin:round;stroke-miterlimit:10;}
	.st65{clip-path:url(#SVGID_6_);}
	.st66{clip-path:url(#SVGID_8_);}
	.st67{fill:#A72801;}
	.st68{clip-path:url(#SVGID_10_);}
	.st69{clip-path:url(#SVGID_12_);}
	.st70{clip-path:url(#SVGID_14_);}
	.st71{clip-path:url(#SVGID_16_);}
	.st72{clip-path:url(#SVGID_18_);}
	.st73{clip-path:url(#SVGID_20_);}
	.st74{fill:url(#);stroke:#F3E382;stroke-linejoin:round;stroke-miterlimit:10;}
	.st75{clip-path:url(#SVGID_22_);}
	.st76{clip-path:url(#SVGID_24_);}
	.st77{fill:#FFFCEE;}
	.st78{clip-path:url(#SVGID_26_);}
	.st79{fill:#9FAD1C;stroke:#7A7F16;stroke-linecap:round;stroke-linejoin:round;stroke-miterlimit:10;}
	.st80{fill:#7F3701;}
	.st81{fill:#F3E382;}
	.st82{clip-path:url(#SVGID_28_);}
	.st83{clip-path:url(#SVGID_30_);}
	.st84{clip-path:url(#SVGID_32_);}
	.st85{fill:#9FAD1C;}
	.st86{fill:#7A7F16;}
	.st87{fill:none;stroke:#516000;stroke-width:3;stroke-linecap:round;stroke-linejoin:round;stroke-miterlimit:10;}
	.st88{fill:none;stroke:#516000;stroke-linecap:round;stroke-linejoin:round;stroke-miterlimit:10;}
	.st89{fill:#DCB375;stroke:#BB4126;stroke-linejoin:round;stroke-miterlimit:10;}
	.st90{fill:#CC6352;}
	.st91{opacity:0.6;fill:none;stroke:#DCB375;stroke-width:3;stroke-miterlimit:10;}
	.st92{opacity:0.7;fill:none;stroke:#DCB375;stroke-width:3;stroke-miterlimit:10;}
	.st93{opacity:0.8;fill:none;stroke:#DCB375;stroke-width:3;stroke-miterlimit:10;}
	.st94{opacity:0.9;fill:none;stroke:#DCB375;stroke-width:3;stroke-miterlimit:10;}
	.st95{opacity:0.5;fill:none;stroke:#DCB375;stroke-width:3;stroke-miterlimit:10;}
	.st96{opacity:0.4;fill:none;stroke:#DCB375;stroke-width:3;stroke-miterlimit:10;}
	.st97{opacity:0.3;fill:none;stroke:#DCB375;stroke-width:3;stroke-miterlimit:10;}
	.st98{opacity:0.2;fill:none;stroke:#DCB375;stroke-width:3;stroke-miterlimit:10;}
	.st99{opacity:0.1;fill:none;stroke:#DCB375;stroke-width:3;stroke-miterlimit:10;}
	.st100{clip-path:url(#SVGID_34_);}
	.st101{clip-path:url(#SVGID_36_);}
	.st102{fill:#EEA969;}
	.st103{clip-path:url(#SVGID_38_);}
	.st104{clip-path:url(#SVGID_40_);}
	.st105{clip-path:url(#SVGID_42_);}
	.st106{clip-path:url(#SVGID_44_);}
	.st107{clip-path:url(#SVGID_46_);}
	.st108{clip-path:url(#SVGID_48_);}
	.st109{fill:none;stroke:#BB4126;stroke-linejoin:round;stroke-miterlimit:10;}
	.st110{fill:#919C3E;stroke:#516000;stroke-linecap:round;stroke-linejoin:round;stroke-miterlimit:10;}
	.st111{fill:#B23926;}
	.st112{fill:#DCB375;}
	.st113{fill:#D4936B;}
	.st114{fill:#D69B6E;}
	.st115{fill:#D8A372;}
	.st116{fill:#D9AA75;}
	.st117{fill:#D28B67;}
	.st118{fill:#D08363;}
	.st119{fill:#CF7B5F;}
	.st120{fill:#CD735C;}
	.st121{fill:#CC6B58;}
	.st122{fill:#EEA969;stroke:#EEA969;stroke-width:2.968;stroke-miterlimit:10;}
	.st123{fill:#919C3E;}
	.st124{fill:#516000;}
	.st125{fill:#E8F1D7;stroke:#3F8A23;stroke-linecap:round;stroke-linejoin:round;stroke-miterlimit:10;}
	.st126{fill:#6CA647;stroke:#3F8A23;stroke-linecap:round;stroke-linejoin:round;stroke-miterlimit:10;}
	.st127{fill:#E8F1D7;}
	.st128{fill:#7FBF55;}
	.st129{opacity:0.7;fill:none;stroke:#7FBF55;stroke-width:1.0462;stroke-miterlimit:10;}
	.st130{opacity:0.5;fill:none;stroke:#7FBF55;stroke-width:1.0462;stroke-miterlimit:10;}
	.st131{opacity:0.3;fill:none;stroke:#7FBF55;stroke-width:1.0462;stroke-miterlimit:10;}
	.st132{opacity:0.1;fill:none;stroke:#7FBF55;stroke-width:1.0462;stroke-miterlimit:10;}
	.st133{fill:#A0CD80;}
	.st134{fill:#B5D799;}
	.st135{fill:#C9E1B2;}
	.st136{fill:#DEEBCB;}
</style>
<path class="st7" d="M374.1,356.3c6.2,5.3,13.9,8.2,22.1,8.2h0.2h0.6l0.6,0l0.3,0l0.1,0l0.1,0c8.2-0.5,15.7-3.8,21.6-9.6
	c5.9-5.7,9.8-13.5,11.7-23.2c0.6-3.3,1-6.6,1.3-9.8c0.3-4.9,2.4-9.5,6-12.8c5.2-4.7,8.9-11,10.5-18.1c1.4-6.1,1.2-12.9-0.5-20.1
	c-0.8-3.5-2-7.1-3.5-10.9c-1.5-3.8-1.8-8.1-0.6-12.1c1-3.6,1.5-7.4,1.3-11.3c-0.3-6.3-2.2-12.8-5.6-19.3
	c-3.8-7.1-9.6-14.7-17.3-22.4c-5.7-5.7-11.2-10.3-16.6-13.9c-8.1-5.3-14.6-12.6-18.8-21.3c-9.5-19.5-19.9-35.9-31.1-49.2
	c-10.6-12.5-22-22.4-34-29.2C308.3,73.2,293.1,69,277.4,69c-3.7,0-7.4,0.3-11.1,0.8c-7.2,1.1-13.4-5-12.2-12.2
	c0.8-5,1.4-9.3,1.7-12.9c0.7-8.2,0.8-17.7-3.7-26.3c-5.8-10.9-15.4-13.9-19-15L231.9,3l-3.3-1l-3.4-0.1l-1.4,0l-0.2,0h-0.2h0h0h0
	c-20.3,0-29.4,15.4-37.6,32.5c-10.3,21.5-26.8,64.2-51.8,134.2c-27.4,76.7-60.2,174-79.7,236.6c-4.2,13.4-3.1,27.4,3,39.4
	c0.5,1,1,1.9,1.6,2.9c1.7,2.8,2.2,6.1,1.5,9.3c-0.2,0.7-0.3,1.2-0.4,1.5l0,0l0,0c-4,17.2,6.7,34.5,23.9,38.6l0.1,0l0.1,0
	c2.4,0.5,4.8,0.8,7.2,0.8c14.9,0,27.8-10.2,31.2-24.7l0-0.1c0.8-3.3,2.9-6.1,5.8-7.8c10.7-6.4,19-16.7,23-29.6
	c10.1-32.1,22.4-73.7,35-117.1c0.9-3.3,5.4-3.7,6.9-0.6c2.7,5.5,6.3,9.4,9.9,12.2c3.7,2.9,5.7,7.5,5.2,12.2
	c-0.5,4.3-0.7,8.9-0.7,13.9c0,10.9,1.2,20.3,3.6,28.1c2.2,7.1,5.4,13,9.7,17.7c6.6,7.2,15.6,11.2,25.3,11.2c9.7,0,18.7-4,25.3-11.2
	c4.2-4.6,7.5-10.6,9.7-17.7c1.7-5.6,2.8-12.2,3.3-19.5c0.1-1.3,0.7-2.5,1.8-3.2c1.8-1.2,3.8-2.8,5.8-4.9c2.1-2.2,5.9-1.4,7,1.5
	l0,0.1c2.4,6.5,5.8,12,10,16.2c6.5,6.6,15.2,10.2,24.3,10.2h0.2h0.6l0.6,0l0.3,0l0.1,0l0.1,0c8.2-0.5,15.7-3.8,21.6-9.6
	c4.6-4.5,8-10.3,10.2-17.2c0,0,0.7-2.6,3.3-3.1C372.4,354.2,374.1,356.3,374.1,356.3z M285.2,217.5
	C285.2,217.6,285.1,217.6,285.2,217.5c-1.4,2.1-4.4,2.1-5.7,0c-3.7-5.8-7.6-10.5-11.8-14.3c-1.7-1.5-2.8-3.6-3.2-5.9
	c-0.5-3.6-1.5-7-2.8-10.1c-0.3-0.8-0.6-1.6-0.7-2.4c-2.2-13.9-4.4-25.6-6.2-34.6c-0.4-1.8,0.2-3.6,1.5-4.9
	c5.6-5.4,10.2-8.5,13.7-10.2c3.1-1.5,6.8,0.3,7.5,3.7c2.5,11.9,5.7,27.7,9,45.9c0.4,2.2,0.3,4.4-0.3,6.5c-1.6,5.8-2.1,12.9-0.1,21.6
	C286.4,214.5,286.1,216.2,285.2,217.5z"/>
<path class="st45" d="M230.8,30.6c-1.1-2.1-2.9-3.6-5.1-4.2c-0.8-0.3-1.7-0.4-2.6-0.4h0h0c-6.5,0-10,6.3-14.7,16
	c-3.5,7.3-8.1,17.9-13.6,31.7c-9.9,24.7-23.2,60.3-38.4,103.1c-27.3,76.5-59.9,173.4-79.4,235.7c-2.3,7.4-1.8,14.9,1.5,21.3
	c3.2,6.3,8.8,11,15.8,13.2c2.7,0.8,5.4,1.2,8.1,1.2c11.9,0,22-7.8,25.7-19.8c19.5-62.2,46.9-157,68.2-235.9
	c11.7-43.4,21.2-80.2,27.3-106.5c3.4-14.6,5.8-26.3,7.2-34.7C232.9,37.7,232.5,33.7,230.8,30.6z"/>
<path class="st38" d="M245.6,385c-5.8,0-7.8-7.7-8.5-10.3c-1.3-5-2-11.6-2-18.6s0.7-13.6,2-18.6c0.7-2.5,2.7-10.3,8.5-10.3
	s7.8,7.7,8.5,10.3c1.3,5,2,11.6,2,18.6s-0.7,13.6-2,18.6C253.4,377.3,251.4,385,245.6,385z"/>
<path class="st38" d="M352.5,310.1c-8.2,0-18.6-17.1-20.5-20.6c-3.5-6-6.2-12.1-7.5-17.1c-0.7-2.5-2.8-10.2,2.2-13.1
	c0.9-0.5,1.9-0.8,3-0.8c8.2,0,18.6,17.1,20.5,20.6c3.5,6,6.2,12.1,7.5,17.1c0.7,2.5,2.8,10.2-2.2,13.1
	C354.6,309.8,353.6,310.1,352.5,310.1L352.5,310.1z"/>
<path class="st38" d="M341.7,245.8c-8.2,0-18.6-17.1-20.5-20.6c-3.5-6-6.2-12.1-7.5-17.1c-0.7-2.5-2.8-10.2,2.2-13.1
	c0.9-0.5,1.9-0.8,3-0.8c8.2,0,18.6,17.1,20.5,20.6c3.5,6,6.2,12.1,7.5,17.1c0.7,2.5,2.8,10.2-2.2,13.1
	C343.7,245.6,342.7,245.8,341.7,245.8L341.7,245.8z"/>
<path class="st38" d="M306.9,283.9c-0.4,0-0.8,0-1.1-0.1c-5.7-1.2-6.1-9.1-6.2-11.8c-0.3-5.2,0.3-11.8,1.7-18.6
	c1.3-6.2,6-26.3,14.9-26.3c0.4,0,0.8,0,1.1,0.1c5.7,1.2,6.1,9.1,6.2,11.8c0.3,5.2-0.3,11.8-1.7,18.6
	C320.5,263.8,315.7,283.9,306.9,283.9z"/>
<path class="st38" d="M266.9,339.2c-8.4,0-17.5-18.6-19.2-22.3c-3-6.3-5.1-12.6-6-17.7c-0.5-2.6-1.9-10.5,3.3-12.9
	c0.8-0.4,1.6-0.5,2.5-0.5c8.4,0,17.5,18.6,19.2,22.3c3,6.3,5.1,12.6,6,17.7c0.5,2.6,1.9,10.5-3.3,12.9
	C268.6,339,267.7,339.2,266.9,339.2C266.9,339.2,266.9,339.2,266.9,339.2z"/>
<path class="st38" d="M261.5,274.2c-8.4,0-17.5-18.6-19.2-22.3c-3-6.3-5.1-12.6-6-17.7c-0.5-2.6-1.9-10.5,3.3-12.9
	c0.8-0.4,1.6-0.5,2.5-0.5c8.4,0,17.5,18.6,19.2,22.3c3,6.3,5.1,12.6,6,17.7c0.5,2.6,1.9,10.4-3.3,12.9
	C263.3,274,262.4,274.2,261.5,274.2C261.5,274.2,261.5,274.2,261.5,274.2z"/>
<path class="st38" d="M223.5,309.2c-0.6,0-1.1-0.1-1.6-0.2c-5.5-1.6-5.3-9.6-5.2-12.3c0.2-5.2,1.3-11.7,3.3-18.4
	c1.7-5.9,8-25,16.6-25c0.6,0,1.1,0.1,1.6,0.2c5.5,1.6,5.3,9.6,5.2,12.3c-0.2,5.2-1.3,11.7-3.3,18.4
	C238.4,290.1,232.1,309.2,223.5,309.2z"/>
<path class="st38" d="M217,249.6c-0.6,0-1.1-0.1-1.6-0.2c-5.5-1.6-5.3-9.6-5.2-12.3c0.2-5.2,1.3-11.7,3.3-18.4c1.7-5.9,8-25,16.6-25
	c0.6,0,1.1,0.1,1.6,0.2c5.5,1.6,5.3,9.6,5.2,12.3c-0.2,5.2-1.3,11.7-3.3,18.4C231.8,230.5,225.5,249.6,217,249.6z"/>
<path class="st38" d="M332.8,356.6c-8.9,0-10.8-20-11.2-26.1c-0.4-6.3-0.9-26.8,8.3-27.3l0.1,0l0.2,0c8.9,0,10.8,20,11.2,26.1
	c0.4,6.4,0.1,12.5-0.8,17.2c-0.5,2.4-1.9,9.8-7.5,10.1l-0.1,0L332.8,356.6z"/>
<line class="st7" x1="200.3" y1="105.4" x2="96.5" y2="439.3"/>
<path class="st46" d="M96.5,443.3c-0.4,0-0.8-0.1-1.2-0.2c-2.1-0.7-3.3-2.9-2.6-5l103.8-333.9c0.7-2.1,2.9-3.3,5-2.6
	c2.1,0.7,3.3,2.9,2.6,5L100.3,440.5C99.8,442.2,98.2,443.3,96.5,443.3z"/>
<line class="st7" x1="132.5" y1="272.1" x2="80.5" y2="439.3"/>
<path class="st46" d="M133.7,268.3c-2.1-0.7-4.4,0.5-5,2.6L78.2,433.4c0.1,0.1,0.1,0.3,0.2,0.4c1.4,2.8,3.4,5.4,5.7,7.5
	c0.1-0.2,0.2-0.5,0.3-0.7l52-167.2C137,271.2,135.8,268.9,133.7,268.3z"/>
<line class="st7" x1="148.8" y1="322.8" x2="109.5" y2="449.3"/>
<path class="st46" d="M115.1,444.8L152.7,324c0.7-2.1-0.5-4.4-2.6-5c-2.1-0.7-4.4,0.5-5,2.6L105.7,448
	C109.1,447.5,112.2,446.4,115.1,444.8z"/>
<path class="st38" d="M415.8,289.9c-8.2,0-18.6-17.1-20.5-20.6c-3.5-6-6.2-12.1-7.5-17.1c-0.7-2.5-2.8-10.2,2.2-13.1
	c0.9-0.5,1.9-0.8,3-0.8c8.2,0,18.6,17.1,20.5,20.6c3.5,6,6.2,12.1,7.5,17.1c0.7,2.5,2.8,10.2-2.2,13.1
	C417.9,289.6,416.9,289.9,415.8,289.9L415.8,289.9z"/>
<path class="st38" d="M411.6,244.4c-6.3,0-16.1-7.6-23.3-14.8c-4.9-4.9-9.1-10.1-11.7-14.6c-1.3-2.3-5.4-9.2-1.3-13.2
	c0.8-0.8,2.2-1.8,4.6-1.8c6.3,0,16.1,7.6,23.3,14.8c4.9,4.9,9.1,10.1,11.7,14.6c1.3,2.3,5.4,9.2,1.3,13.3
	C415.3,243.4,413.9,244.4,411.6,244.4C411.6,244.4,411.6,244.4,411.6,244.4z"/>
<path class="st38" d="M396,336.4c-8.9,0-10.8-20-11.2-26.1c-0.4-6.4-0.1-12.5,0.8-17.2c0.5-2.4,1.9-9.8,7.5-10.1l0.1,0l0.2,0
	c8.9,0,10.8,20,11.2,26.1c0.4,6.3,0.9,26.8-8.3,27.3l-0.1,0L396,336.4z"/>
<circle class="st26" cx="200.3" cy="105.4" r="4.1"/>
<path class="st47" d="M381.8,292.3c-1,5-1.3,11.5-0.9,18.2c0.7,11.2,3.5,29.9,15.2,29.9c0.2,0,0.4,0,0.6,0c7.1-0.4,10-7.5,11.2-13.4
	c1-5,1.3-11.5,0.9-18.2c-0.2-3.9-0.7-8.6-1.8-13.2c-0.5-2.2,1.7-3.9,3.7-3c1.7,0.8,3.4,1.3,5.2,1.3c1.8,0,3.5-0.5,5-1.3
	c1.9-1.1,5-3.8,5.2-9.7c0.1-2.3-0.3-4.9-1.2-8c-1.5-5.3-4.3-11.7-7.9-18.1c-0.8-1.4-1.8-3.1-2.9-4.7c-1.1-1.6-0.3-3.8,1.5-4.5
	c2.2-0.9,3.5-2.1,3.5-2.1c1.5-1.5,3.9-5,2.5-10.7c-0.5-2.2-1.6-4.7-3.2-7.4c-2.8-4.8-7.2-10.2-12.3-15.4c-4.8-4.8-16.9-16-26.1-16
	l0,0c-1.6,0-3-0.9-3.6-2.4c-19.7-48.9-51.7-100.5-99-100.5c-25.9,0-52.3,20.4-78.4,60.6c-20,30.7-40.2,73.4-60.1,126.9
	C104.9,371.2,83.2,463,83,463.9c-1,4.3,1.7,8.6,6,9.6c0.6,0.1,1.2,0.2,1.8,0.2c3.6,0,6.9-2.5,7.8-6.2c0.2-0.9,21.7-91.8,55.1-181.5
	c19.5-52.3,39.2-94,58.5-123.7c1.1-1.8,2.3-3.5,3.4-5.1c2.2-3.2,7.2-2.2,7.9,1.6c1.4,7.2,3.1,16,4.8,26.3c0.4,2.3-0.8,4.6-2.9,5.6
	c-4,1.9-6.8,6-8.7,9.3c-2.7,4.6-5.2,10.9-7.2,17.5c-2.1,7-3.3,13.9-3.5,19.4c-0.1,3.2,0.1,5.8,0.7,8c1.5,5.7,5.3,7.6,7.3,8.2
	c0.9,0.3,1.8,0.4,2.8,0.4c6.5,0,10.7-5.9,13.2-10.3c0.2-0.3,0.3-0.6,0.5-0.9c0.8-1.5,3.1-1.3,3.6,0.3l1.2,3.5c0.5,1.5-0.3,3-1.8,3.5
	c-4.9,1.4-8.2,6.2-10.3,9.9c-2.7,4.6-5.2,10.9-7.2,17.5c-2.1,7-3.3,13.9-3.5,19.4c-0.1,3.2,0.1,5.8,0.7,8c1.5,5.7,5.3,7.6,7.3,8.2
	c0.9,0.3,1.8,0.4,2.8,0.4c5.9,0,9.9-4.9,12.5-9.1c0,0,0.5-1.1,1.6-0.9c0.7,0.1,1,0.7,1,1.1c0.1,0.3,0.1,0.6,0.2,0.9
	c0.6,2,1.3,4.2,2.1,6.4c0.1,2.8,0.2,5.6,0.2,8.4c0,2.3-0.8,4.5-2.5,6c-0.9,0.8-1.7,1.8-2.5,3c-1.2,2-2.2,4.4-3,7.5
	c-1.4,5.3-2.2,12.3-2.2,19.6s0.8,14.3,2.2,19.6c0.8,3.1,1.8,5.6,3,7.5c3.1,5,7.2,5.8,9.3,5.8s6.3-0.8,9.3-5.8c1.2-2,2.2-4.4,3-7.5
	c1.4-5.3,2.2-12.3,2.2-19.6c0-3.9-0.2-7.7-0.6-11.3c-0.2-1.8,1.6-3.2,3.3-2.5c1.4,0.5,2.7,0.8,4.1,0.8c1.5,0,2.9-0.3,4.2-0.9
	c2-0.9,5.4-3.3,6-9.2c0.3-2.3,0.1-4.9-0.5-8.1c-1-5.4-3.3-12.1-6.4-18.7c-2.8-6.1-6.2-11.7-9.5-15.9c-3.1-4-6.1-6.6-9.1-7.8
	c-2.6-1.1-4.3-3.7-4.5-6.5c-0.1-1.5-0.2-2.9-0.3-4.4c0,0,0-1.2,0.6-1.5c1.1-0.4,1.8,0.7,1.8,0.7c4.2,4.9,8.1,7.2,12.2,7.2
	c1.5,0,2.9-0.3,4.2-0.9c2-0.9,5.4-3.3,6-9.2c0.3-2.3,0.1-4.9-0.5-8.1c-1-5.4-3.3-12.1-6.4-18.7c-2.8-6.1-6.2-11.7-9.5-15.9
	c-3.8-4.8-7.3-7.6-10.9-8.4c-1.6-0.4-2.9-1.7-3.4-3.4l-0.7-2.4c0.2-1.7,0.4-3.4,0.4-5c0.1-3.2-0.1-5.8-0.7-8
	c-0.2-0.9-0.5-1.6-0.8-2.3c-1-2.1-1.7-4.3-2.1-6.6c-3.5-21.8-6.9-38.1-8.8-46.6c-0.3-1.3,0-2.7,0.9-3.8
	c16.7-19.9,32.8-29.9,47.8-29.9c5.1,0,10.7,0.9,16.8,3.1c1.4,0.5,2.4,1.7,2.7,3.1c2.6,11.3,8.7,38.7,14.7,73.3
	c0.4,2.2-0.1,4.5-1.2,6.4c-0.9,1.5-1.6,3.5-1.6,6.1c-0.1,2.3,0.3,4.9,1.2,8c0.7,2.5,1.7,5.2,2.9,8c1.2,2.8,0.3,6-2.3,7.6
	c-4,2.6-6.3,7.5-7.3,9.5c-2.3,4.9-4.4,11.4-5.8,18.3c-1.5,7.2-2.1,14.1-1.8,19.6c0.2,3.2,0.6,5.8,1.4,8c2,5.5,5.9,7.1,8,7.5
	c0.6,0.1,1.3,0.2,1.9,0.2c7.7,0,11.7-8.5,13-11.3c0,0,0.2-0.8,0.9-0.7s0.9,0.9,0.9,0.9c0.5,1.5,1.1,3.1,1.8,4.7c0.4,1,0.7,2,0.8,3
	c0.3,3.9,0.7,7.9,0.9,11.8c0.2,2.2-0.7,4.3-2.2,5.8c-2.5,2.7-3.9,6.7-4.6,10.2c-1,5-1.3,11.5-0.9,18.2c0.7,11.2,3.5,29.9,15.2,29.9
	c0.2,0,0.4,0,0.6,0c7.1-0.4,10-7.5,11.2-13.4c1-5,1.3-11.5,0.9-18.2c-0.3-4.3-0.8-9.6-2.1-14.6c-0.4-1.7,1.3-3.1,2.8-2.2
	c2.1,1.2,4.2,1.9,6.4,1.9c1.8,0,3.5-0.5,5-1.3c1.9-1.1,5-3.8,5.2-9.7c0.1-2.3-0.3-4.9-1.2-8c-1.5-5.3-4.3-11.7-7.9-18.1
	c-4.4-7.7-12.8-20.1-21.5-22.3c0,0-1.1-0.3-2-1.1c-1-0.9-1.2-2.1-1.2-2.1c-0.2-1.6-0.4-3.3-0.6-4.9c-0.2-1.7,1.8-2.7,3-1.6
	c3.3,2.8,6.8,4.8,10.3,4.8c1.8,0,3.5-0.5,5-1.3c1.9-1.1,5-3.8,5.2-9.7c0.1-2.3-0.3-4.9-1.2-8c-1.5-5.3-4.3-11.7-7.9-18.1
	c-3.9-6.8-11-17.4-18.6-21.2c-2.7-1.3-4.7-3.8-5.2-6.8c-3.9-22.3-7.8-41.4-10.7-55c-0.9-4.1,4-7,7.2-4.2c14,12.5,29,33.6,43.6,68.2
	c18.3,43.6,27.3,88.1,27,88.4C382.6,285.9,381.8,292.3,381.8,292.3z M245.6,381c-3.6,0-6.5-11.1-6.5-24.9c0-13.7,2.9-24.9,6.5-24.9
	c3.6,0,6.5,11.1,6.5,24.9C252.1,369.8,249.2,381,245.6,381z M247.4,289.7c3.5,0,10.2,8.4,15.6,20c5.8,12.4,7.9,23.8,4.7,25.3
	c-0.2,0.1-0.5,0.2-0.8,0.2c-3.5,0-10.2-8.4-15.6-20c-5.8-12.4-7.9-23.8-4.7-25.3C246.8,289.8,247.1,289.7,247.4,289.7z M241.2,225
	c0.2-0.1,0.5-0.2,0.8-0.2c3.5,0,10.2,8.4,15.6,20c5.8,12.4,7.9,23.8,4.7,25.3c-0.2,0.1-0.5,0.2-0.8,0.2c-3.5,0-10.2-8.4-15.6-20
	C240.1,237.8,238,226.5,241.2,225z M236.3,283.1c-3.7,12.6-9.3,22.1-12.7,22.1c-0.2,0-0.3,0-0.5-0.1c-3.4-1-3.1-12.5,0.8-25.7
	c3.7-12.6,9.3-22.1,12.7-22.1c0.2,0,0.3,0,0.5,0.1C240.5,258.4,240.2,269.9,236.3,283.1z M230.6,197.8c3.4,1,3.1,12.5-0.8,25.7
	c-3.7,12.6-9.3,22.1-12.7,22.1c-0.2,0-0.3,0-0.5-0.1c-3.4-1-3.1-12.5,0.8-25.7c3.7-12.6,9.3-22.1,12.7-22.1
	C230.2,197.8,230.4,197.8,230.6,197.8z M332.9,352.6C332.8,352.6,332.8,352.6,332.9,352.6c-3.3,0-6.5-9.9-7.3-22.4
	c-0.7-12.5,1.3-22.9,4.6-23.1c0,0,0.1,0,0.1,0c3.2,0,6.4,9.9,7.2,22.4C338.2,342,336.1,352.4,332.9,352.6z M333.5,299.4
	c0.1,0.1,0.2,0.3,0.3,0.4c-0.1,0-0.2-0.1-0.3-0.1C333.6,299.6,333.5,299.5,333.5,299.4z M328.6,262.7c0.3-0.2,0.6-0.2,1-0.2
	c3.6,0,10.8,7.8,17.1,18.6c6.9,11.9,9.9,23,6.8,24.8c-0.3,0.2-0.6,0.2-1,0.2c-3.6,0-10.8-7.8-17.1-18.6
	C328.6,275.6,325.6,264.5,328.6,262.7z M317.8,198.5c0.3-0.2,0.6-0.2,1-0.2c3.6,0,10.8,7.8,17.1,18.6c6.9,11.9,9.9,23,6.8,24.8
	c-0.3,0.2-0.6,0.2-1,0.2c-3.6,0-10.8-7.8-17.1-18.6C317.7,211.4,314.7,200.3,317.8,198.5z M316.4,231.1c3.5,0.7,4.1,12.2,1.4,25.7
	c-2.7,13-7.5,23.1-11,23.1c-0.1,0-0.2,0-0.3,0c-3.5-0.7-4.1-12.2-1.4-25.7c2.7-13,7.5-23.1,11-23.1
	C316.2,231.1,316.3,231.1,316.4,231.1z M378.1,204.6c0.4-0.4,1-0.6,1.7-0.6c3.9,0,12.3,5.4,20.4,13.6c9.7,9.7,15.5,19.6,13,22.2
	c-0.4,0.4-1,0.6-1.7,0.6c-3.9,0-12.3-5.4-20.4-13.6C381.4,217.1,375.6,207.1,378.1,204.6z M396.1,332.4
	C396.1,332.4,396.1,332.4,396.1,332.4c-3.3,0-6.5-9.9-7.3-22.4c-0.7-12.5,1.3-22.9,4.6-23.1c0,0,0.1,0,0.1,0c3.2,0,6.4,9.9,7.2,22.4
	C401.4,321.9,399.4,332.2,396.1,332.4z M416.8,285.6c-0.3,0.2-0.6,0.2-1,0.2c-3.6,0-10.8-7.8-17.1-18.6c-6.9-11.9-9.9-23-6.8-24.8
	c0.3-0.2,0.6-0.2,1-0.2c3.6,0,10.8,7.8,17.1,18.6C416.8,272.8,419.9,283.8,416.8,285.6z"/>
<path class="st26" d="M225.3,135c-0.8,0-1.6-0.3-2.3-0.9c-1.5-1.3-1.6-3.5-0.3-4.9c18.4-21,36.7-31.6,54.6-31.6
	c1.9,0,3.5,1.6,3.5,3.5s-1.6,3.5-3.5,3.5c-15.7,0-32.3,9.8-49.3,29.2C227.2,134.6,226.3,135,225.3,135z"/>
<circle class="st26" cx="292.4" cy="103" r="4.1"/>
<circle class="st26" cx="242.4" cy="341.6" r="3.5"/>
<circle class="st26" cx="328.5" cy="317.7" r="3.5"/>
<circle class="st26" cx="391.7" cy="296.5" r="3.5"/>
<circle class="st26" cx="311" cy="242.5" r="3.5"/>
<circle class="st26" cx="341.2" cy="276.2" r="3.5"/>
<circle class="st26" cx="402.2" cy="253" r="3.5"/>
<circle class="st26" cx="389.9" cy="211.4" r="3.5"/>
<circle class="st26" cx="327.4" cy="208.2" r="3.5"/>
<circle class="st26" cx="260.3" cy="310" r="3.5"/>
<circle class="st26" cx="254.8" cy="243.5" r="3.5"/>
<circle class="st26" cx="226.8" cy="278.8" r="3.5"/>
<circle class="st26" cx="220.5" cy="218.4" r="3.5"/>
</svg>
