<?xml version="1.0" encoding="utf-8"?>
<!-- Generator: Adobe Illustrator 20.1.0, SVG Export Plug-In . SVG Version: 6.00 Build 0)  -->
<svg version="1.1" id="Layer_1" xmlns="http://www.w3.org/2000/svg" xmlns:xlink="http://www.w3.org/1999/xlink" x="0px" y="0px"
	 viewBox="0 0 500 500" style="enable-background:new 0 0 500 500;" xml:space="preserve">
<style type="text/css">
	.st0{fill:#7C9800;stroke:#164E16;stroke-width:5;stroke-linejoin:round;stroke-miterlimit:10;}
	.st1{fill:#FFD003;stroke:#D17D01;stroke-width:3;stroke-miterlimit:10;}
	.st2{fill:#00FFFF;}
	.st3{fill:#7C9800;}
	.st4{fill:#164E16;}
	.st5{fill:#F22F2E;}
	.st6{fill:#F22F2E;stroke:#7B000E;stroke-width:3;stroke-miterlimit:10;}
	.st7{fill:none;stroke:#FFFFFF;stroke-linecap:round;stroke-linejoin:round;stroke-miterlimit:10;}
	.st8{fill:none;stroke:#FFFFFF;stroke-linecap:round;stroke-miterlimit:10;}
	.st9{fill:#FFFFFF;}
	.st10{fill:none;stroke:#7B000E;stroke-linecap:round;stroke-linejoin:round;stroke-miterlimit:10;}
	.st11{fill:none;stroke:#7B000E;stroke-linecap:round;stroke-miterlimit:10;}
	.st12{fill:#7B000E;}
	.st13{fill:#4D831C;}
	.st14{fill:#2A481D;}
	.st15{fill:#FF7A00;}
	.st16{fill:#FF7A00;stroke:#F44500;stroke-width:3;stroke-miterlimit:10;}
	.st17{fill:none;stroke:#F44500;stroke-linecap:round;stroke-linejoin:round;stroke-miterlimit:10;}
	.st18{fill:#FF7A00;stroke:#F44500;stroke-linecap:round;stroke-linejoin:round;stroke-miterlimit:10;}
	.st19{fill:#F44500;}
	.st20{fill:#8BA00D;stroke:#164E16;stroke-width:3;stroke-linejoin:round;stroke-miterlimit:10;}
	.st21{clip-path:url(#SVGID_2_);}
	.st22{fill:#F40000;stroke:#7B000E;stroke-width:3;stroke-miterlimit:10;}
	.st23{fill:#7DB34C;stroke:#164E16;stroke-width:3;stroke-miterlimit:10;}
	.st24{fill:none;stroke:#164E16;stroke-miterlimit:10;}
	.st25{fill:none;stroke:#7B000E;stroke-width:3;stroke-miterlimit:10;}
	.st26{fill:#A7C92B;stroke:#164E16;stroke-width:3;stroke-miterlimit:10;}
	.st27{fill:none;stroke:#164E16;stroke-linecap:round;stroke-miterlimit:10;}
	.st28{fill:#8BA00D;}
	.st29{fill:#999999;}
	.st30{fill:#A7C92B;}
	.st31{fill:none;stroke:#FEA502;stroke-linecap:round;stroke-linejoin:round;stroke-miterlimit:10;}
	.st32{fill:#FFD003;}
	.st33{fill:#D17D01;}
	.st34{fill:#FEA502;}
	.st35{fill:#4D831C;stroke:#2A481D;stroke-width:3;stroke-linecap:round;stroke-linejoin:round;stroke-miterlimit:10;}
	.st36{fill:#FA6200;stroke:#D54300;stroke-width:3;stroke-miterlimit:10;}
	.st37{fill:#FA6200;stroke:#D54300;stroke-linecap:round;stroke-miterlimit:10;}
	.st38{fill:none;stroke:#F44500;stroke-linecap:round;stroke-miterlimit:10;}
	.st39{fill:#FF9D00;stroke:#E6681E;stroke-linecap:round;stroke-miterlimit:10;}
	.st40{fill:#F97306;}
	.st41{fill:#D54300;}
	.st42{fill:#7DB34C;stroke:#44712A;stroke-width:3;stroke-miterlimit:10;}
	.st43{fill:none;stroke:#44712A;stroke-miterlimit:10;}
	.st44{fill:#7DB34C;}
	.st45{fill:#40760E;}
	.st46{fill:#164E16;stroke:#071907;stroke-width:3;stroke-miterlimit:10;}
	.st47{fill:none;stroke:#071907;stroke-linecap:round;stroke-linejoin:round;stroke-miterlimit:10;}
	.st48{fill:#071907;}
	.st49{fill:#44712A;}
	.st50{fill:#6E905E;}
	.st51{fill:#456A0A;}
	.st52{fill:#183300;}
	.st53{fill:#FF2214;}
	.st54{fill:#661900;}
	.st55{fill:#FFDC00;}
	.st56{fill:#7C9800;stroke:#164E16;stroke-width:3;stroke-miterlimit:10;}
	.st57{fill:none;stroke:#D17D01;stroke-width:0.75;stroke-miterlimit:10;}
	.st58{fill:#7C9800;stroke:#164E16;stroke-linejoin:round;stroke-miterlimit:10;}
	.st59{fill:none;stroke:#164E16;stroke-linejoin:round;stroke-miterlimit:10;}
	.st60{fill:#8A9D1F;}
	.st61{fill:#1B4700;}
	.st62{fill:none;stroke:#7C9800;stroke-width:3;stroke-linecap:round;stroke-linejoin:round;stroke-miterlimit:10;}
	.st63{opacity:0.6;fill:none;stroke:#FFFFFF;stroke-linecap:round;stroke-miterlimit:10;}
	.st64{fill:none;stroke:#7B000E;stroke-miterlimit:10;}
	.st65{opacity:0.4;fill:none;stroke:#FFFFFF;stroke-linecap:round;stroke-linejoin:round;stroke-miterlimit:10;}
	.st66{fill:none;stroke:#FFFFFF;stroke-width:7.8511;stroke-linecap:round;stroke-miterlimit:10;}
	.st67{fill:#B0C06B;}
	.st68{fill:#F8ACAC;}
	.st69{fill:none;stroke:#FFFFFF;stroke-width:7.7562;stroke-linecap:round;stroke-miterlimit:10;}
	.st70{opacity:0.3;}
	.st71{fill:#6EA336;}
	.st72{opacity:0.3;fill:#7B000E;}
	.st73{opacity:0.2;fill:none;stroke:#2A481D;stroke-linecap:round;stroke-linejoin:round;stroke-miterlimit:10;}
	.st74{fill:#CC242B;}
	.st75{fill:#5B8734;}
</style>
<path class="st5" d="M22.7,268.7L22.7,268.7c2.2,43.6,10.3,86.8,24.2,128.2l2.3,6.8c16.5,49.2,67.4,78.1,118,67l0,0
	c25.5-5.6,51.5-5.9,76.8-0.9l71.9,14c51.6,10.1,103-18.3,121.9-67.3l0.7-1.7c20.6-53.3,33.6-109.2,38.5-166.1l0,0
	c6.6-76.3-65.9-135.3-139.2-113.3l-89.4,26.8c-28.7,8.6-59.1,10.2-88.5,4.8l-17.2-3.2C78.2,151.8,19.4,203.2,22.7,268.7z"/>
<path class="st12" d="M336.8,497.5c-7.6,0-15.4-0.7-23.1-2.2l-71.9-14c-23.8-4.6-48.1-4.3-72,0.9C113,494.5,56.4,462.4,38,407.4
	l-2.3-6.8C21.6,358.1,13.3,314,11,269.3l0,0c-1.7-34.8,12.3-68,38.5-90.9c26.2-23,61-32.5,95.2-26.1l17.2,3.2
	c27.5,5.1,56.2,3.5,83-4.5l89.4-26.8c38.2-11.4,79.4-3.3,110.4,21.9c30.9,25.2,47.3,63.9,43.9,103.6c-5,58-18.2,115-39.3,169.4
	l-0.7,1.7C430.5,467.7,385.6,497.5,336.8,497.5z M207.9,454.5c12.8,0,25.6,1.2,38.3,3.7l71.9,14c46.1,9,91.8-16.3,108.8-60l0.7-1.7
	c20.2-52.3,32.9-107.1,37.8-162.9c2.8-32.4-10.1-62.8-35.3-83.4c-25.3-20.6-57.7-27-88.8-17.6l-89.4,26.8
	c-30.4,9.1-62.9,10.9-94,5.1l-17.2-3.2c-27.2-5-54.7,2.5-75.5,20.7c-20.8,18.2-32,44.5-30.6,72.1l0,0c2.1,42.6,10.1,84.6,23.6,125.1
	l2.3,6.8c12.5,37.3,47.2,61.4,85.1,61.4c6.4,0,12.9-0.7,19.4-2.1C179,456.1,193.5,454.5,207.9,454.5z"/>
<path class="st9" d="M91.1,344.9c-1.9,0-3.5-1.3-3.8-3.2c-1.4-7.9-2.7-15.9-3.8-23.9c-0.3-2.1,1.2-4.1,3.4-4.4
	c2.1-0.3,4.1,1.2,4.4,3.4c1.1,7.8,2.3,15.7,3.7,23.5c0.4,2.1-1,4.2-3.1,4.5C91.6,344.9,91.4,344.9,91.1,344.9z"/>
<path class="st9" d="M84.2,292.2c-2,0-3.7-1.6-3.9-3.6c-0.4-5.4-0.7-10.9-0.9-16.3c-0.7-15.9,1.8-31.2,7.4-45.5c0.8-2,3.1-3,5.1-2.2
	c2,0.8,3,3.1,2.2,5.1c-5.2,13.2-7.5,27.5-6.9,42.3c0.2,5.4,0.5,10.8,0.9,16.1c0.2,2.2-1.5,4-3.6,4.2
	C84.4,292.2,84.3,292.2,84.2,292.2z"/>
<path class="st74" d="M413.1,320.4c-0.3,0-0.5,0-0.8-0.1c-2.1-0.4-3.5-2.5-3-4.6c1.2-5.7,2.3-11.6,3.4-17.4c0.4-2.1,2.4-3.5,4.5-3.2
	c2.1,0.4,3.5,2.4,3.2,4.5c-1.1,5.9-2.2,11.8-3.4,17.6C416.5,319.1,414.9,320.4,413.1,320.4z"/>
<path class="st74" d="M387.7,407.6c-0.5,0-0.9-0.1-1.4-0.2c-2-0.8-3-3-2.3-5c6.6-17.6,12.4-35.8,17.3-54.1c0.6-2.1,2.7-3.3,4.8-2.8
	c2.1,0.6,3.3,2.7,2.8,4.8c-5,18.5-10.9,37-17.6,54.8C390.8,406.7,389.3,407.6,387.7,407.6z"/>
<path class="st74" d="M372.3,361.5c-0.3,0-0.7,0-1-0.1c-2.1-0.5-3.3-2.7-2.8-4.8c6.7-25.4,11.8-51.6,15.3-78
	c0.3-2.1,2.2-3.6,4.4-3.4c2.1,0.3,3.6,2.2,3.4,4.4c-3.5,26.7-8.7,53.3-15.5,78.9C375.6,360.4,374.1,361.5,372.3,361.5z"/>
<path class="st71" d="M242.4,192.8c-13.4,0-26.6-4.3-37.4-12.2l4.2-15.7c4.7-17.7,8.2-36,11.6-53.6c0.6-3.1,1.2-6.2,1.8-9.3
	c4-20.7,15-40,30.9-54.4c16.1-14.6,36.7-23.5,57.9-25.1c2.5-0.2,5.1-0.3,7.6-0.3c6.8,0,13.6,0.7,20.2,2.1c2.5,3.2,2.6,7.7,0.2,11.1
	c-10,1-19.7,3.9-28.8,8.5c-34.1,17.3-51.5,57.9-41.3,96.5l10.6,40.2C269,188.5,255.8,192.8,242.4,192.8z"/>
<path class="st71" d="M242.4,192.8c-13.4,0-26.6-4.3-37.4-12.2l4.2-15.7c4.7-17.7,8.2-36,11.6-53.6c0.6-3.1,1.2-6.2,1.8-9.3
	c4-20.7,15-40,30.9-54.4c16.1-14.6,36.7-23.5,57.9-25.1c2.5-0.2,5.1-0.3,7.6-0.3c6.8,0,13.6,0.7,20.2,2.1c2.5,3.2,2.6,7.7,0.2,11.1
	c-10,1-19.7,3.9-28.8,8.5c-34.1,17.3-51.5,57.9-41.3,96.5l10.6,40.2C269,188.5,255.8,192.8,242.4,192.8z"/>
<path class="st14" d="M242.4,196.8c13,0,25.9-3.7,37.2-11.1c2.9-1.9,4.2-5.5,3.4-8.8c-1.4-5.5-4-15.4-8-30.2c-0.6-2.3,0.7-4.7,3-5.4
	l10.9-3.2l-0.7-2.5c-7.9-29.8,5.3-61,31.3-74.1c7.3-3.7,15-5.9,23-6.6c4.3-0.4,8.3-2.3,11-5.7l0.6-0.7c9.3-11.4,8.6-27.9-1.6-38.4
	c-2.2-2.2-5-3.7-8-4.4c-8.3-1.8-16.9-2.8-25.4-2.8h0c-3,0-6.1,0.1-9.1,0.3c-25.5,2-50.2,12.6-69.5,30.1c-19,17.2-32.1,40.3-37,65.1
	c-0.6,3.1-1.2,6.2-1.8,9.3c-3.2,16.8-6.6,34.3-11,50.9c0,0,4.1,0.2,10.3-0.1c3-0.2,5.2,2.6,4.5,5.5l0,0l-3.6,13.5
	c-0.8,3.1,0.3,6.3,2.9,8.2C210.6,190,223,196.8,242.4,196.8z M198.8,158.5 M242.4,188.9c-10.2,0-20-2.5-28.7-7.3
	c-2.5-1.4-3.8-4.3-3-7.1l2.3-8.5c4.8-17.9,8.3-36.2,11.7-53.9c0.6-3.1,1.2-6.2,1.8-9.3c3.9-19.8,14.4-38.4,29.7-52.2
	c15.5-14,35.2-22.5,55.6-24.1c2.4-0.2,4.9-0.3,7.3-0.3c5.5,0,10.9,0.5,16.3,1.4c1,0.2,1.8,0.9,1.9,1.9c0,0,0,0.1,0,0.1
	c0.1,1.2-0.8,2.2-2,2.4c-9.1,1.3-18,4.2-26.3,8.4c-35.8,18.1-54,60.6-43.3,101l8.7,33c0.7,2.8-0.5,5.7-3,7.1
	C262.4,186.4,252.5,188.9,242.4,188.9z"/>
<circle class="st74" cx="420.3" cy="266.6" r="5.2"/>
<circle class="st9" cx="98.5" cy="375.2" r="5.2"/>
<path class="st75" d="M227.7,175.5c-0.4,0-0.8-0.1-1.2-0.2c-2.1-0.6-3.2-2.8-2.6-4.9c0.1-0.2,6.6-21.6,9-46.7
	c1.5-15.6,4.6-28.7,9.5-40.2c0.8-2,3.1-2.9,5.1-2.1c2,0.8,2.9,3.1,2.1,5.1c-4.6,10.7-7.5,23.1-8.9,37.8c-2.4,26-9,47.4-9.3,48.3
	C230.9,174.4,229.4,175.5,227.7,175.5z"/>
<path class="st75" d="M246.7,169.6c-0.3,0-0.6,0-0.9-0.1c-2.1-0.5-3.4-2.6-2.9-4.7c1.5-6.6,2.8-13.3,3.8-19.9
	c0.3-2.1,2.3-3.6,4.4-3.3c2.1,0.3,3.6,2.3,3.3,4.4c-1,6.7-2.3,13.6-3.9,20.5C250,168.4,248.4,169.6,246.7,169.6z"/>
<path class="st12" d="M245.1,414c-0.2,0-0.5,0-0.8-0.1c-2.1-0.4-3.5-2.5-3.1-4.6c14.9-76.4,12.3-153.8,12.3-154.5
	c-0.1-2.2,1.6-4,3.8-4c2.2-0.1,4,1.6,4,3.8c0,0.8,2.6,79-12.4,156.3C248.6,412.7,247,414,245.1,414z"/>
</svg>
