<?xml version="1.0" encoding="utf-8"?>
<!-- Generator: Adobe Illustrator 20.0.0, SVG Export Plug-In . SVG Version: 6.00 Build 0)  -->
<svg version="1.1" id="Layer_1" xmlns="http://www.w3.org/2000/svg" xmlns:xlink="http://www.w3.org/1999/xlink" x="0px" y="0px"
	 viewBox="0 0 500 500" style="enable-background:new 0 0 500 500;" xml:space="preserve">
<style type="text/css">
	.st0{fill:#B8CC36;}
	.st1{fill:#658205;}
	.st2{display:none;fill:#D1A982;}
	.st3{fill:#974565;}
	.st4{fill:#5D283D;}
	.st5{fill:#00FFFF;}
	.st6{fill:#98B55E;}
	.st7{fill:#98B55E;stroke:#006837;stroke-linecap:round;stroke-linejoin:round;stroke-miterlimit:10;}
	.st8{fill:#B9CE6E;stroke:#838226;stroke-width:3;stroke-miterlimit:10;}
	.st9{fill:none;stroke:#718227;stroke-miterlimit:10;}
	.st10{fill:#B9CE6E;stroke:#838226;stroke-miterlimit:10;}
	.st11{fill:#E0E2D0;}
	.st12{fill:none;stroke:#718227;stroke-width:3;stroke-miterlimit:10;}
	.st13{fill:none;stroke:#FFFFFF;stroke-linecap:round;stroke-miterlimit:10;}
	.st14{fill:#C2D66B;}
	.st15{fill:#E6E8D4;}
	.st16{fill:#718227;}
	.st17{fill:#FFFFFF;}
	.st18{fill:#974565;stroke:#5D283D;stroke-miterlimit:10;}
	.st19{fill:none;stroke:#5D283D;stroke-width:3;stroke-miterlimit:10;}
	.st20{fill:none;stroke:#5D283D;stroke-miterlimit:10;}
	.st21{fill:#EDDBCD;}
	.st22{fill:#F4E1D4;}
	.st23{fill:none;stroke:#5D283D;stroke-width:8.1497;stroke-miterlimit:10;}
	.st24{fill:none;stroke:#5D283D;stroke-width:24.449;stroke-miterlimit:10;}
	.st25{fill:none;stroke:#89A037;stroke-width:3;stroke-linecap:round;stroke-linejoin:round;stroke-miterlimit:10;}
	.st26{fill:none;stroke:#89A037;stroke-width:2.4354;stroke-linecap:round;stroke-linejoin:round;stroke-miterlimit:10;}
	.st27{fill:none;stroke:#89A037;stroke-width:2.794;stroke-linecap:round;stroke-linejoin:round;stroke-miterlimit:10;}
	.st28{fill:none;stroke:#89A037;stroke-width:0.7186;stroke-linecap:round;stroke-linejoin:round;stroke-miterlimit:10;}
	.st29{fill:none;stroke:#385100;stroke-linecap:round;stroke-linejoin:round;stroke-miterlimit:10;}
	.st30{fill:none;stroke:#89A037;stroke-width:1.0534;stroke-linecap:round;stroke-linejoin:round;stroke-miterlimit:10;}
	.st31{opacity:0.8;fill:none;stroke:#658205;stroke-width:3;stroke-miterlimit:10;}
	.st32{opacity:0.6;fill:none;stroke:#658205;stroke-width:3;stroke-miterlimit:10;}
	.st33{opacity:0.4;fill:none;stroke:#658205;stroke-width:3;stroke-miterlimit:10;}
	.st34{opacity:0.2;fill:none;stroke:#658205;stroke-width:3;stroke-miterlimit:10;}
	.st35{fill:none;stroke:#D7E68B;stroke-width:3;stroke-linecap:round;stroke-linejoin:round;stroke-miterlimit:10;}
	.st36{fill:#385100;}
	.st37{fill:#769020;}
	.st38{fill:#869F29;}
	.st39{fill:#97AD31;}
	.st40{fill:#A7BB3A;}
	.st41{fill:#D7E68B;}
</style>
<rect x="-1768.9" y="-365.3" class="st2" width="6576.8" height="1230.5"/>
<polygon class="st1" points="137.7,258.8 364.3,258.8 385.1,161.7 379.6,92 284.3,31.6 218.3,14.5 149.9,41.9 112.7,110.4 "/>
<path class="st0" d="M152.6,334.1c9.6,56.7,34.5,107,63.5,132.3c0,0,31.4,19.1,73.4,0c29-25.3,53.9-75.6,63.5-132.3H152.6z"/>
<rect x="141.1" y="249.4" class="st37" width="227.5" height="23.7"/>
<rect x="141.1" y="272.1" class="st38" width="227.5" height="23.7"/>
<rect x="141.1" y="294.8" class="st39" width="227.5" height="23.7"/>
<rect x="141.1" y="317.5" class="st40" width="227.5" height="23.7"/>
<path class="st41" d="M272,469.4c-5.3-6.1-11.4-15.7-17.6-27.7c-15.5-29.9-31.2-79.1-14.9-196.2c5.7-41,1.9-84.2-11.4-128.5
	c-1.9-6.3-8.5-9.8-14.8-7.9s-9.8,8.5-7.9,14.8c12.3,41,15.9,80.8,10.6,118.4c-9.1,65-15.3,147.6,17.3,210.4
	c4.5,8.7,8.9,16.2,13.2,22.5L272,469.4z"/>
<path class="st17" d="M204.6,229.4c-0.1,0-0.2,0-0.3,0c-2.2-0.1-3.8-2-3.7-4.2c1.4-21.9,0-44.7-4.1-67.7c-0.4-2.1,1-4.2,3.2-4.6
	c2.2-0.4,4.2,1,4.6,3.2c4.2,23.6,5.7,47.1,4.2,69.6C208.4,227.8,206.7,229.4,204.6,229.4z"/>
<path class="st36" d="M321.1,41.8c-2.8-0.3-5.3-1.8-6.9-4.1c-6.2-8.8-15.2-15.8-26.1-19.4c-5.3-1.7-10.7-2.6-16.2-2.6
	c-0.2,0-0.3,0-0.5,0c-5.8,0.1-11.4-1.7-16.3-4.9c-7.7-5.1-16.6-8.1-25.9-8.6c-0.9,0-1.8-0.1-2.8-0.1c0,0,0,0,0,0
	c-8.9,0-17.5,2.2-25,6.5c-4.9,2.7-10.6,4-16.2,3.4c-1.7-0.2-3.3-0.2-5-0.2c-11.5,0-22.8,3.9-31.8,11c-8.3,6.5-14.4,15.4-17.6,25.4
	c-1.8,5.7-5.2,10.7-9.9,14.3c-9.4,6.9-16.1,16.8-19.2,28.4c-2.6,9.8-2.2,19.9,0.8,29.4c1.9,5.9,1.9,12.2,0,18
	c-3,9.3-3.4,19.4-0.8,29.3c0.9,3.4,2.1,6.8,3.7,10c1.2,2.4,1.4,5.1,0.6,7.6c-1.1,3.9-2.6,10.2-2.6,16.7c0,8.9,2.3,17.7,6.7,25.3
	c10.2,17.8,15,33.7,14.6,48.6c-0.1,3-0.1,6.1-0.1,9.1c0,39,7.4,78.9,21.5,115.4c13.7,35.4,32.9,65.2,54.3,83.9
	c1,0.9,2.1,1.7,3.3,2.4c2,1.2,20.4,11.9,48,11.9c16,0,32-3.6,47.5-10.6c2.1-0.9,4-2.2,5.8-3.7c21.4-18.7,40.7-48.5,54.3-84
	c14.1-36.5,21.5-76.4,21.5-115.4c0-7.7-0.3-15.4-0.8-22.9c-1.5-22,2.5-45.1,11.6-66.8c5.5-13,8.2-26.9,8.2-41.1
	c0-7.8-0.9-15.6-2.6-23.3c-0.4-1.8-0.4-3.7-0.2-5.6c4.1-26.3-10.7-46.1-10.7-46.1c-5.7-6.5-12.9-11.4-21-14.4
	c-4.3-1.6-8.2-4.1-11.4-7.5c-4.9-5.3-10.9-9.6-17.8-12.2C331.5,43.3,325.3,42.3,321.1,41.8z M295.9,72.3c0.3,7.1,4.3,13.3,10.9,16.8
	c6.9,3.6,11.7,10.3,12.8,18c0.9,6.4-0.7,12.8-4.6,17.9c-5.2,6.9-6.2,16.3-2.9,25.9c2.3,6.5,1.7,13.6-1.5,19.6
	c-1,1.8-0.6,4.1,1.1,5.3c0.7,0.5,1.5,0.7,2.3,0.7c1.4,0,2.7-0.7,3.5-2c4.4-8,5.2-17.6,2.2-26.2c-2.5-7-1.9-13.7,1.7-18.5
	c5.2-6.9,7.4-15.3,6.1-23.8c-1.5-10.2-7.8-19.1-17-23.9c-1.4-0.7-2.6-1.6-3.5-2.7c-2.6-2.8-1.5-7.5,2.2-8.9c5.4-2,11.4-2,16.8,0.2
	c4.6,1.9,8.4,5.1,11,9.4c3.2,5.3,8.4,8.8,14.2,9.5c5.6,0.7,10.8,3.5,14.5,7.7c5.2,6,7,14.1,4.7,21.8c-1.6,5.5-1.8,10.7-0.6,15.4
	c1.7,6.4,2.5,13,2.5,19.6c0,10.5-2,20.8-6.1,30.4c-10.7,25.6-15.5,53.1-13.7,79.3c0.5,6.8,0.7,13.9,0.7,21
	c0,35.6-6.8,72.1-19.7,105.5c-12,31.1-28.4,56.9-46.2,72.7c-16.4,7.3-33,9.6-49.3,6.7c-11.1-2-18.3-5.8-19.7-6.6
	c-17.9-15.8-34.4-41.6-46.4-72.8c-12.9-33.4-19.7-69.8-19.7-105.5c0-2.8,0-5.6,0.1-8.4c0.5-20.2-5.4-40.8-18.2-63.1
	c-2-3.5-3.1-7.5-3.1-11.6c0-3.1,0.6-6,1.7-8.9c3.6-8.8,2.9-18.4-1.9-26.3c-1.2-1.9-2-3.9-2.5-6c-1.7-6.9-0.7-13.8,3-19.5
	c4.5-7,4.7-17,0.4-23.4c-4-5.8-5.2-13.1-3.4-19.9c1.9-7.3,7.1-13.2,14.1-16.1c7.6-3.2,12.7-10.6,13.6-19.8c0.5-5,2.2-9.9,5.5-13.7
	c6.9-8.2,17.6-10.8,27.2-7.2c7.2,2.7,15.3,1,20.7-4.3c4.9-4.8,11.3-7.3,18.2-6.9c5.8,0.3,11.3,2.7,15.4,6.7
	c6.6,6.3,15.4,9.1,23.8,7.3c4.1-0.9,8.4-0.6,12.5,0.7C279.5,44.6,297,49.3,295.9,72.3z"/>
<path class="st17" d="M195.9,66.3C195.9,66.3,195.9,66.3,195.9,66.3c11.5,0,22.3-4.4,30.5-12.3c1.4-1.3,1.7-3.5,0.7-5.1
	c-1.4-2.1-4.4-2.4-6.1-0.7c-6.6,6.5-15.7,10.2-25,10.2c0,0,0,0,0,0c-4.4,0-8.6-0.8-12.7-2.3c-0.6-0.2-1.7-0.5-2.9-0.5
	c-1.9,0-3.7,0.7-5.2,1.9c-1.6,1.4-2.6,3.5-2.8,5.6c-1.4,15.2-10.3,28-23.4,33.5c-1.9,0.8-3,2.9-2.4,4.9c0.5,1.7,2.1,2.8,3.8,2.8
	c0.5,0,1-0.1,1.5-0.3c0,0,23.7-7.8,28-36.4c0.3-2,2.3-3.3,4.2-2.7C186.7,65.5,190.7,66.3,195.9,66.3z"/>
<circle class="st17" cx="194.8" cy="135.3" r="3.9"/>
</svg>
