<?xml version="1.0" encoding="utf-8"?>
<!-- Generator: Adobe Illustrator 20.0.0, SVG Export Plug-In . SVG Version: 6.00 Build 0)  -->
<svg version="1.1" id="Layer_1" xmlns="http://www.w3.org/2000/svg" xmlns:xlink="http://www.w3.org/1999/xlink" x="0px" y="0px"
	 viewBox="0 0 500 500" style="enable-background:new 0 0 500 500;" xml:space="preserve">
<style type="text/css">
	.st0{fill:#D1A982;}
	.st1{fill:#546633;}
	.st2{fill:#1C5620;}
	.st3{fill:none;stroke:#998D5C;stroke-width:2;stroke-linecap:round;stroke-linejoin:round;stroke-miterlimit:10;}
	.st4{fill:#8F9E78;}
	.st5{fill:#8160A8;}
	.st6{fill:#3A195B;}
	.st7{fill:none;stroke:#546633;stroke-width:3;stroke-linecap:round;stroke-linejoin:round;stroke-miterlimit:10;}
	.st8{fill:#8160A8;stroke:#3A195B;stroke-width:3;stroke-linecap:round;stroke-linejoin:round;stroke-miterlimit:10;}
	.st9{fill:none;stroke:#546633;stroke-width:2;stroke-linecap:round;stroke-linejoin:round;stroke-miterlimit:10;}
	.st10{fill:#92B851;}
	.st11{fill:#197723;}
	.st12{fill:#4CAC49;stroke:#197723;stroke-linecap:round;stroke-linejoin:round;stroke-miterlimit:10;}
	.st13{fill:#4CAC49;}
	.st14{fill:#70BD9E;}
	.st15{fill:none;stroke:#197723;stroke-linecap:round;stroke-linejoin:round;stroke-miterlimit:10;}
	.st16{fill:none;stroke:#92B851;stroke-linecap:round;stroke-linejoin:round;stroke-miterlimit:10;}
	.st17{fill:none;stroke:#FFFFFF;stroke-linecap:round;stroke-linejoin:round;stroke-miterlimit:10;}
	.st18{fill:none;stroke:#92B851;stroke-width:2;stroke-linecap:round;stroke-linejoin:round;stroke-miterlimit:10;}
	.st19{fill:#8AA77B;}
	.st20{fill:#365219;}
	.st21{fill:#6E9635;}
	.st22{fill:none;stroke:#365219;stroke-linecap:round;stroke-miterlimit:10;}
	.st23{fill:none;stroke:#FFFFFF;stroke-linecap:round;stroke-miterlimit:10;}
	.st24{fill:#90C53E;}
	.st25{fill:#218100;}
	.st26{fill:#5ABC18;}
	.st27{fill:#1C6600;}
	.st28{fill:#5ABC18;stroke:#1C6600;stroke-linecap:round;stroke-linejoin:round;stroke-miterlimit:10;}
	.st29{fill:#00FFFF;}
	.st30{clip-path:url(#SVGID_2_);}
	.st31{fill:#318F00;}
	.st32{fill:#006837;}
	.st33{fill:#FFFFFF;}
	.st34{fill:none;stroke:#218100;stroke-linecap:round;stroke-linejoin:round;stroke-miterlimit:10;}
	.st35{fill:#90C53E;stroke:#218100;stroke-width:3;stroke-miterlimit:10;}
	.st36{fill:#90C53E;stroke:#218100;stroke-miterlimit:10;}
	.st37{fill:#3D7519;}
	.st38{fill:none;stroke:#365219;stroke-width:0.9309;stroke-linecap:round;stroke-miterlimit:10;}
	.st39{fill:none;stroke:#365219;stroke-width:1.1845;stroke-linecap:round;stroke-miterlimit:10;}
	.st40{fill:none;stroke:#365219;stroke-width:3;stroke-linecap:round;stroke-linejoin:round;stroke-miterlimit:10;}
	.st41{fill:#95B284;}
	.st42{fill:#567F0E;}
	.st43{fill:#70BD9E;stroke:#197723;stroke-linecap:round;stroke-linejoin:round;stroke-miterlimit:10;}
	.st44{fill:#17661C;}
	.st45{fill:#8160A8;stroke:#3A195B;stroke-linecap:round;stroke-linejoin:round;stroke-miterlimit:10;}
	.st46{fill:none;stroke:#8F9E78;stroke-width:2;stroke-linecap:round;stroke-linejoin:round;stroke-miterlimit:10;}
	.st47{fill:#8160A8;stroke:#3A195B;stroke-miterlimit:10;}
	.st48{fill:#66B21D;}
	.st49{fill:#3D7F2F;}
	.st50{fill:#998D5C;}
	.st51{fill:none;stroke:#FFFFFF;stroke-width:7;stroke-linecap:round;stroke-linejoin:round;stroke-miterlimit:10;}
</style>
<path class="st2" d="M98.9,238.5c-5.1-5.8-8.5-10.2-11-14.4c-3.8-6.5-5.5-12.7-5.2-19.2c0.3-5,2-12.5,8.7-19.6
	c2.3-2.4,5-4.4,7.9-5.9c2.6-1.4,3.2-4.8,1.3-7c-3.9-4.5-7-8.3-9.2-11.6c-3.5-5.1-8.2-13.1-7.8-22.8c0.2-5.1,1.6-9.2,3.4-12.3
	c2.2-4.1,1.3-9.2-2.3-12.3c-8.9-7.6-15.1-13.5-19.3-18.4c-4.1-4.7-9.5-12.2-10.2-21.9c-0.7-10.6,4.6-17.5,6.5-20.2
	c5.8-7.7,15.1-12.2,24.8-12.2c5.7,0,11.7,1.5,23.1,8.1c1.8,1,4.1,0,4.5-2c1.7-8.5,6.8-19.6,21.8-24c2.8-0.8,5.8-1.3,8.8-1.3
	c5.6,0,10.8,1.4,15.4,4.1c1.6,0.9,3.6,0.3,4.4-1.4l0,0c2.6-5.9,10.5-24.1,32.6-22.8c1.4,0.1,2.8,0.3,4.2,0.6
	c3.2,0.7,11.7,2.5,18.1,11c5.8,7.8,6.5,17,6.6,23.2c0,8.5-1.4,20.7-4.7,38.5c-0.6,3.2,1.9,6.2,5.2,6.2c0,0,0.1,0,0.1,0
	c3.2,0,6.4,0.5,9.5,1.5c14,4.5,22.1,16.4,21.6,31.9c-0.2,5.3-1.3,11.2-3.1,18.8c-0.4,1.6,0.8,3,2.4,3c0,0,0,0,0,0
	c1.9,0,6.2,0,11.2,1.9c1.9,0.7,3.8-1,3.2-3c-6.6-21.7-10.1-35.8-11.1-45.5c-0.7-6.2-1-15.4,4-23.8c5.4-9.1,13.6-11.8,16.8-12.9
	c2.8-0.9,5.7-1.5,8.7-1.6c17.4-0.5,25.9,11.1,31.3,21.2c3,5.5,6.4,13.1,10.3,23.2c1.2,3.1,4.7,4.5,7.7,3c4-2,8.4-3,13.3-3
	c4.4,0,8.8,0.9,12.7,2.7c7.4,3.3,11.9,8,14.5,12.9c1.4,2.6,4.7,3.7,7.4,2.3c23.9-11.8,30.8-12.9,36.5-12.9c11.3,0,21.7,6,27.2,15.7
	c7.2,12.8,5.1,27-5.6,38c-5.3,5.4-12.7,10.3-24.1,17.7c-7.1,4.6-15.4,9.7-23.8,14.7c-2.3,1.4-2.9,4.4-1.4,6.6l0,0
	c8.5,11.9,7.9,26.3-1.6,38.4c-4.7,6-11.5,11.6-22.2,20.2l0,0c-1.1,0.9-0.8,2.6,0.5,3c5.9,2.1,11.1,5.9,14.9,11.1
	c5.7,7.9,6.4,15.5,6,20.6c-0.5,6.4-3,12.4-7.7,18.3c-1.8,2.3-3.9,4.6-6.5,7.1c-2,1.9-1.4,5.2,1.2,6.3c5.3,2.2,10,5.9,13.4,10.7
	c4.3,6,12.5,21.9-3.2,40.5c-5.5,6.6-14,13.7-29.6,26.3c-16.9,13.5-38.9,30.1-57.5,43.4c-10.7,7.6-19.7,13.7-27.3,18.4
	c-4.6,2.9-8.6,6.6-11.8,11c-6.3,8.5-11.5,14.4-16.2,18.7c-8.3,7.4-16.5,10.9-25.9,10.9c-6.2,0-12.3-1.7-17.6-5.1
	c-1-0.6-1.9-1.3-2.9-2c-2-1.5-4.1-3-6.2-4.4c-10.9-6.9-25.4-18.3-45.6-35.6c-20.6-17.6-44.8-39.6-63.2-57.4
	c-10-9.6-17.8-17.6-23.4-23.6c-4-4.4-8.6-9.4-11.7-15.6c-6.2-12.2-4.8-25.5,3.8-35.5c5.9-6.9,14.6-10.9,23.8-10.9l0.1,0
	c3.3,0,5.1-3.9,3-6.4c-3.4-4-5.9-7.3-7.9-10.4c-13-20.5-2.7-35.2,2.3-40.6c5.3-5.7,12.7-9.2,20.5-9.8c0,0,1.8,0.1,2.1-1
	C99.8,239.5,98.9,238.5,98.9,238.5z"/>
<path class="st50" d="M237.9,446.4c-0.5,0-0.9,0-1.4-0.1c-4.2-0.8-7.1-4.8-6.3-9.1c10.9-61.3,38.9-179,103.4-278.5
	c2.3-3.6,7.2-4.7,10.8-2.3c3.6,2.3,4.7,7.2,2.3,10.8c-63,97.2-90.4,212.6-101.1,272.7C244.9,443.7,241.6,446.4,237.9,446.4z"/>
<path class="st50" d="M219.6,460.6c-0.1,0-0.1,0-0.2,0c-4.3-0.1-7.7-3.7-7.6-8c0-0.4,1-44.8-5.6-109.3c-6.1-59.4-20-148.6-52-236.1
	c-1.5-4.1,0.6-8.5,4.7-10c4.1-1.5,8.5,0.6,10,4.7c17.9,49.2,41.7,130.8,52.8,240.1c6.7,65.4,5.7,110.5,5.7,111
	C227.3,457.2,223.8,460.6,219.6,460.6z"/>
<path class="st48" d="M427.5,129.7c-0.4-0.6-1.5-2.2-3.9-2.2c-7.2,0-50.8,23.5-65.9,32c-5.5,3.1-10.4,5.9-14.5,8.4
	c3.6-8.1,7.5-18,10.2-26c4-12,5-17.3,0.8-19.2c-0.6-0.2-1.2-0.4-1.8-0.4c-2.4,0-4.7,1-12.3,14.3c-4.2,7.3-8.8,16.5-12.4,24.5
	c-0.5,1-0.9,2-1.3,3c-1.4-4.8-3.1-10.4-5.2-16.9c-4.6-14.1-10.7-31-15.9-44.1c-2.7-6.9-5.1-12.5-6.9-16.4c-2.8-5.9-4.4-8.7-7.5-8.7
	c-0.4,0-0.9,0.1-1.3,0.2c-4.1,1.4-3.1,6.3-2.1,11.6c0.8,4.2,2.2,10.1,4.2,17.3c3.7,13.7,8.8,31.1,13.5,45.3
	c11.3,34.4,15.2,37.1,19.4,37.1c0.5,0,1.1-0.1,1.6-0.3c0.3-0.1,0.6-0.2,0.9-0.4c0.8,0.6,2,1.1,3.7,1.1c3.5,0,10.4-1.9,35.1-15.9
	c13.1-7.4,28.6-16.8,40.5-24.5c6.3-4.1,11.3-7.4,14.7-10C425.6,136.5,429.6,133.5,427.5,129.7z"/>
<path class="st49" d="M430.9,127.8c-1.5-2.6-4.2-4.1-7.3-4.1c-2.1,0-5.2,0-27.9,11.3c-12.5,6.2-27.4,14.2-39.9,21.2c0,0,0,0,0,0
	c-1.4,0.8-3.1-0.6-2.5-2.2c1.4-3.8,2.8-7.4,3.9-10.8c1.5-4.4,2.5-8,3.1-10.8c0.6-2.6,2.3-10.8-5.1-13.5c-0.9-0.3-1.8-0.4-2.7-0.4h0
	c-5.1,0-8.4,3.5-15.7,16.3c-2.5,4.4-5.1,9.3-7.6,14.4c-0.7,1.4-2.8,1.3-3.3-0.2c-0.3-1-0.6-1.9-1-2.9c-4.7-14.2-10.8-31.1-16-44.3
	c-2.8-7-5.1-12.6-7-16.7c-2.5-5.4-5.1-10.9-11-10.9c-0.9,0-1.7,0.1-2.5,0.4c-1.9,0.6-6.2,2.8-5.6,10c0.1,1.5,0.4,3.5,0.9,6
	c0.9,4.3,2.3,10.2,4.2,17.6c3.7,13.8,8.9,31.2,13.6,45.5c4.3,13.1,7.8,22.4,10.7,28.3c1.9,4,5.5,11.4,12.4,11.4c0.2,0,0.5,0,0.7,0
	c0.9-0.1,1.9,0,2.8,0.2c0.8,0.2,1.7,0.3,2.7,0.3c3.9,0,10.4-1.3,37.1-16.4c13.1-7.4,28.7-16.9,40.7-24.6c6.4-4.1,11.4-7.5,15-10.2
	c2.1-1.5,3.6-2.8,4.7-3.8C433.6,134.1,431.9,129.5,430.9,127.8z M352.5,126.3c0.1,0,0.1,0,0.2,0c2.3,1-5.8,24-13,40.1
	c-6.4,14.4-10,18.5-12.3,18.5c-0.3,0-0.5-0.1-0.8-0.2c-2.3-1-2.3-5.9,4.9-22C338.5,147,349.8,126.3,352.5,126.3z M309,151.3
	c-9.4-28.6-20.5-68.6-18.1-69.3c0,0,0,0,0.1,0c2.6,0,17.3,38.2,26.6,66.5c1.4,4.3,2.6,8.1,3.6,11.4c0.8,2.5,0.7,5.3-0.3,7.7
	c-0.5,1.2-0.9,2.3-1.2,3.4c-0.6,1.7-3,1.8-3.6,0.1C314.1,166.1,311.8,159.7,309,151.3z M364.1,170.8c-7.9,4.4-14,7.7-18.9,10.1
	c-1.7,0.8-3.4-1-2.6-2.6c0.7-1.3,1.4-2.7,2.1-4.3c1-2.1,2.6-3.9,4.7-5.2c3-1.8,6.4-3.8,10.2-5.9c24.8-14.1,59.3-31.5,63.9-31.5
	c0.3,0,0.4,0.1,0.5,0.2C425.3,133.8,390.3,156,364.1,170.8z"/>
<path class="st48" d="M374.1,209.2c-0.8-1.1-2.1-1.8-3.5-1.8c-1.4,0-4,0-25,13.3c-11.8,7.5-25.9,17-37.7,25.4
	c-5.5,3.9-10.1,7.3-14,10.3c0.4-1.1,0.9-2.1,1.3-3.1c3.2-8,4.8-13.1,0.9-15.2c-0.6-0.3-1.3-0.5-2-0.5c-1.7,0-3.3,0-9.5,8.5
	c-0.8-3.6-1.6-7.5-2.7-11.8c-3.4-14.5-8-31.9-12.1-45.4c-2.1-7.2-4-12.9-5.5-17c-2.3-6.2-3.7-9.2-7-9.2c-0.3,0-0.7,0-1,0.1
	c-4.2,1-3.7,6-3.1,11.4c0.5,4.3,1.4,10.2,2.7,17.6c2.5,14,6.1,31.7,9.6,46.3c2.8,11.9,5.1,20.2,7,26c-1.2,1.9-2.4,3.9-3.8,6
	c-11.2,18.1-24.2,40.5-34.8,60.1c-10.2,18.7-16.7,32.1-20,41c-1.8,4.8-5.1,13.8,0.6,16.9c0.8,0.5,1.8,0.7,2.8,0.7c0,0,0,0,0,0
	c4.7,0,11-3.7,35.3-48.4c10.4-19.1,22.2-42.3,31.1-61.1c3.6,0,10.2-2.5,34-19.5c12.2-8.7,26.7-19.7,37.7-28.5
	c5.9-4.7,10.4-8.6,13.6-11.5C372.9,216.2,376.6,212.8,374.1,209.2z"/>
<path class="st48" d="M372,344.8c-0.8-1.2-2.2-1.8-3.7-1.8c-1.6,0-5.5,0-36.4,19.5c-16.8,10.6-36.6,23.8-53.6,35.8
	c11.2-18.6,22.8-38.8,32-55.6c1.7-3.1,3.2-6,4.7-8.7c11.6-8.7,23.7-18.1,33.6-26.2c7-5.7,12.5-10.4,16.3-14c4.7-4.4,8.7-8.1,6-11.8
	c-0.8-1.1-2.1-1.8-3.6-1.8c-4.3,0-21.2,10.4-38.2,21.7c0.1-2-0.5-3.4-2.1-4.3c-1.1-0.7-2.5-0.8-3.8-0.4c-1.5,0.5-4.5,1.4-19.9,22.3
	c-4.8,3.3-8.6,6.1-11.1,7.9c-14,10.1-23.4,17.6-29,23c-2.9,2.8-9,8.7-5.5,13.5c0.6,0.9,2.1,2.3,4.8,2.3c0,0,0,0,0,0
	c2,0,5-0.7,11.1-4.1c-9,13.5-18,27.5-26,40.3c-12.9,20.8-21.5,35.9-26.1,46.2c-7.6-8.4-20.3-20.1-38.9-35.8
	c-20.1-17-44.2-36.3-64.3-51.5c-35.9-27.1-38.8-26.1-41.2-25.4c-0.8,0.3-1.5,0.7-2,1.3c-2.9,3.5,0.2,7.6,7.5,15.5
	c5.2,5.6,12.7,13.1,22.3,22.2c18.2,17.3,42.1,38.8,62.4,55.9c45.3,38.4,53.9,40.1,58.8,38.5c0.9-0.3,1.6-0.7,2.3-1.3
	c4-2.5,10.2-8.9,22.2-26.5c7.4-3.9,18.8-11.1,37.1-24.1c18.2-13,39.8-29.2,56.3-42.4c8.7-7,15.5-12.7,20.3-17.1
	C370.9,352.3,374.6,348.5,372,344.8z"/>
<path class="st49" d="M263.3,371.1c-6.5,10-12.9,19.9-18.7,29.3c-8.5,13.6-15.1,24.8-19.9,33.8c-2,3.7-6.9,4.5-9.9,1.6
	c-7.4-7.1-17.1-15.7-29.2-26c-20.2-17.1-44.3-36.4-64.5-51.6c-10.5-7.9-19.2-14.2-25.8-18.5c-10.7-7.1-14.8-8.7-19-7.4c0,0,0,0,0,0
	c-1.5,0.5-2.8,1.4-3.8,2.5c-0.8,0.9-3.2,4.4-1.1,9.3c0.5,1.1,1.2,2.2,2.2,3.6c1.4,2,3.6,4.5,6.5,7.7c5.2,5.7,12.8,13.2,22.4,22.4
	c18.2,17.4,42.2,38.9,62.6,56.1c17.8,15,31,25.4,40.6,31.7c10.7,7,16.8,9.1,22,7.5c1.1-0.4,2.2-0.9,3.1-1.7
	c3.7-2.3,9.1-7.5,18.6-20.7c2.8-3.9,6.4-7.2,10.5-9.7c7.3-4.4,17.1-10.8,30.5-20.4c18.3-13,39.9-29.3,56.5-42.6
	c8.8-7,15.7-12.8,20.5-17.2c2.7-2.5,4.7-4.5,6.1-6.1c4.8-5.6,3.7-9.8,1.9-12.3c-1.6-2.2-4.1-3.5-6.9-3.5c-2.6,0-6.6,0-38.4,20.1
	c-10.3,6.5-21.7,14-32.9,21.5c-1.5,1-3.2-0.7-2.4-2.2c6.9-11.8,13.5-23.5,19.2-34c0.4-0.7,0.8-1.5,1.2-2.2c2.1-3.8,4.9-7.1,8.3-9.7
	c9.8-7.4,19.6-15.1,27.8-21.8c7.1-5.8,12.6-10.5,16.5-14.1c2.2-2.1,3.9-3.8,5-5.1c4.7-5.6,3-9.8,1.5-11.8c-1.6-2.1-4-3.4-6.8-3.4
	c-2.6,0-5.8,0-31.8,16.8c-0.6,0.4-1.2,0.8-1.8,1.1c-1.4,0.9-3.2,0.9-4.6,0l0,0c-2.1-1.3-4.6-1.6-7-0.8c-2.3,0.7-5.3,1.7-19.3,20.4
	c-1.4,1.8-3,3.5-4.9,4.8c-2.7,1.9-5.3,3.8-7.8,5.6c-14.1,10.2-23.7,17.9-29.4,23.4c-3,2.9-4.9,5.2-6.1,7.3c-3.2,5.7-1,9.8,0.1,11.3
	c1.8,2.5,4.7,3.9,8,3.9c0,0,0.4-0.1,0.6,0.2C263.6,370.7,263.3,371.1,263.3,371.1z M210.9,459.9c-8.6-5.6-21.6-15.5-40.9-31.9
	c-40.8-34.6-94.6-84.8-91.7-88.2c0.1-0.1,0.1-0.1,0.2-0.1c4.9-1.5,61.8,42.2,101.8,76.1c16.5,14,27.6,24.1,34.8,31.5
	c1.2,1.2,1.6,3,1,4.6c-0.7,1.9-1.3,3.6-1.7,5.1c-0.2,0.6-0.3,1.3-0.3,2c-0.1,0.5-0.2,1.2-0.7,1.4C212.4,461,210.9,459.9,210.9,459.9
	z M367.4,284.2c0.2,0,0.4,0,0.4,0.2c1.2,1.7-16.9,17-37.9,33.4c-0.9,0.7-2.2-0.3-1.7-1.3c0,0,0,0,0,0c1.8-3.9,3.1-7,3.8-9.3
	c0.3-1,0.6-1.9,0.7-2.7C350.1,293,364.6,284.2,367.4,284.2z M262.7,362.4c-0.8,0-1.4-0.3-1.7-0.7c-1.6-2.2,3.1-8.3,25.5-25.1
	c-5,7.2-10.2,14.8-15.4,22.7C266.9,361.5,264.3,362.4,262.7,362.4z M224.9,465.7c-0.9,0.3-1.7,0.2-2.3-0.1
	c-3.8-2.3,0.2-15.6,28.5-61c27.3-43.8,67.2-101.6,73.3-103.6c0.2-0.1,0.4-0.1,0.5,0c3.8,2.3-32,66.6-60.2,112.1
	C240.9,451.4,230,464.1,224.9,465.7z M285.8,414.4c-5.2,3.7-9.8,6.9-14,9.7c-1.9,1.3-4.1-0.9-2.9-2.8c0.8-1.4,1.7-2.7,2.6-4.2
	c2.6-4.2,5.4-8.7,8.1-13.2c1.2-1.9,2.7-3.5,4.5-4.8c34.4-24.1,78.6-52.2,84.3-52.2c0.3,0,0.5,0.1,0.5,0.2
	C371,350.1,322.4,388.4,285.8,414.4z"/>
<path class="st48" d="M216.6,388.1c-4.7,0-13.7-4.3-46.7-35.2c-16.3-15.3-35.5-34.3-50.1-49.6c-7.7-8.1-13.7-14.7-17.8-19.6
	c-5.5-6.6-8.7-10.9-5.6-14.2c0.8-0.9,2-1.4,3.2-1.4c1.9,0,5.1,0,33.6,23.8c16.1,13.5,35.3,30.5,51.2,45.4
	c15.5,14.5,25.9,25.2,31.9,32.6c3.2,4,9.2,11.5,4.7,16.3C220.3,387.1,218.8,388.1,216.6,388.1z"/>
<path class="st48" d="M228.1,107.9c-0.4-0.1-0.9-0.2-1.3-0.2c-3.1,0-4.7,2.8-7.5,8.7c-1.8,4-4.2,9.5-6.9,16.5
	c-5.1,13.1-11.2,30.1-15.7,44.2c-3.1,9.5-5.3,17-6.8,22.9c-4.1-4.5-9.9-10.3-17.5-17.4c-10.7-10-23.5-21.4-34.3-30.5
	c-19.4-16.3-21.7-16.3-23.3-16.3c-1.2,0-2.3,0.5-3.1,1.3c-3,3.2,0.3,7.1,3.7,11.2c2.8,3.3,6.8,7.8,12,13.2
	c9.8,10.3,22.6,23.1,33.5,33.4c17.7,16.7,25.2,21.8,29.1,23.3c0.5,0.4,1.1,0.8,1.8,1c0.5,0.2,1,0.3,1.6,0.3c4.2,0,8.1-2.7,19.3-37.2
	c4.6-14.3,9.8-31.7,13.4-45.4c1.9-7.3,3.3-13.1,4.1-17.4C231.2,114.2,232.2,109.2,228.1,107.9z"/>
<path class="st49" d="M229.3,104.2c-0.8-0.3-1.6-0.4-2.5-0.4c-5.9,0-8.5,5.6-11,10.9c-1.9,4.1-4.2,9.7-7,16.7
	c-5.1,13.2-11.2,30.2-15.8,44.4c-0.6,1.9-1.2,3.7-1.8,5.5c-1.5,4.9-7.6,6.4-11.3,2.9c-1.5-1.4-3.1-3-4.8-4.5
	c-10.7-10.1-23.6-21.5-34.5-30.7c-5.7-4.8-10.4-8.6-14.1-11.3c-6.1-4.6-8.8-5.9-11.7-5.9c0,0,0,0,0,0c-2.3,0-4.4,0.9-5.9,2.6
	c-1.4,1.4-4.1,5.4-0.2,11.5c0.8,1.3,2,2.9,3.7,4.9c2.8,3.4,6.9,7.9,12.1,13.4c9.8,10.3,22.7,23.2,33.7,33.5
	c16.2,15.2,24.1,21.2,28.9,23.6c0.7,0.3,1.3,0.7,2,1c0.6,0.3,1.1,0.5,1.5,0.6c0.9,0.3,1.8,0.4,2.8,0.4c7,0,10.5-7.5,12.4-11.5
	c2.8-6,6.3-15.2,10.6-28.4c4.7-14.3,9.8-31.8,13.4-45.6c1.9-7.3,3.3-13.3,4.2-17.6c0.5-2.5,0.8-4.5,0.9-6
	C235.5,107,231.1,104.8,229.3,104.2z M114.6,139.6c0.1-0.1,0.1-0.1,0.3-0.1c3.5,0,33.7,25.8,54.9,45.8c22,20.6,26.1,27.3,24.3,29.1
	c-0.2,0.3-0.6,0.4-1.1,0.4c-2.9,0-10.6-5.2-29.4-22.9C141.7,171.3,112.9,141.5,114.6,139.6z M209,181c-2.8,8.7-5.2,15.4-7.2,20.4
	c-0.8,2-3.5,2.4-4.8,0.7c0,0,0,0,0,0c-0.5-0.7-1.1-1.4-1.8-2.1c-0.6-0.7-0.8-1.7-0.6-2.6c1.3-5,3.2-11.3,5.8-19.2
	c9.2-28.4,23.8-66.6,26.3-66.6c0,0,0.1,0,0.1,0C229.2,112.4,218.3,152.3,209,181z"/>
<path class="st48" d="M267.4,176.5c-0.6-0.3-1.2-0.4-1.8-0.4c-2.6,0-4.6,0-20.1,27.5c-8.4,15-18.2,33.7-26.1,49.9
	c-6.1,12.5-10.6,22.3-13.4,29.8c-5-5.9-12.7-13.7-23.4-24c-12.8-12.2-28.2-26.1-41.1-37.1c-23.1-19.7-25.8-19.7-27.5-19.7
	c-1.2,0-2.3,0.5-3.1,1.3c-3.1,3.3,0.4,7.5,4.4,12.5c3.3,4,8.1,9.4,14.3,16c11.7,12.5,27.1,28,40.2,40.5
	c22.8,21.7,31.2,27.3,35.6,28.6c0.3,0.2,0.5,0.4,0.8,0.5c0.7,0.4,1.5,0.5,2.4,0.5c0,0,0,0,0,0c4.3,0,9.3-3.1,27.7-40.8
	c7.9-16.3,17-36.2,23.6-52c3.5-8.4,6.1-15.1,7.8-20C269.7,183.7,271.5,178.5,267.4,176.5z"/>
<path class="st49" d="M377.3,207c-1.5-2.2-4-3.4-6.7-3.4c-2.4,0-5.2,0-27.1,13.9c-11.9,7.5-26.1,17.1-37.9,25.5c0,0-0.1,0.1-0.1,0.1
	c-1.4,1-3.2,0.1-3.3-1.6c-0.3-3.7-2.3-5.6-4.3-6.7c-1.2-0.6-2.5-1-3.9-1c-1.8,0-3.4,0.5-5,1.6c-1.2,0.8-2.9,0.1-3.2-1.3
	c0-0.2-0.1-0.4-0.1-0.6c-3.4-14.5-8.1-32-12.1-45.6c-0.2-0.6-0.4-1.2-0.5-1.7c0.2-0.7,0.4-1.4,0.5-2c1.5-7.1-2-10-4.2-11.1
	c-0.2-0.1-0.4-0.2-0.5-0.2c-0.3-0.7-0.5-1.5-0.8-2.1c-0.9-2.4-1.7-4.3-2.4-5.7c-3-6.1-7-6.1-8.3-6.1c-0.6,0-1.2,0.1-1.9,0.2
	c-1.9,0.5-6.4,2.3-6.5,9.5c0,1.5,0.1,3.5,0.4,6.1c0.3,3.1,0.9,7.1,1.7,11.9c-2.5,4.1-5.4,9.1-8.8,15.1
	c-8.4,15.1-18.2,33.8-26.2,50.1c-2.8,5.8-5.3,11-7.4,15.7c-1.8,4-7,4.9-10.1,1.8c-3.7-3.8-8.1-8-13-12.8
	c-12.8-12.2-28.3-26.2-41.3-37.3c-24.2-20.6-27-20.6-30.1-20.6c0,0,0,0,0,0c-2.3,0-4.4,0.9-6,2.5c-1.7,1.8-4,5.7-0.1,11.9
	c1,1.5,2.4,3.4,4.3,5.7c3.4,4.1,8.2,9.6,14.5,16.2c11.7,12.6,27.2,28.1,40.4,40.7c22.2,21.2,31.3,27.5,36.6,29.4
	c0.3,0.2,0.6,0.3,0.8,0.4c1.3,0.6,2.6,0.9,4.1,0.9c5.6,0,9.7-4.6,14.2-11.5c4.3-6.6,9.9-16.9,17-31.5c6-12.3,12.6-26.6,18.3-39.7
	c1.1,5.3,2.3,10.5,3.5,15.3c1.9,7.8,3.5,14.4,5.1,19.6c0.9,3.2,0.5,6.6-1.3,9.4c0,0,0,0,0,0c-11.2,18.1-24.3,40.7-34.9,60.3
	c-5.5,10.2-10,18.8-13.4,26c-1.5,3.1-5.7,3.8-8.1,1.3c-5.7-5.9-12.9-12.9-21.7-21.2c-16-15-35.2-32-51.3-45.5
	c-8.4-7.1-15.5-12.7-20.9-16.7c-9.2-6.8-12.2-8-15.2-8c0,0,0,0,0,0c-2.4,0-4.5,0.9-6.1,2.6c-2.1,2.3-3.8,6.3,0.2,12.5
	c1.2,1.8,2.9,4,5.2,6.9c4.2,5,10.2,11.7,18,19.8c14.6,15.4,33.9,34.4,50.2,49.8c27.3,25.5,38.4,33.2,44.6,35.4
	c0.3,0.2,0.5,0.4,0.8,0.5c1.4,0.8,3,1.2,4.6,1.2c5.9,0,10.8-5.1,16.3-12.8c5.6-7.9,13-20.2,22.4-37.6c8.9-16.4,18.9-36,27.3-53.1
	c1.7-3.6,4.7-6.4,8.3-8.1c5.2-2.4,13.6-7.5,28.4-18c12.3-8.8,26.8-19.7,37.9-28.7c5.9-4.8,10.6-8.7,13.8-11.7
	c1.9-1.7,3.3-3.2,4.3-4.3C380.6,212.9,378.4,208.6,377.3,207z M201,286.3c-0.2,0.6-0.4,1.2-0.5,1.7c-0.7,2.6-3.9,3.6-5.9,1.9
	c-5.4-4.3-12.5-10.7-22.1-19.8c-26.4-25.1-60.8-61.4-58.7-63.5c0.1-0.1,0.2-0.1,0.3-0.1c4.2,0,40.5,31.4,66,55.7
	c9.1,8.7,15.7,15.3,20.2,20.4C201.2,283.6,201.4,285,201,286.3C201,286.3,201,286.3,201,286.3z M257.1,166.7
	C257.1,166.7,257.1,166.7,257.1,166.7c0.7,0,1.8,2.2,3.2,6c0.2,0.6,0.1,1.2-0.4,1.6c-0.1,0.1-0.3,0.3-0.4,0.4
	c-0.9,0.8-2.3,0.2-2.4-0.9C256.5,169.5,256.5,166.9,257.1,166.7z M232.8,260c-14.8,30.3-21.2,38.6-24.2,38.6c-0.2,0-0.5-0.1-0.7-0.1
	c-2.7-1.3-0.9-10.5,15-43.3c15.7-32.2,39.3-75.3,42.6-75.3c0,0,0.1,0,0.1,0C268.4,181.3,248.7,227.3,232.8,260z M267.2,201.9
	c0.4-1,1.8-0.9,2.1,0.1c3,10.9,6.1,22.7,8.6,33.3c0.6,2.4,1.1,4.7,1.6,6.8c0.5,2,0.1,4.2-1.1,5.9l-2.2,3.2c-1,1.5-3.3,1.1-3.7-0.6
	c-1-3.8-2.1-8.2-3.3-13.3c-1.7-7.3-3.5-15.4-5.1-23.3c-0.4-1.8-0.2-3.7,0.5-5.4L267.2,201.9z M218.2,383.6c-0.4,0.4-0.9,0.6-1.6,0.6
	c-4.3,0-15.9-7.8-44-34.1c-32.8-30.8-75.8-75.2-73.3-77.9c0.1-0.1,0.2-0.1,0.4-0.1c5.2,0,50.3,38.4,82.1,68.2
	C214.6,371,220.7,380.9,218.2,383.6z M249.1,338.6c-9.6,17.7-16.5,29.2-21.5,36.3c-0.8,1.2-2.6,1-3.3-0.2c-1.5-2.7-3.1-4.9-4-6.1
	c-0.5-0.6-0.6-1.3-0.3-2c3.4-7.9,8.9-19,17.3-34.4c21.1-38.9,52.6-90.6,56.7-90.6c0.1,0,0.1,0,0.2,0
	C297.4,243.4,270.6,299.1,249.1,338.6z M296.1,261.3c0.7-1.5,1.7-2.9,3-3.9c3.1-2.4,6.8-5,11-8c23.5-16.8,56.4-38,60.5-38
	c0.2,0,0.3,0,0.4,0.1c1.4,2-31.1,27.7-55.6,45.2c-6.7,4.8-12.1,8.4-16.5,11.2c-2.4,1.5-5.3-1-4.1-3.6L296.1,261.3z"/>
<path class="st48" d="M195.8,28.2c-0.3-0.1-0.6-0.1-0.9-0.1c-3.5,0-4.9,3.5-6.9,9.3c-1.4,4.1-3.1,9.9-5.1,17.1
	c-3.7,13.6-8,31.1-11.1,45.7c-0.6,2.7-1.1,5.2-1.6,7.6c-0.8-3.9-1.9-8.3-3.4-13.3c-2.8-9.6-6.7-20.7-10.2-29.6
	c-6.2-15.3-8.6-17.7-12.2-17.7c-0.5,0-0.9,0.1-1.4,0.2c-5,1.5-4.7,7.6-2,21.7c1.8,9.4,4.6,21.2,7.5,30.8c1.3,4.4,2.5,8.2,3.7,11.3
	c-1.3-1-2.6-2-3.9-3c-11.5-8.8-25.4-18.7-37-26.6c-20.7-14-23.2-14-24.7-14c-1.4,0-2.6,0.6-3.4,1.7c-2.6,3.5,1,7,4.8,10.8
	c3.1,3,7.6,7,13.3,11.9c10.8,9.2,24.9,20.6,36.8,29.7c19.3,14.7,27.2,19.1,31.4,20.2c0.5,0.4,1.2,0.7,1.9,0.8
	c0.4,0.1,0.7,0.1,1.1,0.1c5.2,0,8.7-5.6,15.8-39c3.1-14.7,6.4-32.5,8.6-46.5c1.1-7.4,1.9-13.4,2.3-17.7
	C199.6,34.1,200.1,29.1,195.8,28.2z"/>
<path class="st49" d="M203.3,33.7c-0.2-7.2-4.8-9-6.7-9.4c-0.5-0.1-1.1-0.2-1.7-0.2c-6.5,0-8.7,6.3-10.6,11.9
	c-1.4,4.2-3.2,10-5.2,17.3c-2.8,10.2-5.9,22.6-8.6,34.3c-0.2,1.1-1.7,1.1-2,0.1c0,0,0,0,0,0c-2.5-8.6-6-18.5-9.2-26.5
	c-1.7-4.3-3.3-7.7-4.6-10.2c-1.5-2.8-4.2-7.9-9.8-7.9c-0.8,0-1.6,0.1-2.3,0.3c-6.9,2-6.3,9.9-6.1,12.5c0.2,2.8,0.8,6.5,1.6,11.1
	c1.6,8.4,4.2,19,6.7,27.6c0.5,1.6,0.9,3.1,1.4,4.6c0.3,1-0.8,1.8-1.6,1.2c-10.2-7.6-21.4-15.6-31.2-22.2
	C91.8,63.6,89.2,63.6,86.6,63.6c0,0,0,0,0,0c-2.6,0-5,1.2-6.5,3.2c-1.2,1.6-3.5,5.8,1,11.5c1,1.2,2.3,2.6,4.2,4.4
	c3.2,3.1,7.7,7.2,13.5,12.1c10.8,9.3,25,20.7,37,29.8c19.4,14.7,27.6,19.4,32.3,20.7c1,0.6,1.9,0.8,2.6,1c0.6,0.1,1.3,0.2,1.9,0.2
	c7.5,0,10.5-8.4,12-12.4c2.2-6.2,4.7-15.9,7.7-29.6c3.1-14.7,6.4-32.7,8.6-46.7c1.2-7.5,1.9-13.5,2.3-17.9
	C203.3,37.2,203.3,35.2,203.3,33.7z M144.9,51c0,0,0.1,0,0.1,0c2.5,0,11.1,22.3,16.1,39c5,17,4.3,21.7,1.9,22.5
	c-0.2,0.1-0.4,0.1-0.6,0.1c-2.3,0-5.4-4.3-10-20C147.4,75.6,142.5,51.7,144.9,51z M86.3,71.6c0.1-0.1,0.2-0.1,0.3-0.1
	c3.9,0,36.3,22.3,59.3,39.8c7.1,5.4,12.4,9.7,16.5,13.2c0.6,0.5,0.9,1.2,0.8,2c-0.2,1.4-0.3,2.7-0.4,3.8c0,0,0,0,0,0
	c-0.1,1.7-2,2.7-3.5,1.8c-4.7-3.1-10.8-7.5-18.9-13.6C116.5,100.2,84.8,73.5,86.3,71.6z M184.5,102.9c-6.1,28.5-9.6,35.9-12,35.9
	c-0.1,0-0.2,0-0.3,0c-2.4-0.5-2.9-8.3,3.4-37.8c6.3-29.3,16.8-69,19.3-69c0,0,0,0,0,0C197.4,32.5,190.8,73.4,184.5,102.9z"/>
<line class="st51" x1="247.5" y1="414.8" x2="268.1" y2="381.6"/>
<line class="st51" x1="242.6" y1="322.6" x2="257.7" y2="296"/>
<line class="st51" x1="226.3" y1="248.6" x2="235.8" y2="230.3"/>
<line class="st51" x1="206.2" y1="160.9" x2="214.5" y2="138.3"/>
<line class="st51" x1="178.6" y1="88.2" x2="187.4" y2="54"/>
<line class="st51" x1="314.1" y1="378.2" x2="332.9" y2="366.4"/>
<line class="st51" x1="314" y1="246.4" x2="329.1" y2="236.4"/>
<line class="st51" x1="363.6" y1="160.9" x2="374.4" y2="155"/>
<line class="st51" x1="345.9" y1="141.7" x2="342.9" y2="148.6"/>
<path class="st33" d="M350.9,292.7c-1-1.6-3.2-2.1-4.8-1.1l-13.2,8.4c0.2,0.9,0.2,1.8,0.1,2.9c-0.1,1.2-0.4,2.5-0.9,4.1
	c-0.2,0.7-0.5,1.5-0.9,2.4l18.7-12C351.5,296.5,352,294.3,350.9,292.7z"/>
<circle class="st33" cx="385.7" cy="148.8" r="3.5"/>
<circle class="st33" cx="341.1" cy="228.8" r="3.5"/>
<circle class="st33" cx="349.4" cy="356.8" r="3.5"/>
<circle class="st33" cx="366.1" cy="285.8" r="3.5"/>
<circle class="st33" cx="276.8" cy="369.2" r="3.5"/>
<circle class="st33" cx="243.2" cy="215.9" r="3.5"/>
<circle class="st33" cx="225.8" cy="115.2" r="3.5"/>
<circle class="st33" cx="194.5" cy="35.4" r="3.5"/>
<circle class="st33" cx="145.8" cy="54.3" r="3.5"/>
<circle class="st33" cx="266.7" cy="281.3" r="3.5"/>
<circle class="st33" cx="351.5" cy="128.7" r="3.5"/>
</svg>
