<?xml version="1.0" encoding="utf-8"?>
<!-- Generator: Adobe Illustrator 20.1.0, SVG Export Plug-In . SVG Version: 6.00 Build 0)  -->
<svg version="1.1" id="Layer_1" xmlns="http://www.w3.org/2000/svg" xmlns:xlink="http://www.w3.org/1999/xlink" x="0px" y="0px"
	 viewBox="0 0 500 500" style="enable-background:new 0 0 500 500;" xml:space="preserve">
<style type="text/css">
	.st0{fill:#22680E;}
	.st1{fill:#83C667;}
	.st2{fill:none;stroke:#22680F;stroke-width:6;stroke-linecap:round;stroke-miterlimit:10;}
	.st3{fill:none;stroke:#22680E;stroke-width:3;stroke-linecap:round;stroke-linejoin:round;stroke-miterlimit:10;}
	.st4{fill:none;stroke:#FFFFFF;stroke-linecap:round;stroke-linejoin:round;stroke-miterlimit:10;}
	.st5{fill:#629024;}
	.st6{fill:#DFB52C;}
	.st7{fill:#42210B;}
	.st8{fill:#253933;}
	.st9{fill:none;stroke:#DFB52C;stroke-linecap:round;stroke-miterlimit:10;}
	.st10{fill:#BBCB38;stroke:#315302;stroke-width:6;stroke-miterlimit:10;}
	.st11{fill:none;stroke:#BBCB38;stroke-width:3.5;stroke-linecap:round;stroke-miterlimit:10;}
	.st12{fill:#3B792C;stroke:#15540E;stroke-width:6;stroke-miterlimit:10;}
	.st13{fill:none;stroke:#355B00;stroke-width:6;stroke-miterlimit:10;}
	.st14{fill:#94AD34;stroke:#355B00;stroke-linecap:round;stroke-linejoin:round;stroke-miterlimit:10;}
	.st15{fill:#00FFFF;}
	.st16{fill:#95CC63;stroke:#517B39;stroke-width:3;stroke-linecap:round;stroke-linejoin:round;stroke-miterlimit:10;}
	.st17{fill:none;stroke:#517B39;stroke-linecap:round;stroke-linejoin:round;stroke-miterlimit:10;}
	.st18{clip-path:url(#SVGID_2_);}
	.st19{fill:none;stroke:#00FFFF;stroke-width:0.2598;stroke-miterlimit:10;}
	.st20{fill:none;stroke:#355B00;stroke-linecap:round;stroke-linejoin:round;stroke-miterlimit:10;}
	.st21{fill:#94AD34;}
	.st22{fill:#355B00;}
	.st23{fill:#95CC63;stroke:#517B39;stroke-linecap:round;stroke-linejoin:round;stroke-miterlimit:10;}
	.st24{fill:none;stroke:#94AD34;stroke-linecap:round;stroke-linejoin:round;stroke-miterlimit:10;}
	.st25{fill:#FFFFFF;}
	.st26{fill:none;stroke:#94AD34;stroke-width:0.4041;stroke-miterlimit:10;}
	.st27{fill:#94AD34;stroke:#94AD34;stroke-linecap:round;stroke-miterlimit:10;}
	.st28{fill:none;stroke:#94AD34;stroke-miterlimit:10;}
	.st29{fill:none;stroke:#94AD34;stroke-width:0.2579;stroke-miterlimit:10;}
	.st30{fill:none;stroke:#7BB76B;stroke-linecap:round;stroke-linejoin:round;stroke-miterlimit:10;}
	.st31{fill:#7BB76B;stroke:#3B792C;stroke-linecap:round;stroke-linejoin:round;stroke-miterlimit:10;}
	.st32{fill:none;stroke:#3B792C;stroke-linecap:round;stroke-linejoin:round;stroke-miterlimit:10;}
	.st33{fill:none;stroke:#BCEFA5;stroke-linecap:round;stroke-linejoin:round;stroke-miterlimit:10;}
	.st34{fill:#3B792C;}
	.st35{fill:#BCEFA5;}
	.st36{fill:#15540E;}
	.st37{fill:#7BB76B;}
	.st38{fill:none;stroke:#62A580;stroke-miterlimit:10;}
	.st39{fill:none;stroke:#62A580;stroke-linecap:round;stroke-miterlimit:10;}
	.st40{fill:#62A580;}
	.st41{fill:#ACCEA2;stroke:#19402E;stroke-width:6;stroke-linejoin:round;stroke-miterlimit:10;}
	.st42{fill:none;stroke:#769D6E;stroke-linecap:round;stroke-miterlimit:10;}
	.st43{fill:#769D6E;}
	.st44{fill:none;stroke:#ACCEA2;stroke-linecap:round;stroke-miterlimit:10;}
	.st45{fill:none;stroke:#FFFFFF;stroke-linecap:round;stroke-miterlimit:10;}
	.st46{fill:none;stroke:#438763;stroke-linecap:round;stroke-miterlimit:10;}
	.st47{fill:#438763;}
	.st48{fill:#ACCEA2;}
	.st49{fill:#19402E;}
	.st50{fill:#16502E;}
	.st51{fill:#9EDB61;}
	.st52{opacity:0.5;fill:#7EB654;}
	.st53{fill:#5B943A;}
	.st54{fill:#7EB654;}
	.st55{fill:#917013;}
	.st56{fill:#EDDC84;}
	.st57{fill:#F4EDAA;}
	.st58{fill:#DBC002;}
	.st59{fill:#463849;}
	.st60{fill:#B28BB8;}
	.st61{fill:#CCBCDF;}
	.st62{fill:#9C5D96;}
	.st63{fill:#BBCB38;}
	.st64{fill:#315302;}
	.st65{fill:none;stroke:#5A7700;stroke-linecap:round;stroke-miterlimit:10;}
	.st66{fill:#5A7700;}
	.st67{fill:#DFB52C;stroke:#42210B;stroke-width:3;stroke-miterlimit:10;}
	.st68{fill:none;stroke:#42210B;stroke-linecap:round;stroke-miterlimit:10;}
	.st69{fill:none;stroke:#253933;stroke-width:3;stroke-linecap:round;stroke-linejoin:round;stroke-miterlimit:10;}
	.st70{fill:none;stroke:#315302;stroke-width:3;stroke-miterlimit:10;}
	.st71{fill:#629024;stroke:#253933;stroke-linejoin:round;stroke-miterlimit:10;}
	.st72{fill:#629024;stroke:#253933;stroke-miterlimit:10;}
	.st73{fill:none;stroke:#253933;stroke-linecap:round;stroke-linejoin:round;stroke-miterlimit:10;}
	.st74{fill:#629024;stroke:#253933;stroke-linecap:round;stroke-linejoin:round;stroke-miterlimit:10;}
	.st75{opacity:0.9;fill:none;stroke:#629024;stroke-miterlimit:10;}
	.st76{opacity:0.8;fill:none;stroke:#629024;stroke-miterlimit:10;}
	.st77{opacity:0.7;fill:none;stroke:#629024;stroke-miterlimit:10;}
	.st78{opacity:0.6;fill:none;stroke:#629024;stroke-miterlimit:10;}
	.st79{opacity:0.5;fill:none;stroke:#629024;stroke-miterlimit:10;}
	.st80{opacity:0.4;fill:none;stroke:#629024;stroke-miterlimit:10;}
	.st81{opacity:0.3;fill:none;stroke:#629024;stroke-miterlimit:10;}
	.st82{opacity:0.2;fill:none;stroke:#629024;stroke-miterlimit:10;}
	.st83{opacity:0.1;fill:none;stroke:#629024;stroke-miterlimit:10;}
	.st84{fill:#70932E;}
	.st85{fill:#7B9630;}
	.st86{fill:#879A31;}
	.st87{fill:#949E32;}
	.st88{fill:#A0A234;}
	.st89{fill:#ADA536;}
	.st90{fill:#B8A937;}
	.st91{fill:#C5AD38;}
	.st92{fill:#D2B03A;}
	.st93{fill:none;stroke:#459E28;stroke-linecap:round;stroke-linejoin:round;stroke-miterlimit:10;}
	.st94{fill:#459E28;}
</style>
<path class="st0" d="M145.3,410.3c-13.3,2.6-25.8,5-37.6,12.7c-6.7,4.4-11,11.4-11.9,19.5c-0.9,8.2,2.1,16.5,7.9,22.3
	c22.8,22.7,49.1,34.2,78.2,34.2c29.2,0,60.3-11.7,92.2-34.9c26.3-19,53.4-46.2,78.4-78.6c45.9-59.3,82.1-115.6,107.6-167.3
	c22.3-45.2,31.8-78.1,36.3-97.7c10-43.6-11.5-67.4-11.5-67.4c-1.2-1.7-2.4-3.3-3.6-4.8c-2.1-2.6-2.1-6.4,0.1-9v0
	c7.9-9.7,7.1-24.1-2.3-32.3c-9.9-8.7-24.8-7.4-33.1,2.7l-31.8,38.9c-2.9,3.6-6.3,6.7-10.1,9.3l0,0c-56.1,39.2-94.3,79.6-125,112.1
	l-0.1,0.1c-6.4,6.7-12.4,13.1-18.1,19C145.7,307.2,91.6,308.4,55.8,309.2c-12.2,0.3-23.8,0.5-35.4,4.8c-8.5,3.1-15.3,9.9-17.7,18.6
	c-2.3,8-0.8,16.5,4.1,23.4c22.4,31.3,52.3,47.2,88.9,47.2c64.6,0,130.8-51.8,164.5-82.7c22.2-20.3,42.7-40.4,61.5-60.2
	c2.4-2.5,6.3,0.6,4.5,3.5C242.3,397.2,145.3,410.3,145.3,410.3z M451.3,91.7c0.1,1.6,0,3.5-0.2,5.5c-0.1,0.6-0.4,1.2-0.8,1.7
	c-4.6,4.6-9,9.2-13.3,13.8c-1.7,1.8-4.6-0.2-3.5-2.5c3.9-7.7,6.9-14.4,9.2-20c0.4-0.9,1.1-1.7,1.9-2.2l0,0
	C447.5,86.3,451.2,88.3,451.3,91.7z"/>
<polygon class="st1" points="403.3,94.1 408.2,98.3 385.5,140.5 339.5,201.6 254.7,290.2 198.9,336.9 126.7,373.9 89,377.1 
	53,365.9 30,340.8 35.2,339.4 69.4,335.5 118.6,326.8 171,302.1 244.9,243.8 321,165.6 367.7,120.6 "/>
<polygon class="st1" points="127,445.8 133.3,440.2 182.5,429.7 236.2,401.8 287.1,355.8 357.6,264.7 403.3,194.3 439.6,149.6 
	462.3,128.3 461.6,148.9 434,211.3 393.2,282.5 332.1,368.3 288.5,418.9 255.4,445.8 217.4,467.1 183.9,473.7 154.2,468.1 "/>
<path class="st25" d="M381.4,258.4c-0.7,0-1.5-0.2-2.1-0.6c-1.8-1.2-2.2-3.6-1.1-5.3c9.3-13.9,19.8-29.7,31.6-46.2
	c1.2-1.7,3.6-2.1,5.4-0.9c1.7,1.2,2.1,3.6,0.9,5.4c-11.8,16.3-22.2,32.1-31.5,45.9C383.9,257.8,382.7,258.4,381.4,258.4z"/>
<path class="st25" d="M262.8,402.5c-1.1,0-2.2-0.5-2.9-1.3c-1.4-1.6-1.2-4,0.4-5.4c32.2-27.5,65.8-66.9,102.6-120.5
	c1.2-1.7,3.6-2.2,5.3-1c1.7,1.2,2.2,3.6,1,5.3c-37.2,54.1-71.2,94-104,122C264.5,402.2,263.6,402.5,262.8,402.5z"/>
<path class="st25" d="M204,300.4c-1.2,0-2.3-0.5-3.1-1.6c-1.3-1.7-0.9-4.1,0.8-5.4c26.9-19.9,55.3-45.2,86.8-77.5
	c1.5-1.5,3.9-1.5,5.4-0.1c1.5,1.5,1.5,3.9,0.1,5.4c-31.8,32.6-60.5,58.2-87.7,78.3C205.6,300.1,204.8,300.4,204,300.4z"/>
<path class="st25" d="M181.8,315.7c-1.3,0-2.5-0.6-3.2-1.8c-1.1-1.8-0.6-4.2,1.2-5.3c3-1.9,6.1-4,9.2-6.1c1.8-1.2,4.1-0.8,5.3,1
	c1.2,1.8,0.8,4.1-1,5.3c-3.1,2.1-6.3,4.2-9.4,6.2C183.2,315.5,182.5,315.7,181.8,315.7z"/>
<path class="st25" d="M84.5,353.4c-1.9,0-3.6-1.4-3.8-3.4c-0.3-2.1,1.2-4,3.3-4.3c10.5-1.3,20.4-3.3,30.4-6.2c2-0.6,4.2,0.6,4.8,2.6
	c0.6,2-0.6,4.2-2.6,4.8c-10.3,3-20.7,5.1-31.6,6.5C84.8,353.4,84.7,353.4,84.5,353.4z"/>
<path class="st94" d="M419.9,72.5c-3.3,4-7.1,7.6-11.3,10.7C359.1,119.1,324.2,156,296,185.9c-6.4,6.8-12.5,13.3-18.5,19.3
	C223.9,260.1,177.7,296,136.2,315c-35.4,16.2-61.1,16.8-79.9,17.2c-11.7,0.3-20.9,0.5-29.4,3.9c-0.7,0.3-1.3,0.7-1.7,1.2
	c-1.1,1.4-1,3.2-0.1,4.6c17.9,25.3,41.7,38.2,70.5,38.2c42.1,0,95-27.2,149-76.6c51.5-47.1,93.8-92.9,125.7-136
	c24.1-32.5,38.3-58.3,46.5-75.9c2.2-4.8,5.1-9.3,8.4-13.5l17.5-21.6c1.8-2.2,5-2.7,7.4-1c3.5,2.5,8.5,6.7,12.7,12.7
	c4.3,6.2,6.8,13,7.5,20.2c1.3,13.1-3.4,26.1-12.5,35.6c-41.8,43.6-69.7,85.6-92.4,119.7c-5.3,8-10.3,15.6-15.2,22.7
	c-44.4,64.6-84.7,108.8-123.1,135.2c-32.8,22.5-58.6,27.5-77.4,31.2c-11.8,2.3-21.2,4.1-29.2,9.2c-0.6,0.4-1.1,0.9-1.4,1.5
	c-0.8,1.6-0.5,3.3,0.7,4.5c18.4,18.4,39.3,27.7,62.2,27.7c24.3,0,50.7-10.3,78.7-30.5c24.5-17.8,50-43.4,73.7-74
	c43.8-56.6,78.5-110.3,103.2-159.4c21.7-43.2,31.4-74.7,35.7-93.5c0.1-0.2,0.1-0.5,0.1-0.7c5.7-15,8.6-35.2-4.2-53.8
	c-4.4-6.4-9.7-11.1-13.7-14c-2.5-1.8-3-5.4-1-7.8l12.4-15.3c1.3-1.6,1.3-4-0.3-5.4c-1.6-1.5-4.2-1.3-5.6,0.4L419.9,72.5z
	 M239.5,297.8c-52.6,48.1-103.6,74.6-143.8,74.6c-22.4,0-41.5-8.6-56.8-25.6c-2.1-2.3-0.6-5.9,2.5-6.3c4.5-0.5,9.5-0.6,15.2-0.7
	c19.4-0.4,46-1,82.9-17.9c42.3-19.4,89.3-55.8,143.6-111.5c6-6.1,12.1-12.6,18.5-19.4c24.8-26.3,54.9-58,95.4-89.6
	c2.6-2,6.1,0.9,4.5,3.8C361.3,180.2,284.5,256.6,239.5,297.8z M328.3,366.6c-23.3,30.1-48.2,55.1-72.2,72.5
	c-26.6,19.3-51.6,29.1-74.2,29.1c-17.2,0-33.3-5.9-47.9-17.6c-2.4-1.9-1.7-5.7,1.2-6.6c4.7-1.4,9.9-2.4,15.9-3.6
	c19.5-3.8,46.1-9,80.3-32.4c39.2-26.9,80.1-71.7,125.1-137.1c4.9-7.1,10-14.7,15.3-22.8c20.7-31.1,45.6-68.6,81.5-107.9
	c2.2-2.4,6.1-0.1,5.1,3C431.3,225.9,366.8,316.9,328.3,366.6z"/>
<path class="st94" d="M181.9,460.5c-1,0-2,0-3-0.1c-2.1-0.1-3.8-1.9-3.7-4c0.1-2.1,1.9-3.7,4-3.7c9.9,0.4,20.7-1.6,32-5.9
	c9.3-3.6,19.1-8.7,29.1-15.4c1.8-1.2,4.2-0.7,5.3,1.1c1.2,1.8,0.7,4.2-1.1,5.3c-10.5,7-20.8,12.4-30.6,16.1
	C202.8,458.3,192,460.5,181.9,460.5z"/>
<path class="st94" d="M259.4,426.2c-1.1,0-2.2-0.5-3-1.4c-1.3-1.7-1.1-4.1,0.6-5.4c7.3-5.9,14.8-12.6,22.2-19.9
	c1.5-1.5,3.9-1.5,5.4,0c1.5,1.5,1.5,3.9,0,5.4c-7.6,7.5-15.2,14.4-22.7,20.4C261.1,425.9,260.2,426.2,259.4,426.2z"/>
<path class="st94" d="M119.5,361.6c-1.7,0-3.3-1.2-3.7-2.9c-0.5-2.1,0.7-4.1,2.8-4.7c12.5-3.1,26-8.5,40.1-16.1
	c1.9-1,4.2-0.3,5.2,1.6c1,1.9,0.3,4.2-1.6,5.2c-14.7,7.9-28.8,13.5-41.9,16.8C120.1,361.6,119.8,361.6,119.5,361.6z"/>
<ellipse transform="matrix(4.323251e-02 -0.9991 0.9991 4.323251e-02 -258.2423 450.879)" class="st94" cx="106.3" cy="360.3" rx="3.8" ry="3.8"/>
</svg>
