<?xml version="1.0" encoding="utf-8"?>
<!-- Generator: Adobe Illustrator 20.0.0, SVG Export Plug-In . SVG Version: 6.00 Build 0)  -->
<svg version="1.1" id="Layer_1" xmlns="http://www.w3.org/2000/svg" xmlns:xlink="http://www.w3.org/1999/xlink" x="0px" y="0px"
	 viewBox="0 0 64 64" style="enable-background:new 0 0 64 64;" xml:space="preserve">
<style type="text/css">
	.st0{display:none;}
	.st1{display:inline;fill:#D1A982;}
	.st2{display:inline;}
	.st3{fill:#AFD048;stroke:#6B9311;stroke-width:3;stroke-miterlimit:10;}
	.st4{fill:none;stroke:#6B9311;stroke-miterlimit:10;}
	.st5{fill:#AFD048;}
	.st6{fill:#F40000;stroke:#BA0D0D;stroke-width:3;stroke-miterlimit:10;}
	.st7{fill:none;stroke:#FFFFFF;stroke-linecap:round;stroke-linejoin:round;stroke-miterlimit:10;}
	.st8{fill:#CDA347;stroke:#A2690C;stroke-width:3;stroke-miterlimit:10;}
	.st9{fill:#A2CC62;}
	.st10{fill:#68664C;stroke:#522B25;stroke-width:3;stroke-linecap:round;stroke-linejoin:round;stroke-miterlimit:10;}
	.st11{fill:#B63E34;stroke:#522B25;stroke-width:3;stroke-miterlimit:10;}
	.st12{fill:#ADD481;}
	.st13{fill:#68664C;}
	.st14{fill:#593156;stroke:#331E31;stroke-width:3;stroke-miterlimit:10;}
	.st15{fill:none;stroke:#FFFFFF;stroke-linecap:round;stroke-miterlimit:10;}
	.st16{fill:#22B573;stroke:#184C28;stroke-width:3;stroke-linecap:round;stroke-linejoin:round;stroke-miterlimit:10;}
	.st17{fill:#EE0000;}
	.st18{fill:#9A0601;}
	.st19{fill:#EE0000;stroke:#9A0601;stroke-linecap:round;stroke-linejoin:round;stroke-miterlimit:10;}
	.st20{fill:#FFFFFF;}
	.st21{clip-path:url(#SVGID_2_);}
	.st22{fill:#00FFFF;}
	.st23{fill:#456A0A;}
	.st24{fill:#183300;}
	.st25{fill:#88A501;}
	.st26{fill:#3B6700;}
	.st27{fill:#FC4100;}
	.st28{fill:#9F0500;}
	.st29{fill:none;stroke:#6B9311;stroke-width:3;stroke-linecap:round;stroke-miterlimit:10;}
	.st30{fill:#6B9311;}
	.st31{fill:#593156;}
	.st32{fill:#331E31;}
	.st33{fill:#AFD048;stroke:#6B9311;stroke-width:3;stroke-linecap:round;stroke-linejoin:round;stroke-miterlimit:10;}
	.st34{fill:none;stroke:#6B9311;stroke-linejoin:round;stroke-miterlimit:10;}
	.st35{fill:#B63E34;stroke:#522B25;stroke-miterlimit:10;}
	.st36{fill:none;stroke:#522B25;stroke-miterlimit:10;}
	.st37{fill:none;stroke:#522B25;stroke-width:3;stroke-miterlimit:10;}
	.st38{fill:#B63E34;}
	.st39{fill:#522B25;}
	.st40{fill:none;stroke:#40760E;stroke-width:3;stroke-linecap:round;stroke-linejoin:round;stroke-miterlimit:10;}
	.st41{fill:none;stroke:#40760E;stroke-linecap:round;stroke-linejoin:round;stroke-miterlimit:10;}
	.st42{fill:#A2CC62;stroke:#40760E;stroke-width:3;stroke-linecap:round;stroke-linejoin:round;stroke-miterlimit:10;}
	.st43{fill:#A2CC62;stroke:#40760E;stroke-linecap:round;stroke-linejoin:round;stroke-miterlimit:10;}
	.st44{fill:#9EC161;}
	.st45{fill:#40760E;}
	.st46{fill:#AFD048;stroke:#6B9311;stroke-width:3;stroke-linejoin:round;stroke-miterlimit:10;}
	.st47{fill:#663965;}
	.st48{fill:#9D610B;}
	.st49{fill:none;stroke:#A2690C;stroke-linecap:round;stroke-miterlimit:10;}
	.st50{fill:#6D4E2B;}
	.st51{fill:#CDA347;}
	.st52{fill:#7F500A;}
	.st53{fill:#F40000;stroke:#BA0D0D;stroke-miterlimit:10;}
	.st54{fill:#F40000;stroke:#B63E34;stroke-width:3;stroke-miterlimit:10;}
	.st55{fill:#F40000;stroke:#B63E34;stroke-miterlimit:10;}
	.st56{fill:#F40000;}
	.st57{fill:#990D0D;}
	.st58{fill:#B94850;stroke:#6C0A04;stroke-width:3;stroke-miterlimit:10;}
	.st59{fill:#CE8645;stroke:#CE8645;stroke-width:0.5;stroke-miterlimit:10;}
	.st60{fill:#6C0A04;stroke:#6C0A04;stroke-width:0.5;stroke-miterlimit:10;}
	.st61{fill:none;stroke:#6C0A04;stroke-linecap:round;stroke-miterlimit:10;}
	.st62{fill:#B94850;}
	.st63{fill:#CE8645;}
	.st64{fill:#6C0A04;}
	.st65{fill:#8C4F6F;}
	.st66{fill:#E7C456;}
	.st67{fill:#391A26;}
	.st68{fill:#E7C456;stroke:#AC5E17;stroke-width:3;stroke-miterlimit:10;}
	.st69{fill:#4F250E;stroke:#4F250E;stroke-width:0.5;stroke-miterlimit:10;}
	.st70{fill:none;stroke:#AC5E17;stroke-linecap:round;stroke-miterlimit:10;}
	.st71{fill:#4F250E;}
	.st72{fill:#995116;}
</style>
<g class="st0">
	<rect x="-444.2" y="-789.8" class="st1" width="919.6" height="2155.1"/>
	<path class="st2" d="M475-789.3v2154.1h-918.6V-789.3H475 M476-790.3h-920.6v2156.1H476V-790.3L476-790.3z"/>
</g>
<path class="st51" d="M47.5,16.7c7.5,0,13.6,6.9,13.6,15.3c0,6.7-3.8,12.3-9.1,14.4c-4.5,2.3-11.7,3.7-19.8,3.7
	c-7.3,0-13.9-1.2-18.4-3.1c-6.4-2.4-11-8.7-11-16.1c0-9.5,7.5-17.1,16.7-17.1c0,0,2.8-0.1,6.6,1.1C32,16.6,40.1,16.7,47.5,16.7z"/>
<path class="st52" d="M47.5,15.2c-6.3,0-15,0-20.9-1.7c-4-1.2-7-1.1-7.1-1.1c-10,0-18.2,8.4-18.2,18.6c0,7.8,4.8,14.9,11.9,17.5
	c4.8,2,11.7,3.2,18.9,3.2c8.1,0,15.5-1.4,20.4-3.9c6-2.4,10-8.7,10-15.8C62.6,22.7,55.8,15.2,47.5,15.2z M51.4,45l-0.1,0.1
	c-4.4,2.2-11.6,3.6-19.1,3.6c-4.2,0-8.4-0.4-12-1.2c3.2-0.2,6.2-1.4,8.8-3.4c0.2-0.2,0.3-0.5,0.1-0.7c-0.2-0.2-0.5-0.3-0.7-0.1
	c-2.7,2.1-5.9,3.2-9.3,3.2c-1.5,0-3-0.2-4.4-0.7c-0.1-0.1-0.3-0.1-0.4-0.2c-6-2.2-10-8.1-10-14.7c0-8.6,6.8-15.6,15.2-15.6
	c0,0,0,0,0.1,0c0.4,0,2.8,0,6.1,1c5.8,1.7,13.3,1.9,21.7,1.9c6.7,0,12.1,6.2,12.1,13.8C59.6,37.9,56.3,43.1,51.4,45z"/>
<circle class="st50" cx="25.8" cy="37.6" r="0.8"/>
<circle class="st50" cx="25.8" cy="31.6" r="0.8"/>
<circle class="st50" cx="17.8" cy="22.6" r="0.8"/>
<circle class="st50" cx="31.8" cy="34.6" r="0.8"/>
<ellipse transform="matrix(0.1007 -0.9949 0.9949 0.1007 7.5914 55.7024)" class="st50" cx="34.6" cy="23.7" rx="0.8" ry="0.8"/>
<ellipse transform="matrix(0.1007 -0.9949 0.9949 0.1007 15.3567 62.2002)" class="st50" cx="42.1" cy="22.6" rx="0.8" ry="0.8"/>
<circle class="st50" cx="48.2" cy="39.7" r="0.8"/>
<circle class="st50" cx="45.8" cy="32.6" r="0.8"/>
<circle class="st50" cx="53.8" cy="34.6" r="0.8"/>
<circle class="st50" cx="9.3" cy="29.4" r="0.8"/>
<circle class="st50" cx="12.3" cy="36.9" r="0.8"/>
</svg>
