<?xml version="1.0" encoding="utf-8"?>
<!-- Generator: Adobe Illustrator 20.0.0, SVG Export Plug-In . SVG Version: 6.00 Build 0)  -->
<svg version="1.1" id="Layer_1" xmlns="http://www.w3.org/2000/svg" xmlns:xlink="http://www.w3.org/1999/xlink" x="0px" y="0px"
	 viewBox="0 0 500 500" style="enable-background:new 0 0 500 500;" xml:space="preserve">
<style type="text/css">
	.st0{fill:#6A5129;}
	.st1{fill:#FFEDA1;}
	.st2{fill:#E5D58F;stroke:#CBBE7C;stroke-linecap:round;stroke-miterlimit:10;}
	.st3{fill:#E5D58F;stroke:#CBBE7C;stroke-miterlimit:10;}
	.st4{fill:#D8C38F;}
	.st5{fill:#B29032;}
	.st6{fill:#2E6000;}
	.st7{fill:#74C600;}
	.st8{fill:#C6CC40;}
	.st9{fill:#A6B135;}
	.st10{fill:#C6CC40;stroke:#A6B135;stroke-width:3;stroke-linecap:round;stroke-linejoin:round;stroke-miterlimit:10;}
	.st11{fill:#72621E;}
	.st12{fill:#CBBE7C;}
	.st13{fill:#998E5F;}
	.st14{fill:#F7D63C;}
	.st15{fill:#00FFFF;}
	.st16{clip-path:url(#SVGID_2_);}
	.st17{fill:none;stroke:#CBBE7C;stroke-width:2;stroke-miterlimit:10;}
	.st18{fill:none;stroke:#CBBE7C;stroke-width:2;stroke-linecap:round;stroke-miterlimit:10;}
	.st19{fill:#E1C25F;}
	.st20{fill:#DABF62;}
	.st21{fill:#CEBC5A;}
	.st22{fill:#BEB74F;}
	.st23{fill:#B6B44C;}
	.st24{fill:#998617;}
	.st25{fill:#FFFFFF;}
	.st26{clip-path:url(#SVGID_4_);}
	.st27{fill:none;stroke:#E1C25F;stroke-miterlimit:10;}
	.st28{fill:#C6CC40;stroke:#A6B135;stroke-linecap:round;stroke-miterlimit:10;}
	.st29{fill:#C6CC40;stroke:#A6B135;stroke-linecap:round;stroke-linejoin:round;stroke-miterlimit:10;}
	.st30{fill:none;stroke:#A6B135;stroke-linecap:round;stroke-miterlimit:10;}
	.st31{fill:none;stroke:#E1C25F;stroke-linecap:round;stroke-linejoin:round;stroke-miterlimit:10;}
	.st32{fill:none;stroke:#A6B135;stroke-linecap:round;stroke-linejoin:round;stroke-miterlimit:10;}
	.st33{fill:#E5E54A;}
	.st34{fill:#CCAE58;}
	.st35{fill:#809931;}
	.st36{fill:none;stroke:#CFB04D;stroke-linecap:round;stroke-miterlimit:10;}
	.st37{fill:#E7D572;}
	.st38{fill:#CFB04D;}
	.st39{fill:#E5D58F;}
	.st40{fill:none;stroke:#E1C25F;stroke-width:2;stroke-linecap:round;stroke-linejoin:round;stroke-miterlimit:10;}
	.st41{fill:none;stroke:#E1C25F;stroke-linecap:round;stroke-miterlimit:10;}
	.st42{opacity:0.7;fill:#2E6000;stroke:#2E6000;stroke-linecap:round;stroke-linejoin:round;stroke-miterlimit:10;}
	.st43{fill:none;stroke:#CFB04D;stroke-width:2;stroke-linecap:round;stroke-linejoin:round;stroke-miterlimit:10;}
	.st44{fill:#4C8816;}
	.st45{fill:#AC933F;}
	.st46{fill:none;stroke:#B29032;stroke-width:2;stroke-linecap:round;stroke-miterlimit:10;}
	.st47{fill:#D8C38F;stroke:#B29032;stroke-linejoin:round;stroke-miterlimit:10;}
	.st48{fill:#E7D572;stroke:#B29032;stroke-linejoin:round;stroke-miterlimit:10;}
	.st49{fill:#FFEDA1;stroke:#CBBE7C;stroke-linecap:round;stroke-miterlimit:10;}
	.st50{fill:#FFEDA1;stroke:#CBBE7C;stroke-width:0.9424;stroke-linecap:round;stroke-miterlimit:10;}
	.st51{fill:#FFEDA1;stroke:#CBBE7C;stroke-width:0.9424;stroke-miterlimit:10;}
	.st52{fill:none;stroke:#CBBE7C;stroke-width:1.8847;stroke-linecap:round;stroke-miterlimit:10;}
	.st53{fill:#FFEDA1;stroke:#CBBE7C;stroke-miterlimit:10;}
	.st54{fill:none;stroke:#FFFFFF;stroke-width:7;stroke-linecap:round;stroke-miterlimit:10;}
</style>
<path class="st0" d="M316.3,265.4c5.4-13.8,10.7-27.2,15.8-40c14-35,25.7-63,34.6-83c5.1-11.4,9.2-19.9,12.5-26.1
	c2.1-3.9,3.9-6.8,5.6-9.2c7.1-9.9,15.6-12,21.4-12c2.7,0,5.4,0.5,7.9,1.4c8,2.8,13.9,9.7,15.7,18.2c0.5,2.4,0.7,5,0.6,8
	c-0.1,3.1-0.6,6.7-1.5,11.4c-1.4,7.4-3.7,17.3-7.2,30.5c-6.1,23.1-15.4,54.8-27.5,94.2c-21.4,69.2-49.9,156.2-69.3,211.4
	c-5.9,16.8-20.8,27.6-37.9,27.6c-4.5,0-9-0.8-13.3-2.3c-13.7-4.8-23.4-16.4-25.9-30.6c0,0,0,0,0,0l-24.6-80.2c0,0,0,0,0,0
	c-1.4-1.9-2.7-4-3.7-6.2c-0.1-0.1-0.3-0.2-0.4-0.2c-9.3-5.8-17.3-15.2-20.3-19c-0.9-1.1-1.7-2.1-2.5-3.2c0,0,0,0,0,0l-64.7-55.2
	c-8.5-7.2-11.4-18.6-8.3-28.7c1.5-4.7,0.1-9.8-3.4-13.2l-2.7-2.6c-5.3-5.2-8.6-12.2-8.7-19.6c0-2.8,0.4-5.6,1.2-8.2
	c1.4-4.5,0.3-9.3-2.9-12.8l-4.7-5c-4.9-5.3-7.5-12.2-7.3-19.4c0.1-2.3,0.4-4.5,1.1-6.6c1.2-4.2,0.4-8.7-2.4-12l-5.8-6.7
	c-4.7-5.5-7-12.5-6.4-19.7c0.1-1.8,0.4-3.5,0.9-5.1c1.1-4.1,0.4-8.5-2.3-11.9l-6.5-8.2c-6.8-8.5-7.5-19.9-2.9-29.1
	c1.8-3.5,2.5-7.3,2.2-11.2c-0.6-7.3,1.7-14.8,6.8-20.4c1.6-1.8,2.6-3.9,3.1-6.3c0.1-0.4,0.2-0.8,0.3-1.2c1.7-7,6.1-12.9,12.3-16.7
	l0,0l0,0c1.5-0.9,3-1.6,4.6-2.2c2.5-0.9,4.5-2.9,5.6-5.4c0,0,0,0,0,0c3-6.6,8.4-11.5,15.1-14.1c3-1.1,6.2-1.7,9.5-1.7
	c2.7,0,5.4,0.4,7.9,1.2c3,0.9,6.2-0.1,8.1-2.5c3.2-3.9,7.4-6.8,12.3-8.4c2.8-0.9,5.7-1.4,8.6-1.4h0h0c6.2,0,11.9,2.1,16.6,5.6
	c2.6,2,5.9,2.8,9.1,2.1c1.3-0.3,2.6-0.5,3.9-0.5c0.7-0.1,1.4-0.1,2.1-0.1c8.2,0,15.7,3.7,20.6,9.7c1.3,1.5,3,2.6,5,3.1
	c5,1.2,9.6,3.8,13.2,7.6c5,5.2,7.7,12.1,7.5,19.3l0,0.3c-0.1,2.7,1.4,5.1,3.7,6.4c2.5,1.5,4.8,3.3,6.8,5.6c4.9,5.6,7.2,13,6.7,20.4
	l-0.5,7.2c-0.4,5.6,1.9,10.9,5.9,14.8c5.9,5.6,9.1,13.8,8.2,22.4l-0.6,6c-0.6,5.8,1.7,11.5,5.9,15.5c6.3,5.9,9.6,14.6,8.3,23.7
	l-0.6,4c-0.9,6,1.4,11.9,5.8,16c1.6,1.5,3,3.1,4.2,5c4,6,5.4,13.2,4,20.3l-0.3,1.4c-1.3,6.3,0.9,12.8,5.6,17.2c2,1.9,3.8,4,5.2,6.5
	c3.6,6.3,4.6,13.6,2.7,20.6l-0.8,3c0,0-0.2,0.7,0.5,0.9C316.1,266.1,316.3,265.4,316.3,265.4z"/>
<polygon class="st1" points="261.1,366.4 265.2,356.1 265.2,335.4 249.6,340.1 257.4,314.8 254.1,301.4 238.9,307 245.4,287.6 
	244.2,268.1 227.8,274.3 235.6,256.2 234.1,234.8 217.5,243 224.7,221.8 222.4,202.1 208.6,210.7 214.4,188.3 212.1,168.7 
	197.5,177 203.5,151.9 192.4,105 180.7,119.6 156.6,107.4 164.4,130.9 153.9,132.7 164,151.2 180.7,166.3 164,167.1 173.7,185.4 
	190.7,199 172.8,201 185,219.3 200,231.1 182.9,233.7 194,251.2 208.4,263.1 194.2,267.5 203.3,282.7 219.7,296.9 203.7,299.1 
	214.2,316.4 230.6,327.5 214.4,331.9 222.6,346.9 241.1,359.4 246.9,371.8 "/>
<path class="st1" d="M305.5,462.3c-3.4,9.9-12.8,14.2-21.4,11.2c-8.7-3-13.4-12.1-9.9-22c36.7-106,124.4-336.7,133.1-333.7
	S342.2,356.3,305.5,462.3z"/>
<path class="st12" d="M170.3,27.8c-0.7-2-2.9-3.1-4.9-2.5c-2,0.7-3.1,2.9-2.5,4.9l22.6,68.2c0.8,2.3,0.2,4.8-1.4,6.6
	c-1,1.2-2.2,2.8-3.3,5c-1,2-3.5,2.7-5.3,1.4c-2.4-1.7-5.1-3.3-7.8-4.7c-3.1-1.6-5.5-2.5-7.4-3c-2.1-0.6-3.8-2.1-4.6-4.1l-22.5-60.7
	c-0.7-2-3-3-5-2.3c-2,0.7-3,3-2.3,5l27,72.9c0,0.1,0.1,0.1,0.1,0.2c0.5,1.4,1,2.9,1.8,4.7c0.7,1.6,1.6,3.5,2.7,5.4
	c0.8,1.4-0.2,3.1-1.8,3.3l-0.1,0c-0.9,0.1-1.7-0.3-2.1-1.1L112,57.7c-1.1-1.8-3.5-2.4-5.3-1.3c-1.8,1.1-2.4,3.5-1.3,5.3l47.7,79.2
	c0,0,0.1,0.1,0.1,0.1c0.8,1.5,1.9,3.2,3.2,5.1c3.3,4.8,8.6,11.3,13.5,14.8c1,0.7,2,1.3,3,1.8c-2.5-0.5-4.5-0.6-6-0.6
	c-2.6,0-5.1-1.3-6.6-3.5l-57.7-82c-1.2-1.8-3.7-2.2-5.4-0.9c-1.8,1.2-2.2,3.7-0.9,5.4l66.4,94.4c0,0,0,0,0,0c0.9,1.4,2,3.1,3.4,4.9
	c3.5,4.7,9.1,10.8,14.2,14.2c0.9,0.6,1.9,1.1,2.8,1.5c-3-0.5-5.3-0.7-7.1-0.6c-2.7,0.1-5.2-1-6.9-3.1l-71.8-90.2
	c-1.3-1.7-3.8-2-5.5-0.6c-1.7,1.3-2,3.8-0.6,5.5l81.1,102c0,0,0,0,0,0c0.9,1.4,2.1,3,3.5,4.7c3.7,4.6,9.4,10.6,14.5,13.8
	c1,0.6,2,1.1,3,1.5c-3.4-0.6-5.9-0.7-7.7-0.6c-2.6,0.2-5.1-0.8-6.8-2.8L111,146.3c-1.4-1.6-3.8-2-5.5-0.7c-1.8,1.4-2,3.9-0.6,5.6
	l77.6,90.8c0.9,1.4,2.1,2.9,3.5,4.7c3.7,4.6,9.4,10.6,14.5,13.8c0.7,0.5,1.5,0.8,2.2,1.2c-3.3-0.5-5.7-0.6-7.5-0.4
	c-2.6,0.3-5.1-0.7-6.9-2.5l-64-68.7c-1.5-1.6-4.1-1.7-5.6-0.1c-1.5,1.5-1.3,4,0.1,5.5l73.9,79.4c0.9,1.4,2,2.9,3.5,4.7
	c3.7,4.6,9.4,10.6,14.5,13.8c1,0.6,2,1.1,3,1.5c-4.2-0.7-7-0.8-9-0.5c-2.5,0.4-5-0.5-6.8-2.2l-59.7-57.8c-1.5-1.5-4-1.5-5.5,0.1
	c-1.5,1.5-1.5,4,0.1,5.5l70.1,67.9c0.9,1.4,2.1,3,3.5,4.7c3.7,4.6,9.4,10.6,14.5,13.8c0.5,0.3,1.1,0.6,1.6,0.9
	c-3.9-0.6-6.5-0.5-8.3-0.2c-2.5,0.5-5.1-0.1-7.1-1.8l-55.9-47.7c-1.6-1.4-4.1-1.2-5.5,0.4c-1.4,1.6-1.2,4.1,0.4,5.5l66.9,57
	c0.9,1.3,2,2.8,3.3,4.5c3.7,4.6,9.4,10.6,14.5,13.8c0.3,0.2,0.6,0.4,0.9,0.5c3.6,2,6.4,5.2,8,9c0.3,0.8,0.7,1.5,1.1,2.2
	c1.7,2.6,3.2,5.4,4.1,8.5l21.1,68.7c1.3,4.3,2.5,8.7,3.1,13.2c0.3,2,0.8,3.9,1.7,5.8c2.3,4.9,6.5,8.6,11.7,10.4
	c2.3,0.8,4.6,1.2,6.9,1.2c3,0,6-0.7,8.8-2.1c4.9-2.5,8.7-7,10.7-12.6c19.1-55.1,47-141.9,67.9-211c11.7-38.6,21-71,26.8-93.6
	c3.3-12.6,5.5-22.4,6.8-29.2c1.5-8.2,2.2-14.2-2.2-15.7c-4.4-1.5-7.5,3.6-11.4,11c-3.2,6.1-7.5,15.2-12.7,27.1
	c-9.4,21.4-22.1,52.6-36.8,90.2c-21.5,54.9-46.6,122-65.4,174.7c-1.6,4.4-7.8,4.2-9.1-0.2l-10.7-34.9c-1.4-4.4-0.5-9.1,2-13
	c0.5-0.8,1-1.7,1.4-2.7c2.4-5.5,3.7-13.8,4.2-19.6c0.2-2.2,0.2-4,0.2-5.6l22.9-84.8c0.5-1.8-0.3-3.8-2-4.6c-2.3-1.1-4.9,0.1-5.5,2.4
	l-19.2,71c-0.7,2.5-2.4,4.5-4.8,5.4c-1.7,0.7-4.1,2.2-7.2,5.2c0.4-0.7,0.8-1.5,1.2-2.3c2.4-5.5,3.7-13.8,4.2-19.6
	c0.2-2.2,0.2-4.1,0.2-5.7l19.5-96.2c0.5-2.2-1.1-4.4-3.4-4.6c-2-0.2-3.8,1.3-4.2,3.3l-16.6,81.7c-0.5,2.5-2.2,4.6-4.4,5.7
	c-1.7,0.8-3.8,2.3-6.6,4.9c0.4-0.7,0.8-1.5,1.2-2.2c2.4-5.5,3.7-13.8,4.2-19.6c0.2-2.3,0.2-4.3,0.2-6l16-107.1
	c0.3-2.1-1.1-4.1-3.3-4.4c-2.1-0.3-4.1,1.1-4.4,3.3l-13.9,92.7c-0.4,2.5-1.9,4.7-4.1,5.9c-1.7,0.9-3.8,2.5-6.6,5.2
	c0.6-0.9,1.2-1.9,1.6-2.9c2.4-5.5,3.7-13.8,4.2-19.6c0.2-2.3,0.2-4.2,0.2-5.9l12.7-118.7c0.2-2.1-1.3-4-3.5-4.3
	c-2.1-0.2-4,1.3-4.3,3.5l-11.1,103.9c-0.3,2.6-1.8,4.9-4,6.2c-1.6,0.9-3.6,2.5-6.1,4.9c0.6-0.9,1.2-1.9,1.6-2.9
	c2.4-5.5,3.7-13.8,4.2-19.6c0.2-2.3,0.2-4.2,0.2-5.9c0,0,0,0,0,0l9.2-130c0.2-2.1-1.5-4-3.6-4.1c-2.1-0.2-4,1.5-4.1,3.6l-8.2,115
	c-0.2,2.6-1.6,5-3.9,6.4c-1.6,1-3.5,2.5-5.8,4.8c0.7-1,1.3-2.1,1.8-3.2c2.3-5.6,3.5-13.8,3.8-19.7c0.1-2.3,0.2-4.3,0.1-6L221.3,49
	c0-2-1.2-3.9-3.1-4.6c-0.4-0.2-0.6-0.2-0.7-0.2c-2.1,0-3.8,1.7-3.9,3.8l-2.4,112.6c-0.1,2.6-1.4,5.1-3.5,6.6
	c-1.3,0.9-2.9,2.1-4.7,3.9c0.5-0.9,1-1.9,1.3-2.9c2.1-5.7,2.9-14,2.9-19.8c0-2.3,0-4.3-0.2-6c0,0,0-0.1,0-0.1l-5.2-106.3
	c-0.1-2.1-1.9-3.8-4.1-3.7c-2.1,0.1-3.8,1.9-3.7,4.1l3.2,65.9c0.1,1.4-1.8,1.7-2.3,0.4L170.3,27.8z M236.7,278.6
	c1.9-2.1,5.4-0.5,5.2,2.3c-0.5,5.6-1.6,12.3-3.5,16.7c-0.8,1.9-2.1,3.4-3.6,4.3c-2.4-1.4-5.3-2.7-8.5-3.8c-0.3-1.7-0.1-3.7,0.7-5.5
	C229,287.9,233,282.6,236.7,278.6z M226.5,245.6c1.9-2.1,5.4-0.5,5.2,2.3c-0.5,5.6-1.6,12.3-3.5,16.7c-0.8,1.9-2.2,3.4-3.7,4.3
	c-2.4-1.4-5.3-2.7-8.4-3.8c-0.3-1.7-0.1-3.7,0.7-5.5C218.8,254.9,222.8,249.6,226.5,245.6z M216.2,212.7c1.9-2.1,5.4-0.5,5.2,2.3
	c-0.5,5.6-1.6,12.3-3.5,16.7c-0.9,2-2.2,3.5-3.8,4.4c-2.3-1.3-5.2-2.6-8.3-3.7c-0.4-1.8-0.2-3.8,0.7-5.7
	C208.6,221.9,212.6,216.7,216.2,212.7z M205.6,179.7c1.9-2.1,5.4-0.6,5.2,2.2c-0.4,5.6-1.4,12.3-3.2,16.7c-0.8,1.9-2.1,3.5-3.7,4.4
	c-2.4-1.4-5.3-2.6-8.4-3.8c-0.3-1.7-0.1-3.6,0.6-5.4v0C198.1,189.1,202,183.8,205.6,179.7z M199.5,148.7c-0.1,5.6-0.8,12.3-2.4,16.8
	c-0.7,1.9-1.9,3.4-3.3,4.5c-2.5-1.5-5.6-2.9-9-4.1c-0.2-1.5,0-3.1,0.5-4.6c1.8-4.9,5.4-10.3,8.8-14.6
	C196,144.6,199.5,145.9,199.5,148.7z M181.6,134.1L181.6,134.1c0.4-5.2,2.4-11.4,4.6-16.4c1.1-2.6,4.9-2.3,5.6,0.5
	c1.5,5.7,2.6,12.7,2.1,17.5c0,0,0,0,0,0c-1.4,1.3-3,2.9-4.9,5.1c-0.8-0.9-1.7-1.7-2.7-2.5c-1.4-1-3-2-4.7-2.9
	C181.6,134.9,181.6,134.5,181.6,134.1z M176.3,122.1C176.3,122.1,176.3,122.1,176.3,122.1c-1,3-1.7,6-2.1,8.6
	c-1.6-0.1-3.3-0.9-4.7-2.3c-3.8-4-7.6-11.9-9.2-16.6C164.8,113.5,172.2,117.7,176.3,122.1z M163,142c-1.6-2.3,0.6-5.4,3.3-4.6
	c5.2,1.6,11.3,4.1,15.4,7.2c1,0.7,1.9,1.6,2.5,2.6c-2.2,3.2-4,6.4-5.3,9.3c-1.6-0.2-3.2-0.8-4.6-1.9
	C170.5,151.8,166.2,146.6,163,142z M172.4,175.9c-1.7-2.2,0.4-5.4,3.1-4.7c5.3,1.3,11.5,3.6,15.8,6.4c1.4,0.9,2.5,2.2,3.2,3.5
	c-2.1,2.9-3.8,5.8-5,8.5c-1.7,0-3.5-0.6-5.1-1.7C180.4,185.4,175.8,180.4,172.4,175.9z M182.1,209.2c-1.8-2.2,0.2-5.4,3-4.8
	c5.3,1.2,11.5,3.3,15.9,6c1.7,1.1,3,2.5,3.7,4.1c-2,2.8-3.6,5.5-4.8,8c-1.8,0.1-3.7-0.5-5.4-1.5
	C190.4,218.4,185.7,213.6,182.1,209.2z M192.4,242.2c-1.8-2.2,0.2-5.4,3-4.8c5.3,1.2,11.5,3.3,15.9,6c1.7,1,2.9,2.5,3.7,4.1
	c-2,2.8-3.6,5.5-4.8,8c-1.8,0.1-3.7-0.4-5.4-1.5C200.6,251.4,195.9,246.5,192.4,242.2z M202.5,274.9c-1.8-2.2,0.2-5.4,3-4.8
	c5.3,1.2,11.5,3.3,15.9,6c1.8,1.1,3,2.6,3.7,4.3c-1.9,2.7-3.6,5.3-4.8,7.8c-1.9,0.1-3.8-0.4-5.6-1.5
	C210.8,284.2,206.1,279.3,202.5,274.9z M212.8,307.9c-1.8-2.2,0.2-5.4,3-4.8c5.3,1.2,11.5,3.3,15.9,6c1.7,1.1,3,2.5,3.7,4.1
	c-2,2.8-3.6,5.5-4.8,8c-1.8,0.1-3.7-0.5-5.4-1.5C221,317.1,216.3,312.3,212.8,307.9z M240.8,353.8c-1.9,0.1-3.8-0.4-5.6-1.5
	c-4.1-2.5-8.8-7.4-12.3-11.7c-1.8-2.2,0.2-5.4,3-4.8c5.3,1.2,11.5,3.3,15.9,6c1.7,1.1,3,2.6,3.8,4.3
	C243.6,348.7,241.9,351.3,240.8,353.8z M245,334.6c-2.4-1.4-5.4-2.7-8.6-3.9c-0.3-1.7,0-3.5,0.7-5.3v0c2.1-4.7,6.1-10,9.7-14
	c1.9-2.1,5.4-0.5,5.2,2.3c-0.5,5.6-1.6,12.3-3.5,16.7C247.7,332.1,246.5,333.6,245,334.6z M249.7,368.1c-3.1-1.3-4.2-5.9-2.4-10
	c2.1-4.7,6.1-10,9.7-14c1.9-2.1,5.4-0.5,5.2,2.3c-0.5,5.6-1.6,12.3-3.5,16.7C256.9,367.2,252.8,369.5,249.7,368.1z M367.5,257.2
	c-20.8,68.5-47.2,150.4-65.7,203.8c-1.3,3.8-3.7,6.6-6.8,8.2c-3,1.5-6.4,1.7-9.7,0.6c-3.3-1.1-5.8-3.4-7.3-6.4
	c-1.5-3.2-1.6-6.9-0.3-10.7c18.5-53.4,48.4-134.1,74.3-200.8c19.6-50.4,33.6-84,42.8-104.5c0.9-2.1,4-1,3.5,1.2
	C393.1,170.4,383.3,205.4,367.5,257.2z"/>
<circle class="st25" cx="253.3" cy="352.1" r="3.9"/>
<circle class="st25" cx="243.7" cy="318.7" r="3.9"/>
<circle class="st25" cx="233" cy="285.2" r="3.9"/>
<circle class="st25" cx="222.7" cy="252.8" r="3.9"/>
<circle class="st25" cx="212.8" cy="219.1" r="3.9"/>
<circle class="st25" cx="202.4" cy="185.2" r="3.9"/>
<circle class="st25" cx="192.4" cy="151" r="3.9"/>
<circle class="st25" cx="185.8" cy="125.6" r="3.9"/>
<circle class="st25" cx="233.7" cy="340.5" r="3.9"/>
<circle class="st25" cx="224.5" cy="307.8" r="3.9"/>
<circle class="st25" cx="214.2" cy="274.1" r="3.9"/>
<circle class="st25" cx="204.1" cy="242" r="3.9"/>
<circle class="st25" cx="193" cy="208.1" r="3.9"/>
<circle class="st25" cx="183.5" cy="175.4" r="3.9"/>
<circle class="st25" cx="178.1" cy="144.5" r="3.9"/>
<circle class="st25" cx="162.2" cy="113.9" r="3.9"/>
<line class="st54" x1="295.1" y1="404.7" x2="345" y2="271"/>
<circle class="st25" cx="350.4" cy="256.6" r="3.9"/>
</svg>
