<?xml version="1.0" encoding="utf-8"?>
<!-- Generator: Adobe Illustrator 20.0.0, SVG Export Plug-In . SVG Version: 6.00 Build 0)  -->
<svg version="1.1" id="Layer_1" xmlns="http://www.w3.org/2000/svg" xmlns:xlink="http://www.w3.org/1999/xlink" x="0px" y="0px"
	 viewBox="0 0 500 500" style="enable-background:new 0 0 500 500;" xml:space="preserve">
<style type="text/css">
	.st0{fill:#457F4A;}
	.st1{fill:#344B57;}
	.st2{fill:#75B15D;stroke:#344B57;stroke-width:3;stroke-miterlimit:10;}
	.st3{fill:#BCE680;}
	.st4{fill:#F0FDC5;}
	.st5{fill:#1B5900;}
	.st6{fill:#ADE77A;stroke:#1B5900;stroke-width:6;stroke-miterlimit:10;}
	.st7{fill:#709638;}
	.st8{display:none;fill:#D1A982;}
	.st9{fill:#ECE8DB;}
	.st10{fill:#5B3A03;}
	.st11{fill:#719E7F;stroke:#667F40;stroke-width:3;stroke-linecap:round;stroke-linejoin:round;stroke-miterlimit:10;}
	.st12{fill:#719E7F;stroke:#667F40;stroke-linecap:round;stroke-linejoin:round;stroke-miterlimit:10;}
	.st13{fill:none;stroke:#667F40;stroke-width:3;stroke-linecap:round;stroke-miterlimit:10;}
	.st14{fill:#4D6261;}
	.st15{fill:#ECE8DB;stroke:#5B3A03;stroke-width:3;stroke-miterlimit:10;}
	.st16{fill:none;stroke:#F0FDC5;stroke-linecap:round;stroke-linejoin:round;stroke-miterlimit:10;}
	.st17{fill:#8DC70C;}
	.st18{fill:#ECFE78;}
	.st19{fill:#73953B;}
	.st20{fill:#3D710C;}
	.st21{fill:#73953B;stroke:#3D710C;stroke-width:3;stroke-linejoin:round;stroke-miterlimit:10;}
	.st22{fill:#EFE8D7;stroke:#DABB95;stroke-width:3;stroke-linejoin:round;stroke-miterlimit:10;}
	.st23{opacity:0.6;fill:none;stroke:#BF71B0;stroke-width:3;stroke-miterlimit:10;}
	.st24{opacity:0.4;fill:none;stroke:#BF71B0;stroke-width:3;stroke-miterlimit:10;}
	.st25{opacity:0.3;fill:none;stroke:#BF71B0;stroke-width:3;stroke-miterlimit:10;}
	.st26{opacity:0.2;fill:none;stroke:#BF71B0;stroke-width:3;stroke-miterlimit:10;}
	.st27{opacity:0.1;fill:none;stroke:#BF71B0;stroke-width:3;stroke-miterlimit:10;}
	.st28{fill:#77A45B;}
	.st29{fill:none;stroke:#FFFFFF;stroke-linecap:round;stroke-linejoin:round;stroke-miterlimit:10;}
	.st30{fill:#00FFFF;}
	.st31{fill:#E50F4F;}
	.st32{fill:#5A8700;}
	.st33{fill:#9D9F01;}
	.st34{fill:none;stroke:#BFBF04;stroke-linecap:round;stroke-linejoin:round;stroke-miterlimit:10;}
	.st35{fill:none;stroke:#CAD058;stroke-linecap:round;stroke-linejoin:round;stroke-miterlimit:10;}
	.st36{fill:#E21039;stroke:#930019;stroke-width:3;stroke-linejoin:round;stroke-miterlimit:10;}
	.st37{fill:#77A45B;stroke:#3D710C;stroke-linecap:round;stroke-linejoin:round;stroke-miterlimit:10;}
	.st38{fill:none;stroke:#77A45B;stroke-width:3;stroke-miterlimit:10;}
	.st39{opacity:0.5;fill:none;stroke:#FFFFFF;stroke-width:3;stroke-linejoin:round;stroke-miterlimit:10;}
	.st40{opacity:0.7;fill:none;stroke:#FFFFFF;stroke-width:3;stroke-linejoin:round;stroke-miterlimit:10;}
	.st41{opacity:0.9;fill:none;stroke:#FFFFFF;stroke-width:3;stroke-linejoin:round;stroke-miterlimit:10;}
	.st42{opacity:0.3;fill:none;stroke:#FFFFFF;stroke-width:3;stroke-linejoin:round;stroke-miterlimit:10;}
	.st43{opacity:0.2;fill:none;stroke:#FFFFFF;stroke-width:3;stroke-linejoin:round;stroke-miterlimit:10;}
	.st44{fill:#E21039;}
	.st45{fill:#930019;}
	.st46{fill:#F4E5E8;}
	.st47{fill:#DEB2BA;}
	.st48{fill:#C8818D;}
	.st49{fill:#B14D5F;}
	.st50{fill:#FFFFFF;}
	.st51{fill:#EFE8D7;}
	.st52{fill:#8C7662;}
	.st53{fill:#E50F4F;stroke:#930019;stroke-width:3;stroke-linejoin:round;stroke-miterlimit:10;}
	.st54{fill:none;stroke:#E87C94;stroke-width:3;stroke-linejoin:round;stroke-miterlimit:10;}
	.st55{fill:none;stroke:#E64872;stroke-width:3;stroke-linejoin:round;stroke-miterlimit:10;}
	.st56{fill:none;stroke:#EBB2B6;stroke-width:3;stroke-linejoin:round;stroke-miterlimit:10;}
	.st57{fill:none;stroke:#930019;stroke-width:3;stroke-linejoin:round;stroke-miterlimit:10;}
	.st58{fill:#E87C94;}
	.st59{fill:#E64872;}
	.st60{fill:#EBB2B6;}
	.st61{opacity:0.7;fill:none;stroke:#E50F4F;stroke-width:3;stroke-linejoin:round;stroke-miterlimit:10;}
	.st62{opacity:0.6;fill:none;stroke:#E50F4F;stroke-width:3;stroke-linejoin:round;stroke-miterlimit:10;}
	.st63{opacity:0.4;fill:none;stroke:#E50F4F;stroke-width:3;stroke-linejoin:round;stroke-miterlimit:10;}
	.st64{opacity:0.3;fill:none;stroke:#E50F4F;stroke-width:3;stroke-linejoin:round;stroke-miterlimit:10;}
	.st65{opacity:0.2;fill:none;stroke:#E50F4F;stroke-width:3;stroke-linejoin:round;stroke-miterlimit:10;}
	.st66{opacity:0.1;fill:none;stroke:#E50F4F;stroke-width:3;stroke-linejoin:round;stroke-miterlimit:10;}
	.st67{fill:none;stroke:#DABB95;stroke-width:3;stroke-linejoin:round;stroke-miterlimit:10;}
	.st68{fill:#77A45B;stroke:#3D710C;stroke-width:0.9521;stroke-linecap:round;stroke-linejoin:round;stroke-miterlimit:10;}
	.st69{fill:#DABB95;}
	.st70{fill:#E76886;}
	.st71{fill:#E87D94;}
	.st72{fill:#E992A2;}
	.st73{fill:#EBA7AF;}
	.st74{fill:#ECBDBD;}
	.st75{fill:#EDD2CA;}
	.st76{opacity:0.6;fill:#BF71B0;}
	.st77{opacity:0.5;fill:#BF71B0;}
	.st78{opacity:0.4;fill:#BF71B0;}
	.st79{opacity:0.3;fill:#BF71B0;}
	.st80{opacity:0.2;fill:#BF71B0;}
	.st81{fill:#FCD24F;stroke:#BA8822;stroke-width:3;stroke-linejoin:round;stroke-miterlimit:10;}
	.st82{opacity:0.9;fill:none;stroke:#732429;stroke-width:3;stroke-miterlimit:10;}
	.st83{opacity:0.8;fill:none;stroke:#732429;stroke-width:3;stroke-miterlimit:10;}
	.st84{opacity:0.7;fill:none;stroke:#732429;stroke-width:3;stroke-miterlimit:10;}
	.st85{opacity:0.6;fill:none;stroke:#732429;stroke-width:3;stroke-miterlimit:10;}
	.st86{opacity:0.5;fill:none;stroke:#732429;stroke-width:3;stroke-miterlimit:10;}
	.st87{opacity:0.4;fill:none;stroke:#732429;stroke-width:3;stroke-miterlimit:10;}
	.st88{fill:none;stroke:#BA8822;stroke-width:3;stroke-linejoin:round;stroke-miterlimit:10;}
	.st89{fill:#FCD24F;}
	.st90{fill:#BA8822;}
	.st91{fill:#80352F;}
	.st92{fill:#8D4734;}
	.st93{fill:#9B5838;}
	.st94{fill:#A96A3D;}
	.st95{fill:#B77A42;}
	.st96{fill:#C48B47;}
	.st97{fill:#5B774B;}
	.st98{fill:none;stroke:#ECFE78;stroke-linecap:round;stroke-linejoin:round;stroke-miterlimit:10;}
	.st99{fill:none;stroke:#5B774B;stroke-miterlimit:10;}
	.st100{fill:none;stroke:#ECFE78;stroke-linecap:round;stroke-miterlimit:10;}
	.st101{fill:none;stroke:#5B774B;stroke-linejoin:round;stroke-miterlimit:10;}
	.st102{fill:none;stroke:#89A037;stroke-linecap:round;stroke-linejoin:round;stroke-miterlimit:10;}
	.st103{fill:none;stroke:#89A037;stroke-width:3;stroke-linecap:round;stroke-linejoin:round;stroke-miterlimit:10;}
	.st104{fill:none;stroke:#89A037;stroke-width:3.3343;stroke-linecap:round;stroke-linejoin:round;stroke-miterlimit:10;}
	.st105{fill:#839958;}
	.st106{fill:#AA2F66;}
	.st107{fill:#D8CBC5;}
	.st108{fill:#662128;}
	.st109{fill:#BCE680;stroke:#5B774B;stroke-width:3.1491;stroke-miterlimit:10;}
	.st110{fill:#ECE8DB;stroke:#5B3A03;stroke-miterlimit:10;}
	.st111{fill:none;stroke:#00FF00;stroke-miterlimit:10;}
	.st112{fill:none;stroke:#00FF00;stroke-width:1.0757;stroke-miterlimit:10;}
	.st113{clip-path:url(#SVGID_2_);}
	.st114{fill:none;stroke:#000000;stroke-miterlimit:10;}
	.st115{fill:none;stroke:#000000;stroke-width:1.16;stroke-miterlimit:10;}
	.st116{fill:#7AA66D;}
	.st117{fill:#8BC133;}
	.st118{fill:none;stroke:#000000;stroke-width:0.9135;stroke-miterlimit:10;}
	.st119{fill:none;stroke:#000000;stroke-width:5.9645;stroke-miterlimit:10;}
	.st120{fill:none;stroke:#000000;stroke-width:1.9086;stroke-linecap:round;stroke-linejoin:round;stroke-miterlimit:10;}
	.st121{fill:none;stroke:#4D6261;stroke-width:0.9577;stroke-linecap:round;stroke-linejoin:round;stroke-miterlimit:10;}
	.st122{fill:#7AA66D;stroke:#4D6261;stroke-width:0.9577;stroke-miterlimit:10;}
	.st123{fill:none;stroke:#4D6261;stroke-width:0.9577;stroke-miterlimit:10;}
	.st124{fill:#D2DE8F;stroke:#667F40;stroke-width:3;stroke-miterlimit:10;}
	.st125{fill:none;stroke:#FAFAEE;stroke-linecap:round;stroke-miterlimit:10;}
	.st126{fill:#D2DE8F;}
	.st127{fill:none;stroke:#667F40;stroke-width:3;stroke-miterlimit:10;}
	.st128{fill:#77A578;}
	.st129{fill:#719E7F;}
	.st130{fill:#FAFAEE;}
	.st131{fill:#667F40;}
	.st132{fill:#ECE8DB;stroke:#5B3A03;stroke-width:0.9644;stroke-miterlimit:10;}
	.st133{fill:#7AA66D;stroke:#4D6261;stroke-width:3.6;stroke-linecap:round;stroke-linejoin:round;stroke-miterlimit:10;}
	.st134{fill:none;stroke:#D2DE8F;stroke-miterlimit:10;}
	.st135{fill:none;stroke:#4D6261;stroke-width:3.6;stroke-linecap:round;stroke-linejoin:round;stroke-miterlimit:10;}
	.st136{fill:#ECE8DB;stroke:#5B3A03;stroke-linecap:round;stroke-linejoin:round;stroke-miterlimit:10;}
	.st137{fill:#FAD673;}
	.st138{fill:#CE731F;}
	.st139{fill:#D15CD4;}
	.st140{fill:#701975;}
	.st141{fill:#009245;stroke:#006837;stroke-width:3;stroke-miterlimit:10;}
	.st142{fill:#009245;stroke:#006837;stroke-width:3;stroke-linecap:round;stroke-linejoin:round;stroke-miterlimit:10;}
	.st143{fill:none;stroke:#B8CC69;stroke-width:3;stroke-miterlimit:10;}
	.st144{fill:#4E6624;stroke:#314217;stroke-width:3;stroke-miterlimit:10;}
	.st145{fill:none;stroke:#314217;stroke-miterlimit:10;}
	.st146{fill:#4E6624;}
	.st147{fill:#709638;stroke:#3B7000;stroke-width:3;stroke-linecap:round;stroke-linejoin:round;stroke-miterlimit:10;}
	.st148{fill:#709638;stroke:#3B7000;stroke-linecap:round;stroke-linejoin:round;stroke-miterlimit:10;}
	.st149{fill:#92C057;}
	.st150{fill:#3B7000;}
	.st151{fill:#325900;}
	.st152{fill:#2A784B;stroke:#1F4130;stroke-width:3;stroke-miterlimit:10;}
	.st153{fill:none;stroke:#1F4130;stroke-linecap:round;stroke-linejoin:round;stroke-miterlimit:10;}
	.st154{fill:#2A784B;stroke:#1F4130;stroke-miterlimit:10;}
	.st155{fill:#D7D8DA;stroke:#1F4130;stroke-linecap:round;stroke-linejoin:round;stroke-miterlimit:10;}
	.st156{fill:none;stroke:#1F4130;stroke-width:3;stroke-miterlimit:10;}
	.st157{fill:#2A784B;}
	.st158{fill:#1F4130;}
	.st159{fill:#D7D8DA;}
	.st160{fill:#499623;}
	.st161{fill:none;stroke:#499623;stroke-miterlimit:10;}
	.st162{fill:#4C9D29;stroke:#1B5900;stroke-miterlimit:10;}
	.st163{fill:none;stroke:#ADE77A;stroke-width:2;stroke-linecap:round;stroke-miterlimit:10;}
	.st164{fill:none;stroke:#FFFFFF;stroke-linecap:round;stroke-miterlimit:10;}
	.st165{fill:none;stroke:#ADE77A;stroke-linecap:round;stroke-miterlimit:10;}
	.st166{fill:#4C9D29;}
	.st167{fill:none;stroke:#FFFFFF;stroke-width:7.8254;stroke-linecap:round;stroke-miterlimit:10;}
	.st168{fill:#ADE77A;}
	.st169{fill:#4F7F51;stroke:#344B57;stroke-miterlimit:10;}
	.st170{fill:#649160;stroke:#344B57;stroke-miterlimit:10;}
	.st171{fill:#78A36F;stroke:#344B57;stroke-miterlimit:10;}
	.st172{fill:#3A6D40;}
	.st173{opacity:0.75;fill:#344B57;stroke:#8CB77C;stroke-width:4;stroke-miterlimit:10;}
	.st174{opacity:0.5;fill:#344B57;stroke:#8CB77C;stroke-width:4;stroke-miterlimit:10;}
	.st175{opacity:0.25;fill:#344B57;stroke:#8CB77C;stroke-width:4;stroke-miterlimit:10;}
	.st176{opacity:0.8;fill:none;stroke:#C5E2D6;stroke-linecap:round;stroke-miterlimit:10;}
	.st177{opacity:0.8;fill:none;stroke:#C5E2D6;stroke-miterlimit:10;}
	.st178{fill:#8CB77C;stroke:#344B57;stroke-miterlimit:10;}
	.st179{opacity:0.8;fill:#C5E2D6;}
	.st180{fill:#4F7F51;}
	.st181{fill:#649160;}
	.st182{fill:#78A36F;}
	.st183{fill:#8CB77C;}
	.st184{fill:#C0DECD;}
	.st185{fill:none;stroke:#C5E2D6;stroke-width:7.8769;stroke-linecap:round;stroke-miterlimit:10;}
	.st186{fill:#AFCEB8;}
	.st187{fill:#9FC1A8;}
	.st188{fill:#77A47F;}
</style>
<rect x="-3593.9" y="-3183.5" class="st8" width="5227.9" height="4725.2"/>
<path class="st0" d="M250.5,485c-56.7,0-107.5-16.9-143-47.7c-1.4-1.2-2.4-2.7-3.1-4.3l-5.7-13.4c-0.7-1.5-1-3.2-0.9-4.9l0-0.1
	c0-1.4-0.4-2.7-1.3-3.7C56.3,361.4,37.6,306,40.8,246.1c2.6-47.5,18.3-83,24.2-96.4c4.6-10.5,7-22.7,7.5-38.3
	c0.6-17.9,10.2-33.8,25.7-42.6c7-4,14.9-6.2,22.9-6.6c9-0.4,16.3-4.1,19.5-10c5.3-9.7,13.5-17.2,23.6-21.7c6.6-3,13.5-4.5,20.7-4.5
	c6.6,0,13,1.3,19.1,3.8c1.8,0.7,3.8,1.1,5.8,1.1c4.7,0,9.7-2,14.1-5.5c9-7.4,20.4-11.4,32.1-11.4c11.6,0,23,4,32,11.4
	c4.4,3.6,9.3,5.5,14.1,5.5c2,0,4-0.4,5.8-1.1c6.1-2.5,12.5-3.7,19-3.7c7.2,0,14.1,1.5,20.7,4.5c10.1,4.5,18.2,12.1,23.6,21.7
	c3.2,5.9,10.5,9.6,19.5,10c8,0.3,15.9,2.6,22.9,6.6c15.3,8.7,24.9,24.5,25.7,42.1c0.5,12.9,1.9,27.9,7.5,41.5
	c11.4,27.6,21.1,72.7,2.9,131.2c0.7,7.9,1.1,14.7,1.1,21.1c0,55.8-20.5,102.3-59.4,134.7C355.8,468.8,305.9,485,250.5,485z"/>
<path class="st180" d="M201.1,287.8h164.1V146.2c-68-68.1-164.1-25.9-164.1-25.9V287.8z"/>
<path class="st181" d="M270.2,265c-13.8-12-15.3-32.9-3.3-46.8c2.2-2.5,4.7-4.6,7.4-6.3c6.6-4.1,11.4-10.7,12.5-18.4
	c1.3-9.2,6.3-17.8,14.7-23.2c4.2-2.7,8.8-4.3,13.4-4.9c7.8-1,15-5.8,18.5-12.9c2.8-5.6,7.1-10.4,12.9-13.7
	c15.9-9.2,36.1-3.7,45.3,12.2c0,0,37.3,56.8,33.5,123.5"/>
<path class="st182" d="M304.9,227.9c2.8-5.9,3.8-12.7,2.5-19.6c-1.8-10-8.1-18.1-16.4-22.7c-6.3-3.5-10.4-9.9-9.9-17
	c0.5-7.3-1.4-14.8-6.1-21.2c-6.3-8.6-15.9-13.2-25.8-13.4c-6.5-0.1-13-2.9-16-8.7c-5.1-9.9-15.1-16.9-27-17.6
	c-10-0.6-19.3,3.4-25.6,10.2c-4.7,5-11.7,7.3-18.3,5.3c-10-3-21.4-1.1-30.1,6c-7,5.8-11.1,13.8-11.9,22.2
	c-1.6,16.7-7.2,32.9-14.8,47.9C94,221.8,80.4,256.4,78,299.9c-5.2,98.4,43.8,163.9,167.5,171.6"/>
<path class="st183" d="M438.8,304.7c0-12.4-1.1-25-3.2-37.5c-34.6-31.9-80.3-51.4-130.4-51.4c-108.1,0-195.8,90.5-195.8,202.1
	c0,1.8,0.1,3.6,0.1,5.4c34.5,32.9,84.8,49.9,140.9,49.9C354.5,473.2,438.8,415,438.8,304.7z"/>
<g>
	<path class="st184" d="M380.5,321.5c-1.2,0-2.4-0.6-3.2-1.6c-1.3-1.8-0.9-4.2,0.8-5.5c32.1-23.6,42.3-54,42.4-54.3
		c0.7-2.1,2.9-3.2,5-2.5c2.1,0.7,3.2,2.9,2.5,5c-0.4,1.3-11,33.1-45.3,58.2C382.1,321.2,381.3,321.5,380.5,321.5z"/>
	<path class="st184" d="M363.9,225.3c-2.2,0-4.2-0.5-5.9-1.2c-0.2,0.3-0.3,0.7-0.4,1c-0.1,0.3-6.1,26.9-26.3,49.9
		c-1.4,1.6-1.3,4.1,0.4,5.6c0.7,0.7,1.7,1,2.6,1c1.1,0,2.2-0.5,3-1.3c21.6-24.6,27.8-52.2,28.1-53.4c0.1-0.5,0.1-1.1,0-1.6
		C364.8,225.3,364.4,225.3,363.9,225.3z"/>
	<path class="st184" d="M274.7,220.1c-0.7,0-1.3,0-1.9-0.1c0.5,4.6,2.6,22.9,2.7,38.5c0,2.2,1.8,3.9,3.9,3.9h0c2.2,0,3.9-1.8,3.9-4
		c-0.1-16.4-2.3-35.2-2.8-39.6C278.9,219.6,276.9,220.1,274.7,220.1z"/>
	<circle class="st184" cx="336.9" cy="411.2" r="3.9"/>
	<circle class="st184" cx="321.5" cy="350.7" r="3.9"/>
	<circle class="st184" cx="247.7" cy="288.8" r="3.9"/>
	<circle class="st184" cx="221.3" cy="330.2" r="3.9"/>
	<circle class="st184" cx="292" cy="383.2" r="3.9"/>
	<circle class="st184" cx="253.5" cy="433.3" r="3.9"/>
	<circle class="st184" cx="322" cy="293.3" r="3.9"/>
	<path class="st184" d="M209.4,381.6c-55,4.8-93.2-14.2-93.6-14.4c-0.2-0.1-0.5-0.2-0.8-0.3c0.5,2.8,0.2,5.7-0.9,8.2
		c7.5,3.5,36.1,15.2,77.1,15.2c6,0,12.3-0.3,18.8-0.8c2.2-0.2,3.8-2.1,3.6-4.3C213.5,383.1,211.6,381.5,209.4,381.6z"/>
	<path class="st184" d="M193.2,321.2c-20.6-1.5-42.8-13.2-48.8-16.5c-0.6,2.6-2,5-4,6.8c6.3,3.6,29.7,16,52.2,17.6
		c0.1,0,0.2,0,0.3,0c2,0,3.8-1.6,3.9-3.7C197,323.2,195.4,321.3,193.2,321.2z"/>
	<path class="st184" d="M219.8,270.4c-10.2-5.1-22-16.8-25.1-19.9c-1.1,2.4-3,4.4-5.5,5.6c3.6,3.7,15.8,15.7,27,21.3
		c0.6,0.3,1.2,0.4,1.8,0.4c1.4,0,2.8-0.8,3.5-2.2C222.5,273.7,221.8,271.4,219.8,270.4z"/>
	<path class="st184" d="M440.3,301.1c-1.7-0.7-3.7,0-4.8,1.5c-34.3,50.5-89.5,75.5-110.4,83.6c-4,1.5-8.5-0.6-9.8-4.8
		c-3-9.5-6.2-18.5-9.6-27c-1.8-4.6-0.1-9.8,4-12.4c21.4-13.8,68.3-48.1,90.6-97.1c0.8-1.7,0.3-3.8-1.2-4.9c-2.1-1.5-4.9-0.7-5.9,1.5
		c-21.6,47.6-69,81.7-89,94.6c-2.6,1.6-6,0.6-7.3-2.1c-4.1-8.8-8.2-16.9-12.3-24.4c-1.3-2.3-0.8-5.1,1-7
		c33.6-33.1,46-79.6,46.6-81.6c0.6-2.1-0.7-4.3-2.8-4.8c-2.1-0.5-4.3,0.7-4.8,2.8c-0.1,0.5-11.9,44.5-42.6,76.1
		c-1.8,1.9-4.9,1.5-6.3-0.7c0,0,0,0,0,0c-24.7-40.5-47.6-62.1-48.6-63l-5.4,5.8c0.2,0.2,23.1,21.7,47.2,61.3c0,0,0,0,0,0
		c0.7,1.2-0.1,2.7-1.4,2.8c-20,1.7-65.9,2.4-105.2-20.5c-1.6-0.9-3.7-0.7-5,0.7c-1.7,1.9-1.2,4.8,0.9,6.1
		C190,306,224.9,310,249.1,310c9.1,0,16.6-0.6,21.9-1.1c2.4-0.3,4.6,0.9,5.8,3c4.2,7.6,8.4,15.8,12.6,24.8c1.4,2.9-0.4,6.4-3.5,7
		c-23.8,4.9-87.9,13.9-157-11.5c-0.2,2.7-1.2,5.3-2.8,7.4c38.1,14,74.4,17.7,102.1,17.7c6.1,0,11.7-0.2,16.9-0.5
		c18.2-1,32.6-3.4,41.7-5.2c4.9-1,9.8,1.7,11.7,6.4c3.4,8.5,6.6,17.5,9.5,27c1.2,3.9-0.9,8-4.7,9.3c-28.4,9.6-101.4,28.9-191.9,10.5
		c0.4,2.6,0.1,5.4-0.9,7.8c27.9,5.6,54.1,7.7,77.6,7.7c28.5,0,52.9-3,71.6-6.5c20.2-3.7,35.7-8.3,45.9-11.8c3.7-1.3,7.7,0.9,8.6,4.7
		c1.4,5.4,2.6,10.9,3.8,16.6c0.6,3-1.2,6-4.1,6.8c-40,11.6-76.4,28-100.7,45.7c-1.7,1.2-2.2,3.5-1.2,5.3c0.7,1.3,2.1,1.9,3.4,1.9
		c0.8,0,1.6-0.2,2.3-0.8c24.1-17.5,60.6-33.9,100.8-45.3c1.1-0.3,2.2,0.4,2.4,1.5c1.8,10.7,3.1,21.9,4,33.4l7.9-0.6
		c-0.9-12.2-2.4-23.9-4.2-35.2c-0.2-1,0.4-1.9,1.4-2.1c24.1-6.1,48.2-10.2,70-11.7c2.1-0.1,3.9-1.9,3.9-4c0-2.3-1.9-4.1-4.2-3.9
		c-20.9,1.5-43.8,5.2-66.8,10.8c-3.2,0.8-6.5-1.3-7.1-4.5c-1.3-6.2-2.7-12.3-4.2-18.2c-0.8-3.3,0.9-6.7,4.1-7.9
		c7.9-3,22.3-8.9,38.8-17.7c41.8-22.3,65.1-50.9,77.9-69.8C443.4,304.9,442.7,302.1,440.3,301.1z"/>
	<path class="st184" d="M153.3,462c-1.6,0-3.1-1-3.7-2.6c-0.7-2,0.3-4.3,2.4-5c0.4-0.1,41.9-15,78.7-21.8c2.1-0.4,4.2,1,4.6,3.2
		c0.4,2.1-1,4.2-3.2,4.6c-36.2,6.7-77,21.3-77.4,21.5C154.2,461.9,153.8,462,153.3,462z"/>
	<path class="st184" d="M353.2,405c-1.5,0-2.9-0.8-3.5-2.2c-1-2-0.1-4.3,1.8-5.3c0.4-0.2,41.1-19.8,87-28.3c2.1-0.4,4.2,1,4.6,3.2
		c0.4,2.1-1,4.2-3.2,4.6c-44.8,8.2-84.6,27.4-85,27.6C354.4,404.9,353.8,405,353.2,405z"/>
</g>
<g>
	<path class="st186" d="M157.2,375c-0.3,0-0.6,0-0.9-0.1c-51.8-12.8-79.8-65.7-81-67.9c-1-1.9-0.3-4.3,1.7-5.3
		c1.9-1,4.3-0.3,5.3,1.7c0.3,0.6,27.6,52,75.9,63.9c2.1,0.5,3.4,2.7,2.9,4.8C160.6,373.8,159,375,157.2,375z"/>
	<path class="st186" d="M148.2,299.4c-0.6,0-1.2-0.1-1.8-0.4C106.6,279,90.3,232,89.7,230c-0.7-2.1,0.4-4.3,2.5-5
		c2.1-0.7,4.3,0.4,5,2.5c0.2,0.6,16,45.9,52.9,64.4c1.9,1,2.7,3.3,1.8,5.3C151.1,298.6,149.7,299.4,148.2,299.4z"/>
	<circle class="st186" cx="242.8" cy="151.6" r="3.9"/>
	<circle class="st186" cx="166.6" cy="203.2" r="3.9"/>
	<path class="st186" d="M192.8,170.5c0.5,5.7-0.7,11.5-3.6,16.5c-0.1,0.3-0.3,0.5-0.4,0.8c-7.5,13.3-13.9,27.2-19.2,41.4
		c-0.8,2.2-3.8,2.5-5,0.4c-21.2-35.8-23.8-94.6-24.1-102.7c-1.8,1-4,1.6-6.6,1.6c-0.4,0-0.8,0-1.3-0.1c0.2,5.9,1.1,22.2,4.4,41.8
		c4.9,28.9,12.7,51.6,23.4,67.6c2.6,3.8,3.2,8.6,1.8,13c-4,13-7.2,26.1-9.8,39.1c1.9-2.8,5-4.8,9.1-5.1c2.1-9.8,4.6-19.7,7.6-29.5
		c1.8-6.1,7.1-10.5,13.5-11.1c8.7-0.8,20.7-2.3,34.4-4.9c2.8-3.6,6.4-7,9.5-10.2c-19.2,4.4-36.3,6.4-47,7.4
		c-2.1,0.2-3.6-1.8-2.8-3.8c5.2-13.9,11.4-27.5,18.7-40.5c0.9-1.6,1.8-3.2,2.7-4.7c2.4-4,6.5-6.7,11.1-7.4c16.7-2.5,48-9.6,68.6-30
		c1.6-1.5,1.6-4,0-5.6c-1.5-1.6-4-1.6-5.6,0c-16.5,16.2-41.1,23.4-57.6,26.6c-2.5,0.5-4.3-2.4-2.8-4.4c15.8-21,28.5-29.6,28.7-29.7
		l-2.2-3.3l-2.2-3.3c-0.7,0.5-14.5,9.8-31.4,32.6c-1.6,2.1-5,1.1-5-1.6c-0.6-24.6,7.9-46.7,9.7-51.3c-1,0.2-2,0.3-3.1,0.3
		c-1.9,0-3.7-0.4-5.2-1C201.2,109.5,189.5,134.8,192.8,170.5z"/>
	<path class="st186" d="M302.2,198.4C302.2,198.4,302.2,198.5,302.2,198.4c-11.2,7.6-23.5,13.7-36,18.7c0,0,0,0,0.1,0
		c2.4,0,4.5,0.5,6.2,1.4c2-1.4,4.5-2.2,7.5-2.2c2,0,3.7,0.4,5.3,1c6.9-3.4,13.7-7.3,20.1-11.6C303.7,203.7,302.6,201.1,302.2,198.4z
		"/>
	<path class="st186" d="M231.5,205c-2,0-3.8-1.6-3.9-3.6c-0.2-2.2,1.4-4.1,3.6-4.2c24.5-2,52.2-18.1,52.5-18.2
		c1.9-1.1,4.3-0.5,5.4,1.4c1.1,1.9,0.5,4.3-1.4,5.4c-1.2,0.7-29.5,17.1-55.8,19.3C231.7,205,231.6,205,231.5,205z"/>
	<path class="st186" d="M167.7,124.8c-0.6,0-1.2,0-1.7-0.1c-1.6,6.3-5,23.2-1.5,39c0.4,1.8,2,3.1,3.8,3.1c0.3,0,0.6,0,0.9-0.1
		c2.1-0.5,3.5-2.6,3-4.7c-3.9-17.5,1.9-37.3,2-37.6c0.1-0.4,0.2-0.9,0.1-1.3C172.5,124.2,170.3,124.8,167.7,124.8z"/>
	<path class="st186" d="M134.3,246.6c-1,0-2-0.4-2.8-1.2c-18-18-24.4-54-24.7-55.6c-0.4-2.1,1.1-4.2,3.2-4.6
		c2.1-0.4,4.2,1.1,4.6,3.2c0.1,0.3,6.3,35.1,22.5,51.3c1.5,1.5,1.5,4,0,5.6C136.4,246.2,135.3,246.6,134.3,246.6z"/>
	<path class="st186" d="M102.4,302.8c-0.8,0-1.6-0.2-2.3-0.7c-13.4-9.6-21.2-32.2-21.5-33.1c-0.7-2.1,0.4-4.3,2.4-5
		c2.1-0.7,4.3,0.4,5,2.4l0,0c0.1,0.2,7.4,21.1,18.7,29.3c1.8,1.3,2.2,3.7,0.9,5.5C104.8,302.3,103.6,302.8,102.4,302.8z"/>
</g>
<g>
	<path class="st187" d="M344.1,217.7c3.1,0.1,5.6,1.1,7.5,2.6c18-37.1,18.3-75.3,18.1-84.1c-1.1,0.3-2.3,0.4-3.5,0.4
		c-1.6,0-3-0.2-4.3-0.6C362,143.2,361.8,181.7,344.1,217.7z"/>
	<circle class="st187" cx="380.9" cy="170" r="3.9"/>
	<path class="st187" d="M383.3,207.5c-1.2,0-2.3-0.5-3.1-1.5c-1.3-1.7-1.1-4.2,0.7-5.5c12.6-10,16.2-29.8,16.3-30
		c0.4-2.1,2.4-3.6,4.6-3.2c2.1,0.4,3.6,2.4,3.2,4.5c-0.2,0.9-4.1,23-19.1,34.9C385,207.2,384.1,207.5,383.3,207.5z"/>
	<path class="st187" d="M327.3,161.2c0,0-0.1-0.1-0.1-0.1c-1.9,1.6-4.3,2.7-7.3,2.9c0,0.1,0,0.1,0.1,0.2c1.7,4.2,5.8,17.1,4.2,25.8
		c-0.4,2.1,1,4.2,3.1,4.6c0.2,0,0.5,0.1,0.7,0.1c1.9,0,3.5-1.3,3.9-3.2C334.4,178.6,327.6,161.9,327.3,161.2z"/>
</g>
<g>
	<path class="st188" d="M334.8,123.5c7.1-31.5,13.1-63.2,16.7-92.6l-7.9-1c-3.5,28.6-9.3,59.5-16.2,90.3
		C330.4,120.5,332.9,121.7,334.8,123.5z"/>
	<path class="st188" d="M268.3,108c1.2-0.3,2.5-0.6,4-0.6c1.5,0,2.8,0.2,4.1,0.6c-0.2-1.4-0.3-2.8-0.5-4.2
		c-6.4-56.6-16-90.7-16.1-91l-7.7,2.2c0.1,0.3,9.6,33.9,15.9,89.9C268.1,105.9,268.2,106.9,268.3,108z"/>
</g>
<g>
	<path class="st188" d="M395.9,158.4c13.3-25,25.7-50.8,36.1-76.5l-7.4-3c-9.6,23.9-21.1,47.9-33.3,71.2
		C393.8,152.2,395.4,155.2,395.9,158.4z"/>
	<path class="st188" d="M187.3,114.2c-7.7-28.3-14.4-56.9-19.3-84.4l-7.9,1.4c5,28.6,12.1,58.4,20.1,87.8
		C181.9,116.7,184.3,114.9,187.3,114.2z"/>
</g>
<g>
	<path class="st188" d="M124,144.4c-20.3-42.4-30-71.7-30.1-72l-7.6,2.5c0.1,0.4,11.2,33.7,34.3,80.9
		C120.1,151.7,121.3,147.4,124,144.4z"/>
</g>
<g>
	<path class="st188" d="M92.3,233.8c-28-29-41.8-51.4-41.9-51.7l-6.8,4.2c0.7,1.1,15.5,25.3,46.4,56.6
		C89.8,239.6,90.5,236.4,92.3,233.8z"/>
</g>
<g>
	<path class="st188" d="M374.8,104.5c-0.8,0-1.6-0.2-2.2-0.7c-1.8-1.2-2.3-3.7-1.1-5.6c9-13.3,15.1-36.8,15.1-37
		c0.5-2.1,2.7-3.4,4.9-2.9c2.1,0.5,3.4,2.7,2.9,4.9c-0.3,1-6.5,25.1-16.3,39.5C377.4,103.9,376.1,104.5,374.8,104.5z"/>
</g>
<g>
	<path class="st188" d="M301,77.1c-0.2,0-0.4,0-0.7-0.1c-2.2-0.4-3.7-2.4-3.3-4.6c3.1-18.4,1-41,1-41.3c-0.2-2.2,1.4-4.1,3.6-4.4
		c2.2-0.2,4.1,1.4,4.4,3.6c0.1,1,2.2,23.9-1.1,43.3C304.6,75.7,302.9,77.1,301,77.1z"/>
</g>
<g>
	<path class="st188" d="M224.1,86.1c-1.5,0.1-3.1-0.8-3.8-2.3C211,64.5,210.3,32.3,210.2,31c0-2.2,1.7-4,3.8-4.1c0,0,0.1,0,0.1,0
		c2.2,0,4,1.7,4.1,3.9c0,0.3,0.8,31.8,9.3,49.6c1,2,0.1,4.4-1.9,5.3C225.2,86,224.6,86.1,224.1,86.1z"/>
</g>
<g>
	<path class="st188" d="M143,101.3c-1.5,0-3-0.9-3.6-2.3c-7.2-15.6-10.4-35.9-10.5-36.7c-0.3-2.2,1.2-4.2,3.3-4.6
		c2.2-0.3,4.2,1.2,4.6,3.3c0,0.2,3.2,20,9.9,34.6c0.9,2,0,4.4-2,5.3C144.2,101.2,143.6,101.3,143,101.3z"/>
</g>
<g>
	<path class="st188" d="M90.2,177.7c-1.1,0-2.2-0.4-3-1.3c-11.7-13-21.8-33.1-22.3-34c-1-2-0.2-4.4,1.8-5.4c2-1,4.4-0.2,5.4,1.8
		c0.1,0.2,10.1,20.1,21,32.2c1.5,1.6,1.3,4.2-0.3,5.6C92.1,177.4,91.1,177.7,90.2,177.7z"/>
</g>
<g>
	<path class="st188" d="M427.7,187.9c-0.9,0-1.8-0.3-2.6-1c-1.7-1.4-1.9-4-0.5-5.6c10.3-12.1,18.2-30.3,18.3-30.5
		c0.9-2,3.2-3,5.3-2.1c2,0.9,3,3.2,2.1,5.3c-0.3,0.8-8.4,19.5-19.5,32.5C429.9,187.4,428.8,187.9,427.7,187.9z"/>
</g>
<g>
	<path class="st188" d="M62.2,276.4c-1.1,0-2.1-0.4-2.9-1.2c-12.4-13.1-20.2-31-20.5-31.7c-0.9-2,0.1-4.4,2.1-5.3
		c2-0.9,4.4,0.1,5.3,2.1c0.1,0.2,7.5,17.3,19,29.4c1.5,1.6,1.5,4.1-0.1,5.7C64.1,276,63.2,276.4,62.2,276.4z"/>
</g>
<path class="st1" d="M470.9,206.1c-1.4-20.5-5.9-40.1-13.4-58.2c-4.9-11.9-6.1-25.6-6.6-37.5c-0.9-21.7-12.8-41.1-31.7-51.9
	c-8.6-4.9-18.4-7.7-28.2-8.1c-4.5-0.2-8.5-1.8-9.6-3.9c-6.6-12-16.6-21.2-29.1-26.8c-8.1-3.6-16.7-5.5-25.5-5.5
	c-8.1,0-15.9,1.5-23.4,4.6c-0.4,0.2-0.9,0.2-1.4,0.2c-1.9,0-4.4-1.1-6.6-2.9c-11.1-9.1-25.1-14-39.5-14c-14.4,0-28.4,5-39.6,14.1
	c-2.2,1.8-4.7,2.9-6.6,2.9c-0.5,0-1-0.1-1.4-0.3c-7.5-3.1-15.5-4.6-23.6-4.6c-8.8,0-17.4,1.8-25.5,5.5
	c-12.5,5.6-22.5,14.9-29.1,26.8c-1.1,2.1-5.1,3.7-9.6,3.9c-9.8,0.4-19.6,3.2-28.2,8.1c-9.5,5.4-17.5,13.2-23,22.6
	c-5.4,9.1-8.4,19.4-8.7,30c-0.4,14-2.5,24.8-6.5,33.9C48,158.8,31.7,195.8,29,245.4c-1.5,28.2,1.7,55.9,9.6,82.4
	c7,23.5,17.7,46.2,31.9,67.7c7.1,10.7,13.3,21.9,17.9,33.9c1.9,5,5.3,11,11.3,16.8c19.3,16.6,42.4,29.5,68.7,38.1
	c25.3,8.3,52.9,12.5,82.1,12.5c28.5,0,55.6-4,80.5-11.9c25.8-8.2,48.6-20.5,67.8-36.4c41.7-34.6,63.7-84.4,63.7-143.8
	c0-0.2,0-0.3,0-0.5c0-13.2,1.4-26.4,4.2-39.4C470.8,245,472.2,225.3,470.9,206.1z M294.9,212.2c-95.7,5-173.8,79.8-187.3,175.9
	c-0.7,5.2-7.6,6.3-10,1.7c-12.3-24.4-17.6-54.4-15.7-89.7c1.8-34.2,10.9-67.6,27.1-99.1c8.6-16.7,13.7-33.2,15.2-49
	c0.5-5.1,2.2-10.1,5.2-14.2c7.4-10.3,20.1-14.3,31.7-10.9c7.8,2.3,16.4-0.1,22.3-6.4c5.8-6.2,14.1-9.5,22.5-9
	c10.2,0.6,19,6.4,23.7,15.5c3.4,6.6,10.7,10.7,19.4,10.8c9.1,0.2,17.4,4.4,22.7,11.8c4,5.4,5.8,11.9,5.3,18.6
	c-0.6,8.4,3.9,16.7,12,20.8c6.3,3.1,9.9,8.5,12,13.2C303.2,206.8,299.9,212,294.9,212.2z M370.5,139.2c7.5,2,13.8,6.9,17.7,13.6
	l0.1,0.2c0.3,0.5,24,37.1,31.1,85.3c0.7,4.5-4.3,7.7-8.1,5.2c-28.4-18.4-61-29.2-94.8-31.2c-2.6-0.2-4.8-2.1-5.3-4.7l0,0
	c-1.6-8.5-6-16-12.5-21.4c-2.4-2-2.7-5.7-0.5-8c1.6-1.7,3.4-3.2,5.4-4.5c3.6-2.3,7.5-3.8,11.8-4.3c9.3-1.2,17.5-7,21.5-15.1
	c2.5-5.1,6.5-9.3,11.4-12.1C355.1,138.2,363,137.1,370.5,139.2z M329.9,150.7c-2.7,5.8-8.8,9.9-15.5,10.8c-5.4,0.7-10.4,2.6-15,5.5
	c-2.6,1.7-4.9,3.7-7,5.9c-2.6,2.8-7.3,1-7.4-2.8c0-0.4,0-0.8,0-1.2c0.6-8.5-1.9-16.9-6.8-23.8c-6.8-9.4-17.3-14.8-28.9-15
	c-5.8-0.1-10.5-2.5-12.5-6.6c-0.4-0.9-0.9-1.7-1.4-2.5c-1.7-2.8,0-6.5,3.2-7.1c6-1,12.5-1.9,19.4-2.3c31-1.9,58.3,4.4,81.5,18.9
	c2.6,1.7,2.8,5.5,0.4,7.4C336.7,140.3,332.8,144.3,329.9,150.7z M124.8,350.6c26.9-76.1,97.5-130.8,180.4-130.8
	c40.4,0,79.4,13.1,111.9,37.2c9.9,7.4,16.1,18.7,17.1,31c0.4,5.7,0.7,11.2,0.7,16.7c0,50.9-18.6,93.3-53.7,122.6
	c-32.6,27.1-78.9,42-130.6,42c0,0-49.6,1.4-101.3-22.2c-18.7-8.5-30.9-26.8-31.5-47.3C117.3,385.4,118.7,367.9,124.8,350.6z
	 M436,262.1c-4.3-3.8-7-9.2-7.5-14.9c-5-53.8-31.6-95.5-33.5-98.5c-5-8.5-12.9-14.6-22.5-17.2c-4-1.1-8-1.5-11.9-1.2
	c-4.5,0.3-8.9-1-12.6-3.5c-25.5-17.3-56.4-25.2-90.6-23.1c-9.5,0.6-18.3,1.9-26,3.4c-4.8,1-9.7,0.5-14.3-1.2
	c-3.4-1.3-7-2.1-10.7-2.3c-10.8-0.7-21.3,3.5-28.8,11.4c-3.9,4.1-9.3,5.7-14.3,4.2c-11.7-3.5-24.3-1-33.7,6.7
	c-7.6,6.2-12.3,15.1-13.3,24.9c-1.4,14.9-6.3,30.5-14.4,46.4c-16.6,32.6-26,67-27.9,102.3c-0.8,14.4-0.4,28,1.2,40.7
	c0.5,4-5.1,5.4-6.6,1.7c-36.5-88.6-2-167,7.1-187.7c5.9-13.4,8.1-28,8.5-42.6c0.4-13.1,7.5-25.8,19.7-32.8c6-3.4,12.4-5,18.8-5.1
	c11.6-0.1,22.5-6,28-16.1c3.9-7.1,10-13.1,18-16.6c5.2-2.3,10.6-3.4,15.9-3.4c5.1,0,10,1,14.7,2.9c3.4,1.4,6.8,2,10.3,2
	c7.7,0,15.3-3.1,21.5-8.2c6.7-5.5,15.3-8.8,24.6-8.8c9.3,0,17.9,3.3,24.5,8.7c6.2,5.1,13.8,8.2,21.5,8.2c3.4,0,6.9-0.6,10.2-2
	c4.6-1.9,9.5-2.8,14.6-2.8c5.3,0,10.7,1.1,15.9,3.4c8,3.6,14.1,9.5,18,16.6c5.6,10.1,16.5,16,28,16.1c6.4,0.1,12.9,1.7,18.8,5.1
	c12.5,7.1,19.6,20.2,19.8,33.6c0.1,15.4,2.8,30.6,8.6,44.8c8.9,21.8,17.1,56.9,7.6,102.3c-0.7,3.3-4.8,4.7-7.3,2.4
	C436.1,262.2,436.1,262.2,436,262.1z"/>
<circle class="st188" cx="435.7" cy="213.5" r="3.9"/>
<circle class="st188" cx="399.7" cy="93.8" r="3.9"/>
<circle class="st188" cx="191.9" cy="57.3" r="3.9"/>
<circle class="st188" cx="156.9" cy="72" r="3.9"/>
<circle class="st188" cx="97.5" cy="144.7" r="3.9"/>
</svg>
