<svg xmlns="http://www.w3.org/2000/svg" xmlns:xlink="http://www.w3.org/1999/xlink" viewBox="0 0 32 32" version="1.1" width="100" height="100" fill="000000">
<g id="surface1">
<path style=" " d="M 10.84375 2 L 10.28125 2.8125 L 2.53125 14.46875 L 1.96875 15.3125 L 2.8125 15.84375 L 8.84375 19.875 L 13.5 22.9375 L 15.03125 22.25 C 15.148438 21.535156 15.746094 21 16.5 21 C 16.777344 21 17.265625 21.195313 17.5 21.375 L 19.09375 20.5625 C 19.09375 19.667969 19.691406 19 20.5 19 C 20.832031 19 21.117188 19.121094 21.375 19.3125 L 22.8125 19.0625 L 24.46875 16.59375 L 26.5 13.5625 L 27.03125 12.71875 L 26.21875 12.15625 L 11.6875 2.53125 Z M 11.40625 4.78125 L 24.25 13.28125 L 22.8125 15.46875 L 21.5625 17.34375 C 21.207031 17.21875 20.898438 17 20.5 17 C 19 17 17.820313 18.003906 17.34375 19.3125 C 17.046875 19.230469 16.828125 19 16.5 19 C 15.285156 19 14.375 19.738281 13.75 20.6875 L 9.96875 18.1875 L 4.75 14.75 Z M 13.9375 9 C 13.242188 9.007813 12.566406 9.378906 12.21875 10.125 L 12.03125 10.53125 L 11.625 10.59375 C 10.03125 10.855469 9.421875 12.863281 10.59375 14 L 10.90625 14.28125 L 10.84375 14.6875 C 10.59375 16.316406 12.269531 17.539063 13.6875 16.75 L 14.0625 16.5625 L 14.40625 16.75 C 15.84375 17.496094 17.515625 16.214844 17.21875 14.59375 L 17.125 14.1875 L 17.4375 13.90625 C 18.578125 12.738281 17.910156 10.746094 16.3125 10.53125 L 15.90625 10.46875 L 15.71875 10.09375 C 15.351563 9.359375 14.632813 8.992188 13.9375 9 Z M 14 12 C 14.550781 12 15 12.449219 15 13 C 14.996094 13.554688 14.550781 14 14 14 C 13.449219 14 13 13.554688 13 13 C 13 12.449219 13.445313 11.996094 14 12 Z M 22.1875 21.78125 C 22.039063 21.777344 21.925781 21.820313 21.84375 21.90625 C 21.515625 22.242188 21.9375 23.179688 22.78125 24 C 23.625 24.820313 24.546875 25.210938 24.875 24.875 C 25.203125 24.539063 24.8125 23.601563 23.96875 22.78125 C 23.335938 22.167969 22.632813 21.789063 22.1875 21.78125 Z M 27.25 22.9375 C 26.855469 23.078125 26.445313 23.859375 26.3125 24.84375 C 26.160156 25.96875 26.425781 26.9375 26.875 27 C 27.324219 27.0625 27.816406 26.1875 27.96875 25.0625 C 28.121094 23.9375 27.855469 23 27.40625 22.9375 C 27.351563 22.929688 27.304688 22.917969 27.25 22.9375 Z M 22.09375 26 C 21.703125 26.003906 21.402344 26.125 21.3125 26.34375 C 21.132813 26.777344 21.804688 27.457031 22.8125 27.875 C 23.820313 28.292969 24.789063 28.277344 24.96875 27.84375 C 25.148438 27.410156 24.476563 26.730469 23.46875 26.3125 C 22.964844 26.105469 22.484375 25.996094 22.09375 26 Z M 27.875 28.3125 C 26.699219 28.3125 25.75 28.6875 25.75 29.15625 C 25.75 29.625 26.699219 30 27.875 30 C 29.050781 30 30 29.625 30 29.15625 C 30 28.6875 29.050781 28.3125 27.875 28.3125 Z "/>
</g>
</svg>