<svg xmlns="http://www.w3.org/2000/svg" xmlns:xlink="http://www.w3.org/1999/xlink" width="64" height="64" version="1.1" viewBox="0 0 48 48"><g id="surface1048733"><path fill="#E0AC6E" fill-opacity="1" fill-rule="nonzero" stroke="none" d="M 36 20 L 16 6 L 4 23 L 25 37 L 31 37 L 38.070312 25.394531 Z M 36 20"/><path fill="#5D4037" fill-opacity="1" fill-rule="nonzero" stroke="none" d="M 36.484375 35.726562 C 37.742188 36.925781 39.226562 37.355469 39.78125 36.679688 C 40.34375 36 39.773438 34.476562 38.515625 33.273438 C 37.253906 32.074219 35.777344 31.644531 35.214844 32.320312 C 34.652344 32.996094 35.226562 34.523438 36.484375 35.726562 Z M 30.359375 38.433594 C 31.976562 39.203125 33.578125 39.183594 33.929688 38.390625 C 34.285156 37.597656 33.257812 36.328125 31.640625 35.5625 C 30.023438 34.796875 28.421875 34.8125 28.070312 35.605469 C 27.714844 36.398438 28.742188 37.664062 30.359375 38.433594 Z M 29.484375 31.726562 C 30.742188 32.925781 32.226562 33.355469 32.78125 32.679688 C 33.34375 32 32.773438 30.476562 31.515625 29.273438 C 30.253906 28.074219 28.777344 27.644531 28.214844 28.320312 C 27.652344 28.996094 28.226562 30.523438 29.484375 31.726562 Z M 40 40 C 38.34375 40 37 40.671875 37 41.5 C 37 42.328125 38.34375 43 40 43 C 41.65625 43 43 42.328125 43 41.5 C 43 40.671875 41.65625 40 40 40 Z M 40 40"/><path fill="#FFCC80" fill-opacity="1" fill-rule="nonzero" stroke="none" d="M 16 6 L 18.214844 11.652344 L 10 23 L 4 23 L 25 37 L 36 20 Z M 16 6"/><path fill="#558B2F" fill-opacity="1" fill-rule="nonzero" stroke="none" d="M 28 23 C 28 26.316406 25.316406 29 22 29 C 18.683594 29 16 26.316406 16 23 C 16 19.683594 18.683594 17 22 17 C 25.316406 17 28 19.683594 28 23"/><path fill="#FFF" fill-opacity="1" fill-rule="nonzero" stroke="none" d="M 20.535156 19.941406 C 20.535156 19.113281 21.191406 18.445312 22 18.445312 C 22.808594 18.445312 23.464844 19.113281 23.464844 19.941406 C 23.464844 20.773438 22 22.945312 22 22.945312 C 22 22.945312 20.535156 20.773438 20.535156 19.941406 M 23.464844 25.945312 C 23.464844 26.777344 22.808594 27.445312 22 27.445312 C 21.191406 27.445312 20.535156 26.777344 20.535156 25.945312 C 20.535156 25.113281 22 22.945312 22 22.945312 C 22 22.945312 23.464844 25.113281 23.464844 25.945312"/><path fill="#FFF" fill-opacity="1" fill-rule="nonzero" stroke="none" d="M 18.730469 22.742188 C 18.03125 22.328125 17.792969 21.414062 18.195312 20.695312 C 18.597656 19.976562 19.496094 19.730469 20.195312 20.148438 C 20.894531 20.5625 22 22.945312 22 22.945312 C 22 22.945312 19.433594 23.15625 18.730469 22.742188 M 25.269531 23.144531 C 25.96875 23.5625 26.207031 24.476562 25.804688 25.195312 C 25.402344 25.914062 24.503906 26.160156 23.804688 25.742188 C 23.101562 25.328125 22 22.945312 22 22.945312 C 22 22.945312 24.566406 22.730469 25.269531 23.144531"/><path fill="#FFF" fill-opacity="1" fill-rule="nonzero" stroke="none" d="M 25.269531 22.742188 C 25.96875 22.328125 26.207031 21.414062 25.804688 20.695312 C 25.402344 19.976562 24.503906 19.730469 23.804688 20.148438 C 23.101562 20.5625 22 22.945312 22 22.945312 C 22 22.945312 24.566406 23.15625 25.269531 22.742188 M 18.730469 23.144531 C 18.03125 23.5625 17.792969 24.476562 18.195312 25.195312 C 18.597656 25.914062 19.496094 26.160156 20.195312 25.742188 C 20.894531 25.328125 22 22.945312 22 22.945312 C 22 22.945312 19.433594 22.730469 18.730469 23.144531"/><path fill="#FFC107" fill-opacity="1" fill-rule="nonzero" stroke="none" d="M 23.5 23 C 23.5 23.828125 22.828125 24.5 22 24.5 C 21.171875 24.5 20.5 23.828125 20.5 23 C 20.5 22.171875 21.171875 21.5 22 21.5 C 22.828125 21.5 23.5 22.171875 23.5 23"/><path fill="#43A047" fill-opacity="1" fill-rule="nonzero" stroke="none" d="M 48 38 C 48 43.5 43.5 48 38 48 C 32.5 48 28 43.5 28 38 C 28 32.5 32.5 28 38 28 C 43.5 28 48 32.5 48 38"/><path fill="#FFF" fill-opacity="1" fill-rule="nonzero" stroke="none" d="M 44 36 L 40 36 L 40 32 L 36 32 L 36 36 L 32 36 L 32 40 L 36 40 L 36 44 L 40 44 L 40 40 L 44 40 Z M 44 36"/></g></svg>