<?xml version="1.0" encoding="utf-8"?>
<!-- Generator: Adobe Illustrator 20.0.0, SVG Export Plug-In . SVG Version: 6.00 Build 0)  -->
<svg version="1.1" id="Layer_1" xmlns="http://www.w3.org/2000/svg" xmlns:xlink="http://www.w3.org/1999/xlink" x="0px" y="0px"
	 viewBox="0 0 64 64" style="enable-background:new 0 0 64 64;" xml:space="preserve">
<style type="text/css">
	.st0{fill:#D5DF7F;}
	.st1{fill:#80AC66;}
	.st2{fill:#F9FBEF;}
	.st3{fill:#82AF1D;}
	.st4{fill:#2F3F1A;}
	.st5{fill:url(#SVGID_1_);}
	.st6{fill:none;stroke:#CEB699;stroke-linecap:round;stroke-linejoin:round;stroke-miterlimit:10;}
	.st7{fill:url(#SVGID_2_);stroke:#5B7D12;stroke-width:3;stroke-linecap:round;stroke-linejoin:round;stroke-miterlimit:10;}
	.st8{fill:url(#SVGID_3_);stroke:#2F3F1A;stroke-linecap:round;stroke-linejoin:round;stroke-miterlimit:10;}
	.st9{fill:url(#SVGID_4_);stroke:#2F3F1A;stroke-linecap:round;stroke-linejoin:round;stroke-miterlimit:10;}
	.st10{fill:url(#SVGID_5_);stroke:#2F3F1A;stroke-linecap:round;stroke-linejoin:round;stroke-miterlimit:10;}
	.st11{fill:url(#SVGID_6_);stroke:#2F3F1A;stroke-linecap:round;stroke-linejoin:round;stroke-miterlimit:10;}
	.st12{fill:url(#SVGID_7_);stroke:#2F3F1A;stroke-linecap:round;stroke-linejoin:round;stroke-miterlimit:10;}
	.st13{fill:url(#SVGID_8_);stroke:#5B7D12;stroke-width:3;stroke-linecap:round;stroke-linejoin:round;stroke-miterlimit:10;}
	.st14{fill:url(#SVGID_9_);stroke:#2F3F1A;stroke-linecap:round;stroke-linejoin:round;stroke-miterlimit:10;}
	.st15{fill:url(#SVGID_10_);stroke:#2F3F1A;stroke-linecap:round;stroke-linejoin:round;stroke-miterlimit:10;}
	.st16{fill:url(#SVGID_11_);stroke:#2F3F1A;stroke-linecap:round;stroke-linejoin:round;stroke-miterlimit:10;}
	.st17{fill:url(#SVGID_12_);stroke:#2F3F1A;stroke-linecap:round;stroke-linejoin:round;stroke-miterlimit:10;}
	.st18{fill:url(#SVGID_13_);stroke:#2F3F1A;stroke-linecap:round;stroke-linejoin:round;stroke-miterlimit:10;}
	.st19{fill:#BC6F6B;}
	.st20{fill:#D48C64;stroke:#93663D;stroke-width:3;stroke-miterlimit:10;}
	.st21{fill:url(#SVGID_14_);}
	.st22{fill:url(#SVGID_15_);stroke:#2F3F1A;stroke-width:3;stroke-linecap:round;stroke-miterlimit:10;}
	.st23{fill:none;stroke:#2F3F1A;stroke-miterlimit:10;}
	.st24{fill:url(#SVGID_16_);}
	.st25{fill:none;stroke:#8D5733;stroke-linecap:round;stroke-linejoin:round;stroke-miterlimit:10;}
	.st26{fill:#FCAA54;}
	.st27{fill:#8D5733;}
	.st28{fill:none;stroke:#FFFFFF;stroke-linecap:round;stroke-linejoin:round;stroke-miterlimit:10;}
	.st29{fill:none;stroke:#8D5733;stroke-linecap:round;stroke-miterlimit:10;}
	.st30{fill:none;stroke:#FFFFFF;stroke-linecap:round;stroke-miterlimit:10;}
	.st31{fill:#FFFFFF;}
	.st32{fill:#FCAA54;stroke:#8CC63F;stroke-width:3;stroke-linecap:round;stroke-linejoin:round;stroke-miterlimit:10;}
	.st33{fill:none;stroke:#FDD6AD;stroke-linecap:round;stroke-linejoin:round;stroke-miterlimit:10;}
	.st34{fill:#00FFFF;}
	.st35{fill:none;stroke:#38171C;stroke-linecap:round;stroke-linejoin:round;stroke-miterlimit:10;}
	.st36{fill:#B63640;}
	.st37{fill:none;stroke:#DDA1A4;stroke-linecap:round;stroke-linejoin:round;stroke-miterlimit:10;}
	.st38{fill:#38171C;}
	.st39{fill:none;stroke:#B1986C;stroke-linecap:round;stroke-linejoin:round;stroke-miterlimit:10;}
	.st40{fill:#E5E1C7;}
	.st41{fill:none;stroke:#BEC57A;stroke-linecap:round;stroke-linejoin:round;stroke-miterlimit:10;}
	.st42{fill:#B1986C;}
	.st43{fill:none;stroke:#986E5A;stroke-linecap:round;stroke-linejoin:round;stroke-miterlimit:10;}
	.st44{fill:#EEE1C2;}
	.st45{fill:#F0DBC2;stroke:#986E5A;stroke-width:3;stroke-miterlimit:10;}
	.st46{fill:none;stroke:#BA8178;stroke-linecap:round;stroke-miterlimit:10;}
	.st47{fill:none;stroke:#986E5A;stroke-width:3;stroke-miterlimit:10;}
	.st48{fill:none;stroke:#F8C899;stroke-linecap:round;stroke-linejoin:round;stroke-miterlimit:10;}
	.st49{fill:none;stroke:#E6C18D;stroke-linecap:round;stroke-linejoin:round;stroke-miterlimit:10;}
	.st50{fill:none;stroke:#2F3F1A;stroke-width:3;stroke-miterlimit:10;}
	.st51{fill:url(#SVGID_17_);}
	.st52{fill:url(#SVGID_18_);}
	.st53{fill:none;stroke:#2F3F1A;stroke-width:3;stroke-linejoin:round;stroke-miterlimit:10;}
	.st54{fill:none;stroke:#2F3F1A;stroke-linejoin:round;stroke-miterlimit:10;}
	.st55{clip-path:url(#SVGID_20_);}
	.st56{clip-path:url(#SVGID_22_);}
	.st57{clip-path:url(#SVGID_24_);}
	.st58{fill:#D46A71;stroke:#9E423B;stroke-width:3;stroke-miterlimit:10;}
	.st59{fill:none;stroke:#D68C79;stroke-linecap:round;stroke-miterlimit:10;}
	.st60{fill:url(#SVGID_25_);}
	.st61{fill:url(#SVGID_26_);}
	.st62{fill:url(#SVGID_27_);}
	.st63{fill:url(#SVGID_28_);}
	.st64{clip-path:url(#SVGID_30_);fill:#F9FBEF;}
	.st65{clip-path:url(#SVGID_30_);fill:#F9FBEE;}
	.st66{clip-path:url(#SVGID_30_);fill:#F8FBED;}
	.st67{clip-path:url(#SVGID_30_);fill:#F8FAED;}
	.st68{clip-path:url(#SVGID_30_);fill:#F8FAEC;}
	.st69{clip-path:url(#SVGID_30_);fill:#F8FAEB;}
	.st70{clip-path:url(#SVGID_30_);fill:#F8FAEA;}
	.st71{clip-path:url(#SVGID_30_);fill:#F7FAEA;}
	.st72{clip-path:url(#SVGID_30_);fill:#F7FAE9;}
	.st73{clip-path:url(#SVGID_30_);fill:#F7F9E9;}
	.st74{clip-path:url(#SVGID_30_);fill:#F7F9E8;}
	.st75{clip-path:url(#SVGID_30_);fill:#F7F9E7;}
	.st76{clip-path:url(#SVGID_30_);fill:#F6F9E7;}
	.st77{clip-path:url(#SVGID_30_);fill:#F6F9E6;}
	.st78{clip-path:url(#SVGID_30_);fill:#F6F9E5;}
	.st79{clip-path:url(#SVGID_30_);fill:#F6F8E5;}
	.st80{clip-path:url(#SVGID_30_);fill:#F5F8E4;}
	.st81{clip-path:url(#SVGID_30_);fill:#F5F8E3;}
	.st82{clip-path:url(#SVGID_30_);fill:#F5F8E2;}
	.st83{clip-path:url(#SVGID_30_);fill:#F5F8E1;}
	.st84{clip-path:url(#SVGID_30_);fill:#F4F7E0;}
	.st85{clip-path:url(#SVGID_30_);fill:#F4F7DF;}
	.st86{clip-path:url(#SVGID_30_);fill:#F4F7DE;}
	.st87{clip-path:url(#SVGID_30_);fill:#F3F7DD;}
	.st88{clip-path:url(#SVGID_30_);fill:#F3F6DC;}
	.st89{clip-path:url(#SVGID_30_);fill:#F3F6DB;}
	.st90{clip-path:url(#SVGID_30_);fill:#F2F6DA;}
	.st91{clip-path:url(#SVGID_30_);fill:#F2F5D9;}
	.st92{clip-path:url(#SVGID_30_);fill:#F1F5D8;}
	.st93{clip-path:url(#SVGID_30_);fill:#F1F5D6;}
	.st94{clip-path:url(#SVGID_30_);fill:#F1F5D5;}
	.st95{clip-path:url(#SVGID_30_);fill:#F0F4D4;}
	.st96{clip-path:url(#SVGID_30_);fill:#F0F4D3;}
	.st97{clip-path:url(#SVGID_30_);fill:#F0F4D2;}
	.st98{clip-path:url(#SVGID_30_);fill:#EFF3D1;}
	.st99{clip-path:url(#SVGID_30_);fill:#EFF3CF;}
	.st100{clip-path:url(#SVGID_30_);fill:#EEF3CE;}
	.st101{clip-path:url(#SVGID_30_);fill:#EEF2CD;}
	.st102{clip-path:url(#SVGID_30_);fill:#EEF2CC;}
	.st103{clip-path:url(#SVGID_30_);fill:#EDF2CA;}
	.st104{clip-path:url(#SVGID_30_);fill:#EDF1C9;}
	.st105{clip-path:url(#SVGID_30_);fill:#ECF1C7;}
	.st106{clip-path:url(#SVGID_30_);fill:#ECF1C6;}
	.st107{clip-path:url(#SVGID_30_);fill:#EBF0C4;}
	.st108{clip-path:url(#SVGID_30_);fill:#EBF0C3;}
	.st109{clip-path:url(#SVGID_30_);fill:#EAF0C1;}
	.st110{clip-path:url(#SVGID_30_);fill:#EAEFC0;}
	.st111{clip-path:url(#SVGID_30_);fill:#E9EFBE;}
	.st112{clip-path:url(#SVGID_30_);fill:#E9EEBC;}
	.st113{clip-path:url(#SVGID_30_);fill:#E8EEBA;}
	.st114{clip-path:url(#SVGID_30_);fill:#E8EDB9;}
	.st115{clip-path:url(#SVGID_30_);fill:#E7EDB7;}
	.st116{clip-path:url(#SVGID_30_);fill:#E6EDB5;}
	.st117{clip-path:url(#SVGID_30_);fill:#E6ECB3;}
	.st118{clip-path:url(#SVGID_30_);fill:#E5ECB1;}
	.st119{clip-path:url(#SVGID_30_);fill:#E5EBAF;}
	.st120{clip-path:url(#SVGID_30_);fill:#E4EBAD;}
	.st121{clip-path:url(#SVGID_30_);fill:#E3EAAB;}
	.st122{clip-path:url(#SVGID_30_);fill:#E3EAA9;}
	.st123{clip-path:url(#SVGID_30_);fill:#E2E9A7;}
	.st124{clip-path:url(#SVGID_30_);fill:#E1E8A5;}
	.st125{clip-path:url(#SVGID_30_);fill:#E0E8A3;}
	.st126{clip-path:url(#SVGID_30_);fill:#E0E7A0;}
	.st127{clip-path:url(#SVGID_30_);fill:#DFE79E;}
	.st128{clip-path:url(#SVGID_30_);fill:#DEE69C;}
	.st129{clip-path:url(#SVGID_30_);fill:#DDE699;}
	.st130{clip-path:url(#SVGID_30_);fill:#DDE597;}
	.st131{clip-path:url(#SVGID_30_);fill:#DCE494;}
	.st132{clip-path:url(#SVGID_30_);fill:#DBE492;}
	.st133{clip-path:url(#SVGID_30_);fill:#DAE38F;}
	.st134{clip-path:url(#SVGID_30_);fill:#D9E28D;}
	.st135{clip-path:url(#SVGID_30_);fill:#D9E28A;}
	.st136{clip-path:url(#SVGID_30_);fill:#D8E187;}
	.st137{clip-path:url(#SVGID_30_);fill:#D7E085;}
	.st138{clip-path:url(#SVGID_30_);fill:#D6E082;}
	.st139{clip-path:url(#SVGID_30_);fill:#D5DF7F;}
	.st140{clip-path:url(#SVGID_30_);fill:#D3DE7E;}
	.st141{clip-path:url(#SVGID_30_);fill:#D1DC7E;}
	.st142{clip-path:url(#SVGID_30_);fill:#CFDB7D;}
	.st143{clip-path:url(#SVGID_30_);fill:#CCDA7C;}
	.st144{clip-path:url(#SVGID_30_);fill:#CAD97C;}
	.st145{clip-path:url(#SVGID_30_);fill:#C8D77B;}
	.st146{clip-path:url(#SVGID_30_);fill:#C6D67B;}
	.st147{clip-path:url(#SVGID_30_);fill:#C4D57A;}
	.st148{clip-path:url(#SVGID_30_);fill:#C2D47A;}
	.st149{clip-path:url(#SVGID_30_);fill:#C1D379;}
	.st150{clip-path:url(#SVGID_30_);fill:#BFD278;}
	.st151{clip-path:url(#SVGID_30_);fill:#BDD178;}
	.st152{clip-path:url(#SVGID_30_);fill:#BBCF77;}
	.st153{clip-path:url(#SVGID_30_);fill:#B9CE77;}
	.st154{clip-path:url(#SVGID_30_);fill:#B7CD76;}
	.st155{clip-path:url(#SVGID_30_);fill:#B6CC76;}
	.st156{clip-path:url(#SVGID_30_);fill:#B4CB75;}
	.st157{clip-path:url(#SVGID_30_);fill:#B2CA75;}
	.st158{clip-path:url(#SVGID_30_);fill:#B1C974;}
	.st159{clip-path:url(#SVGID_30_);fill:#AFC874;}
	.st160{clip-path:url(#SVGID_30_);fill:#AEC773;}
	.st161{clip-path:url(#SVGID_30_);fill:#ACC673;}
	.st162{clip-path:url(#SVGID_30_);fill:#AAC572;}
	.st163{clip-path:url(#SVGID_30_);fill:#A9C572;}
	.st164{clip-path:url(#SVGID_30_);fill:#A7C472;}
	.st165{clip-path:url(#SVGID_30_);fill:#A6C371;}
	.st166{clip-path:url(#SVGID_30_);fill:#A5C271;}
	.st167{clip-path:url(#SVGID_30_);fill:#A3C170;}
	.st168{clip-path:url(#SVGID_30_);fill:#A2C070;}
	.st169{clip-path:url(#SVGID_30_);fill:#A1C070;}
	.st170{clip-path:url(#SVGID_30_);fill:#9FBF6F;}
	.st171{clip-path:url(#SVGID_30_);fill:#9EBE6F;}
	.st172{clip-path:url(#SVGID_30_);fill:#9DBD6E;}
	.st173{clip-path:url(#SVGID_30_);fill:#9CBD6E;}
	.st174{clip-path:url(#SVGID_30_);fill:#9ABC6E;}
	.st175{clip-path:url(#SVGID_30_);fill:#99BB6D;}
	.st176{clip-path:url(#SVGID_30_);fill:#98BA6D;}
	.st177{clip-path:url(#SVGID_30_);fill:#97BA6D;}
	.st178{clip-path:url(#SVGID_30_);fill:#96B96C;}
	.st179{clip-path:url(#SVGID_30_);fill:#95B96C;}
	.st180{clip-path:url(#SVGID_30_);fill:#94B86C;}
	.st181{clip-path:url(#SVGID_30_);fill:#93B76C;}
	.st182{clip-path:url(#SVGID_30_);fill:#92B76B;}
	.st183{clip-path:url(#SVGID_30_);fill:#91B66B;}
	.st184{clip-path:url(#SVGID_30_);fill:#90B66B;}
	.st185{clip-path:url(#SVGID_30_);fill:#8FB56A;}
	.st186{clip-path:url(#SVGID_30_);fill:#8EB56A;}
	.st187{clip-path:url(#SVGID_30_);fill:#8EB46A;}
	.st188{clip-path:url(#SVGID_30_);fill:#8DB46A;}
	.st189{clip-path:url(#SVGID_30_);fill:#8CB36A;}
	.st190{clip-path:url(#SVGID_30_);fill:#8BB369;}
	.st191{clip-path:url(#SVGID_30_);fill:#8AB269;}
	.st192{clip-path:url(#SVGID_30_);fill:#89B169;}
	.st193{clip-path:url(#SVGID_30_);fill:#88B168;}
	.st194{clip-path:url(#SVGID_30_);fill:#87B068;}
	.st195{clip-path:url(#SVGID_30_);fill:#86B068;}
	.st196{clip-path:url(#SVGID_30_);fill:#86AF68;}
	.st197{clip-path:url(#SVGID_30_);fill:#85AF68;}
	.st198{clip-path:url(#SVGID_30_);fill:#85AF67;}
	.st199{clip-path:url(#SVGID_30_);fill:#84AF67;}
	.st200{clip-path:url(#SVGID_30_);fill:#84AE67;}
	.st201{clip-path:url(#SVGID_30_);fill:#83AE67;}
	.st202{clip-path:url(#SVGID_30_);fill:#82AD67;}
	.st203{clip-path:url(#SVGID_30_);fill:#81AD66;}
	.st204{clip-path:url(#SVGID_30_);fill:#81AC66;}
	.st205{clip-path:url(#SVGID_30_);fill:#80AC66;}
	.st206{fill:#CEB699;}
	.st207{fill:url(#SVGID_31_);stroke:#2F3F1A;stroke-width:3;stroke-linecap:round;stroke-miterlimit:10;}
	.st208{fill:none;stroke:#2F3F1A;stroke-linecap:round;stroke-miterlimit:10;}
	.st209{opacity:0.2;}
	.st210{fill:#93663D;}
	.st211{fill:none;stroke:#93663D;stroke-width:3;stroke-miterlimit:10;}
	.st212{fill:#D48C64;}
	.st213{fill:#B3706B;stroke:#682A28;stroke-width:3;stroke-miterlimit:10;}
	.st214{fill:#B6806E;}
	.st215{fill:none;stroke:#682A28;stroke-width:3;stroke-miterlimit:10;}
	.st216{fill:#682A28;}
	.st217{fill:none;stroke:#D68C79;stroke-miterlimit:10;}
	.st218{opacity:0.4;fill:none;stroke:#FFFFFF;stroke-linecap:round;stroke-miterlimit:10;}
	.st219{fill:none;stroke:#9E423B;stroke-width:3;stroke-linecap:round;stroke-linejoin:round;stroke-miterlimit:10;}
	.st220{fill:none;stroke:#9E423B;stroke-miterlimit:10;}
	.st221{fill:url(#SVGID_32_);stroke:#5B7D12;stroke-width:3;stroke-linecap:round;stroke-linejoin:round;stroke-miterlimit:10;}
	.st222{fill:url(#SVGID_33_);stroke:#2F3F1A;stroke-linecap:round;stroke-linejoin:round;stroke-miterlimit:10;}
	.st223{fill:url(#SVGID_34_);stroke:#2F3F1A;stroke-linecap:round;stroke-linejoin:round;stroke-miterlimit:10;}
	.st224{fill:url(#SVGID_35_);stroke:#2F3F1A;stroke-linecap:round;stroke-linejoin:round;stroke-miterlimit:10;}
	.st225{fill:url(#SVGID_36_);stroke:#2F3F1A;stroke-linecap:round;stroke-linejoin:round;stroke-miterlimit:10;}
	.st226{fill:url(#SVGID_37_);stroke:#2F3F1A;stroke-linecap:round;stroke-linejoin:round;stroke-miterlimit:10;}
	.st227{opacity:0.4;fill:#FFFFFF;}
	.st228{fill:#D68C79;}
	.st229{fill:#E5BAB0;}
	.st230{fill:#9E423B;}
	.st231{fill:url(#SVGID_38_);stroke:#2F3F1A;stroke-width:3;stroke-miterlimit:10;}
	.st232{fill:url(#SVGID_39_);}
	.st233{fill:url(#SVGID_40_);}
	.st234{clip-path:url(#SVGID_42_);fill:#FEFED2;}
	.st235{clip-path:url(#SVGID_42_);fill:#FAFBCD;}
	.st236{clip-path:url(#SVGID_42_);fill:#F6F9C8;}
	.st237{clip-path:url(#SVGID_42_);fill:#F2F7C4;}
	.st238{clip-path:url(#SVGID_42_);fill:#EEF4BF;}
	.st239{clip-path:url(#SVGID_42_);fill:#EAF2BB;}
	.st240{clip-path:url(#SVGID_42_);fill:#E6F0B7;}
	.st241{clip-path:url(#SVGID_42_);fill:#E3EEB3;}
	.st242{clip-path:url(#SVGID_42_);fill:#DFECAF;}
	.st243{clip-path:url(#SVGID_42_);fill:#DCEAAB;}
	.st244{clip-path:url(#SVGID_42_);fill:#D9E8A7;}
	.st245{clip-path:url(#SVGID_42_);fill:#D6E6A4;}
	.st246{clip-path:url(#SVGID_42_);fill:#D3E4A0;}
	.st247{clip-path:url(#SVGID_42_);fill:#D0E39D;}
	.st248{clip-path:url(#SVGID_42_);fill:#CDE19A;}
	.st249{clip-path:url(#SVGID_42_);fill:#CBE097;}
	.st250{clip-path:url(#SVGID_42_);fill:#C8DE94;}
	.st251{clip-path:url(#SVGID_42_);fill:#C5DD91;}
	.st252{clip-path:url(#SVGID_42_);fill:#C3DB8E;}
	.st253{clip-path:url(#SVGID_42_);fill:#C1DA8B;}
	.st254{clip-path:url(#SVGID_42_);fill:#BFD889;}
	.st255{clip-path:url(#SVGID_42_);fill:#BCD786;}
	.st256{clip-path:url(#SVGID_42_);fill:#BAD684;}
	.st257{clip-path:url(#SVGID_42_);fill:#B8D582;}
	.st258{clip-path:url(#SVGID_42_);fill:#B6D47F;}
	.st259{clip-path:url(#SVGID_42_);fill:#B5D37D;}
	.st260{clip-path:url(#SVGID_42_);fill:#B3D27B;}
	.st261{clip-path:url(#SVGID_42_);fill:#B1D179;}
	.st262{clip-path:url(#SVGID_42_);fill:#AFD077;}
	.st263{clip-path:url(#SVGID_42_);fill:#AECF76;}
	.st264{clip-path:url(#SVGID_42_);fill:#ACCE74;}
	.st265{clip-path:url(#SVGID_42_);fill:#ABCD72;}
	.st266{clip-path:url(#SVGID_42_);fill:#AACC71;}
	.st267{clip-path:url(#SVGID_42_);fill:#A8CB6F;}
	.st268{clip-path:url(#SVGID_42_);fill:#A7CB6E;}
	.st269{clip-path:url(#SVGID_42_);fill:#A6CA6C;}
	.st270{clip-path:url(#SVGID_42_);fill:#A5C96B;}
	.st271{clip-path:url(#SVGID_42_);fill:#A3C96A;}
	.st272{clip-path:url(#SVGID_42_);fill:#A2C868;}
	.st273{clip-path:url(#SVGID_42_);fill:#A1C767;}
	.st274{clip-path:url(#SVGID_42_);fill:#A0C766;}
	.st275{clip-path:url(#SVGID_42_);fill:#A0C665;}
	.st276{clip-path:url(#SVGID_42_);fill:#9FC664;}
	.st277{clip-path:url(#SVGID_42_);fill:#9EC563;}
	.st278{clip-path:url(#SVGID_42_);fill:#9DC562;}
	.st279{clip-path:url(#SVGID_42_);fill:#9CC461;}
	.st280{clip-path:url(#SVGID_42_);fill:#9BC460;}
	.st281{clip-path:url(#SVGID_42_);fill:#9BC35F;}
	.st282{clip-path:url(#SVGID_42_);fill:#9AC35F;}
	.st283{clip-path:url(#SVGID_42_);fill:#99C35E;}
	.st284{clip-path:url(#SVGID_42_);fill:#99C25D;}
	.st285{clip-path:url(#SVGID_42_);fill:#98C25D;}
	.st286{clip-path:url(#SVGID_42_);fill:#98C25C;}
	.st287{clip-path:url(#SVGID_42_);fill:#97C15B;}
	.st288{clip-path:url(#SVGID_42_);fill:#96C15A;}
	.st289{clip-path:url(#SVGID_42_);fill:#96C05A;}
	.st290{clip-path:url(#SVGID_42_);fill:#95C059;}
	.st291{clip-path:url(#SVGID_42_);fill:#95C058;}
	.st292{clip-path:url(#SVGID_42_);fill:#94C058;}
	.st293{clip-path:url(#SVGID_42_);fill:#94BF58;}
	.st294{clip-path:url(#SVGID_42_);fill:#94BF57;}
	.st295{clip-path:url(#SVGID_42_);fill:#93BF57;}
	.st296{clip-path:url(#SVGID_42_);fill:#93BF56;}
	.st297{clip-path:url(#SVGID_42_);fill:#93BE56;}
	.st298{clip-path:url(#SVGID_42_);fill:#92BE56;}
	.st299{clip-path:url(#SVGID_42_);fill:#92BE55;}
	.st300{clip-path:url(#SVGID_42_);fill:#91BE55;}
	.st301{clip-path:url(#SVGID_42_);fill:#91BE54;}
	.st302{clip-path:url(#SVGID_42_);fill:#91BD54;}
	.st303{clip-path:url(#SVGID_42_);fill:#90BD54;}
	.st304{clip-path:url(#SVGID_42_);fill:#90BD53;}
</style>
<g>
	<g>
		<path class="st19" d="M40.2,56.8c6-3.4,11-10.5,11-18.7c0-5.6-2.7-11-8.5-17.1c-3.2-3.3-5.5-7.5-6.4-12l-1.5-7h-1.9l-2.1,3.3
			L28,7.9L27.7,9c-1,4.5-3.2,8.7-6.4,12c-5.8,6.1-8.5,11.5-8.5,17.1c0,8.2,5.1,15.2,11,18.7C23.8,56.8,32.5,61.2,40.2,56.8z"/>
	</g>
	<g>
		<g>
			<path class="st228" d="M32.5,58.9V63c0,0.3-0.2,0.5-0.5,0.5c-0.3,0-0.5-0.2-0.5-0.5v-4.1H32.5z"/>
		</g>
		<g>
			<path class="st228" d="M29,58.5l-0.5,3.9c0,0.3-0.2,0.4-0.5,0.4c0,0,0,0-0.1,0c-0.3,0-0.5-0.3-0.4-0.6l0.5-3.9L29,58.5z"/>
		</g>
		<g>
			<path class="st228" d="M25.5,57.7L24.7,61c-0.1,0.2-0.3,0.4-0.5,0.4c0,0-0.1,0-0.1,0c-0.3-0.1-0.4-0.3-0.4-0.6l0.8-3.3L25.5,57.7
				z"/>
		</g>
		<g>
			<path class="st228" d="M39.5,57.6l0.8,3.2c0.1,0.3-0.1,0.5-0.4,0.6c0,0-0.1,0-0.1,0c-0.2,0-0.4-0.1-0.5-0.4l-0.8-3.2L39.5,57.6z"
				/>
		</g>
		<g>
			<path class="st228" d="M35.9,58.4l0.5,3.9c0,0.3-0.2,0.5-0.4,0.6c0,0,0,0-0.1,0c-0.2,0-0.5-0.2-0.5-0.4L35,58.5L35.9,58.4z"/>
		</g>
		<g>
			<path class="st228" d="M34.3,58.7l0.3,4.1c0,0.3-0.2,0.5-0.5,0.5c0,0,0,0,0,0c-0.3,0-0.5-0.2-0.5-0.5l-0.3-4.1L34.3,58.7z"/>
		</g>
		<g>
			<path class="st228" d="M30.8,58.8l-0.2,4.1c0,0.3-0.2,0.5-0.5,0.5c0,0,0,0,0,0c-0.3,0-0.5-0.2-0.5-0.5l0.2-4.1L30.8,58.8z"/>
		</g>
		<g>
			<path class="st228" d="M27.2,58.4l-0.6,3.4c0,0.2-0.3,0.4-0.5,0.4c0,0-0.1,0-0.1,0c-0.3-0.1-0.4-0.3-0.4-0.6l0.6-3.4L27.2,58.4z"
				/>
		</g>
		<g>
			<path class="st228" d="M37.8,58.2l0.6,3.4c0.1,0.3-0.1,0.5-0.4,0.6c0,0-0.1,0-0.1,0c-0.2,0-0.4-0.2-0.5-0.4l-0.6-3.4L37.8,58.2z"
				/>
		</g>
	</g>
	<g>
		<path class="st228" d="M32.3,59.3C23,55.1,17.6,47.3,17.6,38c0-6.8,3.7-11.5,7.2-16c0.8-1,1.7-2.1,2.5-3.2C31,13.7,30,5,30,4.9
			l1-0.1c0,0.4,1,9.2-2.8,14.5c-0.8,1.1-1.7,2.2-2.5,3.2c-3.6,4.6-7,8.9-7,15.4c0,9,5.1,16.4,14.1,20.5L32.3,59.3z"/>
	</g>
	<g>
		<path class="st229" d="M18.4,35.5C18.4,35.5,18.3,35.5,18.4,35.5c-0.4-0.1-0.5-0.3-0.5-0.6c0.9-5.2,4-9.2,6.6-12.5
			c0.2-0.2,0.5-0.2,0.7-0.1c0.2,0.2,0.3,0.5,0.1,0.7c-3.1,4-5.6,7.4-6.4,12C18.8,35.4,18.6,35.5,18.4,35.5z"/>
	</g>
	<g>
		<path class="st228" d="M34.2,59.2l-0.6-0.8c9.4-7.1,12.3-12.5,11.8-21.4c-0.3-5.1-3.6-9.9-6.5-14.2c-1.9-2.8-3.7-5.4-4.5-7.9
			c-1.5-4.3-1.5-12.1-1.5-12.4l1,0c0,0.1,0,7.9,1.4,12.1c0.8,2.3,2.6,4.9,4.4,7.6c3,4.4,6.4,9.4,6.7,14.7
			C46.9,46.2,43.8,51.8,34.2,59.2z"/>
	</g>
	<path class="st228" d="M32.8,58.5c3-4.7,4-13.3,4-19.2c0-9.3-2.6-18.9-3.7-22.8c0-1.5-0.1-2.5-0.2-2.6l-1,0.1c0,0,0,0.4,0.1,0.9
		l-0.4,0.1c0,0,0.2,0.6,0.5,1.5c0,2.5-0.2,6.4-1.5,10.1c-0.4,1.2-1,2.3-1.7,3.4c-1.5,2.6-3.2,5.6-3.2,11c0,6.4,2.1,11.9,6.6,17.3
		L32.8,58.5z M29.7,30.7c0.7-1.2,1.3-2.3,1.8-3.5c0.9-2.5,1.3-5.1,1.5-7.3c1.2,4.7,2.8,12.2,2.8,19.5c0,5.4-0.9,13.1-3.4,17.8
		c-3.9-4.9-5.8-10-5.8-15.9C26.6,36.1,28.2,33.3,29.7,30.7z"/>
	<g>
		<path class="st229" d="M26.2,39.6C26.2,39.6,26.2,39.6,26.2,39.6c-0.3,0-0.5-0.3-0.5-0.5c0.4-4.1,1.8-6.6,3.1-8.8
			c0.2-0.4,0.4-0.7,0.6-1.1c0.1-0.2,0.4-0.3,0.7-0.2c0.2,0.1,0.3,0.4,0.2,0.7c-0.2,0.4-0.4,0.8-0.6,1.1c-1.3,2.3-2.6,4.6-3,8.4
			C26.7,39.4,26.5,39.6,26.2,39.6z"/>
	</g>
	<path class="st230" d="M40.9,58.1c5.9-3.3,11.8-10.8,11.8-20c0-6-2.8-11.8-8.9-18.1c-3.1-3.2-5.1-7.1-6.1-11.3l-1.5-7
		c-0.1-0.7-0.8-1.2-1.4-1.2h-3.3C30.6,0.5,30,1.2,30,2v1.6l-1.7,0.3c-0.6,0.1-1.1,0.6-1.2,1.1l-0.8,3.7c-0.9,4.2-3,8.1-6.1,11.3
		c-6.1,6.3-8.9,12.1-8.9,18.1c0,8,4.6,15.8,11.8,20C23.1,58.2,32.1,63,40.9,58.1z M34.1,56.9c-0.5,0.6-1,0.9-1.6,0.9
		c-1,0-1.9-0.9-1.9-0.9c-5.7-5.4-8.6-11.1-8.6-16.6c0.1-5.4,3.4-10.7,6.2-14.8c2.7-3.8,3.8-7.8,4.2-10.5c0.8,3.3,2,6.9,4,10.5
		c2.2,3.9,4.7,9,4.8,14.2C41.2,45.3,38.6,51.6,34.1,56.9z M27.4,24.9c-2.7,4.4-6.4,9.8-6.4,15.4c-0.1,5.5,2.8,11.3,8.2,16.7
		c-2.8-0.5-4.7-1.4-4.7-1.4c-5.1-3-10.3-9.5-10.3-17.4c0-5.2,2.6-10.3,8.1-16c3.4-3.6,5.8-8,6.8-12.7l0.6-2.7l1.6-0.3
		C31.3,6.4,33.2,15.3,27.4,24.9z M32.9,3.5h0.6l1.3,5.9c1,4.8,3.4,9.2,6.8,12.7c5.5,5.8,8.1,10.9,8.1,16c0,8-5.2,14.5-10.3,17.4
		c-1.4,0.8-2.8,1.2-4.2,1.5c4.4-5.3,6.9-11.7,6.9-17.4c0-5.4-2.7-10.6-4.9-14.7C30.7,12.6,32.9,3.5,32.9,3.5z"/>
	<g>
		<path class="st228" d="M38.6,45C38.6,45,38.6,45,38.6,45c-0.4-0.1-0.5-0.3-0.5-0.6c1-5.4-0.3-10.8-0.3-10.9
			c-0.1-0.3,0.1-0.5,0.4-0.6c0.3-0.1,0.5,0.1,0.6,0.4c0.1,0.2,1.4,5.7,0.3,11.3C39.1,44.8,38.9,45,38.6,45z"/>
	</g>
	<g>
		<path class="st228" d="M31.6,50.6c-0.2,0-0.4-0.2-0.5-0.4c-1.7-10.1,0.6-18.8,0.6-18.9c0.1-0.3,0.3-0.4,0.6-0.4
			c0.3,0.1,0.4,0.3,0.4,0.6c0,0.1-2.2,8.7-0.6,18.5C32.1,50.2,31.9,50.5,31.6,50.6C31.6,50.6,31.6,50.6,31.6,50.6z"/>
	</g>
	<g>
		<circle class="st229" cx="18.2" cy="37.7" r="0.5"/>
	</g>
	<g>
		<circle class="st229" cx="30.9" cy="27.3" r="0.5"/>
	</g>
</g>
</svg>
