<?xml version="1.0" encoding="utf-8"?>
<!-- Generator: Adobe Illustrator 20.0.0, SVG Export Plug-In . SVG Version: 6.00 Build 0)  -->
<svg version="1.1" id="Layer_1" xmlns="http://www.w3.org/2000/svg" xmlns:xlink="http://www.w3.org/1999/xlink" x="0px" y="0px"
	 viewBox="0 0 500 500" style="enable-background:new 0 0 500 500;" xml:space="preserve">
<style type="text/css">
	.st0{fill:#F2CFAA;}
	.st1{fill:#EDB283;}
	.st2{fill:#DFC8B2;}
	.st3{opacity:0.5;fill:none;stroke:#B08269;stroke-width:3;stroke-miterlimit:10;}
	.st4{fill:#00FFFF;}
	.st5{opacity:0.9;fill:none;stroke:#DB7745;stroke-width:3;stroke-miterlimit:10;}
	.st6{opacity:0.5;fill:none;stroke:#DB7745;stroke-width:3;stroke-miterlimit:10;}
	.st7{opacity:0.3;fill:none;stroke:#DB7745;stroke-width:3;stroke-miterlimit:10;}
	.st8{opacity:0.7;fill:none;stroke:#DB7745;stroke-width:3;stroke-miterlimit:10;}
	.st9{fill:#E2AC88;}
	.st10{fill:#B08269;}
	.st11{fill:none;stroke:#B98A71;stroke-width:3;stroke-miterlimit:10;}
	.st12{fill:none;stroke:#C39377;stroke-width:3;stroke-miterlimit:10;}
	.st13{fill:none;stroke:#CD9B7E;stroke-width:3;stroke-miterlimit:10;}
	.st14{fill:none;stroke:#D7A484;stroke-width:3;stroke-miterlimit:10;}
	.st15{fill:none;stroke:#7C5B4F;stroke-miterlimit:10;}
	.st16{fill:#7C5B4F;}
	.st17{fill:#C6A58F;}
	.st18{fill:#B98A71;}
	.st19{fill:#C39377;}
	.st20{fill:#CD9B7E;}
	.st21{fill:#D7A484;}
	.st22{fill:#FFEFDC;stroke:#5E3E27;stroke-miterlimit:10;}
	.st23{opacity:0.2;fill:none;stroke:#D0A672;stroke-width:3;stroke-miterlimit:10;}
	.st24{opacity:0.4;fill:none;stroke:#D0A672;stroke-width:3;stroke-miterlimit:10;}
	.st25{opacity:0.6;fill:none;stroke:#D0A672;stroke-width:3;stroke-miterlimit:10;}
	.st26{fill:#5E3E27;}
	.st27{fill:none;stroke:#5E3E27;stroke-miterlimit:10;}
	.st28{fill:#FFEFDC;}
	.st29{fill:#F5E0C8;}
	.st30{fill:#EBD2B4;}
	.st31{fill:#E2C39E;}
	.st32{opacity:0.6;fill:none;stroke:#DB7745;stroke-width:3;stroke-miterlimit:10;}
	.st33{fill:none;stroke:#863B2B;stroke-linecap:round;stroke-miterlimit:10;}
	.st34{fill:#863B2B;}
	.st35{fill:none;stroke:#863B2B;stroke-miterlimit:10;}
	.st36{fill:#DB7D51;}
	.st37{fill:#E29468;}
	.st38{fill:#E6A074;}
	.st39{fill:#DE895D;}
	.st40{fill:#E29A71;}
</style>
<g>
	<polygon class="st0" points="191.6,410.4 229.9,437 272,416.7 301,256.4 200.3,253 	"/>
	<path class="st1" d="M438.5,246.7c13.4-2.6,23.2-14.3,23.2-28v0c0-34-37.7-63.6-93.1-78.4c-25.7-6.9-50.4-17.8-72.1-33.2
		c-26.8-19-65-30.9-107.5-30.9c-81.2,0-150.9,44.1-150.9,109.5c0,5.4,1.1,12.1,3,19.2c6,22.6,24.9,39.4,47.9,43.6
		C147.9,259.3,283.4,276.8,438.5,246.7z"/>
	<path class="st36" d="M203.1,76.6c-17.7,0.4-34,1.3-48.9,2.4c-30,4.9-57,16.1-77.3,32.1c16.2-2.8,35-5.6,56.4-7.7
		c38.9-3.9,90.5-6.3,152.9-2.9C263.6,87.3,234.8,78.6,203.1,76.6z"/>
	<path class="st37" d="M131.1,126c-31.9,3.2-58.2,7.6-78.8,11.9c-5,7.9-8.9,16.5-11.2,25.6c21.3-5.1,52.3-11,92.3-15.1
		c63.7-6.4,161.2-8.7,284.4,11.5c-13.9-7.9-30.5-14.6-49.1-19.5c-13.6-3.6-26.9-8.4-39.6-14.4C246.4,118.6,179.3,121.1,131.1,126z"
		/>
	<path class="st38" d="M131.1,148.5c-37.9,3.8-68,9.3-89.8,14.3c-2,7.3-3,14.9-3,22.9c0,0.3,0,0.6,0,1c21.3-5.2,53.3-11.5,95-15.7
		c69.4-7,178.9-9.1,317.9,17.5c-7.7-10.8-19.4-20.5-34.2-28.9C293.5,139.6,195.4,142,131.1,148.5z"/>
	<path class="st39" d="M131.1,103.5c-20.1,2-38,4.5-53.6,7.2c-10.3,8.1-19,17.4-25.5,27.8c20.5-4.4,47.8-9.2,81.4-12.6
		c47.6-4.8,114-7.3,195.9,0.2c-11.4-5.3-22.4-11.6-32.7-19c-3.3-2.4-6.8-4.6-10.4-6.7C223,97.1,170.7,99.5,131.1,103.5z"/>
	<path class="st40" d="M260.2,286.7c-21.3,0-42.7-0.7-64-2l1.4-22.5c33.5,2.1,67.4,2.5,100.7,1.2l0.9,22.5
		C286.2,286.5,273.2,286.7,260.2,286.7z"/>
	<path class="st34" d="M450.3,155c-18.9-15.6-45.1-28.1-75.8-36.4c-24.3-6.5-46.1-16.5-64.9-29.9c-31.9-22.6-74.7-35.1-120.5-35.1
		c-44.9,0-87,12.2-118.8,34.2c-35.2,24.5-54.6,59.2-54.6,97.7c0,7.2,1.3,15.6,3.7,25c8.2,30.6,33.9,54.2,65.6,60
		c19.4,3.6,47.4,7.9,82.1,11.1c13,1.2,22.9,12.3,22.5,25.4c-1.2,35-5.9,64.6-9.2,81.8c-4.8,24.9,11.3,49.8,35.7,55.6
		c6.5,1.5,13,2.3,19.5,2.3c1.6,0,3.3-0.1,4.9-0.1c23.5-1.4,43.5-18.8,48.8-42.3c4.7-20.8,12-57.2,16.4-98.7
		c1.3-11.9,10.9-21.2,22.9-22c39-2.7,77.3-7.6,114.1-14.7c24-4.6,41.4-25.7,41.5-50l0,0v0C484.2,195.4,472.5,173.3,450.3,155z
		 M267.4,399.3c-3,13.5-14.4,24-28.2,24.8c-1.2,0.1-2.4,0.1-3.5,0.1c-5.1,0-10-0.7-14.3-1.7c-12.8-3-21.2-16.5-18.7-29.5
		c4.4-23.1,10.6-64.4,9.8-111.6c-0.1-8.3,6.7-15,15-14.8c0.1,0,0.1,0,0.2,0c10.9,0.4,21.8,0.5,32.7,0.5c3.5,0,6.9,0,10.4-0.1
		c8.6-0.1,15.3,7.2,14.6,15.7C281.5,331.4,272.7,375.7,267.4,399.3z M367.7,144c55.7,14.8,90.3,43.5,90.3,74.7
		c0,11.8-8.5,22-20.2,24.3c-67.3,13-138,18.5-210,16.1c-60-1.9-108.1-8.9-138-14.4c-21.8-4-39.4-20.1-45-40.9
		c-1.9-7-2.9-13.3-2.9-18.2c0-29.7,15.4-56.7,43.4-76.2c27.3-19,64.2-29.5,103.8-29.5c39.8,0,78.2,11,105.3,30.3c2,1.4,4,2.8,6,4.1
		c5.7,3.7,2.9,12.6-3.8,12.5c-14.5-0.2-29.6,0.8-44.8,3.6c-2,0.4-3.5,2.2-3.2,4.2c0.3,2.1,2.3,3.6,4.4,3.2
		C252.9,137.8,305,127.3,367.7,144z"/>
	
		<ellipse transform="matrix(0.5579 -0.8299 0.8299 0.5579 -60.4929 149.8625)" class="st34" cx="110.4" cy="131.7" rx="8.6" ry="8.6"/>
	
		<ellipse transform="matrix(0.5579 -0.8299 0.8299 0.5579 -37.1875 166.7852)" class="st34" cx="138" cy="118.3" rx="8.6" ry="8.6"/>
	
		<ellipse transform="matrix(0.5579 -0.8299 0.8299 0.5579 -63.4507 178.6431)" class="st34" cx="136" cy="148.9" rx="8.6" ry="8.6"/>
</g>
</svg>
