<?xml version="1.0" encoding="utf-8"?>
<!-- Generator: Adobe Illustrator 20.0.0, SVG Export Plug-In . SVG Version: 6.00 Build 0)  -->
<svg version="1.1" xmlns="http://www.w3.org/2000/svg" xmlns:xlink="http://www.w3.org/1999/xlink" x="0px" y="0px"
	 viewBox="0 0 200 200" style="enable-background:new 0 0 200 200;" xml:space="preserve">
<style type="text/css">
	.st0{fill:#7C9800;}
	.st1{fill:#164E16;}
	.st2{fill:#4D831C;stroke:#2A481D;stroke-width:3;stroke-linecap:round;stroke-linejoin:round;stroke-miterlimit:10;}
	.st3{fill:#4D831C;stroke:#184C28;stroke-width:3;stroke-linecap:round;stroke-linejoin:round;stroke-miterlimit:10;}
	.st4{fill:#FFBC42;stroke:#E6681E;stroke-width:3;stroke-miterlimit:10;}
	.st5{fill:none;stroke:#FFFFFF;stroke-linecap:round;stroke-miterlimit:10;}
	.st6{clip-path:url(#SVGID_2_);}
	.st7{fill:#F40000;stroke:#7B000E;stroke-width:3;stroke-miterlimit:10;}
	.st8{fill:#F22F2E;}
	.st9{opacity:0.5;fill:#840D0D;}
	.st10{fill:#7DB34C;}
	.st11{fill:#44712A;}
	.st12{fill:#4D831C;}
	.st13{fill:#2A481D;}
	.st14{fill:#AFD048;stroke:#6B9311;stroke-width:3;stroke-miterlimit:10;}
	.st15{fill:none;stroke:#6B9311;stroke-miterlimit:10;}
	.st16{fill:#AFD048;}
	.st17{fill:#F40000;stroke:#BA0D0D;stroke-width:3;stroke-miterlimit:10;}
	.st18{fill:none;stroke:#FFFFFF;stroke-linecap:round;stroke-linejoin:round;stroke-miterlimit:10;}
	.st19{fill:#CDA347;stroke:#A2690C;stroke-width:3;stroke-miterlimit:10;}
	.st20{fill:#A2CC62;}
	.st21{fill:#68664C;stroke:#522B25;stroke-width:3;stroke-linecap:round;stroke-linejoin:round;stroke-miterlimit:10;}
	.st22{fill:#B63E34;stroke:#522B25;stroke-width:3;stroke-miterlimit:10;}
	.st23{fill:#ADD481;}
	.st24{fill:#68664C;}
	.st25{fill:#593156;stroke:#331E31;stroke-width:3;stroke-miterlimit:10;}
	.st26{fill:#22B573;stroke:#184C28;stroke-width:3;stroke-linecap:round;stroke-linejoin:round;stroke-miterlimit:10;}
	.st27{fill:#EE0000;}
	.st28{fill:#9A0601;}
	.st29{fill:#EE0000;stroke:#9A0601;stroke-linecap:round;stroke-linejoin:round;stroke-miterlimit:10;}
	.st30{fill:#FFFFFF;}
	.st31{clip-path:url(#SVGID_4_);}
	.st32{fill:#00FFFF;}
	.st33{fill:#456A0A;}
	.st34{fill:#183300;}
	.st35{fill:#FF2214;}
	.st36{fill:#661900;}
	.st37{fill:#88A501;}
	.st38{fill:#3B6700;}
	.st39{fill:#FC4100;}
	.st40{fill:#9F0500;}
	.st41{fill:none;stroke:#6B9311;stroke-width:3;stroke-linecap:round;stroke-miterlimit:10;}
	.st42{fill:#6B9311;}
	.st43{fill:#593156;}
	.st44{fill:#331E31;}
	.st45{fill:#AFD048;stroke:#6B9311;stroke-width:3;stroke-linecap:round;stroke-linejoin:round;stroke-miterlimit:10;}
	.st46{fill:none;stroke:#6B9311;stroke-linejoin:round;stroke-miterlimit:10;}
	.st47{fill:#B63E34;stroke:#522B25;stroke-miterlimit:10;}
	.st48{fill:none;stroke:#522B25;stroke-miterlimit:10;}
	.st49{fill:none;stroke:#522B25;stroke-width:3;stroke-miterlimit:10;}
	.st50{fill:#7C9800;stroke:#0C4C0C;stroke-width:3;stroke-linecap:round;stroke-linejoin:round;stroke-miterlimit:10;}
	.st51{fill:#F04D02;stroke:#992216;stroke-width:3;stroke-miterlimit:10;}
	.st52{fill:none;stroke:#992216;stroke-width:3;stroke-miterlimit:10;}
	.st53{fill:#B63E34;}
	.st54{fill:#522B25;}
	.st55{fill:none;stroke:#40760E;stroke-width:3;stroke-linecap:round;stroke-linejoin:round;stroke-miterlimit:10;}
	.st56{fill:none;stroke:#40760E;stroke-linecap:round;stroke-linejoin:round;stroke-miterlimit:10;}
	.st57{fill:#A2CC62;stroke:#40760E;stroke-width:3;stroke-linecap:round;stroke-linejoin:round;stroke-miterlimit:10;}
	.st58{fill:#A2CC62;stroke:#40760E;stroke-linecap:round;stroke-linejoin:round;stroke-miterlimit:10;}
	.st59{fill:#9EC161;}
	.st60{fill:#40760E;}
	.st61{fill:#AFD048;stroke:#6B9311;stroke-width:3;stroke-linejoin:round;stroke-miterlimit:10;}
	.st62{fill:#663965;}
	.st63{fill:#9D610B;}
	.st64{fill:none;stroke:#A2690C;stroke-linecap:round;stroke-miterlimit:10;}
	.st65{fill:#6D4E2B;}
	.st66{fill:#CDA347;}
	.st67{fill:#7F500A;}
	.st68{fill:#F40000;stroke:#BA0D0D;stroke-miterlimit:10;}
	.st69{fill:#F40000;stroke:#B63E34;stroke-width:3;stroke-miterlimit:10;}
	.st70{fill:#F40000;stroke:#B63E34;stroke-miterlimit:10;}
	.st71{fill:#F40000;stroke:#990D0D;stroke-width:3;stroke-miterlimit:10;}
	.st72{fill:#F40000;stroke:#990D0D;stroke-miterlimit:10;}
	.st73{fill:#F40000;}
	.st74{fill:#990D0D;}
	.st75{fill:#FF9D00;}
	.st76{fill:#E6681E;}
	.st77{fill:#FFCB00;}
	.st78{fill:#B58B06;}
	.st79{fill:#3A4C09;}
	.st80{fill:#B94850;stroke:#6C0A04;stroke-width:3;stroke-miterlimit:10;}
	.st81{fill:#CE8645;stroke:#CE8645;stroke-width:0.5;stroke-miterlimit:10;}
	.st82{fill:#6C0A04;stroke:#6C0A04;stroke-width:0.5;stroke-miterlimit:10;}
	.st83{fill:none;stroke:#6C0A04;stroke-linecap:round;stroke-miterlimit:10;}
	.st84{fill:#B94850;}
	.st85{fill:#CE8645;}
	.st86{fill:#6C0A04;}
	.st87{fill:#8C4F6F;}
	.st88{fill:#E7C456;}
	.st89{fill:#391A26;}
	.st90{fill:#E7C456;stroke:#AC5E17;stroke-width:3;stroke-miterlimit:10;}
	.st91{fill:#4F250E;stroke:#4F250E;stroke-width:0.5;stroke-miterlimit:10;}
	.st92{fill:none;stroke:#AC5E17;stroke-linecap:round;stroke-miterlimit:10;}
	.st93{fill:#4F250E;}
	.st94{fill:#995116;}
	.st95{fill:#FD801E;stroke:#9E0E00;stroke-width:3;stroke-miterlimit:10;}
	.st96{fill:#FD801E;stroke:#9E0E00;stroke-linecap:round;stroke-miterlimit:10;}
	.st97{opacity:0.8;fill:#FFBC42;}
	.st98{opacity:0.8;fill:#D03400;}
	.st99{fill:none;stroke:#9E0E00;stroke-linecap:round;stroke-miterlimit:10;}
	.st100{fill:#FFBC42;}
	.st101{fill:none;stroke:#9E0E00;stroke-width:3;stroke-miterlimit:10;}
	.st102{fill:#A7C92B;stroke:#264008;stroke-width:3;stroke-linecap:round;stroke-linejoin:round;stroke-miterlimit:10;}
	.st103{fill:#A7C92B;stroke:#264008;stroke-width:3;stroke-miterlimit:10;}
	.st104{fill:#344C00;}
	.st105{fill:#FD801E;}
	.st106{fill:#9E0E00;}
	.st107{fill:#FDAF48;}
	.st108{fill:#D74E1E;}
	.st109{opacity:0.8;fill:#68664C;}
	.st110{fill:#775E49;}
	.st111{fill:#FF7A00;}
	.st112{fill:#FF7A00;stroke:#F44500;stroke-width:3;stroke-miterlimit:10;}
	.st113{fill:none;stroke:#F44500;stroke-linecap:round;stroke-linejoin:round;stroke-miterlimit:10;}
	.st114{fill:#FF7A00;stroke:#F44500;stroke-linecap:round;stroke-linejoin:round;stroke-miterlimit:10;}
	.st115{fill:#F44500;}
	.st116{fill:#F6E600;}
	.st117{fill:#8DCC50;}
	.st118{fill:#A2A121;}
	.st119{fill:#F9EFA7;}
	.st120{fill:#6E905E;}
	.st121{fill:#7B000E;}
	.st122{fill:#F22F2E;stroke:#7B000E;stroke-width:3;stroke-miterlimit:10;}
	.st123{fill:#7DB34C;stroke:#44712A;stroke-width:3;stroke-miterlimit:10;}
	.st124{fill:none;stroke:#44712A;stroke-miterlimit:10;}
	.st125{fill:none;stroke:#7B000E;stroke-linecap:round;stroke-linejoin:round;stroke-miterlimit:10;}
	.st126{fill:none;stroke:#7B000E;stroke-linecap:round;stroke-miterlimit:10;}
	.st127{fill:#FA6200;stroke:#D54300;stroke-width:3;stroke-miterlimit:10;}
	.st128{fill:#FA6200;stroke:#D54300;stroke-linecap:round;stroke-miterlimit:10;}
	.st129{fill:none;stroke:#F44500;stroke-linecap:round;stroke-miterlimit:10;}
	.st130{fill:#164E16;stroke:#071907;stroke-width:3;stroke-miterlimit:10;}
	.st131{fill:none;stroke:#071907;stroke-linecap:round;stroke-linejoin:round;stroke-miterlimit:10;}
	.st132{fill:#071907;}
	.st133{fill:#7DB34C;stroke:#164E16;stroke-width:3;stroke-miterlimit:10;}
	.st134{fill:none;stroke:#164E16;stroke-miterlimit:10;}
	.st135{fill:#8A9D1F;}
	.st136{fill:#6E8517;}
	.st137{opacity:0.1;fill:none;stroke:#EBDE00;stroke-width:3;stroke-miterlimit:10;}
	.st138{opacity:0.25;fill:none;stroke:#EBDE00;stroke-width:3;stroke-miterlimit:10;}
	.st139{opacity:0.4;fill:none;stroke:#EBDE00;stroke-width:3;stroke-miterlimit:10;}
	.st140{opacity:0.55;fill:none;stroke:#EBDE00;stroke-width:3;stroke-miterlimit:10;}
	.st141{opacity:0.7;fill:none;stroke:#EBDE00;stroke-width:3;stroke-miterlimit:10;}
	.st142{opacity:0.85;fill:none;stroke:#EBDE00;stroke-width:3;stroke-miterlimit:10;}
	.st143{fill:none;stroke:#EBDE00;stroke-width:3;stroke-miterlimit:10;}
	.st144{fill:#A7C92B;}
	.st145{fill:#EBDE00;}
	.st146{fill:#AEC939;}
	.st147{fill:#B8CC35;}
	.st148{fill:#C2CF33;}
	.st149{fill:#CCD331;}
	.st150{fill:#D7D631;}
	.st151{fill:#E0D930;}
	.st152{fill:#264008;}
	.st153{fill:none;stroke:#00FFFF;stroke-miterlimit:10;}
	.st154{clip-path:url(#SVGID_6_);}
	.st155{fill:#F22F2E;stroke:#9E0E00;stroke-width:3;stroke-miterlimit:10;}
	.st156{fill:#A7C92B;stroke:#164E16;stroke-width:3;stroke-miterlimit:10;}
	.st157{clip-path:url(#SVGID_8_);}
	.st158{fill:#F9A361;}
	.st159{fill:none;stroke:#992216;stroke-linecap:round;stroke-miterlimit:10;}
	.st160{fill:#0C4C0C;}
	.st161{fill:#F04D02;}
	.st162{fill:#992216;}
	.st163{fill:none;stroke:#7B000E;stroke-width:3;stroke-miterlimit:10;}
	.st164{fill:none;stroke:#164E16;stroke-linecap:round;stroke-miterlimit:10;}
	.st165{fill:#FFBC42;stroke:#9E0E00;stroke-width:3;stroke-miterlimit:10;}
	.st166{fill:#FFBC42;stroke:#9E0E00;stroke-miterlimit:10;}
	.st167{fill:#D03400;}
	.st168{fill:#FFBC42;stroke:#E6681E;stroke-linecap:round;stroke-miterlimit:10;}
	.st169{fill:#184C28;}
	.st170{fill:#FF9D00;stroke:#E6681E;stroke-linecap:round;stroke-miterlimit:10;}
	.st171{fill:#F97306;}
	.st172{fill:#D54300;}
	.st173{fill:#FFD003;}
	.st174{fill:#D17D01;}
	.st175{fill:#8BA00D;stroke:#164E16;stroke-width:3;stroke-linejoin:round;stroke-miterlimit:10;}
	.st176{fill:#8BA00D;}
	.st177{fill:#FFD003;stroke:#D17D01;stroke-width:3;stroke-miterlimit:10;}
	.st178{fill:none;stroke:#FEA502;stroke-linecap:round;stroke-linejoin:round;stroke-miterlimit:10;}
	.st179{fill:#FEA502;}
</style>
<g id="Layer_1">
	<path class="st144" d="M145.2,75.4c-4,7.8-4.9,16.8-3.4,25.4c2,11.3-3.1,23.2-13.7,29.2c-4.7,2.7-9.9,3.9-15,3.7
		c-9.7-0.4-19.1,4.5-24.1,12.8c-0.3,0.5-0.6,1-0.9,1.4c-7.6,10.9-22.2,14.4-34.4,9c-29.6-13.3-41.6-37.3-41.6-37.3
		c-1.9-3-6.6-0.9-5.7,2.5c10.5,39.5,49.6,68.4,89.8,68.4c54.8,0,97.7-40.8,97.7-100.2c0-4.6-1-9-3-12.9L145.2,75.4z"/>
	<path class="st30" d="M152.5,99c-0.8,0-1.6-0.6-1.7-1.5c-0.3-2.9-0.2-5.8,0.2-8.5c0.1-0.9,1-1.5,1.9-1.4c0.9,0.1,1.5,1,1.4,1.9
		c-0.4,2.4-0.4,5-0.2,7.6c0.1,0.9-0.6,1.7-1.5,1.8C152.6,99,152.6,99,152.5,99z"/>
	<path class="st1" d="M101.5,177.1c-0.8,0-1.6-0.7-1.6-1.5c-0.1-0.9,0.6-1.7,1.5-1.8c20.7-1.4,38.8-9.5,52.2-23.4
		c13.3-13.8,20.9-32.1,21.8-52.8c0-0.9,0.8-1.6,1.7-1.6c0,0,0,0,0,0c0.9,0,1.6,0.8,1.6,1.7c-1,21.5-8.8,40.6-22.7,55
		c-14,14.5-32.8,23-54.4,24.4C101.6,177.1,101.6,177.1,101.5,177.1z"/>
	<path class="st176" d="M144.1,73.2L144.1,73.2c3.7-6,9.7-10.5,16.7-12.2c0,0,2.6-22.8,18.9-52.8c0.7-1.3,2.2-1.9,3.6-1.8l0,0
		c2.8,0.2,4.4,3.3,3.1,5.7c-9.8,18-11.6,38.9-11.9,49c6.9,1.8,12.7,6.2,16.3,12L144.1,73.2z"/>
	<path class="st1" d="M195.4,74.8c0-0.1,0.1-0.2,0.1-0.2c0.5-1.4,0.3-2.9-0.5-4.2c-2.4-3.9-5.6-7.2-9.3-9.7
		c-3.8-2.6-5.9-7.1-5.4-11.6c1.3-10.2,4.1-23.1,10.4-34.7c1.4-2.7,1.5-5.8,0-8.5c-1.4-2.6-4.1-4.4-7.1-4.6c-3.5-0.3-6.8,1.5-8.4,4.4
		c-10.6,19.6-15.5,36.1-17.8,45.7c-0.8,3.4-3,6.2-6,7.9c-4.7,2.7-8.7,6.5-11.6,11.2c-0.8,1.3-0.9,2.8-0.5,4.2
		c0.1,0.2,0.2,0.4,0.3,0.6c-3.4,8-4.4,17-2.7,26.2c1.7,9.5-2.8,19.2-11.2,24c-3.8,2.1-8,3.2-12.3,3c-11.6-0.5-22.6,5.3-28.6,15.2
		c-0.2,0.4-0.5,0.8-0.8,1.2c-6,8.7-18.1,11.8-28.2,7.3c-27.5-12.4-39.1-34.7-39.2-35l-0.3-0.5c-2.2-3.4-6.4-4.6-10.1-2.9
		c-3.7,1.7-5.6,5.6-4.5,9.5c10.9,41.1,51.6,72.1,94.6,72.1c28.2,0,54.1-10.4,72.9-29.3c19.2-19.2,29.8-46.2,29.8-75.9
		C199,84.8,197.7,79.5,195.4,74.8z M165.8,61.5c0-0.1,0.8-6.7,4.1-17.3c0.2-0.7,1.2-0.4,1.1,0.2c-1,6.5-1.3,12.2-1.4,16.4
		c-0.1,2.3,1.4,4.4,3.6,4.9c2.1,0.5,4.1,1.3,5.9,2.4c1.4,0.8,1,3-0.6,3.3c-7.3,1.5-14.7,1.5-22,0.1c-1.6-0.3-2-2.4-0.6-3.3
		c1.9-1.2,4-2,6.1-2.6C164,65.3,165.5,63.6,165.8,61.5z M96.3,185.4c-29.3,0-57.4-16-73.6-39.9c-1-1.5,1-3.2,2.3-2
		c6.7,6.2,15.5,12.7,26.7,17.7c14.6,6.6,31.7,2.1,40.5-10.7c0.4-0.5,0.7-1.1,1.1-1.7c4.1-6.7,11.7-10.7,19.7-10.4
		c7.7,0.3,15.2-2.1,21.5-6.8c9.9-7.6,14.2-20.2,12.2-32.4c-0.8-4.9-0.7-9.7,0.3-14.2c0.6-2.8,3.5-4.6,6.2-4c4.6,1,9.4,1.5,14.1,1.5
		c5,0,10-0.6,14.9-1.7c2.8-0.6,5.6,1.1,6.3,4c0.4,1.7,0.6,3.5,0.6,5.3C189.1,145.4,150.1,185.4,96.3,185.4z"/>
	<path class="st1" d="M83.5,172.9c-0.6,0-1.2-0.3-1.5-0.9c-0.4-0.8,0-1.8,0.8-2.2c5.6-2.7,10.4-6.8,13.8-12
		c5.3-8.1,15-12.5,25.2-11.5c7.2,0.7,14.3-0.9,20.6-4.7c11.5-7,17.6-20.1,15.7-33.4c-0.1-0.9,0.5-1.8,1.4-1.9
		c0.9-0.1,1.8,0.5,1.9,1.4c2.2,14.6-4.6,29-17.2,36.7c-6.8,4.2-14.7,5.9-22.6,5.2c-9-0.9-17.4,2.9-22.1,10
		c-3.7,5.7-9,10.2-15.1,13.1C84,172.9,83.8,172.9,83.5,172.9z"/>
	<path class="st30" d="M103.5,164c-0.3,0-0.6-0.1-0.9-0.3c-0.8-0.5-1-1.5-0.5-2.3c3.5-5.3,10-8.6,16.8-8.6c0.9,0,1.7,0.7,1.7,1.7
		s-0.7,1.7-1.7,1.7c-5.8,0-11.2,2.7-14.1,7.1C104.6,163.8,104.1,164,103.5,164z"/>
	<path class="st30" d="M142.7,137c-0.5,0-1-0.2-1.3-0.6c-0.6-0.7-0.5-1.8,0.3-2.3c6.7-5.3,10.5-13.6,10-22.2c0-0.9,0.7-1.7,1.6-1.7
		c0.9,0,1.7,0.7,1.7,1.6c0.5,9.6-3.7,19-11.3,24.9C143.4,136.9,143,137,142.7,137z"/>
	<circle class="st1" cx="76.3" cy="173.5" r="1.7"/>
	
		<ellipse transform="matrix(2.334715e-02 -0.9997 0.9997 2.334715e-02 -84.6352 264.7927)" class="st1" cx="93.2" cy="175.7" rx="1.7" ry="1.7"/>
	<circle class="st30" cx="153.1" cy="104.7" r="1.7"/>
</g>
<g id="Layer_2">
</g>
</svg>
