<?xml version="1.0" encoding="utf-8"?>
<!-- Generator: Adobe Illustrator 20.1.0, SVG Export Plug-In . SVG Version: 6.00 Build 0)  -->
<svg version="1.1" id="Layer_1" xmlns="http://www.w3.org/2000/svg" xmlns:xlink="http://www.w3.org/1999/xlink" x="0px" y="0px"
	 viewBox="0 0 500 500" style="enable-background:new 0 0 500 500;" xml:space="preserve">
<style type="text/css">
	.st0{fill:#F22F2E;stroke:#7B000E;stroke-width:5;stroke-miterlimit:10;}
	.st1{fill:#64A025;stroke:#164E16;stroke-width:5;stroke-linecap:round;stroke-miterlimit:10;}
	.st2{fill:#F4C01F;stroke:#B26D09;stroke-width:5;stroke-miterlimit:10;}
	.st3{fill:#FFA200;stroke:#A84902;stroke-width:5;stroke-miterlimit:10;}
	.st4{fill:#7C9800;stroke:#164E16;stroke-width:5;stroke-miterlimit:10;}
	.st5{fill:#4D831C;stroke:#164E16;stroke-width:5;stroke-miterlimit:10;}
	.st6{fill:#F22F2E;}
	.st7{fill:#7C9800;stroke:#164E16;stroke-width:5;stroke-linejoin:round;stroke-miterlimit:10;}
	.st8{fill:#F22F2E;stroke:#7B000E;stroke-miterlimit:10;}
	.st9{fill:#7C9800;}
	.st10{fill:#164E16;}
	.st11{fill:#4D831C;stroke:#2A481D;stroke-width:4;stroke-miterlimit:10;}
	.st12{fill:#6EA336;stroke:#2A481D;stroke-width:4;stroke-linecap:round;stroke-linejoin:round;stroke-miterlimit:10;}
	.st13{fill:#8DCC50;stroke:#A2A121;stroke-width:5;stroke-miterlimit:10;}
	.st14{fill:#4D831C;stroke:#071907;stroke-width:5;stroke-linejoin:round;stroke-miterlimit:10;}
	.st15{fill:#164E16;stroke:#071907;stroke-width:3;stroke-miterlimit:10;}
	.st16{fill:#FFD003;stroke:#D17D01;stroke-width:3;stroke-miterlimit:10;}
	.st17{fill:#E6E6E6;}
	.st18{fill:#D9E021;}
	.st19{fill:#F22F2E;stroke:#7B000E;stroke-width:3;stroke-miterlimit:10;}
	.st20{fill:none;stroke:#FFFFFF;stroke-linecap:round;stroke-linejoin:round;stroke-miterlimit:10;}
	.st21{fill:none;stroke:#FFFFFF;stroke-linecap:round;stroke-miterlimit:10;}
	.st22{fill:#FFFFFF;}
	.st23{fill:none;stroke:#7B000E;stroke-linecap:round;stroke-linejoin:round;stroke-miterlimit:10;}
	.st24{fill:none;stroke:#7B000E;stroke-linecap:round;stroke-miterlimit:10;}
	.st25{fill:#7B000E;}
	.st26{fill:#4D831C;}
	.st27{fill:#2A481D;}
	.st28{fill:#FF7A00;}
	.st29{fill:#FF7A00;stroke:#F44500;stroke-width:3;stroke-miterlimit:10;}
	.st30{fill:none;stroke:#F44500;stroke-linecap:round;stroke-linejoin:round;stroke-miterlimit:10;}
	.st31{fill:#FF7A00;stroke:#F44500;stroke-linecap:round;stroke-linejoin:round;stroke-miterlimit:10;}
	.st32{fill:#F44500;}
	.st33{fill:#8BA00D;stroke:#164E16;stroke-width:3;stroke-linejoin:round;stroke-miterlimit:10;}
	.st34{clip-path:url(#SVGID_2_);}
	.st35{fill:#F40000;stroke:#7B000E;stroke-width:3;stroke-miterlimit:10;}
	.st36{fill:#7DB34C;stroke:#164E16;stroke-width:3;stroke-miterlimit:10;}
	.st37{fill:none;stroke:#164E16;stroke-miterlimit:10;}
	.st38{fill:none;stroke:#7B000E;stroke-width:3;stroke-miterlimit:10;}
	.st39{fill:#A7C92B;stroke:#164E16;stroke-width:3;stroke-miterlimit:10;}
	.st40{fill:none;stroke:#164E16;stroke-linecap:round;stroke-miterlimit:10;}
	.st41{fill:#8BA00D;}
	.st42{fill:#999999;}
	.st43{fill:#A7C92B;}
	.st44{fill:none;stroke:#FEA502;stroke-linecap:round;stroke-linejoin:round;stroke-miterlimit:10;}
	.st45{fill:#FFD003;}
	.st46{fill:#D17D01;}
	.st47{fill:#FEA502;}
	.st48{fill:#4D831C;stroke:#2A481D;stroke-width:3;stroke-linecap:round;stroke-linejoin:round;stroke-miterlimit:10;}
	.st49{fill:#FA6200;stroke:#D54300;stroke-width:3;stroke-miterlimit:10;}
	.st50{fill:#FA6200;stroke:#D54300;stroke-linecap:round;stroke-miterlimit:10;}
	.st51{fill:none;stroke:#F44500;stroke-linecap:round;stroke-miterlimit:10;}
	.st52{fill:#FF9D00;stroke:#E6681E;stroke-linecap:round;stroke-miterlimit:10;}
	.st53{fill:#F97306;}
	.st54{fill:#D54300;}
	.st55{fill:#7DB34C;stroke:#44712A;stroke-width:3;stroke-miterlimit:10;}
	.st56{fill:none;stroke:#44712A;stroke-miterlimit:10;}
	.st57{fill:#7DB34C;}
	.st58{fill:#40760E;}
	.st59{fill:none;stroke:#071907;stroke-miterlimit:10;}
	.st60{fill:none;stroke:#071907;stroke-linecap:round;stroke-linejoin:round;stroke-miterlimit:10;}
	.st61{fill:#071907;}
	.st62{fill:#44712A;}
	.st63{fill:#6E905E;}
	.st64{fill:#456A0A;}
	.st65{fill:#183300;}
	.st66{fill:#FF2214;}
	.st67{fill:#661900;}
	.st68{fill:#FFDC00;}
	.st69{fill:#7C9800;stroke:#164E16;stroke-width:3;stroke-miterlimit:10;}
	.st70{fill:none;stroke:#D17D01;stroke-width:0.75;stroke-miterlimit:10;}
	.st71{fill:#7C9800;stroke:#164E16;stroke-linejoin:round;stroke-miterlimit:10;}
	.st72{fill:none;stroke:#164E16;stroke-linejoin:round;stroke-miterlimit:10;}
	.st73{fill:#8A9D1F;}
	.st74{fill:#1B4700;}
	.st75{fill:none;stroke:#7C9800;stroke-width:3;stroke-linecap:round;stroke-linejoin:round;stroke-miterlimit:10;}
	.st76{opacity:0.6;fill:none;stroke:#FFFFFF;stroke-linecap:round;stroke-miterlimit:10;}
	.st77{fill:none;stroke:#7B000E;stroke-miterlimit:10;}
	.st78{opacity:0.4;fill:none;stroke:#FFFFFF;stroke-linecap:round;stroke-linejoin:round;stroke-miterlimit:10;}
	.st79{fill:none;stroke:#FFFFFF;stroke-width:7.8511;stroke-linecap:round;stroke-miterlimit:10;}
	.st80{fill:#B0C06B;}
	.st81{fill:#F8ACAC;}
	.st82{fill:none;stroke:#FFFFFF;stroke-width:7.7562;stroke-linecap:round;stroke-miterlimit:10;}
	.st83{fill:none;stroke:#164E16;stroke-width:0.851;stroke-miterlimit:10;}
	.st84{opacity:0.3;}
	.st85{fill:#6EA336;}
	.st86{opacity:0.3;fill:#7B000E;}
	.st87{opacity:0.2;fill:none;stroke:#2A481D;stroke-linecap:round;stroke-linejoin:round;stroke-miterlimit:10;}
	.st88{fill:#CC242B;}
	.st89{fill:#5B8734;}
	.st90{fill:#4D831C;stroke:#071907;stroke-miterlimit:10;}
	.st91{fill:none;stroke:#071907;stroke-linecap:round;stroke-miterlimit:10;}
	.st92{opacity:0.7;fill:none;stroke:#FFFFFF;stroke-linecap:round;stroke-miterlimit:10;}
	.st93{opacity:0.7;fill:#FFFFFF;}
	.st94{fill:#B9CAB9;}
	.st95{fill:#F6E600;}
	.st96{fill:#8DCC50;}
	.st97{fill:#A2A121;}
	.st98{fill:#F9EFA7;}
	.st99{fill:#F6E600;stroke:#A2A121;stroke-width:3;stroke-miterlimit:10;}
	.st100{opacity:0.3;fill:none;stroke:#A2A121;stroke-linecap:round;stroke-linejoin:round;stroke-miterlimit:10;}
	.st101{fill:none;stroke:#A2A121;stroke-width:3;stroke-miterlimit:10;}
	.st102{fill:#8DCC50;stroke:#A2A121;stroke-miterlimit:10;}
	.st103{fill:#DCCF2F;}
	.st104{fill:#F22F2E;stroke:#7B000E;stroke-linecap:round;stroke-miterlimit:10;}
	.st105{fill:#6EA336;stroke:#2A481D;stroke-linecap:round;stroke-linejoin:round;stroke-miterlimit:10;}
	.st106{fill:none;stroke:#2A481D;stroke-linecap:round;stroke-linejoin:round;stroke-miterlimit:10;}
	.st107{fill:#639D2E;stroke:#164E16;stroke-width:5;stroke-miterlimit:10;}
	.st108{fill:#639D2E;stroke:#164E16;stroke-miterlimit:10;}
	.st109{opacity:0.5;fill:none;stroke:#D54300;stroke-linecap:round;stroke-miterlimit:10;}
	.st110{fill:#E5531B;}
	.st111{opacity:0.3;fill:none;stroke:#D17D01;stroke-linecap:round;stroke-linejoin:round;stroke-miterlimit:10;}
	.st112{fill:#E6A627;}
	.st113{fill:#A3B653;}
	.st114{fill:none;stroke:#164E16;stroke-linecap:round;stroke-linejoin:round;stroke-miterlimit:10;}
	.st115{fill:#FAC1C1;}
	.st116{clip-path:url(#SVGID_4_);}
	.st117{fill:none;stroke:#D9E021;stroke-miterlimit:10;}
	.st118{fill:#A7C92B;stroke:#164E16;stroke-width:5;stroke-linecap:round;stroke-linejoin:round;stroke-miterlimit:10;}
	.st119{fill:#64A025;}
	.st120{fill:#547C1F;stroke:#164E16;stroke-linecap:round;stroke-miterlimit:10;}
	.st121{fill:#547C1F;}
	.st122{fill:#4D831C;stroke:#164E16;stroke-miterlimit:10;}
	.st123{fill:none;stroke:#FFFFFF;stroke-width:7.7934;stroke-linecap:round;stroke-miterlimit:10;}
	.st124{fill:#8DCC50;stroke:#164E16;stroke-linecap:round;stroke-miterlimit:10;}
	.st125{fill:#F4C01F;stroke:#B26D09;stroke-miterlimit:10;}
	.st126{fill:#FFA200;stroke:#A84902;stroke-miterlimit:10;}
	.st127{fill:#7C9800;stroke:#164E16;stroke-miterlimit:10;}
	.st128{fill:none;stroke:#7C9800;stroke-width:2;stroke-linecap:round;stroke-miterlimit:10;}
	.st129{fill:#F4C01F;}
	.st130{fill:#FFA200;}
	.st131{fill:#B26D09;}
	.st132{fill:#A84902;}
	.st133{fill:none;stroke:#4D831C;stroke-width:3;stroke-linecap:round;stroke-miterlimit:10;}
	.st134{fill:none;stroke:#164E16;stroke-width:3;stroke-linecap:round;stroke-miterlimit:10;}
	.st135{fill:#64A025;stroke:#164E16;stroke-linecap:round;stroke-miterlimit:10;}
</style>
<g>
	<path class="st119" d="M302.7,275.8c-16.2-5.2-33.7-5.2-49.9,0v29.1c0,6.6,2.2,13,6.3,18.2l0,0c4.4,5.6,6.6,12.6,6.2,19.8
		c-1.1,20.1-4.8,53.8-16,91.6c-1.8,6.2,0.9,13.2,6.9,15.5c1.4,0.5,2.9,0.8,4.3,0.8c5.2,0,10-3.4,11.5-8.6
		c12.8-42.8,16.4-80.2,17.4-101.4c0.3-6.1,2.5-11.9,6.2-16.7l0.7-0.9c4.1-5.2,6.3-11.6,6.3-18.2V275.8z"/>
	<path class="st119" d="M176.8,419.1c-12.6-40.7-16.3-77.5-17.3-98.9c-0.3-7.1,2-14.1,6.4-19.7v0c4.1-5.2,6.4-11.6,6.4-18.2
		l0.2-29.1c-16.2-5.4-33.6-5.5-49.9-0.4l-0.2,29.1c-0.1,6.6,2.1,13,6.1,18.3l0.7,1c3.7,4.9,5.8,10.7,6.1,16.8
		c0.8,22.3,4.5,62.6,18.6,108.2c1.6,5.2,6.3,8.5,11.5,8.5c1.2,0,2.4-0.2,3.6-0.5C175.2,432.2,178.8,425.4,176.8,419.1z"/>
	<path class="st119" d="M439,197.6c-16.2-5.2-33.7-5.2-49.9,0v29.1c0,6.6,2.2,13,6.3,18.2v0c4.4,5.7,6.6,12.8,6.2,20.1
		c-1.7,29.5-8.8,87.5-36.6,144.9c-2.8,5.8-1.3,13.1,4.2,16.3c2,1.2,4.1,1.7,6.2,1.7c4.5,0,8.7-2.5,10.8-6.8
		c31.4-64.4,38.2-128,39.6-158.5c0.3-6.1,2.4-12,6.2-16.8l0.7-1c4.1-5.2,6.3-11.6,6.3-18.2V197.6z"/>
	<path class="st6" d="M447,138.6c4.2,51.5-14.7,69.5-32.9,69.5c-18.2,0-37.1-18-32.9-69.5c4.1-51.2,25-117.6,32.9-117.6
		C420.7,21,442.7,86.9,447,138.6z"/>
	<path class="st6" d="M447,138.6c4.2,51.5-14.7,69.5-32.9,69.5c-18.2,0-37.1-18-32.9-69.5c4.1-51.2,25-117.6,32.9-117.6
		C420.7,21,442.7,86.9,447,138.6z"/>
	<path class="st25" d="M396.8,196.3C396.8,196.3,396.8,196.3,396.8,196.3c-6.9-7.4-14.4-23.4-11.7-57.3c3.1-38.6,14.7-80.4,23-101.2
		c2-5.1,9.3-5.1,11.3,0c8.3,20.8,20.4,62.6,23.6,101.1c2.8,33.9-4.8,49.8-11.6,57.3c-0.1,0.2-0.3,0.3-0.4,0.4
		c8.8,1,17.4,2.8,25.8,5.3c9-15.8,12.5-37.5,10.3-65v0c-2-24.3-7.9-54.3-16.3-82.3c-3.6-12.1-7.4-22.7-10.9-30.6
		C436.2,16,429.6,1,414.1,1c-15.9,0-22.9,15.6-26.2,23.1c-3.5,7.9-7.3,18.6-10.9,31c-8,27.5-13.8,57.4-15.8,82
		c-2.2,27.5,1.3,49.4,10.4,65.1C379.7,199.2,388.1,197.2,396.8,196.3z"/>
	<path class="st6" d="M310.7,216.9c4.2,51.5-14.7,69.5-32.9,69.5s-37.1-18-32.9-69.5c4.1-51.2,25-117.6,32.9-117.6
		C284.4,99.3,306.4,165.1,310.7,216.9z"/>
	<path class="st6" d="M310.7,216.9c4.2,51.5-14.7,69.5-32.9,69.5s-37.1-18-32.9-69.5c4.1-51.2,25-117.6,32.9-117.6
		C284.4,99.3,306.4,165.1,310.7,216.9z"/>
	<path class="st25" d="M259.3,273.1c-6.5-7.9-13-24-10.5-55.9c3.1-38.6,14.7-80.4,23-101.2c2-5.1,9.3-5.1,11.3,0
		c8.3,20.8,20.4,62.6,23.6,101.1c2.6,32.1-4,48.1-10.5,56c8.6,1,17,2.7,25.2,5.2c8.3-15.6,11.4-36.7,9.3-63.1v0
		c-2-24.3-7.9-54.3-16.3-82.3c-3.6-12.1-7.4-22.7-10.9-30.6c-3.5-8.1-10.1-23.1-25.7-23.1c-15.9,0-22.9,15.6-26.2,23.1
		c-3.5,7.9-7.3,18.6-10.9,31c-8,27.5-13.8,57.4-15.8,82c-2.2,26.9,1.1,48.4,9.8,64.1C242.6,276.3,250.8,274.3,259.3,273.1z"/>
	<path class="st6" d="M115.2,193.9c-4.6,51.4,14.2,69.6,32.3,69.7s37.2-17.7,33.5-69.2c-3.7-51.2-24-117.8-31.9-117.9
		C142.4,76.5,119.8,142.1,115.2,193.9z"/>
	<path class="st6" d="M115.2,193.9c-4.6,51.4,14.2,69.6,32.3,69.7s37.2-17.7,33.5-69.2c-3.7-51.2-24-117.8-31.9-117.9
		C142.4,76.5,119.8,142.1,115.2,193.9z"/>
	<path class="st25" d="M128.7,249.7c-6.3-8.2-12.4-24.2-9.6-55.5c3.5-38.5,16-80.2,24.4-100.9c2.1-5.1,9.3-5,11.3,0.1
		c8.1,20.8,19.3,62.7,22.1,101.4c2.3,32-4.4,48-11,55.9c8.5,1.2,16.8,3.1,25,5.8c8.5-15.6,11.9-36.8,10-63.4
		c-1.8-24.6-7.3-54.6-15.1-82.1c-3.5-12.4-7.2-23.1-10.6-31.1c-3.3-7.5-10.1-23.1-26-23.3c-0.1,0-0.1,0-0.2,0
		c-15.4,0-22.1,14.9-25.7,22.9c-3.5,7.9-7.4,18.4-11.1,30.5c-8.6,27.9-14.8,57.9-17,82.2c-2.4,26.4,0.6,47.5,8.7,63.2
		C112,252.4,120.2,250.6,128.7,249.7z"/>
	<path class="st22" d="M405,129c-0.1,0-0.2,0-0.2,0c-2.2-0.1-3.9-2-3.8-4.2c0.3-5.7,0.7-11.6,1.2-17.5c0.2-2.2,2.1-3.9,4.3-3.7
		c2.2,0.2,3.9,2.1,3.7,4.3c-0.4,5.8-0.8,11.7-1.2,17.4C408.9,127.3,407.1,129,405,129z"/>
	<path class="st22" d="M269.9,180c-0.2,0-0.3,0-0.5,0c-2.2-0.3-3.7-2.3-3.5-4.5c1-7.6,2.1-15,3.2-21.4c0.4-2.2,2.4-3.6,4.6-3.3
		c2.2,0.4,3.6,2.4,3.3,4.6c-1.1,6.3-2.2,13.6-3.1,21.1C273.6,178.5,271.9,180,269.9,180z"/>
	<path class="st22" d="M266.1,217.5c-0.1,0-0.2,0-0.3,0c-2.2-0.2-3.9-2.1-3.7-4.3c0.2-2.5,0.4-5,0.6-7.5c0.2-2.2,2.1-3.8,4.3-3.6
		c2.2,0.2,3.8,2.1,3.6,4.3c-0.2,2.5-0.4,5-0.6,7.4C269.9,215.9,268.1,217.5,266.1,217.5z"/>
	<path class="st22" d="M138.1,167.5c-0.2,0-0.3,0-0.5,0c-2.2-0.3-3.7-2.3-3.5-4.5c0.3-2.2,0.6-4.5,0.9-6.7c0.3-2.2,2.3-3.7,4.5-3.4
		c2.2,0.3,3.7,2.3,3.4,4.5c-0.3,2.2-0.6,4.4-0.9,6.6C141.8,166,140.1,167.5,138.1,167.5z"/>
	<path class="st22" d="M141.2,145.9c-0.2,0-0.4,0-0.6-0.1c-2.2-0.4-3.7-2.4-3.3-4.6c1.3-8.3,2.7-15.7,4-21.5c0.5-2.2,2.6-3.5,4.8-3
		c2.2,0.5,3.5,2.6,3,4.8c-1.2,5.6-2.6,12.9-3.9,21C144.9,144.5,143.2,145.9,141.2,145.9z"/>
	<path class="st119" d="M389.1,197.6v29.1c0,6.6,2.2,13,6.2,18.2c4.4,5.7,6.6,12.8,6.2,20.1c-1.7,29.2-8.6,86.1-35.6,142.9
		l-87.8,11.8c7.9-33.2,10.5-61.4,11.3-78.9c0.3-6.1,2.5-11.9,6.2-16.7l0.7-0.9c4.1-5.2,6.3-11.6,6.3-18.2v-29.1
		c-16.2-5.2-33.7-5.2-49.9,0v29.1c0,6.6,2.2,13,6.3,18.2c4.4,5.6,6.6,12.6,6.2,19.8c-1,17.8-3.9,46.2-12.4,78.7l-80.3-17.2
		c-9.2-34.7-12.2-65.4-13.1-84.2c-0.3-7.1,2-14.1,6.4-19.7l0,0c4.1-5.2,6.4-11.6,6.4-18.2l0.2-29.1c-16.2-5.4-33.6-5.5-49.9-0.4
		l-0.2,29.1c-0.1,6.6,2.1,13,6.1,18.3l0.7,1c3.7,4.9,5.8,10.7,6.1,16.8c0.7,19.8,3.7,53.5,14.1,92.6L46.2,449.8l-1,4.5
		c-2.7,11.6,2.1,23.9,11.9,30.6l3.5,2.4l110.9-42.1l84.2,18l147.9-19.9c10.9-1.5,18.6-11.6,17.2-22.5c-1.3-9.9-9.9-17.3-19.9-17.3
		c-0.8,0-1.7,0.1-2.6,0.2l-4.3,0.6c24.8-58.3,30.6-113.6,31.8-141.4c0.3-6.1,2.4-12,6.2-16.8l0.7-1c4.1-5.2,6.3-11.6,6.3-18.2v-29.1
		C422.8,192.3,405.3,192.3,389.1,197.6z"/>
	<path class="st10" d="M232.8,275.7L232.8,275.7l0,28.4c0,11.2,3.3,22.4,10.4,31.2c1.5,1.9,2.3,4.2,2.1,6.5
		c-0.8,13.5-2.6,32-6.9,53.4c-1.2,5.8-6.8,9.5-12.6,8.3l-23.4-5c-7-1.5-12.5-7-14.1-14c-5.8-26.1-8.1-49-8.8-65.2
		c-0.1-2.3,0.7-4.6,2.2-6.4c7.1-8.7,10.5-19.8,10.6-31l0.2-28.5l-10.9-4c-21.8-8-45.7-8.2-67.7-0.7l-11.4,3.9l0,5.6l-0.2,23.5
		c-0.1,11,3.5,21.9,10.2,30.6l0.7,1c1.2,1.6,1.9,3.5,2,5.4c0.7,19.4,3.2,46.8,10.2,78.4c1.1,5.1-1.7,10.3-6.6,12.1l-76.1,28.9
		c-4.3,1.6-7.5,5.3-8.6,9.8l-0.8,3.6c-3.8,16.4,2.9,33.7,16.8,43.2l2.7,1.8c3.7,2.5,8.5,3.1,12.7,1.5l95-36.1c7.7-2.9,16-3.5,24-1.8
		l63.3,13.6c4.8,1,9.7,1.2,14.6,0.6l142.7-19.2c17.5-2.4,29.8-18.5,27.5-36.1c-0.8-5.8-3.1-11.1-6.5-15.4
		c-4.2-5.4-5.6-12.4-3.4-18.9c17.2-50.2,21.9-95.5,23-121.2c0.1-2,0.8-3.8,2-5.4l0.7-1c6.8-8.7,10.5-19.5,10.5-30.5v-29.2l-11.2-4
		c-21.8-7.7-45.7-7.7-67.5,0l-11.2,4l0,28.4c0,11.2,3.3,22.4,10.4,31.2c1.5,1.9,2.3,4.3,2.1,6.7c-1.5,25.8-7.3,74.7-28.9,124.8
		c-2.5,5.9-8,10.1-14.4,10.9l-28.2,3.8c-4,0.5-7.3-2.9-6.6-6.9c3.8-21.7,5.4-40.5,6.1-54.6c0.1-1.9,0.8-3.8,2-5.3l0.7-0.9
		c6.8-8.7,10.5-19.5,10.5-30.6v-29.1l0,0C294.1,262.9,261.4,262.9,232.8,275.7z M126.4,281.9l0.2-20.5c0-3.3,2.4-6.2,5.7-6.9
		c1.5-0.3,3-0.5,4.5-0.7c0.1,0,0.2,0,0.3,0c0.3,0,0.6-0.1,0.8-0.1c1.5-0.2,2.9-0.3,4.4-0.4c6.9-0.4,13.8,0.1,20.6,1.5
		c3.3,0.7,5.6,3.6,5.6,7l-0.2,20.5c0,5.3-1.8,10.5-4.9,14.8c-4.1,4.6-9.9,7.1-16.1,7.1c-0.1,0-0.1,0-0.2,0
		c-6.3-0.1-12.1-2.7-16.1-7.4C128,292.5,126.4,287.2,126.4,281.9z M58.1,468.1c-0.4-0.8-0.7-1.6-0.9-2.5c-1.1-3.6,0.9-7.5,4.5-8.8
		l84-31.9c1.8-0.7,3.7,0.3,4.3,2.1c0,0.1,0.1,0.3,0.1,0.4c0.8,2.5,2.1,4.7,3.9,6.5c1.7,1.7,1.1,4.5-1.1,5.4l-85.6,32.5
		C63.7,473.1,59.7,471.6,58.1,468.1z M172.4,426.4c-1,1.9-2.7,3.3-4.7,3.9c-0.8,0.2-1.6,0.4-2.4,0.4c-3.5,0-6.6-2.3-7.7-5.6
		c-14.2-46-17.6-86.9-18.4-107.2c0-0.5,0-0.9-0.1-1.4c-0.2-2.6,2.1-4.7,4.7-4.4c1,0.1,2.1,0.2,3.2,0.2c0.1,0,0.2,0,0.3,0
		c1.2,0,2.4-0.1,3.5-0.2c2.6-0.3,4.9,1.8,4.7,4.4c-0.1,1.3-0.1,2.6,0,3.9c1.1,23.4,5.1,59.7,17.5,99.9
		C173.6,422.3,173.4,424.5,172.4,426.4z M181.8,435c-2.2-0.5-3.3-2.9-2.3-4.8l0,0c1.3-2.4,1.9-5,1.8-7.6c0-2.1,1.9-3.6,4-3.2
		l55.7,11.9c2.4,0.5,4.1,2.7,3.8,5.1c-0.3,2.5,0,4.9,0.7,7.2c0.8,2.4-1.3,4.8-3.8,4.2L181.8,435z M429.1,199.1c3.5,0.7,6,3.7,6,7.3
		v20.3c0,4.7-1.4,9.4-3.8,13.4c-0.1,0.2-0.2,0.4-0.4,0.6c0,0-0.1,0.1-0.1,0.1c-0.4,0.5-0.7,1.1-1.1,1.6l0,0
		c-2.9,3.7-7.1,6.4-11.7,7.2c-7.5,1.4-14.8-1.4-19.4-7.2c0,0,0,0,0,0c-1-1.3-1.9-2.7-2.6-4.2c-1.8-3.6-2.8-7.5-2.8-11.6v-20.3
		c0-3.5,2.5-6.6,6-7.3C409,197.1,419.1,197.1,429.1,199.1z M368.6,411.6c28.1-58.1,35.2-116.7,37-146.4c0.1-1,0.1-2,0-3
		c-0.1-2.6,2.1-4.7,4.7-4.4c1.2,0.2,2.5,0.3,3.8,0.3c0,0,0,0,0,0c1,0,2.1-0.1,3.1-0.2c2.6-0.3,4.8,1.8,4.7,4.5c0,0,0,0.1,0,0.1
		c-1.4,31.5-8.4,93.7-39.2,156.9c-1.4,2.8-4.1,4.5-7.2,4.5c-1.5,0-2.9-0.4-4.1-1.2C367.7,420.6,366.6,415.7,368.6,411.6z
		 M262.9,277.3c9.8-1.9,19.8-1.9,29.7,0c3.6,0.7,6.1,3.9,6.1,7.5v20c0,4.4-1.1,8.7-3.2,12.5c-3.2,5.8-11.1,10.9-17.7,10.9
		c-6.1,0-11.8-2.8-15.5-7.6c-3.5-4.5-5.4-10.1-5.4-15.8v-20C256.8,281.2,259.4,278,262.9,277.3z M260.6,446.8c-1,0-2-0.2-2.9-0.5
		c-3.8-1.5-5.8-6.2-4.5-10.6c11.2-37.6,14.9-71.1,16.1-92.5c0.1-0.9,0.1-1.9,0-2.8c-0.1-2.6,2.2-4.6,4.8-4.3
		c1.2,0.2,2.4,0.2,3.7,0.2c1,0,2.1-0.1,3.1-0.2c2.6-0.3,4.8,1.8,4.7,4.5c0,0,0,0,0,0.1c-1.1,23.1-4.9,59.3-17.2,100.5
		C267.2,444.5,264.1,446.8,260.6,446.8z M402,431.3l-122.4,16.5c-2.4,0.3-4.4-2-3.7-4.3l0-0.1c1-3.3,1.9-6.5,2.8-9.7
		c0.3-1.3,1.4-2.2,2.7-2.4l73.4-9.9c3-0.4,5.9,1,7.5,3.5c1.2,1.8,2.8,3.4,4.8,4.6c2.5,1.5,5.4,2.3,8.2,2.3c6.2,0,11.7-3.5,14.4-9
		c0.4-0.9,0.9-1.8,1.3-2.6c1.2-2.4,3.5-4.1,6.1-4.5l2.5-0.3c0.4,0,0.7-0.1,1.1-0.1c4,0,7.5,3,8,6.9
		C409.5,426.6,406.4,430.7,402,431.3z"/>
	<circle class="st22" cx="405" cy="150.9" r="4"/>
</g>
</svg>
