<svg xmlns="http://www.w3.org/2000/svg" viewBox="0 0 48 48" width="48" height="48"><path fill="#795548" d="M20.6 8H28.400000000000002V10H20.6z" transform="rotate(-50.193 24.499 9.004)"/><path fill="#795548" d="M15.5 5.2H17.5V13.8H15.5z" transform="rotate(-35.537 16.501 9.504)"/><path fill="#795548" d="M24,13.9L24,13.9c-0.3-1.6-1.7-2.9-3.5-2.9c-1.9,0-3.5,1.6-3.5,3.5c0,0.2,0,0.4,0.1,0.6v0 c0,0,0,0.1,0,0.1C19,29,17,32.9,12.7,34c-7.7,2-7,5-7,5s0,2,2,2s6.3,0,6.3,0s12,0,12-12C26,22,25,20.9,24,13.9z"/><path fill="#bcaaa4" d="M24,14.3c-0.3-0.7-1-1.3-2-1.3c-1.1,0-2,0.9-2,2c0,0.3,3.5,13,1,18c-3,6-8,6-10,6 c-1.5,0,0.4,0-5.3,0v0c0,0,0,2,2,2s6.3,0,6.3,0s13,1,13-10C27,24.1,25,22,24,14.3z"/><path fill="#8bc34a" d="M31,41c-0.3,0-0.6-0.1-0.8-0.4c-0.3-0.4-0.2-1.1,0.2-1.4c0.3-0.2,6.4-4.9,5.1-13 c-0.1-0.5,0.3-1.1,0.8-1.1c0.6-0.1,1.1,0.3,1.1,0.8c1.4,9.4-5.6,14.7-5.9,15C31.4,40.9,31.2,41,31,41z"/><path fill="#8bc34a" d="M37.1,17c-0.3,0.9-1.2,1.9-2.4,2.9c0.2,0.3,0.4,0.7,0.4,1.1c0,1.1-0.9,2-2,2c-0.2,0-0.4,0-0.6-0.1 c0.4,0.4,0.6,1,0.6,1.6c0,1.4-1.1,2.5-2.5,2.5c-0.8,0-1.5-0.4-1.9-0.9c-0.3,0.7-0.5,1.3-0.6,2.1c-0.2,3.6,2,5.9,6.9,4.6 c2.9,2.7,7.2,0.8,7.9-2.8C43.9,24.9,38.3,18.5,37.1,17z"/><path fill="#689f38" d="M37.1,17C37.1,17,37.1,17,37.1,17c-0.3,0.9-1.2,1.9-2.4,2.9c0.2,0.3,0.4,0.7,0.4,1.1 c0,1.1-0.9,2-2,2c-0.2,0-0.4,0-0.6-0.1c0.4,0.4,0.6,1,0.6,1.6c0,1.4-1.1,2.5-2.5,2.5c-0.8,0-1.5-0.4-1.9-0.9 c-0.3,0.7-0.5,1.3-0.6,2.1c-0.2,3.6,2,5.9,6.9,4.6c0,0,0,0,0,0C37.7,24,37.5,19.3,37.1,17z"/><path fill="#5d4037" d="M28 7c0 1.1-.9 2-2 2s-2-.9-2-2c0-1.1.9-2 2-2S28 5.9 28 7zM17 7c0 1.1-.9 2-2 2s-2-.9-2-2c0-1.1.9-2 2-2S17 5.9 17 7z"/></svg>