<svg xmlns="http://www.w3.org/2000/svg" viewBox="0 0 48 48" width="48" height="48"><path fill="#795548" d="M34.6 8H42.4V10H34.6z" transform="rotate(-50.208 38.5 9.003)"/><path fill="#795548" d="M29.5 5.2H31.5V13.8H29.5z" transform="rotate(-35.537 30.502 9.504)"/><path fill="#795548" d="M38,13.9L38,13.9c-0.3-1.6-1.7-2.9-3.5-2.9c-1.9,0-3.5,1.6-3.5,3.5c0,0.2,0,0.4,0.1,0.6v0 c0,0,0,0.1,0,0.1C34,30.1,27,31,19,32C7.9,33.4,6,39,6,39s0,2,2,2s20,0,20,0s12,0,12-12C40,22,39,20.9,38,13.9z"/><path fill="#bcaaa4" d="M38,14.3c-0.3-0.7-1-1.3-2-1.3c-1.1,0-2,0.9-2,2c0,0.3,2.5,13,0,18c-3,6-7,6-9,6c-1.5,0-13.3,0-19,0 v0c0,0,0,2,2,2s20,0,20,0s13,1,13-11C41,23.1,39,22,38,14.3z"/><path fill="#5d4037" d="M42 7c0 1.1-.9 2-2 2s-2-.9-2-2c0-1.1.9-2 2-2S42 5.9 42 7zM31 7c0 1.1-.9 2-2 2s-2-.9-2-2c0-1.1.9-2 2-2S31 5.9 31 7z"/></svg>