<svg xmlns="http://www.w3.org/2000/svg" viewBox="0 0 48 48" width="48" height="48"><path fill="#795548" d="M38,13.9L38,13.9c-0.3-1.6-1.7-2.9-3.5-2.9c-1.9,0-3.5,1.6-3.5,3.5c0,0.2,0,0.4,0.1,0.6v0 c0,0,0,0.1,0,0.1C34,30.1,27,31,19,32C7.9,33.4,6,39,6,39s0,2,2,2s20,0,20,0s12,0,12-12C40,22,39,20.9,38,13.9z"/><path fill="#795548" d="M34.6 8H42.4V10H34.6z" transform="rotate(-50.208 38.5 8.98)"/><path fill="#795548" d="M29.5 5.2H31.5V13.8H29.5z" transform="rotate(-35.537 30.502 9.481)"/><path fill="#5d4037" d="M42 7c0 1.1-.9 2-2 2s-2-.9-2-2 .9-2 2-2S42 5.9 42 7zM31 7c0 1.1-.9 2-2 2s-2-.9-2-2 .9-2 2-2S31 5.9 31 7z"/><path fill="#bcaaa4" d="M38,14.2c-0.3-0.7-1-1.3-2-1.3c-1.1,0-2,0.9-2,2c0,0.3,2.5,13,0,18c-3,6-7,6-9,6c-1.5,0-13.3,0-19,0 c0,0,0,2,2,2s20,0,20,0s13,1,13-11C41,23.1,39,22,38,14.2z"/><path fill="#4e342e" d="M31.8,19.9C31.7,19.9,31.7,19.9,31.8,19.9C32.4,30.3,26,31.1,19,32c-2.5,0.3-4.6,0.9-6.3,1.5 c-0.4,0.3-0.7,0.4-0.9,0.4c0,0,0,0,0,0c-0.4,0.2-0.7,0.3-1,0.5c0,0,0,0,0,0c-0.3,0.2-0.6,0.3-0.9,0.5c0,0,0,0,0,0 c1.8,1.4,4,2.4,6.3,2.8c0.3,0.1,0.6,0.1,1,0.2c0.1,0,0.2,0,0.3,0c0.6,0.1,1.4,0.1,2.2,0.1c0.7,0,1.3,0,1.9-0.1l0.4-0.1l0.4-0.2 c1.2-0.7,2.2-1.5,3.1-2.4c0.8-0.8,1.5-1.7,2-2.6c3-0.7,6.3-2.5,6.4-6.1C34,26.3,34.3,23.4,31.8,19.9z"/><path fill="#ff9800" d="M6,23c0-3.3,1.3-6.4,3.3-8.7c2.4-2.7,5.8-4.3,9.7-4.3c7.2,0,13,5.8,13,13c0,0.1,0.2,1.9-0.2,3.4 C30.7,31.5,25,31,25,31s-3.1,5-6,5C11.8,36,6,30.2,6,23z"/><path fill="#ffb74d" d="M17.4 16c.2 0 .4 0 .6 0 .5 0 1 .1 1.5.1.6-1.3 1.3-3.5 1.1-6C20.1 10.1 19.6 10 19 10c-.1 0-.2 0-.3 0C18.8 12.7 17.8 15.1 17.4 16zM14.5 16.8c.7-.3 1.4-.6 2.1-.7.2-1.7.1-3.8-.7-5.8-.7.2-1.3.4-1.9.6C14.8 13 14.7 15.3 14.5 16.8zM22.6 17.5c.8-1.3 2-3.5 2.4-6-.6-.3-1.2-.6-1.9-.8-.3 2.4-1.5 4.7-2.3 5.8C21.5 16.8 22.1 17.1 22.6 17.5zM9.4 23.8l.6.4c0-.1 0-.1 0-.2 0-.7.1-1.4.3-2-.6-.3-2.1-1-4.1-.9C6.1 21.7 6 22.4 6 23c0 0 0 .1 0 .1C8 22.9 9.4 23.8 9.4 23.8zM10.2 19.6l.6.8.2-.1c.7-1.3 1.7-2.4 3-3.1-.3-1.5-1.1-3.2-2.5-4.7-.5.4-1 .8-1.5 1.3C11.3 15.2 12 17 12 18v.7l-.2-.3c-.1-.1-1.2-1.8-3.5-2.8-.4.6-.7 1.1-1 1.7C9.1 18.1 10.1 19.5 10.2 19.6zM10.1 24.9l-.4.1c-.1 0-1.7.6-3 2 .2.7.5 1.4.9 2.1 1.1-1.6 2.7-2.2 2.8-2.2l.2-.1C10.3 26.3 10.1 25.6 10.1 24.9zM25.7 22.1l.7 1.9c1.5-.5 3.8-2.1 5-5-.3-1-.8-2-1.3-2.8C29.6 20.6 25.9 22 25.7 22.1zM24.4 19.9c.2-.1 3.1-1.6 4.1-5.6-.5-.6-1.1-1.1-1.7-1.6-.6 3.9-3.2 5.4-3.3 5.4l-.9.4L24.4 19.9zM26.2 29c1.5-.3 4-1.3 5.8-3.4.2-1.3 0-2.5 0-2.6 0-.5 0-1.1-.1-1.6C30.8 26.1 26 27 25.8 27l-.7 2.1L26.2 29z"/><path fill="#ce630b" d="M24.1,17.7C22.3,16,20,15,17.5,15c-2.5,0-4.8,1-6.6,2.7c-3,3-3,7.8,0,10.8c2.5,2.5,6.5,2.5,8.9,0 c1-1,1.5-2.3,1.5-3.7s-0.5-2.7-1.5-3.7c-0.8-0.8-1.9-1.3-3.1-1.3c-1.2,0-2.3,0.5-3.1,1.3c-1.5,1.5-1.5,3.8,0,5.3 c1.2,1.2,3.3,1.2,4.5,0c0.4-0.4,0.4-1,0-1.4s-1-0.4-1.4,0c-0.5,0.5-1.2,0.5-1.7,0c-0.7-0.7-0.7-1.8,0-2.4c0.9-0.9,2.5-0.9,3.4,0 c0.6,0.6,1,1.4,1,2.3c0,0.9-0.3,1.7-1,2.3c-1.7,1.7-4.4,1.7-6.1,0c-2.2-2.2-2.2-5.8,0-8c1.4-1.4,3.2-2.1,5.2-2.1 c2,0,3.8,0.8,5.2,2.1c3.7,3.7,3.7,9.6,0,13.3c-1.7,1.7-3.9,2.9-6.2,3.3c1.1,0.2,3,0.5,4.9,0.2c1-0.6,1.9-1.3,2.7-2.1 C28.5,29.4,28.5,22.2,24.1,17.7z"/></svg>