<?xml version="1.0" encoding="utf-8"?>
<!-- Generator: Adobe Illustrator 20.0.0, SVG Export Plug-In . SVG Version: 6.00 Build 0)  -->
<svg version="1.1" xmlns="http://www.w3.org/2000/svg" xmlns:xlink="http://www.w3.org/1999/xlink" x="0px" y="0px"
	 viewBox="0 0 64 64" style="enable-background:new 0 0 64 64;" xml:space="preserve">
<style type="text/css">
	.st0{fill:#22B573;stroke:#184C28;stroke-width:3;stroke-linecap:round;stroke-linejoin:round;stroke-miterlimit:10;}
	.st1{fill:#EE0000;}
	.st2{fill:#9A0601;}
	.st3{fill:none;stroke:#FFFFFF;stroke-linecap:round;stroke-linejoin:round;stroke-miterlimit:10;}
	.st4{fill:#6FAD4C;}
	.st5{fill:#FCAA54;stroke:#8CC63F;stroke-width:3;stroke-linecap:round;stroke-linejoin:round;stroke-miterlimit:10;}
	.st6{fill:none;stroke:#8D5733;stroke-linecap:round;stroke-linejoin:round;stroke-miterlimit:10;}
	.st7{fill:#184C28;}
	.st8{fill:#82C64E;}
	.st9{fill:none;stroke:#497726;stroke-linecap:round;stroke-linejoin:round;stroke-miterlimit:10;}
	.st10{fill:#497726;}
	.st11{opacity:0.2;}
	.st12{fill:#748C8B;}
	.st13{fill:#434D42;}
	.st14{fill:#EFC11E;}
	.st15{fill:#C9292F;}
	.st16{fill:#802D2D;}
	.st17{fill:#C9292F;stroke:#802D2D;stroke-width:2.5473;stroke-miterlimit:10;}
	.st18{opacity:0.4;}
	.st19{fill:none;stroke:#FFFFFF;stroke-width:2.5473;stroke-linecap:round;stroke-linejoin:round;stroke-miterlimit:10;}
	.st20{fill:none;stroke:#006837;stroke-width:2.5473;stroke-linecap:round;stroke-miterlimit:10;}
	.st21{fill:#FFFFFF;}
	.st22{fill:#C9292F;stroke:#FFFFFF;stroke-width:2;stroke-linecap:round;stroke-linejoin:round;stroke-miterlimit:10;}
	.st23{filter:url(#Adobe_OpacityMaskFilter);}
	.st24{opacity:0.8;mask:url(#SVGID_1_);}
	.st25{fill:#00FFFF;}
	.st26{fill:#2E368F;}
	.st27{fill:#5860A5;}
	.st28{fill:#161542;}
	.st29{fill:none;stroke:#434D42;stroke-linecap:round;stroke-linejoin:round;stroke-miterlimit:10;}
	.st30{fill:#54665F;}
	.st31{fill:#54665F;stroke:#434D42;stroke-width:2;stroke-linecap:round;stroke-linejoin:round;stroke-miterlimit:10;}
	.st32{fill:#748C8B;stroke:#434D42;stroke-linecap:round;stroke-linejoin:round;stroke-miterlimit:10;}
	.st33{clip-path:url(#SVGID_3_);}
	.st34{fill:#194C28;}
	.st35{fill:#82C64E;stroke:#184C28;stroke-linejoin:round;stroke-miterlimit:10;}
	.st36{fill:none;stroke:#184C28;stroke-linecap:round;stroke-linejoin:round;stroke-miterlimit:10;}
	.st37{fill:#FCAA54;}
	.st38{fill:#8D5733;}
	.st39{fill:#406D2A;}
	.st40{fill:none;stroke:#8D5733;stroke-linecap:round;stroke-miterlimit:10;}
	.st41{fill:none;stroke:#FFFFFF;stroke-linecap:round;stroke-miterlimit:10;}
	.st42{clip-path:url(#SVGID_5_);}
	.st43{fill:#EE0000;stroke:#9A0601;stroke-linecap:round;stroke-linejoin:round;stroke-miterlimit:10;}
	.st44{fill:#C1272D;}
	.st45{fill:#184C28;stroke:#184C28;stroke-width:3;stroke-linecap:round;stroke-linejoin:round;stroke-miterlimit:10;}
	.st46{fill:none;stroke:#FDD6AD;stroke-linecap:round;stroke-linejoin:round;stroke-miterlimit:10;}
	.st47{fill:none;stroke:#FCAA54;stroke-linecap:round;stroke-linejoin:round;stroke-miterlimit:10;}
	.st48{fill:#9B0D91;}
	.st49{fill:#1B631A;}
	.st50{fill:#22153F;}
	.st51{fill:#95CC63;stroke:#517B39;stroke-width:3;stroke-linecap:round;stroke-linejoin:round;stroke-miterlimit:10;}
	.st52{fill:none;stroke:#517B39;stroke-linecap:round;stroke-linejoin:round;stroke-miterlimit:10;}
	.st53{fill:#95CC63;}
	.st54{fill:#517B39;}
	.st55{fill:#22B573;}
	.st56{display:none;}
	.st57{display:inline;fill:none;stroke:#00FFFF;stroke-width:0.1;stroke-miterlimit:10;}
</style>
<g id="Layer_2">
	<g>
		<path class="st53" d="M2.4,59.8c0,0,1.8-2.2,5.6-1.8"/>
		<path class="st53" d="M61.6,16.5c-0.4-3.9-2.7-8.5-7.2-9.7l0.8-4c-2.8-1.7-5.3-0.4-5.3-0.4l0.3,4c-4.9,0.7-8.1,4.4-9.5,8.6
			c0,0,4.2-2.7,7.6-3.6C32.1,41.2,5.7,58.5,5.7,58.5c10.8,6.7,21.8,1.7,21.8,1.7c23.2-9.8,27.8-28.8,28.6-35.1
			c0.6-4.3,0.1-9.7-0.4-12.7C58.7,13.9,61.6,16.5,61.6,16.5z"/>
		<path class="st54" d="M56.1,5.9l0.6-2.7c0.1-0.6-0.1-1.3-0.7-1.6c-3.4-2-6.6-0.6-6.7-0.5c-0.6,0.3-0.9,0.8-0.8,1.4l0.2,2.7
			c-4.3,1.2-7.8,4.6-9.3,9.4c-0.2,0.6,0,1.2,0.5,1.6c0.5,0.4,1.2,0.4,1.7,0.1c0.7-0.4,2-1.2,3.4-1.9c-14.1,23.6-34.3,38.7-39,42.1
			c-3.1,0.4-4.7,2.2-4.7,2.3c-0.5,0.6-0.4,1.6,0.2,2.1c0.3,0.2,0.6,0.3,0.9,0.3c0.4,0,0.9-0.2,1.2-0.6c0,0,0.5-0.5,1.5-0.9
			c4.6,2.8,9.2,3.7,13.1,3.7c5.6,0,9.7-1.8,10-1.9c24.1-10.1,28.7-30.3,29.5-36.3c0.5-3.3,0.3-7,0-10c1.3,0.9,2.5,1.9,3,2.4
			c0.5,0.4,1.1,0.5,1.7,0.2c0.5-0.3,0.9-0.9,0.8-1.5C62.7,12.6,60.6,7.8,56.1,5.9z M54.7,24.9c-0.8,5.6-5.1,24.4-27.8,34
			c-0.1,0-9.1,4-18.4-0.5C14.8,53.8,35,38,48.6,14l1,3.9c0.2,0.6,0.7,1.1,1.3,1.1c0,0,0.1,0,0.1,0c0.6,0,1.1-0.4,1.4-0.9l2-4.7
			c0,0,0,0,0,0C54.8,16.4,55.2,21.1,54.7,24.9z M53.9,10.1c-0.7-0.2-1.4,0.2-1.7,0.9l-0.8,1.9l-0.5-2c-0.2-0.7-0.8-1.1-1.4-1.1
			c-0.1,0-0.1,0-0.2,0c-1.5,0.2-3.3,0.8-4.9,1.6c1.6-1.9,3.7-3.2,6.1-3.5c0.8-0.1,1.3-0.8,1.3-1.6l-0.2-2.8c0.5-0.1,1.3-0.1,2.1,0.2
			L53,6.5C52.8,7.3,53.3,8,54,8.3c2.2,0.6,3.9,2.3,4.9,4.3C57.4,11.5,55.6,10.5,53.9,10.1z"/>
		<path class="st54" d="M26.3,56.7c-0.2,0-0.4-0.1-0.5-0.3c-0.1-0.3,0-0.5,0.3-0.6c17.7-7.6,23.5-20.9,25.3-28.2
			c0.1-0.3,0.3-0.4,0.6-0.4c0.3,0.1,0.4,0.3,0.4,0.6c-1.9,7.4-7.7,21.1-25.9,28.9C26.4,56.7,26.3,56.7,26.3,56.7z"/>
		<path class="st21" d="M18.7,56.4c-0.2,0-0.4-0.2-0.5-0.4c-0.5-2.2,0.8-4.7,3.2-6c1.3-0.7,2.8-1.1,4.1-0.9
			c-0.1-1.9,0.9-3.9,2.7-5.3c1.3-1,2.9-1.4,4.3-1.3c0-1.5,0.7-3,1.8-4.2c1.1-1.2,2.6-2,4-2.2c-0.3-1.5,0.2-3.2,1.2-4.7
			c1.2-1.7,2.9-2.8,4.7-2.9c-0.2-1.2-0.1-2.5,0.4-3.7c0.8-2,2.4-3.5,4.2-3.9c0.3-0.1,0.5,0.1,0.6,0.4c0.1,0.3-0.1,0.5-0.4,0.6
			c-1.5,0.4-2.8,1.6-3.5,3.3c-0.5,1.2-0.6,2.5-0.2,3.6c0,0.2,0,0.3-0.1,0.4c-0.1,0.1-0.2,0.2-0.4,0.2c-1.6-0.1-3.3,0.8-4.4,2.4
			c-1,1.4-1.3,3.1-0.9,4.5c0,0.1,0,0.3-0.1,0.4c-0.1,0.1-0.2,0.2-0.4,0.2c-1.4,0-2.8,0.7-3.9,1.9c-1.1,1.2-1.6,2.7-1.5,4.1
			c0,0.2,0,0.3-0.2,0.4c-0.1,0.1-0.3,0.1-0.4,0.1c-1.4-0.3-2.9,0.1-4.2,1c-1.8,1.3-2.7,3.3-2.2,5c0,0.2,0,0.3-0.1,0.5
			c-0.1,0.1-0.3,0.2-0.5,0.1c-1.3-0.3-2.8-0.1-4.1,0.7c-2,1.2-3.1,3.2-2.7,5c0.1,0.3-0.1,0.5-0.4,0.6C18.8,56.4,18.7,56.4,18.7,56.4
			z"/>
	</g>
</g>
<g id="Layer_1" class="st56">
</g>
</svg>
