<?xml version="1.0" encoding="utf-8"?>
<!-- Generator: Adobe Illustrator 20.0.0, SVG Export Plug-In . SVG Version: 6.00 Build 0)  -->
<svg version="1.1" id="Layer_1" xmlns="http://www.w3.org/2000/svg" xmlns:xlink="http://www.w3.org/1999/xlink" x="0px" y="0px"
	 viewBox="0 0 500 500" style="enable-background:new 0 0 500 500;" xml:space="preserve">
<style type="text/css">
	.st0{fill:#6A5129;}
	.st1{fill:#FFEDA1;}
	.st2{fill:#E5D58F;stroke:#CBBE7C;stroke-linecap:round;stroke-miterlimit:10;}
	.st3{fill:#E5D58F;stroke:#CBBE7C;stroke-miterlimit:10;}
	.st4{fill:#D8C38F;}
	.st5{fill:#B29032;}
	.st6{fill:#2E6000;}
	.st7{fill:#74C600;}
	.st8{fill:#C6CC40;}
	.st9{fill:#A6B135;}
	.st10{fill:#C6CC40;stroke:#A6B135;stroke-width:3;stroke-linecap:round;stroke-linejoin:round;stroke-miterlimit:10;}
	.st11{fill:#72621E;}
	.st12{fill:#CBBE7C;}
	.st13{fill:#998E5F;}
	.st14{fill:#F7D63C;}
	.st15{fill:#00FFFF;}
	.st16{clip-path:url(#SVGID_2_);}
	.st17{fill:none;stroke:#CBBE7C;stroke-width:2;stroke-miterlimit:10;}
	.st18{fill:none;stroke:#CBBE7C;stroke-width:2;stroke-linecap:round;stroke-miterlimit:10;}
	.st19{fill:#E1C25F;}
	.st20{fill:#DABF62;}
	.st21{fill:#CEBC5A;}
	.st22{fill:#BEB74F;}
	.st23{fill:#B6B44C;}
	.st24{fill:#998617;}
	.st25{fill:#FFFFFF;}
	.st26{clip-path:url(#SVGID_4_);}
	.st27{fill:none;stroke:#E1C25F;stroke-miterlimit:10;}
	.st28{fill:#C6CC40;stroke:#A6B135;stroke-linecap:round;stroke-miterlimit:10;}
	.st29{fill:#C6CC40;stroke:#A6B135;stroke-linecap:round;stroke-linejoin:round;stroke-miterlimit:10;}
	.st30{fill:none;stroke:#A6B135;stroke-linecap:round;stroke-miterlimit:10;}
	.st31{fill:none;stroke:#E1C25F;stroke-linecap:round;stroke-linejoin:round;stroke-miterlimit:10;}
	.st32{fill:none;stroke:#A6B135;stroke-linecap:round;stroke-linejoin:round;stroke-miterlimit:10;}
	.st33{fill:#E5E54A;}
	.st34{fill:#CCAE58;}
	.st35{fill:#809931;}
	.st36{fill:none;stroke:#CFB04D;stroke-linecap:round;stroke-miterlimit:10;}
	.st37{fill:#E7D572;}
	.st38{fill:#CFB04D;}
	.st39{fill:#E5D58F;}
	.st40{fill:none;stroke:#E1C25F;stroke-width:2;stroke-linecap:round;stroke-linejoin:round;stroke-miterlimit:10;}
	.st41{fill:none;stroke:#E1C25F;stroke-linecap:round;stroke-miterlimit:10;}
	.st42{opacity:0.7;fill:#2E6000;stroke:#2E6000;stroke-linecap:round;stroke-linejoin:round;stroke-miterlimit:10;}
	.st43{fill:none;stroke:#CFB04D;stroke-width:2;stroke-linecap:round;stroke-linejoin:round;stroke-miterlimit:10;}
	.st44{fill:#4C8816;}
	.st45{fill:#AC933F;}
	.st46{fill:none;stroke:#B29032;stroke-width:2;stroke-linecap:round;stroke-miterlimit:10;}
	.st47{fill:#D8C38F;stroke:#B29032;stroke-linejoin:round;stroke-miterlimit:10;}
	.st48{fill:#E7D572;stroke:#B29032;stroke-linejoin:round;stroke-miterlimit:10;}
	.st49{fill:#FFEDA1;stroke:#CBBE7C;stroke-linecap:round;stroke-miterlimit:10;}
	.st50{fill:#FFEDA1;stroke:#CBBE7C;stroke-width:0.9424;stroke-linecap:round;stroke-miterlimit:10;}
	.st51{fill:#FFEDA1;stroke:#CBBE7C;stroke-width:0.9424;stroke-miterlimit:10;}
	.st52{fill:none;stroke:#CBBE7C;stroke-width:1.8847;stroke-linecap:round;stroke-miterlimit:10;}
	.st53{fill:#FFEDA1;stroke:#CBBE7C;stroke-miterlimit:10;}
	.st54{fill:none;stroke:#FFFFFF;stroke-width:7;stroke-linecap:round;stroke-miterlimit:10;}
	.st55{fill:#ECE8DB;}
	.st56{fill:#5B3A03;}
	.st57{fill:#ECE8DB;stroke:#5B3A03;stroke-linecap:round;stroke-linejoin:round;stroke-miterlimit:10;}
	.st58{fill:none;stroke:#7A7F16;stroke-width:3;stroke-linecap:round;stroke-linejoin:round;stroke-miterlimit:10;}
	.st59{fill:none;stroke:#7A7F16;stroke-linecap:round;stroke-linejoin:round;stroke-miterlimit:10;}
	.st60{fill:none;stroke:#9FAD1C;stroke-width:3;stroke-linecap:round;stroke-linejoin:round;stroke-miterlimit:10;}
	.st61{fill:none;stroke:#9FAD1C;stroke-linecap:round;stroke-linejoin:round;stroke-miterlimit:10;}
	.st62{fill:#F3E382;stroke:#A72801;stroke-linejoin:round;stroke-miterlimit:10;}
	.st63{clip-path:url(#SVGID_6_);}
	.st64{clip-path:url(#SVGID_8_);}
	.st65{fill:#A72801;}
	.st66{clip-path:url(#SVGID_10_);}
	.st67{clip-path:url(#SVGID_12_);}
	.st68{clip-path:url(#SVGID_14_);}
	.st69{clip-path:url(#SVGID_16_);}
	.st70{clip-path:url(#SVGID_18_);}
	.st71{clip-path:url(#SVGID_20_);}
	.st72{fill:url(#);stroke:#F3E382;stroke-linejoin:round;stroke-miterlimit:10;}
	.st73{clip-path:url(#SVGID_22_);}
	.st74{clip-path:url(#SVGID_24_);}
	.st75{fill:#FFFCEE;}
	.st76{clip-path:url(#SVGID_26_);}
	.st77{fill:#9FAD1C;stroke:#7A7F16;stroke-linecap:round;stroke-linejoin:round;stroke-miterlimit:10;}
	.st78{fill:#7F3701;}
	.st79{fill:#F3E382;}
	.st80{clip-path:url(#SVGID_28_);}
	.st81{clip-path:url(#SVGID_30_);}
	.st82{clip-path:url(#SVGID_32_);}
	.st83{fill:#9FAD1C;}
	.st84{fill:#7A7F16;}
	.st85{fill:none;stroke:#516000;stroke-width:3;stroke-linecap:round;stroke-linejoin:round;stroke-miterlimit:10;}
	.st86{fill:none;stroke:#516000;stroke-linecap:round;stroke-linejoin:round;stroke-miterlimit:10;}
	.st87{fill:#DCB375;stroke:#BB4126;stroke-linejoin:round;stroke-miterlimit:10;}
	.st88{fill:#CC6352;}
	.st89{opacity:0.6;fill:none;stroke:#DCB375;stroke-width:3;stroke-miterlimit:10;}
	.st90{opacity:0.7;fill:none;stroke:#DCB375;stroke-width:3;stroke-miterlimit:10;}
	.st91{opacity:0.8;fill:none;stroke:#DCB375;stroke-width:3;stroke-miterlimit:10;}
	.st92{opacity:0.9;fill:none;stroke:#DCB375;stroke-width:3;stroke-miterlimit:10;}
	.st93{opacity:0.5;fill:none;stroke:#DCB375;stroke-width:3;stroke-miterlimit:10;}
	.st94{opacity:0.4;fill:none;stroke:#DCB375;stroke-width:3;stroke-miterlimit:10;}
	.st95{opacity:0.3;fill:none;stroke:#DCB375;stroke-width:3;stroke-miterlimit:10;}
	.st96{opacity:0.2;fill:none;stroke:#DCB375;stroke-width:3;stroke-miterlimit:10;}
	.st97{opacity:0.1;fill:none;stroke:#DCB375;stroke-width:3;stroke-miterlimit:10;}
	.st98{clip-path:url(#SVGID_34_);}
	.st99{clip-path:url(#SVGID_36_);}
	.st100{fill:#EEA969;}
	.st101{clip-path:url(#SVGID_38_);}
	.st102{clip-path:url(#SVGID_40_);}
	.st103{clip-path:url(#SVGID_42_);}
	.st104{clip-path:url(#SVGID_44_);}
	.st105{clip-path:url(#SVGID_46_);}
	.st106{clip-path:url(#SVGID_48_);}
	.st107{fill:none;stroke:#BB4126;stroke-linejoin:round;stroke-miterlimit:10;}
	.st108{fill:#919C3E;stroke:#516000;stroke-linecap:round;stroke-linejoin:round;stroke-miterlimit:10;}
	.st109{fill:#B23926;}
	.st110{fill:#DCB375;}
	.st111{fill:#D4936B;}
	.st112{fill:#D69B6E;}
	.st113{fill:#D8A372;}
	.st114{fill:#D9AA75;}
	.st115{fill:#D28B67;}
	.st116{fill:#D08363;}
	.st117{fill:#CF7B5F;}
	.st118{fill:#CD735C;}
	.st119{fill:#CC6B58;}
	.st120{fill:#EEA969;stroke:#EEA969;stroke-width:2.968;stroke-miterlimit:10;}
	.st121{fill:#919C3E;}
	.st122{fill:#516000;}
</style>
<g>
	<path class="st109" d="M493,254.5c-2.9-7.1-8.1-12.6-15.2-15.9c-5.5-2.6-11.8-3.8-19.9-3.8c-8.8,0-20.6,1.5-36,4.6
		c-4.3,0.9-8.9,1.9-13.9,3c-3,0.7-5.6-1.8-5.2-4.8c0.8-5.6,0.6-11.4-0.5-17.1c0,0,0,0,0,0c-0.4-1.8,0.7-3.5,2.5-3.9
		c12.4-3,23.1-11.1,29.3-22.7c5.3-10,6.7-21.6,3.8-32.6c0,0,0-0.1,0-0.1c-1.2-4.4,1.4-8.9,5.9-9.9c7.6-1.6,14.7-5.2,20.6-10.4
		c8.5-7.6,13.8-17.9,14.9-29.3c0.3-2.8,0.3-5.5,0.1-8.2c-0.1-1.8,0.3-3.5,1.3-5c1.7-2.7,3.2-5.5,4.3-8.6c4.2-11,4-23.1-0.7-34
		c-5.5-12.8-16.5-22.1-29.5-25.7c-4.1-1.1-7.9-3.3-11.1-6.2c-8.1-7.6-19-12.2-30.9-12.2c-0.5,0-1.1,0-1.6,0
		c-15.2,0.5-28.5,8.5-36.3,20.5c-1.4,2.2-3.4,3.9-5.7,5.1c-2.6,1.3-5,2.9-7.3,4.7c-1.5,1.2-2.9,2.5-4.3,3.9
		c-0.4,0.4-0.9,0.6-1.4,0.6c-1.7,0-3.4,0.2-5,0.4c-2.9,0.4-5.9-0.1-8.6-1.3c-5.9-2.8-12.4-4.3-19.1-4.3c-6,0-11.9,1.2-17.4,3.5
		c-12.4,5.2-21.4,15.3-25.4,27.2c-1.5,4.5-5.4,7.9-10.1,8.7c-0.3,0-0.5,0.1-0.8,0.1c-3,0.6-6.1,0.1-8.7-1.3
		c-7.1-3.7-15.1-5.8-23.3-5.8c-6.6,0-13.1,1.3-19.3,3.9c-16.1,6.8-27,21-29.9,37.2c-0.5,2.7-1.8,5.1-3.7,7.1c-1.5,1.6-2.9,3.3-4.3,5
		c-0.2,0.3-0.5,0.5-0.9,0.7c-6.2,2.6-12,6.4-16.7,11.2c-1.3,1.3-2.5,2.7-3.6,4.2c-2,2.6-4.9,4.4-8.1,5.2
		c-13.9,3.4-25.9,12.6-32.6,25.7c-5.7,11.1-7,23.9-3.7,35.9c1.6,5.7,4.1,11,7.4,15.7c0.3,0.4,0.4,0.9,0.4,1.4l0,0
		c-0.1,1.1-1.1,2-2.2,1.9c-0.4,0-0.7,0-1.1,0c-11.5,0-22.5,4.3-30.9,12.2C78,251.1,73.1,265,74.5,278.6c0.4,3.8-0.1,7.6-1.4,11.2
		c-3.4,9.7-3.4,20.3,0.1,30.2c1.9,5.4,2.2,11.3,0.5,16.7l-10.8,35c-1.2,4-3.4,7.7-6.4,10.6l-41.3,41.3
		C-1.2,440,2.5,469.2,26.5,479.8c0.1,0,0.1,0.1,0.2,0.1c13.6,5,27.6,1.7,37.1-7.7l20.9-20.9c1-1,2.2-1.8,3.5-2.4l11.4-4.7
		c3.4-1.4,7.2-1.1,10.2,1c10.8,7.4,24.2,11.5,38.8,11.5c10.9,0,21.9-2.2,32.6-6.6c49.7-20.2,127.3-56.5,188.6-88.4
		c34.7-18,63.3-34.2,82.8-46.7c16.6-10.7,26.9-18.8,33.3-26.3C498.2,274.1,495.6,261,493,254.5z"/>
	<path class="st110" d="M139.1,184.5c-6.4,12.5-2.1,27.5,9.4,34.9c0.2,0.1,0.2,0.3,0.1,0.5c-4.4,8-4.3,17.6-0.2,25.5
		c-6.3,1.4-11.9,5.3-15.1,11.4c-8.5-6.9-21-6.6-29.2,1.1c-8.4,7.8-9.3,20.6-2.6,29.5c-8.6,7-10.8,19.5-4.7,29.1
		c6.1,9.7,18.6,13,28.6,8c2.4,10.6,12.2,18.2,23.4,17.3c1.5-0.1,2.9-0.4,4.3-0.8c0.1,0.9,0.3,1.9,0.5,2.8
		c-10.5,3.5-17,14.4-14.7,25.6c2.3,11.2,12.7,18.7,23.9,17.7c-1.6,10.8,5,21.3,15.7,24.5c11.1,3.2,22.7-2.5,26.9-13
		c0.1-0.1,0.2-0.2,0.4-0.2c10.1,3.3,21.4-1,26.5-10.7c5.5-10.3,2.1-22.9-7.5-29.1c3.5-3.6,5.5-8,6.1-12.6c4.3,2,9.2,2.9,14.2,2.4
		c-1.8,13.1,6.2,25.8,19.2,29.6c13.5,3.9,27.4-3.2,32.5-16c0.1-0.2,0.3-0.3,0.4-0.2c12.2,3.9,25.9-1.4,32.1-13.1
		c6.5-12.5,2.3-27.7-9.3-35.2c5.3-5.4,7.7-12.5,7.5-19.5c8.2,4,18.2,3.8,26.4-1.5c12.3-7.9,15.9-24.1,8.4-36.5
		c12.5-4.4,20.1-17.5,17.3-30.8c-1.5-7.5-6.1-13.6-12.2-17.3c8.4-0.5,16-5.8,19.3-13.9c0.1-0.1,0.2-0.2,0.4-0.2
		c10.1,3.3,21.4-1,26.5-10.7c5.5-10.3,2.1-22.9-7.5-29.1c6.3-6.4,8-15.7,4.9-23.6c3.3-1.2,6.4-3.1,8.9-5.9c0.1-0.1,0.3-0.1,0.4,0
		c8.3,6.6,20.4,6.5,28.6-0.8c8.7-7.7,9.9-20.7,3.1-29.9c10.8-5.1,15.8-17.8,11-28.9c-4.8-11.1-17.4-16.3-28.6-11.9
		c-1.9-10.8-11.4-18.8-22.7-18.4c-11.4,0.4-20.6,9.4-21.4,20.5c-10.5-0.3-19.8,6.8-22.2,17.1c-8.2-4.6-18.6-3.7-25.8,2.8
		c-5.6-9.4-17.3-13.5-27.7-9.2c-10.6,4.4-15.9,16.1-12.7,26.8c-6,2.1-10.7,6.6-13.1,12.2c-9.3-3.7-20.3-2.1-28.1,5
		c-6.8-11.4-21-16.4-33.6-11.1c-12.8,5.4-19.3,19.4-15.4,32.5c-7.7,2.6-13.5,8.6-16.3,15.8c-12.6,1.5-22.5,11.5-23.7,24.2
		C159.3,167,145.3,172.4,139.1,184.5z"/>
	<g>
		<path class="st88" d="M297.5,361.8c-0.2-0.1-0.4,0-0.4,0.2c-3,7.5-9,12.9-16.2,15.4L148.3,244.9c-3.9-7.8-4-17.1,0.3-25
			c0.1-0.2,0-0.4-0.1-0.5c-11.5-7.4-15.8-22.5-9.4-34.9c6.2-12.1,20.2-17.5,32.7-13.2c1.1-12.6,11.1-22.7,23.7-24.2
			c2.8-7.2,8.6-13.2,16.3-15.8c-3.8-13,2.6-27.1,15.4-32.5c12.6-5.3,26.8-0.3,33.6,11.1c7.9-7.1,18.8-8.7,28.1-5
			c2.4-5.6,7.1-10.1,13.1-12.2c-3.2-10.7,2.2-22.4,12.7-26.8c10.4-4.3,22.1-0.2,27.7,9.2c7.2-6.6,17.7-7.4,25.8-2.8
			c2.4-10.3,11.7-17.5,22.2-17.1c0.8-11.2,9.9-20.1,21.4-20.5c11.2-0.4,20.8,7.6,22.7,18.4c11.1-4.4,23.8,0.8,28.6,11.9
			c4.8,11.1-0.2,23.8-11,28.9c6.8,9.2,5.6,22.1-3.1,29.9c-8.2,7.3-20.3,7.4-28.6,0.8c-0.1-0.1-0.3-0.1-0.4,0
			c-2.5,2.7-5.6,4.7-8.9,5.9c3.1,7.9,1.4,17.2-4.9,23.6c9.6,6.2,13,18.8,7.5,29.1c-5.1,9.7-16.4,14-26.5,10.7c-0.1,0-0.3,0-0.4,0.2
			c-3.2,8.1-10.9,13.3-19.3,13.9c6,3.8,10.6,9.8,12.2,17.3c2.7,13.3-4.9,26.4-17.3,30.8c7.5,12.4,3.8,28.6-8.4,36.5
			c-8.2,5.3-18.2,5.5-26.4,1.5c0.2,7-2.3,14.1-7.5,19.5c11.6,7.5,15.8,22.7,9.3,35.2C323.3,360.4,309.7,365.7,297.5,361.8z"/>
	</g>
	<path class="st111" d="M183.2,151.8c-6.3,4.4-10.7,11.4-11.4,19.5c-0.6-0.2-1.2-0.4-1.8-0.6l162.4,162.4
		c-0.9-7.9-5.2-15.2-12.2-19.7c4.7-4.8,7.2-11,7.5-17.2L183.2,151.8z"/>
	<path class="st112" d="M144.4,177.4l176.5,176.5l10.8-10.8c0.9-3.3,1.1-6.7,0.7-9.9L170,170.7C160.8,168.3,151.1,170.9,144.4,177.4
		z"/>
	<path class="st113" d="M144.4,177.4c-2.1,2-3.9,4.4-5.3,7.1c-2.8,5.6-3.6,11.7-2.5,17.3L297,362.2c0-0.1,0-0.1,0.1-0.2
		c0.1-0.2,0.3-0.3,0.4-0.2c5,1.6,10.3,1.6,15.2,0.3l8.2-8.2L144.4,177.4z"/>
	<path class="st114" d="M297,362.2L136.6,201.8c1.4,7.1,5.5,13.5,11.9,17.6c0.2,0.1,0.2,0.3,0.1,0.5c-4.4,8-4.3,17.6-0.2,25.5
		c-0.1,0-0.3,0.1-0.4,0.1l132.2,132.2C287.7,375.3,293.9,369.7,297,362.2z"/>
	<path class="st115" d="M354.1,292.4c0.4-0.3,0.8-0.5,1.2-0.8L201.5,137.8c-2.6,2.6-4.7,5.8-6,9.3c-4.5,0.5-8.7,2.2-12.3,4.7
		l144.5,144.5c0-0.8,0.1-1.5,0-2.3C335.9,297.9,345.9,297.8,354.1,292.4z"/>
	<path class="st116" d="M211.9,116c-1.5,4.9-1.6,10.2,0,15.3c-4,1.4-7.5,3.6-10.3,6.5l153.8,153.8c7-5.1,10.9-13,11.1-21.1
		L211.9,116z"/>
	<path class="st117" d="M375,246.8L227.1,99c-7.6,3.3-13,9.6-15.2,17l154.5,154.5c0.1-5-1.1-10-3.9-14.6
		C367.6,254.1,371.9,250.9,375,246.8z"/>
	<path class="st118" d="M367.7,207.8c0.1,0,0.2,0,0.4,0L266.4,106.1c-2,1-3.8,2.3-5.6,3.9c-6.8-11.4-21-16.4-33.6-11.1
		c-0.1,0-0.1,0.1-0.2,0.1L375,246.8c4.5-6,6.6-13.8,4.9-21.7c-0.7-3.6-2.2-6.9-4.1-9.7l-6.9-6.9C368.5,208.3,368.1,208,367.7,207.8z
		"/>
	<g>
		<path class="st119" d="M292.2,99.7c-1.3,1.6-2.4,3.4-3.2,5.3c-7.3-2.9-15.5-2.6-22.6,1.1l101.7,101.7c8.1-0.6,15.5-5.7,18.7-13.5
			L292.2,99.7z"/>
		<path class="st119" d="M375.8,215.4c-1.9-2.7-4.2-5-6.9-6.9L375.8,215.4z"/>
	</g>
	<g>
		<g>
			<g>
				<g>
					<g>
						<g>
							<path class="st120" d="M453.5,76.6c0,0.8,0.3,1.5,0.8,2c0.5,0.5,1.3,0.8,2,0.8c0.8,0,1.5-0.3,2.1-0.8c1-1,1.1-2.9,0-4
								c-0.5-0.5-1.3-0.8-2.1-0.8c-0.7,0-1.4,0.3-2,0.8C453.8,75,453.5,75.8,453.5,76.6z"/>
						</g>
						<g>
							<path class="st120" d="M434.5,84.1c0,0.8,0.3,1.5,0.8,2c0.5,0.5,1.3,0.8,2,0.8c0.8,0,1.5-0.3,2.1-0.8c1-0.9,1.1-2.9,0-4
								c-0.5-0.5-1.2-0.8-2.1-0.8c-0.7,0-1.4,0.3-2,0.8C434.8,82.6,434.5,83.4,434.5,84.1z"/>
						</g>
						<g>
							<path class="st120" d="M423.1,65.2c0,0.8,0.3,1.5,0.8,2c0.5,0.5,1.3,0.8,2,0.8c0.8,0,1.5-0.3,2.1-0.8c1-0.9,1.1-3,0-4
								c-0.5-0.5-1.3-0.8-2.1-0.8c-0.7,0-1.4,0.3-2,0.8C423.4,63.6,423.1,64.4,423.1,65.2z"/>
						</g>
						<g>
							<path class="st120" d="M419.3,89.8c0,0.8,0.3,1.5,0.8,2c0.5,0.5,1.2,0.8,2.1,0.8c0.7,0,1.4-0.3,2-0.8c1-0.9,1.1-3,0-4
								c-0.5-0.5-1.3-0.8-2-0.8c-0.8,0-1.5,0.3-2.1,0.9C419.6,88.3,419.3,89.1,419.3,89.8z"/>
						</g>
						<g>
							<path class="st120" d="M404.1,91.7c0,0.8,0.3,1.5,0.8,2c0.5,0.5,1.2,0.8,2.1,0.8c0.7,0,1.4-0.3,2-0.8c1-1,1.1-3,0-4
								c-0.5-0.5-1.3-0.8-2-0.8c-0.8,0-1.6,0.3-2.1,0.9C404.4,90.2,404.1,91,404.1,91.7z"/>
						</g>
						<g>
							<path class="st120" d="M392.7,76.6c0,0.8,0.3,1.5,0.8,2c0.5,0.5,1.2,0.8,2.1,0.8c0.7,0,1.4-0.3,2-0.8c1-0.9,1.1-3,0-4
								c-0.5-0.5-1.3-0.8-2-0.8c-0.8,0-1.6,0.3-2.1,0.9C393,75,392.7,75.8,392.7,76.6z"/>
						</g>
						<g>
							<path class="st120" d="M411.7,76.6c0,0.8,0.3,1.5,0.8,2c0.5,0.5,1.3,0.8,2,0.8c0.8,0,1.5-0.3,2.1-0.8c1-0.9,1.1-3,0-4
								c-0.5-0.5-1.3-0.8-2.1-0.8c-0.7,0-1.4,0.3-2,0.8C412,75,411.7,75.8,411.7,76.6z"/>
						</g>
						<g>
							<path class="st120" d="M415.5,110.7c0,0.8,0.3,1.5,0.9,2c0.5,0.5,1.2,0.8,1.9,0.8c0.8,0,1.5-0.3,2.1-0.8c1-0.9,1.1-3,0-4
								c-0.5-0.5-1.3-0.8-2.1-0.8c-0.7,0-1.4,0.3-2,0.8C415.8,109.2,415.5,110,415.5,110.7z"/>
						</g>
						<g>
							<path class="st120" d="M328.2,99.3c0,0.8,0.3,1.5,0.8,2c0.5,0.5,1.3,0.8,2,0.8c0.8,0,1.5-0.3,2.1-0.8c1-1,1.1-2.9,0-4
								c-0.5-0.5-1.3-0.8-2.1-0.8c-0.7,0-1.4,0.3-2,0.8C328.5,97.8,328.2,98.6,328.2,99.3z"/>
						</g>
						<g>
							<path class="st120" d="M316.8,106.9c0,0.8,0.3,1.5,0.8,2c0.5,0.5,1.3,0.8,2,0.8c0.8,0,1.5-0.3,2.1-0.8c1.1-1.1,1.1-3,0-4.1
								c-0.5-0.5-1.2-0.8-2.1-0.8c-0.7,0-1.4,0.3-2,0.8C317.1,105.4,316.8,106.2,316.8,106.9z"/>
						</g>
						<g>
							<path class="st120" d="M330.1,69c0,0.8,0.3,1.5,0.8,2c0.5,0.5,1.3,0.8,2,0.8c0.8,0,1.5-0.3,2.1-0.8c1-1,1.1-3,0-4
								c-0.5-0.5-1.3-0.8-2.1-0.8c-0.7,0-1.4,0.3-2,0.8C330.4,67.4,330.1,68.2,330.1,69z"/>
						</g>
						<g>
							<path class="st120" d="M349,72.8c0,0.8,0.3,1.5,0.8,2c0.5,0.5,1.2,0.8,2,0.8c0.8,0,1.6-0.3,2.1-0.8c1-0.9,1.1-3-0.1-4
								c-0.4-0.5-1.1-0.8-2-0.8c-0.8,0-1.4,0.3-2,0.8C349.3,71.2,349,72,349,72.8z"/>
						</g>
						<g>
							<path class="st120" d="M387,110.7c0,0.8,0.3,1.5,0.9,2c0.5,0.5,1.1,0.8,2,0.8c0.7,0,1.4-0.3,2-0.8c1-0.9,1.1-3,0-4
								c-0.5-0.5-1.3-0.8-2-0.8c-0.8,0-1.5,0.3-2.1,0.9C387.3,109.2,387,110,387,110.7z"/>
						</g>
						<g>
							<path class="st120" d="M349,103.1c0,0.8,0.3,1.5,0.8,2c0.5,0.5,1.3,0.8,2,0.8c0.8,0,1.5-0.3,2.1-0.8c1-1,1.1-2.9,0-4
								c-0.5-0.5-1.3-0.8-2.1-0.8c-0.7,0-1.4,0.3-2,0.8C349.3,101.6,349,102.4,349,103.1z"/>
						</g>
						<g>
							<path class="st120" d="M375.6,91.7c0,0.8,0.3,1.5,0.8,2c0.5,0.5,1.2,0.8,2.1,0.8c0.7,0,1.4-0.3,2-0.8c1.1-1,1.1-3,0-4
								c-0.5-0.5-1.3-0.8-2-0.8c-0.8,0-1.5,0.3-2.1,0.9C375.9,90.2,375.6,91,375.6,91.7z"/>
						</g>
						<g>
							<path class="st120" d="M286.4,105c0,0.8,0.3,1.4,0.8,2c0.5,0.5,1.2,0.8,2,0.8c0.8,0,1.6-0.3,2.1-0.8c1.1-1,1.1-3,0-4
								c-0.5-0.5-1.3-0.8-2.1-0.8c-0.7,0-1.4,0.3-2,0.8C286.7,103.5,286.4,104.3,286.4,105z"/>
						</g>
						<g>
							<path class="st120" d="M434.5,112.6c0,0.8,0.3,1.5,0.8,2c0.5,0.5,1.3,0.8,2.1,0.8c0.7,0,1.4-0.3,2-0.8c1.1-1,1.1-2.9,0-4
								c-0.5-0.5-1.3-0.8-2-0.8c-0.8,0-1.5,0.3-2.1,0.9C434.8,111.1,434.5,111.9,434.5,112.6z"/>
						</g>
					</g>
				</g>
			</g>
			<g>
				<g>
					<g>
						<g>
							<path class="st120" d="M220,116.4c0,0.8,0.3,1.5,0.8,2c0.5,0.5,1.3,0.8,2.1,0.8c0.7,0,1.4-0.3,2-0.8c1-1,1.1-3,0-4
								c-0.5-0.5-1.2-0.8-2-0.8c-0.8,0-1.5,0.3-2.1,0.9C220.3,114.9,220,115.7,220,116.4z"/>
						</g>
						<g>
							<path class="st120" d="M252.2,116.4c0,0.8,0.3,1.5,0.8,2c0.5,0.5,1.3,0.8,2,0.8c0.8,0,1.5-0.3,2.1-0.8c1-1,1.1-3,0-4
								c-0.5-0.5-1.3-0.8-2.1-0.8c-0.7,0-1.4,0.3-2,0.8C252.5,114.9,252.2,115.7,252.2,116.4z"/>
						</g>
					</g>
				</g>
			</g>
			<g>
				<g>
					<g>
						<g>
							<path class="st120" d="M269.3,163.9c0,0.8,0.3,1.5,0.9,2c0.5,0.5,1.1,0.8,1.9,0.8c0.8,0,1.5-0.3,2.1-0.8c1-0.9,1.1-3,0-4
								c-0.5-0.5-1.3-0.8-2.1-0.8c-0.8,0-1.4,0.3-2,0.9C269.6,162.4,269.3,163.1,269.3,163.9z"/>
						</g>
					</g>
					<g>
						<g>
							<path class="st120" d="M320.6,255c0,0.8,0.3,1.5,0.8,2c0.5,0.5,1.2,0.8,2,0.8c0.8,0,1.6-0.3,2.1-0.8c0.9-0.9,1-2.9-0.1-4
								c-0.5-0.5-1.2-0.8-2.1-0.8c-0.8,0-1.4,0.3-2,0.9C320.9,253.5,320.6,254.2,320.6,255z"/>
						</g>
						<g>
							<path class="st120" d="M320.6,281.6c0,0.8,0.3,1.4,0.8,2c0.5,0.5,1.2,0.8,2,0.8c0.8,0,1.5-0.3,2.1-0.8c1.1-1.1,1.1-3,0-4
								c-0.5-0.5-1.2-0.8-2.1-0.8c-0.7,0-1.4,0.3-2,0.8C320.9,280.1,320.6,280.8,320.6,281.6z"/>
						</g>
						<g>
							<path class="st120" d="M332,156.3c0,0.8,0.3,1.5,0.8,2c0.5,0.5,1.3,0.8,2,0.8c0.8,0,1.5-0.3,2.1-0.8c1.1-1,1.1-2.9,0-4
								c-0.5-0.5-1.3-0.8-2.1-0.8c-0.7,0-1.4,0.3-2,0.8C332.3,154.8,332,155.5,332,156.3z"/>
						</g>
						<g>
							<path class="st120" d="M324.4,186.7c0,0.8,0.3,1.4,0.8,2c0.5,0.5,1.3,0.8,2,0.8c0.8,0,1.5-0.2,2.1-0.8c1.1-1.1,1.1-3,0-4.1
								c-0.5-0.5-1.2-0.8-2.1-0.8c-0.8,0-1.4,0.3-2,0.8C324.7,185.1,324.4,185.9,324.4,186.7z"/>
						</g>
						<g>
							<path class="st120" d="M309.2,156.3c0,0.8,0.3,1.5,0.8,2c0.5,0.5,1.3,0.8,2,0.8c0.8,0,1.5-0.3,2.1-0.8c1.1-1,1.1-3,0-4
								c-0.5-0.5-1.3-0.8-2.1-0.8c-0.7,0-1.4,0.3-2,0.8C309.5,154.8,309.2,155.5,309.2,156.3z"/>
						</g>
						<g>
							<path class="st120" d="M301.6,194.3c0,0.8,0.3,1.5,0.8,2c0.5,0.5,1.3,0.8,2.1,0.8c0.8,0,1.5-0.3,2-0.8c1-0.9,1.1-2.9,0-4
								c-0.5-0.5-1.2-0.8-2-0.8c-0.8,0-1.5,0.3-2.1,0.8C301.9,192.7,301.6,193.5,301.6,194.3z"/>
						</g>
						<g>
							<path class="st120" d="M290.2,179.1c0,0.8,0.3,1.5,0.8,2c0.5,0.5,1.3,0.8,2.1,0.8c0.8,0,1.4-0.3,2-0.8c1-0.9,1.1-2.9,0-4
								c-0.5-0.5-1.2-0.8-2-0.8c-0.8,0-1.5,0.3-2.1,0.8C290.5,177.5,290.2,178.3,290.2,179.1z"/>
						</g>
						<g>
							<path class="st120" d="M309.2,179.1c0,0.8,0.3,1.5,0.8,2c0.5,0.5,1.3,0.8,2,0.8c0.8,0,1.5-0.3,2.1-0.8c1.1-1,1.1-3,0-4
								c-0.5-0.5-1.3-0.8-2.1-0.8c-0.7,0-1.4,0.3-2,0.8C309.5,177.5,309.2,178.3,309.2,179.1z"/>
						</g>
						<g>
							<path class="st120" d="M373.7,190.5c0,0.8,0.3,1.5,0.8,2c0.5,0.5,1.3,0.8,2.1,0.8c0.7,0,1.4-0.3,2-0.8c1.1-1,1.1-2.9,0-3.9
								c-0.5-0.6-1.3-0.9-2-0.9c-0.8,0-1.5,0.3-2.1,0.8C374,188.9,373.7,189.7,373.7,190.5z"/>
						</g>
						<g>
							<path class="st120" d="M400.3,179.1c0,0.8,0.3,1.5,0.8,2c0.5,0.5,1.3,0.8,2.1,0.8c0.8,0,1.5-0.3,2-0.8c1-0.9,1.1-2.9,0-4
								c-0.5-0.5-1.2-0.8-2-0.8c-0.8,0-1.5,0.3-2.1,0.8C400.6,177.5,400.3,178.3,400.3,179.1z"/>
						</g>
						<g>
							<path class="st120" d="M297.8,274c0,0.8,0.3,1.4,0.8,2c0.5,0.5,1.3,0.8,2,0.8c0.8,0,1.4-0.2,2.1-0.8c1.1-1.1,1.1-3,0-4.1
								c-0.5-0.5-1.3-0.8-2.1-0.8c-0.7,0-1.4,0.3-2,0.8C298.1,272.5,297.8,273.2,297.8,274z"/>
						</g>
						<g>
							<path class="st120" d="M341.5,251.2c0,0.8,0.3,1.4,0.8,2c0.5,0.5,1.2,0.8,2.1,0.8c0.8,0,1.5-0.3,2-0.8c0.9-1,1-3-0.1-4
								c-0.5-0.5-1.2-0.8-2-0.8c-0.8,0-1.5,0.3-2.1,0.8C341.8,249.7,341.5,250.4,341.5,251.2z"/>
						</g>
						<g>
							<path class="st120" d="M360.4,258.8c0,0.8,0.3,1.5,0.8,2c0.5,0.5,1.3,0.8,2,0.8c0.8,0,1.5-0.3,2.1-0.8c1-0.9,1.1-2.9,0-4
								c-0.5-0.5-1.3-0.8-2.1-0.8c-0.7,0-1.4,0.3-2,0.8C360.7,257.3,360.4,258,360.4,258.8z"/>
						</g>
						<g>
							<path class="st120" d="M364.2,232.2c0,0.8,0.3,1.4,0.8,2c0.5,0.5,1.2,0.8,2,0.8c0.8,0,1.5-0.3,2.1-0.8c1.1-1.1,1.1-3,0-4
								c-0.5-0.5-1.2-0.8-2.1-0.8c-0.8,0-1.4,0.3-2,0.8C364.5,230.7,364.2,231.5,364.2,232.2z"/>
						</g>
						<g>
							<path class="st120" d="M360.4,198.1c0,0.8,0.3,1.4,0.8,2c0.5,0.5,1.3,0.8,2.1,0.8c0.7,0,1.4-0.3,2-0.8c1.1-1.2,1.1-3,0-4
								c-0.5-0.6-1.2-0.9-2-0.9c-0.8,0-1.5,0.3-2.1,0.8C360.7,196.5,360.4,197.3,360.4,198.1z"/>
						</g>
						<g>
							<path class="st120" d="M356.6,175.3c0,0.8,0.3,1.5,0.8,2c0.5,0.5,1.2,0.8,2,0.8s1.5-0.3,2.1-0.8c1-1,1.1-3,0-4
								c-0.5-0.5-1.3-0.8-2.1-0.8s-1.4,0.3-2,0.9C356.9,173.8,356.6,174.5,356.6,175.3z"/>
						</g>
						<g>
							<path class="st120" d="M387,175.3c0,0.8,0.3,1.5,0.8,2c0.5,0.5,1.3,0.8,2,0.8c0.8,0,1.5-0.3,2.1-0.8c1-0.9,1.1-3,0-4
								c-0.5-0.5-1.3-0.8-2.1-0.8c-0.7,0-1.4,0.3-2,0.8C387.3,173.8,387,174.5,387,175.3z"/>
						</g>
						<g>
							<path class="st120" d="M332,272.1c0,0.8,0.3,1.4,0.8,2c0.5,0.5,1.3,0.8,2,0.8c0.8,0,1.5-0.3,2.1-0.8c1.1-1.1,1.1-3,0-4.1
								c-0.5-0.5-1.3-0.8-2.1-0.8c-0.7,0-1.4,0.3-2,0.8C332.3,270.6,332,271.3,332,272.1z"/>
						</g>
						<g>
							<path class="st120" d="M333.9,129.7c0,0.8,0.3,1.5,0.8,2c0.5,0.5,1.3,0.8,2,0.8c0.8,0,1.5-0.3,2.1-0.8c1.1-0.9,1.1-3,0-4
								c-0.5-0.5-1.3-0.8-2.1-0.8c-0.7,0-1.4,0.3-2,0.8C334.2,128.2,333.9,128.9,333.9,129.7z"/>
						</g>
						<g>
							<path class="st120" d="M275,137.3c0,0.8,0.3,1.4,0.8,2c0.5,0.5,1.2,0.8,2,0.8c0.8,0,1.5-0.3,2.1-0.8c1.1-0.9,1.1-3,0-4
								c-0.5-0.5-1.2-0.8-2.1-0.8c-0.8,0-1.4,0.3-2,0.9C275.3,135.8,275,136.5,275,137.3z"/>
						</g>
						<g>
							<path class="st120" d="M269.3,163.9c0,0.8,0.3,1.5,0.8,2c0.5,0.5,1.2,0.8,2,0.8c0.8,0,1.5-0.3,2.1-0.8c1-0.9,1.1-3,0-4
								c-0.5-0.5-1.3-0.8-2.1-0.8c-0.8,0-1.4,0.3-2,0.9C269.6,162.4,269.3,163.1,269.3,163.9z"/>
						</g>
						<g>
							<path class="st120" d="M271.2,300.6c0,0.8,0.3,1.4,0.8,2c0.5,0.5,1.3,0.8,2.1,0.8c0.8,0,1.4-0.3,2-0.8c1.1-1,1.1-3,0-4
								c-0.5-0.5-1.2-0.8-2-0.8c-0.8,0-1.5,0.3-2.1,0.8C271.5,299,271.2,299.8,271.2,300.6z"/>
						</g>
						<g>
							<path class="st120" d="M275,213.2c0,0.8,0.3,1.5,0.8,2c0.5,0.5,1.3,0.8,2,0.8c0.8,0,1.5-0.3,2.1-0.8c1.1-0.9,1.1-3,0-4
								c-0.5-0.5-1.3-0.8-2.1-0.8c-0.7,0-1.4,0.3-2,0.8C275.3,211.7,275,212.5,275,213.2z"/>
						</g>
						<g>
							<path class="st120" d="M280.7,245.5c0,0.8,0.3,1.4,0.8,2c0.5,0.5,1.3,0.8,2,0.8c0.8,0,1.4-0.3,2.1-0.8c1.1-1.1,1.1-3,0-4.1
								c-0.5-0.5-1.2-0.8-2.1-0.8c-0.8,0-1.5,0.3-2,0.9C281,244,280.7,244.7,280.7,245.5z"/>
						</g>
						<g>
							<path class="st120" d="M294,152.5c0,0.8,0.3,1.5,0.8,2c0.5,0.5,1.3,0.8,2,0.8c0.8,0,1.5-0.3,2.1-0.8c1-0.9,1.1-3,0-4
								c-0.5-0.5-1.3-0.8-2.1-0.8c-0.7,0-1.4,0.3-2,0.8C294.3,151,294,151.7,294,152.5z"/>
						</g>
					</g>
				</g>
			</g>
			<g>
				<g>
					<g>
						<g>
							<path class="st120" d="M221.9,315.8c0,0.8,0.3,1.4,0.8,2c0.5,0.5,1.2,0.8,2,0.8s1.5-0.3,2.1-0.8c1-1,1.1-2.9,0-4
								c-0.5-0.5-1.3-0.8-2.1-0.8c-0.7,0-1.4,0.3-2,0.8C222.2,314.3,221.9,315,221.9,315.8z"/>
						</g>
						<g>
							<path class="st120" d="M240.8,308.2c0,0.8,0.3,1.4,0.8,2c0.5,0.5,1.2,0.8,2.1,0.8c0.8,0,1.4-0.3,2-0.8c1.1-1,1.1-3,0-4
								c-0.5-0.5-1.3-0.8-2-0.8c-0.8,0-1.5,0.3-2.1,0.8C241.1,306.6,240.8,307.4,240.8,308.2z"/>
						</g>
						<g>
							<path class="st120" d="M199.1,304.4c0,0.8,0.3,1.4,0.8,2c0.5,0.5,1.2,0.8,2.1,0.8c0.8,0,1.4-0.3,2-0.8c1.1-1.1,1.1-3,0-4
								c-0.5-0.5-1.2-0.8-2-0.8c-0.8,0-1.5,0.3-2.1,0.8C199.4,302.8,199.1,303.6,199.1,304.4z"/>
						</g>
						<g>
							<path class="st120" d="M221.9,293c0,0.7,0.3,1.4,0.8,2c0.5,0.5,1.2,0.8,2,0.8c0.8,0,1.5-0.3,2.1-0.8c1.1-1.1,1.1-3,0-4
								c-0.5-0.5-1.3-0.8-2.1-0.8c-0.7,0-1.4,0.3-2,0.8C222.2,291.5,221.9,292.2,221.9,293z"/>
						</g>
						<g>
							<path class="st120" d="M199.1,274c0,0.8,0.3,1.4,0.8,2c0.6,0.6,1.3,0.8,2.1,0.8c0.7,0,1.4-0.3,2-0.8c1.1-1.1,1.1-3,0-4.1
								c-0.5-0.5-1.3-0.8-2-0.8c-0.8,0-1.5,0.3-2.1,0.8C199.4,272.5,199.1,273.2,199.1,274z"/>
						</g>
						<g>
							<path class="st120" d="M183.9,296.8c0,0.8,0.3,1.4,0.8,2c0.5,0.5,1.3,0.8,2,0.8c0.8,0,1.5-0.3,2.1-0.8c1.1-1.1,1.1-3,0-4
								c-0.5-0.5-1.2-0.8-2.1-0.8c-0.8,0-1.4,0.3-2,0.9C184.2,295.3,183.9,296,183.9,296.8z"/>
						</g>
						<g>
							<path class="st120" d="M172.5,277.8c0,0.8,0.3,1.4,0.8,2c0.5,0.5,1.2,0.8,2,0.8c0.8,0,1.5-0.3,2.1-0.8c1.1-1.1,1.1-3,0-4
								c-0.5-0.5-1.3-0.8-2.1-0.8c-0.7,0-1.4,0.3-2,0.8C172.8,276.3,172.5,277,172.5,277.8z"/>
						</g>
						<g>
							<path class="st120" d="M172.5,308.2c0,0.8,0.3,1.4,0.8,2c0.5,0.5,1.2,0.8,2,0.8c0.8,0,1.6-0.3,2.1-0.8c0.9-1,1-3-0.1-4
								c-0.5-0.5-1.2-0.8-2.1-0.8c-0.8,0-1.5,0.3-2,0.9C172.8,306.6,172.5,307.4,172.5,308.2z"/>
						</g>
						<g>
							<path class="st120" d="M161.1,289.2c0,0.8,0.3,1.4,0.8,2c0.5,0.5,1.3,0.8,2,0.8c0.8,0,1.5-0.3,2.1-0.8c1-0.9,1.1-2.9,0-4
								c-0.5-0.5-1.3-0.8-2.1-0.8c-0.7,0-1.4,0.3-2,0.8C161.4,287.7,161.1,288.4,161.1,289.2z"/>
						</g>
						<g>
							<path class="st120" d="M115.5,315.8c0,0.8,0.3,1.5,0.8,2c0.5,0.5,1.3,0.8,2,0.8c0.8,0,1.5-0.3,2.1-0.8c1-0.9,1.1-2.9,0-4
								c-0.5-0.5-1.3-0.8-2.1-0.8c-0.7,0-1.4,0.3-2,0.8C115.8,314.2,115.5,315,115.5,315.8z"/>
						</g>
						<g>
							<path class="st120" d="M126.9,330.9c0,0.8,0.3,1.4,0.8,2c0.5,0.5,1.2,0.8,2,0.8c0.8,0,1.5-0.3,2.1-0.8c1.1-1.1,1.1-3,0-4
								c-0.5-0.5-1.3-0.8-2.1-0.8c-0.7,0-1.4,0.3-2,0.8C127.2,329.4,126.9,330.2,126.9,330.9z"/>
						</g>
						<g>
							<path class="st120" d="M123.1,262.6c0,0.8,0.3,1.5,0.9,2c0.5,0.5,1.1,0.8,1.9,0.8s1.5-0.3,2.1-0.8c1-0.9,1.1-3,0-4
								c-0.5-0.5-1.3-0.8-2.1-0.8s-1.4,0.3-2,0.9C123.4,261.1,123.1,261.8,123.1,262.6z"/>
						</g>
						<g>
							<path class="st120" d="M145.9,258.8c0,0.8,0.3,1.5,0.9,2c0.4,0.5,1.1,0.8,1.9,0.8c0.8,0,1.5-0.3,2.1-0.8c1-0.9,1.1-2.9,0-4
								c-0.5-0.5-1.2-0.8-2.1-0.8c-0.8,0-1.5,0.3-2,0.9C146.2,257.4,145.9,258,145.9,258.8z"/>
						</g>
						<g>
							<path class="st120" d="M161.1,236c0,0.8,0.3,1.4,0.8,2c0.5,0.5,1.2,0.8,2,0.8c0.8,0,1.6-0.3,2.1-0.8c0.9-1,1-3-0.1-4
								c-0.5-0.5-1.2-0.8-2.1-0.8c-0.8,0-1.4,0.3-2,0.9C161.4,234.5,161.1,235.3,161.1,236z"/>
						</g>
						<g>
							<path class="st120" d="M210.5,209.4c0,0.8,0.3,1.4,0.8,2c0.5,0.5,1.3,0.8,2,0.8c0.8,0,1.5-0.3,2.1-0.8c1.1-1.1,1.1-3,0-4.1
								c-0.5-0.5-1.2-0.8-2.1-0.8c-0.7,0-1.4,0.3-2,0.8C210.8,207.9,210.5,208.7,210.5,209.4z"/>
						</g>
						<g>
							<path class="st120" d="M233.2,236c0,0.7,0.3,1.4,0.8,2c0.5,0.5,1.2,0.8,2,0.8c0.8,0,1.5-0.3,2.1-0.8c1.1-1.1,1.1-3,0-4
								c-0.5-0.5-1.3-0.8-2.1-0.8s-1.4,0.3-2,0.8C233.5,234.6,233.2,235.3,233.2,236z"/>
						</g>
						<g>
							<path class="st120" d="M240.8,205.6c0,0.8,0.3,1.4,0.8,2c0.6,0.6,1.3,0.8,2.1,0.8c0.7,0,1.4-0.3,2-0.8c1.1-1.3,1.1-3,0-4
								c-0.5-0.6-1.2-0.9-2-0.9c-0.8,0-1.5,0.3-2.1,0.8C241.1,204.1,240.8,204.9,240.8,205.6z"/>
						</g>
						<g>
							<path class="st120" d="M256,236c0,0.8,0.3,1.4,0.8,2c0.5,0.5,1.2,0.8,2,0.8c0.8,0,1.5-0.3,2.1-0.8c1.1-1.1,1.1-3,0-4
								c-0.5-0.5-1.2-0.8-2.1-0.8c-0.8,0-1.4,0.3-2,0.8C256.3,234.5,256,235.3,256,236z"/>
						</g>
						<g>
							<path class="st120" d="M206.7,175.3c0,0.8,0.3,1.5,0.8,2c0.5,0.5,1.3,0.8,2.1,0.8c0.8,0,1.5-0.3,2-0.8c1-0.9,1.1-2.9,0-4
								c-0.5-0.5-1.2-0.8-2-0.8c-0.8,0-1.5,0.3-2.1,0.8C207,173.8,206.7,174.5,206.7,175.3z"/>
						</g>
						<g>
							<path class="st120" d="M202.9,152.5c0,0.8,0.3,1.5,0.9,2c0.4,0.5,1.1,0.8,1.9,0.8s1.5-0.3,2.1-0.8c1-0.9,1.1-3,0-4
								c-0.5-0.5-1.3-0.8-2.1-0.8s-1.5,0.3-2,0.9C203.2,151,202.9,151.7,202.9,152.5z"/>
						</g>
						<g>
							<path class="st120" d="M233.2,152.5c0,0.8,0.3,1.5,0.8,2c0.5,0.5,1.2,0.8,2,0.8c0.8,0,1.5-0.3,2.1-0.8c1-0.9,1.1-3,0-4
								c-0.5-0.5-1.2-0.8-2.1-0.8c-0.8,0-1.5,0.3-2,0.9C233.5,151,233.2,151.7,233.2,152.5z"/>
						</g>
						<g>
							<path class="st120" d="M172.5,163.9c0,0.8,0.3,1.5,0.8,2c0.5,0.5,1.3,0.8,2,0.8c0.8,0,1.5-0.3,2.1-0.8c1-0.9,1.1-3,0-4
								c-0.5-0.5-1.2-0.8-2.1-0.8c-0.7,0-1.4,0.3-2,0.8C172.8,162.4,172.5,163.1,172.5,163.9z"/>
						</g>
						<g>
							<path class="st120" d="M168.7,201.9c0,0.8,0.3,1.4,0.8,2c0.5,0.5,1.3,0.8,2.1,0.8c0.7,0,1.4-0.3,2-0.8c1.1-1.1,1.1-3,0-4
								c-0.5-0.5-1.2-0.8-2-0.8c-0.8,0-1.5,0.3-2.1,0.8C169,200.3,168.7,201.1,168.7,201.9z"/>
						</g>
						<g>
							<path class="st120" d="M161.1,236c0,0.8,0.3,1.4,0.8,2c0.5,0.5,1.2,0.8,2,0.8c0.8,0,1.6-0.3,2.1-0.8c0.9-1,1-3-0.1-4
								c-0.5-0.5-1.2-0.8-2.1-0.8c-0.8,0-1.4,0.3-2,0.9C161.4,234.5,161.1,235.3,161.1,236z"/>
						</g>
						<g>
							<path class="st120" d="M248.4,158.2c0,0.8,0.3,1.4,0.8,2c0.5,0.5,1.3,0.8,2,0.8c0.8,0,1.5-0.3,2.1-0.8c1-0.9,1.1-3,0-4
								c-0.5-0.5-1.3-0.8-2.1-0.8c-0.7,0-1.4,0.3-2,0.8C248.7,156.7,248.4,157.4,248.4,158.2z"/>
						</g>
						<g>
							<path class="st120" d="M256,302.5c0,0.7,0.3,1.4,0.8,2c0.6,0.5,1.3,0.8,2.1,0.8c0.8,0,1.5-0.3,2.1-0.8c1.1-1.1,1.1-3,0-4
								c-0.5-0.5-1.3-0.8-2.1-0.8c-0.7,0-1.4,0.3-2,0.8C256.3,301,256,301.7,256,302.5z"/>
						</g>
						<g>
							<path class="st120" d="M178.2,249.3c0,0.8,0.3,1.5,0.8,2c0.5,0.5,1.3,0.8,2,0.8c0.8,0,1.5-0.3,2.1-0.8c1-0.9,1.1-3,0-4
								c-0.5-0.5-1.3-0.8-2.1-0.8c-0.7,0-1.4,0.3-2,0.8C178.5,247.8,178.2,248.5,178.2,249.3z"/>
						</g>
						<g>
							<path class="st120" d="M182,334.7c0,0.8,0.3,1.4,0.8,2c0.5,0.5,1.3,0.8,2,0.8c0.8,0,1.5-0.3,2.1-0.8c1.1-1.1,1.1-3,0-4
								c-0.5-0.5-1.3-0.8-2.1-0.8c-0.7,0-1.4,0.3-2,0.8C182.3,333.2,182,334,182,334.7z"/>
						</g>
						<g>
							<path class="st120" d="M261.7,144.9c0,0.8,0.3,1.5,0.9,2c0.4,0.5,1.1,0.8,1.9,0.8c0.8,0,1.5-0.3,2.1-0.8c1-0.9,1.1-3,0-4
								c-0.5-0.5-1.3-0.8-2.1-0.8s-1.5,0.3-2,0.9C262,143.4,261.7,144.1,261.7,144.9z"/>
						</g>
						<g>
							<path class="st120" d="M259.8,281.6c0,0.8,0.3,1.4,0.8,2c0.5,0.5,1.3,0.8,2.1,0.8c0.8,0,1.5-0.3,2-0.8c1.1-1.1,1.1-3,0-4
								c-0.5-0.5-1.2-0.8-2-0.8c-0.8,0-1.5,0.3-2.1,0.8C260.1,280.1,259.8,280.8,259.8,281.6z"/>
						</g>
						<g>
							<path class="st120" d="M263.6,198.1c0,0.8,0.3,1.4,0.8,2c0.5,0.5,1.3,0.8,2.1,0.8c0.7,0,1.4-0.3,2-0.8c1.1-1.1,1.1-3,0-4
								c-0.5-0.5-1.2-0.8-2-0.8c-0.8,0-1.5,0.3-2.1,0.8C263.9,196.5,263.6,197.3,263.6,198.1z"/>
						</g>
						<g>
							<path class="st120" d="M256,213.2c0,0.8,0.3,1.4,0.8,2c0.5,0.5,1.3,0.8,2,0.8c0.8,0,1.5-0.3,2.1-0.8c1.1-0.9,1.1-3,0-4
								c-0.5-0.5-1.3-0.8-2.1-0.8c-0.7,0-1.4,0.3-2,0.8C256.3,211.8,256,212.5,256,213.2z"/>
						</g>
						<g>
							<path class="st120" d="M252.2,179.1c0,0.8,0.3,1.5,0.8,2c0.5,0.5,1.3,0.8,2.1,0.8c0.8,0,1.5-0.3,2-0.8c1-0.9,1.1-2.9,0-4
								c-0.5-0.5-1.2-0.8-2-0.8c-0.8,0-1.5,0.3-2.1,0.8C252.5,177.5,252.2,178.3,252.2,179.1z"/>
						</g>
						<g>
							<path class="st120" d="M138.3,201.9c0,0.8,0.3,1.4,0.8,2c0.6,0.6,1.3,0.8,2,0.8c0.8,0,1.5-0.3,2.1-0.8c1.1-1.1,1.1-3,0-4.1
								c-0.5-0.5-1.2-0.8-2.1-0.8c-0.7,0-1.4,0.3-2,0.8C138.6,200.3,138.3,201.1,138.3,201.9z"/>
						</g>
						<g>
							<path class="st120" d="M206.7,139.2c0,0.8,0.3,1.5,0.8,2c0.5,0.5,1.2,0.8,2.1,0.8c0.8,0,1.5-0.3,2-0.8c0.9-0.9,1-3-0.1-4
								c-0.5-0.5-1.2-0.8-2-0.8c-0.8,0-1.5,0.3-2.1,0.8C207,137.7,206.7,138.4,206.7,139.2z"/>
						</g>
						<g>
							<path class="st120" d="M250.3,137.3c0,0.8,0.3,1.5,0.8,2c0.5,0.5,1.2,0.8,2,0.8c0.8,0,1.5-0.3,2.1-0.8c1-1,1.1-3,0-4
								c-0.5-0.5-1.2-0.8-2.1-0.8c-0.8,0-1.4,0.3-2,0.8C250.6,135.8,250.3,136.5,250.3,137.3z"/>
						</g>
						<g>
							<path class="st120" d="M269.3,163.9c0,0.8,0.3,1.5,0.9,2c0.5,0.5,1.1,0.8,1.9,0.8s1.5-0.3,2.1-0.8c1-0.9,1.1-3,0-4
								c-0.5-0.5-1.3-0.8-2.1-0.8s-1.4,0.3-2,0.9C269.6,162.4,269.3,163.1,269.3,163.9z"/>
						</g>
					</g>
					<g>
						<g>
							<path class="st120" d="M269.3,163.9c0,0.8,0.3,1.5,0.8,2c0.5,0.5,1.2,0.8,2,0.8s1.5-0.3,2.1-0.8c1-0.9,1.1-3,0-4
								c-0.5-0.5-1.3-0.8-2.1-0.8s-1.4,0.3-2,0.9C269.6,162.4,269.3,163.1,269.3,163.9z"/>
						</g>
					</g>
				</g>
			</g>
		</g>
	</g>
	<g>
		<g>
			<g>
				<g>
					<g>
						<g>
							<path class="st120" d="M320.6,87.9c0,0.8,0.3,1.5,0.8,2c0.5,0.5,1.2,0.8,2,0.8c0.8,0,1.6-0.3,2.1-0.8c0.9-0.9,1-2.9-0.1-4
								c-0.5-0.5-1.2-0.8-2.1-0.8c-0.8,0-1.4,0.3-2,0.9C320.9,86.4,320.6,87.2,320.6,87.9z"/>
						</g>
						<g>
							<path class="st120" d="M320.6,114.5c0,0.8,0.3,1.4,0.8,2c0.5,0.5,1.2,0.8,2,0.8c0.8,0,1.5-0.3,2.1-0.8c1.1-1.1,1.1-3,0-4
								c-0.5-0.5-1.2-0.8-2.1-0.8c-0.7,0-1.4,0.3-2,0.8C320.9,113,320.6,113.8,320.6,114.5z"/>
						</g>
						<g>
							<path class="st120" d="M396.5,141.1c0,0.8,0.3,1.4,0.8,2c0.5,0.5,1.2,0.8,2,0.8c0.8,0,1.6-0.3,2.1-0.8c0.9-1,1-3-0.1-4
								c-0.5-0.5-1.2-0.8-2.1-0.8c-0.8,0-1.5,0.3-2,0.9C396.8,139.6,396.5,140.3,396.5,141.1z"/>
						</g>
						<g>
							<path class="st120" d="M309.2,133.5c0,0.8,0.3,1.4,0.8,2c0.5,0.5,1.3,0.8,2.1,0.8c0.7,0,1.4-0.3,2-0.8c1.1-1.2,1.1-3,0.1-4
								c-0.6-0.6-1.4-0.9-2-0.9c-0.8,0-1.5,0.3-2.1,0.8C309.5,132,309.2,132.7,309.2,133.5z"/>
						</g>
						<g>
							<path class="st120" d="M444,69c0,0.8,0.3,1.4,0.8,2c0.5,0.5,1.2,0.8,2.1,0.8c0.8,0,1.4-0.3,2-0.8c1.1-1,1.1-3,0-4
								c-0.5-0.5-1.2-0.8-2-0.8c-0.8,0-1.5,0.3-2.1,0.8C444.3,67.4,444,68.2,444,69z"/>
						</g>
						<g>
							<path class="st120" d="M430.7,125.9c0,0.8,0.3,1.4,0.8,2c0.5,0.5,1.2,0.8,2,0.8c0.8,0,1.5-0.3,2.1-0.8c1.1-1.1,1.1-3,0-4
								c-0.5-0.5-1.3-0.8-2.1-0.8s-1.4,0.3-2,0.9C431,124.4,430.7,125.2,430.7,125.9z"/>
						</g>
						<g>
							<path class="st120" d="M428.8,63.3c0,0.8,0.3,1.4,0.8,2c0.6,0.6,1.3,0.8,2.1,0.8c0.7,0,1.4-0.3,2-0.8c1.1-1.2,1.1-3,0-4
								c-0.5-0.6-1.3-0.9-2-0.9c-0.8,0-1.5,0.3-2.1,0.8C429.1,61.7,428.8,62.5,428.8,63.3z"/>
						</g>
						<g>
							<path class="st120" d="M400.3,165.8c0,0.8,0.3,1.4,0.8,2c0.5,0.5,1.2,0.8,2,0.8c0.8,0,1.6-0.3,2.1-0.8c1.1-1.1,1.1-3,0-4
								c-0.5-0.5-1.2-0.8-2.1-0.8c-0.8,0-1.5,0.3-2,0.9C400.6,164.3,400.3,165,400.3,165.8z"/>
						</g>
						<g>
							<path class="st120" d="M402.2,84.1c0,0.8,0.3,1.4,0.8,2c0.5,0.5,1.2,0.8,2.1,0.8c0.8,0,1.4-0.3,2-0.8c1.1-1,1.1-3,0-4
								c-0.5-0.5-1.2-0.8-2-0.8c-0.8,0-1.5,0.3-2.1,0.8C402.5,82.6,402.2,83.4,402.2,84.1z"/>
						</g>
						<g>
							<path class="st120" d="M415.5,76.6c0,0.8,0.3,1.5,0.8,2c0.5,0.5,1.3,0.8,2,0.8c0.8,0,1.5-0.3,2.1-0.8c1.1-1,1.1-3,0-4
								c-0.5-0.5-1.3-0.8-2.1-0.8c-0.7,0-1.4,0.3-2,0.8C415.8,75,415.5,75.8,415.5,76.6z"/>
						</g>
						<g>
							<path class="st120" d="M407.9,57.6c0,0.8,0.3,1.5,0.8,2c0.5,0.5,1.2,0.8,2,0.8s1.5-0.3,2.1-0.8c1-0.9,1.1-3,0-4
								c-0.5-0.5-1.3-0.8-2.1-0.8s-1.4,0.3-2,0.9C408.2,56.1,407.9,56.8,407.9,57.6z"/>
						</g>
						<g>
							<path class="st120" d="M330.1,220.8c0,0.8,0.3,1.4,0.8,2c0.5,0.5,1.2,0.8,2,0.8c0.8,0,1.5-0.3,2.1-0.8c1.1-1.1,1.1-3,0-4
								c-0.5-0.5-1.2-0.8-2.1-0.8c-0.8,0-1.4,0.3-2,0.8C330.4,219.3,330.1,220.1,330.1,220.8z"/>
						</g>
						<g>
							<path class="st120" d="M297.8,106.9c0,0.8,0.3,1.4,0.8,2c0.5,0.5,1.3,0.8,2,0.8c0.8,0,1.4-0.2,2.1-0.8c1.1-1.1,1.1-3,0-4.1
								c-0.5-0.5-1.3-0.8-2.1-0.8c-0.7,0-1.4,0.3-2,0.8C298.1,105.4,297.8,106.2,297.8,106.9z"/>
						</g>
						<g>
							<path class="st120" d="M349,209.4c0,0.8,0.3,1.4,0.8,2c0.5,0.5,1.2,0.8,2,0.8c0.8,0,1.5-0.3,2.1-0.8c1.1-1.1,1.1-3,0-4
								c-0.5-0.5-1.3-0.8-2.1-0.8c-0.7,0-1.4,0.3-2,0.8C349.3,207.9,349,208.7,349,209.4z"/>
						</g>
						<g>
							<path class="st120" d="M364.2,194.3c0,0.7,0.3,1.4,0.8,2c0.6,0.5,1.3,0.8,2.1,0.8c0.8,0,1.6-0.3,2.1-0.8c1.1-1,1.1-3,0-4
								c-0.5-0.5-1.2-0.8-2.1-0.8c-0.7,0-1.4,0.3-2,0.8C364.5,192.8,364.2,193.5,364.2,194.3z"/>
						</g>
						<g>
							<path class="st120" d="M375.6,171.5c0,0.8,0.3,1.4,0.8,2c0.5,0.5,1.3,0.8,2.1,0.8c0.8,0,1.4-0.3,2-0.8c1.1-1.1,1.1-3,0-4
								c-0.5-0.5-1.3-0.8-2-0.8c-0.8,0-1.5,0.3-2.1,0.8C375.9,170,375.6,170.7,375.6,171.5z"/>
						</g>
						<g>
							<path class="st120" d="M352.8,160.1c0,0.8,0.3,1.4,0.8,2c0.5,0.5,1.3,0.8,2.1,0.8c0.8,0,1.4-0.3,2-0.8
								c1.1-1.1,1.1-2.9,0.1-3.9c-0.6-0.6-1.4-0.9-2-0.9c-0.8,0-1.5,0.3-2.1,0.8C353.1,158.6,352.8,159.3,352.8,160.1z"/>
						</g>
						<g>
							<path class="st120" d="M375.6,148.7c0,0.8,0.3,1.5,0.9,2c0.4,0.5,1.1,0.8,1.9,0.8c0.8,0,1.6-0.3,2.1-0.8c0.9-0.9,1-2.9-0.1-4
								c-0.5-0.5-1.2-0.8-2.1-0.8c-0.8,0-1.5,0.3-2,0.9C375.9,147.2,375.6,147.9,375.6,148.7z"/>
						</g>
						<g>
							<path class="st120" d="M352.8,129.7c0,0.8,0.3,1.4,0.8,2c0.5,0.5,1.3,0.8,2,0.8c0.8,0,1.4-0.2,2.1-0.8c1.1-1.1,1.1-3,0-4.1
								c-0.5-0.5-1.3-0.8-2.1-0.8c-0.7,0-1.4,0.3-2,0.8C353.1,128.2,352.8,128.9,352.8,129.7z"/>
						</g>
						<g>
							<path class="st120" d="M337.7,152.5c0,0.8,0.3,1.4,0.8,2c0.5,0.5,1.2,0.8,2,0.8c0.8,0,1.6-0.3,2.1-0.8c0.9-1,1-3-0.1-4
								c-0.5-0.5-1.2-0.8-2.1-0.8c-0.8,0-1.5,0.3-2,0.9C338,151,337.7,151.7,337.7,152.5z"/>
						</g>
						<g>
							<path class="st120" d="M341.5,84.1c0,0.8,0.3,1.4,0.8,2c0.5,0.5,1.2,0.8,2.1,0.8c0.8,0,1.5-0.3,2-0.8c0.9-1,1-3-0.1-4
								c-0.5-0.5-1.2-0.8-2-0.8c-0.8,0-1.5,0.3-2.1,0.8C341.8,82.6,341.5,83.4,341.5,84.1z"/>
						</g>
						<g>
							<path class="st120" d="M360.4,91.7c0,0.8,0.3,1.5,0.8,2c0.5,0.5,1.3,0.8,2,0.8c0.8,0,1.5-0.3,2.1-0.8c1-0.9,1.1-2.9,0-4
								c-0.5-0.5-1.3-0.8-2.1-0.8c-0.7,0-1.4,0.3-2,0.8C360.7,90.2,360.4,91,360.4,91.7z"/>
						</g>
						<g>
							<path class="st120" d="M387,91.7c0,0.8,0.3,1.5,0.8,2c0.5,0.5,1.3,0.8,2.1,0.8c0.7,0,1.4-0.3,2-0.8c1-1,1.1-2.8,0.1-3.9
								c-0.6-0.6-1.4-0.9-2-0.9c-0.8,0-1.5,0.3-2.1,0.8C387.3,90.3,387,91,387,91.7z"/>
						</g>
						<g>
							<path class="st120" d="M354.7,247.4c0,0.8,0.3,1.4,0.8,2c0.5,0.5,1.2,0.8,2,0.8c0.8,0,1.5-0.3,2.1-0.8c1.1-1.1,1.1-3,0-4
								c-0.5-0.5-1.3-0.8-2.1-0.8c-0.7,0-1.4,0.3-2,0.8C355,245.9,354.7,246.6,354.7,247.4z"/>
						</g>
						<g>
							<path class="st120" d="M301.6,262.6c0,0.8,0.3,1.4,0.8,2c0.5,0.5,1.2,0.8,2,0.8c0.8,0,1.5-0.3,2.1-0.8c1.1-1.1,1.1-3,0-4
								c-0.5-0.5-1.3-0.8-2.1-0.8c-0.7,0-1.4,0.3-2,0.8C301.9,261.1,301.6,261.8,301.6,262.6z"/>
						</g>
						<g>
							<path class="st120" d="M295.9,285.4c0,0.8,0.3,1.4,0.8,2c0.5,0.5,1.2,0.8,2,0.8c0.8,0,1.5-0.3,2.1-0.8
								c1.1-1.1,1.1-2.9,0.1-3.9c-0.6-0.6-1.4-0.9-2.1-0.9c-0.8,0-1.5,0.3-2,0.9C296.2,283.9,295.9,284.6,295.9,285.4z"/>
						</g>
						<g>
							<path class="st120" d="M316.8,289.2c0,0.8,0.3,1.5,0.8,2c0.5,0.5,1.3,0.8,2,0.8c0.8,0,1.5-0.3,2.1-0.8c1-0.9,1.1-3,0-4
								c-0.5-0.5-1.3-0.8-2.1-0.8c-0.8,0-1.4,0.3-2,0.8C317.1,287.7,316.8,288.4,316.8,289.2z"/>
						</g>
						<g>
							<path class="st120" d="M332,105c0,0.8,0.3,1.4,0.8,2c0.5,0.5,1.3,0.8,2,0.8c0.8,0,1.5-0.3,2.1-0.8c1.1-1.1,1.1-3,0-4.1
								c-0.5-0.5-1.3-0.8-2.1-0.8c-0.7,0-1.4,0.3-2,0.8C332.3,103.5,332,104.3,332,105z"/>
						</g>
						<g>
							<path class="st120" d="M335.8,205.6c0,0.8,0.3,1.4,0.8,2c0.5,0.5,1.2,0.8,2,0.8c0.8,0,1.6-0.3,2.1-0.8c1.1-1,1.1-3,0-4
								c-0.5-0.5-1.2-0.8-2.1-0.8c-0.8,0-1.5,0.3-2,0.9C336.1,204.1,335.8,204.9,335.8,205.6z"/>
						</g>
						<g>
							<path class="st120" d="M335.8,190.5c0,0.8,0.3,1.4,0.8,2c0.5,0.5,1.2,0.8,2,0.8c0.8,0,1.5-0.3,2.1-0.8c1.1-1.1,1.1-3,0-4
								c-0.5-0.5-1.3-0.8-2.1-0.8c-0.7,0-1.4,0.3-2,0.8C336.1,188.9,335.8,189.7,335.8,190.5z"/>
						</g>
						<g>
							<path class="st120" d="M275,211.3c0,0.8,0.3,1.4,0.8,2c0.5,0.5,1.2,0.8,2,0.8c0.8,0,1.6-0.3,2.1-0.8c1.1-1,1.1-3,0-4
								c-0.5-0.5-1.2-0.8-2.1-0.8c-0.8,0-1.5,0.3-2,0.9C275.3,209.8,275,210.6,275,211.3z"/>
						</g>
						<g>
							<path class="st120" d="M275,234.1c0,0.8,0.3,1.5,0.8,2c0.5,0.5,1.2,0.8,2.1,0.8c0.8,0,1.4-0.3,2-0.8c1-0.9,1.1-3,0-4
								c-0.5-0.5-1.2-0.8-2-0.8c-0.8,0-1.5,0.3-2.1,0.8C275.3,232.6,275,233.4,275,234.1z"/>
						</g>
						<g>
							<path class="st120" d="M278.8,256.9c0,0.8,0.3,1.5,0.8,2c0.5,0.5,1.3,0.8,2,0.8c0.8,0,1.5-0.3,2.1-0.8c1-0.9,1.1-3,0-4
								c-0.5-0.5-1.2-0.8-2.1-0.8c-0.7,0-1.4,0.3-2,0.8C279.1,255.4,278.8,256.1,278.8,256.9z"/>
						</g>
						<g>
							<path class="st120" d="M271.2,133.5c0,0.8,0.3,1.4,0.8,2c0.5,0.5,1.3,0.8,2.1,0.8c0.8,0,1.4-0.3,2-0.8c1.1-1,1.1-3,0-4
								c-0.5-0.5-1.2-0.8-2-0.8c-0.8,0-1.5,0.3-2.1,0.8C271.5,132,271.2,132.7,271.2,133.5z"/>
						</g>
						<g>
							<path class="st120" d="M282.6,148.7c0,0.8,0.3,1.5,0.8,2c0.5,0.5,1.3,0.8,2,0.8c0.8,0,1.5-0.3,2.1-0.8c1-0.9,1.1-2.9,0-4
								c-0.5-0.5-1.3-0.8-2.1-0.8c-0.7,0-1.4,0.3-2,0.8C282.9,147.2,282.6,147.9,282.6,148.7z"/>
						</g>
						<g>
							<path class="st120" d="M278.8,177.2c0,0.8,0.3,1.4,0.8,2c0.5,0.5,1.2,0.8,2,0.8c0.8,0,1.6-0.3,2.1-0.8c1.1-1,1.1-3,0-4
								c-0.5-0.5-1.2-0.8-2.1-0.8c-0.8,0-1.5,0.3-2,0.9C279.1,175.7,278.8,176.4,278.8,177.2z"/>
						</g>
						<g>
							<path class="st120" d="M299.7,156.3c0,0.8,0.3,1.4,0.8,2c0.5,0.5,1.2,0.8,2,0.8c0.8,0,1.5-0.3,2.1-0.8c1.1-1.1,1.1-3,0-4
								c-0.5-0.5-1.3-0.8-2.1-0.8c-0.7,0-1.4,0.3-2,0.8C300,154.8,299.7,155.5,299.7,156.3z"/>
						</g>
						<g>
							<path class="st120" d="M278.8,279.7c0,0.8,0.3,1.4,0.8,2c0.5,0.5,1.2,0.8,2.1,0.8c0.8,0,1.4-0.3,2-0.8c1.1-1.1,1.1-3,0-4
								c-0.5-0.5-1.2-0.8-2-0.8c-0.8,0-1.5,0.3-2.1,0.8C279.1,278.2,278.8,278.9,278.8,279.7z"/>
						</g>
					</g>
				</g>
			</g>
			<g>
				<g>
					<g>
						<g>
							<path class="st120" d="M202.9,315.8c0,0.8,0.3,1.4,0.8,2c0.5,0.5,1.3,0.8,2,0.8c0.8,0,1.6-0.3,2.1-0.8c1-0.9,1.1-3,0-4
								c-0.5-0.5-1.2-0.8-2.1-0.8c-0.7,0-1.4,0.3-2,0.8C203.2,314.3,202.9,315,202.9,315.8z"/>
						</g>
						<g>
							<path class="st120" d="M218.1,304.4c0,0.8,0.3,1.5,0.8,2c0.5,0.5,1.2,0.8,2,0.8c0.8,0,1.6-0.3,2.1-0.8c1-0.9,1.1-3,0-4
								c-0.5-0.5-1.2-0.8-2.1-0.8c-0.8,0-1.4,0.3-2,0.8C218.4,302.8,218.1,303.6,218.1,304.4z"/>
						</g>
						<g>
							<path class="st120" d="M191.5,312c0,0.8,0.3,1.4,0.8,2c0.5,0.5,1.2,0.8,2,0.8c0.8,0,1.6-0.3,2.1-0.8c1.1-1,1.1-3,0-4
								c-0.5-0.5-1.2-0.8-2.1-0.8c-0.8,0-1.4,0.3-2,0.8C191.8,310.4,191.5,311.2,191.5,312z"/>
						</g>
						<g>
							<path class="st120" d="M199.1,296.8c0,0.8,0.3,1.5,0.8,2c0.5,0.5,1.2,0.8,2.1,0.8c0.8,0,1.4-0.3,2-0.8c1-0.9,1.1-3,0-4
								c-0.5-0.5-1.2-0.8-2-0.8c-0.8,0-1.5,0.3-2.1,0.8C199.4,295.3,199.1,296,199.1,296.8z"/>
						</g>
						<g>
							<path class="st120" d="M176.3,300.6c0,0.8,0.3,1.5,0.8,2c0.5,0.5,1.2,0.8,2.1,0.8c0.8,0,1.4-0.3,2-0.8c1-1,1.1-3,0-4
								c-0.5-0.5-1.3-0.8-2-0.8c-0.8,0-1.5,0.3-2.1,0.9C176.6,299,176.3,299.8,176.3,300.6z"/>
						</g>
						<g>
							<path class="st120" d="M187.7,285.4c0,0.8,0.3,1.4,0.8,2c0.5,0.5,1.2,0.8,2,0.8c0.8,0,1.5-0.3,2.1-0.8c1.1-1.1,1.1-3,0-4
								c-0.5-0.5-1.3-0.8-2.1-0.8c-0.7,0-1.4,0.3-2,0.8C188,283.9,187.7,284.6,187.7,285.4z"/>
						</g>
						<g>
							<path class="st120" d="M164.9,293c0,0.8,0.3,1.4,0.8,2c0.5,0.5,1.2,0.8,2.1,0.8c0.8,0,1.4-0.3,2-0.8c1.1-1.1,1.1-3,0-4
								c-0.5-0.5-1.2-0.8-2-0.8c-0.8,0-1.5,0.3-2.1,0.8C165.2,291.5,164.9,292.2,164.9,293z"/>
						</g>
						<g>
							<path class="st120" d="M153.5,300.6c0,0.8,0.3,1.5,0.8,2c0.5,0.5,1.2,0.8,2,0.8c0.8,0,1.5-0.3,2.1-0.8c1.1-1,1.1-3,0-4
								c-0.5-0.5-1.3-0.8-2.1-0.8s-1.5,0.3-2,0.9C153.8,299,153.5,299.8,153.5,300.6z"/>
						</g>
						<g>
							<path class="st120" d="M130.7,308.2c0,0.8,0.3,1.5,0.8,2c0.5,0.5,1.3,0.8,2.1,0.8c0.7,0,1.4-0.3,2-0.8c1.1-1,1.1-3,0-4
								c-0.5-0.5-1.3-0.8-2-0.8c-0.8,0-1.5,0.3-2.1,0.8C131,306.6,130.7,307.4,130.7,308.2z"/>
						</g>
						<g>
							<path class="st120" d="M134.5,289.2c0,0.8,0.3,1.5,0.8,2c0.5,0.5,1.3,0.8,2,0.8c0.8,0,1.5-0.3,2.1-0.8c1-0.9,1.1-3,0-4
								c-0.5-0.5-1.2-0.8-2.1-0.8c-0.7,0-1.4,0.3-2,0.8C134.8,287.7,134.5,288.4,134.5,289.2z"/>
						</g>
						<g>
							<path class="st120" d="M111.7,315.8c0,0.8,0.3,1.5,0.8,2c0.5,0.5,1.2,0.8,2.1,0.8c0.8,0,1.4-0.3,2-0.8c1-1,1.1-3,0-4
								c-0.5-0.5-1.2-0.8-2-0.8c-0.8,0-1.5,0.3-2.1,0.8C112,314.2,111.7,315,111.7,315.8z"/>
						</g>
						<g>
							<path class="st120" d="M130.7,308.2c0,0.8,0.3,1.5,0.8,2c0.5,0.5,1.3,0.8,2.1,0.8c0.7,0,1.4-0.3,2-0.8c1.1-1,1.1-3,0-4
								c-0.5-0.5-1.3-0.8-2-0.8c-0.8,0-1.5,0.3-2.1,0.8C131,306.6,130.7,307.4,130.7,308.2z"/>
						</g>
						<g>
							<path class="st120" d="M107.9,304.4c0,0.8,0.3,1.5,0.8,2c0.5,0.5,1.3,0.8,2,0.8c0.8,0,1.5-0.3,2.1-0.8c1-0.9,1.1-3,0-4
								c-0.5-0.5-1.3-0.8-2.1-0.8c-0.7,0-1.4,0.3-2,0.8C108.3,302.8,107.9,303.6,107.9,304.4z"/>
						</g>
						<g>
							<path class="st120" d="M107.9,266.4c0,0.8,0.3,1.5,0.8,2c0.5,0.5,1.2,0.8,2,0.8c0.8,0,1.6-0.3,2.1-0.8c1-0.9,1.1-2.9,0-4
								c-0.5-0.5-1.2-0.8-2.1-0.8c-0.8,0-1.5,0.3-2.1,0.9C108.3,264.9,107.9,265.6,107.9,266.4z"/>
						</g>
						<g>
							<path class="st120" d="M149.7,232.2c0,0.8,0.3,1.5,0.8,2c0.5,0.5,1.2,0.8,2,0.8c0.8,0,1.5-0.3,2.1-0.8c1-0.9,1.1-3,0-4
								c-0.5-0.5-1.2-0.8-2.1-0.8c-0.8,0-1.4,0.3-2,0.8C150,230.7,149.7,231.5,149.7,232.2z"/>
						</g>
						<g>
							<path class="st120" d="M161.1,205.6c0,0.8,0.3,1.4,0.8,2c0.5,0.5,1.2,0.8,2,0.8c0.8,0,1.6-0.3,2.1-0.8c1.1-1.1,1.1-3,0-4
								c-0.5-0.5-1.2-0.8-2.1-0.8c-0.8,0-1.5,0.3-2,0.9C161.4,204.1,161.1,204.9,161.1,205.6z"/>
						</g>
						<g>
							<path class="st120" d="M176.3,198.1c0,0.8,0.3,1.4,0.8,2c0.5,0.5,1.2,0.8,2,0.8s1.5-0.3,2.1-0.8c1.1-1.1,1.1-3,0-4
								c-0.5-0.5-1.3-0.8-2.1-0.8c-0.7,0-1.4,0.3-2,0.8C176.6,196.5,176.3,197.3,176.3,198.1z"/>
						</g>
						<g>
							<path class="st120" d="M195.3,201.9c0,0.8,0.3,1.4,0.8,2c0.5,0.5,1.3,0.8,2.1,0.8c0.8,0,1.4-0.3,2-0.8c1.1-1.1,1.1-3,0-4
								c-0.5-0.5-1.3-0.8-2-0.8c-0.8,0-1.5,0.3-2.1,0.8C195.6,200.3,195.3,201.1,195.3,201.9z"/>
						</g>
						<g>
							<path class="st120" d="M195.3,186.7c0,0.8,0.3,1.4,0.8,2c0.5,0.5,1.2,0.8,2,0.8c0.8,0,1.5-0.3,2.1-0.8c1.1-1.1,1.1-3,0-4
								c-0.5-0.5-1.3-0.8-2.1-0.8c-0.7,0-1.4,0.3-2,0.8C195.6,185.1,195.3,185.9,195.3,186.7z"/>
						</g>
						<g>
							<path class="st120" d="M210.5,171.5c0,0.8,0.3,1.4,0.8,2c0.5,0.5,1.2,0.8,2,0.8s1.5-0.3,2.1-0.8c1.1-1.1,1.1-3,0-4
								c-0.5-0.5-1.3-0.8-2.1-0.8c-0.7,0-1.4,0.3-2,0.8C210.8,170,210.5,170.7,210.5,171.5z"/>
						</g>
						<g>
							<path class="st120" d="M218.1,190.5c0,0.8,0.3,1.4,0.8,2c0.5,0.5,1.2,0.8,2,0.8s1.5-0.3,2.1-0.8c1.1-1.1,1.1-3,0-4
								c-0.5-0.5-1.3-0.8-2.1-0.8c-0.7,0-1.4,0.3-2,0.8C218.4,188.9,218.1,189.7,218.1,190.5z"/>
						</g>
						<g>
							<path class="st120" d="M240.8,182.9c0,0.8,0.3,1.4,0.8,2c0.5,0.5,1.2,0.8,2,0.8c0.8,0,1.5-0.3,2.1-0.8c1.1-1.1,1.1-3,0-4
								c-0.5-0.5-1.2-0.8-2.1-0.8c-0.8,0-1.4,0.3-2,0.8C241.1,181.3,240.8,182.1,240.8,182.9z"/>
						</g>
						<g>
							<path class="st120" d="M221.9,148.7c0,0.8,0.3,1.4,0.8,2c0.5,0.5,1.2,0.8,2,0.8s1.5-0.3,2.1-0.8c1-1,1.1-2.9,0-4
								c-0.5-0.5-1.3-0.8-2.1-0.8c-0.7,0-1.4,0.3-2,0.8C222.2,147.2,221.9,147.9,221.9,148.7z"/>
						</g>
						<g>
							<path class="st120" d="M240.8,141.1c0,0.8,0.3,1.4,0.8,2c0.5,0.5,1.2,0.8,2.1,0.8c0.8,0,1.4-0.3,2-0.8c1.1-1,1.1-3,0-4
								c-0.5-0.5-1.3-0.8-2-0.8c-0.8,0-1.5,0.3-2.1,0.8C241.1,139.6,240.8,140.3,240.8,141.1z"/>
						</g>
						<g>
							<path class="st120" d="M252.2,160.1c0,0.8,0.3,1.4,0.8,2c0.5,0.5,1.2,0.8,2,0.8c0.8,0,1.5-0.3,2.1-0.8c1.1-1.1,1.1-3,0-4
								c-0.5-0.5-1.3-0.8-2.1-0.8c-0.7,0-1.4,0.3-2,0.8C252.5,158.6,252.2,159.3,252.2,160.1z"/>
						</g>
						<g>
							<path class="st120" d="M221.9,125.9c0,0.7,0.3,1.4,0.8,2c0.5,0.5,1.2,0.8,2,0.8c0.8,0,1.5-0.3,2.1-0.8c1.1-1.1,1.1-3,0-4
								c-0.5-0.5-1.3-0.8-2.1-0.8c-0.7,0-1.4,0.3-2,0.8C222.2,124.5,221.9,125.2,221.9,125.9z"/>
						</g>
						<g>
							<path class="st120" d="M157.3,275.9c0,0.8,0.3,1.5,0.8,2c0.5,0.5,1.2,0.8,2,0.8c0.8,0,1.5-0.3,2.1-0.8c1.1-1,1.1-3,0-4
								c-0.5-0.5-1.2-0.8-2.1-0.8c-0.8,0-1.5,0.3-2,0.9C157.6,274.4,157.3,275.1,157.3,275.9z"/>
						</g>
						<g>
							<path class="st120" d="M252.2,270.2c0,0.8,0.3,1.4,0.8,2c0.5,0.5,1.2,0.8,2.1,0.8c0.8,0,1.4-0.3,2-0.8c1.1-1.1,1.1-3,0-4
								c-0.5-0.5-1.3-0.8-2-0.8c-0.8,0-1.5,0.3-2.1,0.9C252.5,268.7,252.2,269.4,252.2,270.2z"/>
						</g>
						<g>
							<path class="st120" d="M248.4,239.8c0,0.8,0.3,1.4,0.8,2c0.5,0.5,1.2,0.8,2,0.8c0.8,0,1.5-0.3,2.1-0.8c1.1-1.1,1.1-3,0-4
								c-0.5-0.5-1.3-0.8-2.1-0.8c-0.7,0-1.4,0.3-2,0.8C248.7,238.3,248.4,239.1,248.4,239.8z"/>
						</g>
						<g>
							<path class="st120" d="M240.8,258.8c0,0.8,0.3,1.4,0.8,2c0.5,0.5,1.2,0.8,2,0.8c0.8,0,1.5-0.3,2.1-0.8c1.1-1.1,1.1-3,0-4
								c-0.5-0.5-1.3-0.8-2.1-0.8c-0.7,0-1.4,0.3-2,0.8C241.1,257.3,240.8,258,240.8,258.8z"/>
						</g>
						<g>
							<path class="st120" d="M233.2,274c0,0.8,0.3,1.4,0.8,2c0.5,0.5,1.2,0.8,2.1,0.8c0.8,0,1.4-0.3,2-0.8c1.1-1.1,1.1-3,0-4
								c-0.5-0.5-1.2-0.8-2-0.8c-0.8,0-1.5,0.3-2.1,0.8C233.5,272.5,233.2,273.2,233.2,274z"/>
						</g>
						<g>
							<path class="st120" d="M233.2,239.8c0,0.8,0.3,1.4,0.8,2c0.5,0.5,1.2,0.8,2,0.8c0.8,0,1.6-0.3,2.1-0.8c1.1-1,1.1-3,0-4
								c-0.5-0.5-1.2-0.8-2.1-0.8c-0.8,0-1.5,0.3-2,0.9C233.5,238.3,233.2,239.1,233.2,239.8z"/>
						</g>
						<g>
							<path class="st120" d="M237,220.8c0,0.8,0.3,1.4,0.8,2c0.5,0.5,1.2,0.8,2,0.8c0.8,0,1.5-0.3,2.1-0.8c1.1-1.1,1.1-3,0-4
								c-0.5-0.5-1.2-0.8-2.1-0.8c-0.8,0-1.4,0.3-2,0.8C237.3,219.3,237,220.1,237,220.8z"/>
						</g>
						<g>
							<path class="st120" d="M214.3,232.2c0,0.8,0.3,1.5,0.8,2c0.5,0.5,1.2,0.8,2,0.8c0.8,0,1.6-0.3,2.1-0.8c0.9-0.9,1-3-0.1-4
								c-0.5-0.5-1.2-0.8-2.1-0.8c-0.7,0-1.4,0.3-2,0.8C214.6,230.7,214.3,231.5,214.3,232.2z"/>
						</g>
						<g>
							<path class="st120" d="M210.5,251.2c0,0.8,0.3,1.4,0.8,2c0.5,0.5,1.2,0.8,2,0.8c0.8,0,1.5-0.3,2.1-0.8c1.1-1.1,1.1-3,0-4
								c-0.5-0.5-1.3-0.8-2.1-0.8c-0.7,0-1.4,0.3-2,0.8C210.8,249.7,210.5,250.4,210.5,251.2z"/>
						</g>
						<g>
							<path class="st120" d="M187.7,247.4c0,0.8,0.3,1.4,0.8,2c0.5,0.5,1.2,0.8,2,0.8c0.8,0,1.5-0.3,2.1-0.8c1.1-1.1,1.1-3,0-4
								c-0.5-0.5-1.3-0.8-2.1-0.8c-0.7,0-1.4,0.3-2,0.8C188,245.9,187.7,246.6,187.7,247.4z"/>
						</g>
						<g>
							<path class="st120" d="M172.5,258.8c0,0.8,0.3,1.4,0.8,2c0.5,0.5,1.2,0.8,2.1,0.8c0.8,0,1.4-0.3,2-0.8c1.1-1.1,1.1-3,0-4
								c-0.5-0.5-1.3-0.8-2-0.8c-0.8,0-1.5,0.3-2.1,0.8C172.8,257.3,172.5,258,172.5,258.8z"/>
						</g>
						<g>
							<path class="st120" d="M210.5,277.8c0,0.8,0.3,1.4,0.8,2c0.5,0.5,1.2,0.8,2,0.8s1.5-0.3,2.1-0.8c1.1-1.2,1.1-2.9,0-3.9
								c-0.5-0.6-1.3-0.9-2.1-0.9s-1.5,0.3-2,0.9C210.8,276.3,210.5,277,210.5,277.8z"/>
						</g>
						<g>
							<path class="st120" d="M145.9,317.7c0,0.8,0.3,1.5,0.8,2c0.5,0.5,1.3,0.8,2.1,0.8c0.8,0,1.4-0.3,2-0.8c1-0.9,1.1-3,0-4
								c-0.5-0.5-1.3-0.8-2-0.8c-0.8,0-1.5,0.3-2.1,0.8C146.2,316.1,145.9,316.9,145.9,317.7z"/>
						</g>
						<g>
							<path class="st120" d="M256,135.4c0,0.7,0.3,1.4,0.8,2c0.6,0.5,1.3,0.8,2.1,0.8c0.8,0,1.5-0.3,2.1-0.8c1.1-1.1,1.1-3,0-4
								c-0.5-0.5-1.3-0.8-2.1-0.8c-0.7,0-1.4,0.3-2,0.8C256.3,134,256,134.6,256,135.4z"/>
						</g>
						<g>
							<path class="st120" d="M147.8,186.7c0,0.8,0.3,1.4,0.8,2c0.5,0.5,1.2,0.8,2,0.8c0.8,0,1.6-0.3,2.1-0.8c1.1-1,1.1-3,0-4
								c-0.5-0.5-1.2-0.8-2.1-0.8c-0.8,0-1.5,0.3-2,0.9C148.1,185.1,147.8,185.9,147.8,186.7z"/>
						</g>
						<g>
							<path class="st120" d="M163,179.1c0,0.8,0.3,1.4,0.8,2c0.5,0.5,1.2,0.8,2,0.8c0.8,0,1.5-0.3,2.1-0.8c1.1-1.1,1.1-3,0-4
								c-0.5-0.5-1.3-0.8-2.1-0.8c-0.7,0-1.4,0.3-2,0.8C163.3,177.5,163,178.3,163,179.1z"/>
						</g>
						<g>
							<path class="st120" d="M182,182.9c0,0.8,0.3,1.4,0.8,2c0.5,0.5,1.2,0.8,2,0.8c0.8,0,1.5-0.3,2.1-0.8c1.1-1.1,1.1-3,0-4
								c-0.5-0.5-1.2-0.8-2.1-0.8c-0.8,0-1.4,0.3-2,0.8C182.3,181.3,182,182.1,182,182.9z"/>
						</g>
						<g>
							<path class="st120" d="M182,167.7c0,0.8,0.3,1.4,0.8,2c0.5,0.5,1.3,0.8,2,0.8c0.8,0,1.5-0.3,2.1-0.8c1.1-1.1,1.1-3,0-4
								c-0.5-0.5-1.3-0.8-2.1-0.8c-0.7,0-1.4,0.3-2,0.8C182.3,166.2,182,166.9,182,167.7z"/>
						</g>
						<g>
							<path class="st120" d="M259.8,245.5c0,0.8,0.3,1.4,0.8,2c0.5,0.5,1.2,0.8,2.1,0.8c0.8,0,1.4-0.3,2-0.8c1.1-1.1,1.1-3,0-4
								c-0.5-0.5-1.3-0.8-2-0.8c-0.8,0-1.5,0.3-2.1,0.8C260.1,244,259.8,244.7,259.8,245.5z"/>
						</g>
						<g>
							<path class="st120" d="M256,222.7c0,0.8,0.3,1.4,0.8,2c0.5,0.5,1.2,0.8,2,0.8c0.8,0,1.5-0.3,2.1-0.8c1.1-1.1,1.1-3,0-4
								c-0.5-0.5-1.3-0.8-2.1-0.8c-0.7,0-1.4,0.3-2,0.8C256.3,221.2,256,222,256,222.7z"/>
						</g>
						<g>
							<path class="st120" d="M263.6,148.7c0,0.8,0.3,1.5,0.8,2c0.5,0.5,1.3,0.8,2.1,0.8c0.8,0,1.4-0.3,2-0.8
								c1.1-1.1,1.1-2.9,0.1-3.9c-0.6-0.6-1.4-0.9-2-0.9c-0.8,0-1.5,0.3-2.1,0.8C263.9,147.2,263.6,147.9,263.6,148.7z"/>
						</g>
						<g>
							<path class="st120" d="M259.8,114.5c0,0.8,0.3,1.4,0.8,2c0.5,0.5,1.3,0.8,2.1,0.8c0.8,0,1.5-0.3,2-0.8c1.1-1.1,1.1-3,0-4
								c-0.5-0.5-1.2-0.8-2-0.8c-0.8,0-1.5,0.3-2.1,0.8C260.1,113,259.8,113.8,259.8,114.5z"/>
						</g>
					</g>
				</g>
			</g>
		</g>
	</g>
	<g>
		<path class="st109" d="M185.1,416.3c-2.4,0-4.9-0.3-7.4-1.1c-10.9-3.2-18.4-13.2-18.7-24.3c-11.5-0.8-21.2-9.1-23.6-20.7
			c-1.9-9.4,1.4-18.7,8.2-24.7c-9.1-1.3-16.9-7.4-20.4-15.9c-11,3.3-23.1-1-29.4-11c-6.4-10.1-5-23.2,3-31.7
			c-5.8-10.3-3.9-23.4,4.9-31.7c8.4-7.8,20.9-9.1,30.6-3.6c2.8-3.8,6.6-6.7,11-8.4c-2.6-7.2-2.3-15.1,0.7-22.2
			c-11.4-9-15-24.9-8.3-38.1c0,0,0,0,0,0c6.2-12.2,19.9-18.6,33-16.2c2.8-11.5,12.2-20.6,24.1-22.9c3.1-6.5,8.2-11.6,14.6-14.7
			c-2.5-14,5-28.1,18.4-33.7c12.7-5.3,27.4-1.4,35.8,9.1c7.5-5.1,16.7-6.6,25.5-4.2c2.6-4.2,6.2-7.6,10.6-9.8
			c-1.8-11.7,4.5-23.3,15.7-28c10.6-4.4,22.8-1.3,30,7.3c6.7-4.3,15.1-5.3,22.7-2.6c3.7-8.6,11.9-14.7,21.2-15.6
			c2.4-11.6,12.4-20.2,24.6-20.7c11.4-0.4,21.7,6.8,25.5,17.4c12-2.6,24.4,3.5,29.4,15.2c5,11.7,1,24.8-9.2,31.8
			c5.4,10.4,3.2,23.3-5.9,31.4c-8.7,7.7-21.2,8.7-30.9,2.7c-1.5,1.3-3.1,2.3-4.9,3.3c1.7,7.2,0.2,14.8-4.1,20.9
			c8.7,7.9,11.1,20.7,5.4,31.5c-5.5,10.3-16.9,15.5-28,13.3c-2.9,5.3-7.6,9.3-13.1,11.6c3.8,4.1,6.4,9.1,7.6,14.6
			c2.8,13.5-3.9,27.2-15.8,33.4c5.9,13.6,1.2,29.6-11.6,37.9c-7.5,4.9-16.5,6.1-25,3.7c-0.7,4.9-2.6,9.5-5.5,13.5
			c10.8,9.2,13.9,24.6,7.2,37.6c-6.5,12.3-20.2,18.6-33.6,15.8c-6.6,12.9-21.5,19.5-35.8,15.4c-13.2-3.8-22.1-15.9-22.2-29.3
			c-2.5-0.1-5-0.5-7.4-1.2c-0.8,2.5-1.9,4.8-3.4,6.9c8.7,7.9,11.1,20.7,5.4,31.5c-5.5,10.3-16.9,15.5-28,13.3
			C203.3,411.3,194.5,416.3,185.1,416.3z M163.1,383.3c1,0,2,0.4,2.7,1.2c0.8,0.8,1.2,2,1,3.2c-1.3,9,4.3,17.7,13.1,20.3
			c9.2,2.7,18.7-2,22.3-10.8c0.8-2,3-3,5.1-2.3c8.5,2.8,17.7-1,22-8.9c4.5-8.5,1.8-18.9-6.2-24.1c-1-0.6-1.6-1.6-1.7-2.8
			c-0.1-1.1,0.3-2.3,1.1-3.1c2.8-2.8,4.5-6.4,5-10.5c0.2-1.2,0.9-2.2,1.9-2.8c1.1-0.6,2.3-0.6,3.4-0.1c3.8,1.8,8,2.5,12.2,2.1
			c1.2-0.1,2.3,0.3,3.1,1.1c0.8,0.8,1.2,2,1,3.2c-1.6,11.3,5.5,22.2,16.5,25.4c11.5,3.3,23.5-2.6,27.9-13.7c0.8-2,3.1-3.1,5.1-2.4
			c10.7,3.4,22.3-1.3,27.5-11.3c5.6-10.7,2.2-23.7-8-30.2c-1-0.6-1.6-1.6-1.7-2.8c-0.1-1.1,0.3-2.3,1-3.1c4.4-4.5,6.6-10.4,6.5-16.8
			c0-1.3,0.6-2.6,1.7-3.3c1.1-0.7,2.5-0.8,3.7-0.2c7.4,3.6,15.9,3.1,22.7-1.3c10.5-6.8,13.7-20.6,7.2-31.4c-0.6-1-0.7-2.2-0.3-3.2
			c0.4-1.1,1.2-1.9,2.3-2.3c10.8-3.8,17.2-15.2,14.9-26.5c-1.3-6.2-5-11.5-10.5-14.9c-1.4-0.9-2.1-2.6-1.7-4.2
			c0.4-1.6,1.8-2.8,3.4-2.9c7.1-0.4,13.3-4.9,16-11.5c0.8-2,3-3,5.1-2.4c8.5,2.8,17.8-1,22-8.9c4.5-8.5,1.8-18.9-6.2-24.1
			c-1-0.6-1.6-1.6-1.7-2.8c-0.1-1.1,0.3-2.3,1.1-3.1c5.1-5.2,6.7-12.9,4.1-19.6c-0.4-1-0.3-2,0.1-2.9c0.4-0.9,1.2-1.6,2.2-2
			c2.9-1.1,5.4-2.7,7.4-4.8c1.4-1.6,3.9-1.8,5.5-0.5c7,5.6,17,5.3,23.7-0.6c7.2-6.4,8.3-17,2.6-24.8c-0.7-0.9-0.9-2.1-0.6-3.2
			c0.3-1.1,1-2,2.1-2.5c9.1-4.3,13.1-14.8,9.1-24c-4-9.2-14.4-13.5-23.7-9.9c-1.1,0.4-2.3,0.3-3.2-0.2c-1-0.6-1.7-1.5-1.9-2.7
			c-1.6-9-9.7-15.5-18.8-15.2c-9.4,0.3-17,7.7-17.7,17c-0.1,2-1.8,3.5-3.8,3.5c0,0-0.1,0-0.1,0c-8.7-0.3-16.4,5.7-18.4,14.2
			c-0.3,1.2-1.1,2.1-2.2,2.6c-1.1,0.5-2.3,0.4-3.4-0.2c-6.9-3.9-15.5-3-21.4,2.3c-0.8,0.8-2,1.1-3.1,0.9c-1.1-0.2-2.1-0.8-2.7-1.8
			c-4.7-7.9-14.5-11.1-23-7.6c-8.7,3.6-13.2,13.2-10.6,22.2c0.6,2-0.5,4-2.4,4.7c-4.8,1.6-8.8,5.3-10.8,10.1c-0.8,1.9-3,2.8-4.9,2
			c-8.3-3.3-17.6-1.7-24.2,4.3c-0.8,0.8-2,1.1-3.1,0.9c-1.1-0.2-2.1-0.8-2.7-1.8c-5.9-9.9-18.2-14-28.8-9.5
			c-10.9,4.6-16.6,16.6-13.3,27.9c0.6,2-0.5,4-2.4,4.7c-6.4,2.2-11.5,7.1-14,13.6c-0.5,1.3-1.7,2.2-3.1,2.4
			c-10.8,1.3-19.4,10-20.3,20.8c-0.1,1.2-0.7,2.2-1.7,2.8c-1,0.6-2.2,0.8-3.3,0.4c-10.8-3.7-22.9,1.2-28.1,11.3v0
			c-5.5,10.7-2,23.6,8.1,30c1.8,1.2,2.4,3.6,1.4,5.5c-3.7,6.8-3.8,15-0.1,21.9c0.6,1.1,0.6,2.3,0.1,3.4c-0.5,1.1-1.5,1.9-2.6,2.1
			c-5.5,1.2-10,4.6-12.5,9.5c-0.5,1-1.5,1.7-2.6,2c-1.1,0.2-2.3,0-3.2-0.8c-7.1-5.7-17.5-5.4-24.2,0.9c-6.9,6.4-7.8,17-2.2,24.5
			c1.2,1.6,0.9,3.9-0.6,5.2c-7.2,5.9-8.9,16.3-3.9,24.1c5.1,8,15.3,10.9,23.7,6.7c1-0.5,2.3-0.5,3.3,0c1.1,0.5,1.8,1.5,2.1,2.6
			c2,8.9,10.3,15.1,19.4,14.4c1.2-0.1,2.4-0.3,3.6-0.6c1-0.3,2.2-0.1,3.1,0.5c0.9,0.6,1.5,1.5,1.7,2.6l0.1,0.4
			c0.1,0.7,0.2,1.3,0.4,1.9c0.6,2-0.5,4-2.4,4.7c-8.8,3-14.1,12.1-12.2,21.2c1.9,9.3,10.4,15.6,19.8,14.6
			C162.8,383.3,162.9,383.3,163.1,383.3z M204.9,402C204.9,402,204.9,402,204.9,402C204.9,402,204.9,402,204.9,402z M209.2,400
			C209.2,400,209.2,400,209.2,400C209.2,400,209.2,400,209.2,400z M146.5,222.6C146.5,222.6,146.5,222.6,146.5,222.6
			C146.5,222.6,146.5,222.6,146.5,222.6z M386.2,197.4C386.2,197.4,386.2,197.4,386.2,197.4C386.2,197.4,386.2,197.4,386.2,197.4z
			 M390.5,195.3C390.5,195.3,390.5,195.4,390.5,195.3C390.5,195.4,390.5,195.3,390.5,195.3z"/>
	</g>
	<path class="st121" d="M143.2,356.4c-26.2,10.6-37.7,33.2-30,52.3c7.7,19,31.7,27.2,57.9,16.6c93-37.7,304.8-141.6,297-160.6
		C460.5,245.6,236.2,318.7,143.2,356.4z"/>
	<path class="st122" d="M471.7,263.2c-2-5-8.9-8.6-45.2-1.3c-22,4.5-53.1,12.7-89.9,23.7c-65.5,19.7-145.6,47.3-194.8,67.3
		c-1.7,0.7-3.4,1.4-5,2.2c1.5-3.7,3.8-6.9,6.8-9.6c-4.6-0.7-8.9-2.6-12.5-5.4l-31.1,31.1c-1.9,1.9-5,0-4.2-2.6l12.1-39.2
		c-2.4-0.8-4.8-1.9-6.9-3.4l-16,51.8c-2.5,7.9-6.8,15.2-12.7,21l-40.6,40.6c-4.3,4.3-4.8,11.2-0.8,15.8c2.3,2.6,5.4,3.9,8.6,3.9
		c2.9,0,5.8-1.1,8.1-3.3l18.5-18.5c4.7-4.7,10.4-8.5,16.6-11.1l20.5-8.5c4.6-1.9,9.9-0.8,13.3,2.9c7.6,8.4,19.2,12.9,32.1,12.9
		c7.7,0,15.8-1.6,24-4.9c49.2-20,125.9-55.9,186.6-87.5c34.1-17.7,62.1-33.5,81-45.7C471.3,275.6,473.8,268.2,471.7,263.2z
		 M107.4,401.4c0,0,0,0.1,0,0.1c0.5,3.5-1.4,7-4.7,8.3l-3.6,1.5c-2.6,1.1-4.8-2.2-2.8-4.2l7.1-7.1
		C104.8,398.7,107.2,399.5,107.4,401.4z M351.5,336.7c-59.6,30.8-134.3,65.7-181.7,85c-18.2,7.4-35.7,5.3-46-4.3
		c-2.8-2.6-1.9-7.2,1.6-8.7l176.5-73.1c1.9-0.8,2.9-3,2.1-5c-0.8-1.9-3-2.9-5-2.1l-177,73.3c-3.4,1.4-7.2-0.9-7.3-4.6
		c-0.5-14.9,10.9-29.6,30-37.4c47.4-19.2,125.4-46.3,189.6-65.7C444,261,461.9,264.7,464.5,266.1C463.5,268.9,453.4,284,351.5,336.7
		z"/>
	<g>
		<path class="st25" d="M214.8,356.8c-1.6,0-3-0.9-3.7-2.4c-0.8-2,0.1-4.3,2.1-5.2l65.6-27.1c2-0.8,4.3,0.1,5.2,2.1
			c0.8,2-0.1,4.3-2.1,5.2l-65.6,27.1C215.8,356.7,215.3,356.8,214.8,356.8z"/>
	</g>
	<g>
		<path class="st109" d="M234.9,267.1c-2.9,0-5.8-0.5-8.6-1.5c-8.8-3.2-14.9-10.7-16.5-19.3c-0.7-3.8-3.3-6.9-6.8-8.5
			c-7.6-3.6-13.3-10.8-14.6-19.5c-1.5-10.1,3.1-19.7,11.1-25c2.9-1.9,4.8-5,5.5-8.5c1.6-8.8,7.7-16.3,16.5-19.5
			c9-3.3,18.6-1.3,25.4,4.6c2.9,2.5,6.8,3.6,10.6,2.8c9.3-2,19.3,1.2,25.5,9.2c6.3,8,7.1,18.6,2.9,27.2c-1.7,3.4-1.4,7.4,0.3,10.9
			c3.8,7.6,3.7,16.9-0.8,24.5c-5,8.5-14.3,13.2-23.7,12.6c-3.4-0.2-6.8,0.9-9.3,3.3C247.6,264.7,241.4,267.1,234.9,267.1z
			 M213.7,232.5c1.2,0,2.3,0.5,3,1.5c0.7,0.9,1,2.1,0.7,3.3c-2.2,8.9,2.7,18,11.4,21.1c8.5,3.1,18-0.7,22.1-8.8
			c0.9-1.8,3.1-2.6,5-1.8c8.3,3.8,18.1,0.6,22.8-7.3c4.5-7.7,2.7-17.6-4.3-23.1c-0.9-0.7-1.4-1.8-1.5-3c0-1.2,0.5-2.3,1.4-3
			c7.5-6.3,8.6-17.2,2.6-24.8c-6-7.6-16.9-9.1-24.7-3.3c-0.9,0.7-2.1,0.9-3.2,0.6c-1.1-0.3-2-1.1-2.5-2.1
			c-3.9-8.5-13.6-12.5-22.4-9.3c-8.2,3-13.1,11.4-11.6,20l0,0c0.4,2.1-1,4.2-3.1,4.7c-9,2.2-14.8,10.8-13.5,20
			C197.2,225.9,204.9,232.5,213.7,232.5C213.7,232.5,213.7,232.5,213.7,232.5z M205,193.8C205,193.8,205,193.8,205,193.8
			C205,193.8,205,193.8,205,193.8C205,193.8,205,193.8,205,193.8z"/>
	</g>
	<circle class="st25" cx="201.2" cy="358.5" r="3.8"/>
	<circle class="st25" cx="222.8" cy="174.3" r="3.8"/>
	<circle class="st25" cx="263.6" cy="181.9" r="3.8"/>
	<circle class="st25" cx="237" cy="212" r="3.8"/>
</g>
</svg>
