<?xml version="1.0" encoding="utf-8"?>
<!-- Generator: Adobe Illustrator 20.0.0, SVG Export Plug-In . SVG Version: 6.00 Build 0)  -->
<svg version="1.1" id="Layer_1" xmlns="http://www.w3.org/2000/svg" xmlns:xlink="http://www.w3.org/1999/xlink" x="0px" y="0px"
	 viewBox="0 0 500 500" style="enable-background:new 0 0 500 500;" xml:space="preserve">
<style type="text/css">
	.st0{fill:none;stroke:#355B00;stroke-width:6;stroke-miterlimit:10;}
	.st1{fill:#94AD34;stroke:#355B00;stroke-linecap:round;stroke-linejoin:round;stroke-miterlimit:10;}
	.st2{fill:#00FFFF;}
	.st3{fill:#95CC63;stroke:#517B39;stroke-width:3;stroke-linecap:round;stroke-linejoin:round;stroke-miterlimit:10;}
	.st4{fill:none;stroke:#517B39;stroke-linecap:round;stroke-linejoin:round;stroke-miterlimit:10;}
	.st5{fill:none;stroke:#FFFFFF;stroke-linecap:round;stroke-linejoin:round;stroke-miterlimit:10;}
	.st6{clip-path:url(#SVGID_2_);}
	.st7{fill:none;stroke:#00FFFF;stroke-width:0.2598;stroke-miterlimit:10;}
	.st8{fill:none;stroke:#355B00;stroke-linecap:round;stroke-linejoin:round;stroke-miterlimit:10;}
	.st9{fill:#94AD34;}
	.st10{fill:#355B00;}
	.st11{fill:#95CC63;stroke:#517B39;stroke-linecap:round;stroke-linejoin:round;stroke-miterlimit:10;}
	.st12{fill:none;stroke:#94AD34;stroke-linecap:round;stroke-linejoin:round;stroke-miterlimit:10;}
	.st13{fill:#FFFFFF;}
</style>
<g>
	<path class="st9" d="M285.1,33.3c0,0-33,0-75.8,80.3c-42.8,80.3-79.4,102.6-79.4,102.6s-19.6,29.4-80.3,60.7
		c0,0-33.9,25.9-38.4,54.4c0,0,37.5,57.1,114.2,26.8c0,0,39.3-30.3,77.6-45.5l55.3-53.5L245,329.4l-36.6,57.1l-9.8,71.4l58.9,6.2
		l50-23.2l25.9-54.4l32.1-39.3l7.1-57.1l1.8-58l25.9,1.8l25.9,58l39.8,116.6l20-6C485.8,402.6,393.1,21.7,285.1,33.3z M293.7,84.3
		c-5.1,9.2-7.7,19.1-8.1,29.6c-0.6,13.7-22,13.7-21.4,0c0.6-14.3,4-27.9,11-40.4C282,61.5,300.4,72.2,293.7,84.3z M366.1,176.8
		c-4.6,2.7-12.2,1.4-14.6-3.8c-8.5-18.6-19.1-36.1-30-53.3c-7.4-11.7,11.1-22.4,18.4-10.8c10.9,17.2,21.5,34.8,30,53.3
		C372.3,167.5,371.5,173.7,366.1,176.8z"/>
	<path class="st10" d="M81.5,337.2c-2.1,0-3.8-1.7-3.8-3.8c0-2.1,1.7-3.8,3.8-3.8c4.6,0,9.3-0.7,14-2.2c8.8-2.7,16.4-7.7,20.8-13.7
		c1.3-1.7,3.7-2,5.3-0.8c1.7,1.3,2,3.7,0.8,5.3c-5.4,7.2-14.4,13.2-24.7,16.4C92.4,336.4,86.9,337.2,81.5,337.2z"/>
	<path class="st13" d="M73.5,303.5c-1.3,0-2.5-0.6-3.3-1.8c-1.1-1.8-0.5-4.1,1.3-5.3c3.9-2.4,8.1-4.3,12.6-5.7
		c5.5-1.7,10.9-2.5,16.3-2.5c2.1,0,3.8,1.7,3.8,3.8c0,2.1-1.7,3.8-3.8,3.8c-4.6,0-9.3,0.7-14,2.2c-3.9,1.2-7.5,2.9-10.9,4.9
		C74.9,303.3,74.2,303.5,73.5,303.5z"/>
	<path class="st13" d="M137.7,270.9c-0.3,0-0.6,0-1-0.1c-2-0.5-3.3-2.6-2.8-4.6c2.6-10,9.5-20.3,18.9-28.1c1.6-1.3,4-1.1,5.4,0.5
		c1.3,1.6,1.1,4-0.5,5.4c-8.2,6.8-14.2,15.6-16.4,24.1C140.9,269.8,139.4,270.9,137.7,270.9z"/>
	<path class="st10" d="M154.4,293.7c-2.1,0-3.8-1.7-3.8-3.8c0-2.1,1.7-3.8,3.8-3.8c9.2,0,19.7-4.2,28.6-11.6
		c17.1-14.1,20.2-31.7,14.9-38.1c-1.2-1.5-2.9-2.6-5.2-3.2c-2-0.6-3.1-2.8-2.5-4.8s2.8-3.1,4.8-2.5c3.7,1.1,6.6,3,8.8,5.7
		c8.4,10.2,4,32.3-16,48.8C177.6,288.9,165.4,293.7,154.4,293.7z"/>
	<path class="st13" d="M199.3,192.2c-0.1,0-0.2,0-0.3,0c-2.1-0.2-3.7-2-3.5-4.1c0.4-4.5,1.3-9,2.9-13.4c2.4-7,6.2-13.4,10.8-18.4
		c1.4-1.5,3.8-1.6,5.4-0.2c1.5,1.4,1.6,3.8,0.2,5.4c-3.9,4.2-7.1,9.7-9.2,15.7c-1.3,3.8-2.2,7.7-2.5,11.6
		C203,190.7,201.3,192.2,199.3,192.2z"/>
	<path class="st10" d="M212.1,217.8c-2.1,0-3.8-1.7-3.8-3.8c0-2.1,1.7-3.8,3.8-3.8c5.7,0,16.6-7.4,22.1-23.2
		c3-8.6,3.4-17.5,1.3-24.5c-0.6-2,0.5-4.2,2.5-4.8c2-0.6,4.2,0.5,4.8,2.5c2.6,8.5,2.1,19.2-1.4,29.2
		C235,207.9,221.5,217.8,212.1,217.8z"/>
	<path class="st10" d="M247.2,433.4c-5.5,0-10.2-1.6-13.2-4.8c-4.9-5.2-4.2-13.1-3.4-17.4c0.4-2.1,2.4-3.4,4.5-3
		c2.1,0.4,3.4,2.4,3,4.5c-0.4,2.3-1.2,7.9,1.5,10.7c2.9,3.1,11.4,3.7,21.5-1.2c4.3-2.1,8.3-4.9,12.1-8.4c7-6.5,11.8-14.6,13.2-22.1
		c0.4-2.3,1.2-7.9-1.5-10.7c-1.4-1.5-1.4-4,0.2-5.4c1.5-1.4,4-1.4,5.4,0.2c4.9,5.2,4.2,13.1,3.4,17.4c-1.8,9.1-7.4,18.7-15.5,26.3
		c-4.3,4-9,7.2-13.9,9.6C258.4,432,252.4,433.4,247.2,433.4z"/>
	<path class="st10" d="M309.4,356.4c-1.4,0-2.8-0.8-3.4-2.2c-0.9-1.9-0.1-4.2,1.8-5.1c7.9-3.8,15.1-11.8,19.7-21.8
		c0.9-1.9,3.1-2.8,5.1-1.9c1.9,0.9,2.8,3.1,1.9,5.1c-5.3,11.6-13.8,20.9-23.3,25.5C310.6,356.2,310,356.4,309.4,356.4z"/>
	<path class="st10" d="M325.1,262.8c-1.9,0-3.6-1.4-3.8-3.4c-0.2-2.1,1.2-4,3.3-4.2c0.5-0.1,1-0.2,1.5-0.5c7.5-3.6,10-18.5,8.9-27.9
		c-1-8.3-4.1-15.8-8.7-20.8c-1.4-1.5-1.3-4,0.2-5.4c1.5-1.4,4-1.3,5.4,0.2c5.6,6.1,9.5,15.2,10.7,25c2.1,18-5.2,31.8-13.2,35.7
		c-1.3,0.6-2.6,1-3.9,1.2C325.4,262.8,325.2,262.8,325.1,262.8z"/>
	<path class="st10" d="M230.5,304c2.3-2.6,6.6-0.3,5.7,3.1c-1.2,4.3-2.1,8.6-2.7,12.9c-1.8,12.4-7.4,23.1-16.1,30.9
		c-0.6,0.5-1.1,1-1.7,1.5c-33,30.8-39.4,78.8-26.5,105.6c3.4,7,11.2,16.1,29.2,19.5c4.8,0.9,10,1.3,15.6,1.3
		c24.7,0,55.4-8.8,74.7-26.8c14.7-13.8,25.1-31.2,29.3-49.2c1.1-4.9,4.5-8.3,7.1-10.3c13.7-10.6,25.1-25.1,32.8-42.1
		c11.1-24.3,13.6-51.1,6.8-73.6c-1.5-5-0.6-9.8,0.4-12.9c1.2-3.6,2.1-7.2,2.8-11c1.2-6.1,9.6-6.8,11.8-1
		c16,42.5,31.7,91.6,46.8,146.5c2.4,8.5,8.7,15.1,16.7,18c4.9,2.3,10.4,2.9,15.8,1.6l0.3-0.1c14.3-3.9,22.5-18,18.7-32
		c-39.9-145.3-83.4-249.3-129.4-309c-34.1-44.3-61.4-53.6-76.4-54.7c-12.4-2.7-33.6-1.7-53.9,24.7c-9.2,11.9-14.9,24.9-16.4,28.7
		l-0.9,2.6c0,0,0,0,0,0c-0.8,2.2-1.9,4.3-3.2,6.1c-3,4.1-6.6,8.8-10.7,14.1c-5.5,7-12,13.3-19.1,18.7c-12.8,9.7-26,23.7-32.6,42.6
		c-0.8,2.4-1.6,4.9-2.3,7.4c-3.1,11.4-9,20.3-16.9,25.2c-4.6,2.9-9.1,6.1-13.3,9.6c-8.6,7.1-16.1,15.3-22.2,24.2
		c-7.1,10.4-16.7,17.6-27.9,20.8c-0.7,0.2-1.5,0.4-2.2,0.7C27.7,261,1,301.4,1,331.2c0,7.8,3.1,19.4,17.9,30.2
		c21.2,15.6,61.5,26,92.4,16.4c19.3-6,36.2-17.2,47.7-31.5c3.1-3.9,7.7-5.5,10.9-6.2c17-3.6,33.6-11.6,47.8-23.6
		C222.4,312.6,226.7,308.1,230.5,304z M242.5,223.2c-7.1,7.4-11.6,16.3-13.1,25.8c-2.6,16.9-13.1,34-28.7,46.9
		c-11,9.1-23.6,15.4-36.3,18.1c-10.8,2.3-19.9,7.7-26.2,15.6c-8.2,10.2-20.6,18.3-34.9,22.8c-23.8,7.4-55.1-2.4-68.6-12.4
		c-4.4-3.2-7-6.5-7-8.7c0-26.2,29.7-51.5,50.9-58.1c0.6-0.2,1.1-0.3,1.7-0.5c17.3-5,32-15.9,42.6-31.5c4.7-6.9,10.4-13.1,17.1-18.7
		c3.3-2.7,6.8-5.2,10.4-7.4c13.6-8.4,23.8-23,28.6-41c0.5-1.9,1.1-3.8,1.7-5.6c4.1-11.9,12.7-21.3,20.9-28c2.3-1.8,5.2-2.7,8.1-2.3
		c0.3,0,0.6,0.1,0.9,0.1c1.4,0,2.8-0.4,4.1-1.2l7.8-4.9c1.4-0.9,3.3,0,3.5,1.7l0.4,3.1c0.3,2.6,1.8,4.9,4.2,6.1
		c1.1,0.6,2.3,0.8,3.4,0.8c2.4,0,4.8-1.2,6.2-3.2l2.2-3.2c1-1.4,3.1-1.3,3.9,0.2l4.3,7.8c0.7,1.3,1.7,2.2,2.9,2.9
		c2.3,1.3,4.1,3.5,4.8,6.1c4.3,15.3,4.6,29.9,0.8,41.1C255.4,206.2,249.7,215.7,242.5,223.2z M297.2,190.2l5.5-8.7
		c0.6-1,2.1-1,2.7,0l2.4,3.7c1.4,2.2,3.9,3.5,6.4,3.5c0.9,0,1.7-0.1,2.6-0.4c2.7-0.9,4.5-3.4,5-6.2l0.8-4.6c0.2-1.2,1.6-1.7,2.5-1
		l8.2,5.8c1.3,0.9,2.9,1.4,4.4,1.4c0,0,0,0,0,0c2,0,4,0.7,5.3,2.2c11.1,12.2,18.2,25.7,19.6,37.8c1.3,11.1,0.3,22.2-2.9,32.1
		c-3.2,9.7-3.4,19.7-0.6,28.9c5,16.4,3,36.3-5.5,54.7c-6,13-14.6,24.1-24.9,32.1c-8.7,6.7-14.5,15.5-16.8,25.5
		c-3,12.8-10.6,25.5-21.5,35.6c-18.2,17-50.7,21.8-67.2,18.7c-5.3-1-9.1-2.8-10.1-4.8c-11.4-23.6,4.3-59.2,20.6-74.4
		c0.4-0.4,0.8-0.8,1.3-1.2c13.4-12,22-28.2,24.7-46.9c1.2-8.2,3.7-16.4,7.3-24.2c1.8-3.9,3.8-7.7,6.1-11.2
		c8.6-13.5,11.4-31.1,8-49.4c-0.4-1.9-0.7-3.8-0.9-5.8c-1.5-12.9,2.4-25.5,7.1-35.2c0.9-2,2.7-3.4,4.9-3.8
		C293.6,194.1,295.4,193.1,297.2,190.2z M278.9,97.9c-0.7,3-1.1,6-1.5,8.9c-0.3,2.1-3.3,2.2-3.7,0.1c-0.6-3.3-1.1-6.3-1.6-9.1
		c-0.4-2.5-0.2-5.2,0.7-7.6c1.5-4,4.4-10.1,9.7-14.5c1.5-1.2,3.6,0.4,2.9,2.2C283.3,82.5,280.6,89.8,278.9,97.9z M356.7,161.5
		c-1.1-1.1-2.4-2.3-3.9-3.8c-8-10.4-15-20-20.3-27.4c-1.9-2.6-2.9-5.8-2.8-9.1c0.1-1.6,0.2-3.2,0.3-4.8c0.2-1.5,2.1-2,2.9-0.8
		c8.7,12.5,17.5,27.2,26.3,44C360.1,161.3,358,162.8,356.7,161.5C356.7,161.5,356.7,161.5,356.7,161.5z M242.6,123.9l-5.6,7.9
		c-1.1,1.6-3.6,1-3.8-0.9l-1.1-8.9c-0.3-2.1-2.6-3.2-4.4-2.1l-10.2,6.4c-1.3,0.8-2.7-0.8-1.7-2c8.7-10.7,15.9-20.2,21.2-27.3
		c1.3-1.8,2.4-3.8,3.1-5.9c1.7-4.8,3-8.3,3.1-8.6c0,0,0-0.1,0-0.1c0.8-1.8,19-44.6,45.8-40.8c0,0,0,0,0,0
		c8.1,0,93.4,8.4,186.9,348.7c0.6,2-0.6,4.1-2.7,4.7c-0.3,0.1-0.7,0.1-1,0.1c-1.7,0-3.2-1.1-3.7-2.8
		C441.5,293.8,397.8,161.5,342.9,91c-3-3.8-5.9-7.3-8.6-10.5c-1.6-1.8-4.1-2.5-6.4-1.7c-0.1,0-0.1,0.1-0.1,0.1
		c-0.1,0.1-0.3,0.1-0.4,0.1c-16.9,5.1-19,37.1-18.4,49c0,0,0.1,0.9,0.2,2.4c0.4,5,2.1,9.8,5,13.9c5,6.9,11.3,15.6,18.5,24.9
		c0.9,1.1-0.5,2.6-1.7,1.7l-7.5-5.3c0,0,0,0,0,0l-2.9-2c-1.5-1-3.5-0.2-3.8,1.6l-2,12.1c-0.2,1.2-1.8,1.6-2.5,0.5l-6.3-9.7
		c-1-1.5-3.1-1.5-4.1,0l-7.6,12.1v0v0c-0.7,1-2.3,0.4-2-0.8c4.3-17.9,7.2-33,8.8-42.1c0.4-2.2,0.5-4.5,0.3-6.7
		c-0.1-1.4-0.1-2.2-0.1-2.2c0,0-2.1-43.3,18.5-54.8c2.6-1.5,3-5.2,0.7-7.2c-6.9-6.2-12.7-10-17.1-12.4c-9.2-5-14.4-4.9-14.5-4.9
		c-0.3,0-0.5,0-0.8,0c-17.4-2.7-33.2,25.1-37.9,36.1c0,0.1-0.2,0.4-0.3,0.9c-1.4,3.7-1.8,7.8-1.1,11.7c1.5,8.9,3.7,21.3,6.6,35.2
		c0.3,1.5-1.7,2.2-2.5,0.9l-5.4-9.9C246.5,122.3,243.9,122.1,242.6,123.9z M336.1,174.9"/>
	<circle class="st13" cx="62.5" cy="309.8" r="3.8"/>
	<circle class="st13" cx="174" cy="230.7" r="3.8"/>
	<circle class="st10" cx="334.3" cy="311.9" r="3.8"/>
	<circle class="st13" cx="201.8" cy="205.8" r="3.8"/>
</g>
</svg>
