<svg xmlns="http://www.w3.org/2000/svg" viewBox="0 0 48 48" width="48" height="48"><path fill="#c5cae9" d="M20.5,31.1l0.1-2.1c0,0,0-1-0.7-1.7c-0.7-0.7-1.9-0.8-1.9-0.8l-2-0.1l1.2-1.5 c0.2-0.3,0.8-1.1,0.8-1.9s-0.6-1.6-0.8-1.9l-1.1-1.4l1.8-0.2c0.3,0,1.4-0.3,1.9-0.8c0.5-0.5,0.7-1.5,0.7-1.8l0.1-1.7l1.4,1 c0.5,0.3,1.4,0.8,1.9,0.8c0.5,0,1.4-0.5,1.9-0.8l1.3-0.9l0.3,1.5c0.1,0.4,0.4,1.4,0.9,2c0.6,0.6,1.7,0.7,1.7,0.7l1.9,0.1l-1.2,1.5 C30.6,21.4,30,22.3,30,23c0,0.7,0.5,1.5,0.8,1.9l1.2,1.6l-2,0.1c0,0-1.2,0.1-1.8,0.7c-0.7,0.7-0.7,1.8-0.7,1.8l-0.1,2l-1.5-1.2 C25.6,29.6,24.7,29,24,29s-1.6,0.6-1.9,0.8L20.5,31.1z M24,27c0.6,0,1.3,0.2,1.8,0.4c0.2-0.5,0.5-1.1,1-1.6s1.1-0.8,1.6-1 C28.2,24.3,28,23.6,28,23c0-0.7,0.2-1.3,0.5-1.8c-0.5-0.2-1-0.5-1.5-1c-0.5-0.5-0.9-1.1-1.1-1.7C25.3,18.8,24.6,19,24,19 c-0.6,0-1.3-0.2-1.8-0.5c-0.2,0.6-0.5,1.2-1,1.6c-0.5,0.5-1.1,0.8-1.7,1c0.2,0.5,0.4,1.2,0.4,1.8c0,0.7-0.2,1.3-0.4,1.8 c0.6,0.2,1.2,0.5,1.7,1c0.5,0.5,0.8,1,1,1.6C22.8,27.2,23.4,27,24,27z"/><path fill="#c5cae9" d="M29.4,36.1l-0.7-0.3c0,0-2.6-0.9-4.6-0.9c-2,0-4.6,0.9-4.6,0.9l-0.7,0.2l-0.4-0.6c0,0-1.4-2-3-3.6 c-1.6-1.6-3.7-3.1-3.8-3.1l-0.6-0.4l0.2-0.7c0.2-0.9,0.9-3.4,0.9-4.7c0-1.3-0.6-3.8-0.9-4.7l-0.2-0.7l0.7-0.4c0,0,2.5-1.5,3.8-2.8 c1.3-1.3,2.8-3.8,2.8-3.8l0.5-0.7l0.8,0.3c0,0,2,0.8,4.5,0.8c2.6,0,4.5-0.8,4.5-0.8l0.8-0.3l0.5,0.7c0,0,1.4,2.2,3.1,3.9 c1.7,1.7,3.5,2.7,3.5,2.7l0.8,0.4l-0.4,0.8c0,0-0.8,2-0.8,4.5c0,2.6,0.8,4.5,0.8,4.5l0.3,0.7l-0.7,0.5c0,0-2.3,1.6-3.9,3.3 c-1.6,1.6-2.8,3.4-2.8,3.4L29.4,36.1z M13.2,27.5c0.8,0.6,2.2,1.7,3.4,2.9c1.2,1.2,2.2,2.5,2.8,3.3c1-0.3,2.9-0.8,4.6-0.8 c1.7,0,3.5,0.5,4.5,0.8c0.5-0.7,1.5-2,2.6-3.1c1.2-1.2,2.7-2.4,3.6-3C34.4,26.7,34,25,34,23c0-1.9,0.4-3.6,0.7-4.5 c-0.8-0.5-2-1.4-3.2-2.6c-1.3-1.3-2.4-2.8-2.9-3.6C27.6,12.6,26,13,24,13c-1.9,0-3.6-0.4-4.5-0.7c-0.6,0.9-1.7,2.5-2.7,3.5 c-1,1-2.7,2.1-3.6,2.7c0.3,1.1,0.8,3.1,0.8,4.5C14,24.4,13.5,26.5,13.2,27.5z"/><path fill="#c5cae9" d="M32.5,43.5l-1.1-0.6c0,0-3.6-1.9-7.4-1.9c-3.9,0-7.4,1.9-7.4,1.9l-1.1,0.6l-0.3-1.2 c0,0-1-3.9-3.8-6.6c-2.8-2.8-6.6-3.8-6.6-3.8l-1.2-0.3l0.5-1.1c0,0,1.9-4,1.9-7.4c0-3.5-1.3-7.2-1.4-7.3l-0.3-1l1-0.3 c0,0,3.8-1.3,6.6-4.1c2.7-2.7,3.8-5.6,3.8-5.6l0.5-1.3l1.1,0.9c0,0,2.3,1.7,6.8,1.7c4.5,0,6.8-1.9,6.9-1.9l1.2-1l0.4,1.5 c0,0,0.9,3.2,4.1,6.3c2.3,2.2,5.8,3.7,5.9,3.7l1,0.4l-0.4,1c0,0-1,2.3-1,7.1c0,4.7,1.8,7.3,1.8,7.3l0.9,1.2l-1.4,0.4 c0,0-3.7,0.9-6.6,3.8c-2.9,2.9-3.8,6.6-3.8,6.6L32.5,43.5z M6.4,30.3c1.5,0.5,4.2,1.8,6.4,4c2.2,2.2,3.4,4.9,4,6.4 C18.2,40,21,39,24,39c3,0,5.8,1,7.3,1.6c0.5-1.5,1.7-4.1,4-6.4c2.2-2.2,4.8-3.4,6.3-3.9C40.9,28.9,40,26.5,40,23 c0-3.5,0.5-5.8,0.9-7c-1.3-0.6-3.7-1.9-5.6-3.7c-2.4-2.3-3.7-4.6-4.2-6C29.7,7.1,27.4,8,24,8c-3.4,0-5.7-0.9-7-1.5 c-0.6,1.2-1.8,3.3-3.8,5.3C11,14,8.2,15.4,6.8,16C7.3,17.4,8,20.2,8,23C8,25.8,7,28.7,6.4,30.3z"/><path fill="#c5cae9" d="M22.2 24.8L31.3 2.7 33.2 3.5 25.8 21.2 43.5 13.8 44.3 15.7z"/><path fill="#c5cae9" d="M31.8 44.2L22.1 21.1 45.1 30.6 44.3 32.5 25.9 24.9 33.6 43.4z"/><path fill="#c5cae9" d="M16.4 44.2L14.5 43.4 22.2 24.8 3.5 32.6 2.7 30.7 25.8 21.2z"/><path fill="#c5cae9" d="M25.8 24.8L3.7 15.7 4.5 13.8 22.2 21.2 14.8 3.5 16.7 2.7z"/></svg>