<?xml version="1.0" encoding="utf-8"?>
<!-- Generator: Adobe Illustrator 20.0.0, SVG Export Plug-In . SVG Version: 6.00 Build 0)  -->
<svg version="1.1" id="Layer_1" xmlns="http://www.w3.org/2000/svg" xmlns:xlink="http://www.w3.org/1999/xlink" x="0px" y="0px"
	 viewBox="0 0 64 64" style="enable-background:new 0 0 64 64;" xml:space="preserve">
<style type="text/css">
	.st0{fill:#6FAD4C;}
	.st1{fill:#00FFFF;}
	.st2{fill:#184C28;}
	.st3{fill:#82C64E;}
	.st4{fill:none;stroke:#497726;stroke-linecap:round;stroke-linejoin:round;stroke-miterlimit:10;}
	.st5{fill:#497726;}
	.st6{opacity:0.2;}
	.st7{fill:#194C28;}
	.st8{fill:#82C64E;stroke:#184C28;stroke-linejoin:round;stroke-miterlimit:10;}
	.st9{fill:none;stroke:#184C28;stroke-linecap:round;stroke-linejoin:round;stroke-miterlimit:10;}
	.st10{fill:none;stroke:#FFFFFF;stroke-linecap:round;stroke-linejoin:round;stroke-miterlimit:10;}
	.st11{fill:#FFFFFF;}
	.st12{fill:#406D2A;}
</style>
<path class="st0" d="M34.2,61.4l4.3-11.3c1.1-2.9,3.6-5,6.5-5.4c7.3-1.2,11.8-4.7,14.5-11.5c2-5,2.7-10.9,1.9-16.1
	C60.6,11.5,58,7.5,54.3,6c-1.1-0.5-2.3-0.7-3.6-0.7C44,5.3,35.9,12,32,20.6C28,12,20,5.3,13.2,5.3C12,5.3,10.8,5.6,9.7,6
	c-3.7,1.5-6.3,5.5-7.2,11.1c-0.8,5.2-0.1,11,1.9,16.1c2.7,6.7,7.2,10.3,14.5,11.5c2.9,0.5,5.4,2.6,6.5,5.4l4.3,11.3H34.2z"/>
<path class="st12" d="M35.1,58.9L45.3,32c0,0,0.1,0,0.1,0c0.1,0,0.2,0,0.3-0.1c0,0,1.9-1.6,4.4-1.7c3.1-0.2,5-1.9,5.1-2
	c0.2-0.2,0.2-0.5,0-0.7c-0.2-0.2-0.5-0.2-0.7,0c0,0-1.7,1.6-4.4,1.7c-1.9,0.1-3.4,0.9-4.3,1.4l4.3-11.5c0.1-0.1,0.1-0.3,0.1-0.4
	c0-0.5-0.4-1-1-1c0,0,0,0,0,0c0,0-0.1,0-0.1,0c-0.1,0-0.3,0.1-0.4,0.2c-0.1,0.1-0.2,0.2-0.3,0.3c0,0-0.1,0.1-0.1,0.1l-14.6,32L34,52
	l15.2-33.4L34.3,58.2L35.1,58.9z"/>
<path class="st12" d="M30.5,50.6L15.7,18.3c-0.2-0.4-0.5-0.6-0.9-0.6c-0.1,0-0.3,0-0.4,0.1C14,18,13.7,18.5,13.9,19l1.7,4.6
	c-1-0.7-2.6-1.5-4.8-1.7c-3.1-0.3-5.3-2.3-5.3-2.3c-0.2-0.2-0.5-0.2-0.7,0c-0.2,0.2-0.2,0.5,0,0.7c0.1,0.1,2.4,2.2,5.9,2.6
	c3.3,0.3,5.3,2.3,5.3,2.3c0.1,0.1,0.1,0.1,0.2,0.1l2.9,7.7c-1.3-0.8-3.3-1.8-5.8-2c-4-0.4-6.7-2.9-6.8-2.9c-0.2-0.2-0.5-0.2-0.7,0
	c-0.2,0.2-0.2,0.5,0,0.7c0.1,0.1,3,2.8,7.3,3.2c3.6,0.3,6,2.2,6.6,2.8l8.8,23.5l0.9-0.4l-8.7-23.2c0-0.1,0-0.3-0.1-0.4c0,0,0,0,0,0
	l-5.8-15.5l15.4,33.8L30.5,50.6z"/>
<path class="st3" d="M34,62l-0.4-12.1c0.1-3.1,2.4-7.8,5-9.8c4.7-3.6,7.6-7.3,7.6-15.3c0-10.6-6.4-22.2-14.2-22.2
	S17.8,14.3,17.8,24.9c0,7.9,2.9,11.6,7.6,15.2c2.8,2.2,4.9,6.4,4.9,9.8L30,62H34z"/>
<path class="st2" d="M62,11.8c-1.5-3.6-4-6.2-7-7.4c-1.3-0.5-2.8-0.8-4.3-0.8c-2.3,0-4.7,0.6-7.1,1.8C43.1,5.6,42.4,5.5,42,5
	c-2.9-3.2-6.4-5-10-5c-3.6,0-7,1.7-9.8,4.8c-0.5,0.5-1.3,0.7-1.9,0.4c-2.3-1.1-4.7-1.7-6.9-1.7c-1.5,0-3,0.3-4.3,0.8
	c-3.1,1.2-5.5,3.8-7,7.4C-0.7,18-0.4,26.7,2.5,33.9c3.9,9.6,11,11.8,16,12.6c2.2,0.4,4.1,1.9,5,4.1l4.3,11.2
	c0.3,0.7,0.8,1.3,1.4,1.6c0.3,0.1,1.4,0.6,2.8,0.6c1,0,1.9-0.2,2.7-0.7c0.6-0.3,1.1-0.9,1.4-1.6l4.3-11.2c0.8-2.2,2.7-3.8,5-4.1
	c10.4-1.7,14.1-8,16-12.6C64.4,26.7,64.7,18,62,11.8z M28.9,56.1l-2.6-6.7c-1.2-3.1-4-5.5-7.3-6C13.2,42.5,8.3,40,5.3,32.8
	c-4-9.7-2.5-22.7,4.8-25.6c1-0.4,2.1-0.6,3.2-0.6c2.4,0,5,0.9,7.5,2.5c0.4,0.3,0.6,0.9,0.3,1.3c-2.4,4.3-3.9,9.6-3.9,14.6
	c0,8,2.9,11.8,7.8,15.6c0.5,0.4,1.1,0.9,1.6,1.5l3.2,7.1L29.6,56C29.6,56.4,29.1,56.5,28.9,56.1z M32.3,61h-0.6
	c-0.7,0-1.2-0.4-1.2-1.1L31.9,18c0,0,0-1.6,0.1-1.6C32,16.4,32,18,32,18l1.4,42C33.4,60.9,32.3,61,32.3,61z M43.8,22.1
	c-0.2-0.1-0.5,0-0.7,0.2c0,0-1.6,3.4-5.2,5.2c-2.1,1.1-3.6,2.6-4.5,3.7l-0.3-8.1c0,0,0,0,0,0c0,0,1.2-2.6,4.1-4.1
	c3.1-1.6,4.5-4.5,4.6-4.6c0.1-0.2,0-0.5-0.2-0.7c-0.2-0.1-0.5,0-0.7,0.2c0,0-1.3,2.7-4.1,4.1c-1.8,0.9-3,2.2-3.7,3.2l-0.2-5.9
	c0-0.5-0.5-1-1-1c-0.5,0-1,0.4-1,1l-0.4,11.2c-0.7-0.8-1.8-1.8-3.3-2.4c-2.5-1-3.7-3-3.7-3c-0.1-0.2-0.4-0.3-0.7-0.2
	c-0.2,0.1-0.3,0.4-0.2,0.7c0.1,0.1,1.3,2.3,4.2,3.5c2.2,0.9,3.4,2.7,3.6,3L30,45.1c-1.1-2.1-2.7-4-4.3-5.3
	c-4.7-3.7-7.4-7.3-7.4-14.8c0-10,6-21.7,13.7-21.7S45.6,15,45.6,25c0,7.7-2.7,11.2-7.4,14.8c-1.5,1.1-3.1,3.2-4.2,5.5L33.5,33
	c0.6-1.1,2.1-3.2,4.9-4.6c3.9-2,5.6-5.5,5.7-5.7C44.2,22.5,44.1,22.2,43.8,22.1z M58.7,32.8c-3,7.3-7.9,9.8-13.7,10.7
	c-3.3,0.5-6.1,2.9-7.3,6L35,56.4c-0.1,0.4-0.7,0.3-0.7-0.1l-0.2-6.9l3.5-7.6c0.4-0.4,0.8-0.8,1.2-1.1c4.8-3.7,7.8-7.6,7.8-15.6
	c0-5-1.4-10.3-3.8-14.5c-0.3-0.5-0.1-1,0.3-1.3c2.5-1.6,5.2-2.6,7.7-2.6c1.1,0,2.2,0.2,3.2,0.6C61.2,10.1,62.7,23,58.7,32.8z"/>
<g>
	<g>
		<path class="st11" d="M38.5,24.6c-0.2,0-0.3-0.1-0.4-0.2c-0.2-0.2-0.1-0.5,0.1-0.7c1-0.7,2-1.6,2.7-2.6c0.2-0.2,0.5-0.3,0.7-0.1
			c0.2,0.2,0.3,0.5,0.1,0.7c-0.8,1.1-1.8,2-3,2.8C38.7,24.6,38.6,24.6,38.5,24.6z"/>
	</g>
	<g>
		<path class="st11" d="M23.2,14.4c-0.1,0-0.1,0-0.2,0c-0.3-0.1-0.4-0.4-0.2-0.7c1.3-2.8,2.9-5.1,4.7-6.6C27.7,6.9,28,7,28.1,7.2
			s0.1,0.5-0.1,0.7c-1.7,1.4-3.2,3.6-4.5,6.2C23.5,14.3,23.4,14.4,23.2,14.4z"/>
	</g>
	<circle class="st11" cx="6.2" cy="17.5" r="0.5"/>
	<circle class="st11" cx="30" cy="6.2" r="0.5"/>
	<circle class="st11" cx="36.8" cy="25.7" r="0.5"/>
	<g>
		<path class="st11" d="M10.9,20.4c0,0-0.1,0-0.1,0c-1.2-0.3-2.3-0.7-3.3-1.3c-0.2-0.1-0.3-0.5-0.2-0.7C7.5,18.1,7.8,18,8,18.2
			c0.9,0.6,2,1,3,1.2c0.3,0.1,0.4,0.3,0.4,0.6C11.4,20.2,11.2,20.4,10.9,20.4z"/>
	</g>
</g>
</svg>
