<?xml version="1.0" encoding="utf-8"?>
<!-- Generator: Adobe Illustrator 20.0.0, SVG Export Plug-In . SVG Version: 6.00 Build 0)  -->
<svg version="1.1" id="Layer_1" xmlns="http://www.w3.org/2000/svg" xmlns:xlink="http://www.w3.org/1999/xlink" x="0px" y="0px"
	 viewBox="0 0 64 64" style="enable-background:new 0 0 64 64;" xml:space="preserve">
<style type="text/css">
	.st0{fill:#82AF1D;}
	.st1{fill:#C0D57C;}
	.st2{fill:#D5DF7F;}
	.st3{fill:#80AC66;}
	.st4{fill:#F9FBEF;}
	.st5{fill:#2F3F1A;}
	.st6{fill:#E7ECB9;}
	.st7{fill:#F0F3D4;}
	.st8{fill:#DEE59F;}
	.st9{fill:#ACC476;}
	.st10{fill:#96B870;}
	.st11{fill:#C0D17E;}
	.st12{fill:url(#SVGID_1_);}
	.st13{fill:none;stroke:#CEB699;stroke-linecap:round;stroke-linejoin:round;stroke-miterlimit:10;}
	.st14{fill:url(#SVGID_2_);stroke:#5B7D12;stroke-width:3;stroke-linecap:round;stroke-linejoin:round;stroke-miterlimit:10;}
	.st15{fill:url(#SVGID_3_);stroke:#2F3F1A;stroke-linecap:round;stroke-linejoin:round;stroke-miterlimit:10;}
	.st16{fill:url(#SVGID_4_);stroke:#2F3F1A;stroke-linecap:round;stroke-linejoin:round;stroke-miterlimit:10;}
	.st17{fill:url(#SVGID_5_);stroke:#2F3F1A;stroke-linecap:round;stroke-linejoin:round;stroke-miterlimit:10;}
	.st18{fill:url(#SVGID_6_);stroke:#2F3F1A;stroke-linecap:round;stroke-linejoin:round;stroke-miterlimit:10;}
	.st19{fill:url(#SVGID_7_);stroke:#2F3F1A;stroke-linecap:round;stroke-linejoin:round;stroke-miterlimit:10;}
	.st20{fill:url(#SVGID_8_);stroke:#5B7D12;stroke-width:3;stroke-linecap:round;stroke-linejoin:round;stroke-miterlimit:10;}
	.st21{fill:url(#SVGID_9_);stroke:#2F3F1A;stroke-linecap:round;stroke-linejoin:round;stroke-miterlimit:10;}
	.st22{fill:url(#SVGID_10_);stroke:#2F3F1A;stroke-linecap:round;stroke-linejoin:round;stroke-miterlimit:10;}
	.st23{fill:url(#SVGID_11_);stroke:#2F3F1A;stroke-linecap:round;stroke-linejoin:round;stroke-miterlimit:10;}
	.st24{fill:url(#SVGID_12_);stroke:#2F3F1A;stroke-linecap:round;stroke-linejoin:round;stroke-miterlimit:10;}
	.st25{fill:url(#SVGID_13_);stroke:#2F3F1A;stroke-linecap:round;stroke-linejoin:round;stroke-miterlimit:10;}
	.st26{fill:#BC6F6B;}
	.st27{fill:#D48C64;stroke:#93663D;stroke-width:3;stroke-miterlimit:10;}
	.st28{fill:url(#SVGID_14_);}
	.st29{fill:url(#SVGID_15_);stroke:#2F3F1A;stroke-width:3;stroke-linecap:round;stroke-miterlimit:10;}
	.st30{fill:none;stroke:#2F3F1A;stroke-miterlimit:10;}
	.st31{fill:url(#SVGID_16_);}
	.st32{fill:none;stroke:#8D5733;stroke-linecap:round;stroke-linejoin:round;stroke-miterlimit:10;}
	.st33{fill:#FCAA54;}
	.st34{fill:#8D5733;}
	.st35{fill:none;stroke:#FFFFFF;stroke-linecap:round;stroke-linejoin:round;stroke-miterlimit:10;}
	.st36{fill:none;stroke:#8D5733;stroke-linecap:round;stroke-miterlimit:10;}
	.st37{fill:none;stroke:#FFFFFF;stroke-linecap:round;stroke-miterlimit:10;}
	.st38{fill:#FFFFFF;}
	.st39{fill:#FCAA54;stroke:#8CC63F;stroke-width:3;stroke-linecap:round;stroke-linejoin:round;stroke-miterlimit:10;}
	.st40{fill:none;stroke:#FDD6AD;stroke-linecap:round;stroke-linejoin:round;stroke-miterlimit:10;}
	.st41{fill:#00FFFF;}
	.st42{fill:none;stroke:#38171C;stroke-linecap:round;stroke-linejoin:round;stroke-miterlimit:10;}
	.st43{fill:#B63640;}
	.st44{fill:none;stroke:#DDA1A4;stroke-linecap:round;stroke-linejoin:round;stroke-miterlimit:10;}
	.st45{fill:#38171C;}
	.st46{fill:none;stroke:#B1986C;stroke-linecap:round;stroke-linejoin:round;stroke-miterlimit:10;}
	.st47{fill:#E5E1C7;}
	.st48{fill:none;stroke:#BEC57A;stroke-linecap:round;stroke-linejoin:round;stroke-miterlimit:10;}
	.st49{fill:#B1986C;}
	.st50{fill:none;stroke:#986E5A;stroke-linecap:round;stroke-linejoin:round;stroke-miterlimit:10;}
	.st51{fill:#EEE1C2;}
	.st52{fill:#F0DBC2;stroke:#986E5A;stroke-width:3;stroke-miterlimit:10;}
	.st53{fill:none;stroke:#BA8178;stroke-linecap:round;stroke-miterlimit:10;}
	.st54{fill:none;stroke:#986E5A;stroke-width:3;stroke-miterlimit:10;}
	.st55{fill:none;stroke:#F8C899;stroke-linecap:round;stroke-linejoin:round;stroke-miterlimit:10;}
	.st56{fill:none;stroke:#E6C18D;stroke-linecap:round;stroke-linejoin:round;stroke-miterlimit:10;}
	.st57{fill:none;stroke:#2F3F1A;stroke-width:3;stroke-miterlimit:10;}
	.st58{fill:url(#SVGID_17_);}
	.st59{fill:url(#SVGID_18_);}
	.st60{fill:none;stroke:#2F3F1A;stroke-width:3;stroke-linejoin:round;stroke-miterlimit:10;}
	.st61{fill:none;stroke:#2F3F1A;stroke-linejoin:round;stroke-miterlimit:10;}
	.st62{clip-path:url(#SVGID_20_);}
	.st63{clip-path:url(#SVGID_22_);}
	.st64{clip-path:url(#SVGID_24_);}
	.st65{fill:#D46A71;stroke:#9E423B;stroke-width:3;stroke-miterlimit:10;}
	.st66{fill:none;stroke:#D68C79;stroke-linecap:round;stroke-miterlimit:10;}
	.st67{fill:url(#SVGID_25_);}
	.st68{fill:#CEB699;}
	.st69{fill:url(#SVGID_26_);}
	.st70{fill:url(#SVGID_27_);}
	.st71{fill:url(#SVGID_28_);}
	.st72{clip-path:url(#SVGID_30_);fill:#F9FBEF;}
	.st73{clip-path:url(#SVGID_30_);fill:#F9FBEE;}
	.st74{clip-path:url(#SVGID_30_);fill:#F8FBED;}
	.st75{clip-path:url(#SVGID_30_);fill:#F8FAED;}
	.st76{clip-path:url(#SVGID_30_);fill:#F8FAEC;}
	.st77{clip-path:url(#SVGID_30_);fill:#F8FAEB;}
	.st78{clip-path:url(#SVGID_30_);fill:#F8FAEA;}
	.st79{clip-path:url(#SVGID_30_);fill:#F7FAEA;}
	.st80{clip-path:url(#SVGID_30_);fill:#F7FAE9;}
	.st81{clip-path:url(#SVGID_30_);fill:#F7F9E9;}
	.st82{clip-path:url(#SVGID_30_);fill:#F7F9E8;}
	.st83{clip-path:url(#SVGID_30_);fill:#F7F9E7;}
	.st84{clip-path:url(#SVGID_30_);fill:#F6F9E7;}
	.st85{clip-path:url(#SVGID_30_);fill:#F6F9E6;}
	.st86{clip-path:url(#SVGID_30_);fill:#F6F9E5;}
	.st87{clip-path:url(#SVGID_30_);fill:#F6F8E5;}
	.st88{clip-path:url(#SVGID_30_);fill:#F5F8E4;}
	.st89{clip-path:url(#SVGID_30_);fill:#F5F8E3;}
	.st90{clip-path:url(#SVGID_30_);fill:#F5F8E2;}
	.st91{clip-path:url(#SVGID_30_);fill:#F5F8E1;}
	.st92{clip-path:url(#SVGID_30_);fill:#F4F7E0;}
	.st93{clip-path:url(#SVGID_30_);fill:#F4F7DF;}
	.st94{clip-path:url(#SVGID_30_);fill:#F4F7DE;}
	.st95{clip-path:url(#SVGID_30_);fill:#F3F7DD;}
	.st96{clip-path:url(#SVGID_30_);fill:#F3F6DC;}
	.st97{clip-path:url(#SVGID_30_);fill:#F3F6DB;}
	.st98{clip-path:url(#SVGID_30_);fill:#F2F6DA;}
	.st99{clip-path:url(#SVGID_30_);fill:#F2F5D9;}
	.st100{clip-path:url(#SVGID_30_);fill:#F1F5D8;}
	.st101{clip-path:url(#SVGID_30_);fill:#F1F5D6;}
	.st102{clip-path:url(#SVGID_30_);fill:#F1F5D5;}
	.st103{clip-path:url(#SVGID_30_);fill:#F0F4D4;}
	.st104{clip-path:url(#SVGID_30_);fill:#F0F4D3;}
	.st105{clip-path:url(#SVGID_30_);fill:#F0F4D2;}
	.st106{clip-path:url(#SVGID_30_);fill:#EFF3D1;}
	.st107{clip-path:url(#SVGID_30_);fill:#EFF3CF;}
	.st108{clip-path:url(#SVGID_30_);fill:#EEF3CE;}
	.st109{clip-path:url(#SVGID_30_);fill:#EEF2CD;}
	.st110{clip-path:url(#SVGID_30_);fill:#EEF2CC;}
	.st111{clip-path:url(#SVGID_30_);fill:#EDF2CA;}
	.st112{clip-path:url(#SVGID_30_);fill:#EDF1C9;}
	.st113{clip-path:url(#SVGID_30_);fill:#ECF1C7;}
	.st114{clip-path:url(#SVGID_30_);fill:#ECF1C6;}
	.st115{clip-path:url(#SVGID_30_);fill:#EBF0C4;}
	.st116{clip-path:url(#SVGID_30_);fill:#EBF0C3;}
	.st117{clip-path:url(#SVGID_30_);fill:#EAF0C1;}
	.st118{clip-path:url(#SVGID_30_);fill:#EAEFC0;}
	.st119{clip-path:url(#SVGID_30_);fill:#E9EFBE;}
	.st120{clip-path:url(#SVGID_30_);fill:#E9EEBC;}
	.st121{clip-path:url(#SVGID_30_);fill:#E8EEBA;}
	.st122{clip-path:url(#SVGID_30_);fill:#E8EDB9;}
	.st123{clip-path:url(#SVGID_30_);fill:#E7EDB7;}
	.st124{clip-path:url(#SVGID_30_);fill:#E6EDB5;}
	.st125{clip-path:url(#SVGID_30_);fill:#E6ECB3;}
	.st126{clip-path:url(#SVGID_30_);fill:#E5ECB1;}
	.st127{clip-path:url(#SVGID_30_);fill:#E5EBAF;}
	.st128{clip-path:url(#SVGID_30_);fill:#E4EBAD;}
	.st129{clip-path:url(#SVGID_30_);fill:#E3EAAB;}
	.st130{clip-path:url(#SVGID_30_);fill:#E3EAA9;}
	.st131{clip-path:url(#SVGID_30_);fill:#E2E9A7;}
	.st132{clip-path:url(#SVGID_30_);fill:#E1E8A5;}
	.st133{clip-path:url(#SVGID_30_);fill:#E0E8A3;}
	.st134{clip-path:url(#SVGID_30_);fill:#E0E7A0;}
	.st135{clip-path:url(#SVGID_30_);fill:#DFE79E;}
	.st136{clip-path:url(#SVGID_30_);fill:#DEE69C;}
	.st137{clip-path:url(#SVGID_30_);fill:#DDE699;}
	.st138{clip-path:url(#SVGID_30_);fill:#DDE597;}
	.st139{clip-path:url(#SVGID_30_);fill:#DCE494;}
	.st140{clip-path:url(#SVGID_30_);fill:#DBE492;}
	.st141{clip-path:url(#SVGID_30_);fill:#DAE38F;}
	.st142{clip-path:url(#SVGID_30_);fill:#D9E28D;}
	.st143{clip-path:url(#SVGID_30_);fill:#D9E28A;}
	.st144{clip-path:url(#SVGID_30_);fill:#D8E187;}
	.st145{clip-path:url(#SVGID_30_);fill:#D7E085;}
	.st146{clip-path:url(#SVGID_30_);fill:#D6E082;}
	.st147{clip-path:url(#SVGID_30_);fill:#D5DF7F;}
	.st148{clip-path:url(#SVGID_30_);fill:#D3DE7E;}
	.st149{clip-path:url(#SVGID_30_);fill:#D1DC7E;}
	.st150{clip-path:url(#SVGID_30_);fill:#CFDB7D;}
	.st151{clip-path:url(#SVGID_30_);fill:#CCDA7C;}
	.st152{clip-path:url(#SVGID_30_);fill:#CAD97C;}
	.st153{clip-path:url(#SVGID_30_);fill:#C8D77B;}
	.st154{clip-path:url(#SVGID_30_);fill:#C6D67B;}
	.st155{clip-path:url(#SVGID_30_);fill:#C4D57A;}
	.st156{clip-path:url(#SVGID_30_);fill:#C2D47A;}
	.st157{clip-path:url(#SVGID_30_);fill:#C1D379;}
	.st158{clip-path:url(#SVGID_30_);fill:#BFD278;}
	.st159{clip-path:url(#SVGID_30_);fill:#BDD178;}
	.st160{clip-path:url(#SVGID_30_);fill:#BBCF77;}
	.st161{clip-path:url(#SVGID_30_);fill:#B9CE77;}
	.st162{clip-path:url(#SVGID_30_);fill:#B7CD76;}
	.st163{clip-path:url(#SVGID_30_);fill:#B6CC76;}
	.st164{clip-path:url(#SVGID_30_);fill:#B4CB75;}
	.st165{clip-path:url(#SVGID_30_);fill:#B2CA75;}
	.st166{clip-path:url(#SVGID_30_);fill:#B1C974;}
	.st167{clip-path:url(#SVGID_30_);fill:#AFC874;}
	.st168{clip-path:url(#SVGID_30_);fill:#AEC773;}
	.st169{clip-path:url(#SVGID_30_);fill:#ACC673;}
	.st170{clip-path:url(#SVGID_30_);fill:#AAC572;}
	.st171{clip-path:url(#SVGID_30_);fill:#A9C572;}
	.st172{clip-path:url(#SVGID_30_);fill:#A7C472;}
	.st173{clip-path:url(#SVGID_30_);fill:#A6C371;}
	.st174{clip-path:url(#SVGID_30_);fill:#A5C271;}
	.st175{clip-path:url(#SVGID_30_);fill:#A3C170;}
	.st176{clip-path:url(#SVGID_30_);fill:#A2C070;}
	.st177{clip-path:url(#SVGID_30_);fill:#A1C070;}
	.st178{clip-path:url(#SVGID_30_);fill:#9FBF6F;}
	.st179{clip-path:url(#SVGID_30_);fill:#9EBE6F;}
	.st180{clip-path:url(#SVGID_30_);fill:#9DBD6E;}
	.st181{clip-path:url(#SVGID_30_);fill:#9CBD6E;}
	.st182{clip-path:url(#SVGID_30_);fill:#9ABC6E;}
	.st183{clip-path:url(#SVGID_30_);fill:#99BB6D;}
	.st184{clip-path:url(#SVGID_30_);fill:#98BA6D;}
	.st185{clip-path:url(#SVGID_30_);fill:#97BA6D;}
	.st186{clip-path:url(#SVGID_30_);fill:#96B96C;}
	.st187{clip-path:url(#SVGID_30_);fill:#95B96C;}
	.st188{clip-path:url(#SVGID_30_);fill:#94B86C;}
	.st189{clip-path:url(#SVGID_30_);fill:#93B76C;}
	.st190{clip-path:url(#SVGID_30_);fill:#92B76B;}
	.st191{clip-path:url(#SVGID_30_);fill:#91B66B;}
	.st192{clip-path:url(#SVGID_30_);fill:#90B66B;}
	.st193{clip-path:url(#SVGID_30_);fill:#8FB56A;}
	.st194{clip-path:url(#SVGID_30_);fill:#8EB56A;}
	.st195{clip-path:url(#SVGID_30_);fill:#8EB46A;}
	.st196{clip-path:url(#SVGID_30_);fill:#8DB46A;}
	.st197{clip-path:url(#SVGID_30_);fill:#8CB36A;}
	.st198{clip-path:url(#SVGID_30_);fill:#8BB369;}
	.st199{clip-path:url(#SVGID_30_);fill:#8AB269;}
	.st200{clip-path:url(#SVGID_30_);fill:#89B169;}
	.st201{clip-path:url(#SVGID_30_);fill:#88B168;}
	.st202{clip-path:url(#SVGID_30_);fill:#87B068;}
	.st203{clip-path:url(#SVGID_30_);fill:#86B068;}
	.st204{clip-path:url(#SVGID_30_);fill:#86AF68;}
	.st205{clip-path:url(#SVGID_30_);fill:#85AF68;}
	.st206{clip-path:url(#SVGID_30_);fill:#85AF67;}
	.st207{clip-path:url(#SVGID_30_);fill:#84AF67;}
	.st208{clip-path:url(#SVGID_30_);fill:#84AE67;}
	.st209{clip-path:url(#SVGID_30_);fill:#83AE67;}
	.st210{clip-path:url(#SVGID_30_);fill:#82AD67;}
	.st211{clip-path:url(#SVGID_30_);fill:#81AD66;}
	.st212{clip-path:url(#SVGID_30_);fill:#81AC66;}
	.st213{clip-path:url(#SVGID_30_);fill:#80AC66;}
	.st214{fill:none;stroke:#E7ECB9;stroke-miterlimit:10;}
	.st215{fill:none;stroke:#ACC476;stroke-miterlimit:10;}
	.st216{fill:url(#SVGID_31_);stroke:#2F3F1A;stroke-width:3;stroke-linecap:round;stroke-miterlimit:10;}
	.st217{fill:none;stroke:#2F3F1A;stroke-linecap:round;stroke-miterlimit:10;}
	.st218{opacity:0.2;}
	.st219{fill:#93663D;}
	.st220{fill:none;stroke:#93663D;stroke-width:3;stroke-miterlimit:10;}
	.st221{fill:#D48C64;}
	.st222{fill:#C68460;}
	.st223{fill:#B3706B;}
	.st224{fill:#B58070;}
	.st225{fill:#682A28;}
	.st226{fill:#B3706B;stroke:#682A28;stroke-width:3;stroke-miterlimit:10;}
	.st227{fill:#B6806E;}
	.st228{fill:none;stroke:#682A28;stroke-width:3;stroke-miterlimit:10;}
	.st229{fill:none;stroke:#D68C79;stroke-miterlimit:10;}
	.st230{opacity:0.4;fill:none;stroke:#FFFFFF;stroke-linecap:round;stroke-miterlimit:10;}
	.st231{fill:none;stroke:#9E423B;stroke-width:3;stroke-linecap:round;stroke-linejoin:round;stroke-miterlimit:10;}
	.st232{fill:none;stroke:#9E423B;stroke-miterlimit:10;}
	.st233{fill:url(#SVGID_32_);stroke:#5B7D12;stroke-width:3;stroke-linecap:round;stroke-linejoin:round;stroke-miterlimit:10;}
	.st234{fill:url(#SVGID_33_);stroke:#2F3F1A;stroke-linecap:round;stroke-linejoin:round;stroke-miterlimit:10;}
	.st235{fill:url(#SVGID_34_);stroke:#2F3F1A;stroke-linecap:round;stroke-linejoin:round;stroke-miterlimit:10;}
	.st236{fill:url(#SVGID_35_);stroke:#2F3F1A;stroke-linecap:round;stroke-linejoin:round;stroke-miterlimit:10;}
	.st237{fill:url(#SVGID_36_);stroke:#2F3F1A;stroke-linecap:round;stroke-linejoin:round;stroke-miterlimit:10;}
	.st238{fill:url(#SVGID_37_);stroke:#2F3F1A;stroke-linecap:round;stroke-linejoin:round;stroke-miterlimit:10;}
	.st239{opacity:0.4;fill:#FFFFFF;}
	.st240{fill:#D68C79;}
	.st241{fill:#E5BAB0;}
	.st242{fill:#9E423B;}
	.st243{fill:url(#SVGID_38_);stroke:#2F3F1A;stroke-width:3;stroke-miterlimit:10;}
	.st244{fill:url(#SVGID_39_);}
	.st245{fill:url(#SVGID_40_);}
	.st246{clip-path:url(#SVGID_42_);fill:#FEFED2;}
	.st247{clip-path:url(#SVGID_42_);fill:#FAFBCD;}
	.st248{clip-path:url(#SVGID_42_);fill:#F6F9C8;}
	.st249{clip-path:url(#SVGID_42_);fill:#F2F7C4;}
	.st250{clip-path:url(#SVGID_42_);fill:#EEF4BF;}
	.st251{clip-path:url(#SVGID_42_);fill:#EAF2BB;}
	.st252{clip-path:url(#SVGID_42_);fill:#E6F0B7;}
	.st253{clip-path:url(#SVGID_42_);fill:#E3EEB3;}
	.st254{clip-path:url(#SVGID_42_);fill:#DFECAF;}
	.st255{clip-path:url(#SVGID_42_);fill:#DCEAAB;}
	.st256{clip-path:url(#SVGID_42_);fill:#D9E8A7;}
	.st257{clip-path:url(#SVGID_42_);fill:#D6E6A4;}
	.st258{clip-path:url(#SVGID_42_);fill:#D3E4A0;}
	.st259{clip-path:url(#SVGID_42_);fill:#D0E39D;}
	.st260{clip-path:url(#SVGID_42_);fill:#CDE19A;}
	.st261{clip-path:url(#SVGID_42_);fill:#CBE097;}
	.st262{clip-path:url(#SVGID_42_);fill:#C8DE94;}
	.st263{clip-path:url(#SVGID_42_);fill:#C5DD91;}
	.st264{clip-path:url(#SVGID_42_);fill:#C3DB8E;}
	.st265{clip-path:url(#SVGID_42_);fill:#C1DA8B;}
	.st266{clip-path:url(#SVGID_42_);fill:#BFD889;}
	.st267{clip-path:url(#SVGID_42_);fill:#BCD786;}
	.st268{clip-path:url(#SVGID_42_);fill:#BAD684;}
	.st269{clip-path:url(#SVGID_42_);fill:#B8D582;}
	.st270{clip-path:url(#SVGID_42_);fill:#B6D47F;}
	.st271{clip-path:url(#SVGID_42_);fill:#B5D37D;}
	.st272{clip-path:url(#SVGID_42_);fill:#B3D27B;}
	.st273{clip-path:url(#SVGID_42_);fill:#B1D179;}
	.st274{clip-path:url(#SVGID_42_);fill:#AFD077;}
	.st275{clip-path:url(#SVGID_42_);fill:#AECF76;}
	.st276{clip-path:url(#SVGID_42_);fill:#ACCE74;}
	.st277{clip-path:url(#SVGID_42_);fill:#ABCD72;}
	.st278{clip-path:url(#SVGID_42_);fill:#AACC71;}
	.st279{clip-path:url(#SVGID_42_);fill:#A8CB6F;}
	.st280{clip-path:url(#SVGID_42_);fill:#A7CB6E;}
	.st281{clip-path:url(#SVGID_42_);fill:#A6CA6C;}
	.st282{clip-path:url(#SVGID_42_);fill:#A5C96B;}
	.st283{clip-path:url(#SVGID_42_);fill:#A3C96A;}
	.st284{clip-path:url(#SVGID_42_);fill:#A2C868;}
	.st285{clip-path:url(#SVGID_42_);fill:#A1C767;}
	.st286{clip-path:url(#SVGID_42_);fill:#A0C766;}
	.st287{clip-path:url(#SVGID_42_);fill:#A0C665;}
	.st288{clip-path:url(#SVGID_42_);fill:#9FC664;}
	.st289{clip-path:url(#SVGID_42_);fill:#9EC563;}
	.st290{clip-path:url(#SVGID_42_);fill:#9DC562;}
	.st291{clip-path:url(#SVGID_42_);fill:#9CC461;}
	.st292{clip-path:url(#SVGID_42_);fill:#9BC460;}
	.st293{clip-path:url(#SVGID_42_);fill:#9BC35F;}
	.st294{clip-path:url(#SVGID_42_);fill:#9AC35F;}
	.st295{clip-path:url(#SVGID_42_);fill:#99C35E;}
	.st296{clip-path:url(#SVGID_42_);fill:#99C25D;}
	.st297{clip-path:url(#SVGID_42_);fill:#98C25D;}
	.st298{clip-path:url(#SVGID_42_);fill:#98C25C;}
	.st299{clip-path:url(#SVGID_42_);fill:#97C15B;}
	.st300{clip-path:url(#SVGID_42_);fill:#96C15A;}
	.st301{clip-path:url(#SVGID_42_);fill:#96C05A;}
	.st302{clip-path:url(#SVGID_42_);fill:#95C059;}
	.st303{clip-path:url(#SVGID_42_);fill:#95C058;}
	.st304{clip-path:url(#SVGID_42_);fill:#94C058;}
	.st305{clip-path:url(#SVGID_42_);fill:#94BF58;}
	.st306{clip-path:url(#SVGID_42_);fill:#94BF57;}
	.st307{clip-path:url(#SVGID_42_);fill:#93BF57;}
	.st308{clip-path:url(#SVGID_42_);fill:#93BF56;}
	.st309{clip-path:url(#SVGID_42_);fill:#93BE56;}
	.st310{clip-path:url(#SVGID_42_);fill:#92BE56;}
	.st311{clip-path:url(#SVGID_42_);fill:#92BE55;}
	.st312{clip-path:url(#SVGID_42_);fill:#91BE55;}
	.st313{clip-path:url(#SVGID_42_);fill:#91BE54;}
	.st314{clip-path:url(#SVGID_42_);fill:#91BD54;}
	.st315{clip-path:url(#SVGID_42_);fill:#90BD54;}
	.st316{clip-path:url(#SVGID_42_);fill:#90BD53;}
</style>
<path class="st2" d="M26.8,57.6c0.4,0.2,2.6,1,5.5,1c1.8,0,3.5-0.3,5-1c2.9-1.7,4.8-5,4.8-8.3c0-2.4-1.2-4.6-3.8-7.7l0,0l0,0
	c-3.5-4.2-3.8-8.6-3.8-9.2l0-0.1c-0.2-1.5-0.3-3.6-0.3-6.3c0-0.3,0-0.6,0.1-0.8l4.3-17.5l-1.7-0.4c-1.5-0.4-2.5-1.7-2.5-3.2
	c0-0.9,0-1.5,0.1-1.9h-4.6l0,0.6c0,1.5-0.9,2.8-2.4,3.2l-1.6,0.4l4.2,15.7c0.1,0.3,0.1,0.6,0.1,0.9c0,4.2-0.1,7.4-0.4,9.3l0,0.1
	c0,0.6-0.3,5-3.8,9.2l0,0l0,0c-2.7,3-3.9,5.3-3.9,7.7C22,52.7,23.8,55.9,26.8,57.6z"/>
<path class="st3" d="M30,23.1c0,4.2-0.1,7.4-0.4,9.3l0,0.1c0,0.6-0.3,5-3.8,9.2l0,0l0,0c-0.2,0.3-0.5,0.5-0.7,0.8h13.7
	c-0.2-0.3-0.4-0.5-0.7-0.8l0,0l0,0c-3.5-4.2-3.8-8.6-3.8-9.2l0-0.1c-0.2-1.5-0.3-3.6-0.3-6.3c0-0.3,0-0.6,0.1-0.8l4.3-17.5l-1.7-0.4
	c-1.5-0.4-2.5-1.7-2.5-3.2c0-0.9,0-1.5,0.1-1.9h-4.6l0,0.6c0,1.5-0.9,2.8-2.4,3.2l-1.6,0.4l4.2,15.7C30,22.5,30,22.8,30,23.1z"/>
<path class="st4" d="M21.9,49.5c0,3.3,1.9,6.5,4.8,8.2c0.4,0.2,2.6,1,5.5,1c1.8,0,3.5-0.3,5-1c2.9-1.7,4.8-4.9,4.8-8.2H21.9z"/>
<g>
	<g>
		<rect x="21.5" y="49.5" class="st6" width="21" height="1"/>
	</g>
	<g>
		<rect x="21.5" y="50.5" class="st7" width="21" height="1"/>
	</g>
	<g>
		<rect x="21.5" y="48.5" class="st8" width="21" height="1"/>
	</g>
	<g>
		<rect x="24.5" y="41.5" class="st9" width="15" height="1"/>
	</g>
	<g>
		<rect x="24.5" y="40.5" class="st10" width="15" height="1"/>
	</g>
	<g>
		<rect x="24.5" y="42.5" class="st11" width="15" height="1"/>
	</g>
</g>
<g>
	<g>
		<path class="st68" d="M32,63.9c-0.3,0-0.5-0.2-0.5-0.5v-4.2c0-0.3,0.2-0.5,0.5-0.5s0.5,0.2,0.5,0.5v4.2
			C32.5,63.7,32.3,63.9,32,63.9z"/>
	</g>
	<g>
		<path class="st68" d="M28,63.4C28,63.4,28,63.4,28,63.4c-0.3,0-0.5-0.3-0.5-0.6l0.5-4c0-0.3,0.3-0.5,0.6-0.4
			c0.3,0,0.5,0.3,0.4,0.6l-0.5,4C28.5,63.2,28.3,63.4,28,63.4z"/>
	</g>
	<g>
		<path class="st68" d="M36,63.4c-0.2,0-0.5-0.2-0.5-0.4l-0.5-4c0-0.3,0.2-0.5,0.4-0.6c0.3,0,0.5,0.2,0.6,0.4l0.5,4
			C36.5,63.1,36.3,63.3,36,63.4C36,63.4,36,63.4,36,63.4z"/>
	</g>
	<g>
		<path class="st68" d="M34.2,63.7c-0.3,0-0.5-0.2-0.5-0.5l-0.3-4.2c0-0.3,0.2-0.5,0.5-0.5c0.2,0,0.5,0.2,0.5,0.5l0.3,4.2
			C34.7,63.5,34.5,63.7,34.2,63.7C34.2,63.7,34.2,63.7,34.2,63.7z"/>
	</g>
	<g>
		<path class="st68" d="M30,63.7C30,63.7,30,63.7,30,63.7c-0.3,0-0.5-0.3-0.5-0.5l0.2-4.2c0-0.3,0.3-0.5,0.5-0.5
			c0.3,0,0.5,0.3,0.5,0.5l-0.2,4.2C30.5,63.5,30.3,63.7,30,63.7z"/>
	</g>
	<g>
		<path class="st68" d="M26.1,62.7C26,62.7,26,62.7,26.1,62.7c-0.4-0.1-0.5-0.3-0.5-0.6l0.6-3.4c0.1-0.3,0.3-0.5,0.6-0.4
			c0.3,0.1,0.5,0.3,0.4,0.6l-0.6,3.4C26.5,62.5,26.3,62.7,26.1,62.7z"/>
	</g>
	<g>
		<path class="st68" d="M38,62.6c-0.2,0-0.4-0.2-0.5-0.4l-0.6-3.4c-0.1-0.3,0.1-0.5,0.4-0.6c0.3-0.1,0.5,0.1,0.6,0.4l0.6,3.4
			C38.5,62.3,38.4,62.6,38,62.6C38.1,62.6,38,62.6,38,62.6z"/>
	</g>
</g>
<g>
	<path class="st5" d="M36,25.8l4.5-18.2c0.2-0.7-0.2-1.3-0.9-1.5l-2.4-0.6c-0.6-0.1-1-0.7-0.9-1.2c0-1.5,0.1-2.5,0.1-2.5l0-0.3
		c0-0.7-0.5-1.3-1.2-1.3h-6.2c-0.7,0-1.3,0.6-1.2,1.3l0,0.3c0,0,0,0.4,0,1.1c0,0.6-0.4,1.1-0.9,1.2l-2.4,0.6c-0.7,0.2-1,0.9-0.9,1.5
		L28,22.8c0.4,5.2-0.3,9.6-0.3,9.6c0,0-0.1,4.1-3.4,8c-3.1,3.4-4.4,6.1-4.4,9c0,4,2.3,7.9,5.8,10c0,0,6.3,3.5,12.4,0
		c3.6-2.1,5.8-6,5.8-10c0-2.9-1.3-5.6-4.4-9c-3.2-3.8-3.5-8-3.5-8.1C36.2,32.3,35.8,29,36,25.8z M32,3.3c0.7,0,1.2,0.6,1.2,1.3
		c0,0.6,0,1.2-0.1,1.9l0,0.3l-0.7,3.7c0,0.2-0.4,0.2-0.4,0L30.8,6l0-1c0-0.2,0-0.3,0-0.5C30.8,3.8,31.3,3.3,32,3.3L32,3.3z
		 M28.1,6.9l0.6-0.2C29.4,6.6,30,7,30.2,7.7l1.6,6l0,0l-1.2,5.8c0,0.2-0.4,0.2-0.4,0l-2.9-11C27.1,7.8,27.5,7.1,28.1,6.9z
		 M31.1,22.4l2.7-13.3c0.1-0.7,0.8-1.1,1.5-1L36,8.3c0.7,0.2,1.1,0.8,0.9,1.5L33,25.6l0.3,6.9c0,0.7,0.4,5.4,4.1,9.8l0,0
		c2.5,2.8,3.6,4.9,3.6,7c0,3.2-2,6-4.1,7.3c-4.4,2.7-9.8,0-9.8,0C25,55.3,23,52.6,23,49.4c0-2.1,1.1-4.2,3.6-7
		c3.7-4.4,4.1-9.1,4.1-9.8L31.1,22.4z"/>
</g>
</svg>
