<svg xmlns="http://www.w3.org/2000/svg" viewBox="0 0 48 48" width="48" height="48"><polygon fill="#546e7a" points="19.78,10 21.181,16 26.819,16 28.22,10"/><polygon fill="#90a4ae" points="21,15 21,41.674 27,41.108 27,15"/><rect width="10" height="2" x="19" y="9" fill="#78909c"/><path fill="#42a5f5" d="M9,14c-0.551,0-1-0.449-1-1s0.449-1,1-1s1,0.449,1,1S9.551,14,9,14z"/><path fill="#42a5f5" d="M9,18c-0.551,0-1-0.449-1-1s0.449-1,1-1s1,0.449,1,1S9.551,18,9,18z"/><path fill="#42a5f5" d="M9,10c-0.551,0-1-0.449-1-1s0.449-1,1-1s1,0.449,1,1S9.551,10,9,10z"/><path fill="#42a5f5" d="M9,6C8.449,6,8,5.551,8,5s0.449-1,1-1s1,0.449,1,1S9.551,6,9,6z"/><path fill="#42a5f5" d="M13,14c-0.551,0-1-0.449-1-1s0.449-1,1-1s1,0.449,1,1S13.551,14,13,14z"/><path fill="#42a5f5" d="M13,18c-0.551,0-1-0.449-1-1s0.449-1,1-1s1,0.449,1,1S13.551,18,13,18z"/><path fill="#42a5f5" d="M13,10c-0.551,0-1-0.449-1-1s0.449-1,1-1s1,0.449,1,1S13.551,10,13,10z"/><path fill="#42a5f5" d="M17,14c-0.551,0-1-0.449-1-1s0.449-1,1-1s1,0.449,1,1S17.551,14,17,14z"/><path fill="#42a5f5" d="M9,22c-0.551,0-1-0.449-1-1s0.449-1,1-1s1,0.449,1,1S9.551,22,9,22z"/><path fill="#42a5f5" d="M38,13c0-0.551,0.449-1,1-1s1,0.449,1,1s-0.449,1-1,1S38,13.551,38,13z"/><path fill="#42a5f5" d="M38,17c0-0.551,0.449-1,1-1s1,0.449,1,1s-0.449,1-1,1S38,17.551,38,17z"/><path fill="#42a5f5" d="M38,9c0-0.551,0.449-1,1-1s1,0.449,1,1s-0.449,1-1,1S38,9.551,38,9z"/><path fill="#42a5f5" d="M38,5c0-0.551,0.449-1,1-1s1,0.449,1,1s-0.449,1-1,1S38,5.551,38,5z"/><path fill="#42a5f5" d="M34,13c0-0.551,0.449-1,1-1s1,0.449,1,1s-0.449,1-1,1S34,13.551,34,13z"/><path fill="#42a5f5" d="M34,17c0-0.551,0.449-1,1-1s1,0.449,1,1s-0.449,1-1,1S34,17.551,34,17z"/><path fill="#42a5f5" d="M34,9c0-0.551,0.449-1,1-1s1,0.449,1,1s-0.449,1-1,1S34,9.551,34,9z"/><path fill="#42a5f5" d="M30,13c0-0.551,0.449-1,1-1s1,0.449,1,1s-0.449,1-1,1S30,13.551,30,13z"/><path fill="#42a5f5" d="M38,21c0-0.551,0.449-1,1-1s1,0.449,1,1s-0.449,1-1,1S38,21.551,38,21z"/><path fill="#388e3c" d="M23.859,44c0-9.376,4.958-17.143,6.141-18.761c-0.581,1.532-2.048,4.392-2.048,18.761H23.859z"/><path fill="#4caf50" d="M20.437,32.952C20.676,33.748,21.841,39.193,22,40c1.638,2.673,0.997,1.129,1,4h2.333	c-0.161-1.963-0.495-3.972-0.991-5.909c-0.501-1.942-1.182-3.847-2.073-5.67c-0.887-1.823-1.983-3.564-3.293-5.165	c-1.315-1.592-2.817-3.085-4.621-4.239c1.585,1.359,2.789,2.988,3.792,4.664C19.142,29.369,19.893,31.144,20.437,32.952z"/><path fill="#388e3c" d="M25.793,44c0-7.57,7.072-16.249,9.029-17.66c-1.086,1.294-4.825,6.761-4.825,17.66H25.793z"/><path fill="#8bc34a" d="M29.018,44c0-7.531,7.237-13.622,8.386-14.373c-0.922,0.949-4.492,6.088-4.492,14.373H29.018z"/><path fill="#8bc34a" d="M16,44c0-8.304-4.005-13.449-5-14.373c1.212,0.718,9,7.052,9,14.373H16z"/><path fill="#8bc34a" d="M31.249,44C33,39,37.687,37.45,39,37c-2,2-3,4-3,7H31.249z"/><path fill="#8bc34a" d="M14.249,44c-0.249-3-2.249-7-4-9c2.751,1,6,4,7.751,9H14.249z"/><path fill="#388e3c" d="M19.16,44c0-9.389-2.633-14.288-3.515-15.464C16.784,29.543,24,37.381,24,44H19.16z"/></svg>