<svg xmlns="http://www.w3.org/2000/svg" viewBox="0 0 48 48" width="48" height="48"><path fill="#8BC34A" d="M30.8,18.2c-2.4,0.7-3.6,3.4-2.1,5.4c-0.9,0.5-2.1,1.6-3.2,3.3c-0.1-4.4,0.3-8.7,1.3-11.8c1.4,1.4,3.1,1.2,4.6-0.1c2.7-2.4,0.3-8.1,1.5-9.9c-1.4,0-6.9,0.5-9.2,3.3c-1.5,1.9-0.9,4.6,1.6,5.1c-1.4,3.4-1.9,8.3-1.9,13.1c-0.8-1.2-1.9-2.4-3.3-3.3c2.8-2.2,2-5.7-0.9-7.2C14.9,13.7,7.8,16.3,6,17c2.6,1.6,2.4,10,7.2,11.6c3.1,1,5.5,0,6.1-3.7c4,2.9,4.7,8.1,4.8,8.2c0.1,0.5,0.5,0.9,1,0.9c0,0,0.1,0,0.1,0c0.5-0.1,0.9-0.5,0.9-1l0,0c0-3.9,1.8-6.1,3.1-7.1c0.1,2.5,1.8,3.5,4.2,3.3c3.9-0.5,5.4-7.1,7.7-8C39.8,20.2,34.6,17.2,30.8,18.2z"/><path fill="#689F38" d="M13.2,28.6C8.4,27,8.6,18.6,6,17c0,0,0,0,0,0c2.3,0.2,5.8,2.1,13.4,6.8c0,0,0,0,0,0C19.1,28.4,16.6,29.7,13.2,28.6z M33.3,29c3.9-0.5,5.4-7.1,7.7-8c0,0,0,0,0,0c-1.8-0.2-5.2,0.7-11.8,3.1c0,0,0,0,0,0C28.6,27.8,30.5,29.3,33.3,29z M31.5,14.9c3.1-3,0.3-8.1,1.5-9.9c0,0,0,0,0,0c-1.5,0.8-3.6,3.2-7.2,8.5c0,0,0,0,0,0C27.3,16.5,29.5,16.6,31.5,14.9z"/><path fill="#795548" d="M9,42h9.7h12.6h4.1h5.2c0.8-0.7,1.4-1.8,1.4-3c0-2.2-1.8-4-4-4c-0.4,0-0.8,0.1-1.2,0.2c-0.6-1.9-2.3-3.2-4.3-3.2c-1.3,0-2.5,0.6-3.3,1.4C28.1,32.5,26.6,32,25,32c-2.1,0-4,0.9-5.3,2.4C19.2,34.2,18.6,34,18,34c-1.1,0-2,0.4-2.7,1.1C14.7,34.4,13.9,34,13,34c-1.4,0-2.5,0.9-2.9,2.2C9.8,36.1,9.4,36,9,36c-1.7,0-3,1.3-3,3S7.3,42,9,42z"/><path fill="#8D6E63" d="M38,40C38,40,38,40,38,40c0-1.7-1.3-3-3-3c-1.5,0-2.7,1.1-2.9,2.4C31.3,38.6,30.2,38,29,38c-1.3,0-2.5,0.7-3.2,1.7c-0.5-1.6-2-2.7-3.8-2.7c-1.1,0-2,0.4-2.7,1.1C18.7,37.4,17.9,37,17,37c-1.4,0-2.5,0.9-2.9,2.2C13.8,39.1,13.4,39,13,39c-1.9,0-3.4,1.3-3.9,3h26h2.1H40C39.8,41,39,40.2,38,40z"/></svg>