<?xml version="1.0" encoding="utf-8"?>
<!-- Generator: Adobe Illustrator 20.0.0, SVG Export Plug-In . SVG Version: 6.00 Build 0)  -->
<svg version="1.1" id="Layer_1" xmlns="http://www.w3.org/2000/svg" xmlns:xlink="http://www.w3.org/1999/xlink" x="0px" y="0px"
	 viewBox="0 0 250 250" style="enable-background:new 0 0 250 250;" xml:space="preserve">
<style type="text/css">
	.st0{fill:#BFCC5C;}
	.st1{fill:#FFE200;}
	.st2{fill:#DDAA00;}
	.st3{fill:#FFF2B3;}
	.st4{fill:#406A29;}
	.st5{fill:#00FFFF;}
	.st6{clip-path:url(#SVGID_2_);}
	.st7{fill:none;stroke:#CC9600;stroke-width:6;stroke-linecap:round;stroke-miterlimit:10;}
	.st8{fill:none;stroke:#FFF2B3;stroke-linecap:round;stroke-miterlimit:10;}
	.st9{fill:none;stroke:#DDAA00;stroke-linecap:round;stroke-miterlimit:10;}
	.st10{fill:#FFE966;}
	.st11{fill:#FFE200;stroke:#DDAA00;stroke-width:3;stroke-linecap:round;stroke-miterlimit:10;}
	.st12{fill:#BFCC5C;stroke:#406A29;stroke-linecap:round;stroke-miterlimit:10;}
	.st13{fill:none;stroke:#A9B236;stroke-linecap:round;stroke-miterlimit:10;}
	.st14{fill:none;stroke:#406A29;stroke-linecap:round;stroke-miterlimit:10;}
	.st15{fill:#CC9600;}
	.st16{fill:#A9B236;}
</style>
<path class="st0" d="M120.2,243.8c-6.5,0-11.8-5.3-11.8-11.8v0l-7.6-3.1c-3.4,0.9-8,1.8-13.3,1.8c-6.2,0-12.2-1.2-17.9-3.5
	c-10-4.1-15.6-11.2-18.6-16.4c-0.2-0.4-5.6-9.9-3.8-14.3c1.7-4.1,12.7-9,23.2-9c4.9,0,9.7,1,14.3,2.8c12.3,5,19.5,14.2,23.2,20.3
	l0.5,0.2l0-10.1c-14.2-8.9-43.2-30.3-66-68.4c-0.4,0-0.8,0-1.1,0c-3.6,0-7.2-0.9-10.4-2.6c-4.7-2.5-8.6-6.3-11.3-11.1
	c-4.2-7.4-2.8-10.1-2.3-11.1c1.9-3.6,8.3-4.3,11.6-4.5c0.1-1.3,0.3-2.5,0.5-3.5c1.2-5.9,2.8-7.1,4.4-7.8l1.2-0.6l1.4,0
	c1.7,0,5.5,1.2,9.4,3.9c3.2-3.7,7.1-6.4,9.7-6.4h0.6l0.6,0.1c1.1,0.2,4.1,0.8,7.1,8.7c2,5.1,2.5,10.6,1.5,15.8
	c-0.9,4.4-2.8,7.8-5,10.2c15.8,25.8,35.4,43.3,48.3,53.1l0.3-113.9c0-6.5,5.3-11.8,11.8-11.8c3.2,0,6.1,1.2,8.4,3.5
	c2.2,2.2,3.4,5.2,3.4,8.4l-0.3,113.7c14.6-11,35-29.8,51-58c1.7-3.1,5-5,8.5-5c1.7,0,3.4,0.4,4.9,1.3c2.3,1.3,3.9,3.4,4.6,5.9
	c0.7,2.5,0.4,5.2-0.9,7.5c-23,40.4-53.5,63.1-68.1,72.3l0,3.5l3.5-1.4c3.4-5.4,9.9-13.5,20.9-17.9c4.2-1.7,8.7-2.6,13.2-2.6
	c8.9,0,19.8,4.3,21.6,8.5c1.7,4.2-2.9,12.5-3.4,13.5c-2.7,4.8-7.9,11.3-17.2,15.1c-5.2,2.1-10.7,3.2-16.4,3.2
	c-4.5,0-8.5-0.7-11.5-1.4l-10.7,4.3l0,6.8C132,238.6,126.7,243.8,120.2,243.8L120.2,243.8z"/>
<path class="st1" d="M34.5,109.8l-7.1,0.9c-0.8-1.2-1.6-2.6-2.3-4.1c-5.5-11.5-1.7-28.1,1.7-29.7c3.4-1.6,18.7,5.9,24.2,17.4
	c0.8,1.6,1.3,3.1,1.8,4.6c-1.8,1.7-3.4,3.6-4.8,5.7l-8.5-6.7l-4.3,2L34.5,109.8z"/>
<path class="st2" d="M34.9,110.6c-1.7-1.6-3.2-3.8-4.5-6.5c-2.8-5.8-2.5-13.3-1.5-18.2c0.3-1.6,2.1-2.5,3.6-1.7
	c4.4,2.3,10.4,6.8,13.2,12.6c1.2,2.6,2,5.1,2.2,7.4c2.5-3.8,5.8-7,9.7-9.4c-0.4-1-0.8-2-1.3-3c-3.9-8.2-11.1-13.6-15-16.1
	c-4.1-2.6-11.8-6.6-17-4.1c-8,3.8-10.6,24.9-4.5,37.6c0.5,1.1,1,2,1.6,3L34.9,110.6z"/>
<path class="st3" d="M43.1,99.1c-0.3-1.1-0.8-2.4-1.4-3.6c-1-2.1-2.5-4.3-4.3-6.3c-0.7-0.8-2-0.9-2.8-0.1c-0.8,0.7-0.9,2-0.1,2.8
	c1.5,1.6,2.8,3.5,3.7,5.3L43.1,99.1z"/>
<path class="st3" d="M33.8,103.5c-0.6-0.9-1.3-2-1.9-3.3c-0.8-1.6-1.4-3.5-1.8-5.5c-0.2-1.1,0.4-2.1,1.5-2.3
	c1.1-0.2,2.1,0.4,2.3,1.5c0.4,1.7,0.9,3.3,1.5,4.6L33.8,103.5z"/>
<g>
	<path class="st4" d="M169.8,148.3c-1.4-4.1-1.5-9-0.1-14.3c-1.2,0-2.4-0.1-3.5-0.3c-7.1,9.6-14.5,17.7-21.5,24.4
		c-2.5,2.4-6.6,0.6-6.6-2.8l0.2-57.5c-0.1,0-0.1-0.1-0.2-0.1c-0.2,0.9-0.3,1.7-0.5,2.6c-1.9,8.5-5.6,14.6-11.2,18.2l-0.2,62.3
		c0,3,3.4,4.8,5.9,3C142.1,176.7,156.2,165,169.8,148.3z"/>
	<path class="st4" d="M52,125.3c-0.8,0-1.5-0.4-1.8-1.2c-0.4-1,0.1-2.1,1-2.6c2.1-1.2,5.9-3.8,7.4-9.1c1.5-5.4,0.4-10.2-0.7-13.1
		c-0.3-0.8-1.3-1.1-2-0.6c-1.4,1.1-3.2,2.7-4.7,4.9c-0.5,0.7-0.5,1.6-0.1,2.4c0.4,0.6,0.7,1.2,1,1.9c1.3,2.7,1.9,5.6,1.8,8.6
		c0,1.1-0.9,1.9-2,1.9c0,0,0,0-0.1,0c-1.1,0-1.9-0.9-1.9-2c0.1-2.4-0.4-4.7-1.5-6.8c-2.5-5.2-6.7-8-9.5-9.4
		c-0.7-0.3-1.5,0.1-1.7,0.8c-0.7,3-1.1,8.1,1.4,13.3c0.5,1.1,0,2.4-1.2,2.7c-1,0.3-2-0.3-2.4-1.2c-0.3-0.6-0.5-1.2-0.7-1.7
		c-0.3-0.8-1-1.4-1.9-1.4c-2.7-0.2-5.1,0.2-6.9,0.7c-0.9,0.2-1.2,1.2-0.8,2c1.6,2.7,4.6,6.6,9.8,8.8c4.4,1.8,8.3,1.2,10.8,0.2
		c0.9-0.3,2,0,2.5,0.8c0.4,0.8,0.3,1.6-0.2,2.3c-0.4,0.5-0.4,1.2-0.1,1.7c21.3,35.6,48.5,56.4,62.1,65.3c3,1.9,4.8,5.3,4.8,8.8
		c0,3.6,0,8.3,0,11.7c0,2.2-2.3,3.7-4.3,2.9l-2.7-1.1c-2.1-0.8-3.9-2.3-5.1-4.2c-3.6-5.6-9.8-12.7-19.7-16.7
		c-4.3-1.8-8.4-2.4-12-2.4c-10.3,0-17.6,5.1-17.7,5.4c-0.1,0.4,2.9,16.4,19.1,23c5.5,2.2,10.8,3,15.6,3c3.9,0,7.5-0.5,10.4-1.2
		c2.2-0.5,4.5-0.3,6.6,0.5l6,2.4c2.3,0.9,3.8,3.1,3.7,5.6l0,0c0,3.2,2.6,5.9,5.9,5.9h0c3.3,0,5.9-2.6,5.9-5.9l0-6.7
		c0-2.4,1.5-4.6,3.7-5.5l8.9-3.6c2.2-0.9,4.6-1.1,6.9-0.6c2.5,0.5,5.4,0.9,8.5,0.9c4.3,0,9.2-0.7,14.2-2.8
		c14.7-6,17.5-20.6,17.4-20.9c-0.1-0.2-6.7-4.9-16.1-4.9c-3.4,0-7.1,0.6-10.9,2.2c-8.4,3.5-13.9,9.4-17.3,14.3
		c-1.3,2-3.2,3.5-5.5,4.4l-5.5,2.2c-2.1,0.8-4.3-0.7-4.3-2.9l0-5.1c0-3.5,1.8-6.8,4.8-8.8c9.8-6.4,26.6-19,43.2-38.8
		c2.5,2.6,5.8,4.5,9.9,5.7c0.2,0.1,0.4,0.1,0.6,0.2c-3.6,4.5-7.3,8.6-10.9,12.4c-0.9,0.9-0.4,2.5,0.9,2.7c3.8,0.5,7.5,1.5,11.1,2.9
		c8.8,3.7,10.2,7.1,11,8.9c1.4,3.5,0.9,6.8-0.2,10.6c-0.6,1.9-1.7,4.8-3.5,8.1c-4.6,8.1-11.5,14.2-20.1,17.7
		c-5.9,2.4-12.2,3.6-18.7,3.6c-3.5,0-6.6-0.4-9.3-0.8c-1.1-0.2-2.2-0.1-3.2,0.3l-1.1,0.4c-1.6,0.6-2.6,2.2-2.6,3.9v0
		c0,9.7-7.9,17.7-17.7,17.7h-0.1l0,0c-7.8,0-14.4-5.1-16.7-12c-0.3-1-1.1-1.8-2.1-2.2c-0.7-0.3-1.4-0.3-2.1-0.2
		c-3.3,0.7-7.3,1.2-11.8,1.2c-7,0-13.8-1.3-20.1-3.9c-9.1-3.7-16.6-10.3-21.5-18.9c-2-3.5-3.2-6.6-3.8-8.6c-1.3-4-1.8-7.3-0.3-10.8
		c0.7-1.7,2.2-5.4,11.4-9.2c3.8-1.6,9.9-3.5,17.3-3.5c0,0,0,0,0,0c1.5,0,2.2-1.7,1.2-2.8c-9.6-9.5-19.8-21.2-29.1-35.4
		c-2-3-5-5.2-8.5-6.1c-2-0.5-3.9-1.3-5.8-2.3c-5.7-3-10.4-7.6-13.7-13.4c-1.1-1.8-2-3.8-2.6-5.7c-0.7-2.1-2.2-6.3,0.2-11
		c1.3-2.4,3.1-3.9,4.8-4.9c0.5,3.3,1.4,6.5,2.8,9.2c0.1,0.1,0.1,0.2,0.2,0.4c0.4,0.8,1.4,1.1,2.2,0.8c2.1-0.9,5.5-1.7,9.3-1.6
		c0.8,0,1.5-0.7,1.5-1.5c-0.1-1.7,0-3.3,0.1-4.6c0-0.3,0.8-6.3,2.6-7.2c0.8-0.4,1.5-0.2,2.5,0.2c1.4,0.5,4.9,2,8.4,5
		c0.6,0.6,1.6,0.5,2.1-0.2c1.1-1.4,2.2-2.5,3.2-3.4c0.1-0.1,2.1-1.8,3.9-2.9c0.8-0.4,1.1-1.4,0.7-2.2c0-0.1-0.1-0.2-0.1-0.2
		c-1.4-3-3.4-5.7-5.4-8c1.8-0.7,3.2-0.9,4.6-0.9h0l1,0l1,0.2l0.1,0l0.1,0c2,0.4,7.3,1.5,11.5,12.4c2.4,6.2,3,12.8,1.7,19.1
		c-0.2,1.2-0.5,2.3-0.9,3.4c-1.4,4.4-0.7,9.1,2,12.9c7.9,11.1,16.3,20.3,24,27.7c2.5,2.3,6.5,0.6,6.6-2.8l0.1-38.3
		c1.7,0.7,3.5,1.3,5.5,1.8c2.2,0.5,4.3,0.7,6.3,0.7l-0.2,61.3c0,3-3.4,4.8-5.9,3c-14-10-36.4-29.1-54.1-58.8
		c-0.2-0.4-0.7-0.5-1.1-0.3C52.9,125.1,52.5,125.3,52,125.3z"/>
</g>
<path class="st15" d="M137.4,101.4c0.6-1.7,2.6-2.5,4.2-1.6l0,0c1.2,0.7,2.4,1.2,3.6,1.7c2,0.8,3.1,3,2.6,5.2
	c-0.5,2-0.7,4.1-0.6,6.4c0.3,11.2,6.8,18.6,17.4,20.5c2.6,0.5,4.5,2.9,4.2,5.5c-1,10.7,4.5,19,15.2,22.2c2.5,0.7,4.9,1.1,7.1,1.1
	c7.6,0,13.8-4,17.7-11.3c1.3-2.4,4.1-3.4,6.5-2.3c9.9,4.2,19.5,1.6,25.8-7.6c6.3-9.2,5.5-19.1-2-26.8c-1.9-1.9-1.9-4.9-0.2-7
	c7.2-8.1,7.6-18.1,0.8-27l0,0c-6.8-8.9-16.5-11.1-26.2-6.3c-2.4,1.2-5.3,0.3-6.7-2c-2.4-4-5.5-6.9-9.2-8.6
	c-4.8-2.3-10.3-2.3-16.1-0.3c-1.2,0.4-2.4,0.9-3.4,1.5c-1.8,0.9-4,0.5-5.4-1c-1.9-2-4.3-3.9-7.1-5.7l0,0c-1.5-1-1.7-3.2-0.2-4.4
	l0.3-0.3c5.8-5.6,8.9-11.5,9.2-17.8c0.3-5.9-2-11.6-6.6-16.8c-4.7-5.3-10-8.1-16-8.6c-6.2-0.4-12.4,1.9-18.5,6.9l-0.3,0.2
	c-1.7,1.2-4,0.7-5-1.2v0c-3.5-7.2-8.2-11.9-14-14.1c-5.5-2.1-11.6-1.7-18.1,1.1c-6.4,2.8-10.8,7-13.1,12.5c-2.3,5.7-2,12.4,0.9,19.8
	l0,0c0.7,2-0.6,4.2-2.7,4.5l-0.2,0C73.8,41,68,43.9,64.2,48.7c-3.7,4.6-5.2,10.5-4.5,17.5C61,80.7,70.9,88.6,86.2,87.9l1-0.1
	c1.8-0.1,3.3,1.5,2.9,3.3v0c-3,15.6,3.8,26.7,18.2,29.9c2.2,0.5,4.4,0.7,6.4,0.7c4.3,0,8.1-1.1,11.5-3.2c5.3-3.3,9-8.9,11-16.7
	L137.4,101.4z"/>
<path class="st1" d="M227.6,119.8c-4.7-3.3-11.8-6.6-17.8-8.3c5.9-2,12.9-5.7,17.5-9.2c7.5-5.7,6.6-10.5,3.3-14.8
	c-3.3-4.3-7.6-6.4-15.1-0.7c-4.6,3.5-9.9,9.2-13.4,14.4c-0.1-6.2-1.5-13.9-3.3-19.2c-3.1-8.9-8-9.5-13-7.7
	c-5.1,1.8-8.5,5.3-5.3,14.2c1.9,5.4,5.6,12.2,9.4,17.1c-5.9-1.8-13.6-2.9-19.3-2.8c-9.4,0.2-11.5,4.6-11.4,10
	c0.1,5.4,2.4,9.7,11.8,9.5c5.7-0.1,13.3-1.6,19.2-3.7c-3.6,5.1-7,12.1-8.6,17.5c-2.7,9,0.9,12.4,6,13.9c5.2,1.5,10,0.7,12.6-8.3
	c1.6-5.4,2.6-13.1,2.4-19.4c3.7,5,9.3,10.3,14,13.6c7.7,5.3,12,3,15.1-1.4C234.6,130,235.3,125.2,227.6,119.8z"/>
<path class="st3" d="M187.5,109.8l-22.3,0.8c-1.1,0-1.9,0.9-1.9,2c0,1.1,0.9,1.9,2,1.9c0,0,0,0,0.1,0l22.4-0.8
	C187.3,112.5,187.2,111.1,187.5,109.8z"/>
<path class="st3" d="M198,103.5l-9.2-24.2c-0.4-1-1.5-1.5-2.5-1.1c-1,0.4-1.5,1.5-1.1,2.5l9,23.9L198,103.5z"/>
<path class="st3" d="M227.2,90c-0.6-0.9-1.9-1.1-2.8-0.4L206,103.3c1.3,0.5,2.3,1.6,2.8,2.8l17.9-13.3
	C227.7,92.1,227.9,90.9,227.2,90z"/>
<ellipse transform="matrix(0.9981 -6.163441e-02 6.163441e-02 0.9981 -6.3298 11.0703)" class="st2" cx="176.3" cy="108.1" rx="2" ry="2"/>
<ellipse transform="matrix(0.9981 -6.163441e-02 6.163441e-02 0.9981 -6.8573 11.2714)" class="st2" cx="179.3" cy="116.8" rx="2" ry="2"/>
<ellipse transform="matrix(0.7925 -0.6099 0.6099 0.7925 -16.816 154.3595)" class="st2" cx="218.4" cy="101.9" rx="2" ry="2"/>
<ellipse transform="matrix(0.7925 -0.6099 0.6099 0.7925 -14.21 150.1064)" class="st2" cx="213.5" cy="95.9" rx="2" ry="2"/>
<ellipse transform="matrix(0.9852 -0.1711 0.1711 0.9852 -14.3874 32.8711)" class="st2" cx="183.5" cy="99.9" rx="2" ry="2"/>
<ellipse transform="matrix(0.9852 -0.1711 0.1711 0.9852 -12.6992 33.8232)" class="st2" cx="189.8" cy="90.6" rx="2" ry="2"/>
<ellipse transform="matrix(0.9852 -0.1711 0.1711 0.9852 -12.7512 36.303)" class="st2" cx="204.2" cy="92.1" rx="2" ry="2"/>
<ellipse transform="matrix(0.258 -0.9661 0.9661 0.258 34.8731 298.9888)" class="st2" cx="212.1" cy="126.8" rx="2" ry="2"/>
<ellipse transform="matrix(0.258 -0.9661 0.9661 0.258 46.206 301.8266)" class="st2" cx="219.6" cy="120.8" rx="2" ry="2"/>
<path class="st2" d="M184.3,112.7l-0.7,0.2c-1,0.3-1.6,1.3-1.4,2.3c0.2,1,1,1.6,1.9,1.6c0.2,0,0.4,0,0.6-0.1l9.5-3l-8.6,6.3
	c-0.8,0.6-1.1,1.6-0.7,2.5c0.4,0.7,1.1,1.1,1.8,1.1c0.4,0,0.8-0.1,1.2-0.4l4.6-3.4c0.8-0.6,1.9,0.2,1.7,1.1l-1.5,6
	c-0.3,1,0.2,2.1,1.2,2.4c0.2,0.1,0.5,0.1,0.7,0.1c0.9,0,1.7-0.6,1.9-1.5l0.9-3.6c0.3-1.1,1.8-1.1,2.1,0l0.7,2.3
	c0.3,0.9,1,1.4,1.9,1.4c0.2,0,0.4,0,0.6-0.1c1-0.3,1.5-1.5,1.2-2.6l-3.1-10.3l7,8.8c0.4,0.5,1,0.7,1.5,0.7c0.5,0,1-0.2,1.4-0.6
	c0.7-0.7,0.6-1.9,0-2.7l-1.6-1.9c-0.4-0.5,0.1-1.2,0.7-0.9l4.3,2c0.3,0.1,0.5,0.2,0.8,0.2c0.9,0,1.7-0.6,1.9-1.6
	c0.2-0.9-0.3-1.9-1.2-2.2l-11.7-5.3l10.7-5.7c0.9-0.5,1.4-1.6,1-2.5c-0.5-1.1-1.7-1.5-2.8-1l-2.1,1.1c-0.6,0.3-1.1-0.4-0.7-0.9
	l1.3-1.6c0.6-0.8,0.7-1.9,0-2.6c-0.8-0.9-2.2-0.9-3,0l-7.1,8.7l2.8-8.6c0.3-0.9-0.1-2-0.9-2.5c-1.1-0.6-2.4,0-2.8,1.1l-1.3,4.2
	c-0.3,0.9-1.6,1-2,0.1l-3.2-7c-0.4-0.9-1.5-1.5-2.5-1.1c-1.1,0.4-1.6,1.6-1.2,2.7l2.4,5.3c0.4,1-0.6,1.9-1.5,1.4l-2.2-1.3
	c-0.8-0.5-2-0.4-2.6,0.4c-0.8,1-0.5,2.4,0.5,3l6.4,3.8l-11.5-1.2c-1.2-0.1-2.2,0.8-2.2,2.1c0.1,1,0.9,1.7,1.9,1.8l2.9,0.3
	c0,0,0.5,0.1,0.5,0.6C184.9,112.6,184.3,112.7,184.3,112.7z"/>
<ellipse transform="matrix(0.4256 -0.9049 0.9049 0.4256 -1.6418 259.8077)" class="st2" cx="203.8" cy="131.2" rx="2" ry="2"/>
<ellipse transform="matrix(0.4256 -0.9049 0.9049 0.4256 -9.3858 251.2539)" class="st2" cx="193.2" cy="133" rx="2" ry="2"/>
<ellipse transform="matrix(0.4256 -0.9049 0.9049 0.4256 -8.8604 236.3707)" class="st2" cx="181.8" cy="125.2" rx="2" ry="2"/>
<path class="st10" d="M202.5,107c3.4,2,7.2,3.4,11.1,3.5l7.9,0.1c0.8,0,1.4,0.6,1.4,1.4s-0.6,1.4-1.4,1.4l-7.9-0.1
	c-4,0-7.7,1.4-11.2,3.3c-1.1,0.6-2.6,0.9-4,0.5c-1.9-0.5-3.5-2.1-3.9-4.1c-0.7-3.5,2-6.6,5.4-6.6C200.8,106.3,201.7,106.6,202.5,107
	z"/>
<path class="st3" d="M194.5,114.8c-0.9,0-1.7-0.6-1.9-1.6c-0.5-2.2,0.1-4.5,1.5-6.2c1.4-1.7,3.5-2.7,5.8-2.7c1.1,0,2,0.9,1.9,2
	c0,1.1-0.9,1.9-2,1.9c0,0,0,0-0.1,0c-1,0-2,0.5-2.7,1.3c-0.7,0.8-0.9,1.9-0.7,3c0.2,1.1-0.5,2.1-1.5,2.3
	C194.8,114.8,194.6,114.8,194.5,114.8z"/>
<path class="st1" d="M158.9,67.5c-6.2-3.6-15.4-7.2-23.2-8.8c7.3-3.1,15.7-8.4,21.2-13.3c8.9-7.9,7.3-13.9,2.8-19
	c-4.5-5.1-10.3-7.4-19.2,0.5c-5.5,4.9-11.8,12.7-15.7,19.6c-0.7-7.9-3.2-17.6-6.1-24.2c-4.8-10.9-11-11.3-17.2-8.5
	c-6.3,2.7-10.2,7.5-5.4,18.4c2.9,6.6,8.2,14.9,13.5,20.7c-7.7-1.8-17.5-2.4-24.7-1.7c-11.9,1.2-14.1,7-13.4,13.8
	c0.7,6.8,4,12,15.9,10.9c7.2-0.7,16.7-3.2,23.9-6.5c-4.1,6.8-7.7,15.9-9.2,23c-2.6,11.7,2.3,15.6,8.9,17c6.7,1.5,12.7-0.1,15.2-11.7
	c1.5-7.1,2.1-16.9,1.2-24.7c5.2,6,12.8,12.2,19,15.9c10.3,6,15.5,2.7,19-3.2C168.8,79.8,169.2,73.6,158.9,67.5z"/>
<path class="st3" d="M120.2,75.2l-6.4,27.4c-0.2,0.9-1,1.5-1.9,1.5c-0.1,0-0.3,0-0.4-0.1c-1.1-0.2-1.7-1.3-1.5-2.4l6.3-27.1
	L120.2,75.2z"/>
<path class="st3" d="M118.7,47.7L105.4,18c-0.4-1-1.6-1.4-2.6-1c-1,0.4-1.4,1.6-1,2.6l13.3,29.7C115.9,48.4,117.1,47.8,118.7,47.7z"
	/>
<path class="st3" d="M113.6,58.4l-36.5,4.1c-1.1,0.1-1.9,1.1-1.7,2.2c0.1,1,1,1.7,2,1.7c0.1,0,0.1,0,0.2,0l36.3-4
	C113.4,61.1,113.3,59.7,113.6,58.4z"/>
<ellipse transform="matrix(0.1825 -0.9832 0.9832 0.1825 12.8114 189.6505)" class="st2" cx="120.5" cy="87.1" rx="2" ry="2"/>
<ellipse transform="matrix(0.1825 -0.9832 0.9832 0.1825 10.3067 177.1202)" class="st2" cx="111.7" cy="82.4" rx="2" ry="2"/>
<ellipse transform="matrix(0.7293 -0.6842 0.6842 0.7293 10.4761 104.7109)" class="st2" cx="137.6" cy="39.1" rx="2" ry="2"/>
<ellipse transform="matrix(0.7293 -0.6842 0.6842 0.7293 4.3991 110.4977)" class="st2" cx="141.8" cy="49.7" rx="2" ry="2"/>
<ellipse transform="matrix(0.3555 -0.9347 0.9347 0.3555 8.8621 172.5222)" class="st2" cx="129.5" cy="79.8" rx="2" ry="2"/>
<ellipse transform="matrix(0.3555 -0.9347 0.9347 0.3555 22.7831 183.9668)" class="st2" cx="144.8" cy="75.5" rx="2" ry="2"/>
<ellipse transform="matrix(0.3555 -0.9347 0.9347 0.3555 36.209 175.9645)" class="st2" cx="145.7" cy="61.7" rx="2" ry="2"/>
<ellipse transform="matrix(0.9976 -6.945333e-02 6.945333e-02 0.9976 -2.5863 7.5327)" class="st2" cx="107" cy="41" rx="2" ry="2"/>
<ellipse transform="matrix(0.9976 -6.945333e-02 6.945333e-02 0.9976 -2.0511 8.1433)" class="st2" cx="116.1" cy="33.6" rx="2" ry="2"/>
<path class="st2" d="M141.8,70.9l-7.1-5.1c-1.1-0.8-0.5-2.5,0.8-2.5l5.6,0.2c0,0,0,0,0.1,0c1.2,0,2.1-1,1.9-2.3c-0.1-1-1-1.6-2-1.7
	l-14.7-0.5c0-0.1,0-0.3-0.1-0.4l12.1-5.4c0.9-0.4,1.5-1.5,1.2-2.5c-0.4-1.1-1.6-1.7-2.7-1.2l-3,1.4c-1.3,0.6-2.5-0.9-1.6-2.1
	l3.8-4.9c0.6-0.8,0.6-1.9-0.1-2.6c-0.9-0.9-2.3-0.8-3,0.1l-9.9,12.9c-0.1,0-0.1-0.1-0.2-0.1L119,37.9c-0.2-1-1.2-1.7-2.2-1.6
	c-1.2,0.2-1.9,1.3-1.7,2.4l1.3,5.6c0.3,1.4-1.4,2.3-2.4,1.2l-1.9-2.3c-0.8-0.9-2.2-0.9-3,0c-0.6,0.7-0.6,1.9,0.1,2.6l8,9.3
	c-0.4,0.3-0.7,0.7-1,1l-10.5-6.4c-0.8-0.5-2-0.4-2.6,0.3c-0.8,0.9-0.6,2.4,0.5,3l7.2,4.4c1.1,0.7,0.8,2.3-0.5,2.5l-9.8,1.4
	c-0.9,0.1-1.7,0.9-1.8,1.8c-0.1,1.2,0.9,2.1,2,2.1c0.1,0,0.2,0,0.3,0l8.5-1.2c1.3-0.2,2.1,1.4,1.1,2.4l-5.2,4.8
	c-0.8,0.7-1,2-0.3,2.8c0.4,0.5,1,0.7,1.5,0.7c0.5,0,1-0.2,1.3-0.5l4.5-4.1c1.1-1,2.8,0.2,2.2,1.6l-2.5,5.4c-0.4,0.9-0.1,2.1,0.7,2.6
	c0.3,0.2,0.7,0.3,1,0.3c0.7,0,1.5-0.4,1.8-1.1l0.4-0.8c0.6-1.3,2.6-0.9,2.6,0.6l-0.1,3.5c0,1.1,0.8,2,1.9,2l0,0c1.1,0,1.9-0.8,2-1.9
	l0.3-16.4c0.4-0.1,0.8-0.3,1.1-0.5l2.6,9.9c0.2,0.9,1,1.5,1.9,1.5c0.2,0,0.3,0,0.5-0.1c1.1-0.3,1.7-1.4,1.4-2.4l-1.2-4.7
	c-0.3-1.2,1.1-2.2,2.1-1.5l8.6,6.2c0.3,0.2,0.7,0.4,1.1,0.4c0.7,0,1.4-0.4,1.8-1.1C143,72.6,142.6,71.5,141.8,70.9z"/>
<ellipse transform="matrix(0.9694 -0.2456 0.2456 0.9694 -8.9346 26.0046)" class="st2" cx="99.8" cy="48.8" rx="2" ry="2"/>
<ellipse transform="matrix(0.9694 -0.2456 0.2456 0.9694 -12.8526 25.3008)" class="st2" cx="95" cy="64.2" rx="2" ry="2"/>
<ellipse transform="matrix(0.9694 -0.2456 0.2456 0.9694 -15.5879 27.4345)" class="st2" cx="102.2" cy="76.2" rx="2" ry="2"/>
<path class="st10" d="M128.4,57.6c-1.4-4.8-2.1-9.9-1-14.8l2.2-9.8c0.2-0.9-0.4-1.9-1.3-2.1c-0.9-0.2-1.9,0.4-2.1,1.3L124,42
	c-1.1,4.9-4,9.1-7.4,12.9c-1.1,1.2-1.8,2.9-1.8,4.8c0,2.5,1.6,4.9,3.9,6c4.1,1.9,8.7-0.5,9.7-4.7C128.8,59.9,128.7,58.7,128.4,57.6z
	"/>
<path class="st3" d="M118.8,67.7c-0.3,0-0.6-0.1-0.8-0.2c-3-1.4-5-4.5-5.1-7.8c0-2.3,0.8-4.5,2.3-6.2c0.7-0.8,2-0.9,2.8-0.1
	c0.8,0.7,0.9,2,0.1,2.8c-0.6,0.7-1.3,1.8-1.3,3.5c0,1.8,1.1,3.5,2.8,4.3c1,0.5,1.4,1.6,1,2.6C120.2,67.3,119.5,67.7,118.8,67.7z"/>
<path class="st3" d="M124,44c-0.1,0-0.3,0-0.4-0.1c-1.1-0.2-1.7-1.3-1.5-2.4l1.1-4.8c0.2-1.1,1.3-1.7,2.4-1.5
	c1.1,0.2,1.7,1.3,1.5,2.4l-1.1,4.8C125.7,43.4,124.9,44,124,44z"/>
<ellipse transform="matrix(0.2527 -0.9675 0.9675 0.2527 63.0135 146.2012)" class="st3" cx="126.2" cy="32.3" rx="2" ry="2"/>
<path class="st16" d="M118.2,227.3c-0.2,0-0.5,0-0.7-0.1l-49.3-20c-1-0.4-1.5-1.6-1.1-2.6c0.4-1,1.6-1.5,2.6-1.1l43.5,17.6
	c1.5,0.6,3.1-0.5,3.1-2.1v-11.5c0-1,0.7-1.9,1.6-2c1.2-0.2,2.3,0.7,2.3,1.9v17.9c0,0.7-0.3,1.3-0.9,1.6
	C119,227.2,118.6,227.3,118.2,227.3z"/>
<path class="st16" d="M126.6,218.9c-0.8,0-1.5-0.5-1.8-1.2c-0.4-1,0.1-2.2,1.1-2.6l49.5-19.9c1-0.4,2.2,0.1,2.6,1.1
	c0.4,1-0.1,2.2-1.1,2.6l-49.5,19.9C127.1,218.9,126.8,218.9,126.6,218.9z"/>
<path class="st16" d="M118.2,176.8c-1.1,0-2-0.9-2-2v-45c0-1.1,0.9-2,2-2s2,0.9,2,2v45C120.2,175.9,119.3,176.8,118.2,176.8z"/>
<path class="st4" d="M91,218.4c-0.3,0-0.5,0-0.8-0.1l-21-8.7c-1-0.4-1.5-1.6-1.1-2.6c0.4-1,1.6-1.5,2.6-1.1l21,8.7
	c1,0.4,1.5,1.6,1.1,2.6C92.5,218,91.8,218.4,91,218.4z"/>
<circle class="st4" cx="96.8" cy="218.8" r="2"/>
<path class="st4" d="M147.9,212.4c-0.8,0-1.5-0.5-1.8-1.2c-0.4-1,0.1-2.2,1.1-2.6l25.5-10.2c1-0.4,2.2,0.1,2.6,1.1
	c0.4,1-0.1,2.2-1.1,2.6l-25.5,10.2C148.4,212.3,148.2,212.4,147.9,212.4z"/>
<circle class="st4" cx="42.1" cy="120.1" r="2"/>
</svg>
