<?xml version="1.0" encoding="utf-8"?>
<!-- Generator: Adobe Illustrator 20.0.0, SVG Export Plug-In . SVG Version: 6.00 Build 0)  -->
<svg version="1.1" id="Layer_1" xmlns="http://www.w3.org/2000/svg" xmlns:xlink="http://www.w3.org/1999/xlink" x="0px" y="0px"
	 viewBox="0 0 500 500" style="enable-background:new 0 0 500 500;" xml:space="preserve">
<style type="text/css">
	.st0{fill:#292F37;}
	.st1{fill:#577B1D;}
	.st2{fill:#AD2F26;}
	.st3{fill:#264415;}
	.st4{fill:#539243;}
	.st5{fill:#663346;}
	.st6{fill:#246901;}
	.st7{fill:#FFFFFF;}
	.st8{fill:#8A1100;}
	.st9{fill:#5EC865;}
	.st10{fill:#007500;}
	.st11{fill:#FF3D50;}
	.st12{fill:none;stroke:#246901;stroke-linecap:round;stroke-linejoin:round;stroke-miterlimit:10;}
	.st13{fill:none;stroke:#FFFFFF;stroke-linecap:round;stroke-linejoin:round;stroke-miterlimit:10;}
	.st14{fill:#FF3D50;stroke:#CC3248;stroke-miterlimit:10;}
	.st15{fill:none;stroke:#007500;stroke-linecap:round;stroke-linejoin:round;stroke-miterlimit:10;}
	.st16{fill:none;stroke:#264415;stroke-linecap:round;stroke-linejoin:round;stroke-miterlimit:10;}
	.st17{fill:#528B1C;}
	.st18{fill:#20420B;}
	.st19{fill:#314773;}
	.st20{fill:#7389B5;}
	.st21{fill:#528B1C;stroke:#20420B;stroke-linecap:round;stroke-linejoin:round;stroke-miterlimit:10;}
	.st22{fill:none;stroke:#314773;stroke-linejoin:round;stroke-miterlimit:10;}
	.st23{fill:#00FFFF;}
	.st24{fill:#22B473;stroke:#184C28;stroke-width:3;stroke-linecap:round;stroke-linejoin:round;stroke-miterlimit:10;}
	.st25{fill:#2E368E;}
	.st26{fill:#9A0D90;}
	.st27{fill:#161542;}
	.st28{fill:#251749;}
	.st29{fill:none;stroke:#FBA954;stroke-linecap:round;stroke-linejoin:round;stroke-miterlimit:10;}
	.st30{fill:#61303F;}
	.st31{fill:#EEB683;}
	.st32{fill:#1B631A;}
	.st33{fill:#FBA954;}
	.st34{fill:#ECD8A1;}
	.st35{fill:#DC0900;stroke:#184C28;stroke-width:1.7008;stroke-miterlimit:10;}
	.st36{fill:none;stroke:#007500;stroke-width:2;stroke-linecap:round;stroke-miterlimit:10;}
	.st37{fill:#F10A00;stroke:#8A1100;stroke-miterlimit:10;}
	.st38{fill:none;stroke:#FFFFFF;stroke-linecap:round;stroke-miterlimit:10;}
	.st39{fill:none;stroke:#007500;stroke-width:3;stroke-linecap:round;stroke-miterlimit:10;}
	.st40{fill:#F10A00;}
	.st41{display:none;fill:#ECD8A1;}
	.st42{fill:#7389B5;stroke:#314773;stroke-miterlimit:10;}
	.st43{fill:none;stroke:#314773;stroke-miterlimit:10;}
	.st44{opacity:0.4;fill:#314773;}
	.st45{fill:#7389B5;stroke:#314773;stroke-linecap:round;stroke-linejoin:round;stroke-miterlimit:10;}
	.st46{fill:#8BA3CD;stroke:#314773;stroke-miterlimit:10;}
	.st47{fill:#5A7098;}
	.st48{fill:none;stroke:#FFFFFF;stroke-width:8;stroke-linecap:round;stroke-linejoin:round;stroke-miterlimit:10;}
	.st49{fill:#FF3D50;stroke:#AD2F26;stroke-miterlimit:10;}
	.st50{fill:#FF3D50;stroke:#CC3248;stroke-width:1.058;stroke-miterlimit:10;}
	.st51{fill:#539243;stroke:#246901;stroke-width:3;stroke-linejoin:round;stroke-miterlimit:10;}
</style>
<path class="st8" d="M44.2,264.8c-0.3,2-0.6,3.9-0.8,5.9c-3.4,30.5,5.7,60.6,25.6,84.7c39.1,47.3,150.3,95.5,151.4,96l0.4,0.2
	c0.5,0.3,53,29.6,83,5.7c22.4-17.9,17.8-45.4,12.6-77.2l-0.4-2.2c-0.9-3.9-27-121.1-64.8-166.7c-22.1-26.7-53.8-41.2-86.2-42.6
	c3.2-5.2,5.1-11,5.6-17.4l11-8.8c0.1,0.3,0.2,0.6,0.3,0.9c12.2,1.9,24.2,5.2,35.5,10c21.2,9,40.2,23.2,54.9,40.9
	c18.2,22,35.6,58.9,51.7,109.7c11.7,36.8,18.3,67.2,18.6,68.5c0.1,0.4,0.2,0.8,0.2,1.2l0.4,2.2c2.7,16.7,5.6,34.1,4.2,50.7
	c-1.8,21.6-10.7,39-26.6,51.7c-19.3,15.4-45.8,19.3-76.6,11.4c-17.8-4.6-31.8-11.7-36.1-14c-5.7-2.5-31.8-14.1-62.3-30.8
	c-46.7-25.6-79.8-49.9-98.3-72.4c-14.9-18-24.8-38.5-29.5-61c-2.4-11.7-3.3-23.8-2.6-35.8c0,0-0.2-4.7,2.8-11.5L44.2,264.8z"/>
<path class="st9" d="M228,342.7c-47.7-4.9-82.7-15-84.1-15.4c-5-1.4-8.5-5.8-8.9-10.9c-0.2-2-3.7-49.4,4.8-107.1
	c5-34.2,13.2-64.9,24.3-91.2c14.2-33.6,33.3-60.4,56.8-79.5c2.6-2.1,5.9-3,9.1-2.7c1,0.1,1.9,0.3,2.9,0.6c4.1,1.4,7.1,4.9,8,9.1
	l2.9,13.6c18.7-13.3,40.3-23.9,64.5-31.5c1.7-0.5,3.4-0.7,5-0.5c4.7,0.5,8.9,3.7,10.5,8.5l4.7,14.2c25-10.3,52.2-18.1,81-23.1
	c1.1-0.2,2.3-0.2,3.4-0.1c2.2,0.2,4.3,1,6.1,2.4c2.7,2,4.5,5.1,4.9,8.4l1.8,14.5c14.4-4.5,25.8-4.4,32.2-3.7
	c2.9,0.3,4.7,0.7,5.2,0.8c5.5,1.4,9.4,6.3,9.4,12c0,1.9-0.4,16.7-11.3,36.4l14.3,4.8c3.2,1.1,5.9,3.5,7.3,6.5
	c1.4,3.1,1.5,6.6,0.3,9.8c-10.7,26.9-23.8,51.6-38.9,73.8l13,7.5c5.9,3.4,7.9,10.9,4.6,16.8c-12.4,22.1-27.1,41-43.9,56.6l12.7,5.6
	c4,1.7,6.7,5.4,7.3,9.7c0.6,4.3-1.1,8.6-4.5,11.3C375.6,346.8,289.8,349,228,342.7z"/>
<path class="st10" d="M262.7,228.9l15.9-12.9c8-6.5,18.3-9.3,28.5-7.7c4.6,0.7,10,1.4,16,2c16.8,1.7,38.7,2.7,63,0.7
	c2-0.2,3.7-1.8,3.7-3.9c0-2.3-2-4.1-4.2-4c-28.2,2.4-53.6,0.5-70.9-1.8c-5.9-0.8-8-8.3-3.4-12l20.6-16.8c7.6-6.2,17.5-9.1,27.2-7.9
	c1.9,0.2,4,0.5,6.3,0.7c11,1.1,25.5,2.1,42.1,2.1c2.1,0,4-1.6,4.1-3.7c0.1-2.3-1.7-4.1-3.9-4.1c-15.1,0-28.6-0.8-39.1-1.9
	c-6.1-0.6-8.3-8.2-3.6-12.1l49.2-40c1.9-1.5,2-4.5,0-6.1c-1.4-1.2-3.6-1.1-5,0.1l-49,39.8c-4.7,3.8-11.7,0-11.1-6
	c1.2-10.5,3-23.8,6.1-38.4c0.4-2.1-0.9-4.2-3-4.6c-2.1-0.4-4.2,0.9-4.6,3c-4.1,19.5-6.1,36.2-7.1,47.8c-0.9,9.8-5.6,18.9-13.3,25.1
	l-20.6,16.8c-4.6,3.8-11.5,0.2-11.1-5.8c1.3-17.3,4.6-42.5,12.7-69.5c0.7-2.2-0.7-4.5-3-5c-2-0.4-4,0.9-4.6,2.9
	c-9.5,31.7-12.5,60.3-13.5,77.8c-0.5,10.2-5.4,19.7-13.4,26.2l-16,13L262.7,228.9z"/>
<path class="st7" d="M369.3,119.9c-1-0.1-2-0.6-2.6-1.4c-1.4-1.7-1.1-4.1,0.6-5.5L385,98.5c1.7-1.4,4.1-1.1,5.5,0.6
	c1.4,1.7,1.1,4.1-0.6,5.5l-17.8,14.5C371.4,119.8,370.3,120,369.3,119.9z"/>
<path class="st7" d="M310.8,167.5c-1-0.1-2-0.6-2.6-1.4c-1.4-1.7-1.1-4.1,0.6-5.5l14.1-11.4c1.7-1.4,4.1-1.1,5.5,0.6
	c1.4,1.7,1.1,4.1-0.6,5.5l-14.1,11.4C312.8,167.3,311.8,167.6,310.8,167.5z"/>
<path class="st7" d="M251.5,215.7c-1-0.1-2-0.6-2.6-1.4c-1.4-1.7-1.1-4.1,0.6-5.5l14.1-11.4c1.7-1.4,4.1-1.1,5.5,0.6
	c1.4,1.7,1.1,4.1-0.6,5.5l-14.1,11.4C253.6,215.5,252.5,215.8,251.5,215.7z"/>
<ellipse transform="matrix(0.1026 -0.9947 0.9947 0.1026 269.838 481.4418)" class="st7" cx="401.7" cy="91.2" rx="4.4" ry="4.4"/>
<path class="st41" d="M197.7,278.8c2.3,2.3,6,2.3,8.3,0s2.3-5.9,0-8.2c-2.3-2.3-6-2.3-8.3,0C195.4,272.9,195.4,276.6,197.7,278.8z"
	/>
<path class="st41" d="M142.4,333.2c2.3,2.3,6,2.3,8.3,0s2.3-5.9,0-8.2c-2.3-2.3-6-2.3-8.3,0C140.1,327.3,140.1,330.9,142.4,333.2z"
	/>
<path class="st40" d="M306.3,460.2c24.7-19.7,19-50.4,13.6-83.1c0,0-26.3-121-65.6-168.5c-42.4-51.2-118.9-59.1-170.9-17.6
	c-51.1,40.8-60.4,115-17.5,166.8c40.2,48.6,152.9,97.1,152.9,97.1S273.9,486.1,306.3,460.2z"/>
<path class="st10" d="M238.2,192.6c1.6-23.7,5.6-52.9,14.6-83c0.6-2.1-0.6-4.3-2.6-4.9c-2.1-0.6-4.3,0.6-4.9,2.6
	c-8.5,28.5-12.7,56.3-14.5,79.6C233.4,188.7,235.8,190.6,238.2,192.6z"/>
<path class="st10" d="M376.9,260.5c-0.2-2.2-2.1-3.7-4.2-3.6c-35,3-67.7,0-92.3-3.9c1.3,2.8,2.5,5.6,3.7,8.5
	c5.8,0.9,11.9,1.6,18.4,2.3c21,2.2,45.4,3.1,70.9,0.9C375.5,264.6,377.1,262.7,376.9,260.5z"/>
<path class="st34" d="M180.9,378.3c2,2.5,5.7,2.9,8.3,0.9c2.5-2,2.9-5.6,0.8-8.1c-2-2.5-5.7-2.9-8.3-0.9
	C179.2,372.2,178.9,375.8,180.9,378.3z"/>
<path class="st34" d="M197.6,216c2,2.5,5.7,2.9,8.3,0.9c2.5-2,2.9-5.6,0.8-8.1s-5.7-2.9-8.3-0.9C196,209.9,195.6,213.6,197.6,216z"
	/>
<path class="st34" d="M186.5,324.2c2,2.5,5.7,2.9,8.3,0.9c2.5-2,2.9-5.6,0.8-8.1s-5.7-2.9-8.3-0.9
	C184.8,318.1,184.4,321.7,186.5,324.2z"/>
<path class="st34" d="M137,264.4c2,2.5,5.7,2.9,8.3,0.9c2.5-2,2.9-5.6,0.8-8.1c-2-2.5-5.7-2.9-8.3-0.9
	C135.3,258.3,135,262,137,264.4z"/>
<path class="st34" d="M125.9,372.6c2,2.5,5.7,2.9,8.3,0.9c2.5-2,2.9-5.6,0.8-8.1c-2-2.5-5.7-2.9-8.3-0.9
	C124.2,366.5,123.8,370.1,125.9,372.6z"/>
<path class="st34" d="M76.4,312.8c2,2.5,5.7,2.9,8.3,0.9c2.5-2,2.9-5.6,0.8-8.1c-2-2.5-5.7-2.9-8.3-0.9S74.3,310.4,76.4,312.8z"/>
<path class="st34" d="M247.1,275.8c2,2.5,5.7,2.9,8.3,0.9c2.5-2,2.9-5.6,0.8-8.1c-2-2.5-5.7-2.9-8.3-0.9
	C245.4,269.7,245.1,273.3,247.1,275.8z"/>
<path class="st34" d="M235.9,384c2,2.5,5.7,2.9,8.3,0.9c2.5-2,2.9-5.6,0.8-8.1c-2-2.5-5.7-2.9-8.3-0.9
	C234.3,377.8,233.9,381.5,235.9,384z"/>
<path class="st34" d="M241.5,329.9c2,2.5,5.7,2.9,8.3,0.9c2.5-2,2.9-5.6,0.8-8.1c-2-2.5-5.7-2.9-8.3-0.9
	C239.8,323.8,239.5,327.4,241.5,329.9z"/>
<path class="st34" d="M230.4,438c2,2.5,5.7,2.9,8.3,0.9c2.5-2,2.9-5.6,0.8-8.1c-2-2.5-5.7-2.9-8.3-0.9
	C228.7,431.9,228.3,435.6,230.4,438z"/>
<path class="st34" d="M291,389.6c2,2.5,5.7,2.9,8.3,0.9c2.5-2,2.9-5.6,0.8-8.1c-2-2.5-5.7-2.9-8.3-0.9
	C289.3,383.5,288.9,387.2,291,389.6z"/>
<path class="st34" d="M285.4,443.7c2,2.5,5.7,2.9,8.3,0.9c2.5-2,2.9-5.6,0.8-8.1s-5.7-2.9-8.3-0.9S283.4,441.2,285.4,443.7z"/>
<path class="st7" d="M93.8,167.3c1.3,1.7,3.7,2.1,5.5,0.9c1.7-1.2,2.1-3.6,0.9-5.4c-1.3-1.7-3.7-2.1-5.5-0.9
	C92.9,163.2,92.5,165.6,93.8,167.3z"/>
<path class="st34" d="M296.6,335.6c-2-2.5-1.7-6.1,0.8-8.1c1.5-1.2,3.4-1.5,5.1-1.1c1,3.3,1.9,6.5,2.8,9.6c-0.2,0.2-0.3,0.3-0.5,0.5
	C302.3,338.4,298.6,338,296.6,335.6z"/>
<path class="st34" d="M252.8,220.3c-2-2.4-1.7-6,0.7-8c2.3,2.9,4.5,6.1,6.6,9.4C257.8,223,254.6,222.5,252.8,220.3z"/>
<path class="st34" d="M176.2,424.2c2.5-2,6.2-1.6,8.3,0.9c2,2.5,1.7,6.1-0.8,8.1c-0.2,0.1-0.4,0.3-0.6,0.4c-2.9-1.5-5.9-3-9-4.6
	C173.9,427.2,174.7,425.4,176.2,424.2z"/>
<path class="st34" d="M79.9,359.7c1.8,2.2,1.7,5.2,0,7.3c-2.9-2.8-5.6-5.5-8.1-8.3C74.3,356.8,77.9,357.2,79.9,359.7z"/>
<g>
	<path class="st7" d="M137.4,161.6c1-0.7,1.6-1.9,1.5-3.2c-0.1-2-1.9-3.5-3.9-3.4c-8.1,0.5-16.3,1.6-24.2,3.4
		c-2,0.4-3.2,2.4-2.8,4.3c0.5,2,2.4,3.2,4.4,2.7c7.5-1.7,15.2-2.8,23-3.2C136.1,162.2,136.8,162,137.4,161.6z"/>
</g>
<g>
	<path class="st8" d="M265.5,473.4c-5.1-0.5-10.4-1.5-16-3c-17-4.5-30.1-11.8-31.9-12.9c-2.5-1.1-29.6-13.3-60.8-30.8
		c-44-24.7-74.8-47.7-91.7-68.4c-21.1-25.9-30.8-58.2-27.3-91c3.4-32.4,19.2-61.6,44.5-82.2c25.3-20.6,57.2-30,89.8-26.7
		c0.3,0,0.5,0.1,0.8,0.1c32.9,3.6,62.5,19.8,83.5,45.6c16.5,20.2,32.6,55.3,48,104.1c11.4,36.2,18.1,66.9,18.2,67.2l0,0.2l0.4,2.3
		c5.4,33,10.6,64.2-14.9,84.9l0,0C297.2,471.5,282.7,475.1,265.5,473.4z M171.3,166.1c-30.6-3.2-60.4,5.7-84.1,25
		c-23.7,19.3-38.5,46.6-41.7,77c-3.2,30.7,5.9,61,25.6,85.3c38.8,47.7,148.7,96.7,149.8,97.2l0.4,0.2c0.5,0.3,52.4,30,81.9,6
		c22-17.9,17.4-45.6,12.1-77.6l-0.4-2.2c-0.9-3.9-27.1-121.9-64.6-168c-19.7-24.2-47.5-39.4-78.3-42.8
		C171.8,166.1,171.6,166.1,171.3,166.1z"/>
</g>
<g>
	<path class="st7" d="M121.1,331.1c-0.7-0.1-1.3-0.3-1.9-0.8c-1.7-1.3-2.1-3.7-0.8-5.5c10.7-14.4,24.4-28.5,39.6-40.9
		c4.1-3.3,8.2-6.5,12.4-9.5c1.8-1.3,4.2-0.8,5.5,0.9c1.3,1.8,0.9,4.2-0.9,5.5c-4.1,2.9-8.1,6-12,9.2c-14.7,12-28,25.6-38.3,39.5
		C123.8,330.7,122.5,331.2,121.1,331.1z"/>
</g>
<path class="st9" d="M27.5,264.1c-1.2-0.1-2.5-0.3-3.7-0.5c-5.6-1.1-9.7-6-9.5-11.8c0.1-7.2,2.7-27.6,9.9-44.8
	c7-16.8,17.2-32.9,26.8-42.2c2.5-2.4,5.9-3.6,9.4-3.2c0.6,0.1,1.3,0.2,1.9,0.4l2.2,0.6l-0.1-2.3c-0.3-4.1,1.7-8.1,5.1-10.4
	c11-7.5,28.9-14.2,46.7-17.6c13.7-2.6,29.7-2.4,40-1.3c2.3,0.2,4.3,0.5,5.9,0.8c5.6,1.1,9.7,6,9.6,11.7c-0.3,17.1-10.2,31-28,39
	c-4.9,2.2-9.8,3.7-13.9,4.7c12,20.7,13.6,48.5,1.9,58c-3.9,3.2-9.1,4.4-15.8,3.7c-11.5-1.2-28.9-8.3-40.5-17.8
	c-1.7,3.6-3.9,7.7-6.9,11.9C57.8,258.3,43.3,265.7,27.5,264.1z"/>
<path class="st10" d="M487.3,92.6c-4.7-2.5-6.9-8.1-5.4-13.3c2.8-10.1,2.9-16.9,2.9-18.3c0-11.4-7.8-21.3-18.8-24
	c-1.1-0.3-3.4-0.8-6.9-1.1c-3.2-0.3-7.5-0.5-12.7-0.3c-5.6,0.3-10.7-2.9-13.1-8c-0.9-2-1.7-3.2-1.7-3.2c-4.3-6-10.8-9.5-17.6-10.2
	c-2.2-0.2-4.5-0.2-6.8,0.2c-20.8,3.6-40.8,8.6-59.8,15c-5.8,1.9-12-0.4-15.4-5.4c-6.7-9.8-17.6-9.3-17.6-9.3c-3.3-0.3-6.6,0-10,1
	c-15,4.7-29.1,10.6-42.2,17.4c-5.3,2.8-11.8,1.7-16-2.6c-2.6-2.6-5.8-4.7-9.3-5.9c-1.9-0.7-3.8-1.1-5.7-1.3
	c-6.5-0.7-13,1.2-18.2,5.4c0,0-37.8,33.1-58.7,80.1c-2.5,5.7-8.3,9.4-14.5,9.4c-0.2,0-0.4,0-0.7,0c-7.5,0-14.9-2.4-20.7-7.2
	C97.9,94.5,79.5,86.4,63.6,87.2c-11.9,0.6-18.6,5.9-21.1,8.3c-8.7,7.3-13,17.9-12,29.7c0,0,1.6,10.1,8.2,22.2
	c2.7,5,2.3,11.1-1.3,15.6c-6.7,8.4-17.4,23.2-24.1,39.5c-7.5,18.1-10.6,39.7-10.8,49.1C2.3,263,10.4,273,21.6,275.1
	c0,0,24.9,3.5,49.1-18.2c5.5-4.9,13.2-6.1,19.9-3.2c8.5,3.7,17,6.2,24,6.9c9.8,1,18-1.1,24.4-6.2c13.4-10.9,13-30.6,11.5-41.3
	c-0.3-1.9-0.6-4.3-1.2-6.9c-1.5-6.9,1.5-13.9,7.4-17.8c8.1-5.5,14.3-11.6,14.3-11.6c7.9-9.2,12.1-20.7,12.4-33.1
	c0.1-4.3-1-8.4-3-11.9c-3.2-5.6-3.4-12.3-0.7-18.1c8.3-17.7,18.6-34.3,31.4-48.6c7.1-8,20.3-4.5,22.6,6l2.2,10.4
	c1.9-1.7,3.8-3.4,5.8-5.1c17.6-14.3,37.2-24.8,57.5-32.4c7-2.6,14.7,1.1,17,8.2l4.8,14.6c26.1-12.1,52.6-20,76.8-25.1
	c7.4-1.6,14.6,3.6,15.6,11.2l2.1,16.6c0,0,10.3-7.1,31.2-8.3c7.4-0.4,13,6.6,10.9,13.7c-2.4,7.7-6.9,18-15.4,29.3l16.1,5.4
	c7.3,2.4,10.9,10.6,7.8,17.6c-9.9,22.4-22.9,46.4-39.9,69.2l13.3,7.7c6.4,3.7,8.5,12,4.5,18.3c-11.6,18.3-25.9,35.3-43.4,49.5
	c-2,1.6-4.1,3.2-6.2,4.7l9.7,4.3c9.7,4.3,10.6,17.9,1.4,23.2c-28.2,16.4-61.3,24.3-94.2,27.3c2.6,9.1,4.8,17.4,6.5,24.3
	c5.4-0.6,10.7-1.2,15.9-2c43.3-6.6,79.3-21.4,107.1-43.8c5.5-4.5,9.1-11.1,9.5-18.2c0.3-6-1.5-11.6-4.8-16.1c-3.1-4.2-2.8-10,0.5-14
	c9.7-11.7,19.1-24.4,26.6-38.8c8.7-16.9,4.1-25.7-1.6-30.2c-4.6-3.6-5.7-10-2.8-15c9.8-16.8,18.6-34.9,26.2-53.9
	c1.8-4.6,3-10.1,2.5-15C495.8,99,491.8,95,487.3,92.6z M87.9,127.5c-8.1,2.8-15,6.5-19.7,9.2c-3.9,2.3-8.9,0.9-11-3.1
	c-6.9-13.3,0.5-20.3,0.5-20.3s11.9-13.8,32.2,3.8C93.5,120.1,92.3,125.9,87.9,127.5z M48.9,184.4c4.4-6,13.3-6.1,18-0.4l8.3,10.2
	c2,2.5,4.9,4,7.9,4.3c3.2,0.3,6.6-0.7,9.2-3.1c4.5-4.3,4.8-11.4,0.8-16.2l-7.4-9.1c-4.8-5.9-2.6-14.8,4.5-17.7
	c11.8-4.9,30.3-10.7,51.5-10.7c8.9,0,13.8,10.3,8.2,17.2c-9.6,12-20.4,16.9-28.7,18.9c-5.6,1.3-8.2,7.8-5.1,12.8
	c6,9.8,12.6,24.7,10.6,40.5c-0.3,2.4-1.5,4.1-2.7,5c-1.4,1.1-4,1.7-7.2,1.1c-17.8-3.1-29.2-10.4-36.2-17c-4.3-4-11.3-2.7-13.6,2.7
	c-4,9.1-11.4,20.1-24.9,25.6c-7.6,3.1-15.7-3.5-14.3-11.6C32.4,211,41.7,194.1,48.9,184.4z"/>
<ellipse transform="matrix(0.1026 -0.9947 0.9947 0.1026 -98.0498 426.984)" class="st7" cx="187.6" cy="267.8" rx="4" ry="4"/>
<path class="st7" d="M95.6,166.5c1.4,1.6,3.9,1.8,5.5,0.4c1.6-1.4,1.8-3.8,0.4-5.4c-1.4-1.6-3.9-1.8-5.5-0.4
	C94.4,162.5,94.2,164.9,95.6,166.5z"/>
<g>
	<path class="st7" d="M138.6,157.2c0.9-0.8,1.4-2,1.2-3.3c-0.3-2-2.2-3.4-4.2-3.1c-8.1,1.2-16.1,3-23.8,5.4c-1.9,0.6-3,2.7-2.4,4.6
		c0.6,1.9,2.7,3,4.6,2.4c7.3-2.3,14.9-4,22.6-5.1C137.4,157.9,138.1,157.6,138.6,157.2z"/>
</g>
</svg>
