<?xml version="1.0" encoding="utf-8"?>
<!-- Generator: Adobe Illustrator 20.0.0, SVG Export Plug-In . SVG Version: 6.00 Build 0)  -->
<svg version="1.1" xmlns="http://www.w3.org/2000/svg" xmlns:xlink="http://www.w3.org/1999/xlink" x="0px" y="0px"
	 viewBox="0 0 1000 1000" style="enable-background:new 0 0 1000 1000;" xml:space="preserve">
<style type="text/css">
	.st0{fill:#304B0A;}
	.st1{fill:#AB4168;}
	.st2{fill:#688800;}
	.st3{fill:#DADADA;}
	.st4{fill:#5F2940;}
	.st5{fill:#519900;}
	.st6{fill:#9556DD;stroke:#3F2C73;stroke-width:6;stroke-miterlimit:10;}
	.st7{fill:#38590E;stroke:#38590E;stroke-width:6;stroke-miterlimit:10;}
	.st8{fill:#3F2C73;stroke:#3F2C73;stroke-width:6;stroke-miterlimit:10;}
	.st9{fill:none;stroke:#648551;stroke-miterlimit:10;}
	.st10{fill:#7B9727;stroke:#386100;stroke-width:3;stroke-linecap:round;stroke-linejoin:round;stroke-miterlimit:10;}
	.st11{fill:#7B9727;stroke:#386100;stroke-width:0.745;stroke-linecap:round;stroke-linejoin:round;stroke-miterlimit:10;}
	.st12{fill:#7B9727;stroke:#386100;stroke-width:3;stroke-miterlimit:10;}
	.st13{fill:#618022;stroke:#386100;stroke-width:3;stroke-linejoin:round;stroke-miterlimit:10;}
	.st14{fill:none;stroke:#45210A;stroke-width:3;stroke-linecap:round;stroke-linejoin:round;stroke-miterlimit:10;}
	.st15{fill:#00FFFF;}
	.st16{clip-path:url(#SVGID_2_);}
	.st17{clip-path:url(#SVGID_4_);}
	.st18{clip-path:url(#SVGID_6_);}
	.st19{fill:#D2C6C6;}
	.st20{fill:#D2C6C6;stroke:#534741;stroke-miterlimit:10;}
	.st21{fill:#B28A5C;stroke:#45210A;stroke-width:3;stroke-linecap:round;stroke-linejoin:round;stroke-miterlimit:10;}
	.st22{fill:none;stroke:#87562E;stroke-miterlimit:10;}
	.st23{fill:none;stroke:#87562E;stroke-linecap:round;stroke-linejoin:round;stroke-miterlimit:10;}
	.st24{fill:none;stroke:#FFFFFF;stroke-linecap:round;stroke-linejoin:round;stroke-miterlimit:10;}
	.st25{fill:none;stroke:#45210A;stroke-linecap:round;stroke-linejoin:round;stroke-miterlimit:10;}
	.st26{fill:#45210A;}
	.st27{fill:#FFFFFF;}
	.st28{fill:#488C00;}
	.st29{fill:#488C00;stroke:#006837;stroke-linejoin:round;stroke-miterlimit:10;}
	.st30{fill:#488C00;stroke:#006837;stroke-width:0.899;stroke-linejoin:round;stroke-miterlimit:10;}
	.st31{fill:#FCEE21;}
	.st32{fill:none;stroke:#FFFFFF;stroke-linecap:round;stroke-miterlimit:10;}
	.st33{fill:#FFCADE;}
	.st34{fill:none;stroke:#386100;stroke-width:4;stroke-linejoin:round;stroke-miterlimit:10;}
	.st35{fill:#386100;}
	.st36{fill:none;stroke:#386100;stroke-width:0.25;stroke-linecap:round;stroke-linejoin:round;stroke-miterlimit:10;}
	.st37{fill:none;stroke:#386100;stroke-linecap:round;stroke-linejoin:round;stroke-miterlimit:10;}
	.st38{fill:#519900;stroke:#386100;stroke-linejoin:round;stroke-miterlimit:10;}
	.st39{fill:none;stroke:#95B22F;stroke-linecap:round;stroke-linejoin:round;stroke-miterlimit:10;}
	.st40{fill:#95B22F;}
	.st41{fill:#B28A5C;}
	.st42{fill:#87562E;}
	.st43{fill:#688625;stroke:#386100;stroke-miterlimit:10;}
	.st44{fill:#6F8B29;stroke:#386100;stroke-miterlimit:10;}
	.st45{fill:#75912D;stroke:#386100;stroke-miterlimit:10;}
	.st46{fill:#7B9727;stroke:#386100;stroke-miterlimit:10;}
	.st47{fill:none;stroke:#386100;stroke-miterlimit:10;}
	.st48{fill:#7B9727;}
	.st49{fill:#618022;}
	.st50{fill:#688625;}
	.st51{fill:#6F8B29;}
	.st52{fill:#75912D;}
	.st53{fill:#AB4168;stroke:#5F2940;stroke-miterlimit:10;}
	.st54{fill:none;stroke:#DADADA;stroke-miterlimit:10;}
	.st55{fill:#779F14;stroke:#38590E;stroke-miterlimit:10;}
	.st56{fill:#648551;}
	.st57{fill:none;stroke:#38590E;stroke-miterlimit:10;}
	.st58{fill:none;stroke:#38590E;stroke-linecap:round;stroke-miterlimit:10;}
	.st59{fill:#38590E;}
	.st60{fill:#779F14;}
	.st61{fill:#9556DD;}
	.st62{fill:#779F14;stroke:#648551;stroke-miterlimit:10;}
	.st63{fill:#648551;stroke:#38590E;stroke-linejoin:round;stroke-miterlimit:10;}
	.st64{fill:none;stroke:#648551;stroke-linecap:round;stroke-miterlimit:10;}
	.st65{fill:#9556DD;stroke:#3F2C73;stroke-width:8;stroke-miterlimit:10;}
	.st66{fill:#3F2C73;}
	.st67{fill:#9A69E8;}
	.st68{fill:#519900;stroke:#386100;stroke-linecap:round;stroke-linejoin:round;stroke-miterlimit:10;}
	.st69{fill:none;stroke:#DAAE67;stroke-linecap:round;stroke-linejoin:round;stroke-miterlimit:10;}
	.st70{fill:#F9ECD9;}
	.st71{fill:#DAAE67;}
	.st72{fill:none;stroke:#FFFFFF;stroke-width:15;stroke-linecap:round;stroke-miterlimit:10;}
	.st73{fill:#E2D52B;}
	.st74{fill:#A5CC00;}
	.st75{fill:#688800;stroke:#304B0A;stroke-width:6.1368;stroke-miterlimit:10;}
	.st76{fill:none;stroke:#A5CC00;stroke-width:0.9876;stroke-linecap:round;stroke-miterlimit:10;}
	.st77{fill:none;stroke:#DADADA;stroke-width:0.9876;stroke-linecap:round;stroke-miterlimit:10;}
	.st78{fill:none;stroke:#FFFFFF;stroke-width:0.9876;stroke-linecap:round;stroke-miterlimit:10;}
</style>
<g id="Layer_1">
	<g>
		<path class="st0" d="M686.2,401.9l-2.6-320.7c-0.2-25.3,18.6-46.4,43.7-49.1c25.2-2.7,48,14,53.2,38.8l12.4,59.8
			c1.6,7.8,11.9,9.5,15.9,2.6L859.1,47C872,24.9,900,16.5,923,27.7c22.7,11.1,33.2,38,24.1,61.5L822,417L686.2,401.9z"/>
		<polygon class="st1" points="786.6,359.2 733,352.8 651.8,929.2 688.9,956.1 740.3,941.1 		"/>
		<g>
			<path class="st2" d="M745,311.1c-1.3,2.2-4.6,1.4-4.7-1.2l-8.4-233.7c-0.1-1.4,2-1.6,2.3-0.2l32.3,188c0.8,4.7,0,9.6-2.4,13.7
				L745,311.1z"/>
		</g>
		<path class="st2" d="M743.7,344.6L900,69.6c0.3-0.5,0.7-0.7,1.1-0.7c0.9,0,1.7,0.8,1.3,1.9L783.2,349L743.7,344.6z"/>
		<path class="st3" d="M713.7,822.3c20.7,0,36.1-13,36.8-13.6c3.2-2.8,3.6-7.6,0.8-10.8c-2.8-3.2-7.6-3.6-10.8-0.8
			c-0.3,0.2-13.9,11.5-30.5,9.7c-18.6-2.1-26.9-15-27.2-15.5c-2.2-3.6-6.9-4.8-10.5-2.6c-3.6,2.2-4.8,6.9-2.6,10.6
			c0.5,0.8,12.3,19.9,38.7,22.8C710.1,822.2,711.9,822.3,713.7,822.3z"/>
		<path class="st3" d="M730.6,669.4c20.7,0,36.1-13,36.8-13.6c3.2-2.8,3.6-7.6,0.8-10.8c-2.8-3.2-7.6-3.6-10.8-0.8
			c-0.3,0.2-13.9,11.5-30.5,9.7c-18.6-2.1-27.1-15.3-27.2-15.5c-2.2-3.6-6.9-4.8-10.6-2.6c-3.6,2.2-4.8,6.9-2.6,10.6
			c0.5,0.8,12.3,19.9,38.7,22.8C727.1,669.3,728.9,669.4,730.6,669.4z"/>
		<path class="st3" d="M747.5,516.5c20.7,0,36.1-13,36.8-13.6c3.2-2.8,3.6-7.6,0.8-10.8c-2.8-3.2-7.6-3.6-10.8-0.8
			c-0.3,0.2-13.9,11.5-30.5,9.7c-18.6-2.1-26.9-15-27.2-15.5c-2.2-3.6-6.9-4.8-10.5-2.6c-3.6,2.2-4.8,6.9-2.6,10.6
			c0.5,0.8,12.3,19.9,38.7,22.8C744,516.4,745.8,516.5,747.5,516.5z"/>
		<g>
			<path class="st4" d="M614.5,919.4c-1.5,10.8,0.8,21.9,6.4,31.2l0,0c2,3.3,7.8,12,18.2,20.6c14.2,11.8,31.6,19.2,50.3,21.3
				c3.2,0.4,6.5,0.5,9.8,0.5c34.1,0,58.4-19.4,62.9-23.3h0c9.5-8.2,15.4-19.8,16.5-32.3v0l43.5-520.7l-32-4l4-47.5l0.3-3.4
				c0.5-6.5-4.2-12.2-10.7-13l-3.4-0.4l-38.6-4.3l-3.4-0.4c-6.5-0.7-12.3,3.9-13.2,10.3l-0.5,3.4l-6.4,46.3l-32-4L614.5,919.4
				L614.5,919.4z M778.1,369.4l-46.4,555.9c-0.5,5.8-3.9,11-9.1,13.8c-5.7,3-13.9,6.2-23.4,6.2c-1.5,0-3-0.1-4.6-0.2
				c-12.4-1.4-21-6.9-26.3-11.6c-4.3-3.8-6.3-9.5-5.6-15.2l76.3-553.2c0.4-3,3.1-5,6.1-4.7l28,3.1
				C776.2,363.8,778.3,366.4,778.1,369.4z"/>
		</g>
	</g>
	<path class="st74" d="M771.7,347.7l25.2-51.5c1.9-3.8,0.3-8.4-3.5-10.3c-3.8-1.9-8.4-0.3-10.3,3.5l-27.6,56.5L771.7,347.7z"/>
	<path class="st0" d="M351.8,401.9l2.6-320.7c0.2-25.3-18.6-46.4-43.7-49.1c-25.2-2.7-48,14-53.2,38.8l-12.4,59.8
		c-1.6,7.8-11.9,9.5-15.9,2.6L178.9,47c-12.9-22-40.9-30.5-63.8-19.3c-22.7,11.1-33.2,38-24.1,61.5L216,417L351.8,401.9z"/>
	<polygon class="st1" points="251.3,359.2 304.9,352.8 386.2,929.2 349,956.1 297.7,941.1 	"/>
	<g>
		<path class="st2" d="M293,311.1c1.3,2.2,4.6,1.4,4.7-1.2l8.4-233.7c0.1-1.4-2-1.6-2.3-0.2l-32.3,188c-0.8,4.7,0,9.6,2.4,13.7
			L293,311.1z"/>
	</g>
	<g>
		<path class="st74" d="M289.5,305l4.5-47.9c0.4-4.2-2.7-8-6.9-8.4c-4.2-0.4-8,2.7-8.4,6.9l-2.5,26L289.5,305z"/>
	</g>
	<path class="st2" d="M294.3,344.6l-156.4-275c-0.3-0.5-0.7-0.7-1.1-0.7c-0.9,0-1.7,0.8-1.3,1.9L254.8,349L294.3,344.6z"/>
	<path class="st3" d="M324.3,822.3c-20.7,0-36.1-13-36.8-13.6c-3.2-2.8-3.6-7.6-0.8-10.8c2.8-3.2,7.6-3.6,10.8-0.8
		c0.3,0.2,13.9,11.5,30.5,9.7c18.6-2.1,26.9-15,27.2-15.5c2.2-3.6,6.9-4.8,10.5-2.6c3.6,2.2,4.8,6.9,2.6,10.6
		c-0.5,0.8-12.3,19.9-38.7,22.8C327.9,822.2,326.1,822.3,324.3,822.3z"/>
	<path class="st3" d="M307.4,669.4c-20.7,0-36.1-13-36.8-13.6c-3.2-2.8-3.6-7.6-0.8-10.8c2.8-3.2,7.6-3.6,10.8-0.8
		c0.3,0.2,13.9,11.5,30.5,9.7c18.6-2.1,27.1-15.3,27.2-15.5c2.2-3.6,6.9-4.8,10.6-2.6c3.6,2.2,4.8,6.9,2.6,10.6
		c-0.5,0.8-12.3,19.9-38.7,22.8C310.9,669.3,309.1,669.4,307.4,669.4z"/>
	<path class="st3" d="M290.4,516.5c-20.7,0-36.1-13-36.8-13.6c-3.2-2.8-3.6-7.6-0.8-10.8c2.8-3.2,7.6-3.6,10.8-0.8
		c0.3,0.2,13.9,11.5,30.5,9.7c18.6-2.1,26.9-15,27.2-15.5c2.2-3.6,6.9-4.8,10.5-2.6c3.6,2.2,4.8,6.9,2.6,10.6
		c-0.5,0.8-12.3,19.9-38.7,22.8C294,516.4,292.2,516.5,290.4,516.5z"/>
	<path class="st27" d="M325.6,865.1c-4,0-7.3-3-7.7-7l-1.2-13.8c-0.4-4.2,2.8-7.9,7-8.3c4.2-0.3,7.9,2.8,8.3,7l1.2,13.8
		c0.4,4.2-2.8,7.9-7,8.3C326.1,865.1,325.9,865.1,325.6,865.1z"/>
	<path class="st27" d="M306,630.3c-4,0-7.3-3-7.7-7l-1.6-18.8c-0.4-4.2,2.8-7.9,7-8.3c4.2-0.3,7.9,2.8,8.3,7l1.6,18.8
		c0.4,4.2-2.8,7.9-7,8.3C306.5,630.3,306.3,630.3,306,630.3z"/>
	<path class="st27" d="M710.2,728.9c-0.3,0-0.6,0-0.9-0.1c-4.2-0.5-7.2-4.4-6.7-8.6l2-16c0.5-4.2,4.4-7.2,8.6-6.7
		c4.2,0.5,7.2,4.4,6.7,8.6l-2,16C717.4,726.1,714.1,728.9,710.2,728.9z"/>
	<path class="st27" d="M722.1,634.3c-0.3,0-0.6,0-0.9-0.1c-4.2-0.5-7.2-4.4-6.7-8.6l2.7-21.5c0.5-4.2,4.4-7.2,8.6-6.7
		c4.2,0.5,7.2,4.4,6.7,8.6l-2.7,21.5C729.3,631.5,726,634.3,722.1,634.3z"/>
	<circle class="st27" cx="312.4" cy="697.8" r="7.5"/>
	<circle class="st27" cx="692.5" cy="848.2" r="7.5"/>
	<g>
		<path class="st0" d="M409.7,380.2c-4.6,0-9.3-0.7-13.9-2c-25.1-7.4-39.7-33.1-33.4-58.5L436,26.6c1.1-4.3,5-7.4,9.5-7.4l46.9,0
			c2.7,0,5-1.8,5.6-4.4v0c1-4.4,5-7.6,9.5-7.5l83.3,0c4.2,0,7.9,2.7,9.3,6.7l55,164.6c8.2,24.4-4,51.2-27.7,61.1
			c-8.5,3.5-17.4,4.5-26,3.2c-5.9-0.9-11.3,3.2-11.9,9.1l-2.3,24.1l-104.3,0.2l-27.2,70.9C448.8,367.4,430,380.2,409.7,380.2z
			 M455.1,342.9l0,0.2C455.1,343,455.1,342.9,455.1,342.9z"/>
		<path class="st2" d="M476,66.9l-67.7,266.1c-0.1,0.6,0.3,1,0.8,1c0.3,0,0.6-0.2,0.7-0.5L498,73.1c1-3.1-1.2-6.2-4.5-6.2H476z"/>
		<ellipse transform="matrix(0.8668 -0.4986 0.4986 0.8668 28.2822 247.9494)" class="st74" cx="478.3" cy="71" rx="7.5" ry="7.5"/>
		<path class="st2" d="M534.6,212.9l-26-111.5c-0.5-2-3.2-2.1-3.8-0.2l-20.1,59.4c-1.4,4.2-1.7,8.8-0.7,13.2l9,39.2H534.6z"/>
		<g>
			<path class="st2" d="M545.2,173.4l7.2-48.9c0.4-2.8,0-5.6-1.3-8.2l-16.5-33.4c-0.8-1.7-3.3-1.4-3.7,0.4l-4.6,19.8
				c-0.5,2.1-0.5,4.2,0,6.3l14.9,64C541.8,175.7,544.9,175.6,545.2,173.4z"/>
		</g>
		<path class="st2" d="M558.8,55h-13.2c-3.5,0-5.8,3.7-4.2,6.8l64.4,130.5c0.3,0.6,0.9,0.9,1.4,0.9c1,0,2-0.9,1.6-2.1L563.3,58.1
			C562.6,56.2,560.8,55,558.8,55z"/>
		<g>
			<polygon class="st74" points="537.3,88.3 529.5,123.4 537.6,158 548.2,110.3 			"/>
		</g>
	</g>
	<circle class="st74" cx="264.1" cy="332.5" r="7.5"/>
	
		<ellipse transform="matrix(0.4986 -0.8668 0.8668 0.4986 -53.4058 365.3427)" class="st74" cx="289.1" cy="228.8" rx="7.5" ry="7.5"/>
	<circle class="st74" cx="815.5" cy="242" r="7.5"/>
	
		<ellipse transform="matrix(0.8668 -0.4986 0.4986 0.8668 -33.1194 411.722)" class="st74" cx="754.1" cy="267.9" rx="7.5" ry="7.5"/>
	<polygon class="st1" points="490,221.4 545.2,221.4 564.1,942.9 520.5,967.7 468.5,939.3 	"/>
	<path class="st3" d="M518.9,845c-26.5,0-40.3-17.6-40.9-18.4c-2.6-3.4-1.9-8.2,1.4-10.8c3.4-2.6,8.2-1.9,10.8,1.4
		c0.4,0.5,10,12.4,28.7,12.4c16.7,0,29.1-12.8,29.2-12.9c2.9-3.1,7.8-3.3,10.9-0.4c3.1,2.9,3.3,7.8,0.4,10.9
		C558.6,827.9,542.4,845,518.9,845z"/>
	<path class="st3" d="M518.9,691.2c-26.5,0-40.3-17.6-40.9-18.4c-2.6-3.4-1.9-8.2,1.4-10.8c3.4-2.6,8.2-1.9,10.8,1.4
		c0.4,0.5,10,12.4,28.7,12.4c16.7,0,29.1-12.8,29.2-12.9c2.9-3.1,7.8-3.3,10.9-0.4c3.1,2.9,3.3,7.8,0.4,10.9
		C558.6,674.1,542.4,691.2,518.9,691.2z"/>
	<path class="st3" d="M548.8,515.1c-0.1-2.8,0.6-5.5,1.8-7.9c-0.9,0.4-1.8,1-2.5,1.8c-0.1,0.1-12.5,12.9-29.2,12.9
		c-18.7,0-28.4-11.9-28.7-12.4c-0.9-1.1-2-2-3.3-2.5c0.9,2.1,1.4,4.3,1.5,6.6c0.2,4.3-1.5,8.2-4.2,11.3c6.5,5.4,18.1,12.3,34.7,12.3
		c14.7,0,26.5-6.6,33.5-11.8C550.2,522.6,548.9,519,548.8,515.1z"/>
	<path class="st3" d="M544.7,362c-0.1-1.4,0.1-2.8,0.4-4.2c-4.7,3.8-14.4,10.3-26.2,10.3c-16.7,0-26.2-9.5-28.3-11.9
		c0.6,1.7,1,3.6,1.1,5.5c0.2,4.4-1.6,8.6-4.6,11.7c6.8,4.9,17.5,10,31.8,10c12.7,0,23.3-5,30.5-9.7
		C546.6,370.6,544.9,366.5,544.7,362z"/>
	<path class="st27" d="M505.1,889.4c0,0-0.1,0-0.1,0c-4.2-0.1-7.6-3.6-7.5-7.8l0.2-10.4c0.1-4.2,3.6-7.7,7.8-7.5
		c4.2,0.1,7.6,3.6,7.5,7.8l-0.2,10.4C512.7,886.1,509.3,889.4,505.1,889.4z"/>
	<path class="st27" d="M507.7,754.9c0,0-0.1,0-0.1,0c-4.2-0.1-7.6-3.6-7.5-7.8l0.5-26.7c0.1-4.2,3.5-7.5,7.7-7.5c0,0,0.1,0,0.1,0
		c4.2,0.1,7.6,3.6,7.5,7.8l-0.5,26.7C515.3,751.6,511.8,754.9,507.7,754.9z"/>
	<path class="st27" d="M510.1,628.7c0,0-0.1,0-0.1,0c-4.2-0.1-7.6-3.6-7.5-7.8l1-52.3c0.1-4.2,3.6-7.7,7.8-7.5
		c4.2,0.1,7.6,3.6,7.5,7.8l-1,52.3C517.7,625.4,514.3,628.7,510.1,628.7z"/>
	<circle class="st27" cx="514.8" cy="487" r="7.5"/>
	<path class="st4" d="M587.1,276l-22,0c-5.7,0-10.4-4.5-10.5-10.2l-0.8-37.8l-0.1-6.5c-0.1-4.8-4-8.7-8.9-8.7h-51.9
		c-4.8,0-8.8,3.9-8.9,8.7l-0.1,6.5l-0.9,41.1c-0.1,4.7-1,9.4-2.7,13.8l-24.7,64.2c-1.6,4.9-4,9.3-6.9,13.2l-12.5,568.3l0,0
		c-0.2,10.9,3.2,21.5,9.8,30.1l0,0c2.4,3.1,9.1,11,20.4,18.5c15.5,10.2,33.6,15.6,52.4,15.6c39.3,0,65-25.5,69.8-30.6l0,0
		c8.5-9.1,13.1-21.2,12.8-33.6v0L587.1,276z M506.3,228.3h25.2c3.8,0,6.9,3,7,6.9l15.1,687.4c0.1,5-2.2,9.6-6.2,12.5
		c-6.1,4.4-16.2,10-28.4,10c-13.6,0-23.3-5.4-28.9-9.8c-3.7-2.9-5.9-7.4-5.8-12.2l15.1-688C499.4,231.3,502.5,228.3,506.3,228.3z"/>
	<g>
		<path class="st4" d="M423.5,919.4L351.8,400l-32,4l-6.4-46.3l-0.5-3.4c-0.9-6.5-6.8-11-13.2-10.3l-3.4,0.4l-38.6,4.3l-3.4,0.4
			c-6.5,0.7-11.2,6.5-10.7,13l0.3,3.4l4,47.5l-32,4l43.5,520.7v0c1,12.5,7,24.1,16.5,32.3h0c4.5,3.9,28.8,23.3,62.9,23.3
			c3.3,0,6.6-0.2,9.8-0.5c18.7-2.1,36.1-9.4,50.3-21.3c10.4-8.7,16.2-17.3,18.2-20.6l0,0C422.8,941.3,425,930.2,423.5,919.4
			L423.5,919.4z M264.8,363.5l28-3.1c3-0.3,5.7,1.8,6.1,4.7l76.3,553.2c0.8,5.7-1.3,11.3-5.6,15.2c-5.3,4.7-13.9,10.2-26.3,11.6
			c-1.5,0.2-3.1,0.2-4.6,0.2c-9.4,0-17.6-3.2-23.4-6.2c-5.2-2.8-8.6-7.9-9.1-13.8l-46.4-555.9C259.6,366.4,261.8,363.8,264.8,363.5z
			"/>
	</g>
</g>
<g id="Layer_2">
</g>
<g id="Layer_3">
</g>
</svg>
