<?xml version="1.0" encoding="utf-8"?>
<!-- Generator: Adobe Illustrator 20.0.0, SVG Export Plug-In . SVG Version: 6.00 Build 0)  -->
<svg version="1.1" id="Layer_1" xmlns="http://www.w3.org/2000/svg" xmlns:xlink="http://www.w3.org/1999/xlink" x="0px" y="0px"
	 viewBox="0 0 500 500" style="enable-background:new 0 0 500 500;" xml:space="preserve">
<style type="text/css">
	.st0{fill:#FFBC00;}
	.st1{fill:#FFBC00;stroke:#FFBC00;stroke-width:6;stroke-miterlimit:10;}
	.st2{fill:#B8CC36;stroke:#385100;stroke-width:6;stroke-linejoin:round;stroke-miterlimit:10;}
	.st3{fill:none;stroke:#B8CC36;stroke-linecap:round;stroke-miterlimit:10;}
	.st4{fill:#B8CC36;stroke:#385100;stroke-miterlimit:10;}
	.st5{fill:none;stroke:#385100;stroke-linecap:round;stroke-miterlimit:10;}
	.st6{fill:#B8CC36;stroke:#385100;stroke-linecap:round;stroke-miterlimit:10;}
	.st7{fill:#FFEB00;}
	.st8{fill:#86B068;}
	.st9{fill:#86B068;stroke:#506630;stroke-width:6;stroke-linecap:round;stroke-linejoin:round;stroke-miterlimit:10;}
	.st10{fill:#63B218;}
	.st11{fill:#63B218;stroke:#477B21;stroke-linecap:round;stroke-linejoin:round;stroke-miterlimit:10;}
	.st12{fill:none;stroke:#477B21;stroke-width:6;stroke-miterlimit:10;}
	.st13{fill:none;stroke:#A2D400;stroke-width:3;stroke-linecap:round;stroke-linejoin:round;stroke-miterlimit:10;}
	.st14{fill:#B8CC36;}
	.st15{fill:#658205;}
	.st16{display:none;fill:#D1A982;}
	.st17{fill:#974565;}
	.st18{fill:#5D283D;}
	.st19{fill:#00FFFF;}
	.st20{fill:#86B068;stroke:#506630;stroke-linecap:round;stroke-linejoin:round;stroke-miterlimit:10;}
	.st21{fill:#98B55E;stroke:#006837;stroke-linecap:round;stroke-linejoin:round;stroke-miterlimit:10;}
	.st22{fill:#B9CE6E;stroke:#838226;stroke-width:3;stroke-miterlimit:10;}
	.st23{fill:none;stroke:#718227;stroke-miterlimit:10;}
	.st24{fill:#B9CE6E;stroke:#838226;stroke-miterlimit:10;}
	.st25{fill:#E0E2D0;}
	.st26{fill:none;stroke:#718227;stroke-width:3;stroke-miterlimit:10;}
	.st27{fill:none;stroke:#FFFFFF;stroke-linecap:round;stroke-miterlimit:10;}
	.st28{fill:#C2D66B;}
	.st29{fill:#E6E8D4;}
	.st30{fill:#718227;}
	.st31{fill:#FFFFFF;}
	.st32{fill:#974565;stroke:#5D283D;stroke-miterlimit:10;}
	.st33{fill:none;stroke:#5D283D;stroke-width:3;stroke-miterlimit:10;}
	.st34{fill:none;stroke:#5D283D;stroke-miterlimit:10;}
	.st35{fill:#EDDBCD;}
	.st36{fill:#F4E1D4;}
	.st37{fill:none;stroke:#5D283D;stroke-width:8.1497;stroke-miterlimit:10;}
	.st38{fill:none;stroke:#5D283D;stroke-width:24.449;stroke-miterlimit:10;}
	.st39{fill:none;stroke:#89A037;stroke-width:3;stroke-linecap:round;stroke-linejoin:round;stroke-miterlimit:10;}
	.st40{fill:none;stroke:#89A037;stroke-width:2.4354;stroke-linecap:round;stroke-linejoin:round;stroke-miterlimit:10;}
	.st41{fill:none;stroke:#89A037;stroke-width:2.794;stroke-linecap:round;stroke-linejoin:round;stroke-miterlimit:10;}
	.st42{fill:none;stroke:#89A037;stroke-width:0.7186;stroke-linecap:round;stroke-linejoin:round;stroke-miterlimit:10;}
	.st43{fill:none;stroke:#385100;stroke-linecap:round;stroke-linejoin:round;stroke-miterlimit:10;}
	.st44{fill:none;stroke:#89A037;stroke-width:1.0534;stroke-linecap:round;stroke-linejoin:round;stroke-miterlimit:10;}
	.st45{opacity:0.8;fill:none;stroke:#658205;stroke-width:3;stroke-miterlimit:10;}
	.st46{opacity:0.6;fill:none;stroke:#658205;stroke-width:3;stroke-miterlimit:10;}
	.st47{opacity:0.4;fill:none;stroke:#658205;stroke-width:3;stroke-miterlimit:10;}
	.st48{opacity:0.2;fill:none;stroke:#658205;stroke-width:3;stroke-miterlimit:10;}
	.st49{fill:none;stroke:#D7E68B;stroke-width:3;stroke-linecap:round;stroke-linejoin:round;stroke-miterlimit:10;}
	.st50{fill:#385100;}
	.st51{fill:#769020;}
	.st52{fill:#869F29;}
	.st53{fill:#97AD31;}
	.st54{fill:#A7BB3A;}
	.st55{fill:#D7E68B;}
	.st56{fill:#88B043;stroke:#416F0F;stroke-miterlimit:10;}
	.st57{fill:none;stroke:#416F0F;stroke-width:0.8976;stroke-miterlimit:10;}
	.st58{fill:none;stroke:#416F0F;stroke-miterlimit:10;}
	.st59{fill:#E4F2C4;stroke:#416F0F;stroke-miterlimit:10;}
	.st60{fill:#97BF4B;}
	.st61{opacity:0.8;fill:none;stroke:#E4F2C4;stroke-width:3;stroke-linecap:round;stroke-linejoin:round;stroke-miterlimit:10;}
	.st62{opacity:0.6;fill:none;stroke:#E4F2C4;stroke-width:3;stroke-linecap:round;stroke-linejoin:round;stroke-miterlimit:10;}
	.st63{opacity:0.4;fill:none;stroke:#E4F2C4;stroke-width:3;stroke-linecap:round;stroke-linejoin:round;stroke-miterlimit:10;}
	.st64{opacity:0.2;fill:none;stroke:#E4F2C4;stroke-width:3;stroke-linecap:round;stroke-linejoin:round;stroke-miterlimit:10;}
	.st65{fill:#97BF4B;stroke:#416F0F;stroke-miterlimit:10;}
	.st66{fill:none;stroke:#FFFFFF;stroke-linecap:round;stroke-linejoin:round;stroke-miterlimit:10;}
	.st67{fill:#416F0F;}
	.st68{fill:#E4F2C4;}
	.st69{fill:#D5E7AF;}
	.st70{fill:#C5DD97;}
	.st71{fill:#B7D27F;}
	.st72{fill:#A7C869;}
	.st73{fill:none;stroke:#FFFFFF;stroke-width:7.954;stroke-linecap:round;stroke-linejoin:round;stroke-miterlimit:10;}
	.st74{fill:#A2D400;}
	.st75{fill:none;stroke:#477B21;stroke-linecap:round;stroke-linejoin:round;stroke-miterlimit:10;}
	.st76{fill:none;stroke:#A2D400;stroke-linecap:round;stroke-linejoin:round;stroke-miterlimit:10;}
	.st77{fill:none;stroke:#A4D173;stroke-width:3;stroke-miterlimit:10;}
	.st78{fill:none;stroke:#98CA63;stroke-width:3;stroke-miterlimit:10;}
	.st79{fill:none;stroke:#8CC354;stroke-width:3;stroke-miterlimit:10;}
	.st80{fill:none;stroke:#7FBD44;stroke-width:3;stroke-miterlimit:10;}
	.st81{fill:none;stroke:#72B636;stroke-width:3;stroke-miterlimit:10;}
	.st82{fill:#A4D173;}
	.st83{fill:#98CA63;}
	.st84{fill:#8CC354;}
	.st85{fill:#7FBD44;}
	.st86{fill:#72B636;}
	.st87{fill:#477B21;}
	.st88{fill:none;stroke:#506630;stroke-linecap:round;stroke-linejoin:round;stroke-miterlimit:10;}
	.st89{opacity:0.3;}
	.st90{fill:none;stroke:#506630;stroke-width:3;stroke-linecap:round;stroke-linejoin:round;stroke-miterlimit:10;}
	.st91{opacity:0.75;fill:none;stroke:#C98353;stroke-linejoin:round;stroke-miterlimit:10;}
	.st92{opacity:0.5;fill:none;stroke:#C98353;stroke-linejoin:round;stroke-miterlimit:10;}
	.st93{opacity:0.25;fill:none;stroke:#C98353;stroke-linejoin:round;stroke-miterlimit:10;}
	.st94{fill:#506630;}
	.st95{fill:#719155;}
	.st96{fill:#B78D5C;}
	.st97{fill:#A79861;}
	.st98{fill:#97A466;}
	.st99{fill:none;stroke:#FFBC00;stroke-linecap:round;stroke-miterlimit:10;}
	.st100{fill:#8F5B09;stroke:#462816;stroke-miterlimit:10;}
	.st101{fill:none;stroke:#462816;stroke-linecap:round;stroke-miterlimit:10;}
	.st102{fill:#8F5B09;}
	.st103{fill:#462816;}
</style>
<path class="st0" d="M286.6,407.6c1.8-0.4,3.4-0.9,4.9-1.6c5.2-2.3,11.1-1.9,16.1,0.9c6.6,3.8,14.7,5.9,23.5,2.2
	c4.7-2,8.1-5,10.5-8.4c3.2-4.5,8.3-7.3,13.8-7.5c4.2-0.1,8.6-1.3,12.8-4.2c4-2.7,6.6-6.1,8.3-9.7c2.2-4.6,6.4-8.1,11.4-9.4
	c3.9-1,7.7-2.9,11.1-6.4c5.9-5.9,7.5-12.8,7.2-19.3c-0.2-5.3,2.1-10.4,6-13.9c1.5-1.3,2.9-2.9,4.1-4.8c1.2-1.9,2.2-3.8,2.8-5.7
	c1.7-5.1,5.5-9.2,10.5-11c6.2-2.2,12.1-6.4,15.3-14.2c1.9-4.7,2.2-9.2,1.5-13.3c-0.9-5.4,0.7-11,4.5-15.1c2.9-3.1,5.1-7,6.1-12
	c0.9-4.7,0.4-9-0.9-12.7c-1.7-4.8-1.2-10.3,1.4-14.7c2-3.4,3.3-7.5,3.3-12.3c0-8.5-3.9-14.6-8.8-19c-4.1-3.6-5.9-9.1-5.6-14.5
	c0.1-1.8,0-3.7-0.3-5.8c-0.4-2.5-1.1-4.7-2.1-6.6c-2.2-4.7-2.3-10.1-0.1-14.8c2.7-5.9,3.9-12.9,0.7-20.5c-2-4.7-5-8.1-8.4-10.5
	c-4.5-3.2-7.3-8.3-7.5-13.8c-0.1-4.2-1.3-8.6-4.2-12.8c-2.7-4-6.1-6.6-9.7-8.3c-4.6-2.2-8.1-6.4-9.4-11.4c-1-3.9-2.9-7.7-6.4-11.1
	c-5.2-5.2-11.1-7-17-7.2c-6-0.2-11.8-2.7-15.8-7.3c-1.4-1.6-3.1-3.1-5.1-4.4c-1.8-1.2-3.6-2.1-5.4-2.7c-5.5-1.9-10-5.9-12.3-11.2
	c-2.4-5.4-6.4-10.3-13.3-13.1c-4.3-1.8-8.3-2.1-12.1-1.7c-6.2,0.8-12.4-1.1-17.2-5.1c-2.9-2.5-6.6-4.4-11.1-5.3
	c-4.2-0.8-8-0.5-11.5,0.5c-5.7,1.7-11.8,1.1-17.1-1.6c-3.2-1.7-6.9-2.7-11.2-2.7c-9,0-15.3,4.4-19.8,9.8c-3.5,4.2-8.5,6.9-13.9,7.5
	c-1,0.1-2,0.3-3,0.5c-1.5,0.3-3,0.8-4.3,1.3c-5.7,2.4-12.1,1.8-17.5-1.1c-6.5-3.5-14.3-5.3-22.7-1.7c-4.4,1.8-7.6,4.5-9.9,7.6
	c-3.7,4.9-9.2,7.9-15.3,8.3c-3.9,0.3-7.9,1.5-11.9,4.1c-3.7,2.5-6.2,5.5-7.9,8.8c-2.6,5.1-7.2,8.8-12.7,10.5c-3.5,1.1-7,3-10.2,6.1
	c-5.7,5.7-7.4,12.4-7.2,18.8c0.2,5.6-2.3,10.9-6.4,14.7c-1.3,1.3-2.6,2.7-3.7,4.5c-1,1.5-1.8,3.1-2.4,4.6
	c-2.2,5.6-6.5,10.3-12.1,12.6c-5.8,2.3-11.2,6.5-14.2,13.8c-2.3,5.7-2.3,11.1-0.9,15.9c1.1,3.9-0.1,8-3.2,10.7
	c-3.8,3.3-6.8,7.8-8,13.8c-1.1,5.8-0.1,10.8,1.9,15.1c1.6,3.3,1.2,7.2-1,10.1c-2.8,3.8-4.8,8.6-4.8,14.5c0,9.1,4.5,15.5,9.9,20
	c3.5,2.9,5.3,7.3,4.7,11.7c-0.3,2.4-0.4,4.9,0.1,7.6c1,5.9,3.7,10.2,7.1,13.5L286.6,407.6z"/>
<rect x="-4415.9" y="-365.3" class="st16" width="6576.8" height="1230.5"/>
<path class="st14" d="M218.5,328.3c52.6,52.6,5.6,67.6-15.4,88.5c-21.2,21.2-35.9,68-88.5,15.4S61.6,286.4,67.2,280.9
	C71.8,276.2,165.8,275.6,218.5,328.3z"/>
<path class="st50" d="M265.6,193.8h-31.1c-12.9,0-23.4,10.5-23.4,23.4v74.8c-27.6-18.5-58.4-27.6-81.8-32
	c-18.9-3.6-34.1-4.5-43.6-4.6c-19.1-0.2-28.3,2.1-35,8.8c-6.7,6.7-9.3,16.6-9.2,35.3c0.1,13.3,1.7,28.8,4.6,43.7
	C52,373.6,65.8,416.5,98,448.7c22.3,22.3,41.9,32.1,61.6,30.9c16.6-1.1,28.7-9.9,38.1-19.8c2.6-2.8,7-2.9,9.7-0.2l1.6,1.6
	c1.3,1.3,2,3,2,4.8l0,0c0,4.8,1.5,9.5,4.3,13.5c5.7,8.1,18.3,17.6,34.7,17.6c16.7,0,29.2-9.6,34.9-17.9c2.7-3.9,4.1-8.5,4.1-13.2
	V217.3C289,204.3,278.5,193.8,265.6,193.8z M238.6,371.6c-0.8,12.8-12.8,22-24.3,30.8c-1.4,1.1-2.9,2.2-4.3,3.3
	c0.3-15-6.6-38.2-18.9-60.5c-1-1.8-3.3-2.7-5.2-1.8c-2,1-2.8,3.5-1.7,5.4c12.2,22.1,17.2,41.2,18,53.1c0.2,3.2-3.6,4.9-5.9,2.6
	l-30.8-30.8c-1.2-1.2-1.7-2.8-1.6-4.5c0.5-6.1-2.3-14-3.4-17.1c-3.9-10.9-10.6-24-19-36.7c-1.2-1.8-3.5-2.5-5.4-1.4
	c-1.9,1.1-2.5,3.7-1.3,5.5c13.6,20.6,19.3,36.3,20.9,44.5l-53.8-53.8c-1.5-1.5-4-1.5-5.5,0c-1.5,1.5-1.5,4,0,5.5l52.6,52.7
	c-8.8-2.2-24.2-8.2-42.9-20.2c-2-1.3-4.8-0.5-5.8,1.9c-0.7,1.7,0.1,3.7,1.6,4.7c12.6,8.1,25.8,14.7,37.1,18.7
	c7.9,2.8,12.9,3.6,16.3,3.6c0,0,0,0,0,0c1.5,0,3,0.6,4.1,1.6l30.1,30.1c2.3,2.3,0.4,6.2-2.8,5.9c-11.8-1.4-30.1-6.1-51.3-17.3
	c-2-1-4.4-0.2-5.4,1.8c-0.9,1.9,0,4.2,1.9,5.2c19.1,10.1,39.5,16.6,54.3,18.2c2.7,0.3,3.9,3.4,2.3,5.5c0,0,0,0,0,0.1
	c-8.9,11.5-18,23.4-30.7,24.2c-11.2,0.7-24.4-6.8-40.5-22.9c-26.8-26.8-38.7-63.2-44-89.1c-6.2-30.2-4.8-52-3.3-56.5
	c4.6-1.3,27.2-2.4,56.6,3.6c26,5.2,62.6,17.1,89.2,43.6C231.8,347.1,239.3,360.4,238.6,371.6z"/>
<path class="st7" d="M433.8,222.4c5.3-2.8,7.5-5.1,7.5-7.9c0-5.9-13.3-11-24.4-14.4c-2.9-0.9-6.4-1.8-10.2-2.7
	c0.2-0.1,0.3-0.2,0.5-0.3c6.3-3.6,20.8-12.5,19.7-18.7c-0.2-1.5-0.8-4.9-13.5-7.9c-2.6-0.6-6.2-1.3-10.5-1.9c2.7-2,5.1-3.8,7.1-5.5
	c6.6-5.5,10.6-9.7,12.7-12.3c3.8-4.6,5-7.6,3.9-10.2c-0.6-1.5-1.9-4.6-15.8-4.6c-4.2,0-10.6,0.3-18.8,1.5c1.7-1.9,3.2-3.7,4.6-5.4
	c5.4-6.7,8.4-11.6,10-14.6c2.8-5.3,3.3-8.5,1.8-10.7c-1.5-2.2-4.4-2.5-6.7-2.5c-5.3,0-14.1,1.7-25.3,5.5c0.8-1.4,1.5-2.7,2.2-3.9
	c7.9-14.7,10.2-23.8,6.8-27.1c-1-1-2.4-1.5-4.2-1.5c-5,0-17.1,4.4-32.5,14.1c0.3-0.8,0.5-1.6,0.7-2.4c3.1-10.5,5.9-23.6,1.2-26.7
	c-0.8-0.5-1.8-0.8-2.8-0.8c-3.7,0-11.9,4.4-22.1,13c0.6-3.7,1-7,1.3-9.8c0.8-8.6,0.6-14.3,0.3-17.7c-0.6-5.9-1.9-8.9-4.4-10
	c-0.6-0.2-1.2-0.4-1.8-0.4c-6.4,0-18.1,14.1-21.5,18.5c-1,1.3-2.1,2.7-3.2,4.2c-0.1-2.6-0.3-4.9-0.6-7c-0.9-8.5-2.2-14.2-3.2-17.4
	c-1.7-5.7-3.6-8.4-6.3-8.9c-0.3-0.1-0.6-0.1-0.9-0.1c-6.2,0-14.7,15.3-18.1,21.8c-0.5,1-1,2-1.6,3.1c-0.4-1.5-0.8-3-1.2-4.3
	c-2.5-8.2-4.9-13.5-6.4-16.5c-2.8-5.3-5.1-7.5-7.9-7.5c-5.9,0-11,13.3-14.4,24.4c-0.9,2.9-1.8,6.2-2.6,10
	c-4.3-8.4-10-17.2-14.6-17.2c-0.3,0-0.7,0-1,0.1c-2.6,0.6-4.2,3-5.7,8.7c-1.1,4.3-2,10-2.5,16.3c-0.1,0.9-0.1,1.9-0.2,3
	c-13.3-20.2-25.9-30.9-30.9-30.9c-0.7,0-1.3,0.1-1.9,0.4c-5.4,2.3-5.1,16.5-3.9,28c0.2,2,0.5,4.2,0.9,6.6
	c-12.8-11.4-23.3-17.3-27.8-17.3c-1.1,0-2.1,0.3-2.9,0.8c-4.8,3.3-1.7,17.2,1.8,28.2c0.4,1.2,0.8,2.5,1.3,3.9
	c-12.6-7.3-22.3-10.6-26.8-10.6c-1.8,0-3.2,0.5-4.2,1.5c-2,2-2,5.2-0.2,11c1,3.2,3.1,8.7,7.2,16.3c1.4,2.6,3.1,5.6,5.2,8.8
	c-9.2-2.8-16.2-3.9-20.2-3.9c-2.4,0-5.3,0.3-6.8,2.6c-3.1,4.7,4.6,15.8,11.7,24.3c0.2,0.2,0.4,0.5,0.6,0.8
	c-10.6-1.8-18.4-2.2-22.7-2.2c-14.6,0-15.9,3.3-16.5,4.7c-2.2,5.4,8.1,15.2,17.1,22.5c1.6,1.3,3.3,2.6,5.2,4
	c-8.7,0.5-15.2,1.6-19.5,2.5c-12.9,2.9-13.5,6-13.8,7.6c-1.1,5.8,10.9,13.3,21.2,18.7c1.1,0.6,2.4,1.2,3.6,1.8
	c-1.5,0.4-3,0.8-4.3,1.2c-8.2,2.5-13.5,4.9-16.5,6.4c-5.3,2.8-7.5,5.1-7.5,7.9c0,5.9,13.3,11,24.4,14.4c2.9,0.9,6.4,1.8,10.2,2.7
	c-0.2,0.1-0.3,0.2-0.5,0.3C86.5,235.1,72,244,73,250.3c0.2,1.5,0.8,4.9,13.5,7.9c2.6,0.6,6.2,1.3,10.5,1.9c-2.7,2-5.1,3.8-7.1,5.5
	c-6.6,5.5-10.6,9.7-12.7,12.3c-3.8,4.6-5,7.6-3.9,10.2c0.6,1.5,1.9,4.6,15.8,4.6c4.2,0,10.6-0.3,18.8-1.5c-1.7,1.9-3.2,3.7-4.6,5.4
	c-5.4,6.7-8.4,11.6-10,14.6c-2.8,5.3-3.3,8.5-1.8,10.7c1.5,2.2,4.4,2.5,6.7,2.5c5.3,0,14.1-1.7,25.3-5.5c-0.8,1.4-1.5,2.7-2.2,3.9
	c-7.9,14.7-10.2,23.8-6.8,27.1c1,1,2.4,1.5,4.2,1.5c5,0,17.1-4.4,32.5-14.1c-0.3,0.8-0.5,1.6-0.7,2.4c-3.1,10.5-5.9,23.6-1.2,26.7
	c0.8,0.5,1.8,0.8,2.8,0.8c3.7,0,11.9-4.4,22.1-13c-0.6,3.7-1,7-1.3,9.8c-0.8,8.6-0.6,14.3-0.3,17.7c0.6,5.9,1.9,8.9,4.4,10
	c0.6,0.2,1.2,0.4,1.8,0.4c6.4,0,18.1-14.1,21.5-18.5c1-1.3,2.1-2.7,3.2-4.2c0.1,2.6,0.3,4.9,0.6,7c0.9,8.5,2.2,14.2,3.2,17.4
	c1.7,5.7,3.6,8.4,6.3,8.9c0.3,0.1,0.6,0.1,0.9,0.1c6.2,0,14.7-15.3,18.1-21.8c0.5-1,1-2,1.6-3.1c0.4,1.5,0.8,3,1.2,4.3
	c2.5,8.2,4.9,13.5,6.4,16.5c2.8,5.3,5.1,7.5,7.9,7.5c5.9,0,11-13.3,14.4-24.4c0.9-2.9,1.8-6.2,2.6-10c4.3,8.4,10,17.2,14.6,17.2
	c0.3,0,0.7,0,1-0.1c2.6-0.6,4.2-3,5.7-8.7c1.1-4.3,2-10,2.5-16.3c0.1-0.9,0.1-1.9,0.2-3c13.3,20.2,25.9,30.9,30.9,30.9
	c0.7,0,1.3-0.1,1.9-0.4c5.4-2.3,5.1-16.5,3.9-28c-0.2-2-0.5-4.2-0.9-6.6c12.8,11.4,23.3,17.3,27.8,17.3c1.1,0,2.1-0.3,2.9-0.8
	c4.8-3.3,1.7-17.2-1.8-28.2c-0.4-1.2-0.8-2.5-1.3-3.9c12.6,7.3,22.3,10.6,26.8,10.6c1.8,0,3.2-0.5,4.2-1.5c2-2,2-5.2,0.2-11
	c-1-3.2-3.1-8.7-7.2-16.3c-1.4-2.6-3.1-5.6-5.2-8.8c9.2,2.8,16.2,3.9,20.2,3.9c2.4,0,5.3-0.3,6.8-2.6c3.1-4.7-4.6-15.8-11.7-24.3
	c-0.2-0.2-0.4-0.5-0.6-0.8c10.6,1.8,18.4,2.2,22.7,2.2c14.6,0,15.9-3.3,16.5-4.7c2.2-5.4-8.1-15.2-17.1-22.5c-1.6-1.3-3.3-2.6-5.2-4
	c8.7-0.5,15.2-1.6,19.5-2.5c12.9-2.9,13.5-6,13.8-7.6c1.1-5.8-10.9-13.3-21.2-18.7c-1.1-0.6-2.4-1.2-3.6-1.8c1.5-0.4,3-0.8,4.3-1.2
	C425.6,226.4,430.9,224,433.8,222.4z"/>
<g>
	<path class="st0" d="M69.2,250.9c0.8,5.9,6.7,8.8,11.6,10.2c2.6,0.8,3.4,4.1,1.4,5.9c-2.5,2.3-5.5,5.3-8,8.3
		c-3.3,4.2-6.6,9.1-4.5,14.1c2.1,4.9,7.7,7,19.4,7c0.1,0,0.3,0,0.5,0c3.6,0,5.7,4,3.8,6.9c-1.3,2-2.5,3.9-3.4,5.7
		c-2.5,4.7-4.7,10.2-1.6,14.8c2.9,4.2,8.2,4.2,9.9,4.2c2.3,0,5.3-0.3,8.9-1c3.5-0.6,6.3,2.8,5,6.1c-0.6,1.5-1.1,3-1.5,4.4
		c-1.6,5.1-2.7,10.9,1.2,14.8c1.2,1.2,3.4,2.7,7,2.7c4.8,0,12.9-2.8,22.3-7.6c1.5-0.8,3.2,0.5,2.9,2.2c-0.4,2.1-0.7,4.1-0.9,5.9
		c-0.5,5.2-0.4,10.9,4.1,13.9c1.4,1,3.2,1.5,5,1.5c3.7,0,8.7-2.5,13.5-5.6c1.4-0.9,3.2,0.2,3.1,1.8c-0.3,3.8-0.5,9.4,0.1,14.7
		c0.6,5.3,1.7,11.1,6.8,13.2c1,0.4,2.2,0.6,3.3,0.6c3.4,0,7-1.9,11.9-6.2c1.6-1.4,3.3-3,5-4.8c1.9-2,5.4-1.1,5.9,1.7
		c0.6,3.1,1.2,5.9,2,8.3c1.6,5.1,3.9,10.5,9.3,11.6c0.5,0.1,1.1,0.2,1.6,0.2c3.9,0,7.4-2.4,11.8-8.1c1.1-1.4,2.2-3,3.3-4.7
		c1.5-2.3,5-1.9,6.1,0.6c0.9,2.2,1.8,4.1,2.7,5.9c2.5,4.8,5.8,9.6,11.3,9.6c5.6,0,8.9-4.9,11.4-9.8c2.2-4.4,4.4-10.6,5.8-14.5
		c0.5-1.5,2.5-1.8,3.4-0.5l0,0c2.9,4,6.3,7.7,11,7.7c0.6,0,1.2-0.1,1.8-0.2c5.2-1.2,7.2-6.2,8.6-11.5c0.4-1.6,0.8-3.3,1.1-5.2
		c0.3-1.6,2.4-2.2,3.4-0.9c0.3,0.4,0.6,0.7,0.8,1.1c4.4,5.4,8.8,10.1,12.7,13.5l16.9,11.8l44.4-26l33-46.8l30.1-37.2l10.4-45.1
		v-44.2l-12.9-68l-26.3-40.9l-21.3-22.5l-61.8-40.1l-35.5-12.1l-36.7-4.6l-32.6,19.6L175,27.8L138.7,52l-30.9,19.6l-12.1,38
		l-29.2,24.6l-13.8,43.4l-2.1,40.1L69.2,250.9z M423.1,179.1c0.3,1.6-4.4,6.5-13.6,12.2c-2.1,1.3-4.6,1.7-7,1.3
		c-4.3-0.9-9.1-1.7-14.3-2.3c-3.3-0.4-4.2-4.9-1.3-6.5c5.2-3,9.9-6,13.9-8.7c2.1-1.4,4.6-2,7.1-1.5
		C417.4,175.1,422.8,177.6,423.1,179.1z M401.8,108.5c1.9,0,3.1,0.3,3.5,0.8c1.1,1.7-3.6,11.6-15.2,24.9c-5.9,0.9-12.9,2.3-20.6,4.4
		c-3.2,0.9-5.7-2.9-3.7-5.5c5.6-7.4,10-14,13.3-19.6C389.5,109.9,397.4,108.5,401.8,108.5z M329.3,77c9.2-7.6,16.1-11.2,18.5-11.2
		c0.3,0,0.5,0.1,0.7,0.2c1.5,1,1.1,9.7-3,23.3c-4.4,2.8-9.3,6.2-14.7,10.4c-2.7,2.1-6.4-0.4-5.5-3.7C327,88.9,328.4,82.5,329.3,77z
		 M285.3,30.3c0.1,0,0.1,0,0.1,0c1.8,0.3,4.9,8.7,6.4,23.2c0.3,3.1-0.5,6.3-2.3,8.9c-2.8,4.1-5.9,8.8-9,14.2
		c-1.6,2.8-5.8,1.9-6.2-1.3c-0.9-7.2-2.1-13.5-3.4-18.9c-0.7-3.2-0.3-6.5,1.3-9.4C278.2,36.1,283.4,30.3,285.3,30.3z M218.4,44.1
		c0,0,0.1,0,0.1,0c1.2,0,4.1,3.1,7.8,9.2c1.7,2.8,2.3,6.2,1.7,9.4c-0.8,4.2-1.6,8.8-2.2,13.9c-0.4,3.2-4.7,4.1-6.3,1.3
		c-1.4-2.4-2.7-4.7-4.1-6.9c-1.6-2.5-2.2-5.5-1.9-8.4C214.7,51.1,217,44.4,218.4,44.1z M144.9,59.1c0.2-0.1,0.4-0.2,0.7-0.2
		c2.6,0,10.2,3.8,20.2,12.1c2.5,2,4.1,4.8,4.7,7.9c0.9,4.9,2.1,10.4,3.7,16.4c0.8,3.1-2.8,5.5-5.3,3.5c-5.5-4.2-10.8-7.9-15.8-11.1
		c-2.7-1.7-4.8-4.4-5.7-7.5C143.8,68,143.5,60.1,144.9,59.1z M103.2,116c0.3-0.5,1.6-0.8,3.6-0.8c3.3,0,8.6,0.8,15.6,2.7
		c1.4,0.4,2.5,1.2,3.3,2.4c3,4.6,6.6,9.7,10.9,15.2c1.7,2.1-0.3,5.1-2.9,4.4c-6.3-1.8-12.1-3.1-17.3-4.1c-1.3-0.3-2.6-1-3.4-2.1
		C105.5,124.2,102.3,117.4,103.2,116z M65.9,178.9c0.4-1.9,9.3-5.2,24.8-6.6c2.2-0.2,4.4,0.4,6.3,1.7c4.2,2.9,9,6,14.5,9.2
		c3.1,1.8,2.1,6.4-1.4,6.9c-7.4,1-13.8,2.3-19.3,3.6c-2.2,0.5-4.6,0.3-6.6-0.8C71.9,186.4,65.6,180.7,65.9,178.9z M76.9,249.6
		c-0.3-1.6,4.1-6.1,12.7-11.6c2.6-1.7,5.7-2.3,8.7-1.7c4,0.8,8.5,1.5,13.3,2.2c3.4,0.4,4.3,4.9,1.3,6.6c-4.8,2.8-9.2,5.5-13,8.1
		c-2.6,1.8-5.8,2.5-8.9,1.9C82.2,253.4,77.2,251.1,76.9,249.6z M98.2,320.3c-1.9,0-3.1-0.3-3.5-0.8c-1-1.5,2.7-9.7,12-21.1
		c1.9-2.4,4.6-4,7.7-4.5c4.7-0.8,9.8-2,15.4-3.4c3.5-0.9,6.1,3.1,3.9,5.9c-4.2,5.5-7.6,10.5-10.4,15c-1.7,2.7-4.2,4.7-7.2,5.5
		C108.1,319.3,101.9,320.3,98.2,320.3z M171.4,347.8c-0.5,2.7-2,5.1-4.2,6.7c-7.4,5.7-12.9,8.5-15,8.5c-0.3,0-0.5-0.1-0.7-0.2
		c-1.3-0.9-1.2-7.9,1.8-19.1c0.7-2.6,2.3-4.9,4.6-6.4c4.5-3,9.6-6.7,15-11c1.5-1.2,3.8,0.2,3.2,2.1
		C174,335.6,172.5,342.1,171.4,347.8z M214.7,398.5c-0.1,0-0.1,0-0.1,0c-1.9-0.4-5.3-9.5-6.6-25.4c-0.2-1.8,0.3-3.6,1.4-5.1
		c3.4-4.8,7.1-10.5,10.9-17.3c1.3-2.4,4.9-1.6,5.2,1c1.1,8.8,2.5,16.3,4,22.5c0.4,1.8,0.2,3.8-0.7,5.4
		C222.4,391.9,216.7,398.5,214.7,398.5z M281.6,384.7c0,0-0.1,0-0.1,0c-1.3,0-4.8-3.9-9.1-11.3c-0.9-1.6-1.2-3.5-0.8-5.3
		c1.1-5.2,2.1-11,2.8-17.5c0.3-2.7,3.9-3.4,5.2-1c2,3.5,4,6.8,5.9,9.8c0.9,1.4,1.3,3.1,1.2,4.8C285.5,376.9,283.1,384.4,281.6,384.7
		z M355.1,369.6c-0.2,0.1-0.4,0.2-0.7,0.2c-2.6,0-10-3.8-19.9-11.8c-2.6-2.1-4.4-5.2-5-8.5c-1-5.3-2.3-11.2-4.1-17.6
		c-0.7-2.6,2.3-4.6,4.4-3c5.8,4.6,11.5,8.5,16.8,11.9c2.9,1.9,5.1,4.7,6.1,8C356.2,360.9,356.5,368.7,355.1,369.6z M396.8,312.8
		c-0.3,0.5-1.6,0.8-3.6,0.8c-3,0-7.8-0.7-14-2.3c-2.3-0.6-4.3-2-5.6-4c-2.4-3.7-5.2-7.6-8.4-11.7c-2.2-2.8,0.5-6.7,3.9-5.8
		c4.7,1.2,9.1,2.2,13.1,3.1c2.3,0.5,4.3,1.7,5.8,3.6C394.8,305.2,397.6,311.4,396.8,312.8z M434.1,249.8c-0.4,1.9-9.3,5.2-24.7,6.6
		c-2.2,0.2-4.5-0.4-6.3-1.7c-4.1-2.9-8.9-6-14.4-9.2c-3.1-1.8-2.1-6.4,1.4-6.9c7.4-1,13.8-2.3,19.3-3.6c2.3-0.5,4.6-0.2,6.7,0.9
		C428.1,242.4,434.4,248.1,434.1,249.8z M252.1,317c0.1,2.1,1.8,3.7,3.9,3.7c0.1,0,0.3,0,0.4,0c2.1-0.2,3.6-2.1,3.5-4.2l-0.4-6.8
		c-0.1-1.1,1.5-1.5,1.9-0.4c1.7,4.7,3.6,9.5,5.6,14.3c0,0,0,0,0,0c0.8,1.8,1.1,3.8,1.1,5.8c-1.4,44.7-14.7,72.4-18.3,72.4
		c-3.4,0-16.6-26.3-18.2-70.9c-0.1-2,0.3-4,1-5.8c0.2-0.5,0.4-1,0.6-1.5c2.4-5.8,4.5-11.5,6.5-17.1c0.4-1.1,2-0.8,1.9,0.4l-0.9,18.2
		c-0.1,2.2,1.6,4,3.7,4.1c0.1,0,0.1,0,0.2,0c2.1,0,3.8-1.6,3.9-3.7l0.7-17c0-1.1,1.6-1.1,1.7-0.1L252.1,317z M322.9,284.8
		c0.7,0.7,1.7,1,2.6,1c1.1,0,2.3-0.5,3-1.4c1.4-1.6,1-4.1-0.6-5.5l-6.2-5.6c-0.6-0.5,0-1.4,0.7-1.1c5.4,2.6,11.1,5.1,16.9,7.5l0,0
		c1.9,0.8,3.6,1.9,4.9,3.4c30.5,32.6,40.7,61.5,38.2,64c-0.2,0.2-0.7,0.4-1.5,0.4c-6.6,0-32.2-10.2-61.7-37.7
		c-1.4-1.3-2.6-3-3.3-4.8c-0.2-0.5-0.4-1-0.6-1.5c-2.3-5.5-4.7-10.8-7.1-15.9c-0.3-0.7,0.6-1.3,1.1-0.7l9.2,10.3
		c0.8,0.9,1.8,1.3,2.9,1.3c0.9,0,1.8-0.3,2.6-0.9c1.7-1.4,1.7-4.1,0.2-5.7l-10.5-11.5c-0.8-0.8,0.3-2.1,1.2-1.4L322.9,284.8z
		 M297.5,283.1c3.7,7.2,7.3,15,10.8,23.3c19,45.4,17.3,79.5,13.9,81c-0.1,0-0.2,0.1-0.4,0.1c-4.5,0-28.7-21.9-47.5-66.9
		c-3.7-8.8-6.8-17.4-9.4-25.4l-29.6,0.5c-2.5,8-5.6,16.4-9.1,25c-18.1,44.2-42.5,67.1-47.1,67.1c-0.1,0-0.3,0-0.4-0.1
		c-3.4-1.4-5.7-34.6,13.4-81.1c3.9-9.4,8-18.3,12.1-26.3l-12.6-8.4l-18,19.6c-1.5,1.6-1.4,4.1,0.2,5.5c0.7,0.7,1.7,1,2.6,1
		c1.1,0,2.1-0.4,2.9-1.3l10.2-11.1c1.2-1.3,3.2,0.1,2.5,1.6c-2.5,5.2-4.9,10.7-7.2,16.2l0,0c-0.7,1.8-1.9,3.5-3.3,4.8
		c-29.5,27.7-56,38.7-62.7,38.7c-0.7,0-1.2-0.1-1.4-0.4c-2.4-2.4,6.8-30.3,37.2-63c1.4-1.5,3-2.6,4.8-3.4c0.5-0.2,1-0.4,1.5-0.6
		c8.6-3.6,16.8-7.4,24.4-11.3c-2.4-1.3-4.3-3.4-5.5-6c-6.8,3.4-14.2,6.8-21.9,10.1c-29.8,12.5-54.8,16-68.8,16
		c-7.3,0-11.7-1-12.2-2.2c-1.4-3.4,20.5-28.5,66.8-47.8c9-3.7,17.7-6.9,25.9-9.6c-1-2.5-1.3-5.3-0.9-7.9c-0.2,0.1-0.4,0.1-0.6,0.2
		c-0.2-2-0.3-3.9-0.3-5.9l-30.5,1.8c-2.1,0.1-3.8,1.8-3.9,3.8c0,2.2,1.7,4,3.9,4c0.1,0,0.2,0,0.3,0l15.1-0.9
		c1.4-0.1,1.8,1.9,0.5,2.4c-4.1,1.5-8.3,3.2-12.5,5c-0.9,0.4-1.8,0.8-2.7,1.2c-46.5-0.9-75.5-14.7-75.5-18.4
		c0-3.5,27.5-17.2,74.1-18.3c1.4,0.6,2.7,1.2,4.2,1.8c3.9,1.6,7.8,3.1,11.6,4.5c1.3,0.5,0.9,2.5-0.5,2.4h0c-2.2-0.1-4.1,1.6-4.1,3.9
		c0,2.1,1.8,3.8,3.9,3.9l16.4,1c0-1.9,0.1-3.8,0.3-5.7c0.3,0.1,0.6,0.2,0.9,0.3c-0.4-2.7-0.1-5.4,0.9-7.9
		c-8.3-2.6-17.1-5.8-26.2-9.5c-45.5-18.7-68.5-44-67.1-47.5c0.5-1.2,5.1-2.3,12.9-2.3c14,0,38.4,3.4,68.2,15.7
		c9,3.7,17.5,7.6,25.2,11.6l20.6-20.6c-4-7.7-8-16.1-11.7-25.1c-19-45.4-17.3-79.5-13.9-81c0.1,0,0.2-0.1,0.4-0.1
		c4.5,0,28.7,21.9,47.5,66.9c3.6,8.7,6.8,17.2,9.4,25.2l29.4,0.8c2.6-8.3,5.8-17,9.5-26C292.1,63.9,316.4,41,321,41
		c0.1,0,0.3,0,0.4,0.1c3.4,1.4,5.7,34.6-13.4,81.1c-3.6,8.7-7.3,16.9-11.1,24.3c2.6,1.3,4.5,3.6,5.6,6.1c4.4-8.5,8.8-17.8,12.7-27.5
		c0.4-0.9,0.7-1.8,1.1-2.7c30.3-29.2,58.1-40.8,64.9-40.8c0.7,0,1.2,0.1,1.4,0.4c2.5,2.5-7.3,31.6-39.4,65.3
		c-1.4,0.5-2.8,1.1-4.2,1.7c-6.4,2.7-12.6,5.5-18.5,8.3l12.9-11.4c1.4-1.2,1.8-3.3,0.9-4.9c-1.3-2.2-4.2-2.6-6-1l-19.5,17.2
		c1.8,1.9,3.5,3.8,5.2,5.9l1.1-1c1.3,1.5,2.3,3.3,2.8,5.3c7.4-3.8,15.5-7.6,24.1-11.2c29.8-12.5,54.8-16,68.8-16
		c7.3,0,11.7,1,12.2,2.2c1.4,3.4-20.5,28.5-66.8,47.8c-8.9,3.7-17.5,6.9-25.7,9.5c1,2.5,1.3,5.3,0.9,7.9c8.9-2.8,18.3-6.3,27.8-10.3
		c0.9-0.4,1.8-0.8,2.7-1.1c46.5,0.9,75.5,14.7,75.5,18.3c0,3.5-27.5,17.2-74.1,18.3c-1.4-0.6-2.7-1.2-4.2-1.8
		c-9-3.7-17.9-6.9-26.3-9.6c0.3,2.7-0.2,5.4-1.3,7.8c7.9,2.5,16.2,5.5,24.7,9c45.5,18.7,68.5,44,67.1,47.5
		c-0.5,1.2-5.1,2.3-12.9,2.3c-14,0-38.4-3.4-68.2-15.7c-9.3-3.8-18-7.8-25.9-11.9L297.5,283.1z M249,95.1c-0.1-2.2-1.9-3.8-4.1-3.7
		c-2.2,0.1-3.8,1.9-3.7,4.1l1.2,29c0,1.1-1.5,1.4-1.9,0.4c-2.2-6.4-4.8-13-7.5-19.7c0,0,0,0,0,0c-0.8-1.8-1.1-3.8-1.1-5.8
		c1.4-44.7,14.7-72.4,18.3-72.4c3.4,0,16.6,26.3,18.2,70.9c0.1,2-0.3,4-1,5.8c-0.2,0.5-0.4,1-0.6,1.5c-1.9,4.7-3.8,9.4-5.4,14
		c-0.4,1-1.9,0.7-1.8-0.4l0.9-14.6c0.1-2.2-1.6-4.1-3.9-4.1c-2.1,0-3.8,1.8-3.9,3.9l-0.8,14.7c0,0.8-1.3,0.8-1.3,0L249,95.1z
		 M186,150.4l-6.7-6.2c-1.8-1.6-4.7-1.3-6,0.9c-1,1.6-0.6,3.7,0.8,4.9l6.8,6.2c0.7,0.7-0.1,1.9-1,1.4c-6.1-3-12.6-5.8-19.2-8.6
		c0,0,0,0,0,0c-1.9-0.8-3.5-1.9-4.9-3.4c-30.6-32.6-40.7-61.6-38.2-64.1c0.2-0.2,0.7-0.4,1.5-0.4c6.6,0,32.2,10.2,61.7,37.7
		c1.4,1.3,2.6,3,3.3,4.8c0.2,0.5,0.4,1,0.6,1.5c2.2,5.3,4.6,10.6,7,15.6c0.4,0.9-0.8,1.7-1.4,1l-8.1-9c-1.5-1.7-4.1-1.7-5.7-0.2
		c-1.5,1.5-1.4,4,0,5.5l10.1,11.5C187,150.8,186,150.4,186,150.4z"/>
	<path class="st0" d="M193,76c-2,0.8-2.9,3.1-2.1,5.1l24.2,58.9c2.3-1.1,4.8-2.1,7.2-3l-24.2-58.9C197.3,76.2,195,75.2,193,76z"/>
	<path class="st0" d="M356.1,207.3l-24.2,0.7c0.2,2.1,0.3,4.2,0.3,6.3c0,0.5,0,1,0,1.5l24.2-0.7c2.2-0.1,3.9-1.9,3.8-4
		C360,209,358.2,207.3,356.1,207.3z"/>
	<path class="st0" d="M322,137c-1.6-1.5-4-1.4-5.5,0.2L303,151.7c2,1.7,3.9,3.5,5.7,5.3l13.5-14.5C323.7,141,323.6,138.5,322,137z"
		/>
	<path class="st0" d="M308.2,84.9c0.8-2-0.1-4.3-2.1-5.1c-2-0.8-4.3,0.1-5.1,2.1l-23.1,55.3c2.5,0.9,4.9,1.9,7.2,3L308.2,84.9z"/>
	<path class="st0" d="M277.2,291.8l17.4,42.7c0.6,1.5,2.1,2.4,3.6,2.4c0.5,0,1-0.1,1.5-0.3c2-0.8,3-3.1,2.1-5.1l-17.4-42.7
		C282.1,290,279.7,291,277.2,291.8z"/>
	<path class="st0" d="M384.6,164.4c2-0.8,3-3.1,2.2-5.1c-0.8-2-3.1-3-5.1-2.2l-57.1,23c1.1,2.4,2.1,4.8,2.9,7.2L384.6,164.4z"/>
	<path class="st0" d="M324.1,249.7l41.5,17.4c0.5,0.2,1,0.3,1.5,0.3c1.5,0,3-0.9,3.6-2.4c0.8-2-0.1-4.3-2.1-5.1l-41.5-17.4
		C326.3,245,325.2,247.4,324.1,249.7z"/>
	<path class="st0" d="M124.1,262.1c-2,0.8-2.9,3.1-2.1,5.1c0.6,1.5,2.1,2.4,3.6,2.4c0.5,0,1-0.1,1.5-0.3l48.6-20.1
		c-1.1-2.3-2.1-4.8-3-7.2L124.1,262.1z"/>
	<path class="st0" d="M128,163.6c-0.8,2,0.1,4.3,2.1,5.1l42.7,17.8c0.9-2.5,1.9-4.9,3-7.2l-42.7-17.8
		C131.1,160.7,128.8,161.6,128,163.6z"/>
	<path class="st0" d="M195.1,334.8c-0.8,2,0.1,4.3,2.1,5.1c0.5,0.2,1,0.3,1.5,0.3c1.5,0,3-0.9,3.6-2.4l19.5-46.3
		c-2.5-0.9-4.9-1.9-7.2-3L195.1,334.8z"/>
</g>
<g>
	<circle class="st102" cx="250" cy="214.4" r="82.1"/>
	<path class="st103" d="M250,300.4c-47.4,0-86-38.6-86-86c0-47.4,38.6-86,86-86s86,38.6,86,86C336,261.8,297.4,300.4,250,300.4z
		 M250,136.2c-43.1,0-78.2,35.1-78.2,78.2c0,43.1,35.1,78.2,78.2,78.2s78.2-35.1,78.2-78.2C328.2,171.3,293.1,136.2,250,136.2z"/>
	<path class="st103" d="M226.6,275.4c-0.5,0-1-0.1-1.5-0.3c-2.7-1.1-5.4-2.4-7.9-3.9c-1.9-1.1-2.5-3.5-1.4-5.3
		c1.1-1.9,3.5-2.5,5.3-1.4c2.2,1.3,4.6,2.4,7,3.4c2,0.8,3,3.1,2.1,5.1C229.6,274.5,228.2,275.4,226.6,275.4z"/>
	<path class="st103" d="M245,279.8c-0.1,0-0.2,0-0.4,0l-1-0.1c-2.1-0.2-3.7-2.1-3.5-4.2c0.2-2.1,2.1-3.7,4.2-3.5l1,0.1
		c2.1,0.2,3.7,2.1,3.5,4.2C248.7,278.3,247,279.8,245,279.8z"/>
	<path class="st103" d="M259.1,279.3c-1.9,0-3.6-1.4-3.9-3.3c-0.3-2.1,1.2-4.1,3.3-4.4c2.1-0.3,4.1-0.7,6.1-1.2
		c2.1-0.5,4.2,0.7,4.8,2.8c0.5,2.1-0.7,4.2-2.8,4.8c-2.3,0.6-4.6,1.1-6.9,1.4C259.5,279.3,259.3,279.3,259.1,279.3z"/>
	<path class="st103" d="M295,260.5c-1,0-1.9-0.3-2.7-1.1c-1.6-1.5-1.7-3.9-0.2-5.5c0.5-0.6,1.1-1.2,1.6-1.8c1.4-1.6,3.9-1.8,5.5-0.4
		s1.8,3.9,0.4,5.5c-0.6,0.7-1.2,1.3-1.8,2C297,260.1,296,260.5,295,260.5z"/>
	<path class="st103" d="M303.6,248.8c-0.7,0-1.3-0.2-1.9-0.5c-1.9-1.1-2.5-3.5-1.5-5.3c0.2-0.4,0.4-0.7,0.6-1.1
		c1-1.9,3.4-2.6,5.3-1.6c1.9,1,2.6,3.4,1.6,5.3c-0.2,0.4-0.5,0.8-0.7,1.3C306.3,248.1,305,248.8,303.6,248.8z"/>
	<path class="st103" d="M309.7,233.9c-0.3,0-0.7,0-1-0.1c-2.1-0.5-3.3-2.7-2.8-4.8c0.2-0.8,0.4-1.6,0.6-2.5c0.4-2.1,2.5-3.5,4.6-3
		c2.1,0.4,3.5,2.5,3,4.6c-0.2,0.9-0.4,1.9-0.7,2.8C313,232.7,311.5,233.9,309.7,233.9z"/>
	<path class="st103" d="M311.7,218.3c-2.2,0-3.9-1.7-3.9-3.9c0-7.6-1.4-15-4.3-21.9c-0.8-2,0.1-4.3,2.1-5.1c2-0.8,4.3,0.1,5.1,2.1
		c3.2,7.9,4.9,16.3,4.9,24.9C315.6,216.5,313.9,218.3,311.7,218.3z"/>
	<path class="st103" d="M295.7,176.8c-1.1,0-2.1-0.4-2.9-1.3c-1.3-1.5-2.8-2.9-4.2-4.2c-1.6-1.4-1.7-3.9-0.3-5.5
		c1.4-1.6,3.9-1.7,5.5-0.3c1.7,1.5,3.3,3.1,4.8,4.8c1.5,1.6,1.3,4.1-0.3,5.5C297.5,176.5,296.6,176.8,295.7,176.8z"/>
	<path class="st103" d="M276.1,162.4c-0.6,0-1.1-0.1-1.7-0.4c-0.5-0.2-0.9-0.4-1.4-0.6c-2-0.9-2.9-3.2-2-5.1c0.9-2,3.2-2.9,5.1-2
		c0.5,0.2,1,0.5,1.6,0.7c2,0.9,2.8,3.2,1.9,5.2C279,161.5,277.6,162.4,276.1,162.4z"/>
	<path class="st103" d="M252.7,156.6c-0.1,0-0.1,0-0.2,0c-0.8,0-1.7-0.1-2.5-0.1c-2.2,0-3.9-1.7-3.9-3.9s1.7-3.9,3.9-3.9
		c1,0,1.9,0,2.8,0.1c2.2,0.1,3.8,1.9,3.7,4.1C256.5,155,254.8,156.6,252.7,156.6z"/>
	<path class="st31" d="M223.1,162.7c-1.4,0-2.8-0.8-3.5-2.2c-0.9-1.9-0.1-4.3,1.8-5.2c0.3-0.1,0.6-0.3,0.9-0.4
		c2-0.9,4.3-0.1,5.2,1.9c0.9,2,0.1,4.3-1.9,5.2c-0.3,0.1-0.5,0.3-0.8,0.4C224.3,162.6,223.7,162.7,223.1,162.7z"/>
	<path class="st103" d="M207.6,173.5c-1,0-2.1-0.4-2.8-1.2c-1.5-1.6-1.4-4,0.2-5.5l0.5-0.5c1.6-1.5,4.1-1.4,5.5,0.2
		c1.5,1.6,1.4,4.1-0.2,5.5l-0.4,0.4C209.5,173.1,208.5,173.5,207.6,173.5z"/>
	<path class="st31" d="M193.8,192.8c-0.5,0-1.1-0.1-1.6-0.3c-2-0.9-2.8-3.2-1.9-5.2c0.6-1.4,1.3-2.8,2.1-4.2c1-1.9,3.4-2.6,5.3-1.6
		s2.6,3.4,1.6,5.3c-0.7,1.2-1.3,2.4-1.8,3.7C196.7,192,195.3,192.8,193.8,192.8z"/>
	<path class="st103" d="M188.3,218.3c-2.2,0-3.9-1.7-3.9-3.9c0-0.5,0-0.9,0-1.4c0-2.1,1.8-3.8,3.9-3.8c0,0,0.1,0,0.1,0
		c2.2,0,3.9,1.8,3.8,4c0,0.4,0,0.8,0,1.2C192.2,216.5,190.5,218.3,188.3,218.3z"/>
	<path class="st31" d="M189.7,231.4c-1.8,0-3.4-1.3-3.8-3.1c-0.1-0.4-0.2-0.8-0.3-1.3c-0.4-2.1,1-4.2,3.1-4.6c2.1-0.4,4.2,1,4.6,3.1
		c0.1,0.4,0.1,0.7,0.2,1.1c0.5,2.1-0.9,4.2-3,4.6C190.2,231.4,190,231.4,189.7,231.4z"/>
	<path class="st103" d="M199.2,253.4c-1.2,0-2.5-0.6-3.2-1.7c-1.2-1.7-2.3-3.5-3.3-5.3c-1.1-1.9-0.4-4.3,1.5-5.3
		c1.9-1.1,4.3-0.4,5.3,1.5c0.9,1.6,1.9,3.1,2.9,4.6c1.2,1.8,0.8,4.2-1,5.4C200.8,253.1,200,253.4,199.2,253.4z"/>
	<path class="st103" d="M210.2,265.4c-0.9,0-1.8-0.3-2.5-0.9c-0.4-0.4-0.8-0.7-1.2-1.1c-1.6-1.4-1.8-3.9-0.3-5.5
		c1.4-1.6,3.9-1.8,5.5-0.3c0.4,0.3,0.7,0.6,1.1,0.9c1.6,1.4,1.9,3.9,0.5,5.5C212.4,265,211.3,265.4,210.2,265.4z"/>
	<path class="st103" d="M266.5,256.9c-1.5,0-3-0.9-3.6-2.4c-0.8-2,0.1-4.3,2.1-5.1c3.8-1.6,7.3-3.9,10.5-6.7
		c1.6-1.4,4.1-1.3,5.5,0.3c1.4,1.6,1.3,4.1-0.3,5.5c-3.7,3.4-8,6.1-12.6,8.1C267.5,256.8,267,256.9,266.5,256.9z"/>
	<path class="st103" d="M289.8,231.6c-0.4,0-0.8-0.1-1.2-0.2c-2-0.7-3.2-2.9-2.5-4.9c0.2-0.5,0.3-1,0.5-1.5c0.6-2.1,2.8-3.3,4.8-2.7
		c2.1,0.6,3.3,2.8,2.7,4.8c-0.2,0.6-0.4,1.2-0.6,1.8C292.9,230.5,291.4,231.6,289.8,231.6z"/>
	<path class="st103" d="M286.8,198.2c-1.4,0-2.7-0.7-3.4-2c-0.9-1.6-1.8-3.1-2.9-4.5c-1.3-1.7-0.9-4.2,0.8-5.5
		c1.7-1.3,4.2-0.9,5.5,0.8c1.3,1.7,2.5,3.6,3.5,5.5c1,1.9,0.3,4.3-1.6,5.3C288.1,198.1,287.5,198.2,286.8,198.2z"/>
	<path class="st103" d="M272.9,183.2c-0.7,0-1.5-0.2-2.1-0.6c-0.2-0.1-0.4-0.2-0.6-0.4c-1.8-1.1-2.4-3.6-1.2-5.4
		c1.1-1.8,3.6-2.4,5.4-1.2c0.2,0.1,0.5,0.3,0.7,0.4c1.8,1.2,2.3,3.6,1.1,5.4C275.4,182.6,274.2,183.2,272.9,183.2z"/>
	<path class="st103" d="M251.4,176.4c0,0-0.1,0-0.1,0c-0.4,0-0.8,0-1.2,0c-2.2,0-3.9-1.7-3.9-3.9s1.7-3.9,3.9-3.9c0.5,0,1,0,1.5,0
		c2.2,0.1,3.8,1.9,3.8,4C255.2,174.7,253.5,176.4,251.4,176.4z"/>
	<path class="st31" d="M223.8,185.5c-1.1,0-2.3-0.5-3-1.5c-1.3-1.7-1.1-4.1,0.6-5.5c0.3-0.2,0.5-0.4,0.8-0.6c1.7-1.3,4.2-1,5.5,0.7
		c1.3,1.7,1,4.2-0.7,5.5c-0.2,0.2-0.4,0.3-0.6,0.5C225.6,185.3,224.7,185.5,223.8,185.5z"/>
	<path class="st103" d="M208.2,215c-0.1,0-0.2,0-0.3,0c-2.2-0.2-3.8-2-3.6-4.2c0.3-4.1,1.2-8.2,2.6-12c0.7-2,3-3.1,5-2.3
		c2,0.7,3.1,3,2.3,5c-1.2,3.2-1.9,6.6-2.2,10C211.9,213.4,210.2,215,208.2,215z"/>
	<path class="st103" d="M210.1,231.4c-1.6,0-3.2-1-3.7-2.7c-0.3-0.8-0.5-1.7-0.7-2.5c-0.6-2.1,0.7-4.2,2.8-4.8
		c2.1-0.6,4.2,0.7,4.8,2.8c0.2,0.7,0.4,1.4,0.6,2.1c0.7,2-0.4,4.3-2.5,4.9C211,231.3,210.6,231.4,210.1,231.4z"/>
	<path class="st103" d="M224,251.2c-0.8,0-1.7-0.3-2.4-0.8c-1.4-1.1-2.7-2.3-3.9-3.5c-1.5-1.5-1.5-4,0-5.5c1.5-1.5,4-1.5,5.5,0
		c1,1,2.1,2,3.3,2.9c1.7,1.3,2,3.8,0.6,5.5C226.3,250.7,225.2,251.2,224,251.2z"/>
	<path class="st103" d="M237.4,258.3c-0.4,0-0.8-0.1-1.2-0.2c-0.6-0.2-1.2-0.4-1.8-0.6c-2-0.7-3.1-3-2.3-5c0.7-2,3-3.1,5-2.3
		c0.5,0.2,1,0.4,1.5,0.5c2.1,0.6,3.2,2.8,2.6,4.9C240.6,257.2,239,258.3,237.4,258.3z"/>
	<path class="st103" d="M250,260.2c-0.8,0-1.7,0-2.6-0.1c-2.2-0.1-3.8-2-3.7-4.1s1.9-3.8,4.1-3.7c0.7,0,1.4,0.1,2.1,0.1
		c2.2,0,3.9,1.7,3.9,3.9S252.2,260.2,250,260.2z"/>
	<path class="st103" d="M248.5,196c-2,0-3.8-1.6-3.9-3.7c-0.1-2.2,1.5-4,3.6-4.2c0.6,0,1.1-0.1,1.7-0.1c2.2,0,3.9,1.7,3.9,3.9
		s-1.7,3.9-3.9,3.9c-0.4,0-0.8,0-1.2,0C248.7,196,248.6,196,248.5,196z"/>
	<path class="st31" d="M232,205c-0.8,0-1.6-0.2-2.3-0.8c-1.7-1.3-2.1-3.7-0.8-5.5c0.5-0.6,0.9-1.2,1.5-1.8c1.4-1.6,3.9-1.8,5.5-0.3
		c1.6,1.4,1.8,3.9,0.3,5.5c-0.4,0.4-0.7,0.8-1,1.3C234.4,204.5,233.2,205,232,205z"/>
	<path class="st103" d="M230.6,229.4c-1.4,0-2.7-0.7-3.4-2c-0.3-0.5-0.5-0.9-0.7-1.4c-1-1.9-0.2-4.3,1.8-5.2c1.9-1,4.3-0.2,5.2,1.8
		c0.2,0.3,0.3,0.7,0.5,1c1.1,1.9,0.4,4.3-1.5,5.3C231.9,229.2,231.2,229.4,230.6,229.4z"/>
	<path class="st103" d="M250,240.7c-2.2,0-3.9-1.7-3.9-3.9s1.7-3.9,3.9-3.9c2.5,0,4.9-0.5,7.2-1.4c2-0.8,4.3,0.1,5.1,2.1
		c0.8,2-0.1,4.3-2.1,5.1C257,240,253.5,240.7,250,240.7z"/>
	<path class="st103" d="M268.6,230.7c-0.7,0-1.5-0.2-2.2-0.7c-1.8-1.2-2.3-3.6-1.1-5.4c0.2-0.4,0.5-0.7,0.7-1.1
		c1.1-1.9,3.4-2.5,5.3-1.5c1.9,1.1,2.5,3.4,1.5,5.3c-0.3,0.5-0.6,1.1-1,1.6C271.1,230.1,269.9,230.7,268.6,230.7z"/>
	<path class="st103" d="M272.4,218.3c-2.2,0-3.9-1.7-3.9-3.9c0-2.5-0.5-5-1.5-7.3c-0.9-2,0.1-4.3,2-5.1c2-0.9,4.3,0.1,5.1,2
		c1.4,3.3,2.1,6.8,2.1,10.4C276.3,216.5,274.5,218.3,272.4,218.3z"/>
</g>
<g>
	<path class="st14" d="M229.5,437.7l-19-19c-1.4-1.4-3.6-1.4-4.9,0c-0.2,0.2-0.4,0.4-0.6,0.6c-1.4,1.3-1.4,3.6,0,5l21.8,21.8
		c1.4,1.4,3.7,0.4,3.7-1.5v-4.3C230.5,439.3,230.2,438.4,229.5,437.7z"/>
</g>
<path class="st14" d="M261.2,399.9c-2.5,4.8-5.8,9.8-11.4,9.8c-5.5,0-8.8-4.9-11.3-9.6c-0.1-0.1-0.1-0.3-0.2-0.4v58.8
	c0,5.6,4.1,10.5,9.6,11.2c0.6,0.1,1.3,0.1,2,0.1c0.5,0,0.9,0,1.3-0.1c5.9-0.5,10.3-5.5,10.3-11.3v-59.4
	C261.5,399.3,261.4,399.6,261.2,399.9z"/>
</svg>
