<?xml version="1.0" encoding="utf-8"?>
<!-- Generator: Adobe Illustrator 20.1.0, SVG Export Plug-In . SVG Version: 6.00 Build 0)  -->
<svg version="1.1" id="Layer_1" xmlns="http://www.w3.org/2000/svg" xmlns:xlink="http://www.w3.org/1999/xlink" x="0px" y="0px"
	 viewBox="0 0 500 500" style="enable-background:new 0 0 500 500;" xml:space="preserve">
<style type="text/css">
	.st0{fill:#F22F2E;}
	.st1{fill:#F22F2E;stroke:#7B000E;stroke-width:5;stroke-miterlimit:10;}
	.st2{fill:#7C9800;stroke:#164E16;stroke-width:5;stroke-linejoin:round;stroke-miterlimit:10;}
	.st3{fill:#F22F2E;stroke:#7B000E;stroke-miterlimit:10;}
	.st4{fill:#7C9800;}
	.st5{fill:#164E16;}
	.st6{fill:#4D831C;stroke:#2A481D;stroke-width:4;stroke-miterlimit:10;}
	.st7{fill:#6EA336;stroke:#2A481D;stroke-width:4;stroke-linecap:round;stroke-linejoin:round;stroke-miterlimit:10;}
	.st8{fill:#8DCC50;stroke:#A2A121;stroke-width:5;stroke-miterlimit:10;}
	.st9{fill:#4D831C;stroke:#071907;stroke-width:5;stroke-linejoin:round;stroke-miterlimit:10;}
	.st10{fill:#164E16;stroke:#071907;stroke-width:3;stroke-miterlimit:10;}
	.st11{fill:#FFD003;stroke:#D17D01;stroke-width:3;stroke-miterlimit:10;}
	.st12{fill:#E6E6E6;}
	.st13{fill:#D9E021;}
	.st14{fill:#F22F2E;stroke:#7B000E;stroke-width:3;stroke-miterlimit:10;}
	.st15{fill:none;stroke:#FFFFFF;stroke-linecap:round;stroke-linejoin:round;stroke-miterlimit:10;}
	.st16{fill:none;stroke:#FFFFFF;stroke-linecap:round;stroke-miterlimit:10;}
	.st17{fill:#FFFFFF;}
	.st18{fill:none;stroke:#7B000E;stroke-linecap:round;stroke-linejoin:round;stroke-miterlimit:10;}
	.st19{fill:none;stroke:#7B000E;stroke-linecap:round;stroke-miterlimit:10;}
	.st20{fill:#7B000E;}
	.st21{fill:#4D831C;}
	.st22{fill:#2A481D;}
	.st23{fill:#FF7A00;}
	.st24{fill:#FF7A00;stroke:#F44500;stroke-width:3;stroke-miterlimit:10;}
	.st25{fill:none;stroke:#F44500;stroke-linecap:round;stroke-linejoin:round;stroke-miterlimit:10;}
	.st26{fill:#FF7A00;stroke:#F44500;stroke-linecap:round;stroke-linejoin:round;stroke-miterlimit:10;}
	.st27{fill:#F44500;}
	.st28{fill:#8BA00D;stroke:#164E16;stroke-width:3;stroke-linejoin:round;stroke-miterlimit:10;}
	.st29{clip-path:url(#SVGID_2_);}
	.st30{fill:#F40000;stroke:#7B000E;stroke-width:3;stroke-miterlimit:10;}
	.st31{fill:#7DB34C;stroke:#164E16;stroke-width:3;stroke-miterlimit:10;}
	.st32{fill:none;stroke:#164E16;stroke-miterlimit:10;}
	.st33{fill:none;stroke:#7B000E;stroke-width:3;stroke-miterlimit:10;}
	.st34{fill:#A7C92B;stroke:#164E16;stroke-width:3;stroke-miterlimit:10;}
	.st35{fill:none;stroke:#164E16;stroke-linecap:round;stroke-miterlimit:10;}
	.st36{fill:#8BA00D;}
	.st37{fill:#999999;}
	.st38{fill:#A7C92B;}
	.st39{fill:none;stroke:#FEA502;stroke-linecap:round;stroke-linejoin:round;stroke-miterlimit:10;}
	.st40{fill:#FFD003;}
	.st41{fill:#D17D01;}
	.st42{fill:#FEA502;}
	.st43{fill:#4D831C;stroke:#2A481D;stroke-width:3;stroke-linecap:round;stroke-linejoin:round;stroke-miterlimit:10;}
	.st44{fill:#FA6200;stroke:#D54300;stroke-width:3;stroke-miterlimit:10;}
	.st45{fill:#FA6200;stroke:#D54300;stroke-linecap:round;stroke-miterlimit:10;}
	.st46{fill:none;stroke:#F44500;stroke-linecap:round;stroke-miterlimit:10;}
	.st47{fill:#FF9D00;stroke:#E6681E;stroke-linecap:round;stroke-miterlimit:10;}
	.st48{fill:#F97306;}
	.st49{fill:#D54300;}
	.st50{fill:#7DB34C;stroke:#44712A;stroke-width:3;stroke-miterlimit:10;}
	.st51{fill:none;stroke:#44712A;stroke-miterlimit:10;}
	.st52{fill:#7DB34C;}
	.st53{fill:#40760E;}
	.st54{fill:none;stroke:#071907;stroke-miterlimit:10;}
	.st55{fill:none;stroke:#071907;stroke-linecap:round;stroke-linejoin:round;stroke-miterlimit:10;}
	.st56{fill:#071907;}
	.st57{fill:#44712A;}
	.st58{fill:#6E905E;}
	.st59{fill:#456A0A;}
	.st60{fill:#183300;}
	.st61{fill:#FF2214;}
	.st62{fill:#661900;}
	.st63{fill:#FFDC00;}
	.st64{fill:#7C9800;stroke:#164E16;stroke-width:3;stroke-miterlimit:10;}
	.st65{fill:none;stroke:#D17D01;stroke-width:0.75;stroke-miterlimit:10;}
	.st66{fill:#7C9800;stroke:#164E16;stroke-linejoin:round;stroke-miterlimit:10;}
	.st67{fill:none;stroke:#164E16;stroke-linejoin:round;stroke-miterlimit:10;}
	.st68{fill:#8A9D1F;}
	.st69{fill:#1B4700;}
	.st70{fill:none;stroke:#7C9800;stroke-width:3;stroke-linecap:round;stroke-linejoin:round;stroke-miterlimit:10;}
	.st71{opacity:0.6;fill:none;stroke:#FFFFFF;stroke-linecap:round;stroke-miterlimit:10;}
	.st72{fill:none;stroke:#7B000E;stroke-miterlimit:10;}
	.st73{opacity:0.4;fill:none;stroke:#FFFFFF;stroke-linecap:round;stroke-linejoin:round;stroke-miterlimit:10;}
	.st74{fill:none;stroke:#FFFFFF;stroke-width:7.8511;stroke-linecap:round;stroke-miterlimit:10;}
	.st75{fill:#B0C06B;}
	.st76{fill:#F8ACAC;}
	.st77{fill:none;stroke:#FFFFFF;stroke-width:7.7562;stroke-linecap:round;stroke-miterlimit:10;}
	.st78{fill:none;stroke:#164E16;stroke-width:0.851;stroke-miterlimit:10;}
	.st79{opacity:0.3;}
	.st80{fill:#6EA336;}
	.st81{opacity:0.3;fill:#7B000E;}
	.st82{opacity:0.2;fill:none;stroke:#2A481D;stroke-linecap:round;stroke-linejoin:round;stroke-miterlimit:10;}
	.st83{fill:#CC242B;}
	.st84{fill:#5B8734;}
	.st85{fill:#4D831C;stroke:#071907;stroke-miterlimit:10;}
	.st86{fill:none;stroke:#071907;stroke-linecap:round;stroke-miterlimit:10;}
	.st87{opacity:0.7;fill:none;stroke:#FFFFFF;stroke-linecap:round;stroke-miterlimit:10;}
	.st88{opacity:0.7;fill:#FFFFFF;}
	.st89{fill:#B9CAB9;}
	.st90{fill:#F6E600;}
	.st91{fill:#8DCC50;}
	.st92{fill:#A2A121;}
	.st93{fill:#F9EFA7;}
	.st94{fill:#F6E600;stroke:#A2A121;stroke-width:3;stroke-miterlimit:10;}
	.st95{opacity:0.3;fill:none;stroke:#A2A121;stroke-linecap:round;stroke-linejoin:round;stroke-miterlimit:10;}
	.st96{fill:none;stroke:#A2A121;stroke-width:3;stroke-miterlimit:10;}
	.st97{fill:#8DCC50;stroke:#A2A121;stroke-miterlimit:10;}
	.st98{fill:#DCCF2F;}
	.st99{fill:#F22F2E;stroke:#7B000E;stroke-linecap:round;stroke-miterlimit:10;}
	.st100{fill:#6EA336;stroke:#2A481D;stroke-linecap:round;stroke-linejoin:round;stroke-miterlimit:10;}
	.st101{fill:none;stroke:#2A481D;stroke-linecap:round;stroke-linejoin:round;stroke-miterlimit:10;}
	.st102{fill:#639D2E;stroke:#164E16;stroke-width:5;stroke-miterlimit:10;}
	.st103{fill:#639D2E;stroke:#164E16;stroke-miterlimit:10;}
	.st104{opacity:0.5;fill:none;stroke:#D54300;stroke-linecap:round;stroke-miterlimit:10;}
	.st105{fill:#E5531B;}
	.st106{opacity:0.3;fill:none;stroke:#D17D01;stroke-linecap:round;stroke-linejoin:round;stroke-miterlimit:10;}
	.st107{fill:#E6A627;}
	.st108{fill:#A3B653;}
	.st109{fill:none;stroke:#164E16;stroke-linecap:round;stroke-linejoin:round;stroke-miterlimit:10;}
	.st110{fill:#FAC1C1;}
	.st111{clip-path:url(#SVGID_4_);}
	.st112{fill:none;stroke:#D9E021;stroke-miterlimit:10;}
	.st113{fill:#A7C92B;stroke:#164E16;stroke-width:5;stroke-linecap:round;stroke-linejoin:round;stroke-miterlimit:10;}
	.st114{fill:#64A025;}
	.st115{fill:#547C1F;stroke:#164E16;stroke-linecap:round;stroke-miterlimit:10;}
	.st116{fill:#547C1F;}
</style>
<g>
	<path class="st114" d="M206.9,487.3c-52.6,0-97.3-16.4-129.2-47.6c-34-33.1-42.7-70.9-44.9-85.7c-3.9-26.6,0.4-54.1,12.5-79.4
		c22.7-47.3,72.7-77.9,127.4-77.9c0.5,0,1.8,0,1.8,0c9.5,0.1,17.3,6.7,19.1,16c1.7,9.3-3.2,18.3-12,21.8
		c-14.1,5.6-26.3,13.3-36.4,22.7c-18.5,17.3-31,40.8-35.3,66.2l-0.6,16.5c18.9,21.2,49.9,33.8,83.9,33.8c32,0,61.1-11.1,79.9-30.3
		c36.6-37.5,58.9-85.7,62.9-135.8c0.9-11.1,1.1-22.5,0.5-33.8c-1-20.7,9.5-40.6,27.4-51.8l0.6-0.4c11.4-7.1,24.5-10.9,37.9-10.9
		c13.2,0,26.1,3.6,37.4,10.6c15.9,9.7,26.3,26.4,27.8,44.7c6.2,76.3-12.3,150.8-52.2,209.9c-40.5,60-99.3,98.4-165.6,108
		C234.9,486.2,220.5,487.3,206.9,487.3C206.9,487.3,206.9,487.3,206.9,487.3z"/>
	<path class="st17" d="M365.6,243.2c-0.3,0-0.5,0-0.8-0.1c-2.1-0.4-3.5-2.5-3-4.6c1.9-9.4,3.2-18.9,4-28.4c0.2-2.1,2-3.8,4.2-3.6
		c2.1,0.2,3.7,2,3.6,4.2c-0.8,9.8-2.2,19.6-4.1,29.3C369,241.9,367.4,243.2,365.6,243.2z"/>
	<path class="st17" d="M355.1,280.1c-0.5,0-0.9-0.1-1.4-0.2c-2-0.7-3-3-2.3-5c1.4-3.9,2.8-7.8,4-11.7c0.6-2.1,2.8-3.2,4.9-2.5
		c2.1,0.6,3.2,2.8,2.5,4.9c-1.3,4-2.7,8.1-4.1,12.1C358.1,279.2,356.7,280.1,355.1,280.1z"/>
	<path class="st17" d="M126.8,239.8c-1.4,0-2.7-0.7-3.4-2c-1.1-1.9-0.4-4.3,1.5-5.3c1.9-1.1,3.9-2.1,5.9-3.1
		c1.9-0.9,4.3-0.2,5.2,1.8c1,1.9,0.2,4.3-1.8,5.2c-1.8,0.9-3.7,1.9-5.5,2.9C128.1,239.7,127.4,239.8,126.8,239.8z"/>
	<path class="st5" d="M206,425.9c-1.1,0-2.3,0-3.4,0c-14.8-0.3-28.6-2.5-40.8-6.5c-2-0.7-3.2-2.9-2.5-4.9s2.9-3.2,4.9-2.5
		c11.5,3.8,24.5,5.8,38.5,6.1c4.2,0.1,8.5,0,12.8-0.2c2.2-0.1,4,1.5,4.1,3.7c0.1,2.1-1.5,4-3.7,4.1
		C212.6,425.8,209.2,425.9,206,425.9z"/>
	<path class="st116" d="M408.1,68.1c-6.5-17.7-17.9-34.6-37.5-45.9c-4.9-2.8-10.9-2.3-15,1.6c-6.5,6.2-4.8,16.2,2.3,20.3
		c3,1.7,5.8,3.6,8.3,5.8c20.9,17.7,23.5,49.2,8,71.8L347,161.1h0c5.8,3.5,11.6-2,17.6,0.3c5.7,2.2,11.6,12.3,17.6,13.4
		c6.5,1.2,13.2-6.6,20-6.7c6.6-0.1,13.4,7.6,20.1,6.3c6.3-1.2,12.5-11.4,18.5-13.7c5.7-2.2,11.3,3.5,16.5,0.4l-10.6-15.4
		C430.3,121.8,418.1,95.4,408.1,68.1z"/>
	<path class="st5" d="M324.7,174.5c-0.3,10.8,0.3,21.7-0.5,32.3c-3.8,47.4-24.9,93.1-59.6,128.6c-16.6,17-42.7,26.8-71.5,26.8
		c-24.7,0-47.4-7.1-64-19.6c-5.1-3.8-7.9-9.9-7.7-16.2l0,0c0-1,0.1-2,0.3-3c4.3-22,15.3-42.3,31.4-57.4c8.9-8.3,19.7-15.1,32.2-20.2
		c13.8-5.6,22.3-20,19.8-34.7c-2.6-15.1-15.3-25.8-30.5-25.9l-0.3,0c-0.6,0-1.1,0-1.6,0c-28.6,0-56.6,7.7-80.9,22.3
		c-25,15-44.7,36.5-57,62.2c-13.1,27.4-17.8,57.2-13.6,86.1c2.3,15.9,11.7,56.7,48.3,92.3c16.1,15.7,35.1,27.9,56.7,36.5
		c24.1,9.5,51.2,14.4,80.7,14.4c14.2,0,29.1-1.1,44.5-3.4c69.6-10.1,131.2-50.2,173.6-113c41.3-61.2,60.6-138.5,54.2-217.4
		c-1.3-15.8-8.1-30.7-19-42.2c-9.6-10.1-17.1-21.9-22.8-34.7c-3.8-8.5-7.4-17.4-10.9-27c0,0,0,0,0,0c-9.2-25-24.7-43.8-46.2-56.1
		c-12.6-7.2-27.9-5.4-38.1,4.5C334.6,17,331,27,332.3,37.1c1.3,10,7.2,19,16,23.9c1.9,1.1,3.7,2.3,5.3,3.7
		c12.8,10.8,14.8,31,4.5,45.9S325.7,139.3,324.7,174.5z M439.5,157.1c-3.6,1.3-6.7,4.4-9.8,7.4c-2.8,2.7-5.9,5.7-8.1,6.1
		c-2.3,0.5-5.2-1.1-8.3-2.7c-3.5-1.8-7-3.7-11.1-3.6c-4.1,0.1-7.9,2.1-11.2,4c-3,1.7-5.9,3.2-8,2.8c-2-0.4-4.9-3.3-7.5-5.9
		c-2.9-2.9-5.9-6-9.4-7.3c-1.6-0.6-3.2-0.7-4.7-0.9l-0.1,0c-2.8-0.2-4.4-3.3-2.8-5.7l18.8-27.4c17-24.7,13.2-58.5-8.7-77
		c-2.7-2.3-5.6-4.3-8.7-6.1c-2.4-1.4-4.2-3.8-4.6-6.5c-0.4-2.8,0.6-5.6,2.8-7.7c2.7-2.6,6.9-3,10.3-1c16.5,9.4,28.6,24.2,35.8,43.8
		c4.6,12.5,9.4,24.1,14.5,35c2.3,4.8-1.5,10.3-6.8,9.8c-1.8-0.2-3.6-0.2-5.5-0.2h0c-1.5,0-2.9,0.8-3.5,2.2c-1.2,2.8,0.8,5.6,3.5,5.6
		c0.2,0,0.4,0,0.6,0c12.4,0.2,23.8,6.7,30.4,17.2c1.9,3.1,3.9,6.1,5.9,9l0.1,0.1c2.3,3.3,0.5,7.8-3.4,8.9
		C439.9,157,439.7,157.1,439.5,157.1z M248,472.5c-14.5,3-28.3,3.1-41.1,3.1c-113,0-155.7-76.9-162.5-123.2
		c-3.8-25.6,1-50.7,11.5-72.6c21.3-44.4,67.6-71.2,116.8-71.2c0.4,0,0.9,0,1.4,0l0.3,0c8.7,0.1,10.9,12.1,2.9,15.3
		c-14.7,5.9-28.5,14.2-40.1,25.1c-17.3,16.3-29.6,37-35.9,59.4c-1.3,4.2-2.3,8.4-3.2,12.7c-4.3,21.7-3.2,44.2,3.3,65.2
		c0.5,1.7,2,2.7,3.7,2.7c0.7,0,1.4-0.2,2-0.5c1.6-0.9,2.3-2.9,1.7-4.6c-1.2-3.8-2.1-7.6-2.9-11.5c-1.5-7.3,6.6-12.7,12.8-8.5
		c21.1,14.5,47.8,21.8,74.5,21.8c33.1,0,66.2-11.2,88.3-33.8c37.8-38.7,61.9-89.2,66.1-143.1c0.9-11.5,1.1-23.3,0.6-35.3
		c0-0.1,0-0.2,0-0.3c-0.1-3.6,2.6-6.6,6.1-7.1c1.1-0.2,2.1-0.4,3.1-0.6c2.3-0.5,4.3-1,6-0.3c1.9,0.7,4.3,3.2,6.7,5.5
		c3.5,3.6,7.2,7.3,11.6,8.1c0.7,0.1,1.4,0.2,2.1,0.2c4,0,7.7-2,11-3.8c0,0,0,0,0,0c1.5-0.8,3.2,0.2,3.3,1.9l0.1,9.4l0,0.1
		c2.2,54.4-11.6,107.3-38.9,148.9c-27.3,41.7-66.7,69.5-110.7,78.2c-2.1,0.4-3.5,2.5-3.1,4.6c0.4,1.9,2,3.1,3.8,3.1
		c0.3,0,0.5,0,0.8-0.1c46.1-9.2,87.2-38.1,115.7-81.6c28.1-42.9,42.4-97.4,40.2-153.4l-0.1-9.8c0-1.7,1.7-2.8,3.2-2
		c0.2,0.1,0.5,0.2,0.7,0.4c4,2.1,8.5,4.4,13.5,3.5c4.5-0.9,8.4-4.6,12.1-8.2c2.5-2.4,5.1-4.9,7.1-5.7c1.5-0.6,3.4-0.1,5.6,0.5
		c0.8,0.2,1.7,0.5,2.7,0.7c3.1,0.7,5.4,3.4,5.5,6.6C457.2,212.3,454.3,430.2,248,472.5z"/>
	<circle class="st17" cx="148.8" cy="224.9" r="4.7"/>
	<path class="st5" d="M76.5,301.8c-0.4,0-0.8-0.1-1.2-0.2c-2.1-0.6-3.2-2.8-2.5-4.9c1.4-4.6,3.2-9.1,5.2-13.5c0.9-2,3.2-2.8,5.2-1.9
		c2,0.9,2.8,3.2,1.9,5.2c-1.9,4.1-3.5,8.4-4.8,12.6C79.7,300.7,78.2,301.8,76.5,301.8z"/>
	<path class="st5" d="M91.2,271.8c-0.8,0-1.6-0.2-2.2-0.7c-1.8-1.2-2.2-3.7-0.9-5.4c6-8.5,13.1-16.1,21.4-22.7
		c1.7-1.3,4.1-1.1,5.5,0.6c1.3,1.7,1.1,4.1-0.6,5.5c-7.6,6.1-14.3,13.2-19.9,21.1C93.6,271.3,92.4,271.8,91.2,271.8z"/>
</g>
</svg>
