<?xml version="1.0" encoding="utf-8"?>
<!-- Generator: Adobe Illustrator 20.0.0, SVG Export Plug-In . SVG Version: 6.00 Build 0)  -->
<svg version="1.1" id="Layer_1" xmlns="http://www.w3.org/2000/svg" xmlns:xlink="http://www.w3.org/1999/xlink" x="0px" y="0px"
	 viewBox="0 0 64 64" style="enable-background:new 0 0 64 64;" xml:space="preserve">
<style type="text/css">
	.st0{fill:#D48C64;}
	.st1{fill:#C68460;}
	.st2{fill:#66452C;}
</style>
<path class="st0" d="M48,2.9c-0.9-0.1-1.9-0.1-2.9-0.1c-4.7,0-11.7,0.8-18.8,4.8c-7.2,4-11.4,11.9-11.4,12
	c-3.4,6.1-6.2,15.7-7.1,24.1c-0.7,6-3.4,10.9-5,13.2c-0.2,0.3-0.2,0.7-0.1,1.1c0.2,0.7,0.9,1.3,1.6,1.6c4.1,1.4,8.5,2.2,13,2.2
	c15.2,0,27.4-8.2,27.9-8.6c15.7-11,16.2-28.3,16.2-29c0-5.3-0.5-13.2-3.4-20.6c-0.3-0.8-1.2-1.3-1.8-1.3c-0.1,0-0.2,0-0.3,0
	C54.4,2.7,52.3,3,50.2,3C49.5,3,48.7,3,48,2.9z"/>
<g>
	<path class="st1" d="M18.4,61.1l1.2-1.2c-1.3-0.9-1.9-1.6-0.8-2.5c0.6-0.5,1-1.6,1.5-1.6c0.4-0.1,0.4-0.3,0.9-0.3
		c0-0.2,1.3,0,1.3-0.2c-1-0.6-3.2-0.7-3.5-1.9c-0.2-0.7,0-2.4,0.5-2.9c0.7-0.7,2.3-0.1,3-0.3c0.6-0.4,1.4-1.8,2.2-1.8
		c1.1,0.1,1.2,2.5,1.8,3.3c0.5-0.1,1.6,0,2.1,0.1c0.2,0,1.5-0.5,1.7-0.5c0-0.4-1.2-1.4-1-1.8c0.2-0.5,1.1-0.7,1.6-1
		c-0.2-0.4,0.3-1.1,0.3-1.6c-0.3-2.4,0.1-4.9,2.3-5.2c1-1,3.5-1.5,5.2-0.5c1.5,0.9,0.9,3.5,0.6,4.8c0.7,0.2,1.8,1.6,2.3,2
		c1.1-0.6,2.5-2.9,3.8-2.5c0.2-0.1,0.5,1.3,0.7,1.3c0.2-0.3,0.2-1,0.4-1.3c-0.3-0.4-0.2-1.2-0.3-1.7c-1.7-1.1-2.2-2.8,0.2-4.1
		c4.2-2.3,7.1,1.8,6.6,5.3C52.9,45.1,46.5,60.6,18.4,61.1"/>
</g>
<g>
	<path class="st1" d="M50.8,4.1c0.4,0.7-0.2,0.9-0.6,1.6C51,6.6,51.7,7.6,51.3,9l0.9,0.8c1.2,0.1,2.2,0.5,1.7,1.9
		c-0.2,0.5-0.4,1.2-0.7,1.7c0.6,1.2-0.3,1.1-1.7,1.6c-0.3,0.4,0.4,2.2,0.1,2.7c-0.2,1-0.3,2.2-1,3.1c-0.1,0.2-1.3-0.4-1.5-0.2
		c-0.5,0.7-1.4,1.1-1.9,1.7c-0.4,0.6,0,1.8-0.5,1.8c-1,0.9-2.3,1-3.8,0.5c-0.6-0.2-1.3,0.8-1.7,0.5c-0.8,0.2-1.1-1.5-1.5-2.2
		c-0.4-0.8,0-2-0.2-2.7c-0.5-0.3-2.5,1-3,0.7c-0.1-0.1,0.1,0,0-0.1c-0.3,0,0.2-0.7,0-0.7c-0.1,1.1-1.5,1.1-2.9,1.4
		c-1.1,0.3-2,0.8-2.6,0.1c-0.3,0.1-0.4-1.2-0.7-1.3c-2.1-0.1-2.4-0.6-2.3-2.1C27,18,25.8,18,25.9,17c-1.8,0.5-3.3-0.6-4.5-1.3
		c-1.7-1-1.6-2.1-0.9-3.5C20.8,12.2,32.9-0.7,50.8,4.1"/>
</g>
<g>
	<path class="st1" d="M29.8,28.7c-0.5-1.2-2.5-1.1-3.5-1c-0.1-0.4-1-0.1-1.2-0.5c-0.6-1.1-0.5-0.8-1.3,0.1c-0.5,0.6-1.9,0.4-2,1.1
		c-1.1-0.3-1,0.9-1.2,2.1c0,0.3-0.5,0.3-0.4,0.6l-2.1,0.6c0.1,0.4,0.9,0.8,1.1,1.1c0.7,1.3,3.1,1.2,4.7,0.4c0.7,0.6,1.2,0.3,2-0.2
		c0.1,0,0.4-0.3,0.6-0.3C28.3,32.2,31.3,30.2,29.8,28.7z"/>
</g>
<g>
	<path class="st1" d="M17.1,45.4c0.3-1,0.4-3-0.5-3.6c-0.4-0.2-1.5,1.3-1.9,1.2c0-0.1,0.6-1.1,0.6-1.2c-0.4-0.9-1.8,0.4-2.7,0.6
		c-0.4-0.1-0.9-2.2-1.3-2.2c-0.3,0-0.5,0.8-0.7,0.8c-0.1,0-0.5,1-0.6,1c-0.4-0.3-0.9,0.2-1.2,0.3c-0.8,0.2-0.4,0-0.6,0.8
		c-0.4,1.5-0.5,2,1,2.3c0.2,0,0.9-0.2,1-0.2c0.1,0.1-0.9,1.2-0.9,1.2c0.1,0.3,1.4,0.1,1.5,0.3c0.3,0.7-0.3,2,0.4,2.1
		c0.6,0.6,1.6,1.4,2.4,1.4C16.2,50.5,17.8,47.5,17.1,45.4z"/>
</g>
<g>
	<path class="st1" d="M59.4,34c-1.2,1.2-3.4,1.4-5,0.1c-0.6-0.5-2-0.6-2-1.2l-1.6-2c-0.1-1.8-0.8-5,0.6-6.3c0.7-0.7,2.4,0.1,3.3,0.5
		c0.4,0.2,1.2-0.1,1.5,0.2c0,0-0.5,1.1-0.4,1.2c0.5,0.1,0.4,0.7,0.7,1.1c0.2,0,1.3-1.1,1.6-1.1s1.1-1,1.4-0.9l1.5,2L59.4,34z"/>
</g>
<g>
	<path class="st2" d="M17.3,63.7c-4.4,0-9-0.6-13.6-2.3c-1.3-0.5-2.4-1.5-2.8-2.8c-0.3-1-0.2-2,0.3-2.8c1.5-2.2,4-6.8,4.6-12.3
		c0.9-8.6,3.9-18.5,7.3-24.8c0.2-0.3,4.6-8.5,12.2-12.8l0,0C34.9,0.5,44.5,0.7,48.2,1c3.1,0.3,5.7-0.1,7.1-0.5
		C57-0.1,59.1,1,59.9,2.9c3,7.7,3.6,15.9,3.5,21.4c0,0.8-0.5,19-17,30.6C45.6,55.3,33.1,63.7,17.3,63.7z M26.8,8.5
		c-6.9,3.9-11,11.5-11.1,11.6c-3.2,5.9-6.1,15.6-7,23.7c-0.6,5.9-3.1,10.7-5.1,13.7c-0.1,0.2,0.3,0.9,1,1.2
		c20.1,7.1,39.8-6.1,40-6.3c15.3-10.7,15.7-28,15.7-28.2c0.1-5.2-0.4-13-3.2-20.2c-0.2-0.5-0.8-0.8-1-0.7c-2.2,0.7-5.2,0.9-8.2,0.6
		C44.5,3.6,35.7,3.5,26.8,8.5L26.8,8.5z"/>
</g>
<circle class="st2" cx="16.1" cy="43" r="1.5"/>
<circle class="st2" cx="38.7" cy="20.8" r="1.5"/>
<circle class="st2" cx="45.7" cy="46.6" r="1.5"/>
<circle class="st2" cx="44.8" cy="9.5" r="1.5"/>
<circle class="st2" cx="52.3" cy="20.1" r="1.5"/>
</svg>
