<?xml version="1.0" encoding="utf-8"?>
<!-- Generator: Adobe Illustrator 20.0.0, SVG Export Plug-In . SVG Version: 6.00 Build 0)  -->
<svg version="1.1" xmlns="http://www.w3.org/2000/svg" xmlns:xlink="http://www.w3.org/1999/xlink" x="0px" y="0px"
	 viewBox="0 0 1000 1000" style="enable-background:new 0 0 1000 1000;" xml:space="preserve">
<style type="text/css">
	.st0{fill:none;stroke:#45210A;stroke-width:3;stroke-linecap:round;stroke-linejoin:round;stroke-miterlimit:10;}
	.st1{fill:#00FFFF;}
	.st2{clip-path:url(#SVGID_2_);}
	.st3{clip-path:url(#SVGID_4_);}
	.st4{clip-path:url(#SVGID_6_);}
	.st5{fill:#D2C6C6;}
	.st6{fill:#D2C6C6;stroke:#534741;stroke-miterlimit:10;}
	.st7{fill:#B28A5C;stroke:#45210A;stroke-width:3;stroke-linecap:round;stroke-linejoin:round;stroke-miterlimit:10;}
	.st8{fill:none;stroke:#87562E;stroke-miterlimit:10;}
	.st9{fill:none;stroke:#87562E;stroke-linecap:round;stroke-linejoin:round;stroke-miterlimit:10;}
	.st10{fill:none;stroke:#FFFFFF;stroke-linecap:round;stroke-linejoin:round;stroke-miterlimit:10;}
	.st11{fill:none;stroke:#45210A;stroke-linecap:round;stroke-linejoin:round;stroke-miterlimit:10;}
	.st12{fill:#45210A;}
	.st13{fill:#FFFFFF;}
	.st14{fill:#488C00;}
	.st15{fill:#488C00;stroke:#006837;stroke-linejoin:round;stroke-miterlimit:10;}
	.st16{fill:#488C00;stroke:#006837;stroke-width:0.899;stroke-linejoin:round;stroke-miterlimit:10;}
	.st17{fill:#FCEE21;}
	.st18{fill:none;stroke:#FFFFFF;stroke-linecap:round;stroke-miterlimit:10;}
	.st19{fill:#FFCADE;}
	.st20{fill:none;stroke:#386100;stroke-width:4;stroke-linejoin:round;stroke-miterlimit:10;}
	.st21{fill:#519900;}
	.st22{fill:#386100;}
	.st23{fill:none;stroke:#386100;stroke-width:0.25;stroke-linecap:round;stroke-linejoin:round;stroke-miterlimit:10;}
	.st24{fill:none;stroke:#386100;stroke-linecap:round;stroke-linejoin:round;stroke-miterlimit:10;}
	.st25{fill:#519900;stroke:#386100;stroke-linejoin:round;stroke-miterlimit:10;}
	.st26{fill:none;stroke:#95B22F;stroke-linecap:round;stroke-linejoin:round;stroke-miterlimit:10;}
	.st27{fill:#95B22F;}
	.st28{fill:#B28A5C;}
	.st29{fill:#87562E;}
</style>
<g id="Layer_1">
	<path class="st28" d="M778.2,771.6c-151.1,151.1-441.2,245.7-604.9,82s-69.1-453.8,82-604.9S696.5,3,860.2,166.7
		S929.3,620.5,778.2,771.6z"/>
	<path class="st12" d="M393.8,963.3c-28.9,0-56.8-3-83.4-9c-59.9-13.4-111.7-41.7-154-83.9c-42.2-42.2-70.5-94-83.9-154
		c-12-53.7-11.9-112.5,0.3-174.7c22.2-112.6,84.1-228.5,165.6-310c81.5-81.5,197.3-143.4,310-165.6c62.2-12.3,120.9-12.4,174.7-0.3
		c59.9,13.4,111.7,41.7,154,83.9c42.2,42.2,70.5,94,83.9,154c12,53.7,11.9,112.5-0.3,174.7C938.4,591.1,876.5,707,795,788.4
		l-16.8-16.8l16.8,16.8c-81.5,81.5-197.3,143.4-310,165.6C453.7,960.2,423.2,963.3,393.8,963.3z M639.7,104.6
		c-26.3,0-53.7,2.8-82.1,8.4c-103.7,20.5-210.5,77.5-285.5,152.5c-75,75-132.1,181.8-152.5,285.5c-11,55.6-11.2,107.8-0.6,155
		c11.4,51,35.3,95,71.1,130.7c35.7,35.7,79.7,59.7,130.7,71.1c47.2,10.6,99.4,10.4,155-0.6c103.7-20.5,210.5-77.5,285.5-152.5
		S893.4,573,913.9,469.2c11-55.6,11.2-107.8,0.6-155c-11.4-51-35.3-95-71.1-130.7c-35.7-35.7-79.7-59.7-130.7-71.1
		C689.5,107.2,665.1,104.6,639.7,104.6z"/>
	<path class="st29" d="M749.9,801c-85-49.7-196.4-139.2-290.7-233.4S275.6,362,225.8,276.9l13.7-8
		c49.1,83.9,137.6,194.1,230.9,287.5C563.9,649.8,674,738.3,758,787.3L749.9,801z"/>
	<path class="st29" d="M606.2,894.1C525.9,842,428.9,762,346.9,680c-82-82-162.1-179-214.1-259.3l13.3-8.6
		c51.5,79.5,130.7,175.5,212,256.7c81.3,81.3,177.3,160.5,256.7,212L606.2,894.1z"/>
	<path class="st29" d="M850.8,681.9c-83.1-50.6-190-137.4-279.2-226.6C482.5,366.1,395.6,259.1,345,176l13.6-8.3
		c50,82.1,135.9,187.9,224.3,276.2c88.3,88.3,194.2,174.3,276.2,224.3L850.8,681.9z"/>
	<path class="st29" d="M921.8,541c-1.6,0-3.1-0.5-4.5-1.4C842.1,487.6,757,415.9,684,342.9c-73-73-144.7-158.1-196.7-233.4
		c-2.5-3.6-1.6-8.6,2-11c3.6-2.5,8.6-1.6,11,2c51.5,74.5,122.5,158.8,194.9,231.2c72.4,72.4,156.6,143.4,231.2,194.9
		c3.6,2.5,4.5,7.4,2,11C926.8,539.8,924.4,541,921.8,541z"/>
	<path class="st29" d="M944.4,361c-1.8,0-3.5-0.6-5-1.8c-49.7-40.3-99.2-84.8-143.1-128.7c-43.9-43.9-88.4-93.4-128.7-143.1
		c-2.8-3.4-2.2-8.4,1.2-11.2c3.4-2.8,8.4-2.2,11.2,1.2c39.9,49.3,84.1,98.3,127.6,141.9c43.5,43.5,92.6,87.7,141.9,127.6
		c3.4,2.8,3.9,7.8,1.2,11.2C949,360,946.7,361,944.4,361z"/>
	<path class="st29" d="M408.1,945.2c-58.9-45.5-120.5-99.8-173.6-152.9c-53-53-107.3-114.7-152.9-173.6l12.6-9.7
		c45.1,58.4,98.9,119.5,151.5,172c52.6,52.6,113.7,106.4,172,151.5L408.1,945.2z"/>
	<path class="st13" d="M547.2,145.8c-3.2,0-6.2-2-7.4-5.1c-1.5-4.1,0.5-8.7,4.6-10.2c9.4-3.5,18.9-6.9,28.3-9.8
		c4.2-1.3,8.6,1,10,5.2c1.3,4.2-1,8.6-5.2,10c-9.1,2.9-18.3,6.1-27.5,9.5C549,145.6,548.1,145.8,547.2,145.8z"/>
	<path class="st13" d="M411.6,215.5c-2.6,0-5.1-1.3-6.6-3.6c-2.4-3.7-1.4-8.6,2.3-11c20.1-13.2,40.8-25.5,61.7-36.5
		c3.9-2,8.7-0.6,10.7,3.3s0.6,8.7-3.3,10.7c-20.5,10.8-40.8,22.8-60.4,35.7C414.6,215.1,413.1,215.5,411.6,215.5z"/>
	<path class="st13" d="M302.5,303.8c-2,0-4.1-0.8-5.6-2.3c-3.1-3.1-3.1-8.1,0-11.2c17-17,35.5-33.5,55.3-49.3
		c3.4-2.7,8.4-2.2,11.2,1.2c2.7,3.4,2.2,8.4-1.2,11.2c-19.3,15.4-37.4,31.6-54,48.2C306.5,303.1,304.5,303.8,302.5,303.8z"/>
	<path class="st12" d="M196.9,440.5c-1.4,0-2.8-0.4-4.1-1.1c-3.8-2.2-5-7.1-2.7-10.9c15.6-26.2,33-51.6,51.6-75.5
		c2.7-3.5,7.7-4.1,11.1-1.4c3.5,2.7,4.1,7.7,1.4,11.1C236,386.2,219,411,203.7,436.6C202.2,439.1,199.6,440.5,196.9,440.5z"/>
	<path class="st12" d="M148,547.1c-0.9,0-1.9-0.2-2.8-0.5c-4.1-1.6-6.1-6.2-4.6-10.3c4.9-12.8,10.4-25.8,16.3-38.6
		c1.8-4,6.6-5.7,10.5-3.9c4,1.8,5.7,6.6,3.9,10.5c-5.8,12.5-11.1,25.2-15.9,37.7C154.2,545.2,151.2,547.1,148,547.1z"/>
	<path class="st12" d="M593.1,838.6c-2.7,0-5.3-1.4-6.8-3.9c-2.2-3.8-1-8.6,2.8-10.9c26.1-15.5,51.4-32.8,75.2-51.3
		c3.5-2.7,8.5-2.1,11.1,1.4c2.7,3.5,2.1,8.4-1.4,11.1c-24.3,18.9-50.2,36.6-76.8,52.4C595.9,838.3,594.5,838.6,593.1,838.6z"/>
	<path class="st12" d="M822.7,617.9c-1.5,0-3-0.4-4.3-1.3c-3.7-2.4-4.7-7.3-2.4-11c16.7-25.8,31.7-52.6,44.5-79.4
		c1.9-4,6.6-5.6,10.6-3.7c4,1.9,5.6,6.6,3.7,10.6c-13.1,27.5-28.4,54.8-45.5,81.2C827.9,616.7,825.3,617.9,822.7,617.9z"/>
	<path class="st13" d="M498,231.1c-2.6,0-5.2-1.3-6.7-3.7c-2.4-3.7-1.3-8.6,2.4-11c13.2-8.5,26.7-16.6,39.9-24.1
		c3.8-2.2,8.7-0.8,10.8,3c2.2,3.8,0.8,8.7-3,10.8c-13,7.4-26.2,15.3-39.2,23.6C500.9,230.7,499.4,231.1,498,231.1z"/>
	<path class="st13" d="M442.4,269.7c-2.4,0-4.8-1.1-6.4-3.2c-2.6-3.5-1.9-8.5,1.6-11.1c4.2-3.2,8.5-6.3,12.7-9.4
		c3.6-2.6,8.5-1.8,11.1,1.8c2.6,3.6,1.8,8.5-1.8,11.1c-4.2,3-8.4,6.1-12.5,9.2C445.7,269.2,444.1,269.7,442.4,269.7z"/>
	<path class="st12" d="M229.7,499.4c-1.5,0-2.9-0.4-4.3-1.3c-3.7-2.4-4.8-7.3-2.4-11c12-18.7,24.9-37.4,38.5-55.5
		c2.6-3.5,7.6-4.2,11.1-1.6c3.5,2.6,4.2,7.6,1.6,11.1c-13.3,17.8-26,36.1-37.8,54.5C234.9,498.2,232.3,499.4,229.7,499.4z"/>
	<path class="st12" d="M158,642.1c-0.9,0-1.8-0.1-2.7-0.5c-4.1-1.5-6.3-6-4.8-10.1c10.6-29.7,24.7-60.8,41.8-92.4
		c2.1-3.9,6.9-5.3,10.8-3.2c3.9,2.1,5.3,6.9,3.2,10.8c-16.8,30.9-30.5,61.2-40.8,90.1C164.3,640.1,161.2,642.1,158,642.1z"/>
	<path class="st12" d="M382.8,880.3c-3.3,0-6.4-2.1-7.5-5.4c-1.4-4.2,0.9-8.7,5-10c29.2-9.7,60-23.1,91.6-39.7
		c3.9-2,8.7-0.6,10.7,3.3c2,3.9,0.6,8.7-3.3,10.7c-32.3,17-63.9,30.7-93.9,40.7C384.4,880.2,383.6,880.3,382.8,880.3z"/>
	<path class="st12" d="M542.9,800.2c-2.6,0-5.1-1.3-6.7-3.6c-2.4-3.7-1.4-8.6,2.3-11c24.4-16,48.4-33.4,71.4-51.9
		c3.4-2.7,8.4-2.2,11.2,1.2c2.7,3.4,2.2,8.4-1.2,11.2c-23.4,18.7-47.8,36.5-72.7,52.8C545.9,799.8,544.4,800.2,542.9,800.2z"/>
	<path class="st12" d="M664.1,705.4c-2.1,0-4.2-0.8-5.8-2.5c-3-3.2-2.8-8.2,0.4-11.2c6.9-6.4,13.6-12.9,20.1-19.4
		c6.9-6.9,13.8-14,20.5-21.3c3-3.2,8-3.4,11.2-0.4c3.2,3,3.4,8,0.4,11.2c-6.9,7.4-13.9,14.7-20.9,21.7c-6.6,6.6-13.5,13.3-20.5,19.8
		C668,704.7,666.1,705.4,664.1,705.4z"/>
	<path class="st12" d="M787.5,561.3c-1.5,0-3.1-0.5-4.5-1.4c-3.6-2.5-4.5-7.4-2-11c11.7-17.1,22.9-34.5,33-51.9
		c2.2-3.8,7.1-5,10.9-2.8c3.8,2.2,5,7.1,2.8,10.9c-10.4,17.7-21.7,35.4-33.6,52.8C792.5,560.1,790,561.3,787.5,561.3z"/>
	<path class="st12" d="M853.1,448c-1.1,0-2.3-0.2-3.4-0.8c-4-1.9-5.7-6.6-3.8-10.6c12.8-27.2,23.1-53.7,30.4-78.8
		c1.2-4.2,5.7-6.6,9.9-5.4c4.2,1.2,6.6,5.6,5.4,9.9c-7.6,25.8-18.1,53.1-31.3,81.1C859,446.3,856.1,448,853.1,448z"/>
	<path class="st12" d="M615.7,227.5c-2.7,0-5.3-1.3-6.8-3.8c-2.3-3.7-1.1-8.6,2.6-10.9c24.4-15,48.1-28,70.4-38.6
		c4-1.9,8.7-0.2,10.6,3.7c1.9,4,0.2,8.7-3.7,10.6c-21.8,10.4-45,23.1-68.9,37.8C618.5,227.1,617.1,227.5,615.7,227.5z"/>
	<path class="st12" d="M488.9,318.5c-2.3,0-4.6-1-6.1-2.9c-2.8-3.4-2.3-8.4,1.1-11.2c28.7-23.5,57.9-45.4,86.9-65.2
		c3.6-2.5,8.6-1.5,11,2.1c2.5,3.6,1.5,8.6-2.1,11c-28.6,19.5-57.5,41.2-85.8,64.4C492.4,317.9,490.6,318.5,488.9,318.5z"/>
	<path class="st12" d="M372.7,426.8c-1.9,0-3.9-0.7-5.4-2.1c-3.2-3-3.4-8-0.4-11.2c8.6-9.2,17.4-18.3,26.1-26.9
		c3.1-3.1,8.1-3.1,11.2,0c3.1,3.1,3.1,8.1,0,11.2c-8.5,8.5-17.2,17.5-25.7,26.6C377,425.9,374.8,426.8,372.7,426.8z"/>
	<path class="st12" d="M197.5,667.4c-1.2,0-2.5-0.3-3.7-0.9c-3.9-2-5.4-6.8-3.4-10.7c11.1-21.4,24.2-43.9,39-66.9
		c2.4-3.7,7.3-4.8,11-2.4s4.8,7.3,2.4,11c-14.5,22.6-27.4,44.7-38.3,65.7C203.1,665.8,200.4,667.4,197.5,667.4z"/>
	<path class="st12" d="M389.9,825.1c-2.8,0-5.5-1.5-6.9-4c-2.2-3.8-0.8-8.7,3-10.8c14.6-8.2,29.7-17.3,44.9-27.1
		c3.7-2.4,8.6-1.3,11,2.4c2.4,3.7,1.3,8.6-2.4,11c-15.5,10-30.8,19.3-45.7,27.6C392.6,824.8,391.3,825.1,389.9,825.1z"/>
	<path class="st12" d="M482.6,765.4c-2.5,0-4.9-1.1-6.4-3.3c-2.6-3.6-1.8-8.5,1.8-11.1c4.1-2.9,8.2-6,12.3-8.9
		c3.5-2.6,8.5-1.9,11.1,1.7c2.6,3.5,1.9,8.5-1.7,11.1c-4.1,3-8.3,6.1-12.4,9.1C485.8,764.9,484.2,765.4,482.6,765.4z"/>
	<path class="st12" d="M541.5,720.2c-2.3,0-4.6-1-6.2-2.9c-2.8-3.4-2.3-8.4,1.1-11.2c7.2-5.9,14.4-11.9,21.5-17.9
		c3.3-2.8,8.3-2.4,11.2,0.9c2.8,3.3,2.4,8.4-0.9,11.2c-7.2,6.1-14.5,12.2-21.8,18.1C545,719.6,543.3,720.2,541.5,720.2z"/>
	<path class="st12" d="M650,620.7c-2,0-4-0.7-5.5-2.2c-3.2-3-3.3-8.1-0.2-11.2c9.6-10,19.3-20.5,28.9-31.1c2.9-3.3,7.9-3.5,11.2-0.6
		c3.3,2.9,3.5,7.9,0.6,11.2c-9.6,10.7-19.5,21.3-29.2,31.5C654.1,619.9,652,620.7,650,620.7z"/>
	<path class="st12" d="M805.3,422.4c-1.4,0-2.9-0.4-4.2-1.2c-3.7-2.3-4.9-7.2-2.6-10.9c2-3.2,3.9-6.4,5.8-9.5
		c2.3-3.8,7.1-5,10.9-2.7c3.8,2.3,5,7.1,2.7,10.9c-1.9,3.2-3.9,6.4-5.9,9.7C810.6,421,808,422.4,805.3,422.4z"/>
	<path class="st12" d="M838.2,364.5c-1.2,0-2.4-0.3-3.6-0.9c-3.9-2-5.5-6.8-3.5-10.7c5.8-11.4,11.1-22.5,15.7-33.2
		c1.7-4,6.4-5.9,10.4-4.1c4,1.7,5.9,6.4,4.1,10.4c-4.7,11-10.1,22.4-16.1,34.1C843.8,362.9,841.1,364.5,838.2,364.5z"/>
	<path class="st12" d="M662.5,270.1c-2.4,0-4.7-1.1-6.3-3.1c-2.7-3.5-2-8.5,1.4-11.1c27-20.8,52.2-38.8,75-53.7
		c3.7-2.4,8.6-1.4,11,2.3c2.4,3.7,1.4,8.6-2.3,11c-22.4,14.7-47.3,32.5-73.9,53C665.9,269.6,664.2,270.1,662.5,270.1z"/>
	<path class="st12" d="M559.4,355.4c-2.2,0-4.4-0.9-6-2.7c-2.9-3.3-2.6-8.3,0.7-11.2c18.2-16.1,36.5-31.7,54.4-46.5
		c3.4-2.8,8.4-2.3,11.2,1.1c2.8,3.4,2.3,8.4-1.1,11.2c-17.8,14.7-35.9,30.2-54,46.1C563.2,354.8,561.3,355.4,559.4,355.4z"/>
	<path class="st12" d="M436.2,472.2c-2,0-4-0.8-5.5-2.3c-3.1-3.1-3.2-8.1-0.1-11.2c5.8-5.9,11.6-11.8,17.3-17.5
		c11.8-11.8,24.2-23.9,36.8-35.9c3.2-3,8.2-2.9,11.2,0.3c3,3.2,2.9,8.2-0.3,11.2c-12.5,11.9-24.8,23.9-36.5,35.7
		c-5.7,5.7-11.4,11.5-17.2,17.4C440.3,471.4,438.3,472.2,436.2,472.2z"/>
	<path class="st12" d="M321.9,598.1c-1.8,0-3.6-0.6-5.1-1.9c-3.4-2.8-3.8-7.8-1-11.2c19.4-23,39.8-46.2,60.7-69.1
		c3-3.2,8-3.5,11.2-0.5c3.2,3,3.5,8,0.5,11.2c-20.8,22.8-41.1,45.9-60.3,68.7C326.4,597.2,324.1,598.1,321.9,598.1z"/>
	<path class="st12" d="M238.8,704.1c-1.6,0-3.2-0.5-4.6-1.5c-3.6-2.5-4.4-7.5-1.8-11.1c12.6-17.6,26.7-36.4,42-55.8
		c2.7-3.4,7.7-4,11.2-1.3c3.4,2.7,4,7.7,1.3,11.2c-15.2,19.2-29.2,37.8-41.6,55.2C243.7,703,241.3,704.1,238.8,704.1z"/>
	<path class="st12" d="M307.8,811.9c-2.5,0-5.1-1.2-6.6-3.5c-2.5-3.6-1.5-8.6,2.1-11c25-16.9,52.5-37.2,81.9-60.5
		c3.4-2.7,8.4-2.1,11.2,1.3c2.7,3.4,2.1,8.4-1.3,11.2c-29.7,23.5-57.5,44.1-82.9,61.2C310.9,811.4,309.4,811.9,307.8,811.9z"/>
	<path class="st12" d="M433.1,716c-2.3,0-4.5-1-6.1-2.8c-2.8-3.4-2.4-8.4,1-11.2c16.5-13.9,33.4-28.4,50-43.3
		c3.3-2.9,8.3-2.6,11.2,0.6c2.9,3.3,2.6,8.3-0.6,11.2c-16.8,15-33.8,29.6-50.4,43.6C436.7,715.4,434.9,716,433.1,716z"/>
	<path class="st12" d="M580,581.4c-2,0-4.1-0.8-5.6-2.3c-3.1-3.1-3.1-8.1,0-11.2c12.9-12.9,26.1-26.4,39.2-40.2
		c3-3.2,8-3.3,11.2-0.3c3.2,3,3.3,8,0.3,11.2c-13.2,13.9-26.5,27.5-39.5,40.5C584.1,580.6,582.1,581.4,580,581.4z"/>
	<path class="st12" d="M659.8,497.3c-1.9,0-3.8-0.7-5.3-2c-3.3-2.9-3.5-8-0.6-11.2c11.3-12.5,22.6-25.3,33.4-37.8
		c2.9-3.3,7.9-3.7,11.2-0.8c3.3,2.9,3.7,7.9,0.8,11.2c-10.9,12.7-22.3,25.5-33.7,38.1C664.1,496.4,662,497.3,659.8,497.3z"/>
	<path class="st12" d="M724.1,423.1c-1.8,0-3.6-0.6-5.1-1.8c-3.4-2.8-3.8-7.8-1.1-11.2c2-2.4,3.9-4.8,5.9-7.1
		c2.8-3.4,7.8-3.9,11.2-1.1c3.4,2.8,3.9,7.8,1.1,11.2c-2,2.4-3.9,4.8-5.9,7.2C728.6,422.1,726.3,423.1,724.1,423.1z"/>
	<path class="st12" d="M762.7,374.9c-1.7,0-3.4-0.5-4.9-1.7c-3.5-2.7-4.1-7.7-1.4-11.1c24.2-31.3,44.7-60.1,60.8-85.6
		c2.3-3.7,7.2-4.8,11-2.5c3.7,2.3,4.8,7.3,2.5,11c-16.4,25.9-37.1,55.1-61.7,86.8C767.4,373.8,765.1,374.9,762.7,374.9z"/>
	<path class="st12" d="M707.4,327.5c-2,0-4.1-0.8-5.6-2.3c-3.1-3.1-3.1-8.1,0-11.2l56.1-56.1c3.1-3.1,8.1-3.1,11.2,0
		c3.1,3.1,3.1,8.1,0,11.2L713,325.2C711.4,326.7,709.4,327.5,707.4,327.5z"/>
	<path class="st12" d="M533.4,501.5c-2,0-4.1-0.8-5.6-2.3c-3.1-3.1-3.1-8.1,0-11.2l23.3-23.3c3.1-3.1,8.1-3.1,11.2,0
		c3.1,3.1,3.1,8.1,0,11.2L539,499.2C537.5,500.7,535.4,501.5,533.4,501.5z"/>
	<path class="st12" d="M485.6,549.3c-2,0-4.1-0.8-5.6-2.3c-3.1-3.1-3.1-8.1,0-11.2l12.5-12.5c3.1-3.1,8.1-3.1,11.2,0
		c3.1,3.1,3.1,8.1,0,11.2L491.2,547C489.7,548.6,487.6,549.3,485.6,549.3z"/>
	<path class="st12" d="M273.9,761c-2,0-4.1-0.8-5.6-2.3c-3.1-3.1-3.1-8.1,0-11.2l33.3-33.3c3.1-3.1,8.1-3.1,11.2,0
		c3.1,3.1,3.1,8.1,0,11.2l-33.3,33.3C277.9,760.2,275.9,761,273.9,761z"/>
	<path class="st12" d="M888.4,129.6c2.8-1.4,4.7-1.9,4.7-1.9c27.9-9.4,47-34.5,48.6-63.9c0.4-8.2,3.3-16,8.2-22.6
		c7-9.5,6.8-22.7-1.4-31.2c-10.4-10.8-27.5-9.5-36.2,2c-10.9,14.3-17.1,31.3-18.1,49.2c-0.5,9.9-6.9,18.3-16.3,21.4
		c0,0-15.5,4-30.7,17.5c-8.5,7.5-20.9,8.5-30.7,2.7c-28.4-16.9-59.6-29.2-93.4-36.7c-53.7-12-112.5-11.9-174.7,0.3
		c-112.6,22.2-228.5,84.1-310,165.6C157,313.3,95.1,429.2,72.8,541.8C60.6,604,60.5,662.8,72.5,716.5c9,40,24.5,76.3,46.4,108.6
		c3.8,5.6,4.3,12.8,1.2,18.7c-1,1.8-1.9,3.7-2.7,5.6c-2,4.7-6.7,7.8-11.9,7.7c-14.8-0.3-29.2,3.8-41.6,11.9
		c-19.7,12.8-32.3,34.4-33.7,57.9c-0.8,13.1,9.2,24.4,22.3,25.2c0.5,0,1,0,1.5,0c12.5,0,23-9.7,23.8-22.4
		c0.5-8.6,4.9-16.1,12.1-20.8c4.4-2.9,9.5-4.3,14.7-4.2c0.4,0,0.8,0,1.2,0c17.5,0,33.7-7.5,44.9-20.1c5.1-5.7,13.9-6.1,19.7-1.1
		c1.9,1.7,3.9,3.4,5.9,5.1c4.6,3.9,6.3,10.4,4.1,16c-6.7,16.7-5.7,35.7,3.4,52c2.5,4.5,3.6,9.6,3.3,14.7
		c-0.9,12.9,8.3,24.6,21.2,25.9c0.9,0.1,1.7,0.1,2.5,0.1c12.3,0,22.7-9.4,23.7-21.9c1.2-14.8-2-29.4-9.2-42.3c0,0,0-0.1-0.1-0.1
		c-2.5-4.5,2.5-9.4,7.1-7c24.2,12.5,50.2,21.9,78,28.2c26.6,6,54.5,9,83.4,9c29.4,0,59.9-3.1,91.3-9.3
		c112.6-22.2,228.5-84.1,310-165.6c81.5-81.5,143.4-197.3,165.6-310c12.3-62.2,13.2-121.1,0.3-174.7
		c-19.9-82.9-57.3-128.9-76.8-148.2C876.2,147.7,878.4,134.4,888.4,129.6z M913.9,469.2C893.4,573,836.4,679.7,761.3,754.8
		S579.6,886.8,475.8,907.3c-55.6,11-107.8,11.2-155,0.6c-35.4-7.9-67.4-21.9-95.7-41.7c-2.7-1.9-2.1-5.9,0.9-7.1
		c3.8-1.5,7.7-3.2,11.8-5c3.9-1.8,5.9-6.2,4.4-10.2c-1.7-4.3-6.6-6.3-10.7-4.4c-9.1,4.2-17.4,7.3-24.6,9.3c-1.9,0.5-3.9,0.1-5.3-1.2
		c-0.4-0.4-0.9-0.8-1.3-1.2c-2.4-2.2-2.5-6-0.2-8.3c3.8-3.8,8-8,12.7-12.7c3.1-3.1,3.4-8.2,0.4-11.3c-3.1-3.3-8.2-3.3-11.4-0.2
		c-5,5-9.3,9.3-13,13c-2.3,2.3-6.1,2.2-8.3-0.2c-0.4-0.5-0.8-0.9-1.3-1.4c-1.3-1.4-1.7-3.4-1.2-5.3c2.5-8.8,6.9-20.3,14.5-35.1
		c2-3.9,0.7-8.8-3.1-10.9c-4-2.2-8.9-0.6-10.9,3.4c-4.3,8.5-7.9,16.3-10.7,23.5c-1.2,3-5.3,3.5-7.1,0.8c-5.8-8.2-11-16.8-15.8-25.7
		c-2.2-15.3-2.4-32.1-0.6-50.3c0.4-4.4-2.8-8.2-7.1-8.7c-4.3-0.4-8.2,2.8-8.7,7.1c-0.4,4.1-0.7,8.2-0.9,12.1
		c-3.4-9.8-6.2-19.9-8.6-30.3c-10.6-47.2-10.4-99.4,0.6-155c20.5-103.7,77.5-210.5,152.5-285.5c75-75,181.8-132.1,285.5-152.5
		c28.3-5.6,55.7-8.4,82.1-8.4c25.4,0,49.8,2.6,73,7.8c22.8,5.1,44.2,12.7,64.1,22.8c3,1.5,2.3,6-1,6.6c-2.7,0.5-5.5,1-8.4,1.6
		c-4.2,0.9-7.1,4.8-6.5,9c0.7,4.6,5.1,7.6,9.5,6.6c12.7-2.7,24.3-4.1,34.8-4c2.9,0,5.7,0.9,8,2.6c6.6,4.9,13,10.1,19.2,15.6
		c2.9,2.6,3,7,0.3,9.7c-3.6,3.6-7.7,7.7-12.1,12.1c-3,3-3.4,7.9-0.6,11c1.6,1.8,3.8,2.7,6,2.7c2,0,4.1-0.8,5.6-2.3
		c4.5-4.5,8.6-8.6,12.3-12.4c2.7-2.7,7.2-2.6,9.8,0.3l0.1,0.1c1.5,1.7,2.1,4,1.5,6.2c-1.8,6.4-4.5,13.6-8,21.4
		c-1.7,3.8-0.4,8.4,3.2,10.4c1.3,0.7,2.6,1,3.9,1c3,0,5.9-1.8,7.3-4.7c1.6-3.6,3.1-7.2,4.4-10.5c1-2.6,4.5-3,6.1-0.8
		c20.1,28.5,34.3,60.8,42.3,96.6C925,361.5,924.8,413.6,913.9,469.2z"/>
	<ellipse transform="matrix(0.7071 -0.7071 0.7071 0.7071 89.429 553.8763)" class="st12" cx="713.3" cy="169" rx="7.9" ry="7.9"/>
	
		<ellipse transform="matrix(0.7071 -0.7071 0.7071 0.7071 -26.8946 407.3641)" class="st13" cx="478.3" cy="236.1" rx="7.9" ry="7.9"/>
	
		<ellipse transform="matrix(0.7071 -0.7071 0.7071 0.7071 -99.8105 488.9808)" class="st12" cx="540.3" cy="365" rx="7.9" ry="7.9"/>
	
		<ellipse transform="matrix(0.7071 -0.7071 0.7071 0.7071 -128.289 411.0894)" class="st12" cx="432.1" cy="360.4" rx="7.9" ry="7.9"/>
	
		<ellipse transform="matrix(0.7071 -0.7071 0.7071 0.7071 -209.4929 323.0711)" class="st12" cx="285.2" cy="414.4" rx="7.9" ry="7.9"/>
	
		<ellipse transform="matrix(0.7071 -0.7071 0.7071 0.7071 -210.4994 514.5536)" class="st12" cx="515.9" cy="511.4" rx="7.9" ry="7.9"/>
	
		<ellipse transform="matrix(0.7071 -0.7071 0.7071 0.7071 -307.2481 546.6057)" class="st12" cx="506.2" cy="644.2" rx="7.9" ry="7.9"/>
	
		<ellipse transform="matrix(0.7071 -0.7071 0.7071 0.7071 -364.0248 581.4434)" class="st12" cx="519.9" cy="730.1" rx="7.9" ry="7.9"/>
	
		<ellipse transform="matrix(0.7071 -0.7071 0.7071 0.7071 -480.5028 501.339)" class="st12" cx="364.9" cy="830.7" rx="7.9" ry="7.9"/>
	
		<ellipse transform="matrix(0.7071 -0.7071 0.7071 0.7071 -533.4219 446.8414)" class="st12" cx="272.7" cy="867.3" rx="7.9" ry="7.9"/>
	
		<ellipse transform="matrix(0.7071 -0.7071 0.7071 0.7071 -400.415 435.8454)" class="st12" cx="325.9" cy="701.3" rx="7.9" ry="7.9"/>
	
		<ellipse transform="matrix(0.7071 -0.7071 0.7071 0.7071 -428.9185 331.3493)" class="st12" cx="185.5" cy="683.4" rx="7.9" ry="7.9"/>
	
		<ellipse transform="matrix(0.7071 -0.7071 0.7071 0.7071 -444.125 368.0611)" class="st12" cx="222.2" cy="720.1" rx="7.9" ry="7.9"/>
	
		<ellipse transform="matrix(0.7071 -0.7071 0.7071 0.7071 -258.2878 633.2342)" class="st12" cx="635.2" cy="628.4" rx="7.9" ry="7.9"/>
	
		<ellipse transform="matrix(0.7071 -0.7071 0.7071 0.7071 -240.5401 697.1256)" class="st12" cx="721.2" cy="638.9" rx="7.9" ry="7.9"/>
	
		<ellipse transform="matrix(0.7071 -0.7071 0.7071 0.7071 -97.604 628.5526)" class="st12" cx="709.9" cy="432.1" rx="7.9" ry="7.9"/>
	
		<ellipse transform="matrix(0.7071 -0.7071 0.7071 0.7071 -181.3897 713.8013)" class="st12" cx="770.9" cy="575.9" rx="7.9" ry="7.9"/>
	
		<ellipse transform="matrix(0.7071 -0.7071 0.7071 0.7071 31.7363 397.2052)" class="st13" cx="495.3" cy="160.3" rx="7.9" ry="7.9"/>
	
		<ellipse transform="matrix(0.7071 -0.7071 0.7071 0.7071 57.0623 625.2313)" class="st12" cx="783.3" cy="243.7" rx="7.9" ry="7.9"/>
	
		<ellipse transform="matrix(0.7071 -0.7071 0.7071 0.7071 75.8629 696.5045)" class="st12" cx="878.7" cy="256.7" rx="7.9" ry="7.9"/>
	
		<ellipse transform="matrix(0.7071 -0.7071 0.7071 0.7071 -28.1767 695.316)" class="st12" cx="825.2" cy="381.7" rx="7.9" ry="7.9"/>
</g>
<g id="Layer_2">
</g>
<g id="Layer_3">
</g>
</svg>
