<?xml version="1.0" encoding="utf-8"?>
<!-- Generator: Adobe Illustrator 20.0.0, SVG Export Plug-In . SVG Version: 6.00 Build 0)  -->
<svg version="1.1" id="Layer_1" xmlns="http://www.w3.org/2000/svg" xmlns:xlink="http://www.w3.org/1999/xlink" x="0px" y="0px"
	 viewBox="0 0 500 500" style="enable-background:new 0 0 500 500;" xml:space="preserve">
<style type="text/css">
	.st0{fill:#92B851;}
	.st1{fill:#197723;}
	.st2{fill:#4CAC49;stroke:#197723;stroke-linecap:round;stroke-linejoin:round;stroke-miterlimit:10;}
	.st3{fill:#4CAC49;}
	.st4{fill:#70BD9E;}
	.st5{fill:none;stroke:#197723;stroke-linecap:round;stroke-linejoin:round;stroke-miterlimit:10;}
	.st6{fill:none;stroke:#92B851;stroke-linecap:round;stroke-linejoin:round;stroke-miterlimit:10;}
	.st7{fill:none;stroke:#FFFFFF;stroke-linecap:round;stroke-linejoin:round;stroke-miterlimit:10;}
	.st8{fill:none;stroke:#92B851;stroke-width:2;stroke-linecap:round;stroke-linejoin:round;stroke-miterlimit:10;}
	.st9{fill:#8AA77B;}
	.st10{fill:#365219;}
	.st11{fill:#6E9635;}
	.st12{fill:none;stroke:#365219;stroke-linecap:round;stroke-miterlimit:10;}
	.st13{fill:none;stroke:#FFFFFF;stroke-linecap:round;stroke-miterlimit:10;}
	.st14{fill:#90C53E;}
	.st15{fill:#218100;}
	.st16{fill:#5ABC18;}
	.st17{fill:#1C6600;}
	.st18{fill:#5ABC18;stroke:#1C6600;stroke-linecap:round;stroke-linejoin:round;stroke-miterlimit:10;}
	.st19{fill:#00FFFF;}
	.st20{clip-path:url(#SVGID_2_);}
	.st21{fill:#318F00;}
	.st22{fill:#006837;}
	.st23{fill:#FFFFFF;}
	.st24{fill:none;stroke:#218100;stroke-linecap:round;stroke-linejoin:round;stroke-miterlimit:10;}
	.st25{fill:#90C53E;stroke:#218100;stroke-width:3;stroke-miterlimit:10;}
	.st26{fill:#90C53E;stroke:#218100;stroke-miterlimit:10;}
	.st27{fill:#3D7519;}
	.st28{fill:none;stroke:#365219;stroke-width:0.9309;stroke-linecap:round;stroke-miterlimit:10;}
	.st29{fill:none;stroke:#365219;stroke-width:1.1845;stroke-linecap:round;stroke-miterlimit:10;}
	.st30{fill:none;stroke:#365219;stroke-width:3;stroke-linecap:round;stroke-linejoin:round;stroke-miterlimit:10;}
	.st31{fill:#95B284;}
	.st32{fill:#567F0E;}
	.st33{fill:#70BD9E;stroke:#197723;stroke-linecap:round;stroke-linejoin:round;stroke-miterlimit:10;}
</style>
<path class="st0" d="M262.6,486.7c-10.4,0-18.9-8.5-18.9-18.9c0-64.2-6.4-128-19-189.5c-1.7-3-3.2-6.1-4.4-9.2l-1.5-1.6l0-2.8
	c-0.9-3.1-1.4-6.3-1.5-9.5c-5.5,2.2-11.4,3.3-16.7,3.3c-1.4,0-2.7-0.1-4.1-0.2l-0.1,0l-0.6-0.1h-0.2l-0.7-0.1
	c-21.4-2.6-50.9-17-48.6-36.5c1.9-16.3,24.6-24.9,45.9-24.9c3.1,0,6.2,0.2,9.2,0.5h0.8l0.6,0.1l0,0l0.1,0c0.4,0,0.7,0.1,1.1,0.2
	c-1.5-5-3.1-9.9-4.7-14.9h-1l-0.5-1.4c-1.2,0.8-2.4,1.6-3.7,2.3l-0.1,0.1l-0.6,0.3c-9.2,4.8-20.6,7.7-30.6,7.7
	c-14.3,0-20.3-5.8-22.9-10.7c-7.9-14.9,8-35.2,27.3-45.6l0.5-0.3c4-2.1,8.2-3.5,12.6-4.1c-2.3-5.7-4.7-11.2-7.1-16.6
	c-2.5-2.5-4.8-5.3-6.8-8.3c-0.8,0.7-1.6,1.3-2.5,1.9l-2.2,3.3l-3.2,0c-9.5,5.3-20.9,8.5-30.5,8.5c-11.9,0-17.4-4.9-20-9
	c-8.7-13.8,4.4-34.4,22-46.4l2.1-3.2l3.2,0c1.7-0.9,3.5-1.6,5.3-2.2c-6.8-13.9-9-35.4,4-42.4c2.3-1.2,4.9-1.9,7.7-1.9
	c10.1,0,22.1,9,29.6,22.1l3.4-1.7c0.4-0.3,0.9-0.5,1.4-0.7l0.1-0.1l1.7-0.7l0.8-0.4l0.4-0.1c8.6-3.7,17.9-5.7,26.4-5.7
	c12.9,0,22.3,4.6,25.9,12.6c2,4.5,3.6,14-7.6,26.8c-5.7,6.5-13.3,12.2-21.2,16.1l-1.2,1.2l-2.2,0.4l-0.9,0.4H209
	c-0.4,0.1-0.8,0.3-1.2,0.4c2.7,7.2,3.9,15,3.4,21.6c0.4,0.9,0.7,1.7,1.1,2.6l14.8,0l0,0h1.6c7-2.3,14.3-3.4,21.3-3.4
	c15.1,0,26,5.5,29.3,14.8c1.6,4.6,2.6,14.2-9.7,26.1c-6.7,6.5-15.6,12.1-24.5,15.2l-0.5,0.2l0,0c-1.1,0.4-2.1,0.7-3.2,0.9
	c2,7.1,3,15.6,1.5,22.8l0.5-0.2c12.2-9.2,28.5-15.4,41-15.4c10.2,0,15.6,4.1,18.3,7.6c10.9,13.9-1.4,39-20.1,54.9l-0.8,1.6l-2,0.9
	l-9.8,9.8c0,0,0,0.1,0,0.1l0.5,0.3l1.2,3.9c6,17.7,5.2,39-5,48.4c2,11.2,3.7,22.5,5.3,33.8c8.9-13.1,19.2-25.5,30.7-37.1
	c0.3-0.5,0.7-0.9,1-1.4c-1.5-0.9-3-1.9-4.4-3l-2.3-1.5l-0.3-0.6c-6.5-5.6-12.3-13-16.1-20.5c-7.7-15.2-3.8-24-0.7-27.8
	c2.6-3.3,7.8-7.2,17.3-7.2c10.9,0,23.8,5,34.8,13.4l0.7,0.3l0.9,0.9c2.3,1.9,4.2,3.9,5.9,6l0.5-0.3c8.5-8.4,20.2-14.2,29.1-14.2
	c5.9,0,9.6,2.3,11.8,4.3c3.1,2.9,7.8,9.7,4.1,22.7c-1.9,6.7-5.8,13.5-10.9,19.3l-0.1,0.2c0.6,0.4,1.2,0.9,1.8,1.4h0.5l2,2.1l0.8,0.4
	l1.2,1.8c14.8,16.1,23,40.2,10.8,51.7c-2.4,2.2-6.6,4.9-13.4,4.9c-10.8,0-25.5-7.2-36.1-17.3l-7.8-2.7c-5.6,4.1-11.9,7-17.6,8.2
	c-20.4,24.7-30.6,48-35,60c-1.1,3.1-1.6,6.4-1.4,9.9c1.3,20.8,1.3,43,1.3,62.5C281.5,478.2,273,486.7,262.6,486.7z M215.2,116.2
	c0.1,0,0.1-0.1,0.2-0.1l-1.5-3.1C214.3,114,214.8,115.1,215.2,116.2z"/>
<path class="st0" d="M346.4,281.3c-2.5-3.2-7-3.7-10.1-1.3c-33.3,25.9-53.9,54.3-66.3,76.7c-1.7,3.1-6.3,2.2-6.7-1.4
	c-20.6-179.1-83.8-287.8-84.6-289.1c-2-3.4-6.4-4.6-9.9-2.5c-3.4,2-4.6,6.5-2.5,9.9c0.9,1.5,89,152.9,89,394.2c0,4,3.2,7.2,7.2,7.2
	c4,0,7.2-3.2,7.2-7.2c0-21.2,0-42-1.3-61.8c-0.3-5,0.3-9.9,2-14.6c6.8-18.8,26.2-62.3,74.6-100C348.3,288.9,348.9,284.4,346.4,281.3
	z"/>
<path class="st3" d="M273.5,226.5C273.5,226.5,273.5,226.5,273.5,226.5L273.5,226.5c19-15,27.3-35.8,21.7-42.9
	c-6-7.6-30.5-1.6-46.8,11.2l0,0c0,0,0,0,0,0c0,0,0,0,0,0l0,0c-14.8,11.7-15.4,29.7-11.4,34.8C240.8,234.3,258.9,238,273.5,226.5
	L273.5,226.5C273.5,226.5,273.5,226.5,273.5,226.5z"/>
<line class="st3" x1="249.5" y1="195.5" x2="249.5" y2="195.5"/>
<path class="st4" d="M295.2,183.6c5.6,7.1-2.7,27.9-21.7,42.9l0,0c0,0,0,0,0,0c0,0,0,0,0,0l0,0c-14.6,11.5-32.7,7.9-36.5,3.1
	L295.2,183.6z"/>
<path class="st4" d="M201.3,208C201.3,208,201.3,208,201.3,208L201.3,208c-23.6-2.8-43.8,5.8-44.8,14.7
	c-1.1,9.5,20.1,22.3,40.2,24.7l0,0c0,0,0,0,0,0c0,0,0,0,0,0l0,0c18.4,2.1,31.3-9.9,32-16.2C229.5,225.2,219.4,210.1,201.3,208
	L201.3,208C201.3,208,201.3,208,201.3,208z"/>
<path class="st3" d="M196.5,246.5C196.5,246.5,196.5,246.5,196.5,246.5"/>
<path class="st3" d="M228.8,231.2c0.7-6-9.3-21-27.4-23.2l0,0c0,0,0,0,0,0c0,0,0,0,0,0l0,0c-23.6-2.8-43.8,5.8-44.8,14.7
	L228.8,231.2z"/>
<path class="st4" d="M230.2,120.3C230.2,120.3,230.2,120.3,230.2,120.3L230.2,120.3c18.6-6.6,36.6-3.3,39.1,3.7
	c2.6,7.5-12.2,21.8-28.1,27.5l0,0c0,0,0,0,0,0c0,0,0,0,0,0l0,0c-14.5,5.1-27.2-2.2-29-7.3C210.5,139.5,215.9,125.4,230.2,120.3
	L230.2,120.3C230.2,120.3,230.2,120.3,230.2,120.3z"/>
<line class="st3" x1="241.2" y1="150.8" x2="241.2" y2="150.8"/>
<path class="st3" d="M269.3,124c-2.5-7-20.5-10.3-39.1-3.7l0,0c0,0,0,0,0,0c0,0,0,0,0,0l0,0c-14.3,5.1-19.7,19.2-18,23.9L269.3,124z
	"/>
<path class="st4" d="M173.2,143.9C173.2,143.9,173.2,143.9,173.2,143.9L173.2,143.9c-18.4,9.7-28.7,26-25.1,32.9
	c3.9,7.4,25.6,6.1,41.3-2.1l0,0c0,0,0,0,0,0c0,0,0,0,0,0l0,0c14.3-7.6,17.7-22.7,15.1-27.6C202,142.3,187.3,136.4,173.2,143.9
	L173.2,143.9C173.2,143.9,173.2,143.9,173.2,143.9z"/>
<line class="st3" x1="188.3" y1="173.5" x2="188.3" y2="173.5"/>
<path class="st3" d="M204.5,147c-2.5-4.7-17.2-10.6-31.3-3.1l0,0c0,0,0,0,0,0c0,0,0,0,0,0l0,0c-18.4,9.7-28.7,26-25.1,32.9
	L204.5,147z"/>
<path class="st3" d="M205.6,171.1C205.6,171.1,205.6,171.1,205.6,171.1L205.6,171.1c6.2,14.3,17.8,22.8,23.1,20.5
	c5.7-2.5,6-18.7,0.7-30.9l0,0c0,0,0,0,0,0c0,0,0,0,0,0l0,0c-4.9-11.1-15.9-14.4-19.8-12.8C206,149.5,200.8,160.1,205.6,171.1
	L205.6,171.1C205.6,171.1,205.6,171.1,205.6,171.1z"/>
<line class="st3" x1="228.5" y1="161.5" x2="228.5" y2="161.5"/>
<path class="st4" d="M228.7,191.6c-5.4,2.3-16.9-6.2-23.1-20.5l0,0c0,0,0,0,0,0c0,0,0,0,0,0l0,0c-4.8-10.9,0.4-21.6,4.1-23.2
	L228.7,191.6z"/>
<path class="st4" d="M193.2,43.2C193.2,43.2,193.2,43.2,193.2,43.2L193.2,43.2c18.4-8.2,36.9-6.3,40,0.7
	c3.3,7.4-10.7,23.1-26.4,30.1l0,0c0,0,0,0,0,0c0,0,0,0,0,0l0,0c-14.3,6.3-27.8-0.1-30-5.1C174.8,64.2,179.1,49.4,193.2,43.2
	L193.2,43.2C193.2,43.2,193.2,43.2,193.2,43.2z"/>
<line class="st3" x1="206.8" y1="73" x2="206.8" y2="73"/>
<path class="st3" d="M233.2,43.8c-3.1-6.9-21.6-8.8-40-0.7l0,0c0,0,0,0,0,0c0,0,0,0,0,0l0,0c-14.1,6.3-18.5,21-16.4,25.7L233.2,43.8
	z"/>
<path class="st4" d="M138.5,71.6C138.5,71.6,138.5,71.6,138.5,71.6L138.5,71.6c-17.2,10.9-26.1,27.5-22,34
	c4.4,6.9,25.5,4.1,40.2-5.2l0,0c0,0,0,0,0,0c0,0,0,0,0,0l0,0c13.4-8.5,15.6-23.5,12.7-28.1C166.6,67.9,151.7,63.3,138.5,71.6
	L138.5,71.6C138.5,71.6,138.5,71.6,138.5,71.6z"/>
<line class="st3" x1="155.7" y1="99.7" x2="155.7" y2="99.7"/>
<path class="st3" d="M169.3,72.3c-2.8-4.4-17.6-9-30.8-0.7l0,0c0,0,0,0,0,0c0,0,0,0,0,0l0,0c-17.2,10.9-26.1,27.5-22,34L169.3,72.3z
	"/>
<path class="st3" d="M172.8,95.9C172.8,95.9,172.8,95.9,172.8,95.9L172.8,95.9c7.3,13.8,19.5,21.5,24.7,18.7
	c5.5-2.9,4.5-19.2-1.7-30.9l0,0c0,0,0,0,0,0c0,0,0,0,0,0l0,0c-5.7-10.7-17-13.2-20.7-11.2C171.6,74.3,167.2,85.3,172.8,95.9
	L172.8,95.9C172.8,95.9,172.8,95.9,172.8,95.9z"/>
<line class="st3" x1="194.9" y1="84.6" x2="194.9" y2="84.6"/>
<path class="st4" d="M197.5,114.6c-5.2,2.8-17.4-4.9-24.7-18.7l0,0c0,0,0,0,0,0c0,0,0,0,0,0l0,0c-5.6-10.6-1.2-21.6,2.3-23.5
	L197.5,114.6z"/>
<path class="st3" d="M174.5,43.5C174.5,43.5,174.5,43.5,174.5,43.5L174.5,43.5c-7.6-14.2-20.1-22.1-25.5-19.3
	c-5.7,3-4.7,19.8,1.8,31.9l0,0c0,0,0,0,0,0c0,0,0,0,0,0l0,0c5.9,11,17.6,13.6,21.4,11.6C175.8,65.8,180.3,54.4,174.5,43.5
	L174.5,43.5C174.5,43.5,174.5,43.5,174.5,43.5z"/>
<line class="st3" x1="152" y1="54.8" x2="152" y2="54.8"/>
<path class="st4" d="M172.2,67.7c3.6-1.9,8.1-13.3,2.3-24.2l0,0c0,0,0,0,0,0c0,0,0,0,0,0l0,0c-7.6-14.2-20.1-22.1-25.5-19.3
	L172.2,67.7z"/>
<line class="st3" x1="230.5" y1="262.9" x2="230.5" y2="262.9"/>
<path class="st3" d="M257.5,250.2C257.5,250.2,257.5,250.2,257.5,250.2L257.5,250.2c6.5,19.1,3,37.5-4.2,39.9
	c-7.7,2.6-22.1-12.7-27.7-29l0,0c0,0,0,0,0,0c0,0,0,0,0,0l0,0c-5.1-14.9,2.6-27.8,7.8-29.5C238.2,229.8,252.5,235.5,257.5,250.2
	L257.5,250.2C257.5,250.2,257.5,250.2,257.5,250.2z"/>
<path class="st4" d="M253.3,290.1c7.2-2.5,10.7-20.8,4.2-39.9l0,0c0,0,0,0,0,0c0,0,0,0,0,0l0,0c-5-14.7-19.3-20.3-24.2-18.7
	L253.3,290.1z"/>
<path class="st4" d="M371.7,297.3C371.7,297.3,371.7,297.3,371.7,297.3L371.7,297.3c13.6,14.4,17.9,32.2,12.4,37.4
	c-5.8,5.4-24.9-2.4-36.5-14.7l0,0c0,0,0,0,0,0c0,0,0,0,0,0l0,0c-10.6-11.2-9-25.9-5.1-29.5C346.1,287,361.2,286.3,371.7,297.3
	L371.7,297.3C371.7,297.3,371.7,297.3,371.7,297.3z"/>
<line class="st3" x1="348.2" y1="319.7" x2="348.2" y2="319.7"/>
<line class="st3" x1="306.1" y1="280.4" x2="306.1" y2="280.4"/>
<path class="st4" d="M326.8,254.9C326.8,254.9,326.8,254.9,326.8,254.9L326.8,254.9c-16-12.6-34.6-15.5-39.4-9.5
	c-5.1,6.4,4.6,25.4,18.2,36.2l0,0c0,0,0,0,0,0c0,0,0,0,0,0l0,0c12.4,9.8,27.3,6.9,30.7,2.6C339.6,280.1,339.1,264.6,326.8,254.9
	L326.8,254.9C326.8,254.9,326.8,254.9,326.8,254.9z"/>
<path class="st3" d="M287.4,245.4c4.8-6,23.4-3.2,39.4,9.5l0,0c0,0,0,0,0,0c0,0,0,0,0,0l0,0c12.3,9.7,12.8,25.3,9.6,29.3
	L287.4,245.4z"/>
<path class="st3" d="M315.4,295.5C315.4,295.5,315.4,295.5,315.4,295.5L315.4,295.5c-10.3,11.2-13.5,25-9.3,28.9
	c4.5,4.1,19.2-2,28-11.6l0,0c0,0,0,0,0,0c0,0,0,0,0,0l0,0c8-8.8,6.7-20,3.7-22.8C335,287.4,323.4,286.9,315.4,295.5L315.4,295.5
	C315.4,295.5,315.4,295.5,315.4,295.5z"/>
<line class="st3" x1="333.3" y1="312.4" x2="333.3" y2="312.4"/>
<path class="st4" d="M337.9,290c-2.8-2.6-14.5-3.1-22.4,5.5l0,0c0,0,0,0,0,0c0,0,0,0,0,0l0,0c-10.3,11.2-13.5,25-9.3,28.9L337.9,290
	z"/>
<path class="st3" d="M365,279C365,279,365,279,365,279L365,279c10.4-11.3,13.5-25.1,9.3-29c-4.5-4.2-19.3,2-28.1,11.7l0,0
	c0,0,0,0,0,0c0,0,0,0,0,0l0,0c-8.1,8.8-6.7,20.1-3.7,22.9C345.4,287.1,357,287.6,365,279L365,279C365,279,365,279,365,279z"/>
<line class="st3" x1="347.1" y1="262.1" x2="347.1" y2="262.1"/>
<path class="st4" d="M342.5,284.5c2.9,2.6,14.5,3.1,22.5-5.6l0,0c0,0,0,0,0,0c0,0,0,0,0,0l0,0c10.4-11.3,13.5-25.1,9.3-29
	L342.5,284.5z"/>
<path class="st3" d="M384.1,334.7l-41.6-44.2c3.7-3.4,18.7-4.2,29.2,6.8l0,0c0,0,0,0,0,0c0,0,0,0,0,0l0,0
	C385.3,311.8,389.6,329.6,384.1,334.7"/>
<path class="st1" d="M406.5,312.5c-2.9-9.7-8.5-19.4-15.8-27.9c-0.7-0.8-0.7-1.8-0.2-2.7c2.5-4.3,4.5-8.8,5.8-13.3
	c5.7-19.7-3.2-30.7-7.4-34.5c-3.7-3.4-10-7.4-19.7-7.4c-9.5,0-19.3,4.1-27.5,9.5c-0.8,0.5-1.7,0.5-2.5,0.1l0,0
	c-8.9-6.8-19.1-11.7-28.8-14.2c-1.3-0.3-1.8-1.7-1.2-2.9c1.4-2.3,2.7-4.7,3.8-7.1c7.5-16,7.1-31.2-1.3-41.8
	c-3.5-4.5-11.8-12-27.5-12c-2.8,0-5.7,0.2-8.7,0.7c-0.9,0.1-1.4-1-0.7-1.6c1-0.9,1.9-1.7,2.8-2.6c16.9-16.5,15.1-31.1,12.5-38.4
	c-5-14.1-20-22.5-40.3-22.5c-7.5,0-15.4,1.2-23,3.4h-2l0,0l0,0c-1.3,0-2.3-0.9-2.5-2.2c-0.1-0.7-0.2-1.4-0.3-2.1
	c-0.2-1.1,0.3-2.1,1.2-2.6c7.5-4.3,14.6-10.1,20.1-16.3c15.6-17.7,12.7-32.2,9.5-39.2c-2.6-5.9-11.4-19.6-36.5-19.6
	c0,0-14.6,0.4-27.3,4.6c-2.1,0.7-4.3,0.1-5.8-1.5c-1.9-2-3.8-3.9-5.9-5.6C169.6,6.5,161,3,152.7,3c0,0,0,0,0,0c0,0,0,0,0,0
	c-4.7,0-9.2,1.1-13.2,3.2c-10.7,5.7-16.4,17.7-15.5,32.9c0.2,3.4,0.7,6.9,1.5,10.3c0.4,1.8-0.1,3.8-1.5,5.1v0
	c-9.4,6.4-17.5,14.7-22.9,23.5c-8.5,13.9-9.4,28.1-2.6,38.9c3.4,5.4,11.8,14.5,29.9,14.5c0,0,16.2,0.4,34.6-9.1
	c0.4-0.2,1-0.1,1.3,0.3c0,0,0,0,0,0c0.3,0.5,0.1,1.1-0.4,1.4c-17.9,9.1-28.4,23.7-28.4,23.7c-9.5,13.2-11.6,27.3-5.6,38.6
	c2,3.8,5.9,9.1,13.2,12.7c1.2,0.6,1.4,2.1,0.5,3c-4.9,5.2-8,11.3-8.8,18.1c-0.9,8.1,0.7,23.6,22.6,37c0,0,24.7,13.9,48.1,15.6
	c2.3,0.2,4.2,1.5,5.1,3.6c0.8,1.8,1.6,3.6,2.6,5.3c0.3,0.5,0.5,1.1,0.6,1.6c12,59.7,18.2,121.6,18.2,183.9
	c0,16.6,12.9,30.7,29.5,31.2c17.3,0.6,31.5-13.3,31.5-30.5c0-19.7,0-42.1-1.3-63.2c-0.1-1.9,0.1-3.7,0.7-5.2
	c3.9-10.6,12.6-30.7,29.7-52.5c0.6-0.8,1.4-1.3,2.3-1.6c2.8-1,5.6-2.2,8.2-3.6c1.8-0.9,3.9-0.7,5.5,0.5c10.9,9,25.8,16.6,39.7,16.6
	c10.6,0,17.5-4.4,21.4-8C408.6,342,411.2,328.1,406.5,312.5z M288.2,290.1c0.9,0.9,1,2.3,0.1,3.3c-3.6,4-7.1,8-10.6,12
	c-0.4,0.4-1.1,0.2-1.2-0.3c0-0.2-0.1-0.5-0.1-0.7c-0.1-0.6,0-1.2,0.4-1.7c2.6-3.8,4.8-8,6.7-12.6c0.7-1.6,2.7-2,3.9-0.8
	C287.6,289.6,287.9,289.9,288.2,290.1z M383.3,333.8c-1.2,1.2-3.1,1.7-5.4,1.7c-8,0-21.1-6.6-29.7-15.8l0,0c0,0,0,0,0,0c0,0,0,0,0,0
	l0,0c-1-1.1-1.9-2.2-2.7-3.3c-1.6-2.3-1.8-5.2-0.8-7.8c2.2-5.7,2.5-11.6,1.1-16.4c1.4,0.2,2.8,0.3,3.8,0.3c2.6,0,5.2-0.4,7.7-1.1
	c1.9-0.6,4-0.4,5.8,0.5c2.9,1.4,5.7,3.3,8.3,6l0,0c0,0,0,0,0,0c0,0,0,0,0,0l0,0C384.4,311.8,388.5,328.9,383.3,333.8z M334.3,270.7
	c-0.8,4.1-0.7,8.1,0.3,11.5c-1.4-0.2-2.8-0.3-3.8-0.3h0c-3.9,0-7.7,0.8-11.3,2.4c-2.1,0.9-4.5,1-6.6,0.1c-2.3-1-4.6-2.3-6.9-4.1l0,0
	c0,0,0,0,0,0c0,0,0,0,0,0l0,0c-12.7-10.1-21.8-27.8-17-33.8c1.5-1.9,4.4-2.8,8.2-2.8c7.6,0,18.6,3.8,28.6,11.7l0,0c0,0,0,0,0,0
	c0,0,0,0,0,0l0,0c3.7,2.9,6.2,6.3,7.9,9.8C334.5,267,334.6,268.9,334.3,270.7z M341.6,274.4c0-0.3,0.1-0.6,0.1-0.9
	c0-0.2,0-0.3,0.1-0.5c0.1-0.4,0.1-0.9,0.2-1.3c0-0.1,0.1-0.3,0.1-0.4c0.1-0.3,0.2-0.7,0.3-1c0-0.2,0.1-0.3,0.2-0.5
	c0.1-0.4,0.3-0.9,0.5-1.4c0,0,0,0,0,0c0,0,0,0,0,0c0.9-2.2,2.2-4.4,4.1-6.4l0,0c0,0,0,0,0,0c0,0,0,0,0,0l0,0c6.4-7,16.1-12,22.1-12
	c1.6,0,3,0.4,3.9,1.2c3.9,3.6,1,16.3-8.6,26.7l0,0c0,0,0,0,0,0c0,0,0,0,0,0l0,0c-1.7,1.8-3.5,3.2-5.4,4.2c0,0,0,0,0,0
	c-5.2,2.8-10.7,2.9-13.7,1.8c0,0,0,0,0,0c-0.2-0.1-0.4-0.1-0.5-0.2c0,0-0.1,0-0.1,0c-0.2-0.1-0.3-0.2-0.4-0.2c0,0-0.1,0-0.1-0.1
	c-0.2-0.1-0.3-0.2-0.4-0.3c-0.2-0.1-0.3-0.3-0.4-0.5v0c-0.1-0.1-0.1-0.2-0.2-0.3c-0.1-0.1-0.1-0.2-0.2-0.3c-0.1-0.1-0.1-0.2-0.2-0.4
	c-0.1-0.2-0.1-0.3-0.2-0.5c-0.1-0.2-0.1-0.4-0.2-0.6c-0.1-0.2-0.1-0.3-0.2-0.5c0-0.1-0.1-0.3-0.1-0.4c-0.1-0.2-0.1-0.4-0.1-0.6
	c0-0.2-0.1-0.3-0.1-0.5c0-0.3-0.1-0.6-0.1-0.9c0-0.1,0-0.3,0-0.5c0-0.3,0-0.5,0-0.8c0-0.1,0-0.3,0-0.4c0-0.4,0-0.8,0-1.2
	C341.6,274.7,341.6,274.6,341.6,274.4z M315.9,296.4L315.9,296.4C315.9,296.4,315.9,296.4,315.9,296.4
	C315.9,296.4,315.9,296.4,315.9,296.4L315.9,296.4c0.8-0.9,1.7-1.7,2.6-2.4c0,0,0,0,0,0c5.3-4.1,11.5-4.8,15.2-4c0,0,0.1,0,0.1,0
	c0.3,0.1,0.5,0.1,0.7,0.2c0.1,0,0.1,0,0.2,0.1c0,0,0,0,0,0c0.3,0.1,0.7,0.2,0.9,0.4c0.1,0,0.2,0.1,0.3,0.1c0.1,0,0.1,0.1,0.2,0.1
	c0.2,0.1,0.3,0.2,0.4,0.3c0,0,0,0,0,0c0,0,0,0,0,0c0.2,0.2,0.3,0.3,0.5,0.6c0.1,0.1,0.1,0.2,0.2,0.3c0.1,0.1,0.2,0.3,0.3,0.5
	c0.1,0.1,0.1,0.3,0.2,0.4c0.1,0.2,0.1,0.3,0.2,0.5c0.1,0.2,0.1,0.3,0.2,0.5c0,0.2,0.1,0.3,0.1,0.5c0.1,0.2,0.1,0.4,0.2,0.7
	c0,0.1,0.1,0.3,0.1,0.4c0,0.3,0.1,0.5,0.1,0.8c0,0.1,0,0.3,0.1,0.4c0,0.3,0.1,0.6,0.1,0.9c0,0.1,0,0.2,0,0.4c0,0.3,0,0.7,0,1
	c0,0.1,0,0.2,0,0.3c0,0.4,0,0.7-0.1,1.1c0,0.1,0,0.2,0,0.3c0,0.4-0.1,0.8-0.2,1.2c0,0.1,0,0.2,0,0.2c-0.1,0.4-0.2,0.9-0.3,1.3
	c0,0.1,0,0.1-0.1,0.2c-0.1,0.4-0.3,0.9-0.4,1.3c0,0.1,0,0.1-0.1,0.2c-0.2,0.5-0.3,0.9-0.6,1.4c0,0,0,0.1-0.1,0.1
	c-0.2,0.5-0.4,0.9-0.7,1.4c0,0,0,0.1-0.1,0.1c-0.3,0.5-0.6,1-0.9,1.4c0,0,0,0,0,0.1c-0.3,0.5-0.7,1-1.1,1.5v0
	c-0.3,0.4-0.7,0.8-1,1.2l0,0c0,0,0,0,0,0c0,0,0,0,0,0l0,0c-6.4,7-16.1,12-22.1,12c-1.6,0-3-0.4-3.9-1.2
	C303.4,319.6,306.3,306.8,315.9,296.4z M284.2,181.8c4.2,0,7.5,1,9.2,3.2c5.3,6.7-2.6,26.2-20.4,40.3l0,0c0,0,0,0,0,0c0,0,0,0,0,0
	l0,0c-5.8,4.6-12.2,6.6-17.9,7.1c-1.2,0.1-2.3-0.2-3.2-0.9c-4.9-3.8-10.3-5.8-14.6-6.2c-1.9-6.8,0.3-20.4,12.1-29.7l0,0c0,0,0,0,0,0
	c0,0,0,0,0,0l0,0C260.1,187.1,274.6,181.8,284.2,181.8z M230.6,120.9L230.6,120.9C230.6,120.9,230.6,120.8,230.6,120.9
	C230.6,120.8,230.6,120.8,230.6,120.9L230.6,120.9c6.8-2.4,13.5-3.5,19.4-3.5c9.6,0,16.8,2.8,18.3,7c2.5,7.2-11.7,21-27.1,26.4l0,0
	c0,0,0,0,0,0c0,0,0,0,0,0l0,0c-2,0.7-3.9,1.2-5.8,1.4c-1.9,0.3-3.7-0.5-5-1.9c-1.6-1.7-3.3-3.2-5.3-4.5c-3.8-2.5-8.2-4-12.1-4.1
	C213.1,136.1,218.5,125.1,230.6,120.9z M205.7,167.6c-0.1-0.5-0.2-1-0.3-1.5c0-0.1,0-0.1,0-0.2c-0.1-0.5-0.1-0.9-0.2-1.4
	c0-0.1,0-0.2,0-0.3c0-0.4-0.1-0.9-0.1-1.3c0-0.1,0-0.2,0-0.2c0-0.4,0-0.9,0-1.3c0-0.1,0-0.1,0-0.2c0.2-2.3,0.7-4.4,1.4-6.2
	c0-0.1,0.1-0.2,0.1-0.2c0.1-0.3,0.2-0.5,0.4-0.8c0.1-0.1,0.1-0.2,0.2-0.4c0.1-0.2,0.2-0.4,0.3-0.6c0.1-0.1,0.1-0.3,0.2-0.4
	c0.1-0.2,0.2-0.4,0.3-0.5c0.1-0.1,0.2-0.2,0.3-0.3c0.1-0.1,0.2-0.3,0.3-0.4c0.1-0.1,0.1-0.1,0.2-0.2c0.2-0.3,0.5-0.5,0.7-0.7
	c0,0,0,0,0.1,0c0.1-0.1,0.1-0.1,0.2-0.2c0.1,0,0.1-0.1,0.2-0.1c0.2-0.1,0.3-0.2,0.5-0.3c0,0,0,0,0,0c0,0,0,0,0,0
	c0.2-0.1,0.4-0.1,0.6-0.2c0.1,0,0.1,0,0.2,0c0.2,0,0.5-0.1,0.7-0.1c0,0,0,0,0,0c0.3,0,0.5,0,0.8,0c0.1,0,0.2,0,0.3,0
	c0.2,0,0.4,0,0.7,0.1c0.1,0,0.2,0,0.3,0c0.2,0,0.5,0.1,0.8,0.1c0.1,0,0.2,0,0.3,0.1c0.3,0.1,0.6,0.2,0.9,0.2c0.1,0,0.1,0,0.2,0
	c3.9,1.2,8.6,4.4,11.5,9.9c0,0,0,0,0,0c0.2,0.5,0.5,1,0.7,1.5l0,0c0,0,0,0,0,0c0,0,0,0,0,0l0,0c4.8,11.1,4.6,25.8-0.6,28.1
	c-0.5,0.2-1.1,0.3-1.8,0.3c-5.3,0-14.2-7.5-19.2-19l0,0c0,0,0,0,0,0c0,0,0,0,0,0l0,0C206.3,169.8,206,168.7,205.7,167.6z M194.8,135
	c-1.9-4.7-3.7-9.2-5.5-13.4c-0.3-0.7,0.3-1.4,1-1.2c1.3,0.3,2.6,0.5,3.9,0.5c2.1,0,4.1-0.5,5.9-1.4c0.8-0.4,1.4-0.9,2.1-1.4
	c0.5-0.4,1.2-0.2,1.4,0.3c1.5,3.7,3.1,7.6,4.7,11.7c0.1,0.2,0.1,0.5,0,0.7c-1.1,2.2-1.9,4.4-2.4,6.5c-0.3,1.3-1.8,1.9-3,1.2
	c-2.2-1.3-4.7-2.3-7.5-3.1C195.1,135.4,194.9,135.2,194.8,135z M226.1,197.7c1.7,0,3.4-0.3,4.9-1c0,0,0.1,0,0.1-0.1
	c0.7,2.3,1.3,4.6,2,6.9c-1.7,3.5-2.9,7.1-3.5,10.5c-0.2,0.9-1.2,1.2-1.8,0.5c-2.3-2.6-5.2-5.1-8.4-7.2c-1.1-3.7-2.1-7.3-3.2-10.9
	c-0.3-0.9,0.7-1.6,1.4-1.2C220.4,196.8,223.3,197.7,226.1,197.7z M183,54.6c0.1-1.5,0.6-3,1.6-4.1c2.4-2.6,5.4-4.9,9.2-6.6l0,0
	c0,0,0,0,0,0c0,0,0,0,0,0l0,0c8-3.5,16-5.1,22.6-5.1c7.8,0,13.7,2.2,15.2,5.7c3.1,7-10.1,21.9-24.9,28.4l0,0c0,0,0,0,0,0
	c0,0,0,0,0,0l0,0c-1.8,0.8-3.6,1.4-5.3,1.8c-2,0.5-4.1-0.1-5.6-1.5c-4.9-4.5-10.8-6.8-15.8-7.1C181.8,62.9,182.9,58.9,183,54.6z
	 M175.6,74.7c0.2-0.1,0.3-0.3,0.5-0.3c0.2-0.1,0.4-0.2,0.6-0.3c0.1,0,0.2,0,0.2-0.1c0.2,0,0.3-0.1,0.5-0.1c0.1,0,0.2,0,0.3,0
	c0.2,0,0.4,0,0.6-0.1c0.1,0,0.2,0,0.3,0c0.2,0,0.5,0,0.7,0c0.1,0,0.2,0,0.3,0c0.3,0,0.7,0.1,1,0.1c0,0,0,0,0,0
	c0.8,0.1,1.6,0.3,2.4,0.5c0,0,0,0,0,0c0.4,0.1,0.8,0.3,1.2,0.4c0,0,0,0,0.1,0c3.4,1.4,7.1,4,9.8,8.2c0,0,0,0,0,0
	c0.3,0.4,0.5,0.9,0.8,1.4l0,0c0,0,0,0,0,0c0,0,0,0,0,0l0,0c5.7,10.7,6.5,25.4,1.5,28c-0.6,0.3-1.4,0.5-2.2,0.5
	c-5.4,0-14.4-6.7-20.2-17.5l0,0c0,0,0,0,0,0c0,0,0,0,0,0l0,0c-0.6-1.1-1-2.2-1.4-3.2c-0.2-0.5-0.3-1-0.4-1.4c0-0.1,0-0.1-0.1-0.2
	c-0.1-0.5-0.2-0.9-0.3-1.3c0-0.1,0-0.2,0-0.3c-0.1-0.4-0.1-0.9-0.2-1.3c0-0.1,0-0.2,0-0.2c0-0.4-0.1-0.9-0.1-1.3c0-0.1,0-0.1,0-0.2
	c0-2.3,0.3-4.5,0.9-6.3c0-0.1,0-0.2,0.1-0.2c0.1-0.3,0.2-0.5,0.3-0.8c0-0.1,0.1-0.2,0.1-0.4c0.1-0.2,0.2-0.4,0.3-0.7
	c0.1-0.1,0.1-0.3,0.2-0.4c0.1-0.2,0.2-0.4,0.3-0.5c0.1-0.1,0.2-0.2,0.2-0.4c0.1-0.2,0.2-0.3,0.3-0.5c0-0.1,0.1-0.1,0.1-0.2
	c0.2-0.3,0.4-0.5,0.6-0.7c0,0,0,0,0.1-0.1c0.1-0.1,0.1-0.1,0.2-0.2C175.5,74.8,175.5,74.8,175.6,74.7z M150.5,26.8
	c0.6-0.3,1.4-0.5,2.2-0.5c5.4,0,14.4,6.7,20.2,17.5l0,0c0,0,0,0,0,0c0,0,0,0,0,0l0,0c1.2,2.2,1.8,4.4,2.2,6.6
	c0.1,0.4,0.1,0.9,0.2,1.3c0,0,0,0,0,0.1c0.2,1.7,0.1,3.4-0.2,4.9c0,0,0,0,0,0.1c-0.2,1.5-0.6,2.8-1.1,3.9c0,0.1-0.1,0.2-0.1,0.3
	c-0.1,0.2-0.2,0.4-0.3,0.6c-0.1,0.1-0.1,0.3-0.2,0.4c-0.1,0.2-0.2,0.3-0.3,0.5c-0.2,0.3-0.3,0.5-0.5,0.8c-0.1,0.1-0.1,0.2-0.2,0.2
	c-0.1,0.2-0.2,0.3-0.4,0.5c-0.1,0.1-0.1,0.1-0.2,0.2c-0.1,0.1-0.3,0.3-0.4,0.4c-0.1,0.1-0.1,0.1-0.2,0.2c-0.2,0.1-0.4,0.3-0.5,0.4
	c-0.2,0.1-0.4,0.2-0.6,0.2h0c-0.4,0.1-0.8,0.2-1.2,0.3c0,0,0,0,0,0c-0.2,0-0.4,0-0.6,0c-0.1,0-0.1,0-0.2,0c-0.2,0-0.4,0-0.6,0
	c-0.1,0-0.1,0-0.2,0c-0.2,0-0.4,0-0.6,0c-0.1,0-0.2,0-0.3,0c-0.2,0-0.4,0-0.6-0.1c-0.1,0-0.2,0-0.3-0.1c-0.2,0-0.4-0.1-0.6-0.1
	c-0.1,0-0.2-0.1-0.4-0.1c-0.3-0.1-0.6-0.2-1-0.3c-0.2-0.1-0.4-0.1-0.6-0.2c-0.1-0.1-0.3-0.1-0.4-0.2c-0.2-0.1-0.4-0.1-0.6-0.2
	c-0.1-0.1-0.3-0.1-0.5-0.2c-0.2-0.1-0.4-0.2-0.6-0.3c-0.1-0.1-0.3-0.2-0.4-0.2c-0.2-0.1-0.4-0.2-0.6-0.3c-0.1-0.1-0.3-0.2-0.4-0.3
	c-0.2-0.1-0.4-0.3-0.6-0.4c-0.1-0.1-0.3-0.2-0.4-0.3c-0.2-0.2-0.4-0.3-0.7-0.5c-0.1-0.1-0.2-0.2-0.3-0.3c-2.1-1.7-4.1-3.9-5.6-6.8
	l0,0c0,0,0,0,0,0c0,0,0,0,0,0l0,0C146.3,44.2,145.5,29.5,150.5,26.8z M164,88.8c0.2,1.7-0.3,3.4-1.4,4.8c-1.8,2.2-4.1,4.3-6.9,6l0,0
	c0,0,0,0,0,0c0,0,0,0,0,0l0,0c-8.5,5.4-19.4,8.4-27.3,8.4c-4.9,0-8.6-1.1-10.2-3.6c-3.8-6.1,4.4-21.6,20.5-31.8l0,0c0,0,0,0,0,0
	c0,0,0,0,0,0l0,0c4.8-3,9.7-4.2,14.2-4.3c0.5,0,1.1,0.2,1.5,0.5c4.1,2.8,8.5,4.2,12.4,4.4C164.6,77.5,163.4,83,164,88.8z
	 M150.5,175.5c-3.3-6.3,6.1-21.2,22.9-30.1l0,0c0,0,0,0,0,0c0,0,0,0,0,0l0,0c4.4-2.3,8.9-3.2,13-3.2c7.3,0,13.3,2.9,15.3,5.5
	c-2.9,4-4.6,9.8-4.4,16c0.1,1.5-0.5,3-1.5,4.1c-2,2.1-4.5,4.1-7.5,5.7l0,0c0,0,0,0,0,0c0,0,0,0,0,0l0,0c-8,4.2-17.6,6.4-25.2,6.4
	C156.9,179.9,152.1,178.5,150.5,175.5z M219.3,239.8c-0.4,1.1-1.1,2-2.1,2.6c-4.4,2.5-10,4.4-16.5,4.4c-1.3,0-2.7-0.1-4.1-0.2l0,0
	c0,0,0,0,0,0c0,0,0,0,0,0v0c-19.3-2.3-39.6-14.6-38.5-23.6c0.9-7.4,15.6-14.6,34.4-14.6c2.8,0,5.7,0.2,8.6,0.5v0c0,0,0,0,0,0
	c0,0,0,0,0,0l0,0c15.1,1.8,24.3,12.9,26,19.6C223.8,230.9,221.1,234.9,219.3,239.8C219.3,239.8,219.3,239.8,219.3,239.8z M226.6,261
	L226.6,261C226.6,261,226.6,261,226.6,261C226.6,261,226.6,261,226.6,261L226.6,261c-1.8-5.4-1.9-10.6-1-14.9
	c0.1-0.4,0.2-0.9,0.3-1.3c0,0,0,0,0,0c0.4-1.7,1-3.2,1.7-4.6c0,0,0,0,0,0c0.2-0.3,0.3-0.7,0.5-1c0,0,0,0,0,0c0.5-1,1.1-1.8,1.6-2.6
	c0,0,0.1-0.1,0.1-0.1c0.2-0.2,0.3-0.4,0.5-0.6c0,0,0.1-0.1,0.1-0.1c0.2-0.2,0.3-0.4,0.5-0.5c0,0,0,0,0.1-0.1
	c0.2-0.2,0.4-0.4,0.6-0.6c0,0,0,0,0.1,0c0.2-0.1,0.3-0.3,0.5-0.4c0.1,0,0.1-0.1,0.2-0.1c0.1-0.1,0.3-0.2,0.4-0.3
	c0.1,0,0.1-0.1,0.2-0.1c0.1-0.1,0.2-0.1,0.3-0.2c0.3-0.1,0.5-0.2,0.7-0.3c0.3-0.1,0.5-0.1,0.8-0.2c0.1,0,0.1,0,0.2,0
	c0.2,0,0.4,0,0.6,0c0.1,0,0.2,0,0.3,0c0.3,0,0.5,0,0.8,0c0.1,0,0.2,0,0.2,0c0.3,0,0.7,0.1,1.1,0.2c0.1,0,0.3,0.1,0.4,0.1
	c0.3,0.1,0.5,0.1,0.8,0.2c0.2,0,0.3,0.1,0.5,0.1c0.3,0.1,0.5,0.2,0.8,0.3c0.2,0.1,0.3,0.1,0.5,0.2c0.4,0.2,0.8,0.3,1.2,0.5
	c0.2,0.1,0.3,0.2,0.5,0.3c0.3,0.1,0.5,0.3,0.8,0.4c0.2,0.1,0.4,0.2,0.6,0.3c0.2,0.1,0.5,0.3,0.7,0.4c0.2,0.1,0.4,0.3,0.6,0.4
	c0.3,0.2,0.5,0.4,0.8,0.5c0.3,0.2,0.6,0.4,0.9,0.7c0.3,0.2,0.5,0.4,0.8,0.6c0.2,0.2,0.4,0.4,0.6,0.5c0.2,0.2,0.5,0.4,0.7,0.6
	c0.2,0.2,0.4,0.4,0.6,0.6c2.8,2.7,5.2,6.3,6.7,10.8l0,0c0,0,0,0,0,0c0,0,0,0,0,0l0,0c6.1,18,2.8,35.3-4,37.6
	c-0.5,0.2-1.1,0.3-1.7,0.3C243.5,288.7,231.4,275.3,226.6,261z M270.6,391.4c-1.7,4.6-2.3,9.4-2,14.3c1.2,19.8,1.3,40.7,1.3,61.9
	c0,4-3,7.4-7,7.5c-4.1,0.1-7.4-3.2-7.4-7.2c0-64.1-6.2-121.7-15.4-172c-0.3-1.4,1.2-2.5,2.5-1.8c2.8,1.5,5.7,2.4,8.5,2.4
	c0.7,0,1.3-0.1,2-0.1c0.9-0.1,1.8,0.4,2,1.4c3.2,18.3,6.1,37.6,8.4,57.7c0.2,2.1,1.9,3.2,3.6,3.2c1.2,0,2.4-0.6,3.1-1.9
	c6.7-12.1,15.8-25.8,27.9-40c-0.3,5.1,1.1,9.3,4.2,12.2c0.7,0.7,1.7,1.4,3,2C285,356,275,379,270.6,391.4z"/>
<path class="st0" d="M364.6,308.3l-16.4-17.4c-1.8-1.9-1.8-4.9,0-6.8l11.9-13c1.4-1.5,1.5-4,0.1-5.5c-1.6-1.6-4.1-1.5-5.6,0.1
	l-11.7,12.7c-1.8,1.9-4.7,2.2-6.8,0.5l-20.2-16c-1.7-1.3-4.1-1-5.5,0.6c-1.3,1.7-1,4.1,0.6,5.5l19.3,15.3c2.3,1.8,2.5,5.2,0.6,7.3
	l-10.7,11.6c-1.5,1.6-1.5,4.3,0.2,5.7c0.7,0.6,1.6,1,2.6,1c1,0,2.1-0.4,2.9-1.3l10.4-11.3c2-2.1,5.3-2.2,7.3,0l15.5,16.4
	c0.8,0.8,1.8,1.2,2.8,1.2c0.9,0,1.8-0.3,2.6-1C366.1,312.5,366.1,309.9,364.6,308.3z"/>
<path class="st0" d="M261.8,205c1.7-1.3,4.1-1,5.5,0.6c1.3,1.7,1,4.1-0.6,5.5l-24.7,19.5c-2.1,1.7-3,4.5-2.1,7.1l6.5,19.8
	c0.6,1.8-0.1,3.8-1.7,4.7c-0.6,0.4-1.3,0.5-2,0.5c-1.6,0-3.2-1-3.7-2.7l-6.8-20.8c-0.8-2.4-2.9-4.1-5.4-4.4l-32.2-3.8
	c-2.1-0.2-3.7-2.2-3.4-4.3c0.2-2.1,2.2-3.7,4.3-3.4l34.9,4.1c1.7,0.2,3.4-0.3,4.8-1.4L261.8,205z"/>
<path class="st0" d="M201.3,153.1c2.8-1.5,6.3-0.3,7.6,2.7l6.2,14.1c0.6,1.5,2.1,2.3,3.6,2.3c0.7,0,1.5-0.2,2.1-0.6
	c1.6-1,2.1-3.2,1.4-4.9l-5.9-13.5c-1.3-2.9,0.2-6.3,3.2-7.4l20.6-7.3c1.9-0.7,3.1-2.7,2.6-4.6c-0.6-2.3-2.9-3.5-5.1-2.7l-34.6,12.3
	l-26.5,14c-1.8,0.9-2.7,3-2,4.9c0.6,1.6,2.1,2.5,3.6,2.5c0.6,0,1.2-0.1,1.8-0.5L201.3,153.1z"/>
<path class="st0" d="M206.8,55.8c-0.8-2.1-3.2-3.1-5.2-2.2l-22.7,10.1c-2,0.9-4.4,0.1-5.4-1.9l-8.7-16.4c-1.1-2.1-4-2.8-5.9-1.1
	c-1.4,1.2-1.7,3.3-0.9,4.9l8.4,15.8c1,1.9,0.4,4.4-1.5,5.5l-22.2,14c-1.8,1.1-2.5,3.4-1.5,5.2c0.7,1.3,2.1,2,3.4,2
	c0.7,0,1.4-0.2,2.1-0.6l21.6-13.6c2.1-1.3,4.8-0.6,6,1.6l7.9,14.9c0.7,1.3,2,2.1,3.4,2.1c0.8,0,1.5-0.2,2.2-0.7
	c1.6-1.1,2.1-3.4,1.1-5.1L181.4,76c-1.1-2.2-0.2-4.8,2-5.8l21.2-9.4C206.5,59.9,207.5,57.7,206.8,55.8z"/>
<g>
	
		<ellipse transform="matrix(0.9164 -0.4002 0.4002 0.9164 -49.1132 101.5567)" class="st23" cx="218.6" cy="168.4" rx="3.9" ry="3.9"/>
	<path class="st23" d="M240.2,142.1c-1.6,0-3.1-1-3.7-2.6c-0.7-2,0.3-4.2,2.4-5l10.7-3.8c2-0.7,4.2,0.3,5,2.4c0.7,2-0.3,4.2-2.4,5
		l-10.7,3.8C241,142,240.6,142.1,240.2,142.1z"/>
	<path class="st23" d="M171.8,172.4c-1.4,0-2.7-0.8-3.4-2.1c-1-1.9-0.3-4.2,1.6-5.2l10.2-5.4c1.9-1,4.2-0.3,5.2,1.6
		c1,1.9,0.3,4.2-1.6,5.2l-10.2,5.4C173,172.2,172.4,172.4,171.8,172.4z"/>
	<ellipse transform="matrix(0.8828 -0.4697 0.4697 0.8828 -21.559 97.9466)" class="st23" cx="185.5" cy="92.2" rx="4" ry="4"/>
	<ellipse transform="matrix(0.8828 -0.4697 0.4697 0.8828 -3.326 81.3425)" class="st23" cx="161.4" cy="47.3" rx="4" ry="4"/>
	<path class="st23" d="M203,65.1c-1.5,0-2.9-0.9-3.6-2.3c-0.9-2,0-4.3,2-5.1l9.7-4.3c2-0.9,4.3,0,5.1,2c0.9,2,0,4.3-2,5.1l-9.7,4.3
		C204,65,203.5,65.1,203,65.1z"/>
	<path class="st23" d="M140.1,98.9c-1.3,0-2.5-0.6-3.3-1.8c-1.1-1.8-0.6-4.2,1.2-5.4l7.8-4.9c1.8-1.1,4.2-0.6,5.4,1.2
		s0.6,4.2-1.2,5.4l-7.8,4.9C141.5,98.7,140.8,98.9,140.1,98.9z"/>
	
		<ellipse transform="matrix(0.9467 -0.3222 0.3222 0.9467 -70.6666 92.0672)" class="st23" cx="242.8" cy="259.5" rx="3.9" ry="3.9"/>
	<ellipse transform="matrix(0.677 -0.736 0.736 0.677 -121.0242 336.6309)" class="st23" cx="323" cy="306.2" rx="4" ry="4"/>
	<ellipse transform="matrix(0.677 -0.736 0.736 0.677 -82.003 349.7125)" class="st23" cx="357.4" cy="268.3" rx="4" ry="4"/>
	<path class="st23" d="M363.4,321.9c-1,0-2.1-0.4-2.8-1.2l-5.3-5.7c-1.5-1.6-1.4-4,0.2-5.5c1.6-1.5,4-1.4,5.5,0.2l5.3,5.7
		c1.5,1.6,1.4,4-0.2,5.5C365.3,321.6,364.3,321.9,363.4,321.9z"/>
	<path class="st23" d="M313.6,274.6c-0.8,0-1.7-0.3-2.4-0.8l-6.4-5.1c-1.7-1.3-2-3.8-0.6-5.5c1.3-1.7,3.8-2,5.5-0.6l6.4,5.1
		c1.7,1.3,2,3.8,0.6,5.5C315.9,274.1,314.7,274.6,313.6,274.6z"/>
	<path class="st23" d="M195,234.7c-0.2,0-0.3,0-0.5,0l-10.4-1.2c-2.1-0.2-3.7-2.2-3.4-4.3c0.2-2.1,2.2-3.7,4.3-3.4l10.4,1.2
		c2.1,0.2,3.7,2.2,3.4,4.3C198.7,233.3,197,234.7,195,234.7z"/>
	<path class="st23" d="M265.8,214.9c-1.1,0-2.3-0.5-3-1.5c-1.3-1.7-1-4.1,0.6-5.5l12-9.5c1.7-1.3,4.1-1,5.5,0.6
		c1.3,1.7,1,4.1-0.6,5.5l-12,9.5C267.5,214.6,266.6,214.9,265.8,214.9z"/>
</g>
</svg>
