<?xml version="1.0" encoding="utf-8"?>
<!-- Generator: Adobe Illustrator 20.0.0, SVG Export Plug-In . SVG Version: 6.00 Build 0)  -->
<svg version="1.1" id="Layer_1" xmlns="http://www.w3.org/2000/svg" xmlns:xlink="http://www.w3.org/1999/xlink" x="0px" y="0px"
	 viewBox="0 0 64 64" style="enable-background:new 0 0 64 64;" xml:space="preserve">
<style type="text/css">
	.st0{fill:#A2CC62;}
	.st1{fill:#68664C;stroke:#522B25;stroke-width:3;stroke-linecap:round;stroke-linejoin:round;stroke-miterlimit:10;}
	.st2{fill:#B63E34;stroke:#522B25;stroke-width:3;stroke-miterlimit:10;}
	.st3{fill:#ADD481;}
	.st4{fill:#68664C;}
	.st5{fill:#593156;stroke:#331E31;stroke-width:3;stroke-miterlimit:10;}
	.st6{fill:#22B573;stroke:#184C28;stroke-width:3;stroke-linecap:round;stroke-linejoin:round;stroke-miterlimit:10;}
	.st7{fill:#EE0000;}
	.st8{fill:#9A0601;}
	.st9{fill:none;stroke:#FFFFFF;stroke-linecap:round;stroke-linejoin:round;stroke-miterlimit:10;}
	.st10{fill:#EE0000;stroke:#9A0601;stroke-linecap:round;stroke-linejoin:round;stroke-miterlimit:10;}
	.st11{fill:#FFFFFF;}
	.st12{clip-path:url(#SVGID_2_);}
	.st13{fill:#AFD048;}
	.st14{fill:#00FFFF;}
	.st15{fill:#456A0A;}
	.st16{fill:#1D4200;}
	.st17{fill:#88A501;}
	.st18{fill:#3B6700;}
	.st19{fill:#FC4100;}
	.st20{fill:#9F0500;}
	.st21{fill:none;stroke:#6B9311;stroke-width:3;stroke-linecap:round;stroke-miterlimit:10;}
	.st22{fill:#AFD048;stroke:#6B9311;stroke-width:3;stroke-linejoin:round;stroke-miterlimit:10;}
	.st23{fill:none;stroke:#6B9311;stroke-linejoin:round;stroke-miterlimit:10;}
	.st24{fill:#6B9311;}
	.st25{fill:#593156;}
	.st26{fill:#331E31;}
	.st27{fill:#B63E34;stroke:#522B25;stroke-miterlimit:10;}
	.st28{fill:none;stroke:#522B25;stroke-miterlimit:10;}
	.st29{fill:none;stroke:#FFFFFF;stroke-linecap:round;stroke-miterlimit:10;}
	.st30{fill:none;stroke:#522B25;stroke-width:3;stroke-miterlimit:10;}
	.st31{fill:#B63E34;}
	.st32{fill:#522B25;}
	.st33{fill:none;stroke:#40760E;stroke-width:3;stroke-linecap:round;stroke-linejoin:round;stroke-miterlimit:10;}
	.st34{fill:none;stroke:#40760E;stroke-linecap:round;stroke-linejoin:round;stroke-miterlimit:10;}
	.st35{fill:#A2CC62;stroke:#40760E;stroke-width:3;stroke-linecap:round;stroke-linejoin:round;stroke-miterlimit:10;}
	.st36{fill:#A2CC62;stroke:#40760E;stroke-linecap:round;stroke-linejoin:round;stroke-miterlimit:10;}
	.st37{fill:#9EC161;}
	.st38{fill:#40760E;}
</style>
<g>
	<g>
		<path class="st3" d="M34.1,10.8l-0.6-8.3h-2.9l-0.6,8.3C18.1,11.6,8.7,20.2,8.7,30.5c0,5.5,2.7,10.5,6.9,14.1
			c7,6,11.9,11.2,16.3,16.7c4-5.3,10.5-11.5,16.3-16.7c4.1-3.7,6.9-8.6,6.9-14.1C55.3,20.2,45.9,11.6,34.1,10.8z"/>
	</g>
	<g>
		<path class="st37" d="M14.4,43.6c4.7-1.7,11-3.8,17.8-3.8c6.7,0,12.8,2,17.5,3.7L32,61.4L14.4,43.6z"/>
	</g>
	<path class="st38" d="M35.5,9.4l-0.5-7C34.9,1.6,34.2,1,33.4,1h-2.9c-0.8,0-1.4,0.6-1.5,1.4l-0.5,7c-12,1.5-21.3,10.5-21.3,21.1
		c0,5.7,2.6,11.1,7.5,15.3c6.7,5.7,11.6,10.9,16.1,16.6c0.3,0.4,0.7,0.6,1.2,0.6c0,0,0,0,0,0c0.5,0,0.9-0.3,1.2-0.7
		c3.2-4.2,8.5-9.7,16.1-16.5c4.8-4.3,7.4-9.8,7.4-15.3C56.8,19.9,47.5,10.9,35.5,9.4z M31.2,11.4L32,4H32l0.7,7.4
		C32,11.2,31.2,11.4,31.2,11.4z M37.6,30.5c0,6.4-1,11.1-1.8,14c-0.3,1.1-0.7,2.3-1,3.4c-1,3.3-2,6.7-2.8,10.1
		c-1-4.2-2-7.7-3.5-12.3l-0.4-1.2c-1.2-3.8-1.8-8.8-1.8-14c0-12.1,1.9-18.3,5.6-18.3C35.6,12.3,37.6,18.9,37.6,30.5z M25.4,30.5
		c0,5.3,0.7,10.3,1.8,14.2l0.4,1.2c1.1,3.7,2.1,6.8,2.9,10c-1.7-2.4-3.4-4.4-5.6-6.9c-1.3-1.5-2.6-3-4.1-4.8
		c-3.1-3.8-4.8-8.7-4.8-13.8c0-9.2,5.4-16.4,13-18C26.6,15,25.4,21,25.4,30.5z M35.8,48.2c0.3-1.1,0.7-2.3,1-3.4
		c1.2-4.1,1.8-9.1,1.8-14.2c0-6.9-0.7-14.9-3.7-18C42.6,14,48,21.3,48,30.5c0,6.3-2.6,11-4.8,13.8c-1.4,1.8-2.9,3.4-4.3,5.1
		c-1.9,2.2-3.8,4.3-5.4,6.6C34.2,53.3,35,50.8,35.8,48.2z M16.7,43.5c-4.1-3.6-6.4-8.2-6.4-13c0-7.5,5.5-14.1,13.3-16.9
		c-5.2,3.2-8.6,9.4-8.6,16.9c0,5.3,1.8,10.5,5,14.4c1.5,1.8,2.8,3.3,4.1,4.8c1.5,1.7,2.8,3.2,4.1,4.8C24.9,51,21.1,47.4,16.7,43.5z
		 M47.3,43.5c-4.8,4.3-8.6,8-11.7,11.3c1.3-1.6,2.6-3.2,4-4.8c1.4-1.6,2.9-3.3,4.3-5.1c3.3-4.2,5-9.2,5-14.4
		c0-7.5-3.4-13.7-8.6-16.9c7.8,2.8,13.3,9.4,13.3,16.9C53.8,36.5,50.3,40.9,47.3,43.5z"/>
	<g>
		<path class="st11" d="M13.1,27.1C13.1,27.1,13,27.1,13.1,27.1c-0.3,0-0.5-0.3-0.5-0.6c0.3-1.9,1-3.6,1.6-4.7
			c0.1-0.2,0.4-0.3,0.7-0.2c0.2,0.1,0.3,0.4,0.2,0.7c-0.6,1-1.3,2.6-1.5,4.4C13.5,26.9,13.3,27.1,13.1,27.1z"/>
	</g>
	<g>
		<path class="st11" d="M19.2,26.8C19.2,26.8,19.2,26.8,19.2,26.8c-0.4-0.1-0.5-0.3-0.5-0.6c0.1-0.8,0.4-1.7,0.7-2.6
			c0.1-0.3,0.4-0.4,0.6-0.3c0.3,0.1,0.4,0.4,0.3,0.6c-0.3,0.8-0.5,1.6-0.7,2.4C19.7,26.7,19.5,26.8,19.2,26.8z"/>
	</g>
	<g>
		<circle class="st11" cx="28.5" cy="25.6" r="0.5"/>
	</g>
</g>
</svg>
