<?xml version="1.0" encoding="utf-8"?>
<!-- Generator: Adobe Illustrator 20.0.0, SVG Export Plug-In . SVG Version: 6.00 Build 0)  -->
<svg version="1.1" xmlns="http://www.w3.org/2000/svg" xmlns:xlink="http://www.w3.org/1999/xlink" x="0px" y="0px"
	 viewBox="0 0 64 64" style="enable-background:new 0 0 64 64;" xml:space="preserve">
<style type="text/css">
	.st0{fill:#22B573;stroke:#184C28;stroke-width:3;stroke-linecap:round;stroke-linejoin:round;stroke-miterlimit:10;}
	.st1{fill:#EE0000;}
	.st2{fill:#9A0601;}
	.st3{fill:none;stroke:#FFFFFF;stroke-linecap:round;stroke-linejoin:round;stroke-miterlimit:10;}
	.st4{fill:#6FAD4C;}
	.st5{fill:#FCAA54;stroke:#8CC63F;stroke-width:3;stroke-linecap:round;stroke-linejoin:round;stroke-miterlimit:10;}
	.st6{fill:none;stroke:#8D5733;stroke-linecap:round;stroke-linejoin:round;stroke-miterlimit:10;}
	.st7{fill:#184C28;}
	.st8{fill:#82C64E;}
	.st9{fill:none;stroke:#497726;stroke-linecap:round;stroke-linejoin:round;stroke-miterlimit:10;}
	.st10{fill:#497726;}
	.st11{opacity:0.2;}
	.st12{fill:#748C8B;}
	.st13{fill:#434D42;}
	.st14{fill:#EFC11E;}
	.st15{fill:#C9292F;}
	.st16{fill:#802D2D;}
	.st17{fill:#C9292F;stroke:#802D2D;stroke-width:2.5473;stroke-miterlimit:10;}
	.st18{opacity:0.4;}
	.st19{fill:none;stroke:#FFFFFF;stroke-width:2.5473;stroke-linecap:round;stroke-linejoin:round;stroke-miterlimit:10;}
	.st20{fill:none;stroke:#006837;stroke-width:2.5473;stroke-linecap:round;stroke-miterlimit:10;}
	.st21{fill:#FFFFFF;}
	.st22{fill:#C9292F;stroke:#FFFFFF;stroke-width:2;stroke-linecap:round;stroke-linejoin:round;stroke-miterlimit:10;}
	.st23{filter:url(#Adobe_OpacityMaskFilter);}
	.st24{opacity:0.8;mask:url(#SVGID_1_);}
	.st25{fill:#00FFFF;}
	.st26{fill:#2E368F;}
	.st27{fill:#5860A5;}
	.st28{fill:#161542;}
	.st29{fill:none;stroke:#434D42;stroke-linecap:round;stroke-linejoin:round;stroke-miterlimit:10;}
	.st30{fill:#54665F;}
	.st31{fill:#54665F;stroke:#434D42;stroke-width:2;stroke-linecap:round;stroke-linejoin:round;stroke-miterlimit:10;}
	.st32{fill:#748C8B;stroke:#434D42;stroke-linecap:round;stroke-linejoin:round;stroke-miterlimit:10;}
	.st33{clip-path:url(#SVGID_3_);}
	.st34{fill:#194C28;}
	.st35{fill:#82C64E;stroke:#184C28;stroke-linejoin:round;stroke-miterlimit:10;}
	.st36{fill:none;stroke:#184C28;stroke-linecap:round;stroke-linejoin:round;stroke-miterlimit:10;}
	.st37{fill:#FCAA54;}
	.st38{fill:#8D5733;}
	.st39{fill:#406D2A;}
	.st40{fill:none;stroke:#8D5733;stroke-linecap:round;stroke-miterlimit:10;}
	.st41{fill:none;stroke:#FFFFFF;stroke-linecap:round;stroke-miterlimit:10;}
	.st42{clip-path:url(#SVGID_5_);}
	.st43{fill:#EE0000;stroke:#9A0601;stroke-linecap:round;stroke-linejoin:round;stroke-miterlimit:10;}
	.st44{fill:#C1272D;}
	.st45{fill:#184C28;stroke:#184C28;stroke-width:3;stroke-linecap:round;stroke-linejoin:round;stroke-miterlimit:10;}
	.st46{fill:none;stroke:#FDD6AD;stroke-linecap:round;stroke-linejoin:round;stroke-miterlimit:10;}
	.st47{fill:none;stroke:#FCAA54;stroke-linecap:round;stroke-linejoin:round;stroke-miterlimit:10;}
	.st48{fill:#9B0D91;}
	.st49{fill:#1B631A;}
	.st50{fill:#22153F;}
	.st51{fill:#95CC63;stroke:#517B39;stroke-width:3;stroke-linecap:round;stroke-linejoin:round;stroke-miterlimit:10;}
	.st52{fill:none;stroke:#517B39;stroke-linecap:round;stroke-linejoin:round;stroke-miterlimit:10;}
	.st53{fill:#22B573;}
	.st54{display:none;}
	.st55{display:inline;fill:none;stroke:#00FFFF;stroke-width:0.1;stroke-miterlimit:10;}
</style>
<g id="Layer_2">
	<path class="st53" d="M17.8,12.9c-2.3-1.9-4-4.1-4.6-6.5c0,0,6.4,2.7,14.2,3.6L32,1.9l4.5,8C44.1,9,50.8,6.4,50.8,6.4
		c-0.8,2.2-2.2,4.2-3.9,5.8l-14.1-1.9L17.8,12.9z"/>
	<path class="st7" d="M16.3,13.5c-2.2-2-3.9-4.3-4.5-6.7c-0.2-0.6,0-1.1,0.5-1.5c0.4-0.4,1-0.5,1.6-0.3c0.1,0,5.8,2.4,12.8,3.3
		l4.1-7.2C31,0.7,31.5,0.4,32,0.4s1,0.3,1.3,0.8l4,7.1C44.2,7.3,50.2,5,50.3,5c0.5-0.2,1.2-0.1,1.6,0.3c0.4,0.4,0.6,1,0.4,1.6
		c-0.8,2.1-2,4-3.6,5.7l-3.3-1C46.2,10.8,47,10,47.7,9c-2.7,0.8-6.7,1.8-11,2.4c0,0-1.5-0.7-1.5-0.7L32,4.9l-3.3,5.8l-5.2,0.2
		c-2.9-0.5-5.4-1.2-7.3-1.8c0.8,1.1,1.9,2.2,3.2,3.1L16.3,13.5z"/>
	<g>
		<path class="st1" d="M2.1,36.2c0,14.3,13.5,25.9,30.1,25.9c17.2,0,30.1-10.4,30.1-24.1c0-18-9.4-27.9-26.6-27.9
			C35.7,10.1,2.1,7.4,2.1,36.2z"/>
	</g>
	<path class="st2" d="M35.7,8.6L35.7,8.6c-1.2,0-2.5,0-3.8,0.1c-7.1,0.5-14.5,1.6-20.6,5.3C4.2,18.5,0.6,25.9,0.6,36.2
		c0,15.1,14.2,27.4,31.6,27.4c8.4,0,16.3-2.4,22.1-6.9c6.2-4.7,9.6-11.4,9.6-18.8C63.8,12.5,46.2,8.6,35.7,8.6z M3.6,36.2
		c0-17.2,10.8-22,22-23.7c-1.8,1.2-3.5,3-4.8,5.9c-0.1,0.3,0,0.5,0.3,0.7c0.3,0.1,0.5,0,0.7-0.3c2.4-5.4,6.2-6.8,9.9-7.4
		C34,11,36,11.5,37.8,13c4.1,3.5,6.2,11.9,6.2,25.2c0,13.1-5.4,23-12.5,23c-3.6,0-7.1-3.2-9.5-8.8c-0.1-0.3-0.4-0.4-0.7-0.3
		c-0.3,0.1-0.4,0.4-0.3,0.7c1.4,3.3,3.2,5.8,5.2,7.4C13.3,57.8,3.6,48,3.6,36.2z M36.8,60.4c4.9-3.5,8.1-11.8,8.1-22.2
		c0-13.5-2.2-22.3-6.6-25.9c-0.2-0.2-0.4-0.3-0.7-0.5c11.7,0.6,23.1,6.4,23.1,26.3C60.8,50.1,50.4,58.8,36.8,60.4z"/>
	<g>
		<g>
			<path class="st21" d="M8.9,27.9c-0.1,0-0.1,0-0.2,0c-0.3-0.1-0.4-0.4-0.3-0.6c1.3-3.4,3.4-5.9,6.6-7.8c0.2-0.1,0.5-0.1,0.7,0.2
				c0.1,0.2,0.1,0.5-0.2,0.7c-2.9,1.7-4.9,4.1-6.1,7.3C9.3,27.8,9.1,27.9,8.9,27.9z"/>
		</g>
		<g>
			<path class="st21" d="M48.9,27.4c-0.2,0-0.5-0.2-0.5-0.4c-0.4-3.2-1-6.1-1.8-8.5c-0.1-0.3,0.1-0.5,0.3-0.6
				c0.3-0.1,0.5,0.1,0.6,0.3c0.8,2.5,1.4,5.4,1.8,8.7C49.4,27.1,49.2,27.3,48.9,27.4C48.9,27.4,48.9,27.4,48.9,27.4z"/>
		</g>
		<g>
			<path class="st21" d="M23.3,26.3C23.3,26.3,23.3,26.3,23.3,26.3c-0.4-0.1-0.5-0.3-0.5-0.6c0.9-5,2.5-8.2,4.9-9.8
				c0.2-0.2,0.5-0.1,0.7,0.1c0.2,0.2,0.1,0.5-0.1,0.7c-2.2,1.4-3.6,4.4-4.5,9.1C23.8,26.1,23.6,26.3,23.3,26.3z"/>
		</g>
		<g>
			<circle class="st21" cx="22.9" cy="29.2" r="0.5"/>
		</g>
	</g>
</g>
<g id="Layer_1" class="st54">
</g>
</svg>
