<svg xmlns="http://www.w3.org/2000/svg" xmlns:xlink="http://www.w3.org/1999/xlink" width="100" height="100" fill="0" version="1.1" viewBox="0 0 32 32"><g id="surface1"><path d="M 16 4 C 9.382813 4 4 9.382813 4 16 C 4 19.070313 5.15625 21.875 7.0625 24 L 5 24 L 5 26 L 11 26 L 11 20 L 9 20 L 9 23.125 C 7.15625 21.3125 6 18.792969 6 16 C 6 10.464844 10.464844 6 16 6 Z M 18.25 4.21875 L 17.6875 6.15625 C 18.347656 6.269531 19.003906 6.445313 19.625 6.6875 L 20.15625 4.75 C 19.53125 4.519531 18.90625 4.34375 18.25 4.21875 Z M 21 6 L 21 12 L 23 12 L 23 8.875 C 24.847656 10.683594 26 13.199219 26 16 C 26 21.535156 21.535156 26 16 26 L 16 28 C 22.617188 28 28 22.617188 28 16 C 28 12.921875 26.820313 10.121094 24.90625 8 L 27 8 L 27 6 Z M 12.375 25.3125 L 11.84375 27.25 C 12.46875 27.480469 13.09375 27.65625 13.75 27.78125 L 14.3125 25.84375 C 13.652344 25.730469 12.996094 25.554688 12.375 25.3125 Z"/></g></svg>