<?xml version="1.0" encoding="utf-8"?>
<!-- Generator: Adobe Illustrator 20.1.0, SVG Export Plug-In . SVG Version: 6.00 Build 0)  -->
<svg version="1.1" id="Layer_1" xmlns="http://www.w3.org/2000/svg" xmlns:xlink="http://www.w3.org/1999/xlink" x="0px" y="0px"
	 viewBox="0 0 500 500" style="enable-background:new 0 0 500 500;" xml:space="preserve">
<style type="text/css">
	.st0{fill:#4D831C;stroke:#164E16;stroke-width:5;stroke-miterlimit:10;}
	.st1{fill:#F22F2E;}
	.st2{fill:#F22F2E;stroke:#7B000E;stroke-width:5;stroke-miterlimit:10;}
	.st3{fill:#7C9800;stroke:#164E16;stroke-width:5;stroke-linejoin:round;stroke-miterlimit:10;}
	.st4{fill:#F22F2E;stroke:#7B000E;stroke-miterlimit:10;}
	.st5{fill:#7C9800;}
	.st6{fill:#164E16;}
	.st7{fill:#4D831C;stroke:#2A481D;stroke-width:4;stroke-miterlimit:10;}
	.st8{fill:#6EA336;stroke:#2A481D;stroke-width:4;stroke-linecap:round;stroke-linejoin:round;stroke-miterlimit:10;}
	.st9{fill:#8DCC50;stroke:#A2A121;stroke-width:5;stroke-miterlimit:10;}
	.st10{fill:#4D831C;stroke:#071907;stroke-width:5;stroke-linejoin:round;stroke-miterlimit:10;}
	.st11{fill:#164E16;stroke:#071907;stroke-width:3;stroke-miterlimit:10;}
	.st12{fill:#FFD003;stroke:#D17D01;stroke-width:3;stroke-miterlimit:10;}
	.st13{fill:#E6E6E6;}
	.st14{fill:#D9E021;}
	.st15{fill:#F22F2E;stroke:#7B000E;stroke-width:3;stroke-miterlimit:10;}
	.st16{fill:none;stroke:#FFFFFF;stroke-linecap:round;stroke-linejoin:round;stroke-miterlimit:10;}
	.st17{fill:none;stroke:#FFFFFF;stroke-linecap:round;stroke-miterlimit:10;}
	.st18{fill:#FFFFFF;}
	.st19{fill:none;stroke:#7B000E;stroke-linecap:round;stroke-linejoin:round;stroke-miterlimit:10;}
	.st20{fill:none;stroke:#7B000E;stroke-linecap:round;stroke-miterlimit:10;}
	.st21{fill:#7B000E;}
	.st22{fill:#4D831C;}
	.st23{fill:#2A481D;}
	.st24{fill:#FF7A00;}
	.st25{fill:#FF7A00;stroke:#F44500;stroke-width:3;stroke-miterlimit:10;}
	.st26{fill:none;stroke:#F44500;stroke-linecap:round;stroke-linejoin:round;stroke-miterlimit:10;}
	.st27{fill:#FF7A00;stroke:#F44500;stroke-linecap:round;stroke-linejoin:round;stroke-miterlimit:10;}
	.st28{fill:#F44500;}
	.st29{fill:#8BA00D;stroke:#164E16;stroke-width:3;stroke-linejoin:round;stroke-miterlimit:10;}
	.st30{clip-path:url(#SVGID_2_);}
	.st31{fill:#F40000;stroke:#7B000E;stroke-width:3;stroke-miterlimit:10;}
	.st32{fill:#7DB34C;stroke:#164E16;stroke-width:3;stroke-miterlimit:10;}
	.st33{fill:none;stroke:#164E16;stroke-miterlimit:10;}
	.st34{fill:none;stroke:#7B000E;stroke-width:3;stroke-miterlimit:10;}
	.st35{fill:#A7C92B;stroke:#164E16;stroke-width:3;stroke-miterlimit:10;}
	.st36{fill:none;stroke:#164E16;stroke-linecap:round;stroke-miterlimit:10;}
	.st37{fill:#8BA00D;}
	.st38{fill:#999999;}
	.st39{fill:#A7C92B;}
	.st40{fill:none;stroke:#FEA502;stroke-linecap:round;stroke-linejoin:round;stroke-miterlimit:10;}
	.st41{fill:#FFD003;}
	.st42{fill:#D17D01;}
	.st43{fill:#FEA502;}
	.st44{fill:#4D831C;stroke:#2A481D;stroke-width:3;stroke-linecap:round;stroke-linejoin:round;stroke-miterlimit:10;}
	.st45{fill:#FA6200;stroke:#D54300;stroke-width:3;stroke-miterlimit:10;}
	.st46{fill:#FA6200;stroke:#D54300;stroke-linecap:round;stroke-miterlimit:10;}
	.st47{fill:none;stroke:#F44500;stroke-linecap:round;stroke-miterlimit:10;}
	.st48{fill:#FF9D00;stroke:#E6681E;stroke-linecap:round;stroke-miterlimit:10;}
	.st49{fill:#F97306;}
	.st50{fill:#D54300;}
	.st51{fill:#7DB34C;stroke:#44712A;stroke-width:3;stroke-miterlimit:10;}
	.st52{fill:none;stroke:#44712A;stroke-miterlimit:10;}
	.st53{fill:#7DB34C;}
	.st54{fill:#40760E;}
	.st55{fill:none;stroke:#071907;stroke-miterlimit:10;}
	.st56{fill:none;stroke:#071907;stroke-linecap:round;stroke-linejoin:round;stroke-miterlimit:10;}
	.st57{fill:#071907;}
	.st58{fill:#44712A;}
	.st59{fill:#6E905E;}
	.st60{fill:#456A0A;}
	.st61{fill:#183300;}
	.st62{fill:#FF2214;}
	.st63{fill:#661900;}
	.st64{fill:#FFDC00;}
	.st65{fill:#7C9800;stroke:#164E16;stroke-width:3;stroke-miterlimit:10;}
	.st66{fill:none;stroke:#D17D01;stroke-width:0.75;stroke-miterlimit:10;}
	.st67{fill:#7C9800;stroke:#164E16;stroke-linejoin:round;stroke-miterlimit:10;}
	.st68{fill:none;stroke:#164E16;stroke-linejoin:round;stroke-miterlimit:10;}
	.st69{fill:#8A9D1F;}
	.st70{fill:#1B4700;}
	.st71{fill:none;stroke:#7C9800;stroke-width:3;stroke-linecap:round;stroke-linejoin:round;stroke-miterlimit:10;}
	.st72{opacity:0.6;fill:none;stroke:#FFFFFF;stroke-linecap:round;stroke-miterlimit:10;}
	.st73{fill:none;stroke:#7B000E;stroke-miterlimit:10;}
	.st74{opacity:0.4;fill:none;stroke:#FFFFFF;stroke-linecap:round;stroke-linejoin:round;stroke-miterlimit:10;}
	.st75{fill:none;stroke:#FFFFFF;stroke-width:7.8511;stroke-linecap:round;stroke-miterlimit:10;}
	.st76{fill:#B0C06B;}
	.st77{fill:#F8ACAC;}
	.st78{fill:none;stroke:#FFFFFF;stroke-width:7.7562;stroke-linecap:round;stroke-miterlimit:10;}
	.st79{fill:none;stroke:#164E16;stroke-width:0.851;stroke-miterlimit:10;}
	.st80{opacity:0.3;}
	.st81{fill:#6EA336;}
	.st82{opacity:0.3;fill:#7B000E;}
	.st83{opacity:0.2;fill:none;stroke:#2A481D;stroke-linecap:round;stroke-linejoin:round;stroke-miterlimit:10;}
	.st84{fill:#CC242B;}
	.st85{fill:#5B8734;}
	.st86{fill:#4D831C;stroke:#071907;stroke-miterlimit:10;}
	.st87{fill:none;stroke:#071907;stroke-linecap:round;stroke-miterlimit:10;}
	.st88{opacity:0.7;fill:none;stroke:#FFFFFF;stroke-linecap:round;stroke-miterlimit:10;}
	.st89{opacity:0.7;fill:#FFFFFF;}
	.st90{fill:#B9CAB9;}
	.st91{fill:#F6E600;}
	.st92{fill:#8DCC50;}
	.st93{fill:#A2A121;}
	.st94{fill:#F9EFA7;}
	.st95{fill:#F6E600;stroke:#A2A121;stroke-width:3;stroke-miterlimit:10;}
	.st96{opacity:0.3;fill:none;stroke:#A2A121;stroke-linecap:round;stroke-linejoin:round;stroke-miterlimit:10;}
	.st97{fill:none;stroke:#A2A121;stroke-width:3;stroke-miterlimit:10;}
	.st98{fill:#8DCC50;stroke:#A2A121;stroke-miterlimit:10;}
	.st99{fill:#DCCF2F;}
	.st100{fill:#F22F2E;stroke:#7B000E;stroke-linecap:round;stroke-miterlimit:10;}
	.st101{fill:#6EA336;stroke:#2A481D;stroke-linecap:round;stroke-linejoin:round;stroke-miterlimit:10;}
	.st102{fill:none;stroke:#2A481D;stroke-linecap:round;stroke-linejoin:round;stroke-miterlimit:10;}
	.st103{fill:#639D2E;stroke:#164E16;stroke-width:5;stroke-miterlimit:10;}
	.st104{fill:#639D2E;stroke:#164E16;stroke-miterlimit:10;}
	.st105{opacity:0.5;fill:none;stroke:#D54300;stroke-linecap:round;stroke-miterlimit:10;}
	.st106{fill:#E5531B;}
	.st107{opacity:0.3;fill:none;stroke:#D17D01;stroke-linecap:round;stroke-linejoin:round;stroke-miterlimit:10;}
	.st108{fill:#E6A627;}
	.st109{fill:#A3B653;}
	.st110{fill:none;stroke:#164E16;stroke-linecap:round;stroke-linejoin:round;stroke-miterlimit:10;}
	.st111{fill:#FAC1C1;}
	.st112{clip-path:url(#SVGID_4_);}
	.st113{fill:none;stroke:#D9E021;stroke-miterlimit:10;}
	.st114{fill:#A7C92B;stroke:#164E16;stroke-width:5;stroke-linecap:round;stroke-linejoin:round;stroke-miterlimit:10;}
	.st115{fill:#64A025;}
	.st116{fill:#547C1F;stroke:#164E16;stroke-linecap:round;stroke-miterlimit:10;}
	.st117{fill:#547C1F;}
	.st118{fill:#4D831C;stroke:#164E16;stroke-miterlimit:10;}
	.st119{fill:none;stroke:#FFFFFF;stroke-width:7.7934;stroke-linecap:round;stroke-miterlimit:10;}
</style>
<g>
	<path class="st1" d="M370.9,290.4c-0.4-17.8-3.2-34.7-7.9-49.9c-5.1-16.8-13.9-32.2-25.4-45.5c-23.6-27.6-57.7-44-94-45.4l-2-0.1
		c-18.8-0.7-37.7,2.5-55,9.9c-13.1,5.5-26.2,13-38.7,22.3c-55.1,40.9-78.8,102.4-52.9,137.3c7.1,9.6,17.2,16.2,29.3,19.8
		c1,7.3,2.7,14.4,5.4,21.3c5.6,14.5,8.2,30,7.3,45.5l-4.2,72.8c-0.4,7.1,8,11.3,13.4,6.5l54.8-48.1c11.7-10.3,25.5-17.7,40.4-22.2
		c7-2.1,13.7-5.1,20.1-8.8c10.3,7.2,21.7,11.2,33.6,10.9C338.7,415.5,372.6,359,370.9,290.4z"/>
	<path class="st18" d="M165.1,386.7c-0.1,0-0.2,0-0.4,0c-2.1-0.2-3.7-2.1-3.5-4.2c0.8-8.8,0.7-17.8-0.3-26.7
		c-0.2-2.1,1.3-4.1,3.4-4.3c2.1-0.2,4.1,1.3,4.3,3.4c1.1,9.5,1.2,19,0.3,28.3C168.8,385.2,167.1,386.7,165.1,386.7z"/>
	<path class="st21" d="M382.6,290.1c-0.4-18.5-3.3-36.4-8.4-53.1c-5.5-18.1-14.8-34.8-27.7-49.7c-25.7-29.9-63-48-102.4-49.5l-2-0.1
		c-20.7-0.8-41.5,2.9-60,10.8c-14.3,6-28.1,14-41.1,23.6c-28.4,21.1-50,48.1-60.8,76.1c-11.5,29.8-9.5,57.4,5.5,77.6
		c5.2,7,12,12.9,19.9,17.5c5.2,3,9,7.9,10.7,13.6c0.7,2.5,1.6,4.9,2.5,7.3c5.1,13.2,7.3,26.9,6.6,40.6l-4.2,72.8
		c-0.5,8,3.9,15.4,11.1,18.9c2.8,1.4,5.7,2,8.7,2c4.7,0,9.3-1.7,13-4.9l54.8-48.1c10.4-9.1,22.5-15.7,36.1-19.8
		c2.6-0.8,5.1-1.6,7.6-2.7c5.5-2.2,11.5-2,16.9,0.2c8.5,3.5,17.3,5.2,26,5c25.2-0.6,48.1-16,64.6-43.4
		C375.4,359.1,383.5,325.5,382.6,290.1z M104.5,311.9c-10.1-13.6-10.9-33.2-2.4-55.3c9.2-23.9,28-47.2,52.9-65.7
		c11.5-8.5,23.7-15.6,36.3-20.9c14.2-6,29.4-9,45.3-9c1.6,0,3.2,0,4.7,0.1l2,0.1c32.9,1.3,64.1,16.3,85.5,41.3
		c10.7,12.5,18.5,26.4,23.1,41.4c4.5,14.7,7,30.4,7.4,46.8c0.7,31-6.1,60.2-19.3,82.1c-12.2,20.3-28.2,31.7-45.1,32.1
		c-0.3,0-0.6,0-1,0c-21.5,0-42.3-18-55.6-48.2c-8.4-19.1-27.4-31.5-48.3-31.5c-4.3,0-8.7,0.5-12.9,1.6c-9.6,2.4-19,3.7-27.7,3.7
		C129.4,330.5,113.4,323.9,104.5,311.9z M238.1,403.3c-16.8,5-31.9,13.3-44.8,24.6l-34.9,30.6c-5,4.4-12.8,0.6-12.4-6.1l2.7-46.3
		c1-17.1-1.7-34.1-8.1-50.4c-0.7-1.7-1.2-3.4-1.8-5.2c-1.9-6.1,2.7-12.3,9.1-12.2c0.5,0,1,0,1.5,0c9.4,0,19.4-1.3,29.7-3.9
		c3.6-0.9,7.3-1.4,10.9-1.4c17.9,0,34,10.5,41.2,26.8c4.6,10.4,10,19.4,16.1,27c4,5,2,12.4-4,14.7
		C241.6,402.2,239.9,402.8,238.1,403.3z"/>
	<path class="st18" d="M207.4,184.6c-1.7,0-3.2-1.1-3.7-2.8c-0.6-2.1,0.6-4.2,2.6-4.8c2.3-0.7,4.6-1.3,7-1.8c2.1-0.5,4.2,0.9,4.7,3
		c0.5,2.1-0.9,4.2-3,4.7c-2.2,0.5-4.3,1.1-6.5,1.7C208.1,184.6,207.8,184.6,207.4,184.6z"/>
	<path class="st18" d="M164.2,207.3c-1.2,0-2.4-0.5-3.1-1.6c-1.3-1.7-0.9-4.2,0.8-5.5c8.6-6.4,17.7-11.9,27-16.4
		c1.9-0.9,4.3-0.1,5.2,1.8c0.9,1.9,0.1,4.3-1.8,5.2c-8.9,4.3-17.5,9.5-25.7,15.6C165.9,207.1,165.1,207.3,164.2,207.3z"/>
	<path class="st21" d="M296,353c-0.7,0-1.4-0.1-2.1-0.2c-8.4-1.3-14.1-11.6-16.4-29.7c-2.1-16.4-1.4-37.5,2.1-59.5
		c0.3-2.1,2.3-3.6,4.5-3.2c2.1,0.3,3.6,2.3,3.2,4.5c-3.4,21.3-4.1,41.6-2.1,57.2c2.1,16.2,6.7,22.5,9.9,23.1
		c2.6,0.4,7.4-1.3,11.6-17.6c0.5-2.1,2.6-3.3,4.7-2.8c2.1,0.5,3.3,2.6,2.8,4.7C310.3,345.1,304.2,353,296,353z"/>
	<path class="st18" d="M256.8,318.6c-0.1,0-0.2,0-0.3,0c-2.1-0.2-3.7-2.1-3.5-4.2c0.6-6.4,1.6-13.4,3-20.7c0.4-2.1,2.5-3.5,4.6-3.1
		c2.1,0.4,3.5,2.5,3.1,4.6c-1.4,7-2.4,13.7-2.9,19.8C260.5,317,258.8,318.6,256.8,318.6z"/>
	<path class="st21" d="M286.6,187.3c2.4,0.2,4,2.7,6,1c1.5-1.3,1.6-3.5,0.6-5.2c-4.2-6.8-15.7-6.4-36,1
		c-15.6,5.8-36.2,15.8-57.9,28.2c-1.9,1.1-2.5,3.4-1.4,5.3c0.7,1.3,2,2,3.4,2c0.7,0,1.3-0.2,1.9-0.5c9.7-5.5,19.1-10.6,27.9-14.9
		c5.3-2.6,10.6,3.7,6.9,8.4c-5.8,7.5-12.7,15.1-20.3,22.6c-27.4,26.8-53.1,40-64.4,39.3c-1.8-0.1-3.1-0.6-3.8-1.5
		c-2-2.6,0.7-11.5,11.3-25c1.3-1.6,1.2-4.1-0.4-5.5c-1.7-1.5-4.3-1.2-5.6,0.5c-16.1,20.3-15.1,30.1-11.5,34.8
		c1.4,1.8,4.2,4.1,9.4,4.5c0.5,0,0.9,0,1.4,0c15.8,0,43.2-16.4,68.9-41.5c17-16.5,27.1-30.8,33.1-41.3c3.6-6.2,9.8-10.5,16.9-11.7
		C277,187.2,281.5,186.9,286.6,187.3z"/>
	<path class="st21" d="M313.3,289.8c-2,0-3.7-1.5-3.9-3.6c-3-34.3-8.3-62.4-14.4-77c-0.8-2,0.1-4.3,2.1-5.1c2-0.8,4.3,0.1,5.1,2.1
		c6.4,15.4,11.9,44.3,15,79.3c0.2,2.1-1.4,4-3.5,4.2C313.6,289.8,313.5,289.8,313.3,289.8z"/>
	<path class="st18" d="M334.7,268.1c-1.9,0-3.5-1.3-3.8-3.2c-1.3-7.8-2.7-15-4.2-21.5c-0.5-2.1,0.8-4.2,2.9-4.7
		c2.1-0.5,4.2,0.8,4.7,2.9c1.5,6.7,3,14.1,4.3,22c0.4,2.1-1.1,4.1-3.2,4.5C335.1,268.1,334.9,268.1,334.7,268.1z"/>
	<path class="st22" d="M405.2,25.4c-4-5-11.4-5.9-16.4-1.9c-2,1.6-40.3,32.6-79.4,92c-12.5,19-31,32.3-50.1,44.7
		c-1.2,0.7-2,1.7-2.6,2.8c-3.6,7.3,7.2,19.9,24.1,28.1c16.9,8.2,33.4,9,37,1.7c0.6-1.1,0.8-2.4,0.7-3.7
		c-1.8-22.6,0.3-45.5,12.9-64.3c36.4-54.2,71.5-82.7,72-83C408.3,37.8,409.2,30.4,405.2,25.4z"/>
	<path class="st6" d="M420.4,13.2L420.4,13.2c-10.7-13.4-30.3-15.6-43.8-5c-1.7,1.4-42.5,34.2-83.5,96.6
		c-8.7,13.3-21.2,23.6-38.1,34.9c3.2,0.4,6.3,0.9,9.4,1.5c4.6,0.9,5.9,7,2,9.6c-3.1,2.1-6.2,4.1-9.2,6.1c-1.8,1.2-3.1,2.6-4,4.4
		c-4.7,9.5,6.5,23.9,25.9,33.4c9.7,4.7,19,7.1,26.5,7.1c7.6,0,13.3-2.4,15.7-7.2c0.9-1.7,1.2-3.7,1-5.8c-0.3-3.9-0.5-7.7-0.5-11.4
		c0-4.6,5.3-7.2,8.8-4.2c2.3,2,4.6,4.1,6.8,6.3c-0.6-18.7,2.7-32.8,10.1-43.9c34.3-51.1,67.7-78.5,67.9-78.7
		C428.9,46.3,431.1,26.6,420.4,13.2z M314.3,191.2c-1.9,4-15.3,4.6-31.8-3.5c-16.5-8.1-24.2-19-22.3-22.9c0.2-0.5,0.6-0.9,1.2-1.3
		c17.8-11.5,37.9-25.5,51.2-45.8c38.9-59.3,76.9-89.8,78.5-91.1c1.4-1.1,3.1-1.7,4.8-1.7c2.3,0,4.6,1,6.1,2.9
		c2.7,3.4,2.1,8.3-1.2,10.9c-0.4,0.3-35.8,28.8-72.8,83.9c-11.4,17-15.8,38.8-13.6,66.8C314.6,190.1,314.5,190.7,314.3,191.2z"/>
	<path class="st21" d="M238.4,290.3c-0.6,0-1.2-0.1-1.7-0.4c-1.9-1-2.7-3.3-1.7-5.2l13.8-27.6c1-1.9,3.3-2.7,5.2-1.7
		c1.9,1,2.7,3.3,1.7,5.2l-13.8,27.6C241.2,289.5,239.8,290.3,238.4,290.3z"/>
	<path class="st21" d="M228.3,310.6c-0.6,0-1.2-0.1-1.7-0.4c-1.9-1-2.7-3.3-1.7-5.2l3.4-6.8c1-1.9,3.3-2.7,5.2-1.7
		c1.9,1,2.7,3.3,1.7,5.2l-3.4,6.8C231.1,309.8,229.7,310.6,228.3,310.6z"/>
	<circle class="st18" cx="263.5" cy="276.4" r="4.7"/>
</g>
</svg>
