<?xml version="1.0" encoding="utf-8"?>
<!-- Generator: Adobe Illustrator 20.1.0, SVG Export Plug-In . SVG Version: 6.00 Build 0)  -->
<svg version="1.1" id="Layer_1" xmlns="http://www.w3.org/2000/svg" xmlns:xlink="http://www.w3.org/1999/xlink" x="0px" y="0px"
	 viewBox="0 0 500 500" style="enable-background:new 0 0 500 500;" xml:space="preserve">
<style type="text/css">
	.st0{fill:#6EA336;stroke:#2A481D;stroke-width:5;stroke-linecap:round;stroke-linejoin:round;stroke-miterlimit:10;}
	.st1{fill:#7C9800;}
	.st2{fill:#164E16;}
	.st3{fill:#4D831C;stroke:#2A481D;stroke-width:4;stroke-miterlimit:10;}
	.st4{fill:#6EA336;stroke:#2A481D;stroke-width:4;stroke-linecap:round;stroke-linejoin:round;stroke-miterlimit:10;}
	.st5{fill:#8DCC50;stroke:#A2A121;stroke-width:5;stroke-miterlimit:10;}
	.st6{fill:#4D831C;stroke:#071907;stroke-width:5;stroke-linejoin:round;stroke-miterlimit:10;}
	.st7{fill:#164E16;stroke:#071907;stroke-width:3;stroke-miterlimit:10;}
	.st8{fill:#7C9800;stroke:#164E16;stroke-width:5;stroke-linejoin:round;stroke-miterlimit:10;}
	.st9{fill:#FFD003;stroke:#D17D01;stroke-width:3;stroke-miterlimit:10;}
	.st10{fill:#E6E6E6;}
	.st11{fill:#00FFFF;}
	.st12{fill:#D9E021;}
	.st13{fill:#F22F2E;}
	.st14{fill:#F22F2E;stroke:#7B000E;stroke-width:3;stroke-miterlimit:10;}
	.st15{fill:none;stroke:#FFFFFF;stroke-linecap:round;stroke-linejoin:round;stroke-miterlimit:10;}
	.st16{fill:none;stroke:#FFFFFF;stroke-linecap:round;stroke-miterlimit:10;}
	.st17{fill:#FFFFFF;}
	.st18{fill:none;stroke:#7B000E;stroke-linecap:round;stroke-linejoin:round;stroke-miterlimit:10;}
	.st19{fill:none;stroke:#7B000E;stroke-linecap:round;stroke-miterlimit:10;}
	.st20{fill:#7B000E;}
	.st21{fill:#4D831C;}
	.st22{fill:#2A481D;}
	.st23{fill:#FF7A00;}
	.st24{fill:#FF7A00;stroke:#F44500;stroke-width:3;stroke-miterlimit:10;}
	.st25{fill:none;stroke:#F44500;stroke-linecap:round;stroke-linejoin:round;stroke-miterlimit:10;}
	.st26{fill:#FF7A00;stroke:#F44500;stroke-linecap:round;stroke-linejoin:round;stroke-miterlimit:10;}
	.st27{fill:#F44500;}
	.st28{fill:#8BA00D;stroke:#164E16;stroke-width:3;stroke-linejoin:round;stroke-miterlimit:10;}
	.st29{clip-path:url(#SVGID_2_);}
	.st30{fill:#F40000;stroke:#7B000E;stroke-width:3;stroke-miterlimit:10;}
	.st31{fill:#7DB34C;stroke:#164E16;stroke-width:3;stroke-miterlimit:10;}
	.st32{fill:none;stroke:#164E16;stroke-miterlimit:10;}
	.st33{fill:none;stroke:#7B000E;stroke-width:3;stroke-miterlimit:10;}
	.st34{fill:#A7C92B;stroke:#164E16;stroke-width:3;stroke-miterlimit:10;}
	.st35{fill:none;stroke:#164E16;stroke-linecap:round;stroke-miterlimit:10;}
	.st36{fill:#8BA00D;}
	.st37{fill:#999999;}
	.st38{fill:#A7C92B;}
	.st39{fill:none;stroke:#FEA502;stroke-linecap:round;stroke-linejoin:round;stroke-miterlimit:10;}
	.st40{fill:#FFD003;}
	.st41{fill:#D17D01;}
	.st42{fill:#FEA502;}
	.st43{fill:#4D831C;stroke:#2A481D;stroke-width:3;stroke-linecap:round;stroke-linejoin:round;stroke-miterlimit:10;}
	.st44{fill:#FA6200;stroke:#D54300;stroke-width:3;stroke-miterlimit:10;}
	.st45{fill:#FA6200;stroke:#D54300;stroke-linecap:round;stroke-miterlimit:10;}
	.st46{fill:none;stroke:#F44500;stroke-linecap:round;stroke-miterlimit:10;}
	.st47{fill:#FF9D00;stroke:#E6681E;stroke-linecap:round;stroke-miterlimit:10;}
	.st48{fill:#F97306;}
	.st49{fill:#D54300;}
	.st50{fill:#7DB34C;stroke:#44712A;stroke-width:3;stroke-miterlimit:10;}
	.st51{fill:none;stroke:#44712A;stroke-miterlimit:10;}
	.st52{fill:#7DB34C;}
	.st53{fill:#40760E;}
	.st54{fill:none;stroke:#071907;stroke-miterlimit:10;}
	.st55{fill:none;stroke:#071907;stroke-linecap:round;stroke-linejoin:round;stroke-miterlimit:10;}
	.st56{fill:#071907;}
	.st57{fill:#44712A;}
	.st58{fill:#6E905E;}
	.st59{fill:#456A0A;}
	.st60{fill:#183300;}
	.st61{fill:#FF2214;}
	.st62{fill:#661900;}
	.st63{fill:#FFDC00;}
	.st64{fill:#7C9800;stroke:#164E16;stroke-width:3;stroke-miterlimit:10;}
	.st65{fill:none;stroke:#D17D01;stroke-width:0.75;stroke-miterlimit:10;}
	.st66{fill:#7C9800;stroke:#164E16;stroke-linejoin:round;stroke-miterlimit:10;}
	.st67{fill:none;stroke:#164E16;stroke-linejoin:round;stroke-miterlimit:10;}
	.st68{fill:#8A9D1F;}
	.st69{fill:#1B4700;}
	.st70{fill:none;stroke:#7C9800;stroke-width:3;stroke-linecap:round;stroke-linejoin:round;stroke-miterlimit:10;}
	.st71{opacity:0.6;fill:none;stroke:#FFFFFF;stroke-linecap:round;stroke-miterlimit:10;}
	.st72{fill:none;stroke:#7B000E;stroke-miterlimit:10;}
	.st73{opacity:0.4;fill:none;stroke:#FFFFFF;stroke-linecap:round;stroke-linejoin:round;stroke-miterlimit:10;}
	.st74{fill:none;stroke:#FFFFFF;stroke-width:7.8511;stroke-linecap:round;stroke-miterlimit:10;}
	.st75{fill:#B0C06B;}
	.st76{fill:#F8ACAC;}
	.st77{fill:none;stroke:#FFFFFF;stroke-width:7.7562;stroke-linecap:round;stroke-miterlimit:10;}
	.st78{fill:none;stroke:#164E16;stroke-width:0.851;stroke-miterlimit:10;}
	.st79{opacity:0.3;}
	.st80{fill:#6EA336;}
	.st81{opacity:0.3;fill:#7B000E;}
	.st82{opacity:0.2;fill:none;stroke:#2A481D;stroke-linecap:round;stroke-linejoin:round;stroke-miterlimit:10;}
	.st83{fill:#CC242B;}
	.st84{fill:#5B8734;}
	.st85{fill:#4D831C;stroke:#071907;stroke-miterlimit:10;}
	.st86{fill:none;stroke:#071907;stroke-linecap:round;stroke-miterlimit:10;}
	.st87{opacity:0.7;fill:none;stroke:#FFFFFF;stroke-linecap:round;stroke-miterlimit:10;}
	.st88{opacity:0.7;fill:#FFFFFF;}
	.st89{fill:#B9CAB9;}
	.st90{fill:#F6E600;}
	.st91{fill:#8DCC50;}
	.st92{fill:#A2A121;}
	.st93{fill:#F9EFA7;}
	.st94{fill:#F6E600;stroke:#A2A121;stroke-width:3;stroke-miterlimit:10;}
	.st95{opacity:0.3;fill:none;stroke:#A2A121;stroke-linecap:round;stroke-linejoin:round;stroke-miterlimit:10;}
	.st96{fill:none;stroke:#A2A121;stroke-width:3;stroke-miterlimit:10;}
	.st97{fill:#8DCC50;stroke:#A2A121;stroke-miterlimit:10;}
	.st98{fill:#DCCF2F;}
	.st99{fill:#F22F2E;stroke:#7B000E;stroke-miterlimit:10;}
	.st100{fill:#F22F2E;stroke:#7B000E;stroke-linecap:round;stroke-miterlimit:10;}
	.st101{fill:#6EA336;stroke:#2A481D;stroke-linecap:round;stroke-linejoin:round;stroke-miterlimit:10;}
	.st102{fill:none;stroke:#2A481D;stroke-linecap:round;stroke-linejoin:round;stroke-miterlimit:10;}
	.st103{fill:#639D2E;stroke:#164E16;stroke-width:5;stroke-miterlimit:10;}
	.st104{fill:#639D2E;stroke:#164E16;stroke-miterlimit:10;}
	.st105{opacity:0.5;fill:none;stroke:#D54300;stroke-linecap:round;stroke-miterlimit:10;}
	.st106{fill:#E5531B;}
	.st107{opacity:0.3;fill:none;stroke:#D17D01;stroke-linecap:round;stroke-linejoin:round;stroke-miterlimit:10;}
	.st108{fill:#E6A627;}
	.st109{opacity:0.4;fill:none;stroke:#7B000E;stroke-linecap:round;stroke-miterlimit:10;}
	.st110{fill:none;stroke:#E6E6E6;stroke-miterlimit:10;}
	.st111{fill:#8BA00D;stroke:#164E16;stroke-linejoin:round;stroke-miterlimit:10;}
	.st112{fill:#8BA00D;stroke:#164E16;stroke-width:5;stroke-miterlimit:10;}
	.st113{opacity:0.5;fill:none;stroke:#FFFFFF;stroke-linecap:round;stroke-miterlimit:10;}
	.st114{fill:none;stroke:#FFFFFF;stroke-width:7.8998;stroke-linecap:round;stroke-miterlimit:10;}
</style>
<path class="st13" d="M292.9,138.6c-83.3-50.7-200,48-228.5,94.7c-37.5,61.6-2.7,87,36.3,102.4c2.6,14.6,10.1,26.8,20.9,37
	L80.4,484.9c-0.5,1.3,1.2,2.3,2.1,1.3l80.8-88c14.1,4.9,28.3,6.1,42.5,1.6c31.5,27.6,70.1,46.9,107.6-14.7
	C341.9,338.4,376.1,189.4,292.9,138.6z"/>
<path class="st76" d="M142.3,378.1l-5.6,9.1c-1.1,1.9-0.5,4.3,1.3,5.4c0.7,0.4,1.4,0.6,2.2,0.6c1.3,0,2.5-0.7,3.2-1.9l5.2-8.6
	C145.6,382.3,143.4,380.5,142.3,378.1z"/>
<path class="st76" d="M132.3,406.2c-0.7,0-1.5-0.2-2.2-0.6c-1.9-1.1-2.5-3.6-1.3-5.4l0.2-0.3c1.1-1.9,3.6-2.5,5.4-1.3
	c1.9,1.1,2.5,3.6,1.3,5.4l-0.2,0.3C134.8,405.5,133.6,406.2,132.3,406.2z"/>
<path class="st76" d="M132.8,339.2c-1.8,0.1-3.5-1.1-3.9-2.9c-0.2-0.9-0.4-1.7-0.6-2.6c-0.4-2.1,0.9-4.2,3.1-4.7
	c2.1-0.4,4.2,0.9,4.7,3.1c0.2,0.7,0.3,1.5,0.5,2.2c0.6,2.1-0.7,4.3-2.8,4.8C133.4,339.2,133.1,339.2,132.8,339.2z"/>
<path class="st76" d="M142.3,356.4c-1.1,0-2.3-0.4-3.1-1.3c-0.3-0.4-0.6-0.7-1-1.1c-1.4-1.7-1.2-4.2,0.5-5.6
	c1.7-1.4,4.2-1.2,5.6,0.5c0.3,0.3,0.5,0.6,0.8,0.9c1.5,1.6,1.3,4.1-0.3,5.6C144,356.1,143.1,356.4,142.3,356.4z"/>
<path class="st76" d="M157.1,368.2c-0.7,0-1.5-0.1-2.1-0.5c-0.4-0.2-0.8-0.5-1.3-0.8c-1.9-1.1-2.5-3.6-1.3-5.4
	c1.1-1.9,3.6-2.5,5.4-1.3c0.4,0.2,0.8,0.5,1.2,0.7c1.9,1.1,2.5,3.5,1.4,5.4C159.7,367.5,158.4,368.2,157.1,368.2z"/>
<path class="st76" d="M184.3,376c-2.2,0.1-4-1.6-4.1-3.8c-0.1-2.2,1.6-4,3.8-4.1c2.5-0.1,5-0.4,7.5-1c2.1-0.5,4.3,0.8,4.8,2.9
	c0.5,2.1-0.8,4.3-2.9,4.8C190.4,375.4,187.4,375.9,184.3,376L184.3,376z"/>
<path class="st17" d="M172.8,192c-1.2,0-2.3-0.4-3.1-1.4c-1.4-1.7-1.2-4.1,0.4-5.6c1.6-1.4,3.2-2.8,4.9-4.1c1.7-1.4,4.2-1.2,5.6,0.5
	c1.4,1.7,1.2,4.2-0.5,5.6c-1.6,1.3-3.2,2.7-4.8,4C174.5,191.7,173.7,192,172.8,192z"/>
<path class="st76" d="M150.9,212.4c-1.1,0-2.1-0.4-2.9-1.2c-1.5-1.5-1.5-4,0-5.6c0.6-0.6,1.2-1.2,1.8-1.8c1.6-1.5,4.1-1.5,5.6,0
	c1.5,1.6,1.5,4.1,0,5.6c-0.6,0.6-1.2,1.2-1.8,1.8C152.8,212,151.8,212.4,150.9,212.4z"/>
<path class="st76" d="M106.4,267.3c-0.7,0-1.4-0.1-2.1-0.5c-1.9-1.1-2.5-3.5-1.5-5.4c0.7-1.1,1.3-2.3,2-3.4c1.1-1.9,3.6-2.5,5.4-1.3
	c1.9,1.1,2.5,3.6,1.3,5.4c-0.7,1.1-1.3,2.2-1.9,3.3C109,266.6,107.7,267.3,106.4,267.3z"/>
<path class="st76" d="M93.9,298.7c-0.3,0-0.6,0-0.9-0.1c-2.1-0.4-3.5-2.5-3.1-4.7c0.9-4.6,2.3-9.3,4.1-14.1c0.8-2,3-3.1,5.1-2.3
	c2,0.8,3.1,3,2.3,5.1c-1.6,4.4-2.9,8.7-3.8,12.9C97.3,297.4,95.7,298.7,93.9,298.7z"/>
<path class="st76" d="M242.8,393.1c-1.3,0-2.5-0.5-3.3-1.6c-1.3-1.8-0.9-4.2,0.9-5.5c0.2-0.2,0.5-0.3,0.7-0.5c1.7-1.3,4.2-1,5.5,0.8
	c1.3,1.7,1,4.2-0.8,5.5c-0.3,0.2-0.5,0.4-0.8,0.6C244.4,392.8,243.6,393,242.8,393.1z"/>
<path class="st76" d="M269.6,362.4c-0.7,0-1.5-0.2-2.1-0.6c-1.9-1.1-2.5-3.5-1.4-5.4c0,0,0.1-0.1,0.1-0.1c1.1-1.9,3.6-2.5,5.4-1.4
	c1.9,1.1,2.5,3.5,1.4,5.4c0,0-0.1,0.1-0.1,0.1C272.1,361.7,270.9,362.4,269.6,362.4z"/>
<path class="st76" d="M288.5,322.6c-0.5,0-1-0.1-1.6-0.3c-2-0.8-3-3.1-2.3-5.1l0.1-0.3c0.8-2,3.1-3,5.1-2.3c2,0.8,3,3.1,2.3,5.1
	l-0.1,0.3C291.4,321.6,290,322.5,288.5,322.6z"/>
<path class="st76" d="M303.9,273.3c-0.3,0-0.7,0-1.1-0.1c-2.1-0.5-3.4-2.6-2.9-4.8l0.1-0.5c0.5-2.1,2.6-3.4,4.8-2.9
	c2.1,0.5,3.4,2.6,2.9,4.8l-0.1,0.5C307.1,272,305.6,273.2,303.9,273.3z"/>
<path class="st76" d="M220.7,356.1c-0.8,0-1.7-0.2-2.5-0.8c-1.8-1.3-2.2-3.8-0.9-5.5l0.6-0.8c1.3-1.8,3.7-2.2,5.5-0.9
	c1.8,1.3,2.2,3.7,0.9,5.5l-0.6,0.8C223,355.5,221.8,356.1,220.7,356.1z"/>
<path class="st76" d="M231.9,339.3c-0.7,0-1.5-0.2-2.2-0.6c-1.9-1.1-2.5-3.6-1.3-5.4c1.1-1.8,2.2-3.6,3.3-5.6
	c1.1-1.9,3.5-2.5,5.4-1.4c1.9,1.1,2.5,3.5,1.4,5.4c-1.2,2-2.3,4-3.4,5.8C234.4,338.6,233.1,339.2,231.9,339.3z"/>
<path class="st76" d="M262.5,279c-0.6,0-1.2-0.1-1.7-0.3c-2-0.9-2.9-3.2-2-5.2c0.8-1.8,1.6-3.7,2.4-5.5c0.9-2,3.2-2.9,5.2-2.1
	c2,0.9,2.9,3.2,2.1,5.2c-0.8,1.9-1.6,3.7-2.4,5.6C265.4,278.1,264,279,262.5,279z"/>
<path class="st76" d="M192,224.4c-0.9,0-1.9-0.3-2.6-0.9c-1.7-1.4-1.9-3.9-0.5-5.6l1.3-1.6c1.4-1.7,3.9-1.9,5.6-0.5
	c1.7,1.4,1.9,3.9,0.5,5.6l-1.3,1.6C194.2,223.9,193.1,224.3,192,224.4z"/>
<path class="st17" d="M159.6,266.8c-0.8,0-1.7-0.2-2.4-0.7c-1.8-1.3-2.2-3.7-1-5.5c3.8-5.4,7.9-11,12.2-16.8
	c1.3-1.7,3.8-2.1,5.5-0.8c1.7,1.3,2.1,3.8,0.8,5.5c-4.3,5.7-8.3,11.2-12.1,16.6C161.9,266.2,160.8,266.7,159.6,266.8z"/>
<path class="st76" d="M146.2,287c-0.7,0-1.5-0.2-2.2-0.6c-1.9-1.1-2.5-3.6-1.3-5.4c0.5-0.9,1.1-1.8,1.7-2.7c1.2-1.8,3.6-2.4,5.4-1.3
	c1.8,1.2,2.4,3.6,1.3,5.4c-0.6,0.9-1.1,1.8-1.6,2.7C148.7,286.3,147.5,287,146.2,287z"/>
<path class="st76" d="M136.5,304.3c-0.7,0-1.3-0.1-2-0.5c-1.9-1-2.7-3.4-1.7-5.3l0,0c1-2,3.3-2.7,5.3-1.8c2,1,2.7,3.3,1.8,5.3
	l-0.1,0.2C139.2,303.5,137.9,304.3,136.5,304.3z"/>
<path class="st76" d="M130.2,318.5c-0.5,0-1-0.1-1.6-0.3c-2-0.8-3-3.1-2.2-5.1l0.1-0.2c0.8-2,3.1-3,5.1-2.2c2,0.8,3,3.1,2.2,5.1
	l-0.1,0.2C133.1,317.5,131.7,318.4,130.2,318.5z"/>
<path class="st76" d="M152.5,327.1c-0.4,0-0.8,0-1.3-0.2c-2.1-0.6-3.3-2.8-2.7-4.9c0,0,0-0.1,0-0.1c0.6-2.1,2.8-3.3,4.9-2.7
	c2.1,0.6,3.3,2.8,2.7,4.9l0,0.1C155.7,326,154.2,327.1,152.5,327.1z"/>
<path class="st76" d="M175.9,352.7c-0.3,0-0.5,0-0.8-0.1c-1.4-0.2-2.7-0.6-4-1.1c-2-0.7-3.1-3-2.4-5.1c0.7-2,3-3.1,5.1-2.4
	c0.8,0.3,1.7,0.5,2.6,0.7c2.1,0.4,3.6,2.4,3.2,4.6C179.3,351.3,177.7,352.6,175.9,352.7z"/>
<path class="st76" d="M189.8,351.3c-1.7,0.1-3.4-1-3.9-2.7c-0.7-2.1,0.5-4.3,2.5-4.9c0,0,0.1,0,0.1,0c2.1-0.6,4.3,0.5,5,2.6
	c0.7,2.1-0.5,4.3-2.6,4.9c0,0,0,0,0,0C190.5,351.2,190.1,351.3,189.8,351.3z"/>
<path class="st76" d="M257.7,199.9c-0.8,0-1.6-0.2-2.3-0.6c-1.8-1.2-2.4-3.6-1.2-5.5l1.8-2.8c1.2-1.8,3.6-2.4,5.5-1.2
	c1.8,1.2,2.4,3.6,1.2,5.5l-1.8,2.8C260.1,199.2,258.9,199.9,257.7,199.9z"/>
<path class="st17" d="M237.2,232.4c-0.8,0-1.5-0.2-2.2-0.6c-1.9-1.2-2.4-3.6-1.3-5.4l1.2-2c1.2-1.9,3.6-2.4,5.4-1.3
	c1.9,1.2,2.4,3.6,1.3,5.4l-1.2,2C239.7,231.7,238.5,232.3,237.2,232.4z"/>
<path class="st76" d="M223.2,255c-0.7,0-1.5-0.2-2.2-0.6c-1.9-1.1-2.4-3.6-1.3-5.4l0.7-1.1c1.1-1.9,3.6-2.4,5.4-1.3
	c1.9,1.1,2.4,3.6,1.3,5.4l-0.7,1.1C225.7,254.3,224.4,255,223.2,255z"/>
<path class="st76" d="M207.5,280.8c-0.7,0-1.5-0.2-2.2-0.6c-1.9-1.1-2.5-3.5-1.4-5.4c1.9-3.2,4.1-6.8,6.4-10.6
	c1.1-1.9,3.6-2.5,5.4-1.3c1.9,1.1,2.5,3.6,1.3,5.4c-2.3,3.8-4.5,7.4-6.4,10.6C210,280.1,208.8,280.8,207.5,280.8z"/>
<path class="st17" d="M177.6,171c-1.4,0-2.7-0.6-3.5-1.8c-1.2-1.8-0.6-4.3,1.2-5.4c1.7-1,3.3-2.1,5-3.1c1.9-1.1,4.3-0.5,5.4,1.3
	c1.1,1.9,0.5,4.3-1.3,5.4c-1.6,1-3.2,2-4.8,3C179,170.7,178.3,170.9,177.6,171z"/>
<path class="st17" d="M150.6,190.1c-1.2,0-2.4-0.5-3.2-1.5c-1.3-1.7-1.1-4.2,0.7-5.5c0.8-0.7,1.7-1.3,2.5-2c1.7-1.3,4.2-1,5.5,0.7
	c1.3,1.7,1,4.2-0.7,5.5c-0.8,0.6-1.7,1.3-2.5,1.9C152.2,189.8,151.4,190.1,150.6,190.1z"/>
<path class="st76" d="M135.3,202.9c-1.1,0-2.3-0.4-3.1-1.3c-1.4-1.6-1.3-4.1,0.3-5.6c0.7-0.6,1.3-1.2,2-1.7c1.6-1.4,4.1-1.3,5.6,0.4
	c1.4,1.6,1.3,4.1-0.4,5.6c-0.6,0.6-1.3,1.1-1.9,1.7C137,202.6,136.1,202.9,135.3,202.9z"/>
<path class="st17" d="M115.3,222.1c-1,0-2.1-0.3-2.9-1.1c-1.6-1.5-1.6-4-0.1-5.6c0.5-0.6,1.1-1.2,1.7-1.7c1.5-1.6,4-1.6,5.6-0.1
	c1.6,1.5,1.6,4,0.1,5.6c-0.5,0.6-1.1,1.1-1.6,1.7C117.3,221.6,116.3,222,115.3,222.1z"/>
<path class="st76" d="M99.4,240.3c-0.9,0-1.8-0.2-2.6-0.8c-1.7-1.3-2-3.8-0.7-5.5c0.5-0.6,1-1.2,1.5-1.8c1.4-1.7,3.8-2,5.6-0.6
	c1.7,1.4,2,3.8,0.6,5.6c-0.5,0.6-0.9,1.2-1.4,1.8C101.7,239.8,100.6,240.3,99.4,240.3z"/>
<path class="st76" d="M76.4,291.6c-0.2,0-0.3,0-0.5,0c-2.2-0.2-3.8-2.1-3.6-4.3c0.1-0.7,0.1-1.3,0.2-2c0.3-2.2,2.2-3.7,4.4-3.5
	c2.2,0.3,3.7,2.2,3.5,4.4c-0.1,0.6-0.1,1.2-0.2,1.8C80,290,78.4,291.5,76.4,291.6z"/>
<path class="st76" d="M273.2,392.4c-1,0-2.1-0.3-2.9-1.1c-1.6-1.5-1.6-4-0.1-5.6c1.2-1.3,2.5-2.7,3.7-4.1c1.4-1.7,3.9-1.9,5.6-0.5
	c1.7,1.4,1.9,3.9,0.5,5.6c-1.3,1.6-2.7,3-4,4.5C275.2,391.9,274.2,392.3,273.2,392.4z"/>
<path class="st76" d="M303.6,336.9c-0.5,0-0.9-0.1-1.4-0.2c-2.1-0.7-3.2-3-2.5-5c1.3-3.9,2.6-8,3.8-12c0.6-2.1,2.8-3.3,4.9-2.7
	c2.1,0.6,3.3,2.8,2.7,4.9c-1.2,4.2-2.6,8.3-3.9,12.4C306.6,335.8,305.2,336.8,303.6,336.9z"/>
<path class="st76" d="M315.7,290.7c-0.3,0-0.6,0-0.9-0.1c-2.1-0.4-3.6-2.5-3.1-4.6l0.2-1.1c0.4-2.1,2.5-3.6,4.6-3.2
	c2.1,0.4,3.6,2.5,3.2,4.6l-0.2,1.1C319.1,289.3,317.5,290.6,315.7,290.7z"/>
<path class="st76" d="M320.4,255.7c-0.1,0-0.3,0-0.4,0c-2.2-0.2-3.8-2.1-3.7-4.2l0-0.5c0.2-2.2,2.1-3.8,4.2-3.7
	c2.2,0.2,3.8,2.1,3.7,4.2l0,0.5C324.1,254.1,322.4,255.6,320.4,255.7z"/>
<path class="st20" d="M191.4,327.9c-4.1,0.1-8.1-1-11.9-3.3c-17.1-10.4-13.7-34.7,10.4-74.1c1.1-1.9,3.6-2.5,5.4-1.3
	c1.9,1.1,2.5,3.6,1.3,5.4c-21,34.4-25.4,55.7-13,63.3c12.4,7.5,29.3-6.1,50.3-40.5c9.3-15.2,24.9-44.4,37.2-72.4
	c0.9-2,3.2-2.9,5.2-2c2,0.9,2.9,3.2,2,5.2c-12.5,28.4-28.3,57.9-37.7,73.4C222,312,205.8,327.4,191.4,327.9z"/>
<path class="st17" d="M215.7,223.1c-0.8,0-1.7-0.2-2.4-0.7c-1.8-1.3-2.2-3.7-0.9-5.5c6-8.5,12.1-16.6,18.1-24.3
	c1.3-1.7,3.8-2,5.5-0.7c1.7,1.3,2,3.8,0.7,5.5c-5.9,7.6-12,15.7-17.9,24.1C218.1,222.5,216.9,223.1,215.7,223.1z"/>
<ellipse transform="matrix(0.5205 -0.8539 0.8539 0.5205 -31.2742 332.1884)" class="st20" cx="280.1" cy="193.9" rx="3.9" ry="3.9"/>
<ellipse transform="matrix(0.5205 -0.8539 0.8539 0.5205 -33.0831 250.9556)" class="st76" cx="206.9" cy="154.9" rx="3.9" ry="3.9"/>
<g>
	<path class="st20" d="M346.3,187.9c-9.6-26.1-25.6-46.1-47.3-59.4l0,0c-21.7-13.2-46.8-18.2-74.4-14.8
		c-22.9,2.8-47.3,11.4-72.3,25.4C106,165,69,202.9,54.3,227.1c-16.8,27.6-21.7,50.8-14.9,71.1c7,21,25.7,34,43.1,42.4
		c4.9,2.4,8.6,6.4,10.6,11.5c2.1,5.2,4.8,10.3,8.2,15.1c4,5.7,4.9,13,2.5,19.6l-34.5,94c-2.1,5.9,0.2,12.5,5.5,15.7
		c2.2,1.4,4.8,2,7.2,1.9c3.4-0.1,6.8-1.6,9.2-4.2l67.7-73.8c4.7-5.1,11.6-7.6,18.6-6.7c5.8,0.8,11.5,0.9,17.1,0.3
		c5.3-0.5,10.6,0.9,14.9,4.1c15.5,11.7,35.6,22.3,57.6,19c21.1-3.2,39.6-18.2,56.4-45.8c14.8-24.2,31.5-74.5,33.3-127.5
		C357.9,235.1,354.3,209.6,346.3,187.9z M129.8,384.7c1.5-4,6.2-5.6,9.7-3.2c1.3,0.9,2.7,1.7,4.1,2.6c1.2,0.7,2.5,1.5,3.7,2.2
		c3.7,2.1,4.4,7,1.6,10.1l-29.5,32.1c-2,2.2-5.7,0-4.6-2.8L129.8,384.7z M333.2,263c-1.6,46.6-16.3,93.6-29.9,116
		c-12.8,21-26.1,32.6-39.7,34.7c-9.9,1.5-20.8-1.7-33.6-10.1c-7.4-4.8-7.9-15.4-1.2-21.1c2-1.7,3.9-3.5,5.9-5.5
		c1.5-1.5,1.7-4,0.2-5.6c-1.5-1.7-4.1-1.7-5.7-0.1c-7.5,7.6-15.3,13-23.5,16.1l-3.4,1.1c-3.8,1.2-7.6,1.9-11.5,2.1
		c-13.1,0.7-27.3-3.7-43-13.3c-20.6-12.6-32.1-26.8-35-43.7c-3-17,2.6-36.8,17-60.5c3.9-6.5,9-13.7,14.9-21.6
		c1.1-1.5,1.2-3.6-0.1-5.1c-1.7-1.9-4.6-1.7-6.1,0.2c-6.2,8.1-11.4,15.7-15.5,22.4c-8.5,13.9-14.1,26.7-16.9,38.6
		c-2,8.6-11.6,12.9-19.3,8.6c-13.7-7.6-21.8-15.9-25-25.5c-4.4-13-0.1-30.3,12.7-51.2c13.6-22.4,48.7-56.9,89.4-79.7
		c20.6-11.6,46.9-22.5,73.7-23.4c0.1,0,0.2,0,0.3,0c7.2-0.2,9.9,9.5,3.5,13c-11.8,6.6-25.8,16.7-42.4,31.5c-1.4,1.3-1.8,3.4-0.9,5
		c1.3,2.2,4.2,2.6,6,1c18.3-16.4,34.9-28,48.8-34.5c4.7-2.2,8.9,3.8,5.3,7.5c-4.3,4.5-9.2,9.9-14.7,16.5c-1.4,1.6-1.4,4.1,0.2,5.6
		c1.7,1.6,4.3,1.4,5.7-0.3c21.7-25.9,31.5-31.5,35.2-32.6c0.7-0.2,1.5-0.1,2.2,0.3c0,0,0,0,0,0c0.1,0.1,0.2,0.3,0.3,0.4
		c0.8,2.2,1.5,9.4-6.3,30.9c-0.7,2,0.1,4.3,2.1,5.1c0.6,0.2,1.1,0.3,1.7,0.3c1.6-0.1,3-1,3.6-2.6c0.7-1.9,1.3-3.8,1.9-5.6
		c1.6-4.9,8.8-3.9,9.1,1.2c0.9,14.8-1.5,34.3-7.3,57.3c-10.9,43.9-30.1,87.3-43.4,109.1c-1.1,1.8-0.7,4.2,1,5.4
		c0.7,0.5,1.6,0.7,2.4,0.7c1.3,0,2.5-0.7,3.2-1.9c13.6-22.3,33.2-66.6,44.4-111.4c3.7-14.7,6.8-31.1,7.6-46.3
		c0.4-7.8,11-9.6,14.1-2.5C331.8,213,334,240.2,333.2,263z"/>
	<path class="st20" d="M161.2,219.1c-1.8,2.1-3.7,4.2-5.5,6.3c-1.4,1.7-1.2,4.1,0.4,5.6c0.8,0.7,1.7,1,2.7,0.9
		c1.1,0,2.1-0.5,2.9-1.4c1.8-2.1,3.6-4.2,5.5-6.2c1.4-1.6,1.3-4.1-0.3-5.6C165.1,217.3,162.6,217.4,161.2,219.1z"/>
</g>
<ellipse transform="matrix(0.5205 -0.8539 0.8539 0.5205 -192.837 379.6993)" class="st20" cx="241.6" cy="361.5" rx="4.7" ry="4.7"/>
<ellipse transform="matrix(0.5205 -0.8539 0.8539 0.5205 -37.6036 377.5233)" class="st76" cx="317.3" cy="222.2" rx="3.9" ry="3.9"/>
<path class="st36" d="M417.9,29.8c-0.3-5.8-5.5-10.1-11.4-9.8c-34.2,2-65.2,20-83,48.3l-1.3,2c-16.6,26.3-42.6,45.8-73,54.8
	l-2.2,0.7c17.2,25.6,45.6,42.3,77,45.3l-0.4-2.2c-5.7-30.2,0.4-61.5,17-87.7l7.2-11.4c12.5-19.8,35.4-28.8,59.3-28.9
	C413.4,40.8,418.2,35.7,417.9,29.8z"/>
<path class="st2" d="M405.4,1.6c-40.4,2.3-77.1,23.7-98.1,57.1l-1.3,2c-14.2,22.4-36.3,39-62.3,46.7l-26.4,7.8l0,0.1
	c2.4-0.4,4.8-0.8,7.2-1.1c9.6-1.2,19-1.3,28-0.5c2.9,0.3,3.4,4.4,0.6,5.3c-1.7,0.6-3.5,1.2-5.3,1.7l-2.2,0.7c-1.4,0.4-2.5,1.4-3,2.7
	c-0.5,1.3-0.3,2.8,0.5,4c18.1,26.9,47.4,44.1,80.4,47.3c0.2,0,0.4,0,0.6,0c1.2,0,2.4-0.6,3.2-1.4c1-1,1.4-2.5,1.2-3.9l-0.4-2.2
	c-0.3-1.7-0.6-3.4-0.8-5.2c-0.4-2.9,3.4-4.3,5-1.9c5.6,8.2,10.2,17.4,14,27.5c0.2,0.7,0.5,1.3,0.7,2l-4.7-24.9
	c-4.8-25.8,0.3-52.4,14.5-74.9l7.2-11.4c8-12.7,23.7-20,43.2-20.1c8.2,0,16-3.3,21.6-9.1c5.6-5.8,8.5-13.6,8.1-21.5
	C435.9,12.8,421.8,0.7,405.4,1.6z M258.4,133.1c-2-2.3-1.1-5.9,1.7-7c27.3-10.3,50.6-29.1,66-53.5l1.3-2c17-27,46.7-44.3,79.4-46.1
	c3.4-0.2,6.3,2.3,6.5,5.6c0.1,1.6-0.5,3.2-1.7,4.4c-1.2,1.2-2.8,1.9-4.5,1.9c-27.8,0.1-50.9,11.4-63.2,31l-7.2,11.4
	c-15.4,24.4-22,52.9-19,81.2c0.3,3-2.4,5.4-5.3,4.7C291.2,160.1,272.4,149.1,258.4,133.1z"/>
</svg>
