<?xml version="1.0" encoding="utf-8"?>
<!-- Generator: Adobe Illustrator 20.0.0, SVG Export Plug-In . SVG Version: 6.00 Build 0)  -->
<svg version="1.1" id="Layer_1" xmlns="http://www.w3.org/2000/svg" xmlns:xlink="http://www.w3.org/1999/xlink" x="0px" y="0px"
	 viewBox="0 0 500 500" style="enable-background:new 0 0 500 500;" xml:space="preserve">
<style type="text/css">
	.st0{fill:#EEEBDB;}
	.st1{fill:#E1C7B2;}
	.st2{opacity:0.5;fill:none;stroke:#D2A284;stroke-width:3;stroke-miterlimit:10;}
	.st3{fill:#F2CFAA;}
	.st4{fill:#EDB283;}
	.st5{fill:#DFC8B2;}
	.st6{opacity:0.5;fill:none;stroke:#B08269;stroke-width:3;stroke-miterlimit:10;}
	.st7{fill:#00FFFF;}
	.st8{opacity:0.9;fill:none;stroke:#DB7745;stroke-width:3;stroke-miterlimit:10;}
	.st9{opacity:0.5;fill:none;stroke:#DB7745;stroke-width:3;stroke-miterlimit:10;}
	.st10{opacity:0.3;fill:none;stroke:#DB7745;stroke-width:3;stroke-miterlimit:10;}
	.st11{opacity:0.7;fill:none;stroke:#DB7745;stroke-width:3;stroke-miterlimit:10;}
	.st12{fill:#E2AC88;}
	.st13{fill:#B08269;}
	.st14{fill:none;stroke:#B98A71;stroke-width:3;stroke-miterlimit:10;}
	.st15{fill:none;stroke:#C39377;stroke-width:3;stroke-miterlimit:10;}
	.st16{fill:none;stroke:#CD9B7E;stroke-width:3;stroke-miterlimit:10;}
	.st17{fill:none;stroke:#D7A484;stroke-width:3;stroke-miterlimit:10;}
	.st18{fill:none;stroke:#7C5B4F;stroke-miterlimit:10;}
	.st19{fill:#7C5B4F;}
	.st20{fill:#C6A58F;}
	.st21{fill:#B98A71;}
	.st22{fill:#C39377;}
	.st23{fill:#CD9B7E;}
	.st24{fill:#D7A484;}
	.st25{fill:#FFEFDC;stroke:#5E3E27;stroke-miterlimit:10;}
	.st26{opacity:0.2;fill:none;stroke:#D0A672;stroke-width:3;stroke-miterlimit:10;}
	.st27{opacity:0.4;fill:none;stroke:#D0A672;stroke-width:3;stroke-miterlimit:10;}
	.st28{opacity:0.6;fill:none;stroke:#D0A672;stroke-width:3;stroke-miterlimit:10;}
	.st29{fill:#5E3E27;}
	.st30{fill:none;stroke:#5E3E27;stroke-miterlimit:10;}
	.st31{fill:#FFEFDC;}
	.st32{fill:#F5E0C8;}
	.st33{fill:#EBD2B4;}
	.st34{fill:#E2C39E;}
	.st35{opacity:0.6;fill:none;stroke:#DB7745;stroke-width:3;stroke-miterlimit:10;}
	.st36{fill:none;stroke:#863B2B;stroke-linecap:round;stroke-miterlimit:10;}
	.st37{fill:#863B2B;}
	.st38{fill:none;stroke:#863B2B;stroke-miterlimit:10;}
	.st39{fill:#DB7D51;}
	.st40{fill:#E29468;}
	.st41{fill:#E6A074;}
	.st42{fill:#DE895D;}
	.st43{fill:#E29A71;}
	.st44{fill:#D2A284;}
	.st45{opacity:0.7;fill:none;stroke:#E1C7B2;stroke-width:3;stroke-miterlimit:10;}
	.st46{opacity:0.9;fill:none;stroke:#CA9464;stroke-width:3;stroke-miterlimit:10;}
	.st47{opacity:0.6;fill:none;stroke:#CA9464;stroke-width:3;stroke-miterlimit:10;}
	.st48{opacity:0.3;fill:none;stroke:#CA9464;stroke-width:3;stroke-miterlimit:10;}
	.st49{fill:#5F362D;}
	.st50{fill:#D9B49D;}
	.st51{fill:#DCBCA5;}
	.st52{fill:#CA956A;}
	.st53{fill:#CC9A74;}
	.st54{fill:#CF9E7D;}
	.st55{clip-path:url(#SVGID_2_);}
	.st56{fill:#FFC841;}
	.st57{fill:#C56C00;}
	.st58{fill:#FFC841;stroke:#C56C00;stroke-linecap:round;stroke-linejoin:round;stroke-miterlimit:10;}
	.st59{fill:#FFC841;stroke:#C56C00;stroke-miterlimit:10;}
	.st60{fill:none;stroke:#FFE197;stroke-linecap:round;stroke-miterlimit:10;}
	.st61{fill:none;stroke:#C56C00;stroke-linecap:round;stroke-miterlimit:10;}
	.st62{fill:#F6DB90;}
	.st63{opacity:0.3;fill:none;stroke:#C56C00;stroke-width:3;stroke-linecap:round;stroke-linejoin:round;stroke-miterlimit:10;}
	.st64{fill:#FFE197;}
	.st65{fill:#ECAB3D;}
	.st66{opacity:0.5;}
	.st67{fill:none;stroke:#94734A;stroke-linecap:round;stroke-miterlimit:10;}
	.st68{fill:#B2895B;}
	.st69{opacity:0.7;fill:none;stroke:#745432;stroke-width:3;stroke-miterlimit:10;}
	.st70{fill:#3F2F21;}
	.st71{fill:none;stroke:#3F2F21;stroke-miterlimit:10;}
	.st72{fill:#745432;}
	.st73{fill:#94734A;}
	.st74{fill:#866441;}
</style>
<polygon class="st0" points="244.7,484.2 331.6,462.4 346.5,167.6 395.1,79.3 98.1,79.3 142.8,127 157.7,211.5 166.8,457.4 "/>
<path class="st73" d="M177.7,204.7c-2,0-3.8-1.5-4.1-3.6c-2.2-16.2-5-31.4-8.2-45.1c-0.5-2.2,0.9-4.5,3.1-5c2.2-0.5,4.5,0.9,5,3.1
	c3.3,14,6.1,29.5,8.4,45.9c0.3,2.3-1.3,4.4-3.6,4.7C178.1,204.7,177.9,204.7,177.7,204.7z"/>
<path class="st73" d="M303.8,213.8c-0.1,0-0.3,0-0.4,0c-2.3-0.2-4-2.3-3.7-4.5c3.1-32.3,7.8-60.5,13.8-83.9c0.6-2.2,2.8-3.6,5.1-3
	c2.2,0.6,3.6,2.8,3,5.1c-5.9,23-10.5,50.7-13.6,82.6C307.7,212.2,305.9,213.8,303.8,213.8z"/>
<path class="st73" d="M195.2,227.6c-2.1,0-4-1.6-4.1-3.8c-1.1-13.1-2.4-25.7-3.9-37.4c-0.3-2.3,1.3-4.4,3.6-4.7
	c2.3-0.3,4.4,1.3,4.7,3.6c1.5,11.8,2.8,24.6,3.9,37.8c0.2,2.3-1.5,4.3-3.8,4.5C195.4,227.6,195.3,227.6,195.2,227.6z"/>
<path class="st73" d="M287.3,227.9c-0.1,0-0.2,0-0.2,0c-2.3-0.1-4-2.1-3.9-4.4c0.9-14.9,1.9-29.1,3.2-42.1c0.2-2.3,2.3-4,4.5-3.7
	c2.3,0.2,4,2.3,3.7,4.5c-1.3,13-2.3,27.1-3.2,41.8C291.3,226.2,289.5,227.9,287.3,227.9z"/>
<path class="st73" d="M209.7,216.9c-2.2,0-4-1.7-4.1-3.9c-2.2-33.2-5.6-62-9.9-85.8c-0.4-2.3,1.1-4.4,3.3-4.8
	c2.3-0.4,4.4,1.1,4.8,3.3c4.4,24,7.8,53.2,10.1,86.7c0.2,2.3-1.6,4.3-3.9,4.4C209.9,216.8,209.8,216.9,209.7,216.9z"/>
<path class="st73" d="M273.1,206.6c-0.1,0-0.1,0-0.2,0c-2.3-0.1-4.1-2.1-4-4.4c1.3-29.1,3.3-54.7,5.7-76.2c0.3-2.3,2.3-3.9,4.6-3.7
	c2.3,0.3,3.9,2.3,3.7,4.6c-2.4,21.3-4.3,46.8-5.6,75.7C277.2,204.8,275.4,206.6,273.1,206.6z"/>
<path class="st73" d="M225.4,227.4c-2.2,0-4.1-1.8-4.2-4c-0.5-15.4-1.2-30.1-2.1-43.6c-0.1-2.3,1.6-4.3,3.9-4.4
	c2.3-0.1,4.3,1.6,4.4,3.9c0.8,13.6,1.5,28.3,2.1,43.8c0.1,2.3-1.7,4.2-4,4.3C225.5,227.4,225.5,227.4,225.4,227.4z"/>
<path class="st73" d="M257,227.9C257,227.9,257,227.9,257,227.9c-2.4,0-4.2-1.9-4.2-4.2c0.2-14.2,0.4-27.6,0.6-40.1
	c0-2.3,2-4.1,4.2-4.1c2.3,0,4.1,1.9,4.1,4.2c-0.3,12.4-0.5,25.9-0.6,40C261.2,226,259.3,227.9,257,227.9z"/>
<path class="st73" d="M240.6,218.6c-2.3,0-4.1-1.8-4.2-4.1c-0.4-28.2-1-53.4-1.7-74.8c-0.1-2.3,1.7-4.2,4-4.3c2.3-0.1,4.2,1.7,4.3,4
	c0.7,21.5,1.3,46.7,1.7,75C244.8,216.7,242.9,218.6,240.6,218.6C240.6,218.6,240.6,218.6,240.6,218.6z"/>
<path class="st68" d="M371.1,100.7c-106.8,13.9-209.2,3.9-240.9,0.1c-8.7-1-16.8-6.3-19.8-14.4c-0.8-2.3-1.3-4.6-1.3-7
	c0-28.6,63.1-51.9,141-51.9s141,23.2,141,51.9c0,0,0.1,1.9-0.6,4.9C388.1,93.1,380.2,99.6,371.1,100.7z"/>
<path class="st73" d="M152.3,103.2c-5.7-0.5-10.7-1.1-15-1.5c14.4,8.2,20.1,25.9,20.2,26c0.6,1.8,2.2,2.9,4,2.9
	c0.4,0,0.8-0.1,1.3-0.2c2.2-0.7,3.4-3,2.7-5.2C165.2,124.5,161.4,113,152.3,103.2z"/>
<path class="st73" d="M184.3,125.4c-0.2-0.7-2.8-10.9-9.2-20.4c-4-0.3-7.8-0.6-11.4-0.9c8.8,8.8,12.5,23.1,12.5,23.3
	c2.5,9.7,4.8,20.3,6.8,31.6c0.4,2,2.1,3.4,4.1,3.4c0.2,0,0.5,0,0.7-0.1c2.3-0.4,3.8-2.6,3.4-4.8
	C189.2,146.1,186.8,135.3,184.3,125.4z"/>
<path class="st73" d="M219.5,107.3c-3-0.1-5.9-0.2-8.8-0.3c2.1,6.4,3.5,14.5,4.1,19.9c1,8.8,1.9,18.4,2.7,28.5
	c0.2,2.2,2,3.8,4.1,3.8c0.1,0,0.2,0,0.3,0c2.3-0.2,4-2.2,3.8-4.5c-0.8-10.2-1.7-19.8-2.7-28.7C222.9,124.5,221.9,115.8,219.5,107.3z
	"/>
<path class="st73" d="M233,107.7c0.7,7,1.2,15.1,1.3,18.9c0.1,2.2,1.9,4,4.2,4c0.1,0,0.1,0,0.2,0c2.3-0.1,4.1-2,4-4.3
	c-0.1-1.5-0.4-10.2-1.2-18.5C238.5,107.8,235.7,107.7,233,107.7z"/>
<path class="st73" d="M256.4,107.9c-0.8,8.3-1.2,16.9-1.2,18.4c-0.4,9.5-0.7,19.9-1,30.9c-0.1,2.3,1.8,4.2,4,4.3c0,0,0.1,0,0.1,0
	c2.2,0,4.1-1.8,4.2-4c0.3-11,0.6-21.4,1-30.8c0.1-3.8,0.6-11.8,1.3-18.8C261.9,107.8,259.1,107.9,256.4,107.9z"/>
<path class="st73" d="M299.8,106.8c-0.8,1.7-1.5,3.5-2.2,5.4c-2.6,7.1-3.7,13.2-3.7,13.4c-1.5,8.4-3,17.4-4.3,26.9
	c-0.3,2.3,1.3,4.4,3.6,4.7c0.2,0,0.4,0,0.6,0c2.1,0,3.8-1.5,4.1-3.6c1.3-9.4,2.7-18.3,4.2-26.6c0.8-4.2,3.2-13.7,7.3-20.8
	C306.2,106.5,303,106.7,299.8,106.8z"/>
<path class="st73" d="M344.9,103.7c-8.8,9.7-12.4,20.8-12.6,21.5c-5.7,17.2-10.4,37.1-14,59c-0.4,2.3,1.2,4.4,3.4,4.8
	c0.2,0,0.5,0.1,0.7,0.1c2,0,3.8-1.4,4.1-3.5c3.6-21.6,8.2-41,13.7-57.9c0.1-0.2,5.6-17.1,19.4-25.6
	C354.7,102.7,349.8,103.2,344.9,103.7z"/>
<path class="st74" d="M347.1,41.7c-28.2-6.5-61.8-10.1-97.1-10.1s-68.8,3.5-97.1,10.1C125.9,51.2,109,64.6,109,79.4
	c0,1.9,0.3,3.8,0.9,5.7c5.9-4.3,15.3-9.2,29.9-13.8C169,61.8,208.2,56.6,250,56.6s81,5.2,110.2,14.6c14.5,4.7,23.9,9.5,29.9,13.8
	c0.1-0.3,0.2-0.5,0.2-0.8c0.7-2.9,0.6-4.9,0.6-4.9C391,64.6,374.1,51.2,347.1,41.7z"/>
<path class="st70" d="M415.9,78.9c-0.1-10-3.6-24.7-19.7-38.6c-9.4-8.2-22.2-15.3-38-21.1C329,8.5,290.5,2.5,250,2.5
	s-79,5.9-108.3,16.7c-15.8,5.8-28.6,12.9-38,21.1C87.5,54.5,84,69.4,84,79.4c0,5.3,1,10.6,2.8,15.7c4.5,12.2,13.9,21.7,26.1,26.8
	c4.1,1.7,7.5,4.5,10,8.2c1.8,2.7,2.7,4.9,2.7,4.9l0,0.1l0,0.1c29.9,79.8,26.6,198.7,24.6,269.8c-0.2,8.8-0.5,17.1-0.6,24.4
	c-0.2,12.4,3.2,24.5,10,34.9c6.9,10.5,16.6,18.6,28.2,23.3c16.2,6.6,35.6,9.9,57.4,9.9c1.2,0,2.3,0,3.5,0c1.2,0,2.3,0,3.5,0
	c21.9,0,41.2-3.3,57.4-9.9c11.6-4.7,21.3-12.8,28.2-23.3c6.8-10.4,10.2-22.5,10-34.9c-0.1-7.3-0.4-15.6-0.6-24.4
	c-2-71-5.3-189.9,24.6-269.8l0,0c0.1-0.2,0.2-0.5,0.4-0.8c2.5-5.4,7.1-9.4,12.6-11.5c14.5-5.4,25.9-17.6,29.6-32.6
	C415.8,85.3,416,81.2,415.9,78.9z M114.2,85c-0.7-1.9-1-3.7-1-5.6c0-23,55-47.7,136.8-47.7c81.8,0,136.8,24.7,136.8,47.7l0,0.2
	c0,0,0,1.5-0.5,3.7c-1.8,7-8.1,12.4-15.8,13.4c-107,13.9-210.7,3.6-239.9,0.1C123,95.8,116.5,91.2,114.2,85z M348.5,126.4
	C313,221.3,321.7,364.6,323,429.8c0.3,15-8.5,28.8-22.4,34.5c-14.6,5.9-31.7,8.2-48.2,8.2c-1.2,0-2.3,0-3.5,0c-1.2,0-2.3,0-3.5,0
	c-16.5,0-33.6-2.2-48.2-8.2c-13.9-5.7-22.7-19.5-22.4-34.5c1.2-65.2,10-208.6-25.5-303.4c0,0,0-0.1-0.1-0.2
	c-3.5-9.1,3.7-18.8,13.4-18c23.4,1.9,55.3,3.8,91.7,3.8c25.2,0,52.7-0.9,80.9-3.2C344.7,107.9,351.8,117.4,348.5,126.4
	C348.5,126.4,348.5,126.4,348.5,126.4z"/>
<circle class="st72" cx="209.8" cy="427.7" r="8.3"/>
<circle class="st72" cx="243.1" cy="386.1" r="8.3"/>
<circle class="st72" cx="209.8" cy="361.1" r="8.3"/>
</svg>
