<?xml version="1.0" encoding="utf-8"?>
<!-- Generator: Adobe Illustrator 20.1.0, SVG Export Plug-In . SVG Version: 6.00 Build 0)  -->
<svg version="1.1" id="Layer_1" xmlns="http://www.w3.org/2000/svg" xmlns:xlink="http://www.w3.org/1999/xlink" x="0px" y="0px"
	 viewBox="0 0 250 250" style="enable-background:new 0 0 250 250;" xml:space="preserve">
<style type="text/css">
	.st0{fill:none;stroke:#1E6625;stroke-width:6;stroke-linecap:round;stroke-linejoin:round;stroke-miterlimit:10;}
	.st1{fill:none;stroke:#662B5B;stroke-width:6;stroke-linecap:round;stroke-linejoin:round;stroke-miterlimit:10;}
	.st2{fill:#419608;}
	.st3{opacity:0.6;fill:#419608;stroke:#1E6625;stroke-linecap:round;stroke-linejoin:round;stroke-miterlimit:10;}
	.st4{fill:none;stroke:#C2807D;stroke-linecap:round;stroke-linejoin:round;stroke-miterlimit:10;}
	.st5{fill:none;stroke:#34500C;stroke-width:6;stroke-linecap:round;stroke-linejoin:round;stroke-miterlimit:10;}
	.st6{fill:#7E9E5B;stroke:#34500C;stroke-miterlimit:10;}
	.st7{fill:#BFCC5C;}
	.st8{fill:#FFE200;}
	.st9{fill:#DDAA00;}
	.st10{fill:#FFF2B3;}
	.st11{fill:#406A29;}
	.st12{fill:#00FFFF;}
	.st13{clip-path:url(#SVGID_2_);}
	.st14{fill:none;stroke:#CC9600;stroke-width:6;stroke-linecap:round;stroke-miterlimit:10;}
	.st15{fill:none;stroke:#FFF2B3;stroke-linecap:round;stroke-miterlimit:10;}
	.st16{fill:none;stroke:#DDAA00;stroke-linecap:round;stroke-miterlimit:10;}
	.st17{fill:#FFE966;}
	.st18{fill:#FFE200;stroke:#DDAA00;stroke-width:3;stroke-linecap:round;stroke-miterlimit:10;}
	.st19{fill:#BFCC5C;stroke:#406A29;stroke-linecap:round;stroke-miterlimit:10;}
	.st20{fill:none;stroke:#A9B236;stroke-linecap:round;stroke-miterlimit:10;}
	.st21{fill:none;stroke:#406A29;stroke-linecap:round;stroke-miterlimit:10;}
	.st22{fill:#CC9600;}
	.st23{fill:#A9B236;}
	.st24{fill:#7CAB09;}
	.st25{fill:#4E670C;}
	.st26{fill:none;stroke:#C0CC8F;stroke-linecap:round;stroke-miterlimit:10;}
	.st27{fill:#7D8AD7;stroke:#4648A6;stroke-width:3;stroke-miterlimit:10;}
	.st28{opacity:0.6;fill:none;stroke:#CDD6FF;stroke-width:3;stroke-miterlimit:10;}
	.st29{opacity:0.4;fill:none;stroke:#CDD6FF;stroke-width:3;stroke-miterlimit:10;}
	.st30{opacity:0.2;fill:none;stroke:#CDD6FF;stroke-width:3;stroke-miterlimit:10;}
	.st31{fill:#7CAB09;stroke:#76990A;stroke-linecap:round;stroke-miterlimit:10;}
	.st32{fill:none;stroke:#A598D8;stroke-linecap:round;stroke-miterlimit:10;}
	.st33{fill:none;stroke:#2B2A6F;stroke-width:3;stroke-miterlimit:10;}
	.st34{fill:none;stroke:#8A6EDA;stroke-linecap:round;stroke-miterlimit:10;}
	.st35{fill:#E4E5E7;stroke:#2B2A6F;stroke-miterlimit:10;}
	.st36{fill:#C2807D;stroke:#7C152E;stroke-miterlimit:10;}
	.st37{fill:#E4E5E7;}
	.st38{fill:#A598D8;}
	.st39{fill:#C0CC8F;}
	.st40{fill:#7D8AD7;}
	.st41{fill:#AEB9ED;}
	.st42{fill:#9EA9E5;}
	.st43{fill:#8E9ADD;}
	.st44{fill:#76990A;}
	.st45{fill:#8A6EDA;}
	.st46{fill:#2B2A6F;}
	.st47{fill:#C2807D;}
	.st48{fill:#7C152E;}
	.st49{fill:#FE8600;stroke:#F15A24;stroke-width:3;stroke-miterlimit:10;}
	.st50{fill:#FE8600;}
	.st51{fill:none;stroke:#F15A24;stroke-miterlimit:10;}
	.st52{fill:none;stroke:#F15A24;stroke-linecap:round;stroke-miterlimit:10;}
	.st53{opacity:0.8;fill:none;stroke:#F15A24;stroke-width:3;stroke-miterlimit:10;}
	.st54{opacity:0.6;fill:none;stroke:#F15A24;stroke-width:3;stroke-miterlimit:10;}
	.st55{opacity:0.4;fill:none;stroke:#F15A24;stroke-width:3;stroke-miterlimit:10;}
	.st56{opacity:0.2;fill:none;stroke:#F15A24;stroke-width:3;stroke-miterlimit:10;}
	.st57{fill:#F15A24;}
	.st58{fill:#9CAD23;stroke:#34500C;stroke-miterlimit:10;}
	.st59{opacity:0.4;fill:none;stroke:#34500C;stroke-linecap:round;stroke-miterlimit:10;}
	.st60{fill:none;stroke:#9CAD23;stroke-width:2;stroke-linecap:round;stroke-linejoin:round;stroke-miterlimit:10;}
	.st61{fill:none;stroke:#34500C;stroke-linecap:round;stroke-linejoin:round;stroke-miterlimit:10;}
	.st62{fill:none;stroke:#7CAB09;stroke-width:2;stroke-linecap:round;stroke-miterlimit:10;}
	.st63{fill:none;stroke:#7D9959;stroke-linecap:round;stroke-miterlimit:10;}
	.st64{fill:#7CAB09;stroke:#4E670C;stroke-miterlimit:10;}
	.st65{fill:none;stroke:#7CAB09;stroke-linecap:round;stroke-miterlimit:10;}
	.st66{fill:none;stroke:#34500C;stroke-linecap:round;stroke-miterlimit:10;}
	.st67{opacity:0.4;fill:#34500C;}
	.st68{fill:#34500C;}
	.st69{fill:#F46C29;}
	.st70{fill:#F77426;}
	.st71{fill:#F97D25;}
	.st72{fill:#EF4B18;}
	.st73{fill:#F3672A;}
	.st74{fill:#9CAD23;}
	.st75{fill:#7D9959;}
	.st76{fill:#7E9E5B;}
	.st77{fill:none;stroke:#935A4E;stroke-width:2;stroke-linecap:round;stroke-miterlimit:10;}
	.st78{fill:none;stroke:#663D1F;stroke-linecap:round;stroke-miterlimit:10;}
	.st79{fill:none;stroke:#935A4E;stroke-linecap:round;stroke-miterlimit:10;}
	.st80{fill:#663D1F;}
	.st81{clip-path:url(#SVGID_4_);}
	.st82{fill:#B8CE5D;stroke:#416F30;stroke-linecap:round;stroke-linejoin:round;stroke-miterlimit:10;}
	.st83{fill:none;stroke:#416F30;stroke-width:6;stroke-linecap:round;stroke-miterlimit:10;}
	.st84{fill:none;stroke:#406F30;stroke-width:5;stroke-linecap:round;stroke-miterlimit:10;}
	.st85{fill:#B8CE5D;}
	.st86{fill:#416F30;}
	.st87{fill:#90B74B;}
	.st88{fill:none;stroke:#5E8A3B;stroke-linecap:round;stroke-miterlimit:10;}
	.st89{opacity:0.7;fill:none;stroke:#FFFFFF;stroke-linecap:round;stroke-miterlimit:10;}
	.st90{fill:none;stroke:#6F2D49;stroke-width:6;stroke-linecap:round;stroke-linejoin:round;stroke-miterlimit:10;}
	.st91{fill:none;stroke:#BF6FAA;stroke-linecap:round;stroke-linejoin:round;stroke-miterlimit:10;}
	.st92{fill:none;stroke:#B8CE5D;stroke-linecap:round;stroke-miterlimit:10;}
	.st93{opacity:0.7;fill:#FFFFFF;}
	.st94{fill:#6F2D49;}
	.st95{fill:#BF6FAA;}
	.st96{fill:#5E8A3B;}
</style>
<g>
	<path class="st86" d="M61,151.8c-3.3,1.4-6.6,3.7-8.2,7.8c-2.4,5.9,0.3,11.5,2.6,15.3c0.6,0.9,1.2,1.9,1.9,2.8
		c0.7,0.9,1,2.1,1.2,3.2c0.3,2.9,1.7,5.5,3.9,7.5c1.2,1,2.4,2,3.6,3c0.9,0.7,1.5,1.6,1.9,2.6c0.7,1.7,1.8,3.2,3.3,4.5
		c0.9,0.8,1.9,1.5,2.8,2.3c1,0.7,1.6,1.8,2.1,2.9c0.9,2.2,2.5,4.2,4.7,5.5c0.3,0.2,6.8,4.3,15.1,7.6c7.1,2.9,14.8,4.4,22,4.4
		c11.3,0,21.1-3.6,27.9-9.8c1-0.9,2.3-1.2,3.5-0.7l0,0c0.9,0.3,1.6,1,2.1,1.8c4.9,10,9.9,20.1,15.2,30.2c2.1,4,6.2,6.3,10.5,6.3
		c2.2,0,4.4-0.6,6.4-1.9c5.2-3.4,6.8-10.3,3.9-15.8c-4.8-9.1-9.4-18.3-13.8-27.4c-0.6-1.3-0.7-2.8-0.2-4.1l0-0.1
		c0.6-1.8,2.2-3.1,4-3.5c15.7-2.7,29.9-17.1,35.5-36.9c2.5-8.8,3.3-16.6,3.3-16.9c0.3-2.6-0.3-5.2-1.7-7.4c-0.6-0.9-0.9-2-0.9-3.1
		c0-1.3,0-2.7-0.1-4c-0.1-2-0.6-3.9-1.6-5.5c-0.5-0.9-0.8-1.9-0.8-2.9c0-1.7-0.1-3.4-0.2-5c-0.2-3-1.5-5.9-3.7-7.9
		c-0.7-0.7-1.3-1.6-1.6-2.6c-0.4-1.3-0.8-2.5-1.2-3.6c-1.6-4.1-4.4-9.7-10.6-11.5c-1.1-0.3-2.3-0.5-3.5-0.5
		c-5.1,0-10.4,3.4-14.7,7.3c-0.8,0.7-1.7,1.1-2.7,1.3c-2.9,0.6-5.5,2.3-7.3,4.8c-0.9,1.3-1.9,2.7-2.8,4.2c-0.6,0.9-1.3,1.6-2.3,2.1
		c-1.7,0.9-3.2,2.2-4.3,3.9c-0.7,1-1.4,2.1-2.1,3.2c-0.6,0.9-1.4,1.6-2.3,2.1c-2.3,1.2-4.2,3.1-5.4,5.5c-0.2,0.4-1.1,2.4-2.4,5.8
		c-0.7,1.8-3.1,1.8-3.8,0c0,0,0-0.1-0.1-0.1c-2.2-5.6-3.2-11.6-2.7-17.6c0.1-2,0.3-4.1,0.4-6.3L68.7,88.2c-1.6,0-3.1,0.3-4.5,0.9
		c-0.9,0.4-1.9,0.6-2.9,0.5c-1.1-0.1-2.1-0.1-3.1-0.1c-0.1,0-0.1,0-0.2,0c-2.6,0-5.2,0.9-7.2,2.5c-0.8,0.6-1.7,1.1-2.6,1.3
		c-7.4,1.7-12,5-13.8,9.9c-1.8,4.8-0.4,10.3,4,16.3c0.6,0.8,0.9,1.7,1.1,2.7c0.5,2.6,2,5,4.1,6.7c0.8,0.7,1.6,1.3,2.5,2
		c0.8,0.6,1.4,1.4,1.9,2.3c0.8,1.4,1.8,2.7,3.1,3.8c0.6,0.4,1.1,0.9,1.7,1.3c0.9,0.7,1.6,1.5,2.1,2.5c1,2,2.6,3.7,4.6,4.8
		c0.2,0.1,0.9,0.5,1.9,1c2.1,1.1,2,4.2-0.2,5.1L61,151.8z M120.2,147.2c-1.1-0.4-2.2-0.8-3.2-1.2c-0.8-0.3-1.1-1.3-0.5-2
		c0.6-0.7,1.2-1.4,1.8-2.2c0.6-0.8,1.8-0.7,2.2,0.3c0.5,1.1,0.9,2.3,1.4,3.4C122.2,146.6,121.2,147.6,120.2,147.2z"/>
	<g>
		<path class="st94" d="M80.9,46c0.5-0.3,0.5-1.1,0-1.4c-2.4-1.4-4.3-3.6-5.3-6.4c-0.9-2.7-0.8-5.5,0.1-8c0.2-0.4,0.2-0.9,0.3-1.3
			c0.1-2.3,0.8-4.6,2.2-6.6l-0.8-1.1C73.3,16,73.9,8.5,79,4.4c2.3-1.8,5-2.7,7.7-2.6c0.5,0,0.9-0.1,1.4-0.2c2.5-0.8,5.3-0.8,7.9,0.3
			c5,2,7.9,7,7.4,12.2c-0.1,1.2,0.4,2.3,1.3,3.1c0.9,0.7,1.6,1.6,2.3,2.5c0.3,0.4,0.6,0.7,0.9,1c2.1,1.6,3.7,3.9,4.4,6.6
			c0,0.2,0.1,0.4,0.1,0.5c0.2,1,1.4,1.4,2.2,0.7l0,0c0.5-0.4,0.5-1.2,0.1-1.7v0c-3.7-5-3.2-12.1,1.4-16.2c2.5-2.2,5.5-3.1,8.5-3
			c0.5,0,0.9,0,1.4-0.2c2.6-0.7,5.5-0.6,8.1,0.6c5,2.2,7.5,7.6,6.8,12.8c-0.1,0.7-0.3,1.4-0.4,1.9c-0.4,1.2,0,2.4,0.9,3.2
			c0.2,0.1,0.3,0.3,0.5,0.4c1.7,1.5,2.7,3.6,3.3,5.7c0.1,0.5,0.3,0.9,0.6,1.3c1.4,2.2,2.1,4.9,1.8,7.7c-0.2,2.1-1,4-2.2,5.6
			c-0.8,1.2-0.9,2.6-0.3,3.9c0.4,0.8,0.7,1.6,0.9,2.4c0.1,0.5,0.3,0.9,0.6,1.3c1.4,2.2,2.1,4.9,1.8,7.7c-0.2,1.9-0.9,3.7-1.9,5.2
			c-0.8,1.2-1,2.6-0.6,3.9l0,0c0.2,0.8,0.6,1.6,1,2.3c1.3,2.1,1.9,4.7,1.6,7.3c-0.3,2.3-1.2,4.4-2.5,6.1c-0.6,0.8-0.9,1.9-0.7,2.9
			l0,0.2c0.1,0.4,0.3,0.9,0.5,1.3c1.4,2.2,2.1,4.9,1.8,7.7c-0.7,6.1-5.8,10.6-11.8,10.6c-0.4,0-0.9,0-1.3-0.1l-5.3-0.6
			c-3.8-0.4-7.2-2.7-9-6c-0.9,0.8-1.9,1.4-3,1.9l-4.9,2.1c-1.6,0.7-3.3,1-4.9,1c0,0,0,0,0,0c-3-3.1-6.7-5.8-10.9-7.9l-0.8-0.4
			c-1.3-0.6-2.6-1.2-3.9-1.7c-7.1-2.6-12-3.5-12.2-3.6c-0.2,0-0.5-0.1-0.7-0.1c-1.1,0-2.2,0.5-3,1.3c-0.2,0.2-0.3,0.4-0.5,0.6
			L74.6,96c-1-1.1-1.7-2.3-2.2-3.7c-0.4-1-1.1-1.8-2-2.2c-0.4-0.2-0.9-0.4-1.3-0.6c-2.5-1.3-4.3-3.4-5.4-5.9
			c-0.2-0.4-0.4-0.8-0.7-1.2c-1.1-1.2-1.9-2.6-2.4-4.2c-0.3-0.9-0.9-1.6-1.7-2.1c-1.9-1.1-3.4-2.7-4.4-4.5c-0.2-0.4-0.5-0.8-0.9-1.1
			c-2-1.8-3.4-4.2-3.8-7c-0.4-2.4,0-4.7,0.9-6.7l-0.6-0.5c-5.2-4-6.5-11.5-2.6-16.7c1.7-2.4,4.2-3.9,6.8-4.5
			c0.5-0.1,0.9-0.3,1.3-0.5c2.2-1.4,4.9-2.1,7.8-1.7c4.3,0.5,7.8,3.4,9.4,7.1c0.4,1,1.2,1.7,2.2,2.1c1.9,0.7,3.6,2,4.8,3.5
			C80.1,46.1,80.5,46.2,80.9,46L80.9,46z"/>
	</g>
	<path class="st87" d="M100.4,205.3c6,2.4,12,3.5,17.6,3.5c11.5,0,21.2-4.8,24.7-13.4c5.2-12.8-5.4-29.1-23.6-36.4
		c-6-2.4-10.7-3.8-12.8-4.3c-0.6-0.1-1.1,0.4-0.9,0.9l0.2,0.9c0.1,0.5-0.3,1-0.9,0.9c-3.9-0.9-7.7-1.4-11.1-1.7
		c-0.5,0-0.9,0.4-0.8,0.9l0.2,0.8c0.1,0.5-0.4,1-0.9,0.9c-4.2-0.8-8.1-1.2-11.6-1.4c-0.5,0-0.9,0.4-0.8,0.9l0.3,1.2
		c0.1,0.5-0.2,0.9-0.7,0.9c-9.4,0.2-14.8,2.4-15.3,3.6c-0.5,1.2,1.9,6.4,8.4,13.1c0.3,0.3,0.3,0.9-0.1,1.2l-1.1,0.7
		c-0.4,0.3-0.5,0.9-0.1,1.2c2.7,2.3,5.8,4.7,9.3,7c0.4,0.3,0.5,0.9,0,1.2l-0.6,0.4c-0.4,0.3-0.4,0.9-0.1,1.2
		c2.8,2.3,5.9,4.5,9.4,6.6c0.5,0.3,0.5,1,0,1.3l-0.8,0.5c-0.5,0.3-0.5,1,0,1.3C90.2,200.5,94.9,203,100.4,205.3z"/>
	<path class="st93" d="M127.9,187.3c-0.2,0-0.5,0-0.7-0.1c-8-3.1-16.1-6.3-24-9.6c-1-0.4-1.5-1.6-1.1-2.6c0.4-1,1.6-1.5,2.6-1.1
		c7.9,3.3,16,6.5,24,9.5c1,0.4,1.5,1.5,1.1,2.6C129.4,186.8,128.6,187.3,127.9,187.3z"/>
	<path class="st87" d="M165.6,119.4c-1.8,2.8-3.6,6-5.2,9.4c-0.3,0.6-1.2,0.7-1.6,0.2l0,0c-0.5-0.7-1.7-0.6-2,0.2
		c-1,2.3-2.6,6.6-4.3,12.4c-5.5,19.3,1.1,38.1,14.7,42c1.7,0.5,3.3,0.7,5,0.7c12.2,0,24.7-11.7,29.5-28.7c1.5-5.3,2.3-10.3,2.7-12.9
		c0.1-0.9-0.8-1.6-1.6-1.2l0,0c-0.7,0.3-1.3-0.3-1.3-1c0.4-3.9,0.6-7.6,0.5-11c0-0.8-0.8-1.3-1.5-1.1l0,0c-0.6,0.2-1.3-0.3-1.2-1
		c0.3-4.1,0.3-7.8,0.2-11.2c0-0.8-0.8-1.3-1.6-1l-0.5,0.2c-0.6,0.2-1.2-0.2-1.2-0.8c-1.3-9.3-4-14.5-5.3-14.8c-0.1,0-0.1,0-0.2,0
		c-1.6,0-6.4,3-12.2,10c-0.4,0.5-1.1,0.5-1.4,0l-0.4-0.4c-0.5-0.6-1.4-0.6-1.9,0.1c-1.9,2.8-3.8,6-5.7,9.6c-0.3,0.6-1.1,0.7-1.5,0.2
		l0-0.1C166.9,118.7,166,118.8,165.6,119.4z"/>
	<path class="st95" d="M136.6,62.6c-0.1,0-0.1,0-0.2,0L131,62c-0.7-0.1-1.3-0.5-1.6-1.2c-0.3-0.7-0.2-1.4,0.2-2l3.2-4.3
		c0.7-0.9,1.9-1.1,2.8-0.4c0.9,0.7,1.1,1.9,0.4,2.8l-1.1,1.5l1.8,0.2c1.1,0.1,1.9,1.1,1.8,2.2C138.4,61.9,137.5,62.6,136.6,62.6z"/>
	<path class="st95" d="M127.3,81.4c-0.1,0-0.2,0-0.3,0l-5.3-0.9c-1.1-0.2-1.8-1.2-1.6-2.3c0.2-1.1,1.2-1.8,2.3-1.6l1.8,0.3l-0.7-1.7
		c-0.4-1,0.1-2.2,1.1-2.6c1-0.4,2.2,0.1,2.6,1.1l1.9,5c0.3,0.7,0.1,1.4-0.3,2C128.4,81.1,127.9,81.4,127.3,81.4z"/>
	<path class="st95" d="M126.5,41.7c-0.2,0-0.3,0-0.5-0.1l-5.1-1.4c-1.1-0.3-1.7-1.4-1.4-2.4c0.3-1.1,1.4-1.7,2.4-1.4l1.8,0.5
		l-0.5-1.8c-0.3-1.1,0.3-2.1,1.4-2.4c1.1-0.3,2.1,0.3,2.4,1.4l1.5,5.1c0.2,0.7,0,1.4-0.5,1.9C127.5,41.5,127,41.7,126.5,41.7z"/>
	<path class="st95" d="M135.9,99.5c-0.1,0-0.1,0-0.2,0l-5.3-0.6c-0.7-0.1-1.3-0.5-1.6-1.2c-0.3-0.7-0.2-1.4,0.2-2l3.2-4.3
		c0.7-0.9,1.9-1.1,2.8-0.4c0.9,0.7,1.1,1.9,0.4,2.8l-1.1,1.5l1.8,0.2c1.1,0.1,1.9,1.1,1.8,2.2C137.8,98.7,136.9,99.5,135.9,99.5z"/>
	<path class="st95" d="M95.6,33.3c-0.5,0-1.1-0.2-1.4-0.6c-0.5-0.5-0.7-1.3-0.5-1.9l1.6-5.1c0.3-1,1.4-1.6,2.5-1.3
		c1,0.3,1.6,1.4,1.3,2.5l-0.5,1.8l1.8-0.4c1.1-0.3,2.1,0.4,2.4,1.5c0.3,1.1-0.4,2.1-1.5,2.4L96,33.2C95.9,33.3,95.7,33.3,95.6,33.3z
		"/>
	<path class="st95" d="M108.8,72.6c-0.5,0-1.1-0.2-1.4-0.6c-0.5-0.5-0.7-1.3-0.5-1.9l1.6-5.1c0.3-1,1.4-1.6,2.5-1.3
		c1,0.3,1.6,1.4,1.3,2.5l-0.5,1.8l1.8-0.4c1.1-0.3,2.1,0.4,2.4,1.5c0.3,1.1-0.4,2.1-1.5,2.4l-5.2,1.3
		C109.1,72.6,108.9,72.6,108.8,72.6z"/>
	<path class="st95" d="M116.2,94.9c-0.5,0-1.1-0.2-1.4-0.6c-0.5-0.5-0.7-1.3-0.5-1.9l1.6-5.1c0.3-1,1.4-1.6,2.5-1.3
		c1,0.3,1.6,1.4,1.3,2.5l-0.5,1.8l1.8-0.4c1.1-0.3,2.1,0.4,2.4,1.5c0.3,1.1-0.4,2.1-1.5,2.4l-5.2,1.3
		C116.5,94.9,116.4,94.9,116.2,94.9z"/>
	<path class="st95" d="M92.3,53.4c-1.1,0-2-0.9-2-2.1c0.1-0.9,0.8-1.7,1.7-1.8l0,0c0.8-0.1,1.1-1,0.6-1.6v0c-0.6-0.8-0.7-1.9,0-2.6
		c0.8-0.9,2.3-0.9,3,0l3.4,4.1c0.5,0.5,0.6,1.3,0.3,2c-0.3,0.7-0.8,1.1-1.5,1.3l-5.3,0.8C92.5,53.4,92.4,53.4,92.3,53.4z"/>
	<path class="st87" d="M76.5,139.9c4.5,1.7,9.1,2.4,13.3,2.4c9.9,0,18.2-4.2,20.9-11.6c3.9-10.6-5.2-23.6-20.3-29.1
		c-5-1.8-8.8-2.8-10.6-3.2c-0.5-0.1-0.9,0.3-0.7,0.8l0.2,0.7c0.1,0.4-0.3,0.9-0.7,0.8c-3.2-0.6-6.3-1-9.1-1.1
		c-0.4,0-0.7,0.4-0.6,0.8l0.1,0.6c0.1,0.4-0.3,0.8-0.7,0.7c-3.5-0.5-6.6-0.8-9.5-0.8c-0.4,0-0.7,0.4-0.6,0.8l0.3,1
		c0.1,0.4-0.2,0.7-0.6,0.8c-7.7,0.4-12,2.4-12.4,3.3c-0.4,1,1.7,5.2,7.2,10.5c0.3,0.3,0.3,0.7-0.1,1l-0.8,0.6c-0.3,0.2-0.4,0.7,0,1
		c2.2,1.8,4.8,3.7,7.8,5.5c0.4,0.2,0.4,0.8,0,1l-0.5,0.4c-0.3,0.2-0.3,0.7,0,1c2.3,1.8,4.9,3.5,7.8,5.2c0.4,0.2,0.4,0.8,0,1.1
		l-0.7,0.4c-0.4,0.3-0.4,0.8,0,1.1C68.1,136.2,71.9,138.2,76.5,139.9z"/>
	<path class="st96" d="M160.4,199.1c-0.2-0.1-10.1-3.2-26-9.1c-1.5-0.5-2.6-1.8-3-3.3c-1.1-4.3-3.8-12-9.3-19.6
		c-0.7-1-2.1-1.1-3-0.2c-0.7,0.7-0.7,1.8-0.1,2.6c4.3,5.9,6.7,11.9,8,16c0.2,0.8-0.5,1.5-1.3,1.2c-3-1.1-6.1-2.3-9.4-3.6
		c-1.4-0.6-2.5-1.8-2.9-3.3c-0.8-3.2-2.5-8.1-5.5-13.6c-0.5-0.9-1.6-1.4-2.6-0.9c-1.1,0.5-1.5,1.8-0.9,2.8c2.2,3.9,3.6,7.6,4.5,10.4
		c0.2,0.8-0.5,1.5-1.3,1.2c-2-0.8-4-1.6-6-2.5c-1.4-0.6-2.5-1.8-2.8-3.3c-0.4-1.7-1.1-3.9-2.1-6.5c-0.4-1-1.4-1.6-2.4-1.3
		c-1.1,0.3-1.7,1.6-1.3,2.6c0.5,1.3,0.9,2.5,1.3,3.6c0.2,0.8-0.5,1.5-1.3,1.2c-1.9-0.8-3.9-1.7-5.8-2.5c-0.9-0.4-2-0.1-2.6,0.7
		c-0.7,1.1-0.2,2.4,0.9,2.9c2.1,0.9,4.2,1.8,6.2,2.7c0.7,0.3,0.8,1.3,0.1,1.7c-1.2,0.7-2.6,1.4-4.3,2.1c-0.9,0.4-1.4,1.3-1.2,2.2
		c0.2,1,1.1,1.6,1.9,1.6c0.3,0,0.5-0.1,0.8-0.2c2.9-1.3,5.2-2.6,6.9-3.6c1.3-0.8,2.9-0.9,4.4-0.3c2,0.8,4.1,1.7,6,2.5
		c0.8,0.3,0.8,1.3,0.1,1.7c-2.3,1.3-5.4,2.7-9.1,4c-1,0.3-1.6,1.3-1.4,2.3c0.2,1,1,1.6,1.9,1.6c0.2,0,0.4,0,0.6-0.1
		c5.4-1.8,9.6-4.1,12.2-5.6c1.3-0.8,2.9-0.9,4.3-0.4c3.2,1.2,6.2,2.4,9.1,3.5c0.8,0.3,0.8,1.3,0.1,1.7c-4,2.2-10.2,4.9-17.6,6
		c-0.9,0.1-1.7,0.9-1.8,1.8c-0.1,1.2,0.9,2.1,2,2.1c0.1,0,0.2,0,0.3,0c10-1.5,17.7-5.5,21.7-7.9c1.3-0.8,2.8-0.9,4.2-0.4
		c16.2,6,26.3,9.2,26.5,9.2L160.4,199.1z"/>
	<path class="st93" d="M97.6,123.7c-0.2,0-0.4,0-0.6-0.1c-5.9-2-11.9-4.2-17.7-6.3c-1-0.4-1.5-1.5-1.2-2.5c0.4-1,1.5-1.5,2.5-1.2
		c5.8,2.2,11.7,4.3,17.6,6.3c1,0.4,1.6,1.5,1.2,2.5C99.2,123.2,98.4,123.7,97.6,123.7z"/>
	<path class="st96" d="M130.6,138.6c-0.2,0-10.8-3-27.4-8.5c-1.4-0.5-2.9-0.3-4.1,0.5c-3,1.9-8.3,4.7-15,5.9c-0.1,0-0.2,0-0.4,0
		c-1.1,0-2-0.9-2-2.1c0-0.9,0.8-1.7,1.7-1.8c4.4-0.8,8.1-2.4,10.8-3.8c0.7-0.4,0.7-1.5-0.1-1.8c-1.7-0.6-3.3-1.2-5.1-1.8
		c-1.4-0.5-2.9-0.3-4.2,0.4c-1.9,1.2-4.6,2.7-8,3.9c-0.2,0.1-0.5,0.1-0.7,0.1c-0.9,0-1.8-0.6-2-1.7c-0.2-1,0.5-1.9,1.4-2.2
		c1.8-0.7,3.4-1.4,4.7-2.1c0.7-0.4,0.7-1.5-0.1-1.7c-1.4-0.5-2.9-1.1-4.4-1.6c-1.4-0.5-2.9-0.4-4.2,0.3c-1.2,0.7-2.6,1.5-4.4,2.3
		c-0.3,0.1-0.5,0.2-0.8,0.2c-0.9,0-1.7-0.6-1.9-1.5c-0.2-0.9,0.3-1.9,1.2-2.3c0.5-0.2,0.9-0.4,1.3-0.6c0.7-0.4,0.7-1.5-0.1-1.8
		c-0.8-0.3-1.6-0.6-2.5-1c-1.1-0.4-1.6-1.8-1-2.9c0.5-0.8,1.6-1.1,2.5-0.8c0.8,0.3,1.6,0.6,2.4,0.9c0.8,0.3,1.5-0.5,1.3-1.2
		c-0.1-0.3-0.2-0.6-0.4-1c-0.4-1.1,0.1-2.3,1.3-2.6c1-0.3,2.1,0.3,2.4,1.3c0.6,1.4,1,2.7,1.3,3.8c0.4,1.4,1.5,2.6,2.9,3.1
		c1.4,0.5,2.9,1.1,4.3,1.6c0.8,0.3,1.5-0.5,1.2-1.3c-0.7-1.7-1.6-3.6-2.8-5.7c-0.6-1-0.2-2.4,1-2.9c0.9-0.4,2,0.1,2.5,0.9
		c2.1,3.5,3.4,6.8,4.1,9.1c0.5,1.4,1.6,2.6,3,3.1c1.8,0.6,3.5,1.2,5.2,1.8c0.8,0.3,1.5-0.5,1.2-1.3c-1.1-2.7-2.8-6.2-5.5-9.6
		c-0.7-0.9-0.5-2.3,0.6-3c0.9-0.5,2-0.2,2.6,0.6c3.9,5,6,10,7,13.2c0.5,1.5,1.6,2.6,3.1,3.1c16.3,5.5,26.8,8.3,27,8.4L130.6,138.6z"
		/>
	<path class="st85" d="M179,235.7c-20.1-38.1-37-76.9-50.4-111c0.3-2.5,5.5-50.2,0.7-99.6c-0.1-1.1-1.1-1.9-2.2-1.8
		c-1.1,0.1-1.9,1.1-1.8,2.2c3.7,38.4,1.3,75.5,0,91c-22-56.8-33.9-98.8-34.1-99.5c-0.3-1.1-1.4-1.7-2.4-1.4
		c-1.1,0.3-1.7,1.4-1.4,2.4c0.3,1.1,31.9,112.6,88,219.4c0.4,0.7,1,1.1,1.8,1.1c0.3,0,0.6-0.1,0.9-0.2
		C179.2,237.9,179.5,236.7,179,235.7z"/>
	<path class="st95" d="M89.7,19.8c-0.6,0-1.2-0.3-1.6-0.8l-3.3-4.2c-0.7-0.9-0.5-2.1,0.4-2.8c0.9-0.7,2.1-0.5,2.8,0.4l1.1,1.5
		l0.7-1.7c0.4-1,1.5-1.5,2.6-1.1c1,0.4,1.5,1.6,1.1,2.6l-2,4.9c-0.3,0.7-0.9,1.1-1.6,1.2C89.9,19.8,89.8,19.8,89.7,19.8z"/>
	<path class="st95" d="M64.8,68c-0.2,0-0.5,0-0.7-0.1c-1-0.4-1.5-1.6-1.1-2.6l0.7-1.7l-1.8,0.3c-1.1,0.2-2.1-0.6-2.3-1.6
		c-0.2-1.1,0.6-2.1,1.6-2.3l5.3-0.8c0.7-0.1,1.4,0.2,1.9,0.7c0.4,0.6,0.6,1.3,0.3,2l-2,4.9C66.3,67.5,65.6,68,64.8,68z"/>
	<path class="st95" d="M80.1,73.8c-0.4,0-0.9-0.1-1.2-0.4c-0.6-0.4-0.8-1.1-0.7-1.8l0.8-5.3c0.2-1.1,1.2-1.8,2.2-1.7
		c1.1,0.2,1.8,1.2,1.7,2.2l-0.3,1.8l1.7-0.7c1-0.4,2.2,0.1,2.6,1.1c0.4,1-0.1,2.2-1.1,2.6l-4.9,2C80.6,73.7,80.3,73.8,80.1,73.8z"/>
	<path class="st95" d="M86,94.7c-0.4,0-0.9-0.1-1.2-0.4c-0.8-0.6-0.9-1.8-0.4-2.7l0,0c0.4-0.7-0.1-1.5-0.8-1.5l0,0
		c-1,0-1.9-0.7-2-1.7c-0.2-1.2,0.8-2.3,2-2.3c0,0,0,0,0,0l5.3,0c0.7,0,1.4,0.4,1.7,1c0.3,0.6,0.3,1.4,0,2l-2.7,4.6
		C87.4,94.4,86.7,94.7,86,94.7z"/>
	<path class="st96" d="M126.2,126.4c-0.5,0-1-0.2-1.3-0.5c-0.4-0.3-36.1-33.4-65.3-74.9c-0.6-0.9-0.4-2.1,0.5-2.8
		c0.9-0.6,2.1-0.4,2.8,0.5c29,41.1,64.4,73.9,64.8,74.2c0.8,0.7,0.9,2,0.1,2.8C127.3,126.2,126.7,126.4,126.2,126.4z"/>
	<path class="st95" d="M91.4,87.3c-0.4,0-0.7-0.1-1-0.3c-0.6-0.4-1-1-0.9-1.7l0.2-4.9c0-1,0.7-2,1.7-2.3c0.3-0.1,0.3,0,0.5-0.1
		c1,0,1.8,0.7,1.8,1.7l0,0.5c0,0.8,0.8,1.3,1.5,0.9l0,0c0.9-0.5,2-0.3,2.6,0.4c0.8,1,0.5,2.4-0.6,3L92.3,87
		C92,87.2,91.7,87.3,91.4,87.3z"/>
	<path class="st95" d="M69.7,60.6c-0.5,0-0.9-0.2-1.3-0.5c-0.5-0.5-0.8-1.2-0.6-1.9l1-5.2c0.2-1.1,1.2-1.8,2.3-1.6
		c1.1,0.2,1.8,1.3,1.6,2.3l-0.4,1.8l1.7-0.6c1-0.4,2.2,0.2,2.5,1.2c0.4,1-0.2,2.2-1.2,2.5l-5,1.8C70.1,60.5,69.9,60.6,69.7,60.6z"/>
	<path class="st95" d="M74.7,81.1c-0.3,0-0.6-0.1-0.9-0.2c-1-0.5-1.3-1.7-0.8-2.7l0.9-1.6l-1.9,0.1c-1.1,0-2-0.8-2.1-1.9
		c0-1.1,0.8-2,1.9-2.1l5.3-0.2c0.7,0,1.4,0.3,1.8,0.9c0.4,0.6,0.4,1.4,0.1,2l-2.5,4.7C76,80.7,75.4,81.1,74.7,81.1z"/>
	<path class="st95" d="M61.3,52.1c-0.4,0-0.9-0.1-1.2-0.4l-4.2-3.3c-0.9-0.7-1-1.9-0.4-2.8c0.7-0.9,1.9-1,2.8-0.4l1.5,1.1l0.2-1.8
		c0.1-1.1,1.1-1.9,2.2-1.7c1.1,0.1,1.9,1.1,1.7,2.2l-0.7,5.3c-0.1,0.7-0.5,1.3-1.2,1.6C61.8,52.1,61.5,52.1,61.3,52.1z"/>
	<path class="st95" d="M86.8,36.3c-0.8,0-1.6-0.5-1.9-1.3c-0.4-1,0.2-2.2,1.2-2.5l1.8-0.6l-1.4-1.2c-0.8-0.7-0.9-2-0.2-2.8
		c0.7-0.8,2-0.9,2.8-0.2l4,3.5c0.5,0.5,0.8,1.2,0.7,1.9c-0.1,0.7-0.6,1.3-1.3,1.5l-5,1.7C87.2,36.3,87,36.3,86.8,36.3z"/>
	<path class="st95" d="M101.6,51.7c-0.5,0-1.1-0.2-1.4-0.6c-0.5-0.5-0.7-1.3-0.5-1.9l1.6-5.1c0.3-1,1.4-1.6,2.5-1.3
		c1,0.3,1.6,1.4,1.3,2.5l-0.5,1.8l1.8-0.4c1.1-0.3,2.1,0.4,2.4,1.5c0.3,1.1-0.4,2.1-1.5,2.4l-5.2,1.3
		C101.9,51.7,101.8,51.7,101.6,51.7z"/>
	<path class="st95" d="M99.4,74.5c-1.1,0-2.1-0.9-2-2.1c0.1-0.9,0.9-1.7,1.8-1.8l0,0c0.8-0.1,1.1-1,0.7-1.6v0
		c-0.6-0.8-0.6-1.9,0-2.6c0.8-0.9,2.3-0.8,3,0.1l3.3,4.2c0.4,0.6,0.5,1.3,0.3,2c-0.3,0.7-0.9,1.1-1.6,1.2l-5.3,0.7
		C99.6,74.5,99.5,74.5,99.4,74.5z"/>
	<path class="st95" d="M107.7,97.8c-0.9,0-1.7-0.6-1.9-1.6c-0.2-0.9,0.4-1.9,1.2-2.2l0,0c0.7-0.3,0.8-1.3,0.2-1.7v0
		c-0.8-0.6-1.1-1.7-0.7-2.5c0.6-1.1,2-1.4,2.9-0.7l4.3,3.1c0.6,0.4,0.9,1.1,0.8,1.8c-0.1,0.7-0.5,1.3-1.2,1.6l-4.9,2.1
		C108.2,97.8,108,97.8,107.7,97.8z"/>
	<path class="st93" d="M170,160.6c-0.2,0-0.4,0-0.6-0.1c-1-0.3-1.7-1.4-1.4-2.4c2.6-9,5.1-18.2,7.5-27.3c0.3-1.1,1.4-1.7,2.4-1.4
		c1.1,0.3,1.7,1.4,1.4,2.4c-2.4,9.1-4.9,18.3-7.6,27.3C171.7,160,170.9,160.6,170,160.6z"/>
	<path class="st96" d="M195.2,155.8c-0.7-1-2.1-1.1-3-0.3c-6,5.7-12.5,9.1-16.8,10.9c-0.7,0.3-1.4-0.3-1.2-1c1-3.2,2-6.5,3-10
		c0.4-1.2,1.3-2.2,2.5-2.7c2.9-1.1,7.5-3,12.5-6.4c0.8-0.5,1.2-1.6,0.8-2.5c-0.5-1.1-1.9-1.5-2.9-0.8c-3.5,2.3-6.8,4-9.3,5.1
		c-0.7,0.3-1.4-0.3-1.2-1c0.7-2.5,1.5-5.2,2.2-7.8c0.3-1.3,1.3-2.3,2.5-2.8c1.9-0.7,4.6-1.8,7.6-3.4c0.9-0.5,1.3-1.5,1-2.4
		c-0.4-1.2-1.8-1.7-2.8-1.1c-1.8,1-3.5,1.8-4.9,2.4c-0.7,0.3-1.3-0.3-1.2-1c0.5-1.9,1-3.8,1.5-5.7c0.2-1-0.2-2-1.1-2.4
		c-1.2-0.5-2.4,0.2-2.7,1.3c-0.5,1.8-0.9,3.6-1.4,5.4c-0.2,0.7-1.1,0.9-1.5,0.3c-0.7-1-1.4-2.1-2.2-3.4c-0.5-0.9-1.6-1.3-2.6-0.9
		c-1.1,0.5-1.5,1.8-0.9,2.8c1.6,2.7,3.1,4.8,4.2,6.2c0.8,1,1.1,2.3,0.7,3.6c-0.7,2.7-1.5,5.4-2.2,7.9c-0.2,0.7-1.1,0.8-1.5,0.3
		c-1.7-2.5-3.9-6-5.8-10.4c-0.4-1-1.5-1.5-2.5-1.2c-1.1,0.4-1.7,1.6-1.2,2.7c2.6,6.2,5.8,10.9,7.9,13.5c0.8,1,1.1,2.4,0.7,3.6
		c-1,3.4-2,6.7-2.9,9.8c-0.2,0.7-1.1,0.8-1.5,0.2c-2.5-3.6-5.8-9.3-7.9-16.5c-0.3-1-1.3-1.7-2.3-1.5c-1.2,0.2-1.9,1.4-1.6,2.5
		c2.7,9.4,7.3,16.3,10,19.9c0.8,1.1,1.1,2.4,0.7,3.7c-5.3,16.6-9,26.7-9,26.9c-0.4,1,0.1,2.2,1.2,2.5c0.2,0.1,0.5,0.1,0.7,0.1
		c0.8,0,1.6-0.5,1.9-1.3c0.1-0.2,3.8-10.3,9-26.9c0.4-1.2,1.3-2.2,2.5-2.6c4.2-1.5,12.8-5.2,20.7-12.8
		C195.5,157.7,195.7,156.6,195.2,155.8z"/>
	
		<ellipse transform="matrix(0.9982 -5.972661e-02 5.972661e-02 0.9982 -2.5715 3.7824)" class="st93" cx="62" cy="44.9" rx="2.1" ry="2.1"/>
	
		<ellipse transform="matrix(0.9982 -5.972661e-02 5.972661e-02 0.9982 -4.3324 4.4202)" class="st93" cx="71.8" cy="74.7" rx="2.1" ry="2.1"/>
	
		<ellipse transform="matrix(0.9982 -5.972661e-02 5.972661e-02 0.9982 -1.8975 5.2467)" class="st93" cx="86.8" cy="34.4" rx="2.1" ry="2.1"/>
	
		<ellipse transform="matrix(0.9982 -5.972661e-02 5.972661e-02 0.9982 -2.4859 6.2479)" class="st93" cx="103.3" cy="44.7" rx="2.1" ry="2.1"/>
	<path class="st95" d="M136.7,81.4c-0.1,0-0.1,0-0.2,0l-5.3-0.6c-0.7-0.1-1.3-0.5-1.6-1.2c-0.3-0.7-0.2-1.4,0.2-2l3.2-4.3
		c0.7-0.9,1.9-1.1,2.8-0.4c0.9,0.7,1.1,1.9,0.4,2.8l-1.1,1.5l1.8,0.2c1.1,0.1,1.9,1.1,1.8,2.2C138.5,80.7,137.7,81.4,136.7,81.4z"/>
	<path class="st95" d="M135.8,41.7c-0.1,0-0.1,0-0.2,0l-5.3-0.6c-0.7-0.1-1.3-0.5-1.6-1.2c-0.3-0.7-0.2-1.4,0.2-2l3.2-4.3
		c0.7-0.9,1.9-1.1,2.8-0.4c0.9,0.7,1.1,1.9,0.4,2.8l-1.1,1.5l1.8,0.2c1.1,0.1,1.9,1.1,1.8,2.2C137.6,40.9,136.8,41.7,135.8,41.7z"/>
	<path class="st95" d="M127.3,26.7c-0.6,0-1.2-0.3-1.6-0.8l-3.2-4.3c-0.6-0.9-0.5-2.1,0.4-2.8c0.9-0.6,2.1-0.5,2.8,0.4l1.1,1.5
		l0.7-1.7c0.4-1,1.6-1.5,2.6-1c1,0.4,1.5,1.6,1,2.6l-2.1,4.9c-0.3,0.7-0.9,1.1-1.6,1.2C127.4,26.7,127.3,26.7,127.3,26.7z"/>
	<path class="st95" d="M127.3,62.5c-0.1,0-0.2,0-0.3,0l-5.3-0.9c-1.1-0.2-1.8-1.2-1.6-2.3c0.2-1.1,1.2-1.8,2.3-1.6l1.8,0.3l-0.7-1.7
		c-0.4-1,0.1-2.2,1.1-2.6c1-0.4,2.2,0.1,2.6,1.1l1.9,5c0.3,0.7,0.1,1.4-0.3,2C128.4,62.2,127.9,62.5,127.3,62.5z"/>
	
		<ellipse transform="matrix(0.9982 -5.972661e-02 5.972661e-02 0.9982 -1.0049 7.4527)" class="st93" cx="124.2" cy="20.5" rx="2.1" ry="2.1"/>
</g>
</svg>
