<?xml version="1.0" encoding="utf-8"?>
<!-- Generator: Adobe Illustrator 20.0.0, SVG Export Plug-In . SVG Version: 6.00 Build 0)  -->
<svg version="1.1" id="Layer_1" xmlns="http://www.w3.org/2000/svg" xmlns:xlink="http://www.w3.org/1999/xlink" x="0px" y="0px"
	 viewBox="0 0 250 250" style="enable-background:new 0 0 250 250;" xml:space="preserve">
<style type="text/css">
	.st0{fill:#5A9923;}
	.st1{fill:#3A6617;}
	.st2{fill:#6DB035;}
	.st3{fill:#00ADEE;}
	.st4{fill:#CF8969;}
	.st5{fill:#4E921F;}
	.st6{fill:none;stroke:#4E921F;stroke-width:3;stroke-miterlimit:10;}
	.st7{fill:none;stroke:#65B228;stroke-width:2;stroke-linecap:round;stroke-miterlimit:10;}
	.st8{opacity:0.5;fill:none;stroke:#70BF2C;stroke-miterlimit:10;}
	.st9{fill:#CF8969;stroke:#603813;stroke-width:3;stroke-miterlimit:10;}
	.st10{fill:#CF8969;stroke:#603813;stroke-linecap:round;stroke-miterlimit:10;}
	.st11{fill:none;stroke:#FFFFFF;stroke-linecap:round;stroke-miterlimit:10;}
	.st12{fill:#CF8969;stroke:#603813;stroke-miterlimit:10;}
	.st13{fill:#FFFFFF;}
	.st14{fill:#66A528;}
	.st15{fill:#70BF2C;}
	.st16{fill:#603813;}
</style>
<path class="st14" d="M118.2,238.6c-5.4,0.2-9.9-4-10.2-9.4c0,0-0.2-5.4-0.2-15.2c-0.6-10.1-2.5-37.3-8.4-76.1
	c-7.3-10.6-19.6-32-25.4-62.4c-3.5-18.1-2.3-34.1-0.8-44.4C76.6,8.8,81.4,7.9,83.5,7.5l0.4-0.1l0.5,0c2.9-0.1,5.4,1.6,9.2,6.2
	c1.9,2.3,4.8,6.3,8.3,12.2c3.5,6,7.7,14.4,11.2,24.7c2.1-6,4.4-11.1,6.3-15.1c8.9-18,13.3-18.2,15.2-18.3l0.4,0l0.5,0.1
	c2.1,0.2,7,0.8,12.1,22.7c2.4,10.1,4.7,26.1,2.7,44.3c-3.4,30.7-13.9,53-20.4,64.2c-2.1,28.7-2.5,51.1-2.5,65c0.1,2,0.2,3.1,0.2,3.2
	c0,0.7-0.1,1.3-0.1,1.8c0,6.5,0.2,9.9,0.2,9.9C127.8,233.8,123.6,238.4,118.2,238.6L118.2,238.6L118.2,238.6z"/>
<rect x="119" y="121" transform="matrix(0.8269 -0.5624 0.5624 0.8269 -46.4847 94.9042)" class="st2" width="23.7" height="3.9"/>
<rect x="125.2" y="105.7" transform="matrix(0.8269 -0.5624 0.5624 0.8269 -37.0675 94.9194)" class="st2" width="20.8" height="3.9"/>
<rect x="126" y="92.3" transform="matrix(0.8269 -0.5624 0.5624 0.8269 -29.1511 93.7332)" class="st2" width="23.3" height="3.9"/>
<rect x="127.6" y="79.2" transform="matrix(0.8269 -0.5624 0.5624 0.8269 -21.5217 92.3172)" class="st2" width="23.1" height="3.9"/>
<rect x="115.2" y="98" transform="matrix(0.5836 -0.8121 0.8121 0.5836 -39.2737 140.3004)" class="st2" width="3.9" height="21"/>
<rect x="116" y="86.3" transform="matrix(0.5836 -0.8121 0.8121 0.5836 -29.4331 136.0999)" class="st2" width="3.9" height="20.8"/>
<rect x="116.8" y="74.7" transform="matrix(0.5836 -0.8121 0.8121 0.5836 -19.5871 131.8877)" class="st2" width="3.9" height="20.7"/>
<rect x="117.4" y="65" transform="matrix(0.5836 -0.8121 0.8121 0.5836 -10.4143 127.7989)" class="st2" width="3.9" height="18.1"/>
<rect x="129.7" y="66.4" transform="matrix(0.8269 -0.5624 0.5624 0.8269 -14.196 90.6582)" class="st2" width="20.8" height="3.9"/>
<rect x="95.5" y="100.6" transform="matrix(0.4954 -0.8687 0.8687 0.4954 -48.5256 141.4574)" class="st2" width="3.9" height="23.7"/>
<rect x="89.6" y="87.2" transform="matrix(0.4954 -0.8687 0.8687 0.4954 -38.6006 128.8084)" class="st2" width="3.9" height="20.8"/>
<rect x="86.5" y="72.7" transform="matrix(0.4954 -0.8687 0.8687 0.4954 -28.6497 119.4412)" class="st2" width="3.9" height="23.3"/>
<rect x="84" y="59.9" transform="matrix(0.4954 -0.8687 0.8687 0.4954 -18.693 110.7044)" class="st2" width="3.9" height="23.1"/>
<rect x="82" y="48.4" transform="matrix(0.4954 -0.8687 0.8687 0.4954 -8.7307 102.6309)" class="st2" width="3.9" height="20.8"/>
<path class="st15" d="M123.1,188.2c0.4-29.3,2.6-72.3,10.1-122.8l0-0.1l0-0.2c0-1.6-1.1-3.6-3.3-4c-0.3,0-0.6-0.1-0.8-0.1
	c-2.2,0.1-3.3,1.9-3.6,3l0,0.1l0,0.1c-4.8,32-7.9,61-9.9,85.4c-4-26.4-9.9-59.2-18.4-96l0-0.1l0-0.1c-0.4-1.1-1.7-2.9-3.9-2.8
	c-0.2,0-0.4,0-0.6,0.1c-2.2,0.4-3.2,2.5-3.1,4.4l0,0.1l0,0.1c13.8,59.9,19.1,109.7,21.1,137.8L123.1,188.2z"/>
<line class="st4" x1="65.5" y1="204.6" x2="75.2" y2="201.3"/>
<line class="st4" x1="174.2" y1="187.6" x2="179.2" y2="189.2"/>
<line class="st4" x1="164.5" y1="192.4" x2="171.2" y2="194.5"/>
<path class="st13" d="M84.5,46.2c0,0-0.1,0-0.1,0c-1.1,0-1.9-0.9-1.9-2c0.1-2.2,0.2-4.5,0.4-6.8c0.1-1.1,1-1.9,2.1-1.8
	c1.1,0.1,1.9,1,1.8,2.1c-0.2,2.2-0.3,4.4-0.3,6.5C86.3,45.4,85.5,46.2,84.5,46.2z"/>
<ellipse transform="matrix(0.9992 -3.943558e-02 3.943558e-02 0.9992 -1.1345 3.398)" class="st13" cx="85.6" cy="30.5" rx="2" ry="2"/>
<path class="st13" d="M126.7,51.3c-0.2,0-0.5,0-0.7-0.1c-1-0.3-1.6-1.5-1.2-2.5c0.7-2.1,1.5-4.3,2.4-6.4c0.4-1,1.5-1.5,2.6-1.1
	c1,0.4,1.5,1.5,1.1,2.5c-0.8,2-1.6,4.1-2.3,6.1C128.2,50.7,127.5,51.2,126.7,51.3z"/>
<path class="st1" d="M90.9,135.6c1.9,3.1,3.2,6.5,3.7,10.2c3,20.9,4.9,38.2,6,50.4c4.8-2,9.8-3.5,14.9-4.3l-0.4-4.8
	c1.5-29.3,4.8-72.2,12.3-122.6c0,0,0.4-1.5,1.8-1.6c0.1,0,0.3,0,0.4,0c1.7,0.3,1.7,2.1,1.7,2.1c-7.2,48.1-9.5,89.5-10.1,118.6
	l-0.2,7.5c3.2-0.3,6.5-0.4,9.8-0.3c1,0,1.9,0,2.9,0.1c0.3-10,0.8-21.7,1.7-35c0.2-3.6,1.2-7.2,2.9-10.4
	c6.6-12.7,14.9-33.5,17.9-60.6c2.1-19.1-0.4-35.7-2.8-46.3c-1.7-7.1-3.4-12.1-4.6-15c-1.5-3.7-4.6-11.4-12.6-12.2
	c-0.6-0.1-1.2-0.1-1.8-0.1c-6,0.2-9.7,4.5-12.9,9c-2.2,3.1-4.7,7.6-6.4,10.8c-0.8,1.5-2.9,1.5-3.7-0.1c-1.5-3.1-3-5.8-4.4-8.2
	c-3.6-6.3-6.8-10.5-8.8-13c-3.4-4.2-7.6-8.6-14-8.4l0,0c-0.6,0-1.2,0.1-1.8,0.2C74.6,3.2,72,11.1,70.8,14.9c-1,3-2.3,8.1-3.4,15.3
	c-1.6,10.8-2.8,27.5,0.8,46.4C73.3,103.4,83.3,123.5,90.9,135.6z M113.8,147.4c-0.6,7.4-1.1,14.4-1.6,21c-0.1,1.1-1.6,1.1-1.7,0
	c-3-28.7-8.5-68.2-19-113.6c0,0-0.2-1.9,1.5-2.3c0.1,0,0.2,0,0.3,0c1.4-0.1,2,1.5,2,1.5c5.2,22.7,9.5,43.9,12.9,63
	c1.2,11.4,3.4,20.5,5.3,26.8C113.8,145.1,113.9,146.3,113.8,147.4z M112.2,80.1c3.6-32.2,20.1-56.9,22.6-57c0,0,0,0,0.1,0
	c2.3,0.3,13.2,28.1,9.6,60.6c-2.6,23.3-9.4,41.5-15.1,53.4c-0.5,1.1-2.1,0.6-2-0.5c1.5-21.1,4-45,7.8-70.8l0-0.3l0-0.3
	c0-2.5-1.7-5.3-5-5.9c-0.4-0.1-0.8-0.1-1.2-0.1l0,0c-2.9,0.1-4.8,2.3-5.4,4.4l-0.1,0.2l0,0.2c-3.4,22.7-5.9,43.9-7.8,63
	c-0.1,1.2-1.9,1.3-2.1,0.1C111.5,114.8,110.1,98.7,112.2,80.1z M84.6,13.3C84.6,13.3,84.6,13.3,84.6,13.3c2.4-0.1,19,20.7,25.9,49.8
	c0.3,1.1,0.2,2.2,0,3.3c-0.9,4.2-1.7,8.6-2.2,13.2c-0.2,2.1-0.4,4.2-0.6,6.3c-0.1,0.9-1.3,1-1.5,0.1c-2.1-10.5-4.5-21.5-7.1-32.8
	l-0.1-0.2L99,52.7c-0.8-2.1-2.9-4.2-5.8-4c-0.3,0-0.6,0-0.9,0.1c-3.4,0.7-4.9,3.7-4.6,6.5l0,0.3l0.1,0.3
	c5.9,25.5,10.2,49.1,13.4,70.1c0.2,1.2-1.4,1.7-2,0.7c-6.6-11.3-14.9-29-19.4-52.1C73.6,42.3,82.3,13.7,84.6,13.3z"/>
<g>
	<path class="st4" d="M178.5,195.7c2.7-10.2-0.7-17.8-2.7-18.4c-2-0.6-9,3.7-12.4,13.6c-5.9-1.4-12.3-2.6-19.3-3.2
		c-10.4-0.9-17.7,0.6-22.9,3.2c-6.2,3.2-13.2,4.5-20.2,4.8c-7.8,0.3-14.8,1.3-20.9,2.8c-3.8-8-9.9-11.4-11.7-10.8
		c-1.8,0.6-4.7,6.9-3,15.7c-8.5,3.8-13.2,8.1-13.4,10.8c-0.6,6.4,21.7,25.9,61.9,29.4c10.4,0.9,17.7-0.6,22.9-3.2
		c6.2-3.2,13.2-4.5,20.2-4.8c30.2-1.2,48.6-13,49.1-18.4C206.4,213,196.7,203,178.5,195.7z"/>
	<path class="st13" d="M89,214.2c-1.1,0-2-0.9-2-2v-16.6c0-1.1,0.9-2,2-2s2,0.9,2,2v16.6C90.9,213.3,90.1,214.2,89,214.2z"/>
	<path class="st13" d="M106.2,210.1c-1.1,0-2-0.9-2-2v-15.6c0-1.1,0.9-2,2-2s2,0.9,2,2v15.6C108.2,209.2,107.3,210.1,106.2,210.1z"
		/>
	<path class="st16" d="M131.3,227.5c-1.1,0-2-0.9-2-2v-5.3c0-1.1,0.9-2,2-2s2,0.9,2,2v5.3C133.3,226.6,132.4,227.5,131.3,227.5z"/>
	<path class="st16" d="M148.6,222.3c-1.1,0-2-0.9-2-2v-13.6c0-1.1,0.9-2,2-2s2,0.9,2,2v13.6C150.5,221.4,149.7,222.3,148.6,222.3z"
		/>
	<path class="st16" d="M187,193.1c-1.1-0.5-1.7-1.7-1.7-2.8c0.5-9-2.5-16.9-7.8-18.5c-5.2-1.6-12,3.1-16.5,10.6
		c-0.6,1.1-1.9,1.6-3.1,1.4c-4.4-0.8-8.8-1.4-13.3-1.8c-10.5-0.9-19.3,0.3-26.1,3.8c-4.9,2.5-10.9,3.9-17.8,4.2
		c-5.4,0.2-10.7,0.8-15.8,1.7c-1.1,0.2-2.2-0.2-2.9-1.2c-4.7-6.2-10.9-9.8-15.5-8.3c-4.6,1.5-7.6,8.2-7.6,16.1c0,1.1-0.6,2-1.5,2.6
		c-5.3,3.1-11,7.5-11.4,12.9c-1.1,11.9,26.7,32.2,67.2,35.8c2.2,0.2,4.4,0.3,6.4,0.3c7.7,0,14.3-1.4,19.6-4.1
		c4.9-2.5,10.9-3.9,17.8-4.2c31.1-1.3,53.8-13.5,54.7-23.8C212.6,209.5,200.7,199.7,187,193.1z M164.4,196.7c-0.1-1.1,0.9-2,1.9-1.6
		l4.3,1.4c0.2,0.1,0.4,0.1,0.6,0.1c0.9,0,1.7-0.6,1.9-1.6c0.2-1-0.5-2-1.4-2.3l-4.6-1.4c-0.9-0.3-1.3-1.2-0.9-2.1
		c2.3-5,5.6-8.1,7.6-9.3c0.8-0.5,1.9-0.2,2.3,0.7c0.4,0.9,0.9,2.1,1.1,3.7c0.2,1.1-0.9,2-1.9,1.7l-0.4-0.1c-0.9-0.3-2,0.1-2.4,0.9
		c-0.6,1.1,0,2.4,1.2,2.8l2.7,0.9c0.7,0.2,1.1,0.9,1,1.7c-0.2,1.3-0.5,2.7-0.9,4.2c-1.8,6-5.7,5.8-7.9,5.1c-0.6-0.2-2.2-0.8-3.2-2.1
		C164.8,198.5,164.5,197.6,164.4,196.7z M69.5,205.3l6.1-2.1c1-0.3,1.6-1.3,1.4-2.3c-0.3-1.1-1.5-1.8-2.5-1.4l-5.6,1.9
		c-0.9,0.3-1.9-0.3-2-1.3c-0.3-4.3,0.5-7.6,1.3-9.4c0.4-0.8,1.4-1.1,2.2-0.7c2.5,1.4,6.9,5.4,9.3,12.7v0c0.9,2.8,0.8,5-0.4,6.5
		c-1,1.4-2.5,2-3.1,2.2c-0.6,0.2-2.2,0.7-3.8,0.1c-1.8-0.6-3.1-2.7-3.7-4.2C68.3,206.6,68.7,205.6,69.5,205.3z M77.6,216.4l0,2
		c0,1,0.7,1.9,1.6,2c1.2,0.2,2.3-0.7,2.3-1.9V214c0-0.7,0.2-1.4,0.7-2c0.1-0.1,0.2-0.3,0.3-0.4c1-1.3,1.9-3.3,1.7-6.2
		c-0.1-1,0.6-1.9,1.6-2.1c5-0.9,10.1-1.5,15.4-1.8c3-0.1,5.8-0.4,8.5-0.9c1.2-0.2,2.3,0.7,2.3,1.9v0c0,1,0.7,1.9,1.6,2
		c1.2,0.2,2.3-0.7,2.3-1.9l0-2c0-0.9,0.6-1.6,1.4-1.9c2.3-0.7,4.4-1.6,6.5-2.7c0.9-0.5,1.9-0.8,2.9-1.2c1.3-0.4,2.6,0.5,2.6,1.9
		c0,4.4,0,13.3,0,16.4c0,1,0.7,1.9,1.6,2c1.2,0.2,2.3-0.7,2.3-1.9v-17.9c0-1,0.8-1.9,1.8-2c2.6-0.2,5.4-0.1,8.4,0.2
		c0.7,0.1,1.4,0.1,2.2,0.2c0.5,0.1,0.9,0.5,0.9,1v4.8c0,1,0.7,1.9,1.6,2c1.2,0.2,2.3-0.7,2.3-1.9v-3c0-1.2,1.1-2.1,2.3-1.9
		c2.3,0.4,4.6,0.8,6.9,1.3c0.4,0.1,0.7,0.5,0.8,0.9c0.2,2,1,3.5,1.8,4.6c0.3,0.4,0.6,0.8,1,1.1c0.4,0.4,0.6,0.9,0.6,1.4l0,9.3
		c0,1.7,0.7,2.6,1.6,2.7c1.2,0.2,2.3-0.7,2.3-1.9v-7.8c0-0.6,0.6-1.1,1.2-1c0.5,0.1,1.1,0.1,1.7,0.1c2.3,0,4.5-0.8,6.4-2.6
		c0.6-0.6,1.5-0.8,2.3-0.5c10.3,4.6,16.5,9.6,19.2,12.6c0.8,0.9,0.6,2.2-0.3,2.9c-2.3,1.8-6.3,4.1-12.1,6.3
		c-1.3,0.5-2.7-0.5-2.7-1.9l0-12.4c0-1-0.7-1.9-1.6-2c-1.2-0.2-2.3,0.7-2.3,1.9l0,14.9c0,0.9-0.6,1.7-1.5,1.9
		c-2.4,0.6-5.1,1.2-7.9,1.6c-1.2,0.2-2.3-0.7-2.3-2l0-4.9c0-1-0.7-1.9-1.6-2c-1.2-0.2-2.3,0.7-2.3,1.9l0,6c0,1-0.8,1.9-1.8,2
		c-1.7,0.1-3.5,0.3-5.3,0.3c-1.4,0.1-2.7,0.1-4,0.3c-1.2,0.1-2.2-0.8-2.2-2v-0.5c0-1-0.7-1.9-1.6-2c-1.2-0.2-2.3,0.7-2.3,1.9v2.7
		c0,0.5-0.3,0.9-0.8,1c0,0-5.3,1.5-10,3.3c-1.2,0.5-2.6-0.4-2.6-1.8v0c0-0.9-0.5-1.7-1.3-2c-1.3-0.4-2.6,0.6-2.6,1.9l0,2.8
		c0,0.9-0.6,1.7-1.5,1.9c-2.9,0.6-6.2,0.8-9.9,0.7c-1.1,0-1.9-0.9-1.9-2c0-4.5,0-15.6,0-19c0-1-0.7-1.9-1.6-2
		c-1.2-0.2-2.3,0.7-2.3,1.9l0,18.4c0,1.2-1,2.1-2.2,2c-3.3-0.4-6.5-0.9-9.5-1.6c-0.9-0.2-1.6-1-1.6-2l0-20.1c0-1-0.7-1.9-1.6-2
		c-1.2-0.2-2.3,0.7-2.3,1.9l0,18.3c0,1.3-1.3,2.3-2.6,1.9c-3.4-1-6.6-2-9.5-3.2c-0.8-0.3-1.3-1-1.3-1.9l0-3.1c0-1-0.7-1.9-1.6-2
		c-1.2-0.2-2.3,0.7-2.3,1.9l0,1.3c0,0.7-0.8,1.2-1.4,0.9c-8.5-4.1-14.2-8.4-16.8-11.4c-0.8-0.9-0.6-2.2,0.3-2.9
		c0.9-0.7,2.2-1.6,4-2.6c0.9-0.5,2.1-0.2,2.6,0.6c1.6,2.3,3.4,3.4,4.9,3.9c1,0.3,2,0.4,2.8,0.4c0.9,0,1.7-0.1,2.3-0.3
		C77,215.3,77.6,215.8,77.6,216.4z"/>
	<circle class="st13" cx="106.2" cy="216.7" r="2"/>
	<circle class="st16" cx="114.1" cy="209.7" r="2"/>
</g>
</svg>
