<svg xmlns="http://www.w3.org/2000/svg" viewBox="0 0 48 48" width="48" height="48"><path fill="#4caf50" d="M13.4 19.2H17.4V39.9H13.4z" transform="rotate(-40.412 15.36 29.55)"/><path fill="#4caf50" d="M20.2 20.2v17.3c0 1.1.9 1.9 1.9 1.9h14.4c1.1 0 1.9-.9 1.9-1.9V22.1h-8.6v-3.8C24 18.2 20.2 20.2 20.2 20.2zM4.9 23.3l5.8-5.1c1.4 1.6 1.2 4-.4 5.4C8.7 25.1 6.3 24.9 4.9 23.3z"/><path fill="#2e7d32" d="M32.2,8.6c-6.5,0-11.7,5.1-12,11.5c0.1-0.1,0.8-0.4,2-0.8c0.6-5,4.9-8.8,10-8.8 c5.6,0,10.1,4.5,10.1,10.1c0,3.2-1.5,6.1-3.8,7.9v2.3c3.4-2.1,5.8-5.9,5.8-10.2C44.2,14,38.8,8.6,32.2,8.6z"/><path fill="#2e7d32" d="M20.2 22.1h18.2V24H20.2V22.1zM11.4 22c-.2.6-.6 1.2-1.1 1.7-.5.5-1.1.7-1.7.9l1.4 1.6c.6-.2 1.2-.6 1.7-1 .5-.4.9-1 1.2-1.5L11.4 22z"/></svg>