<?xml version="1.0" encoding="utf-8"?>
<!-- Generator: Adobe Illustrator 20.1.0, SVG Export Plug-In . SVG Version: 6.00 Build 0)  -->
<svg version="1.1" id="Layer_1" xmlns="http://www.w3.org/2000/svg" xmlns:xlink="http://www.w3.org/1999/xlink" x="0px" y="0px"
	 viewBox="0 0 500 500" style="enable-background:new 0 0 500 500;" xml:space="preserve">
<style type="text/css">
	.st0{fill:#6A7947;}
	.st1{fill:#7C5668;}
	.st2{fill:#8CA242;}
	.st3{fill:#1E3A06;}
	.st4{fill:#5A8116;}
	.st5{fill:#537016;}
	.st6{fill:none;stroke:#1E3A06;stroke-linecap:round;stroke-miterlimit:10;}
	.st7{opacity:0.6;fill:none;stroke:#8CA242;stroke-linecap:round;stroke-miterlimit:10;}
	.st8{fill:#502C3B;}
	.st9{fill:#260C19;}
	.st10{fill:#8F738E;stroke:#502C3B;stroke-width:3;stroke-miterlimit:10;}
	.st11{fill:#759C48;}
	.st12{opacity:0.8;fill:none;stroke:#759C48;stroke-width:3;stroke-miterlimit:10;}
	.st13{opacity:0.6;fill:none;stroke:#759C48;stroke-width:3;stroke-miterlimit:10;}
	.st14{opacity:0.4;fill:none;stroke:#759C48;stroke-width:3;stroke-miterlimit:10;}
	.st15{opacity:0.2;fill:none;stroke:#759C48;stroke-width:3;stroke-miterlimit:10;}
	.st16{opacity:0.1;fill:none;stroke:#759C48;stroke-width:3;stroke-miterlimit:10;}
	.st17{opacity:0.3;fill:#502C3B;}
	.st18{fill:none;stroke:#260C19;stroke-width:3;stroke-linecap:round;stroke-linejoin:round;stroke-miterlimit:10;}
	.st19{fill:none;stroke:#502C3B;stroke-width:2;stroke-linecap:round;stroke-miterlimit:10;}
	.st20{fill:#547F2D;}
	.st21{fill:#456A11;}
	.st22{fill:#E4E9A8;stroke:#19430C;stroke-width:6;stroke-linejoin:round;stroke-miterlimit:10;}
	.st23{fill:none;stroke:#FFFFFF;stroke-linecap:round;stroke-miterlimit:10;}
	.st24{fill:#457F4A;}
	.st25{fill:#344B57;}
	.st26{fill:#75B15D;stroke:#344B57;stroke-width:3;stroke-miterlimit:10;}
	.st27{fill:#BCE680;}
	.st28{fill:#F0FDC5;}
	.st29{fill:#ADE77A;stroke:#1B5900;stroke-width:6;stroke-miterlimit:10;}
	.st30{fill:#709638;}
	.st31{fill:#D1A982;}
	.st32{fill:#ECE8DB;}
	.st33{fill:#5B3A03;}
	.st34{fill:#719E7F;stroke:#667F40;stroke-width:3;stroke-linecap:round;stroke-linejoin:round;stroke-miterlimit:10;}
	.st35{fill:#719E7F;stroke:#667F40;stroke-linecap:round;stroke-linejoin:round;stroke-miterlimit:10;}
	.st36{fill:none;stroke:#667F40;stroke-width:3;stroke-linecap:round;stroke-miterlimit:10;}
	.st37{fill:#4D6261;}
	.st38{fill:#ECE8DB;stroke:#5B3A03;stroke-width:3;stroke-miterlimit:10;}
	.st39{fill:none;stroke:#F0FDC5;stroke-linecap:round;stroke-linejoin:round;stroke-miterlimit:10;}
	.st40{fill:#8DC70C;}
	.st41{fill:#ECFE78;}
	.st42{fill:#73953B;}
	.st43{fill:#3D710C;}
	.st44{fill:#73953B;stroke:#3D710C;stroke-width:3;stroke-linejoin:round;stroke-miterlimit:10;}
	.st45{fill:#EFE8D7;stroke:#DABB95;stroke-width:3;stroke-linejoin:round;stroke-miterlimit:10;}
	.st46{opacity:0.6;fill:none;stroke:#BF71B0;stroke-width:3;stroke-miterlimit:10;}
	.st47{opacity:0.4;fill:none;stroke:#BF71B0;stroke-width:3;stroke-miterlimit:10;}
	.st48{opacity:0.3;fill:none;stroke:#BF71B0;stroke-width:3;stroke-miterlimit:10;}
	.st49{opacity:0.2;fill:none;stroke:#BF71B0;stroke-width:3;stroke-miterlimit:10;}
	.st50{opacity:0.1;fill:none;stroke:#BF71B0;stroke-width:3;stroke-miterlimit:10;}
	.st51{fill:#77A45B;}
	.st52{fill:none;stroke:#FFFFFF;stroke-linecap:round;stroke-linejoin:round;stroke-miterlimit:10;}
	.st53{fill:#00FFFF;}
	.st54{fill:#E50F4F;}
	.st55{fill:#5A8700;}
	.st56{fill:#9D9F01;}
	.st57{fill:none;stroke:#BFBF04;stroke-linecap:round;stroke-linejoin:round;stroke-miterlimit:10;}
	.st58{fill:none;stroke:#CAD058;stroke-linecap:round;stroke-linejoin:round;stroke-miterlimit:10;}
	.st59{fill:#E21039;stroke:#930019;stroke-width:3;stroke-linejoin:round;stroke-miterlimit:10;}
	.st60{fill:#77A45B;stroke:#3D710C;stroke-linecap:round;stroke-linejoin:round;stroke-miterlimit:10;}
	.st61{fill:none;stroke:#77A45B;stroke-width:3;stroke-miterlimit:10;}
	.st62{opacity:0.5;fill:none;stroke:#FFFFFF;stroke-width:3;stroke-linejoin:round;stroke-miterlimit:10;}
	.st63{opacity:0.7;fill:none;stroke:#FFFFFF;stroke-width:3;stroke-linejoin:round;stroke-miterlimit:10;}
	.st64{opacity:0.9;fill:none;stroke:#FFFFFF;stroke-width:3;stroke-linejoin:round;stroke-miterlimit:10;}
	.st65{opacity:0.3;fill:none;stroke:#FFFFFF;stroke-width:3;stroke-linejoin:round;stroke-miterlimit:10;}
	.st66{opacity:0.2;fill:none;stroke:#FFFFFF;stroke-width:3;stroke-linejoin:round;stroke-miterlimit:10;}
	.st67{fill:#E21039;}
	.st68{fill:#930019;}
	.st69{fill:#F4E5E8;}
	.st70{fill:#DEB2BA;}
	.st71{fill:#C8818D;}
	.st72{fill:#B14D5F;}
	.st73{fill:#FFFFFF;}
	.st74{fill:#EFE8D7;}
	.st75{fill:#8C7662;}
	.st76{fill:#E50F4F;stroke:#930019;stroke-width:3;stroke-linejoin:round;stroke-miterlimit:10;}
	.st77{fill:none;stroke:#E87C94;stroke-width:3;stroke-linejoin:round;stroke-miterlimit:10;}
	.st78{fill:none;stroke:#E64872;stroke-width:3;stroke-linejoin:round;stroke-miterlimit:10;}
	.st79{fill:none;stroke:#EBB2B6;stroke-width:3;stroke-linejoin:round;stroke-miterlimit:10;}
	.st80{fill:none;stroke:#930019;stroke-width:3;stroke-linejoin:round;stroke-miterlimit:10;}
	.st81{fill:#E87C94;}
	.st82{fill:#E64872;}
	.st83{fill:#EBB2B6;}
	.st84{opacity:0.7;fill:none;stroke:#E50F4F;stroke-width:3;stroke-linejoin:round;stroke-miterlimit:10;}
	.st85{opacity:0.6;fill:none;stroke:#E50F4F;stroke-width:3;stroke-linejoin:round;stroke-miterlimit:10;}
	.st86{opacity:0.4;fill:none;stroke:#E50F4F;stroke-width:3;stroke-linejoin:round;stroke-miterlimit:10;}
	.st87{opacity:0.3;fill:none;stroke:#E50F4F;stroke-width:3;stroke-linejoin:round;stroke-miterlimit:10;}
	.st88{opacity:0.2;fill:none;stroke:#E50F4F;stroke-width:3;stroke-linejoin:round;stroke-miterlimit:10;}
	.st89{opacity:0.1;fill:none;stroke:#E50F4F;stroke-width:3;stroke-linejoin:round;stroke-miterlimit:10;}
	.st90{fill:none;stroke:#DABB95;stroke-width:3;stroke-linejoin:round;stroke-miterlimit:10;}
	.st91{fill:#77A45B;stroke:#3D710C;stroke-width:0.9521;stroke-linecap:round;stroke-linejoin:round;stroke-miterlimit:10;}
	.st92{fill:#DABB95;}
	.st93{fill:#E76886;}
	.st94{fill:#E87D94;}
	.st95{fill:#E992A2;}
	.st96{fill:#EBA7AF;}
	.st97{fill:#ECBDBD;}
	.st98{fill:#EDD2CA;}
	.st99{opacity:0.6;fill:#BF71B0;}
	.st100{opacity:0.5;fill:#BF71B0;}
	.st101{opacity:0.4;fill:#BF71B0;}
	.st102{opacity:0.3;fill:#BF71B0;}
	.st103{opacity:0.2;fill:#BF71B0;}
	.st104{fill:#FCD24F;stroke:#BA8822;stroke-width:3;stroke-linejoin:round;stroke-miterlimit:10;}
	.st105{opacity:0.9;fill:none;stroke:#732429;stroke-width:3;stroke-miterlimit:10;}
	.st106{opacity:0.8;fill:none;stroke:#732429;stroke-width:3;stroke-miterlimit:10;}
	.st107{opacity:0.7;fill:none;stroke:#732429;stroke-width:3;stroke-miterlimit:10;}
	.st108{opacity:0.6;fill:none;stroke:#732429;stroke-width:3;stroke-miterlimit:10;}
	.st109{opacity:0.5;fill:none;stroke:#732429;stroke-width:3;stroke-miterlimit:10;}
	.st110{opacity:0.4;fill:none;stroke:#732429;stroke-width:3;stroke-miterlimit:10;}
	.st111{fill:none;stroke:#BA8822;stroke-width:3;stroke-linejoin:round;stroke-miterlimit:10;}
	.st112{fill:#FCD24F;}
	.st113{fill:#BA8822;}
	.st114{fill:#80352F;}
	.st115{fill:#8D4734;}
	.st116{fill:#9B5838;}
	.st117{fill:#A96A3D;}
	.st118{fill:#B77A42;}
	.st119{fill:#C48B47;}
	.st120{fill:#5B774B;}
	.st121{fill:none;stroke:#ECFE78;stroke-linecap:round;stroke-linejoin:round;stroke-miterlimit:10;}
	.st122{fill:none;stroke:#5B774B;stroke-miterlimit:10;}
	.st123{fill:none;stroke:#ECFE78;stroke-linecap:round;stroke-miterlimit:10;}
	.st124{fill:none;stroke:#5B774B;stroke-linejoin:round;stroke-miterlimit:10;}
	.st125{fill:none;stroke:#89A037;stroke-linecap:round;stroke-linejoin:round;stroke-miterlimit:10;}
	.st126{fill:none;stroke:#89A037;stroke-width:3;stroke-linecap:round;stroke-linejoin:round;stroke-miterlimit:10;}
	.st127{fill:none;stroke:#89A037;stroke-width:3.3343;stroke-linecap:round;stroke-linejoin:round;stroke-miterlimit:10;}
	.st128{fill:none;stroke:#89A037;stroke-width:3;stroke-linecap:round;stroke-miterlimit:10;}
	.st129{fill:#839958;}
	.st130{fill:#AA2F66;}
	.st131{fill:#D8CBC5;}
	.st132{fill:#662128;}
	.st133{fill:#A3CA44;stroke:#89A037;stroke-width:3;stroke-miterlimit:10;}
	.st134{fill:#ECE8DB;stroke:#5B3A03;stroke-miterlimit:10;}
	.st135{fill:none;stroke:#00FF00;stroke-miterlimit:10;}
	.st136{fill:none;stroke:#00FF00;stroke-width:1.0757;stroke-miterlimit:10;}
	.st137{clip-path:url(#SVGID_2_);}
	.st138{fill:none;stroke:#000000;stroke-miterlimit:10;}
	.st139{fill:none;stroke:#000000;stroke-width:1.16;stroke-miterlimit:10;}
	.st140{fill:#7AA66D;}
	.st141{fill:#8BC133;}
	.st142{fill:none;stroke:#000000;stroke-width:0.9135;stroke-miterlimit:10;}
	.st143{fill:none;stroke:#000000;stroke-width:5.9645;stroke-miterlimit:10;}
	.st144{fill:none;stroke:#000000;stroke-width:1.9086;stroke-linecap:round;stroke-linejoin:round;stroke-miterlimit:10;}
	.st145{fill:#275439;}
	.st146{fill:none;stroke:#4D6261;stroke-width:0.9577;stroke-linecap:round;stroke-linejoin:round;stroke-miterlimit:10;}
	.st147{fill:#7AA66D;stroke:#4D6261;stroke-width:0.9577;stroke-miterlimit:10;}
	.st148{fill:none;stroke:#4D6261;stroke-width:0.9577;stroke-miterlimit:10;}
	.st149{fill:#D2DE8F;stroke:#667F40;stroke-width:3;stroke-miterlimit:10;}
	.st150{fill:none;stroke:#FAFAEE;stroke-linecap:round;stroke-miterlimit:10;}
	.st151{fill:#D2DE8F;}
	.st152{fill:none;stroke:#667F40;stroke-width:3;stroke-miterlimit:10;}
	.st153{fill:#77A578;}
	.st154{fill:#719E7F;}
	.st155{fill:#FAFAEE;}
	.st156{fill:#174C17;}
	.st157{fill:#ECE8DB;stroke:#5B3A03;stroke-width:0.9644;stroke-miterlimit:10;}
	.st158{fill:#7AA66D;stroke:#4D6261;stroke-width:3.6;stroke-linecap:round;stroke-linejoin:round;stroke-miterlimit:10;}
	.st159{fill:none;stroke:#D2DE8F;stroke-miterlimit:10;}
	.st160{fill:none;stroke:#4D6261;stroke-width:3.6;stroke-linecap:round;stroke-linejoin:round;stroke-miterlimit:10;}
	.st161{fill:#ECE8DB;stroke:#5B3A03;stroke-linecap:round;stroke-linejoin:round;stroke-miterlimit:10;}
	.st162{fill:#FAD673;}
	.st163{fill:#CE731F;}
	.st164{fill:#D15CD4;}
	.st165{fill:#701975;}
	.st166{fill:#009245;stroke:#006837;stroke-width:3;stroke-miterlimit:10;}
	.st167{fill:#009245;stroke:#006837;stroke-width:3;stroke-linecap:round;stroke-linejoin:round;stroke-miterlimit:10;}
	.st168{fill:none;stroke:#B8CC69;stroke-width:3;stroke-miterlimit:10;}
	.st169{fill:#4E6624;stroke:#314217;stroke-width:3;stroke-miterlimit:10;}
	.st170{fill:none;stroke:#314217;stroke-miterlimit:10;}
	.st171{fill:#4E6624;}
	.st172{fill:#709638;stroke:#3B7000;stroke-width:3;stroke-linecap:round;stroke-linejoin:round;stroke-miterlimit:10;}
	.st173{fill:#709638;stroke:#3B7000;stroke-linecap:round;stroke-linejoin:round;stroke-miterlimit:10;}
	.st174{fill:#92C057;}
	.st175{fill:#3B7000;}
	.st176{fill:#325900;}
	.st177{fill:#2A784B;stroke:#1F4130;stroke-width:3;stroke-miterlimit:10;}
	.st178{fill:none;stroke:#1F4130;stroke-linecap:round;stroke-linejoin:round;stroke-miterlimit:10;}
	.st179{fill:#2A784B;stroke:#1F4130;stroke-miterlimit:10;}
	.st180{fill:#D7D8DA;stroke:#1F4130;stroke-linecap:round;stroke-linejoin:round;stroke-miterlimit:10;}
	.st181{fill:none;stroke:#1F4130;stroke-width:3;stroke-miterlimit:10;}
	.st182{fill:#2A784B;}
	.st183{fill:#1F4130;}
	.st184{fill:#D7D8DA;}
	.st185{fill:#499623;}
	.st186{fill:none;stroke:#499623;stroke-miterlimit:10;}
	.st187{fill:#4C9D29;stroke:#1B5900;stroke-miterlimit:10;}
	.st188{fill:none;stroke:#ADE77A;stroke-width:2;stroke-linecap:round;stroke-miterlimit:10;}
	.st189{fill:none;stroke:#ADE77A;stroke-linecap:round;stroke-miterlimit:10;}
	.st190{fill:#4F7F51;stroke:#344B57;stroke-miterlimit:10;}
	.st191{fill:#649160;stroke:#344B57;stroke-miterlimit:10;}
	.st192{fill:#78A36F;stroke:#344B57;stroke-miterlimit:10;}
	.st193{fill:#3A6D40;}
	.st194{opacity:0.75;fill:#344B57;stroke:#8CB77C;stroke-width:4;stroke-miterlimit:10;}
	.st195{opacity:0.5;fill:#344B57;stroke:#8CB77C;stroke-width:4;stroke-miterlimit:10;}
	.st196{opacity:0.25;fill:#344B57;stroke:#8CB77C;stroke-width:4;stroke-miterlimit:10;}
	.st197{opacity:0.8;fill:none;stroke:#C5E2D6;stroke-linecap:round;stroke-miterlimit:10;}
	.st198{opacity:0.8;fill:none;stroke:#C5E2D6;stroke-miterlimit:10;}
	.st199{fill:#8CB77C;stroke:#344B57;stroke-miterlimit:10;}
	.st200{opacity:0.8;fill:#C5E2D6;}
	.st201{fill:#4F7F51;}
	.st202{fill:#649160;}
	.st203{fill:#78A36F;}
	.st204{fill:#8CB77C;}
	.st205{fill:#C0DECD;}
	.st206{fill:none;stroke:#C5E2D6;stroke-width:7.8769;stroke-linecap:round;stroke-miterlimit:10;}
	.st207{fill:#AFCEB8;}
	.st208{fill:#9FC1A8;}
	.st209{fill:#77A47F;}
	.st210{fill:none;stroke:#77A47F;stroke-width:0.9699;stroke-miterlimit:10;}
	.st211{fill:#BCE680;stroke:#839958;stroke-width:3;stroke-miterlimit:10;}
	.st212{fill:none;stroke:#839958;stroke-miterlimit:10;}
	.st213{fill:none;stroke:#F0FDC5;stroke-miterlimit:10;}
	.st214{fill:none;stroke:#F0FDC5;stroke-linecap:round;stroke-miterlimit:10;}
	.st215{fill:none;stroke:#F0FDC5;stroke-width:0.8753;stroke-miterlimit:10;}
	.st216{fill:#A3CA44;}
	.st217{fill:none;stroke:#859C52;stroke-linecap:round;stroke-miterlimit:10;}
	.st218{fill:none;stroke:#E4E9A8;stroke-width:2.5;stroke-linecap:round;stroke-miterlimit:10;}
	.st219{fill:none;stroke:#AFCEB8;stroke-width:3;stroke-linecap:square;stroke-miterlimit:10;}
	.st220{fill:none;stroke:#AFCEB8;stroke-width:3;stroke-miterlimit:10;}
	.st221{fill:none;stroke:#E4E9A8;stroke-linecap:round;stroke-miterlimit:10;}
	.st222{fill:#19430C;}
	.st223{fill:#E4E9A8;}
	.st224{fill:#859C52;}
	.st225{fill:#89A037;}
	.st226{fill:#009245;stroke:#006837;stroke-miterlimit:10;}
	.st227{fill:#547F2D;stroke:#27460A;stroke-miterlimit:10;}
	.st228{fill:#27460A;}
	.st229{fill:none;stroke:#9577B0;stroke-width:3;stroke-linecap:round;stroke-miterlimit:10;}
	.st230{fill:none;stroke:#9577B0;stroke-linecap:round;stroke-miterlimit:10;}
	.st231{fill:#AF77AF;}
	.st232{opacity:0.6;}
	.st233{fill:none;stroke:#AF77AF;stroke-width:2.4947;stroke-linecap:round;stroke-miterlimit:10;}
	.st234{fill:none;stroke:#AF77AF;stroke-width:2.1763;stroke-linecap:round;stroke-miterlimit:10;}
	.st235{fill:#9C8EBB;}
	.st236{fill:#8F738E;}
	.st237{fill:none;stroke:#260C19;stroke-linecap:round;stroke-linejoin:round;stroke-miterlimit:10;}
	.st238{fill:none;stroke:#5E3648;stroke-width:2;stroke-linecap:round;stroke-miterlimit:10;}
	.st239{fill:none;stroke:#502C3B;stroke-width:3;stroke-linecap:round;stroke-linejoin:round;stroke-miterlimit:10;}
	.st240{fill:none;stroke:#D0DDC8;stroke-linecap:round;stroke-miterlimit:10;}
	.st241{fill:none;stroke:#D0DDC8;stroke-miterlimit:10;}
	.st242{fill:#5E3648;}
	.st243{fill:#5F4348;}
	.st244{fill:#635149;}
	.st245{fill:#655E48;}
	.st246{fill:#686B49;}
	.st247{fill:#697149;}
	.st248{fill:#768454;}
	.st249{fill:#74914C;}
	.st250{fill:#777859;}
	.st251{fill:#796E5E;}
	.st252{fill:#796262;}
	.st253{fill:#7A5C65;}
	.st254{fill:#314217;}
	.st255{fill:#4E6624;stroke:#314217;stroke-miterlimit:10;}
	.st256{fill:none;stroke:#314217;stroke-linecap:round;stroke-linejoin:round;stroke-miterlimit:10;}
	.st257{fill:#4E6624;stroke:#314217;stroke-linecap:round;stroke-miterlimit:10;}
	.st258{fill:none;stroke:#314217;stroke-linecap:round;stroke-miterlimit:10;}
	.st259{fill:none;stroke:#8CA242;stroke-width:2;stroke-linecap:round;stroke-miterlimit:10;}
	.st260{fill:#538E00;}
	.st261{fill:#627F19;}
	.st262{fill:#71991C;}
	.st263{fill:#395415;}
	.st264{opacity:0.7;fill:#FFFFFF;}
	.st265{fill:#3D5D16;}
	.st266{fill:#66465F;}
	.st267{fill:#7F5773;}
	.st268{opacity:0.5;fill:#260C19;}
	.st269{opacity:0.2;fill:#FFFFFF;}
	.st270{fill:#723D5F;}
	.st271{fill:none;stroke:#1E3A06;stroke-width:8;stroke-miterlimit:10;}
	.st272{opacity:0.4;fill:#FFFFFF;}
	.st273{opacity:0.6;fill:#FFFFFF;}
	.st274{fill:#C7D2B8;}
	.st275{fill:none;stroke:#E4E9A8;stroke-width:19.3526;stroke-linecap:round;stroke-miterlimit:10;}
	.st276{fill:none;stroke:#E4E9A8;stroke-width:11.5;stroke-linecap:round;stroke-miterlimit:10;}
	.st277{fill:none;stroke:#314217;stroke-width:7.75;stroke-miterlimit:10;}
	.st278{opacity:0.4;}
	.st279{fill:none;stroke:#FFFFFF;stroke-width:8;stroke-linecap:round;stroke-miterlimit:10;}
	.st280{fill:#A6AE92;}
	.st281{fill:#ACBC96;}
	.st282{fill:#AF9AA4;}
	.st283{fill:#4C9D29;}
	.st284{fill:#D6D6D6;}
	.st285{fill:#ADE77A;}
	.st286{fill:#1B5900;}
</style>
<g>
	<polygon class="st283" points="206.6,45.6 283.7,49.3 336.6,16.4 423.7,32.5 471.5,106.5 444.2,186.8 461.6,255.2 426.8,289.4 
		244.5,324.8 93.4,304.3 64.8,254.6 86.6,208.5 30,143.8 40.5,71.1 106.5,20.7 	"/>
	<path class="st284" d="M188.7,230.9C188.7,230.9,188.7,230.9,188.7,230.9L188.7,230.9z"/>
	<path class="st284" d="M315.7,76.2c-0.6,0-1.3-0.1-1.9-0.5c-1.9-1-2.7-3.4-1.6-5.4c8.3-15.7,25.9-25,47-25c2.2,0,4,1.8,4,4
		c0,2.2-1.8,4-4,4c-18.1,0-33.1,7.8-40,20.8C318.5,75.5,317.1,76.2,315.7,76.2z"/>
	<path class="st284" d="M75.7,95.5c-0.7,0-1.3-0.2-2-0.5c-1.9-1.1-2.6-3.5-1.5-5.4c6.1-10.7,15-20,25.9-27.1
		c1.8-1.2,4.3-0.7,5.5,1.1c1.2,1.8,0.7,4.3-1.1,5.5c-9.8,6.4-17.9,14.9-23.3,24.4C78.4,94.8,77,95.5,75.7,95.5z"/>
	<circle class="st284" cx="67.3" cy="105.5" r="4"/>
	<path class="st284" d="M210.9,90.1c-0.9,0-1.9-0.3-2.7-1c-1.6-1.5-1.7-4-0.3-5.6c7-7.8,17.2-12.2,27.8-12.2c2.2,0,4,1.8,4,4
		s-1.8,4-4,4c-8.4,0-16.4,3.5-21.9,9.6C213,89.7,211.9,90.1,210.9,90.1z"/>
	<circle class="st284" cx="218.4" cy="194.9" r="4"/>
	<circle class="st284" cx="242.4" cy="264.7" r="4"/>
	<path class="st284" d="M347.6,185.4c-1.4,0-2.7-0.7-3.4-2c-1.1-1.9-0.4-4.3,1.5-5.4c4.9-2.8,10-4.1,13.5-4.6
		c2.1-0.3,4.2,1.1,4.5,3.3c0.3,2.2-1.1,4.2-3.3,4.5c-2.8,0.5-6.9,1.5-10.8,3.7C348.9,185.3,348.2,185.4,347.6,185.4z"/>
	<circle class="st284" cx="334.5" cy="190.8" r="4"/>
	<circle class="st284" cx="94.4" cy="254" r="4"/>
	<polygon class="st285" points="127.1,298.7 107.8,257.6 111.9,250 122.5,255.3 144.2,289.7 161.6,267.3 143.2,206.5 138.2,193 
		146.5,181.4 158.6,186 180,239.4 194.8,294.7 226.1,212.7 242.9,186.7 251.8,187 255.1,196.6 238.3,225.2 221.8,271 230.7,302.6 
		247.2,310.8 253.4,284.8 258,271.6 265,270 272.2,277.2 264.3,314.7 318.3,297.3 344.6,234.4 371.9,201.8 386.7,195.9 395.6,205.8 
		393,214.4 362.1,252.2 343,297.3 323.2,477 150.4,477 150.4,358.9 	"/>
	<polygon class="st285" points="277.1,234.5 295.6,248.6 305.2,263.9 318.7,240.2 305.7,206.6 315,163.5 306.3,150.9 293.1,155.3 	
		"/>
	<polygon class="st285" points="210.4,177 237.1,165.9 245.7,115.4 235.6,105.7 222.8,112.4 	"/>
	<polygon class="st285" points="140,149.7 168.3,150 149.4,116.9 123.1,81.4 106.9,85.2 105.7,98 	"/>
	<polygon class="st285" points="347.7,112.7 363.5,134.6 392.5,91.2 389.1,76.5 375.2,75.4 	"/>
	<path class="st286" d="M465.5,192.5c-3.6-7.3-2.9-16,1.9-22.6c2.6-3.5,4.9-7.1,6.9-10.9c13-24.4,14-53,2.9-80.5
		c-10.5-26.1-30.8-48.2-57.2-62.3c-26.3-14-55.9-18.5-83.2-12.7c-19.5,4.1-36.4,13.1-49.3,25.9c-5.6,5.5-13.8,7.4-21.1,4.7
		c-4-1.5-8.1-2.6-12.3-3.5c-11.1-2.3-22.3-2.3-33.1-0.3c-5.8,1.1-11.8-0.5-16.4-4.3c-14.1-11.7-31.8-19.2-51.7-21.5
		C125,1.3,96,8.4,71.1,24.7C46.2,41,28,64.7,19.8,91.4c-8.7,28.5-5.1,57.1,10.1,80.4c7.8,11.9,18.2,21.7,30.6,28.8
		c4.2,2.4,6.7,6.9,6.6,11.7c0,1.6,0,3.3,0,4.9c0.1,2.7-0.6,5.5-2.1,7.8c-4.3,6.6-7.5,13.9-9.2,21.6c-3.1,14.3-1.2,29.2,5.4,42.2
		c0,0,16.4,26.5,48,33.6c6.4,1.4,11.6,5.9,13.8,12.1C147,402,135,461.3,134.7,462.8c-1.6,7.2-0.3,14.5,3.6,20.8
		c3.9,6.2,10,10.6,17.2,12.2c3,0.7,6,0.9,9,0.6c2.3-0.2,4.7,0.1,6.9,0.8c2.6,0.9,6.4,1.9,10.5,1.9c3.4,0,6.7-0.5,9.8-1.5
		c2.3-0.8,4.8-1,7.2-0.6c1.8,0.3,4.1,0.3,6.5-0.3c2.3-0.6,4.6-0.7,6.9-0.2c2.1,0.5,4.3,0.7,6.6,0.7c0,0,3.5,0,7.1-0.8
		c2.5-0.5,5.1-0.5,7.5,0.2c2.6,0.7,5.3,1.1,8.1,1.1c2,0,4.1-0.3,5.7-0.6c1.5-0.3,3-0.3,4.5-0.2c0.5,0,1,0.1,1.6,0
		c1.2-0.1,2.4-0.1,3.7,0.2c1.4,0.3,3.6,0.6,6,0.6c3,0,6-0.4,8.7-1.2c2.7-0.8,5.6-0.8,8.4-0.1c3.7,0.9,7.7,1.2,11.7,0.6
		c2.5-0.3,5-1,7.3-1.8c2.5-0.9,5.1-1.2,7.7-0.8c2.3,0.3,4.7,0.4,7,0.3c8.4-0.6,16-4.5,21.5-10.8c5.6-6.4,8.3-14.5,7.7-22.9
		c-0.1-0.9-4.6-75.4,14.5-144c1.9-6.7,8.6-10.8,15.4-9.5c5.8,1.1,13.4,2.1,22,2.2c28,0.2,52.5-12,67-32.8
		c13.7-19.6,17-44.2,9.4-69.1C469.9,202.3,467.9,197.3,465.5,192.5z M379.4,280c-5.4-1.1-11.1-2.7-17.3-4c-3.4-0.7-5.3-4.5-3.7-7.6
		c9.8-20.4,21.8-36.9,35.8-49.1c6.5-5.7,7.2-15.7,1.4-22.2c-3-3.4-7.3-5.3-11.8-5.3c-3.8,0-7.5,1.4-10.4,3.9
		c-14.7,13-27.5,29.5-38.3,49.3c-1.9,3.6-7,3.8-9.2,0.4c-1.1-1.6-2.1-3.2-3-4.7c-13-20.8-14.9-45.1-2.5-62.8
		c9.7-13.9,26.1-21,44.4-21c15.6,0,32.6,5.2,47.7,15.8c32.9,22.9,44.9,62.4,26.9,88.2c-9.7,13.9-26.1,21-44.4,21
		C389.9,281.7,384.7,281.1,379.4,280z M347.3,273.8c-0.1,0.3-0.3,0.7-0.4,1c-0.2,0.5-0.4,0.9-0.6,1.4c-0.5,1.2-1,2.4-1.5,3.6
		c-0.2,0.4-0.3,0.8-0.5,1.2c-0.6,1.6-1.2,3.1-1.8,4.7c0,0.1,0,0.1-0.1,0.2c0,0,0,0,0,0c-29.4,78.9-23.2,175-23.1,176.3
		c0.3,4.4-3,8.1-7.4,8.4c-0.2,0-0.4,0-0.6,0c-4.1,0-7.6-3.2-7.9-7.4c-0.1-1.9-3.1-46.6,4.4-101.3c4.4-32.3,11.6-61.2,21.3-86.1
		c0.6-1.6,1.3-3.2,2-4.8c0.3-0.7,0.6-1.4,0.9-2.2c0.3-0.7,0.6-1.3,0.9-2c0.9-2,1.8-4,2.7-6h0c11.5-24.6,25.8-44.6,42.8-59.5
		c1.5-1.3,3.4-2,5.2-2c2.2,0,4.4,0.9,5.9,2.7c2.9,3.3,2.6,8.3-0.7,11.2C370.9,229.3,357.4,250.5,347.3,273.8
		C347.3,273.8,347.3,273.8,347.3,273.8z M295.5,464.3c0.6,4.3-2.5,8.3-6.8,8.9c-0.4,0-0.7,0.1-1.1,0.1c-3.9,0-7.3-2.9-7.8-6.9
		c-0.2-1.6-5.3-40.3-5.9-97.3c-0.2-14.8,0-31.6,0.7-49.8c0.1-2.1,1.4-3.9,3.3-4.7c0,0,0,0,0,0c1.8-0.7,3.5-1.4,5.2-2.3
		c3.5-1.8,7.7,1,7.5,4.9C287.2,399.8,295.4,463.3,295.5,464.3z M275.3,308c-0.4,0.2-0.8,0.3-1.3,0.5c-2.3,1-4.7-0.9-4.3-3.4
		c1.3-8.4,2.8-16.9,4.6-25.3c0.6-2.8,0.3-5.7-1-8.2c-1.7-3.2-4.6-5.4-8-6.1c-0.8-0.2-1.6-0.3-2.4-0.3c-5.5,0-10.4,3.9-11.5,9.4
		c-1.7,8.2-3.2,16.4-4.5,24.7c-0.4,2.6-3.6,3.5-5.4,1.7c0,0,0,0,0-0.1c-9-9.3-15.1-21.3-12.4-34.6c3.5-16.9,18.5-28.5,35.4-28.5
		c2.5,0,5,0.2,7.5,0.8c19.7,4,32.5,23,28.6,42.3C297.6,294.3,287.4,303.4,275.3,308z M259.8,319.8c-9.5,76.3-2.9,147.7-2.9,148.5
		c0.2,2.2-1.4,4.1-3.6,4.3c-0.1,0-0.3,0-0.4,0c-2,0-3.7-1.5-3.9-3.6c-0.1-0.9-6.7-73.3,3-150.8c0,0,0,0,0,0c1.7-14,4-28.1,7-42.1
		c0.4-1.9,2-3.1,3.9-3.1c0.3,0,0.5,0,0.8,0.1c2.1,0.5,3.5,2.6,3.1,4.7c-2.7,12.8-4.8,25.8-6.5,38.7c0,0,0,0,0,0
		c-0.1,0.9-0.2,1.8-0.3,2.7C259.8,319.5,259.8,319.7,259.8,319.8C259.8,319.8,259.8,319.8,259.8,319.8z M261.9,390.3L264,376
		c0,0,0.2-2,1.5-2s1.3,2,1.3,2c0.6,36,3,64,4.5,79.1c-0.4,6.9-0.5,10.7-0.5,10.9c0,1.1-0.3,2.1-0.7,3c-1.4,3.1-6,2.3-6.3-1.2
		c0,0,0,0,0-0.1C263.9,467.2,260.9,434.7,261.9,390.3z M238.1,472.2c-4.2-2.6-4.4-8.4-4.4-8.4c-0.1-0.9-5.6-55.9-5.8-128.3
		c0-2.5,3.5-2.9,4.1-0.5c0,0.1,0,0.1,0,0.2c2.9,13.3,5.3,26,7.3,37.8c0.5,3.2,0.8,6.5,0.7,9.7c-1.5,49.5,1.9,86.6,1.9,87.1l0,0
		C242.2,471.9,239.9,473.3,238.1,472.2z M211.3,466.3c-6.6-56.7-3.1-95.6-3.1-95.6c1-21,3.7-48.7,10.1-77.6c0.4-1.8,3.1-1.5,3,0.4
		c-0.8,31.9-1.7,109.7,5.4,170.7c0.5,3.9-2,7.8-5.8,8.8c-0.7,0.2-1.4,0.3-2,0.3c-0.2,0-0.5,0-0.7,0
		C214.5,472.9,211.7,469.9,211.3,466.3z M224.5,246.8C224.5,246.8,224.5,246.8,224.5,246.8c-0.1,0.2-0.1,0.4-0.2,0.5
		c-0.1,0.3-0.3,0.7-0.4,1c0,0,0,0,0,0c-15.5,41.9-21.1,86.9-22.8,122c-2.7,54.8,3.3,97.5,3.3,97.9c0.3,2.2-1.2,4.2-3.4,4.5
		c-0.2,0-0.4,0-0.6,0c-1.9,0-3.6-1.4-3.9-3.4c-0.1-0.4-6.1-43.9-3.4-99.4c1.8-36.7,7.9-84.1,24.7-127.9
		c6.8-17.6,15.3-34.6,25.9-50.2c0.8-1.1,2-1.7,3.3-1.7c0.8,0,1.6,0.2,2.2,0.7c1.8,1.2,2.3,3.7,1,5.5
		C239.6,211.9,231.1,229,224.5,246.8z M189.1,466.8c0.5,4.1-2.4,8-6.5,8.4c-0.2,0-0.5,0-0.7,0c-0.5,0-1,0-1.5-0.1
		c-4.3-0.8-7.1-4.9-6.3-9.2c0.1-0.4,6.9-37.9,6.3-89.7c-0.3-24.9-2.3-55.9-8.6-88.7c0,0,0,0,0,0c-0.1-0.6-0.2-1.2-0.4-1.8
		c-0.1-0.4-0.2-0.9-0.3-1.3c-0.4-1.9-0.8-3.9-1.2-5.8c-0.1-0.3-0.1-0.7-0.2-1c-5.8-26.6-14.4-54-27.3-80c-1.9-3.9-0.3-8.7,3.6-10.6
		c1.1-0.6,2.3-0.8,3.5-0.8c2.9,0,5.7,1.6,7.1,4.4c12.6,25.5,21.3,52.1,27.3,78.1c0.3,1.2,0.5,2.4,0.8,3.6c0.1,0.5,0.2,1.1,0.3,1.6
		c2.5,11.5,4.5,22.9,6.1,33.9c0.5,3.6,0.5,7.2,0,10.7c-2.9,19-4.3,36.6-5.1,51.1C183.7,416.8,187.7,455.3,189.1,466.8z M157.9,467.9
		c0.1-0.3,6.1-27.3,3.4-66.2c-1.9-26.8-8.3-63.6-26.8-101.9c0,0,0,0,0,0c-6.2-12.8-13.6-25.8-22.8-38.6c-1.3-1.8-0.8-4.3,0.9-5.5
		c0.7-0.5,1.5-0.7,2.3-0.7c1.2,0,2.5,0.6,3.2,1.7c9.9,14,18,28.1,24.5,42c0,0,0,0,0,0c18.2,38.8,24.7,75.7,26.6,102.9
		c2.8,40-3.3,67.1-3.6,68.2c-0.4,1.8-2.1,3.1-3.9,3.1c-0.3,0-0.6,0-0.9-0.1C158.7,472.1,157.4,470,157.9,467.9z M86.3,47.9
		c16.9-11.1,35.7-16.4,53.3-16.4c18.4,0,35.7,5.8,48.5,17.1c6.4,5.6,6.9,15.4,1.2,21.7c-12.8,14.1-15.1,29.7-15.1,29.7
		c-2.3,11.2-1.2,22.5,3.2,33.6c1.1,2.6,2.3,5.3,3.7,7.9c2,3.7-1.2,8-5.3,7.3c-0.1,0-0.1,0-0.2,0c-2.1-0.4-3.8-1.7-4.9-3.5
		c-12.5-22.2-26.1-43-40.8-61.8c-3-3.9-7.5-6.1-12.4-6.1c-3.5,0-6.9,1.2-9.7,3.3c-6.9,5.3-8.1,15.3-2.7,22.1
		c10.2,13.1,20,27.4,29.2,42.5c1.5,2.4,0.4,5.6-2.2,6.7l-0.1,0c-13.6,5.4-24.6,14.4-32.3,25.4c-3.1,4.5-9,6.3-14.1,4.5
		C72.3,177,61,168.6,53.2,156.7C31.1,122.9,46,74.2,86.3,47.9z M301.2,107.2c-0.2-2.5,1.7-4.7,4.2-4.7h0c3.9,0,7.8,0.4,11.8,1.2
		c20.7,4.2,36.5,18.9,42.9,37.2c1.5,4.3-1.4,8.8-5.9,9.4c-11.8,1.7-22.4,6.2-30.7,13.2c-1.8,1.5-4.6,0.5-5-1.8c-0.3-2-1-3.9-2.1-5.7
		c-2.2-3.6-5.6-6.2-9.7-7.2c-1.3-0.3-2.6-0.5-3.8-0.5c-7.2,0-13.5,4.9-15.3,11.9c-2,8-3.9,16.3-5.6,24.8c-0.3,1.6-2.4,1.9-3.2,0.5
		c-2.5-4.3-5.7-8.1-9.4-11.3c-2.4-2.1-2.1-5.9,0.6-7.6c15.9-9.7,26.6-24.1,30.1-40.9C301.6,119.5,301.8,113.2,301.2,107.2z
		 M353.3,113.6c6.6-10.8,13.7-21.4,21.3-31.6c1.6-2.1,3.9-3.2,6.4-3.2c1.8,0,3.6,0.6,5.1,1.9c3.2,2.7,3.6,7.6,1.1,11
		c-8.1,10.9-15.6,22.3-22.5,33.9c-0.9,1.5-3.1,1.5-4,0c-2-3.2-4.4-6.3-6.9-9.1C352.8,115.7,352.7,114.5,353.3,113.6z M258.8,193.1
		c-0.3-3.6-2.2-6.7-5.1-8.8c-2-1.4-4.3-2.1-6.7-2.1c-3.9,0-7.5,1.9-9.7,5.1c-7.1,10.4-13.6,21.8-19.4,34.2l-1.9,4.5
		c-0.8,1.9-3.5,2-4.5,0.2c0,0,0,0,0-0.1c-6-11.4-8.5-24.7-2.1-36.7c6.4-12,18.7-18.8,31.6-18.8c5.8,0,11.8,1.4,17.3,4.3
		c12.8,6.8,19.9,19.9,19.5,33.2c-0.5,3-1,6.1-1.5,9.1c-0.6,2.1-1.5,4.3-2.6,6.3c-1,1.8-2.1,3.5-3.4,5.1c-1.1,1.4-2.9,2.1-4.7,2
		c-0.5,0-0.9,0-1.4,0c-8.2,0-15.9,2.3-22.5,6.3c-2.1,1.3-4.6-0.9-3.6-3.1c5.4-12,11.6-23.1,18.3-32.9
		C258.1,198.7,259,195.9,258.8,193.1z M216.6,166.2c3.2-20.1,6.7-36.7,10.1-50c0.9-3.6,4.1-6,7.7-6c0.9,0,1.8,0.2,2.7,0.5
		c3.9,1.4,5.9,5.7,4.9,9.7c-3.3,13.1-6,26.6-8.4,40.5c-0.3,2-1.8,3.7-3.8,4.2c-3.2,0.8-6.2,2-9,3.6c-0.2,0.1-0.5,0.2-0.7,0.3
		C218.2,169.8,216.3,168.2,216.6,166.2z M293.3,124.3c-3.7,18-16.1,31-31.5,38.9c-3.6,1.9-7.8,2.4-11.8,1.4c-2-0.5-4-0.8-5.6-0.9
		c-1.9-0.1-3.2-1.9-2.9-3.7c2.3-13.3,5-25.9,7.9-37.6c1-3.8,0.6-7.9-1.2-11.4c-2.1-4.1-5.8-7-10.2-8.1c-1.3-0.3-2.6-0.5-3.8-0.5
		c-7.2,0-13.5,4.9-15.3,11.9c-3.4,13.5-6.4,28.2-9.1,43.9c-0.4,2.6-3.7,3.6-5.5,1.6c-1.2-1.3-2.5-2.7-3.9-4.1
		c-14.1-14.5-23.8-33.5-19.5-54.4c5.4-26.5,29.1-44.8,55.6-44.8c3.9,0,7.8,0.4,11.8,1.2C279.5,64.1,299.6,93.9,293.3,124.3z
		 M158.3,147C158.3,147,158.3,147,158.3,147c-3,0-6,0.2-9,0.6c-2.6,0.3-5.1-0.9-6.4-3.1c-9.5-15.9-20-31.6-31.6-46.5
		c-2.7-3.4-2.1-8.4,1.4-11.1c1.4-1.1,3.2-1.7,4.9-1.7c2.4,0,4.7,1,6.2,3c13.2,16.9,25.4,35.3,36.8,54.9
		C161.5,144.9,160.3,147,158.3,147z M102.2,227.7c5.4-2.8,11.2-4.1,16.9-4.1c13.1,0,25.6,7,31.9,19.3c6.2,12.1,3.5,25.4-2.7,36.7
		c-0.1,0.2-0.2,0.4-0.3,0.5c-1.3,2.4-4.7,2.4-5.9,0c-5.1-9.4-10.9-18.8-17.6-28.1c-2.2-3.1-5.8-5-9.6-5c-2.5,0-4.8,0.8-6.8,2.2
		c-5.3,3.8-6.6,11.1-2.8,16.5c5.9,8.2,11,16.5,15.6,24.8c1.3,2.4-0.6,5.2-3.3,5c0,0,0,0-0.1,0c-12.8-1.2-25.2-7.2-31.4-19.3
		C77,258.6,84.2,236.9,102.2,227.7z M188.4,253.3c-0.5-1.9-0.9-2.9-0.9-2.9c-6.2-22.7-14.2-43.8-23.8-63.4
		c-2.7-5.4-8.1-8.8-14.1-8.8c-2.4,0-4.8,0.6-7,1.6c-7.8,3.8-11,13.3-7.2,21.1c4.1,8.3,7.7,16.7,11,25.2c-7.5-6.3-17.2-9.9-27.4-9.7
		c-6.8,0.1-12.2,1.5-16.1,3c-3.9,1.5-8.1-1.4-8-5.5c0.1-23.3,15.3-45.8,39.7-55.4c7.8-3.1,15.9-4.5,23.7-4.5
		c16.4,0,31.9,6.4,42.7,17.7c3.8,3.9,4.6,9.8,2.1,14.5c-6.7,12.6-5.9,28,2.1,43.3l0,0.1c2.3,4.5,1.9,9.9-1.1,13.9
		c-1,1.4-2.1,2.7-3.2,4c-2,2.3-4.3,4.7-6.6,7.2C192.4,256.7,189.1,255.9,188.4,253.3z M298.9,226.3
		C298.9,226.3,298.9,226.3,298.9,226.3c-0.4,2.5-0.7,5-1.1,7.5c-0.1,0.5-0.1,1-0.2,1.5c0,0,0,0,0-0.1c-0.2,1.3-0.4,2.6-0.5,3.9
		c-0.3,2.2-2.9,3.3-4.6,1.9c-2.1-1.7-4.4-3.3-6.8-4.6c-2.3-1.2-3.6-3.7-3.3-6.3c0.2-1.2,0.3-2.3,0.5-3.5c0.2-1.5,0.4-2.9,0.6-4.4
		c3-19.9,6.9-40,11.9-60c0.9-3.6,4.1-6,7.7-6c0.6,0,1.3,0.1,1.9,0.2c4.2,1.1,6.8,5.4,5.8,9.6C305.8,186,301.9,206.2,298.9,226.3z
		 M302.8,250.6c0.8-6.4,1.6-12.8,2.5-19.2c0.1-0.7,0.5-1.3,1-1.7l0,0c1.3-0.9,3-0.3,3.6,1.1c0.9,2.2,1.8,4.3,2.9,6.5
		c0.3,0.6,0.3,1.3,0.1,1.9c-1.7,5.2-3.4,10.3-5,15.4c-0.7,2.1-3.5,2.3-4.5,0.3c0,0,0-0.1,0-0.1C302.9,253.5,302.6,252,302.8,250.6z
		 M432.2,166.5c-4.6,3.5-10.9,3.5-15.7,0.2l-0.1-0.1c-11.4-8-24.3-13.4-37.2-15.7c-5.6-1-10.1-5.1-11.8-10.5c0,0,0-0.1,0-0.1
		c-0.6-1.8-0.3-3.7,0.6-5.3c8-13.7,16.5-26.7,25.3-38.7c2.2-3,3.5-6.7,3.3-10.5c-0.3-4.8-2.6-9.1-6.4-11.9c-2.7-2-6-3.1-9.4-3.1
		c-5,0-9.7,2.4-12.7,6.4c-6.7,9-13.2,18.6-19.4,28.6c-1.3,2-3.9,2.6-5.9,1.3c-7.1-4.9-15.2-8.5-24.2-10.4c-4.3-0.9-8.8-1.3-13.2-1.3
		h-0.1c-3.7,0-7.1-2.2-8.5-5.7c-1.2-3-2.7-5.9-4.3-8.7c-1.4-2.3-1.7-5.1-0.8-7.6c1.1-3.2,2.4-6.3,4-9.3
		c12.2-22.9,37.1-35.4,64.7-35.4c15.3,0,31.4,3.8,46.5,11.9c42.5,22.6,61.7,69.7,42.8,105.3C445.4,154.2,439.4,161.1,432.2,166.5z"
		/>
</g>
</svg>
