<?xml version="1.0" encoding="utf-8"?>
<!-- Generator: Adobe Illustrator 20.0.0, SVG Export Plug-In . SVG Version: 6.00 Build 0)  -->
<svg version="1.1" id="Layer_1" xmlns="http://www.w3.org/2000/svg" xmlns:xlink="http://www.w3.org/1999/xlink" x="0px" y="0px"
	 viewBox="0 0 500 500" style="enable-background:new 0 0 500 500;" xml:space="preserve">
<style type="text/css">
	.st0{fill:#689946;}
	.st1{fill:none;stroke:#689946;stroke-width:3;stroke-miterlimit:10;}
	.st2{fill:#00FFFF;}
	.st3{fill:#54665F;}
	.st4{fill:#434D42;}
	.st5{fill:#54665F;stroke:#434D42;stroke-width:2;stroke-linecap:round;stroke-linejoin:round;stroke-miterlimit:10;}
	.st6{fill:#748C8B;}
	.st7{fill:#EFC11E;}
	.st8{fill:none;stroke:#434D42;stroke-linecap:round;stroke-linejoin:round;stroke-miterlimit:10;}
	.st9{fill:none;stroke:#FFFFFF;stroke-linecap:round;stroke-linejoin:round;stroke-miterlimit:10;}
	.st10{fill:#748C8B;stroke:#434D42;stroke-linecap:round;stroke-linejoin:round;stroke-miterlimit:10;}
	.st11{fill:#FFFFFF;}
	.st12{fill:#EFFE99;stroke:#3E4A14;stroke-width:3;stroke-miterlimit:10;}
	.st13{clip-path:url(#SVGID_2_);}
	.st14{fill:none;stroke:#3E4A14;stroke-width:3;stroke-miterlimit:10;}
	.st15{fill:none;stroke:#FFFFFF;stroke-linecap:round;stroke-miterlimit:10;}
	.st16{fill:#EFFE99;}
	.st17{fill:#3E4A14;}
</style>
<path class="st0" d="M415,95.5c10.8-3.2,22.7-8.1,34.2-15.8c4.9,1,10.4,1.6,16.5,1.6c10,0,21.6-1.7,34.3-6.6l-8.4-22
	c-6.8,2.6-13.1,4-18.8,4.6c1.8-3.3,3.1-6.8,3.8-10.7v0c3.3-18.8-9.3-36.7-28.1-40c-18.7-3.3-36.7,9.3-40,28.1
	c-2.3,13.1,3.3,25.6,13.1,33.2c-7.7,3.4-15.1,5.6-21.7,7L415,95.5z M442.4,52.1c-6.4,0-11.6-5.2-11.6-11.6s5.2-11.6,11.6-11.6
	S454,34,454,40.4S448.8,52.1,442.4,52.1z"/>
<path class="st16" d="M70.2,423c79.5,76.9,201.4,82.8,295.9-8.7c86.4-83.7,142.9-205.1,73.3-299.5c-7.8-10.5-19.9-12.3-31.5-23
	c-10.3-11.9-11.7-24.1-22-32.2C293.8-13,170.6,40.7,84.7,123.9c-94.5,91.5-92.9,213-18.6,294.9L70.2,423z"/>
<path class="st0" d="M455.1,191.6c-1.2,2.2,1.2,6,0.2,8.1c-1,2.2-5.5,3-6.3,5.2c-0.8,2.3-1.7,4.8-2.1,7.1c-0.5,2.3,2.3,5.9,2.2,8.3
	c-2.9,0.3-3.9,2.6-5,5c-0.3-0.2-3.6-0.4-3.9-0.7c0,0,0.8-1.3,0.8-1.3c0,0,0.8-1.1,0.8-1.1c-0.6-0.4-1.5-0.5-2.1-1
	c-2.8-1.9-6.4-1.5-8.5-0.1c-2.2,1.4-0.9,5-1.4,7.7c-0.4,2.7-1.2,3.9,1,5.9c0.5,0.5,2.8,3,3.4,3.5c-1,1.4-5.1,0.9-5.3,2.7
	c-2.7-0.8-6.2-0.5-8.2,1c-2.1,1.5-0.9,6.6-1,9.2c-2.1,0.7-6.2-0.9-7.3,0.9c-2.4,0-1.4,5.2-3,6.7c-1.6,1.5-6.6-0.1-6.6,2.3
	c-2,0.2-2,4-3.5,5.3c-2.8-1-6.4-3.3-8.4-1.9c-2.2,1.5-1.2,5.4-1.5,8c-0.3,2.4-1.3,4.8,0.8,6.9c-1.6,1.8-4.7,2.6-4.3,4.9
	c-2,0.4-1.3,3.1-3.1,4.5c-2.2,1.8-5.4,2.2-5.7,4.7c-1.9,0.1-0.7,4.1-2.2,5.3c-1.6,1.2-4.4,0.9-4.8,2.7c-2.1,1-4.7,2.4-5.5,4.4
	c-0.8,2,0.1,4.8,1,6.9c-1.1,1.1-1.7,2.4-2,3.9c-0.5-0.4-1.3-0.1-1.8-0.5c-1.8-1.4-3.6-1-5.9-0.8c-2.3,0.2-2.7,1.7-4.3,3.2
	c-1.6,1.6-4.9,0.9-4.4,3.5c-2.5-1.2-4,0.9-6.2,1.8c-2.3,0.9-6,1.1-6.7,3.5c-0.7,2.1,1.1,4.9,2.4,7.4c0.7,1.4,1.3,3,2,4.4
	c-3,1.1-5.8,3.8-5.1,8c0.2,1.2,2.1,2.2,2.8,3.8c0,0-0.1,0-0.1,0.1c-1.4-0.8-3.9,0.5-5.3-0.4c-3.1-1.8-5.3-2.8-7.6-1
	c-2.3,1.8-2.8,4.8-3,7.8c-0.1,1.5-2.1,1.7-2,3c-2,0.2-3.6,1.4-5.1,2.7c-1.5,1.3-4,1.7-4.3,3.7c-1.2-0.7,0,0.4-1.2-0.2
	c-2.2-1.2-5.1-2.5-7-1.8c-2,0.7-5.8,2.3-6.9,4.3c-1,1.9-1.1,3.8-0.7,5.9c-2.3,0.1-2.2,3.1-3.6,4.9c-1.3,1.7-1.5,4.6-1.4,6.9
	c-2.7,0-5.6,1.2-7.3,3.4c-1.7,2.2,0,3.8,1.1,6.4c0.3,0.7-2.7,1.6-2.4,2.2c-0.8-0.3,0-2.6-0.8-2.9c-2-0.7-5.2,2.1-7.1,2.6
	c-2,0.6-5.1,0.9-6.3,2.5c-1.2,1.6-3.2,3.7-2.8,5.9c-1.7,1.4,0.3,4.4-0.2,6.6c-0.5,2.2-2.3,5.2-1.1,7.2c0.6,1,5.2,1.3,5.8,2.3
	c-0.8,0.7-3.7,2.2-4.3,3.1c-3.6-0.2-5.2,2.9-6.5,5.9c-1.8-0.6-5.8-1.2-7.7-1.8c-3-1-6.1-3.6-8.1-1.2c-1.5-1.2-2-1-3.5-2.2
	c-1.5-1.2-2-3.7-3.5-4.9c-2-1.7-5.6,1.8-7.8,2c-2.4,0.3-5.5-3.3-7-1.4c-3-0.6-6.9,1.7-8.9,3.9c-1.8,2.1-1.9,6.6-1.3,9.8
	c0.5,2.3,1.9,4.3,2.5,6.5c-2.2,0.7-2.7,3.2-3.7,5.6c-1,2.2-3,4.1-2.4,6.4c-1.8,0.6-4.8,0.5-5.9,2c-1.1,1.5-2.9,5.1-2.6,7.2
	c0.1,0.5,2.6-0.8,2.7-0.3c-2.4,0.6-3.7,4.5-6.1,5.1l-2.2,5l41.6,0.1l-1-4.2c3.1-1.1,6.1-2.6,6.6-6c2.2,0.4,5.2,0.8,7.1-0.2
	c2.1-1.1,1.8-4.3,2.4-6.3c0.3,0.2,1.2,2.8,1.6,3.1c2.5,1.6,5.5-1.8,8-3.2c2.4-1.4,3.3-3,3.7-5.7c0.4,0.2,3.8-1,4.2-0.7
	c2.1,1,2.4,0.3,4.1-0.2c2-0.5,4.5,1.4,5.6-0.3c2.5,0,4.7-2.5,6.4-4.2c2,1.2,5.6,1.2,7.7,2.4c2.4,1.5,2.5,2.1,4.4,1.3
	c2.1-0.8,2.9-1.4,3.8-3.6c0.9-2.1,2.8-3.8,2.1-6c2.4-1.4,3.2-5.9,3.5-8.8c3,1.3,6.9,2.5,9.1,0.8c2.2-1.7,4.6-4.7,4.4-7.7
	c0.5,0.3,1.2-1.6,1.7-1.2c2.6,1.8,2.5,1.6,4.6,0.5c2.1-1.1,3.5-1.6,4.2-4.1c0.7-2.4,2.8-4.3,1.4-6.5c2.9-0.7,2.6-3.9,3.5-6.7
	c0.8-2.5,3.2-4.9,1.1-7.6c2.4-0.6,4.9-1.8,6.1-4c1.2-2.2-1.8-6.3-2.8-8.8c2-0.3,7.6,1.4,9,0c1.4-1.4-2.3-5.6-2-7.6
	c0,0,1.3,2.4,1.3,2.4c2.8,2,6.4-2.2,9-3c2.6-0.8,6.3-0.2,7.3-3.5c0.6-2-1-5.2-1-6.9c2.2-0.4,7.1,0.7,8.3-1.2c0.8-1.2,1.4-3,1.6-4.8
	c1.7,0.1,3.7-0.3,5.1-0.4c2.3-0.3,3.4-2.6,5-4.2c1.6-1.7,3.9-2.7,3.4-5.1c2-0.5,4.9-0.6,6.2-2.1c1.2-1.5-1.5-4.5-1.7-6.7
	c-0.2-2.7,1.8-5.3,1.4-7.7c2.2-1.1,2.5-3.4,3.2-5.7c0.6-2,2.8-4.9,1.3-7.3c-0.2-0.3-0.6-0.5-1.2-0.7c1.8-0.5,3.8-2.2,5.4-3
	c2.1-1.1,6.4-1.6,7.1-3.9c0.7-2-0.4-5.5-1.7-7.9c0.1,0,0.3,0.1,0.5,0.1c3.4,0.8,7.3-1.6,9.3-4.4c2.2,0.3,3.1-2.1,4.8-3.4
	c1.7-1.3,3.8-1.8,4.3-3.9c0.4-2,1.7-5,0.4-7c-1.2-1.8-4.4-2.3-5.6-4c0.7,0.1,2.2-2.9,3-2.9c2.1,0.1,4.4,2.8,5.7,1.5
	c1.4-1.3,2.7-2,3.1-4c3-0.2,3.5-5.6,5.2-7.9c2,0.2,5.1,1.6,6.7,0.6c1.7-1.1,3.5-1.8,4.1-3.6c1.8,0.6,2.6,2.7,4.4,3.3l3.3,1.9
	l11.7-42.5l-3.6-41.3L455.1,191.6z M335.8,351.5c0.1,0,0.2-0.1,0.2-0.1C336,351.4,335.9,351.4,335.8,351.5z M387.1,319.8
	c0.2,0,0.9,0.4,1.5,0.8C387.9,320.4,387.3,320.2,387.1,319.8z M401.1,306c0.2,0,0.3,0.1,0.4,0.1C401.3,306.1,401.1,306.1,401.1,306z
	"/>
<path class="st0" d="M24.6,312.2c1-2.2,4.5-3.3,5.2-5.5c0.8-2.3,0.5-4.9,0.9-7.2c0.5-2.3,1.7-3.8,1.8-6.3c2.9-0.3,5.6-2,6.7-4.4
	c0.2,0.1,0.4-0.6,0.7-1.2c0.5-0.7,0.9-1.3,0.9-1.3c0.6,0.4-0.6,3.6,0,4.1c2.8,1.9,4.6-0.7,6.8-2.1c2.2-1.4,3.5-2.4,4-5.2
	c0.4-2.7,1.5-5.5-0.7-7.5c-0.5-0.5-2.6-1.1-3.1-1.6c1-1.4,2.6-4,2.7-5.8c2.7,0.8,5,0.3,7-1.2c2.1-1.5,5.8-1.9,5.9-4.6
	c2.1-0.7,1.6-4.5,2.7-6.2c2.4,0,5.7,1,7.3-0.5c1.6-1.5,2.4-3.9,2.4-6.3c2-0.2,3.9,0.9,5.4-0.5c2.8,1,6.7,0.5,8.7-0.9
	c2.2-1.5,0.1-6.2,0.4-8.8c0.3-2.4-1.3-4.3-3.5-6.3c1.6-1.8,3.5-5.9,3.1-8.2c2-0.4,4.3-2.1,6.1-3.6c2.2-1.8,5.7-1.3,5.9-3.8
	c1.9-0.1,4.1-0.3,5.7-1.5c1.6-1.2,0.5-5.1,0.8-7c2.1-1,6.1-1,6.9-3c0.8-2-1-4.7-1.8-6.9c1.1-1.1,4.3-1.4,4.6-2.9
	c0.5,0.4,0.9-2.3,1.4-1.9c1.8,1.4,2.4,1.5,4.7,1.3c2.3-0.2,5.9,2.4,7.5,0.9c1.6-1.6,1.1-5.1,0.6-7.7c2.5,1.2,6.2,3.8,8.3,2.9
	c2.3-0.9,4.3-4.8,5.1-7.2c0.7-2.1,0-5.4-1.3-7.9c-0.7-1.4-1.2-1.6-2-3c3-1.1,4.4-4.6,3.7-8.8c-0.2-1.2-3.7-1.4-4.4-3
	c0,0,3.6-1.6,4.6-2c0.1,2-0.1,4.6,0.8,5.1c3.1,1.8,7.4-1,9.7-2.7c2.3-1.8,2.3-4.8,2.4-7.8c0.1-1.5,1.9-2.6,1.9-4
	c2-0.2,2.6-2.6,4.1-3.9c1.5-1.3,4.1-1.3,4.4-3.3c1.2,0.7,2.2,0.5,3.4,1.2c2.2,1.2,3.9,1.2,5.8,0.5c2-0.7,3.4-2,4.4-3.9
	c1-1.9,1.9-4,1.4-6.1c2.3-0.1,3.5-2,4.9-3.7c1.3-1.7,1.5-5,1.4-7.3c2.7,0,5.6-0.8,7.3-3c1.2-1.5,3.3-3.2,4.2-4.9
	c1.9-0.2,4.3-2.6,6-3.1c2-0.6,2-2.9,3.2-4.4c1.2-1.6,5.2-1.6,4.8-3.8c1.7-1.4-1.2-4.5-0.7-6.7c0.5-2.2,3.3-3.9,2.1-5.8
	c-0.6-1-0.2-1.7-0.8-2.7c0.8-0.7,0.3-0.8,0.9-1.7c3.6,0.2,5.2-4.1,6.6-7.2c1.8,0.6,5.5,0.5,7.4,1.1c3,1,5.2,1.3,7.2-1
	c1.5,1.2,3.1,3.2,4.6,4.4c1.5,1.2,1.5,4.3,3,5.6c2,1.7,5.8-2.7,8-3c2.4-0.3,4.6,0.2,6.1-1.7c3,0.6,7.9,2,9.8-0.2
	c1.8-2.1,2.1-6.6,1.4-9.8c-0.5-2.3-1.2-3.9-1.8-6c2.2-0.7,2-3.6,3-6c1-2.2,3.1-4.1,2.5-6.3c1.8-0.6,1.7-2.8,2.8-4.3
	c1.1-1.5,0-1.8-0.4-3.9c-0.1-0.5,3.5,0.1,3.4-0.4c2.4-0.6,4-2.8,6.4-3.4s4.9-0.8,7.3-1.4c2.4-0.6,4.3-3.2,6.7-3.8
	c2.4-0.6,5.9,3.4,8.3,2.8l2.8-7.4l-32.7-1l-39.1,6.4l-0.3,6c-2.2-0.4-2.8,2.1-4.7,3.2c-2.1,1.1-6.6,0.7-7.2,2.8
	c-0.3-0.2,1.4,1.3,1.1,1.1c-2.5-1.6-3.8,0.5-6.2,1.9c-2.4,1.4-4.7,1.9-5.1,4.6c-0.4-0.2-1.7-0.9-2.2-1.1c-2.1-1-4.8-3.3-6.6-2.9
	c-2,0.5-3.6,2.9-4.7,4.6c-2.5,0-4.3,3.1-6,4.7c-2-1.2-3.1-4.9-5.1-6.1c-2.4-1.5-4.9,2.2-6.8,2.9c-2.1,0.8-7.2-0.6-8.1,1.6
	c-0.9,2.1,0,4.8,0.6,7.1c-2.4,1.4-2.9,3.9-3.3,6.9c-3-1.3-6.2-0.6-8.4,1.1c-2.2,1.7-4.9,5.3-4.7,8.4c-0.5-0.3-0.5,1.8-0.9,1.4
	c-2.6-1.8-3.7-4.1-5.8-3c-2.1,1.1-2.4,4-3.1,6.5c-0.7,2.4,0.2,5.8,1.6,8c-2.9,0.7-10,1-10.9,3.8c-0.8,2.5,4.8,6.6,6.9,9.4
	c-2.4,0.6-5.1,3.2-6.2,5.5c-1.2,2.2-2.1,4.4-1,6.8c-2,0.3-5.1,0.8-6.5,2.2c-1.4,1.4,0.2,3.6-0.1,5.6c0,0-3.2,0.5-3.3,0.5
	c-2.8-2-4.7-1.7-7.3-0.9c-2.6,0.8-8.2,0.5-9.2,3.8c-0.6,2,1.4,4,1.5,5.7c-2.2,0.4-3,2.7-4.2,4.6c-1.2,1.8-3.9,3.8-3.7,6
	c-0.2-0.1,0,1.4-0.1,1.3c-2-1.5-3-3.1-5.2-2.9c-2.3,0.3-5.5,0-7,1.5c-1.6,1.7-0.3,5.4,0.1,7.8c-2,0.5-3.2,2.4-4.5,4
	c-1.2,1.5-1.3,1.9-1.2,4c0.2,2.7-1,5.9-0.5,8.4c-2.2,1.1-5.6,2.2-6.3,4.5c-0.6,2,1.2,4.2,2.6,6.6c0.2,0.3,0.4,0.6,0.6,0.9
	c-2.5-0.7-6.7-0.2-8.6,0.8c-2.1,1.1-2.2,5.7-3,8c-0.7,2.1,0.2,3.8,1.4,6.3c0.2,0.4-0.1,2.9,0.2,3.4c-0.8-0.2-1.9-3.6-2.7-3.8
	c-3.4-0.8-8.4,1.3-10.4,4.1c-2.2-0.3-3.3,2.2-5,3.5c-1.7,1.3-6,2.4-6.5,4.5c-0.4,2,4.6,3.7,5.9,5.6c1.2,1.8,2.1,4.1,3.3,5.8
	c-0.7-0.1-2.7-1.2-3.5-1.2c-2.1-0.1-4.7,1.4-6,2.7c-1.4,1.3-0.7,5.1-1.1,7c-3,0.2-5.9,1.7-7.6,4c-2-0.2-3.7,0.7-5.3,1.7
	c-1.7,1.1-3.2,2.6-3.9,4.5c-1.8-0.6-4.7-2-6.5-2.6l-7-1l-6.4,38.1L24.6,312.2z M199.5,110.8c-0.2-0.2-0.3-0.3-0.4-0.4
	C199.2,110.4,199.3,110.6,199.5,110.8z M146.2,157.9c-0.2-0.2-0.3-0.3-0.3-0.4C146,157.6,146.1,157.7,146.2,157.9z M92.3,192.5
	c-0.1,0-0.3-0.3-0.5-0.6C92,192.1,92.2,192.3,92.3,192.5z M40.6,286.7c0,0-0.2,0.3-0.5,0.8C40.3,287,40.5,286.6,40.6,286.7z"/>
<path class="st0" d="M78,410.3c0.5-2.2-4.5-5.7-4-7.8c0.5-2.2,5.2-3.3,5.7-5.5c0.5-2.2-3.4-5.4-2.9-7.5c0.5-2.2,1-4.3,1.5-6.5
	s2.7-4.4,3.2-6.5c0.5,0.1,3-0.3,3.6-0.2c2.3,0.4,4.7,1.8,6.3,0.5c1.6-1.3,1.4-5.9,2.1-8c2.6,0.7,6.9,3.4,9.4,2.3
	c2.7-1.2,2.9-6.7,3.7-9.2c2.4,0.7,6.4,3.6,9,4.1c2.3,0.5,4-0.8,5.9-1.7c2.1-0.9,2.8-2.1,3.8-4c1.1-1.9,0.5-4.2,0-6.5
	c2.1-1.7,3.9-3.4,4.2-6.1c0.3-2.5-0.3-3.3-2.2-5.6c-1.4-1.7-1.3-4.6-2.7-6.3c-1.4-1.7-2.7-3.9-4-5.6c2.6-2.4,2.2-5,1.1-8.4
	c-0.7-2.1,1.8-4.6,1-6.6c1.7-0.8,1.8-2.7,2.8-4.2c1-1.5,0.5-3.5,0.4-5.5c1-0.6,3.5,1,4.3,0.1c1.1,0.7,1.9-0.4,3.1,0.3
	c2.2,1.3,4.7,0.8,7.1,0.2c2.4-0.6,4.7-1.7,6.3-3.6c2.5,0.5,5.1,0.4,6.9-1.1c1.8-1.4,2.3-3.9,3-6.2c0.6-2.2-0.6-3.8-1.4-6
	c-0.3-0.9,1.6-2.2,1.2-3.1c0.7,0.3,0.6,1.1,1.4,1.5c2,0.9,3.5-2.2,5.5-3c1.9-0.8,3.3-0.8,4.5-2.5c1.3-1.7,1.2-5.6,1.2-7.6
	c2.6,0.1,8.2,3.2,10.1,1.7c2-1.6,4.2-2.8,4.4-5.4c2.4,0.5,3.5-1.6,5.6-2.8c2.2-1.2,1.5-4.6,2.3-6.9c0.7-2.1,0.6-2.8-0.8-5.3
	c-0.8-1.3,1.7-2.4,1-3.8c2.3-0.3,3-2.7,4.4-4.5c1.4-1.7,3.1-3.3,3.2-5.6c1.6,0.1,2.5,1.2,4.2,1.1c2.2-0.2,2.8-5,4.6-6.3
	c1.9-1.4,6-0.8,6.6-2.9c0.6-2,1.1-5.6-0.3-7.9c-0.9-1.6-3-2.4-4-3.9c0.1-0.2,0.3-0.6,0.3-0.6c1.7,0.7,3.2,0.5,4.6,0.7
	c2.2,0.4,5.1,4.6,6.5,3.9c1.7-0.9,0.2-7.9,0.8-9.7c1.6,0.8,2.9,7.5,4.5,8.3c2.9,1.5,6.2-4.3,8.6-5.1c2.7-0.9,6.5,0.3,7.5-2.3
	c1-2.4-1-6.4-2.3-9.2c2.9,0.5,6.8,0.6,8.6-1.2c1.7-1.8,2-4.6,2.3-7.2c0.2-2.6,1.7-6.4,0.2-8.5c-0.4-0.6-2.5,0.3-2.9-0.2
	c1.7-0.3,3-4,4.2-5.2c2.5,1,6.4,6.2,8.6,5.3c2.2-0.9,4.8-3.3,5.9-5.7c2.1-0.4,4.5-2,5.8-3.8c1.4-1.7,2.2-3,2.3-5.2
	c2.8-0.3,4.5-3.2,6.5-5.8c1.6-2.1,2.4-3.3,2.8-5.6c2.6,0.4,3.8-5.5,5.8-7.3c1.7,1.8,3.6,6.8,5.6,7c2.2,0.2,2.9-4.4,4.8-5.6
	c1.9-1.2,3.7-0.7,4.5-2.8c0.7-1.9,3.2-3.5,2.3-5.8c1.5-1.7,0.7-4.9,0.9-7.2c2.7-0.1,6.2,0,7.9-1.8c1.7-1.8,0.3-5.6,0.3-8.3
	c2-1.3,4.8-3.2,5.6-5.6c3-0.2,7.8,0.2,9.5-2.1c1.7-2.3,1.7-6.1,0.8-9.1c2.1-0.2,2.6-3.2,4.2-4.4c0.6,0.6,0.2,4.5,0.7,5.1
	c1.8,1.8,5.4,2.3,7.6,2.4c2.3,0.1,3.8-3.1,5.7-4.4c2.1-1.3,5.6-1.3,6.3-3.5c0.6-2-2.1-3.7-3.6-6c-0.5-0.7-2-0.7-2.5-1.4
	c0,0,0.7-0.5,0.7-0.5c0,0-1,0.6-1,0.6c-0.3-0.4,0.6-4.9,0.3-5.2c2.7-1.4,8.5,0.4,8.8-2.9c2.7-0.1,3.6-0.1,6.2-0.7
	c2.6-0.5,5.7-0.8,8.3-1.7c2.5-0.9,3.1-6.4,5.6-7.6c2.4-1.1,4.8-2,7.3-3.3l2.9-1.2l-9.1-15.4l-7.4,6.2c-2.3,1.2-4.7,2.7-7.1,3.5
	c-2.4,0.8-5.8-2.6-8.3-2.4c-2.4,0.2-4.1-1.6-6.7-2.2c-2-0.4-5.6,0.2-7.6,0.9c-2,0.7-2.9,4.4-4.1,6c-0.3-0.1-0.6-0.5-1-0.7
	c-2.5-0.8-5.4-0.1-7.7,1.2c-0.2-0.2,0-0.8-0.2-1c-1.7-1.8-4.4-1.8-6.7-2c-2.3-0.1-4.5,0.4-6.5,1.6c-2,1.2-4.6,1.8-5.1,4.1
	c-2.1-0.3-4.2-0.4-6.1,0.6c-2,0.9-1.7,4.6-2.7,6.4c-1,1.8-1.7,3-0.9,5.2c0.7,2,1.9,4.9,2.6,6.8c-2.1,0.8-5.5,1.4-6.7,3.3
	c-1.1,1.8-1.1,4.4-0.9,6.7c-2.6,1.9-2.3,6.4-2.5,9.7c-2.1,0.4-5.5,0.9-7,2.4c-1.4,1.5-4.2,2.9-4,5.2c0.1,0.8,1,2.3,1.1,3.1
	c-1.9-1.4-3.5-3.6-5.4-4.9c-2.3-1.5-5.4-4.4-7.7-3.8c-2.4,0.5-1.9,6.1-3.4,8.1c-1.5,1.9-3.5,3.1-3.2,5.6c-1.6,1.1-0.9,3.7-1.7,5.5
	c-0.8,1.8-2.1,2.2-1.7,4.1c0.2,0.9-4.4,0.9-4.2,1.8c-0.5-0.3,2,1.2,1.5,0.9c-2.8-1.4-5.3-1.5-7.6-0.7c-2.6,0.9-6,2-7.2,4.4
	c-1.1,2.2-0.4,5.2,0.7,7.7c-1.2-0.3-2.7,0.3-3.8-0.4c-2.7-1.6-6.3-5.2-8.6-4.5c-2.6,0.8-3.8,5.6-5,8.1c-2.8-0.5-5.7,1.5-8.7,1.4
	c-2.4-0.1-2.5,1-4.2,2.5c-1.8,1.5-6.4-1.5-7,0.7c-2.7-0.5-1.7,5.4-3.5,7.2c-1.8,1.7-5.5,2-5.8,4.6c-0.3,2.5-1.2,6.5,0.5,8.7
	c0.1,0.2,2,1.9,2.1,2.1c-2.6-0.3-5-2.3-7-1c-2.1,1.4-3.6,3.5-4,6c-1.9,0-2.9,3.4-5.2,4.1c-2.4,0.7-7.7-3.1-8.9-1.5
	c-1.4,1.8,1.4,5.8,1.5,8.1c0.1,2.1,1.2,3.2,2.7,5.2c0,0-1.2,2.7-1.2,2.7c-2.2,0.3-5.6-1.3-7.2,0.4c-1.6,1.6-1.9,3.9-2.2,6.2
	c-2.8-1.2-4.4,2.2-6.9,3.5c-2.6,1.4-6,1-6.7,3.7c-2-1.5-3.9,1.4-5.9,1.3c-2.3-0.1-5.3-3.6-7-2.2c-1.7,1.3-2.4,3.8-2.8,6
	c-1.9-1.2-3.9-2.5-6-2.2c-2.2,0.2-6.1,0-7.8,1.3c-1.8,1.3,1.8,6.4,1.4,8.5c-0.3,1.6-4,4.1-4.1,6.2c-1.1,0.5-2.2,1.1-3.1,1.7
	c-1.8,1.2-5.2,3.1-5.9,5.2c-0.6,1.9,2.1,4.9,3.1,7.2c-3.4,0.4-5.5,4.6-7.1,7.3c-2.5-0.7-6-1.9-8.3-1c-2.5,1.1-3.7,2.6-4.6,4.9
	c-0.8,2.1-4.6,6-2.9,8.7c1.4,2.3,5,2.7,6.4,5c-1.8,2-3.8,4.1-3.8,7c-1.9,1.3-2,3.8-2.6,6c-0.5,2,0.2,4.2,1.3,6.6
	c0.3,0.5,1.2,3.1,1.4,3.6c-2,0.3-2.6,1.7-4.1,3.2c-1.5,1.5-6,0.9-6.4,2.8c-0.5,2,0,5,1.2,6.9c0.3,0.4,1.7,0.4,2,0.8
	c-2.3,0.7-6.3,1.2-7.5,3.5c-1.1,2.2,0.1,5.7,0.5,8.2c-1.9,0.3-2.5,2.6-4,3.8c-1.5,1.2-2.7,2-3.4,3.7c-0.2-0.1-0.9-2-1.1-2.1
	c-1.9-0.9-5.1-2.6-7.2-2.3c-2.1,0.3-5,2.2-6.6,3.4c-1.8,1.3-4.5,4.3-4.9,6.3c-0.3,1.8,4.7,3,6.1,5.1c2,2.9,3.7,6.4,5.7,9.1
	c-0.5,2.4-0.3,5.8-0.9,8.2c-0.5,2.4-2.1,4.5-2.6,6.9c-0.6,2.4-4.3,4-4.9,6.3c-0.6,2.4-0.2,4.9-0.8,7.3l-0.7,4.5L75,414.4L78,410.3z
	 M246.5,159.8C246.5,159.8,246.4,159.8,246.5,159.8C246.5,159.7,246.5,159.7,246.5,159.8z M127.8,245.3c-0.1,0-0.3,0-0.4,0
	C127.6,245.2,127.8,245.2,127.8,245.3z"/>
<path class="st0" d="M114.2,438c2.4-0.8,5.3,1.4,7.8,1.2c2.4-0.2,4.4-0.3,7,0.3c2,0.4,4.4-1.8,6.3-2.4c2-0.7,4.7-0.6,5.9-2.3
	c0.3,0.1-0.7,1.3-0.4,1.4c1.9,0.6,4.7,0.5,7-0.1c-0.4,0.1-0.7,0.3-0.6,0.3c1.7,1.8,6.6-2.2,8.9-2.1c2.3,0.1,2.9-0.8,4.9-2
	c2-1.2,6.2,0.7,6.6-1.6c2.1,0.3,3-2,5-2.9c2-0.9,4.3-1.5,5.3-3.3c1-1.8,2.5-4.6,1.7-6.8c-0.7-2-4.4-4.2-5.2-6.2
	c2.1-0.8,3.1-2.9,4.2-4.8c1.1-1.8,5.9-1.6,5.7-3.9c2.6-1.9,3.9-5.3,4.1-8.6c2.1-0.4,3.7-1.4,5.1-3c1.4-1.5,3.8-4.8,3.7-7.2
	c-0.1-0.8-2.3-2.8-2.4-3.6c1.9,1.4,2.9,4.7,4.9,6c2.3,1.5,4.5-1.6,6.7-2.1c2.4-0.5,7.3,2.5,8.7,0.5c1.5-1.9-1.4-6.5-1.7-9
	c1.6-1.1,5.4-1.7,6.2-3.5c0.8-1.8-0.1-4.2-0.5-6.1c0-0.1-0.1-0.2-0.2-0.4c0.1,0.1,0.2,0.2,0.2,0.2c2.8,1.4,6.9,0.8,9.3-0.1
	c2.6-0.9,2.4-5.1,3.6-7.4c0.7-1.4,2.6-3,3.9-4.6c0.1,0.8,0.3,1.4,0.6,1.6c2.7,1.6,6.5-2.5,8.8-3.1c2.6-0.8,6.3,1.2,7.4-1.3
	c2.8,0.5,4.6-3,7.7-2.8c2.4,0.1,4.3,0.5,6-0.9c1.8-1.5,2.3-5,2.8-7.2c2.7,0.5,7.8,2.9,9.6,1.1c1.8-1.7-0.8-6.1-0.5-8.7
	c0.3-2.5-0.2-3.3-1.8-5.5c-0.1-0.2,1.8-0.9,1.6-1.1c2.6,0.3,3.3-4.1,5.3-5.5c2.1-1.4,3.5-2.6,3.9-5.1c1.9,0,5.6,0.9,7.9,0.2
	c2.4-0.7,4.8-1.1,6-2.7c1.4-1.8-1.6-4-1.8-6.3c-0.1-1.3,1-2.8,1.4-4.2c2.2-0.3,5.9-1.7,7.5-3.3c1.6-1.6-0.3-8.3,0-10.6
	c2.8,1.2,7.7,5.2,10.2,3.9c2.6-1.4,2.8-7.4,3.4-10.2c2,1.5,5.1,2.6,7.1,2.7c2.3,0.1,3-1,4.7-2.3c1.7-1.3,5.5,1.1,6-1.1
	c1.9,1.2,2.7-3.6,4.8-3.8c2.2-0.2,3.9,0.8,5.6-0.5c1.8-1.3,5.3-2,5.7-4.1c0.4-1.9-2.1-3.9-3.6-6c-0.4-0.5-0.8-4.3-1.1-4.8
	c2.3,0.1,6.3,4.3,8.1,3.1c1.8-1.2,4.6-4.2,5.2-6.2c0.6-1.9-3.9-6.6-4.9-8.8c3.4-0.4,7.6-2.2,9.2-4.9c2.5,0.7,6.2,2.5,8.5,1.5
	c2.5-1.1,3.2-3.9,4.1-6.3c0.8-2.1,1.2-4-0.5-6.7c-1.4-2.3,0.6-4.6-0.8-6.8c1.9-2,1.9-4.2,1.9-7.1c1.9-1.3,4.2-3.3,4.8-5.5
	c0.5-1.9-2.1-4.7-3.3-7c2-0.4,3.4-2.8,4.9-4.3c1.5-1.5,4.6-3.3,5-5.2c0.5-2,0.4-6.4-0.8-8.3c-0.3-0.4-3.8-0.3-4.1-0.7
	c2.3-0.7,3.7-1.9,4.9-4.2c1.1-2.2,2.4-4.3,2-6.9c1.9-0.3,5.9,1.3,7.4,0.1c1.4-1.1,2.9-3.3,3.7-5.1c1.6,0.9,3.6,1.9,5.1,1.6
	c2.1-0.3,2.3-5.5,3.9-6.7c1.8-1.3,2.9-1.3,3.2-3.4c0.3-1.8,1.7-3.6,0.3-5.7c-2-2.9-6.8-4.8-8.8-7.4c0.5-2.4,2.2-5.9,2.8-8.3
	c0.5-2.4,0.7-4.8,1.3-7.2c0.6-2.4,0-5,0.5-7.4c0.6-2.4,1.4-4.7,2-7c0.6-2.4,2.7-4.3,3.3-6.7l1.1-3.1l-14.7-10.6l-1.9,8
	c-0.5,2.2-3.2,3.8-3.7,6c-0.5,2.2,2.3,5.1,1.8,7.3c-0.5,2.2-5.5,3.3-6,5.4s1.8,5.3,1.3,7.5c-0.5-0.1-2.7,1.6-3.3,1.5
	c-2.3-0.4-2.9-0.7-4.5,0.6c-1.6,1.3-4.6,0.3-5.2,2.4c-2.6-0.7-3.5,4.3-6,5.4c-2.7,1.2-6.8-0.9-7.5,1.6c-2.4-0.7-4.8,1.7-7.4,1.2
	c-2.3-0.5-4.2-2.2-6.1-1.3c-2.1,0.9-1.5,3.7-2.5,5.6c-1.1,1.9-5.7,2-5.2,4.3c-2.1,1.7,0.7,5.2,0.4,7.8c-0.3,2.5-2.2,5.2-0.2,7.4
	c1.4,1.7,5.9,0.9,7.2,2.6c1.4,1.7-1.9,5-0.6,6.7c-2.6,2.4-2,6.5-0.9,9.8c0.7,2.1,3.1,4.8,3.9,6.9c-1.7,0.8-2.3,3.1-3.3,4.7
	c-1,1.5-3.3,1.9-3.1,3.9c-1,0.6-2.7,2.1-3.5,3c-1.1-0.7-3-1.2-4.1-1.9c-2.2-1.3-3.7-0.9-6.1-0.2c-2.4,0.6-5.4-0.6-7,1.3
	c-2.5-0.5-3.7,2-5.5,3.4c-1.8,1.4-5.9,1.9-6.5,4.2c-0.6,2.2-1.5,6.2-0.7,8.5c0.3,0.9,3.9,1,4.2,1.9c-0.7-0.3-3,2.2-3.8,1.9
	c-2-0.9-3.4-5.4-5.3-4.7c-1.9,0.8-1,5.1-2.3,6.8c-1.3,1.7-3.1,3.5-3.1,5.5c-2.6-0.1-5.9-0.2-7.8,1.3c-2,1.6-2.3,5.1-2.4,7.7
	c-2.4-0.5-6-1.1-8.1,0.1c-2.2,1.2-1.3,3.9-2,6.2c-0.7,2.1-1.6,2.7-0.2,5.1c0.8,1.3-2.7,1.3-1.9,2.6c-2.3,0.3-3.6,2.4-5,4.1
	c-1.4,1.7,0.3,6,0.2,8.3c-1.6-0.1-3.9,0.8-5.6,0.9c-2.2,0.2-6.5-3.1-8.3-1.8c-1.9,1.4-2.1,5.7-2.7,7.8c-0.6,2,2.5,3.2,3.8,5.4
	c0.6,1,1,2.2,1.4,3.3c-0.1,0.1-0.2,0.3-0.2,0.2c0,0,0,0.1,0,0.1c-1.7-0.7-4.6,3.5-6,3.3c-2.2-0.4-3.2-2.1-4.7-1.3
	c-1.7,0.9-2,4.6-2.6,6.4c-1.6-0.8-5.1-3-6.7-3.9c-2.9-1.5-5.9-5.8-8.3-5c-2.7,0.9-1.8,6.6-2.8,9.2c-1,2.4-0.9,5.9,0.4,8.7
	c-2.9-0.5-9.1-2.6-10.8-0.8c-1.7,1.8-0.9,5.9-1.1,8.5c-0.2,2.6,2.8,3.1,4.4,5.1c0.4,0.6-2.2,2.8-1.7,3.3c-1.7,0.3-2.7,4.5-4,5.7
	c-2.5-1-5.3-3.9-7.6-2.9c-2.2,0.9-6.2,0.4-7.3,2.8c-2.1,0.4-3.4,3-4.7,4.8c-1.4,1.7-0.4,5.5-0.5,7.6c-2.8,0.3-3.2,3.2-5.2,5.7
	c-1.6,2.1-5.6,1.3-6,3.6c-2.6-0.4-4.5-1.6-6.5,0.2c-1.7-1.8-3.5-1.4-5.6-1.6c-2.2-0.2-2.8,5.3-4.7,6.5c-1.9,1.2-2.1,1.1-2.9,3.2
	c-0.7,1.9-3.9,3-3,5.3c-1.5,1.7-4.6,1.3-4.8,3.5c-2.7,0.1-4.7,2.3-6.3,4.1c-1.7,1.8-1.1,5.8-1.1,8.5c-2,1.3-2.7,4.3-3.6,6.7
	c-3,0.2-4.2,2.4-5.9,4.7c-1.7,2.3-6.2,3.1-5.3,6.1c-2.1,0.2-2.3,2-3.8,3.2c-0.6-0.6-2.7-0.3-3.2-0.9c-1.8-1.8-2.4-6.3-4.7-6.5
	c-2.3-0.1-5.2,2.2-7.2,3.4c-2.1,1.3-6,3-6.7,5.2c-0.6,2,0.8,6.3,2.4,8.6c0.5,0.7,1.2,1.3,1.7,2c0,0,2.4-1.7,2.4-1.7c0,0-3,2.3-3,2.3
	c0.3,0.4,3.3,0.1,3.5,0.5c-2.7,1.4-3.9,4.2-4.2,7.4c-2.7,0.1-7.4-3.8-10-3.2c-2.6,0.5-3.7,6.8-6.2,7.7c-2.5,0.9-5.4,0.5-7.8,1.6
	l-6.5,3.8l16.9,13.1L114.2,438z M406.9,172.5C406.9,172.5,407,172.5,406.9,172.5C407,172.5,407,172.5,406.9,172.5z M383.7,207.7
	C383.7,207.7,383.7,207.7,383.7,207.7C383.7,207.8,383.8,207.8,383.7,207.7z M235.7,348.3c-0.3-0.5-0.5-0.9-0.5-1
	C235.5,347.4,235.6,347.8,235.7,348.3z M218.2,365c-0.7-0.8-1.5-1.8-1.6-2.3C216.9,362.8,217.6,364,218.2,365z M148.9,435.7
	c0.3-0.1,0.7-0.3,1-0.4C149.9,435.3,149.4,435.5,148.9,435.7z"/>
<g>
	<path class="st11" d="M49.9,252.4c-0.3,0-0.6,0-0.9-0.1c-2.1-0.5-3.4-2.6-3-4.7c8.3-36.5,29.1-71.6,60.1-101.6
		C143.7,109.5,186.7,81.5,227,67c2.1-0.7,4.3,0.3,5,2.4c0.7,2.1-0.3,4.3-2.4,5c-39.4,14.1-81.3,41.5-118.1,77.1
		c-29.9,28.9-49.9,62.7-57.9,97.7C53.3,251.1,51.7,252.4,49.9,252.4z"/>
</g>
<g>
	<circle class="st11" cx="246.7" cy="65.7" r="3.9"/>
</g>
<g>
	<path class="st17" d="M210.5,493.9c-53.1,0-105.4-20.7-148.5-62.4l-4.3-4.5C-25.8,335-17.9,207,76.5,115.5
		c82.6-80.1,215.1-145.1,316.6-65.1c7.6,6,11.5,13.5,15,20.1c2.4,4.6,4.7,8.9,8.2,13.1c4.1,3.6,8.3,6,12.8,8.6
		c6.5,3.7,13.9,7.8,19.6,15.6c77.1,104.4,8,234.9-74.5,314.9C325.4,470.1,267.5,493.9,210.5,493.9z M78.5,414.7
		c79.7,76.9,194.6,73.3,279.3-8.9c75.7-73.4,140-191.8,72-284c-2.8-3.8-6.7-6-12.2-9.1c-5.4-3-11.5-6.5-17.7-12.2l-0.9-1
		c-5.5-6.4-8.8-12.6-11.7-18.1c-2.9-5.6-5-9.6-8.7-12.5C289-1.7,168.7,59,93,132.4C8.1,214.6,0.7,329.1,74.9,410.9L78.5,414.7z"/>
</g>
</svg>
