<?xml version="1.0" encoding="utf-8"?>
<!-- Generator: Adobe Illustrator 20.0.0, SVG Export Plug-In . SVG Version: 6.00 Build 0)  -->
<svg version="1.1" id="Layer_1" xmlns="http://www.w3.org/2000/svg" xmlns:xlink="http://www.w3.org/1999/xlink" x="0px" y="0px"
	 viewBox="0 0 500 500" style="enable-background:new 0 0 500 500;" xml:space="preserve">
<style type="text/css">
	.st0{fill:#72621E;}
	.st1{fill:#CBBE7C;}
	.st2{fill:#998E5F;}
	.st3{fill:#00FFFF;}
	.st4{clip-path:url(#SVGID_2_);}
	.st5{fill:none;stroke:#CBBE7C;stroke-width:2;stroke-miterlimit:10;}
	.st6{fill:#E5D58F;stroke:#CBBE7C;stroke-miterlimit:10;}
	.st7{fill:none;stroke:#CBBE7C;stroke-width:2;stroke-linecap:round;stroke-miterlimit:10;}
	.st8{fill:#E1C25F;}
	.st9{fill:#DABF62;}
	.st10{fill:#CEBC5A;}
	.st11{fill:#BEB74F;}
	.st12{fill:#B6B44C;}
	.st13{fill:#998617;}
	.st14{fill:#FFFFFF;}
</style>
<path class="st0" d="M452.1,87.7c-4.5-2.7-9.5-4.1-14.6-4.1c-15.1,0-24.3,11.2-30.5,18.6c-5.2,6.3-12.3,15.7-20.9,27.9
	c-10.7,15-24.3,35-40,58.7c-0.1-0.1-0.2-0.2-0.2-0.4c0.8-1.4,1.6-2.7,2.4-4.1c3.6-6.4,6.4-12.2,8.1-17.4c1.3-3.8,2.1-7.2,2.4-10.4
	c0.9-9.4-2.5-15.9-5.2-19.6c0.4-0.7,0.8-1.4,1.2-2.1c3.6-6.4,6.4-12.2,8.1-17.4c1.3-3.8,2.1-7.2,2.4-10.4c1-10.7-3.5-17.8-6.4-21
	c-1.5-1.8-4.1-4.2-7.9-6.1c0.2-1.2,0.4-2.2,0.6-3c1.1-6.4,1.6-12.1,1.5-17c-0.3-15.7-7.7-23.2-13.8-26.7c-3-1.7-6.3-2.8-9.7-3.2
	c0,0,0,0,0,0C327,22.6,320,2.4,300.7,1.4c-0.5,0-0.9,0-1.3,0c0,0,0,0,0,0c-10,0-18.4,5.3-25,15.7c-2.6,4-5.1,9.1-7.5,15
	c-0.9,2.3-2.4,6-3.8,10.6c-3.9,0.1-7.8,1.2-11.2,3c-6.4,3.4-14.1,10.8-14.6,26.9c-0.2,4.9,0.3,10.7,1.3,17.2c0,0.2,0.1,0.5,0.1,0.7
	c-3.8,2.5-9.1,7.4-11.5,16.2c-0.9,3.1-1.3,6.6-1.5,10.6c-0.2,5.4,0.3,11.8,1.4,19.1c0.4,2.5,0.8,5,1.3,7.5
	c-3.4,2.8-7.2,7.4-9.1,14.4c-0.9,3.1-1.3,6.6-1.5,10.6c-0.2,5.4,0.3,11.8,1.4,19.1c0.3,2.1,0.7,4.1,1.1,6.2
	c-2.7,2.1-5.7,5.2-7.9,9.9c-0.1-6.8-0.6-12.7-1.6-17.7c-0.8-3.9-1.8-7.3-3.1-10.2c-3.6-7.8-9-11.8-13.2-13.8c0-1.6,0-3.2,0-4.8
	c-0.1-7.4-0.6-13.8-1.6-19.1c-0.8-3.9-1.8-7.3-3.1-10.2c-3.9-8.6-10.1-12.6-14.3-14.4c0-0.8,0-1.6,0-2.5c-0.1-7.4-0.6-13.8-1.6-19.1
	c-0.8-3.9-1.8-7.3-3.1-10.2c-4.5-9.8-11.9-13.6-16-15c-2.7-0.9-5.5-1.4-8.4-1.4c0,0,0,0,0,0c-0.5,0-1,0-1.5,0
	c-0.4-1.1-0.7-2.1-1-2.9c-2.2-6.1-4.6-11.3-7.2-15.5c-8.1-13.4-18.1-16.2-25.1-16.2h-0.1l-0.1,0c-2.9,0-6.4,0.5-10,2.1
	C90.9,24.1,82.3,20,73.7,20c-4.1,0-8.1,1-11.7,2.8C55.6,26,47.8,33.3,47,49.2C46.8,54,47.2,59.7,48,66c0.3,2.5,1,6.5,2,11.2
	c-3.9,2.4-6.4,5.4-8.2,8.2C38,91.5,35,101.8,42.6,116c2.3,4.3,5.6,9.1,9.7,14.3c0.1,0.2,0.3,0.4,0.5,0.6c-2.1,4.1-4.2,10.9-1.9,19.8
	c0.8,3.1,2.1,6.4,4,9.9c2.6,4.8,6.2,10.1,10.8,15.9c1.6,2,3.2,3.9,4.9,5.8c-1.5,4.1-2.5,9.9-0.7,17.1c0.8,3.1,2.1,6.4,4,9.9
	c2.6,4.8,6.2,10.1,10.8,15.9c1.3,1.6,2.6,3.2,4,4.8c-1.7,4.2-3,10.3-1,17.9c0.8,3.1,2.1,6.4,4,9.9c2.6,4.8,6.2,10.1,10.8,15.9
	c0.7,0.9,1.4,1.8,2.1,2.6c-2,4.1-4,10.8-1.7,19.5c0.8,3.1,2.1,6.4,4,9.9c2.6,4.8,6.2,10.1,10.8,15.9c0.4,0.5,0.9,1.1,1.3,1.6
	c-2.1,4.1-4.2,10.9-1.9,19.8c0.8,3.1,2.1,6.4,4,9.9c2.6,4.8,6.2,10.1,10.8,15.9c9.5,11.9,20.8,22.6,30,28.4c4,2.5,8.2,4.4,12.6,5.6
	c9.9,38.4,14,61.1,14.1,61.3c0.9,5,3,9.7,6,13.7c3.9,6.3,9.2,11.6,15.7,15.4c7.2,4.3,15.4,6.6,23.7,6.6c4,0,7.9-0.5,11.7-1.5
	c11.9-3.2,22-11,28.6-22c33.2-55.6,83.1-143.6,121.4-213.9c21.5-39.5,38.9-72.7,50.5-96.1c6.6-13.4,11.5-24,14.6-31.6
	c2.6-6.5,4.5-12,5.2-17.6C467.3,104.5,462.1,93.6,452.1,87.7z"/>
<path class="st8" d="M106.1,76c4.5,8.8,2.2,19.1-5.3,22.9c-7.4,3.8-17.1-0.3-21.6-9.1c-6.8-13.4-10.8-43.3-6.3-45.6
	C77.2,41.9,98.4,61.1,106.1,76z"/>
<path class="st8" d="M127.5,100.1c0.1,10.3-6.9,18.7-15.5,18.8c-8.6,0.1-15.7-8.2-15.8-18.5c-0.1-15.6,10.1-45.2,15.3-45.2
	C116.6,55.1,127.4,82.8,127.5,100.1z"/>
<path class="st8" d="M108.7,108.9c8.7,5.5,12.1,15.8,7.5,23.2c-4.6,7.3-15.4,8.8-24.1,3.3c-13.2-8.3-32.7-32.8-29.9-37.2
	C64.8,93.9,93.9,99.6,108.7,108.9z"/>
<path class="st8" d="M113.3,132.9c-3.8,11.2,0.7,22.8,10.1,26c9.4,3.2,20.1-3.3,23.9-14.4c5.8-17,5.4-52.8-0.3-54.8
	C141.6,87.9,119.8,114.1,113.3,132.9z"/>
<path class="st8" d="M127.5,154.1c10,6.3,13.8,18.2,8.6,26.6s-17.7,10.1-27.7,3.8c-15.2-9.5-37.5-37.6-34.3-42.7
	C77.2,136.9,110.7,143.4,127.5,154.1z"/>
<path class="st9" d="M132.4,179c-3.8,11.2,0.7,22.8,10.1,26s20.1-3.3,23.9-14.4c5.8-17,5.4-52.8-0.3-54.8
	C160.6,134,138.8,160.2,132.4,179z"/>
<path class="st9" d="M146.5,202.7c10,6.3,13.8,18.2,8.6,26.6s-17.7,10.1-27.7,3.8c-15.2-9.5-37.5-37.6-34.3-42.7
	C96.2,185.5,129.6,192.1,146.5,202.7z"/>
<path class="st10" d="M150.2,227c-3.8,11.2,0.7,22.8,10.1,26s20.1-3.3,23.9-14.4c5.8-17,5.4-52.8-0.3-54.8
	C178.5,181.9,156.7,208.1,150.2,227z"/>
<path class="st10" d="M164.3,251.1c10,6.3,13.8,18.2,8.6,26.6c-5.3,8.4-17.7,10.1-27.7,3.8c-15.2-9.5-37.5-37.6-34.3-42.7
	C114,234,147.4,240.5,164.3,251.1z"/>
<path class="st11" d="M167.1,275.3c-3.8,11.2,0.7,22.8,10.1,26c9.4,3.2,20.1-3.3,23.9-14.4c5.8-17,5.4-52.8-0.3-54.8
	C195.4,230.3,173.6,256.5,167.1,275.3z"/>
<path class="st11" d="M179.5,299c10,6.3,13.8,18.2,8.6,26.6c-5.3,8.4-17.7,10.1-27.7,3.8c-15.2-9.5-37.5-37.6-34.3-42.7
	C129.2,281.8,162.6,288.4,179.5,299z"/>
<path class="st12" d="M182.8,325.3c-3.8,11.2,0.7,22.8,10.1,26c9.4,3.2,20.1-3.3,23.9-14.4c5.8-17,5.4-52.8-0.3-54.8
	C211.1,280.2,189.3,306.4,182.8,325.3z"/>
<path class="st12" d="M193.7,346.2c10,6.3,13.8,18.2,8.6,26.6c-5.3,8.4-17.7,10.1-27.7,3.8c-15.2-9.5-37.5-37.6-34.3-42.7
	C143.4,329,176.8,335.5,193.7,346.2z"/>
<path class="st8" d="M312.2,69.6c-0.5,9.9-7.7,17.6-16,17.2c-8.3-0.4-14.6-8.8-14.1-18.7c0.8-15,12.2-42.9,17.3-42.6
	C304.2,25.6,313.1,52.8,312.2,69.6z"/>
<path class="st8" d="M318.8,101.2c-5.1,9-15.3,12.8-22.8,8.5c-7.5-4.3-9.5-15-4.4-23.9c7.7-13.6,31.3-34.1,35.9-31.5
	C331.8,56.7,327.4,86.1,318.8,101.2z"/>
<path class="st8" d="M298.1,99.3c4.8,9.1,2.5,19.8-5.1,23.8c-7.6,4-17.7-0.1-22.6-9.2c-7.3-13.8-11.9-44.7-7.3-47.2
	C267.5,64.4,289.9,84,298.1,99.3z"/>
<path class="st9" d="M290.1,122.5c-8.9,7.8-10.8,20.1-4.3,27.6s19,7.2,27.9-0.6c13.5-11.8,31.1-43,27.1-47.6
	C337.1,97.6,305.1,109.4,290.1,122.5z"/>
<path class="st9" d="M291.9,147.9c5.5,10.4,2.9,22.7-5.9,27.3c-8.8,4.6-20.3-0.1-25.9-10.5c-8.4-15.9-13.7-51.3-8.3-54.1
	C256.9,107.9,282.5,130.3,291.9,147.9z"/>
<path class="st10" d="M283.6,172c-8.9,7.8-10.8,20.1-4.3,27.6s19,7.2,27.9-0.6c13.5-11.8,31.1-43,27.1-47.6
	C330.6,147.1,298.6,158.8,283.6,172z"/>
<path class="st10" d="M284,199.5c5.5,10.4,2.9,22.7-5.9,27.3c-8.8,4.6-20.3-0.1-25.9-10.5c-8.4-15.9-13.7-51.3-8.3-54.1
	C249,159.5,274.7,181.9,284,199.5z"/>
<path class="st11" d="M275.1,222.4c-8.9,7.8-10.8,20.1-4.3,27.6s19,7.2,27.9-0.6c13.5-11.8,31.1-43,27.1-47.6
	C322.1,197.5,290.1,209.3,275.1,222.4z"/>
<path class="st11" d="M275.2,250.4c5.5,10.4,2.9,22.7-5.9,27.3c-8.8,4.6-20.3-0.1-25.9-10.5c-8.4-15.9-13.7-51.3-8.3-54.1
	C240.2,210.3,265.9,232.7,275.2,250.4z"/>
<path class="st8" d="M233.9,473.1c-3.5,0-7-1-10.1-2.8c-4.6-2.8-7.9-7.1-9.1-12.2c-1.2-5.2-0.3-10.9,2.8-15.9
	c33-55.3,84.7-137.8,128.6-205.2c24.1-37.1,44.9-67.9,59.9-89.3c8.3-11.8,15.1-20.9,20.1-27.1c7.8-9.7,10-10.5,11.3-10.5
	c0.4,0,0.8,0.1,1.1,0.3c2.3,1.3,0.9,6-2.3,14c-2.8,7-7.5,17-13.8,29.8c-11.4,23.1-28.7,56-50,95.2c-38.2,70.1-87.9,157.7-120.9,213
	C247.5,469.1,240.9,473.1,233.9,473.1z"/>
<path class="st13" d="M440.3,107.3c-0.9-0.5-1.9-0.8-2.9-0.8h0h0c-3,0-5.9,1.8-14,11.8c-5.1,6.3-11.9,15.4-20.3,27.3
	c-15.1,21.4-35.9,52.3-60,89.4c-27,41.4-56.9,88.5-83.6,131.6c-1.4,2.2-4.7,0.7-4.1-1.8c2.1-8.1,4.2-16.6,6.3-25.6
	c4.1-17,8.4-36.4,12.8-57.9c0.3-1.7,1.1-3.3,2.2-4.6c3.1-3.5,4.9-8.2,5.3-13.1c0.2-2.4,2-4.2,4.4-4.6c9.1-1.3,15-6.7,15-6.7
	c7.8-6.8,15.9-18.7,20.9-27.5c3.1-5.5,11.4-20.1,6.5-25.6c-0.6-0.6-1.7-1.9-5.1-2.2c-3.5-0.3-5.3-4.3-3.2-7.1
	c3.9-5.2,7.5-10.8,10.2-15.5c3.1-5.5,11.4-20.1,6.5-25.6c-0.6-0.7-1.9-2.2-5.9-2.2c-3.6-0.1-5.7-4.2-3.5-7.1
	c3.6-4.9,6.9-10.1,9.5-14.5c3.1-5.5,11.4-20.1,6.5-25.6c-0.8-1-2.9-3.3-11.6-1.6c-3.4,0.7-6.2-2.6-5.1-5.8c2-5.6,3.6-11.9,4.7-18.2
	c3.3-19.5-0.9-21.9-2.4-22.8c-1.1-0.6-3.2-1.8-8.9,1.1c-2.6,1.4-5.8-0.1-6.4-3c-0.6-2.9-1.4-5.9-2.3-8.8
	c-5.6-18.4-10.3-18.6-12.1-18.7c-1.8-0.1-6.6-0.3-14.1,18c-3.2,8-6.9,19.6-7.3,28.3l0,0c0,1-1.2,1.5-2,0.9
	c-10.2-7.9-13.5-6.2-14.9-5.4c-1.6,0.9-6,3.2-2.9,23.4c0.7,4.4,1.8,9.7,3.2,14.9c1,3.5-2.3,6.5-5.7,5.4c-3.5-1.2-5.1-0.3-5.9,0.1
	c-1.8,0.9-6.5,3.4-3,26.2c0.9,5.7,2.3,12.6,4.3,19.2c0.9,3.2-1.8,6.1-5.1,5.6c-2.2-0.4-3.4,0.2-4.1,0.6c-1.8,0.9-6.5,3.4-3,26.2
	c0.8,5.5,2.2,12.2,4.1,18.6c1,3.3-1.9,6.4-5.2,5.6c-2.7-0.6-4,0.1-4.7,0.5c-1.8,0.9-6.5,3.4-3,26.2c1.5,10,4.9,24,9.7,33.2
	c2.7,5.1,6.6,9,11.1,11.4c4.1,2.2,6.1,7,5.1,11.5c-11.8,55.4-23.8,99.3-32.3,127.5c-0.7,2.2-3.8,2.1-4.4-0.1
	c-2.9-12.5-6.7-27.8-11.5-45.5c-0.4-1.5-0.4-3.1,0-4.6c0.9-3.7,0.7-7.7-0.5-11.7c-0.1-0.4-0.2-0.7-0.4-1.1c-0.5-1.2,0-2.5,1.1-3.1
	c5.4-3,10-8.3,12.3-15.1c3.3-9.8,4.5-24.1,4.4-34.3c-0.2-23.1-5.2-24.8-7.1-25.4c-0.7-0.2-2.1-0.7-4.6,0.2c-2.8,1.1-5.8-1.2-5.3-4.1
	c1-7.1,1.4-14.6,1.3-20.6c-0.2-23.1-5.2-24.8-7.1-25.4c-0.8-0.3-2.5-0.8-5.5,0.6c-2.8,1.3-5.9-1-5.5-4.1c0.9-6.8,1.2-13.8,1.2-19.5
	c-0.2-23.1-5.2-24.8-7.1-25.4c-0.9-0.3-2.7-0.9-6.2,1c-2.8,1.5-6.2-0.7-5.7-3.8c0.9-6.8,1.2-13.9,1.2-19.7
	c-0.2-23.1-5.2-24.8-7.1-25.4c-1-0.3-3-1-7.1,1.5c-2.8,1.7-6.3-0.6-5.9-3.8c0.8-6.4,1.1-13,1-18.4c-0.2-23.1-5.2-24.8-7.1-25.4
	c-1.3-0.4-4.4-1.5-11.5,5c-2.3,2-5.9,0.8-6.5-2.2c-1.1-6.1-2.9-12.7-5.2-19.1c-6.9-18.6-11.7-18.5-13.5-18.5c-1.1,0-3.4,0-6.5,4.5
	c-2,2.9-6.2,3.2-8.7,0.6c-1.7-1.9-3.6-3.7-5.5-5.5c-14-13.1-18.2-11-19.8-10.1c-1.6,0.8-5.9,3-3.2,22.6c1.2,8.5,3.8,20.4,7.8,28.2
	l0,0c0.5,0.9-0.3,1.9-1.3,1.8c-12.8-1.8-14.8,1.4-15.6,2.7c-1,1.6-3.6,5.7,9.2,21.7c3,3.7,6.9,8.1,11,12.1c2.3,2.2,1,6.1-2.2,6.6
	c-4.4,0.7-5.5,2.4-6,3.2c-1.1,1.7-3.9,6.2,10.5,24.2c3.7,4.7,8.7,10.2,13.9,15c2.2,2.1,1.3,5.7-1.6,6.6c-2.6,0.8-3.4,2.1-3.8,2.7
	c-1.1,1.7-3.9,6.2,10.5,24.2c3.6,4.6,8.5,9.9,13.6,14.7c2.2,2.1,1.3,5.9-1.7,6.6c-3.2,0.8-4.1,2.2-4.6,2.9
	c-1.1,1.7-3.9,6.2,10.5,24.2c3.4,4.2,7.8,9.2,12.5,13.7c2.3,2.2,1.1,6.1-2.1,6.7c-4.1,0.7-5.2,2.4-5.7,3.2
	c-1.1,1.7-3.9,6.2,10.5,24.2c3.2,4,7.4,8.7,11.8,13.1c2.3,2.3,1.1,6.2-2.1,6.6c-4.4,0.7-5.5,2.4-6,3.2c-1.1,1.7-3.9,6.2,10.5,24.2
	c6.3,7.9,16.3,18.4,25,23.9c4.7,2.9,9.9,4.4,14.8,4.4l0.1,0c4.2,0,7.8,2.8,8.9,6.8c6.5,24.9,10.8,43.9,13.2,55.5
	c0.6,2.9,1,5.9,1.2,8.9c0.1,1.1,0.3,2.2,0.5,3.3c1.4,6,5.2,11.1,10.7,14.4c3.7,2.2,7.8,3.3,11.9,3.3c8.3,0,16-4.6,20.6-12.3
	c33-55.4,82.8-143,121-213.1c21.3-39.2,38.7-72.2,50.1-95.3c6.4-12.9,11-23,13.9-30.1C443,116.8,445.2,110.3,440.3,107.3z
	 M322.5,204.8C322.5,204.8,322.5,204.8,322.5,204.8c-0.9,6.8-14.1,31-26.3,41.7c-4.3,3.7-9.5,5.4-14.1,5c-1.3-0.1-2.4-0.8-2.9-2
	c-0.1-0.3-0.3-0.6-0.5-0.9c-1.7-3.2-3.9-6.6-6.6-10.2c-0.7-0.9-0.9-2-0.6-3c0.9-3.6,3-7.1,6.3-10
	C291.2,213.6,315.8,204.8,322.5,204.8z M330.9,154.4C330.9,154.4,330.9,154.4,330.9,154.4c-0.9,6.8-14.1,31-26.3,41.7
	c-3.4,3-7.4,4.6-11.3,5c-2.4,0.2-4.7-1.1-5.9-3.3c0,0,0,0,0,0c-1.6-2.9-3.6-6.1-6-9.4c-1.3-1.7-1.6-3.9-0.7-5.9
	c1.1-2.7,3-5.3,5.4-7.5C299.6,163.1,324.3,154.4,330.9,154.4z M337.5,104.9C337.5,104.9,337.5,104.9,337.5,104.9
	c-0.9,6.8-14.1,31-26.3,41.7c0,0-3.9,3.9-10,4.8c-1.9,0.3-3.8-0.8-4.6-2.6c-0.4-0.9-0.8-1.8-1.2-2.7c-1.6-3-3.7-6.2-6.2-9.5
	c-1.5-2-1.6-4.7-0.3-6.7c1-1.6,2.3-3,3.8-4.3C306.2,113.7,330.8,104.9,337.5,104.9z M325.1,58.4c0.8,6.4-2.5,28.1-9.7,40.9
	c-1.2,2.1-2.7,3.8-4.4,5.2c-2.6,2.1-6.6,0.9-7.5-2.4c-0.5-1.6-1.1-3.1-1.9-4.6c-1.2-2.3-2.8-4.8-4.6-7.3c-1.2-1.6-1.2-3.8-0.1-5.5
	C304.4,73.7,319.5,60.9,325.1,58.4z M286.1,68.2c0.7-13,8.9-32.9,13.1-38c2.7,4.1,7.1,16.6,8.6,28.6c0.2,1.4-0.3,2.7-1.3,3.6
	c-4.1,3.7-8.7,8.4-12.5,13.2c-2,2.5-6.1,1.8-7.1-1.3C286.2,72.4,285.9,70.4,286.1,68.2z M265.3,71c5.8,2.8,22.4,17.2,29.2,30.2
	c0,0,3.4,4.6,2.1,10.1c-0.3,1.2-1,2.1-2,2.8c-1.7,1-4.6,3-7.2,5.4c-1,0.9-2.3,1.3-3.6,1c-3.9-0.9-7.7-3.9-10.1-8.3
	C267.6,100.4,264.3,77.6,265.3,71z M253.9,114.5c6.2,2.4,26.1,19.4,34.5,35.2c1.1,2,1.8,4.1,2.1,6.2c0.6,3.3-0.9,6.6-3.7,8.6
	c-2.2,1.5-4.1,3-5.9,4.5c-0.1,0.1-0.1,0.1-0.2,0.2c-3.1,2.7-7.6,3.2-10.9,0.8c-2.4-1.7-4.6-4.2-6.2-7.2
	C256,148.5,252.3,121.3,253.9,114.5z M246,166.1c6.2,2.4,26.1,19.4,34.5,35.2c1.5,2.8,2.3,5.7,2.4,8.5c0.1,1.2-0.6,2.4-1.6,3.1
	c-3.4,2.1-6.3,4.3-8.8,6.5c-1.1,1-2.1,2-3,3c-1,1.2-2.6,1.7-4,1.1c0,0,0,0,0,0c-4-1.6-7.5-4.9-9.7-9.1
	C248.2,200.1,244.5,172.9,246,166.1z M246.9,265.3c-7.6-14.3-11.3-41.6-9.7-48.3c6.2,2.4,26.1,19.4,34.5,35.2
	c4.5,8.5,2.6,18.4-4.2,22C260.7,277.8,251.4,273.8,246.9,265.3z M199.4,236.4c2.6,6.4,3.2,33.9-2,49.2c-1.5,4.3-4.1,7.7-7.2,9.9
	c-2.5,1.8-5.9,1.7-8.5,0.1l0,0c-2.1-1.3-4.6-2.7-7.2-3.9c-2.5-1.2-4.3-3.7-4.5-6.5c-0.3-2.8,0.1-5.8,1.1-8.7
	C176.6,259.7,193.6,239.7,199.4,236.4z M182.5,188c2.6,6.4,3.2,33.9-2,49.2c-1.6,4.8-4.8,8.5-8.4,10.7c-1.8,1-4,1-5.7-0.1l0,0
	c-2-1.3-4.3-2.5-6.7-3.7c-4.6-2.2-7.4-7.2-6.6-12.3c0.2-1.2,0.5-2.4,0.9-3.7C159.7,211.3,176.7,191.4,182.5,188z M164.6,140.1
	c2.6,6.4,3.2,33.9-2,49.2c-1.5,4.5-4.4,8.3-8.2,10.5c0,0,0,0,0,0c-1.6,1-3.7,0.9-5.2-0.2c-0.2-0.1-0.4-0.3-0.6-0.4
	c-2.9-1.9-6.5-3.7-10.4-5.3c-1.5-0.7-2.7-2-3-3.7c-0.5-3.1-0.3-6.6,0.9-10C141.9,163.4,158.9,143.4,164.6,140.1z M145.6,94
	c2.6,6.4,3.2,33.9-2,49.2c-1.5,4.5-4.4,8.3-8.2,10.5c-0.4,0.2-0.7,0.4-1.1,0.6c-1.4-1.4-3-2.6-4.7-3.7c-2.9-1.8-6.3-3.6-10.1-5.2
	c-2.2-0.9-3.7-3.1-3.6-5.5c0.1-1.9,0.4-3.9,1.1-5.8C122.8,117.3,139.8,97.3,145.6,94z M100.4,95.7c1.3-13.2,7.7-31,11.2-35.8
	c3.9,5.1,11.9,25.6,12,40.3c0,4.1-1.2,7.9-3.6,10.7c-0.1,0.2-0.3,0.3-0.4,0.5c-0.7,0.8-1.9,0.7-2.5-0.1c-1.7-2.2-3.8-4.1-6.4-5.7
	c-2-1.2-4.2-2.4-6.7-3.6C101.6,100.8,100.2,98.3,100.4,95.7z M75,48.4c4.3,2.1,13.8,10.3,21.1,19.6c1.3,1.6,1.6,3.7,1,5.7
	c-1.9,6.1-3.7,13.6-4.5,20.3c-0.1,1.1-1.3,1.8-2.2,1.3c0,0,0,0,0,0c-3.2-1.4-6-4-7.7-7.5C76.8,76.4,74,54.9,75,48.4z M66.1,100.7
	c6.4-0.5,27.9,3.7,40.4,11.5c1.9,1.2,3.5,2.7,4.8,4.4c1.9,2.5,2.1,6,0.8,8.9c-1,2.2-1.8,4.2-2.5,6.2c-0.2,0.6-0.4,1.1-0.5,1.7
	c-4.1,2.2-10,1.9-15-1.3C82.8,125,68.6,106.9,66.1,100.7z M78,144.1c6.6-1,32.3,3.7,47.5,13.3c2.7,1.7,5,3.9,6.5,6.5
	c1,1.7,1.1,3.7,0.3,5.5c-1.5,3-2.7,5.8-3.6,8.5c-0.3,0.8-0.5,1.5-0.7,2.3c-0.5,2.1-2.3,3.8-4.4,4.1c0,0,0,0,0,0
	c-4.3,0.6-8.9-0.5-13-3C96.8,172.5,80,150.7,78,144.1z M97,192.7c6.6-1.1,32.3,3.7,47.5,13.3c1.8,1.1,3.4,2.5,4.7,4
	c1.8,2,2.2,4.9,1,7.3c-1.5,2.9-2.7,5.8-3.6,8.4c-0.2,0.7-0.5,1.5-0.7,2.2c-0.8,3.1-3.7,5.2-6.9,5c-3.1-0.2-6.4-1.2-9.4-3.1
	C115.8,221.1,99,199.4,97,192.7z M114.7,241.2c6.6-1,32.3,3.7,47.5,13.3c0.7,0.4,1.3,0.9,1.9,1.3c3.3,2.6,4.2,7.1,2.4,10.9
	c-1.2,2.6-2.3,5.1-3.1,7.4c0,0.1-0.1,0.2-0.1,0.3c-1.6,4.8-6.7,7.6-11.5,6c-1.5-0.5-3.1-1.2-4.5-2.2
	C133.5,269.6,116.7,247.8,114.7,241.2z M129.9,289c6.6-1.1,32.3,3.7,47.5,13.3c1.9,1.2,3.6,2.7,5,4.3c1.8,2.2,2.2,5.3,0.9,7.8
	c-1.7,3.4-3.1,6.6-4.1,9.6c0,0,0,0.1,0,0.1c-1,3.1-4,5.3-7.3,5c-3.1-0.2-6.3-1.3-9.3-3.1C148.8,317.4,131.9,295.7,129.9,289z
	 M199,370.6c-4.1,6.5-14.1,7.7-22.2,2.6c-13.7-8.6-30.6-30.4-32.6-37c6.6-1,32.3,3.7,47.5,13.3c4.1,2.5,7,6.2,8.4,10.4
	C201.2,363.7,200.9,367.6,199,370.6z M196.9,343.5c-0.4-0.2-0.7-0.5-1.1-0.7c-1.6-1-3.3-1.9-5.1-2.9c-3.6-1.8-5.6-5.7-5-9.6
	c0.2-1.2,0.5-2.5,0.9-3.8c5.8-16.9,22.8-36.9,28.5-40.2c2.6,6.4,3.2,33.9-2,49.2c-0.8,2.4-2,4.5-3.4,6.3
	C206.6,345.8,201,346.4,196.9,343.5z M433,123.1c-2.8,6.9-7.4,16.9-13.7,29.6c-11.4,23.1-28.7,55.9-50,95.1
	c-38.1,70.1-87.8,157.6-120.8,212.9c-3.3,5.6-8.8,8.9-14.6,8.9c-2.9,0-5.8-0.8-8.3-2.3c-3.8-2.3-6.5-5.8-7.5-10
	c-1-4.3-0.2-9.1,2.4-13.3c33-55.3,84.6-137.7,128.5-205c24.1-37,44.8-67.8,59.9-89.2c8.3-11.7,15-20.8,20-26.9
	c3.5-4.4,5.7-6.7,7-7.9C435.2,117.6,433.6,121.5,433,123.1z"/>
<path class="st14" d="M232.1,460.7c-0.6,0-1.3-0.2-1.9-0.5c-1.6-1-2.1-3.2-1.1-4.8c12.4-19.8,27.5-44.7,43.9-71.9
	c1-1.7,3.1-2.2,4.8-1.2c1.7,1,2.2,3.1,1.2,4.8c-16.4,27.3-31.5,52.2-43.9,72C234.4,460.1,233.3,460.7,232.1,460.7z"/>
<circle class="st14" cx="283.7" cy="373.3" r="3.5"/>
<circle class="st14" cx="322.9" cy="305.1" r="3.5"/>
<path class="st14" d="M315.9,72.4c-1.1,0-2.2-0.5-3-1.3c-1.4-1.6-1.3-4.1,0.4-5.5c4.1-3.6,7.8-6.4,10.5-7.9c1.9-1,4.3-0.3,5.3,1.6
	c1,1.9,0.3,4.3-1.6,5.3c-2.1,1.1-5.5,3.7-9.1,6.9C317.7,72.1,316.8,72.4,315.9,72.4z"/>
<path class="st14" d="M275,85.1c-0.9,0-1.9-0.3-2.6-1c-3.3-3-6.6-5.5-8.7-6.7c-1.9-1.1-2.5-3.5-1.5-5.4c1.1-1.9,3.5-2.5,5.4-1.5
	c2.6,1.5,6.2,4.3,10,7.7c1.6,1.5,1.7,3.9,0.3,5.5C277.2,84.7,276.1,85.1,275,85.1z"/>
<path class="st14" d="M321.3,116.2c-1.5,0-3-0.9-3.6-2.4c-0.8-2,0.1-4.3,2.1-5.1c6.7-2.8,13-4.7,16.7-5.1c2.2-0.3,4.1,1.3,4.4,3.4
	c0.3,2.2-1.3,4.1-3.4,4.4c-2.2,0.3-7.4,1.6-14.6,4.6C322.3,116.1,321.8,116.2,321.3,116.2z"/>
<path class="st14" d="M268.8,132.8c-1,0-1.9-0.4-2.7-1.1c-4.8-4.5-9.8-8.6-12.9-10.3c-1.9-1.1-2.5-3.5-1.5-5.4
	c1.1-1.9,3.5-2.5,5.4-1.5c3.7,2.1,9,6.4,14.4,11.5c1.6,1.5,1.6,4,0.1,5.6C270.9,132.4,269.9,132.8,268.8,132.8z"/>
<path class="st14" d="M313,166.5c-1.5,0-3-0.9-3.6-2.4c-0.9-2,0.1-4.3,2-5.2c6.2-2.7,12.3-4.7,16.6-5.6c2.1-0.4,4.2,1,4.6,3.1
	c0.4,2.1-1,4.2-3.1,4.6c-3.8,0.7-9.2,2.6-15,5.1C314,166.4,313.5,166.5,313,166.5z"/>
<path class="st14" d="M260.6,183.9c-1,0-1.9-0.4-2.7-1.1c-5.6-5.2-10-8.5-12.3-9.9c-1.9-1.1-2.5-3.5-1.5-5.4
	c1.1-1.9,3.5-2.5,5.4-1.5c3.5,2,8.7,6.1,13.8,11c1.6,1.5,1.7,4,0.2,5.6C262.7,183.5,261.7,183.9,260.6,183.9z"/>
<path class="st14" d="M301.8,218.3c-1.5,0-2.9-0.8-3.6-2.3c-0.9-2,0-4.3,1.9-5.2c6.3-2.9,13-5.4,17.9-6.6c2.1-0.5,4.2,0.8,4.8,2.9
	s-0.8,4.2-2.9,4.8c-4.5,1.1-10.6,3.4-16.5,6.1C302.9,218.2,302.3,218.3,301.8,218.3z"/>
<path class="st14" d="M252,234.8c-1,0-1.9-0.4-2.7-1.1c-5.6-5.2-10-8.5-12.3-9.9c-1.9-1.1-2.5-3.5-1.5-5.4c1.1-1.9,3.5-2.5,5.4-1.5
	c3.5,2,8.7,6.1,13.8,11c1.6,1.5,1.7,4,0.2,5.6C254.1,234.4,253,234.8,252,234.8z"/>
<ellipse transform="matrix(0.4962 -0.8682 0.8682 0.4962 121.7299 276.5539)" class="st14" cx="299.2" cy="33.4" rx="4" ry="4"/>
<circle class="st14" cx="76.6" cy="51.8" r="4"/>
<path class="st14" d="M108.2,78.3c-0.4,0-0.9-0.1-1.3-0.2c-2.1-0.7-3.1-2.9-2.4-5c1.8-5.2,3.6-9.5,5.2-12c1.1-1.8,3.6-2.4,5.4-1.3
	c1.8,1.1,2.4,3.6,1.3,5.4c-1.3,2-2.9,6-4.5,10.5C111.4,77.3,109.8,78.3,108.2,78.3z"/>
<path class="st14" d="M80.5,108.2c-0.3,0-0.6,0-0.8-0.1c-4.4-1-8.5-1.5-10.9-1.5c-2.2,0-3.9-1.8-3.9-3.9s1.8-3.9,3.9-3.9
	c3,0,7.5,0.6,12.5,1.7c2.1,0.5,3.5,2.6,3,4.7C84,107,82.3,108.2,80.5,108.2z"/>
<path class="st14" d="M133.5,113.4c-0.8,0-1.7-0.3-2.4-0.8c-1.7-1.3-2-3.8-0.7-5.5c4.5-5.7,8.9-10.5,11.9-12.7
	c1.7-1.3,4.2-0.9,5.5,0.8c1.3,1.7,0.9,4.2-0.8,5.5c-1.8,1.3-5.6,5.1-10.4,11.2C135.8,112.8,134.6,113.4,133.5,113.4z"/>
<path class="st14" d="M97.7,153.7c-0.3,0-0.6,0-0.9-0.1c-6.4-1.6-12.8-2.6-16.3-2.6c-2.2,0-3.9-1.8-3.9-3.9s1.8-3.9,3.9-3.9
	c4.2,0,11,1.1,18.2,2.8c2.1,0.5,3.4,2.6,2.9,4.8C101,152.5,99.4,153.7,97.7,153.7z"/>
<path class="st14" d="M152.7,160c-0.8,0-1.6-0.3-2.4-0.8c-1.7-1.3-2.1-3.8-0.8-5.5c4.1-5.4,8.3-10.2,11.7-13.1
	c1.6-1.4,4.1-1.2,5.5,0.4c1.4,1.6,1.2,4.1-0.4,5.5c-2.9,2.5-6.8,6.8-10.5,11.8C155.1,159.5,153.9,160,152.7,160z"/>
<path class="st14" d="M115.9,202.1c-0.3,0-0.6,0-0.9-0.1c-7.4-1.8-12.9-2.4-15.6-2.4c-2.2,0-3.9-1.8-3.9-3.9s1.8-3.9,3.9-3.9
	c4,0,10.6,1,17.4,2.7c2.1,0.5,3.4,2.6,2.9,4.7C119.3,200.9,117.7,202.1,115.9,202.1z"/>
<path class="st14" d="M169.8,209.4c-0.8,0-1.6-0.2-2.3-0.7c-1.8-1.3-2.2-3.7-0.9-5.5c4-5.7,8.6-11.1,12.3-14.6
	c1.6-1.5,4.1-1.4,5.6,0.1c1.5,1.6,1.4,4.1-0.1,5.6c-3.3,3.2-7.6,8.2-11.3,13.5C172.3,208.8,171.1,209.4,169.8,209.4z"/>
<path class="st14" d="M133.7,250.6c-0.3,0-0.6,0-0.9-0.1c-7.4-1.8-12.9-2.4-15.6-2.4c-2.2,0-3.9-1.8-3.9-3.9s1.8-3.9,3.9-3.9
	c4,0,10.6,1,17.4,2.7c2.1,0.5,3.4,2.6,2.9,4.7C137.1,249.4,135.5,250.6,133.7,250.6z"/>
<path class="st14" d="M185.4,260.2c-0.8,0-1.6-0.2-2.3-0.7c-1.8-1.3-2.2-3.7-0.9-5.5c5.1-7.2,10.9-13.8,14.8-16.9
	c1.7-1.4,4.2-1.1,5.5,0.6c1.4,1.7,1.1,4.2-0.6,5.5c-2.7,2.1-8,7.8-13.3,15.3C187.9,259.6,186.7,260.2,185.4,260.2z"/>
<path class="st14" d="M151.4,298.6c-0.3,0-0.7,0-1.1-0.1c-6.4-1.8-12.9-3-17.5-3.4c-2.2-0.2-3.8-2.1-3.6-4.2
	c0.2-2.2,2.1-3.8,4.2-3.6c5.1,0.4,12.2,1.8,19,3.7c2.1,0.6,3.3,2.7,2.7,4.8C154.7,297.5,153.1,298.6,151.4,298.6z"/>
<path class="st14" d="M201.9,309.1c-0.8,0-1.6-0.2-2.3-0.7c-1.8-1.3-2.1-3.7-0.9-5.5c4.7-6.5,9.9-12.4,13.6-15.5
	c1.7-1.4,4.1-1.2,5.5,0.5c1.4,1.7,1.2,4.1-0.5,5.5c-2.4,2-7,6.9-12.3,14.1C204.3,308.5,203.1,309.1,201.9,309.1z"/>
<path class="st14" d="M167.6,346.8c-0.3,0-0.7,0-1.1-0.1c-6.5-1.8-13.2-3.1-17.9-3.5c-2.2-0.2-3.8-2-3.6-4.2c0.2-2.2,2-3.8,4.2-3.6
	c5.2,0.4,12.4,1.8,19.4,3.7c2.1,0.6,3.3,2.7,2.7,4.8C170.9,345.6,169.3,346.8,167.6,346.8z"/>
</svg>
