<svg xmlns="http://www.w3.org/2000/svg" width="48" height="48" viewBox="0 0 50 50"><path fill="#795548" d="M43,17c0-1.104-0.896-2-2-2c-0.438,0-0.839,0.145-1.168,0.383C39.936,15.107,40,14.812,40,14.5c0-1.381-1.119-2.5-2.5-2.5c-0.587,0-1.119,0.21-1.546,0.549C35.735,11.108,34.502,10,33,10c-0.921,0-1.734,0.424-2.285,1.078C30.001,10.415,29.052,10,28,10c-2.209,0-4,1.791-4,4c0,0.101,0.022,0.195,0.03,0.293C23.728,14.111,23.378,14,23,14c-1.104,0-2,0.896-2,2c0,0.366,0.105,0.705,0.277,1H43z"/><path fill="#FF5722" d="M19,18l2,9c0,0,7,3,13,3s11-12,11-12H19z"/><path fill="#FF5722" d="M46,19c0,0.553-0.447,1-1,1H19c-0.552,0-1-0.447-1-1v-1c0-0.553,0.448-1,1-1h26c0.553,0,1,0.447,1,1V19z"/><path fill="#37474F" d="M11 18H5c-.552 0-1 .447-1 1s.448 1 1 1h6V18zM39 30.001c-2.762 0-5 2.238-5 5s2.238 5 5 5 5-2.238 5-5S41.762 30.001 39 30.001zM39 38.001c-1.656 0-3-1.343-3-3s1.344-3 3-3 3 1.343 3 3S40.656 38.001 39 38.001z"/><path fill="#BF360C" d="M42.984,22c0.418-0.729,0.78-1.41,1.077-2H19.444l0.444,2H42.984z"/><path fill="#5D4037" d="M36.908,17C36.964,16.843,37,16.676,37,16.5c0-0.828-0.672-1.5-1.5-1.5c-0.18,0-0.35,0.037-0.51,0.095C34.992,15.063,35,15.032,35,15c0-1.104-0.896-2-2-2c-0.755,0-1.404,0.423-1.745,1.041C30.705,13.408,29.904,13,29,13c-1.657,0-3,1.343-3,3c0,0.353,0.072,0.686,0.184,1H36.908z"/><path fill="#9FA8DA" d="M39.703,34.289c-0.033-0.031-3.257-3.217-3.903-3.91c-0.861-0.939-2.28-1.08-3.458-0.35c-0.981,0.621-2.236,1.517-3.343,2.308c-0.705,0.504-1.356,0.969-1.846,1.297c-0.741,0.502-1.013,0.499-1.078,0.48c-0.298-0.063-0.856-0.968-1.126-1.404c-0.726-1.166-3.047-5.929-3.07-5.977c-0.061-0.125-0.147-0.236-0.253-0.326l-9.589-8.108c-0.091-0.077-0.194-0.128-0.3-0.166C11.594,18.056,11.439,18,11.266,18H11v0.153V20v0.042l9.173,7.757c0.452,0.924,2.376,4.841,3.076,5.965c0.722,1.169,1.358,2.081,2.406,2.307c0.156,0.033,0.311,0.049,0.464,0.049c0.811,0,1.563-0.429,2.151-0.826c0.499-0.335,1.167-0.812,1.891-1.329c1.086-0.774,2.315-1.653,3.243-2.239c0.233-0.146,0.674-0.265,0.927,0.012c0.68,0.729,3.832,3.844,3.966,3.977c0.394,0.388,1.025,0.383,1.415-0.009C40.1,35.311,40.096,34.678,39.703,34.289z"/></svg>