<?xml version="1.0" encoding="utf-8"?>
<!-- Generator: Adobe Illustrator 20.0.0, SVG Export Plug-In . SVG Version: 6.00 Build 0)  -->
<svg version="1.1" id="Layer_1" xmlns="http://www.w3.org/2000/svg" xmlns:xlink="http://www.w3.org/1999/xlink" x="0px" y="0px"
	 viewBox="0 0 500 500" style="enable-background:new 0 0 500 500;" xml:space="preserve">
<style type="text/css">
	.st0{fill:#DFC8B2;}
	.st1{opacity:0.5;fill:none;stroke:#B08269;stroke-width:3;stroke-miterlimit:10;}
	.st2{fill:#00FFFF;}
	.st3{fill:#C6A58F;}
	.st4{fill:#E2AC88;}
	.st5{fill:#B08269;}
	.st6{fill:none;stroke:#B98A71;stroke-width:3;stroke-miterlimit:10;}
	.st7{fill:none;stroke:#C39377;stroke-width:3;stroke-miterlimit:10;}
	.st8{fill:none;stroke:#CD9B7E;stroke-width:3;stroke-miterlimit:10;}
	.st9{fill:none;stroke:#D7A484;stroke-width:3;stroke-miterlimit:10;}
	.st10{fill:none;stroke:#7C5B4F;stroke-miterlimit:10;}
	.st11{fill:#7C5B4F;}
	.st12{fill:#B98A71;}
	.st13{fill:#C39377;}
	.st14{fill:#CD9B7E;}
	.st15{fill:#D7A484;}
	.st16{fill:#FFEFDC;stroke:#5E3E27;stroke-miterlimit:10;}
	.st17{opacity:0.2;fill:none;stroke:#D0A672;stroke-width:3;stroke-miterlimit:10;}
	.st18{opacity:0.4;fill:none;stroke:#D0A672;stroke-width:3;stroke-miterlimit:10;}
	.st19{opacity:0.6;fill:none;stroke:#D0A672;stroke-width:3;stroke-miterlimit:10;}
	.st20{fill:#5E3E27;}
	.st21{fill:none;stroke:#5E3E27;stroke-miterlimit:10;}
	.st22{fill:#FFEFDC;}
	.st23{fill:#F5E0C8;}
	.st24{fill:#EBD2B4;}
	.st25{fill:#E2C39E;}
</style>
<path class="st22" d="M250,138.2c-70.8,0-128.2,43.5-128.2,97.2c0,10.4,2.2,20.4,6.2,29.9c3.9,9.1,12.1,15.7,21.8,18.1
	c12.5,3,32.8,7.1,58,9.7l6.3,69.4H287l6.7-69c18.3-1.8,37.3-4.9,56.5-9.9c9.6-2.5,17.8-9,21.7-18.1c4.1-9.5,6.3-19.6,6.3-30.1
	C378.2,181.7,320.8,138.2,250,138.2z"/>
<path class="st23" d="M347.5,284.2c0.9-0.2,1.8-0.4,2.7-0.7c9.6-2.5,17.8-9,21.7-18.1c1.4-3.2,2.5-6.4,3.4-9.7
	c-104.8,24.5-203.5,9.7-250.8-0.5c0.9,3.4,2.1,6.8,3.5,10c3.5,8.1,10.3,14.2,18.6,17.1c28.5,4.8,65.9,9.2,108.3,9.2
	C283.9,291.6,315.2,289.5,347.5,284.2z"/>
<path class="st24" d="M215.5,296.4l1.8,23.9c12,0.8,24.6,1.2,37.7,1.2c9.1,0,18.4-0.2,27.9-0.7l1.7-23.9
	C260,298.3,236.8,297.9,215.5,296.4z"/>
<path class="st25" d="M347.8,172.6c-23.5-21-58.6-34.4-97.8-34.4c-38.3,0-72.6,12.7-96.1,32.9C231.5,150.3,303.5,161,347.8,172.6z"
	/>
<path class="st24" d="M370.2,201.6c-5.4-11.1-13.4-21.2-23.5-30c-45.9-11.1-115.9-20.2-191.6-1.6c-10.7,8.9-19.2,19.4-25,30.9
	C231.7,165.3,327.8,187.8,370.2,201.6z"/>
<path class="st23" d="M130.9,199.4c-3.9,7.4-6.6,15.2-8,23.3l1.1,2.9c108.9-40.6,212.6-13.2,252.2,0.5l1-2.8c-1.3-8-3.9-15.7-7.6-23
	C322.8,186.1,230,167.4,130.9,199.4z"/>
<path class="st20" d="M387.8,186.6c-8-14.3-19.3-27.1-33.5-37.9c-28.1-21.3-65.1-33.1-104.2-33.1c-39.1,0-76.1,11.7-104.2,33.1
	c-14.3,10.8-25.5,23.6-33.5,37.9c-8.6,15.4-12.9,31.8-12.9,48.8c0,13.2,2.7,26.2,8,38.7c6.6,15.5,20.5,27.1,37.2,31.1
	c9,2.2,21.2,4.8,36.1,7c7.9,1.2,13.9,7.7,14.6,15.7l1.5,19.9c0.6,7.9,3.6,15.3,8.8,21.4c5.5,6.5,13.2,10.9,21.6,12.7
	c8.1,1.7,16.3,2.6,24.3,2.6c7.7,0,15.2-0.8,22.4-2.4c16.3-3.7,28.2-17.3,29.5-33.8l1.5-19.6c0.6-8,6.6-14.4,14.5-15.7
	c12.5-1.9,24.7-4.5,36.5-7.5c16.8-4.3,30.2-15.6,36.7-31c5.4-12.5,8.1-25.6,8.1-38.9C400.7,218.4,396.3,202,387.8,186.6z M231.9,356
	c-4.9-1.1-8.5-5.2-8.9-10.2l-2.8-36.4c-0.5-6.1,4.5-11.2,10.6-10.9c7.3,0.4,15,0.6,22.8,0.6c5.2,0,10.5-0.1,15.9-0.3
	c6-0.2,10.9,4.9,10.5,10.9l-2.8,36.4c-0.4,5-4,9.1-9,10.3C254.1,359.5,240.7,357.9,231.9,356z M150.7,279.7
	c-8.7-2.1-15.8-8-19.2-15.9c-3.9-9.2-5.9-18.7-5.9-28.4c0-51.6,55.8-93.5,124.4-93.5s124.4,41.9,124.4,93.5c0,9.7-2,19.4-6,28.6
	c-3.3,7.7-10.5,13.7-19.2,15.9C263.5,302.1,181.8,287.1,150.7,279.7z"/>
<g>
	<g>
		<circle class="st20" cx="162.5" cy="246.6" r="6"/>
	</g>
	<g>
		<circle class="st20" cx="173.6" cy="227.7" r="6"/>
	</g>
	<g>
		<circle class="st20" cx="184.6" cy="246.6" r="6"/>
	</g>
</g>
<g>
	<circle class="st20" cx="239.1" cy="339.6" r="6"/>
</g>
</svg>
