<?xml version="1.0" encoding="utf-8"?>
<!-- Generator: Adobe Illustrator 20.0.0, SVG Export Plug-In . SVG Version: 6.00 Build 0)  -->
<svg version="1.1" id="Layer_1" xmlns="http://www.w3.org/2000/svg" xmlns:xlink="http://www.w3.org/1999/xlink" x="0px" y="0px"
	 viewBox="0 0 500 500" style="enable-background:new 0 0 500 500;" xml:space="preserve">
<style type="text/css">
	.st0{fill:#669635;stroke:#5F0A38;stroke-width:6;stroke-linecap:round;stroke-linejoin:round;stroke-miterlimit:10;}
	.st1{fill:none;stroke:#2F5B04;stroke-miterlimit:10;}
	.st2{fill:#669635;stroke:#2F5B04;stroke-linecap:round;stroke-linejoin:round;stroke-miterlimit:10;}
	.st3{display:none;fill:#D1A982;}
	.st4{fill:#998004;stroke:#998004;stroke-width:6;stroke-linejoin:round;stroke-miterlimit:10;}
	.st5{fill:none;stroke:#7CA440;stroke-width:2;stroke-linecap:round;stroke-linejoin:round;stroke-miterlimit:10;}
	.st6{fill:#00FFFF;}
	.st7{clip-path:url(#SVGID_2_);}
	.st8{clip-path:url(#SVGID_4_);}
	.st9{clip-path:url(#SVGID_6_);}
	.st10{fill:#DCCB0D;}
	.st11{fill:#E0E6FF;}
	.st12{fill:#E5C403;}
	.st13{fill:#998004;}
	.st14{fill:none;stroke:#528B16;stroke-linecap:round;stroke-miterlimit:10;}
	.st15{fill:#EEF2FF;stroke:#AFADA7;stroke-miterlimit:10;}
	.st16{fill:#E5C403;stroke:#998004;stroke-miterlimit:10;}
	.st17{opacity:0.4;fill:none;stroke:#7CA440;stroke-miterlimit:10;}
	.st18{opacity:0.3;fill:none;stroke:#7CA440;stroke-miterlimit:10;}
	.st19{opacity:0.2;fill:none;stroke:#7CA440;stroke-miterlimit:10;}
	.st20{opacity:0.1;fill:none;stroke:#7CA440;stroke-miterlimit:10;}
	.st21{fill:#528B16;}
	.st22{fill:none;stroke:#FFFFFF;stroke-linecap:round;stroke-miterlimit:10;}
	.st23{fill:#FFFFFF;}
	.st24{fill:#7C710D;}
	.st25{fill:#7CA440;}
	.st26{fill:#BBB630;}
	.st27{fill:#C5B92E;}
	.st28{fill:#CFBD2D;}
	.st29{fill:#DAC02C;}
	.st30{fill:#EEF2FF;}
	.st31{fill:#AFADA7;}
	.st32{fill:#5ABC18;}
	.st33{fill:#1C6600;}
	.st34{fill:#5ABC18;stroke:#1C6600;stroke-linecap:round;stroke-linejoin:round;stroke-miterlimit:10;}
	.st35{fill:none;stroke:#FFFFFF;stroke-linecap:round;stroke-linejoin:round;stroke-miterlimit:10;}
	.st36{fill:#7FBA19;}
	.st37{fill:#426807;}
	.st38{fill:#FFFDFE;}
	.st39{fill:#E8C5D2;stroke:#5F0A38;stroke-linecap:round;stroke-linejoin:round;stroke-miterlimit:10;}
	.st40{fill:#DB5E8B;}
	.st41{fill:#5F0A38;}
	.st42{fill:#628855;}
	.st43{opacity:0.1;fill:#B2496B;}
	.st44{fill:none;stroke:#628855;stroke-miterlimit:10;}
	.st45{fill:none;stroke:#2F5B04;stroke-width:2;stroke-linecap:round;stroke-miterlimit:10;}
	.st46{fill:none;stroke:#669635;stroke-linecap:round;stroke-miterlimit:10;}
	.st47{fill:#2F5B04;}
	.st48{fill:none;stroke:#2F5B04;stroke-linecap:round;stroke-linejoin:round;stroke-miterlimit:10;}
	.st49{fill:none;stroke:#FFFFFF;stroke-width:0.4894;stroke-linecap:round;stroke-linejoin:round;stroke-miterlimit:10;}
	.st50{opacity:0.7;fill:none;stroke:#FFFFFF;stroke-linecap:round;stroke-linejoin:round;stroke-miterlimit:10;}
	.st51{fill:#669635;}
	.st52{fill:#E8C5D2;}
	.st53{fill:#FAF3F6;}
	.st54{fill:#FDF9FB;}
	.st55{fill:#F8EEF1;}
	.st56{fill:none;stroke:#000000;stroke-miterlimit:10;}
	.st57{fill:#709335;stroke:#384B1D;stroke-miterlimit:10;}
	.st58{fill:#709335;stroke:#384B1D;stroke-width:6;stroke-linecap:round;stroke-linejoin:round;stroke-miterlimit:10;}
	.st59{fill:#B2C172;}
	.st60{fill:none;stroke:#B2C172;stroke-linecap:round;stroke-linejoin:round;stroke-miterlimit:10;}
	.st61{fill:#FCED00;}
	.st62{fill:#8E8300;}
	.st63{fill:#709335;}
	.st64{fill:none;stroke:#709335;stroke-width:2;stroke-linecap:round;stroke-linejoin:round;stroke-miterlimit:10;}
	.st65{fill:none;stroke:#B2C172;stroke-linecap:round;stroke-miterlimit:10;}
	.st66{fill:none;stroke:#709335;stroke-width:2;stroke-miterlimit:10;}
	.st67{opacity:0.5;fill:#B2C172;}
	.st68{opacity:0.6;fill:#709335;}
	.st69{opacity:0.8;fill:none;stroke:#FFFFFF;stroke-linecap:round;stroke-miterlimit:10;}
	.st70{fill:#384B1D;}
	.st71{fill:#98AE5F;}
	.st72{fill:#8BA452;}
	.st73{fill:#C6D3AF;}
</style>
<path class="st63" d="M348.5,202.4c14.1-2.7,29.8-6.5,43.4-10.7c33.2-10.3,38.7-23.3,38.1-25.3c-0.6-1.8-12.5-9.6-45.7,0.6
	c-13.2,4.1-28,9.6-40.9,15.2c0,0-1.5,0.6-2.4-0.7c-0.9-1.3,0.4-2.5,0.4-2.5c1.7-1.7,3.3-3.4,4.8-5c13.5-14.4,13.4-21.5,12.7-22.2
	c-1.3-1.4-12.3-1.3-39.5,26.6c-0.8,0.8-2.1-0.2-1.5-1.1c1.5-2.7,2.9-5.3,4.2-7.8c7.8-15.4,4.5-23.7,3.1-24.5
	c-1.5-0.7-9.9,1.3-17.9,17c0,0-7.8,18.3-14.6,39.5c-43.5,16.3-101,51.2-149.9,125.6c16.5-44.3,27.3-79.1,33.8-106.9l22.9-10
	c3.9,4.3,10.4,5.3,15.5,2c5.7-3.6,7.3-11.1,3.7-16.8c-3.6-5.7-11.1-7.3-16.8-3.7c-3.9,2.5-5.8,6.9-5.5,11.2l-17.6,7.7
	c3.7-17.3,5.6-31.8,6.1-44.1l21-14.9c4.7,3.3,11.1,3.1,15.4-1c4.8-4.7,4.9-12.4,0.2-17.2c-4.7-4.8-12.4-4.9-17.2-0.2
	c-3.3,3.2-4.2,7.8-3,12l-16.2,11.5c-0.3-16.6-3.3-29.1-7.7-39.9L190,95.2c5.7,1.2,11.5-1.8,13.8-7.3c2.5-6.2-0.5-13.3-6.7-15.8
	c-6.2-2.5-13.3,0.5-15.8,6.7c-1.7,4.3-0.8,9,2,12.3l-10.1,16.8c-0.8-1.5-1.5-3-2.3-4.5c-6.3-11.8-15.1-20.4-24.2-26.6l4-24.8
	c5.7-1,10.1-6,10.1-11.9c0-6.7-5.4-12.2-12.2-12.2s-12.2,5.4-12.2,12.2c0,4.6,2.6,8.6,6.4,10.7l-3.4,21.5
	c-14.4-8-28.3-10.7-33.3-11.5l-8.1-12.5c1.6-2.1,2.6-4.6,2.6-7.4c0-6.7-5.4-12.2-12.2-12.2c-6.7,0-12.2,5.4-12.2,12.2
	c0,6.7,5.4,12.2,12.2,12.2c1,0,2-0.2,2.9-0.4l5.6,8.7l-23.6,2.5c-2.2,0.2-3.8,2.2-3.5,4.4c0.2,2,1.9,3.6,3.9,3.6c0.1,0,0.3,0,0.4,0
	l29.8-3.1c3,0.4,15.8,2.6,29.6,9.8l-20.4,9.6c-2,0.9-2.8,3.3-1.9,5.3c0.7,1.4,2.1,2.3,3.6,2.3c0.6,0,1.1-0.1,1.7-0.4l25.2-11.9
	c8.3,5.7,16.3,13.4,22,24c1,1.9,2,3.9,3,6l-24.9,1.5c-2.2,0.1-3.9,2-3.7,4.2c0.1,2.1,1.9,3.7,4,3.7c0.1,0,0.2,0,0.2,0l27.8-1.6
	c3.7,9.7,6.2,21,6.4,36c-3.4-2.1-8-4.5-13-6.5c-2.1-2.5-5.1-5.5-8.8-8.5c-7.7-6.2-15-9.9-16.3-8.3c-1.3,1.6,3.8,8,11.5,14.2
	c1.3,1,2.6,2,3.8,2.9c-2.4-0.4-5-0.7-7.8-0.8c-11.5-0.7-20.9,0.6-21.1,3.1c-0.2,2.4,9,5,20.5,5.8c6.4,0.4,12.2,0.2,16-0.6
	c6.5,2.7,12.2,6.2,15,8.1c-0.5,12-2.4,26.1-6,43.1c-3.3-3.3-8.1-7.3-14.4-10.7c-0.7-4-2.7-9.8-5.7-16.2c-5.1-10.6-11-18.3-13.3-17.2
	c-2.2,1.1,0.1,10.5,5.2,21.1c0.9,1.8,1.7,3.4,2.6,5c-2.4-1.6-5.1-3.3-8-4.9c-12-6.6-22.8-10-24.2-7.4c-1.4,2.5,7.1,10,19.1,16.6
	c2.9,1.6,5.8,3.1,8.5,4.3c-1.9,0.1-3.8,0.2-5.8,0.4c-11.7,1.3-20.9,4.3-20.7,6.8c0.3,2.5,10,3.5,21.6,2.2c7.1-0.8,13.2-2.2,16.8-3.7
	c8.6,4.7,14.2,10.9,16.1,13.2c-4.5,19.4-11.2,42.2-20.4,69.5c-3.8-7.1-8.2-13.2-12.6-18.3c0.5-5-0.5-13.9-3.1-23.7
	c-3.8-14.7-9.4-26-12.5-25.2c-3.1,0.8-2.6,13.4,1.2,28.1c0.6,2.5,1.3,4.8,2,7c-2.6-2.7-5.6-5.5-8.9-8.2
	c-13.5-11.5-26.4-18.5-28.9-15.6c-2.4,2.9,6.5,14.5,20,26c3.3,2.8,6.6,5.4,9.7,7.6c-2.4-0.4-4.9-0.7-7.5-0.9
	c-15.2-1.4-27.7,0.2-28,3.4c-0.3,3.2,11.8,6.9,26.9,8.3c9.9,0.9,18.5,0.5,23.4-0.7c5.2,6.2,10.4,13.8,14.4,22.9
	c-7.6,21.9-16.9,46.5-28,74.1c-12.9,25.9-24.8,55.3-35,88.9c-1.3,4.2,1.1,8.6,5.3,9.9c0.8,0.2,1.5,0.3,2.3,0.3
	c3.4,0,6.5-2.2,7.6-5.6c26.3-86.2,63.3-144.2,101.4-183.3c7.5,22.6,8.7,48.9,8.8,60.9c-48.6,30.5-51.7,45.9-51.3,46.6
	c0.4,0.6,6.8,1.2,22.3-9.6c4.9-3.4,10.2-7.4,15.1-11.3c1.6-1.3,3.7,0.6,2.8,2.3c-4.5,8.4-9,18.2-12.5,26.9
	c-8.5,21.5-4,29.8-2.7,30.3c1.2,0.5,10.2-2.5,18.7-24c3.4-8.5,6.7-18.5,9.1-27.6c0,0,0.3-1,1.4-1c1,0.1,1.2,1.2,1.2,1.2
	c0.2,1.6,0.4,3.1,0.6,4.6c1.9,13,5.6,15.9,6.2,15.8c1-0.1,4.1-3.8,3.7-18.5c0-1.2,1.7-1.5,2.1-0.4c1.1,3.6,2.4,7.2,3.6,10.6
	c6.3,16.6,13.2,19,14.1,18.6c1-0.4,4.5-6.7-1.7-23.3c-2.6-6.8-5.9-14.3-9.3-20.9c-0.7-1.4,1-2.7,2.2-1.7c3.7,3.1,7.8,6.2,11.5,8.9
	c11.7,8.5,16.7,8.1,17,7.6c0.6-0.8-0.3-10-38-35.7c-0.1-14.3-1.6-46.4-12.2-72.7c12.4-11.4,24.7-20.9,36.8-28.8
	c2.7,2.5,5.7,5.4,9,8.7c10.2,106.6,27.3,119.9,28.6,119.8c1.2,0,6.9-8.9,3.1-39.4c-1.2-9.6-2.9-20.3-4.8-30.4
	c-0.6-3.2,3.6-5,5.5-2.3c8.7,12.9,19.4,26.9,29.3,38.5c24.5,28.6,39.8,28.5,41.5,27c1.6-1.4,4.2-16.6-20.3-45.2
	c-9.8-11.4-21.6-23.7-32.8-34.2c0,0-1.2-1.3-0.3-2.7c0.9-1.4,2.7-0.7,2.7-0.7c2.4,0.9,4.8,1.8,7,2.6c20.2,7.2,27.2,4,27.6,3.1
	c1-2.3-6.8-18.7-79.4-39.7c-3.5-3.7-6.8-6.9-9.8-9.7c14.8-9.1,29-15.8,41.9-20.8c7.8,7.3,21.5,19.5,32.7,27.2
	c14.4,9.9,22.9,7.1,23.8,5.8c0.9-1.4-0.4-10.2-14.7-19.6c-3.5-2.3-7.5-4.8-11.6-7.1c-1-0.6-0.3-2.1,0.7-1.8
	C394,240.5,407.7,233,408,232c0.4-1-5-9.2-32.2-17.1c-8.6-2.5-18.2-5-27.5-7.1C345.4,207.2,345.5,202.9,348.5,202.4z"/>
<path class="st70" d="M365.1,296.4c-0.4,0.7-0.8,1.7-1.4,2.8c-2.5,4.3-2.4,9.6,0.6,13.5c8.6,11.4,14.5,22.4,17.5,32.6
	c4.6,15.8,2.1,29.4-7,37.1c-9.1,7.8-22.9,8.3-37.9,1.2c-5.3-2.5-10.7-5.9-16.2-10.2c-4.1-3.2-10.1-1.6-12.1,3.2
	c-1.5,3.7-3.3,6.8-5.5,9.3c-4.7,5.5-11.2,8.5-18.2,8.6c-0.3,0-0.7,0-1,0c-3.6-0.1-7.1,1-10.2,3h0c-4.2,2.8-7,7.1-7.9,12
	c-2.1,11.6-9,18.7-16.6,21.4c-10.9,3.9-20.1-0.3-25.7-4.4c-3.1-2.3-7.5-1.4-9.4,2c-2.3,4-5.8,9.1-10.8,13.9
	c-10,9.6-21.6,12.9-31.9,8.8c-10.4-4.1-16.7-14.4-17.3-28.3c0-0.7,0-1.7,0-2.8c0-3.2-2-6.2-5-7.3l0,0c-3.8-1.4-8.1,0.5-9.7,4.2
	c-7.5,17.6-14.2,36.3-20.3,56.1c-4.1,13.4-16.3,22.5-30.4,22.5c-3.1,0-6.2-0.5-9.2-1.4c-8.2-2.5-14.8-8-18.8-15.5
	c-4-7.5-4.8-16.1-2.3-24.2c10-32.7,22.1-63.6,36.1-91.7c7.1-17.6,13.5-34.3,19.2-49.9c2.2-6-1.9-12.5-8.3-13c-0.4,0-0.8-0.1-1.2-0.1
	c-9.1-0.8-17.4-2.3-24.1-4.4c-23.7-7.3-25-23.2-24.4-29.7c0.3-3.5,1.6-9.7,6.7-15c1.5-1.6,1.8-3.9,1-5.8l0,0
	c-4.3-10.1-3-20.7,3.6-28.4c3.9-4.6,9.2-7.5,15.1-8.6c4.9-0.9,8.8-4.4,10-9.2v0c0.7-2.7,0.4-5.6-0.8-8.1
	c-5.2-10.6-1.8-19.6,0.5-23.7c1.2-2.2,3.5-5.4,7.1-8.1c1.5-1.1,2.3-2.9,2.2-4.8c-0.1-1.3-0.1-2.3,0-3.1c0.2-3.6,1.8-13.1,11.5-19.4
	c1.2-0.8,2.1-2,2.5-3.4l0,0c0.2-1,0.2-2.1-0.1-3.1c-0.2-0.6-0.4-1.3-0.5-1.9c-0.4-2.3-2.1-4.2-4.4-4.6c-8.7-1.6-16.3-7.3-20.2-15.4
	c-0.5-1-0.9-2.1-1.2-3.1c-1.2-3.5-4.6-5.8-8.3-5.4l-3.6,0.4c-1,0.1-2,0.2-2.9,0.2c-14.3,0-26.2-10.7-27.6-24.9
	c-0.9-8.7,1.4-14.4,3.7-17.8c1.9-3,2.9-6.4,2.7-10c-0.1-1.6-0.1-3.3,0.1-5C53.9,20.6,67.7,6.6,85,5c10.7-1,20.5,2.7,27.7,9.3
	c3.1,2.9,7.9,2.8,10.9-0.1c7.1-6.8,17-10.8,27.7-10c17.5,1.3,31.7,15.5,33,33c0.1,0.9,0.1,1.8,0.1,2.6c0,4.3,3.6,7.6,7.9,7.6
	c6,0,12,1.5,17.5,4.5c5.7,3.1,10.4,7.7,13.6,13.3c5.7,9.8,6.5,21.3,2.4,31.7c-0.3,0.8-0.7,1.6-1.1,2.4c-1.9,3.9-0.1,8.5,3.7,10.4
	c4.5,2.2,8.6,5.5,11.9,9.5c4.6,5.6,7.6,12.6,7.9,19.9c0.6,13.4-4.6,22.2-9.6,27.5c-4.7,4.9-5.7,12.3-2.4,18.2l0.4,0.7
	c4,7,12.7,9.7,20,6.2l11.1-5.4c3.6-1.7,6.3-4.8,7.6-8.5c5.1-14.1,9.4-24.4,9.7-25c0.2-0.5,0.4-0.9,0.7-1.4
	c14.6-28.8,36-34.5,49.8-27.5c1.4,0.7,2.8,1.6,4.1,2.6c2.9,2.2,6.6,2.9,10.2,2.1c2.5-0.6,4.9-0.8,7.2-0.8c0,0,0.1,0,0.1,0
	c7.3,0,13.9,2.8,18.7,7.7c0.4,0.5,0.9,1,1.4,1.6c2.9,3.6,7.6,5.2,12.1,4.2c12.4-2.8,23.4-3.6,32.9-2.5c15.8,2,26.9,9.6,30.4,20.8
	c3.5,11.3-1.4,23.9-13.4,34.4c-2.6,2.3-5.5,4.4-8.7,6.5c-5.8,3.7-7.2,11.4-3.3,17.1c0.8,1.2,1.5,2.4,2.1,3.6
	c3.1,6.5,3.4,13.6,0.7,20.1c-7.4,17.9-29.9,17.2-38.3,16.9c-2.5-0.1-5.1-0.2-7.9-0.5c-4.7-0.4-9.4,1.4-12.6,4.9l-0.7,0.8
	c-3.9,4.3-5,10.4-3.1,15.9C369,283.3,369.3,289.2,365.1,296.4z M389.7,246.3L389.7,246.3L389.7,246.3z M75.8,87.4L75.8,87.4
	C75.8,87.4,75.8,87.4,75.8,87.4L75.8,87.4z M85.6,29.5C85.6,29.5,85.6,29.5,85.6,29.5C85.6,29.5,85.6,29.5,85.6,29.5z"/>
<path class="st59" d="M215.7,139.5c-1.3-1.8-3.7-2.2-5.5-0.9l-21.3,15c-1.8,1.3-4.3,0.1-4.4-2.2c-0.5-10.3-2.1-18.8-4.3-26.1
	c-1.8-5.8-1-12.1,2.1-17.3l13.5-22.4c1.1-1.8,0.7-4.3-1.1-5.5c-1.9-1.3-4.5-0.7-5.6,1.2l-13.4,22.3c-1.1,1.9-3.8,1.8-4.9-0.1l0-0.1
	c-4.3-8-9.7-14.6-15.6-19.9c-5.3-4.8-7.7-12-6.6-19l3.8-23.6c0.3-2.1-1-4.3-3.1-4.7c-2.2-0.5-4.4,1-4.7,3.3l-4.6,28.9
	c-0.3,1.9-2.3,2.9-4.1,2c-9-4.5-17.5-7-23.4-8.4c-4.2-1-7.9-3.5-10.2-7.1l-10.4-16c-1.2-1.8-3.6-2.5-5.4-1.5c-2,1.1-2.6,3.7-1.4,5.6
	L93,55.2c1.8,2.8,0,6.4-3.2,6.8l-16.2,1.7c-2.1,0.2-3.8,1.9-3.8,4c0,2.2,1.8,3.9,4,3.9c0.1,0,0.3,0,0.4,0l27.6-2.9
	c1.5-0.2,3.1-0.1,4.6,0.2c4.3,0.8,12.6,2.7,21.8,6.8c2.2,1,2.2,4.1,0.1,5.1l-15,7.1c-1.9,0.9-2.9,3-2.2,5c0.6,1.7,2.1,2.7,3.8,2.7
	c0.6,0,1.1-0.1,1.7-0.4l12.8-6.1c8.5-4,18.5-2,24.9,4.9c3.5,3.8,6.8,8.2,9.5,13.3c0.4,0.7,0.7,1.4,1.1,2.1c1,1.8-0.3,4-2.3,4.1
	l-20.5,1.2c-2.1,0.1-3.9,1.8-3.9,3.9c0,2.3,1.8,4,4,4c0.1,0,0.2,0,0.2,0l11-0.6c10.9-0.6,20.6,7.1,22.3,17.9c0.6,3.8,1,7.9,1.2,12.4
	c0.1,2.2-2.2,3.6-4.1,2.6c-2.4-1.3-5.2-2.7-8.1-3.9c-0.7-0.3-1.3-0.7-1.8-1.3c-2-2.3-4.8-5-8.1-7.6c-7.7-6.2-15-9.9-16.3-8.3
	c-1.3,1.6,3.8,8,11.5,14.2l0,0c1,0.8,0.3,2.4-0.9,2.3c-1-0.1-2.1-0.2-3.1-0.3c-11.5-0.7-20.9,0.6-21.1,3.1c-0.2,2.4,9,5,20.5,5.8
	c5.8,0.4,11,0.2,14.8-0.3c0.9-0.1,1.9,0,2.7,0.3c0.1,0,0.1,0.1,0.2,0.1c8.6,3.8,13.6,12.9,12.4,22.2c-0.9,7.1-2.2,14.9-3.9,23.5
	c-0.4,2.1-3,3-4.6,1.6c-2.2-1.9-4.8-3.8-7.7-5.7c-1.9-1.2-3.3-3.1-3.9-5.3c-1-3.6-2.7-8-4.9-12.7c-5.1-10.6-11-18.3-13.3-17.2
	c-2.2,1.1,0.1,10.5,5.2,21.1l0,0.1c0.7,1.4-0.9,2.7-2.2,2c-1-0.6-2.1-1.2-3.2-1.9c-12-6.6-22.8-10-24.2-7.4
	c-1.4,2.5,7.1,10,19.1,16.6c1.2,0.6,2.3,1.3,3.4,1.8c1.3,0.7,0.9,2.7-0.5,2.8c-0.1,0-0.1,0-0.2,0c-11.7,1.3-20.9,4.3-20.7,6.8
	c0.3,2.5,10,3.5,21.6,2.2c5.1-0.6,9.6-1.4,13.2-2.5c2.6-0.7,5.4-0.4,7.6,1.1c0.1,0.1,0.3,0.2,0.4,0.3c7.5,5.1,10.8,14.3,8.6,23.1
	c-3.9,14.9-9,31.8-15.4,51c-0.8,2.3-3.8,2.6-5.1,0.6c-1.7-2.8-3.5-5.4-5.4-7.8c-2.5-3.3-3.8-7.2-4.1-11.3
	c-0.4-4.8-1.4-10.9-3.1-17.5c-3.8-14.7-9.4-26-12.5-25.2c-3.1,0.8-2.6,13.4,1.2,28.1l0,0.1c0.5,1.9-1.8,3.2-3.2,1.9
	c-1.2-1.1-2.4-2.1-3.6-3.2c-13.5-11.5-26.4-18.5-28.9-15.6c-2.4,2.9,6.5,14.5,20,26c1.2,1.1,2.5,2.1,3.7,3.1
	c1.6,1.2,0.6,3.8-1.4,3.6l-0.1,0c-15.2-1.4-27.7,0.2-28,3.4c-0.3,3.2,11.8,6.9,26.9,8.3c6.9,0.6,13.2,0.6,18.1,0.2
	c3.7-0.4,7.3,1.3,9.5,4.3c1.9,2.6,3.7,5.3,5.4,8.3c3.2,5.5,3.8,12,1.7,18c-12.1,33.9-27.8,74-48.1,121.9c-0.8,1.8-0.2,4,1.4,5.1
	c0.7,0.4,1.4,0.6,2.2,0.6c1.5,0,3-0.9,3.7-2.4c36.4-85.7,60.6-152.5,73.4-202.3c1.6-6.4,6.1-11.6,12.1-14.2l23.8-10.4
	c1.9-0.8,3-3,2.3-4.9c-0.7-2.3-3.2-3.3-5.4-2.4l-23.3,10.2c-2.1,0.9-4.3-0.9-3.9-3.1c1-5,1.9-9.8,2.6-14.3c0.8-5.3,1.4-10.3,1.9-15
	c0.6-6.2,3.9-11.8,8.9-15.4l22-15.6C216.5,143.8,217,141.3,215.7,139.5z"/>
<path class="st61" d="M88.4,56.9c-8.9,0-16.1-7.2-16.1-16.1s7.2-16.1,16.1-16.1s16.1,7.2,16.1,16.1S97.3,56.9,88.4,56.9z"/>
<path class="st62" d="M88.4,28.7c6.7,0,12.2,5.4,12.2,12.2S95.1,53,88.4,53c-6.7,0-12.2-5.4-12.2-12.2S81.7,28.7,88.4,28.7
	 M88.4,20.7c-11.1,0-20.1,9-20.1,20.1s9,20.1,20.1,20.1s20.1-9,20.1-20.1S99.4,20.7,88.4,20.7L88.4,20.7z"/>
<path class="st61" d="M148.5,56.2c-8.9,0-16.1-7.2-16.1-16.1c0-8.9,7.2-16.1,16.1-16.1s16.1,7.2,16.1,16.1
	C164.6,49,157.4,56.2,148.5,56.2z"/>
<path class="st62" d="M148.5,27.9c6.7,0,12.2,5.4,12.2,12.2s-5.4,12.2-12.2,12.2c-6.7,0-12.2-5.4-12.2-12.2S141.8,27.9,148.5,27.9
	 M148.5,20c-11.1,0-20.1,9-20.1,20.1s9,20.1,20.1,20.1s20.1-9,20.1-20.1S159.5,20,148.5,20L148.5,20z"/>
<path class="st61" d="M192.5,99.5c-2.1,0-4.1-0.4-6-1.2c-8.2-3.3-12.2-12.7-8.9-21c2.5-6.1,8.3-10.1,15-10.1c2.1,0,4.1,0.4,6,1.2
	c8.2,3.3,12.2,12.7,8.9,21C204.9,95.5,199.1,99.5,192.5,99.5z"/>
<path class="st62" d="M192.5,71.2c1.5,0,3,0.3,4.5,0.9c6.2,2.5,9.2,9.6,6.7,15.8c-1.9,4.7-6.5,7.6-11.3,7.6c-1.5,0-3-0.3-4.5-0.9
	c-6.2-2.5-9.2-9.6-6.7-15.8C183.1,74.1,187.7,71.2,192.5,71.2 M192.5,63.3L192.5,63.3c-8.2,0-15.6,4.9-18.6,12.6
	c-4.1,10.3,0.9,22,11.1,26.1c2.4,1,4.9,1.5,7.5,1.5c8.2,0,15.6-4.9,18.6-12.6c2-5,2-10.4-0.2-15.4c-2.1-4.9-6-8.8-11-10.8
	C197.6,63.8,195,63.3,192.5,63.3L192.5,63.3z"/>
<path class="st61" d="M212.5,157.9c-4.4,0-8.5-1.7-11.5-4.8c-6.2-6.4-6.1-16.6,0.2-22.8c3-3,7-4.6,11.3-4.6c4.4,0,8.5,1.7,11.5,4.8
	c3,3.1,4.6,7.1,4.6,11.4c0,4.3-1.8,8.3-4.8,11.3C220.7,156.3,216.7,157.9,212.5,157.9z"/>
<path class="st62" d="M212.5,129.6c3.2,0,6.3,1.2,8.7,3.7c4.7,4.8,4.6,12.5-0.2,17.2c-2.4,2.3-5.4,3.5-8.5,3.5
	c-3.2,0-6.3-1.2-8.7-3.7c-4.7-4.8-4.6-12.5,0.2-17.2C206.3,130.8,209.4,129.6,212.5,129.6 M212.5,121.7L212.5,121.7
	c-5.3,0-10.3,2-14.1,5.7c-7.9,7.7-8.1,20.5-0.3,28.4c3.8,3.9,8.9,6,14.4,6c5.3,0,10.3-2,14.1-5.7c7.9-7.7,8.1-20.5,0.3-28.4
	C223,123.9,217.9,121.7,212.5,121.7L212.5,121.7z"/>
<path class="st61" d="M208.1,218c-5.5,0-10.6-2.8-13.6-7.4c-4.8-7.5-2.6-17.5,4.9-22.3c2.6-1.7,5.6-2.6,8.7-2.6
	c5.5,0,10.6,2.8,13.6,7.4c2.3,3.6,3.1,7.9,2.2,12.1c-0.9,4.2-3.4,7.8-7,10.1C214.2,217.2,211.2,218,208.1,218z"/>
<path class="st62" d="M208.1,189.8c4,0,7.9,2,10.2,5.6c3.6,5.7,2,13.2-3.7,16.8c-2,1.3-4.3,1.9-6.5,1.9c-4,0-7.9-2-10.2-5.6
	c-3.6-5.7-2-13.2,3.7-16.8C203.6,190.4,205.9,189.8,208.1,189.8 M208.1,181.8L208.1,181.8c-3.8,0-7.6,1.1-10.8,3.2
	c-4.5,2.9-7.6,7.4-8.8,12.6c-1.1,5.2-0.2,10.6,2.7,15.1c3.7,5.8,10,9.2,16.9,9.2c3.8,0,7.6-1.1,10.8-3.2c4.5-2.9,7.6-7.4,8.8-12.6
	c1.1-5.2,0.2-10.6-2.7-15.1C221.3,185.3,215,181.8,208.1,181.8L208.1,181.8z"/>
<path class="st63" d="M359.3,364.3c1.6-1.4,4.2-16.6-20.3-45.2c-9.8-11.4-21.6-23.7-32.8-34.2c0,0-1.2-1.3-0.3-2.7
	c0.9-1.4,2.7-0.7,2.7-0.7c2.4,0.9,4.8,1.8,7,2.6c20.2,7.2,27.2,4,27.6,3.1c1-2.4-7.2-19.9-87.7-42.1l62.7,87.8L359.3,364.3z"/>
<path class="st63" d="M206.6,344.1c-0.1-10.8-1-33-6.6-53.7c-0.9-3.4-5.2-4.4-7.6-1.9c-41.3,44.5-73.6,104.2-96,178
	c-1,3.4-4.2,5.6-7.6,5.6c-0.8,0-1.5-0.1-2.3-0.3c-4.2-1.3-6.6-5.7-5.3-9.9c25.8-84.5,64.2-151.5,114.2-199
	c30.7-29.1,61.8-47,88.1-57.9c5.7-2.4,10.1-7.1,12.2-13c5.8-16.9,11.4-30,11.4-30c7.9-15.7,16.4-17.7,17.9-17
	c1.5,0.7,4.7,9.1-3.1,24.5c-1.3,2.5-2.7,5.1-4.2,7.8c-0.5,1,0.7,1.9,1.5,1.1c27.2-27.8,38.2-27.9,39.5-26.6
	c0.7,0.7,0.8,7.8-12.7,22.2c-1.5,1.6-3.1,3.3-4.8,5c0,0-1.2,1.2-0.4,2.5c0.9,1.3,2.4,0.7,2.4,0.7c12.9-5.6,27.7-11.1,40.9-15.2
	c33.2-10.3,45.1-2.5,45.7-0.6l-98.7,42.1l-35.4,8.5c-22.2,8.6-48.6,22.4-75.5,44.8c-6,5-8.4,13.1-6.2,20.6
	c5.3,17.9,7.3,36.7,7.9,50.2c0.3,7,3.9,13.5,9.6,17.6c28.7,20.8,29.3,28.4,28.8,29.2c-0.3,0.5-5.3,0.8-17-7.6
	c-3.7-2.7-7.7-5.8-11.5-8.9c-1.2-1-2.9,0.4-2.2,1.8c3.3,6.5,6.7,14.1,9.3,20.9c6.3,16.6,2.7,22.9,1.7,23.3c-0.9,0.3-7.8-2-14.1-18.6
	c-1.3-3.3-2.5-6.9-3.6-10.6c-0.4-1.2-2.1-0.9-2.1,0.3c0.4,14.7-2.7,18.4-3.7,18.5c-0.6,0.1-4.4-2.8-6.2-15.8L206.6,344.1z"/>
<path class="st71" d="M289.5,211.1c0,0,71.6-27.4,140.4-44.7c2-0.5-4.9,15-38.1,25.3c-13.5,4.2-29.3,8-43.4,10.7
	c-3,0.6-3,4.8-0.1,5.5c9.2,2.1,18.9,4.6,27.5,7.1C403,222.9,408.5,231,408,232c-0.4,1-14.1,8.4-81.2-10.4c-1.1-0.3-1.7,1.2-0.7,1.8
	c4.1,2.4,8.1,4.8,11.6,7.1c14.3,9.4,15.6,18.2,14.7,19.6c-0.9,1.4-9.4,4.2-23.8-5.8C311.8,232.7,289.5,211.1,289.5,211.1"/>
<path class="st71" d="M255.4,245.2c0,0,35.1,35.9,103.8,119.1c1.4,1.7-17,1.6-41.5-27c-10-11.6-20.6-25.6-29.3-38.5
	c-1.9-2.7-6.1-1-5.5,2.3c1.9,10.1,3.6,20.7,4.8,30.4c3.8,30.5-1.9,39.4-3.1,39.4C283.3,370.9,265.5,357.2,255.4,245.2"/>
<path class="st71" d="M215.1,338.8c-56.9,33.9-60.2,51.1-59.8,51.8c0.4,0.6,6.8,1.2,22.3-9.6c4.9-3.4,10.2-7.4,15.1-11.3
	c1.6-1.3,3.7,0.6,2.8,2.3c-4.5,8.4-9,18.2-12.5,26.9c-8.5,21.5-4,29.8-2.7,30.3c1.2,0.5,10.2-2.5,18.7-24c3.4-8.5,6.7-18.5,9.1-27.6
	c0,0,0.3-1,1.4-1c1,0.1,1.2,1.2,1.2,1.2c0.2,1.6,0.4,3.1,0.6,4.6c0.6,4.1,1.4,7.2,2.2,9.5C213.3,392.2,215.8,357.7,215.1,338.8z"/>
<path class="st72" d="M133.9,274c-2.1,2.7-13.7,3.8-27.5,2.6c-15.2-1.4-27.2-5.1-26.9-8.3c0.3-3.2,12.8-4.7,28-3.4
	c2.6,0.2,5.1,0.6,7.5,0.9C114.9,265.8,135.9,269.7,133.9,274z"/>
<path class="st72" d="M155.7,203.1c-1.2,2.3-9.8,5-20.4,6.1c-11.7,1.3-21.4,0.3-21.6-2.2c-0.3-2.5,9-5.5,20.7-6.8
	c2-0.2,4-0.4,5.8-0.4C140.2,199.8,157.5,198.6,155.7,203.1z"/>
<circle class="st23" cx="81.5" cy="32.7" r="4"/>
<circle class="st23" cx="140.6" cy="33.2" r="4"/>
<circle class="st23" cx="165.3" cy="112.3" r="4"/>
<circle class="st23" cx="151.9" cy="150.1" r="4"/>
<circle class="st23" cx="183.2" cy="77.9" r="4"/>
<circle class="st23" cx="331.8" cy="196.9" r="4"/>
<circle class="st23" cx="194.5" cy="370.2" r="4"/>
<path class="st23" d="M348.5,194c-1.7,0-3.3-1.1-3.8-2.8c-0.6-2.1,0.5-4.3,2.6-5l13.1-4c2.1-0.6,4.3,0.5,5,2.6
	c0.6,2.1-0.5,4.3-2.6,5l-13.1,4C349.3,193.9,348.9,194,348.5,194z"/>
<path class="st73" d="M214.7,260.2c-1.1,0-2.3-0.5-3-1.4c-1.4-1.7-1.2-4.2,0.5-5.6c16.3-13.7,33.9-25.5,52.1-35
	c1.9-1,4.3-0.3,5.3,1.7c1,1.9,0.3,4.3-1.7,5.3c-17.7,9.2-34.8,20.7-50.7,34C216.5,259.9,215.6,260.2,214.7,260.2z"/>
<path class="st59" d="M298.3,298.5c-1.2,0-2.4-0.5-3.2-1.6c-18.7-24.3-35.7-43.5-50.6-56.9c-1.6-1.5-1.8-4-0.3-5.6
	c1.5-1.6,4-1.8,5.6-0.3c15.3,13.7,32.7,33.2,51.6,57.9c1.3,1.7,1,4.2-0.7,5.6C300,298.2,299.2,298.5,298.3,298.5z"/>
<circle class="st23" cx="298.4" cy="294.6" r="4"/>
<path class="st59" d="M214.1,373.6c-0.1,0-0.2,0-0.4,0c-2.2-0.2-3.8-2.1-3.6-4.3c0-0.2,1.8-20.8-0.4-45.6c-0.2-2.2,1.4-4.1,3.6-4.3
	c2.2-0.2,4.1,1.4,4.3,3.6c2.3,25.5,0.5,46.1,0.4,47C217.8,372.1,216.1,373.6,214.1,373.6z"/>
<path class="st59" d="M280.3,218.8c-1.5,0-3-0.9-3.6-2.4c-0.9-2,0-4.3,2-5.2c12.4-5.5,25.1-10.1,37.9-13.5c2.1-0.6,4.3,0.7,4.9,2.8
	c0.6,2.1-0.7,4.3-2.8,4.9c-12.4,3.3-24.7,7.7-36.7,13.1C281.4,218.7,280.9,218.8,280.3,218.8z"/>
</svg>
