<?xml version="1.0" encoding="utf-8"?>
<!-- Generator: Adobe Illustrator 20.0.0, SVG Export Plug-In . SVG Version: 6.00 Build 0)  -->
<svg version="1.1" id="Layer_1" xmlns="http://www.w3.org/2000/svg" xmlns:xlink="http://www.w3.org/1999/xlink" x="0px" y="0px"
	 viewBox="0 0 500 500" style="enable-background:new 0 0 500 500;" xml:space="preserve">
<style type="text/css">
	.st0{fill:#ECE8DB;}
	.st1{fill:#5B3A03;}
	.st2{fill:#719E7F;stroke:#667F40;stroke-width:3;stroke-linecap:round;stroke-linejoin:round;stroke-miterlimit:10;}
	.st3{fill:#719E7F;stroke:#667F40;stroke-linecap:round;stroke-linejoin:round;stroke-miterlimit:10;}
	.st4{fill:none;stroke:#667F40;stroke-width:3;stroke-linecap:round;stroke-miterlimit:10;}
	.st5{fill:#4D6261;}
	.st6{fill:#ECE8DB;stroke:#5B3A03;stroke-width:3;stroke-miterlimit:10;}
	.st7{fill:#BCE680;}
	.st8{fill:none;stroke:#F0FDC5;stroke-linecap:round;stroke-linejoin:round;stroke-miterlimit:10;}
	.st9{fill:#8DC70C;}
	.st10{fill:#ECFE78;}
	.st11{fill:#73953B;}
	.st12{fill:#3D710C;}
	.st13{fill:#73953B;stroke:#3D710C;stroke-width:3;stroke-linejoin:round;stroke-miterlimit:10;}
	.st14{fill:#EFE8D7;stroke:#DABB95;stroke-width:3;stroke-linejoin:round;stroke-miterlimit:10;}
	.st15{opacity:0.6;fill:none;stroke:#BF71B0;stroke-width:3;stroke-miterlimit:10;}
	.st16{opacity:0.4;fill:none;stroke:#BF71B0;stroke-width:3;stroke-miterlimit:10;}
	.st17{opacity:0.3;fill:none;stroke:#BF71B0;stroke-width:3;stroke-miterlimit:10;}
	.st18{opacity:0.2;fill:none;stroke:#BF71B0;stroke-width:3;stroke-miterlimit:10;}
	.st19{opacity:0.1;fill:none;stroke:#BF71B0;stroke-width:3;stroke-miterlimit:10;}
	.st20{fill:#77A45B;}
	.st21{fill:none;stroke:#FFFFFF;stroke-linecap:round;stroke-linejoin:round;stroke-miterlimit:10;}
	.st22{fill:#00FFFF;}
	.st23{fill:#E50F4F;}
	.st24{fill:#5A8700;}
	.st25{fill:#9D9F01;}
	.st26{fill:none;stroke:#BFBF04;stroke-linecap:round;stroke-linejoin:round;stroke-miterlimit:10;}
	.st27{fill:none;stroke:#CAD058;stroke-linecap:round;stroke-linejoin:round;stroke-miterlimit:10;}
	.st28{fill:#E21039;stroke:#930019;stroke-width:3;stroke-linejoin:round;stroke-miterlimit:10;}
	.st29{fill:#77A45B;stroke:#3D710C;stroke-linecap:round;stroke-linejoin:round;stroke-miterlimit:10;}
	.st30{fill:none;stroke:#77A45B;stroke-width:3;stroke-miterlimit:10;}
	.st31{opacity:0.5;fill:none;stroke:#FFFFFF;stroke-width:3;stroke-linejoin:round;stroke-miterlimit:10;}
	.st32{opacity:0.7;fill:none;stroke:#FFFFFF;stroke-width:3;stroke-linejoin:round;stroke-miterlimit:10;}
	.st33{opacity:0.9;fill:none;stroke:#FFFFFF;stroke-width:3;stroke-linejoin:round;stroke-miterlimit:10;}
	.st34{opacity:0.3;fill:none;stroke:#FFFFFF;stroke-width:3;stroke-linejoin:round;stroke-miterlimit:10;}
	.st35{opacity:0.2;fill:none;stroke:#FFFFFF;stroke-width:3;stroke-linejoin:round;stroke-miterlimit:10;}
	.st36{fill:#E21039;}
	.st37{fill:#930019;}
	.st38{fill:#F4E5E8;}
	.st39{fill:#DEB2BA;}
	.st40{fill:#C8818D;}
	.st41{fill:#B14D5F;}
	.st42{fill:#FFFFFF;}
	.st43{fill:#EFE8D7;}
	.st44{fill:#DABB95;}
	.st45{fill:#E50F4F;stroke:#930019;stroke-width:3;stroke-linejoin:round;stroke-miterlimit:10;}
	.st46{fill:none;stroke:#E87C94;stroke-width:3;stroke-linejoin:round;stroke-miterlimit:10;}
	.st47{fill:none;stroke:#E64872;stroke-width:3;stroke-linejoin:round;stroke-miterlimit:10;}
	.st48{fill:none;stroke:#EBB2B6;stroke-width:3;stroke-linejoin:round;stroke-miterlimit:10;}
	.st49{fill:none;stroke:#930019;stroke-width:3;stroke-linejoin:round;stroke-miterlimit:10;}
	.st50{fill:#E87C94;}
	.st51{fill:#E64872;}
	.st52{fill:#EBB2B6;}
	.st53{opacity:0.7;fill:none;stroke:#E50F4F;stroke-width:3;stroke-linejoin:round;stroke-miterlimit:10;}
	.st54{opacity:0.6;fill:none;stroke:#E50F4F;stroke-width:3;stroke-linejoin:round;stroke-miterlimit:10;}
	.st55{opacity:0.4;fill:none;stroke:#E50F4F;stroke-width:3;stroke-linejoin:round;stroke-miterlimit:10;}
	.st56{opacity:0.3;fill:none;stroke:#E50F4F;stroke-width:3;stroke-linejoin:round;stroke-miterlimit:10;}
	.st57{opacity:0.2;fill:none;stroke:#E50F4F;stroke-width:3;stroke-linejoin:round;stroke-miterlimit:10;}
	.st58{opacity:0.1;fill:none;stroke:#E50F4F;stroke-width:3;stroke-linejoin:round;stroke-miterlimit:10;}
	.st59{fill:none;stroke:#DABB95;stroke-width:3;stroke-linejoin:round;stroke-miterlimit:10;}
	.st60{fill:#77A45B;stroke:#3D710C;stroke-width:0.9521;stroke-linecap:round;stroke-linejoin:round;stroke-miterlimit:10;}
	.st61{fill:#E76886;}
	.st62{fill:#E87D94;}
	.st63{fill:#E992A2;}
	.st64{fill:#EBA7AF;}
	.st65{fill:#ECBDBD;}
	.st66{fill:#EDD2CA;}
	.st67{opacity:0.6;fill:#BF71B0;}
	.st68{opacity:0.5;fill:#BF71B0;}
	.st69{opacity:0.4;fill:#BF71B0;}
	.st70{opacity:0.3;fill:#BF71B0;}
	.st71{opacity:0.2;fill:#BF71B0;}
	.st72{fill:#FCD24F;stroke:#BA8822;stroke-width:3;stroke-linejoin:round;stroke-miterlimit:10;}
	.st73{opacity:0.9;fill:none;stroke:#732429;stroke-width:3;stroke-miterlimit:10;}
	.st74{opacity:0.8;fill:none;stroke:#732429;stroke-width:3;stroke-miterlimit:10;}
	.st75{opacity:0.7;fill:none;stroke:#732429;stroke-width:3;stroke-miterlimit:10;}
	.st76{opacity:0.6;fill:none;stroke:#732429;stroke-width:3;stroke-miterlimit:10;}
	.st77{opacity:0.5;fill:none;stroke:#732429;stroke-width:3;stroke-miterlimit:10;}
	.st78{opacity:0.4;fill:none;stroke:#732429;stroke-width:3;stroke-miterlimit:10;}
	.st79{fill:none;stroke:#BA8822;stroke-width:3;stroke-linejoin:round;stroke-miterlimit:10;}
	.st80{fill:#FCD24F;}
	.st81{fill:#BA8822;}
	.st82{fill:#80352F;}
	.st83{fill:#8D4734;}
	.st84{fill:#9B5838;}
	.st85{fill:#A96A3D;}
	.st86{fill:#B77A42;}
	.st87{fill:#C48B47;}
	.st88{fill:#5B774B;}
	.st89{fill:none;stroke:#ECFE78;stroke-linecap:round;stroke-linejoin:round;stroke-miterlimit:10;}
	.st90{fill:none;stroke:#5B774B;stroke-miterlimit:10;}
	.st91{fill:none;stroke:#ECFE78;stroke-linecap:round;stroke-miterlimit:10;}
	.st92{fill:none;stroke:#5B774B;stroke-linejoin:round;stroke-miterlimit:10;}
	.st93{fill:none;stroke:#89A037;stroke-linecap:round;stroke-linejoin:round;stroke-miterlimit:10;}
	.st94{fill:none;stroke:#89A037;stroke-width:3;stroke-linecap:round;stroke-linejoin:round;stroke-miterlimit:10;}
	.st95{fill:none;stroke:#89A037;stroke-width:3.3343;stroke-linecap:round;stroke-linejoin:round;stroke-miterlimit:10;}
	.st96{fill:#F0FDC5;}
	.st97{fill:#839958;}
	.st98{fill:#AA2F66;}
	.st99{fill:#D8CBC5;}
	.st100{fill:#662128;}
	.st101{fill:#BCE680;stroke:#5B774B;stroke-width:3.1491;stroke-miterlimit:10;}
	.st102{fill:#ECE8DB;stroke:#5B3A03;stroke-miterlimit:10;}
	.st103{fill:none;stroke:#00FF00;stroke-miterlimit:10;}
	.st104{fill:none;stroke:#00FF00;stroke-width:1.0757;stroke-miterlimit:10;}
	.st105{clip-path:url(#SVGID_2_);}
	.st106{fill:none;stroke:#000000;stroke-miterlimit:10;}
	.st107{fill:none;stroke:#000000;stroke-width:1.16;stroke-miterlimit:10;}
	.st108{fill:#7AA66D;}
	.st109{fill:#8BC133;}
	.st110{fill:none;stroke:#000000;stroke-width:0.9135;stroke-miterlimit:10;}
	.st111{fill:none;stroke:#000000;stroke-width:5.9645;stroke-miterlimit:10;}
	.st112{fill:none;stroke:#000000;stroke-width:1.9086;stroke-linecap:round;stroke-linejoin:round;stroke-miterlimit:10;}
	.st113{fill:none;stroke:#4D6261;stroke-width:0.9577;stroke-linecap:round;stroke-linejoin:round;stroke-miterlimit:10;}
	.st114{fill:#7AA66D;stroke:#4D6261;stroke-width:0.9577;stroke-miterlimit:10;}
	.st115{fill:none;stroke:#4D6261;stroke-width:0.9577;stroke-miterlimit:10;}
	.st116{fill:#D2DE8F;stroke:#667F40;stroke-width:3;stroke-miterlimit:10;}
	.st117{fill:none;stroke:#FAFAEE;stroke-linecap:round;stroke-miterlimit:10;}
	.st118{fill:#D2DE8F;}
	.st119{fill:none;stroke:#667F40;stroke-width:3;stroke-miterlimit:10;}
	.st120{fill:#77A578;}
	.st121{fill:#719E7F;}
	.st122{fill:#FAFAEE;}
	.st123{fill:#667F40;}
	.st124{fill:#ECE8DB;stroke:#5B3A03;stroke-width:0.9644;stroke-miterlimit:10;}
	.st125{fill:#7AA66D;stroke:#4D6261;stroke-width:3.6;stroke-linecap:round;stroke-linejoin:round;stroke-miterlimit:10;}
	.st126{fill:none;stroke:#D2DE8F;stroke-miterlimit:10;}
	.st127{fill:none;stroke:#4D6261;stroke-width:3.6;stroke-linecap:round;stroke-linejoin:round;stroke-miterlimit:10;}
	.st128{fill:#ECE8DB;stroke:#5B3A03;stroke-linecap:round;stroke-linejoin:round;stroke-miterlimit:10;}
	.st129{fill:#FAD673;}
	.st130{fill:#CE731F;}
	.st131{fill:#D15CD4;}
	.st132{fill:#701975;}
</style>
<g>
	<path class="st129" d="M100.1,302.9c-9.2-9.2-17.1-19.9-23.2-32.1c-3.8-7.5-6.6-15.1-8.8-22.9c-9.1,7.1-17,15.3-23.6,24.3
		c-10.4-10.4-16.7-24.7-16.7-39.9c0-23.6,14.9-44.8,37-52.9c14.7-5.4,23.3-20.9,20.1-36.1c-4.3-20.5,2.9-41.5,18.9-54.9
		c10.1-8.5,22.9-13.1,36.1-13.1c8,0,16,1.7,23.3,5c4,1.8,8.2,2.7,12.5,2.7c10.7,0,20.7-5.5,26.7-14.7c10.5-16,28.1-25.6,47.2-25.6
		c19.1,0,36.8,9.6,47.2,25.6c6,9.2,16,14.7,26.7,14.7c4.3,0,8.6-0.9,12.5-2.7c7.3-3.3,15.3-5,23.3-5c13.2,0,26,4.7,36.1,13.1
		c16,13.4,23.2,34.4,19,54.8c-3.2,15.3,5.5,30.9,20.2,36.1c22.3,8,37.3,29.3,37.3,53c0,15.4-6.4,29.9-17,40.3
		c-6.7-9.2-14.6-17.5-23.8-24.7c-2.1,7.8-5,15.4-8.8,22.9c-6.5,12.9-14.9,24.1-24.7,33.6L100.1,302.9z"/>
	<path class="st129" d="M249.7,411.1c-0.6,1-1.2,2-1.9,2.9c0.6,0,1.3,0.1,1.9,0.1c0.6,0,1.2,0,1.8-0.1
		C250.9,413,250.3,412.1,249.7,411.1z"/>
</g>
<g>
	<path class="st130" d="M37.7,282.5c4.1-7,9-13.7,14.5-19.8c-1.5-1.6-2.9-3.3-4.2-5.1c-5.2-7.4-8-16.2-8-25.4
		c0-18.5,11.7-35.1,29-41.5c9.8-3.6,18.1-10.6,23.2-19.8c5.1-9.2,6.8-19.9,4.6-30.2c-3.4-16.1,2.3-32.6,14.9-43.1
		c8-6.7,17.8-10.3,28.3-10.3c6.3,0,12.6,1.4,18.3,3.9c5.5,2.5,11.4,3.8,17.5,3.8c14.9,0,28.7-7.5,36.9-20.2
		c8.2-12.6,22.1-20.1,37.1-20.1c15,0,28.8,7.5,37.1,20.1c8.2,12.6,22,20.2,36.9,20.2c6.1,0,12-1.3,17.5-3.8c5.7-2.6,12-3.9,18.3-3.9
		c10.5,0,20.3,3.6,28.3,10.3c12.5,10.5,18.2,27,14.9,43c-4.4,21.2,7.6,42.7,28,50.1c17.5,6.3,29.3,23,29.3,41.6
		c0,11.7-4.7,22.7-12.5,30.8c5.5,6.2,10.3,12.8,14.4,19.9c13.7-12.5,22.4-30.6,22.4-50.6c0-29.7-18.9-54.9-45.3-64.4
		c-9.1-3.3-14.4-12.8-12.4-22.2c5-23.9-3-49.8-23-66.6c-12.8-10.7-28.4-16-43.9-16c-9.7,0-19.3,2-28.3,6.1c-2.4,1.1-5,1.6-7.5,1.6
		c-6.5,0-12.8-3.4-16.6-9.2c-12.2-18.7-33.4-31.1-57.4-31.1s-45.2,12.4-57.4,31.1c-3.8,5.7-10.1,9.2-16.6,9.2
		c-2.5,0-5.1-0.5-7.5-1.6c-8.9-4-18.6-6.1-28.3-6.1c-15.5,0-31.1,5.2-43.9,16C76,95.9,68,121.8,73.1,145.8c2,9.4-3.3,18.9-12.3,22.2
		c-26.2,9.6-45,34.7-45,64.3C15.7,252.2,24.2,270,37.7,282.5z"/>
</g>
<path class="st108" d="M431.3,247.9c-2.1,7.8-5,15.4-8.8,22.9c-30.7,61.2-105.3,85.8-166.4,55.1c-7.5-3.8-14.4-8.2-20.7-13.1
	c-15.4,55.8,10.2,116.6,63.9,143.5c61.2,30.7,135.7,6.1,166.4-55.1C492.7,347.5,477,283.5,431.3,247.9z"/>
<path class="st118" d="M334.8,377.7c0.1,0-9.9,40.7,8.8,85.6l7.5-3.1c-17.8-42.9-10.8-72.1-8.1-80.3c8.8,2.1,18.6,3.7,29.3,4.3
	c4.6,9,26.7,47.8,71.8,56.4l1.5-8c-36.2-6.9-56.8-36.1-63.9-48.3c26.9-0.3,58.9-7.6,93.3-29.4l-4.3-6.8
	c-24.3,15.4-49.2,24.6-74,27.4c-19.9,2.2-39.7,0.4-59.1-5.4L334.8,377.7z"/>
<path class="st108" d="M68.1,247.9c2.1,7.8,5,15.4,8.8,22.9c30.7,61.2,105.3,85.8,166.4,55.1c7.5-3.8,14.4-8.2,20.7-13.1
	c15.4,55.8-10.2,116.6-63.9,143.5C139,487,64.5,462.4,33.7,401.2C6.7,347.5,22.5,283.5,68.1,247.9z"/>
<path class="st118" d="M153,381.6c-20.3,0.1-39.9-3.7-58.4-11.5c-23.1-9.7-44.5-25.6-63.5-47.3l-6.1,5.3
	c26.9,30.7,55.4,46.8,81.2,54.7C96,392.5,68,414.7,31.3,411l-0.8,8.1c45.6,4.5,77.9-26.4,84.8-33.8c10.5,2.5,20.4,3.8,29.4,4.2
	c0.1,3.5-0.1,10.5-2.2,19.9c-2.9,12.7-10.2,32.5-28.3,54.8l6.3,5.1c30.5-37.8,32.6-69.1,32.4-79.6c0.1,0,0.2,0,0.3,0
	c16.8-0.1,31.2-2.8,42-5.7c3.6,14.9,8.1,45.7-7.4,73.4l7.1,3.9c17-30.6,12.1-63.7,8.1-79.7L153,381.6z"/>
<path class="st5" d="M250.8,384.5l-27.4-4.3c2.6,9.9,6.3,19.4,11.1,28.4c0.6,1.1,0.5,2.5-0.2,3.6c-10.1,13.7-23.5,25.2-39.5,33.3
	c-55.1,27.7-122.4,5.4-150.1-49.7c-20.3-40.4-13.9-88.5,14.3-122.1c1.8-2.1,5.1-1.7,6.3,0.7c0.3,0.6,0.6,1.2,0.9,1.9
	c8.2,16.2,19.2,30.4,32.6,41.9l10.4-23.4c-8.5-8.5-15.8-18.3-21.3-29.4c-3.2-6.4-5.9-13.3-7.8-20.3c-0.8-3-2.6-5.7-5.3-7.4
	c-4.5-2.8-10-2.4-14,0.7C9.7,278.1-6.2,348.9,22.9,406.7c23.9,47.5,72,75,121.8,75c20.5,0,41.3-4.7,60.9-14.5
	c16.2-8.2,30.2-19.3,41.6-32.4c1.3-1.5,3.7-1.5,5.1,0c11.4,13.1,25.3,24.2,41.6,32.4c19.6,9.8,40.4,14.5,60.9,14.5
	c49.9,0,98-27.5,121.8-75c29-57.8,13.2-128.6-37.8-168.3c-4-3.1-9.5-3.5-14-0.7c-2.6,1.7-4.4,4.4-5.3,7.4c-2,7-4.6,13.9-7.8,20.3
	c-6,12-13.9,22.4-23.1,31.1l9,24.4c14.5-11.8,26.9-26.7,35.8-44.5c0.3-0.6,0.6-1.2,0.9-1.9c1.2-2.5,4.5-2.8,6.3-0.7
	c28.1,33.6,34.6,81.7,14.3,122.1c-27.7,55.1-95,77.4-150.1,49.7C304.7,445.5,265.5,428.7,250.8,384.5z"/>
<path class="st129" d="M106.4,254.9c-12.2,9.7-19.6,25.1-18.3,41.8c1.8,23.6,20.1,41.9,42.7,44.6c0.6,16.9,9.9,33,26,41.4
	c18.3,9.6,39.9,6.3,54.5-6.5c8.9,11.5,22.8,18.9,38.4,18.9c15.7,0,29.6-7.5,38.5-19c14.7,12.9,36.3,16.2,54.6,6.6
	c16-8.4,25.4-24.5,26-41.4c22.6-2.7,40.9-21,42.7-44.6c1.1-14.6-4.4-28.1-13.9-37.8"/>
<path class="st130" d="M249.7,399.1c-13.3,0-25.7-4.9-35.4-13.7c-2.1-2-5.3-2.3-7.8-0.8c-15.6,9.5-35,10.3-51.7,1.6
	c-14.5-7.6-24.5-21.5-27.4-37.4c-0.4-2.4-2.3-4.4-4.6-5c-21.3-5.7-37.1-24.4-38.8-46.9c-1.3-17.5,6.1-34.4,19.8-45.3
	c1.9-1.5,4.6-1,5.9,1c1.1,1.8,0.6,4.1-1,5.4c-11.6,9.2-17.8,23.5-16.7,38.2c1.6,21.2,18.1,38.4,39.1,40.8c2,0.2,3.5,1.9,3.6,3.9
	c0.5,16,9.7,30.6,23.8,38c16.4,8.6,36,6.2,50-6c0.8-0.7,1.9-1.1,3.1-1c1.1,0.1,2.1,0.7,2.8,1.6c8.5,11,21.4,17.3,35.2,17.3
	c13.9,0,26.7-6.3,35.2-17.3c0.5-0.6,1-1.1,1.8-1.4c1.5-0.6,3.1-0.3,4.2,0.7c13.8,12.1,33.9,14.5,50.1,6.1c14.1-7.4,23.3-22,23.8-38
	c0.1-2,1.6-3.7,3.6-3.9c21.1-2.5,37.5-19.7,39.1-40.8c1-12.8-3.6-25.3-12.6-34.5c-1.5-1.5-1.7-4.1-0.3-5.7c1.6-1.7,4.3-1.8,5.9-0.1
	c10.7,10.8,16.2,25.8,15,40.9c-1.7,22.5-17.6,41.2-38.8,46.9c-2.4,0.6-4.2,2.6-4.6,5c-2.8,15.9-12.9,29.8-27.4,37.4
	c-16.4,8.6-36.2,7.7-51.7-1.7c-2.5-1.5-5.6-1.2-7.8,0.8C275.5,394.1,263,399.1,249.7,399.1z"/>
<path class="st130" d="M176.1,297.1c-0.9,0-1.8-0.3-2.5-0.9c-15.6-12.4-20.7-33.3-13.5-51.1c0.7-1.7,0-3.8-1.6-4.7
	c-16.1-9.2-25.3-28-21.8-46.7c3.9-20.6,21.2-35.2,41.5-36.1c1.6-0.1,3-1.2,3.5-2.7c5.4-18.3,22.1-31.3,41.6-31.6c0.3,0,0.6,0,0.8,0
	c20,0,37,13.1,42.5,31.7c0.5,1.8,2.3,3,4.2,2.7c20.4-2.6,40.2,9.2,47.3,29.3c8,22.7-3.4,47.3-25.8,56c-2.2,0.9-4.7-0.4-5.4-2.7
	c-0.6-2,0.6-4.1,2.6-4.9c18.3-7.2,27.5-27.2,21-45.7c-6.5-18.5-26.3-28.4-45.1-22.5c-1.6,0.5-3.4,0-4.5-1.5c-0.4-0.6-0.7-1.3-0.7-2
	c-2-18.5-17.4-32.3-36-32.3c-0.2,0-0.5,0-0.7,0c-17.6,0.3-32.4,13.2-35.1,30.6c-0.4,2.4-2.6,4.1-4.9,3.8
	c-18.6-1.6-35.3,11-38.8,29.4c-3.3,17.5,6.9,35.1,23.8,40.9c0.7,0.2,1.4,0.6,1.9,1.2c1.2,1.4,1.3,3.4,0.4,4.9
	c-10,15.6-6.6,36.1,7.9,47.7c1.6,1.3,2.1,3.6,1,5.3C178.8,296.5,177.5,297.1,176.1,297.1z"/>
</svg>
