<?xml version="1.0" encoding="utf-8"?>
<!-- Generator: Adobe Illustrator 20.0.0, SVG Export Plug-In . SVG Version: 6.00 Build 0)  -->
<svg version="1.1" id="Layer_1" xmlns="http://www.w3.org/2000/svg" xmlns:xlink="http://www.w3.org/1999/xlink" x="0px" y="0px"
	 viewBox="0 0 64 64" style="enable-background:new 0 0 64 64;" xml:space="preserve">
<style type="text/css">
	.st0{fill:#D5DF7F;}
	.st1{fill:#80AC66;}
	.st2{fill:#F9FBEF;}
	.st3{fill:#82AF1D;}
	.st4{fill:#2F3F1A;}
	.st5{fill:#E7ECB9;}
	.st6{fill:#F0F3D4;}
	.st7{fill:#DEE59F;}
	.st8{fill:#ACC476;}
	.st9{fill:#96B870;}
	.st10{fill:#C0D17E;}
	.st11{fill:#BC6F6B;}
	.st12{fill:#D48C64;stroke:#93663D;stroke-width:3;stroke-miterlimit:10;}
	.st13{fill:url(#SVGID_1_);}
	.st14{fill:none;stroke:#CEB699;stroke-linecap:round;stroke-linejoin:round;stroke-miterlimit:10;}
	.st15{fill:url(#SVGID_2_);stroke:#2F3F1A;stroke-width:3;stroke-linecap:round;stroke-miterlimit:10;}
	.st16{fill:none;stroke:#2F3F1A;stroke-miterlimit:10;}
	.st17{fill:url(#SVGID_3_);}
	.st18{fill:none;stroke:#8D5733;stroke-linecap:round;stroke-linejoin:round;stroke-miterlimit:10;}
	.st19{fill:#FCAA54;}
	.st20{fill:#8D5733;}
	.st21{fill:none;stroke:#FFFFFF;stroke-linecap:round;stroke-linejoin:round;stroke-miterlimit:10;}
	.st22{fill:none;stroke:#8D5733;stroke-linecap:round;stroke-miterlimit:10;}
	.st23{fill:none;stroke:#FFFFFF;stroke-linecap:round;stroke-miterlimit:10;}
	.st24{fill:#FFFFFF;}
	.st25{fill:#8CC63F;}
	.st26{fill:#FDD6AD;}
	.st27{fill:#B63640;}
	.st28{fill:#DDA1A4;}
	.st29{fill:#38171C;}
	.st30{fill:#E5E1C7;}
	.st31{fill:#BEC57A;}
	.st32{fill:#B1986C;}
	.st33{fill:#00FFFF;}
	.st34{fill:#FCAA54;stroke:#8CC63F;stroke-width:3;stroke-linecap:round;stroke-linejoin:round;stroke-miterlimit:10;}
	.st35{fill:none;stroke:#38171C;stroke-linecap:round;stroke-linejoin:round;stroke-miterlimit:10;}
	.st36{fill:none;stroke:#DDA1A4;stroke-linecap:round;stroke-linejoin:round;stroke-miterlimit:10;}
	.st37{fill:none;stroke:#B1986C;stroke-linecap:round;stroke-linejoin:round;stroke-miterlimit:10;}
	.st38{fill:none;stroke:#BEC57A;stroke-linecap:round;stroke-linejoin:round;stroke-miterlimit:10;}
	.st39{fill:none;stroke:#986E5A;stroke-linecap:round;stroke-linejoin:round;stroke-miterlimit:10;}
	.st40{fill:#EEE1C2;}
	.st41{fill:#F0DBC2;stroke:#986E5A;stroke-width:3;stroke-miterlimit:10;}
	.st42{fill:none;stroke:#BA8178;stroke-linecap:round;stroke-miterlimit:10;}
	.st43{fill:none;stroke:#986E5A;stroke-width:3;stroke-miterlimit:10;}
	.st44{fill:none;stroke:#F8C899;stroke-linecap:round;stroke-linejoin:round;stroke-miterlimit:10;}
	.st45{fill:none;stroke:#E6C18D;stroke-linecap:round;stroke-linejoin:round;stroke-miterlimit:10;}
	.st46{fill:none;stroke:#2F3F1A;stroke-width:3;stroke-miterlimit:10;}
	.st47{fill:url(#SVGID_4_);}
	.st48{fill:url(#SVGID_5_);}
	.st49{fill:none;stroke:#2F3F1A;stroke-width:3;stroke-linejoin:round;stroke-miterlimit:10;}
	.st50{fill:none;stroke:#2F3F1A;stroke-linejoin:round;stroke-miterlimit:10;}
	.st51{clip-path:url(#SVGID_7_);}
	.st52{clip-path:url(#SVGID_9_);}
	.st53{clip-path:url(#SVGID_11_);}
	.st54{fill:#D46A71;stroke:#9E423B;stroke-width:3;stroke-miterlimit:10;}
	.st55{fill:none;stroke:#D68C79;stroke-linecap:round;stroke-miterlimit:10;}
	.st56{fill:url(#SVGID_12_);}
	.st57{fill:#CEB699;}
	.st58{fill:url(#SVGID_13_);}
	.st59{fill:url(#SVGID_14_);}
	.st60{fill:url(#SVGID_15_);}
	.st61{clip-path:url(#SVGID_17_);fill:#F9FBEF;}
	.st62{clip-path:url(#SVGID_17_);fill:#F9FBEE;}
	.st63{clip-path:url(#SVGID_17_);fill:#F8FBED;}
	.st64{clip-path:url(#SVGID_17_);fill:#F8FAED;}
	.st65{clip-path:url(#SVGID_17_);fill:#F8FAEC;}
	.st66{clip-path:url(#SVGID_17_);fill:#F8FAEB;}
	.st67{clip-path:url(#SVGID_17_);fill:#F8FAEA;}
	.st68{clip-path:url(#SVGID_17_);fill:#F7FAEA;}
	.st69{clip-path:url(#SVGID_17_);fill:#F7FAE9;}
	.st70{clip-path:url(#SVGID_17_);fill:#F7F9E9;}
	.st71{clip-path:url(#SVGID_17_);fill:#F7F9E8;}
	.st72{clip-path:url(#SVGID_17_);fill:#F7F9E7;}
	.st73{clip-path:url(#SVGID_17_);fill:#F6F9E7;}
	.st74{clip-path:url(#SVGID_17_);fill:#F6F9E6;}
	.st75{clip-path:url(#SVGID_17_);fill:#F6F9E5;}
	.st76{clip-path:url(#SVGID_17_);fill:#F6F8E5;}
	.st77{clip-path:url(#SVGID_17_);fill:#F5F8E4;}
	.st78{clip-path:url(#SVGID_17_);fill:#F5F8E3;}
	.st79{clip-path:url(#SVGID_17_);fill:#F5F8E2;}
	.st80{clip-path:url(#SVGID_17_);fill:#F5F8E1;}
	.st81{clip-path:url(#SVGID_17_);fill:#F4F7E0;}
	.st82{clip-path:url(#SVGID_17_);fill:#F4F7DF;}
	.st83{clip-path:url(#SVGID_17_);fill:#F4F7DE;}
	.st84{clip-path:url(#SVGID_17_);fill:#F3F7DD;}
	.st85{clip-path:url(#SVGID_17_);fill:#F3F6DC;}
	.st86{clip-path:url(#SVGID_17_);fill:#F3F6DB;}
	.st87{clip-path:url(#SVGID_17_);fill:#F2F6DA;}
	.st88{clip-path:url(#SVGID_17_);fill:#F2F5D9;}
	.st89{clip-path:url(#SVGID_17_);fill:#F1F5D8;}
	.st90{clip-path:url(#SVGID_17_);fill:#F1F5D6;}
	.st91{clip-path:url(#SVGID_17_);fill:#F1F5D5;}
	.st92{clip-path:url(#SVGID_17_);fill:#F0F4D4;}
	.st93{clip-path:url(#SVGID_17_);fill:#F0F4D3;}
	.st94{clip-path:url(#SVGID_17_);fill:#F0F4D2;}
	.st95{clip-path:url(#SVGID_17_);fill:#EFF3D1;}
	.st96{clip-path:url(#SVGID_17_);fill:#EFF3CF;}
	.st97{clip-path:url(#SVGID_17_);fill:#EEF3CE;}
	.st98{clip-path:url(#SVGID_17_);fill:#EEF2CD;}
	.st99{clip-path:url(#SVGID_17_);fill:#EEF2CC;}
	.st100{clip-path:url(#SVGID_17_);fill:#EDF2CA;}
	.st101{clip-path:url(#SVGID_17_);fill:#EDF1C9;}
	.st102{clip-path:url(#SVGID_17_);fill:#ECF1C7;}
	.st103{clip-path:url(#SVGID_17_);fill:#ECF1C6;}
	.st104{clip-path:url(#SVGID_17_);fill:#EBF0C4;}
	.st105{clip-path:url(#SVGID_17_);fill:#EBF0C3;}
	.st106{clip-path:url(#SVGID_17_);fill:#EAF0C1;}
	.st107{clip-path:url(#SVGID_17_);fill:#EAEFC0;}
	.st108{clip-path:url(#SVGID_17_);fill:#E9EFBE;}
	.st109{clip-path:url(#SVGID_17_);fill:#E9EEBC;}
	.st110{clip-path:url(#SVGID_17_);fill:#E8EEBA;}
	.st111{clip-path:url(#SVGID_17_);fill:#E8EDB9;}
	.st112{clip-path:url(#SVGID_17_);fill:#E7EDB7;}
	.st113{clip-path:url(#SVGID_17_);fill:#E6EDB5;}
	.st114{clip-path:url(#SVGID_17_);fill:#E6ECB3;}
	.st115{clip-path:url(#SVGID_17_);fill:#E5ECB1;}
	.st116{clip-path:url(#SVGID_17_);fill:#E5EBAF;}
	.st117{clip-path:url(#SVGID_17_);fill:#E4EBAD;}
	.st118{clip-path:url(#SVGID_17_);fill:#E3EAAB;}
	.st119{clip-path:url(#SVGID_17_);fill:#E3EAA9;}
	.st120{clip-path:url(#SVGID_17_);fill:#E2E9A7;}
	.st121{clip-path:url(#SVGID_17_);fill:#E1E8A5;}
	.st122{clip-path:url(#SVGID_17_);fill:#E0E8A3;}
	.st123{clip-path:url(#SVGID_17_);fill:#E0E7A0;}
	.st124{clip-path:url(#SVGID_17_);fill:#DFE79E;}
	.st125{clip-path:url(#SVGID_17_);fill:#DEE69C;}
	.st126{clip-path:url(#SVGID_17_);fill:#DDE699;}
	.st127{clip-path:url(#SVGID_17_);fill:#DDE597;}
	.st128{clip-path:url(#SVGID_17_);fill:#DCE494;}
	.st129{clip-path:url(#SVGID_17_);fill:#DBE492;}
	.st130{clip-path:url(#SVGID_17_);fill:#DAE38F;}
	.st131{clip-path:url(#SVGID_17_);fill:#D9E28D;}
	.st132{clip-path:url(#SVGID_17_);fill:#D9E28A;}
	.st133{clip-path:url(#SVGID_17_);fill:#D8E187;}
	.st134{clip-path:url(#SVGID_17_);fill:#D7E085;}
	.st135{clip-path:url(#SVGID_17_);fill:#D6E082;}
	.st136{clip-path:url(#SVGID_17_);fill:#D5DF7F;}
	.st137{clip-path:url(#SVGID_17_);fill:#D3DE7E;}
	.st138{clip-path:url(#SVGID_17_);fill:#D1DC7E;}
	.st139{clip-path:url(#SVGID_17_);fill:#CFDB7D;}
	.st140{clip-path:url(#SVGID_17_);fill:#CCDA7C;}
	.st141{clip-path:url(#SVGID_17_);fill:#CAD97C;}
	.st142{clip-path:url(#SVGID_17_);fill:#C8D77B;}
	.st143{clip-path:url(#SVGID_17_);fill:#C6D67B;}
	.st144{clip-path:url(#SVGID_17_);fill:#C4D57A;}
	.st145{clip-path:url(#SVGID_17_);fill:#C2D47A;}
	.st146{clip-path:url(#SVGID_17_);fill:#C1D379;}
	.st147{clip-path:url(#SVGID_17_);fill:#BFD278;}
	.st148{clip-path:url(#SVGID_17_);fill:#BDD178;}
	.st149{clip-path:url(#SVGID_17_);fill:#BBCF77;}
	.st150{clip-path:url(#SVGID_17_);fill:#B9CE77;}
	.st151{clip-path:url(#SVGID_17_);fill:#B7CD76;}
	.st152{clip-path:url(#SVGID_17_);fill:#B6CC76;}
	.st153{clip-path:url(#SVGID_17_);fill:#B4CB75;}
	.st154{clip-path:url(#SVGID_17_);fill:#B2CA75;}
	.st155{clip-path:url(#SVGID_17_);fill:#B1C974;}
	.st156{clip-path:url(#SVGID_17_);fill:#AFC874;}
	.st157{clip-path:url(#SVGID_17_);fill:#AEC773;}
	.st158{clip-path:url(#SVGID_17_);fill:#ACC673;}
	.st159{clip-path:url(#SVGID_17_);fill:#AAC572;}
	.st160{clip-path:url(#SVGID_17_);fill:#A9C572;}
	.st161{clip-path:url(#SVGID_17_);fill:#A7C472;}
	.st162{clip-path:url(#SVGID_17_);fill:#A6C371;}
	.st163{clip-path:url(#SVGID_17_);fill:#A5C271;}
	.st164{clip-path:url(#SVGID_17_);fill:#A3C170;}
	.st165{clip-path:url(#SVGID_17_);fill:#A2C070;}
	.st166{clip-path:url(#SVGID_17_);fill:#A1C070;}
	.st167{clip-path:url(#SVGID_17_);fill:#9FBF6F;}
	.st168{clip-path:url(#SVGID_17_);fill:#9EBE6F;}
	.st169{clip-path:url(#SVGID_17_);fill:#9DBD6E;}
	.st170{clip-path:url(#SVGID_17_);fill:#9CBD6E;}
	.st171{clip-path:url(#SVGID_17_);fill:#9ABC6E;}
	.st172{clip-path:url(#SVGID_17_);fill:#99BB6D;}
	.st173{clip-path:url(#SVGID_17_);fill:#98BA6D;}
	.st174{clip-path:url(#SVGID_17_);fill:#97BA6D;}
	.st175{clip-path:url(#SVGID_17_);fill:#96B96C;}
	.st176{clip-path:url(#SVGID_17_);fill:#95B96C;}
	.st177{clip-path:url(#SVGID_17_);fill:#94B86C;}
	.st178{clip-path:url(#SVGID_17_);fill:#93B76C;}
	.st179{clip-path:url(#SVGID_17_);fill:#92B76B;}
	.st180{clip-path:url(#SVGID_17_);fill:#91B66B;}
	.st181{clip-path:url(#SVGID_17_);fill:#90B66B;}
	.st182{clip-path:url(#SVGID_17_);fill:#8FB56A;}
	.st183{clip-path:url(#SVGID_17_);fill:#8EB56A;}
	.st184{clip-path:url(#SVGID_17_);fill:#8EB46A;}
	.st185{clip-path:url(#SVGID_17_);fill:#8DB46A;}
	.st186{clip-path:url(#SVGID_17_);fill:#8CB36A;}
	.st187{clip-path:url(#SVGID_17_);fill:#8BB369;}
	.st188{clip-path:url(#SVGID_17_);fill:#8AB269;}
	.st189{clip-path:url(#SVGID_17_);fill:#89B169;}
	.st190{clip-path:url(#SVGID_17_);fill:#88B168;}
	.st191{clip-path:url(#SVGID_17_);fill:#87B068;}
	.st192{clip-path:url(#SVGID_17_);fill:#86B068;}
	.st193{clip-path:url(#SVGID_17_);fill:#86AF68;}
	.st194{clip-path:url(#SVGID_17_);fill:#85AF68;}
	.st195{clip-path:url(#SVGID_17_);fill:#85AF67;}
	.st196{clip-path:url(#SVGID_17_);fill:#84AF67;}
	.st197{clip-path:url(#SVGID_17_);fill:#84AE67;}
	.st198{clip-path:url(#SVGID_17_);fill:#83AE67;}
	.st199{clip-path:url(#SVGID_17_);fill:#82AD67;}
	.st200{clip-path:url(#SVGID_17_);fill:#81AD66;}
	.st201{clip-path:url(#SVGID_17_);fill:#81AC66;}
	.st202{clip-path:url(#SVGID_17_);fill:#80AC66;}
	.st203{fill:none;stroke:#E7ECB9;stroke-miterlimit:10;}
	.st204{fill:none;stroke:#ACC476;stroke-miterlimit:10;}
	.st205{fill:url(#SVGID_18_);stroke:#2F3F1A;stroke-width:3;stroke-linecap:round;stroke-miterlimit:10;}
	.st206{fill:none;stroke:#2F3F1A;stroke-linecap:round;stroke-miterlimit:10;}
	.st207{opacity:0.2;}
	.st208{fill:#93663D;}
	.st209{fill:none;stroke:#93663D;stroke-width:3;stroke-miterlimit:10;}
	.st210{fill:#D48C64;}
	.st211{fill:#C68460;}
	.st212{fill:#B3706B;}
	.st213{fill:#B58070;}
	.st214{fill:#682A28;}
	.st215{fill:#B3706B;stroke:#682A28;stroke-width:3;stroke-miterlimit:10;}
	.st216{fill:#B6806E;}
	.st217{fill:none;stroke:#682A28;stroke-width:3;stroke-miterlimit:10;}
	.st218{fill:none;stroke:#D68C79;stroke-miterlimit:10;}
	.st219{opacity:0.4;fill:none;stroke:#FFFFFF;stroke-linecap:round;stroke-miterlimit:10;}
	.st220{fill:none;stroke:#9E423B;stroke-width:3;stroke-linecap:round;stroke-linejoin:round;stroke-miterlimit:10;}
	.st221{fill:none;stroke:#9E423B;stroke-miterlimit:10;}
	.st222{fill:url(#SVGID_19_);stroke:#5B7D12;stroke-width:3;stroke-linecap:round;stroke-linejoin:round;stroke-miterlimit:10;}
	.st223{fill:url(#SVGID_20_);stroke:#2F3F1A;stroke-linecap:round;stroke-linejoin:round;stroke-miterlimit:10;}
	.st224{fill:url(#SVGID_21_);stroke:#2F3F1A;stroke-linecap:round;stroke-linejoin:round;stroke-miterlimit:10;}
	.st225{fill:url(#SVGID_22_);stroke:#2F3F1A;stroke-linecap:round;stroke-linejoin:round;stroke-miterlimit:10;}
	.st226{fill:url(#SVGID_23_);stroke:#2F3F1A;stroke-linecap:round;stroke-linejoin:round;stroke-miterlimit:10;}
	.st227{fill:url(#SVGID_24_);stroke:#2F3F1A;stroke-linecap:round;stroke-linejoin:round;stroke-miterlimit:10;}
	.st228{fill:url(#SVGID_25_);stroke:#5B7D12;stroke-width:3;stroke-linecap:round;stroke-linejoin:round;stroke-miterlimit:10;}
	.st229{fill:url(#SVGID_26_);stroke:#2F3F1A;stroke-linecap:round;stroke-linejoin:round;stroke-miterlimit:10;}
	.st230{fill:url(#SVGID_27_);stroke:#2F3F1A;stroke-linecap:round;stroke-linejoin:round;stroke-miterlimit:10;}
	.st231{fill:url(#SVGID_28_);stroke:#2F3F1A;stroke-linecap:round;stroke-linejoin:round;stroke-miterlimit:10;}
	.st232{fill:url(#SVGID_29_);stroke:#2F3F1A;stroke-linecap:round;stroke-linejoin:round;stroke-miterlimit:10;}
	.st233{fill:url(#SVGID_30_);stroke:#2F3F1A;stroke-linecap:round;stroke-linejoin:round;stroke-miterlimit:10;}
	.st234{fill:url(#SVGID_31_);stroke:#5B7D12;stroke-width:3;stroke-linecap:round;stroke-linejoin:round;stroke-miterlimit:10;}
	.st235{fill:url(#SVGID_32_);stroke:#2F3F1A;stroke-linecap:round;stroke-linejoin:round;stroke-miterlimit:10;}
	.st236{fill:url(#SVGID_33_);stroke:#2F3F1A;stroke-linecap:round;stroke-linejoin:round;stroke-miterlimit:10;}
	.st237{fill:url(#SVGID_34_);stroke:#2F3F1A;stroke-linecap:round;stroke-linejoin:round;stroke-miterlimit:10;}
	.st238{fill:url(#SVGID_35_);stroke:#2F3F1A;stroke-linecap:round;stroke-linejoin:round;stroke-miterlimit:10;}
	.st239{fill:url(#SVGID_36_);stroke:#2F3F1A;stroke-linecap:round;stroke-linejoin:round;stroke-miterlimit:10;}
	.st240{opacity:0.4;fill:#FFFFFF;}
	.st241{fill:#D68C79;}
	.st242{fill:#E5BAB0;}
	.st243{fill:#9E423B;}
	.st244{fill:url(#SVGID_37_);stroke:#2F3F1A;stroke-width:3;stroke-miterlimit:10;}
	.st245{fill:url(#SVGID_38_);}
	.st246{fill:url(#SVGID_39_);}
	.st247{clip-path:url(#SVGID_41_);fill:#FEFED2;}
	.st248{clip-path:url(#SVGID_41_);fill:#FAFBCD;}
	.st249{clip-path:url(#SVGID_41_);fill:#F6F9C8;}
	.st250{clip-path:url(#SVGID_41_);fill:#F2F7C4;}
	.st251{clip-path:url(#SVGID_41_);fill:#EEF4BF;}
	.st252{clip-path:url(#SVGID_41_);fill:#EAF2BB;}
	.st253{clip-path:url(#SVGID_41_);fill:#E6F0B7;}
	.st254{clip-path:url(#SVGID_41_);fill:#E3EEB3;}
	.st255{clip-path:url(#SVGID_41_);fill:#DFECAF;}
	.st256{clip-path:url(#SVGID_41_);fill:#DCEAAB;}
	.st257{clip-path:url(#SVGID_41_);fill:#D9E8A7;}
	.st258{clip-path:url(#SVGID_41_);fill:#D6E6A4;}
	.st259{clip-path:url(#SVGID_41_);fill:#D3E4A0;}
	.st260{clip-path:url(#SVGID_41_);fill:#D0E39D;}
	.st261{clip-path:url(#SVGID_41_);fill:#CDE19A;}
	.st262{clip-path:url(#SVGID_41_);fill:#CBE097;}
	.st263{clip-path:url(#SVGID_41_);fill:#C8DE94;}
	.st264{clip-path:url(#SVGID_41_);fill:#C5DD91;}
	.st265{clip-path:url(#SVGID_41_);fill:#C3DB8E;}
	.st266{clip-path:url(#SVGID_41_);fill:#C1DA8B;}
	.st267{clip-path:url(#SVGID_41_);fill:#BFD889;}
	.st268{clip-path:url(#SVGID_41_);fill:#BCD786;}
	.st269{clip-path:url(#SVGID_41_);fill:#BAD684;}
	.st270{clip-path:url(#SVGID_41_);fill:#B8D582;}
	.st271{clip-path:url(#SVGID_41_);fill:#B6D47F;}
	.st272{clip-path:url(#SVGID_41_);fill:#B5D37D;}
	.st273{clip-path:url(#SVGID_41_);fill:#B3D27B;}
	.st274{clip-path:url(#SVGID_41_);fill:#B1D179;}
	.st275{clip-path:url(#SVGID_41_);fill:#AFD077;}
	.st276{clip-path:url(#SVGID_41_);fill:#AECF76;}
	.st277{clip-path:url(#SVGID_41_);fill:#ACCE74;}
	.st278{clip-path:url(#SVGID_41_);fill:#ABCD72;}
	.st279{clip-path:url(#SVGID_41_);fill:#AACC71;}
	.st280{clip-path:url(#SVGID_41_);fill:#A8CB6F;}
	.st281{clip-path:url(#SVGID_41_);fill:#A7CB6E;}
	.st282{clip-path:url(#SVGID_41_);fill:#A6CA6C;}
	.st283{clip-path:url(#SVGID_41_);fill:#A5C96B;}
	.st284{clip-path:url(#SVGID_41_);fill:#A3C96A;}
	.st285{clip-path:url(#SVGID_41_);fill:#A2C868;}
	.st286{clip-path:url(#SVGID_41_);fill:#A1C767;}
	.st287{clip-path:url(#SVGID_41_);fill:#A0C766;}
	.st288{clip-path:url(#SVGID_41_);fill:#A0C665;}
	.st289{clip-path:url(#SVGID_41_);fill:#9FC664;}
	.st290{clip-path:url(#SVGID_41_);fill:#9EC563;}
	.st291{clip-path:url(#SVGID_41_);fill:#9DC562;}
	.st292{clip-path:url(#SVGID_41_);fill:#9CC461;}
	.st293{clip-path:url(#SVGID_41_);fill:#9BC460;}
	.st294{clip-path:url(#SVGID_41_);fill:#9BC35F;}
	.st295{clip-path:url(#SVGID_41_);fill:#9AC35F;}
	.st296{clip-path:url(#SVGID_41_);fill:#99C35E;}
	.st297{clip-path:url(#SVGID_41_);fill:#99C25D;}
	.st298{clip-path:url(#SVGID_41_);fill:#98C25D;}
	.st299{clip-path:url(#SVGID_41_);fill:#98C25C;}
	.st300{clip-path:url(#SVGID_41_);fill:#97C15B;}
	.st301{clip-path:url(#SVGID_41_);fill:#96C15A;}
	.st302{clip-path:url(#SVGID_41_);fill:#96C05A;}
	.st303{clip-path:url(#SVGID_41_);fill:#95C059;}
	.st304{clip-path:url(#SVGID_41_);fill:#95C058;}
	.st305{clip-path:url(#SVGID_41_);fill:#94C058;}
	.st306{clip-path:url(#SVGID_41_);fill:#94BF58;}
	.st307{clip-path:url(#SVGID_41_);fill:#94BF57;}
	.st308{clip-path:url(#SVGID_41_);fill:#93BF57;}
	.st309{clip-path:url(#SVGID_41_);fill:#93BF56;}
	.st310{clip-path:url(#SVGID_41_);fill:#93BE56;}
	.st311{clip-path:url(#SVGID_41_);fill:#92BE56;}
	.st312{clip-path:url(#SVGID_41_);fill:#92BE55;}
	.st313{clip-path:url(#SVGID_41_);fill:#91BE55;}
	.st314{clip-path:url(#SVGID_41_);fill:#91BE54;}
	.st315{clip-path:url(#SVGID_41_);fill:#91BD54;}
	.st316{clip-path:url(#SVGID_41_);fill:#90BD54;}
	.st317{clip-path:url(#SVGID_41_);fill:#90BD53;}
	.st318{fill:#C0D57C;}
	.st319{fill:#BA8178;}
	.st320{fill:#986E5A;}
	.st321{fill:#F8C899;}
	.st322{fill:none;stroke:#CBCFA3;stroke-miterlimit:10;}
	.st323{fill:none;stroke:#C5D297;stroke-miterlimit:10;}
	.st324{fill:none;stroke:#D0CDAF;stroke-miterlimit:10;}
	.st325{fill:none;stroke:#A1C259;stroke-miterlimit:10;}
	.st326{fill:none;stroke:#92B741;stroke-miterlimit:10;}
	.st327{fill:none;stroke:#B1CC71;stroke-miterlimit:10;}
	.st328{fill:#BFD787;}
	.st329{fill:#A1C259;}
	.st330{fill:#92B741;}
	.st331{fill:#B1CC71;}
	.st332{fill:#D6C9BB;}
	.st333{fill:#CBCFA3;}
	.st334{fill:#C5D297;}
	.st335{fill:#D0CDAF;}
	.st336{fill:#5B7D12;}
</style>
<g>
	<g>
		<path class="st25" d="M39.3,9.6l-2.6-7.1c-0.2-0.6-0.8-1-1.4-1c-0.7,0-1.2,0.4-1.4,0.9L31.2,9l-2.2-7.8C28.9,0.5,28.3,0,27.6,0
			c-0.7,0-1.3,0.5-1.4,1.2l-2,8.9L39.3,9.6z"/>
	</g>
	<path class="st19" d="M38.3,15.5l1.4-6.9l-7.4,0l-8,0l1.4,6.9C10.8,18,2.6,24.8,2.6,34.9c0,8,6.6,14.7,18.2,18.4
		c1.1,0.4,1.9,1.2,2.2,2.3c0.3,1.2,1.3,2.2,2.5,2.5c1.5,0.4,3.9,1,6.7,1c2,0,4.2-0.3,6.5-1c1.2-0.4,2.1-1.3,2.4-2.6
		c0.3-1,1.1-1.9,2.2-2.2c11.5-3.7,18.1-10.4,18.1-18.3C61.4,24.9,53.2,18,38.3,15.5z"/>
	<g>
		<path class="st26" d="M36.8,8.3l-2.3,9.2c1.6,1.3,9.5,8.3,9.5,17.8c0,5.5-2.3,9.7-4.4,13.7c-1.8,3.4-3.6,6.6-3.6,10.2h-1
			c0-3.9,1.8-7.2,3.7-10.7c2.1-3.9,4.3-8,4.3-13.3c0-9.8-9.3-17.1-9.4-17.2c-0.2-0.1-0.2-0.3-0.2-0.5L35.9,8L36.8,8.3z"/>
	</g>
	<g>
		<path class="st26" d="M27.7,8.9l1.9,8.7c0.1,0.2-0.1,0.5-0.3,0.6c-0.1,0.1-13.7,6.4-13.7,17.1c0,5.4,3.4,8.4,7,11.6
			c3.6,3.2,7.4,6.5,7.4,12.4h-1c0-5.4-3.4-8.5-7.1-11.7c-3.6-3.2-7.3-6.5-7.3-12.3c0-10.5,11.6-16.8,13.9-17.9l-1.8-8.3L27.7,8.9z"
			/>
	</g>
	<path class="st20" d="M41.3,13.5L42,9.8c0.1-0.2,0.1-0.5,0.1-0.7c0-1.6-1.3-3-3-3c0,0,0,0,0,0c0,0-0.1,0-0.1,0c-0.1,0-0.3,0-0.4,0
		l-6.1,1c-0.4,0.1-0.8,0.2-1.1,0.4c-0.3-0.2-0.6-0.3-1-0.4l-4.9-1c-0.2,0-0.4-0.1-0.6-0.1c-0.8,0-1.6,0.3-2.1,0.9
		c-0.7,0.7-1,1.7-0.8,2.7l0.8,3.8C8.1,16.5,0.1,24.1,0.1,34.9C0.1,44,7.4,51.6,20,55.6c0.3,0.1,0.5,0.3,0.5,0.5
		c0.5,1.9,1.9,3.4,3.8,4.1l-0.5,2.1c-0.1,0.3,0.1,0.5,0.4,0.6c0,0,0.1,0,0.1,0c0.2,0,0.4-0.1,0.5-0.4l0.5-2c0.3,0.1,0.6,0.1,0.9,0.2
		l-0.4,2c-0.1,0.3,0.1,0.5,0.4,0.6c0,0,0.1,0,0.1,0c0.2,0,0.4-0.2,0.5-0.4l0.4-2c0.3,0.1,0.5,0.1,0.8,0.1l-0.2,2
		c0,0.3,0.2,0.5,0.4,0.6c0,0,0,0,0.1,0c0.2,0,0.5-0.2,0.5-0.4l0.2-2c0.3,0,0.6,0.1,0.9,0.1l-0.1,2c0,0.3,0.2,0.5,0.5,0.5
		c0,0,0,0,0,0c0.3,0,0.5-0.2,0.5-0.5l0.1-2c0.2,0,0.5,0,0.7,0v2c0,0.3,0.2,0.5,0.5,0.5s0.5-0.2,0.5-0.5v-2c0.3,0,0.6,0,0.9,0l0.1,2
		c0,0.3,0.2,0.5,0.5,0.5c0,0,0,0,0,0c0.3,0,0.5-0.3,0.5-0.5l-0.1-2c0.2,0,0.5-0.1,0.7-0.1l0.2,2c0,0.3,0.2,0.4,0.5,0.4
		c0,0,0,0,0.1,0c0.3,0,0.5-0.3,0.4-0.6l-0.2-2c0.3,0,0.6-0.1,0.9-0.2l0.4,2c0,0.2,0.3,0.4,0.5,0.4c0,0,0.1,0,0.1,0
		c0.3-0.1,0.4-0.3,0.4-0.6l-0.4-2c0.3-0.1,0.5-0.1,0.8-0.2l0.5,2c0.1,0.2,0.3,0.4,0.5,0.4c0,0,0.1,0,0.1,0c0.3-0.1,0.4-0.3,0.4-0.6
		l-0.5-2.1c1.8-0.7,3.3-2.3,3.7-4.1l0-0.1c0.1-0.2,0.3-0.4,0.5-0.5C56.7,51.6,63.9,44,63.9,34.9C63.9,24.1,55.9,16.6,41.3,13.5z
		 M43.2,52.8c-1.3,0.4-2.2,1.4-2.5,2.6l0,0.1c-0.3,1-1,1.8-2.1,2.2c-2.3,0.7-4.4,0.9-6.4,0.9c-2.8,0-5.1-0.5-6.6-0.9
		c-1.1-0.3-1.9-1.2-2.2-2.2c-0.3-1.2-1.3-2.2-2.5-2.6C10.5,49.4,3.1,43.2,3.1,34.9c0-10.8,9.6-16.6,22.4-18.8
		c0.4-0.1,0.7-0.5,0.6-0.9l-1-4.8c-0.1-0.6,0.4-1,0.9-0.9l3.2,0.6c0.3,0.1,0.5,0.3,0.6,0.6l0.5,2h1.7l0.7-2c0.1-0.3,0.3-0.5,0.6-0.5
		L38,9.3c0.5-0.1,1,0.4,0.9,0.9l-1,4.9c-0.1,0.4,0.2,0.9,0.6,0.9c12.8,2.2,22.4,8.1,22.4,18.9C60.9,43.2,53.6,49.4,43.2,52.8z"/>
	<g>
		<path class="st26" d="M26.6,43.8c-0.2,0-0.3-0.1-0.4-0.2c-5.6-8.7-0.1-17.3,0-17.4c0.2-0.2,0.5-0.3,0.7-0.1
			c0.2,0.2,0.3,0.5,0.1,0.7c-0.1,0.1-5.2,8.1,0,16.3c0.1,0.2,0.1,0.5-0.2,0.7C26.8,43.7,26.7,43.8,26.6,43.8z"/>
	</g>
	<g>
		<path class="st26" d="M32,49.9c0,0-0.1,0-0.1,0c-0.3-0.1-0.4-0.4-0.3-0.6c4.6-14.9,0.1-28,0-28.1c-0.1-0.3,0-0.5,0.3-0.6
			c0.3-0.1,0.5,0,0.6,0.3c0,0.1,4.7,13.6,0,28.8C32.4,49.8,32.2,49.9,32,49.9z"/>
	</g>
	<g>
		<path class="st24" d="M7.8,31c0,0-0.1,0-0.1,0c-0.3-0.1-0.4-0.3-0.4-0.6c1.8-7.2,10.7-10.2,11-10.3c0.3-0.1,0.5,0.1,0.6,0.3
			c0.1,0.3-0.1,0.5-0.3,0.6c-0.1,0-8.7,2.9-10.4,9.6C8.2,30.9,8,31,7.8,31z"/>
	</g>
	<g>
		<circle class="st24" cx="7.4" cy="33.2" r="0.5"/>
	</g>
	<g>
		<path class="st26" d="M47.9,46.1c-0.1,0-0.2,0-0.3-0.1c-0.2-0.2-0.2-0.5,0-0.7c3.6-3.8,5.2-7.7,4.9-11.5c-0.5-6-5.7-10-5.7-10
			c-0.2-0.2-0.3-0.5-0.1-0.7s0.5-0.3,0.7-0.1c0.2,0.2,5.6,4.3,6.1,10.7c0.4,4.2-1.4,8.3-5.2,12.3C48.2,46.1,48.1,46.1,47.9,46.1z"/>
	</g>
</g>
</svg>
