<?xml version="1.0" encoding="utf-8"?>
<!-- Generator: Adobe Illustrator 20.0.0, SVG Export Plug-In . SVG Version: 6.00 Build 0)  -->
<svg version="1.1" id="Layer_1" xmlns="http://www.w3.org/2000/svg" xmlns:xlink="http://www.w3.org/1999/xlink" x="0px" y="0px"
	 viewBox="0 0 64 64" style="enable-background:new 0 0 64 64;" xml:space="preserve">
<style type="text/css">
	.st0{display:none;}
	.st1{display:inline;fill:#D1A982;}
	.st2{display:inline;}
	.st3{fill:#AFD048;stroke:#6B9311;stroke-width:3;stroke-miterlimit:10;}
	.st4{fill:none;stroke:#6B9311;stroke-miterlimit:10;}
	.st5{fill:#AFD048;}
	.st6{fill:#F40000;stroke:#BA0D0D;stroke-width:3;stroke-miterlimit:10;}
	.st7{fill:none;stroke:#FFFFFF;stroke-linecap:round;stroke-linejoin:round;stroke-miterlimit:10;}
	.st8{fill:#CDA347;stroke:#A2690C;stroke-width:3;stroke-miterlimit:10;}
	.st9{fill:#A2CC62;}
	.st10{fill:#68664C;stroke:#522B25;stroke-width:3;stroke-linecap:round;stroke-linejoin:round;stroke-miterlimit:10;}
	.st11{fill:#B63E34;stroke:#522B25;stroke-width:3;stroke-miterlimit:10;}
	.st12{fill:#ADD481;}
	.st13{fill:#68664C;}
	.st14{fill:#593156;stroke:#331E31;stroke-width:3;stroke-miterlimit:10;}
	.st15{fill:none;stroke:#FFFFFF;stroke-linecap:round;stroke-miterlimit:10;}
	.st16{fill:#22B573;stroke:#184C28;stroke-width:3;stroke-linecap:round;stroke-linejoin:round;stroke-miterlimit:10;}
	.st17{fill:#EE0000;}
	.st18{fill:#9A0601;}
	.st19{fill:#EE0000;stroke:#9A0601;stroke-linecap:round;stroke-linejoin:round;stroke-miterlimit:10;}
	.st20{fill:#FFFFFF;}
	.st21{clip-path:url(#SVGID_2_);}
	.st22{fill:#00FFFF;}
	.st23{fill:#456A0A;}
	.st24{fill:#183300;}
	.st25{fill:#88A501;}
	.st26{fill:#3B6700;}
	.st27{fill:#FC4100;}
	.st28{fill:#9F0500;}
	.st29{fill:none;stroke:#6B9311;stroke-width:3;stroke-linecap:round;stroke-miterlimit:10;}
	.st30{fill:#6B9311;}
	.st31{fill:#593156;}
	.st32{fill:#331E31;}
	.st33{fill:#AFD048;stroke:#6B9311;stroke-width:3;stroke-linecap:round;stroke-linejoin:round;stroke-miterlimit:10;}
	.st34{fill:none;stroke:#6B9311;stroke-linejoin:round;stroke-miterlimit:10;}
	.st35{fill:#B63E34;stroke:#522B25;stroke-miterlimit:10;}
	.st36{fill:none;stroke:#522B25;stroke-miterlimit:10;}
	.st37{fill:none;stroke:#522B25;stroke-width:3;stroke-miterlimit:10;}
	.st38{fill:#B63E34;}
	.st39{fill:#522B25;}
	.st40{fill:none;stroke:#40760E;stroke-width:3;stroke-linecap:round;stroke-linejoin:round;stroke-miterlimit:10;}
	.st41{fill:none;stroke:#40760E;stroke-linecap:round;stroke-linejoin:round;stroke-miterlimit:10;}
	.st42{fill:#A2CC62;stroke:#40760E;stroke-width:3;stroke-linecap:round;stroke-linejoin:round;stroke-miterlimit:10;}
	.st43{fill:#A2CC62;stroke:#40760E;stroke-linecap:round;stroke-linejoin:round;stroke-miterlimit:10;}
	.st44{fill:#9EC161;}
	.st45{fill:#40760E;}
	.st46{fill:#AFD048;stroke:#6B9311;stroke-width:3;stroke-linejoin:round;stroke-miterlimit:10;}
	.st47{fill:#663965;}
	.st48{fill:#9D610B;}
	.st49{fill:none;stroke:#A2690C;stroke-linecap:round;stroke-miterlimit:10;}
	.st50{fill:#6D4E2B;}
	.st51{fill:#CDA347;}
	.st52{fill:#7F500A;}
	.st53{fill:#F40000;stroke:#BA0D0D;stroke-miterlimit:10;}
	.st54{fill:#F40000;stroke:#B63E34;stroke-width:3;stroke-miterlimit:10;}
	.st55{fill:#F40000;stroke:#B63E34;stroke-miterlimit:10;}
	.st56{fill:#F40000;}
	.st57{fill:#990D0D;}
	.st58{fill:#B94850;stroke:#6C0A04;stroke-width:3;stroke-miterlimit:10;}
	.st59{fill:#CE8645;stroke:#CE8645;stroke-width:0.5;stroke-miterlimit:10;}
	.st60{fill:#6C0A04;stroke:#6C0A04;stroke-width:0.5;stroke-miterlimit:10;}
	.st61{fill:none;stroke:#6C0A04;stroke-linecap:round;stroke-miterlimit:10;}
	.st62{fill:#B94850;}
	.st63{fill:#CE8645;}
	.st64{fill:#6C0A04;}
	.st65{fill:#8C4F6F;}
	.st66{fill:#E7C456;}
	.st67{fill:#391A26;}
	.st68{fill:#E7C456;stroke:#AC5E17;stroke-width:3;stroke-miterlimit:10;}
	.st69{fill:#4F250E;stroke:#4F250E;stroke-width:0.5;stroke-miterlimit:10;}
	.st70{fill:none;stroke:#AC5E17;stroke-linecap:round;stroke-miterlimit:10;}
	.st71{fill:#4F250E;}
	.st72{fill:#995116;}
</style>
<g class="st0">
	<rect x="-232.3" y="-1817.7" class="st1" width="919.6" height="2155.1"/>
	<path class="st2" d="M686.8-1817.2V337h-918.6v-2154.1H686.8 M687.8-1818.2h-920.6V338h920.6V-1818.2L687.8-1818.2z"/>
</g>
<g>
	<path class="st66" d="M38.3,11.7c-6.3,1.1-14.4,1-22,1.7C8.3,14.2,2.1,21.7,2,31.3c-0.1,7.6,3.7,14.1,9.2,16.5
		c4.6,2.6,12,4.4,20.3,4.5c7.5,0.1,14.3-1.2,19-3.2c6.6-2.6,11.5-9.7,11.6-18.1C62,30.9,63.6,7.3,38.3,11.7z"/>
	<path class="st71" d="M26,44.9c-0.1-0.1-0.3-0.2-0.5-0.2c0,0,0,0,0,0c-0.4,0-0.8,0.3-0.8,0.8v0c0,0.4,0.3,0.8,0.8,0.8c0,0,0,0,0,0
		c0.4,0,0.8-0.3,0.8-0.8C26.2,45.3,26.1,45.1,26,44.9z"/>
	<path class="st71" d="M16.9,42c-0.1-0.1-0.3-0.2-0.5-0.2c-0.2,0-0.4,0.1-0.5,0.2c-0.1,0.1-0.2,0.3-0.2,0.5c0,0.4,0.3,0.8,0.8,0.8
		c0,0,0,0,0,0c0.2,0,0.4-0.1,0.5-0.2c0.1-0.1,0.2-0.3,0.2-0.5C17.1,42.4,17,42.2,16.9,42z"/>
	<g>
		<path class="st71" d="M38.4,30.6C38.4,30.6,38.4,30.6,38.4,30.6c-0.4,0-0.8,0.3-0.8,0.8v0c0,0.4,0.3,0.8,0.8,0.8c0,0,0,0,0,0
			c0.4,0,0.8-0.3,0.8-0.8c0-0.2-0.1-0.4-0.2-0.5C38.8,30.7,38.6,30.6,38.4,30.6z"/>
		<path class="st71" d="M46.9,21.3c-0.4,0-0.8,0.3-0.8,0.8v0c0,0.4,0.3,0.8,0.8,0.8c0,0,0,0,0,0c0.4,0,0.8-0.3,0.8-0.8
			C47.7,21.7,47.3,21.3,46.9,21.3z"/>
		<path class="st71" d="M38.3,36.9c-0.2,0-0.4,0.1-0.5,0.2c-0.1,0.1-0.2,0.3-0.2,0.5c0,0.4,0.3,0.8,0.8,0.8c0,0,0,0,0,0
			c0.4,0,0.8-0.3,0.8-0.8C39.1,37.2,38.8,36.9,38.3,36.9z"/>
		<path class="st71" d="M32.1,33.7c-0.2,0-0.4,0.1-0.5,0.2c-0.1,0.1-0.2,0.3-0.2,0.5v0c0,0.4,0.3,0.8,0.8,0.8c0,0,0,0,0,0
			c0.4,0,0.8-0.3,0.8-0.8c0-0.2-0.1-0.4-0.2-0.5C32.5,33.7,32.3,33.7,32.1,33.7z"/>
		<path class="st71" d="M28,21.9c-0.4,0-0.7,0.4-0.7,0.8c0,0.4,0.4,0.7,0.8,0.7c0,0,0,0,0.1,0c0.4,0,0.7-0.4,0.7-0.8
			C28.8,22.2,28.4,21.9,28,21.9z"/>
		<path class="st71" d="M22.8,21.1c-0.4,0-0.7,0.4-0.7,0.8c0,0.2,0.1,0.4,0.3,0.5c0.1,0.1,0.3,0.2,0.5,0.2c0,0,0,0,0.1,0
			c0.4,0,0.7-0.4,0.7-0.8C23.6,21.4,23.2,21.1,22.8,21.1z"/>
		<path class="st71" d="M19.6,31.4C19.6,31.4,19.6,31.4,19.6,31.4c-0.2,0-0.4,0.1-0.5,0.2c-0.1,0.1-0.2,0.3-0.2,0.5
			c0,0.4,0.3,0.8,0.8,0.8c0,0,0,0,0,0c0.2,0,0.4-0.1,0.5-0.2c0.1-0.1,0.2-0.3,0.2-0.5c0-0.2-0.1-0.4-0.2-0.5
			C20,31.5,19.8,31.4,19.6,31.4z"/>
		<path class="st71" d="M11.2,33.4C11.2,33.4,11.2,33.4,11.2,33.4c-0.4,0-0.8,0.3-0.8,0.8c0,0.2,0.1,0.4,0.2,0.5s0.3,0.2,0.5,0.2
			c0,0,0,0,0,0c0.4,0,0.8-0.3,0.8-0.8C12,33.7,11.6,33.4,11.2,33.4z"/>
		<path class="st71" d="M54.7,29c-0.1-0.1-0.3-0.2-0.5-0.2c-0.4,0-0.8,0.3-0.8,0.8v0c0,0.4,0.3,0.8,0.8,0.8c0,0,0,0,0,0
			c0.4,0,0.8-0.3,0.8-0.8C54.9,29.3,54.8,29.1,54.7,29z"/>
		<path class="st71" d="M52,33.9c-0.2,0-0.4,0.1-0.5,0.2c-0.1,0.1-0.2,0.3-0.2,0.5c0,0.2,0.1,0.4,0.2,0.5c0.1,0.1,0.3,0.2,0.5,0.2
			c0,0,0,0,0,0c0.4,0,0.8-0.3,0.8-0.8C52.7,34.3,52.4,33.9,52,33.9z"/>
	</g>
	<path class="st72" d="M57.3,14.2c-4.5-4-10.9-5.3-19.3-3.9h0c-3.6,0.6-7.8,0.8-12.3,1.1c-3.1,0.2-6.4,0.3-9.5,0.6
		C7.2,12.9,0.6,21,0.5,31.2c-0.1,7.9,3.9,15.1,10,17.9c5,2.9,12.6,4.6,20.9,4.7c0.3,0,0.6,0,0.9,0c7.1,0,13.9-1.2,18.7-3.3
		c7.4-2.9,12.4-10.7,12.5-19.4C63.5,30.6,64.1,20.4,57.3,14.2z M60.5,30.9c-0.1,7.6-4.4,14.3-10.7,16.8c-4.6,2.1-11.3,3.2-18.3,3.1
		c-7.7-0.1-15.1-1.7-19.6-4.3l-0.1-0.1c-5.1-2.3-8.4-8.4-8.3-15.2c0-3.3,0.9-6.4,2.3-8.9C6,22,6.3,21.6,6.5,21.3
		c2.8-3.5,6.8-5.6,11.2-6.1c5.2-0.6,10.3,1.3,13.9,5.2c0.2,0.2,0.5,0.2,0.7,0c0.2-0.2,0.2-0.5,0-0.7c-2.6-2.7-5.8-4.5-9.3-5.2
		c0.9-0.1,1.9-0.1,2.8-0.2c4.6-0.2,8.9-0.5,12.7-1.1h0c7.4-1.3,13-0.2,16.8,3.2C61.1,21.6,60.5,30.7,60.5,30.9z"/>
</g>
</svg>
