<?xml version="1.0" encoding="utf-8"?>
<!-- Generator: Adobe Illustrator 20.0.0, SVG Export Plug-In . SVG Version: 6.00 Build 0)  -->
<svg version="1.1" id="Layer_1" xmlns="http://www.w3.org/2000/svg" xmlns:xlink="http://www.w3.org/1999/xlink" x="0px" y="0px"
	 viewBox="0 0 250 250" style="enable-background:new 0 0 250 250;" xml:space="preserve">
<style type="text/css">
	.st0{fill:#81AF5B;}
	.st1{fill:#47771E;}
	.st2{fill:#D0A679;}
	.st3{fill:#CDA973;stroke:#A5794A;stroke-width:3;stroke-miterlimit:10;}
	.st4{fill:#E0C9BB;stroke:#68763A;stroke-width:3;stroke-linecap:round;stroke-miterlimit:10;}
	.st5{fill:none;stroke:#C69C6D;stroke-width:3;stroke-miterlimit:10;}
	.st6{fill:none;stroke:#699273;stroke-width:3;stroke-miterlimit:10;}
	.st7{fill:#689946;}
	.st8{fill:none;stroke:#689946;stroke-width:3;stroke-miterlimit:10;}
	.st9{fill:#00FFFF;}
	.st10{fill:#54665F;}
	.st11{fill:#434D42;}
	.st12{fill:#54665F;stroke:#434D42;stroke-width:2;stroke-linecap:round;stroke-linejoin:round;stroke-miterlimit:10;}
	.st13{fill:#748C8B;}
	.st14{fill:#EFC11E;}
	.st15{fill:none;stroke:#434D42;stroke-linecap:round;stroke-linejoin:round;stroke-miterlimit:10;}
	.st16{fill:none;stroke:#FFFFFF;stroke-linecap:round;stroke-linejoin:round;stroke-miterlimit:10;}
	.st17{fill:#748C8B;stroke:#434D42;stroke-linecap:round;stroke-linejoin:round;stroke-miterlimit:10;}
	.st18{fill:#FFFFFF;}
	.st19{fill:#EFFE99;stroke:#3E4A14;stroke-width:3;stroke-miterlimit:10;}
	.st20{clip-path:url(#SVGID_2_);}
	.st21{fill:none;stroke:#3E4A14;stroke-width:3;stroke-miterlimit:10;}
	.st22{fill:none;stroke:#FFFFFF;stroke-linecap:round;stroke-miterlimit:10;}
	.st23{fill:#EFFE99;}
	.st24{fill:#3E4A14;}
	.st25{fill:#F1C06D;}
	.st26{clip-path:url(#SVGID_4_);}
	.st27{clip-path:url(#SVGID_6_);}
	.st28{fill:none;stroke:#E4D9C8;stroke-linecap:round;stroke-linejoin:round;}
	.st29{clip-path:url(#SVGID_8_);}
	.st30{clip-path:url(#SVGID_10_);}
	.st31{clip-path:url(#SVGID_12_);}
	.st32{clip-path:url(#SVGID_14_);}
	.st33{clip-path:url(#SVGID_16_);}
	.st34{fill:#DED1C8;}
	.st35{clip-path:url(#SVGID_18_);}
	.st36{clip-path:url(#SVGID_20_);}
	.st37{clip-path:url(#SVGID_22_);}
	.st38{fill:none;stroke:#C6A06A;stroke-width:2;stroke-miterlimit:10;}
	.st39{fill:#699273;}
	.st40{clip-path:url(#SVGID_24_);}
	.st41{fill:#E4D9C8;}
	.st42{clip-path:url(#SVGID_26_);fill:#E4D9C8;}
	.st43{clip-path:url(#SVGID_28_);fill:#E4D9C8;}
	.st44{fill:#C6A06A;}
	.st45{fill:none;stroke:#C8CF80;stroke-width:3;stroke-miterlimit:10;}
	.st46{fill:#CEE5D9;}
	.st47{fill:none;stroke:#86C1A7;stroke-width:3;stroke-linecap:round;stroke-miterlimit:10;}
	.st48{fill:none;stroke:#86C1A7;stroke-linecap:round;stroke-miterlimit:10;}
	.st49{fill:#86C1A7;}
	.st50{fill:#CFE2CF;}
	.st51{fill:#C8CF80;}
	.st52{fill:#86BF95;}
	.st53{fill:none;stroke:#86BF95;stroke-width:3;stroke-linecap:round;stroke-miterlimit:10;}
	.st54{fill:none;stroke:#86BF95;stroke-linecap:round;stroke-miterlimit:10;}
	.st55{fill:#ECEE9A;stroke:#699273;stroke-linecap:round;stroke-miterlimit:10;}
	.st56{fill:none;stroke:#699273;stroke-width:3;stroke-linecap:round;stroke-miterlimit:10;}
	.st57{fill:#C69C6D;}
	.st58{fill:#ECEE9A;}
	.st59{clip-path:url(#SVGID_30_);}
	.st60{fill:#2F7B1D;stroke:#0A4D2C;stroke-width:3;stroke-miterlimit:10;}
	.st61{fill:#2F7B1D;stroke:#0A4D2C;stroke-linecap:round;stroke-miterlimit:10;}
	.st62{fill:#2F7B1D;stroke:#81AF5B;stroke-linecap:round;stroke-miterlimit:10;}
	.st63{fill:#2F7B1D;}
	.st64{fill:#0A4D2C;}
	.st65{fill:#FFE706;}
	.st66{fill:#D3A700;}
	.st67{fill:none;stroke:#D3A700;stroke-linecap:round;stroke-miterlimit:10;}
	.st68{fill:#FA8D1B;stroke:#D2614D;stroke-width:3;stroke-miterlimit:10;}
	.st69{fill:#FA8D1B;stroke:#D2614D;stroke-linecap:round;stroke-miterlimit:10;}
	.st70{fill:#E0C9BB;}
	.st71{fill:#FA8D1B;}
	.st72{fill:#68763A;}
	.st73{fill:#D2614D;}
	.st74{fill:#5D685D;stroke:#4A544B;stroke-width:3;stroke-linecap:round;stroke-miterlimit:10;}
	.st75{fill:none;stroke:#979B83;stroke-linecap:round;stroke-miterlimit:10;}
	.st76{fill:none;stroke:#4A544B;stroke-width:3;stroke-linecap:round;stroke-miterlimit:10;}
	.st77{fill:#F4E400;stroke:#DFBE00;stroke-width:3;stroke-miterlimit:10;}
	.st78{fill:#F4E400;stroke:#DFBE00;stroke-linecap:round;stroke-miterlimit:10;}
	.st79{fill:#FDDC6C;stroke:#0A4D2C;stroke-width:3;stroke-miterlimit:10;}
	.st80{fill:#FDDC6C;stroke:#0A4D2C;stroke-miterlimit:10;}
	.st81{fill:#FDDC6C;stroke:#0A4D2C;stroke-linecap:round;stroke-miterlimit:10;}
	.st82{fill:#FDDC6C;stroke:#FFFFFF;stroke-linecap:round;stroke-miterlimit:10;}
	.st83{fill:#CDA973;}
	.st84{fill:#A5794A;}
	.st85{fill:#FDDC6C;}
	.st86{fill:#F4E400;}
	.st87{fill:#DFBE00;}
	.st88{fill:#5D685D;}
	.st89{fill:#4A544B;}
	.st90{fill:#979B83;}
	.st91{fill:#FDCC89;}
	.st92{fill:#FDCC89;stroke:#D0A679;stroke-linecap:round;stroke-miterlimit:10;}
	.st93{fill:#F3CF47;stroke:#D3A700;stroke-linecap:round;stroke-linejoin:round;stroke-miterlimit:10;}
	.st94{fill:#F3CF47;stroke:#FFFFFF;stroke-linecap:round;stroke-linejoin:round;stroke-miterlimit:10;}
	.st95{fill:none;stroke:#D3A700;stroke-miterlimit:10;}
	.st96{fill:#81AF5B;stroke:#2F7B1D;stroke-width:3;stroke-linecap:round;stroke-linejoin:round;stroke-miterlimit:10;}
	.st97{fill:#F3CF47;}
	.st98{fill:#81AF5B;stroke:#0A4D2C;stroke-width:3;stroke-linecap:round;stroke-miterlimit:10;}
	.st99{fill:#47771E;stroke:#0B4C0B;stroke-width:3;stroke-miterlimit:10;}
	.st100{fill:none;stroke:#81AF5B;stroke-linecap:round;stroke-miterlimit:10;}
	.st101{fill:#81AF5B;stroke:#0B4C0B;stroke-width:3;stroke-miterlimit:10;}
	.st102{fill:#0B4C0B;}
</style>
<polygon class="st0" points="207.3,29.5 236.9,43.9 239.5,26.1 218.3,15.7 "/>
<polygon class="st1" points="206.8,28.3 234.2,43.6 235.5,58.2 213,94.5 144.6,170.6 49.7,234 17,227.9 9.2,199.9 42.3,158.7 
	138.3,98.1 174.6,68 "/>
<g>
	<g>
		<defs>
			<path id="SVGID_13_" d="M-72.7-83.2c10.1,9.8,25.6,10.5,37.6-1.1c11-10.6,18.2-26.1,9.3-38.1c-1-1.3-2.5-1.6-4-2.9
				c-1.3-1.5-1.5-3.1-2.8-4.1c-11.7-9.2-27.4-2.4-38.3,8.2c-12,11.6-11.8,27.1-2.4,37.5L-72.7-83.2z"/>
		</defs>
		<clipPath id="SVGID_2_">
			<use xlink:href="#SVGID_13_"  style="overflow:visible;"/>
		</clipPath>
		<g class="st20">
			<g>
				<defs>
					<rect id="SVGID_17_" x="-81.8" y="-122.1" width="72" height="72"/>
				</defs>
				<clipPath id="SVGID_4_">
					<use xlink:href="#SVGID_17_"  style="overflow:visible;"/>
				</clipPath>
				<g class="st26">
					<g>
						<polygon class="st34" points="62.2,22.1 62.1,22 -10.1,-50.1 -9.8,-50.3 -9.7,-50.2 62.4,21.9 						"/>
					</g>
					<g>
						<polygon class="st34" points="-9.8,22.1 -10.1,21.9 -9.9,21.8 62.2,-50.3 62.4,-50.1 62.3,-50 						"/>
					</g>
					<g>
						<polygon class="st34" points="-12.8,19.1 -13.1,18.9 -12.9,18.8 56.2,-50.3 56.4,-50.1 56.3,-50 						"/>
					</g>
					<g>
						<polygon class="st34" points="-12.8,13.1 -13.1,12.9 -13,12.8 50.2,-50.3 50.4,-50.1 50.3,-50 						"/>
					</g>
					<g>
						<polygon class="st34" points="-12.9,7.1 -13.1,6.9 -13,6.8 44.2,-50.3 44.4,-50.1 44.3,-50 						"/>
					</g>
					<g>
						<polygon class="st34" points="-12.9,1.1 -13.1,0.9 -13,0.8 38.2,-50.3 38.4,-50.1 38.3,-50 						"/>
					</g>
				</g>
			</g>
		</g>
	</g>
</g>
<path class="st0" d="M33.5,199.3c-0.3,0-0.7-0.1-1-0.3c-0.9-0.5-1.1-1.7-0.6-2.6c1.4-2.3,3.5-4.9,6-7.7c0.7-0.8,1.9-0.8,2.6-0.1
	c0.8,0.7,0.8,1.9,0.1,2.6c-2.4,2.6-4.2,5-5.6,7.2C34.8,199,34.2,199.3,33.5,199.3z"/>
<path class="st0" d="M52,180.4c-0.5,0-1.1-0.2-1.4-0.7c-0.7-0.8-0.6-2,0.2-2.6c1.1-1,2.3-1.9,3.5-2.9c5.7-4.7,12.3-9.7,20.8-16
	c0.8-0.6,2-0.4,2.6,0.4c0.6,0.8,0.4,2-0.4,2.6c-8.4,6.2-15,11.2-20.6,15.8c-1.2,1-2.3,1.9-3.4,2.9C52.8,180.2,52.4,180.4,52,180.4z"
	/>
<path class="st0" d="M86.7,153.5c-0.6,0-1.2-0.3-1.5-0.8c-0.6-0.9-0.4-2,0.5-2.6c1.2-0.9,2.5-1.7,3.7-2.6c0.9-0.6,2-0.4,2.6,0.5
	c0.6,0.9,0.4,2-0.5,2.6c-1.2,0.8-2.5,1.7-3.7,2.5C87.4,153.4,87,153.5,86.7,153.5z"/>
<path class="st0" d="M61.1,193c-0.6,0-1.2-0.3-1.5-0.8c-0.6-0.9-0.4-2,0.5-2.6c1.2-0.9,2.5-1.7,3.7-2.6c0.9-0.6,2-0.4,2.6,0.5
	c0.6,0.9,0.4,2-0.5,2.6c-1.2,0.8-2.5,1.7-3.7,2.5C61.8,192.9,61.4,193,61.1,193z"/>
<path class="st18" d="M101.9,140.2c-0.6,0-1.2-0.3-1.6-0.9c-0.6-0.9-0.3-2,0.6-2.6c11.7-7.5,23.7-14.5,35.7-20.7
	c0.9-0.5,2-0.1,2.5,0.8c0.5,0.9,0.1,2-0.8,2.5c-11.9,6.2-23.8,13.2-35.5,20.6C102.6,140.1,102.3,140.2,101.9,140.2z"/>
<path class="st18" d="M147.6,113.9c-0.6,0-1.3-0.3-1.6-0.9c-0.5-0.9-0.2-2,0.7-2.6l0.4-0.3c0.1-0.1,0.2-0.1,0.6-0.4
	c0.9-0.5,2-0.2,2.6,0.6c0.5,0.9,0.2,2-0.6,2.6l-0.4,0.3c-0.1,0.1-0.2,0.1-0.7,0.4C148.2,113.8,147.9,113.9,147.6,113.9z"/>
<path class="st18" d="M156.7,106.6c-0.5,0-1-0.2-1.4-0.6c-0.7-0.8-0.7-1.9,0.1-2.6c2.1-1.9,4.1-3.9,6-5.8c0.7-0.7,1.9-0.7,2.6,0
	c0.7,0.7,0.8,1.9,0,2.6c-1.9,2-4,4-6.1,6C157.6,106.4,157.1,106.6,156.7,106.6z"/>
<path class="st0" d="M177.4,89.3c-0.5,0-1-0.2-1.3-0.6c-0.7-0.7-0.7-1.9,0-2.6c1.6-1.5,3.1-3.1,4.6-4.6c0.7-0.7,1.9-0.8,2.6,0
	c0.7,0.7,0.8,1.9,0,2.6c-1.5,1.5-3.1,3.1-4.7,4.7C178.3,89.1,177.8,89.3,177.4,89.3z"/>
<path class="st0" d="M194.9,71.3c-0.4,0-0.8-0.1-1.2-0.4c-0.8-0.6-0.9-1.8-0.3-2.6c0.8-1,1.5-1.9,2.2-2.9c0.6-0.8,1.8-1,2.6-0.4
	c0.8,0.6,1,1.8,0.4,2.6c-0.7,0.9-1.5,1.9-2.3,2.9C196,71.1,195.5,71.3,194.9,71.3z"/>
<path class="st0" d="M207,54c-0.3,0-0.7-0.1-1-0.3c-0.9-0.5-1.2-1.7-0.6-2.6c1.5-2.5,2.6-4.4,3.1-5.5c0.5-0.9,1.6-1.3,2.5-0.8
	c0.9,0.5,1.3,1.6,0.8,2.5c-0.6,1.1-1.6,3.1-3.2,5.7C208.3,53.7,207.7,54,207,54z"/>
<path class="st0" d="M213.5,63.1c-0.3,0-0.7-0.1-1-0.3c-0.9-0.6-1.1-1.7-0.6-2.6l0.7-1.1c0.5-0.9,1.7-1.2,2.6-0.6
	c0.9,0.5,1.2,1.7,0.6,2.6l-0.7,1.2C214.7,62.8,214.1,63.1,213.5,63.1z"/>
<path class="st0" d="M203.3,77.7c-0.4,0-0.7-0.1-1-0.3c-0.8-0.6-1.1-1.7-0.5-2.5l0.1-0.2l0.8-1.1c0.6-0.8,1.8-1,2.6-0.4
	c0.8,0.6,1,1.8,0.4,2.6l-0.8,1.1C204.5,77.4,203.9,77.7,203.3,77.7z"/>
<path class="st0" d="M201.5,88.8c-0.4,0-0.8-0.1-1.1-0.4c-0.8-0.6-1-1.8-0.4-2.6l1-1.4c0.6-0.8,1.8-1,2.6-0.4c0.8,0.6,1,1.8,0.4,2.6
	l-1,1.4C202.6,88.5,202.1,88.8,201.5,88.8z"/>
<path class="st0" d="M212.1,74.1c-0.4,0-0.8-0.1-1.1-0.4c-0.8-0.6-1-1.8-0.4-2.6l1-1.4c0.6-0.8,1.8-1,2.6-0.4c0.8,0.6,1,1.8,0.4,2.6
	l-1,1.4C213.3,73.9,212.7,74.1,212.1,74.1z"/>
<path class="st0" d="M58.2,209.9c-0.8,0-1.5-0.5-1.8-1.3c-0.3-1,0.2-2,1.2-2.3l1.2-0.4c1-0.3,2,0.2,2.3,1.2c0.3,1-0.2,2-1.2,2.3
	l-1.2,0.4C58.6,209.9,58.4,209.9,58.2,209.9z"/>
<path class="st0" d="M47.2,206.1c-1,0-1.8-0.7-1.9-1.7c-0.1-1,0.7-1.9,1.7-2l1.6-0.1c1,0,1.9,0.7,2,1.7c0.1,1-0.7,1.9-1.7,2
	l-1.6,0.1C47.3,206.1,47.3,206.1,47.2,206.1z"/>
<path class="st0" d="M42,214.2c-0.1,0-0.2,0-0.3,0l-1.7-0.3c-1-0.2-1.7-1.1-1.6-2.1c0.2-1,1.1-1.7,2.1-1.6l1.7,0.3
	c1,0.2,1.7,1.1,1.6,2.1C43.7,213.6,42.9,214.2,42,214.2z"/>
<path class="st0" d="M185.6,100.5c-0.4,0-0.8-0.1-1.2-0.4c-0.8-0.7-0.9-1.8-0.2-2.6l1.2-1.4c0.7-0.8,1.8-0.9,2.6-0.3
	c0.8,0.7,0.9,1.8,0.3,2.6l-1.2,1.4C186.7,100.3,186.2,100.5,185.6,100.5z"/>
<path class="st0" d="M183.4,111.1c-0.4,0-0.9-0.1-1.2-0.4c-0.8-0.7-0.9-1.9-0.2-2.6l1.2-1.4c0.7-0.8,1.9-0.9,2.6-0.2
	c0.8,0.7,0.9,1.9,0.2,2.6l-1.2,1.4C184.5,110.9,183.9,111.1,183.4,111.1z"/>
<path class="st0" d="M162.7,126.3c-0.5,0-0.9-0.2-1.3-0.5c-0.7-0.7-0.8-1.9-0.1-2.6l1.3-1.4c0.7-0.7,1.9-0.8,2.6-0.1
	c0.7,0.7,0.8,1.9,0.1,2.6l-1.3,1.4C163.7,126.1,163.2,126.3,162.7,126.3z"/>
<path class="st0" d="M140.5,148.3c-0.5,0-1-0.2-1.4-0.6c-0.7-0.8-0.7-1.9,0.1-2.6l1.6-1.5c0.7-0.7,1.9-0.7,2.6,0.1
	c0.7,0.8,0.7,1.9-0.1,2.6l-1.7,1.6C141.5,148.1,141,148.3,140.5,148.3z"/>
<path class="st0" d="M116.5,169.3c-0.5,0-1.1-0.2-1.4-0.7c-0.6-0.8-0.5-2,0.3-2.6c2.3-1.8,4.5-3.7,6.7-5.5c0.8-0.7,2-0.6,2.6,0.2
	c0.7,0.8,0.6,2-0.2,2.6c-2.2,1.9-4.4,3.7-6.7,5.6C117.4,169.1,116.9,169.3,116.5,169.3z"/>
<path class="st0" d="M74.4,201.4c-0.6,0-1.2-0.3-1.6-0.9c-0.5-0.9-0.3-2,0.6-2.6c6.7-4.1,14-9.1,22.5-15.2c0.8-0.6,2-0.4,2.6,0.4
	c0.6,0.8,0.4,2-0.4,2.6c-8.5,6.2-16,11.2-22.7,15.3C75.1,201.3,74.8,201.4,74.4,201.4z"/>
<path class="st0" d="M117.4,151.8c-0.6,0-1.1-0.2-1.5-0.7c-0.6-0.8-0.5-2,0.3-2.6c3.9-3,7.5-6,10.9-8.9c0.8-0.7,2-0.6,2.6,0.2
	c0.7,0.8,0.6,2-0.2,2.6c-3.4,2.9-7.1,5.9-11,9C118.2,151.7,117.8,151.8,117.4,151.8z"/>
<path class="st0" d="M92.7,169.8c-0.6,0-1.2-0.3-1.5-0.8c-0.6-0.9-0.4-2,0.5-2.6c1.3-0.9,2.7-1.8,4-2.8c0.8-0.6,2-0.4,2.6,0.5
	c0.6,0.8,0.4,2-0.5,2.6c-1.4,1-2.7,1.9-4.1,2.8C93.4,169.7,93.1,169.8,92.7,169.8z"/>
<path class="st102" d="M243.7,33.1c1.3-5-1.1-10.3-5.7-12.6l-14.3-7.1c-4.6-2.3-10.3-1-13.5,3l-4.5,5.7c-0.4,0.5-0.8,1.1-1,1.7
	c-4.8,2.3-8.9,6.2-12,11.3l-0.2,0.4c-0.2,0.4-20.3,40.3-68.6,65.7c-22,11.5-44.6,25.6-63.6,39.5c-26.9,19.7-41.8,33.2-49.6,45.2
	c-9.5,14.4-9.4,27.9,0.4,41.3c6.9,9.5,15.6,13.6,25.8,13.6c18.8,0,42.8-13.9,71.4-34.5c81.5-58.8,127.1-132.1,127.6-132.9
	c6.4-10.3,8.4-21.5,5.6-31.3c0.4-0.6,0.6-1.3,0.8-2.1L243.7,33.1z M211.5,27.8c-0.2-0.3-0.2-0.6,0-0.9l4.5-5.7
	c0.7-0.8,1.6-1.3,2.7-1.3c0.5,0,1,0.1,1.5,0.3l14.3,7.1c1.4,0.7,2.2,2.3,1.8,3.9l-1.7,7c-0.1,0.3-0.4,0.5-0.7,0.6
	C221.5,38.1,214.1,30.9,211.5,27.8z M225.9,67.4c-0.4,0.7-44.9,72.1-124.5,129.6c-53.5,38.6-71.2,37.3-81.3,23.4
	c-7-9.5-7-17.7-0.1-28.2c7.1-10.7,21.1-23.4,46.9-42.3c18.6-13.6,40.7-27.3,62.1-38.6c50.3-26.4,71.5-66.7,73.5-70.5
	c2.3-3.8,5.3-6.3,8.8-7.4l0.3-0.1c3.5,3.3,9.3,7.3,17.5,8.8l0.3,0.8C232.4,50,231.2,58.9,225.9,67.4z"/>
</svg>
