<svg width="15" height="24" viewBox="0 0 15 24" xmlns="http://www.w3.org/2000/svg"><title>Corn</title><g fill="none" fill-rule="evenodd"><ellipse fill="#DDCE08" cx="7.571" cy="10.286" rx="4" ry="10.286"/><rect fill="#F3EDA3" x="6.115" y="4.082" width="2.101" height="2.612" rx="1"/><rect fill="#F3EDA3" x="7.515" y="1.469" width="2.101" height="2.612" rx="1"/><rect fill="#F3EDA3" x="8.916" y="4.082" width="2.101" height="2.612" rx="1"/><rect fill="#F3EDA3" x="6.115" y="6.694" width="2.101" height="2.612" rx="1"/><rect fill="#F3EDA3" x="8.916" y="6.694" width="2.101" height="2.612" rx="1"/><rect fill="#F3EDA3" x="6.115" y="9.306" width="2.101" height="2.612" rx="1"/><rect fill="#F3EDA3" x="8.916" y="9.306" width="2.101" height="2.612" rx="1"/><rect fill="#F3EDA3" x="6.115" y="11.918" width="2.101" height="2.612" rx="1"/><path d="M15 8.018l-1.104 4.827s.3 5-.482 6.96c-.783 1.962-1.61 5.578-6.084 3.642 0 0-3.656-3.297.553-9.685C12.093 7.374 15 8.018 15 8.018z" fill="#779457"/><path d="M.143 8.018l1.104 4.827s-.302 5 .482 6.96c.782 1.962 1.61 5.578 6.083 3.642 0 0 3.656-3.297-.553-9.685C3.05 7.374.143 8.018.143 8.018z" fill="#A1C878"/></g></svg>