<svg width="45" height="64" viewBox="0 0 45 64" xmlns="http://www.w3.org/2000/svg"><title>Corn</title><g fill="none" fill-rule="evenodd"><ellipse fill="#E4D626" cx="22.714" cy="27.429" rx="12" ry="27.429"/><rect fill="#F3EDA3" x="18.344" y="11.34" width="6.302" height="7.421" rx="6"/><rect fill="#F3EDA3" x="22.546" y="3.918" width="6.302" height="7.421" rx="6"/><rect fill="#F3EDA3" x="26.748" y="11.34" width="6.302" height="7.421" rx="6"/><rect fill="#F3EDA3" x="18.344" y="18.761" width="6.302" height="7.421" rx="6"/><rect fill="#F3EDA3" x="26.748" y="18.761" width="6.302" height="7.421" rx="6"/><rect fill="#F3EDA3" x="18.344" y="26.182" width="6.302" height="7.421" rx="6"/><rect fill="#F3EDA3" x="26.748" y="26.182" width="6.302" height="7.421" rx="6"/><rect fill="#F3EDA3" x="18.344" y="33.604" width="6.302" height="7.421" rx="6"/><path d="M45 21.382l-3.312 12.872s.904 13.33-1.446 18.56c-2.35 5.23-4.83 14.875-18.253 9.71 0 0-10.968-8.79 1.658-25.825C36.275 19.663 45 21.38 45 21.38z" fill="#779457"/><path d="M.43 21.382l3.31 12.872s-.904 13.33 1.446 18.56c2.35 5.23 4.83 14.875 18.254 9.71 0 0 10.967-8.79-1.66-25.825C9.153 19.663.43 21.38.43 21.38z" fill="#A1C878"/></g></svg>