<svg width="23" height="32" viewBox="0 0 23 32" xmlns="http://www.w3.org/2000/svg"><title>Corn</title><g fill="none" fill-rule="evenodd"><ellipse fill="#DDCF27" cx="11.357" cy="13.714" rx="6" ry="13.714"/><rect fill="#F3EDA3" x="9.172" y="5.67" width="3.151" height="3.711" rx="2"/><rect fill="#F3EDA3" x="11.273" y="1.959" width="3.151" height="3.711" rx="2"/><rect fill="#F3EDA3" x="13.374" y="5.67" width="3.151" height="3.711" rx="2"/><rect fill="#F3EDA3" x="9.172" y="9.38" width="3.151" height="3.711" rx="2"/><rect fill="#F3EDA3" x="13.374" y="9.38" width="3.151" height="3.711" rx="2"/><rect fill="#F3EDA3" x="9.172" y="13.091" width="3.151" height="3.711" rx="2"/><rect fill="#F3EDA3" x="13.374" y="13.091" width="3.151" height="3.711" rx="2"/><rect fill="#F3EDA3" x="9.172" y="16.802" width="3.151" height="3.711" rx="2"/><path d="M22.5 10.69l-1.656 6.437s.452 6.665-.723 9.28c-1.174 2.616-2.414 7.437-9.125 4.855 0 0-5.484-4.395.83-12.913C18.137 9.83 22.5 10.69 22.5 10.69z" fill="#779457"/><path d="M.214 10.69l1.656 6.437s-.452 6.665.723 9.28c1.175 2.616 2.415 7.437 9.127 4.855 0 0 5.484-4.395-.83-12.913C4.577 9.83.214 10.69.214 10.69z" fill="#A1C878"/></g></svg>